<?xml version="1.0" encoding="UTF-8"?>
<svg width="134px" height="187px" viewBox="0 0 134 187" version="1.1" xmlns="http://www.w3.org/2000/svg" xmlns:xlink="http://www.w3.org/1999/xlink">
    <!-- Generator: Sketch 64 (93537) - https://sketch.com -->
    <title>mug</title>
    <desc>Created with Sketch.</desc>
    <g id="website" stroke="none" stroke-width="1" fill="none" fill-rule="evenodd">
        <g id="footer" transform="translate(-41.000000, -459.000000)">
            <g id="mug" transform="translate(40.000000, 448.000000)">
                <g id="BODY" transform="translate(0.974472, 75.375734)">
                    <path d="M62.9735144,3.53813046 C67.1673569,0.350120026 77.6962204,-1.08352642 82.1722574,1.98610176 C86.5932486,5.0686197 87.0752113,10.0534732 89.1353504,14.6391745 C91.0791118,13.7241712 94.2890267,15.034608 94.8525663,16.8351037 C95.5515117,17.6843014 95.5829029,20.070155 96.0648932,21.2117466 C117.036994,24.5442581 120.22095,40.8665323 122.745241,59.3969172 C126.084684,78.200531 133.665541,96.9631011 130.374517,116.312325 C130.80333,116.931712 129.432513,119.392977 129.745118,120.10802 C130.494183,121.380374 131.432823,122.46534 130.374517,122.252431 C127.300848,122.460656 26.2514009,122.252431 24.2732666,122.252431 C22.2951323,122.252431 22.9149713,120.987915 23.0479986,120.10802 C23.315922,118.336526 23.5644775,116.564184 23.8239062,114.791842 C17.3285048,116.504484 10.4233181,116.935443 3.94626532,114.97196 C3.49315704,114.511151 5.00198891,114.760975 5.24137007,114.690929 C-0.719543662,110.624719 1.06060951,102.058626 1.5886412,95.8888415 C4.87201972,74.7477717 6.02951004,51.356591 18.7153525,33.3165258 C24.2034502,25.9544384 32.2494775,20.1255538 41.494959,18.8140209 L41.7514563,18.7789623 C44.4548264,18.4191265 47.4677078,18.3032133 49.8313357,16.8351037 C52.489709,14.7165518 53.6225435,10.8020288 56.4192641,10.7653837 C57.3427552,10.7532833 58.5990385,11.9195559 59.9509238,12.7113986 C60.0518449,10.9694767 60.9922048,9.49945151 61.1998254,8.14884823 L61.2166322,8.0333469 C61.4332797,6.45873008 61.1365732,5.04207654 62.9735144,3.53813046 Z M108.044499,59.9554552 C102.150739,55.8681288 86.9260007,57.9218493 86.5774697,58.1507233 C85.8100569,58.6546111 85.479591,58.6991742 85.0645391,59.353499 C84.6547539,59.4077717 84.2453085,59.4640796 83.8362028,59.5220835 C83.0154431,59.7897156 83.623665,60.7974912 84.5716755,60.4379348 C84.0014677,62.8928058 85.6795355,64.6386357 86.3475813,67.0655409 C86.5644911,67.8535399 86.3554101,69.2707685 86.3475813,70.0759126 C86.4123663,71.102497 87.5493343,72.3151045 87.3598406,73.3450328 C86.6861578,77.006605 83.030364,80.5784062 84.5716755,84.1293431 C85.5927407,86.1348877 88.6637512,87.1575564 90.7055417,87.8393568 C94.9357415,89.4600744 102.306475,87.778332 104.764336,84.1293431 C106.075323,82.1830268 107.594162,77.2734399 108.375846,75.7505827 L108.549103,73.3348413 C108.976377,67.329771 109.356441,60.8652881 108.044499,59.9554552 Z" id="ðŸŽ¨-Background" fill="#FFFFFF"></path>
                    <path d="M65.5909993,27.9552757 L65.998773,28.0966651 C68.0270071,28.8074808 70.1947674,29.7674126 71.3380087,31.6844618 C71.5634585,32.0625049 71.1095008,32.529589 70.727918,32.2936725 C68.7413432,31.0657534 66.4071645,30.8188128 64.244749,30.0074364 C62.1558978,29.2237052 60.33497,28.0174951 58.7260703,26.478017 C57.119889,24.9410828 55.7712675,23.1924853 54.3645422,21.4808611 C52.9734471,19.7884018 51.4756584,18.3428832 49.8302314,16.9109328 C47.2910707,18.6161777 44.3926807,19.3581777 41.4455126,20.0869493 L41.1238247,20.1664449 C38.1730994,20.8957339 35.2381742,21.7427267 32.4699154,23.0127071 C30.0292129,24.1322505 27.6286055,25.4692237 25.6405017,27.2910894 C23.5300739,29.2245532 21.8875351,31.6939596 20.3841399,34.1089237 C17.0212508,39.5117678 14.6570008,45.4308806 12.5756249,51.4219048 C10.4108309,57.6534247 8.60009674,64.0097717 7.13832562,70.4415917 C6.39486787,73.7132159 5.79106329,77.0080757 5.29480185,80.3260013 C5.05593037,81.9239922 4.84373231,83.5253751 4.65735819,85.1303196 C4.45841188,86.8441487 4.4127103,88.607332 3.88603776,90.2551859 C3.66024815,90.961409 3.12711963,91.2544814 2.59348143,91.2295499 L2.4850929,92.5827656 C2.34136498,94.3869845 2.20737949,96.1917678 2.16211963,98.0071885 C2.08704109,101.025766 2.12108291,104.035655 2.33858697,107.047837 L2.36939076,107.458604 C2.54030449,109.656986 2.92222702,112.127071 4.57818741,113.736765 C6.29310114,115.403953 8.93037139,115.928193 11.2417842,115.958213 C16.625227,116.028258 21.807345,113.488976 26.571183,111.261252 C31.4773925,108.967045 36.2495554,106.42047 40.9073793,103.658669 C43.2794445,102.252159 45.6258555,100.798839 47.9423652,99.3031181 C49.0791284,98.5689106 50.2079066,97.8223222 51.3281901,97.0636921 C51.9698811,96.6291716 52.577933,96.1527593 53.2311768,95.7672538 C52.9110959,95.4697717 52.7682147,95.0020091 53.036308,94.5936073 C51.1479321,92.9572864 50.3620008,90.0372472 50.2700879,87.6745205 C50.1958441,85.7673451 50.4770193,83.8655969 50.6989013,81.9763992 C50.8108617,81.0237443 50.9491557,80.0727854 51.0927165,79.1243705 C51.1494612,78.7497195 51.1927842,78.3489498 51.259043,77.9534377 C46.1600034,80.7506849 40.9180827,83.2418004 35.5373582,85.454938 C32.779293,86.5894064 29.9858899,87.6093933 27.1539207,88.5440705 L26.5799248,88.7326027 C23.8966274,89.6094256 21.1491289,90.4377004 18.375139,90.9390215 C18.2268212,90.9658187 18.1063661,90.7472016 18.2647077,90.6774951 C20.9680668,89.4867189 23.7650378,88.4823353 26.5090017,87.3856882 L26.9599013,87.2023483 C26.9080835,87.1994651 26.8543969,87.1923418 26.7983318,87.1789432 C25.1890923,86.7912329 23.5924251,86.1937247 22.0141064,85.6906849 C20.5492772,85.2237704 18.9035105,84.9305284 17.5343318,84.2256621 C17.4289973,84.1713894 17.4879506,84.0251924 17.5905668,84.0182387 C19.12947,83.9117286 20.8000413,84.3594781 22.3088732,84.6228702 L22.8756911,84.7219861 C23.8252276,84.8891266 24.7958435,85.0688106 25.7407393,85.3031442 C25.7748881,84.9871755 25.9517482,84.66985 26.2033617,84.4837965 C28.9721302,82.4368689 28.690955,78.3026484 28.9870809,75.2540509 L29.2066675,72.9907067 C29.5929093,69.0296103 30.0015202,65.0690453 30.6223142,61.1375603 C30.6554436,60.927593 30.9807913,60.9878017 30.9821504,61.1860665 C31.014169,66.0595173 30.6456415,70.9105447 30.4609241,75.7763903 L30.4323211,76.5746161 C30.3302013,79.5770462 30.2501665,82.6947193 28.3559233,85.0049837 C28.6207886,84.8504762 28.978926,84.8504762 29.1935026,85.1052185 C29.4571786,85.4184736 29.609404,85.7702283 29.6046469,86.1153686 C31.3163327,85.3989693 33.020543,84.6639139 34.7164286,83.9139335 C40.1688485,81.502531 45.5069295,78.8039922 50.7038283,75.8841226 C51.2631205,75.56985 51.79472,75.8167906 52.071308,76.2311285 L52.1112269,76.2254123 C52.1178968,76.224514 52.1246548,76.2238356 52.1316205,76.223666 L52.1712059,76.22197 C52.1727349,76.22197 52.174264,76.2221396 52.1756232,76.2221396 C52.9071883,75.8208611 53.9037886,76.1066406 54.5315483,76.6919374 C54.5500668,76.709576 54.565867,76.7285714 54.5823467,76.7472277 C55.3771126,76.3910633 56.1192112,75.9102414 56.7926724,75.3008611 C58.1708555,74.0539465 59.3381997,72.5120939 60.355867,70.9660013 C62.2299717,68.1183823 63.821882,64.9517417 66.3534779,62.6076712 C68.410389,60.7032094 70.9605034,59.5175212 73.63583,58.7731376 C73.624617,58.6951207 73.6545184,58.6120157 73.7085448,58.5567254 C73.8459893,58.4161252 73.9440184,58.3674494 74.121558,58.4527593 C74.1356592,58.459713 74.144154,58.4692107 74.1499304,58.4793868 L74.4109929,58.0341011 C74.5534909,57.7924857 74.699814,57.5491077 74.750507,57.4851794 C75.0542781,57.1034051 75.3668837,56.724514 75.6842464,56.3535943 C76.2223018,55.7255577 76.8354506,55.1058317 77.5454392,54.6702935 C79.0999726,53.7169602 80.7341865,54.2564644 82.3323828,54.7774821 C83.2980624,55.0924331 84.260514,55.4175603 85.2244946,55.7372603 L85.3239338,55.7696764 C86.0427332,56.000225 86.8838529,56.2018833 87.205293,56.9621265 C87.3325439,57.2630007 87.3522517,57.5752381 87.2929585,57.8781474 C94.1199937,56.1449837 101.702719,56.9412655 108.364787,58.9758121 C108.620478,59.0538291 108.875829,59.2637965 108.929686,59.5395695 C109.693021,63.4473712 63.5720066,27.2431814 65.5909993,27.9552757 Z M116.011681,64.7214729 C116.091022,64.601225 116.279435,64.6772068 116.244607,64.8195029 C115.323609,68.5861957 114.459017,72.3605205 113.894458,76.1991246 C112.875333,83.1273181 113.062798,90.1459853 113.146111,97.1254217 L113.15032,97.4863914 C113.193134,101.245791 113.252597,105.00553 113.377129,108.763404 C113.43999,110.662608 113.564353,112.580468 113.496735,114.48069 C113.459868,115.511532 113.184639,116.486574 113.08712,117.505035 C113.001663,118.395615 113.077776,119.299933 113.120419,120.191701 C113.148961,120.78463 112.272306,120.759359 112.212673,120.191701 L112.136425,119.457467 C112.037368,118.528275 111.914934,117.604761 111.609888,116.715367 C111.243086,115.645687 111.067076,114.595172 110.939825,113.472067 C110.744914,111.751061 110.658234,110.012813 110.583008,108.279702 L110.531569,107.080951 C110.217438,99.8382241 110.228448,92.561518 110.737004,85.326377 L110.774178,84.809653 C111.277745,77.9706184 112.151511,70.581225 116.011681,64.7214729 Z M96.3795548,21.6176621 C96.1389844,21.5189537 96.223252,21.1558356 96.4896464,21.2190972 L96.9741089,21.3344601 C100.523979,22.1832694 104.009422,23.1029192 107.322791,24.6823718 C110.638279,26.2627241 113.445274,28.6220587 115.675647,31.523272 C120.011351,37.162711 121.813081,44.0163314 123.235437,50.8635068 C124.816134,58.4720261 126.255309,66.1083601 127.849768,73.7145049 L128.145855,75.1313163 C129.62122,82.2155286 131.014178,89.3037564 132.040552,96.4718826 L132.114281,96.9917696 C133.149309,104.362932 133.771875,111.989335 132.642488,119.379697 C132.419077,120.841837 129.981772,120.477701 130.077083,119.0332 C130.352312,114.857088 130.549389,110.702855 130.358938,106.517414 C130.168316,102.331126 129.775011,98.1631546 129.188705,94.0135003 C128.695307,90.5213425 127.9598,87.0726553 127.308909,83.608256 L127.206888,83.0611063 C126.661866,80.1145075 126.099992,77.1708394 125.539357,74.2269759 L124.701546,69.8193689 C123.445853,63.2196363 122.165595,56.61412 120.718962,50.0558617 L120.633112,49.6699528 C119.217412,43.360393 117.130266,36.7511037 112.883773,31.7407019 C108.574403,26.6558617 102.405368,24.0950398 96.3795548,21.6176621 Z M80.7209008,88.5422557 C80.8245364,88.3117665 81.1870909,88.3370372 81.2985416,88.5422557 C81.7352325,89.346588 81.7837628,90.3732729 81.8663147,91.2812852 L81.8749932,91.3747802 C81.9799879,92.4827906 82.0729202,93.5945323 82.1298348,94.7061044 C82.2377177,96.8157847 82.2893656,98.9227515 82.2827397,101.035145 C82.2759439,103.199947 82.2322811,105.362204 82.1153937,107.523782 L82.0836733,108.102984 C81.9769659,109.981437 81.7979958,112.07668 80.903877,113.718838 C80.5788691,114.316007 79.6949087,114.140468 79.5066658,113.536685 C78.8899492,111.559803 79.2066323,109.215902 79.364804,107.191192 L79.487627,105.611325 C79.6092501,104.031283 79.7252349,102.450644 79.8172327,100.868766 C79.9432943,98.7044736 80.0472696,96.5383157 80.1473374,94.3730059 C80.1798439,93.6697225 80.2149931,92.9662131 80.2521308,92.2629298 L80.3092467,91.2082309 C80.3580064,90.3259609 80.353929,89.3578721 80.7209008,88.5422557 Z M11.3788922,91.3439993 L11.6519025,91.0807304 C12.4899912,90.2619794 13.54908,89.0009954 14.7880403,89.079199 C15.2820931,89.1104057 15.5969074,89.5198252 15.4944611,90.0050568 C15.2756371,91.0423431 14.2156662,91.5806601 13.4526706,92.2139543 C12.6167903,92.9074573 11.8289901,93.648788 11.042719,94.397242 C10.3451705,95.0608761 9.67433525,95.7434052 9.0195936,96.4472115 L8.77479912,96.7121409 C8.54010443,96.9678069 6.86883477,98.4768748 7.04953635,98.8684054 L7.0593757,98.8859309 C7.10966444,98.960895 7.02590651,99.064013 6.94248838,99.0377247 C6.22077711,98.8101187 6.26579912,98.1925975 6.53864947,97.5669354 C7.06294349,96.3647958 7.98105264,95.2527149 8.78278415,94.2261135 C9.58234952,93.2019819 10.4477655,92.2483577 11.3788922,91.3439993 L11.3788922,91.3439993 Z M83.3361187,61.1967515 C82.7780158,59.8799609 80.722124,59.907606 79.5549497,59.9863014 C76.6157772,60.1845662 73.4356945,60.9269145 70.8205105,62.298317 C68.1092264,63.7200939 66.2829134,65.9981895 64.6487678,68.5172442 L64.5723054,68.635499 C62.9795457,71.1071102 61.4455695,74.0329159 58.9515202,75.7323288 C57.68122,76.5981474 56.1978723,77.3886628 54.6565906,77.7310894 C54.5507464,77.9168037 54.379323,78.0638487 54.1545527,78.1172733 L54.0500661,78.1411424 C53.6110918,78.2378985 52.9291177,78.3449706 52.3400809,78.2809393 C52.3439885,78.5685845 52.3409304,78.8540248 52.3482358,79.1265753 C52.3689629,79.907593 52.3777974,80.6920026 52.3777974,81.473529 C52.3781372,83.1110372 52.2899621,84.7517678 52.3584295,86.3891063 C52.4190818,87.8373386 52.6239744,89.3505284 53.3205413,90.6451011 C53.8314136,91.5948728 54.5057244,92.2234181 55.3196883,92.8234703 C57.3220633,91.6052185 59.5862455,90.8627006 61.8842367,90.3043705 C64.6633687,89.6291846 67.5089295,89.1785519 70.2248608,88.2630398 C71.5320281,87.822244 72.7887367,87.2454273 73.9273687,86.4620352 C75.1358274,85.630137 76.0588635,84.5046575 77.008573,83.4037704 L77.1570177,83.2327303 C78.1262423,82.1230619 79.1838093,81.0612429 80.5535888,80.4596477 C81.7331654,79.9413438 83.2878687,79.8490802 84.3192974,79.0472016 C84.8585422,78.627606 84.9037341,78.0187345 84.9604788,77.3952772 C84.2999295,77.489576 83.6006443,77.3384605 82.9423036,77.2614612 L82.6012088,77.2214941 C81.9786799,77.1476572 81.3704671,77.0664971 80.757632,76.9083496 C80.6438027,76.8790085 80.6438027,76.7077104 80.757632,76.6783692 C81.4818916,76.4916373 82.1996953,76.4120939 82.9423036,76.3252577 L83.1167264,76.3035431 C83.7885374,76.2155894 84.494676,76.082842 85.1536487,76.2304501 C85.2718952,75.7813438 85.442639,75.3525897 85.6821901,74.9231572 C86.018411,74.3198826 86.6546654,73.6358774 86.740632,72.9311807 C86.766286,72.7207045 86.7171865,72.4725766 86.6177983,72.2865232 L86.5835407,72.2231036 C86.5417779,72.1482032 86.4922841,72.0728811 86.4198714,72.026184 C86.4118864,72.0355121 86.3948969,72.046197 86.3580298,72.0577299 C85.8508952,72.2171559 85.4084902,71.9693673 85.1736962,71.5874234 C84.176926,71.7108937 83.0890923,71.6693412 82.1543335,71.7105545 L81.2092155,71.7561889 C80.1993421,71.8024082 79.1435886,71.8226439 78.1946055,71.6189693 C78.0620879,71.5906458 78.0219929,71.3705023 78.1546804,71.3138552 C79.321345,70.8157339 80.7365651,70.6568167 81.9856284,70.4655055 C82.6832147,70.3584866 83.3858978,70.2770776 84.0855228,70.1829485 C84.5513732,70.1201957 85.0457658,70.0165688 85.5284357,69.9916373 C86.7385932,68.4877756 86.0865386,66.1153816 84.4023758,65.4678408 C83.7888872,65.7369993 83.2372402,65.5804566 82.567007,65.5229615 C81.8979629,65.465636 81.22722,65.4267971 80.5554577,65.4296804 C79.2093846,65.4356164 77.7829515,65.7890672 76.4499603,65.6369341 C76.2331751,65.6120026 76.0316804,65.3240183 76.2472763,65.1483105 C77.2676582,64.3170796 78.7299961,64.0460502 80.0252071,63.8689096 L80.2936504,63.8330463 C80.7279004,63.7762296 81.2559321,63.6932942 81.8036716,63.64394 C81.9275246,63.4027658 82.1497464,63.2204436 82.4835888,63.1751598 C82.5828071,63.1615917 82.6825351,63.1536204 82.7820932,63.1451402 L82.7805642,63.1353033 L82.7805642,63.1353033 C83.594698,63.0962948 83.5593599,61.7235356 83.3361187,61.1967515 Z M27.5990439,86.8787476 C27.5846595,86.9009089 27.568916,86.9220149 27.5521657,86.9423169 L27.5263291,86.9721983 L27.6602059,86.9179256 L27.5990439,86.8787476 L27.5990439,86.8787476 Z M97.5430254,58.2543249 C94.1162561,57.8867971 90.6845598,57.9643053 87.2475967,58.0630137 C86.9727077,58.9605479 86.0158626,59.7254534 85.088749,59.7542857 C85.8148776,60.8575473 85.889801,62.3507241 85.3806276,63.5208089 C86.4616654,63.950411 87.3930263,64.7221005 87.9584348,65.821122 C88.7424973,67.3446575 88.6398811,69.04 87.8649929,70.4480365 C88.5263916,71.0457143 88.916639,72.016347 88.8775633,72.9311807 C88.8339004,73.9513372 88.2248291,74.8227528 87.7187138,75.6673712 C87.1718239,76.580848 87.1534753,77.3851011 86.9854497,78.4081409 C86.7396126,79.9053881 85.7280615,80.8134377 84.4265008,81.3805871 L84.4956939,81.6522819 C84.8312547,82.9561993 85.2487637,84.3320395 86.2078432,85.2855055 C87.4415945,86.5121271 89.3555695,86.5007163 90.9856256,86.5784468 L91.0642737,86.5822831 C92.5568976,86.6567723 94.0488692,86.7440699 95.5409712,86.8284585 L96.6600844,86.8909589 C98.3780562,86.9852577 100.0279,86.996621 101.430378,85.8628311 C103.720045,84.0121331 105.289699,80.949289 106.283241,78.2378604 C108.368525,72.5466928 108.393499,66.3010959 107.436314,60.3738421 C104.22616,59.3409654 100.895381,58.6138813 97.5430254,58.2543249 Z M69.0451509,67.6963048 L69.0703437,67.6981422 C69.775915,67.7785336 70.2606236,68.3489054 70.4332363,69.0254481 C70.6840004,70.008801 70.5609968,70.8978552 71.1642917,71.7855525 C71.7849158,72.6983509 72.1664986,73.4291663 72.2567125,74.5568506 C72.2937495,75.0208819 72.27676,75.483726 72.3802257,75.9379204 L72.4552495,76.2561391 C72.5349201,76.5954554 72.600109,76.922281 72.5604836,77.2865962 C72.5242961,77.6188467 72.3622169,77.8776595 72.0283745,77.9841696 C70.9405408,78.3315147 70.1005831,77.531332 69.8195778,76.5193164 C69.5767988,75.6451872 69.9009572,74.6034912 69.5584502,73.7826171 C69.3686782,73.3275747 69.0186958,72.9469876 68.8209387,72.4888924 C68.6250505,72.0348676 68.5266817,71.5604905 68.4952512,71.0669485 C68.4356183,70.1334586 69.2626641,69.01188 68.801231,68.1660744 C68.7029735,67.9856177 68.814252,67.6908497 69.0451509,67.6963048 Z M54.5951738,58.0632342 C55.3318357,57.9138147 56.1675461,57.5713881 56.8940144,57.8559804 C57.2674423,58.0025166 57.4519475,58.4570502 57.1364537,58.7730189 C56.5886851,59.3211632 55.7925734,59.351709 55.0547788,59.4809639 L54.9898384,59.4926406 C54.1174308,59.6537626 53.2434942,59.806574 52.3683683,59.9514142 C50.721922,60.2236256 49.0715681,60.4642909 47.4154379,60.6688311 C45.7144555,60.878968 44.008716,61.0660391 42.3005981,61.2068089 L41.6393321,61.2609694 C40.1964556,61.3761652 38.6950998,61.463055 37.2793701,61.2424253 C37.073628,61.2103705 37.1067574,60.911362 37.2793701,60.858955 C38.8303357,60.3903444 40.5316579,60.2646693 42.135121,60.0664044 C43.839841,59.8552498 45.5416729,59.6322231 47.2390875,59.3676438 C48.9337838,59.1034038 50.6262715,58.8198291 52.3124731,58.5064044 C53.0746192,58.3649563 53.8355761,58.2172329 54.5951738,58.0632342 Z M81.1759119,56.5586432 C80.5294638,56.3301892 79.818286,55.9916634 79.1178115,56.1049576 C77.9098626,56.3003392 76.834771,57.4751729 75.8786055,58.2488976 L76.3587075,58.1557395 C78.8152668,57.6844049 82.0683988,57.176652 84.1305448,58.7358252 C84.1358115,58.7268363 84.139889,58.7178474 84.1458353,58.7088584 C84.3123318,58.4564905 84.5051619,58.2595825 84.715661,58.0436791 C84.7357652,58.0247402 84.7552275,58.0051794 84.7743689,57.9852983 L84.8879339,57.8645793 L84.628181,57.7747511 C84.0718177,57.57843 83.4127043,57.324913 83.3085096,57.2879086 L83.3012904,57.2853881 C82.5919814,57.0455708 81.881823,56.8084671 81.1759119,56.5586432 Z M60.9921724,5.15660926 C60.8910852,3.85864449 62.914697,3.86932942 63.0149347,5.15660926 C63.2335887,7.96691585 62.6000526,10.7505949 61.2364805,13.2144044 C61.2264567,13.2323823 61.2154136,13.2483249 61.2048801,13.2652851 C62.0577498,13.7082857 62.9203035,14.1333085 63.8020553,14.5132172 C64.929984,14.9992968 66.0791495,15.4419583 67.2488722,15.8174573 C68.3069743,16.1573399 69.6105738,16.2914951 70.5001407,16.9987358 C72.3759444,18.4898774 71.6712225,21.5844371 71.3103669,23.5903209 L71.2540697,23.9069737 C71.0743939,24.9391769 70.9444421,25.9981736 71.3803634,26.9888076 C71.8458739,28.046955 72.7872586,28.8318735 73.6270465,29.5889772 L73.7966621,29.7425046 C74.5406361,30.4190877 75.390732,31.2412407 75.9364206,32.1584488 C76.4345509,31.1303209 77.1136187,30.2901122 77.8315923,29.3442414 C78.3438238,28.669225 77.9792305,28.4467071 77.6112393,27.7872942 C77.2570095,27.1526432 77.084057,26.4761005 77.1948282,25.7520691 C77.3992111,24.4149263 78.4697155,23.4490424 79.535293,22.7233151 C80.7937005,21.8666549 82.1982173,21.2320039 83.4990984,20.4350437 C86.1722164,18.7977052 88.7755077,16.9256373 91.1208995,14.8464853 C91.1856292,14.7889902 91.2977595,14.8642935 91.2459417,14.9428193 C89.3932437,17.7560091 87.2208044,20.1869159 84.5509144,22.2502948 C83.4683157,23.0869631 82.3310654,23.7809769 81.1861997,24.5105145 L80.857054,24.7213641 C80.3973741,25.0186282 79.8240079,25.4159237 79.6161627,25.9220104 C79.4070227,26.4309863 79.8529954,26.8153046 80.0930562,27.2369354 C80.855367,28.5758668 80.487582,29.8251448 79.5838386,30.9606302 L79.5417489,31.0129563 C78.6436873,32.1177443 77.9630905,33.1451937 77.6375729,34.5566223 C76.9381465,37.5885614 77.912359,40.7467327 78.9321577,43.5931043 L78.9724329,43.7052981 C79.5240799,45.2395186 80.1103854,46.7625453 80.5896574,48.3213581 L80.7215289,48.7523082 C81.1557819,50.1865774 81.5113807,51.601185 81.0242472,53.0756438 C80.8586002,53.5771572 80.1734162,53.6957091 79.8888431,53.2237065 C78.8849373,51.5592316 78.6346829,49.5562309 78.0053942,47.7262244 C77.3920755,45.9426888 76.6878634,44.1913777 76.0954417,42.4005492 C75.332616,40.0948089 74.8220835,37.6128519 75.0991812,35.1943262 C75.0910262,35.1802492 75.0820218,35.1670202 75.0752261,35.1520952 L74.8810408,34.7280692 C74.3515231,33.5799098 73.8400894,32.5771872 72.8771327,31.6620235 C71.8727173,30.7073333 70.7825051,29.8622061 69.9921565,28.7065375 C68.2754359,26.1962234 69.3371499,23.4037274 69.5445109,20.6589139 L69.5682383,20.3223295 C69.605906,19.7524335 69.6265484,18.977928 69.2536257,18.5834977 C68.8341565,18.1394795 67.8504681,18.0261853 67.2938942,17.8296164 C65.8555685,17.3214886 64.4381398,16.7294077 63.0881592,16.0184357 C61.8030782,15.3417234 60.5582621,14.5941174 59.3992428,13.7182922 L58.8117906,13.2771178 C57.884912,12.5789747 56.9237919,11.8165939 56.3025782,10.8662635 C56.2308827,10.7568702 56.352697,10.5803144 56.4824963,10.6327215 C57.5195315,11.0528258 58.4670324,11.7210581 59.4372991,12.302454 C59.4524197,12.2670072 59.4699188,12.2312211 59.4897965,12.1952655 C60.6902701,10.026394 61.1839831,7.62347162 60.9921724,5.15660926 Z M94.1187535,20.0163301 C94.5319366,18.8852538 96.4150458,18.9725988 96.3399525,20.3165258 C96.2823758,21.3489931 95.843263,22.2809043 95.4417625,23.2183548 L95.3989076,23.3188219 C94.9843653,24.2955603 94.505603,25.2125988 93.9327192,26.1077586 C92.8380898,27.8190437 91.555897,29.4071977 90.1863785,30.9059713 C88.9447905,32.2648232 87.3151637,33.0957038 85.4373213,32.9576477 C84.6461232,32.8994742 83.8474498,32.6984958 83.1541109,32.3040013 C82.3306329,31.8352211 81.436309,30.4276934 80.3856822,30.7685936 C80.2840854,30.8014964 80.1892843,30.652925 80.2771197,30.5825401 C81.4899956,29.6074977 82.8666496,31.1193307 84.0278776,31.483636 C85.7776197,32.0322988 87.5732333,31.4256321 88.699463,30.0135251 C89.8753019,28.5391742 90.957529,26.8884371 91.9458046,25.2831533 C92.4476725,24.4680457 92.9055379,23.6220705 93.3010519,22.7501461 C93.7001338,21.8700809 93.7908574,20.9136947 94.1187535,20.0163301 Z M91.2982862,13.0554534 C91.2473179,12.8992498 91.441677,12.7506784 91.5791216,12.8398891 C92.376096,13.3578539 93.0667166,14.0421983 93.8018496,14.6420809 C94.6175124,15.3075995 95.4391216,15.9595499 96.2734728,16.6014938 C97.4897466,17.5375277 96.0791136,19.2606849 95.0084393,18.2381539 C93.5432703,16.8394455 91.938618,15.0104566 91.2982862,13.0554534 Z M86.9226398,7.58078278 C87.246416,6.33441605 89.1613949,6.84839331 88.882329,8.08019696 L88.873197,8.11774299 C88.3446454,10.1524081 89.097425,12.2238232 90.7044381,13.5428812 L90.7636116,13.5908023 C91.7802595,14.4030267 90.3398951,15.8229354 89.333271,15.0185127 C87.1356873,13.2627919 86.2214857,10.2803392 86.9226398,7.58078278 Z" id="ðŸ–-Ink" fill="#000000"></path>
                </g>
                <g id="head/Short-4" transform="translate(35.200704, 0.528376)">
                    <path d="M68.8970946,51.5595095 C68.5313752,48.351486 69.0046776,41.6460903 69.0363915,41.2387136 C69.2368834,38.6633161 68.028098,28.493456 65.7430037,29.4305075 C61.909819,26.4012446 56.8043549,25.732334 52.0303513,25.4128037 C42.1140161,24.7489811 31.5648454,26.2728558 23.9076928,32.9348258 C20.1209403,36.3945388 16.4343563,41.4264631 16.7306882,46.6658108 C13.2901779,51.6320992 8.4398306,58.4445062 12.7265561,64.2504945 C14.183695,66.1054325 16.4995702,66.7962218 18.3300803,68.2010359 C22.0119688,71.1656804 24.3219313,75.4203183 28.0387745,78.3673242 C37.8858961,87.2007097 54.6063864,89.0459804 64.2811694,78.9987528 C71.7625055,71.7221448 70.5528125,60.8360652 69.2368834,51.5595095 C68.3521747,45.3228135 69.6105753,57.8180309 68.8970946,51.5595095 Z" id="ðŸŽ¨-Background" fill="#FFFFFF"></path>
                    <path d="M38.7834859,11.8085623 C41.435537,11.2743157 44.1587738,10.9418956 46.8670599,11.0419609 L47.0758683,11.0500569 C49.1136036,11.1313579 51.6942345,11.3112042 53.4718732,12.4940939 C53.5741496,12.3916543 53.7386074,12.3390776 53.8877746,12.4101409 C56.0002412,13.4167293 58.3237165,14.1444918 60.5479736,14.8676751 C62.762037,15.5872968 65.0590088,16.0623523 67.379596,16.253833 C68.2526831,16.3259139 68.9998785,17.2670359 68.4470423,18.1111455 C68.315544,18.3122935 68.1874437,18.5154768 68.059853,18.7191689 C68.2732403,18.6969511 68.4866276,18.6740548 68.700015,18.6525153 C69.4021884,18.5819609 70.1036822,19.3300757 70.0620581,20.0125545 C70.0360643,20.4418174 69.9896831,20.8659922 69.9210458,21.2850789 C70.1884595,21.2794821 70.4543442,21.3195082 70.7112245,21.4278839 C72.0119357,21.9762074 71.921382,23.5228089 71.8240326,24.6995082 C71.6891364,26.3324371 71.0773468,28.0620391 69.9414331,29.2841918 C70.7895458,30.1635786 71.3899525,31.2137547 71.7480898,32.4610085 C72.0078583,33.3717717 72.1524384,34.3418956 72.0810827,35.2899713 L72.058335,35.5738204 C71.9700915,36.6026677 71.7946481,37.7417319 71.0532218,38.4818826 C70.6726585,38.8634873 70.20375,39.002561 69.7567579,38.9584644 C70.0270599,41.3295016 70.2003521,43.714107 70.3634507,46.0902322 L70.4399311,47.2259139 C70.8037547,52.7176076 71.0771715,58.2450667 71.0056514,63.7458095 C70.9392227,68.8864488 69.9217254,73.8761422 66.7633891,78.0500496 C63.8869076,81.8508324 59.7569454,84.6526588 55.0848504,85.7177599 C52.5670158,86.292711 49.9965141,86.3334155 47.4480986,85.967075 C46.2127967,85.7889928 44.9693398,85.5159335 43.7968988,85.0851442 C42.4990757,84.6068663 41.5663556,83.9030176 40.6930986,82.8480926 C40.2800854,82.3477665 40.4788618,81.2826654 41.3013204,81.3827306 C42.5451789,81.533291 43.680677,81.7147582 44.8731628,82.0820176 L45.0439234,82.1357639 C46.2316549,82.5156725 47.4616901,82.798908 48.7034481,82.9193255 C51.2469366,83.1652485 53.8291611,82.9176295 56.2656162,82.147636 C60.2326496,80.8925806 63.6492254,78.0958421 65.8391637,74.5816869 C68.4385475,70.4162596 68.7324648,65.6877534 68.6949181,60.8981905 C68.65468,55.6424896 68.4834604,50.3837443 68.2039388,45.1334912 L68.156353,44.2585297 C68.0085449,41.5567684 67.8658336,38.8533112 67.7402817,36.1498539 C67.701206,35.3018434 67.641743,34.4470489 67.5345396,33.6007345 C66.554419,33.0274795 65.6760651,32.2371337 65.1035211,31.2619217 C63.9533363,31.7368076 62.7436884,32.0794038 61.6307104,32.3524631 C59.0527333,32.9854181 56.3762174,33.1390776 53.7521989,32.7427175 C53.044419,33.0346027 52.3225379,33.2912107 51.5896136,33.5120326 C51.3915167,33.5997169 51.1934199,33.6858748 50.995493,33.7703366 C49.2284217,34.5250659 47.4360361,35.1644658 45.5707658,35.6325675 L45.1125321,35.7466418 C44.1309076,35.9882098 43.0646695,36.2260977 42.0199736,36.3007997 C41.8483803,36.3669446 41.6631954,36.4229132 41.4608512,36.4720978 C40.5096127,36.7027567 39.5223565,36.7756856 38.5473327,36.6942766 C37.5974533,36.6145636 36.9110801,35.6563118 37.4343548,34.7591168 C37.8166171,34.1044527 38.2024472,33.4514847 38.5915053,32.8002127 C37.2374472,33.3632916 35.8392165,33.8313933 34.4290933,34.2282622 C33.0053785,34.6285232 31.5612764,34.9660313 30.1153055,35.2764031 C29.3422861,35.4409172 28.5660387,35.586775 27.7947183,35.751289 C27.2425616,35.8683144 26.3947887,35.9293712 25.9443988,36.2923196 C25.4467782,36.6908845 25.3057658,37.620304 25.1170132,38.193559 C24.8689674,38.9381122 24.6362121,39.6860574 24.4238442,40.4424827 C24.0009771,41.9519413 23.6543926,43.4834481 23.3859595,45.0302192 C23.1175264,46.5786862 22.9372685,48.1424175 22.8370308,49.7112368 C22.736963,51.2783601 22.7809657,52.8556595 22.6197359,54.4159987 C22.5329199,55.2436569 21.6428433,55.6693581 20.9853521,55.091015 C20.9082201,55.0231742 20.830484,54.9545795 20.7535029,54.8852311 L20.6387676,54.7806432 C20.0762474,54.2718369 19.5308864,53.7325023 19.0808363,53.1253268 C18.999287,53.0133894 18.9211356,52.896364 18.848081,52.7776425 C18.8361884,52.7776425 18.8259947,52.7742505 18.8141021,52.7657704 L18.6893132,52.6720295 C17.315267,51.6510561 15.0196983,50.3199896 13.6798944,52.0161292 C13.2529561,52.5564688 13.034368,53.244495 12.8529478,53.9082713 L12.5346143,55.0962367 C12.3287094,55.8717499 12.1349316,56.6515803 12.0215555,57.445092 C11.765015,59.2225219 11.8941347,61.2713151 13.119243,62.6959726 C13.6085387,63.2658356 14.2830194,63.6728806 15.0354815,63.7797299 C15.4552905,63.8373947 15.8698327,63.7661618 16.2860739,63.7135851 C16.7091109,63.6610085 17.1166875,63.7458095 17.5398944,63.705105 C18.2126761,63.6389602 18.5065933,64.4428741 18.2551496,64.9482883 C18.1192342,65.2196517 17.9593636,65.4537025 17.7777465,65.652137 C17.9236857,65.7776425 18.063169,65.9133242 18.1973856,66.05579 C18.5949384,66.1829915 18.9515467,66.4560509 19.2184507,66.8173033 C19.4342165,67.1090189 19.5461769,67.4261748 19.5650352,67.7602909 C19.5886505,67.843396 19.6090379,67.928197 19.6278961,68.0146941 L19.9923848,68.605235 C20.0725505,68.7347567 20.152428,68.8627045 20.2325502,68.98821 C21.1601734,70.446788 22.1899032,71.6814912 23.4692077,72.8449615 C24.7009419,73.9643353 26.0378407,74.9666836 27.1949912,76.1674664 L27.3313025,76.3100372 C28.4100744,77.4448343 29.5471787,78.8185304 29.1249912,80.4685753 C29.0162588,80.8925806 28.4231576,81.1978643 28.0359683,80.9112368 C26.7906426,79.9886014 26.1635625,78.5266314 25.1069894,77.4072577 C24.0194956,76.2539635 22.8149445,75.2176947 21.7243926,74.0677926 C20.6929639,72.9823392 19.8791699,71.7527241 19.2660211,70.3992994 C19.0212033,70.6689667 18.6645951,70.8606171 18.1702025,70.935242 C17.3207306,71.0624436 16.528853,70.5655095 16.1586532,69.8311324 C15.9206312,69.9362857 15.6778521,70.0312629 15.4330343,70.1058878 C14.145235,70.4993646 13.3350088,69.069619 13.8209067,68.012998 C14.0806752,67.4465271 14.4051734,66.954681 14.807993,66.5408519 C13.5489058,66.3678578 12.2679023,65.7182818 11.4405167,64.9075838 C9.36457746,62.8706628 9.07915493,59.8093451 9.54636444,57.0872316 C9.79441021,55.6439178 10.2223741,54.1836438 10.7780986,52.8285232 C10.8747685,52.5927763 10.9785739,52.3553333 11.0922333,52.1212825 C11.0293724,52.1195864 10.9648125,52.0924501 10.9240379,52.0398735 C10.5485713,51.5276751 10.0917254,51.108758 9.8129287,50.5355029 C9.5563882,50.0097365 9.27113556,49.4771859 9.06879137,48.9293712 C8.65272007,47.8083014 8.44884683,46.5430698 8.31293134,45.3575512 C8.03260563,42.9305453 8.14116813,40.5188037 8.51340669,38.107062 C9.14694278,33.9992994 10.6773512,30.0682622 12.9320194,26.618895 C12.8092586,26.5544946 12.6916154,26.4767615 12.5819785,26.3848411 L12.5278407,26.3376947 L12.4398354,26.2583209 C11.7964454,25.6770946 11.8520009,24.5877404 12.4398354,23.9990515 L12.6254919,23.8132708 C12.8605822,23.5801208 13.0633137,23.3954038 13.4430616,23.1415434 C13.4991268,23.1040613 13.5563812,23.0687841 13.6143151,23.0358813 C13.4155387,22.6692016 13.3465616,22.2404475 13.4850255,21.7674273 C13.9675255,20.1195734 16.3426488,20.1779165 17.8480827,20.8965205 C19.5135572,19.4126719 21.360309,18.124544 23.3620044,17.0814912 C28.1294102,14.5985166 33.5199886,12.8668793 38.7834859,11.8085623 Z M14.1403591,55.2097365 C15.0306055,54.9197169 16.2130703,55.5285884 17.0132728,55.8949289 C18.0275422,56.3596386 18.8906055,57.0465271 19.7264858,57.772424 C20.142727,58.1353725 20.2173107,58.7289798 20.113845,59.23609 C20.1034814,59.2869706 20.0934577,59.3395473 20.0813952,59.3921239 C19.9709638,59.9331546 19.3661399,60.3588558 18.8309726,60.3435917 C17.7113688,60.3130633 17.1780703,59.3480274 16.5441945,58.5305453 C16.4696108,58.662835 16.3761689,58.7849485 16.2604709,58.8765336 L16.182345,58.9375814 C15.9193342,59.1375106 15.6293905,59.297301 15.2818793,59.2818826 C15.0355325,59.2700104 14.7995492,59.2072577 14.5819145,59.0936243 C14.0382526,58.8069967 13.7988714,58.1048441 13.9465096,57.5332851 C14.0382526,57.1737286 14.2489216,56.8921892 14.5241504,56.6971468 L14.4215558,56.6270965 C14.2020412,56.4745888 14.0018315,56.3138237 13.8458047,56.0765733 L13.8105941,56.0204344 L13.8241857,56.0204344 C13.6542913,55.7287189 13.7648925,55.33185 14.1403591,55.2097365 Z" id="ðŸ–-Ink" fill="#000000"></path>
                </g>
                <g id="face/Loving-Grin-1" transform="translate(62.213908, 32.074364)" fill="#000000">
                    <path d="M16.3581427,37.1208089 C16.376033,35.2521331 17.9981844,34.9298891 19.5391263,35.1790346 C22.1478543,35.6003262 24.7662663,35.8967906 27.4103323,35.9502153 L27.865989,35.9581866 L27.865989,35.9581866 C27.9393834,35.8513372 28.0620471,35.7702674 28.2285436,35.7524592 C29.6942223,35.5943901 31.1915013,35.62 32.6651651,35.5765819 C33.9507557,35.5389302 35.2718543,35.4105414 36.5572751,35.5112851 L36.6595915,35.5202725 C38.230635,35.6721191 39.8885168,36.4725753 39.6987918,38.3131115 C39.5243103,40.0174429 37.892305,41.5262231 36.5890453,42.4732811 C36.3255392,42.6630659 36.0560867,42.8409785 35.7788191,43.0031181 C35.6918332,43.1138682 35.5649221,43.1910372 35.4183033,43.2068102 C34.1349212,43.8987867 32.7188517,44.3082061 31.2530031,44.4445662 C28.1452953,44.733229 24.5324916,44.4208219 21.5476175,43.0763862 C20.5771809,42.6393216 19.6719837,42.0935421 18.8717812,41.4232746 C17.6378385,40.3892107 16.3444327,38.8212394 16.3581427,37.1208089 Z M28.6028209,40.8261057 C27.3569855,40.7886236 26.1131888,40.9626354 24.9266466,41.3462753 C24.1225365,41.6052577 23.3896122,42.103379 22.6191413,42.4495369 C25.2158068,43.4381474 28.2324511,43.6537117 30.8963948,43.4737639 C32.0650982,43.3947293 33.1981237,43.1257404 34.2538473,42.6630659 C34.0893895,42.544514 33.922893,42.4239269 33.7485814,42.3189432 C33.2219089,42.0006001 32.6711114,41.7297456 32.0966985,41.5141813 C30.9777742,41.0950946 29.7971783,40.8637573 28.6028209,40.8261057 Z M29.0203878,24.4849708 C28.6842667,24.244139 28.9510273,23.4463735 29.6692793,23.5696676 C36.1926997,24.6885328 32.8126734,35.9061288 24.483817,29.750381 C23.4922178,28.9518408 24.6930332,27.1929638 25.7617965,27.8768395 L26.1412732,28.1689032 C27.3750727,29.1129483 29.4158755,30.5401993 30.8779814,29.0086687 C32.258126,27.0787186 30.3033245,25.2634521 29.0203878,24.4849708 Z M33.4366554,15.9950541 C34.8233729,14.8139254 36.562644,15.6843819 37.5835449,16.8806842 L37.7635047,17.0945614 C37.9677041,17.3386147 38.1938675,17.622895 38.329783,17.9268219 C39.4611096,16.9651781 40.9952557,16.2884658 42.4633129,16.7277352 C43.8870277,17.155302 44.6989529,18.5121187 44.4544749,19.9688311 C44.1770736,21.6253708 42.9215081,22.7387827 41.5724648,23.5997429 L41.189885,23.8422691 C39.5687184,24.8739639 38.0517226,25.9132917 36.7174855,27.3314273 C36.4998508,27.5619165 36.0294133,27.5313881 35.886702,27.224578 L35.771811,26.9776585 L35.771811,26.9776585 L35.6556457,26.7308663 C34.7091642,24.7161631 33.6950647,22.7146888 32.8624124,20.6524971 C32.2456959,19.1242127 32.0453904,17.1788767 33.4366554,15.9950541 Z M17.6291675,17.0649571 L17.8404205,16.8211011 C18.8563888,15.6406706 20.5774188,14.8503249 21.9350446,15.9951389 C23.3806758,17.214578 23.0969522,19.2311468 22.4530526,20.7863979 C21.6776547,22.662197 20.7720195,24.4966283 19.9019036,26.3365752 L19.7160543,26.7309511 C19.6379029,26.8954651 19.5614504,27.0599791 19.4851679,27.2244932 C19.3422867,27.5314729 18.8701503,27.5620013 18.6542145,27.3313425 C17.3614728,25.9575656 15.8988368,24.9410744 14.3366383,23.9420276 L13.8650622,23.6424971 C12.4938448,22.7741344 11.1975508,21.6530646 10.9155261,19.9689159 C10.6742761,18.515426 11.4812744,17.1501292 12.9066881,16.7276504 C14.3779733,16.2919426 15.9087216,16.9635669 17.041917,17.9269067 C17.176983,17.6152629 17.4095259,17.3217453 17.6291675,17.0649571 L17.6291675,17.0649571 Z M19.488141,8.5963666 C19.9844025,9.23949772 19.4545019,10.2905219 18.7299025,10.4567319 C17.8325204,10.6627984 16.9259641,10.5374625 16.0448919,10.7930528 C15.2375539,11.0272733 14.4641947,11.4965623 13.772215,11.9643249 C12.9830556,12.4975538 12.2562475,13.0928571 11.5883928,13.7710959 C11.1911798,14.1745793 10.690671,15.1304566 10.0780319,15.1482648 C9.46896056,15.1660731 10.2864923,13.2646641 10.3541102,13.10015 C10.8344016,11.9290476 11.5090521,10.851396 12.3529174,9.90739074 C14.0180521,8.04465101 17.5445495,6.07913242 19.488141,8.5963666 Z M38.0833573,8.0816134 L38.4990318,8.19688584 C39.5275723,8.48232616 40.6255996,8.83306327 41.5080309,9.44854925 L41.5773246,9.49753591 L41.6841387,9.57553779 C42.7919814,10.4000158 44.3588619,12.0451397 43.5742862,13.4803301 C43.5200899,13.5792081 43.4052413,13.589045 43.3128188,13.5486797 C42.2689878,13.0922805 41.4951189,12.1808389 40.3848592,11.7995734 L40.1800432,11.7299417 C39.1047812,11.3683774 37.7745147,10.9882227 36.6171119,11.0227958 C35.803361,11.2868474 34.7042914,11.0681371 34.4924518,10.0792451 L34.4828989,10.0307932 L34.4645503,9.92835356 C34.3425661,9.25265884 34.5240133,8.39124984 35.2238082,8.06561383 C36.1826495,7.61951794 37.1180773,7.81800538 38.0833573,8.0816134 Z" id="ðŸ–-Ink"></path>
                </g>
                <g id="facial-hair/*-None" transform="translate(56.097700, 57.853823)"></g>
                <g id="accessories/*-None" transform="translate(43.185739, 41.402479)"></g>
            </g>
        </g>
    </g>
</svg>