<?xml version="1.0" encoding="utf-8"?>
<!-- Generator: Adobe Illustrator 24.1.0, SVG Export Plug-In . SVG Version: 6.00 Build 0)  -->
<svg version="1.1" id="Layer_1" xmlns="http://www.w3.org/2000/svg" xmlns:xlink="http://www.w3.org/1999/xlink" x="0px" y="0px"
	 viewBox="0 -60 129.9 129.9" style="enable-background:new 0 0 129.9 129.9;" xml:space="preserve">
<g>
	<path d="M127.9,5.8c-0.1,0.8-0.3,1.6-0.4,2.4c-0.9,4.3-2.4,8.3-5.1,11.8c-0.8,1.1-1.9,2-2.9,3c-0.2,0.2-0.4,0.4-0.7,0.4
		c-0.3,0.1-0.7,0.1-0.9-0.1c-0.3-0.2-0.3-0.6-0.2-0.9c0.3-0.9,0.7-1.8,1-2.7c1.2-3.1,2.4-6.2,3-9.5c0.2-0.9,0.2-1.8,0.2-2.7
		c0-0.8-0.4-1.4-1.1-1.7c-1.1-0.5-2.3-0.7-3.5-0.7c-3.6-0.2-7.1,0.2-10.6,0.6c-0.5,0.1-1,0.1-1.5,0.2c-0.4,0-0.8,0-1-0.4
		c-0.2-0.4,0-0.9,0.3-1.1c1-0.6,1.9-1.3,2.9-1.8c3-1.4,6.2-2.1,9.5-2.3c2.8-0.2,5.5,0,8.2,0.6c0.4,0.1,0.8,0.2,1.1,0.4
		c0.9,0.3,1.4,0.9,1.6,1.8L127.9,5.8z"/>
	<path d="M63.1,28.7c-2.7-0.2-5.9-0.3-9-0.6c-6.5-0.6-12.9-1.9-19.1-3.9c-4.2-1.3-8.4-3-12.4-4.9c-5.7-2.7-11.1-6-16.1-9.8
		c-2.1-1.6-4-3.3-6-4.9c-0.5-0.4-0.7-1-0.5-1.5C0.4,2.4,1.2,2.3,2,2.7c1,0.6,2,1.1,3,1.7c3,1.5,5.9,3,8.9,4.3
		c3.7,1.6,7.6,3.1,11.4,4.4c6.2,2.1,12.5,3.7,18.9,4.7c3.3,0.5,6.7,0.9,10,1.2c2.4,0.2,4.7,0.3,7.1,0.4c1.6,0.1,3.3,0.1,4.9,0.1
		c2.6-0.1,5.1-0.2,7.7-0.4c3.9-0.2,7.8-0.8,11.7-1.4c5.1-0.9,10.1-2,15.1-3.5c4.3-1.3,8.4-2.8,12.5-4.5c0.6-0.2,1.2-0.3,1.8-0.2
		c1.4,0.4,1.9,1.9,0.8,2.9c-0.6,0.6-1.2,1.1-1.9,1.5c-5.3,3.7-11.1,6.5-17.2,8.8c-5.9,2.2-12.1,3.8-18.3,4.8
		c-2.7,0.4-5.4,0.7-8.1,0.9C68.2,28.5,65.8,28.6,63.1,28.7z"/>
</g>
</svg>
