<?xml version="1.0" encoding="UTF-8"?>
<svg width="500px" height="500px" viewBox="0 0 500 500" version="1.1" xmlns="http://www.w3.org/2000/svg" xmlns:xlink="http://www.w3.org/1999/xlink">
    <title>amazon</title>
    <g id="amazon" stroke="none" stroke-width="1" fill="none" fill-rule="evenodd">
        <g id="Amazon_logo" transform="translate(15.000000, 179.000000)" fill="#FFFFFF">
            <path d="M291.980984,110.688569 C264.604603,131.106367 224.924204,142 190.760138,142 C142.856582,142 99.7310991,124.072188 67.1050033,94.2547497 C64.5416762,91.9100091 66.8384082,88.7145532 69.9144186,90.5405225 C105.124339,111.269567 148.65998,123.740187 193.631075,123.740187 C223.960396,123.740187 257.324728,117.390742 288.002687,104.214643 C292.637188,102.222649 296.512946,107.285608 291.980984,110.688569" id="path8"></path>
            <path d="M303.322452,98.3061521 C299.826294,93.8510098 280.124493,96.2011967 271.281311,97.243456 C268.587211,97.5704438 268.175918,95.2406842 270.602637,93.5648861 C286.294162,82.5905242 312.042249,85.7581757 315.044818,89.4367268 C318.047381,93.1357288 314.263329,118.783464 299.517816,131.024875 C297.255604,132.905022 295.096222,131.90365 296.10394,129.410397 C299.414991,121.194947 306.839167,102.781731 303.322452,98.3061521" id="path10"></path>
            <path d="M271.700746,15.3651919 L271.700746,4.69756067 C271.700746,3.08311119 272.919128,2 274.38119,2 L321.837183,2 C323.360169,2 324.578551,3.10354991 324.578551,4.69756067 L324.578551,13.8324888 C324.558259,15.3651919 323.278943,17.3679274 321.004618,20.5355188 L296.413602,55.8695031 C305.55148,55.6447217 315.197012,57.0139216 323.482014,61.714223 C325.350196,62.7768959 325.857858,64.3300373 326,65.8627563 L326,77.2456551 C326,78.7987918 324.294263,80.6175873 322.507303,79.6775373 C307.907013,71.9731304 288.514422,71.1352529 272.370852,79.7592875 C270.726039,80.6584788 269,78.8601056 269,77.3069549 L269,66.4962747 C269,64.7592106 269.020293,61.7959638 270.746332,59.1597132 L299.236188,18.0423209 L274.442105,18.0423209 C272.919128,18.0423209 271.700746,16.9592186 271.700746,15.3651919" id="path12"></path>
            <path d="M97.1489126,82 L82.5989411,82 C81.2073901,81.8982026 80.1023267,80.8597398 80,79.5361956 L80,5.23530819 C80,3.74888255 81.2483142,2.56787765 82.8035804,2.56787765 L96.3712748,2.56787765 C97.7833136,2.62892243 98.9088227,3.70814581 99.0111541,5.05203588 L99.0111541,14.7647184 L99.2771866,14.7647184 C102.817471,5.37782832 109.468297,1 118.431577,1 C127.538099,1 133.227122,5.37782832 137.31994,14.7647184 C140.839765,5.37782832 148.841223,1 157.415689,1 C163.51399,1 170.185286,3.50452477 174.257645,9.12443503 C178.862064,15.3755656 177.920711,24.4570124 177.920711,32.4185613 L177.900261,79.3122291 C177.900261,80.7986483 176.651946,82 175.09668,82 L160.567159,82 C159.11422,81.8982026 157.947768,80.7375707 157.947768,79.3122291 L157.947768,39.9321319 C157.947768,36.7963883 158.234246,28.9773824 157.53848,26.0045231 C156.453885,21.0158489 153.200098,19.6108575 148.984479,19.6108575 C145.464654,19.6108575 141.781123,21.9524881 140.287241,25.6991032 C138.793358,29.44571 138.936609,35.7171897 138.936609,39.9321319 L138.936609,79.3122291 C138.936609,80.7986483 137.688299,82 136.133024,82 L121.603526,82 C120.130108,81.8982026 118.984116,80.7375707 118.984116,79.3122291 L118.963666,39.9321319 C118.963666,31.6448055 120.334743,19.4479647 110.000391,19.4479647 C99.5432237,19.4479647 99.952507,31.3393627 99.952507,39.9321319 L99.952507,79.3122291 C99.952507,80.7986483 98.7041928,82 97.1489267,82" id="path14"></path>
            <path d="M366.734046,1 C388.318053,1 400,19.5490884 400,43.1346881 C400,65.9218077 387.090504,84 366.734046,84 C345.538752,84 334,65.4509125 334,42.3362151 C334,19.0781932 345.681961,1 366.734046,1 M366.856791,16.2528471 C356.136402,16.2528471 355.461166,30.8709891 355.461166,39.9817557 C355.461166,49.1129835 355.318043,68.6038519 366.734046,68.6038519 C378.006826,68.6038519 378.538762,52.8801355 378.538762,43.2984657 C378.538762,36.9926084 378.272794,29.45832 376.370119,23.4800175 C374.733417,18.2797362 371.480485,16.2528471 366.856791,16.2528471" id="path16"></path>
            <path d="M427.192732,82 L412.649769,82 C411.191357,81.8982026 410.020527,80.7375707 410.020527,79.3122291 L410,4.99095041 C410.123247,3.62669618 411.335169,2.56787765 412.814109,2.56787765 L426.35058,2.56787765 C427.624102,2.62892243 428.67169,3.4841681 428.959277,4.64480181 L428.959277,16.0067854 L429.226294,16.0067854 C433.313948,5.84615632 439.044843,1 449.130433,1 C455.682986,1 462.071214,3.34163253 466.179395,9.75565575 C470,15.7013576 470,25.6991032 470,32.8868734 L470,79.6583834 C469.83568,80.9615372 468.623758,82 467.18591,82 L452.540232,82 C451.205063,81.8982026 450.095851,80.9208267 449.952082,79.6583834 L449.952082,39.3009126 C449.952082,31.176478 450.896958,19.2850645 440.811364,19.2850645 C437.257795,19.2850645 433.991784,21.6470683 432.369052,25.2307673 C430.314968,29.7715029 430.047933,34.2918649 430.047933,39.3009126 L430.047933,79.3122291 C430.027406,80.7986483 428.75386,82 427.192756,82" id="path18"></path>
            <path d="M234.155588,46.3721435 C234.155588,52.0307659 234.299781,56.7496917 231.415875,61.7750458 C229.088155,65.8607099 225.380278,68.3733799 221.281017,68.3733799 C215.657399,68.3733799 212.361505,64.1242921 212.361505,57.8528196 C212.361505,45.4733016 223.546934,43.2261962 234.155588,43.2261962 L234.155588,46.3721435 M248.925311,81.7743055 C247.957152,82.6322907 246.556381,82.6935717 245.464625,82.1215909 C240.603173,78.1176551 239.717408,76.2586895 237.060098,72.438606 C229.026356,80.5690442 223.320334,83 212.917676,83 C200.578677,83 191,75.4619712 191,60.3655084 C191,48.5783964 197.427,40.5500921 206.614298,36.6278696 C214.565632,33.1550542 225.668654,32.5422178 234.155588,31.5820912 L234.155588,29.7026918 C234.155588,26.2503059 234.423383,22.1646541 232.363449,19.1821442 C230.591909,16.5060321 227.172408,15.4029061 224.144314,15.4029061 C218.56189,15.4029061 213.597464,18.2424325 212.382095,24.1257691 C212.134904,25.4331862 211.166745,26.720166 209.827774,26.7814502 L195.634846,25.2697489 C194.440077,25.004196 193.101129,24.0440539 193.451318,22.2259538 C196.706013,5.14793433 212.279111,0 226.204244,0 C233.331617,0 242.642508,1.8794036 248.266127,7.23160236 C255.393486,13.829928 254.713717,22.6345061 254.713717,32.2153656 L254.713717,54.8498689 C254.713717,61.6524886 257.556424,64.6349966 260.234333,68.3120989 C261.161316,69.6194936 261.367308,71.1924689 260.172477,72.1730254 C257.185578,74.6448571 251.870944,79.2412116 248.945844,81.8151673 L248.925259,81.7742445" id="path28"></path>
            <path d="M43.1443195,46.3721435 C43.1443195,52.0307659 43.2884627,56.7496917 40.4053242,61.7750458 C38.0781954,65.8607099 34.3918826,68.3733799 30.2730924,68.3733799 C24.6509439,68.3733799 21.3765128,64.1242921 21.3765128,57.8528196 C21.3765128,45.4733016 32.5590209,43.2261962 43.1443195,43.2261962 L43.1443195,46.3721435 M57.910172,81.7743055 C56.9422613,82.6322907 55.5418571,82.6935717 54.4503808,82.1215909 C49.5902233,78.1176551 48.7252649,76.2586895 46.0480542,72.438606 C38.0164136,80.5690442 32.3324993,83 21.911949,83 C9.59676384,83 0,75.4619712 0,60.3655084 C0,48.5783964 6.4459034,40.5500921 15.6102054,36.6278696 C23.5594667,33.1550542 34.6596045,32.5422178 43.1443195,31.5820912 L43.1443195,29.7026918 C43.1443195,26.2503059 43.4120419,22.1646541 41.3732392,19.1821442 C39.5815537,16.5060321 36.1629709,15.4029061 33.1562461,15.4029061 C27.5752988,15.4029061 22.5915531,18.2424325 21.3765128,24.1257691 C21.1293799,25.4331862 20.1614653,26.720166 18.8434594,26.7814502 L4.63363799,25.2697489 C3.43918666,25.004196 2.12117258,24.0440539 2.45067611,22.2259538 C5.7251151,5.14793433 21.2735387,0 35.1950568,0 C42.3205491,0 51.6290113,1.8794036 57.2511608,7.23160236 C64.3766715,13.829928 63.6970613,22.6345061 63.6970613,32.2153656 L63.6970613,54.8498689 C63.6970613,61.6524886 66.5390392,64.6349966 69.2162537,68.3120989 C70.1635702,69.6194936 70.369508,71.1924689 69.1750463,72.1730254 C66.1889276,74.6448571 60.8756965,79.2412116 57.9513416,81.8151673 L57.9101815,81.7742445" id="path30"></path>
        </g>
    </g>
</svg>