<?xml version="1.0" encoding="UTF-8"?>
<svg width="500px" height="500px" viewBox="0 0 500 500" version="1.1" xmlns="http://www.w3.org/2000/svg" xmlns:xlink="http://www.w3.org/1999/xlink">
    <!-- Generator: Sketch 56.2 (81672) - https://sketch.com -->
    <title>bookwise</title>
    <desc>Created with Sketch.</desc>
    <defs>
        <rect id="path-1" x="0" y="0" width="91" height="91" rx="4"></rect>
        <path d="M71.5413889,21.8702246 C70.9709265,21.3809841 70.1810555,21.2785849 69.5008887,21.5857824 L20.6495586,43.6812466 C19.4098999,44.2387532 18.6639105,45.5130539 18.7407036,46.9125092 C18.8174966,48.3119644 19.7061015,49.483866 21.0006124,49.8820849 L33.0461458,53.6594763 C34.0883368,53.9894292 35.1963504,53.3750342 35.5035224,52.2941542 C35.8106945,51.2132741 35.2292617,50.0641279 34.1870707,49.7455527 L24.1052444,46.5825563 L62.2713746,29.3226082 L39.7600497,52.624107 C39.7490793,52.6354847 39.7381089,52.6582401 39.716168,52.6696178 C39.6832567,52.7037508 39.6613159,52.7265062 39.6284046,52.7606392 C39.6064637,52.7833946 39.5845228,52.8175277 39.5735524,52.840283 C39.562582,52.8630384 39.5406411,52.8857938 39.5296707,52.9085491 C39.5187003,52.9199268 39.5187003,52.9313045 39.5187003,52.9313045 C39.4967594,52.9540599 39.485789,52.9881929 39.4638481,53.0109483 C39.4419072,53.0450814 39.4309368,53.0792144 39.4089959,53.1133475 C39.3980255,53.1361028 39.3870551,53.1702359 39.3760846,53.1929913 C39.3541438,53.2271243 39.3431734,53.2726351 39.3212325,53.3067681 C39.3102621,53.3295235 39.2992916,53.3522789 39.2992916,53.3750342 C39.2883212,53.420545 39.2663803,53.454678 39.2554099,53.5001888 C39.2444395,53.5229441 39.2444395,53.5456995 39.233469,53.5684549 C39.2224986,53.6139656 39.2115282,53.6594763 39.2005577,53.7049871 C39.2005577,53.7277425 39.1895873,53.7504978 39.1895873,53.7732532 C39.1786169,53.8187639 39.1786169,53.8642747 39.1786169,53.9097854 C39.1786169,53.9325408 39.1786169,53.9666738 39.1786169,53.9894292 C39.1786169,54.03494 39.1786169,54.0804507 39.1786169,54.1145837 C39.1786169,54.1373391 39.1786169,54.1487168 39.1786169,54.1714722 L39.7710202,65.8335993 C39.8368428,67.1079 40.6267138,68.2115354 41.7895795,68.6438874 C42.1296629,68.769042 42.4697462,68.8259304 42.8098296,68.8259304 C43.6545528,68.8259304 44.4773352,68.4618445 45.0697384,67.7791834 L49.5785857,62.6137144 L58.4646349,68.9965957 C59.0131565,69.383437 59.6384711,69.5882353 60.2857265,69.5882353 C60.680662,69.5882353 61.086568,69.5085915 61.4705331,69.3493039 C62.4688423,68.9397073 63.1928908,68.0408701 63.4122994,66.9599901 L72.2215557,23.8840748 C72.3751417,23.1331476 72.1118514,22.359465 71.5413889,21.8702246 Z M43.6106711,63.3760193 L43.3473807,58.1309065 L46.3203676,60.2699113 L43.6106711,63.3760193 Z M59.7920571,64.9575175 L44.2250152,53.7732532 L66.8570148,30.3465999 L59.7920571,64.9575175 Z" id="path-3"></path>
        <rect id="path-5" x="0" y="0" width="91" height="91" rx="4"></rect>
        <path d="M71.5413889,21.8702246 C70.9709265,21.3809841 70.1810555,21.2785849 69.5008887,21.5857824 L20.6495586,43.6812466 C19.4098999,44.2387532 18.6639105,45.5130539 18.7407036,46.9125092 C18.8174966,48.3119644 19.7061015,49.483866 21.0006124,49.8820849 L33.0461458,53.6594763 C34.0883368,53.9894292 35.1963504,53.3750342 35.5035224,52.2941542 C35.8106945,51.2132741 35.2292617,50.0641279 34.1870707,49.7455527 L24.1052444,46.5825563 L62.2713746,29.3226082 L39.7600497,52.624107 C39.7490793,52.6354847 39.7381089,52.6582401 39.716168,52.6696178 C39.6832567,52.7037508 39.6613159,52.7265062 39.6284046,52.7606392 C39.6064637,52.7833946 39.5845228,52.8175277 39.5735524,52.840283 C39.562582,52.8630384 39.5406411,52.8857938 39.5296707,52.9085491 C39.5187003,52.9199268 39.5187003,52.9313045 39.5187003,52.9313045 C39.4967594,52.9540599 39.485789,52.9881929 39.4638481,53.0109483 C39.4419072,53.0450814 39.4309368,53.0792144 39.4089959,53.1133475 C39.3980255,53.1361028 39.3870551,53.1702359 39.3760846,53.1929913 C39.3541438,53.2271243 39.3431734,53.2726351 39.3212325,53.3067681 C39.3102621,53.3295235 39.2992916,53.3522789 39.2992916,53.3750342 C39.2883212,53.420545 39.2663803,53.454678 39.2554099,53.5001888 C39.2444395,53.5229441 39.2444395,53.5456995 39.233469,53.5684549 C39.2224986,53.6139656 39.2115282,53.6594763 39.2005577,53.7049871 C39.2005577,53.7277425 39.1895873,53.7504978 39.1895873,53.7732532 C39.1786169,53.8187639 39.1786169,53.8642747 39.1786169,53.9097854 C39.1786169,53.9325408 39.1786169,53.9666738 39.1786169,53.9894292 C39.1786169,54.03494 39.1786169,54.0804507 39.1786169,54.1145837 C39.1786169,54.1373391 39.1786169,54.1487168 39.1786169,54.1714722 L39.7710202,65.8335993 C39.8368428,67.1079 40.6267138,68.2115354 41.7895795,68.6438874 C42.1296629,68.769042 42.4697462,68.8259304 42.8098296,68.8259304 C43.6545528,68.8259304 44.4773352,68.4618445 45.0697384,67.7791834 L49.5785857,62.6137144 L58.4646349,68.9965957 C59.0131565,69.383437 59.6384711,69.5882353 60.2857265,69.5882353 C60.680662,69.5882353 61.086568,69.5085915 61.4705331,69.3493039 C62.4688423,68.9397073 63.1928908,68.0408701 63.4122994,66.9599901 L72.2215557,23.8840748 C72.3751417,23.1331476 72.1118514,22.359465 71.5413889,21.8702246 Z M43.6106711,63.3760193 L43.3473807,58.1309065 L46.3203676,60.2699113 L43.6106711,63.3760193 Z M59.7920571,64.9575175 L44.2250152,53.7732532 L66.8570148,30.3465999 L59.7920571,64.9575175 Z" id="path-7"></path>
    </defs>
    <g id="bookwise" stroke="none" stroke-width="1" fill="none" fill-rule="evenodd">
        <path d="M409,202 C374.670522,217.836754 326.186551,244.756504 263.548087,282.759249 C200.909623,320.761994 146.726927,326.179541 101,299.011888" id="Path" stroke-opacity="0.2" stroke="#974321" stroke-width="4" stroke-linecap="round" stroke-linejoin="round" stroke-dasharray="4,20"></path>
        <text font-family="GillSans-SemiBold, Gill Sans" font-size="100" font-weight="500" fill="#CA592C">
            <tspan x="48.3769531" y="285">bookwise</tspan>
        </text>
        <g id="icons/32px/paper-plane" transform="translate(415.783651, 184.783651) rotate(21.000000) translate(-415.783651, -184.783651) translate(370.283651, 139.283651)">
            <g id="Icon-frame">
                <mask id="mask-2" fill="white">
                    <use xlink:href="#path-1"></use>
                </mask>
                <g id="Rectangle-2"></g>
            </g>
            <g id="Icon">
                <mask id="mask-4" fill="white">
                    <use xlink:href="#path-3"></use>
                </mask>
                <use id="icon/paper-plane" fill="#222222" fill-rule="nonzero" xlink:href="#path-3"></use>
                <g id="colours/burning-orange/20" mask="url(#mask-4)" fill="#FFE2D7">
                    <polygon id="#EB612A" points="0 0 91 0 91 91 0 91"></polygon>
                </g>
            </g>
        </g>
        <g id="icons/32px/paper-plane" transform="translate(418.783651, 179.783651) rotate(21.000000) translate(-418.783651, -179.783651) translate(373.283651, 134.283651)">
            <g id="Icon-frame">
                <mask id="mask-6" fill="white">
                    <use xlink:href="#path-5"></use>
                </mask>
                <g id="Rectangle-2"></g>
            </g>
            <g id="Icon">
                <mask id="mask-8" fill="white">
                    <use xlink:href="#path-7"></use>
                </mask>
                <use id="icon/paper-plane" fill="#222222" fill-rule="nonzero" xlink:href="#path-7"></use>
                <g id="colours/burning-orange/80" mask="url(#mask-8)" fill="#FD8D5F">
                    <polygon id="#EB612A" points="0 0 91 0 91 91 0 91"></polygon>
                </g>
            </g>
        </g>
    </g>
</svg>