<?xml version="1.0" encoding="UTF-8"?>
<svg width="500px" height="500px" viewBox="0 0 500 500" version="1.1" xmlns="http://www.w3.org/2000/svg" xmlns:xlink="http://www.w3.org/1999/xlink">
    <title>bookwise</title>
    <defs>
        <rect id="path-1" x="0" y="0" width="91" height="91" rx="4"></rect>
        <path d="M71.5413889,21.8702246 C70.9709265,21.3809841 70.1810555,21.2785849 69.5008887,21.5857824 L20.6495586,43.6812466 C19.4098999,44.2387532 18.6639105,45.5130539 18.7407036,46.9125092 C18.8174966,48.3119644 19.7061015,49.483866 21.0006124,49.8820849 L33.0461458,53.6594763 C34.0883368,53.9894292 35.1963504,53.3750342 35.5035224,52.2941542 C35.8106945,51.2132741 35.2292617,50.0641279 34.1870707,49.7455527 L24.1052444,46.5825563 L62.2713746,29.3226082 L39.7600497,52.624107 C39.7490793,52.6354847 39.7381089,52.6582401 39.716168,52.6696178 C39.6832567,52.7037508 39.6613159,52.7265062 39.6284046,52.7606392 C39.6064637,52.7833946 39.5845228,52.8175277 39.5735524,52.840283 C39.562582,52.8630384 39.5406411,52.8857938 39.5296707,52.9085491 C39.5187003,52.9199268 39.5187003,52.9313045 39.5187003,52.9313045 C39.4967594,52.9540599 39.485789,52.9881929 39.4638481,53.0109483 C39.4419072,53.0450814 39.4309368,53.0792144 39.4089959,53.1133475 C39.3980255,53.1361028 39.3870551,53.1702359 39.3760846,53.1929913 C39.3541438,53.2271243 39.3431734,53.2726351 39.3212325,53.3067681 C39.3102621,53.3295235 39.2992916,53.3522789 39.2992916,53.3750342 C39.2883212,53.420545 39.2663803,53.454678 39.2554099,53.5001888 C39.2444395,53.5229441 39.2444395,53.5456995 39.233469,53.5684549 C39.2224986,53.6139656 39.2115282,53.6594763 39.2005577,53.7049871 C39.2005577,53.7277425 39.1895873,53.7504978 39.1895873,53.7732532 C39.1786169,53.8187639 39.1786169,53.8642747 39.1786169,53.9097854 C39.1786169,53.9325408 39.1786169,53.9666738 39.1786169,53.9894292 C39.1786169,54.03494 39.1786169,54.0804507 39.1786169,54.1145837 C39.1786169,54.1373391 39.1786169,54.1487168 39.1786169,54.1714722 L39.7710202,65.8335993 C39.8368428,67.1079 40.6267138,68.2115354 41.7895795,68.6438874 C42.1296629,68.769042 42.4697462,68.8259304 42.8098296,68.8259304 C43.6545528,68.8259304 44.4773352,68.4618445 45.0697384,67.7791834 L49.5785857,62.6137144 L58.4646349,68.9965957 C59.0131565,69.383437 59.6384711,69.5882353 60.2857265,69.5882353 C60.680662,69.5882353 61.086568,69.5085915 61.4705331,69.3493039 C62.4688423,68.9397073 63.1928908,68.0408701 63.4122994,66.9599901 L72.2215557,23.8840748 C72.3751417,23.1331476 72.1118514,22.359465 71.5413889,21.8702246 Z M43.6106711,63.3760193 L43.3473807,58.1309065 L46.3203676,60.2699113 L43.6106711,63.3760193 Z M59.7920571,64.9575175 L44.2250152,53.7732532 L66.8570148,30.3465999 L59.7920571,64.9575175 Z" id="path-3"></path>
        <rect id="path-5" x="0" y="0" width="91" height="91" rx="4"></rect>
        <path d="M71.5413889,21.8702246 C70.9709265,21.3809841 70.1810555,21.2785849 69.5008887,21.5857824 L20.6495586,43.6812466 C19.4098999,44.2387532 18.6639105,45.5130539 18.7407036,46.9125092 C18.8174966,48.3119644 19.7061015,49.483866 21.0006124,49.8820849 L33.0461458,53.6594763 C34.0883368,53.9894292 35.1963504,53.3750342 35.5035224,52.2941542 C35.8106945,51.2132741 35.2292617,50.0641279 34.1870707,49.7455527 L24.1052444,46.5825563 L62.2713746,29.3226082 L39.7600497,52.624107 C39.7490793,52.6354847 39.7381089,52.6582401 39.716168,52.6696178 C39.6832567,52.7037508 39.6613159,52.7265062 39.6284046,52.7606392 C39.6064637,52.7833946 39.5845228,52.8175277 39.5735524,52.840283 C39.562582,52.8630384 39.5406411,52.8857938 39.5296707,52.9085491 C39.5187003,52.9199268 39.5187003,52.9313045 39.5187003,52.9313045 C39.4967594,52.9540599 39.485789,52.9881929 39.4638481,53.0109483 C39.4419072,53.0450814 39.4309368,53.0792144 39.4089959,53.1133475 C39.3980255,53.1361028 39.3870551,53.1702359 39.3760846,53.1929913 C39.3541438,53.2271243 39.3431734,53.2726351 39.3212325,53.3067681 C39.3102621,53.3295235 39.2992916,53.3522789 39.2992916,53.3750342 C39.2883212,53.420545 39.2663803,53.454678 39.2554099,53.5001888 C39.2444395,53.5229441 39.2444395,53.5456995 39.233469,53.5684549 C39.2224986,53.6139656 39.2115282,53.6594763 39.2005577,53.7049871 C39.2005577,53.7277425 39.1895873,53.7504978 39.1895873,53.7732532 C39.1786169,53.8187639 39.1786169,53.8642747 39.1786169,53.9097854 C39.1786169,53.9325408 39.1786169,53.9666738 39.1786169,53.9894292 C39.1786169,54.03494 39.1786169,54.0804507 39.1786169,54.1145837 C39.1786169,54.1373391 39.1786169,54.1487168 39.1786169,54.1714722 L39.7710202,65.8335993 C39.8368428,67.1079 40.6267138,68.2115354 41.7895795,68.6438874 C42.1296629,68.769042 42.4697462,68.8259304 42.8098296,68.8259304 C43.6545528,68.8259304 44.4773352,68.4618445 45.0697384,67.7791834 L49.5785857,62.6137144 L58.4646349,68.9965957 C59.0131565,69.383437 59.6384711,69.5882353 60.2857265,69.5882353 C60.680662,69.5882353 61.086568,69.5085915 61.4705331,69.3493039 C62.4688423,68.9397073 63.1928908,68.0408701 63.4122994,66.9599901 L72.2215557,23.8840748 C72.3751417,23.1331476 72.1118514,22.359465 71.5413889,21.8702246 Z M43.6106711,63.3760193 L43.3473807,58.1309065 L46.3203676,60.2699113 L43.6106711,63.3760193 Z M59.7920571,64.9575175 L44.2250152,53.7732532 L66.8570148,30.3465999 L59.7920571,64.9575175 Z" id="path-7"></path>
    </defs>
    <g id="bookwise" stroke="none" stroke-width="1" fill="none" fill-rule="evenodd">
        <path d="M409,202 C374.670522,217.836754 326.186551,244.756504 263.548087,282.759249 C200.909623,320.761994 146.726927,326.179541 101,299.011888" id="Path" stroke-opacity="0.2" stroke="#974321" stroke-width="4" stroke-linecap="round" stroke-linejoin="round" stroke-dasharray="4,20"></path>
        <path d="M66.3945312,216.787109 L66.3945312,242.324219 C69.9427261,239.785144 73.9628682,238.515625 78.4550781,238.515625 C82.4590044,238.515625 86.0966633,239.500316 89.3681641,241.469727 C92.6396648,243.439137 95.1787019,246.206037 96.9853516,249.770508 C98.7920012,253.334979 99.6953125,257.314431 99.6953125,261.708984 C99.6953125,269.196001 97.4655171,275.096007 93.0058594,279.40918 C88.5462017,283.722352 82.4427471,285.878906 74.6953125,285.878906 C67.7291318,285.878906 60.9583662,284.593112 54.3828125,282.021484 L54.3828125,216.787109 L66.3945312,216.787109 Z M66.3945312,275.478516 C68.9661587,276.357426 71.9609204,276.796875 75.3789062,276.796875 C79.0573101,276.796875 81.9788303,275.454115 84.1435547,272.768555 C86.3082791,270.082994 87.390625,266.363956 87.390625,261.611328 C87.390625,257.314432 86.3001411,253.888359 84.1191406,251.333008 C81.9381401,248.777656 79.0573096,247.5 75.4765625,247.5 C73.8163979,247.5 72.2864653,247.809242 70.8867188,248.427734 C69.4869722,249.046227 67.9895913,250.006504 66.3945312,251.308594 L66.3945312,275.478516 Z M131.873047,238.515625 C136.625675,238.515625 140.938783,239.508454 144.8125,241.494141 C148.686217,243.479828 151.680979,246.263003 153.796875,249.84375 C155.912771,253.424497 156.970703,257.477191 156.970703,262.001953 C156.970703,266.722029 155.953461,270.856102 153.918945,274.404297 C151.88443,277.952492 148.889668,280.751943 144.93457,282.802734 C140.979472,284.853526 136.625675,285.878906 131.873047,285.878906 C127.087867,285.878906 122.742207,284.853526 118.835938,282.802734 C114.929668,280.751943 111.95932,277.952492 109.924805,274.404297 C107.890289,270.856102 106.873047,266.722029 106.873047,262.001953 C106.873047,257.412086 107.947255,253.334979 110.095703,249.770508 C112.244151,246.206037 115.238913,243.439137 119.080078,241.469727 C122.921243,239.500316 127.185523,238.515625 131.873047,238.515625 Z M119.470703,262.001953 C119.470703,266.559268 120.585601,270.196927 122.81543,272.915039 C125.045259,275.633152 128.031882,276.992188 131.775391,276.992188 C135.68166,276.992188 138.757801,275.690117 141.003906,273.085938 C143.250011,270.481758 144.373047,266.754582 144.373047,261.904297 C144.373047,257.281878 143.241873,253.709323 140.979492,251.186523 C138.717111,248.663724 135.649108,247.402344 131.775391,247.402344 C128.129539,247.402344 125.167329,248.736966 122.888672,251.40625 C120.610015,254.075534 119.470703,257.6074 119.470703,262.001953 Z M189.197266,238.515625 C193.949894,238.515625 198.263001,239.508454 202.136719,241.494141 C206.010436,243.479828 209.005198,246.263003 211.121094,249.84375 C213.23699,253.424497 214.294922,257.477191 214.294922,262.001953 C214.294922,266.722029 213.277679,270.856102 211.243164,274.404297 C209.208649,277.952492 206.213887,280.751943 202.258789,282.802734 C198.303691,284.853526 193.949894,285.878906 189.197266,285.878906 C184.412085,285.878906 180.066426,284.853526 176.160156,282.802734 C172.253887,280.751943 169.283539,277.952492 167.249023,274.404297 C165.214508,270.856102 164.197266,266.722029 164.197266,262.001953 C164.197266,257.412086 165.271474,253.334979 167.419922,249.770508 C169.56837,246.206037 172.563132,243.439137 176.404297,241.469727 C180.245462,239.500316 184.509742,238.515625 189.197266,238.515625 Z M176.794922,262.001953 C176.794922,266.559268 177.90982,270.196927 180.139648,272.915039 C182.369477,275.633152 185.356101,276.992188 189.099609,276.992188 C193.005879,276.992188 196.08202,275.690117 198.328125,273.085938 C200.57423,270.481758 201.697266,266.754582 201.697266,261.904297 C201.697266,257.281878 200.566092,253.709323 198.303711,251.186523 C196.04133,248.663724 192.973327,247.402344 189.099609,247.402344 C185.453758,247.402344 182.491548,248.736966 180.212891,251.40625 C177.934233,254.075534 176.794922,257.6074 176.794922,262.001953 Z M235.925781,216.787109 L235.925781,285 L223.914062,285 L223.914062,216.787109 L235.925781,216.787109 Z M269.03125,239.394531 L250.525391,261.904297 L271.326172,285 L256.091797,285 L236.121094,261.904297 L254.919922,239.394531 L269.03125,239.394531 Z M282.214844,239.394531 L292.810547,265.712891 L303.601562,239.394531 L311.414062,239.394531 L322.107422,265.712891 L332.703125,239.394531 L345.203125,239.394531 L324.890625,285.878906 L319.8125,285.878906 L307.507812,257.998047 L295.203125,285.878906 L290.222656,285.878906 L269.714844,239.394531 L282.214844,239.394531 Z M357.605469,218.300781 C359.460947,218.300781 361.055983,218.968092 362.390625,220.302734 C363.725267,221.637376 364.392578,223.232413 364.392578,225.087891 C364.392578,226.878264 363.733405,228.465162 362.415039,229.848633 C361.096673,231.232103 359.493499,231.923828 357.605469,231.923828 C355.782543,231.923828 354.195645,231.232103 352.844727,229.848633 C351.493808,228.465162 350.818359,226.878264 350.818359,225.087891 C350.818359,223.19986 351.501946,221.596686 352.869141,220.27832 C354.236335,218.959954 355.815095,218.300781 357.605469,218.300781 Z M363.611328,239.394531 L363.611328,285 L351.599609,285 L351.599609,239.394531 L363.611328,239.394531 Z M390.808594,238.515625 C393.315117,238.515625 395.675119,238.800453 397.888672,239.370117 C400.102225,239.939781 402.445951,240.843093 404.919922,242.080078 L404.919922,251.699219 C402.641265,250.234368 400.199883,249.054366 397.595703,248.15918 C394.991523,247.263993 392.664073,246.816406 390.613281,246.816406 C388.888012,246.816406 387.537114,247.141924 386.560547,247.792969 C385.583979,248.444014 385.095703,249.371739 385.095703,250.576172 C385.095703,251.259769 385.5026,251.943356 386.316406,252.626953 C387.130212,253.31055 389.360008,254.563793 393.005859,256.386719 C398.214219,259.023451 401.868154,261.456695 403.967773,263.686523 C406.067393,265.916352 407.117188,268.593734 407.117188,271.71875 C407.117188,276.113303 405.587255,279.571927 402.527344,282.094727 C399.467433,284.617526 395.333359,285.878906 390.125,285.878906 C386.869775,285.878906 383.834324,285.520837 381.018555,284.804688 C378.202785,284.088538 375.867197,283.225917 374.011719,282.216797 L374.011719,272.207031 C379.871123,275.462256 384.802714,277.089844 388.806641,277.089844 C390.857432,277.089844 392.517572,276.723636 393.787109,275.991211 C395.056647,275.258785 395.691406,274.290371 395.691406,273.085938 C395.691406,272.369788 395.463544,271.718753 395.007812,271.132812 C394.552081,270.546872 393.868494,269.944665 392.957031,269.326172 L392.781808,269.211694 C391.713726,268.535593 388.923851,267.092645 384.412109,264.882812 C380.733706,263.124991 378.015634,261.212575 376.257812,259.145508 C374.499991,257.07844 373.621094,254.62892 373.621094,251.796875 C373.621094,247.760396 375.199854,244.537772 378.357422,242.128906 C381.51499,239.72004 385.665339,238.515625 390.808594,238.515625 Z M436.804688,238.515625 C443.51045,238.515625 448.816387,240.664041 452.722656,244.960938 C456.628926,249.257834 458.582031,255.19853 458.582031,262.783203 L458.582031,264.589844 L426.306641,264.589844 C426.794924,268.658875 428.316719,271.791981 430.87207,273.989258 C433.427422,276.186534 436.934874,277.285156 441.394531,277.285156 C444.259129,277.285156 447.01789,276.788742 449.670898,275.795898 C452.323906,274.803055 455.066392,273.297536 457.898438,271.279297 L457.898438,280.214844 C452.559869,283.990904 446.082069,285.878906 438.464844,285.878906 C431.270797,285.878906 425.395205,283.714214 420.837891,279.384766 C416.280576,275.055317 414.001953,269.293656 414.001953,262.099609 C414.001953,255.165981 416.109679,249.501975 420.325195,245.107422 C424.540711,240.712869 430.03382,238.515625 436.804688,238.515625 Z M437.292969,246.71875 C434.26561,246.71875 431.832366,247.613923 429.993164,249.404297 C428.153962,251.19467 426.990237,253.831363 426.501953,257.314453 L426.501953,257.314453 L447.302734,257.314453 C446.977212,253.994124 445.968107,251.398121 444.275391,249.526367 C442.582674,247.654613 440.255223,246.71875 437.292969,246.71875 Z" fill="#CA592C" fill-rule="nonzero"></path>
        <g id="Group" transform="translate(370.283651, 139.283651)">
            <g id="icons/32px/paper-plane-copy" transform="translate(45.500000, 45.500000) rotate(21.000000) translate(-45.500000, -45.500000) ">
                <g id="Icon-frame">
                    <mask id="mask-2" fill="white">
                        <use xlink:href="#path-1"></use>
                    </mask>
                    <g id="Rectangle-2"></g>
                </g>
                <g id="Icon">
                    <mask id="mask-4" fill="white">
                        <use xlink:href="#path-3"></use>
                    </mask>
                    <use id="icon/paper-plane" fill="#222222" fill-rule="nonzero" xlink:href="#path-3"></use>
                    <g id="Group" mask="url(#mask-4)" fill="#FFE2D7">
                        <g id="🎨-ICON-COLOUR">
                            <polygon id="#EB612A" points="0 0 218.96875 0 218.96875 218.96875 0 218.96875"></polygon>
                        </g>
                    </g>
                </g>
            </g>
        </g>
        <g id="Group" transform="translate(373.283651, 134.283651)">
            <g id="icons/32px/paper-plane" transform="translate(45.500000, 45.500000) rotate(21.000000) translate(-45.500000, -45.500000) ">
                <g id="Icon-frame">
                    <mask id="mask-6" fill="white">
                        <use xlink:href="#path-5"></use>
                    </mask>
                    <g id="Rectangle-2"></g>
                </g>
                <g id="Icon">
                    <mask id="mask-8" fill="white">
                        <use xlink:href="#path-7"></use>
                    </mask>
                    <use id="icon/paper-plane" fill="#222222" fill-rule="nonzero" xlink:href="#path-7"></use>
                    <g id="Group" mask="url(#mask-8)" fill="#FD8D5F">
                        <g id="🎨-ICON-COLOUR">
                            <polygon id="#EB612A" points="0 0 218.96875 0 218.96875 218.96875 0 218.96875"></polygon>
                        </g>
                    </g>
                </g>
            </g>
        </g>
    </g>
</svg>