<?xml version="1.0" encoding="UTF-8"?>
<svg width="135px" height="85px" viewBox="0 0 135 85" version="1.1" xmlns="http://www.w3.org/2000/svg" xmlns:xlink="http://www.w3.org/1999/xlink">
    <!-- Generator: Sketch 61.2 (89653) - https://sketch.com -->
    <title>camera solid</title>
    <desc>Created with Sketch.</desc>
    <g id="tiles" stroke="none" stroke-width="1" fill="none" fill-rule="evenodd">
        <g id="play-+-camera" transform="translate(-174.000000, -309.000000)" fill="#FFFFFF">
            <path d="M269,309 C271.209139,309 273,310.790861 273,313 L273,318 L301,318 C305.418278,318 309,321.581722 309,326 L309,386 C309,390.418278 305.418278,394 301,394 L182,394 C177.581722,394 174,390.418278 174,386 L174,326 C174,321.581722 177.581722,318 182,318 L210,318 L210,313 C210,310.790861 211.790861,309 214,309 L269,309 Z M242,328 C227.640597,328 216,339.640597 216,354 C216,368.359403 227.640597,380 242,380 C256.359403,380 268,368.359403 268,354 C268,339.640597 256.359403,328 242,328 Z M193.5,331 C191.014719,331 189,333.014719 189,335.5 C189,337.985281 191.014719,340 193.5,340 C195.985281,340 198,337.985281 198,335.5 C198,333.014719 195.985281,331 193.5,331 Z" id="camera-solid"></path>
        </g>
    </g>
</svg>