<?xml version="1.0" encoding="UTF-8"?>
<svg width="135px" height="85px" viewBox="0 0 135 85" version="1.1" xmlns="http://www.w3.org/2000/svg" xmlns:xlink="http://www.w3.org/1999/xlink">
    <!-- Generator: Sketch 56.2 (81672) - https://sketch.com -->
    <title>Combined Shape Copy</title>
    <desc>Created with Sketch.</desc>
    <g id="Page-1" stroke="none" stroke-width="1" fill="none" fill-rule="evenodd">
        <g id="institute-copy" transform="translate(-308.000000, -91.000000)" stroke="#B4DBE8" stroke-width="3">
            <path d="M345.5,95 L345.5,101.5 L316,101.5 C312.410149,101.5 309.5,104.410149 309.5,108 L309.5,168 C309.5,171.589851 312.410149,174.5 316,174.5 L435,174.5 C438.589851,174.5 441.5,171.589851 441.5,168 L441.5,108 C441.5,104.410149 438.589851,101.5 435,101.5 L405.5,101.5 L405.5,95 C405.5,93.6192881 404.380712,92.5 403,92.5 L348,92.5 C346.619288,92.5 345.5,93.6192881 345.5,95 Z M376,163.5 C360.812169,163.5 348.5,151.187831 348.5,136 C348.5,120.812169 360.812169,108.5 376,108.5 C391.187831,108.5 403.5,120.812169 403.5,136 C403.5,151.187831 391.187831,163.5 376,163.5 Z M327.5,123.5 C324.186292,123.5 321.5,120.813708 321.5,117.5 C321.5,114.186292 324.186292,111.5 327.5,111.5 C330.813708,111.5 333.5,114.186292 333.5,117.5 C333.5,120.813708 330.813708,123.5 327.5,123.5 Z" id="Combined-Shape-Copy"></path>
        </g>
    </g>
</svg>