<?xml version="1.0" encoding="UTF-8"?>
<svg width="135px" height="85px" viewBox="0 0 135 85" version="1.1" xmlns="http://www.w3.org/2000/svg" xmlns:xlink="http://www.w3.org/1999/xlink">
    <!-- Generator: Sketch 61.2 (89653) - https://sketch.com -->
    <title>camera colour</title>
    <desc>Created with Sketch.</desc>
    <g id="tiles" stroke="none" stroke-width="1" fill="none" fill-rule="evenodd">
        <g id="play-+-camera" transform="translate(-324.000000, -207.000000)" fill="#B4DBE8">
            <path d="M419,207 C421.209139,207 423,208.790861 423,211 L423,216 L451,216 C455.418278,216 459,219.581722 459,224 L459,284 C459,288.418278 455.418278,292 451,292 L332,292 C327.581722,292 324,288.418278 324,284 L324,224 C324,219.581722 327.581722,216 332,216 L360,216 L360,211 C360,208.790861 361.790861,207 364,207 L419,207 Z M392,226 C377.640597,226 366,237.640597 366,252 C366,266.359403 377.640597,278 392,278 C406.359403,278 418,266.359403 418,252 C418,237.640597 406.359403,226 392,226 Z M343.5,229 C341.014719,229 339,231.014719 339,233.5 C339,235.985281 341.014719,238 343.5,238 C345.985281,238 348,235.985281 348,233.5 C348,231.014719 345.985281,229 343.5,229 Z" id="camera-colour"></path>
        </g>
    </g>
</svg>