<svg width="338" height="56" viewBox="0 0 338 56" fill="none" xmlns="http://www.w3.org/2000/svg">
<path fill-rule="evenodd" clip-rule="evenodd" d="M8.77298 19.8446C6.16612 21.3808 4.05484 23.6269 2.68807 26.3182C1.0639 29.6085 0.266889 33.2423 0.365591 36.9071C0.291984 40.2994 0.957545 43.6674 2.31648 46.7792C3.44195 49.3477 5.26846 51.5504 7.58851 53.1372C9.81411 54.5955 12.4259 55.3601 15.0901 55.3336C17.7069 55.4037 20.2906 54.7387 22.5453 53.4146C24.5576 52.2083 26.1099 50.3702 26.958 48.1896V55.1255L45.3289 53.1835V51.2645L43.5405 50.6634C42.7735 50.4774 42.0885 50.0472 41.5897 49.438C41.2452 48.6287 41.1095 47.7466 41.1948 46.8717V0.447021L22.8008 2.55093V4.493L24.5426 5.071C25.309 5.25852 25.9936 5.6885 26.4935 6.29635C26.8398 7.12166 26.9831 8.01734 26.9116 8.9089V22.2028C26.0414 20.7141 24.7028 19.5522 23.1027 18.8967C21.1965 18.0494 19.1285 17.6235 17.041 17.6482C14.1374 17.6322 11.2825 18.3906 8.77298 19.8446ZM22.0112 49.7385C19.8045 49.5976 17.8777 48.2018 17.0643 46.1549L17.0178 46.1087C15.5529 42.8433 14.8996 39.2747 15.1134 35.7048C14.8903 32.1173 15.5772 28.5317 17.1107 25.2777C18.0266 23.229 20.0385 21.8819 22.2899 21.8097C23.3028 21.7894 24.3009 22.0539 25.1698 22.5727C25.929 23.0154 26.5362 23.6763 26.9116 24.4685V46.7329C26.487 47.6162 25.8286 48.3675 25.0072 48.9062C24.1153 49.4773 23.0712 49.7673 22.0112 49.7385Z" fill="black"/>
<path d="M51.7349 26.7716C53.397 23.9044 55.8234 21.5567 58.7425 19.9912C61.9944 18.3403 65.6095 17.5362 69.2539 17.6531C72.4136 17.5714 75.5464 18.2531 78.3871 19.6405C80.8313 20.8766 82.8671 22.7925 84.2501 25.1583C85.6681 27.6568 86.3863 30.492 86.329 33.3649C86.329 33.8793 86.329 34.3936 86.329 34.908C86.329 35.4224 86.329 35.8432 86.1888 36.1939H60.2375V33.8559L74.5796 33.6688L73.8789 34.3703C73.8789 33.9026 73.8789 33.3883 73.8789 32.8271C73.8789 32.266 73.8789 31.5646 73.8789 30.7229C73.993 28.1473 73.6042 25.5742 72.7343 23.1476C72.269 21.5583 70.815 20.4644 69.1604 20.4588C67.2658 20.4893 65.5772 21.6622 64.8858 23.4281C63.7633 26.1025 63.2525 28.9944 63.3909 31.8919C63.2891 35.3338 63.9098 38.7588 65.2128 41.9456C66.2538 44.4337 67.9893 46.5686 70.2116 48.0947C72.3527 49.4798 74.857 50.196 77.406 50.1522C79.0047 50.1708 80.5916 49.8769 82.0777 49.2871C83.3706 48.8149 84.5489 48.0738 85.5348 47.1127V49.1936C83.9415 51.4571 81.7145 53.198 79.1346 54.197C76.0787 55.4335 72.8066 56.0456 69.5108 55.9973C65.9427 56.0255 62.4166 55.2252 59.2097 53.6592C56.2665 52.14 53.7947 49.8438 52.062 47.0192C50.1608 43.9582 49.2022 40.4046 49.3056 36.8018C49.2007 33.3007 50.0398 29.8359 51.7349 26.7716Z" fill="black"/>
<path d="M93.2691 53.5967C91.3334 52.05 90.2348 49.6796 90.3033 47.1971C90.2826 45.3935 90.8302 43.6295 91.868 42.1571C93.1945 40.4219 94.9494 39.0644 96.9589 38.2188C99.9463 36.9011 103.083 35.9564 106.3 35.4058L116.155 33.5304V35.8746L111.484 36.953C109.345 37.308 107.383 38.3629 105.903 39.9535C104.766 41.4516 104.18 43.2986 104.245 45.1811C104.142 46.7236 104.608 48.2502 105.553 49.4709C106.354 50.4178 107.538 50.9517 108.776 50.9243C109.819 50.9032 110.83 50.5594 111.671 49.9398C112.459 49.463 113.067 48.7375 113.399 47.8769V30.1548C113.616 27.5881 112.772 25.0449 111.064 23.1222C109.246 21.5809 106.899 20.8152 104.525 20.989C102.873 20.9789 101.233 21.2811 99.6912 21.8798C98.3085 22.3875 97.0503 23.1869 96.0014 24.224C95.0899 25.1231 94.5059 26.3038 94.3434 27.5762H92.7787C92.7726 25.9692 93.3734 24.4195 94.4601 23.2395C95.4188 22.0998 96.8275 21.4399 98.3134 21.4344C99.8625 21.4096 101.355 22.019 102.447 23.1222C103.57 24.1942 104.189 25.6928 104.152 27.248C104.177 28.8472 103.523 30.3815 102.353 31.4676C101.173 32.5987 99.5945 33.2141 97.9631 33.1788C96.3624 33.2172 94.8079 32.6384 93.6194 31.5613C92.4466 30.5171 91.7892 29.0089 91.8213 27.4355C91.8534 25.6117 92.5903 23.8718 93.8763 22.5831C95.5567 20.9208 97.6174 19.6974 99.878 19.0199C102.954 18.0639 106.163 17.6127 109.383 17.6837C114.021 17.4063 118.637 18.5158 122.647 20.8718C125.849 23.1198 127.626 26.9013 127.318 30.8112V47.7597C127.22 48.9278 127.562 50.0903 128.275 51.0181C128.883 51.6611 129.727 52.0255 130.611 52.0261C131.069 52.0331 131.526 51.9698 131.965 51.8385V53.8077C130.898 54.4956 129.721 54.9951 128.485 55.2845C126.886 55.7118 125.236 55.9169 123.581 55.894C122.036 55.9007 120.499 55.6634 119.027 55.1907C117.662 54.7523 116.41 54.0158 115.361 53.0341C114.367 52.0925 113.711 50.8484 113.493 49.4944C112.727 51.5847 111.152 53.2756 109.126 54.1827C106.587 55.4386 103.782 56.0579 100.952 55.9878C98.192 56.1132 95.4746 55.2675 93.2691 53.5967Z" fill="black"/>
<path fill-rule="evenodd" clip-rule="evenodd" d="M142.98 19.8448C140.38 21.3824 138.277 23.6287 136.918 26.3184C135.313 29.565 134.524 33.1513 134.619 36.7687C134.525 40.2077 135.191 43.6252 136.57 46.7797C137.695 49.3482 139.522 51.5509 141.842 53.1378C144.075 54.5992 146.695 55.3639 149.367 55.3342C151.976 55.4 154.551 54.7351 156.799 53.4152C158.811 52.2034 160.37 50.3679 161.234 48.1901V55.1261L179.582 53.184V51.265L177.817 50.6639C177.041 50.4842 176.346 50.0533 175.843 49.4386C175.462 48.6376 175.279 47.7578 175.308 46.8722V0.447021L156.915 2.55095V4.49304L158.656 5.07104C159.46 5.24803 160.184 5.67766 160.723 6.29641C161.047 7.12755 161.182 8.01978 161.118 8.90898V22.2031C160.254 20.7098 158.913 19.5463 157.309 18.8969C155.405 18.0453 153.336 17.6192 151.248 17.6484C148.344 17.6324 145.489 18.3908 142.98 19.8448ZM156.334 49.6928C154.098 49.598 152.121 48.2169 151.271 46.1554V46.1092C149.806 42.8438 149.153 39.2751 149.367 35.7051C149.176 32.1125 149.887 28.5292 151.434 25.278C152.354 23.233 154.363 21.8876 156.613 21.8099C157.633 21.7903 158.638 22.0545 159.516 22.5729C160.268 23.017 160.868 23.6781 161.234 24.4688V46.6872C160.81 47.5705 160.151 48.3218 159.33 48.8605C158.438 49.4316 157.394 49.7216 156.334 49.6928Z" fill="black"/>
<path d="M201.342 24.9585C202.284 22.7305 203.932 20.8744 206.031 19.676C208.572 18.2599 211.449 17.562 214.355 17.6569C217.682 17.5022 220.953 18.5523 223.57 20.6151C226.048 22.9578 227.333 26.2989 227.064 29.701V49.0701C227.033 49.8026 227.137 50.5346 227.368 51.23C227.595 51.7818 228.022 52.2267 228.564 52.4743C229.391 52.854 230.267 53.1148 231.167 53.2491V55.3386H209.22V53.2491C210.245 53.1494 211.212 52.7306 211.987 52.0517C212.485 51.2365 212.7 50.2787 212.597 49.3283V29.9827C212.725 28.2352 212.198 26.5024 211.119 25.1228C210.006 24.0093 208.469 23.4279 206.899 23.5263C205.717 23.4929 204.549 23.7853 203.522 24.3715C202.618 24.8439 201.887 25.5922 201.436 26.508V49.3283C201.34 50.2752 201.546 51.2281 202.022 52.0517C202.793 52.7361 203.762 53.1557 204.789 53.2491V55.3386H182.889V53.2491C184.095 53.1302 185.246 52.6837 186.218 51.9578C186.817 51.1209 187.092 50.0947 186.992 49.0701V26.6254C187.061 25.7125 186.916 24.7962 186.57 23.9489C186.079 23.3164 185.382 22.8762 184.6 22.7046L182.889 22.1412V20.169L201.342 17.8213V24.9585Z" fill="black"/>
<path fill-rule="evenodd" clip-rule="evenodd" d="M237.427 7.61645C237.394 9.40268 238.174 11.1113 239.557 12.2837C242.478 14.7683 246.833 14.7683 249.754 12.2837C251.137 11.1113 251.917 9.40268 251.885 7.61645C251.917 5.83023 251.137 4.12158 249.754 2.94925C246.821 0.4947 242.49 0.4947 239.557 2.94925C238.174 4.12158 237.394 5.83023 237.427 7.61645ZM253.537 51.9782C252.945 51.138 252.674 50.1225 252.771 49.1079V18.0476L233.812 20.3812V22.3415L235.56 22.9015C236.361 23.0795 237.078 23.5152 237.595 24.1383C237.925 24.9862 238.064 25.8937 238.001 26.7986V49.1079C238.104 50.1263 237.823 51.1463 237.212 51.9782C236.222 52.7039 235.045 53.1482 233.812 53.2617V55.3386H256.96V53.2617C255.717 53.1574 254.53 52.7124 253.537 51.9782Z" fill="black"/>
<path d="M271.012 53.4571C268.016 52.0117 265.474 49.7624 263.668 46.957C261.792 43.9025 260.842 40.3646 260.933 36.7758C260.747 29.6528 264.739 23.0841 271.128 20.0013C274.485 18.3768 278.178 17.5782 281.902 17.6715C285.726 17.4507 289.52 18.4717 292.723 20.5838C295.154 22.1858 296.624 24.9067 296.638 27.8294C296.676 29.4826 296.047 31.0809 294.895 32.2611C293.743 33.4413 292.166 34.1033 290.521 34.0966C288.913 34.1259 287.361 33.5047 286.212 32.3725C285.051 31.2736 284.404 29.7349 284.428 28.1323C284.399 26.5358 285.018 24.9964 286.142 23.8688C287.211 22.7288 288.709 22.0945 290.267 22.1214C291.787 22.0986 293.255 22.6854 294.344 23.7523C295.471 24.8011 296.096 26.286 296.059 27.8294H294.136C293.882 25.9878 292.926 24.3173 291.471 23.1698C289.911 21.9106 287.957 21.25 285.957 21.306C284.028 21.2688 282.135 21.8301 280.535 22.9136C278.91 24.0904 277.648 25.7058 276.898 27.5731C275.991 29.7883 275.55 32.1678 275.6 34.5625C275.512 37.4596 276.115 40.3358 277.361 42.9498C278.395 45.0937 279.999 46.908 281.995 48.1918C283.951 49.3809 286.197 50.0018 288.482 49.9857C290.059 49.992 291.625 49.7321 293.116 49.2169C294.406 48.8024 295.603 48.1375 296.638 47.2599V49.3334C295.014 51.4995 292.836 53.1823 290.336 54.2027C287.404 55.4402 284.248 56.0511 281.068 55.9966C277.566 55.9421 274.124 55.0729 271.012 53.4571Z" fill="black"/>
<path d="M303.199 26.7714C304.858 23.9058 307.276 21.5587 310.185 19.9912C313.426 18.3403 317.03 17.5362 320.663 17.6531C323.806 17.5715 326.922 18.2532 329.745 19.6405C332.189 20.8665 334.221 22.7848 335.59 25.1582C336.996 27.659 337.703 30.494 337.639 33.3647C337.639 33.8791 337.639 34.3934 337.639 34.9078C337.639 35.4222 337.639 35.843 337.499 36.1937H311.675V33.8557L325.973 33.6686L325.297 34.37C325.297 33.9024 325.297 33.3881 325.297 32.8269C325.297 32.2658 325.297 31.5644 325.297 30.7227C325.405 28.1494 325.026 25.5789 324.18 23.1475C323.716 21.5582 322.266 20.4644 320.617 20.4588C318.728 20.4892 317.045 21.6622 316.356 23.4281C315.226 26.0992 314.716 28.9935 314.865 31.8917C314.764 35.3336 315.383 38.7585 316.682 41.9453C317.713 44.4303 319.435 46.5649 321.642 48.0943C323.783 49.4826 326.288 50.1988 328.837 50.1517C330.431 50.1759 332.014 49.8818 333.494 49.2867C334.79 48.8142 335.972 48.0734 336.964 47.1123V49.1931C335.382 51.4625 333.16 53.205 330.583 54.1965C327.538 55.4373 324.275 56.0495 320.99 55.9968C317.44 56.0248 313.932 55.2244 310.744 53.6588C307.732 52.2083 305.177 49.951 303.362 47.1357C301.477 44.0703 300.522 40.5199 300.614 36.9185C300.538 33.3628 301.432 29.8538 303.199 26.7714Z" fill="black"/>
</svg>
