<svg width="700" height="500" viewBox="0 0 700 500" fill="none" xmlns="http://www.w3.org/2000/svg">
<g id="design_system">
<rect id="Rectangle Copy" x="497" y="328" width="43" height="44" rx="8" fill="#FCDAE3"/>
<rect id="Rectangle Copy_2" x="560" y="162" width="64" height="40" rx="8" fill="#F68EA9"/>
<path id="designsystem" fill-rule="evenodd" clip-rule="evenodd" d="M77.2999 279.4C76.7 280.067 75.9666 280.767 75.1 281.5C74.2333 282.233 73.2166 282.9 72.05 283.5C70.8833 284.1 69.5833 284.6 68.15 285C66.7166 285.4 65.1 285.6 63.3 285.6C60.7666 285.6 58.2666 285.067 55.8 284C53.3333 282.933 51.1333 281.367 49.2 279.3C47.2666 277.233 45.7 274.7 44.5 271.7C43.2999 268.7 42.7 265.267 42.7 261.4C42.7 257.733 43.2333 254.517 44.3 251.75C45.3666 248.983 46.7 246.633 48.3 244.7C49.6333 243.1 51.0999 241.767 52.7 240.7C54.3 239.633 55.9166 238.75 57.55 238.05C59.1833 237.35 60.7666 236.85 62.3 236.55C63.8333 236.25 65.1666 236.1 66.3 236.1C67.8333 236.1 69.0999 236.15 70.1 236.25C71.1 236.35 71.9999 236.483 72.8 236.65C73.6 236.817 74.3333 237.033 75 237.3L76.875 238.036C77.0138 238.09 77.1555 238.144 77.2999 238.2V217.3H89V284H77.6L77.2999 279.4ZM77.2999 248.8C76.1666 247.867 74.85 247.217 73.35 246.85C71.8499 246.483 69.9333 246.3 67.6 246.3C65.2666 246.3 63.3333 246.75 61.7999 247.65C60.2666 248.55 58.9333 249.733 57.8 251.2C56.7999 252.533 56.0166 254.083 55.45 255.85C54.8833 257.617 54.6 259.467 54.6 261.4C54.6 265.4 55.5999 268.733 57.6 271.4C59.6 274.067 62.4999 275.4 66.2999 275.4C68.3 275.4 69.9999 275.017 71.4 274.25C72.8 273.483 73.9333 272.5 74.7999 271.3C75.6666 270.1 76.2999 268.783 76.7 267.35C77.1 265.917 77.2999 264.533 77.2999 263.2V248.8ZM143.05 278.85L144.7 277.2L138.3 270C137.989 270.311 137.567 270.693 137.034 271.145L136.55 271.55C135.783 272.183 134.8 272.783 133.6 273.35C132.4 273.917 130.95 274.417 129.25 274.85C127.55 275.283 125.567 275.5 123.3 275.5C121.767 275.5 120.217 275.233 118.65 274.7C117.083 274.167 115.683 273.4 114.45 272.4C113.217 271.4 112.217 270.2 111.45 268.8C110.683 267.4 110.3 265.833 110.3 264.1H145.3V262.4C145.3 259.067 144.9 255.8 144.1 252.6C143.3 249.4 142 246.533 140.2 244C138.4 241.467 136.017 239.417 133.05 237.85C130.083 236.283 126.467 235.5 122.2 235.5C118.667 235.5 115.45 236.133 112.55 237.4C109.65 238.667 107.15 240.4 105.05 242.6C102.95 244.8 101.317 247.383 100.15 250.35C98.9833 253.317 98.4 256.533 98.4 260C98.4 263.8 98.9833 267.267 100.15 270.4C101.317 273.533 102.983 276.217 105.15 278.45C107.317 280.683 109.933 282.433 113 283.7C116.067 284.967 119.467 285.6 123.2 285.6C126.867 285.6 130.017 285.2 132.65 284.4C135.283 283.6 137.45 282.7 139.15 281.7C140.85 280.7 142.15 279.75 143.05 278.85ZM133.2 255.6C133.2 254.4 132.967 253.2 132.5 252C132.033 250.8 131.35 249.717 130.45 248.75C129.55 247.783 128.4 246.983 127 246.35C125.6 245.717 124 245.4 122.2 245.4C120.267 245.4 118.55 245.717 117.05 246.35C115.55 246.983 114.3 247.783 113.3 248.75C112.3 249.717 111.533 250.8 111 252C110.467 253.2 110.2 254.4 110.2 255.6H133.2ZM164.75 274.25C162.517 273.283 160.667 272.067 159.2 270.6L152.1 278.3C154.233 280.7 157.067 282.517 160.6 283.75C164.133 284.983 168.1 285.6 172.5 285.6C175.233 285.6 177.817 285.25 180.25 284.55C182.683 283.85 184.817 282.867 186.65 281.6C188.483 280.333 189.933 278.783 191 276.95C192.067 275.117 192.6 273.067 192.6 270.8C192.6 268.533 192.233 266.583 191.5 264.95C190.767 263.317 189.717 261.9 188.35 260.7C186.983 259.5 185.35 258.5 183.45 257.7C181.55 256.9 179.4 256.233 177 255.7C173.133 254.767 170.283 253.883 168.45 253.05C166.617 252.217 165.7 251.067 165.7 249.6C165.7 248.4 166.25 247.383 167.35 246.55C168.45 245.717 170.4 245.3 173.2 245.3C176 245.3 178.433 245.683 180.5 246.45C182.567 247.217 184.233 248.067 185.5 249L191.6 240.7C189.267 238.967 186.65 237.667 183.75 236.8C180.85 235.933 177.333 235.5 173.2 235.5C170.867 235.5 168.55 235.833 166.25 236.5C163.95 237.167 161.883 238.117 160.05 239.35C158.217 240.583 156.733 242.117 155.6 243.95C154.467 245.783 153.9 247.867 153.9 250.2C153.9 252.467 154.383 254.417 155.35 256.05C156.317 257.683 157.55 259.083 159.05 260.25C160.55 261.417 162.167 262.333 163.9 263C165.633 263.667 167.3 264.2 168.9 264.6C171.5 265.2 173.567 265.767 175.1 266.3L175.476 266.433C176.831 266.922 177.906 267.411 178.7 267.9C179.567 268.433 180.133 268.983 180.4 269.55C180.667 270.117 180.8 270.733 180.8 271.4C180.8 272.933 180.033 274.033 178.5 274.7C176.967 275.367 174.933 275.7 172.4 275.7C169.533 275.7 166.983 275.217 164.75 274.25ZM202.3 217.3H214.9V229.7H202.3V217.3ZM214.5 237.1H202.7V284H214.5V237.1ZM234.2 291.6C236.067 292.867 238.083 293.783 240.25 294.35C242.417 294.917 244.967 295.2 247.9 295.2C250.967 295.2 253.533 294.267 255.6 292.4C257.667 290.533 258.7 287.933 258.7 284.6V279.5C257.1 280.833 255.35 281.917 253.45 282.75C251.55 283.583 249.033 284 245.9 284C242.5 284 239.483 283.433 236.85 282.3C234.217 281.167 231.967 279.583 230.1 277.55C228.233 275.517 226.817 273.117 225.85 270.35C224.883 267.583 224.4 264.533 224.4 261.2C224.4 257.733 225.017 254.467 226.25 251.4C227.483 248.333 229.25 245.667 231.55 243.4C233.85 241.133 236.633 239.35 239.9 238.05C243.167 236.75 246.833 236.1 250.9 236.1C254.967 236.1 258.717 236.433 262.15 237.1C265.583 237.767 268.367 238.467 270.5 239.2V284.8C270.5 288.067 269.933 290.967 268.8 293.5C267.667 296.033 266.1 298.167 264.1 299.9C262.1 301.633 259.733 302.95 257 303.85C254.267 304.75 251.3 305.2 248.1 305.2C245.633 305.2 243.45 305.083 241.55 304.85C239.65 304.617 237.95 304.3 236.45 303.9C234.95 303.5 233.583 303 232.35 302.4C231.117 301.8 229.967 301.1 228.9 300.3L234.2 291.6ZM255.8 246.55C256.8 246.717 257.767 246.967 258.7 247.3V264.1C258.7 267.433 257.783 269.867 255.95 271.4C254.117 272.933 251.4 273.7 247.8 273.7C243.8 273.7 240.9 272.467 239.1 270C237.3 267.533 236.4 264.5 236.4 260.9C236.4 258.967 236.717 257.117 237.35 255.35C237.983 253.583 238.933 252.033 240.2 250.7C241.467 249.367 243 248.3 244.8 247.5C246.6 246.7 248.7 246.3 251.1 246.3C253.233 246.3 254.8 246.383 255.8 246.55ZM282.1 237.1H293.4L293.7 242.4C294.3 241.733 295.017 241.033 295.85 240.3C296.683 239.567 297.683 238.883 298.85 238.25C300.017 237.617 301.333 237.1 302.8 236.7C304.267 236.3 305.933 236.1 307.8 236.1C313.667 236.1 318.133 237.85 321.2 241.35C324.267 244.85 325.8 249.567 325.8 255.5V284H314V255.6C314 252.6 313.183 250.283 311.55 248.65C309.917 247.017 307.8 246.2 305.2 246.2C303.6 246.2 302.1 246.517 300.7 247.15C299.3 247.783 298.1 248.667 297.1 249.8C296.1 250.933 295.317 252.25 294.75 253.75C294.183 255.25 293.9 256.867 293.9 258.6V284H282.1V237.1ZM365.65 274.25C363.417 273.283 361.567 272.067 360.1 270.6L353 278.3C355.133 280.7 357.967 282.517 361.5 283.75C365.033 284.983 369 285.6 373.4 285.6C376.133 285.6 378.717 285.25 381.15 284.55C383.583 283.85 385.717 282.867 387.55 281.6C389.383 280.333 390.833 278.783 391.9 276.95C392.967 275.117 393.5 273.067 393.5 270.8C393.5 268.533 393.133 266.583 392.4 264.95C391.667 263.317 390.617 261.9 389.25 260.7C387.883 259.5 386.25 258.5 384.35 257.7C382.45 256.9 380.3 256.233 377.9 255.7C374.033 254.767 371.183 253.883 369.35 253.05C367.517 252.217 366.6 251.067 366.6 249.6C366.6 248.4 367.15 247.383 368.25 246.55C369.35 245.717 371.3 245.3 374.1 245.3C376.9 245.3 379.333 245.683 381.4 246.45C383.467 247.217 385.133 248.067 386.4 249L392.5 240.7C390.167 238.967 387.55 237.667 384.65 236.8C381.75 235.933 378.233 235.5 374.1 235.5C371.767 235.5 369.45 235.833 367.15 236.5C364.85 237.167 362.783 238.117 360.95 239.35C359.117 240.583 357.633 242.117 356.5 243.95C355.367 245.783 354.8 247.867 354.8 250.2C354.8 252.467 355.283 254.417 356.25 256.05C357.217 257.683 358.45 259.083 359.95 260.25C361.45 261.417 363.067 262.333 364.8 263C366.533 263.667 368.2 264.2 369.8 264.6C372.4 265.2 374.467 265.767 376 266.3L376.376 266.433C377.731 266.922 378.805 267.411 379.6 267.9C380.467 268.433 381.033 268.983 381.3 269.55C381.567 270.117 381.7 270.733 381.7 271.4C381.7 272.933 380.933 274.033 379.4 274.7C377.867 275.367 375.833 275.7 373.3 275.7C370.433 275.7 367.883 275.217 365.65 274.25ZM405 293.3C405.667 293.833 406.4 294.35 407.2 294.85C408 295.35 409 295.6 410.2 295.6C411.8 295.6 413.117 294.933 414.15 293.6C415.183 292.267 416.267 290.2 417.4 287.4L418.9 283.6L397.8 237.1H411.4L424.8 269.2L436.6 237.1H449.5L429.9 284C428.967 286.333 428.033 288.733 427.1 291.2C426.167 293.667 425.017 295.95 423.65 298.05C422.283 300.15 420.6 301.867 418.6 303.2C416.6 304.533 414.067 305.2 411 305.2C408.333 305.2 406.117 304.883 404.35 304.25C402.583 303.617 401.033 302.733 399.7 301.6L405 293.3ZM466.15 274.25C463.917 273.283 462.067 272.067 460.6 270.6L453.5 278.3C455.633 280.7 458.467 282.517 462 283.75C465.533 284.983 469.5 285.6 473.9 285.6C476.633 285.6 479.217 285.25 481.65 284.55C484.083 283.85 486.217 282.867 488.05 281.6C489.883 280.333 491.333 278.783 492.4 276.95C493.467 275.117 494 273.067 494 270.8C494 268.533 493.633 266.583 492.9 264.95C492.167 263.317 491.117 261.9 489.75 260.7C488.383 259.5 486.75 258.5 484.85 257.7C482.95 256.9 480.8 256.233 478.4 255.7C474.533 254.767 471.683 253.883 469.85 253.05C468.017 252.217 467.1 251.067 467.1 249.6C467.1 248.4 467.65 247.383 468.75 246.55C469.85 245.717 471.8 245.3 474.6 245.3C477.4 245.3 479.833 245.683 481.9 246.45C483.967 247.217 485.633 248.067 486.9 249L493 240.7C490.667 238.967 488.05 237.667 485.15 236.8C482.25 235.933 478.733 235.5 474.6 235.5C472.267 235.5 469.95 235.833 467.65 236.5C465.35 237.167 463.283 238.117 461.45 239.35C459.617 240.583 458.133 242.117 457 243.95C455.867 245.783 455.3 247.867 455.3 250.2C455.3 252.467 455.783 254.417 456.75 256.05C457.717 257.683 458.95 259.083 460.45 260.25C461.95 261.417 463.567 262.333 465.3 263C467.033 263.667 468.7 264.2 470.3 264.6C472.9 265.2 474.967 265.767 476.5 266.3L476.876 266.433C478.231 266.922 479.305 267.411 480.1 267.9C480.967 268.433 481.533 268.983 481.8 269.55C482.067 270.117 482.2 270.733 482.2 271.4C482.2 272.933 481.433 274.033 479.9 274.7C478.367 275.367 476.333 275.7 473.8 275.7C470.933 275.7 468.383 275.217 466.15 274.25ZM507.6 246.7H499.6V237.1H507.6V221.9H519.4V237.1H532V246.7H519.4V267.2C519.4 269.867 519.85 271.917 520.75 273.35C521.65 274.783 523.1 275.5 525.1 275.5C526.967 275.5 528.45 275.233 529.55 274.7C530.65 274.167 531.7 273.533 532.7 272.8L537.7 280.1C535.367 282.033 533.067 283.417 530.8 284.25C528.533 285.083 526 285.5 523.2 285.5C520.333 285.5 517.9 285.083 515.9 284.25C513.9 283.417 512.283 282.233 511.05 280.7C509.817 279.167 508.933 277.317 508.4 275.15C507.867 272.983 507.6 270.6 507.6 268V246.7ZM586.25 278.85L587.9 277.2L581.5 270C581.189 270.311 580.767 270.693 580.234 271.145L579.75 271.55C578.983 272.183 578 272.783 576.8 273.35C575.6 273.917 574.15 274.417 572.45 274.85C570.75 275.283 568.767 275.5 566.5 275.5C564.967 275.5 563.417 275.233 561.85 274.7C560.283 274.167 558.883 273.4 557.65 272.4C556.417 271.4 555.417 270.2 554.65 268.8C553.883 267.4 553.5 265.833 553.5 264.1H588.5V262.4C588.5 259.067 588.1 255.8 587.3 252.6C586.5 249.4 585.2 246.533 583.4 244C581.6 241.467 579.217 239.417 576.25 237.85C573.283 236.283 569.667 235.5 565.4 235.5C561.867 235.5 558.65 236.133 555.75 237.4C552.85 238.667 550.35 240.4 548.25 242.6C546.15 244.8 544.517 247.383 543.35 250.35C542.183 253.317 541.6 256.533 541.6 260C541.6 263.8 542.183 267.267 543.35 270.4C544.517 273.533 546.183 276.217 548.35 278.45C550.517 280.683 553.133 282.433 556.2 283.7C559.267 284.967 562.667 285.6 566.4 285.6C570.067 285.6 573.217 285.2 575.85 284.4C578.483 283.6 580.65 282.7 582.35 281.7C584.05 280.7 585.35 279.75 586.25 278.85ZM576.4 255.6C576.4 254.4 576.167 253.2 575.7 252C575.233 250.8 574.55 249.717 573.65 248.75C572.75 247.783 571.6 246.983 570.2 246.35C568.8 245.717 567.2 245.4 565.4 245.4C563.467 245.4 561.75 245.717 560.25 246.35C558.75 246.983 557.5 247.783 556.5 248.75C555.5 249.717 554.733 250.8 554.2 252C553.667 253.2 553.4 254.4 553.4 255.6H576.4ZM608.9 237.1H597.6V284H609.4V258.6C609.4 256.867 609.65 255.25 610.15 253.75C610.65 252.25 611.383 250.933 612.35 249.8C613.317 248.667 614.467 247.783 615.8 247.15C617.133 246.517 618.6 246.2 620.2 246.2C622.8 246.2 624.85 247.017 626.35 248.65C627.85 250.283 628.6 252.6 628.6 255.6V284H640.4V258.6C640.4 256.867 640.65 255.25 641.15 253.75C641.65 252.25 642.383 250.933 643.35 249.8C644.317 248.667 645.467 247.783 646.8 247.15C648.133 246.517 649.6 246.2 651.2 246.2C653.8 246.2 655.85 247.017 657.35 248.65C658.85 250.283 659.6 252.6 659.6 255.6V284H671.4V255.5C671.4 249.567 669.817 244.85 666.65 241.35C663.483 237.85 658.933 236.1 653 236.1C649.667 236.1 646.75 236.617 644.25 237.65C641.75 238.683 639.3 240.433 636.9 242.9C633.7 238.367 629 236.1 622.8 236.1C620.933 236.1 619.283 236.3 617.85 236.7C616.417 237.1 615.15 237.6 614.05 238.2C612.95 238.8 612.017 239.483 611.25 240.25C610.483 241.017 609.8 241.733 609.2 242.4L608.9 237.1Z" fill="#EF426F"/>
<rect id="Rectangle" x="487" y="319" width="40" height="40" rx="6" stroke="#5F1A2C" stroke-width="4"/>
<rect id="Rectangle Copy_3" x="164" y="125" width="151" height="68" rx="8" fill="#F68EA9"/>
<rect id="Rectangle_2" x="156" y="116" width="147" height="23" rx="6" stroke="#6C0505" stroke-width="4"/>
<rect id="Rectangle Copy 2" x="156" y="147" width="147" height="33" rx="6" stroke="#6C0505" stroke-width="4"/>
</g>
</svg>
