<?xml version="1.0" encoding="UTF-8"?>
<svg width="700px" height="500px" viewBox="0 0 700 500" version="1.1" xmlns="http://www.w3.org/2000/svg" xmlns:xlink="http://www.w3.org/1999/xlink">
    <title>design system</title>
    <g id="design-system" stroke="none" stroke-width="1" fill="none" fill-rule="evenodd">
        <rect id="Rectangle-Copy" fill="#E08AF7" x="497" y="328" width="43" height="44" rx="8"></rect>
        <rect id="Rectangle-Copy" fill="#DAF78A" x="560" y="162" width="64" height="40" rx="8"></rect>
        <path d="M77.3,279.4 C76.7,280.06667 75.966671,280.766663 75.1,281.5 C74.233329,282.233337 73.2166725,282.899997 72.05,283.5 C70.8833275,284.100003 69.5833405,284.599998 68.15,285 C66.7166595,285.400002 65.100009,285.6 63.3,285.6 C60.766654,285.6 58.266679,285.066672 55.8,284 C53.333321,282.933328 51.133343,281.366677 49.2,279.3 C47.266657,277.233323 45.7,274.700015 44.5,271.7 C43.299994,268.699985 42.7,265.266686 42.7,261.4 C42.7,257.733315 43.233328,254.516681 44.3,251.75 C45.366672,248.983319 46.7,246.633343 48.3,244.7 C49.63334,243.099992 51.099992,241.766672 52.7,240.7 C54.300008,239.633328 55.9166585,238.750003 57.55,238.05 C59.1833415,237.349997 60.766659,236.850002 62.3,236.55 C63.833341,236.249999 65.166661,236.1 66.3,236.1 C67.833341,236.1 69.099995,236.149999 70.1,236.25 C71.100005,236.35 71.999996,236.483333 72.8,236.65 C73.600004,236.816667 74.33333,237.033332 75,237.3 L76.8749987,238.036111 C77.0138878,238.089814 77.1555548,238.144444 77.3,238.2 L77.3,217.3 L89,217.3 L89,284 L77.6,284 L77.3,279.4 Z M77.3,248.8 C76.166661,247.866662 74.8500075,247.216668 73.35,246.85 C71.8499925,246.483331 69.933345,246.3 67.6,246.3 C65.266655,246.3 63.333341,246.749996 61.8,247.65 C60.266659,248.550005 58.933339,249.733326 57.8,251.2 C56.799995,252.53334 56.0166695,254.083325 55.45,255.85 C54.8833305,257.616675 54.6,259.466657 54.6,261.4 C54.6,265.40002 55.59999,268.73332 57.6,271.4 C59.60001,274.06668 62.499981,275.4 66.3,275.4 C68.30001,275.4 69.999993,275.016671 71.4,274.25 C72.800007,273.483329 73.933329,272.500006 74.8,271.3 C75.666671,270.099994 76.299998,268.783341 76.7,267.35 C77.1,265.91666 77.3,264.53334 77.3,263.2 L77.3,248.8 Z M144.7,277.2 L143.05,278.85 C142.149995,279.750004 140.850008,280.699995 139.15,281.7 C137.449991,282.700005 135.283346,283.599996 132.65,284.4 C130.016653,285.200004 126.866685,285.6 123.2,285.6 C119.466648,285.6 116.066682,284.966673 113,283.7 C109.933318,282.433327 107.316677,280.683344 105.15,278.45 C102.983322,276.216656 101.316672,273.533349 100.15,270.4 C98.9833275,267.266651 98.4,263.800019 98.4,260 C98.4,256.533316 98.9833275,253.316682 100.15,250.35 C101.316672,247.383319 102.949989,244.800011 105.05,242.6 C107.15001,240.399989 109.649985,238.666673 112.55,237.4 C115.450014,236.133327 118.666649,235.5 122.2,235.5 C126.466688,235.5 130.083318,236.283325 133.05,237.85 C136.016681,239.416674 138.4,241.466654 140.2,244 C142.000009,246.533346 143.299996,249.399984 144.1,252.6 C144.9,255.800016 145.3,259.06665 145.3,262.4 L145.3,264.1 L110.3,264.1 C110.3,265.833342 110.683329,267.399993 111.45,268.8 C112.21667,270.200007 113.21666,271.399995 114.45,272.4 C115.683339,273.400005 117.083325,274.166664 118.65,274.7 C120.216674,275.233336 121.766659,275.5 123.3,275.5 C125.566678,275.5 127.549991,275.283336 129.25,274.85 C130.950008,274.416665 132.4,273.91667 133.6,273.35 C134.800006,272.783331 135.783329,272.183336 136.55,271.55 L137.033952,271.145061 C137.566875,270.692797 137.988889,270.311113 138.3,270 L144.7,277.2 Z M133.2,255.6 C133.2,254.4 132.966669,253.200006 132.5,252 C132.033331,250.799994 131.350004,249.716671 130.45,248.75 C129.549995,247.783328 128.400007,246.983337 127,246.35 C125.599993,245.716663 124.000009,245.4 122.2,245.4 C120.266657,245.4 118.550007,245.716663 117.05,246.35 C115.549992,246.983337 114.300005,247.783328 113.3,248.75 C112.299995,249.716671 111.533336,250.799994 111,252 C110.466664,253.200006 110.2,254.4 110.2,255.6 L133.2,255.6 Z M159.2,270.6 C160.666674,272.066674 162.516655,273.283328 164.75,274.25 C166.983344,275.216672 169.533319,275.7 172.4,275.7 C174.933346,275.7 176.966659,275.36667 178.5,274.7 C180.033341,274.03333 180.8,272.933341 180.8,271.4 C180.8,270.73333 180.666668,270.11667 180.4,269.55 C180.133332,268.98333 179.566671,268.433336 178.7,267.9 C177.905552,267.411109 176.831024,266.922224 175.47639,266.433334 L175.1,266.3 C173.566659,265.766664 171.500013,265.200003 168.9,264.6 C167.299992,264.199998 165.633342,263.66667 163.9,263 C162.166658,262.33333 160.550007,261.416673 159.05,260.25 C157.549992,259.083327 156.316671,257.683341 155.35,256.05 C154.383328,254.416658 153.9,252.466678 153.9,250.2 C153.9,247.866655 154.466661,245.783343 155.6,243.95 C156.733339,242.116657 158.216657,240.583339 160.05,239.35 C161.883342,238.11666 163.949988,237.16667 166.25,236.5 C168.550011,235.83333 170.866655,235.5 173.2,235.5 C177.333354,235.5 180.849985,235.933329 183.75,236.8 C186.650014,237.666671 189.266655,238.966658 191.6,240.7 L185.5,249 C184.233327,248.066662 182.566677,247.21667 180.5,246.45 C178.433323,245.68333 176.000014,245.3 173.2,245.3 C170.399986,245.3 168.450005,245.716662 167.35,246.55 C166.249994,247.383337 165.7,248.399994 165.7,249.6 C165.7,251.066674 166.616657,252.216662 168.45,253.05 C170.283342,253.883337 173.133314,254.766662 177,255.7 C179.400012,256.233336 181.54999,256.899996 183.45,257.7 C185.350009,258.5 186.983326,259.5 188.35,260.7 C189.716673,261.900006 190.766663,263.316659 191.5,264.95 C192.233337,266.583342 192.6,268.533322 192.6,270.8 C192.6,273.066678 192.066672,275.116657 191,276.95 C189.933328,278.783343 188.483342,280.333327 186.65,281.6 C184.816657,282.866673 182.683345,283.849996 180.25,284.55 C177.816654,285.250003 175.233347,285.6 172.5,285.6 C168.099978,285.6 164.133351,284.983339 160.6,283.75 C157.066649,282.516661 154.233344,280.700012 152.1,278.3 L159.2,270.6 Z M202.3,217.3 L214.9,217.3 L214.9,229.7 L202.3,229.7 L202.3,217.3 Z M202.7,237.1 L214.5,237.1 L214.5,284 L202.7,284 L202.7,237.1 Z M234.2,291.6 C236.066676,292.866673 238.083322,293.783331 240.25,294.35 C242.416677,294.91667 244.966652,295.2 247.9,295.2 C250.966682,295.2 253.533323,294.266676 255.6,292.4 C257.666677,290.533324 258.7,287.93335 258.7,284.6 L258.7,279.5 C257.099992,280.83334 255.350009,281.916663 253.45,282.75 C251.54999,283.583337 249.033349,284 245.9,284 C242.499983,284 239.483346,283.433339 236.85,282.3 C234.216653,281.166661 231.966676,279.583344 230.1,277.55 C228.233324,275.516657 226.816671,273.116681 225.85,270.35 C224.883328,267.58332 224.4,264.53335 224.4,261.2 C224.4,257.733316 225.01666,254.466682 226.25,251.4 C227.483339,248.333318 229.249988,245.666678 231.55,243.4 C233.850011,241.133322 236.633317,239.350007 239.9,238.05 C243.166683,236.749993 246.833313,236.1 250.9,236.1 C254.966687,236.1 258.716649,236.43333 262.15,237.1 C265.58335,237.76667 268.366656,238.466663 270.5,239.2 L270.5,284.8 C270.5,288.066683 269.933339,290.966654 268.8,293.5 C267.666661,296.033346 266.10001,298.166658 264.1,299.9 C262.09999,301.633342 259.733347,302.949995 257,303.85 C254.266653,304.750004 251.300016,305.2 248.1,305.2 C245.633321,305.2 243.450009,305.083334 241.55,304.85 C239.64999,304.616666 237.950007,304.300002 236.45,303.9 C234.949992,303.499998 233.583339,303.000003 232.35,302.4 C231.11666,301.799997 229.966672,301.1 228.9,300.3 L234.2,291.6 Z M258.7,247.3 C257.766662,246.966665 256.800005,246.716667 255.8,246.55 C254.799995,246.383332 253.233344,246.3 251.1,246.3 C248.699988,246.3 246.600009,246.699996 244.8,247.5 C242.999991,248.3 241.466673,249.36666 240.2,250.7 C238.933327,252.03334 237.983336,253.583325 237.35,255.35 C236.716663,257.116675 236.4,258.966657 236.4,260.9 C236.4,264.500018 237.299991,267.533321 239.1,270 C240.9,272.466679 243.79998,273.7 247.8,273.7 C251.400018,273.7 254.116657,272.933341 255.95,271.4 C257.783342,269.866659 258.7,267.43335 258.7,264.1 L258.7,247.3 Z M282.1,237.1 L293.4,237.1 L293.7,242.4 C294.300003,241.73333 295.016662,241.033337 295.85,240.3 C296.683337,239.566663 297.683327,238.883336 298.85,238.25 C300.016672,237.616664 301.333326,237.1 302.8,236.7 C304.266674,236.299998 305.933324,236.1 307.8,236.1 C313.666696,236.1 318.133318,237.849983 321.2,241.35 C324.266682,244.850018 325.8,249.566637 325.8,255.5 L325.8,284 L314,284 L314,255.6 C314,252.599985 313.183341,250.283342 311.55,248.65 C309.916658,247.016659 307.800013,246.2 305.2,246.2 C303.6,246.2 302.1,246.516663 300.7,247.15 C299.299993,247.783336 298.1,248.666661 297.1,249.8 C296.1,250.933339 295.316669,252.249992 294.75,253.75 C294.18333,255.250008 293.9,256.866658 293.9,258.6 L293.9,284 L282.1,284 L282.1,237.1 Z M360.1,270.6 C361.566674,272.066674 363.416655,273.283328 365.65,274.25 C367.883344,275.216672 370.433319,275.7 373.3,275.7 C375.833346,275.7 377.866659,275.36667 379.4,274.7 C380.933341,274.03333 381.7,272.933341 381.7,271.4 C381.7,270.73333 381.566668,270.11667 381.3,269.55 C381.033332,268.98333 380.466671,268.433336 379.6,267.9 C378.805552,267.411109 377.731024,266.922224 376.37639,266.433334 L376,266.3 C374.466659,265.766664 372.400013,265.200003 369.8,264.6 C368.199992,264.199998 366.533342,263.66667 364.8,263 C363.066658,262.33333 361.450007,261.416673 359.95,260.25 C358.449992,259.083327 357.216671,257.683341 356.25,256.05 C355.283328,254.416658 354.8,252.466678 354.8,250.2 C354.8,247.866655 355.366661,245.783343 356.5,243.95 C357.633339,242.116657 359.116657,240.583339 360.95,239.35 C362.783342,238.11666 364.849988,237.16667 367.15,236.5 C369.450011,235.83333 371.766655,235.5 374.1,235.5 C378.233354,235.5 381.749985,235.933329 384.65,236.8 C387.550014,237.666671 390.166655,238.966658 392.5,240.7 L386.4,249 C385.133327,248.066662 383.466677,247.21667 381.4,246.45 C379.333323,245.68333 376.900014,245.3 374.1,245.3 C371.299986,245.3 369.350005,245.716662 368.25,246.55 C367.149994,247.383337 366.6,248.399994 366.6,249.6 C366.6,251.066674 367.516657,252.216662 369.35,253.05 C371.183342,253.883337 374.033314,254.766662 377.9,255.7 C380.300012,256.233336 382.44999,256.899996 384.35,257.7 C386.250009,258.5 387.883326,259.5 389.25,260.7 C390.616673,261.900006 391.666663,263.316659 392.4,264.95 C393.133337,266.583342 393.5,268.533322 393.5,270.8 C393.5,273.066678 392.966672,275.116657 391.9,276.95 C390.833328,278.783343 389.383342,280.333327 387.55,281.6 C385.716657,282.866673 383.583345,283.849996 381.15,284.55 C378.716654,285.250003 376.133347,285.6 373.4,285.6 C368.999978,285.6 365.033351,284.983339 361.5,283.75 C357.966649,282.516661 355.133344,280.700012 353,278.3 L360.1,270.6 Z M405,293.3 C405.66667,293.833336 406.399996,294.349997 407.2,294.85 C408.000004,295.350003 408.999994,295.6 410.2,295.6 C411.8,295.6 413.116661,294.93334 414.15,293.6 C415.183338,292.26666 416.266661,290.200014 417.4,287.4 L418.9,283.6 L397.8,237.1 L411.4,237.1 L424.8,269.2 L436.6,237.1 L449.5,237.1 L429.9,284 C428.966662,286.333345 428.033338,288.733321 427.1,291.2 C426.166662,293.666679 425.016673,295.94999 423.65,298.05 C422.283326,300.150011 420.60001,301.86666 418.6,303.2 C416.59999,304.53334 414.066682,305.2 411,305.2 C408.33332,305.2 406.116675,304.883336 404.35,304.25 C402.583324,303.616664 401.03334,302.733339 399.7,301.6 L405,293.3 Z M460.6,270.6 C462.066674,272.066674 463.916655,273.283328 466.15,274.25 C468.383344,275.216672 470.933319,275.7 473.8,275.7 C476.333346,275.7 478.366659,275.36667 479.9,274.7 C481.433341,274.03333 482.2,272.933341 482.2,271.4 C482.2,270.73333 482.066668,270.11667 481.8,269.55 C481.533332,268.98333 480.966671,268.433336 480.1,267.9 C479.305552,267.411109 478.231024,266.922224 476.87639,266.433334 L476.5,266.3 C474.966659,265.766664 472.900013,265.200003 470.3,264.6 C468.699992,264.199998 467.033342,263.66667 465.3,263 C463.566658,262.33333 461.950007,261.416673 460.45,260.25 C458.949992,259.083327 457.716671,257.683341 456.75,256.05 C455.783328,254.416658 455.3,252.466678 455.3,250.2 C455.3,247.866655 455.866661,245.783343 457,243.95 C458.133339,242.116657 459.616657,240.583339 461.45,239.35 C463.283342,238.11666 465.349988,237.16667 467.65,236.5 C469.950011,235.83333 472.266655,235.5 474.6,235.5 C478.733354,235.5 482.249985,235.933329 485.15,236.8 C488.050014,237.666671 490.666655,238.966658 493,240.7 L486.9,249 C485.633327,248.066662 483.966677,247.21667 481.9,246.45 C479.833323,245.68333 477.400014,245.3 474.6,245.3 C471.799986,245.3 469.850005,245.716662 468.75,246.55 C467.649994,247.383337 467.1,248.399994 467.1,249.6 C467.1,251.066674 468.016657,252.216662 469.85,253.05 C471.683342,253.883337 474.533314,254.766662 478.4,255.7 C480.800012,256.233336 482.94999,256.899996 484.85,257.7 C486.750009,258.5 488.383326,259.5 489.75,260.7 C491.116673,261.900006 492.166663,263.316659 492.9,264.95 C493.633337,266.583342 494,268.533322 494,270.8 C494,273.066678 493.466672,275.116657 492.4,276.95 C491.333328,278.783343 489.883342,280.333327 488.05,281.6 C486.216657,282.866673 484.083345,283.849996 481.65,284.55 C479.216654,285.250003 476.633347,285.6 473.9,285.6 C469.499978,285.6 465.533351,284.983339 462,283.75 C458.466649,282.516661 455.633344,280.700012 453.5,278.3 L460.6,270.6 Z M507.6,246.7 L499.6,246.7 L499.6,237.1 L507.6,237.1 L507.6,221.9 L519.4,221.9 L519.4,237.1 L532,237.1 L532,246.7 L519.4,246.7 L519.4,267.2 C519.4,269.86668 519.849995,271.91666 520.75,273.35 C521.650005,274.783341 523.09999,275.5 525.1,275.5 C526.966676,275.5 528.449995,275.233336 529.55,274.7 C530.650005,274.166664 531.699995,273.533337 532.7,272.8 L537.7,280.1 C535.366655,282.033343 533.066678,283.416663 530.8,284.25 C528.533322,285.083337 526.000014,285.5 523.2,285.5 C520.333319,285.5 517.90001,285.083337 515.9,284.25 C513.89999,283.416663 512.28334,282.233341 511.05,280.7 C509.81666,279.166659 508.933336,277.316677 508.4,275.15 C507.866664,272.983322 507.6,270.600013 507.6,268 L507.6,246.7 Z M587.9,277.2 L586.25,278.85 C585.349995,279.750004 584.050008,280.699995 582.35,281.7 C580.649991,282.700005 578.483346,283.599996 575.85,284.4 C573.216654,285.200004 570.066685,285.6 566.4,285.6 C562.666648,285.6 559.266682,284.966673 556.2,283.7 C553.133318,282.433327 550.516677,280.683344 548.35,278.45 C546.183323,276.216656 544.516672,273.533349 543.35,270.4 C542.183327,267.266651 541.6,263.800019 541.6,260 C541.6,256.533316 542.183327,253.316682 543.35,250.35 C544.516672,247.383319 546.149989,244.800011 548.25,242.6 C550.35001,240.399989 552.849986,238.666673 555.75,237.4 C558.650014,236.133327 561.866649,235.5 565.4,235.5 C569.666688,235.5 573.283318,236.283325 576.25,237.85 C579.216681,239.416674 581.6,241.466654 583.4,244 C585.200009,246.533346 586.499996,249.399984 587.3,252.6 C588.1,255.800016 588.5,259.06665 588.5,262.4 L588.5,264.1 L553.5,264.1 C553.5,265.833342 553.883329,267.399993 554.65,268.8 C555.416671,270.200007 556.41666,271.399995 557.65,272.4 C558.88334,273.400005 560.283325,274.166664 561.85,274.7 C563.416674,275.233336 564.966659,275.5 566.5,275.5 C568.766678,275.5 570.749991,275.283336 572.45,274.85 C574.150009,274.416665 575.6,273.91667 576.8,273.35 C578.000006,272.783331 578.983329,272.183336 579.75,271.55 L580.233952,271.145061 C580.766875,270.692797 581.188889,270.311113 581.5,270 L587.9,277.2 Z M576.4,255.6 C576.4,254.4 576.166669,253.200006 575.7,252 C575.233331,250.799994 574.550005,249.716671 573.65,248.75 C572.749995,247.783328 571.600007,246.983337 570.2,246.35 C568.799993,245.716663 567.200009,245.4 565.4,245.4 C563.466657,245.4 561.750008,245.716663 560.25,246.35 C558.749992,246.983337 557.500005,247.783328 556.5,248.75 C555.499995,249.716671 554.733336,250.799994 554.2,252 C553.666664,253.200006 553.4,254.4 553.4,255.6 L576.4,255.6 Z M597.6,237.1 L608.9,237.1 L609.2,242.4 C609.800003,241.73333 610.483329,241.016671 611.25,240.25 C612.01667,239.483329 612.949994,238.800003 614.05,238.2 C615.150005,237.6 616.416659,237.1 617.85,236.7 C619.28334,236.299998 620.933324,236.1 622.8,236.1 C629.000031,236.1 633.699984,238.366644 636.9,242.9 C639.300012,240.433321 641.749987,238.683338 644.25,237.65 C646.750012,236.616661 649.66665,236.1 653,236.1 C658.933363,236.1 663.483317,237.849983 666.65,241.35 C669.816682,244.850018 671.4,249.566637 671.4,255.5 L671.4,284 L659.6,284 L659.6,255.6 C659.6,252.599985 658.850007,250.283342 657.35,248.65 C655.849992,247.016659 653.800013,246.2 651.2,246.2 C649.6,246.2 648.13334,246.516663 646.8,247.15 C645.46666,247.783336 644.316671,248.666661 643.35,249.8 C642.383328,250.933339 641.650002,252.249992 641.15,253.75 C640.649997,255.250008 640.4,256.866658 640.4,258.6 L640.4,284 L628.6,284 L628.6,255.6 C628.6,252.599985 627.850007,250.283342 626.35,248.65 C624.849992,247.016659 622.800013,246.2 620.2,246.2 C618.6,246.2 617.13334,246.516663 615.8,247.15 C614.46666,247.783336 613.316671,248.666661 612.35,249.8 C611.383328,250.933339 610.650002,252.249992 610.15,253.75 C609.649997,255.250008 609.4,256.866658 609.4,258.6 L609.4,284 L597.6,284 L597.6,237.1 Z" id="designsystem" fill="#57056C" fill-rule="nonzero"></path>
        <rect id="Rectangle" stroke="#57056C" stroke-width="4" x="487" y="319" width="40" height="40" rx="8"></rect>
        <rect id="Rectangle-Copy" fill="#F78A8A" x="164" y="125" width="151" height="68" rx="8"></rect>
        <rect id="Rectangle" stroke="#6C0505" stroke-width="4" x="156" y="116" width="147" height="23" rx="8"></rect>
        <rect id="Rectangle-Copy-2" stroke="#6C0505" stroke-width="4" x="156" y="147" width="147" height="33" rx="8"></rect>
    </g>
</svg>