<?xml version="1.0" encoding="UTF-8"?>
<svg width="500px" height="500px" viewBox="0 0 500 500" version="1.1" xmlns="http://www.w3.org/2000/svg" xmlns:xlink="http://www.w3.org/1999/xlink">
    <title>institute</title>
    <g id="institute" stroke="none" stroke-width="1" fill="none" fill-rule="evenodd">
        <rect id="Rectangle-Copy-4" fill="#FFFFFF" transform="translate(253.500000, 309.500000) rotate(-270.000000) translate(-253.500000, -309.500000) " x="248" y="177" width="11" height="265" rx="4"></rect>
        <rect id="Rectangle-Copy-6" fill="#FFFFFF" transform="translate(253.500000, 326.500000) rotate(-270.000000) translate(-253.500000, -326.500000) " x="248" y="175" width="11" height="303" rx="4"></rect>
        <path d="M255.231765,122.831744 L377.164275,181.394311 C379.155642,182.350738 379.994626,184.740398 379.038199,186.731765 C378.372328,188.118167 376.970528,189 375.43251,189 L131.56749,189 C129.358351,189 127.56749,187.209139 127.56749,185 C127.56749,183.461983 128.449322,182.060182 129.835725,181.394311 L251.768235,122.831744 C252.86289,122.305995 254.13711,122.305995 255.231765,122.831744 Z" id="Triangle" fill="#FFFFFF"></path>
        <rect id="Rectangle-Copy-5" fill="#FFFFFF" transform="translate(253.500000, 200.500000) rotate(-270.000000) translate(-253.500000, -200.500000) " x="248" y="68" width="11" height="265" rx="4"></rect>
        <path d="M82.776,233.352 L82.776,220.968 L67.992,220.968 L67.992,233.352 L82.776,233.352 Z M82.296,285 L82.296,239.976 L68.472,239.976 L68.472,285 L82.296,285 Z M107.68,285 L107.68,260.808 C107.68,259.464 107.872,258.2 108.256,257.016 C108.64,255.832 109.216,254.792 109.984,253.896 C110.752,253 111.712,252.28 112.864,251.736 C114.016,251.192 115.36,250.92 116.896,250.92 C119.136,250.92 120.88,251.656 122.128,253.128 C123.376,254.6 124,256.584 124,259.08 L124,259.08 L124,285 L137.824,285 L137.824,257.16 C137.824,251.144 136.304,246.6 133.264,243.528 C130.224,240.456 126.112,238.92 120.928,238.92 C118.304,238.92 115.792,239.464 113.392,240.552 C110.992,241.64 109.056,243.08 107.584,244.872 L107.584,244.872 L107.2,239.976 L93.952,239.976 L93.952,285 L107.68,285 Z M166.76,286.536 C169.256,286.536 171.704,286.248 174.104,285.672 C176.504,285.096 178.648,284.216 180.536,283.032 C182.424,281.848 183.928,280.36 185.048,278.568 C186.168,276.776 186.728,274.632 186.728,272.136 C186.728,268.424 185.688,265.448 183.608,263.208 C181.528,260.968 178.184,259.208 173.576,257.928 C170.184,257.032 167.496,256.232 165.512,255.528 C163.528,254.824 162.536,253.736 162.536,252.264 C162.536,251.24 163.016,250.424 163.976,249.816 C164.936,249.208 166.472,248.904 168.584,248.904 C170.952,248.904 173.08,249.288 174.968,250.056 C176.856,250.824 178.536,251.688 180.008,252.648 L180.008,252.648 L185.864,243.528 C183.432,241.864 180.776,240.6 177.896,239.736 C175.016,238.872 171.656,238.44 167.816,238.44 C165.128,238.44 162.616,238.776 160.28,239.448 C157.944,240.12 155.928,241.08 154.232,242.328 C152.536,243.576 151.208,245.048 150.248,246.744 C149.288,248.44 148.808,250.344 148.808,252.456 C148.808,254.504 149.208,256.296 150.008,257.832 C150.808,259.368 151.864,260.68 153.176,261.768 C154.488,262.856 155.992,263.768 157.688,264.504 C159.384,265.24 161.096,265.832 162.824,266.28 C164.936,266.856 166.68,267.368 168.056,267.816 C169.432,268.264 170.504,268.696 171.272,269.112 C172.04,269.528 172.568,269.976 172.856,270.456 C173.144,270.936 173.288,271.464 173.288,272.04 C173.288,273.512 172.616,274.504 171.272,275.016 C169.928,275.528 168.232,275.784 166.184,275.784 C163.944,275.784 161.624,275.336 159.224,274.44 C156.824,273.544 154.888,272.424 153.416,271.08 L153.416,271.08 L146.6,279.912 C148.84,282.152 151.752,283.816 155.336,284.904 C158.92,285.992 162.728,286.536 166.76,286.536 Z M215.568,286.632 C220.688,286.632 225.424,284.904 229.776,281.448 L229.776,281.448 L224.208,273 C223.312,273.64 222.352,274.2 221.328,274.68 C220.304,275.16 219.088,275.4 217.68,275.4 C215.824,275.4 214.464,274.808 213.6,273.624 C212.736,272.44 212.304,270.76 212.304,268.584 L212.304,268.584 L212.304,250.824 L223.92,250.824 L223.92,239.976 L212.304,239.976 L212.304,225.192 L198.48,225.192 L198.48,239.976 L191.376,239.976 L191.376,250.824 L198.48,250.824 L198.48,267.816 C198.48,270.632 198.768,273.192 199.344,275.496 C199.92,277.8 200.88,279.768 202.224,281.4 C203.568,283.032 205.328,284.312 207.504,285.24 C209.68,286.168 212.368,286.632 215.568,286.632 Z M250.936,233.352 L250.936,220.968 L236.152,220.968 L236.152,233.352 L250.936,233.352 Z M250.456,285 L250.456,239.976 L236.632,239.976 L236.632,285 L250.456,285 Z M282.464,286.632 C287.584,286.632 292.32,284.904 296.672,281.448 L296.672,281.448 L291.104,273 C290.208,273.64 289.248,274.2 288.224,274.68 C287.2,275.16 285.984,275.4 284.576,275.4 C282.72,275.4 281.36,274.808 280.496,273.624 C279.632,272.44 279.2,270.76 279.2,268.584 L279.2,268.584 L279.2,250.824 L290.816,250.824 L290.816,239.976 L279.2,239.976 L279.2,225.192 L265.376,225.192 L265.376,239.976 L258.272,239.976 L258.272,250.824 L265.376,250.824 L265.376,267.816 C265.376,270.632 265.664,273.192 266.24,275.496 C266.816,277.8 267.776,279.768 269.12,281.4 C270.464,283.032 272.224,284.312 274.4,285.24 C276.576,286.168 279.264,286.632 282.464,286.632 Z M318.792,286.152 C321.416,286.152 323.928,285.592 326.328,284.472 C328.728,283.352 330.664,281.928 332.136,280.2 L332.136,280.2 L332.52,285 L345.768,285 L345.768,239.976 L332.04,239.976 L332.04,264.264 C332.04,265.544 331.848,266.792 331.464,268.008 C331.08,269.224 330.504,270.28 329.736,271.176 C328.968,272.072 328.04,272.792 326.952,273.336 C325.864,273.88 324.616,274.152 323.208,274.152 C320.776,274.152 318.936,273.416 317.688,271.944 C316.44,270.472 315.816,268.456 315.816,265.896 L315.816,265.896 L315.816,239.976 L301.992,239.976 L301.992,267.912 C301.992,273.928 303.496,278.472 306.504,281.544 C309.512,284.616 313.608,286.152 318.792,286.152 Z M377.488,286.632 C382.608,286.632 387.344,284.904 391.696,281.448 L391.696,281.448 L386.128,273 C385.232,273.64 384.272,274.2 383.248,274.68 C382.224,275.16 381.008,275.4 379.6,275.4 C377.744,275.4 376.384,274.808 375.52,273.624 C374.656,272.44 374.224,270.76 374.224,268.584 L374.224,268.584 L374.224,250.824 L385.84,250.824 L385.84,239.976 L374.224,239.976 L374.224,225.192 L360.4,225.192 L360.4,239.976 L353.296,239.976 L353.296,250.824 L360.4,250.824 L360.4,267.816 C360.4,270.632 360.688,273.192 361.264,275.496 C361.84,277.8 362.8,279.768 364.144,281.4 C365.488,283.032 367.248,284.312 369.424,285.24 C371.6,286.168 374.288,286.632 377.488,286.632 Z M418.712,286.536 C421.592,286.536 424.152,286.264 426.392,285.72 C428.632,285.176 430.568,284.552 432.2,283.848 C433.832,283.144 435.16,282.424 436.184,281.688 C437.208,280.952 437.976,280.424 438.488,280.104 L438.488,280.104 L432.824,271.368 C431.8,272.136 430.168,273.048 427.928,274.104 C425.688,275.16 422.776,275.688 419.192,275.688 C415.544,275.688 412.68,274.776 410.6,272.952 C408.52,271.128 407.448,269 407.384,266.568 L407.384,266.568 L439.448,266.568 L439.448,264.264 C439.448,260.488 438.968,257.016 438.008,253.848 C437.048,250.68 435.624,247.96 433.736,245.688 C431.848,243.416 429.528,241.64 426.776,240.36 C424.024,239.08 420.824,238.44 417.176,238.44 C413.528,238.44 410.264,239.096 407.384,240.408 C404.504,241.72 402.072,243.464 400.088,245.64 C398.104,247.816 396.584,250.36 395.528,253.272 C394.472,256.184 393.944,259.208 393.944,262.344 C393.944,265.928 394.504,269.208 395.624,272.184 C396.744,275.16 398.376,277.704 400.52,279.816 C402.664,281.928 405.272,283.576 408.344,284.76 C411.416,285.944 414.872,286.536 418.712,286.536 Z M426.392,257.736 L407.384,257.736 C407.384,256.776 407.592,255.8 408.008,254.808 C408.424,253.816 409.032,252.904 409.832,252.072 C410.632,251.24 411.64,250.552 412.856,250.008 C414.072,249.464 415.48,249.192 417.08,249.192 C418.68,249.192 420.056,249.464 421.208,250.008 C422.36,250.552 423.32,251.24 424.088,252.072 C424.856,252.904 425.432,253.816 425.816,254.808 C426.2,255.8 426.392,256.776 426.392,257.736 L426.392,257.736 Z" fill="#FFFFFF" fill-rule="nonzero"></path>
    </g>
</svg>