<svg width="500" height="500" viewBox="0 0 500 500" version="1.1" xmlns="http://www.w3.org/2000/svg" xmlns:xlink="http://www.w3.org/1999/xlink"><defs><path d="M80,235 L93,235 L93,285 L80,285 L80,235 Z M79,222 C79,220.140087 79.6044116,218.466191 80.6470588,217 C82.0220944,215.69323 83.6947684,215 85.5882353,215 C87.9678822,215 89.6967805,215.69323 91.3529412,217 C92.339364,218.466191 93,220.140087 93,222 C93,224.062812 92.339364,225.702892 91.3529412,227 C89.6967805,228.340586 87.9678822,229 85.5882353,229 C83.6947684,229 82.0220944,228.340586 80.6470588,227 C79.6044116,225.702892 79,224.062812 79,222 Z M137,286 L137,257 C136.880734,253.154324 136.292055,250.18677 135,248 C133.937303,246.544738 131.935794,245.634241 129,246 C126.620783,245.634241 124.518357,246.359266 123,248 C121.087147,249.259411 119.859331,251.063543 119,253 L119,286 L106,286 L106,235 L116,235 L118,242 L118,242 C119.859335,239.935138 121.911302,238.046693 124,236 C127.024478,234.80933 130.321081,234 134,234 C136.847107,234 139.067269,234.337221 141,235 C142.969429,235.686125 144.61773,236.798955 146,238 C147.308875,239.901434 148.318039,242.009066 149,245 C149.663612,247.337238 150,250.625143 150,255 L150,286 L137,286 Z M181,272 C180.96477,270.404034 180.396573,269.333337 179,269 C178.123752,267.727269 176.719972,266.991165 175,266 C173.377589,265.652774 171.539305,264.96686 170,264 C167.528445,263.56155 165.690162,262.591231 164,261 C162.347778,260.115208 160.943998,258.542623 160,257 C158.671178,254.72821 158.102981,252.268954 158,249 C158.102981,244.305531 159.573608,240.524634 163,238 C165.456203,235.304911 169.700966,234 175,234 C179.05964,234 182.502243,234.401511 186,235 C188.652229,236.007576 191.058709,236.91098 193,238 L190,247 C188.351392,246.748103 186.412839,246.112377 184,245 C181.733502,244.773987 179.360446,244.439394 177,244 C173.076765,244.439394 171.138211,245.945061 171,249 C171.138211,250.160991 171.706408,251.131309 173,252 C173.979229,252.603539 175.383009,253.289454 177,254 C178.725392,254.560925 180.563676,255.24684 183,256 C184.574536,256.719069 186.412819,257.672658 188,259 C189.755203,260.014842 191.158983,261.537238 192,263 C193.431803,265.284732 194,267.693798 194,271 C194,275.724142 192.378968,279.722523 189,283 C185.894744,285.544522 181.031649,287 175,287 C171.004499,287 167.678877,286.5483 165,286 C161.462044,284.741473 158.938582,283.6875 157,282 L161,273 C162.147252,273.616166 164.186076,274.469377 167,275 C169.266499,276.142365 171.873519,276.560606 175,277 C176.486008,276.560606 178.040193,276.192554 179,275 C180.379861,274.720325 180.96477,273.482332 181,272 Z M197,235 L204,235 L204,226 L217,222 L217,235 L229,235 L229,246 L217,246 L217,266 C216.958702,269.129216 217.309731,271.631775 218,273 C218.713868,274.655046 220.034405,275.410853 222,275 C223.310724,275.410853 224.464105,275.276487 225,275 C226.403151,274.739017 227.489669,274.33592 229,274 L231,284 C229.194681,284.749358 227.088508,285.488372 225,286 C222.274324,286.697677 219.833837,287 217,287 C212.74629,287 209.35301,285.807505 207,283 C205.006872,281.037456 203.920354,277.124058 204,272 L204,246 L197,246 L197,235 Z M238,235 L251,235 L251,285 L238,285 L238,235 Z M237,222 C237,220.140087 237.604412,218.466191 238.647059,217 C240.022094,215.69323 241.694768,215 243.588235,215 C245.967882,215 247.696781,215.69323 249.352941,217 C250.339364,218.466191 251,220.140087 251,222 C251,224.062812 250.339364,225.702892 249.352941,227 C247.696781,228.340586 245.967882,229 243.588235,229 C241.694768,229 240.022094,228.340586 238.647059,227 C237.604412,225.702892 237,224.062812 237,222 Z M259,235 L266,235 L266,226 L279,222 L279,235 L291,235 L291,246 L279,246 L279,266 C278.958702,269.129216 279.309731,271.631775 280,273 C280.713868,274.655046 282.034405,275.410853 284,275 C285.310724,275.410853 286.464105,275.276487 287,275 C288.403151,274.739017 289.489669,274.33592 291,274 L293,284 C291.194681,284.749358 289.088508,285.488372 287,286 C284.274324,286.697677 281.833837,287 279,287 C274.74629,287 271.35301,285.807505 269,283 C267.006872,281.037456 265.920354,277.124058 266,272 L266,246 L259,246 L259,235 Z M311,235 L311,264 C310.853933,267.845676 311.33183,270.81322 312,273 C313.24345,274.455253 315.105604,275.365759 318,275 C320.313121,275.365759 322.340067,274.623873 324,273 C325.570046,271.656283 326.77303,269.83529 328,268 L328,235 L340,235 L340,270 C340.417978,272.971479 340.549811,275.686109 341,278 C341.077155,281.014281 341.472657,283.425411 342,286 L332,286 L330,278 L330,278 C328.124337,280.660194 326.014995,282.784687 323,284 C320.609724,286.156947 317.412753,287 314,287 C311.216467,287 308.975291,286.662779 307,286 C305.020215,285.313875 303.372291,284.201045 302,283 C300.735574,281.098566 299.730341,279.007795 299,276 C298.346064,273.747069 298,270.442303 298,266 L298,235 L311,235 Z M347,235 L354,235 L354,226 L367,222 L367,235 L379,235 L379,246 L367,246 L367,266 C366.958702,269.129216 367.309731,271.631775 368,273 C368.713868,274.655046 370.034405,275.410853 372,275 C373.310724,275.410853 374.464105,275.276487 375,275 C376.403151,274.739017 377.489669,274.33592 379,274 L381,284 C379.194681,284.749358 377.088508,285.488372 375,286 C372.274324,286.697677 369.833837,287 367,287 C362.74629,287 359.35301,285.807505 357,283 C355.006872,281.037456 353.920354,277.124058 354,272 L354,246 L347,246 L347,235 Z M427,281 C425.39999,282.884478 422.68335,284.239578 419,285 C415.81665,286.447922 412.166686,287 408,287 C400.233293,287 394.333352,284.641122 391,280 C386.866648,275.205469 385,268.731102 385,261 C385,251.666623 387.099979,245.041689 391,241 C395.500021,236.208311 401.399962,234 409,234 C411.533346,234 413.999988,234.334593 416,235 C418.800012,235.672983 420.933324,236.777139 423,238 C424.666676,239.855437 426.166661,241.929911 427,245 C428.433339,247.149634 429,250.395183 429,254 C429,255.681825 428.916668,257.187492 429,259 C428.583332,260.399629 428.333335,262.072592 428,264 L398,264 C398.200001,268.02843 399.283324,271.20706 401,273 C403.216676,275.48991 406.399978,276.560606 411,277 C413.533347,276.560606 415.983322,276.142365 418,275 C420.316677,274.469377 421.966661,273.616166 423,273 L427,281 Z M409,244 C405.227295,244 402.665527,244.998502 401,247 C399.340268,248.99257 398.339312,251.660698 398,255 L417,255 C417.204972,251.464268 416.645115,248.747033 415,247 C413.862756,244.949395 411.674225,244 409,244 Z" id="a"/></defs><g fill="none" fill-rule="evenodd"><rect stroke="#FFF" stroke-width="3" transform="translate(249.500000, 309.500000) rotate(-270.000000) translate(-249.500000, -309.500000)" x="245.5" y="178.5" width="8" height="262" rx="4"/><rect stroke="#FFF" stroke-width="3" transform="translate(250.500000, 326.500000) rotate(-270.000000) translate(-250.500000, -326.500000)" x="246.5" y="176.5" width="8" height="300" rx="4"/><path d="M252.231765,122.831744 L374.164275,181.394311 C376.155642,182.350738 376.994626,184.740398 376.038199,186.731765 C375.372328,188.118167 373.970528,189 372.43251,189 L128.56749,189 C126.358351,189 124.56749,187.209139 124.56749,185 C124.56749,183.461983 125.449322,182.060182 126.835725,181.394311 L248.768235,122.831744 C249.86289,122.305995 251.13711,122.305995 252.231765,122.831744 Z" stroke="#FFF" stroke-width="3"/><rect stroke="#FFF" stroke-width="3" transform="translate(250.500000, 200.500000) rotate(-270.000000) translate(-250.500000, -200.500000)" x="246.5" y="69.5" width="8" height="262" rx="4"/><use fill="#FFF" fill-rule="nonzero" xlink:href="#a"/></g></svg>