<svg width="500" height="500" viewBox="0 0 500 500" fill="none" xmlns="http://www.w3.org/2000/svg">
<g id="institute">
<rect id="Rectangle Copy 4" x="386" y="304" width="11" height="265" rx="4" transform="rotate(90 386 304)" stroke="#870AF3" stroke-width="2"/>
<rect id="Rectangle Copy 6" x="405" y="321" width="11" height="303" rx="4" transform="rotate(90 405 321)" stroke="#870AF3" stroke-width="2"/>
<path id="Triangle" fill-rule="evenodd" clip-rule="evenodd" d="M251.768 122.832C252.863 122.306 254.137 122.306 255.232 122.832L377.164 181.394C381 183.237 379.688 189 375.433 189H131.568C127.312 189 126 183.237 129.836 181.394L251.768 122.832Z" stroke="#870AF3" stroke-width="2"/>
<rect id="Rectangle Copy 5" x="386" y="195" width="11" height="265" rx="4" transform="rotate(90 386 195)" stroke="#870AF3" stroke-width="2"/>
<path id="institute_2" fill-rule="evenodd" clip-rule="evenodd" d="M82.776 220.968V233.352H67.992V220.968H82.776ZM82.296 239.976V285H68.472V239.976H82.296ZM107.68 285V260.808C107.68 259.464 107.872 258.2 108.256 257.016C108.64 255.832 109.216 254.792 109.984 253.896C110.752 253 111.712 252.28 112.864 251.736C114.016 251.192 115.36 250.92 116.896 250.92C119.136 250.92 120.88 251.656 122.128 253.128C123.376 254.6 124 256.584 124 259.08V285H137.824V257.16C137.824 251.144 136.304 246.6 133.264 243.528C130.224 240.456 126.112 238.92 120.928 238.92C118.304 238.92 115.792 239.464 113.392 240.552C110.992 241.64 109.056 243.08 107.584 244.872L107.2 239.976H93.952V285H107.68ZM174.104 285.672C171.704 286.248 169.256 286.536 166.76 286.536C162.728 286.536 158.92 285.992 155.336 284.904C151.752 283.816 148.84 282.152 146.6 279.912L153.416 271.08C154.888 272.424 156.824 273.544 159.224 274.44C161.624 275.336 163.944 275.784 166.184 275.784C168.232 275.784 169.928 275.528 171.272 275.016C172.616 274.504 173.288 273.512 173.288 272.04C173.288 271.464 173.144 270.936 172.856 270.456C172.568 269.976 172.04 269.528 171.272 269.112C170.504 268.696 169.432 268.264 168.056 267.816C166.68 267.368 164.936 266.856 162.824 266.28C161.096 265.832 159.384 265.24 157.688 264.504C155.992 263.768 154.488 262.856 153.176 261.768C151.864 260.68 150.808 259.368 150.008 257.832C149.208 256.296 148.808 254.504 148.808 252.456C148.808 250.344 149.288 248.44 150.248 246.744C151.208 245.048 152.536 243.576 154.232 242.328C155.928 241.08 157.944 240.12 160.28 239.448C162.616 238.776 165.128 238.44 167.816 238.44C171.656 238.44 175.016 238.872 177.896 239.736C180.776 240.6 183.432 241.864 185.864 243.528L180.008 252.648C178.536 251.688 176.856 250.824 174.968 250.056C173.08 249.288 170.952 248.904 168.584 248.904C166.472 248.904 164.936 249.208 163.976 249.816C163.016 250.424 162.536 251.24 162.536 252.264C162.536 253.736 163.528 254.824 165.512 255.528C167.496 256.232 170.184 257.032 173.576 257.928C178.184 259.208 181.528 260.968 183.608 263.208C185.688 265.448 186.728 268.424 186.728 272.136C186.728 274.632 186.168 276.776 185.048 278.568C183.928 280.36 182.424 281.848 180.536 283.032C178.648 284.216 176.504 285.096 174.104 285.672ZM215.568 286.632C220.688 286.632 225.424 284.904 229.776 281.448L224.208 273C223.312 273.64 222.352 274.2 221.328 274.68C220.304 275.16 219.088 275.4 217.68 275.4C215.824 275.4 214.464 274.808 213.6 273.624C212.736 272.44 212.304 270.76 212.304 268.584V250.824H223.92V239.976H212.304V225.192H198.48V239.976H191.376V250.824H198.48V267.816C198.48 270.632 198.768 273.192 199.344 275.496C199.92 277.8 200.88 279.768 202.224 281.4C203.568 283.032 205.328 284.312 207.504 285.24C209.68 286.168 212.368 286.632 215.568 286.632ZM250.936 220.968V233.352H236.152V220.968H250.936ZM250.456 285V239.976H236.632V285H250.456ZM296.672 281.448C292.32 284.904 287.584 286.632 282.464 286.632C279.264 286.632 276.576 286.168 274.4 285.24C272.224 284.312 270.464 283.032 269.12 281.4C267.776 279.768 266.816 277.8 266.24 275.496C265.664 273.192 265.376 270.632 265.376 267.816V250.824H258.272V239.976H265.376V225.192H279.2V239.976H290.816V250.824H279.2V268.584C279.2 270.76 279.632 272.44 280.496 273.624C281.36 274.808 282.72 275.4 284.576 275.4C285.984 275.4 287.2 275.16 288.224 274.68C289.248 274.2 290.208 273.64 291.104 273L296.672 281.448ZM318.792 286.152C321.416 286.152 323.928 285.592 326.328 284.472C328.728 283.352 330.664 281.928 332.136 280.2L332.52 285H345.768V239.976H332.04V264.264C332.04 265.544 331.848 266.792 331.464 268.008C331.08 269.224 330.504 270.28 329.736 271.176C328.968 272.072 328.04 272.792 326.952 273.336C325.864 273.88 324.616 274.152 323.208 274.152C320.776 274.152 318.936 273.416 317.688 271.944C316.44 270.472 315.816 268.456 315.816 265.896V239.976H301.992V267.912C301.992 273.928 303.496 278.472 306.504 281.544C309.512 284.616 313.608 286.152 318.792 286.152ZM391.696 281.448C387.344 284.904 382.608 286.632 377.488 286.632C374.288 286.632 371.6 286.168 369.424 285.24C367.248 284.312 365.488 283.032 364.144 281.4C362.8 279.768 361.84 277.8 361.264 275.496C360.688 273.192 360.4 270.632 360.4 267.816V250.824H353.296V239.976H360.4V225.192H374.224V239.976H385.84V250.824H374.224V268.584C374.224 270.76 374.656 272.44 375.52 273.624C376.384 274.808 377.744 275.4 379.6 275.4C381.008 275.4 382.224 275.16 383.248 274.68C384.272 274.2 385.232 273.64 386.128 273L391.696 281.448ZM418.712 286.536C421.592 286.536 424.152 286.264 426.392 285.72C428.632 285.176 430.568 284.552 432.2 283.848C433.832 283.144 435.16 282.424 436.184 281.688C437.208 280.952 437.976 280.424 438.488 280.104L432.824 271.368C431.8 272.136 430.168 273.048 427.928 274.104C425.688 275.16 422.776 275.688 419.192 275.688C415.544 275.688 412.68 274.776 410.6 272.952C408.52 271.128 407.448 269 407.384 266.568H439.448V264.264C439.448 260.488 438.968 257.016 438.008 253.848C437.048 250.68 435.624 247.96 433.736 245.688C431.848 243.416 429.528 241.64 426.776 240.36C424.024 239.08 420.824 238.44 417.176 238.44C413.528 238.44 410.264 239.096 407.384 240.408C404.504 241.72 402.072 243.464 400.088 245.64C398.104 247.816 396.584 250.36 395.528 253.272C394.472 256.184 393.944 259.208 393.944 262.344C393.944 265.928 394.504 269.208 395.624 272.184C396.744 275.16 398.376 277.704 400.52 279.816C402.664 281.928 405.272 283.576 408.344 284.76C411.416 285.944 414.872 286.536 418.712 286.536ZM407.384 257.736H426.392C426.392 256.776 426.2 255.8 425.816 254.808C425.432 253.816 424.856 252.904 424.088 252.072C423.32 251.24 422.36 250.552 421.208 250.008C420.056 249.464 418.68 249.192 417.08 249.192C415.48 249.192 414.072 249.464 412.856 250.008C411.64 250.552 410.632 251.24 409.832 252.072C409.032 252.904 408.424 253.816 408.008 254.808C407.592 255.8 407.384 256.776 407.384 257.736Z" fill="#870AF3"/>
</g>
</svg>
