<?xml version="1.0" encoding="UTF-8"?>
<svg width="500px" height="500px" viewBox="0 0 500 500" version="1.1" xmlns="http://www.w3.org/2000/svg" xmlns:xlink="http://www.w3.org/1999/xlink">
    <title>knowhere</title>
    <g id="knowhere" stroke="none" stroke-width="1" fill="none" fill-rule="evenodd">
        <path d="M49.1757812,216.787109 L49.1757812,285 L37.1640625,285 L37.1640625,216.787109 L49.1757812,216.787109 Z M82.28125,239.394531 L63.7753906,261.904297 L84.5761719,285 L69.3417969,285 L49.3710938,261.904297 L68.1699219,239.394531 L82.28125,239.394531 Z M115.386719,238.515625 C120.269556,238.515625 124.167629,240.118799 127.081055,243.325195 C129.994481,246.531592 131.451172,250.755182 131.451172,255.996094 L131.451172,285 L119.488281,285 L119.488281,257.216797 C119.488281,254.254542 118.780281,251.910816 117.364258,250.185547 C115.948235,248.460278 114.019543,247.597656 111.578125,247.597656 C109.722647,247.597656 107.981128,248.142898 106.353516,249.233398 C104.725903,250.323899 102.935557,252.138659 100.982422,254.677734 L100.982422,285 L88.9707031,285 L88.9707031,239.394531 L100.982422,239.394531 L100.982422,245.791016 C103.195975,243.186836 105.46646,241.323248 107.793945,240.200195 C110.121431,239.077143 112.65233,238.515625 115.386719,238.515625 Z M165.679688,238.515625 C170.432315,238.515625 174.745423,239.508454 178.619141,241.494141 C182.492858,243.479828 185.48762,246.263003 187.603516,249.84375 C189.719412,253.424497 190.777344,257.477191 190.777344,262.001953 C190.777344,266.722029 189.760101,270.856102 187.725586,274.404297 C185.691071,277.952492 182.696309,280.751943 178.741211,282.802734 C174.786113,284.853526 170.432315,285.878906 165.679688,285.878906 C160.894507,285.878906 156.548848,284.853526 152.642578,282.802734 C148.736309,280.751943 145.765961,277.952492 143.731445,274.404297 C141.69693,270.856102 140.679688,266.722029 140.679688,262.001953 C140.679688,257.412086 141.753896,253.334979 143.902344,249.770508 C146.050792,246.206037 149.045554,243.439137 152.886719,241.469727 C156.727884,239.500316 160.992164,238.515625 165.679688,238.515625 Z M153.277344,262.001953 C153.277344,266.559268 154.392241,270.196927 156.62207,272.915039 C158.851899,275.633152 161.838523,276.992188 165.582031,276.992188 C169.488301,276.992188 172.564442,275.690117 174.810547,273.085938 C177.056652,270.481758 178.179688,266.754582 178.179688,261.904297 C178.179688,257.281878 177.048514,253.709323 174.786133,251.186523 C172.523752,248.663724 169.455749,247.402344 165.582031,247.402344 C161.93618,247.402344 158.97397,248.736966 156.695312,251.40625 C154.416655,254.075534 153.277344,257.6074 153.277344,262.001953 Z M206.890625,239.394531 L217.486328,265.712891 L228.277344,239.394531 L236.089844,239.394531 L246.783203,265.712891 L257.378906,239.394531 L269.878906,239.394531 L249.566406,285.878906 L244.488281,285.878906 L232.183594,257.998047 L219.878906,285.878906 L214.898438,285.878906 L194.390625,239.394531 L206.890625,239.394531 Z M287.896484,216.787109 L287.896484,245.791016 L288.189453,245.791016 C292.06317,240.940731 296.734348,238.515625 302.203125,238.515625 C307.05341,238.515625 310.959621,240.110661 313.921875,243.300781 C316.884129,246.490901 318.365234,250.657526 318.365234,255.800781 L318.365234,285 L306.402344,285 L306.402344,258.095703 C306.402344,255.035792 305.678067,252.602548 304.229492,250.795898 C302.780917,248.989249 300.803398,248.085938 298.296875,248.085938 C296.473949,248.085938 294.756844,248.606766 293.145508,249.648438 C291.534172,250.690109 289.784515,252.415353 287.896484,254.824219 L287.896484,285 L275.884766,285 L275.884766,216.787109 L287.896484,216.787109 Z M350.396484,238.515625 C357.102247,238.515625 362.408184,240.664041 366.314453,244.960938 C370.220723,249.257834 372.173828,255.19853 372.173828,262.783203 L372.173828,264.589844 L339.898438,264.589844 C340.386721,268.658875 341.908516,271.791981 344.463867,273.989258 C347.019219,276.186534 350.52667,277.285156 354.986328,277.285156 C357.850926,277.285156 360.609687,276.788742 363.262695,275.795898 C365.915703,274.803055 368.658189,273.297536 371.490234,271.279297 L371.490234,280.214844 C366.151666,283.990904 359.673866,285.878906 352.056641,285.878906 C344.862594,285.878906 338.987002,283.714214 334.429688,279.384766 C329.872373,275.055317 327.59375,269.293656 327.59375,262.099609 C327.59375,255.165981 329.701476,249.501975 333.916992,245.107422 C338.132508,240.712869 343.625617,238.515625 350.396484,238.515625 Z M360.894531,257.314453 C360.569009,253.994124 359.559904,251.398121 357.867188,249.526367 C356.174471,247.654613 353.84702,246.71875 350.884766,246.71875 C347.857407,246.71875 345.424163,247.613923 343.584961,249.404297 C341.745759,251.19467 340.582034,253.831363 340.09375,257.314453 L360.894531,257.314453 Z M443.804688,238.515625 C450.51045,238.515625 455.816387,240.664041 459.722656,244.960938 C463.628926,249.257834 465.582031,255.19853 465.582031,262.783203 L465.582031,264.589844 L433.306641,264.589844 C433.794924,268.658875 435.316719,271.791981 437.87207,273.989258 C440.427422,276.186534 443.934874,277.285156 448.394531,277.285156 C451.259129,277.285156 454.01789,276.788742 456.670898,275.795898 C459.323906,274.803055 462.066392,273.297536 464.898438,271.279297 L464.898438,280.214844 C459.559869,283.990904 453.082069,285.878906 445.464844,285.878906 C438.270797,285.878906 432.395205,283.714214 427.837891,279.384766 C423.280576,275.055317 421.001953,269.293656 421.001953,262.099609 C421.001953,255.165981 423.109679,249.501975 427.325195,245.107422 C431.540711,240.712869 437.03382,238.515625 443.804688,238.515625 Z M407.671875,238.515625 C409.266935,238.515625 410.837557,238.873694 412.383789,239.589844 C413.930021,240.305993 415.728505,241.510408 417.779297,243.203125 L413.482422,253.701172 C409.999332,251.096992 407.19988,249.794922 405.083984,249.794922 C403.228506,249.794922 401.39747,250.486647 399.59082,251.870117 C397.784171,253.253588 396.335617,255.084624 395.245117,257.363281 C394.154617,259.641938 393.609375,261.920562 393.609375,264.199219 L393.609375,285 L381.597656,285 L381.597656,239.394531 L393.609375,239.394531 L393.609375,251.015625 L393.804688,251.015625 C395.985688,246.621072 398.182932,243.439137 400.396484,241.469727 C402.610037,239.500316 405.035143,238.515625 407.671875,238.515625 Z M444.292969,246.71875 C441.26561,246.71875 438.832366,247.613923 436.993164,249.404297 C435.153962,251.19467 433.990237,253.831363 433.501953,257.314453 L433.501953,257.314453 L454.302734,257.314453 C453.977212,253.994124 452.968107,251.398121 451.275391,249.526367 C449.582674,247.654613 447.255223,246.71875 444.292969,246.71875 Z" fill="#00371A" fill-rule="nonzero"></path>
        <path d="M205.138184,301.58252 L205.138184,304.693848 L199.297852,304.693848 L199.297852,308.662109 L199.640625,308.635742 L199.91748,308.635742 C201.042486,308.635742 202.062007,308.879636 202.976074,309.367432 C203.890141,309.855227 204.604245,310.53857 205.118408,311.41748 C205.632571,312.296391 205.889648,313.285151 205.889648,314.383789 C205.889648,316.115243 205.307379,317.523676 204.142822,318.609131 C202.978266,319.694586 201.446787,320.237305 199.54834,320.237305 C197.860831,320.237305 196.366706,319.89014 195.065918,319.195801 L195.065918,316.11084 C196.437019,316.954594 197.75097,317.376465 199.007812,317.376465 C199.992192,317.376465 200.813962,317.101809 201.473145,316.55249 C202.132328,316.003171 202.461914,315.306645 202.461914,314.462891 C202.461914,313.513667 202.083988,312.773196 201.328125,312.241455 C200.572262,311.709714 199.543952,311.443848 198.243164,311.443848 C197.627927,311.443848 196.946781,311.522948 196.199707,311.681152 L196.199707,301.58252 L205.138184,301.58252 Z M219.112793,301.345215 L219.112793,312.089844 L220.681641,312.089844 L220.681641,314.79248 L219.112793,314.79248 L219.112793,320 L215.737793,320 L215.737793,314.79248 L208.209961,314.79248 L208.209961,312.630371 L217.174805,301.345215 L219.112793,301.345215 Z M215.658691,306.935059 L211.584961,312.089844 L215.737793,312.089844 L215.737793,306.935059 L215.658691,306.935059 Z M225.322266,316.189941 C225.858401,316.189941 226.330809,316.387693 226.739502,316.783203 C227.148195,317.178713 227.352539,317.657712 227.352539,318.220215 C227.352539,318.765139 227.154787,319.237547 226.759277,319.637451 C226.363768,320.037356 225.884768,320.237305 225.322266,320.237305 C224.768552,320.237305 224.29175,320.037356 223.891846,319.637451 C223.491941,319.237547 223.291992,318.765139 223.291992,318.220215 C223.291992,317.657712 223.494139,317.178713 223.898438,316.783203 C224.302736,316.387693 224.777341,316.189941 225.322266,316.189941 Z M235.697754,301.345215 C236.857916,301.345215 237.899409,301.617673 238.822266,302.162598 C239.745122,302.707522 240.457029,303.47436 240.958008,304.463135 C241.458987,305.451909 241.709473,306.587884 241.709473,307.871094 C241.709473,309.804697 241.122809,311.892079 239.949463,314.133301 C238.776117,316.374523 237.213877,318.409171 235.262695,320.237305 L231.241699,320.237305 C232.287603,319.332027 233.395014,318.099373 234.563965,316.539307 C235.732916,314.97924 236.55908,313.605963 237.04248,312.419434 C236.383297,312.700685 235.68018,312.841309 234.933105,312.841309 C233.474114,312.841309 232.267827,312.320562 231.314209,311.279053 C230.360591,310.237544 229.883789,308.903817 229.883789,307.277832 C229.883789,306.205561 230.134275,305.214604 230.635254,304.304932 C231.136233,303.395259 231.834956,302.674563 232.731445,302.142822 C233.627934,301.611081 234.616694,301.345215 235.697754,301.345215 Z M233.232422,307.225098 C233.232422,308.042485 233.46533,308.714841 233.931152,309.242188 C234.396975,309.769534 235.012203,310.033203 235.776855,310.033203 C236.497562,310.033203 237.095212,309.767337 237.569824,309.235596 C238.044436,308.703855 238.281738,308.068851 238.281738,307.330566 C238.281738,306.451656 238.042239,305.737552 237.563232,305.188232 C237.084226,304.638913 236.462406,304.364258 235.697754,304.364258 C234.959469,304.364258 234.364016,304.627927 233.911377,305.155273 C233.458738,305.68262 233.232422,306.372554 233.232422,307.225098 Z M256.501465,301.58252 L256.501465,301.687988 L249.079102,320.237305 L245.967773,319.077148 L251.781738,304.746582 L244.438477,304.746582 L244.438477,301.58252 L256.501465,301.58252 Z M264.306152,301.345215 C265.949715,301.345215 267.292231,301.824214 268.33374,302.782227 C269.375249,303.740239 269.895996,304.979485 269.895996,306.5 C269.895996,308.161141 269.140144,309.466304 267.628418,310.415527 C268.577641,310.916506 269.263181,311.536129 269.685059,312.274414 C270.106936,313.012699 270.317871,313.878413 270.317871,314.871582 C270.317871,315.891118 270.058596,316.811763 269.540039,317.633545 C269.021482,318.455326 268.300786,319.094724 267.37793,319.551758 C266.455074,320.008791 265.431158,320.237305 264.306152,320.237305 C262.548331,320.237305 261.100347,319.736333 259.962158,318.734375 C258.823969,317.732417 258.254883,316.444832 258.254883,314.871582 C258.254883,313.825678 258.479002,312.940189 258.927246,312.215088 C259.375491,311.489987 260.052242,310.890139 260.95752,310.415527 C259.445793,309.457515 258.689941,308.143563 258.689941,306.473633 C258.689941,304.961907 259.215083,303.729253 260.265381,302.775635 C261.315679,301.822017 262.662589,301.345215 264.306152,301.345215 Z M262.064941,306.552734 C262.064941,307.343754 262.275877,307.991941 262.697754,308.497314 C263.119631,309.002688 263.655758,309.255371 264.306152,309.255371 C264.938968,309.255371 265.466306,308.993899 265.888184,308.470947 C266.310061,307.947995 266.520996,307.308598 266.520996,306.552734 C266.520996,305.752926 266.321047,305.12012 265.921143,304.654297 C265.521238,304.188474 264.982914,303.955566 264.306152,303.955566 C263.620602,303.955566 263.075686,304.18408 262.671387,304.641113 C262.267088,305.098147 262.064941,305.735347 262.064941,306.552734 Z M261.682617,314.713379 C261.682617,315.618657 261.91992,316.330564 262.394531,316.849121 C262.869143,317.367678 263.506344,317.626953 264.306152,317.626953 C265.105961,317.626953 265.73657,317.365481 266.197998,316.842529 C266.659426,316.319577 266.890137,315.627446 266.890137,314.766113 C266.890137,313.904781 266.652834,313.197268 266.178223,312.643555 C265.703611,312.089841 265.088383,311.812988 264.33252,311.812988 C263.5415,311.812988 262.902102,312.07446 262.414307,312.597412 C261.926511,313.120364 261.682617,313.825679 261.682617,314.713379 Z M277.397461,301.345215 C279.102548,301.345215 280.478022,301.769283 281.523926,302.617432 C282.569829,303.46558 283.092773,304.588372 283.092773,305.98584 C283.092773,307.875498 282.235848,309.281734 280.521973,310.20459 C281.506353,310.556154 282.249021,311.129635 282.75,311.925049 C283.250979,312.720463 283.501465,313.667475 283.501465,314.766113 C283.501465,316.400887 282.930181,317.721431 281.787598,318.727783 C280.645014,319.734136 279.142099,320.237305 277.278809,320.237305 C275.811028,320.237305 274.400397,319.89014 273.046875,319.195801 L273.046875,315.952637 C273.793949,316.453616 274.479489,316.816161 275.103516,317.040283 C275.727542,317.264405 276.364743,317.376465 277.015137,317.376465 C277.876469,317.376465 278.581784,317.132571 279.131104,316.644775 C279.680423,316.15698 279.955078,315.521977 279.955078,314.739746 C279.955078,313.878414 279.651859,313.190676 279.04541,312.676514 C278.438962,312.162351 277.608404,311.905273 276.553711,311.905273 L276.342773,311.905273 L276.342773,309.044434 L276.500977,309.044434 C277.485356,309.044434 278.254392,308.826906 278.808105,308.391846 C279.361819,307.956785 279.638672,307.370121 279.638672,306.631836 C279.638672,305.90234 279.370608,305.315676 278.834473,304.871826 C278.298337,304.427976 277.612797,304.206055 276.777832,304.206055 C275.740717,304.206055 274.650885,304.482907 273.508301,305.036621 L273.508301,302.149414 C274.659674,301.613279 275.956047,301.345215 277.397461,301.345215 Z M291.00293,300.343262 C292.08399,300.343262 293.011227,300.732174 293.784668,301.51001 C294.558109,302.287846 294.944824,303.221674 294.944824,304.311523 C294.944824,305.383794 294.562504,306.308834 293.797852,307.08667 C293.033199,307.864506 292.101568,308.253418 291.00293,308.253418 C289.92187,308.253418 288.988041,307.871098 288.201416,307.106445 C287.414791,306.341793 287.021484,305.410162 287.021484,304.311523 C287.021484,303.204096 287.410397,302.265873 288.188232,301.496826 C288.966068,300.727779 289.904291,300.343262 291.00293,300.343262 Z M288.946289,304.311523 C288.946289,304.874026 289.141844,305.353025 289.532959,305.748535 C289.924074,306.144045 290.41406,306.341797 291.00293,306.341797 C291.574222,306.341797 292.053221,306.146242 292.439941,305.755127 C292.826662,305.364012 293.02002,304.882815 293.02002,304.311523 C293.02002,303.731442 292.824465,303.243654 292.43335,302.848145 C292.042234,302.452635 291.565432,302.254883 291.00293,302.254883 C290.449216,302.254883 289.96802,302.457029 289.559326,302.861328 C289.150633,303.265627 288.946289,303.749021 288.946289,304.311523 Z M308.972168,301.58252 L319.914551,314.436523 L319.914551,301.58252 L323.39502,301.58252 L323.39502,320 L320.336426,320 L309.328125,306.935059 L309.328125,320 L305.847656,320 L305.847656,301.58252 L308.972168,301.58252 Z M328.655273,316.387695 C329.358402,316.387695 329.920896,316.644773 330.342773,317.158936 C330.764651,317.673098 330.975586,318.369625 330.975586,319.248535 C330.975586,320.399908 330.593266,321.421626 329.828613,322.313721 C329.063961,323.205815 328.105963,323.748534 326.95459,323.941895 L326.95459,323.243164 C327.798344,322.531246 328.220215,321.60401 328.220215,320.461426 L328.220215,320.263672 L328.193848,320.052734 C327.200679,319.868163 326.704102,319.266118 326.704102,318.246582 C326.704102,317.728025 326.890867,317.288576 327.264404,316.928223 C327.637941,316.567869 328.10156,316.387695 328.655273,316.387695 Z M348.364746,301.58252 L348.364746,320 L344.989746,320 L344.989746,301.58252 L348.364746,301.58252 Z M357.131836,316.189941 C357.667971,316.189941 358.140379,316.387693 358.549072,316.783203 C358.957766,317.178713 359.162109,317.657712 359.162109,318.220215 C359.162109,318.765139 358.964357,319.237547 358.568848,319.637451 C358.173338,320.037356 357.694339,320.237305 357.131836,320.237305 C356.578122,320.237305 356.10132,320.037356 355.701416,319.637451 C355.301512,319.237547 355.101562,318.765139 355.101562,318.220215 C355.101562,317.657712 355.303709,317.178713 355.708008,316.783203 C356.112307,316.387693 356.586911,316.189941 357.131836,316.189941 Z M372.121582,301.345215 C371.137202,302.162602 370.049567,303.371086 368.858643,304.970703 C367.667719,306.57032 366.817385,307.972162 366.307617,309.17627 C366.993167,308.886229 367.696285,308.741211 368.416992,308.741211 C369.366216,308.741211 370.229732,308.98071 371.007568,309.459717 C371.785404,309.938723 372.389646,310.602291 372.820312,311.450439 C373.250979,312.298588 373.466309,313.241206 373.466309,314.27832 C373.466309,315.376959 373.211428,316.383296 372.70166,317.297363 C372.191892,318.21143 371.488774,318.929929 370.592285,319.452881 C369.695796,319.975833 368.72022,320.237305 367.665527,320.237305 C365.87255,320.237305 364.420172,319.633063 363.30835,318.424561 C362.196528,317.216058 361.640625,315.645029 361.640625,313.711426 C361.640625,311.786611 362.2185,309.725597 363.374268,307.52832 C364.530035,305.331044 366.105459,303.270029 368.100586,301.345215 L372.121582,301.345215 Z M365.068359,314.27832 C365.068359,315.130864 365.307859,315.833982 365.786865,316.387695 C366.265872,316.941409 366.883297,317.218262 367.63916,317.218262 C368.377445,317.218262 368.975095,316.95679 369.432129,316.433838 C369.889162,315.910886 370.117676,315.218754 370.117676,314.357422 C370.117676,313.548824 369.882571,312.878665 369.412354,312.346924 C368.942136,311.815183 368.3335,311.549316 367.586426,311.549316 C366.865719,311.549316 366.265872,311.810788 365.786865,312.33374 C365.307859,312.856692 365.068359,313.504879 365.068359,314.27832 Z M383.512207,301.58252 L383.512207,320 L380.137207,320 L380.137207,301.58252 L383.512207,301.58252 Z M402.5625,301.58252 L402.5625,301.687988 L395.140137,320.237305 L392.028809,319.077148 L397.842773,304.746582 L390.499512,304.746582 L390.499512,301.58252 L402.5625,301.58252 Z M410.367188,301.345215 C412.01075,301.345215 413.353266,301.824214 414.394775,302.782227 C415.436285,303.740239 415.957031,304.979485 415.957031,306.5 C415.957031,308.161141 415.201179,309.466304 413.689453,310.415527 C414.638677,310.916506 415.324217,311.536129 415.746094,312.274414 C416.167971,313.012699 416.378906,313.878413 416.378906,314.871582 C416.378906,315.891118 416.119631,316.811763 415.601074,317.633545 C415.082517,318.455326 414.361821,319.094724 413.438965,319.551758 C412.516109,320.008791 411.492193,320.237305 410.367188,320.237305 C408.609366,320.237305 407.161383,319.736333 406.023193,318.734375 C404.885004,317.732417 404.315918,316.444832 404.315918,314.871582 C404.315918,313.825678 404.540037,312.940189 404.988281,312.215088 C405.436526,311.489987 406.113277,310.890139 407.018555,310.415527 C405.506828,309.457515 404.750977,308.143563 404.750977,306.473633 C404.750977,304.961907 405.276118,303.729253 406.326416,302.775635 C407.376714,301.822017 408.723625,301.345215 410.367188,301.345215 Z M408.125977,306.552734 C408.125977,307.343754 408.336912,307.991941 408.758789,308.497314 C409.180666,309.002688 409.716794,309.255371 410.367188,309.255371 C411.000003,309.255371 411.527342,308.993899 411.949219,308.470947 C412.371096,307.947995 412.582031,307.308598 412.582031,306.552734 C412.582031,305.752926 412.382082,305.12012 411.982178,304.654297 C411.582273,304.188474 411.043949,303.955566 410.367188,303.955566 C409.681637,303.955566 409.136721,304.18408 408.732422,304.641113 C408.328123,305.098147 408.125977,305.735347 408.125977,306.552734 Z M407.743652,314.713379 C407.743652,315.618657 407.980955,316.330564 408.455566,316.849121 C408.930178,317.367678 409.567379,317.626953 410.367188,317.626953 C411.166996,317.626953 411.797605,317.365481 412.259033,316.842529 C412.720461,316.319577 412.951172,315.627446 412.951172,314.766113 C412.951172,313.904781 412.71387,313.197268 412.239258,312.643555 C411.764646,312.089841 411.149418,311.812988 410.393555,311.812988 C409.602535,311.812988 408.963137,312.07446 408.475342,312.597412 C407.987546,313.120364 407.743652,313.825679 407.743652,314.713379 Z M422.8125,300.343262 C423.89356,300.343262 424.820797,300.732174 425.594238,301.51001 C426.36768,302.287846 426.754395,303.221674 426.754395,304.311523 C426.754395,305.383794 426.372074,306.308834 425.607422,307.08667 C424.84277,307.864506 423.911138,308.253418 422.8125,308.253418 C421.73144,308.253418 420.797611,307.871098 420.010986,307.106445 C419.224361,306.341793 418.831055,305.410162 418.831055,304.311523 C418.831055,303.204096 419.219967,302.265873 419.997803,301.496826 C420.775639,300.727779 421.713862,300.343262 422.8125,300.343262 Z M420.755859,304.311523 C420.755859,304.874026 420.951414,305.353025 421.342529,305.748535 C421.733645,306.144045 422.22363,306.341797 422.8125,306.341797 C423.383792,306.341797 423.862791,306.146242 424.249512,305.755127 C424.636232,305.364012 424.82959,304.882815 424.82959,304.311523 C424.82959,303.731442 424.634035,303.243654 424.24292,302.848145 C423.851805,302.452635 423.375003,302.254883 422.8125,302.254883 C422.258786,302.254883 421.77759,302.457029 421.368896,302.861328 C420.960203,303.265627 420.755859,303.749021 420.755859,304.311523 Z M439.410645,301.58252 L443.998535,312.946777 L448.82373,301.58252 L451.82959,301.58252 L456.681152,312.986328 L461.255859,301.58252 L464.894531,301.58252 L457.313965,320.237305 L456.114258,320.237305 L450.313477,306.579102 L444.486328,320.237305 L443.326172,320.237305 L435.732422,301.58252 L439.410645,301.58252 Z" id="54.9783°N,1.6178°W" fill="#A3B800" fill-rule="nonzero"></path>
    </g>
</svg>