<svg width="80" height="80" viewBox="0 0 80 80" fill="none" xmlns="http://www.w3.org/2000/svg">
<rect width="80" height="80" rx="16" fill="#7F9C30"/>
<path d="M61.0016 27.7872C66.1344 28.2416 70.608 30.2256 71.8784 35.6352C73.7296 42.6096 66.8832 48.0624 60.4304 48.28C59.7936 48.3232 59.5136 48.4544 59.3984 49.1584C58.5632 54.232 57.672 59.2976 56.7936 64.3648C56.5008 66.0576 55.6672 67.3824 53.9344 67.8032C52.0944 68.2512 50.2192 68.6784 48.3376 68.8224C41.7616 69.2944 35.152 69.0848 28.6656 67.8096C36.4368 68.16 44.1392 67.7952 51.6864 65.7776C51.6912 65.7136 51.696 65.6496 51.7008 65.5856C42.5744 63.1568 33.1504 63.2176 24.0528 65.7728C23.7712 65.84 23.4736 65.8496 23.1824 65.8672C22.648 65.8976 22.3552 65.6992 22.2592 65.1072C21.4624 60.2384 20.6272 55.376 19.8304 50.5056C19.7552 50.048 19.5712 49.8928 19.152 49.7872C8.61282 47.5488 3.80962 34.7408 11.8128 26.912C14.992 23.6032 19.0192 22.0784 23.5568 21.84C23.9776 21.8176 24.1664 21.6656 24.3712 21.3248C33.8784 5.09279 58.2224 8.39679 61.0016 27.7872ZM53.264 63.608C54.1024 58.6912 54.9552 53.8416 55.8064 48.9376C55.8608 48.6272 55.9312 48.3472 55.4992 48.1888C50.0848 46.2096 44.5584 45.5056 38.856 46.664C38.328 46.7712 37.784 46.84 37.2464 46.8432C37.048 46.8448 36.7328 46.6352 36.6848 46.4624C36.6384 46.2992 36.8208 45.9568 36.9936 45.8688C37.528 45.5952 38.0864 45.328 38.6672 45.1936C45.2304 43.6832 51.6912 44.0288 58.0432 46.3088C60.5648 47.2144 62.9808 47.096 65.1504 45.3472C70.9968 40.6784 68.4192 31.3024 61.1504 29.68C61.1504 30.1856 61.1888 30.624 61.144 31.0544C60.976 32.632 60.7856 34.2064 60.592 35.7792C60.52 36.3712 60.1776 36.8224 59.6304 36.9936C58.64 37.2848 56.2928 37.9568 56.7712 36.1104C58.3536 29.5472 56.864 22.2624 51.6832 17.6864C47.5568 13.9648 42.768 12.432 37.2992 14.0464C29.3248 16.3344 24.8384 24.9184 25.3008 32.8688C25.3296 33.4032 25.344 33.9232 24.8848 34.3104C24.192 34.8928 23.3856 35.1376 22.4944 35.0448C21.904 34.984 21.5808 34.6656 21.5392 34.016C21.2816 30.7328 21.8352 27.584 22.8256 24.4688C21.7168 24.3968 20.0224 24.784 18.552 25.4336C4.56802 32.4288 13.9376 51.3904 27.976 47.048C28.52 46.8624 29.1136 46.7632 29.6864 46.744C30.2304 46.7264 30.7328 46.9632 30.8672 47.576C31.0448 48.3824 30.3024 48.9248 29.6288 49.1392C28.664 49.4096 27.704 49.7136 26.7248 49.9104C25.7504 50.1072 24.7552 50.1904 23.7216 50.3296C24.464 54.7664 25.2 59.1712 25.944 63.6176C35.0704 61.28 44.1392 61.5552 53.264 63.608Z" fill="#F9FCF2"/>
</svg>
