<?xml version="1.0" encoding="UTF-8"?>
<svg width="500px" height="500px" viewBox="0 0 500 500" version="1.1" xmlns="http://www.w3.org/2000/svg" xmlns:xlink="http://www.w3.org/1999/xlink">
    <!-- Generator: Sketch 58 (84663) - https://sketch.com -->
    <title>music for students alt</title>
    <desc>Created with Sketch.</desc>
    <g id="music-for-students-alt" stroke="none" stroke-width="1" fill="none" fill-rule="evenodd">
        <path d="M100.65,222 L87.65,222 L87.65,194.8 C87.65,190.199977 87.216671,186.933343 86.35,185 C85.483329,183.066657 83.683347,182.1 80.95,182.1 C78.683322,182.1 76.850007,182.716661 75.45,183.95 C74.049993,185.18334 72.983337,186.766657 72.25,188.7 L72.25,222 L59.25,222 L59.25,172 L69.35,172 L70.85,178.6 L71.25,178.6 C72.783341,176.466656 74.7333215,174.6 77.1,173 C79.4666785,171.399992 82.516648,170.6 86.25,170.6 C89.450016,170.6 92.0666565,171.249994 94.1,172.55 C96.1333435,173.850007 97.716661,176.033318 98.85,179.1 C100.383341,176.499987 102.349988,174.433341 104.75,172.9 C107.150012,171.366659 110.049983,170.6 113.45,170.6 C116.250014,170.6 118.633323,170.93333 120.6,171.6 C122.566676,172.26667 124.16666,173.416659 125.4,175.05 C126.633339,176.683342 127.549997,178.866653 128.15,181.6 C128.75,184.333347 129.05,187.799979 129.05,192 L129.05,222 L116.05,222 L116.05,193.9 C116.05,189.966647 115.633337,187.016677 114.8,185.05 C113.966662,183.083324 112.116681,182.1 109.25,182.1 C106.916655,182.1 105.066673,182.733327 103.7,184 C102.333326,185.266673 101.31667,186.999989 100.65,189.2 L100.65,222 Z M152.25,172 L152.25,200.4 C152.25,204.466687 152.733328,207.399991 153.7,209.2 C154.666671,211 156.549986,211.9 159.35,211.9 C161.816679,211.9 163.866658,211.166674 165.5,209.7 C167.133341,208.233326 168.349996,206.433344 169.15,204.3 L169.15,172 L182.15,172 L182.15,206.8 C182.15,209.533347 182.283332,212.216654 182.55,214.85 C182.816668,217.483347 183.216664,219.866656 183.75,222 L173.95,222 L171.65,214.6 L171.25,214.6 C169.716659,217.133346 167.583347,219.233325 164.85,220.9 C162.116653,222.566675 158.883352,223.4 155.15,223.4 C152.616654,223.4 150.35001,223.06667 148.35,222.4 C146.34999,221.73333 144.68334,220.633341 143.35,219.1 C142.01666,217.566659 141.000003,215.500013 140.3,212.9 C139.599996,210.299987 139.25,207.033353 139.25,203.1 L139.25,172 L152.25,172 Z M214.25,208.2 C214.25,206.86666 213.683339,205.800004 212.55,205 C211.416661,204.199996 210.016675,203.46667 208.35,202.8 C206.683325,202.13333 204.85,201.450004 202.85,200.75 C200.84999,200.049997 199.016675,199.08334 197.35,197.85 C195.683325,196.616661 194.283339,195.05001 193.15,193.15 C192.016661,191.249991 191.45,188.800015 191.45,185.8 C191.45,180.866642 192.916652,177.100013 195.85,174.5 C198.783348,171.899987 203.016639,170.6 208.55,170.6 C212.350019,170.6 215.783318,170.999996 218.85,171.8 C221.916682,172.6 224.316658,173.499995 226.05,174.5 L223.15,183.9 C221.616659,183.299997 219.683345,182.66667 217.35,182 C215.016655,181.33333 212.650012,181 210.25,181 C206.383314,181 204.45,182.499985 204.45,185.5 C204.45,186.700006 205.016661,187.666663 206.15,188.4 C207.283339,189.133337 208.683325,189.816664 210.35,190.45 L212.974999,191.4375 C213.891664,191.779166 214.85,192.133332 215.85,192.5 C217.85,193.233337 219.683325,194.183328 221.35,195.35 C223.016675,196.516673 224.416661,198.033324 225.55,199.9 C226.683339,201.766676 227.25,204.166652 227.25,207.1 C227.25,212.166692 225.633349,216.149986 222.4,219.05 C219.16665,221.950015 214.316699,223.4 207.85,223.4 C204.316649,223.4 201.000015,222.950005 197.9,222.05 C194.799984,221.149996 192.283343,220.1 190.35,218.9 L193.95,209.2 C195.483341,210.066671 197.516654,210.916663 200.05,211.75 C202.583346,212.583338 205.18332,213 207.85,213 C209.783343,213 211.333327,212.633337 212.5,211.9 C213.666672,211.166663 214.25,209.933342 214.25,208.2 Z M236.95,172 L249.95,172 L249.95,222 L236.95,222 L236.95,172 Z M235.05,157.9 C235.05,155.966657 235.766659,154.316674 237.2,152.95 C238.63334,151.583327 240.616654,150.9 243.15,150.9 C245.683346,150.9 247.733325,151.583327 249.3,152.95 C250.866674,154.316674 251.65,155.966657 251.65,157.9 C251.65,159.833343 250.866674,161.449994 249.3,162.75 C247.733325,164.050007 245.683346,164.7 243.15,164.7 C240.616654,164.7 238.63334,164.050007 237.2,162.75 C235.766659,161.449994 235.05,159.833343 235.05,157.9 Z M298.05,218.9 C296.04999,220.366674 293.633348,221.48333 290.8,222.25 C287.966653,223.016671 285.050015,223.4 282.05,223.4 C278.04998,223.4 274.66668,222.766673 271.9,221.5 C269.13332,220.233327 266.883342,218.450012 265.15,216.15 C263.416658,213.849989 262.166671,211.066683 261.4,207.8 C260.63333,204.533317 260.25,200.933353 260.25,197 C260.25,188.533291 262.149981,182.01669 265.95,177.45 C269.750019,172.883311 275.283297,170.6 282.55,170.6 C286.216685,170.6 289.166655,170.899997 291.4,171.5 C293.633345,172.1 295.649991,172.866662 297.45,173.8 L294.35,184.4 C292.816659,183.666663 291.300007,183.1 289.8,182.7 C288.299992,182.299998 286.583343,182.1 284.65,182.1 C281.049982,182.1 278.316676,183.283322 276.45,185.65 C274.583324,188.016679 273.65,191.799974 273.65,197 C273.65,199.133344 273.883331,201.1 274.35,202.9 C274.816669,204.700009 275.516662,206.26666 276.45,207.6 C277.383338,208.93334 278.599993,209.98333 280.1,210.75 C281.600008,211.516671 283.34999,211.9 285.35,211.9 C287.550011,211.9 289.416659,211.61667 290.95,211.05 C292.483341,210.483331 293.849994,209.800004 295.05,209 L298.05,218.9 Z M326.65,172 L333.55,172 L333.55,169.2 C333.55,162.866635 334.88332,158.283348 337.55,155.45 C340.21668,152.616653 344.083308,151.2 349.15,151.2 C354.48336,151.2 358.916649,151.833327 362.45,153.1 L359.95,163.5 C358.416659,162.966664 357.066672,162.616668 355.9,162.45 C354.733327,162.283333 353.516673,162.2 352.25,162.2 C350.91666,162.2 349.86667,162.399998 349.1,162.8 C348.333329,163.2 347.766668,163.816663 347.4,164.65 C347.033331,165.483338 346.8,166.516661 346.7,167.75 C346.599999,168.98334 346.55,170.399992 346.55,172 L357.55,172 L357.55,183 L346.55,183 L346.55,222 L333.55,222 L333.55,183 L326.65,183 L326.65,172 Z M360.95,197 C360.95,188.533291 363.016646,182.01669 367.15,177.45 C371.283354,172.883311 377.083296,170.6 384.55,170.6 C388.55002,170.6 392.016652,171.233327 394.95,172.5 C397.883348,173.766673 400.316657,175.549989 402.25,177.85 C404.183343,180.150012 405.633328,182.933317 406.6,186.2 C407.566671,189.466683 408.05,193.066647 408.05,197 C408.05,205.466709 406.00002,211.983311 401.9,216.55 C397.799979,221.11669 392.016704,223.4 384.55,223.4 C380.54998,223.4 377.083348,222.766673 374.15,221.5 C371.216652,220.233327 368.766676,218.450012 366.8,216.15 C364.833323,213.849989 363.366671,211.066683 362.4,207.8 C361.433328,204.533317 360.95,200.933353 360.95,197 Z M374.35,197 C374.35,199.200011 374.549998,201.233324 374.95,203.1 C375.35,204.966676 375.949996,206.6 376.75,208 C377.550004,209.400007 378.599993,210.48333 379.9,211.25 C381.200006,212.016671 382.749991,212.4 384.55,212.4 C387.950017,212.4 390.483325,211.166679 392.15,208.7 C393.816675,206.233321 394.65,202.33336 394.65,197 C394.65,192.399977 393.883341,188.683348 392.35,185.85 C390.816659,183.016653 388.216685,181.6 384.55,181.6 C381.349984,181.6 378.85,182.799988 377.05,185.2 C375.249991,187.600012 374.35,191.533306 374.35,197 Z M444.65,184.2 C442.583323,183.466663 440.716675,183.1 439.05,183.1 C436.716655,183.1 434.766675,183.716661 433.2,184.95 C431.633326,186.18334 430.583336,187.766657 430.05,189.7 L430.05,222 L417.05,222 L417.05,172 L427.15,172 L428.65,178.6 L429.05,178.6 C430.183339,176.133321 431.716657,174.23334 433.65,172.9 C435.583343,171.56666 437.849987,170.9 440.45,170.9 C442.183342,170.9 444.149989,171.266663 446.35,172 L444.65,184.2 Z M88.8,326.2 C88.8,324.86666 88.233339,323.800004 87.1,323 C85.966661,322.199996 84.566675,321.46667 82.9,320.8 C81.233325,320.13333 79.40001,319.450003 77.4,318.75 C75.39999,318.049997 73.566675,317.083339 71.9,315.85 C70.233325,314.61666 68.833339,313.050009 67.7,311.15 C66.566661,309.24999 66,306.800015 66,303.8 C66,298.866642 67.466652,295.100013 70.4,292.5 C73.333348,289.899987 77.566639,288.6 83.1,288.6 C86.900019,288.6 90.333318,288.999996 93.4,289.8 C96.466682,290.6 98.866658,291.499995 100.6,292.5 L97.7,301.9 C96.166659,301.299997 94.233345,300.66667 91.9,300 C89.566655,299.33333 87.200012,299 84.8,299 C80.933314,299 79,300.499985 79,303.5 C79,304.700006 79.566661,305.666663 80.7,306.4 C81.833339,307.133337 83.233325,307.816664 84.9,308.45 L87.5249994,309.4375 C88.4416637,309.779166 89.4,310.133331 90.4,310.5 C92.40001,311.233337 94.233325,312.183328 95.9,313.35 C97.566675,314.516673 98.966661,316.033324 100.1,317.9 C101.233339,319.766676 101.8,322.166652 101.8,325.1 C101.8,330.166692 100.183349,334.149985 96.95,337.05 C93.7166505,339.950014 88.866699,341.4 82.4,341.4 C78.866649,341.4 75.5500155,340.950004 72.45,340.05 C69.3499845,339.149995 66.833343,338.1 64.9,336.9 L68.5,327.2 C70.033341,328.066671 72.066654,328.916663 74.6,329.75 C77.133346,330.583337 79.73332,331 82.4,331 C84.333343,331 85.8833275,330.633337 87.05,329.9 C88.2166725,329.166663 88.8,327.933342 88.8,326.2 Z M106.1,290 L113,290 L113,280.6 L126,276.9 L126,290 L138.2,290 L138.2,301 L126,301 L126,320.2 C126,323.666684 126.349996,326.149993 127.05,327.65 C127.750003,329.150008 129.066657,329.9 131,329.9 C132.33334,329.9 133.483328,329.766668 134.45,329.5 C135.416671,329.233332 136.499994,328.833336 137.7,328.3 L140,338.3 C138.199991,339.166671 136.100012,339.9 133.7,340.5 C131.299988,341.100003 128.866679,341.4 126.4,341.4 C121.799977,341.4 118.416677,340.216679 116.25,337.85 C114.083322,335.483321 113,331.600027 113,326.2 L113,301 L106.1,301 L106.1,290 Z M159.7,290 L159.7,318.4 C159.7,322.466687 160.183329,325.399991 161.15,327.2 C162.116671,329 163.999986,329.9 166.8,329.9 C169.266679,329.9 171.316659,329.166674 172.95,327.7 C174.583342,326.233326 175.799996,324.433344 176.6,322.3 L176.6,290 L189.6,290 L189.6,324.8 C189.6,327.533347 189.733332,330.216654 190,332.85 C190.266668,335.483347 190.666664,337.866656 191.2,340 L181.4,340 L179.1,332.6 L178.7,332.6 C177.166659,335.133346 175.033347,337.233325 172.3,338.9 C169.566653,340.566675 166.333352,341.4 162.6,341.4 C160.066654,341.4 157.80001,341.06667 155.8,340.4 C153.79999,339.73333 152.13334,338.633341 150.8,337.1 C149.46666,335.566659 148.450003,333.500013 147.75,330.9 C147.049996,328.299987 146.7,325.033353 146.7,321.1 L146.7,290 L159.7,290 Z M244.5,322.4 C244.5,325.200014 244.533333,327.999986 244.6,330.8 C244.666667,333.600014 244.966664,336.699983 245.5,340.1 L236.2,340.1 L234.4,333.6 L234,333.6 C232.66666,335.933345 230.750012,337.81666 228.25,339.25 C225.749987,340.68334 222.800017,341.4 219.4,341.4 C213.133302,341.4 208.266684,339.333354 204.8,335.2 C201.333316,331.066646 199.6,324.600044 199.6,315.8 C199.6,307.266624 201.533314,300.633357 205.4,295.9 C209.266686,291.166643 214.933296,288.8 222.4,288.8 C224.466677,288.8 226.16666,288.916666 227.5,289.15 C228.83334,289.383334 230.16666,289.766664 231.5,290.3 L231.5,270 L244.5,270 L244.5,322.4 Z M222.4,330.4 C224.933346,330.4 226.933326,329.78334 228.4,328.55 C229.866674,327.316661 230.899997,325.533345 231.5,323.2 L231.5,302 C230.566662,301.266663 229.533339,300.716668 228.4,300.35 C227.266661,299.983331 225.800009,299.8 224,299.8 C220.333315,299.8 217.583343,301.033321 215.75,303.5 C213.916657,305.966679 213,310.19997 213,316.2 C213,320.466688 213.749992,323.899987 215.25,326.5 C216.750007,329.100013 219.133317,330.4 222.4,330.4 Z M296.9,335.7 C294.89999,337.300008 292.183351,338.649994 288.75,339.75 C285.31665,340.850005 281.666686,341.4 277.8,341.4 C269.733293,341.4 263.833352,339.050023 260.1,334.35 C256.366648,329.649976 254.5,323.200041 254.5,315 C254.5,306.199956 256.599979,299.600022 260.8,295.2 C265.000021,290.799978 270.899962,288.6 278.5,288.6 C281.033346,288.6 283.499988,288.93333 285.9,289.6 C288.300012,290.26667 290.433324,291.366659 292.3,292.9 C294.166676,294.433341 295.666661,296.499987 296.8,299.1 C297.933339,301.700013 298.5,304.933314 298.5,308.8 C298.5,310.200007 298.416668,311.699992 298.25,313.3 C298.083333,314.900008 297.833335,316.566658 297.5,318.3 L267.5,318.3 C267.700001,322.500021 268.783324,325.666656 270.75,327.8 C272.716677,329.933344 275.899978,331 280.3,331 C283.033347,331 285.483323,330.583337 287.65,329.75 C289.816678,328.916663 291.466661,328.066671 292.6,327.2 L296.9,335.7 Z M278.3,299 C274.899983,299 272.383342,300.016657 270.75,302.05 C269.116658,304.083344 268.133335,306.799983 267.8,310.2 L286.4,310.2 C286.666668,306.599982 286.116673,303.833343 284.75,301.9 C283.383327,299.966657 281.233348,299 278.3,299 Z M339.3,340 L339.3,311.6 C339.3,307.533313 338.716672,304.6 337.55,302.8 C336.383327,300.999991 334.400014,300.1 331.6,300.1 C329.133321,300.1 327.050008,300.81666 325.35,302.25 C323.649991,303.68334 322.433337,305.466656 321.7,307.6 L321.7,340 L308.7,340 L308.7,290 L319,290 L320.5,296.6 L320.9,296.6 C322.433341,294.466656 324.466654,292.6 327,291 C329.533346,289.399992 332.79998,288.6 336.8,288.6 C339.266679,288.6 341.466657,288.93333 343.4,289.6 C345.333343,290.26667 346.96666,291.366659 348.3,292.9 C349.63334,294.433341 350.63333,296.516653 351.3,299.15 C351.96667,301.783346 352.3,305.033314 352.3,308.9 L352.3,340 L339.3,340 Z M359,290 L365.9,290 L365.9,280.6 L378.9,276.9 L378.9,290 L391.1,290 L391.1,301 L378.9,301 L378.9,320.2 C378.9,323.666684 379.249997,326.149993 379.95,327.65 C380.650004,329.150008 381.966657,329.9 383.9,329.9 C385.23334,329.9 386.383329,329.766668 387.35,329.5 C388.316672,329.233332 389.399994,328.833336 390.6,328.3 L392.9,338.3 C391.099991,339.166671 389.000012,339.9 386.6,340.5 C384.199988,341.100003 381.766679,341.4 379.3,341.4 C374.699977,341.4 371.316678,340.216679 369.15,337.85 C366.983323,335.483321 365.9,331.600027 365.9,326.2 L365.9,301 L359,301 L359,290 Z M420.8,326.2 C420.8,324.86666 420.233339,323.800004 419.1,323 C417.966661,322.199996 416.566675,321.46667 414.9,320.8 C413.233325,320.13333 411.4,319.450003 409.4,318.75 C407.4,318.049997 405.566675,317.083339 403.9,315.85 C402.233325,314.61666 400.833339,313.050009 399.7,311.15 C398.566661,309.24999 398,306.800015 398,303.8 C398,298.866642 399.466652,295.100013 402.4,292.5 C405.333348,289.899987 409.566639,288.6 415.1,288.6 C418.900019,288.6 422.333318,288.999996 425.4,289.8 C428.466682,290.6 430.866658,291.499995 432.6,292.5 L429.7,301.9 C428.166659,301.299997 426.233345,300.66667 423.9,300 C421.566655,299.33333 419.200012,299 416.8,299 C412.933314,299 411,300.499985 411,303.5 C411,304.700006 411.566661,305.666663 412.7,306.4 C413.833339,307.133337 415.233325,307.816664 416.9,308.45 L419.524999,309.4375 C420.441664,309.779166 421.4,310.133331 422.4,310.5 C424.40001,311.233337 426.233325,312.183328 427.9,313.35 C429.566675,314.516673 430.966661,316.033324 432.1,317.9 C433.233339,319.766676 433.8,322.166652 433.8,325.1 C433.8,330.166692 432.183349,334.149985 428.95,337.05 C425.71665,339.950014 420.866699,341.4 414.4,341.4 C410.866649,341.4 407.550015,340.950004 404.45,340.05 C401.349984,339.149995 398.833343,338.1 396.9,336.9 L400.5,327.2 C402.033341,328.066671 404.066654,328.916663 406.6,329.75 C409.133346,330.583337 411.73332,331 414.4,331 C416.333343,331 417.883327,330.633337 419.05,329.9 C420.216672,329.166663 420.8,327.933342 420.8,326.2 Z" id="musicforstudents" fill="#FFFC00" fill-rule="nonzero"></path>
    </g>
</svg>