<svg width="500" height="500" viewBox="0 0 500 500" fill="none" xmlns="http://www.w3.org/2000/svg">
<g id="music_for_students">
<g id="Group">
<path id="Vector" d="M247.22 302.551C229.59 302.451 211.34 299.001 193.93 291.461C185.56 287.831 177.72 283.251 170.14 278.171C166.2 275.531 162.74 272.371 159.18 269.291C158.25 268.491 158.05 267.621 158.71 266.511C159.14 265.791 159.48 265.601 160.32 266.041C164.51 268.241 168.69 270.471 172.96 272.491C187.97 279.611 203.66 284.511 220.07 287.211C239.18 290.351 258.28 290.661 277.42 287.701C289.71 285.801 301.7 282.711 313.32 278.251C315.06 277.581 316.77 276.801 318.49 276.071C319.52 275.631 320.52 275.561 321.53 276.171C323.46 277.321 323.69 278.641 322.08 280.211C319.19 283.031 315.64 284.901 312.12 286.781C299.99 293.291 287.07 297.481 273.58 300.081C265.29 301.681 256.95 302.561 247.22 302.551Z" fill="#23A0DB"/>
<path id="Vector_2" d="M151.72 230.601C151.72 225.551 151.76 220.501 151.7 215.461C151.68 214.141 152.23 213.671 153.44 213.681C154.81 213.691 156.18 213.681 157.55 213.671C158.85 213.661 159.96 213.681 160.22 215.461C160.43 216.891 161.55 216.221 162.25 215.821C165.21 214.111 168.34 212.931 171.75 212.651C175.03 212.371 178.14 212.851 180.46 215.491C181.45 216.621 182.32 216.621 183.49 215.821C186.62 213.681 190.16 212.751 193.89 212.591C200.05 212.331 204.15 215.821 204.36 221.971C204.63 230.061 204.47 238.171 204.52 246.271C204.53 247.361 204.04 247.661 203.04 247.641C200.8 247.591 198.55 247.531 196.31 247.621C194.93 247.681 194.65 247.061 194.64 245.861C194.6 239.501 194.51 233.151 194.44 226.791C194.43 226.351 194.44 225.921 194.43 225.481C194.31 220.721 193.24 219.801 188.49 220.331C183.11 220.931 183.1 220.991 183.12 226.311C183.15 232.731 183.06 239.151 183.12 245.571C183.13 247.091 182.67 247.711 181.11 247.641C179.12 247.541 177.12 247.511 175.13 247.621C173.57 247.711 173.07 247.141 173.08 245.601C173.11 239.121 173.05 232.641 173.02 226.151C173.02 225.901 173.02 225.651 173.02 225.401C172.95 220.671 171.93 219.771 167.27 220.361C161.44 221.091 161.55 221.091 161.63 226.991C161.71 233.341 161.54 239.701 161.55 246.061C161.55 247.321 161.06 247.691 159.89 247.641C157.84 247.561 155.77 247.471 153.72 247.561C152.16 247.631 151.66 247.081 151.69 245.551C151.76 240.571 151.72 235.581 151.72 230.591C151.7 230.601 151.71 230.601 151.72 230.601Z" fill="#23A0DB"/>
<path id="Vector_3" d="M260.59 230.671C260.59 225.691 260.63 220.701 260.56 215.721C260.54 214.251 260.89 213.501 262.51 213.591C264.06 213.671 265.62 213.601 267.18 213.561C268.21 213.531 268.82 213.951 268.98 215.011C269.25 216.701 270.13 216.631 271.36 215.861C274.69 213.771 278.27 212.411 282.27 212.521C285.18 212.601 287.83 213.341 289.77 215.691C290.64 216.751 291.46 216.391 292.38 215.831C295.69 213.841 299.21 212.511 303.13 212.521C309.57 212.541 313.13 215.731 313.28 222.141C313.47 230.051 313.31 237.961 313.33 245.881C313.33 247.191 312.91 247.831 311.5 247.771C309.57 247.691 307.63 247.661 305.71 247.771C303.85 247.871 303.44 247.031 303.45 245.331C303.48 238.481 303.42 231.621 303.33 224.771C303.28 221.061 302.26 220.171 298.54 220.331C298.48 220.331 298.42 220.331 298.35 220.341C292.25 220.691 291.94 221.031 291.93 227.061C291.92 233.291 291.87 239.521 291.89 245.751C291.89 247.111 291.53 247.831 289.98 247.751C287.99 247.641 285.99 247.671 284 247.731C282.43 247.781 282.02 247.071 282.02 245.591C282.05 239.051 282.01 232.511 281.94 225.961C281.88 220.581 280.85 219.731 275.52 220.441C270.47 221.111 270.33 221.271 270.33 226.321C270.33 232.741 270.26 239.161 270.33 245.571C270.35 247.291 269.75 247.901 268.07 247.801C266.21 247.681 264.33 247.701 262.46 247.751C261.05 247.791 260.52 247.331 260.55 245.811C260.66 240.771 260.6 235.721 260.59 230.671Z" fill="#293340"/>
<path id="Vector_4" d="M75.76 245.321C75.76 250.361 75.71 255.021 75.79 259.691C75.81 261.101 75.3 261.581 73.96 261.521C71.97 261.441 69.97 261.411 67.98 261.431C66.48 261.451 66 260.851 66 259.311C66.06 246.781 66.03 234.261 66.02 221.731C66.02 219.551 66.08 217.371 66.01 215.191C65.97 214.031 66.45 213.621 67.53 213.631C68.9 213.641 70.27 213.611 71.64 213.561C72.96 213.511 74.01 213.551 74.3 215.321C74.56 216.911 75.67 215.911 76.26 215.501C78.75 213.791 81.51 212.921 84.49 212.761C91.2 212.401 95.78 215.401 98.21 221.681C100.62 227.911 100.12 234.201 97.64 240.281C95.29 246.031 89.17 249.151 83.02 248.131C80.48 247.701 78.1 246.901 75.76 245.321ZM75.71 230.611C75.73 230.611 75.75 230.611 75.78 230.611C75.78 231.861 75.6 233.141 75.82 234.341C76.15 236.121 74.54 238.451 76.6 239.621C78.21 240.531 80.27 240.731 82.21 240.881C84.84 241.091 87.17 240.421 88.32 237.881C90.43 233.231 90.48 228.441 88.5 223.731C87.51 221.361 85.69 220.061 82.92 220.191C80.91 220.281 78.97 220.521 77.04 221.111C76.03 221.421 75.66 221.891 75.69 222.951C75.76 225.501 75.71 228.061 75.71 230.611Z" fill="#23A0DB"/>
<path id="Vector_5" d="M352.7 230.451C352.7 235.561 352.65 240.661 352.73 245.771C352.75 247.331 352.15 247.911 350.67 247.851C349.74 247.811 348.8 247.871 347.87 247.921C346.06 248.021 344.56 247.761 344 245.611C343.65 244.281 342.84 244.791 342.03 245.391C338.41 248.051 334.32 249.101 329.87 248.721C325.24 248.321 322.22 245.421 321.56 240.801C321.39 239.631 321.36 238.441 321.36 237.261C321.34 230.221 321.42 223.181 321.3 216.151C321.27 214.151 321.99 213.491 323.85 213.551C325.65 213.611 327.46 213.571 329.27 213.501C330.75 213.441 331.33 213.911 331.31 215.531C331.24 222.071 331.49 228.611 331.31 235.151C331.15 241.081 334.32 241.881 338.8 240.831C343.08 239.831 343.03 239.771 342.99 235.401C342.93 228.801 342.98 222.201 342.89 215.601C342.87 214.161 343.35 213.531 344.78 213.541C346.9 213.561 349.02 213.571 351.13 213.501C352.47 213.461 352.78 214.081 352.77 215.321C352.71 220.361 352.75 225.411 352.75 230.451C352.73 230.451 352.71 230.451 352.7 230.451Z" fill="#293340"/>
<path id="Vector_6" d="M225.72 233.781C224.59 233.701 222.79 233.601 220.99 233.451C219.71 233.341 219.53 233.831 219.9 234.981C221.25 239.181 223.66 241.081 228.11 241.351C231.46 241.551 234.69 240.841 237.89 240.031C239.37 239.651 239.71 240.131 239.83 241.501C240.25 246.061 239.78 246.711 235.31 247.751C230.82 248.801 226.37 249.221 221.84 247.871C216.66 246.321 213.17 243.111 211.61 237.911C210.17 233.131 210.05 228.261 211.64 223.551C214.02 216.531 219.75 212.801 227.8 212.561C231.34 212.461 234.63 213.291 237.46 215.431C240.73 217.911 241.92 221.351 241.34 225.341C240.76 229.291 238.22 231.591 234.53 232.721C231.88 233.551 229.15 233.781 225.72 233.781ZM225.06 227.581C226.49 227.501 227.75 227.531 228.97 227.341C230.96 227.031 232.48 225.171 232.39 223.331C232.29 221.341 230.78 219.831 228.68 219.581C223.27 218.921 221.44 221.791 219.8 225.941C219.46 226.791 219.87 227.081 220.62 227.151C222.16 227.301 223.7 227.451 225.06 227.581Z" fill="#23A0DB"/>
<path id="Vector_7" d="M371.59 248.931C367.85 248.761 364.91 248.421 362.05 247.381C360.19 246.701 359.38 245.671 359.38 243.681C359.38 239.711 359.31 239.661 363.14 240.601C366 241.301 368.87 241.821 371.82 241.651C372.32 241.621 372.82 241.611 373.31 241.531C374.92 241.251 376.64 239.731 376.65 238.431C376.67 236.801 375.41 236.031 374.16 235.491C371.82 234.461 369.4 233.651 367.05 232.651C362.83 230.871 359.72 228.141 359.57 223.151C359.42 218.341 362.31 214.761 367.52 213.241C372.51 211.781 377.38 212.471 382.2 214.101C383.03 214.381 383.34 214.891 383.45 215.741C384.14 221.041 384.04 221.151 378.84 220.331C376 219.881 373.16 219.441 370.35 220.481C369.59 220.761 368.77 220.971 368.73 222.021C368.69 223.051 368.76 223.971 369.77 224.631C371.68 225.861 373.83 226.521 375.89 227.391C377.26 227.971 378.62 228.591 379.97 229.221C383.97 231.091 385.88 234.261 385.57 238.661C385.25 243.211 382.59 246.041 378.55 247.721C376.09 248.721 373.5 249.061 371.59 248.931Z" fill="#293340"/>
<path id="Vector_8" d="M418.05 230.561C418.05 231.371 418.01 232.181 418.06 232.991C418.36 237.951 420.99 240.591 425.98 240.891C428.17 241.021 430.33 240.701 432.47 240.211C433.91 239.881 434.8 240.141 434.43 241.911C434.35 242.271 434.37 242.651 434.36 243.031C434.23 246.601 434.04 246.751 430.48 247.701C426.91 248.651 423.33 248.641 419.73 247.971C414.52 247.001 411.16 243.701 409.4 238.931C407.21 232.991 407.12 226.941 410.1 221.171C414.3 213.031 423.58 211.721 430.31 213.601C435.1 214.941 434.14 213.901 434.16 218.781C434.17 221.481 434.11 221.431 431.46 220.961C428.63 220.451 425.79 220.251 422.96 221.151C419.81 222.161 418.49 224.511 418.15 227.591C418.04 228.581 418.02 229.581 417.96 230.571C417.98 230.561 418.01 230.561 418.05 230.561Z" fill="#293340"/>
<path id="Vector_9" d="M106.37 230.451C106.37 225.471 106.4 220.481 106.35 215.501C106.34 214.331 106.74 213.781 107.93 213.761C109.3 213.741 110.67 213.591 112.04 213.601C114.6 213.601 114.69 213.731 115.1 216.281C115.2 216.911 114.93 217.831 115.75 218.051C116.48 218.251 117 217.521 117.38 216.981C119.82 213.511 123.47 213.441 127.16 213.361C128.23 213.341 128.58 213.791 128.56 214.811C128.51 216.801 128.47 218.801 128.55 220.791C128.59 221.971 128.09 222.311 127.02 222.291C123.97 222.251 120.93 222.291 117.9 222.851C116.56 223.101 116.2 223.561 116.21 224.881C116.28 231.731 116.19 238.591 116.28 245.441C116.3 247.121 115.7 247.641 114.13 247.561C112.08 247.451 110.02 247.401 107.96 247.431C106.71 247.451 106.36 246.941 106.37 245.771C106.39 240.671 106.37 235.561 106.37 230.451Z" fill="#23A0DB"/>
<path id="Vector_10" d="M319.89 269.521C315.79 269.881 311.7 270.261 307.6 270.601C306.83 270.661 305.84 271.021 305.43 270.061C304.96 268.961 305.86 268.351 306.62 267.811C310.64 264.951 315.23 263.651 320.05 263.071C324.9 262.491 329.74 262.421 334.57 263.341C338.29 264.051 339.35 265.081 339.03 268.881C338.29 277.701 335.62 285.821 329.68 292.631C328.68 293.771 327.49 294.661 326.17 295.391C324.95 296.081 324.58 295.552 324.75 294.372C325 292.702 325.64 291.132 326.21 289.552C327.87 284.922 329.7 280.351 330.38 275.431C330.86 271.971 330.02 270.741 326.59 270.101C325.73 269.941 324.87 269.791 324 269.751C322.63 269.691 321.26 269.732 319.89 269.732C319.9 269.682 319.9 269.601 319.89 269.521Z" fill="#23A0DB"/>
<path id="Vector_11" d="M143.15 230.651C143.15 235.691 143.11 240.741 143.18 245.781C143.2 247.051 142.82 247.591 141.51 247.561C139.39 247.511 137.27 247.551 135.16 247.581C134.04 247.601 133.45 247.211 133.44 245.971C133.37 235.701 133.21 225.421 133.45 215.151C133.47 214.101 133.84 213.561 135 213.601C137.18 213.681 139.36 213.681 141.54 213.671C142.7 213.661 143.16 214.081 143.14 215.331C143.07 220.441 143.11 225.541 143.11 230.651C143.12 230.651 143.13 230.651 143.15 230.651Z" fill="#23A0DB"/>
<path id="Vector_12" d="M401.35 230.561C401.35 235.611 401.3 240.661 401.38 245.701C401.4 247.181 400.8 247.711 399.43 247.701C397.31 247.681 395.19 247.701 393.07 247.691C392.06 247.691 391.48 247.341 391.45 246.161C391.18 235.881 391.39 225.601 391.45 215.311C391.46 214.071 392.06 213.691 393.19 213.701C395.43 213.721 397.68 213.731 399.92 213.651C401.13 213.611 401.36 214.151 401.35 215.221C401.31 220.331 401.33 225.441 401.33 230.551C401.34 230.561 401.35 230.561 401.35 230.561Z" fill="#293340"/>
<path id="Vector_13" d="M396.24 208.391C393.4 208.561 390.93 206.421 390.72 203.621C390.49 200.511 392.63 198.321 396.15 198.061C399.24 197.831 401.81 200.021 402.01 203.051C402.21 206.161 400.05 208.161 396.24 208.391Z" fill="#293340"/>
<path id="Vector_14" d="M138.27 208.411C135.08 208.431 132.73 206.301 132.69 203.371C132.64 200.041 134.67 198.081 138.2 198.001C141.34 197.931 143.93 200.401 143.9 203.431C143.87 206.331 141.54 208.391 138.27 208.411Z" fill="#23A0DB"/>
</g>
</g>
</svg>
