<?xml version="1.0" encoding="UTF-8"?>
<svg width="713px" height="500px" viewBox="0 0 713 500" version="1.1" xmlns="http://www.w3.org/2000/svg" xmlns:xlink="http://www.w3.org/1999/xlink">
    <title>music branding</title>
    <defs>
        <polygon id="path-1" points="0 0 14 0 14 45 0 45"></polygon>
    </defs>
    <g id="music-branding" stroke="none" stroke-width="1" fill="none" fill-rule="evenodd">
        <g id="Group" transform="translate(85.000000, 117.000000)">
            <g id="Group-3" transform="translate(185.000000, 7.000000)">
                <mask id="mask-2" fill="white">
                    <use xlink:href="#path-1"></use>
                </mask>
                <g id="Clip-2"></g>
            </g>
            <path d="M177.12394,121.303571 L177.12394,86.2407659 C177.12394,81.6467723 175.032039,79.3498099 170.848174,79.3498099 C167.144424,79.3498099 163.406436,80.2280602 159.634099,81.9845872 L159.634099,121.303571 L144.613411,121.303571 L144.613411,86.2407659 C144.613411,81.6467723 142.52151,79.3498099 138.337644,79.3498099 C134.496719,79.3498099 130.724437,80.2618391 127.020688,82.0859248 L127.020688,121.303571 L112,121.303571 L112,69.5200638 L124.345771,69.5200638 L125.683229,74.4856056 C129.318391,72.1210501 132.593417,70.4489966 135.508405,69.469395 C138.423393,68.4897934 141.424071,68 144.510529,68 C150.683446,68 155.038716,70.1618469 157.57647,74.4856056 C161.074456,72.1886088 164.366629,70.5334397 167.453087,69.5200638 C170.539545,68.5066879 173.728837,68 177.021059,68 C181.822216,68 185.543057,69.3173755 188.183693,71.9521659 C190.82433,74.5869564 192.144628,78.268852 192.144628,82.9979631 L192.144628,121.303571 L177.12394,121.303571 Z M240.262112,121.560293 L238.811218,116.088064 C232.662159,120.749616 226.236835,123.080357 219.535053,123.080357 C214.836896,123.080357 211.175152,121.712313 208.549711,118.976185 C205.924271,116.240056 204.61157,112.473714 204.61157,107.677044 L204.61157,69.7767857 L219.742323,69.7767857 L219.742323,103.522203 C219.742323,108.99446 222.160456,111.730547 226.996794,111.730547 C230.589502,111.730547 234.113067,110.649624 237.567594,108.487744 L237.567594,69.7767857 L252.698347,69.7767857 L252.698347,121.560293 L240.262112,121.560293 Z M290.780276,107.125346 C290.780276,105.770349 290.392174,104.720242 289.615959,103.974993 C288.839743,103.229745 287.270461,102.416759 284.908066,101.536011 L277.010955,98.3856583 C272.893638,96.7596617 269.923814,94.761071 268.101394,92.389826 C266.278975,90.0185811 265.367779,87.0037577 265.367779,83.3452656 C265.367779,78.7382754 267.207045,75.0290264 270.885632,72.2174074 C274.564219,69.4057884 279.474553,68 285.616781,68 C291.28653,68 296.51747,69.1178558 301.309757,71.3536011 L301.309757,81.2111558 C296.179984,79.6529091 291.387769,78.8737974 286.932966,78.8737974 C284.165589,78.8737974 282.140709,79.2125416 280.858266,79.8900402 C279.575822,80.5675388 278.93461,81.6515202 278.93461,83.142017 C278.93461,84.2937645 279.322712,85.2253111 280.098928,85.9366846 C280.875144,86.6480581 282.511922,87.5118558 285.009311,88.5281036 L292.703931,91.6784561 C296.888746,93.3722025 299.875444,95.3369188 301.664115,97.5726641 C303.452785,99.8084093 304.347107,102.721609 304.347107,106.312352 C304.347107,111.325841 302.440346,115.373834 298.626764,118.456453 C294.813183,121.539071 289.801606,123.080357 283.591881,123.080357 C276.639689,123.080357 270.497553,121.691506 265.165289,118.913762 L265.165289,109.056207 C271.847493,111.156453 277.955881,112.20656 283.490636,112.20656 C288.35042,112.20656 290.780276,110.512839 290.780276,107.125346 Z M315.033058,121.303571 L315.033058,69.7767857 L329.280992,69.7767857 L329.280992,121.303571 L315.033058,121.303571 Z M382.710744,119.670129 C380.844075,120.77243 378.597192,121.616367 375.970028,122.201965 C373.342864,122.787563 370.612038,123.080357 367.777466,123.080357 C359.342888,123.080357 352.896063,120.738001 348.436798,116.05322 C343.977533,111.368438 341.747934,104.616942 341.747934,95.7985292 C341.747934,87.0490103 344.098519,80.2286216 348.799759,75.3371583 C353.501,70.445695 360.034243,68 368.399686,68 C373.446606,68 378.113209,69.1022851 382.399634,71.3068882 L382.399634,81.3308932 C378.320616,80.1596978 374.587334,79.5741088 371.199676,79.5741088 C366.360163,79.5741088 362.799718,80.7969563 360.518234,83.242688 C358.23675,85.6884196 357.096025,89.5636405 357.096025,94.8684669 L357.096025,96.3152305 C357.096025,101.551163 358.219466,105.391938 360.466382,107.837669 C362.713299,110.283401 366.187325,111.506248 370.888566,111.506248 C374.276224,111.506248 378.216911,110.886207 382.710744,109.646124 L382.710744,119.670129 Z M113.780992,244.559504 L113.780992,169.276786 L128.832327,169.276786 L128.832327,196.541338 C130.825436,194.845773 133.16215,193.506296 135.842538,192.522868 C138.522926,191.539441 141.168911,191.047734 143.780571,191.047734 C150.447178,191.047734 155.721965,193.4554 159.605091,198.270806 C163.488218,203.086211 165.429752,209.597083 165.429752,217.803619 C165.429752,223.161605 164.536303,227.943027 162.749377,232.148029 C160.962452,236.353031 158.385194,239.659333 155.017527,242.067036 C151.64986,244.474738 147.766791,245.678571 143.368206,245.678571 C140.206722,245.678571 137.251467,245.135999 134.502351,244.050837 C131.753235,242.965675 129.450884,241.439689 127.595231,239.472834 L126.255044,244.559504 L113.780992,244.559504 Z M139.928015,201.258929 C136.348806,201.258929 132.976141,202.16693 129.809917,203.98296 L129.809917,230.51704 C132.838479,232.33307 136.211144,233.241071 139.928015,233.241071 C143.782548,233.241071 146.621782,231.963144 148.445802,229.40725 C150.269822,226.851356 151.181818,222.815795 151.181818,217.300445 C151.181818,211.717835 150.287029,207.648644 148.497425,205.09275 C146.70782,202.536856 143.851379,201.258929 139.928015,201.258929 Z M177.896694,243.901786 L177.896694,191.114722 L190.239129,191.114722 L192.090495,198.965635 C194.833272,195.935443 197.421729,193.78335 199.855943,192.509292 C202.290158,191.235234 204.878615,190.598214 207.621392,190.598214 C208.924211,190.598214 210.295586,190.701515 211.735537,190.908119 L211.735537,204.853821 C209.815593,204.440613 207.689973,204.234012 205.358612,204.234012 C200.9016,204.234012 196.753212,205.025982 192.913324,206.609946 L192.913324,243.901786 L177.896694,243.901786 Z M251.281649,244.052583 L250.018764,239.479491 C247.843785,241.376487 245.33558,242.883898 242.494074,244.001771 C239.652568,245.119644 236.898805,245.678571 234.232701,245.678571 C229.040814,245.678571 224.883859,244.255846 221.761711,241.410352 C218.639563,238.564858 217.078512,234.770923 217.078512,230.028433 C217.078512,226.77644 217.920427,223.914052 219.604282,221.441182 C221.288129,218.968312 223.708643,217.020526 226.865872,215.597786 C230.0231,214.175039 233.741558,213.463676 238.021356,213.463676 C241.389066,213.463676 245.107524,213.904044 249.176841,214.784792 L249.176841,209.703578 C249.176841,206.587085 248.510325,204.452996 247.177273,203.301249 C245.844221,202.149501 243.388635,201.573636 239.810443,201.573636 C234.057272,201.573636 227.70783,202.623743 220.761927,204.723989 L220.761927,194.866434 C223.35787,193.579187 226.620291,192.546017 230.549286,191.766893 C234.478282,190.98777 238.477378,190.598214 242.546694,190.598214 C249.773239,190.598214 255.052748,192.004003 258.385378,194.815622 C261.718008,197.627241 263.384298,202.047852 263.384298,208.07759 L263.384298,244.052583 L251.281649,244.052583 Z M237.602833,235.017857 C239.212171,235.017857 240.869764,234.631794 242.575662,233.859656 C244.28156,233.087518 245.874781,232.034619 247.355372,230.700926 L247.355372,221.540608 C244.522937,221.049248 241.980221,220.803571 239.727148,220.803571 C234.126652,220.803571 231.326446,223.260337 231.326446,228.173942 C231.326446,230.349967 231.873613,232.034606 232.967963,233.22791 C234.062313,234.421214 235.607254,235.017857 237.602833,235.017857 Z M310.358894,243.901786 L310.358894,209.953694 C310.358894,207.183786 309.727663,205.157054 308.465181,203.873438 C307.2027,202.589822 305.273937,201.948024 302.678837,201.948024 C298.821254,201.948024 294.998798,203.096505 291.211354,205.393502 L291.211354,243.901786 L275.85124,243.901786 L275.85124,192.118278 L288.475991,192.118278 L289.948879,197.691845 C296.261286,192.962734 302.99442,190.598214 310.148481,190.598214 C315.128269,190.598214 318.96826,191.8987 321.668567,194.499711 C324.368875,197.100723 325.719008,200.799508 325.719008,205.596177 L325.719008,243.901786 L310.358894,243.901786 Z M374.882248,244.559504 L373.6377,239.981501 C369.3509,243.779567 364.269045,245.678571 358.391981,245.678571 C354.03604,245.678571 350.198721,244.610381 346.879908,242.473969 C343.561096,240.337557 340.985598,237.234719 339.153336,233.165363 C337.321075,229.096006 336.404959,224.314584 336.404959,218.820953 C336.404959,210.41095 338.444615,203.679657 342.523989,198.626873 C346.603362,193.574088 351.996351,191.047734 358.703118,191.047734 C364.16533,191.047734 368.901481,192.57372 372.911713,195.625737 L372.911713,169.276786 L388.053719,169.276786 L388.053719,244.559504 L374.882248,244.559504 Z M362.386485,233.241071 C365.738957,233.241071 368.951694,232.29944 372.024793,230.41615 L372.024793,203.78118 C369.021537,202.099671 365.564353,201.258929 361.653136,201.258929 C357.951448,201.258929 355.192684,202.587301 353.376762,205.244085 C351.56084,207.90087 350.652893,211.919616 350.652893,217.300445 C350.652893,222.681274 351.613222,226.683206 353.533909,229.30636 C355.454596,231.929514 358.405425,233.241071 362.386485,233.241071 Z M402.301653,243.901786 L402.301653,192.375 L416.549587,192.375 L416.549587,243.901786 L402.301653,243.901786 Z M409.42562,183.491071 C406.739984,183.491071 404.58444,182.773531 402.958924,181.338427 C401.333407,179.903324 400.520661,177.955713 400.520661,175.495536 C400.520661,173.035359 401.333407,171.08774 402.958924,169.652644 C404.58444,168.217541 406.739984,167.5 409.42562,167.5 C412.111256,167.5 414.2668,168.217541 415.892316,169.652644 C417.517832,171.08774 418.330579,173.035359 418.330579,175.495536 C418.330579,177.955713 417.517832,179.903324 415.892316,181.338427 C414.2668,182.773531 412.111256,183.491071 409.42562,183.491071 Z M465.305175,243.901786 L465.305175,209.953694 C465.305175,207.183786 464.673944,205.157054 463.411462,203.873438 C462.148981,202.589822 460.220218,201.948024 457.625118,201.948024 C453.767535,201.948024 449.945079,203.096505 446.157635,205.393502 L446.157635,243.901786 L430.797521,243.901786 L430.797521,192.118278 L443.422272,192.118278 L444.89516,197.691845 C451.207567,192.962734 457.940701,190.598214 465.094762,190.598214 C470.07455,190.598214 473.914541,191.8987 476.614848,194.499711 C479.315156,197.100723 480.665289,200.799508 480.665289,205.596177 L480.665289,243.901786 L465.305175,243.901786 Z M528.101745,238.24664 C524.170242,241.738137 519.54907,243.483859 514.238092,243.483859 C507.823534,243.483859 502.70231,241.104885 498.874267,236.346864 C495.046224,231.588844 493.132231,225.239207 493.132231,217.297763 C493.132231,209.219398 495.063467,202.749956 498.925997,197.889245 C502.788527,193.028534 507.96148,190.598214 514.445012,190.598214 C517.341909,190.598214 520.066332,191.111667 522.61836,192.138573 C525.170389,193.165479 527.446488,194.671597 529.446727,196.656958 L530.584788,192.138573 L543,192.138573 L543,240.505832 C543,248.858041 540.654928,255.361712 535.964713,260.017041 C531.274498,264.67237 524.791064,267 516.514214,267 C509.823761,267 503.478271,265.528117 497.477556,262.584305 L497.477556,252.520629 C504.305956,254.642912 510.203123,255.704037 515.169233,255.704037 C519.7215,255.704037 523.014947,254.660027 525.049673,252.571975 C527.084398,250.483923 528.101745,247.078053 528.101745,242.354263 L528.101745,238.24664 Z M519.670863,231.464286 C521.235423,231.464286 522.816965,231.211735 524.415537,230.706626 C526.014109,230.201517 527.459604,229.511212 528.752066,228.63569 L528.752066,203.78446 C525.963069,202.100764 522.69795,201.258929 518.956612,201.258929 C512.426276,201.258929 509.161157,206.242594 509.161157,216.210075 C509.161157,221.395859 510.011448,225.234629 511.712057,227.726499 C513.412665,230.218369 516.065574,231.464286 519.670863,231.464286 Z" id="primemusicbranding" fill="#052B50" fill-rule="nonzero"></path>
            <g id="Group-3" transform="translate(25.000000, 0.000000)" fill="#052B50">
                <path d="M16,38.1171905 L16,38.1063703 L16,38.0929382 L15.7976889,0 L13.8062222,0 L13.9580444,33.51895 C12.4981333,32.0604525 10.3555556,31.138118 7.96515556,31.138118 C3.56622222,31.138118 0,34.2580862 0,38.1063703 C0,41.9546544 3.56622222,45 7.96515556,45 C12.3260444,45 15.8659556,42.1617319 15.9274667,38.0574925 L16,38.0574925 L16,38.1171905 Z" id="Fill-1"></path>
            </g>
            <g id="Group-8" transform="translate(0.000000, 181.000000)" fill="#052B50">
                <g id="Group-3">
                    <path d="M32.2981867,6.30548929 C30.40912,4.06692976 27.9493867,2.40579881 25.43952,1.41731071 C25.12592,1.29087024 24.81392,1.16954881 24.4965867,1.07075119 L24.0256533,0.915132143 L23.7504533,0.827596429 L23.53872,0.770263095 L23.1061867,0.65354881 L22.58992,0.532227381 C22.24592,0.452370238 21.93552,0.405275 21.60912,0.353572619 C20.3141867,0.170822619 19.0389867,0.145739286 17.8373867,0.273715476 C15.4261867,0.517894048 13.3584533,1.31288214 11.7301867,2.22356071 C10.09712,3.15164405 8.93552,4.27732262 8.14565333,5.28884643 C7.34885333,6.30292976 6.92058667,7.21565595 6.66565333,7.84325119 C6.54032,8.15960833 6.46032,8.40737024 6.41552,8.58039405 C6.39952,8.63312024 6.38778667,8.67560833 6.37765333,8.71348929 C6.02458667,9.4465369 5.81658667,10.2589298 5.79632,11.117906 C5.71738667,14.4672988 8.48165333,17.244894 11.9712533,17.320656 C15.4608533,17.3964179 18.3536533,14.7421917 18.43312,11.3933107 C18.50832,8.21489405 16.02032,5.55606071 12.7840533,5.22792976 C12.9440533,5.15319167 13.0981867,5.07742976 13.2640533,5.00422738 C14.6432533,4.37765595 16.2981867,3.91335833 18.0960533,3.88469167 C19.8917867,3.845275 21.8000533,4.27271548 23.6981867,5.16957262 C25.59472,6.04595357 27.3493867,7.34823929 28.75952,9.04929881 C29.4581867,9.90315595 30.0832533,10.8445488 30.59952,11.8663107 C31.1040533,12.8931917 31.5216533,13.9871321 31.82832,15.1312393 C32.44272,17.4209893 32.5749867,19.8980964 32.2949867,22.3450012 C32.1557867,23.5761321 31.9120533,24.781156 31.56592,25.9626321 C31.2021867,27.1789179 30.7749867,28.2861679 30.18992,29.3673107 C29.6197867,30.4412869 28.9621867,31.4702155 28.2096533,32.423894 C27.45712,33.3780845 26.6048533,34.2467869 25.7061867,35.046894 C23.8997867,36.6358464 21.8853867,37.9401798 19.81712,38.9005131 C17.75472,39.8772274 15.6608533,40.5498702 13.6789867,40.9998345 C11.6912533,41.4277869 9.81605333,41.647906 8.14138667,41.7057512 C6.46672,41.7589893 4.99418667,41.6883464 3.78458667,41.5608821 C2.57712,41.4124298 1.63152,41.266025 0.98672,41.1278107 C0.342986667,40.9875488 5.33333333e-05,40.9128107 5.33333333e-05,40.9128107 C5.33333333e-05,40.9128107 0.325386667,41.0407869 0.936053333,41.2808702 C1.54778667,41.5107155 2.46885333,41.8367988 3.66938667,42.147525 C4.87365333,42.4413583 6.36432,42.7449179 8.10778667,42.8877393 C9.84858667,43.034656 11.8432533,43.0643464 14.0048533,42.8114655 C16.1584533,42.5457869 18.5024533,42.0850726 20.85392,41.1897512 C22.0357867,40.7597512 23.22032,40.2309536 24.3877867,39.6028464 C24.9792533,39.2997988 25.54832,38.9450488 26.1296533,38.5938821 C26.6917867,38.2155845 27.2613867,37.8331917 27.8048533,37.4052393 C30.0021867,35.7287512 32.0032533,33.5987155 33.50992,31.0924298 C34.26672,29.854644 34.8784533,28.4694298 35.3568533,27.1307988 C35.84432,25.7532631 36.2165867,24.3219774 36.4565867,22.8855726 C36.9397867,19.9989417 36.84592,17.0053226 36.1872533,14.1366083 C35.54032,11.2673821 34.2080533,8.52664405 32.2981867,6.30548929" id="Fill-1"></path>
                </g>
                <path d="M43.5555556,21.5 C46.0100584,21.5 48,19.494512 48,17.0208333 C48,14.5471546 46.0100584,12.5416667 43.5555556,12.5416667 C41.1010527,12.5416667 39.1111111,14.5471546 39.1111111,17.0208333 C39.1111111,19.494512 41.1010527,21.5 43.5555556,21.5" id="Fill-4"></path>
                <path d="M43.5555556,25.0833333 C41.1010527,25.0833333 39.1111111,27.0888213 39.1111111,29.5625 C39.1111111,32.0361787 41.1010527,34.0416667 43.5555556,34.0416667 C46.0100584,34.0416667 48,32.0361787 48,29.5625 C48,27.0888213 46.0100584,25.0833333 43.5555556,25.0833333" id="Fill-6"></path>
            </g>
            <g id="Group-3" transform="translate(286.000000, 7.000000)" fill="#052B50">
                <path d="M45,36.3803814 L45,36.3702186 C45,36.3656628 45,36.3611071 45,36.3569018 L44.8571368,0.583835506 L44.8552269,0.583835506 L44.8529349,0 L14.8020033,3.42871944 L14.8531896,7.71286654 L14.9960528,35.2155139 C13.4276134,33.8456381 11.1253767,32.9793468 8.55765884,32.9793468 C3.83133144,32.9793468 0,35.909388 0,39.5241919 C0,43.1386453 3.83133144,46 8.55765884,46 C13.2415857,46 17.0438861,43.3376961 17.1114978,39.4828398 L17.1149357,39.4828398 L17.1149357,39.5343547 L17.1149357,39.5241919 C17.1149357,39.5196362 17.1145537,39.5150804 17.1145537,39.5108751 L16.98697,7.48122472 L42.7374899,4.40610073 L42.8811171,32.0615406 C41.3126777,30.6916648 39.010441,29.8253735 36.4427231,29.8253735 C31.7163957,29.8253735 27.8850643,32.7554147 27.8850643,36.3702186 C27.8850643,39.984672 31.7163957,42.8460267 36.4427231,42.8460267 C41.12665,42.8460267 44.9289504,40.1837228 44.9965621,36.3288665 L45,36.3288665 L45,36.3803814 Z" id="Fill-1"></path>
            </g>
            <path d="M275.862069,144 L275.862069,153.142857 L268.137931,153.142857 L268.137931,146.539683 L265.241379,146.539683 L265.241379,153.142857 L258,153.142857 L258,156.190476 L265.241379,156.190476 L265.241379,163.809524 L258,163.809524 L258,166.857143 L265.241379,166.857143 L265.241379,176 L268.137931,176 L268.137931,166.857143 L275.862069,166.857143 L275.862069,173.460317 L278.758621,173.460317 L278.758621,166.857143 L286,166.857143 L286,163.809524 L278.758621,163.809524 L278.758621,156.190476 L286,156.190476 L286,153.142857 L278.758621,153.142857 L278.758621,144 L275.862069,144 Z M268.5,163.555556 L275.5,163.555556 L275.5,154.666667 L268.5,154.666667 L268.5,163.555556 Z" id="Fill-1" fill="#052B50"></path>
        </g>
    </g>
</svg>