<svg width="713" height="500" viewBox="0 0 713 500" fill="none" xmlns="http://www.w3.org/2000/svg">
<g id="music_branding">
<g id="Frame" clip-path="url(#clip0)">
<g id="x36 FuVki.tif 1">
<g id="Group">
<path id="Vector" d="M542 293.982C540.536 296.002 540.882 298.478 540.354 300.728C536.876 315.484 531.003 328.995 520.151 339.961C518.937 341.188 517.587 342.325 516.141 343.257C515.095 343.927 513.8 344.389 512.559 343.398C511.295 342.388 511.595 341.021 511.986 339.866C512.845 337.326 514 334.881 514.936 332.364C518.264 323.399 521.674 314.456 523.456 305.016C523.847 302.956 524.092 300.842 524.111 298.75C524.152 294.159 522.369 291.963 517.905 290.944C511.663 289.522 505.335 289.577 498.975 289.88C490.978 290.26 483.035 291.139 475.093 292.085C473.934 292.225 472.816 291.899 472.161 290.804C471.524 289.744 472.002 288.793 472.575 287.865C473.279 286.729 474.389 286.054 475.452 285.352C482.776 280.499 490.946 277.778 499.511 276.256C509.995 274.391 520.533 274.223 531.035 276.234C533.012 276.614 534.917 277.334 536.876 277.823C539.518 278.484 540.804 280.508 542 282.663C542 286.439 542 290.211 542 293.982Z" fill="#3D0ACF"/>
<path id="Vector_2" d="M456.854 141C457.508 141.145 458.109 141.471 458.268 141.521C462.855 142.961 464.551 146.243 464.432 150.812C464.319 155.068 461.555 158.617 457.354 159.165C448.639 160.297 444.674 154.973 445.997 147.633C446.443 145.152 447.975 143.341 450.266 142.136C450.857 141.824 452.121 141.358 453.185 140.995C455.149 141 454.885 141 456.854 141Z" fill="#3D0ACF"/>
<path id="Vector_3" d="M357.346 358.946C314.216 358.629 276.714 350.583 241.017 334.378C215.658 322.864 192.708 307.683 172.014 289.106C171.278 288.445 170.541 287.729 170.255 286.788C169.877 285.543 169.795 284.207 170.85 283.202C171.896 282.206 173.164 281.739 174.592 282.387C175.956 283.007 177.329 283.636 178.629 284.379C209.952 302.223 243.34 314.733 278.491 322.647C291.484 325.572 304.619 327.709 317.866 329.239C334.578 331.168 351.322 331.97 368.12 331.594C382.323 331.277 396.439 329.941 410.509 327.89C440.969 323.448 470.388 315.385 498.77 303.513C500.134 302.942 501.525 302.381 503.112 302.435C505.812 302.53 508.008 303.708 508.84 305.736C509.722 307.882 509.144 310.481 506.939 312.202C503.853 314.61 500.629 316.861 497.338 318.984C472.87 334.799 446.079 345.014 417.792 351.629C406.64 354.237 395.37 356.175 384.005 357.406C373.853 358.493 363.66 359.208 357.346 358.946Z" fill="#3D0ACF"/>
<path id="Vector_4" d="M187.339 179.562C190.567 177.593 193.672 175.632 197.032 174.152C204.779 170.742 212.766 168.986 221.236 170.765C226.291 171.825 230.224 174.514 232.788 179.028C233.365 180.042 233.638 180.418 234.888 179.553C241.453 175.012 248.55 171.39 256.588 170.625C262.993 170.018 269.585 169.357 275.454 173.373C280.687 176.954 283.497 181.93 283.879 188.088C284.738 201.943 284.074 215.825 284.238 229.693C284.292 234.443 284.283 239.197 284.233 243.946C284.206 246.871 283.36 247.691 280.414 247.754C277.918 247.809 275.413 247.813 272.918 247.754C270.003 247.682 269.181 246.812 269.181 243.883C269.176 227.896 269.176 211.908 269.199 195.921C269.203 193.716 268.858 191.57 268.258 189.478C267.007 185.141 263.748 182.505 259.183 182.302C251.182 181.944 243.917 184.384 237.039 188.274C235.952 188.89 236.207 189.741 236.207 190.578C236.198 205.887 236.207 221.195 236.207 236.503C236.207 239.066 236.22 241.633 236.202 244.195C236.184 246.717 235.388 247.641 232.87 247.736C230.147 247.84 227.414 247.827 224.691 247.745C222.095 247.668 221.254 246.767 221.168 244.091C221.104 242.208 221.154 240.32 221.154 238.436C221.154 224.713 221.168 210.985 221.15 197.261C221.145 194.558 221.004 191.882 220.177 189.243C218.808 184.878 215.717 182.614 211.366 182.338C203.388 181.835 196.05 184.108 189.194 188.111C187.976 188.822 188.244 189.877 188.244 190.886C188.235 208.082 188.244 225.274 188.239 242.47C188.239 243.371 188.139 244.272 188.099 245.173C188.03 246.726 187.107 247.532 185.662 247.636C182.338 247.872 179.006 247.908 175.687 247.618C173.973 247.469 173.26 246.382 173.26 244.68C173.282 221.53 173.287 198.375 173.278 175.225C173.278 173.464 174.146 172.449 175.796 172.363C178.361 172.228 180.943 172.25 183.511 172.35C185.003 172.404 186.035 173.183 186.312 174.799C186.58 176.321 186.962 177.824 187.339 179.562Z" fill="#3D0ACF"/>
<path id="Vector_5" d="M366.634 209.921C366.634 221.154 366.638 232.387 366.634 243.625C366.634 246.794 365.784 247.682 362.656 247.754C360.992 247.79 359.323 247.8 357.659 247.75C354.732 247.659 353.922 246.966 353.345 244.177C352.504 240.111 352.499 240.098 349.031 242.271C340.457 247.641 331.269 250.498 320.99 249.756C311.461 249.067 303.837 241.945 302.814 232.505C302.473 229.345 302.405 226.198 302.405 223.038C302.405 207.58 302.409 192.122 302.414 176.669C302.414 173.092 303.223 172.273 306.792 172.255C308.987 172.241 311.183 172.232 313.379 172.259C316.512 172.3 317.43 173.197 317.443 176.339C317.471 182.596 317.443 188.853 317.457 195.111C317.48 205.063 317.316 215.019 317.607 224.962C317.848 233.171 321.558 237.753 330.491 237.78C334.292 237.793 337.956 236.969 341.539 235.765C341.752 235.692 341.957 235.606 342.17 235.529C351.581 232.088 351.581 232.088 351.581 222.25C351.581 207.168 351.581 192.091 351.586 177.009C351.586 172.993 352.327 172.259 356.346 172.255C358.464 172.25 360.587 172.223 362.706 172.264C365.706 172.318 366.616 173.237 366.62 176.226C366.629 187.459 366.625 198.692 366.625 209.93C366.625 209.921 366.629 209.921 366.634 209.921Z" fill="#3D0ACF"/>
<path id="Vector_6" d="M406.272 249.977C398.039 249.928 390.883 248.764 383.982 246.088C381.382 245.083 380.095 243.421 380.304 240.614C380.404 239.265 380.286 237.897 380.409 236.548C380.604 234.379 381.482 233.759 383.577 234.33C388.069 235.548 392.529 236.933 397.166 237.481C401.817 238.029 406.481 238.622 411.164 237.707C415.678 236.824 420.106 234.692 420.784 228.792C421.143 225.677 419.793 222.259 417.188 220.638C413.314 218.229 408.959 217.011 404.79 215.322C400.344 213.52 395.698 212.216 391.547 209.699C383.482 204.809 380.236 197.574 381.477 188.446C382.618 180.056 388.046 174.922 395.693 172.155C405.613 168.565 415.569 169.76 425.426 172.73C426.426 173.033 427.399 173.436 428.376 173.803C429.608 174.265 430.522 175.202 430.626 176.429C430.817 178.67 430.876 180.957 430.654 183.194C430.504 184.665 429.308 185.245 427.767 184.869C424.407 184.058 421.075 183.09 417.674 182.537C412.446 181.69 407.168 181.256 401.953 182.768C398.307 183.823 395.839 186.055 395.361 189.926C394.866 193.915 396.448 196.94 400.058 198.873C405.968 202.038 412.391 203.958 418.57 206.48C421.643 207.734 424.639 209.128 427.326 211.093C434.036 216.001 435.259 222.594 434.586 230.572C433.736 240.677 423.089 248.193 413.542 249.393C410.828 249.742 408.123 249.855 406.272 249.977Z" fill="#3D0ACF"/>
<path id="Vector_7" d="M493.305 210.007C493.396 216.364 493.792 222.472 496.961 228.041C499.62 232.713 503.766 235.294 508.876 236.308C515.864 237.694 522.751 236.743 529.562 234.923C533.053 233.99 533.917 234.692 533.944 238.319C533.994 245.35 533.999 245.662 527.125 247.514C515.723 250.584 504.435 250.426 493.778 244.694C485.054 239.998 480.685 232.066 478.871 222.77C476.998 213.167 476.925 203.469 479.939 194.01C484.19 180.681 493.378 173.088 507.303 171.177C514.736 170.158 522.019 170.688 529.162 173.047C532.594 174.184 533.28 175.089 533.308 178.775C533.317 179.68 533.326 180.586 533.308 181.487C533.23 185.041 532.294 185.784 528.811 184.824C522.624 183.117 516.396 182.542 510.017 183.597C498.947 185.43 495.469 192.394 493.946 200.743C493.387 203.863 493.378 207.028 493.305 210.007Z" fill="#3D0ACF"/>
<path id="Vector_8" d="M462.5 210.12C462.5 221.276 462.505 232.432 462.5 243.593C462.5 246.767 461.659 247.673 458.549 247.741C456.204 247.795 453.853 247.79 451.507 247.741C448.366 247.673 447.502 246.731 447.498 243.371C447.484 231.459 447.498 219.551 447.498 207.639C447.498 197.388 447.493 187.133 447.502 176.882C447.507 173.088 448.352 172.264 452.194 172.255C454.312 172.25 456.435 172.223 458.554 172.259C461.564 172.314 462.482 173.242 462.486 176.194C462.496 187.5 462.491 198.81 462.491 210.115C462.491 210.12 462.496 210.12 462.5 210.12Z" fill="#3D0ACF"/>
</g>
</g>
</g>
</g>
<defs>
<clipPath id="clip0">
<rect width="372" height="218" fill="white" transform="translate(170 141)"/>
</clipPath>
</defs>
</svg>
