<?xml version="1.0" encoding="UTF-8"?>
<svg width="713px" height="500px" viewBox="0 0 713 500" version="1.1" xmlns="http://www.w3.org/2000/svg" xmlns:xlink="http://www.w3.org/1999/xlink">
    <title>music branding</title>
    <defs>
        <polygon id="path-1" points="0 -1.42108547e-14 15.75 -1.42108547e-14 15.75 42.2121 0 42.2121"></polygon>
        <polygon id="path-3" points="5e-05 0.1895 34.4633853 0.1895 34.4633853 42 5e-05 42"></polygon>
        <polygon id="path-5" points="0 0.00028 41.231645 0.00028 41.231645 45.94233 0 45.94233"></polygon>
    </defs>
    <g id="music-branding" stroke="none" stroke-width="1" fill="none" fill-rule="evenodd">
        <path d="M88.7,248.6 L88.7,176.9 L100.7,176.9 L101.9,181.7 C103.90001,179.766657 106.316653,178.233339 109.15,177.1 C111.983348,175.966661 114.866652,175.4 117.8,175.4 C124.266699,175.4 129.383315,177.766643 133.15,182.5 C136.916686,187.233357 138.8,193.633293 138.8,201.7 C138.8,206.966693 137.933342,211.666646 136.2,215.8 C134.466658,219.933354 131.966683,223.183322 128.7,225.55 C125.433317,227.916679 121.666688,229.1 117.4,229.1 C114.666653,229.1 112.066679,228.666671 109.6,227.8 C107.133321,226.933329 105.033342,225.733341 103.3,224.2 L103.3,248.6 L88.7,248.6 Z M113.1,186.4 C109.633316,186.4 106.366682,187.299991 103.3,189.1 L103.3,215.4 C106.233348,217.200009 109.499982,218.1 113.1,218.1 C116.833352,218.1 119.583325,216.833346 121.35,214.3 C123.116676,211.766654 124,207.766694 124,202.3 C124,196.766639 123.133342,192.733346 121.4,190.2 C119.666658,187.666654 116.900019,186.4 113.1,186.4 Z M150.2,228 L150.2,176.9 L162.2,176.9 L164,184.5 C166.66668,181.566652 169.183322,179.48334 171.55,178.25 C173.916679,177.016661 176.43332,176.4 179.1,176.4 C180.366673,176.4 181.7,176.499999 183.1,176.7 L183.1,190.2 C181.233324,189.799998 179.166678,189.6 176.9,189.6 C172.566645,189.6 168.533352,190.366659 164.8,191.9 L164.8,228 L150.2,228 Z M191.1,228 L191.1,176.9 L205.7,176.9 L205.7,228 L191.1,228 Z M198.4,169 C195.866654,169 193.833341,168.300007 192.3,166.9 C190.766659,165.499993 190,163.600012 190,161.2 C190,158.799988 190.766659,156.9 192.3,155.5 C193.833341,154.099993 195.866654,153.4 198.4,153.4 C200.933346,153.4 202.966659,154.099993 204.5,155.5 C206.033341,156.9 206.8,158.799988 206.8,161.2 C206.8,163.600012 206.033341,165.499993 204.5,166.9 C202.966659,168.300007 200.933346,169 198.4,169 Z M283.4,228 L283.4,193.4 C283.4,188.866644 281.366687,186.6 277.3,186.6 C273.699982,186.6 270.066685,187.466658 266.4,189.2 L266.4,228 L251.8,228 L251.8,193.4 C251.8,188.866644 249.766687,186.6 245.7,186.6 C241.966648,186.6 238.300018,187.499991 234.7,189.3 L234.7,228 L220.1,228 L220.1,176.9 L232.1,176.9 L233.4,181.8 C236.933351,179.466655 240.116653,177.816672 242.95,176.85 C245.783348,175.883329 248.699985,175.4 251.7,175.4 C257.70003,175.4 261.933321,177.533312 264.4,181.8 C267.800017,179.533322 270.999985,177.9 274,176.9 C277.000015,175.9 280.099984,175.4 283.3,175.4 C287.96669,175.4 291.583321,176.699987 294.15,179.3 C296.71668,181.900013 298,185.53331 298,190.2 L298,228 L283.4,228 Z M322.7,206 C322.966668,210.400022 324.299988,213.583324 326.7,215.55 C329.100012,217.516677 332.866641,218.5 338,218.5 C342.466689,218.5 347.666637,217.666675 353.6,216 L353.6,225.7 C351.266655,226.9 348.48335,227.83333 345.25,228.5 C342.016651,229.16667 338.666684,229.5 335.2,229.5 C326.733291,229.5 320.283356,227.200023 315.85,222.6 C311.416645,217.999977 309.2,211.266711 309.2,202.4 C309.2,193.866624 311.399978,187.233357 315.8,182.5 C320.200022,177.766643 326.299961,175.4 334.1,175.4 C340.700033,175.4 345.783316,177.216649 349.35,180.85 C352.916685,184.483352 354.7,189.666633 354.7,196.4 C354.7,197.866674 354.600001,199.533324 354.4,201.4 C354.2,203.266676 353.966668,204.799994 353.7,206 L322.7,206 Z M333.6,185.5 C330.333317,185.5 327.75001,186.483324 325.85,188.45 C323.949991,190.416677 322.866668,193.266648 322.6,197 L342.2,197 L342.2,195.3 C342.2,188.766634 339.333362,185.5 333.6,185.5 Z M455.4,228 L455.4,193.4 C455.4,188.866644 453.366687,186.6 449.3,186.6 C445.699982,186.6 442.066685,187.466658 438.4,189.2 L438.4,228 L423.8,228 L423.8,193.4 C423.8,188.866644 421.766687,186.6 417.7,186.6 C413.966648,186.6 410.300018,187.499991 406.7,189.3 L406.7,228 L392.1,228 L392.1,176.9 L404.1,176.9 L405.4,181.8 C408.933351,179.466655 412.116653,177.816672 414.95,176.85 C417.783348,175.883329 420.699985,175.4 423.7,175.4 C429.70003,175.4 433.933321,177.533312 436.4,181.8 C439.800017,179.533322 442.999985,177.9 446,176.9 C449.000015,175.9 452.099984,175.4 455.3,175.4 C459.96669,175.4 463.583321,176.699987 466.15,179.3 C468.716679,181.900013 470,185.53331 470,190.2 L470,228 L455.4,228 Z M517.8,228 L516.4,222.6 C510.466637,227.200023 504.266699,229.5 497.8,229.5 C493.266644,229.5 489.733346,228.150014 487.2,225.45 C484.666654,222.749987 483.4,219.033357 483.4,214.3 L483.4,176.9 L498,176.9 L498,210.2 C498,215.600027 500.33331,218.3 505,218.3 C508.466684,218.3 511.86665,217.233344 515.2,215.1 L515.2,176.9 L529.8,176.9 L529.8,228 L517.8,228 Z M565.5,213.9 C565.5,212.56666 565.116671,211.533337 564.35,210.8 C563.583329,210.066663 562.033345,209.266671 559.7,208.4 L551.9,205.3 C547.833313,203.699992 544.900009,201.733345 543.1,199.4 C541.299991,197.066655 540.4,194.100018 540.4,190.5 C540.4,185.966644 542.216649,182.316681 545.85,179.55 C549.483352,176.78332 554.333303,175.4 560.4,175.4 C566.000028,175.4 571.166643,176.499989 575.9,178.7 L575.9,188.4 C570.833308,186.866659 566.100022,186.1 561.7,186.1 C558.966653,186.1 556.966673,186.43333 555.7,187.1 C554.433327,187.76667 553.8,188.833326 553.8,190.3 C553.8,191.433339 554.18333,192.349997 554.95,193.05 C555.716671,193.750004 557.333321,194.599995 559.8,195.6 L567.4,198.7 C571.533354,200.366675 574.483325,202.299989 576.25,204.5 C578.016676,206.700011 578.9,209.566649 578.9,213.1 C578.9,218.033358 577.016686,222.016652 573.25,225.05 C569.483315,228.083349 564.533364,229.6 558.4,229.6 C551.533299,229.6 545.466693,228.233347 540.2,225.5 L540.2,215.8 C546.800033,217.866677 552.833306,218.9 558.3,218.9 C563.100024,218.9 565.5,217.23335 565.5,213.9 Z M588.7,228 L588.7,176.9 L603.3,176.9 L603.3,228 L588.7,228 Z M654.6,225.8 C652.799991,226.866672 650.633346,227.683331 648.1,228.25 C645.566654,228.81667 642.933347,229.1 640.2,229.1 C632.066626,229.1 625.850022,226.833356 621.55,222.3 C617.249978,217.766644 615.1,211.233376 615.1,202.7 C615.1,194.233291 617.366644,187.633357 621.9,182.9 C626.433356,178.166643 632.733293,175.8 640.8,175.8 C645.666691,175.8 650.166646,176.866656 654.3,179 L654.3,188.7 C650.366647,187.566661 646.766683,187 643.5,187 C638.83331,187 635.400011,188.183322 633.2,190.55 C630.999989,192.916679 629.9,196.666641 629.9,201.8 L629.9,203.2 C629.9,208.266692 630.983323,211.983322 633.15,214.35 C635.316678,216.716679 638.666644,217.9 643.2,217.9 C646.466683,217.9 650.266645,217.3 654.6,216.1 L654.6,225.8 Z M235.8,347 L235.8,273 L250.4,273 L250.4,299.8 C252.333343,298.133325 254.599987,296.816671 257.2,295.85 C259.800013,294.883329 262.366654,294.4 264.9,294.4 C271.366699,294.4 276.483314,296.766643 280.25,301.5 C284.016685,306.233357 285.9,312.633293 285.9,320.7 C285.9,325.966693 285.033342,330.666646 283.3,334.8 C281.566658,338.933354 279.066683,342.183322 275.8,344.55 C272.533317,346.916678 268.766688,348.1 264.5,348.1 C261.433318,348.1 258.56668,347.566672 255.9,346.5 C253.23332,345.433328 251.000009,343.933343 249.2,342 L247.9,347 L235.8,347 Z M260.2,305.4 C256.733316,305.4 253.466682,306.299991 250.4,308.1 L250.4,334.4 C253.333348,336.200009 256.599982,337.1 260.2,337.1 C263.933352,337.1 266.683324,335.833346 268.45,333.3 C270.216675,330.766654 271.1,326.766694 271.1,321.3 C271.1,315.766639 270.233342,311.733346 268.5,309.2 C266.766658,306.666654 264.000019,305.4 260.2,305.4 Z M297.3,347 L297.3,295.9 L309.3,295.9 L311.1,303.5 C313.76668,300.566652 316.283321,298.48334 318.65,297.25 C321.016678,296.016661 323.53332,295.4 326.2,295.4 C327.466673,295.4 328.8,295.499999 330.2,295.7 L330.2,309.2 C328.333324,308.799998 326.266678,308.6 324,308.6 C319.666645,308.6 315.633352,309.366659 311.9,310.9 L311.9,347 L297.3,347 Z M367.1,347 L365.9,342.5 C363.833323,344.366676 361.450013,345.849994 358.75,346.95 C356.049986,348.050005 353.433346,348.6 350.9,348.6 C345.966642,348.6 342.016681,347.200014 339.05,344.4 C336.083318,341.599986 334.6,337.86669 334.6,333.2 C334.6,329.999984 335.399992,327.183345 337,324.75 C338.6,322.316655 340.899985,320.4 343.9,319 C346.900015,317.599993 350.433313,316.9 354.5,316.9 C357.700016,316.9 361.233314,317.333329 365.1,318.2 L365.1,313.2 C365.1,310.133318 364.466673,308.033339 363.2,306.9 C361.933327,305.766661 359.600017,305.2 356.2,305.2 C350.733306,305.2 344.700033,306.233323 338.1,308.3 L338.1,298.6 C340.566679,297.333327 343.666648,296.31667 347.4,295.55 C351.133352,294.78333 354.933314,294.4 358.8,294.4 C365.666701,294.4 370.683317,295.78332 373.85,298.55 C377.016682,301.31668 378.6,305.666637 378.6,311.6 L378.6,347 L367.1,347 Z M355,338.8 C356.666675,338.8 358.383324,338.433337 360.15,337.7 C361.916675,336.966663 363.566659,335.966673 365.1,334.7 L365.1,326 C362.166652,325.533331 359.533345,325.3 357.2,325.3 C351.399971,325.3 348.5,327.63331 348.5,332.3 C348.5,334.366677 349.066661,335.966661 350.2,337.1 C351.333339,338.233339 352.933323,338.8 355,338.8 Z M425.2,347 L425.2,313.5 C425.2,310.766653 424.600006,308.766673 423.4,307.5 C422.199994,306.233327 420.366679,305.6 417.9,305.6 C414.233315,305.6 410.600018,306.733322 407,309 L407,347 L392.4,347 L392.4,295.9 L404.4,295.9 L405.8,301.4 C411.80003,296.73331 418.199966,294.4 425,294.4 C429.733357,294.4 433.38332,295.683321 435.95,298.25 C438.516679,300.816679 439.8,304.466643 439.8,309.2 L439.8,347 L425.2,347 Z M488.1,347 L486.9,342.5 C482.766646,346.233352 477.866695,348.1 472.2,348.1 C467.999979,348.1 464.300016,347.05001 461.1,344.95 C457.899984,342.849989 455.416676,339.80002 453.65,335.8 C451.883325,331.79998 451,327.100027 451,321.7 C451,313.433292 452.966647,306.816691 456.9,301.85 C460.833353,296.883308 466.033301,294.4 472.5,294.4 C477.766693,294.4 482.333314,295.899985 486.2,298.9 L486.2,273 L500.8,273 L500.8,347 L488.1,347 Z M477,337.1 C480.200016,337.1 483.266652,336.166676 486.2,334.3 L486.2,307.9 C483.333319,306.233325 480.033352,305.4 476.3,305.4 C472.766649,305.4 470.133342,306.716654 468.4,309.35 C466.666658,311.983347 465.8,315.96664 465.8,321.3 C465.8,326.63336 466.716657,330.599987 468.55,333.2 C470.383342,335.800013 473.199981,337.1 477,337.1 Z M515.2,347 L515.2,295.9 L529.8,295.9 L529.8,347 L515.2,347 Z M522.5,288 C519.966654,288 517.933341,287.300007 516.4,285.9 C514.866659,284.499993 514.1,282.600012 514.1,280.2 C514.1,277.799988 514.866659,275.9 516.4,274.5 C517.933341,273.099993 519.966654,272.4 522.5,272.4 C525.033346,272.4 527.066659,273.099993 528.6,274.5 C530.133341,275.9 530.9,277.799988 530.9,280.2 C530.9,282.600012 530.133341,284.499993 528.6,285.9 C527.066659,287.300007 525.033346,288 522.5,288 Z M577,347 L577,313.5 C577,310.766653 576.400006,308.766673 575.2,307.5 C573.999994,306.233327 572.166679,305.6 569.7,305.6 C566.033315,305.6 562.400018,306.733322 558.8,309 L558.8,347 L544.2,347 L544.2,295.9 L556.2,295.9 L557.6,301.4 C563.60003,296.73331 569.999966,294.4 576.8,294.4 C581.533357,294.4 585.18332,295.683321 587.75,298.25 C590.316679,300.816679 591.6,304.466643 591.6,309.2 L591.6,347 L577,347 Z M636.6,340.8 C632.799981,344.200017 628.333359,345.9 623.2,345.9 C616.999969,345.9 612.050018,343.583357 608.35,338.95 C604.649981,334.316644 602.8,328.133372 602.8,320.4 C602.8,312.533294 604.666648,306.233357 608.4,301.5 C612.133352,296.766643 617.133302,294.4 623.4,294.4 C626.200014,294.4 628.833321,294.9 631.3,295.9 C633.766679,296.9 635.966657,298.366657 637.9,300.3 L639,295.9 L651,295.9 L651,343 C651,351.133374 648.733356,357.466644 644.2,362 C639.666644,366.533356 633.40004,368.8 625.4,368.8 C618.933301,368.8 612.800029,367.366681 607,364.5 L607,354.7 C613.600033,356.766677 619.299976,357.8 624.1,357.8 C628.500022,357.8 631.683323,356.783344 633.65,354.75 C635.616677,352.716656 636.6,349.400023 636.6,344.8 L636.6,340.8 Z M627.7,335.1 C629.233341,335.1 630.783326,334.850003 632.35,334.35 C633.916674,333.849997 635.333327,333.166671 636.6,332.3 L636.6,307.7 C633.866653,306.033325 630.666685,305.2 627,305.2 C620.599968,305.2 617.4,310.133284 617.4,320 C617.4,325.133359 618.233325,328.933321 619.9,331.4 C621.566675,333.866679 624.166649,335.1 627.7,335.1 Z" id="primemusicbranding" fill="#052B50" fill-rule="nonzero"></path>
        <g id="Group-3" transform="translate(308.000000, 110.000000)">
            <mask id="mask-2" fill="white">
                <use xlink:href="#path-1"></use>
            </mask>
            <g id="Clip-2"></g>
            <path d="M15.75,35.755755 L15.75,35.745605 L15.75,35.733005 L15.55085,-0.000245 L13.5905,-0.000245 L13.73995,31.442355 C12.30285,30.074205 10.19375,29.209005 7.8407,29.209005 C3.5105,29.209005 0,32.135705 0,35.745605 C0,39.355505 3.5105,42.212205 7.8407,42.212205 C12.13345,42.212205 15.61805,39.549755 15.6786,35.699755 L15.75,35.699755 L15.75,35.755755 Z" id="Fill-1" fill="#052B50" mask="url(#mask-2)"></path>
        </g>
        <g id="Group-8" transform="translate(126.000000, 286.000000)">
            <g id="Group-3" transform="translate(0.000000, 0.310700)">
                <mask id="mask-4" fill="white">
                    <use xlink:href="#path-3"></use>
                </mask>
                <g id="Clip-2"></g>
                <path d="M30.27955,6.15885 C28.50855,3.97235 26.20255,2.34985 23.84955,1.38435 C23.55555,1.26085 23.26305,1.14235 22.96555,1.04585 L22.52405,0.89385 L22.26605,0.80835 L22.06755,0.75235 L21.66205,0.63835 L21.17805,0.51985 C20.85555,0.44185 20.56455,0.39585 20.25855,0.34535 C19.04455,0.16685 17.84905,0.14235 16.72255,0.26735 C14.46205,0.50585 12.52355,1.28235 10.99705,2.17185 C9.46605,3.07835 8.37705,4.17785 7.63655,5.16585 C6.88955,6.15635 6.48805,7.04785 6.24905,7.66085 C6.13155,7.96985 6.05655,8.21185 6.01455,8.38085 C5.99955,8.43235 5.98855,8.47385 5.97905,8.51085 C5.64805,9.22685 5.45305,10.02035 5.43405,10.85935 C5.36005,14.13085 7.95155,16.84385 11.22305,16.91785 C14.49455,16.99185 17.20655,14.39935 17.28105,11.12835 C17.35155,8.02385 15.01905,5.42685 11.98505,5.10635 C12.13505,5.03335 12.27955,4.95935 12.43505,4.88785 C13.72805,4.27585 15.27955,3.82235 16.96505,3.79435 C18.64855,3.75585 20.43755,4.17335 22.21705,5.04935 C23.99505,5.90535 25.64005,7.17735 26.96205,8.83885 C27.61705,9.67285 28.20305,10.59235 28.68705,11.59035 C29.16005,12.59335 29.55155,13.66185 29.83905,14.77935 C30.41505,17.01585 30.53905,19.43535 30.27655,21.82535 C30.14605,23.02785 29.91755,24.20485 29.59305,25.35885 C29.25205,26.54685 28.85155,27.62835 28.30305,28.68435 C27.76855,29.73335 27.15205,30.73835 26.44655,31.66985 C25.74105,32.60185 24.94205,33.45035 24.09955,34.23185 C22.40605,35.78385 20.51755,37.05785 18.57855,37.99585 C16.64505,38.94985 14.68205,39.60685 12.82405,40.04635 C10.96055,40.46435 9.20255,40.67935 7.63255,40.73585 C6.06255,40.78785 4.68205,40.71885 3.54805,40.59435 C2.41605,40.44935 1.52955,40.30635 0.92505,40.17135 C0.32155,40.03435 5e-05,39.96135 5e-05,39.96135 C5e-05,39.96135 0.30505,40.08635 0.87755,40.32085 C1.45105,40.54535 2.31455,40.86385 3.44005,41.16735 C4.56905,41.45435 5.96655,41.75085 7.60105,41.89035 C9.23305,42.03385 11.10305,42.06285 13.12955,41.81585 C15.14855,41.55635 17.34605,41.10635 19.55055,40.23185 C20.65855,39.81185 21.76905,39.29535 22.86355,38.68185 C23.41805,38.38585 23.95155,38.03935 24.49655,37.69635 C25.02355,37.32685 25.55755,36.95335 26.06705,36.53535 C28.12705,34.89785 30.00305,32.81735 31.41555,30.36935 C32.12505,29.16035 32.69855,27.80735 33.14705,26.49985 C33.60405,25.15435 33.95305,23.75635 34.17805,22.35335 C34.63105,19.53385 34.54305,16.60985 33.92555,13.80785 C33.31905,11.00535 32.07005,8.32835 30.27955,6.15885" id="Fill-1" fill="#052B50" mask="url(#mask-4)"></path>
            </g>
            <path d="M40.51195,19.6539 C42.54345,19.6539 44.19045,18.0069 44.19045,15.9754 C44.19045,13.9439 42.54345,12.2969 40.51195,12.2969 C38.48045,12.2969 36.83345,13.9439 36.83345,15.9754 C36.83345,18.0069 38.48045,19.6539 40.51195,19.6539" id="Fill-4" fill="#052B50"></path>
            <path d="M40.51195,24.29695 C38.48045,24.29695 36.83345,25.94395 36.83345,27.97545 C36.83345,30.00695 38.48045,31.65395 40.51195,31.65395 C42.54345,31.65395 44.19045,30.00695 44.19045,27.97545 C44.19045,25.94395 42.54345,24.29695 40.51195,24.29695" id="Fill-6" fill="#052B50"></path>
        </g>
        <g id="Group-3" transform="translate(562.000000, 116.000000)">
            <mask id="mask-6" fill="white">
                <use xlink:href="#path-5"></use>
            </mask>
            <g id="Clip-2"></g>
            <path d="M41.231645,36.33483 L41.231645,36.32468 C41.231645,36.32013 41.231645,36.31558 41.231645,36.31138 L41.100745,0.58338 L41.098995,0.58338 L41.096895,0.00028 L13.562395,3.42468 L13.609295,7.70343 L13.740195,35.17143 C12.303095,33.80328 10.193645,32.93808 7.840945,32.93808 C3.510395,32.93808 -0.000105,35.86443 -0.000105,39.47468 C-0.000105,43.08458 3.510395,45.94233 7.840945,45.94233 C12.132645,45.94233 15.616545,43.28338 15.678495,39.43338 L15.681645,39.43338 L15.681645,39.48483 L15.681645,39.47468 C15.681645,39.47013 15.681295,39.46558 15.681295,39.46138 L15.564395,7.47208 L39.158595,4.40083 L39.290195,32.02143 C37.853095,30.65328 35.743645,29.78808 33.390945,29.78808 C29.060395,29.78808 25.549895,32.71443 25.549895,36.32468 C25.549895,39.93458 29.060395,42.79233 33.390945,42.79233 C37.682645,42.79233 41.166545,40.13338 41.228495,36.28338 L41.231645,36.28338 L41.231645,36.33483 Z" id="Fill-1" fill="#052B50" mask="url(#mask-6)"></path>
        </g>
        <path d="M392.5,250 L392.5,259.142857 L384.5,259.142857 L384.5,252.539683 L381.5,252.539683 L381.5,259.142857 L374,259.142857 L374,262.190476 L381.5,262.190476 L381.5,269.809524 L374,269.809524 L374,272.857143 L381.5,272.857143 L381.5,282 L384.5,282 L384.5,272.857143 L392.5,272.857143 L392.5,279.460317 L395.5,279.460317 L395.5,272.857143 L403,272.857143 L403,269.809524 L395.5,269.809524 L395.5,262.190476 L403,262.190476 L403,259.142857 L395.5,259.142857 L395.5,250 L392.5,250 Z M384.5,269.809016 L392.5,269.809016 L392.5,262.190476 L384.5,262.190476 L384.5,269.809016 Z" id="Fill-1" fill="#052B50"></path>
    </g>
</svg>