<?xml version="1.0" encoding="UTF-8"?>
<svg width="500px" height="500px" viewBox="0 0 500 500" version="1.1" xmlns="http://www.w3.org/2000/svg" xmlns:xlink="http://www.w3.org/1999/xlink">
    <!-- Generator: Sketch 58 (84663) - https://sketch.com -->
    <title>one card</title>
    <desc>Created with Sketch.</desc>
    <g id="one-card" stroke="none" stroke-width="1" fill="none" fill-rule="evenodd">
        <path d="M95.0333333,216.8 C97.0066765,216.8 98.8733245,217.17333 100.633333,217.92 C102.393342,218.66667 103.92666,219.693327 105.233333,221 C106.540006,222.306673 107.566663,223.839991 108.313333,225.6 C109.060004,227.360009 109.433333,229.226657 109.433333,231.2 L109.433333,265.6 C109.433333,267.626677 109.060004,269.506658 108.313333,271.24 C107.566663,272.973342 106.540006,274.493327 105.233333,275.8 C103.92666,277.106673 102.393342,278.13333 100.633333,278.88 C98.8733245,279.62667 97.0066765,280 95.0333333,280 L83.8333333,280 C81.8066565,280 79.9266753,279.62667 78.1933333,278.88 C76.4599913,278.13333 74.9400065,277.120006 73.6333333,275.84 C72.3266601,274.559994 71.3000037,273.040009 70.5533333,271.28 C69.8066629,269.519991 69.4333333,267.626677 69.4333333,265.6 L69.4333333,231.2 C69.4333333,229.226657 69.8066629,227.360009 70.5533333,225.6 C71.3000037,223.839991 72.3266601,222.306673 73.6333333,221 C74.9400065,219.693327 76.4599913,218.66667 78.1933333,217.92 C79.9266753,217.17333 81.8066565,216.8 83.8333333,216.8 L95.0333333,216.8 Z M129.46,216.8 L147.7,253.76 L147.7,216.8 L158.9,216.8 L158.9,280 L148.42,280 L130.1,243.2 L130.1,280 L118.9,280 L118.9,216.8 L129.46,216.8 Z M208.366667,216.8 L208.366667,227.68 L179.566667,227.68 L179.566667,242.96 L200.366667,242.96 L200.366667,253.84 L179.566667,253.84 L179.566667,269.12 L208.366667,269.12 L208.366667,280 L168.366667,280 L168.366667,216.8 L208.366667,216.8 Z M270.5,216.8 C272.473343,216.8 274.313325,217.159996 276.02,217.88 C277.726675,218.600004 279.20666,219.559994 280.46,220.76 C281.71334,221.960006 282.726663,223.359992 283.5,224.96 C284.273337,226.560008 284.739999,228.239991 284.9,230 L273.7,232.8 C273.7,231.413326 273.220005,230.213338 272.26,229.2 C271.299995,228.186662 269.913342,227.68 268.1,227.68 L261.7,227.68 C257.966648,227.68 256.1,229.546648 256.1,233.28 L256.1,263.52 C256.1,267.253352 257.966648,269.12 261.7,269.12 L268.1,269.12 C269.860009,269.12 271.233328,268.680004 272.22,267.8 C273.206672,266.919996 273.7,265.706674 273.7,264.16 L284.9,266.96 C284.739999,268.666675 284.273337,270.306659 283.5,271.88 C282.726663,273.453341 281.71334,274.839994 280.46,276.04 C279.20666,277.240006 277.726675,278.199996 276.02,278.92 C274.313325,279.640004 272.473343,280 270.5,280 L259.3,280 C257.273323,280 255.393342,279.62667 253.66,278.88 C251.926658,278.13333 250.406673,277.106673 249.1,275.8 C247.793327,274.493327 246.76667,272.973342 246.02,271.24 C245.27333,269.506658 244.9,267.626677 244.9,265.6 L244.9,231.2 C244.9,229.226657 245.27333,227.360009 246.02,225.6 C246.76667,223.839991 247.793327,222.306673 249.1,221 C250.406673,219.693327 251.926658,218.66667 253.66,217.92 C255.393342,217.17333 257.273323,216.8 259.3,216.8 L270.5,216.8 Z M317.406667,216.8 L331.966667,280 L320.366667,280 L318.286667,269.52 L305.646667,269.52 L303.566667,280 L291.966667,280 L306.526667,216.8 L317.406667,216.8 Z M367.033333,216.8 C369.006677,216.8 370.873325,217.17333 372.633333,217.92 C374.393342,218.66667 375.92666,219.693327 377.233333,221 C378.540007,222.306673 379.566663,223.839991 380.313333,225.6 C381.060004,227.360009 381.433333,229.226657 381.433333,231.2 L381.433333,239.36 C381.433333,243.36002 380.566675,246.559988 378.833333,248.96 C377.099991,251.360012 374.713349,252.93333 371.673333,253.68 L381.433333,280 L369.433333,280 L359.833333,253.84 L352.633333,253.84 L352.633333,280 L341.433333,280 L341.433333,216.8 L367.033333,216.8 Z M416.5,216.8 C418.473343,216.8 420.339991,217.17333 422.1,217.92 C423.860009,218.66667 425.393327,219.693327 426.7,221 C428.006673,222.306673 429.03333,223.839991 429.78,225.6 C430.52667,227.360009 430.9,229.226657 430.9,231.2 L430.9,265.6 C430.9,267.626677 430.52667,269.506658 429.78,271.24 C429.03333,272.973342 428.006673,274.493327 426.7,275.8 C425.393327,277.106673 423.860009,278.13333 422.1,278.88 C420.339991,279.62667 418.473343,280 416.5,280 L390.9,280 L390.9,269.12 L394.1,269.12 L394.1,227.68 L390.9,227.68 L390.9,216.8 L416.5,216.8 Z M92.6333333,227.68 L86.2333333,227.68 C82.4999813,227.68 80.6333333,229.546648 80.6333333,233.28 L80.6333333,263.52 C80.6333333,267.253352 82.4999813,269.12 86.2333333,269.12 L92.6333333,269.12 C94.4466757,269.12 95.8333285,268.626672 96.7933333,267.64 C97.7533381,266.653328 98.2333333,265.280009 98.2333333,263.52 L98.2333333,233.28 C98.2333333,229.546648 96.3666853,227.68 92.6333333,227.68 Z M414.1,227.68 L405.3,227.68 L405.299333,227.999 L405,228 L405,269 L405.299333,268.999 L405.3,269.12 L414.1,269.12 C414.646373,269.12 415.152765,269.08002 415.619176,269.00006 L416,269 C418.209139,269 420,267.209139 420,265 L420,265 L420,232 C420,229.989276 418.516387,228.325069 416.584129,228.042345 C415.877197,227.800587 415.048894,227.68 414.1,227.68 L414.1,227.68 Z M311.966667,239.52 C311.699999,239.52 311.513334,239.679998 311.406667,240 C311.299999,240.320002 311.22,240.586666 311.166667,240.8 L307.726667,258.64 L316.206667,258.64 L312.766667,240.8 C312.713333,240.586666 312.633334,240.320002 312.526667,240 C312.419999,239.679998 312.233335,239.52 311.966667,239.52 Z M364.633333,227.68 L352.633333,227.68 L352.633333,242.96 L364.633333,242.96 C368.366685,242.96 370.233333,241.093352 370.233333,237.36 L370.233333,233.28 C370.233333,231.466658 369.740005,230.080005 368.753333,229.12 C367.766662,228.159995 366.393342,227.68 364.633333,227.68 Z" id="Combined-Shape" fill="#FFB7B7" fill-rule="nonzero"></path>
        <text id="•-•-•-•-0388" font-family="CharlesWright-Bold, Charles Wright" font-size="30" font-weight="bold" letter-spacing="-1.5" fill="#FFB7B7">
            <tspan x="291.41" y="327">• • • •</tspan>
            <tspan x="351.65" y="327" letter-spacing="0.250000004"> 0388</tspan>
        </text>
    </g>
</svg>