<?xml version="1.0" encoding="UTF-8"?>
<svg width="500px" height="500px" viewBox="0 0 500 500" version="1.1" xmlns="http://www.w3.org/2000/svg" xmlns:xlink="http://www.w3.org/1999/xlink">
    <title>one card</title>
    <g id="one-card" stroke="none" stroke-width="1" fill="none" fill-rule="evenodd">
        <path d="M95.0333333,216.8 C97.0066765,216.8 98.8733245,217.17333 100.633333,217.92 C102.393342,218.66667 103.92666,219.693327 105.233333,221 C106.540006,222.306673 107.566663,223.839991 108.313333,225.6 C109.060004,227.360009 109.433333,229.226657 109.433333,231.2 L109.433333,265.6 C109.433333,267.626677 109.060004,269.506658 108.313333,271.24 C107.566663,272.973342 106.540006,274.493327 105.233333,275.8 C103.92666,277.106673 102.393342,278.13333 100.633333,278.88 C98.8733245,279.62667 97.0066765,280 95.0333333,280 L83.8333333,280 C81.8066565,280 79.9266753,279.62667 78.1933333,278.88 C76.4599913,278.13333 74.9400065,277.120006 73.6333333,275.84 C72.3266601,274.559994 71.3000037,273.040009 70.5533333,271.28 C69.8066629,269.519991 69.4333333,267.626677 69.4333333,265.6 L69.4333333,231.2 C69.4333333,229.226657 69.8066629,227.360009 70.5533333,225.6 C71.3000037,223.839991 72.3266601,222.306673 73.6333333,221 C74.9400065,219.693327 76.4599913,218.66667 78.1933333,217.92 C79.9266753,217.17333 81.8066565,216.8 83.8333333,216.8 L95.0333333,216.8 Z M129.46,216.8 L147.7,253.76 L147.7,216.8 L158.9,216.8 L158.9,280 L148.42,280 L130.1,243.2 L130.1,280 L118.9,280 L118.9,216.8 L129.46,216.8 Z M208.366667,216.8 L208.366667,227.68 L179.566667,227.68 L179.566667,242.96 L200.366667,242.96 L200.366667,253.84 L179.566667,253.84 L179.566667,269.12 L208.366667,269.12 L208.366667,280 L168.366667,280 L168.366667,216.8 L208.366667,216.8 Z M270.5,216.8 C272.473343,216.8 274.313325,217.159996 276.02,217.88 C277.726675,218.600004 279.20666,219.559994 280.46,220.76 C281.71334,221.960006 282.726663,223.359992 283.5,224.96 C284.273337,226.560008 284.739999,228.239991 284.9,230 L273.7,232.8 C273.7,231.413326 273.220005,230.213338 272.26,229.2 C271.299995,228.186662 269.913342,227.68 268.1,227.68 L261.7,227.68 C257.966648,227.68 256.1,229.546648 256.1,233.28 L256.1,263.52 C256.1,267.253352 257.966648,269.12 261.7,269.12 L268.1,269.12 C269.860009,269.12 271.233328,268.680004 272.22,267.8 C273.206672,266.919996 273.7,265.706674 273.7,264.16 L284.9,266.96 C284.739999,268.666675 284.273337,270.306659 283.5,271.88 C282.726663,273.453341 281.71334,274.839994 280.46,276.04 C279.20666,277.240006 277.726675,278.199996 276.02,278.92 C274.313325,279.640004 272.473343,280 270.5,280 L259.3,280 C257.273323,280 255.393342,279.62667 253.66,278.88 C251.926658,278.13333 250.406673,277.106673 249.1,275.8 C247.793327,274.493327 246.76667,272.973342 246.02,271.24 C245.27333,269.506658 244.9,267.626677 244.9,265.6 L244.9,231.2 C244.9,229.226657 245.27333,227.360009 246.02,225.6 C246.76667,223.839991 247.793327,222.306673 249.1,221 C250.406673,219.693327 251.926658,218.66667 253.66,217.92 C255.393342,217.17333 257.273323,216.8 259.3,216.8 L270.5,216.8 Z M317.406667,216.8 L331.966667,280 L320.366667,280 L318.286667,269.52 L305.646667,269.52 L303.566667,280 L291.966667,280 L306.526667,216.8 L317.406667,216.8 Z M367.033333,216.8 C369.006677,216.8 370.873325,217.17333 372.633333,217.92 C374.393342,218.66667 375.92666,219.693327 377.233333,221 C378.540007,222.306673 379.566663,223.839991 380.313333,225.6 C381.060004,227.360009 381.433333,229.226657 381.433333,231.2 L381.433333,239.36 C381.433333,243.36002 380.566675,246.559988 378.833333,248.96 C377.099991,251.360012 374.713349,252.93333 371.673333,253.68 L381.433333,280 L369.433333,280 L359.833333,253.84 L352.633333,253.84 L352.633333,280 L341.433333,280 L341.433333,216.8 L367.033333,216.8 Z M416.5,216.8 C418.473343,216.8 420.339991,217.17333 422.1,217.92 C423.860009,218.66667 425.393327,219.693327 426.7,221 C428.006673,222.306673 429.03333,223.839991 429.78,225.6 C430.52667,227.360009 430.9,229.226657 430.9,231.2 L430.9,265.6 C430.9,267.626677 430.52667,269.506658 429.78,271.24 C429.03333,272.973342 428.006673,274.493327 426.7,275.8 C425.393327,277.106673 423.860009,278.13333 422.1,278.88 C420.339991,279.62667 418.473343,280 416.5,280 L390.9,280 L390.9,269.12 L394.1,269.12 L394.1,227.68 L390.9,227.68 L390.9,216.8 L416.5,216.8 Z M92.6333333,227.68 L86.2333333,227.68 C82.4999813,227.68 80.6333333,229.546648 80.6333333,233.28 L80.6333333,263.52 C80.6333333,267.253352 82.4999813,269.12 86.2333333,269.12 L92.6333333,269.12 C94.4466757,269.12 95.8333285,268.626672 96.7933333,267.64 C97.7533381,266.653328 98.2333333,265.280009 98.2333333,263.52 L98.2333333,233.28 C98.2333333,229.546648 96.3666853,227.68 92.6333333,227.68 Z M414.1,227.68 L405.3,227.68 L405.299333,227.999 L405,228 L405,269 L405.299333,268.999 L405.3,269.12 L414.1,269.12 C414.646373,269.12 415.152765,269.08002 415.619176,269.00006 L416,269 C418.209139,269 420,267.209139 420,265 L420,265 L420,232 C420,229.989276 418.516387,228.325069 416.584129,228.042345 C415.877197,227.800587 415.048894,227.68 414.1,227.68 L414.1,227.68 Z M311.966667,239.52 C311.699999,239.52 311.513334,239.679998 311.406667,240 C311.299999,240.320002 311.22,240.586666 311.166667,240.8 L307.726667,258.64 L316.206667,258.64 L312.766667,240.8 C312.713333,240.586666 312.633334,240.320002 312.526667,240 C312.419999,239.679998 312.233335,239.52 311.966667,239.52 Z M364.633333,227.68 L352.633333,227.68 L352.633333,242.96 L364.633333,242.96 C368.366685,242.96 370.233333,241.093352 370.233333,237.36 L370.233333,233.28 C370.233333,231.466658 369.740005,230.080005 368.753333,229.12 C367.766662,228.159995 366.393342,227.68 364.633333,227.68 Z" fill="#FFB7B7" fill-rule="nonzero"></path>
        <path d="M298.67,315.15 C298.67,315.650003 298.575001,316.119998 298.385,316.56 C298.194999,317.000002 297.935002,317.384998 297.605,317.715 C297.274998,318.045002 296.890002,318.304999 296.45,318.495 C296.009998,318.685001 295.540002,318.78 295.04,318.78 C294.539997,318.78 294.070002,318.685001 293.63,318.495 C293.189998,318.304999 292.805002,318.045002 292.475,317.715 C292.144998,317.384998 291.885001,317.000002 291.695,316.56 C291.504999,316.119998 291.41,315.650003 291.41,315.15 C291.41,314.649997 291.504999,314.180002 291.695,313.74 C291.885001,313.299998 292.144998,312.915002 292.475,312.585 C292.805002,312.254998 293.189998,311.995001 293.63,311.805 C294.070002,311.614999 294.539997,311.52 295.04,311.52 C295.540002,311.52 296.009998,311.614999 296.45,311.805 C296.890002,311.995001 297.274998,312.254998 297.605,312.585 C297.935002,312.915002 298.194999,313.299998 298.385,313.74 C298.575001,314.180002 298.67,314.649997 298.67,315.15 Z M315.83,315.15 C315.83,315.650003 315.735001,316.119998 315.545,316.56 C315.354999,317.000002 315.095002,317.384998 314.765,317.715 C314.434998,318.045002 314.050002,318.304999 313.61,318.495 C313.169998,318.685001 312.700002,318.78 312.2,318.78 C311.699997,318.78 311.230002,318.685001 310.79,318.495 C310.349998,318.304999 309.965002,318.045002 309.635,317.715 C309.304998,317.384998 309.045001,317.000002 308.855,316.56 C308.664999,316.119998 308.57,315.650003 308.57,315.15 C308.57,314.649997 308.664999,314.180002 308.855,313.74 C309.045001,313.299998 309.304998,312.915002 309.635,312.585 C309.965002,312.254998 310.349998,311.995001 310.79,311.805 C311.230002,311.614999 311.699997,311.52 312.2,311.52 C312.700002,311.52 313.169998,311.614999 313.61,311.805 C314.050002,311.995001 314.434998,312.254998 314.765,312.585 C315.095002,312.915002 315.354999,313.299998 315.545,313.74 C315.735001,314.180002 315.83,314.649997 315.83,315.15 Z M332.99,315.15 C332.99,315.650003 332.895001,316.119998 332.705,316.56 C332.514999,317.000002 332.255002,317.384998 331.925,317.715 C331.594998,318.045002 331.210002,318.304999 330.77,318.495 C330.329998,318.685001 329.860002,318.78 329.36,318.78 C328.859997,318.78 328.390002,318.685001 327.95,318.495 C327.509998,318.304999 327.125002,318.045002 326.795,317.715 C326.464998,317.384998 326.205001,317.000002 326.015,316.56 C325.824999,316.119998 325.73,315.650003 325.73,315.15 C325.73,314.649997 325.824999,314.180002 326.015,313.74 C326.205001,313.299998 326.464998,312.915002 326.795,312.585 C327.125002,312.254998 327.509998,311.995001 327.95,311.805 C328.390002,311.614999 328.859997,311.52 329.36,311.52 C329.860002,311.52 330.329998,311.614999 330.77,311.805 C331.210002,311.995001 331.594998,312.254998 331.925,312.585 C332.255002,312.915002 332.514999,313.299998 332.705,313.74 C332.895001,314.180002 332.99,314.649997 332.99,315.15 Z M350.15,315.15 C350.15,315.650003 350.055001,316.119998 349.865,316.56 C349.674999,317.000002 349.415002,317.384998 349.085,317.715 C348.754998,318.045002 348.370002,318.304999 347.93,318.495 C347.489998,318.685001 347.020002,318.78 346.52,318.78 C346.019997,318.78 345.550002,318.685001 345.11,318.495 C344.669998,318.304999 344.285002,318.045002 343.955,317.715 C343.624998,317.384998 343.365001,317.000002 343.175,316.56 C342.984999,316.119998 342.89,315.650003 342.89,315.15 C342.89,314.649997 342.984999,314.180002 343.175,313.74 C343.365001,313.299998 343.624998,312.915002 343.955,312.585 C344.285002,312.254998 344.669998,311.995001 345.11,311.805 C345.550002,311.614999 346.019997,311.52 346.52,311.52 C347.020002,311.52 347.489998,311.614999 347.93,311.805 C348.370002,311.995001 348.754998,312.254998 349.085,312.585 C349.415002,312.915002 349.674999,313.299998 349.865,313.74 C350.055001,314.180002 350.15,314.649997 350.15,315.15 Z M378.45,321.6 C378.45,322.360004 378.310001,323.064997 378.03,323.715 C377.749999,324.365003 377.365002,324.934998 376.875,325.425 C376.384998,325.915002 375.810003,326.3 375.15,326.58 C374.489997,326.860001 373.790004,327 373.05,327 L368.85,327 C368.089996,327 367.385003,326.860001 366.735,326.58 C366.084997,326.3 365.515002,325.920002 365.025,325.44 C364.534998,324.959998 364.150001,324.390003 363.87,323.73 C363.589999,323.069997 363.45,322.360004 363.45,321.6 L363.45,308.7 C363.45,307.959996 363.589999,307.260003 363.87,306.6 C364.150001,305.939997 364.534998,305.365002 365.025,304.875 C365.515002,304.384998 366.084997,304.000001 366.735,303.72 C367.385003,303.439999 368.089996,303.3 368.85,303.3 L373.05,303.3 C373.790004,303.3 374.489997,303.439999 375.15,303.72 C375.810003,304.000001 376.384998,304.384998 376.875,304.875 C377.365002,305.365002 377.749999,305.939997 378.03,306.6 C378.310001,307.260003 378.45,307.959996 378.45,308.7 L378.45,321.6 Z M374.25,320.82 L374.25,309.48 C374.25,308.079993 373.550007,307.38 372.15,307.38 L369.75,307.38 C368.349993,307.38 367.65,308.079993 367.65,309.48 L367.65,320.82 C367.65,322.220007 368.349993,322.92 369.75,322.92 L372.15,322.92 C372.830003,322.92 373.349998,322.735002 373.71,322.365 C374.070002,321.994998 374.25,321.480003 374.25,320.82 Z M397,321.6 C397,322.360004 396.860001,323.064997 396.58,323.715 C396.299999,324.365003 395.920002,324.934998 395.44,325.425 C394.959998,325.915002 394.390003,326.3 393.73,326.58 C393.069997,326.860001 392.360004,327 391.6,327 L387.4,327 C386.639996,327 385.945003,326.870001 385.315,326.61 C384.684997,326.349999 384.130002,326.000002 383.65,325.56 C383.169998,325.119998 382.790001,324.610003 382.51,324.03 C382.229999,323.449997 382.06,322.830003 382,322.17 L386.2,321.12 C386.2,321.640003 386.374998,322.069998 386.725,322.41 C387.075002,322.750002 387.599996,322.92 388.3,322.92 L390.7,322.92 C392.100007,322.92 392.8,322.220007 392.8,320.82 L392.8,319.29 C392.8,317.889993 392.100007,317.19 390.7,317.19 L388.45,317.19 L388.45,313.11 L390.7,313.11 C392.100007,313.11 392.8,312.410007 392.8,311.01 L392.8,309.48 C392.8,308.079993 392.100007,307.38 390.7,307.38 L388.3,307.38 C387.619997,307.38 387.100002,307.569998 386.74,307.95 C386.379998,308.330002 386.2,308.749998 386.2,309.21 L382,308.13 C382.08,307.489997 382.264999,306.875003 382.555,306.285 C382.845001,305.694997 383.224998,305.180002 383.695,304.74 C384.165002,304.3 384.709997,303.950001 385.33,303.69 C385.950003,303.429999 386.639996,303.3 387.4,303.3 L391.6,303.3 C392.340004,303.3 393.039997,303.439999 393.7,303.72 C394.360003,304.000001 394.934998,304.384998 395.425,304.875 C395.915002,305.365002 396.299999,305.939997 396.58,306.6 C396.860001,307.260003 397,307.959996 397,308.7 L397,311.43 C397,312.290004 396.815002,313.044997 396.445,313.695 C396.074998,314.345003 395.600003,314.809999 395.02,315.09 C395.660003,315.470002 396.149998,315.964997 396.49,316.575 C396.830002,317.185003 397,317.939996 397,318.84 L397,321.6 Z M415.55,321.6 C415.55,322.360004 415.410001,323.064997 415.13,323.715 C414.849999,324.365003 414.465002,324.934998 413.975,325.425 C413.484998,325.915002 412.910003,326.3 412.25,326.58 C411.589997,326.860001 410.890004,327 410.15,327 L405.95,327 C405.189996,327 404.485003,326.860001 403.835,326.58 C403.184997,326.3 402.615002,325.915002 402.125,325.425 C401.634998,324.934998 401.250001,324.365003 400.97,323.715 C400.689999,323.064997 400.55,322.360004 400.55,321.6 L400.55,318.99 C400.55,318.429997 400.599999,317.945002 400.7,317.535 C400.8,317.124998 400.939999,316.770001 401.12,316.47 C401.300001,316.169999 401.509999,315.915001 401.75,315.705 C401.990001,315.494999 402.249999,315.3 402.53,315.12 C402.309999,314.999999 402.080001,314.840001 401.84,314.64 C401.599999,314.439999 401.385001,314.190001 401.195,313.89 C401.004999,313.589998 400.850001,313.230002 400.73,312.81 C400.609999,312.389998 400.55,311.890003 400.55,311.31 L400.55,308.7 C400.55,307.959996 400.689999,307.260003 400.97,306.6 C401.250001,305.939997 401.634998,305.365002 402.125,304.875 C402.615002,304.384998 403.189997,304.000001 403.85,303.72 C404.510003,303.439999 405.209996,303.3 405.95,303.3 L410.15,303.3 C410.890004,303.3 411.589997,303.439999 412.25,303.72 C412.910003,304.000001 413.484998,304.384998 413.975,304.875 C414.465002,305.365002 414.849999,305.939997 415.13,306.6 C415.410001,307.260003 415.55,307.959996 415.55,308.7 L415.55,311.31 C415.55,311.870003 415.490001,312.359998 415.37,312.78 C415.249999,313.200002 415.095001,313.559999 414.905,313.86 C414.714999,314.160002 414.500001,314.414999 414.26,314.625 C414.019999,314.835001 413.790001,314.999999 413.57,315.12 C413.830001,315.3 414.079999,315.494999 414.32,315.705 C414.560001,315.915001 414.769999,316.169999 414.95,316.47 C415.130001,316.770001 415.274999,317.124998 415.385,317.535 C415.495001,317.945002 415.55,318.429997 415.55,318.99 L415.55,321.6 Z M411.35,311.01 L411.35,309.48 C411.35,308.079993 410.650007,307.38 409.25,307.38 L406.85,307.38 C405.449993,307.38 404.75,308.079993 404.75,309.48 L404.75,311.01 C404.75,312.410007 405.449993,313.11 406.85,313.11 L409.25,313.11 C409.910003,313.11 410.424998,312.930002 410.795,312.57 C411.165002,312.209998 411.35,311.690003 411.35,311.01 Z M411.35,320.82 L411.35,319.29 C411.35,317.889993 410.650007,317.19 409.25,317.19 L406.85,317.19 C405.449993,317.19 404.75,317.889993 404.75,319.29 L404.75,320.82 C404.75,322.220007 405.449993,322.92 406.85,322.92 L409.25,322.92 C409.910003,322.92 410.424998,322.740002 410.795,322.38 C411.165002,322.019998 411.35,321.500003 411.35,320.82 Z" id="••••0388" fill="#FFB7B7" fill-rule="nonzero"></path>
        <path d="M428.6,303 C429.340004,303 430.039997,303.139999 430.7,303.42 C431.360003,303.700001 431.934998,304.084998 432.425,304.575 C432.915002,305.065002 433.299999,305.639997 433.58,306.3 C433.860001,306.960003 434,307.659996 434,308.4 L434,311.01 C434,311.570003 433.940001,312.059998 433.82,312.48 C433.699999,312.900002 433.545001,313.259999 433.355,313.56 C433.164999,313.860002 432.950001,314.114999 432.71,314.325 C432.469999,314.535001 432.240001,314.699999 432.02,314.82 C432.280001,315 432.529999,315.194999 432.77,315.405 C433.010001,315.615001 433.219999,315.869999 433.4,316.17 C433.580001,316.470001 433.724999,316.824998 433.835,317.235 C433.945001,317.645002 434,318.129997 434,318.69 L434,321.3 C434,322.060004 433.860001,322.764997 433.58,323.415 C433.299999,324.065003 432.915002,324.634998 432.425,325.125 C431.934998,325.615002 431.360003,326 430.7,326.28 C430.039997,326.560001 429.340004,326.7 428.6,326.7 L424.4,326.7 C423.639996,326.7 422.935003,326.560001 422.285,326.28 C421.634997,326 421.065002,325.615002 420.575,325.125 C420.084998,324.634998 419.700001,324.065003 419.42,323.415 C419.139999,322.764997 419,322.060004 419,321.3 L419,318.69 C419,318.129997 419.05,317.645002 419.15,317.235 C419.25,316.824998 419.389999,316.470001 419.57,316.17 C419.750001,315.869999 419.959999,315.615001 420.2,315.405 C420.440001,315.194999 420.699999,315 420.98,314.82 C420.759999,314.699999 420.530001,314.540001 420.29,314.34 C420.049999,314.139999 419.835001,313.890002 419.645,313.59 C419.454999,313.289999 419.300001,312.930002 419.18,312.51 C419.059999,312.089998 419,311.590003 419,311.01 L419,308.4 C419,307.659996 419.139999,306.960003 419.42,306.3 C419.700001,305.639997 420.084998,305.065002 420.575,304.575 C421.065002,304.084998 421.639997,303.700001 422.3,303.42 C422.960003,303.139999 423.659996,303 424.4,303 L428.6,303 Z M427.7,316.89 L425.3,316.89 C423.899993,316.89 423.2,317.589993 423.2,318.99 L423.2,318.99 L423.2,320.52 C423.2,321.920007 423.899993,322.62 425.3,322.62 L425.3,322.62 L427.7,322.62 C428.360003,322.62 428.874998,322.440002 429.245,322.08 C429.615002,321.719998 429.8,321.200003 429.8,320.52 L429.8,320.52 L429.8,318.99 C429.8,317.589993 429.100007,316.89 427.7,316.89 L427.7,316.89 Z M427.7,307.08 L425.3,307.08 C423.899993,307.08 423.2,307.779993 423.2,309.18 L423.2,310.71 C423.2,312.110007 423.899993,312.81 425.3,312.81 L427.7,312.81 C428.360003,312.81 428.874998,312.630002 429.245,312.27 C429.615002,311.909998 429.8,311.390003 429.8,310.71 L429.8,309.18 C429.8,307.779993 429.100007,307.08 427.7,307.08 Z" id="Combined-Shape" fill="#FFB7B7"></path>
    </g>
</svg>