<svg width="700" height="500" viewBox="0 0 700 500" fill="none" xmlns="http://www.w3.org/2000/svg">
<g id="page_builder">
<g id="Group 2">
<rect id="Rectangle" x="64.5" y="171.5" width="571" height="123" stroke="#006AFF"/>
<rect id="Rectangle_2" x="60" y="167" width="8" height="8" fill="white" stroke="#006AFF"/>
<rect id="Rectangle Copy 3" x="346" y="167" width="8" height="8" fill="white" stroke="#006AFF"/>
<rect id="Rectangle Copy 6" x="632" y="167" width="8" height="8" fill="white" stroke="#006AFF"/>
<rect id="Rectangle Copy" x="60" y="230" width="8" height="8" fill="white" stroke="#006AFF"/>
<rect id="Rectangle Copy 7" x="632" y="230" width="8" height="8" fill="white" stroke="#006AFF"/>
<rect id="Rectangle Copy 2" x="60" y="291" width="8" height="8" fill="white" stroke="#006AFF"/>
<rect id="Rectangle Copy 5" x="346" y="291" width="8" height="8" fill="white" stroke="#006AFF"/>
<rect id="Rectangle Copy 8" x="632" y="291" width="8" height="8" fill="white" stroke="#006AFF"/>
<g id="hand_cursor_free_vector">
<g id="Group 4">
<mask id="mask0" mask-type="alpha" maskUnits="userSpaceOnUse" x="445" y="269" width="45" height="49">
<path id="Clip 2" fill-rule="evenodd" clip-rule="evenodd" d="M445.237 283.277L472.944 269.764L489.867 304.463L462.16 317.976L445.237 283.277Z" fill="white"/>
</mask>
<g mask="url(#mask0)">
<path id="Fill 1" fill-rule="evenodd" clip-rule="evenodd" d="M453.182 280.953L460.896 295.801L458.881 296.785L456.934 296.25L453.234 297.65L454.725 300.43L456.422 301.422L459.315 302.237L460.865 304.448L463.27 305.231L464.286 306.623L465.851 307.343L467.594 309.257L468.942 309.949L470.998 313.194L486.49 306.11L484.981 302.463L485.655 300.111L484.473 296.305L484.926 294.331L479.765 284.441L475.385 283.341L472.783 283.261L471.537 283.194L467.298 284.318L465.786 283.707L462.115 284.89L458.406 278.945L456.138 278.028L454.641 278.691L453.182 280.953Z" fill="white"/>
<path id="Fill 3" fill-rule="evenodd" clip-rule="evenodd" d="M454.35 301.961L455.855 301.227L453.464 296.324L451.958 297.059L454.35 301.961Z" fill="#006AFF"/>
</g>
</g>
<path id="Fill 5" fill-rule="evenodd" clip-rule="evenodd" d="M462.725 302.731L464.632 301.801L453.978 279.958L452.071 280.888L462.725 302.731Z" fill="#006AFF"/>
<path id="Fill 6" fill-rule="evenodd" clip-rule="evenodd" d="M469.703 290.495L471.61 289.565L468.395 282.973L466.488 283.903L469.703 290.495Z" fill="#006AFF"/>
<path id="Fill 7" fill-rule="evenodd" clip-rule="evenodd" d="M475.322 289.71L477.229 288.78L474.067 282.297L472.16 283.227L475.322 289.71Z" fill="#006AFF"/>
<path id="Fill 8" fill-rule="evenodd" clip-rule="evenodd" d="M484.423 295.79L486.33 294.86L480.751 283.42L478.844 284.35L484.423 295.79Z" fill="#006AFF"/>
<path id="Fill 9" fill-rule="evenodd" clip-rule="evenodd" d="M485.725 306.753L487.631 305.823L485.453 301.357L483.546 302.286L485.725 306.753Z" fill="#006AFF"/>
<path id="Fill 10" fill-rule="evenodd" clip-rule="evenodd" d="M485.235 301.463L487.141 300.533L484.724 295.576L482.817 296.506L485.235 301.463Z" fill="#006AFF"/>
<path id="Fill 11" fill-rule="evenodd" clip-rule="evenodd" d="M464.567 293.235L466.474 292.305L459.194 277.38L457.287 278.31L464.567 293.235Z" fill="#006AFF"/>
<path id="Fill 12" fill-rule="evenodd" clip-rule="evenodd" d="M452.872 298.704L457.556 296.419L456.732 294.73L452.048 297.015L452.872 298.704Z" fill="#006AFF"/>
<path id="Fill 13" fill-rule="evenodd" clip-rule="evenodd" d="M470.712 314.682L487.871 306.313L487.047 304.624L469.888 312.994L470.712 314.682Z" fill="#006AFF"/>
<path id="Fill 14" fill-rule="evenodd" clip-rule="evenodd" d="M456.652 302.861L458.45 301.984L457.626 300.296L455.829 301.173L456.652 302.861Z" fill="#006AFF"/>
<path id="Fill 15" fill-rule="evenodd" clip-rule="evenodd" d="M460.149 305.606L461.783 304.809L459.977 301.105L458.343 301.902L460.149 305.606Z" fill="#006AFF"/>
<path id="Fill 16" fill-rule="evenodd" clip-rule="evenodd" d="M463.349 308.159L465.202 307.255L463.581 303.933L461.729 304.836L463.349 308.159Z" fill="#006AFF"/>
<path id="Fill 17" fill-rule="evenodd" clip-rule="evenodd" d="M466.769 310.469L468.403 309.672L466.809 306.404L465.175 307.201L466.769 310.469Z" fill="#006AFF"/>
<path id="Fill 18" fill-rule="evenodd" clip-rule="evenodd" d="M470.021 313.266L471.873 312.362L470.146 308.822L468.294 309.725L470.021 313.266Z" fill="#006AFF"/>
<path id="Fill 19" fill-rule="evenodd" clip-rule="evenodd" d="M458.434 298.081L461.049 296.806L460.225 295.117L457.61 296.392L458.434 298.081Z" fill="#006AFF"/>
<path id="Fill 20" fill-rule="evenodd" clip-rule="evenodd" d="M473.798 284.789L476.413 283.513L475.483 281.607L472.868 282.882L473.798 284.789Z" fill="#006AFF"/>
<path id="Fill 21" fill-rule="evenodd" clip-rule="evenodd" d="M477.236 285.189L478.866 284.395L478.057 282.736L476.427 283.531L477.236 285.189Z" fill="#006AFF"/>
<path id="Fill 22" fill-rule="evenodd" clip-rule="evenodd" d="M454.032 279.932L457.301 278.338L456.477 276.649L453.209 278.243L454.032 279.932Z" fill="#006AFF"/>
<path id="Fill 23" fill-rule="evenodd" clip-rule="evenodd" d="M468.697 284.984L472.241 283.255L471.398 281.527L467.854 283.256L468.697 284.984Z" fill="#006AFF"/>
<path id="Fill 24" fill-rule="evenodd" clip-rule="evenodd" d="M463.096 285.533L466.473 283.886L465.672 282.245L462.295 283.892L463.096 285.533Z" fill="#006AFF"/>
</g>
<path id="pagebuilder" fill-rule="evenodd" clip-rule="evenodd" d="M322.03 191H310V255.914C312.175 256.644 315.013 257.341 318.513 258.004C322.013 258.668 325.837 259 329.983 259C334.129 259 337.867 258.32 341.197 256.959C344.528 255.598 347.365 253.773 349.71 251.483C352.055 249.193 353.856 246.505 355.114 243.419C356.371 240.332 357 237.03 357 233.512C357 230.26 356.507 227.174 355.522 224.253C354.536 221.333 353.092 218.811 351.189 216.687C349.286 214.563 346.992 212.87 344.307 211.609C341.622 210.348 338.547 209.717 335.08 209.717C331.818 209.717 329.031 210.215 326.72 211.211C324.409 212.206 322.846 213.102 322.03 213.899V191ZM171.9 257.2C174.5 256 176.433 254.633 177.7 253.1L178 257.5H189V226C189 223.533 188.533 221.25 187.6 219.15C186.667 217.05 185.333 215.25 183.6 213.75C181.867 212.25 179.783 211.083 177.35 210.25C174.917 209.417 172.2 209 169.2 209C166.4 209 163.95 209.183 161.85 209.55C159.75 209.917 157.9 210.383 156.3 210.95C154.7 211.517 153.3 212.15 152.1 212.85C150.9 213.55 149.833 214.233 148.9 214.9L154.3 222.9C155.833 221.9 157.6 220.967 159.6 220.1C161.6 219.233 164.267 218.8 167.6 218.8C170.6 218.8 173.033 219.467 174.9 220.8C176.767 222.133 177.7 223.967 177.7 226.3V227.4C176.433 227.333 175.2 227.267 174 227.2L173.194 227.153C172.381 227.109 171.55 227.075 170.7 227.05C169.567 227.017 168.533 227 167.6 227C164.533 227 161.733 227.367 159.2 228.1C156.667 228.833 154.5 229.917 152.7 231.35C150.9 232.783 149.5 234.55 148.5 236.65C147.5 238.75 147 241.133 147 243.8C147 246.4 147.483 248.667 148.45 250.6C149.417 252.533 150.683 254.117 152.25 255.35C153.817 256.583 155.55 257.5 157.45 258.1C159.35 258.7 161.267 259 163.2 259C166.4 259 169.3 258.4 171.9 257.2ZM93 210.903H104.472L104.774 216.218C105.377 215.55 106.132 214.848 107.038 214.112C107.943 213.377 109.017 212.708 110.258 212.106C111.499 211.504 112.908 211.003 114.484 210.602C116.061 210.201 117.822 210 119.767 210C123.39 210 126.526 210.702 129.176 212.106C131.826 213.51 134.023 215.366 135.767 217.673C137.512 219.979 138.82 222.604 139.692 225.546C140.564 228.488 141 231.53 141 234.673C141 238.35 140.463 241.493 139.39 244.1C138.317 246.708 136.975 248.981 135.365 250.92C132.681 254.13 129.746 256.37 126.56 257.64C123.373 258.911 120.103 259.546 116.748 259.546C115.205 259.546 113.881 259.479 112.774 259.345C111.667 259.211 110.66 259.028 109.755 258.794C108.849 258.559 108.01 258.292 107.239 257.991L105.418 257.286C105.207 257.204 104.992 257.122 104.774 257.038V278H93V210.903ZM105 247.1C107.324 249.033 110.842 250 115.556 250C117.681 250 119.573 249.583 121.232 248.75C122.892 247.917 124.303 246.817 125.465 245.45C126.627 244.083 127.506 242.533 128.104 240.8C128.701 239.067 129 237.267 129 235.4C129 233.4 128.784 231.533 128.353 229.8C127.921 228.067 127.224 226.55 126.261 225.25C125.299 223.95 124.054 222.917 122.527 222.15C121 221.383 119.108 221 116.851 221C115.058 221 113.432 221.383 111.971 222.15C110.51 222.917 109.266 223.9 108.237 225.1C107.207 226.3 106.411 227.617 105.846 229.05C105.282 230.483 105 231.867 105 233.2V247.1ZM178 241.072V236.406L174.392 236.203C173.67 236.152 172.919 236.111 172.14 236.079L171.351 236.051C170.418 236.021 169.605 236.004 168.909 236.001L168.619 236C164.701 236 161.952 236.761 160.371 238.283C158.79 239.804 158 241.546 158 243.507C158 245.536 158.739 247.126 160.216 248.275C161.694 249.425 163.876 250 166.763 250C168.206 250 169.598 249.763 170.938 249.29C172.278 248.816 173.464 248.174 174.495 247.362C175.526 246.551 176.368 245.604 177.021 244.522C177.674 243.44 178 242.29 178 241.072ZM214.159 268.166C211.95 267.6 209.894 266.685 207.991 265.42L202.588 274.107C203.675 274.906 204.848 275.605 206.105 276.204C207.363 276.803 208.756 277.302 210.285 277.702C211.815 278.101 213.548 278.418 215.485 278.651C217.422 278.883 219.648 279 222.163 279C225.425 279 228.45 278.551 231.236 277.652C234.023 276.753 236.436 275.438 238.475 273.708C240.514 271.977 242.111 269.847 243.267 267.317C244.422 264.787 245 261.891 245 258.63V213.096C242.825 212.363 239.987 211.664 236.487 210.999C232.987 210.333 229.163 210 225.017 210C220.871 210 217.133 210.649 213.803 211.947C210.472 213.245 207.634 215.026 205.29 217.289C202.945 219.553 201.144 222.216 199.886 225.278C198.629 228.34 198 231.602 198 235.064C198 238.392 198.493 241.438 199.478 244.2C200.464 246.963 201.908 249.36 203.811 251.39C205.714 253.42 208.008 255.001 210.693 256.133C213.378 257.265 216.453 257.831 219.92 257.831C223.114 257.831 225.68 257.415 227.617 256.582C229.554 255.75 231.338 254.669 232.97 253.337V258.43C232.97 261.758 231.916 264.355 229.809 266.219C227.702 268.082 225.085 269.014 221.959 269.014C218.968 269.014 216.368 268.732 214.159 268.166ZM233 221.022C232.037 220.681 231.04 220.426 230.009 220.255C228.978 220.085 227.362 220 225.161 220C222.686 220 220.52 220.409 218.664 221.226C216.807 222.044 215.226 223.134 213.919 224.496C212.613 225.859 211.633 227.443 210.98 229.248C210.327 231.054 210 232.944 210 234.92C210 238.599 210.928 241.698 212.785 244.219C214.641 246.74 217.632 248 221.758 248C225.471 248 228.273 247.217 230.164 245.65C232.055 244.083 233 241.596 233 238.19V221.022ZM299.745 252.263L301.399 250.617L294.985 243.431C294.673 243.742 294.25 244.123 293.716 244.574L293.231 244.978C292.463 245.61 291.478 246.209 290.275 246.774C289.072 247.34 287.619 247.839 285.916 248.271C284.212 248.704 282.225 248.92 279.953 248.92C278.416 248.92 276.863 248.654 275.293 248.122C273.723 247.589 272.32 246.824 271.084 245.826C269.848 244.828 268.846 243.631 268.078 242.234C267.31 240.836 266.925 239.273 266.925 237.543H302V235.846C302 232.52 301.599 229.259 300.797 226.066C299.996 222.872 298.693 220.011 296.889 217.483C295.085 214.955 292.697 212.909 289.724 211.345C286.751 209.782 283.127 209 278.851 209C275.31 209 272.086 209.632 269.18 210.896C266.274 212.16 263.769 213.89 261.664 216.086C259.56 218.281 257.923 220.86 256.754 223.82C255.585 226.781 255 229.991 255 233.451C255 237.244 255.585 240.703 256.754 243.83C257.923 246.957 259.593 249.635 261.764 251.864C263.936 254.093 266.558 255.84 269.631 257.104C272.704 258.368 276.112 259 279.853 259C283.527 259 286.684 258.601 289.323 257.802C291.962 257.004 294.133 256.106 295.837 255.108C297.541 254.11 298.843 253.162 299.745 252.263ZM290 230C290 228.824 289.767 227.647 289.3 226.471C288.833 225.294 288.15 224.232 287.25 223.284C286.35 222.337 285.2 221.552 283.8 220.931C282.4 220.31 280.8 220 279 220C277.067 220 275.35 220.31 273.85 220.931C272.35 221.552 271.1 222.337 270.1 223.284C269.1 224.232 268.333 225.294 267.8 226.471C267.267 227.647 267 228.824 267 230H290ZM322 249C322.963 249.333 323.96 249.583 324.991 249.75C326.022 249.917 327.638 250 329.839 250C332.314 250 334.48 249.583 336.336 248.75C338.193 247.917 339.774 246.8 341.081 245.4C342.387 244 343.367 242.383 344.02 240.55C344.673 238.717 345 236.833 345 234.9C345 233.1 344.777 231.367 344.33 229.7C343.883 228.033 343.178 226.55 342.215 225.25C341.253 223.95 340.032 222.917 338.554 222.15C337.075 221.383 335.305 221 333.242 221C329.529 221 326.727 221.917 324.836 223.75C322.945 225.583 322 228.1 322 231.3V249ZM377.881 211H366V238.965C366 244.786 367.544 249.414 370.632 252.849C373.719 256.283 378.217 258 384.124 258C386.003 258 387.681 257.804 389.158 257.411C390.635 257.019 391.944 256.512 393.085 255.89C394.226 255.269 395.233 254.598 396.105 253.879C396.978 253.159 397.716 252.473 398.32 251.818L398.622 257.019H410V211H398.119V235.923C398.119 237.624 397.834 239.21 397.263 240.682C396.693 242.153 395.904 243.445 394.897 244.557C393.89 245.669 392.682 246.536 391.272 247.158C389.863 247.779 388.352 248.09 386.741 248.09C384.124 248.09 381.992 247.288 380.348 245.686C378.703 244.083 377.881 241.81 377.881 238.866V211ZM421 191H434V204H421V191ZM434 211H422V257H434V211ZM446 191H458V258H446V191ZM499.89 254.918C500.77 254.188 501.514 253.491 502.123 252.827L502.428 257.407H514V191H502.123V211.808C501.976 211.753 501.833 211.698 501.692 211.645L499.788 210.912C499.112 210.647 498.367 210.431 497.555 210.265C496.743 210.099 495.829 209.966 494.814 209.867C493.799 209.767 492.513 209.717 490.957 209.717C489.806 209.717 488.453 209.867 486.896 210.165C485.34 210.464 483.733 210.962 482.075 211.659C480.416 212.356 478.775 213.235 477.151 214.297C475.527 215.359 474.038 216.687 472.685 218.28C471.06 220.204 469.707 222.544 468.624 225.299C467.541 228.053 467 231.256 467 234.906C467 238.756 467.609 242.174 468.827 245.161C470.045 248.148 471.636 250.67 473.598 252.728C475.561 254.785 477.794 256.345 480.298 257.407C482.802 258.469 485.34 259 487.911 259C489.739 259 491.38 258.801 492.835 258.403C494.29 258.004 495.609 257.507 496.794 256.909C497.978 256.312 499.01 255.648 499.89 254.918ZM502 223.491C500.852 222.561 499.518 221.914 497.998 221.548C496.478 221.183 494.536 221 492.172 221C489.808 221 487.849 221.448 486.295 222.345C484.742 223.242 483.391 224.422 482.242 225.883C481.229 227.212 480.435 228.757 479.861 230.517C479.287 232.278 479 234.121 479 236.048C479 240.034 480.013 243.356 482.04 246.014C484.066 248.671 487.004 250 490.855 250C492.881 250 494.604 249.618 496.022 248.854C497.441 248.09 498.589 247.11 499.467 245.914C500.345 244.718 500.987 243.406 501.392 241.978C501.797 240.549 502 239.171 502 237.842V223.491ZM567.745 252.263L569.399 250.617L562.985 243.431C562.673 243.742 562.25 244.123 561.716 244.574L561.231 244.978C560.463 245.61 559.478 246.209 558.275 246.774C557.073 247.34 555.619 247.839 553.916 248.271C552.212 248.704 550.225 248.92 547.953 248.92C546.416 248.92 544.863 248.654 543.293 248.122C541.723 247.589 540.32 246.824 539.084 245.826C537.848 244.828 536.846 243.631 536.078 242.234C535.31 240.836 534.925 239.273 534.925 237.543H570V235.846C570 232.52 569.599 229.259 568.797 226.066C567.996 222.872 566.693 220.011 564.889 217.483C563.085 214.955 560.697 212.909 557.724 211.345C554.751 209.782 551.127 209 546.851 209C543.31 209 540.086 209.632 537.18 210.896C534.274 212.16 531.769 213.89 529.664 216.086C527.56 218.281 525.923 220.86 524.754 223.82C523.585 226.781 523 229.991 523 233.451C523 237.244 523.585 240.703 524.754 243.83C525.923 246.957 527.593 249.635 529.764 251.864C531.936 254.093 534.558 255.84 537.631 257.104C540.704 258.368 544.112 259 547.853 259C551.527 259 554.684 258.601 557.323 257.802C559.962 257.004 562.133 256.106 563.837 255.108C565.541 254.11 566.843 253.162 567.745 252.263ZM558 230C558 228.824 557.767 227.647 557.3 226.471C556.833 225.294 556.15 224.232 555.25 223.284C554.35 222.337 553.2 221.552 551.8 220.931C550.4 220.31 548.8 220 547 220C545.067 220 543.35 220.31 541.85 220.931C540.35 221.552 539.1 222.337 538.1 223.284C537.1 224.232 536.333 225.294 535.8 226.471C535.267 227.647 535 228.824 535 230H558ZM590.479 210.885H579V257H590.987V232.123C590.987 230.419 591.309 228.879 591.952 227.502C592.596 226.126 593.459 224.946 594.543 223.962C595.626 222.979 596.913 222.225 598.403 221.701C599.893 221.176 601.451 220.914 603.076 220.914C604.228 220.914 605.226 220.98 606.073 221.111C606.92 221.242 607.749 221.471 608.562 221.799L611 210.885C610.052 210.557 609.121 210.328 608.206 210.197C607.292 210.066 606.259 210 605.108 210C603.144 210 601.4 210.229 599.876 210.688C598.352 211.147 597.015 211.704 595.863 212.36C594.712 213.015 593.713 213.736 592.867 214.523C592.02 215.31 591.326 216.031 590.784 216.686L590.479 210.885Z" fill="#006AFF"/>
<path id="CMS" fill-rule="evenodd" clip-rule="evenodd" d="M333.082 334C335.939 334 338.245 332.929 340 330.786L337.228 328.234C336.685 328.902 336.13 329.392 335.563 329.704C334.996 330.015 334.262 330.171 333.362 330.171C332.741 330.171 332.178 330.065 331.673 329.852C331.168 329.639 330.738 329.343 330.38 328.963C330.023 328.583 329.748 328.135 329.554 327.618C329.359 327.102 329.262 326.539 329.262 325.932C329.262 325.339 329.356 324.788 329.542 324.279C329.728 323.77 329.996 323.326 330.345 322.946C330.695 322.566 331.126 322.27 331.638 322.057C332.151 321.844 332.733 321.738 333.385 321.738C334.161 321.738 334.852 321.913 335.458 322.262C336.064 322.612 336.584 323.075 337.019 323.652L339.744 320.963C338.952 319.869 337.981 319.102 336.832 318.661C335.683 318.22 334.433 318 333.082 318C331.887 318 330.792 318.201 329.798 318.604C328.804 319.007 327.95 319.569 327.236 320.291C326.522 321.012 325.97 321.863 325.582 322.843C325.194 323.823 325 324.891 325 326.046C325 327.216 325.198 328.287 325.594 329.259C325.99 330.232 326.541 331.067 327.248 331.766C327.954 332.465 328.804 333.012 329.798 333.407C330.792 333.802 331.887 334 333.082 334ZM346.767 334L347.055 325.207L349.936 330.334H352.086L354.679 325.207L355.033 334H359L358.313 319H354.546L351.022 325.544L347.432 319H343.687L343 334H346.767ZM371.109 333.646C370.334 333.882 369.507 334 368.629 334C367.062 334 365.75 333.798 364.692 333.395C363.634 332.992 362.737 332.448 362 331.763L364.515 328.819C364.954 329.245 365.526 329.633 366.231 329.983C366.937 330.333 367.712 330.508 368.559 330.508C368.763 330.508 368.974 330.489 369.193 330.451C369.413 330.413 369.609 330.348 369.781 330.257C369.954 330.165 370.095 330.044 370.204 329.892C370.314 329.739 370.369 329.542 370.369 329.298C370.369 328.903 370.161 328.575 369.746 328.317C369.331 328.058 368.723 327.799 367.924 327.541L367.054 327.267C366.568 327.115 366.079 326.917 365.585 326.673C365.091 326.43 364.649 326.137 364.257 325.795C363.865 325.452 363.548 325.049 363.305 324.585C363.062 324.121 362.94 323.577 362.94 322.953C362.94 322.253 363.074 321.602 363.34 321.001C363.606 320.4 363.994 319.875 364.504 319.427C365.013 318.978 365.644 318.628 366.396 318.377C367.148 318.126 368.018 318 369.005 318C369.773 318 370.471 318.068 371.098 318.205C371.725 318.342 372.273 318.51 372.743 318.708C373.213 318.905 373.613 319.118 373.942 319.347C374.271 319.575 374.522 319.78 374.694 319.963L372.579 322.565C372.03 322.169 371.458 321.846 370.863 321.595C370.267 321.344 369.656 321.218 369.029 321.218C368.825 321.218 368.621 321.241 368.418 321.287C368.214 321.332 368.03 321.401 367.865 321.492C367.701 321.583 367.568 321.701 367.466 321.846C367.364 321.99 367.313 322.169 367.313 322.382C367.313 322.611 367.372 322.808 367.489 322.976C367.607 323.143 367.767 323.288 367.971 323.409C368.175 323.531 368.422 323.641 368.712 323.74C369.002 323.839 369.311 323.942 369.64 324.049L370.392 324.277C370.925 324.444 371.466 324.638 372.014 324.859C372.563 325.079 373.057 325.376 373.495 325.749C373.934 326.122 374.295 326.586 374.577 327.141C374.859 327.697 375 328.378 375 329.184C375 329.884 374.832 330.531 374.495 331.124C374.158 331.718 373.703 332.227 373.131 332.653C372.559 333.079 371.885 333.41 371.109 333.646Z" fill="#006AFF"/>
</g>
</g>
</svg>
