<?xml version="1.0" encoding="UTF-8"?>
<svg width="700px" height="500px" viewBox="0 0 700 500" version="1.1" xmlns="http://www.w3.org/2000/svg" xmlns:xlink="http://www.w3.org/1999/xlink">
    <title>page builder</title>
    <defs>
        <polygon id="path-1" points="0.0218181818 0.242545455 30.8483636 0.242545455 30.8483636 38.8483636 0.0218181818 38.8483636"></polygon>
    </defs>
    <g id="page-builder" stroke="none" stroke-width="1" fill="none" fill-rule="evenodd">
        <path d="M94.9,227.1 L106.3,227.1 L106.6,232.4 C107.200003,231.73333 107.949995,231.033337 108.85,230.3 C109.750004,229.566663 110.81666,228.900003 112.05,228.3 C113.283339,227.7 114.683325,227.2 116.25,226.8 C117.816674,226.399998 119.566657,226.2 121.5,226.2 C125.100018,226.2 128.216653,226.899993 130.85,228.3 C133.483346,229.7 135.666658,231.549989 137.4,233.85 C139.133342,236.150012 140.433329,238.766652 141.3,241.7 C142.166671,244.633348 142.6,247.666651 142.6,250.8 C142.6,254.466685 142.066672,257.599987 141,260.2 C139.933328,262.800013 138.600008,265.066657 137,267 C134.33332,270.200016 131.416682,272.433327 128.25,273.7 C125.083317,274.966673 121.83335,275.6 118.5,275.6 C116.966659,275.6 115.650005,275.533334 114.55,275.4 C113.449994,275.266666 112.450004,275.083334 111.55,274.85 C110.649995,274.616666 109.81667,274.350002 109.05,274.05 L107.240626,273.346875 C107.03021,273.265626 106.816668,273.183334 106.6,273.1 L106.6,294 L94.9,294 L94.9,227.1 Z M106.6,262.5 C108.933345,264.433343 112.466643,265.4 117.2,265.4 C119.333344,265.4 121.233325,264.983338 122.9,264.15 C124.566675,263.316663 125.983327,262.216674 127.15,260.85 C128.316672,259.483326 129.199997,257.933342 129.8,256.2 C130.400003,254.466658 130.7,252.666676 130.7,250.8 C130.7,248.79999 130.483335,246.933342 130.05,245.2 C129.616664,243.466658 128.916671,241.950007 127.95,240.65 C126.983328,239.349993 125.733341,238.31667 124.2,237.55 C122.666659,236.783329 120.766678,236.4 118.5,236.4 C116.699991,236.4 115.066674,236.783329 113.6,237.55 C112.133326,238.31667 110.883338,239.299994 109.85,240.5 C108.816661,241.700006 108.016669,243.01666 107.45,244.45 C106.88333,245.883341 106.6,247.26666 106.6,248.6 L106.6,262.5 Z M179.7,269.6 C178.433327,271.133341 176.500013,272.5 173.9,273.7 C171.299987,274.900006 168.400016,275.5 165.2,275.5 C163.266657,275.5 161.350009,275.200003 159.45,274.6 C157.54999,274 155.816674,273.083339 154.25,271.85 C152.683325,270.61666 151.416671,269.033343 150.45,267.1 C149.483328,265.166657 149,262.900013 149,260.3 C149,257.63332 149.5,255.250011 150.5,253.15 C151.5,251.04999 152.899991,249.283341 154.7,247.85 C156.5,246.41666 158.666654,245.333337 161.2,244.6 C163.733346,243.866663 166.533318,243.5 169.6,243.5 C170.533338,243.5 171.566661,243.516666 172.7,243.55 C173.550004,243.575 174.381249,243.609375 175.193749,243.653125 L176,243.7 C177.200006,243.766667 178.433327,243.833333 179.7,243.9 L179.7,242.8 C179.7,240.466655 178.766676,238.63334 176.9,237.3 C175.033324,235.96666 172.600015,235.3 169.6,235.3 C166.26665,235.3 163.60001,235.733329 161.6,236.6 C159.59999,237.466671 157.833341,238.399995 156.3,239.4 L150.9,231.4 C151.833338,230.73333 152.899994,230.050004 154.1,229.35 C155.300006,228.649996 156.699992,228.016669 158.3,227.45 C159.900008,226.88333 161.749989,226.416669 163.85,226.05 C165.95001,225.683332 168.399986,225.5 171.2,225.5 C174.200015,225.5 176.916654,225.916663 179.35,226.75 C181.783345,227.583337 183.866658,228.749992 185.6,230.25 C187.333342,231.750008 188.666662,233.54999 189.6,235.65 C190.533338,237.750011 191,240.033321 191,242.5 L191,274 L180,274 L179.7,269.6 Z M179.7,257.4 L179.7,252.8 L176.2,252.6 L176.2,252.6 C175.499996,252.55 174.771876,252.509375 174.015627,252.478125 L173.25,252.45 C172.345829,252.420833 171.556512,252.404427 170.882032,252.400781 L170.6,252.4 C166.799981,252.4 164.133341,253.149992 162.6,254.65 C161.066659,256.150008 160.3,257.866657 160.3,259.8 C160.3,261.80001 161.016659,263.366661 162.45,264.5 C163.88334,265.633339 165.999986,266.2 168.8,266.2 C170.200007,266.2 171.549993,265.966669 172.85,265.5 C174.150006,265.033331 175.3,264.4 176.3,263.6 C177.3,262.799996 178.116663,261.866672 178.75,260.8 C179.383336,259.733328 179.7,258.600006 179.7,257.4 Z M210,281.6 C211.866676,282.866673 213.883322,283.783331 216.05,284.35 C218.216677,284.91667 220.766652,285.2 223.7,285.2 C226.766682,285.2 229.333323,284.266676 231.4,282.4 C233.466677,280.533324 234.5,277.93335 234.5,274.6 L234.5,269.5 C232.899992,270.83334 231.150009,271.916663 229.25,272.75 C227.34999,273.583337 224.833349,274 221.7,274 C218.299983,274 215.283346,273.433339 212.65,272.3 C210.016653,271.166661 207.766676,269.583344 205.9,267.55 C204.033324,265.516657 202.616671,263.116681 201.65,260.35 C200.683328,257.58332 200.2,254.53335 200.2,251.2 C200.2,247.733316 200.81666,244.466682 202.05,241.4 C203.283339,238.333318 205.049988,235.666678 207.35,233.4 C209.650011,231.133322 212.433317,229.350007 215.7,228.05 C218.966683,226.749993 222.633313,226.1 226.7,226.1 C230.766687,226.1 234.516649,226.43333 237.95,227.1 C241.38335,227.76667 244.166656,228.466663 246.3,229.2 L246.3,274.8 C246.3,278.066683 245.733339,280.966654 244.6,283.5 C243.466661,286.033346 241.90001,288.166658 239.9,289.9 C237.89999,291.633342 235.533347,292.949995 232.8,293.85 C230.066653,294.750004 227.100016,295.2 223.9,295.2 C221.433321,295.2 219.250009,295.083334 217.35,294.85 C215.44999,294.616666 213.750007,294.300002 212.25,293.9 C210.749992,293.499998 209.383339,293.000003 208.15,292.4 C206.91666,291.799997 205.766672,291.1 204.7,290.3 L210,281.6 Z M234.5,237.3 C233.566662,236.966665 232.600005,236.716667 231.6,236.55 C230.599995,236.383332 229.033344,236.3 226.9,236.3 C224.499988,236.3 222.400009,236.699996 220.6,237.5 C218.799991,238.3 217.266673,239.36666 216,240.7 C214.733327,242.03334 213.783336,243.583325 213.15,245.35 C212.516663,247.116675 212.2,248.966657 212.2,250.9 C212.2,254.500018 213.099991,257.533321 214.9,260 C216.7,262.466679 219.59998,263.7 223.6,263.7 C227.200018,263.7 229.916657,262.933341 231.75,261.4 C233.583342,259.866659 234.5,257.43335 234.5,254.1 L234.5,237.3 Z M302,267.2 L300.35,268.85 C299.449995,269.750004 298.150008,270.699995 296.45,271.7 C294.749991,272.700005 292.583346,273.599996 289.95,274.4 C287.316653,275.200004 284.166685,275.6 280.5,275.6 C276.766648,275.6 273.366682,274.966673 270.3,273.7 C267.233318,272.433327 264.616677,270.683344 262.45,268.45 C260.283322,266.216656 258.616672,263.533349 257.45,260.4 C256.283327,257.266651 255.7,253.800019 255.7,250 C255.7,246.533316 256.283327,243.316682 257.45,240.35 C258.616672,237.383319 260.249989,234.800011 262.35,232.6 C264.45001,230.399989 266.949985,228.666673 269.85,227.4 C272.750014,226.133327 275.966649,225.5 279.5,225.5 C283.766688,225.5 287.383318,226.283325 290.35,227.85 C293.316681,229.416674 295.7,231.466654 297.5,234 C299.300009,236.533346 300.599996,239.399984 301.4,242.6 C302.2,245.800016 302.6,249.06665 302.6,252.4 L302.6,254.1 L267.6,254.1 C267.6,255.833342 267.983329,257.399993 268.75,258.8 C269.51667,260.200007 270.51666,261.399995 271.75,262.4 C272.983339,263.400005 274.383325,264.166664 275.95,264.7 C277.516674,265.233336 279.066659,265.5 280.6,265.5 C282.866678,265.5 284.849991,265.283336 286.55,264.85 C288.250008,264.416665 289.7,263.91667 290.9,263.35 C292.100006,262.783331 293.083329,262.183336 293.85,261.55 L294.333952,261.145061 C294.866875,260.692797 295.288889,260.311113 295.6,260 L302,267.2 Z M290.5,245.6 C290.5,244.4 290.266669,243.200006 289.8,242 C289.333331,240.799994 288.650004,239.716671 287.75,238.75 C286.849995,237.783328 285.700007,236.983337 284.3,236.35 C282.899993,235.716663 281.300009,235.4 279.5,235.4 C277.566657,235.4 275.850007,235.716663 274.35,236.35 C272.849992,236.983337 271.600005,237.783328 270.6,238.75 C269.599995,239.716671 268.833336,240.799994 268.3,242 C267.766664,243.200006 267.5,244.4 267.5,245.6 L290.5,245.6 Z M311.7,207.3 L323.5,207.3 L323.5,230.3 C324.300004,229.499996 325.833322,228.600005 328.1,227.6 C330.366678,226.599995 333.099984,226.1 336.3,226.1 C339.700017,226.1 342.716653,226.733327 345.35,228 C347.983346,229.266673 350.233324,230.966656 352.1,233.1 C353.966676,235.233344 355.383328,237.766652 356.35,240.7 C357.316671,243.633348 357.8,246.733317 357.8,250 C357.8,253.533351 357.183339,256.849985 355.95,259.95 C354.71666,263.050015 352.950011,265.749988 350.65,268.05 C348.349988,270.350011 345.566683,272.183327 342.3,273.55 C339.033317,274.916674 335.366687,275.6 331.3,275.6 C327.233313,275.6 323.48335,275.26667 320.05,274.6 C316.616649,273.93333 313.833344,273.233337 311.7,272.5 L311.7,207.3 Z M323.5,264.4 C324.433338,264.733335 325.399995,264.983332 326.4,265.15 C327.400005,265.316667 328.966656,265.4 331.1,265.4 C333.500012,265.4 335.599991,264.983338 337.4,264.15 C339.200009,263.316663 340.733327,262.200007 342,260.8 C343.266673,259.4 344.216663,257.783343 344.85,255.95 C345.483336,254.116658 345.8,252.233343 345.8,250.3 C345.8,248.499991 345.583335,246.766675 345.15,245.1 C344.716664,243.433325 344.033338,241.950007 343.1,240.65 C342.166662,239.349993 340.98334,238.31667 339.55,237.55 C338.116659,236.783329 336.40001,236.4 334.4,236.4 C330.799982,236.4 328.083342,237.316657 326.25,239.15 C324.416657,240.983342 323.5,243.499984 323.5,246.7 L323.5,264.4 Z M367,227.1 L378.8,227.1 L378.8,255.5 C378.8,258.500015 379.616658,260.816659 381.25,262.45 C382.883341,264.083342 384.999987,264.9 387.6,264.9 C389.200008,264.9 390.699993,264.583336 392.1,263.95 C393.5,263.316664 394.699995,262.433339 395.7,261.3 C396.700005,260.166661 397.48333,258.850008 398.05,257.35 C398.616669,255.849992 398.9,254.233342 398.9,252.5 L398.9,227.1 L410.7,227.1 L410.7,274 L399.4,274 L399.1,268.7 C398.5,269.36667 397.766671,270.066663 396.9,270.8 C396.033329,271.533337 395.033339,272.216663 393.9,272.85 C392.766661,273.483337 391.466674,273.999998 390,274.4 C388.533326,274.800002 386.866676,275 385,275 C379.133304,275 374.666682,273.250018 371.6,269.75 C368.533318,266.249982 367,261.533363 367,255.6 L367,227.1 Z M422.4,207.3 L435,207.3 L435,219.7 L422.4,219.7 L422.4,207.3 Z M422.8,227.1 L434.6,227.1 L434.6,274 L422.8,274 L422.8,227.1 Z M446.7,207.3 L458.5,207.3 L458.5,274 L446.7,274 L446.7,207.3 Z M502.5,269.4 C501.9,270.06667 501.166671,270.766663 500.3,271.5 C499.433329,272.233337 498.416672,272.899997 497.25,273.5 C496.083327,274.100003 494.78334,274.599998 493.35,275 C491.916659,275.400002 490.300009,275.6 488.5,275.6 C485.966654,275.6 483.466679,275.066672 481,274 C478.533321,272.933328 476.333343,271.366677 474.4,269.3 C472.466657,267.233323 470.9,264.700015 469.7,261.7 C468.499994,258.699985 467.9,255.266686 467.9,251.4 C467.9,247.733315 468.433328,244.516681 469.5,241.75 C470.566672,238.983319 471.9,236.633343 473.5,234.7 C474.83334,233.099992 476.299992,231.766672 477.9,230.7 C479.500008,229.633328 481.116658,228.750003 482.75,228.05 C484.383341,227.349997 485.966659,226.850002 487.5,226.55 C489.033341,226.249999 490.366661,226.1 491.5,226.1 C493.033341,226.1 494.299995,226.149999 495.3,226.25 C496.300005,226.35 497.199996,226.483333 498,226.65 C498.800004,226.816667 499.53333,227.033332 500.2,227.3 L502.074999,228.036111 C502.213888,228.089814 502.355555,228.144444 502.5,228.2 L502.5,207.3 L514.2,207.3 L514.2,274 L502.8,274 L502.5,269.4 Z M502.5,238.8 C501.366661,237.866662 500.050007,237.216668 498.55,236.85 C497.049992,236.483331 495.133345,236.3 492.8,236.3 C490.466655,236.3 488.533341,236.749996 487,237.65 C485.466659,238.550005 484.133339,239.733326 483,241.2 C481.999995,242.53334 481.216669,244.083325 480.65,245.85 C480.08333,247.616675 479.8,249.466657 479.8,251.4 C479.8,255.40002 480.79999,258.73332 482.8,261.4 C484.80001,264.06668 487.699981,265.4 491.5,265.4 C493.50001,265.4 495.199993,265.016671 496.6,264.25 C498.000007,263.483329 499.133329,262.500006 500,261.3 C500.866671,260.099994 501.499998,258.783341 501.9,257.35 C502.3,255.91666 502.5,254.53334 502.5,253.2 L502.5,238.8 Z M569.9,267.2 L568.25,268.85 C567.349995,269.750004 566.050008,270.699995 564.35,271.7 C562.649991,272.700005 560.483346,273.599996 557.85,274.4 C555.216653,275.200004 552.066685,275.6 548.4,275.6 C544.666648,275.6 541.266682,274.966673 538.2,273.7 C535.133318,272.433327 532.516677,270.683344 530.35,268.45 C528.183322,266.216656 526.516672,263.533349 525.35,260.4 C524.183327,257.266651 523.6,253.800019 523.6,250 C523.6,246.533316 524.183327,243.316682 525.35,240.35 C526.516672,237.383319 528.149989,234.800011 530.25,232.6 C532.35001,230.399989 534.849985,228.666673 537.75,227.4 C540.650014,226.133327 543.866649,225.5 547.4,225.5 C551.666688,225.5 555.283318,226.283325 558.25,227.85 C561.216681,229.416674 563.6,231.466654 565.4,234 C567.200009,236.533346 568.499996,239.399984 569.3,242.6 C570.1,245.800016 570.5,249.06665 570.5,252.4 L570.5,254.1 L535.5,254.1 C535.5,255.833342 535.883329,257.399993 536.65,258.8 C537.41667,260.200007 538.41666,261.399995 539.65,262.4 C540.883339,263.400005 542.283325,264.166664 543.85,264.7 C545.416674,265.233336 546.966659,265.5 548.5,265.5 C550.766678,265.5 552.749991,265.283336 554.45,264.85 C556.150008,264.416665 557.6,263.91667 558.8,263.35 C560.000006,262.783331 560.983329,262.183336 561.75,261.55 L562.233952,261.145061 C562.766875,260.692797 563.188889,260.311113 563.5,260 L569.9,267.2 Z M558.4,245.6 C558.4,244.4 558.166669,243.200006 557.7,242 C557.233331,240.799994 556.550004,239.716671 555.65,238.75 C554.749995,237.783328 553.600007,236.983337 552.2,236.35 C550.799993,235.716663 549.200009,235.4 547.4,235.4 C545.466657,235.4 543.750007,235.716663 542.25,236.35 C540.749992,236.983337 539.500005,237.783328 538.5,238.75 C537.499995,239.716671 536.733336,240.799994 536.2,242 C535.666664,243.200006 535.4,244.4 535.4,245.6 L558.4,245.6 Z M579.6,227.1 L590.9,227.1 L591.2,233 C591.733336,232.33333 592.416662,231.600004 593.25,230.8 C594.083337,229.999996 595.066661,229.26667 596.2,228.6 C597.333339,227.93333 598.649992,227.366669 600.15,226.9 C601.650007,226.433331 603.366657,226.2 605.3,226.2 C606.433339,226.2 607.449995,226.266666 608.35,226.4 C609.250004,226.533334 610.166662,226.766665 611.1,227.1 L608.7,238.2 C607.899996,237.866665 607.083337,237.633334 606.25,237.5 C605.416662,237.366666 604.433339,237.3 603.3,237.3 C601.699992,237.3 600.166674,237.566664 598.7,238.1 C597.233326,238.633336 595.966672,239.399995 594.9,240.4 C593.833328,241.400005 592.983336,242.599993 592.35,244 C591.716663,245.400007 591.4,246.966658 591.4,248.7 L591.4,274 L579.6,274 L579.6,227.1 Z" id="pagebuilder" fill="#2C85CA" fill-rule="nonzero"></path>
        <rect id="Rectangle" stroke="#2C85CA" x="65.5" y="188.5" width="571" height="123"></rect>
        <rect id="Rectangle" stroke="#2C85CA" fill="#FFFFFF" x="61" y="184" width="8" height="8"></rect>
        <rect id="Rectangle-Copy-3" stroke="#2C85CA" fill="#FFFFFF" x="347" y="184" width="8" height="8"></rect>
        <rect id="Rectangle-Copy-6" stroke="#2C85CA" fill="#FFFFFF" x="633" y="184" width="8" height="8"></rect>
        <rect id="Rectangle-Copy" stroke="#2C85CA" fill="#FFFFFF" x="61" y="246" width="8" height="8"></rect>
        <rect id="Rectangle-Copy-7" stroke="#2C85CA" fill="#FFFFFF" x="633" y="246" width="8" height="8"></rect>
        <rect id="Rectangle-Copy-2" stroke="#2C85CA" fill="#FFFFFF" x="61" y="308" width="8" height="8"></rect>
        <rect id="Rectangle-Copy-5" stroke="#2C85CA" fill="#FFFFFF" x="347" y="308" width="8" height="8"></rect>
        <rect id="Rectangle-Copy-8" stroke="#2C85CA" fill="#FFFFFF" x="633" y="308" width="8" height="8"></rect>
        <g id="hand_cursor_free_vector" transform="translate(469.000000, 310.500000) rotate(-26.000000) translate(-469.000000, -310.500000) translate(453.000000, 290.000000)">
            <g id="Group-4" transform="translate(0.000000, 1.090909)">
                <mask id="mask-2" fill="white">
                    <use xlink:href="#path-1"></use>
                </mask>
                <g id="Clip-2"></g>
                <polyline id="Fill-1" fill="#FFFFFE" mask="url(#mask-2)" points="8.18181818 1.63636364 8.60618182 18.3636364 6.36363636 18.3636364 4.84836364 17.0301818 0.909090909 16.6665455 1.03018182 19.8181818 2.12109091 21.4545455 4.36363636 23.4545455 4.788 26.1210909 6.60618182 27.8789091 6.90909091 29.5756364 8 30.9090909 8.72727273 33.3938182 9.63636364 34.6061818 10.0607273 38.4243636 27.0909091 38.8483636 27.3334545 34.9090909 28.9698182 33.0909091 29.5756364 29.1516364 30.8483636 27.5756364 30.5454545 16.4243636 27.0909091 13.5152727 24.788 12.3029091 23.6970909 11.6970909 19.3938182 10.8483636 18.3029091 9.63636364 14.4847273 9.09090909 13.7574545 2.12109091 12.1210909 0.302909091 10.4847273 0.242545455 8.18181818 1.63636364"></polyline>
                <polygon id="Fill-3" fill="#2C85CA" mask="url(#mask-2)" points="0.0218181818 21.0301818 1.69709091 21.0301818 1.69709091 15.5756364 0.0218181818 15.5756364"></polygon>
            </g>
            <polygon id="Fill-5" fill="#2C85CA" points="7.212 26.4847273 9.33345455 26.4847273 9.33345455 2.18181818 7.212 2.18181818"></polygon>
            <polygon id="Fill-6" fill="#2C85CA" points="18.8483636 18.5454545 20.9698182 18.5454545 20.9698182 11.212 18.8483636 11.212"></polygon>
            <polygon id="Fill-7" fill="#2C85CA" points="24.2425455 20.3029091 26.364 20.3029091 26.364 13.0909091 24.2425455 13.0909091"></polygon>
            <polygon id="Fill-8" fill="#2C85CA" points="29.7574545 29.7574545 31.8789091 29.7574545 31.8789091 17.0301818 29.7574545 17.0301818"></polygon>
            <polygon id="Fill-9" fill="#2C85CA" points="26.1210909 40.1818182 28.2425455 40.1818182 28.2425455 35.2123636 26.1210909 35.2123636"></polygon>
            <polygon id="Fill-10" fill="#2C85CA" points="27.9996364 35.2123636 30.1210909 35.2123636 30.1210909 29.6974545 27.9996364 29.6974545"></polygon>
            <polygon id="Fill-11" fill="#2C85CA" points="13.0305455 18.7570909 15.152 18.7570909 15.152 2.15127273 13.0305455 2.15127273"></polygon>
            <polygon id="Fill-12" fill="#2C85CA" points="0.121454545 18.5454545 5.33345455 18.5454545 5.33345455 16.6665455 0.121454545 16.6665455"></polygon>
            <polygon id="Fill-13" fill="#2C85CA" points="9.15163636 40.7272727 28.2429091 40.7272727 28.2429091 38.8483636 9.15163636 38.8483636"></polygon>
            <polygon id="Fill-14" fill="#2C85CA" points="1.69709091 23.9392727 3.69709091 23.9392727 3.69709091 22.0607273 1.69709091 22.0607273"></polygon>
            <polygon id="Fill-15" fill="#2C85CA" points="3.63672727 27.9396364 5.45490909 27.9396364 5.45490909 23.8185455 3.63672727 23.8185455"></polygon>
            <polygon id="Fill-16" fill="#2C85CA" points="5.39418182 31.6363636 7.45490909 31.6363636 7.45490909 27.9396364 5.39418182 27.9396364"></polygon>
            <polygon id="Fill-17" fill="#2C85CA" points="7.45490909 35.212 9.27309091 35.212 9.27309091 31.5756364 7.45490909 31.5756364"></polygon>
            <polygon id="Fill-18" fill="#2C85CA" points="9.15163636 39.1512727 11.2123636 39.1512727 11.2123636 35.212 9.15163636 35.212"></polygon>
            <polygon id="Fill-19" fill="#2C85CA" points="5.39381818 20.424 8.30290909 20.424 8.30290909 18.5450909 5.39381818 18.5450909"></polygon>
            <polygon id="Fill-20" fill="#2C85CA" points="25.0301818 15.212 27.9392727 15.212 27.9392727 13.0909091 25.0301818 13.0909091"></polygon>
            <polygon id="Fill-21" fill="#2C85CA" points="27.9447273 17.0792727 29.7574545 17.0792727 29.7574545 15.2341818 27.9447273 15.2341818"></polygon>
            <polygon id="Fill-22" fill="#2C85CA" points="9.39381818 2.18181818 13.0301818 2.18181818 13.0301818 0.302909091 9.39381818 0.302909091"></polygon>
            <polygon id="Fill-23" fill="#2C85CA" points="20.3592727 13.1512727 24.3029091 13.1512727 24.3029091 11.2287273 20.3592727 11.2287273"></polygon>
            <polygon id="Fill-24" fill="#2C85CA" points="15.0843636 11.1894545 18.8418182 11.1894545 18.8418182 9.36363636 15.0843636 9.36363636"></polygon>
        </g>
    </g>
</svg>