<?xml version="1.0" encoding="UTF-8"?>
<svg width="700px" height="500px" viewBox="0 0 700 500" version="1.1" xmlns="http://www.w3.org/2000/svg" xmlns:xlink="http://www.w3.org/1999/xlink">
    <title>page builder</title>
    <defs>
        <polygon id="path-1" points="0.0218181818 0.242545455 30.8483636 0.242545455 30.8483636 38.8483636 0.0218181818 38.8483636"></polygon>
    </defs>
    <g id="page-builder" stroke="none" stroke-width="1" fill="none" fill-rule="evenodd">
        <rect fill="#006AFF" x="0" y="0" width="700" height="500"></rect>
        <g id="Group-2" transform="translate(60.000000, 167.000000)">
            <rect id="Rectangle" stroke="#FFFFFF" x="4.5" y="4.5" width="571" height="123"></rect>
            <rect id="Rectangle" stroke="#FFFFFF" fill="#006AFF" x="0" y="0" width="8" height="8"></rect>
            <rect id="Rectangle-Copy-3" stroke="#FFFFFF" fill="#006AFF" x="286" y="0" width="8" height="8"></rect>
            <rect id="Rectangle-Copy-6" stroke="#FFFFFF" fill="#006AFF" x="572" y="0" width="8" height="8"></rect>
            <rect id="Rectangle-Copy" stroke="#FFFFFF" fill="#006AFF" x="0" y="63" width="8" height="8"></rect>
            <rect id="Rectangle-Copy-7" stroke="#FFFFFF" fill="#006AFF" x="572" y="63" width="8" height="8"></rect>
            <rect id="Rectangle-Copy-2" stroke="#FFFFFF" fill="#006AFF" x="0" y="124" width="8" height="8"></rect>
            <rect id="Rectangle-Copy-5" stroke="#FFFFFF" fill="#006AFF" x="286" y="124" width="8" height="8"></rect>
            <rect id="Rectangle-Copy-8" stroke="#FFFFFF" fill="#006AFF" x="572" y="124" width="8" height="8"></rect>
            <g id="hand_cursor_free_vector" transform="translate(407.999983, 126.499975) rotate(-26.000000) translate(-407.999983, -126.499975) translate(391.999983, 105.999975)">
                <g id="Group-4" transform="translate(0.000000, 1.090909)">
                    <mask id="mask-2" fill="white">
                        <use xlink:href="#path-1"></use>
                    </mask>
                    <g id="Clip-2"></g>
                    <polyline id="Fill-1" fill="#006AFF" mask="url(#mask-2)" points="8.18181818 1.63636364 8.60618182 18.3636364 6.36363636 18.3636364 4.84836364 17.0301818 0.909090909 16.6665455 1.03018182 19.8181818 2.12109091 21.4545455 4.36363636 23.4545455 4.788 26.1210909 6.60618182 27.8789091 6.90909091 29.5756364 8 30.9090909 8.72727273 33.3938182 9.63636364 34.6061818 10.0607273 38.4243636 27.0909091 38.8483636 27.3334545 34.9090909 28.9698182 33.0909091 29.5756364 29.1516364 30.8483636 27.5756364 30.5454545 16.4243636 27.0909091 13.5152727 24.788 12.3029091 23.6970909 11.6970909 19.3938182 10.8483636 18.3029091 9.63636364 14.4847273 9.09090909 13.7574545 2.12109091 12.1210909 0.302909091 10.4847273 0.242545455 8.18181818 1.63636364"></polyline>
                    <polygon id="Fill-3" fill="#FFFFFF" mask="url(#mask-2)" points="0.0218181818 21.0301818 1.69709091 21.0301818 1.69709091 15.5756364 0.0218181818 15.5756364"></polygon>
                </g>
                <polygon id="Fill-5" fill="#FFFFFF" points="7.212 26.4847273 9.33345455 26.4847273 9.33345455 2.18181818 7.212 2.18181818"></polygon>
                <polygon id="Fill-6" fill="#FFFFFF" points="18.8483636 18.5454545 20.9698182 18.5454545 20.9698182 11.212 18.8483636 11.212"></polygon>
                <polygon id="Fill-7" fill="#FFFFFF" points="24.2425455 20.3029091 26.364 20.3029091 26.364 13.0909091 24.2425455 13.0909091"></polygon>
                <polygon id="Fill-8" fill="#FFFFFF" points="29.7574545 29.7574545 31.8789091 29.7574545 31.8789091 17.0301818 29.7574545 17.0301818"></polygon>
                <polygon id="Fill-9" fill="#FFFFFF" points="26.1210909 40.1818182 28.2425455 40.1818182 28.2425455 35.2123636 26.1210909 35.2123636"></polygon>
                <polygon id="Fill-10" fill="#FFFFFF" points="27.9996364 35.2123636 30.1210909 35.2123636 30.1210909 29.6974545 27.9996364 29.6974545"></polygon>
                <polygon id="Fill-11" fill="#FFFFFF" points="13.0305455 18.7570909 15.152 18.7570909 15.152 2.15127273 13.0305455 2.15127273"></polygon>
                <polygon id="Fill-12" fill="#FFFFFF" points="0.121454545 18.5454545 5.33345455 18.5454545 5.33345455 16.6665455 0.121454545 16.6665455"></polygon>
                <polygon id="Fill-13" fill="#FFFFFF" points="9.15163636 40.7272727 28.2429091 40.7272727 28.2429091 38.8483636 9.15163636 38.8483636"></polygon>
                <polygon id="Fill-14" fill="#FFFFFF" points="1.69709091 23.9392727 3.69709091 23.9392727 3.69709091 22.0607273 1.69709091 22.0607273"></polygon>
                <polygon id="Fill-15" fill="#FFFFFF" points="3.63672727 27.9396364 5.45490909 27.9396364 5.45490909 23.8185455 3.63672727 23.8185455"></polygon>
                <polygon id="Fill-16" fill="#FFFFFF" points="5.39418182 31.6363636 7.45490909 31.6363636 7.45490909 27.9396364 5.39418182 27.9396364"></polygon>
                <polygon id="Fill-17" fill="#FFFFFF" points="7.45490909 35.212 9.27309091 35.212 9.27309091 31.5756364 7.45490909 31.5756364"></polygon>
                <polygon id="Fill-18" fill="#FFFFFF" points="9.15163636 39.1512727 11.2123636 39.1512727 11.2123636 35.212 9.15163636 35.212"></polygon>
                <polygon id="Fill-19" fill="#FFFFFF" points="5.39381818 20.424 8.30290909 20.424 8.30290909 18.5450909 5.39381818 18.5450909"></polygon>
                <polygon id="Fill-20" fill="#FFFFFF" points="25.0301818 15.212 27.9392727 15.212 27.9392727 13.0909091 25.0301818 13.0909091"></polygon>
                <polygon id="Fill-21" fill="#FFFFFF" points="27.9447273 17.0792727 29.7574545 17.0792727 29.7574545 15.2341818 27.9447273 15.2341818"></polygon>
                <polygon id="Fill-22" fill="#FFFFFF" points="9.39381818 2.18181818 13.0301818 2.18181818 13.0301818 0.302909091 9.39381818 0.302909091"></polygon>
                <polygon id="Fill-23" fill="#FFFFFF" points="20.3592727 13.1512727 24.3029091 13.1512727 24.3029091 11.2287273 20.3592727 11.2287273"></polygon>
                <polygon id="Fill-24" fill="#FFFFFF" points="15.0843636 11.1894545 18.8418182 11.1894545 18.8418182 9.36363636 15.0843636 9.36363636"></polygon>
            </g>
            <path d="M33,43.9026549 L44.4716981,43.9026549 L44.7735849,49.2182891 C45.3773615,48.5496525 46.1320709,47.8475946 47.0377358,47.1120944 C47.9434008,46.3765942 49.0167653,45.7079676 50.2578616,45.1061947 C51.498958,44.5044248 52.9077489,44.0029499 54.4842767,43.6017699 C56.0608045,43.200588 57.8217932,43 59.7672956,43 C63.3899552,43 66.5261922,43.7020579 69.1761006,45.1061947 C71.8260091,46.5103245 74.0230521,48.3657702 75.7672956,50.6725664 C77.5115391,52.9793626 78.8197021,55.6037218 79.6918239,58.5457227 C80.5639457,61.4877237 81,64.5299745 81,67.6725664 C81,71.3500676 80.4633177,74.4926123 79.3899371,77.100295 C78.3165565,79.7079776 76.9748508,81.9813079 75.3647799,83.920354 C72.6813283,87.1298096 69.7463472,89.3697085 66.5597484,90.640118 C63.3731497,91.9105275 60.1027421,92.5457227 56.7484277,92.5457227 C55.205443,92.5457227 53.8805087,92.4788601 52.7735849,92.3451327 C51.6666611,92.2114054 50.6603819,92.0275331 49.754717,91.7935103 C48.8490521,91.5594875 48.010486,91.2920369 47.2389937,90.9911504 L45.4182403,90.2859518 C45.2065003,90.2044622 44.9916153,90.1219277 44.7735849,90.0383481 L44.7735849,111 L33,111 L33,43.9026549 Z M45,80.1 C47.3236631,82.033343 50.8423001,83 55.5560166,83 C57.6805085,83 59.5726058,82.5833375 61.2323651,81.75 C62.8921245,80.9166625 64.3028988,79.8166735 65.4647303,78.45 C66.6265618,77.0833265 67.5062211,75.533342 68.1037344,73.8 C68.7012478,72.066658 69,70.266676 69,68.4 C69,66.39999 68.7842345,64.533342 68.3526971,62.8 C67.9211597,61.066658 67.2240712,59.5500065 66.2614108,58.25 C65.2987504,56.9499935 64.0539495,55.9166705 62.526971,55.15 C61,54.3833295 59.1078951,54 56.8506224,54 C55.0580823,54 53.4315426,54.3833295 51.9709544,55.15 C50.5103661,55.9166705 49.2655653,56.899994 48.2365145,58.1 C47.2074637,59.300006 46.4107912,60.6166595 45.846473,62.05 C45.2821549,63.4833405 45,64.86666 45,66.2 L45,80.1 Z M117.7,86.1 C116.433327,87.633341 114.500013,89 111.9,90.2 C109.299987,91.400006 106.400016,92 103.2,92 C101.266657,92 99.3500095,91.700003 97.45,91.1 C95.5499905,90.5 93.8166745,89.5833395 92.25,88.35 C90.6833255,87.1166605 89.4166715,85.533343 88.45,83.6 C87.4833285,81.666657 87,79.400013 87,76.8 C87,74.13332 87.5,71.7500105 88.5,69.65 C89.5,67.5499895 90.899991,65.7833405 92.7,64.35 C94.5,62.9166595 96.666654,61.833337 99.2,61.1 C101.733346,60.366663 104.533318,60 107.6,60 C108.533338,60 109.566661,60.0166665 110.7,60.05 C111.550004,60.0750001 112.381249,60.1093749 113.193749,60.1531249 L114,60.2 C115.200006,60.266667 116.433327,60.333333 117.7,60.4 L117.7,59.3 C117.7,56.966655 116.766676,55.13334 114.9,53.8 C113.033324,52.46666 110.600015,51.8 107.6,51.8 C104.26665,51.8 101.60001,52.233329 99.6,53.1 C97.59999,53.966671 95.833341,54.899995 94.3,55.9 L88.9,47.9 C89.833338,47.23333 90.899994,46.5500035 92.1,45.85 C93.300006,45.1499965 94.699992,44.5166695 96.3,43.95 C97.900008,43.3833305 99.7499895,42.9166685 101.85,42.55 C103.950011,42.1833315 106.399986,42 109.2,42 C112.200015,42 114.916655,42.4166625 117.35,43.25 C119.783346,44.0833375 121.866658,45.2499925 123.6,46.75 C125.333342,48.2500075 126.666662,50.0499895 127.6,52.15 C128.533338,54.2500105 129,56.533321 129,59 L129,90.5 L118,90.5 L117.7,86.1 Z M118,74.0724638 L118,69.4057971 L114.391753,69.2028986 L114.391753,69.2028986 C113.670099,69.1521737 112.91946,69.1109601 112.139821,69.0792573 L111.350515,69.0507246 C110.41838,69.0211351 109.604652,69.0044912 108.909311,69.0007926 L108.618557,69 C104.701011,69 101.951898,69.760862 100.371134,71.2826087 C98.7903701,72.8043554 98,74.5458839 98,76.5072464 C98,78.536242 98.7388242,80.1255981 100.216495,81.2753623 C101.694165,82.4251265 103.876274,83 106.762887,83 C108.206193,83 109.597931,82.7632874 110.938144,82.2898551 C112.278357,81.8164228 113.463918,81.173913 114.494845,80.3623188 C115.525773,79.5507206 116.367694,78.6038701 117.020619,77.5217391 C117.673543,76.4396081 118,75.2898612 118,74.0724638 Z M147.991323,98.4196816 C149.894442,99.6845215 151.950459,100.599852 154.159436,101.165702 C156.368413,101.731551 158.96817,102.014472 161.958785,102.014472 C165.085337,102.014472 167.702086,101.082498 169.809111,99.2185239 C171.916135,97.3545493 172.969631,94.7583379 172.969631,91.4298119 L172.969631,86.3371925 C171.338387,87.6686029 169.55424,88.7503576 167.617137,89.5824891 C165.680034,90.4146207 163.11426,90.8306802 159.91974,90.8306802 C156.453345,90.8306802 153.377815,90.2648392 150.693059,89.1331404 C148.008302,88.0014415 145.714399,86.4204154 143.81128,84.3900145 C141.908161,82.3596136 140.463852,79.9631108 139.478308,77.2004342 C138.492764,74.4377575 138,71.3922019 138,68.0636758 C138,64.6020087 138.628699,61.3401021 139.886117,58.2778582 C141.143535,55.2156142 142.944674,52.5528333 145.289588,50.2894356 C147.634502,48.0260379 150.472145,46.2453032 153.802603,44.947178 C157.133061,43.6490528 160.871274,43 165.017354,43 C169.163434,43 172.986606,43.3328476 176.486985,43.9985528 C179.987364,44.664258 182.825007,45.363238 185,46.0955137 L185,91.6295224 C185,94.891478 184.422276,97.7872522 183.266811,100.316932 C182.111346,102.846612 180.51411,104.976836 178.475054,106.70767 C176.435998,108.438504 174.023152,109.753252 171.236443,110.651954 C168.449733,111.550656 165.425179,112 162.16269,112 C159.647854,112 157.421919,111.883503 155.484816,111.650507 C153.547713,111.41751 151.814541,111.101304 150.285249,110.701881 C148.755958,110.302458 147.362624,109.803187 146.105206,109.204052 C144.847788,108.604917 143.675349,107.905933 142.587852,107.107091 L147.991323,98.4196816 Z M173,54.0218978 C172.037364,53.6812635 171.040364,53.4257916 170.008969,53.2554745 C168.977573,53.0851573 167.361745,53 165.161435,53 C162.686086,53 160.520189,53.408755 158.663677,54.2262774 C156.807166,55.0437956 155.225717,56.1338131 153.919283,57.4963504 C152.612848,58.8588876 151.633038,60.4428134 150.979821,62.2481752 C150.326604,64.053537 150,65.9440291 150,67.919708 C150,71.5985585 150.928242,74.6982842 152.784753,77.2189781 C154.641256,79.739672 157.632266,81 161.757848,81 C165.470871,81 168.272786,80.2165528 170.163677,78.649635 C172.054568,77.0827172 173,74.5961241 173,71.189781 L173,54.0218978 Z M241.398721,83.6167665 L239.745203,85.2634731 C238.843279,86.1616811 237.54052,87.1097754 235.836887,88.1077844 C234.133254,89.1057934 231.961989,90.003988 229.323028,90.8023952 C226.684066,91.6008024 223.527382,92 219.852878,92 C216.111566,92 212.704351,91.3679371 209.63113,90.1037924 C206.557909,88.8396477 203.93569,87.0931582 201.764392,84.8642715 C199.593095,82.6353847 197.922891,79.9574341 196.753731,76.8303393 C195.584571,73.7032445 195,70.2435319 195,66.4510978 C195,62.9913333 195.584571,59.7811193 196.753731,56.8203593 C197.922891,53.8595993 199.559691,51.2814481 201.664179,49.0858283 C203.768667,46.8902086 206.273973,45.1603523 209.180171,43.8962076 C212.086368,42.6320629 215.309861,42 218.850746,42 C223.126532,42 226.750874,42.781762 229.723881,44.3453094 C232.696888,45.9088568 235.085288,47.9547445 236.889126,50.4830339 C238.692973,53.0113234 239.995732,55.8722395 240.797441,59.0658683 C241.599147,62.259497 242,65.5196108 242,68.8463074 L242,70.5429142 L206.925373,70.5429142 C206.925373,72.2727964 207.30952,73.8363204 208.077825,75.2335329 C208.84613,76.6307455 209.848253,77.8283383 211.084222,78.8263473 C212.320191,79.8243563 213.723162,80.589485 215.293177,81.1217565 C216.863192,81.6540279 218.416481,81.9201597 219.953092,81.9201597 C222.224603,81.9201597 224.212145,81.7039276 225.915778,81.2714571 C227.619412,80.8389865 229.072495,80.3399895 230.275053,79.7744511 C231.477618,79.2089127 232.463038,78.6101163 233.231343,77.9780439 L233.716327,77.5739129 C234.250386,77.122552 234.6733,76.7416294 234.985075,76.4311377 L241.398721,83.6167665 Z M230,63 C230,61.8235294 229.766669,60.6470647 229.3,59.4705882 C228.833331,58.2941118 228.150005,57.2320309 227.25,56.2843137 C226.349996,55.3365966 225.200007,54.5522907 223.8,53.9313725 C222.399993,53.3104544 220.800009,53 219,53 C217.066657,53 215.350008,53.3104544 213.85,53.9313725 C212.349992,54.5522907 211.100005,55.3365966 210.1,56.2843137 C209.099995,57.2320309 208.333336,58.2941118 207.8,59.4705882 C207.266664,60.6470647 207,61.8235294 207,63 L230,63 Z M250,24 L262.030369,24 L262.030369,46.8989751 C262.845991,46.102485 264.409244,45.2064471 266.720174,44.2108346 C269.031103,43.215222 271.817771,42.7174231 275.08026,42.7174231 C278.546655,42.7174231 281.622185,43.3479683 284.306941,44.6090776 C286.991698,45.8701869 289.285601,47.5627029 291.18872,49.6866764 C293.091839,51.81065 294.536148,54.3328307 295.521692,57.2532943 C296.507236,60.1737579 297,63.2601106 297,66.5124451 C297,70.0302763 296.371301,73.3323418 295.113883,76.4187408 C293.856465,79.5051399 292.055326,82.1932536 289.710412,84.4831625 C287.365498,86.7730715 284.527855,88.5983339 281.197397,89.9590044 C277.866939,91.3196749 274.128726,92 269.982646,92 C265.836566,92 262.013394,91.6681341 258.513015,91.0043924 C255.012636,90.3406507 252.174993,89.6437323 250,88.9136164 L250,24 Z M262,82 C262.962636,82.333335 263.959636,82.5833325 264.991031,82.75 C266.022427,82.9166675 267.638255,83 269.838565,83 C272.313914,83 274.479811,82.5833375 276.336323,81.75 C278.192834,80.9166625 279.774283,79.800007 281.080717,78.4 C282.387152,77 283.366962,75.3833425 284.020179,73.55 C284.673396,71.7166575 285,69.833343 285,67.9 C285,66.099991 284.776534,64.366675 284.329596,62.7 C283.882658,61.033325 283.177882,59.5500065 282.215247,58.25 C281.252611,56.9499935 280.032145,55.9166705 278.553812,55.15 C277.075478,54.3833295 275.304943,54 273.242152,54 C269.529129,54 266.727214,54.9166575 264.836323,56.75 C262.945432,58.5833425 262,61.099984 262,64.3 L262,82 Z M306,44 L317.881007,44 L317.881007,71.8663883 C317.881007,74.8100356 318.703272,77.0831513 320.347826,78.6858038 C321.99238,80.2884562 324.123557,81.0897704 326.741419,81.0897704 C328.352411,81.0897704 329.862693,80.7790567 331.272311,80.15762 C332.681922,79.5361834 333.890155,78.6694558 334.897025,77.5574113 C335.903895,76.4453667 336.692598,75.153452 337.263158,73.6816284 C337.833718,72.2098047 338.118993,70.6235297 338.118993,68.9227557 L338.118993,44 L350,44 L350,90.0187891 L338.622426,90.0187891 L338.320366,84.8183716 C337.716247,85.4725154 336.977884,86.1593562 336.105263,86.8789144 C335.232642,87.5984726 334.225788,88.26896 333.084668,88.8903967 C331.943549,89.5118333 330.634637,90.0187872 329.157895,90.4112735 C327.681152,90.8037598 326.003061,91 324.12357,91 C318.216599,91 313.719314,89.2828982 310.631579,85.848643 C307.543844,82.4143878 306,77.7863896 306,71.9645094 L306,44 Z M361,24 L374,24 L374,37 L361,37 L361,24 Z M362,44 L374,44 L374,90 L362,90 L362,44 Z M386,24 L398,24 L398,91 L386,91 L386,24 Z M442.12311,85.8272328 C441.514039,86.4909745 440.769623,87.1878929 439.889849,87.9180088 C439.010075,88.6481247 437.978048,89.3118565 436.793737,89.909224 C435.609425,90.5065916 434.289784,91.0043904 432.834773,91.4026354 C431.379762,91.8008805 429.73867,92 427.911447,92 C425.3398,92 422.802028,91.4690146 420.298056,90.4070278 C417.794084,89.3450411 415.560845,87.7852714 413.598272,85.727672 C411.635699,83.6700727 410.045356,81.1478919 408.827214,78.1610542 C407.609065,75.1742164 407,71.7559978 407,67.9062958 C407,64.2557163 407.541391,61.0532105 408.62419,58.2986823 C409.706989,55.5441541 411.060475,53.2044996 412.684665,51.2796486 C414.038164,49.6866685 415.52699,48.3592049 417.151188,47.2972182 C418.775386,46.2352314 420.416478,45.3557868 422.074514,44.658858 C423.73255,43.9619292 425.339805,43.4641303 426.896328,43.1654466 C428.452852,42.8667628 429.80633,42.7174231 430.956803,42.7174231 C432.513327,42.7174231 433.799131,42.767203 434.814255,42.8667643 C435.829379,42.9663255 436.742977,43.0990719 437.555076,43.2650073 C438.367175,43.4309428 439.111588,43.6466556 439.788337,43.9121523 L441.691683,44.6450296 C441.832672,44.6984975 441.976481,44.7528873 442.12311,44.8081991 L442.12311,24 L454,24 L454,90.4070278 L442.427646,90.4070278 L442.12311,85.8272328 Z M442,56.4914089 C440.851683,55.5612783 439.517629,54.9135184 437.997797,54.54811 C436.477966,54.1827015 434.535988,54 432.171806,54 C429.807624,54 427.84876,54.4484491 426.295154,55.3453608 C424.741549,56.2422725 423.390608,57.4215276 422.242291,58.8831615 C421.22907,60.2119196 420.435392,61.7565777 419.861233,63.5171821 C419.287075,65.2777866 419,67.1214108 419,69.04811 C419,73.0343842 420.013206,76.3562296 422.039648,79.0137457 C424.066089,81.6712619 427.004386,83 430.854626,83 C432.881067,83 434.603517,82.6179878 436.022026,81.8539519 C437.440536,81.089916 438.588836,80.1099716 439.46696,78.9140893 C440.345085,77.7182071 440.986782,76.4060782 441.39207,74.9776632 C441.797357,73.5492483 442,72.1706825 442,70.8419244 L442,56.4914089 Z M509.398721,83.6167665 L507.745203,85.2634731 C506.843279,86.1616811 505.54052,87.1097754 503.836887,88.1077844 C502.133254,89.1057934 499.961989,90.003988 497.323028,90.8023952 C494.684066,91.6008024 491.527382,92 487.852878,92 C484.111566,92 480.704351,91.3679371 477.63113,90.1037924 C474.557909,88.8396477 471.93569,87.0931582 469.764392,84.8642715 C467.593095,82.6353847 465.922891,79.9574341 464.753731,76.8303393 C463.584571,73.7032445 463,70.2435319 463,66.4510978 C463,62.9913333 463.584571,59.7811193 464.753731,56.8203593 C465.922891,53.8595993 467.559691,51.2814481 469.664179,49.0858283 C471.768667,46.8902086 474.273973,45.1603523 477.180171,43.8962076 C480.086368,42.6320629 483.309861,42 486.850746,42 C491.126532,42 494.750874,42.781762 497.723881,44.3453094 C500.696888,45.9088568 503.085288,47.9547445 504.889126,50.4830339 C506.692973,53.0113234 507.995732,55.8722395 508.797441,59.0658683 C509.599147,62.259497 510,65.5196108 510,68.8463074 L510,70.5429142 L474.925373,70.5429142 C474.925373,72.2727964 475.30952,73.8363204 476.077825,75.2335329 C476.84613,76.6307455 477.848253,77.8283383 479.084222,78.8263473 C480.320191,79.8243563 481.723162,80.589485 483.293177,81.1217565 C484.863192,81.6540279 486.416481,81.9201597 487.953092,81.9201597 C490.224603,81.9201597 492.212145,81.7039276 493.915778,81.2714571 C495.619412,80.8389865 497.072495,80.3399895 498.275053,79.7744511 C499.477618,79.2089127 500.463038,78.6101163 501.231343,77.9780439 L501.716327,77.5739129 C502.250386,77.122552 502.6733,76.7416294 502.985075,76.4311377 L509.398721,83.6167665 Z M498,63 C498,61.8235294 497.766669,60.6470647 497.3,59.4705882 C496.833331,58.2941118 496.150005,57.2320309 495.25,56.2843137 C494.349996,55.3365966 493.200007,54.5522907 491.8,53.9313725 C490.399993,53.3104544 488.800009,53 487,53 C485.066657,53 483.350008,53.3104544 481.85,53.9313725 C480.349993,54.5522907 479.100005,55.3365966 478.1,56.2843137 C477.099995,57.2320309 476.333336,58.2941118 475.8,59.4705882 C475.266664,60.6470647 475,61.8235294 475,63 L498,63 Z M519,43.8849372 L530.479365,43.8849372 L530.784127,49.6861925 C531.325929,49.0306801 532.020102,48.3096274 532.866667,47.5230126 C533.713232,46.7363977 534.712164,46.015345 535.863492,45.3598326 C537.014821,44.7043203 538.352373,44.1471432 539.87619,43.6882845 C541.400008,43.2294259 543.143906,43 545.107937,43 C546.259265,43 547.292059,43.0655503 548.206349,43.1966527 C549.120639,43.3277552 550.051847,43.5571811 551,43.8849372 L548.561905,54.7991632 C547.749202,54.471407 546.919581,54.2419811 546.073016,54.1108787 C545.226451,53.9797762 544.227519,53.9142259 543.07619,53.9142259 C541.450786,53.9142259 539.893129,54.1764269 538.403175,54.7008368 C536.91322,55.2252467 535.62646,55.9790746 534.542857,56.9623431 C533.459254,57.9456116 532.59577,59.1255161 531.952381,60.5020921 C531.308991,61.878668 530.987302,63.4190989 530.987302,65.123431 L530.987302,90 L519,90 L519,43.8849372 Z" id="pagebuilder" fill="#FFFFFF" fill-rule="nonzero"></path>
            <path d="M273.082298,167 C275.939441,167 278.245342,165.928775 280,163.786325 L280,163.786325 L277.228261,161.233618 C276.684783,161.902184 276.129658,162.392213 275.562888,162.703704 C274.996118,163.015195 274.262422,163.17094 273.361801,163.17094 C272.740683,163.17094 272.177795,163.064577 271.673137,162.851852 C271.168478,162.639126 270.737578,162.34283 270.380435,161.962963 C270.023292,161.583096 269.747671,161.134853 269.553571,160.618234 C269.359472,160.101614 269.262422,159.539411 269.262422,158.931624 C269.262422,158.339031 269.35559,157.788224 269.541925,157.279202 C269.728261,156.77018 269.996118,156.325736 270.345497,155.945869 C270.694876,155.566002 271.125776,155.269706 271.638199,155.05698 C272.150621,154.844255 272.732919,154.737892 273.385093,154.737892 C274.161491,154.737892 274.852484,154.912631 275.458075,155.262108 C276.063665,155.611586 276.583851,156.075024 277.018634,156.652422 L277.018634,156.652422 L279.743789,153.962963 C278.951863,152.868946 277.981366,152.101614 276.832298,151.660969 C275.68323,151.220323 274.43323,151 273.082298,151 C271.886646,151 270.791925,151.20133 269.798137,151.603989 C268.804348,152.006648 267.950311,152.568851 267.236025,153.290598 C266.521739,154.012346 265.970497,154.863248 265.582298,155.843305 C265.194099,156.823362 265,157.890788 265,159.045584 C265,160.215575 265.197981,161.2868 265.593944,162.259259 C265.989907,163.231719 266.541149,164.067426 267.247671,164.766382 C267.954193,165.465337 268.804348,166.012346 269.798137,166.407407 C270.791925,166.802469 271.886646,167 273.082298,167 Z M286.767313,167 L287.055402,158.206897 L289.936288,163.334333 L292.085873,163.334333 L294.67867,158.206897 L295.033241,167 L299,167 L298.313019,152 L294.545706,152 L291.022161,158.544228 L287.432133,152 L283.686981,152 L283,167 L286.767313,167 Z M308.629295,167 C309.506932,167 310.333635,166.882073 311.109403,166.64622 C311.885172,166.410366 312.559072,166.07941 313.131103,165.653352 C313.703134,165.227294 314.157625,164.717546 314.494575,164.124108 C314.831525,163.53067 315,162.883975 315,162.184023 C315,161.377556 314.858951,160.696624 314.576854,160.141227 C314.294756,159.58583 313.934298,159.121731 313.495479,158.74893 C313.056661,158.376129 312.56299,158.07941 312.014467,157.858773 C311.465943,157.638136 310.925256,157.444127 310.392405,157.276748 L310.392405,157.276748 L309.640145,157.048502 C309.311031,156.941988 309.001507,156.839277 308.711573,156.740371 C308.42164,156.641465 308.174804,156.531146 307.971067,156.409415 C307.76733,156.287684 307.606691,156.143129 307.48915,155.975749 C307.371609,155.808369 307.312839,155.610556 307.312839,155.382311 C307.312839,155.169282 307.363773,154.99049 307.465642,154.845934 C307.567511,154.701379 307.700723,154.583452 307.86528,154.492154 C308.029837,154.400856 308.213984,154.332382 308.417722,154.286733 C308.621459,154.241084 308.825196,154.21826 309.028933,154.21826 C309.655817,154.21826 310.267028,154.343795 310.862568,154.594864 C311.458107,154.845934 312.030139,155.169282 312.578662,155.564907 L312.578662,155.564907 L314.694394,152.96291 C314.522001,152.780314 314.271248,152.574893 313.942134,152.346648 C313.61302,152.118402 313.213382,151.905373 312.743219,151.707561 C312.273056,151.509748 311.724533,151.342368 311.097649,151.205421 C310.470766,151.068474 309.773357,151 309.005425,151 C308.018083,151 307.148282,151.125535 306.396022,151.376605 C305.643761,151.627675 305.01296,151.977651 304.503617,152.426534 C303.994274,152.875416 303.606389,153.40038 303.339964,154.001427 C303.073538,154.602473 302.940325,155.252972 302.940325,155.952924 C302.940325,156.576795 303.061784,157.12078 303.304702,157.584879 C303.547619,158.048978 303.864979,158.452211 304.256781,158.794579 C304.648583,159.136947 305.09132,159.429862 305.584991,159.673324 C306.078662,159.916786 306.568415,160.114598 307.05425,160.266762 L307.05425,160.266762 L307.924051,160.540656 C308.723327,160.799334 309.330621,161.058012 309.745931,161.31669 C310.161242,161.575369 310.368897,161.90252 310.368897,162.298146 C310.368897,162.541607 310.314045,162.73942 310.20434,162.891583 C310.094635,163.043747 309.953586,163.165478 309.781193,163.256776 C309.6088,163.348074 309.412899,163.412744 309.19349,163.450785 C308.974081,163.488825 308.762508,163.507846 308.55877,163.507846 C307.712477,163.507846 306.936709,163.332858 306.231465,162.982882 C305.526221,162.632905 304.954189,162.244888 304.515371,161.81883 L304.515371,161.81883 L302,164.763195 C302.736588,165.447932 303.633816,165.991916 304.691682,166.39515 C305.749548,166.798383 307.062086,167 308.629295,167 Z" id="CMS" fill="#FFFFFF" fill-rule="nonzero"></path>
        </g>
    </g>
</svg>