<?xml version="1.0" encoding="UTF-8"?>
<svg width="700px" height="500px" viewBox="0 0 700 500" version="1.1" xmlns="http://www.w3.org/2000/svg" xmlns:xlink="http://www.w3.org/1999/xlink">
    <title>page builder</title>
    <defs>
        <polygon id="path-1" points="0.0218181818 0.242545455 30.8483636 0.242545455 30.8483636 38.8483636 0.0218181818 38.8483636"></polygon>
        <linearGradient x1="50%" y1="-15.7313823%" x2="50%" y2="100%" id="linearGradient-3">
            <stop stop-color="#57BBE7" offset="0%"></stop>
            <stop stop-color="#0095C8" offset="100%"></stop>
        </linearGradient>
    </defs>
    <g id="page-builder" stroke="none" stroke-width="1" fill="none" fill-rule="evenodd">
        <rect id="Rectangle" stroke="#2C85CA" x="65.5" y="188.5" width="571" height="123"></rect>
        <rect id="Rectangle" stroke="#2C85CA" fill="#FFFFFF" x="61" y="184" width="8" height="8"></rect>
        <rect id="Rectangle-Copy-3" stroke="#2C85CA" fill="#FFFFFF" x="347" y="184" width="8" height="8"></rect>
        <rect id="Rectangle-Copy-6" stroke="#2C85CA" fill="#FFFFFF" x="633" y="184" width="8" height="8"></rect>
        <rect id="Rectangle-Copy" stroke="#2C85CA" fill="#FFFFFF" x="61" y="246" width="8" height="8"></rect>
        <rect id="Rectangle-Copy-7" stroke="#2C85CA" fill="#FFFFFF" x="633" y="246" width="8" height="8"></rect>
        <rect id="Rectangle-Copy-2" stroke="#2C85CA" fill="#FFFFFF" x="61" y="308" width="8" height="8"></rect>
        <rect id="Rectangle-Copy-5" stroke="#2C85CA" fill="#FFFFFF" x="347" y="308" width="8" height="8"></rect>
        <rect id="Rectangle-Copy-8" stroke="#2C85CA" fill="#FFFFFF" x="633" y="308" width="8" height="8"></rect>
        <g id="hand_cursor_free_vector" transform="translate(469.000000, 310.500000) rotate(-26.000000) translate(-469.000000, -310.500000) translate(453.000000, 290.000000)">
            <g id="Group-4" transform="translate(0.000000, 1.090909)">
                <mask id="mask-2" fill="white">
                    <use xlink:href="#path-1"></use>
                </mask>
                <g id="Clip-2"></g>
                <polyline id="Fill-1" fill="#FFFFFE" mask="url(#mask-2)" points="8.18181818 1.63636364 8.60618182 18.3636364 6.36363636 18.3636364 4.84836364 17.0301818 0.909090909 16.6665455 1.03018182 19.8181818 2.12109091 21.4545455 4.36363636 23.4545455 4.788 26.1210909 6.60618182 27.8789091 6.90909091 29.5756364 8 30.9090909 8.72727273 33.3938182 9.63636364 34.6061818 10.0607273 38.4243636 27.0909091 38.8483636 27.3334545 34.9090909 28.9698182 33.0909091 29.5756364 29.1516364 30.8483636 27.5756364 30.5454545 16.4243636 27.0909091 13.5152727 24.788 12.3029091 23.6970909 11.6970909 19.3938182 10.8483636 18.3029091 9.63636364 14.4847273 9.09090909 13.7574545 2.12109091 12.1210909 0.302909091 10.4847273 0.242545455 8.18181818 1.63636364"></polyline>
                <polygon id="Fill-3" fill="#2C85CA" mask="url(#mask-2)" points="0.0218181818 21.0301818 1.69709091 21.0301818 1.69709091 15.5756364 0.0218181818 15.5756364"></polygon>
            </g>
            <polygon id="Fill-5" fill="#2C85CA" points="7.212 26.4847273 9.33345455 26.4847273 9.33345455 2.18181818 7.212 2.18181818"></polygon>
            <polygon id="Fill-6" fill="#2C85CA" points="18.8483636 18.5454545 20.9698182 18.5454545 20.9698182 11.212 18.8483636 11.212"></polygon>
            <polygon id="Fill-7" fill="#2C85CA" points="24.2425455 20.3029091 26.364 20.3029091 26.364 13.0909091 24.2425455 13.0909091"></polygon>
            <polygon id="Fill-8" fill="#2C85CA" points="29.7574545 29.7574545 31.8789091 29.7574545 31.8789091 17.0301818 29.7574545 17.0301818"></polygon>
            <polygon id="Fill-9" fill="#2C85CA" points="26.1210909 40.1818182 28.2425455 40.1818182 28.2425455 35.2123636 26.1210909 35.2123636"></polygon>
            <polygon id="Fill-10" fill="#2C85CA" points="27.9996364 35.2123636 30.1210909 35.2123636 30.1210909 29.6974545 27.9996364 29.6974545"></polygon>
            <polygon id="Fill-11" fill="#2C85CA" points="13.0305455 18.7570909 15.152 18.7570909 15.152 2.15127273 13.0305455 2.15127273"></polygon>
            <polygon id="Fill-12" fill="#2C85CA" points="0.121454545 18.5454545 5.33345455 18.5454545 5.33345455 16.6665455 0.121454545 16.6665455"></polygon>
            <polygon id="Fill-13" fill="#2C85CA" points="9.15163636 40.7272727 28.2429091 40.7272727 28.2429091 38.8483636 9.15163636 38.8483636"></polygon>
            <polygon id="Fill-14" fill="#2C85CA" points="1.69709091 23.9392727 3.69709091 23.9392727 3.69709091 22.0607273 1.69709091 22.0607273"></polygon>
            <polygon id="Fill-15" fill="#2C85CA" points="3.63672727 27.9396364 5.45490909 27.9396364 5.45490909 23.8185455 3.63672727 23.8185455"></polygon>
            <polygon id="Fill-16" fill="#2C85CA" points="5.39418182 31.6363636 7.45490909 31.6363636 7.45490909 27.9396364 5.39418182 27.9396364"></polygon>
            <polygon id="Fill-17" fill="#2C85CA" points="7.45490909 35.212 9.27309091 35.212 9.27309091 31.5756364 7.45490909 31.5756364"></polygon>
            <polygon id="Fill-18" fill="#2C85CA" points="9.15163636 39.1512727 11.2123636 39.1512727 11.2123636 35.212 9.15163636 35.212"></polygon>
            <polygon id="Fill-19" fill="#2C85CA" points="5.39381818 20.424 8.30290909 20.424 8.30290909 18.5450909 5.39381818 18.5450909"></polygon>
            <polygon id="Fill-20" fill="#2C85CA" points="25.0301818 15.212 27.9392727 15.212 27.9392727 13.0909091 25.0301818 13.0909091"></polygon>
            <polygon id="Fill-21" fill="#2C85CA" points="27.9447273 17.0792727 29.7574545 17.0792727 29.7574545 15.2341818 27.9447273 15.2341818"></polygon>
            <polygon id="Fill-22" fill="#2C85CA" points="9.39381818 2.18181818 13.0301818 2.18181818 13.0301818 0.302909091 9.39381818 0.302909091"></polygon>
            <polygon id="Fill-23" fill="#2C85CA" points="20.3592727 13.1512727 24.3029091 13.1512727 24.3029091 11.2287273 20.3592727 11.2287273"></polygon>
            <polygon id="Fill-24" fill="#2C85CA" points="15.0843636 11.1894545 18.8418182 11.1894545 18.8418182 9.36363636 15.0843636 9.36363636"></polygon>
        </g>
        <path d="M94,227.902655 L105.471698,227.902655 L105.773585,233.218289 C106.377362,232.549653 107.132071,231.847595 108.037736,231.112094 C108.943401,230.376594 110.016765,229.707968 111.257862,229.106195 C112.498958,228.504425 113.907749,228.00295 115.484277,227.60177 C117.060805,227.200588 118.821793,227 120.767296,227 C124.389955,227 127.526192,227.702058 130.176101,229.106195 C132.826009,230.510324 135.023052,232.36577 136.767296,234.672566 C138.511539,236.979363 139.819702,239.603722 140.691824,242.545723 C141.563946,245.487724 142,248.529974 142,251.672566 C142,255.350068 141.463318,258.492612 140.389937,261.100295 C139.316556,263.707978 137.974851,265.981308 136.36478,267.920354 C133.681328,271.12981 130.746347,273.369708 127.559748,274.640118 C124.37315,275.910527 121.102742,276.545723 117.748428,276.545723 C116.205443,276.545723 114.880509,276.47886 113.773585,276.345133 C112.666661,276.211405 111.660382,276.027533 110.754717,275.79351 C109.849052,275.559488 109.010486,275.292037 108.238994,274.99115 L106.41824,274.285952 C106.2065,274.204462 105.991615,274.121928 105.773585,274.038348 L105.773585,295 L94,295 L94,227.902655 Z M106,264.1 C108.323663,266.033343 111.8423,267 116.556017,267 C118.680509,267 120.572606,266.583338 122.232365,265.75 C123.892124,264.916663 125.302899,263.816674 126.46473,262.45 C127.626562,261.083326 128.506221,259.533342 129.103734,257.8 C129.701248,256.066658 130,254.266676 130,252.4 C130,250.39999 129.784235,248.533342 129.352697,246.8 C128.92116,245.066658 128.224071,243.550006 127.261411,242.25 C126.29875,240.949993 125.05395,239.91667 123.526971,239.15 C122,238.383329 120.107895,238 117.850622,238 C116.058082,238 114.431543,238.383329 112.970954,239.15 C111.510366,239.91667 110.265565,240.899994 109.236515,242.1 C108.207464,243.300006 107.410791,244.616659 106.846473,246.05 C106.282155,247.48334 106,248.86666 106,250.2 L106,264.1 Z M178.7,270.1 C177.433327,271.633341 175.500013,273 172.9,274.2 C170.299987,275.400006 167.400016,276 164.2,276 C162.266657,276 160.350009,275.700003 158.45,275.1 C156.549991,274.5 154.816675,273.583339 153.25,272.35 C151.683325,271.11666 150.416672,269.533343 149.45,267.6 C148.483328,265.666657 148,263.400013 148,260.8 C148,258.13332 148.5,255.750011 149.5,253.65 C150.5,251.54999 151.899991,249.783341 153.7,248.35 C155.5,246.91666 157.666654,245.833337 160.2,245.1 C162.733346,244.366663 165.533318,244 168.6,244 C169.533338,244 170.566661,244.016666 171.7,244.05 C172.550004,244.075 173.381249,244.109375 174.193749,244.153125 L175,244.2 C176.200006,244.266667 177.433327,244.333333 178.7,244.4 L178.7,243.3 C178.7,240.966655 177.766676,239.13334 175.9,237.8 C174.033324,236.46666 171.600015,235.8 168.6,235.8 C165.26665,235.8 162.60001,236.233329 160.6,237.1 C158.59999,237.966671 156.833341,238.899995 155.3,239.9 L149.9,231.9 C150.833338,231.23333 151.899994,230.550004 153.1,229.85 C154.300006,229.149996 155.699992,228.516669 157.3,227.95 C158.900008,227.38333 160.749989,226.916669 162.85,226.55 C164.95001,226.183332 167.399986,226 170.2,226 C173.200015,226 175.916654,226.416663 178.35,227.25 C180.783345,228.083337 182.866658,229.249992 184.6,230.75 C186.333342,232.250008 187.666662,234.04999 188.6,236.15 C189.533338,238.250011 190,240.533321 190,243 L190,274.5 L179,274.5 L178.7,270.1 Z M179,258.072464 L179,253.405797 L175.391753,253.202899 L175.391753,253.202899 C174.670099,253.152174 173.91946,253.11096 173.139821,253.079257 L172.350515,253.050725 C171.41838,253.021135 170.604652,253.004491 169.909311,253.000793 L169.618557,253 C165.701011,253 162.951898,253.760862 161.371134,255.282609 C159.79037,256.804355 159,258.545884 159,260.507246 C159,262.536242 159.738824,264.125598 161.216495,265.275362 C162.694165,266.425127 164.876274,267 167.762887,267 C169.206193,267 170.597931,266.763287 171.938144,266.289855 C173.278357,265.816423 174.463918,265.173913 175.494845,264.362319 C176.525773,263.550721 177.367694,262.60387 178.020619,261.521739 C178.673543,260.439608 179,259.289861 179,258.072464 Z M208.991323,282.419682 C210.894442,283.684522 212.950459,284.599852 215.159436,285.165702 C217.368413,285.731551 219.96817,286.014472 222.958785,286.014472 C226.085337,286.014472 228.702086,285.082498 230.809111,283.218524 C232.916135,281.354549 233.969631,278.758338 233.969631,275.429812 L233.969631,270.337192 C232.338387,271.668603 230.55424,272.750358 228.617137,273.582489 C226.680034,274.414621 224.11426,274.83068 220.91974,274.83068 C217.453345,274.83068 214.377815,274.264839 211.693059,273.13314 C209.008302,272.001442 206.714399,270.420415 204.81128,268.390014 C202.908161,266.359614 201.463852,263.963111 200.478308,261.200434 C199.492764,258.437758 199,255.392202 199,252.063676 C199,248.602009 199.628699,245.340102 200.886117,242.277858 C202.143535,239.215614 203.944674,236.552833 206.289588,234.289436 C208.634502,232.026038 211.472145,230.245303 214.802603,228.947178 C218.133061,227.649053 221.871274,227 226.017354,227 C230.163434,227 233.986606,227.332848 237.486985,227.998553 C240.987364,228.664258 243.825007,229.363238 246,230.095514 L246,275.629522 C246,278.891478 245.422276,281.787252 244.266811,284.316932 C243.111346,286.846612 241.51411,288.976836 239.475054,290.70767 C237.435998,292.438504 235.023152,293.753252 232.236443,294.651954 C229.449733,295.550656 226.425179,296 223.16269,296 C220.647854,296 218.421919,295.883503 216.484816,295.650507 C214.547713,295.41751 212.814541,295.101304 211.285249,294.701881 C209.755958,294.302458 208.362624,293.803187 207.105206,293.204052 C205.847788,292.604917 204.675349,291.905933 203.587852,291.107091 L208.991323,282.419682 Z M234,238.021898 C233.037364,237.681264 232.040364,237.425792 231.008969,237.255474 C229.977573,237.085157 228.361745,237 226.161435,237 C223.686086,237 221.520189,237.408755 219.663677,238.226277 C217.807166,239.043796 216.225717,240.133813 214.919283,241.49635 C213.612848,242.858888 212.633038,244.442813 211.979821,246.248175 C211.326604,248.053537 211,249.944029 211,251.919708 C211,255.598559 211.928242,258.698284 213.784753,261.218978 C215.641256,263.739672 218.632266,265 222.757848,265 C226.470871,265 229.272786,264.216553 231.163677,262.649635 C233.054568,261.082717 234,258.596124 234,255.189781 L234,238.021898 Z M302.398721,267.616766 L300.745203,269.263473 C299.843279,270.161681 298.54052,271.109775 296.836887,272.107784 C295.133254,273.105793 292.961989,274.003988 290.323028,274.802395 C287.684066,275.600802 284.527382,276 280.852878,276 C277.111566,276 273.704351,275.367937 270.63113,274.103792 C267.557909,272.839648 264.93569,271.093158 262.764392,268.864271 C260.593095,266.635385 258.922891,263.957434 257.753731,260.830339 C256.584571,257.703245 256,254.243532 256,250.451098 C256,246.991333 256.584571,243.781119 257.753731,240.820359 C258.922891,237.859599 260.559691,235.281448 262.664179,233.085828 C264.768667,230.890209 267.273973,229.160352 270.180171,227.896208 C273.086368,226.632063 276.309861,226 279.850746,226 C284.126532,226 287.750874,226.781762 290.723881,228.345309 C293.696888,229.908857 296.085288,231.954745 297.889126,234.483034 C299.692973,237.011323 300.995732,239.87224 301.797441,243.065868 C302.599147,246.259497 303,249.519611 303,252.846307 L303,254.542914 L267.925373,254.542914 C267.925373,256.272796 268.30952,257.83632 269.077825,259.233533 C269.84613,260.630746 270.848253,261.828338 272.084222,262.826347 C273.320191,263.824356 274.723162,264.589485 276.293177,265.121756 C277.863192,265.654028 279.416481,265.92016 280.953092,265.92016 C283.224603,265.92016 285.212145,265.703928 286.915778,265.271457 C288.619412,264.838987 290.072495,264.33999 291.275053,263.774451 C292.477618,263.208913 293.463038,262.610116 294.231343,261.978044 L294.716327,261.573913 C295.250386,261.122552 295.6733,260.741629 295.985075,260.431138 L302.398721,267.616766 Z M291,247 C291,245.823529 290.766669,244.647065 290.3,243.470588 C289.833331,242.294112 289.150005,241.232031 288.25,240.284314 C287.349996,239.336597 286.200007,238.552291 284.8,237.931373 C283.399993,237.310454 281.800009,237 280,237 C278.066657,237 276.350008,237.310454 274.85,237.931373 C273.349992,238.552291 272.100005,239.336597 271.1,240.284314 C270.099995,241.232031 269.333336,242.294112 268.8,243.470588 C268.266664,244.647065 268,245.823529 268,247 L291,247 Z M311,208 L323.030369,208 L323.030369,230.898975 C323.845991,230.102485 325.409244,229.206447 327.720174,228.210835 C330.031103,227.215222 332.817771,226.717423 336.08026,226.717423 C339.546655,226.717423 342.622185,227.347968 345.306941,228.609078 C347.991698,229.870187 350.285601,231.562703 352.18872,233.686676 C354.091839,235.81065 355.536148,238.332831 356.521692,241.253294 C357.507236,244.173758 358,247.260111 358,250.512445 C358,254.030276 357.371301,257.332342 356.113883,260.418741 C354.856465,263.50514 353.055326,266.193254 350.710412,268.483163 C348.365498,270.773071 345.527855,272.598334 342.197397,273.959004 C338.866939,275.319675 335.128726,276 330.982646,276 C326.836566,276 323.013394,275.668134 319.513015,275.004392 C316.012636,274.340651 313.174993,273.643732 311,272.913616 L311,208 Z M323,266 C323.962636,266.333335 324.959636,266.583332 325.991031,266.75 C327.022427,266.916668 328.638255,267 330.838565,267 C333.313914,267 335.479811,266.583338 337.336323,265.75 C339.192834,264.916663 340.774283,263.800007 342.080717,262.4 C343.387152,261 344.366962,259.383343 345.020179,257.55 C345.673396,255.716657 346,253.833343 346,251.9 C346,250.099991 345.776534,248.366675 345.329596,246.7 C344.882658,245.033325 344.177882,243.550006 343.215247,242.25 C342.252611,240.949993 341.032145,239.91667 339.553812,239.15 C338.075478,238.383329 336.304943,238 334.242152,238 C330.529129,238 327.727214,238.916657 325.836323,240.75 C323.945432,242.583342 323,245.099984 323,248.3 L323,266 Z M367,228 L378.881007,228 L378.881007,255.866388 C378.881007,258.810036 379.703272,261.083151 381.347826,262.685804 C382.99238,264.288456 385.123557,265.08977 387.741419,265.08977 C389.352411,265.08977 390.862693,264.779057 392.272311,264.15762 C393.681922,263.536183 394.890155,262.669456 395.897025,261.557411 C396.903895,260.445367 397.692598,259.153452 398.263158,257.681628 C398.833718,256.209805 399.118993,254.62353 399.118993,252.922756 L399.118993,228 L411,228 L411,274.018789 L399.622426,274.018789 L399.320366,268.818372 C398.716247,269.472515 397.977884,270.159356 397.105263,270.878914 C396.232642,271.598473 395.225788,272.26896 394.084668,272.890397 C392.943549,273.511833 391.634637,274.018787 390.157895,274.411273 C388.681152,274.80376 387.003061,275 385.12357,275 C379.216599,275 374.719314,273.282898 371.631579,269.848643 C368.543844,266.414388 367,261.78639 367,255.964509 L367,228 Z M422,208 L435,208 L435,221 L422,221 L422,208 Z M423,228 L435,228 L435,274 L423,274 L423,228 Z M447,208 L459,208 L459,275 L447,275 L447,208 Z M503.12311,269.827233 C502.514039,270.490975 501.769623,271.187893 500.889849,271.918009 C500.010075,272.648125 498.978048,273.311856 497.793737,273.909224 C496.609425,274.506592 495.289784,275.00439 493.834773,275.402635 C492.379762,275.80088 490.73867,276 488.911447,276 C486.3398,276 483.802028,275.469015 481.298056,274.407028 C478.794084,273.345041 476.560845,271.785271 474.598272,269.727672 C472.635699,267.670073 471.045356,265.147892 469.827214,262.161054 C468.609065,259.174216 468,255.755998 468,251.906296 C468,248.255716 468.541391,245.05321 469.62419,242.298682 C470.706989,239.544154 472.060475,237.2045 473.684665,235.279649 C475.038164,233.686668 476.52699,232.359205 478.151188,231.297218 C479.775386,230.235231 481.416478,229.355787 483.074514,228.658858 C484.73255,227.961929 486.339805,227.46413 487.896328,227.165447 C489.452852,226.866763 490.80633,226.717423 491.956803,226.717423 C493.513327,226.717423 494.799131,226.767203 495.814255,226.866764 C496.829379,226.966326 497.742977,227.099072 498.555076,227.265007 C499.367175,227.430943 500.111588,227.646656 500.788337,227.912152 L502.691683,228.64503 C502.832672,228.698497 502.976481,228.752887 503.12311,228.808199 L503.12311,208 L515,208 L515,274.407028 L503.427646,274.407028 L503.12311,269.827233 Z M503,240.491409 C501.851683,239.561278 500.517629,238.913518 498.997797,238.54811 C497.477966,238.182701 495.535988,238 493.171806,238 C490.807624,238 488.84876,238.448449 487.295154,239.345361 C485.741549,240.242273 484.390608,241.421528 483.242291,242.883162 C482.22907,244.21192 481.435392,245.756578 480.861233,247.517182 C480.287075,249.277787 480,251.121411 480,253.04811 C480,257.034384 481.013206,260.35623 483.039648,263.013746 C485.066089,265.671262 488.004386,267 491.854626,267 C493.881067,267 495.603517,266.617988 497.022026,265.853952 C498.440536,265.089916 499.588836,264.109972 500.46696,262.914089 C501.345085,261.718207 501.986782,260.406078 502.39207,258.977663 C502.797357,257.549248 503,256.170682 503,254.841924 L503,240.491409 Z M570.398721,267.616766 L568.745203,269.263473 C567.843279,270.161681 566.54052,271.109775 564.836887,272.107784 C563.133254,273.105793 560.961989,274.003988 558.323028,274.802395 C555.684066,275.600802 552.527382,276 548.852878,276 C545.111566,276 541.704351,275.367937 538.63113,274.103792 C535.557909,272.839648 532.93569,271.093158 530.764392,268.864271 C528.593095,266.635385 526.922891,263.957434 525.753731,260.830339 C524.584571,257.703245 524,254.243532 524,250.451098 C524,246.991333 524.584571,243.781119 525.753731,240.820359 C526.922891,237.859599 528.559691,235.281448 530.664179,233.085828 C532.768667,230.890209 535.273973,229.160352 538.180171,227.896208 C541.086368,226.632063 544.309861,226 547.850746,226 C552.126532,226 555.750874,226.781762 558.723881,228.345309 C561.696888,229.908857 564.085288,231.954745 565.889126,234.483034 C567.692973,237.011323 568.995732,239.87224 569.797441,243.065868 C570.599147,246.259497 571,249.519611 571,252.846307 L571,254.542914 L535.925373,254.542914 C535.925373,256.272796 536.30952,257.83632 537.077825,259.233533 C537.84613,260.630746 538.848253,261.828338 540.084222,262.826347 C541.320191,263.824356 542.723162,264.589485 544.293177,265.121756 C545.863192,265.654028 547.416481,265.92016 548.953092,265.92016 C551.224603,265.92016 553.212145,265.703928 554.915778,265.271457 C556.619412,264.838987 558.072495,264.33999 559.275053,263.774451 C560.477618,263.208913 561.463038,262.610116 562.231343,261.978044 L562.716327,261.573913 C563.250386,261.122552 563.6733,260.741629 563.985075,260.431138 L570.398721,267.616766 Z M559,247 C559,245.823529 558.766669,244.647065 558.3,243.470588 C557.833331,242.294112 557.150005,241.232031 556.25,240.284314 C555.349995,239.336597 554.200007,238.552291 552.8,237.931373 C551.399993,237.310454 549.800009,237 548,237 C546.066657,237 544.350008,237.310454 542.85,237.931373 C541.349992,238.552291 540.100005,239.336597 539.1,240.284314 C538.099995,241.232031 537.333336,242.294112 536.8,243.470588 C536.266664,244.647065 536,245.823529 536,247 L559,247 Z M580,227.884937 L591.479365,227.884937 L591.784127,233.686192 C592.325929,233.03068 593.020102,232.309627 593.866667,231.523013 C594.713232,230.736398 595.712164,230.015345 596.863492,229.359833 C598.014821,228.70432 599.352373,228.147143 600.87619,227.688285 C602.400008,227.229426 604.143906,227 606.107937,227 C607.259265,227 608.292059,227.06555 609.206349,227.196653 C610.120639,227.327755 611.051847,227.557181 612,227.884937 L609.561905,238.799163 C608.749202,238.471407 607.919581,238.241981 607.073016,238.110879 C606.226451,237.979776 605.227519,237.914226 604.07619,237.914226 C602.450786,237.914226 600.893129,238.176427 599.403175,238.700837 C597.91322,239.225247 596.62646,239.979075 595.542857,240.962343 C594.459254,241.945612 593.59577,243.125516 592.952381,244.502092 C592.308991,245.878668 591.987302,247.419099 591.987302,249.123431 L591.987302,274 L580,274 L580,227.884937 Z" id="pagebuilder" fill="url(#linearGradient-3)" fill-rule="nonzero"></path>
        <path d="M334.082298,351 C336.939441,351 339.245342,349.928775 341,347.786325 L341,347.786325 L338.228261,345.233618 C337.684783,345.902184 337.129658,346.392213 336.562888,346.703704 C335.996118,347.015195 335.262422,347.17094 334.361801,347.17094 C333.740683,347.17094 333.177795,347.064577 332.673137,346.851852 C332.168478,346.639126 331.737578,346.34283 331.380435,345.962963 C331.023292,345.583096 330.747671,345.134853 330.553571,344.618234 C330.359472,344.101614 330.262422,343.539411 330.262422,342.931624 C330.262422,342.339031 330.35559,341.788224 330.541925,341.279202 C330.728261,340.77018 330.996118,340.325736 331.345497,339.945869 C331.694876,339.566002 332.125776,339.269706 332.638199,339.05698 C333.150621,338.844255 333.732919,338.737892 334.385093,338.737892 C335.161491,338.737892 335.852484,338.912631 336.458075,339.262108 C337.063665,339.611586 337.583851,340.075024 338.018634,340.652422 L338.018634,340.652422 L340.743789,337.962963 C339.951863,336.868946 338.981366,336.101614 337.832298,335.660969 C336.68323,335.220323 335.43323,335 334.082298,335 C332.886646,335 331.791925,335.20133 330.798137,335.603989 C329.804348,336.006648 328.950311,336.568851 328.236025,337.290598 C327.521739,338.012346 326.970497,338.863248 326.582298,339.843305 C326.194099,340.823362 326,341.890788 326,343.045584 C326,344.215575 326.197981,345.2868 326.593944,346.259259 C326.989907,347.231719 327.541149,348.067426 328.247671,348.766382 C328.954193,349.465337 329.804348,350.012346 330.798137,350.407407 C331.791925,350.802469 332.886646,351 334.082298,351 Z M347.767313,351 L348.055402,342.206897 L350.936288,347.334333 L353.085873,347.334333 L355.67867,342.206897 L356.033241,351 L360,351 L359.313019,336 L355.545706,336 L352.022161,342.544228 L348.432133,336 L344.686981,336 L344,351 L347.767313,351 Z M369.629295,351 C370.506932,351 371.333635,350.882073 372.109403,350.64622 C372.885172,350.410366 373.559072,350.07941 374.131103,349.653352 C374.703134,349.227294 375.157625,348.717546 375.494575,348.124108 C375.831525,347.53067 376,346.883975 376,346.184023 C376,345.377556 375.858951,344.696624 375.576854,344.141227 C375.294756,343.58583 374.934298,343.121731 374.495479,342.74893 C374.056661,342.376129 373.56299,342.07941 373.014467,341.858773 C372.465943,341.638136 371.925256,341.444127 371.392405,341.276748 L371.392405,341.276748 L370.640145,341.048502 C370.311031,340.941988 370.001507,340.839277 369.711573,340.740371 C369.42164,340.641465 369.174804,340.531146 368.971067,340.409415 C368.76733,340.287684 368.606691,340.143129 368.48915,339.975749 C368.371609,339.808369 368.312839,339.610556 368.312839,339.382311 C368.312839,339.169282 368.363773,338.99049 368.465642,338.845934 C368.567511,338.701379 368.700723,338.583452 368.86528,338.492154 C369.029837,338.400856 369.213984,338.332382 369.417722,338.286733 C369.621459,338.241084 369.825196,338.21826 370.028933,338.21826 C370.655817,338.21826 371.267028,338.343795 371.862568,338.594864 C372.458107,338.845934 373.030139,339.169282 373.578662,339.564907 L373.578662,339.564907 L375.694394,336.96291 C375.522001,336.780314 375.271248,336.574893 374.942134,336.346648 C374.61302,336.118402 374.213382,335.905373 373.743219,335.707561 C373.273056,335.509748 372.724533,335.342368 372.097649,335.205421 C371.470766,335.068474 370.773357,335 370.005425,335 C369.018083,335 368.148282,335.125535 367.396022,335.376605 C366.643761,335.627675 366.01296,335.977651 365.503617,336.426534 C364.994274,336.875416 364.606389,337.40038 364.339964,338.001427 C364.073538,338.602473 363.940325,339.252972 363.940325,339.952924 C363.940325,340.576795 364.061784,341.12078 364.304702,341.584879 C364.547619,342.048978 364.864979,342.452211 365.256781,342.794579 C365.648583,343.136947 366.09132,343.429862 366.584991,343.673324 C367.078662,343.916786 367.568415,344.114598 368.05425,344.266762 L368.05425,344.266762 L368.924051,344.540656 C369.723327,344.799334 370.330621,345.058012 370.745931,345.31669 C371.161242,345.575369 371.368897,345.90252 371.368897,346.298146 C371.368897,346.541607 371.314045,346.73942 371.20434,346.891583 C371.094635,347.043747 370.953586,347.165478 370.781193,347.256776 C370.6088,347.348074 370.412899,347.412744 370.19349,347.450785 C369.974081,347.488825 369.762508,347.507846 369.55877,347.507846 C368.712477,347.507846 367.936709,347.332858 367.231465,346.982882 C366.526221,346.632905 365.954189,346.244888 365.515371,345.81883 L365.515371,345.81883 L363,348.763195 C363.736588,349.447932 364.633816,349.991916 365.691682,350.39515 C366.749548,350.798383 368.062086,351 369.629295,351 Z" id="CMS" fill="#0095C8" fill-rule="nonzero"></path>
    </g>
</svg>