<svg xmlns="http://www.w3.org/2000/svg" viewBox="0 0 328.1 95.8"><defs><style>.cls-1{fill:#fff;}</style></defs><g id="Layer_2" data-name="Layer 2"><g id="Layer_1-2" data-name="Layer 1"><path class="cls-1" d="M187.4,48.2a12.3,12.3,0,0,0-12.2-12.7c-6.7,0-12.1,5.3-12.1,12.7,0,7.6,5.5,12.8,12.1,12.8s12.2-5.2,12.2-12.8m-35.1,0c0-13.7,10.6-22.7,22.9-22.7s23,9,23,22.7S187.5,71,175.2,71s-22.9-9.1-22.9-22.8"/><path class="cls-1" d="M203.7,69.8V0h10.7V62.2a7.6,7.6,0,0,1-7.6,7.6Z"/><path class="cls-1" d="M136.2,48.3c0-7.1-5.6-12.8-12.2-12.8A12.75,12.75,0,0,0,124,61a12.49,12.49,0,0,0,12.2-12.7m10.7,0c0,13.8-9.8,22.7-21.2,22.7-5.5,0-11.5-2.2-14.4-6.8V87.9a7.6,7.6,0,0,1-7.6,7.6h-3.1V26.7h10.7v5.7c3-4.6,9.2-6.8,14.3-6.8,11.4-.1,21.3,8.8,21.3,22.7"/><path class="cls-1" d="M219.9,69.8V0h10.7V62.2a7.6,7.6,0,0,1-7.6,7.6Z"/><path class="cls-1" d="M270.1,44.5c-.6-5.9-5.3-9.4-11.3-9.4-5.7,0-10.5,2.9-11.7,9.4ZM280.5,52H247c1.2,6,5.8,9.3,12.3,9.3,4.6,0,9.2-2,11.7-5.6l7.2,5.5c-4,6.3-11.7,9.8-19.5,9.8C245.8,71,236,61.7,236,48.2c0-13.8,10.3-22.7,22.7-22.7s22,8.8,22,22.3c0,1.2-.1,2.6-.2,4.2"/><path class="cls-1" d="M328.1,45.6V69.8H317.4V46.3c0-6.9-4.2-10.6-9-10.6s-11,2.9-11,11.2V69.8H286.7V26.6h10.7v6.8c2.2-5.5,9-8,13.4-8,11.1.1,17.3,7.6,17.3,20.2"/><path class="cls-1" d="M4.7,87.3a8.37,8.37,0,0,0,8.2,8.5,8.51,8.51,0,0,0,0-17,8.5,8.5,0,0,0-8.2,8.5M57.2,37.1C57.2,48.7,48.1,58,36.9,58S16.6,48.6,16.6,37.1s9.1-20.9,20.3-20.9,20.3,9.3,20.3,20.9m16.8,0A37,37,0,1,0,37,74.3,37.07,37.07,0,0,0,74,37.1"/></g></g></svg>