<svg width="700" height="500" viewBox="0 0 700 500" fill="none" xmlns="http://www.w3.org/2000/svg">
<path fill-rule="evenodd" clip-rule="evenodd" d="M348.359 153.185C314.913 155.584 286.592 178.982 278.446 210.947C277.657 214.04 276.88 218.297 276.481 221.713C276.097 224.996 276.159 234.879 276.585 238.343C278.758 255.993 286.601 271.78 299.319 284.106C305.183 289.788 311.122 294.012 318.521 297.761C327.028 302.071 335.18 304.504 345.336 305.762C349.173 306.237 359.06 306.239 362.826 305.766C372.989 304.49 380.537 302.254 389.256 297.937C411.959 286.697 427.632 265.282 431.256 240.554C432.127 234.609 432.246 226.438 431.545 220.656C427.779 189.563 405.14 163.81 374.359 155.602C366.374 153.473 356.778 152.581 348.359 153.185ZM361.192 186.986C380.877 190.352 395.448 205.456 397.716 224.847C399.205 237.576 394.678 250.5 385.51 259.692C378.678 266.543 370.281 270.779 360.493 272.311C357.404 272.794 350.488 272.791 347.545 272.305C337.33 270.618 328.828 266.239 322.114 259.205C312.21 248.83 308.138 234.671 311.054 220.752C312.323 214.695 315.186 208.516 319.041 203.516C326.135 194.315 336.889 188.217 348.652 186.725C351.751 186.332 358.145 186.465 361.192 186.986ZM286.613 303.735C278.902 304.699 271.83 310.297 269.224 317.5C268.195 320.343 267.995 321.566 268 324.955C268.005 327.665 268.066 328.261 268.516 329.954C269.127 332.256 270.741 335.631 272.055 337.356C273.264 338.943 275.716 341.286 277.282 342.349C279.059 343.556 281.825 344.805 283.965 345.367C286.272 345.973 290.418 346.184 292.891 345.823C301.818 344.517 309.308 337.317 310.832 328.578C311.995 321.908 309.972 315.233 305.296 310.309C303.447 308.362 301.803 307.158 299.299 305.916C295.211 303.889 291.076 303.178 286.613 303.735Z" fill="url(#paint0_linear_515_31523)"/>
<defs>
<linearGradient id="paint0_linear_515_31523" x1="268" y1="153" x2="454.787" y2="178.395" gradientUnits="userSpaceOnUse">
<stop stop-color="#FFFF99"/>
<stop offset="1" stop-color="#99FFFF"/>
</linearGradient>
</defs>
</svg>
