<svg width="500" height="500" viewBox="0 0 500 500" fill="none" xmlns="http://www.w3.org/2000/svg">
<rect width="500" height="500" fill="#F2F2F2"/>
<path d="M218.728 205.964H282.728V141.964H218.728V205.964Z" fill="#222222"/>
<path d="M57.5023 288.316C62.3023 288.316 66.3983 286.204 68.3183 282.556L68.8303 287.484H75.9983V239.868H68.2543V259.9C66.2703 256.764 62.3663 254.908 57.9503 254.908C48.4143 254.908 42.6543 261.948 42.6543 271.804C42.6543 281.596 48.3503 288.316 57.5023 288.316ZM59.2303 281.148C53.7903 281.148 50.4623 277.18 50.4623 271.548C50.4623 265.916 53.7903 261.884 59.2303 261.884C64.6703 261.884 68.1903 265.852 68.1903 271.548C68.1903 277.244 64.6703 281.148 59.2303 281.148Z" fill="#222222"/>
<path d="M98.2793 288.316C106.535 288.316 112.295 284.156 113.639 277.244H106.407C105.511 280.252 102.695 281.916 98.4073 281.916C93.2233 281.916 90.2793 279.1 89.7033 273.532L113.511 273.468V271.1C113.511 261.244 107.495 254.908 98.0233 254.908C88.7433 254.908 82.2793 261.756 82.2793 271.676C82.2793 281.468 88.8713 288.316 98.2793 288.316ZM98.0873 261.308C102.759 261.308 105.767 264.188 105.767 268.54H89.8953C90.6633 263.804 93.4793 261.308 98.0873 261.308Z" fill="#222222"/>
<path d="M117.328 277.884C117.328 284.092 122.32 288.316 130.192 288.316C138 288.316 143.44 284.348 143.44 277.948C143.44 273.084 140.752 270.652 135.44 269.436L129.744 268.092C127.056 267.452 125.648 266.3 125.648 264.508C125.648 262.14 127.44 260.732 130.512 260.732C133.52 260.732 135.312 262.46 135.376 265.148H142.8C142.736 259.004 137.936 254.908 130.832 254.908C123.536 254.908 118.288 258.62 118.288 264.828C118.288 269.884 121.04 272.572 126.736 273.852L132.432 275.196C135.248 275.836 136.08 276.988 136.08 278.588C136.08 280.892 134.096 282.364 130.448 282.364C126.864 282.364 124.816 280.636 124.752 277.884H117.328Z" fill="#222222"/>
<path d="M153.289 249.532C155.849 249.532 157.961 247.42 157.961 244.796C157.961 242.172 155.849 240.124 153.289 240.124C150.601 240.124 148.489 242.172 148.489 244.796C148.489 247.42 150.601 249.532 153.289 249.532ZM149.385 287.484H157.193V255.868H149.385V287.484Z" fill="#222222"/>
<path d="M163.468 270.972C163.468 280.124 169.356 286.844 178.316 286.844C182.86 286.844 186.764 284.988 188.748 282.044V287.292C188.748 292.54 185.292 295.932 179.916 295.932C175.116 295.932 171.98 293.5 171.468 289.404H163.66C164.62 297.852 170.828 303.036 179.916 303.036C190.156 303.036 196.492 296.444 196.492 285.884V255.868H189.26L188.812 260.22C186.956 256.828 183.244 254.844 178.508 254.844C169.484 254.844 163.468 261.756 163.468 270.972ZM171.34 270.78C171.34 265.596 174.668 261.692 179.852 261.692C185.292 261.692 188.556 265.404 188.556 270.78C188.556 276.284 185.228 280.06 179.852 280.06C174.732 280.06 171.34 276.092 171.34 270.78Z" fill="#222222"/>
<path d="M212.381 287.484V270.46C212.381 265.34 215.325 262.012 220.125 262.012C224.157 262.012 226.781 264.572 226.781 269.884V287.484H234.589V268.028C234.589 259.836 230.493 254.908 222.557 254.908C218.269 254.908 214.429 256.764 212.445 259.964L211.805 255.868H204.573V287.484H212.381Z" fill="#222222"/>
<path d="M257.078 277.884C257.078 284.092 262.07 288.316 269.942 288.316C277.75 288.316 283.19 284.348 283.19 277.948C283.19 273.084 280.502 270.652 275.19 269.436L269.494 268.092C266.806 267.452 265.398 266.3 265.398 264.508C265.398 262.14 267.19 260.732 270.262 260.732C273.27 260.732 275.062 262.46 275.126 265.148H282.55C282.486 259.004 277.686 254.908 270.582 254.908C263.286 254.908 258.038 258.62 258.038 264.828C258.038 269.884 260.79 272.572 266.486 273.852L272.182 275.196C274.998 275.836 275.83 276.988 275.83 278.588C275.83 280.892 273.846 282.364 270.198 282.364C266.614 282.364 264.566 280.636 264.502 277.884H257.078Z" fill="#222222"/>
<path d="M285.758 302.14C287.486 302.588 289.406 302.844 291.582 302.844C296.766 302.844 300.094 300.412 302.462 294.524L317.95 255.868H309.886L301.31 278.908L293.182 255.868H284.926L297.662 288.828L296.766 291.196C295.422 294.908 293.502 295.612 290.43 295.612H285.758V302.14Z" fill="#222222"/>
<path d="M319.266 277.884C319.266 284.092 324.258 288.316 332.13 288.316C339.938 288.316 345.378 284.348 345.378 277.948C345.378 273.084 342.69 270.652 337.378 269.436L331.682 268.092C328.994 267.452 327.586 266.3 327.586 264.508C327.586 262.14 329.378 260.732 332.45 260.732C335.458 260.732 337.25 262.46 337.314 265.148H344.738C344.674 259.004 339.874 254.908 332.77 254.908C325.474 254.908 320.226 258.62 320.226 264.828C320.226 269.884 322.978 272.572 328.674 273.852L334.37 275.196C337.186 275.836 338.018 276.988 338.018 278.588C338.018 280.892 336.034 282.364 332.386 282.364C328.802 282.364 326.754 280.636 326.69 277.884H319.266Z" fill="#222222"/>
<path d="M362.075 287.484V262.396H368.219V255.868H362.075V246.012H354.267V255.868H348.187V262.396H354.267V287.484H362.075Z" fill="#222222"/>
<path d="M386.904 288.316C395.16 288.316 400.92 284.156 402.264 277.244H395.032C394.136 280.252 391.32 281.916 387.032 281.916C381.848 281.916 378.904 279.1 378.328 273.532L402.136 273.468V271.1C402.136 261.244 396.12 254.908 386.648 254.908C377.368 254.908 370.904 261.756 370.904 271.676C370.904 281.468 377.496 288.316 386.904 288.316ZM386.712 261.308C391.384 261.308 394.392 264.188 394.392 268.54H378.52C379.288 263.804 382.104 261.308 386.712 261.308Z" fill="#222222"/>
<path d="M416.193 287.484V269.564C416.193 264.444 419.201 262.012 422.913 262.012C426.625 262.012 428.993 264.38 428.993 268.796V287.484H436.801V269.564C436.801 264.38 439.681 261.948 443.457 261.948C447.169 261.948 449.601 264.316 449.601 268.86V287.484H457.345V266.812C457.345 259.516 453.121 254.908 445.441 254.908C440.641 254.908 436.929 257.276 435.329 260.924C433.665 257.276 430.337 254.908 425.537 254.908C420.993 254.908 417.793 256.956 416.193 259.58L415.553 255.868H408.385V287.484H416.193Z" fill="#222222"/>
<path d="M151.944 351.324C153.888 351.324 155.52 350.46 156.336 348.66L156.504 351.036H157.944V333.54H156.288V341.628C155.472 339.948 153.936 339.108 152.016 339.108C148.56 339.108 146.568 341.748 146.568 345.252C146.568 348.732 148.56 351.324 151.944 351.324ZM152.232 349.812C149.712 349.812 148.248 347.892 148.248 345.204C148.248 342.54 149.712 340.596 152.232 340.596C154.776 340.596 156.264 342.54 156.264 345.204C156.264 347.892 154.776 349.812 152.232 349.812ZM166.272 351.324C169.008 351.324 170.808 350.004 171.432 347.556H169.848C169.416 349.092 168.192 349.908 166.296 349.908C163.8 349.908 162.312 348.276 162.192 345.444H171.432V344.628C171.432 341.34 169.296 339.108 166.152 339.108C162.84 339.108 160.584 341.604 160.584 345.228C160.584 348.876 162.864 351.324 166.272 351.324ZM166.152 340.524C168.336 340.524 169.776 342.012 169.776 344.244H162.24C162.528 341.964 163.968 340.524 166.152 340.524ZM173.096 347.772C173.096 349.932 174.728 351.324 177.344 351.324C179.984 351.324 181.76 349.956 181.76 347.868C181.76 346.188 180.848 345.252 178.832 344.748L176.84 344.244C175.568 343.932 174.944 343.308 174.944 342.42C174.944 341.172 175.856 340.476 177.488 340.476C179.048 340.476 179.984 341.268 180.032 342.612H181.64C181.568 340.452 179.984 339.108 177.536 339.108C175.04 339.108 173.336 340.404 173.336 342.444C173.336 344.028 174.32 345.084 176.336 345.588L178.328 346.092C179.696 346.428 180.176 346.98 180.176 347.94C180.176 349.188 179.12 349.956 177.32 349.956C175.688 349.956 174.68 349.116 174.68 347.772H173.096ZM185.302 336.228C185.974 336.228 186.55 335.676 186.55 335.004C186.55 334.332 185.974 333.756 185.302 333.756C184.63 333.756 184.078 334.332 184.078 335.004C184.078 335.676 184.63 336.228 185.302 336.228ZM184.486 351.036H186.142V339.42H184.486V351.036ZM188.803 344.892C188.803 348.06 190.819 350.676 194.131 350.676C196.123 350.676 197.731 349.716 198.523 348.084V350.844C198.523 353.268 196.939 354.876 194.563 354.876C192.475 354.876 191.035 353.772 190.675 351.9H189.019C189.475 354.708 191.563 356.388 194.539 356.388C197.947 356.388 200.155 354.132 200.155 350.676V339.42H198.715L198.547 341.748C197.803 340.044 196.267 339.108 194.251 339.108C190.843 339.108 188.803 341.724 188.803 344.892ZM190.459 344.868C190.459 342.516 191.899 340.572 194.395 340.572C196.939 340.572 198.379 342.396 198.379 344.868C198.379 347.364 196.891 349.188 194.371 349.188C191.923 349.188 190.459 347.244 190.459 344.868ZM205.267 351.036V344.964C205.267 342.348 206.611 340.62 208.987 340.62C210.907 340.62 212.131 341.58 212.131 344.292V351.036H213.787V343.932C213.787 341.004 212.467 339.108 209.275 339.108C207.595 339.108 206.059 339.948 205.291 341.436L205.051 339.42H203.611V351.036H205.267ZM223.936 342.204V343.692H229.192V348.972H230.68V343.692H235.936V342.204H230.68V336.948H229.192V342.204H223.936ZM250.804 351.324C252.748 351.324 254.38 350.46 255.196 348.66L255.364 351.036H256.804V333.54H255.148V341.628C254.332 339.948 252.796 339.108 250.876 339.108C247.42 339.108 245.428 341.748 245.428 345.252C245.428 348.732 247.42 351.324 250.804 351.324ZM251.092 349.812C248.572 349.812 247.108 347.892 247.108 345.204C247.108 342.54 248.572 340.596 251.092 340.596C253.636 340.596 255.124 342.54 255.124 345.204C255.124 347.892 253.636 349.812 251.092 349.812ZM265.131 351.324C267.867 351.324 269.667 350.004 270.291 347.556H268.707C268.275 349.092 267.051 349.908 265.155 349.908C262.659 349.908 261.171 348.276 261.051 345.444H270.291V344.628C270.291 341.34 268.155 339.108 265.011 339.108C261.699 339.108 259.443 341.604 259.443 345.228C259.443 348.876 261.723 351.324 265.131 351.324ZM265.011 340.524C267.195 340.524 268.635 342.012 268.635 344.244H261.099C261.387 341.964 262.827 340.524 265.011 340.524ZM275.874 351.036H277.53L282.354 339.42H280.65L277.602 346.908C277.266 347.748 276.954 348.516 276.738 349.308C276.522 348.54 276.21 347.748 275.898 346.908L272.898 339.42H271.122L275.874 351.036ZM288.663 351.324C291.399 351.324 293.199 350.004 293.823 347.556H292.239C291.807 349.092 290.583 349.908 288.687 349.908C286.191 349.908 284.703 348.276 284.583 345.444H293.823V344.628C293.823 341.34 291.687 339.108 288.543 339.108C285.23 339.108 282.975 341.604 282.975 345.228C282.975 348.876 285.255 351.324 288.663 351.324ZM288.543 340.524C290.727 340.524 292.167 342.012 292.167 344.244H284.631C284.919 341.964 286.359 340.524 288.543 340.524ZM298.198 351.036V333.54H296.542V351.036H298.198ZM300.904 345.228C300.904 348.756 303.4 351.324 306.808 351.324C310.216 351.324 312.712 348.756 312.712 345.228C312.712 341.676 310.216 339.108 306.808 339.108C303.4 339.108 300.904 341.676 300.904 345.228ZM302.584 345.204C302.584 342.516 304.312 340.596 306.808 340.596C309.28 340.596 311.032 342.516 311.032 345.204C311.032 347.94 309.28 349.836 306.808 349.836C304.312 349.836 302.584 347.94 302.584 345.204ZM315.361 356.1H317.017V348.804C317.833 350.484 319.393 351.324 321.361 351.324C324.793 351.324 326.737 348.684 326.737 345.18C326.737 341.676 324.721 339.108 321.361 339.108C319.417 339.108 317.785 339.972 316.969 341.772L316.801 339.42H315.361V356.1ZM317.041 345.228C317.041 342.54 318.529 340.62 321.073 340.62C323.593 340.62 325.057 342.54 325.057 345.228C325.057 347.892 323.593 349.836 321.073 349.836C318.529 349.836 317.041 347.892 317.041 345.228ZM334.248 351.324C336.984 351.324 338.784 350.004 339.408 347.556H337.824C337.392 349.092 336.168 349.908 334.272 349.908C331.776 349.908 330.288 348.276 330.168 345.444H339.408V344.628C339.408 341.34 337.272 339.108 334.128 339.108C330.816 339.108 328.56 341.604 328.56 345.228C328.56 348.876 330.84 351.324 334.248 351.324ZM334.128 340.524C336.312 340.524 337.752 342.012 337.752 344.244H330.216C330.504 341.964 331.944 340.524 334.128 340.524ZM346.616 351.324C348.56 351.324 350.192 350.46 351.008 348.66L351.176 351.036H352.616V333.54H350.96V341.628C350.144 339.948 348.608 339.108 346.688 339.108C343.232 339.108 341.24 341.748 341.24 345.252C341.24 348.732 343.232 351.324 346.616 351.324ZM346.904 349.812C344.384 349.812 342.92 347.892 342.92 345.204C342.92 342.54 344.384 340.596 346.904 340.596C349.448 340.596 350.936 342.54 350.936 345.204C350.936 347.892 349.448 349.812 346.904 349.812Z" fill="#222222"/>
</svg>
