<?xml version="1.0" encoding="UTF-8"?>
<svg width="700px" height="500px" viewBox="0 0 700 500" version="1.1" xmlns="http://www.w3.org/2000/svg" xmlns:xlink="http://www.w3.org/1999/xlink">
    <!-- Generator: Sketch 58 (84663) - https://sketch.com -->
    <title>primefitness</title>
    <desc>Created with Sketch.</desc>
    <g id="primefitness" stroke="none" stroke-width="1" fill="none" fill-rule="evenodd">
        <g id="Group" transform="translate(88.000000, 169.000000)" fill-rule="nonzero">
            <path d="M4,162 L17.8325243,91.2447917 L27.1868932,91.2447917 L26.8883495,100.052083 C32.5938797,93.1909379 38.5646937,89.7604167 44.8009709,89.7604167 C49.0469468,89.7604167 52.2811378,91.2777626 54.5036408,94.3125 C56.7261438,97.3472374 57.8373786,101.767332 57.8373786,107.572917 C57.8373786,113.840309 56.5768734,119.6623 54.0558252,125.039062 C51.534777,130.415825 47.9854598,134.769949 43.407767,138.101562 C38.8300742,141.433176 33.7548822,143.098958 28.1820388,143.098958 C25.3292738,143.098958 22.4102091,142.505214 19.4247573,141.317708 L15.3446602,162 L4,162 Z M40.3228155,98.765625 C38.3325143,98.765625 36.0602879,99.6397482 33.506068,101.388021 C30.9518481,103.136293 28.3479097,105.593734 25.6941748,108.760417 L20.9174757,133.598958 C22.8414336,134.060766 24.8317049,134.291667 26.8883495,134.291667 C30.4708917,134.291667 33.7216683,133.252615 36.6407767,131.174479 C39.5598851,129.096344 41.898454,126.160609 43.6565534,122.367187 C45.4146528,118.573766 46.2936893,114.236136 46.2936893,109.354167 C46.2936893,102.295104 44.303418,98.765625 40.3228155,98.765625 Z M61.8179612,141.614583 L71.6699029,91.2447917 L81.0242718,91.2447917 L80.7257282,100.348958 C83.3131197,97.1163033 85.9004725,94.7248341 88.4878641,93.1744792 C91.0752557,91.6241242 93.8284644,90.8489583 96.7475728,90.8489583 C98.4061572,90.8489583 99.8325183,91.0138872 101.026699,91.34375 L98.9368932,101.833333 C96.8139052,101.503471 95.1221746,101.338542 93.8616505,101.338542 C91.2742589,101.338542 88.7532485,101.998257 86.2985437,103.317708 C83.8438389,104.637159 81.588198,106.517349 79.5315534,108.958333 L73.1626214,141.614583 L61.8179612,141.614583 Z M116.152913,82.9322917 C114.162611,82.9322917 112.620151,82.4539978 111.525485,81.4973958 C110.43082,80.5407938 109.883495,79.1388981 109.883495,77.2916667 C109.883495,75.1145724 110.663018,73.2673687 112.222087,71.75 C113.781157,70.2326313 115.6885,69.4739583 117.944175,69.4739583 C119.934476,69.4739583 121.476936,69.9522522 122.571602,70.9088542 C123.666268,71.8654562 124.213592,73.2673519 124.213592,75.1145833 C124.213592,77.2916776 123.434069,79.1388813 121.875,80.65625 C120.315931,82.1736187 118.408587,82.9322917 116.152913,82.9322917 Z M98.6383495,141.614583 L108.490291,91.2447917 L119.834951,91.2447917 L109.98301,141.614583 L98.6383495,141.614583 Z M186.808252,141.614583 L191.98301,115.192708 L192.249775,113.791534 C193.067077,109.425177 193.475728,106.494691 193.475728,105 C193.475728,102.888878 193.044503,101.322054 192.182039,100.299479 C191.319575,99.2769046 189.959556,98.765625 188.101942,98.765625 C183.524249,98.765625 178.449057,101.70136 172.876214,107.572917 C172.544497,109.947929 172.113271,112.487834 171.582524,115.192708 L166.407767,141.614583 L155.063107,141.614583 L160.237864,115.192708 L160.502574,113.735046 C161.254907,109.501596 161.631068,106.523967 161.631068,104.802083 C161.631068,100.777758 159.939337,98.765625 156.555825,98.765625 C151.845446,98.765625 146.67074,102.16316 141.031553,108.958333 L134.662621,141.614583 L123.317961,141.614583 L133.169903,91.2447917 L142.524272,91.2447917 L142.225728,100.25 C147.864915,93.2569095 154.001585,89.7604167 160.635922,89.7604167 C164.019434,89.7604167 166.805814,90.6840185 168.995146,92.53125 C171.184477,94.3784815 172.511325,96.9513724 172.975728,100.25 C178.813945,93.2569095 185.282327,89.7604167 192.381068,89.7604167 C196.428014,89.7604167 199.52952,90.9314119 201.68568,93.2734375 C203.841839,95.6154631 204.919903,98.9965057 204.919903,103.416667 L204.913276,103.88376 C204.849211,106.238925 204.32068,110.008543 203.32767,115.192708 L198.152913,141.614583 L186.808252,141.614583 Z M250.199029,136.864583 C247.279921,138.84376 243.962802,140.410585 240.247573,141.565104 C236.532344,142.719624 232.817171,143.296875 229.101942,143.296875 C223.197381,143.296875 218.752442,141.73005 215.76699,138.596354 C212.781538,135.462658 211.288835,130.828156 211.288835,124.692708 C211.288835,118.689206 212.599097,113.032145 215.21966,107.721354 C217.840223,102.410564 221.50564,98.0564406 226.216019,94.6588542 C230.926399,91.2612677 236.101104,89.5625 241.740291,89.5625 C246.052611,89.5625 249.436072,90.618045 251.890777,92.7291667 C254.345482,94.8402883 255.572816,97.7430371 255.572816,101.4375 C255.572816,106.583359 253.167904,111.069425 248.35801,114.895833 C243.548115,118.722241 236.797778,121.493047 228.106796,123.208333 L222.135922,124.395833 C222.135922,128.024324 222.865688,130.646693 224.325243,132.263021 C225.784797,133.879348 228.173123,134.6875 231.490291,134.6875 C236.267014,134.6875 241.508062,133.170154 247.213592,130.135417 L250.199029,136.864583 Z M239.451456,98.0729167 C236.996751,98.0729167 234.608426,98.8480825 232.286408,100.398437 C229.96439,101.948792 227.924362,104.15884 226.166262,107.028646 C224.408163,109.898452 223.197414,113.147551 222.533981,116.776042 L228.504854,115.390625 C233.613294,114.203119 237.660179,112.471366 240.645631,110.195312 C243.631083,107.919259 245.123786,105.461819 245.123786,102.822917 C245.123786,101.305548 244.642804,100.134553 243.680825,99.3098958 C242.718846,98.4852389 241.309071,98.0729167 239.451456,98.0729167 Z M293.985437,141.614583 L302.145631,99.953125 L280.451456,99.953125 L272.291262,141.614583 L260.946602,141.614583 L269.106796,99.953125 L260.449029,99.953125 L261.842233,92.828125 L270.798544,91.5416667 L272.092233,84.8125 C273.22007,78.9409429 275.409369,74.5043553 278.660194,71.5026042 C281.911019,68.500853 286.156932,67 291.398058,67 C294.78157,67 297.899662,67.6267298 300.752427,68.8802083 L299.160194,76.796875 C296.838176,76.2690946 294.71522,76.0052083 292.791262,76.0052083 C290.00484,76.0052083 287.915056,76.5989524 286.521845,77.7864583 C285.128634,78.9739643 284.166669,80.9201254 283.635922,83.625 L282.143204,91.2447917 L315.182039,91.2447917 L305.330097,141.614583 L293.985437,141.614583 Z M319.56068,75.1145833 C319.56068,77.2916776 318.781157,79.1388813 317.222087,80.65625 C315.663018,82.1736187 313.755675,82.9322917 311.5,82.9322917 C309.509699,82.9322917 307.967238,82.4539978 306.872573,81.4973958 C305.777907,80.5407938 305.230583,79.1388981 305.230583,77.2916667 C305.230583,75.1145724 306.010105,73.2673687 307.569175,71.75 C309.128244,70.2326313 311.035587,69.4739583 313.291262,69.4739583 C315.281563,69.4739583 316.824024,69.9522522 317.918689,70.9088542 C319.013355,71.8654562 319.56068,73.2673519 319.56068,75.1145833 Z M351.305825,137.854167 C349.514563,139.173618 347.341841,140.245656 344.787621,141.070313 C342.233401,141.894969 339.728977,142.307292 337.274272,142.307292 C328.38426,142.307292 323.873952,138.592653 323.743218,131.163267 L323.740291,130.828125 C323.740291,129.104326 324.206276,125.866845 325.138258,121.115588 L329.313107,99.953125 L320.65534,99.953125 L322.048544,92.828125 L331.303398,91.4427083 L335.781553,77.390625 L345.036408,77.390625 L342.349515,91.2447917 L356.679612,91.2447917 L354.987864,99.953125 L340.657767,99.953125 L336.776699,119.744792 L336.358627,121.86209 C335.642193,125.568417 335.283981,127.897354 335.283981,128.848958 C335.283981,130.4323 335.715206,131.570309 336.57767,132.263021 C337.440134,132.955733 338.833324,133.302083 340.757282,133.302083 C343.344673,133.302083 346.031539,132.642368 348.817961,131.322917 L351.305825,137.854167 Z M389.519417,141.614583 L394.694175,115.192708 L394.976726,113.670082 C395.717164,109.569947 396.087379,106.548001 396.087379,104.604167 C396.087379,100.711786 394.097107,98.765625 390.116505,98.765625 C387.927174,98.765625 385.422749,99.672734 382.603155,101.486979 C379.783562,103.301224 376.980596,105.791651 374.194175,108.958333 L367.825243,141.614583 L356.480583,141.614583 L366.332524,91.2447917 L375.686893,91.2447917 L375.38835,100.25 C378.241115,96.8853998 381.30945,94.296016 384.593447,92.4817708 C387.877444,90.6675257 391.144806,89.7604167 394.395631,89.7604167 C398.641607,89.7604167 401.908969,90.914919 404.197816,93.2239583 C406.486662,95.5329977 407.631068,98.79859 407.631068,103.020833 C407.631068,105.725708 407.100329,109.782959 406.038835,115.192708 L400.864078,141.614583 L389.519417,141.614583 Z M452.910194,136.864583 C449.991086,138.84376 446.673967,140.410585 442.958738,141.565104 C439.243509,142.719624 435.528336,143.296875 431.813107,143.296875 C425.908547,143.296875 421.463607,141.73005 418.478155,138.596354 C415.492704,135.462658 414,130.828156 414,124.692708 C414,118.689206 415.310262,113.032145 417.930825,107.721354 C420.551389,102.410564 424.216805,98.0564406 428.927184,94.6588542 C433.637564,91.2612677 438.81227,89.5625 444.451456,89.5625 C448.763776,89.5625 452.147237,90.618045 454.601942,92.7291667 C457.056647,94.8402883 458.283981,97.7430371 458.283981,101.4375 C458.283981,106.583359 455.879069,111.069425 451.069175,114.895833 C446.25928,118.722241 439.508943,121.493047 430.817961,123.208333 L424.847087,124.395833 C424.847087,128.024324 425.576854,130.646693 427.036408,132.263021 C428.495962,133.879348 430.884288,134.6875 434.201456,134.6875 C438.978179,134.6875 444.219227,133.170154 449.924757,130.135417 L452.910194,136.864583 Z M442.162621,98.0729167 C439.707917,98.0729167 437.319591,98.8480825 434.997573,100.398437 C432.675555,101.948792 430.635527,104.15884 428.877427,107.028646 C427.119328,109.898452 425.908579,113.147551 425.245146,116.776042 L431.216019,115.390625 C436.324459,114.203119 440.371344,112.471366 443.356796,110.195312 C446.342248,107.919259 447.834951,105.461819 447.834951,102.822917 C447.834951,101.305548 447.353969,100.134553 446.39199,99.3098958 C445.430011,98.4852389 444.020236,98.0729167 442.162621,98.0729167 Z M471.519417,118.161458 C468.467622,116.512145 466.261738,114.681434 464.901699,112.669271 C463.54166,110.657108 462.86165,108.298625 462.86165,105.59375 C462.86165,100.843726 464.686066,97.0173756 468.334951,94.1145833 C471.983837,91.211791 476.793659,89.7604167 482.764563,89.7604167 C485.351955,89.7604167 487.939307,90.0407958 490.526699,90.6015625 C493.114091,91.1623292 495.33656,91.9374951 497.194175,92.9270833 L495.601942,101.140625 C493.943357,100.348954 491.953086,99.7057316 489.631068,99.2109375 C487.30905,98.7161434 485.053409,98.46875 482.864078,98.46875 C479.812282,98.46875 477.506885,98.9965225 475.947816,100.052083 C474.388746,101.107644 473.609223,102.657976 473.609223,104.703125 C473.609223,105.956603 473.990692,106.995656 474.753641,107.820312 C475.440295,108.562504 476.785222,109.505074 478.788456,110.648045 L484.754854,114.005208 C488.138366,115.918412 490.493521,117.798602 491.820388,119.645833 C493.147256,121.493065 493.81068,123.802069 493.81068,126.572917 C493.81068,131.652803 491.969679,135.677068 488.287621,138.645833 C484.605564,141.614598 479.580129,143.098958 473.211165,143.098958 C470.225713,143.098958 467.190549,142.752608 464.105583,142.059896 C461.020616,141.367184 458.350335,140.460075 456.09466,139.338542 L457.686893,131.125 C460.008911,132.114588 462.629435,132.906247 465.548544,133.5 C468.467652,134.093753 471.055005,134.390625 473.31068,134.390625 C476.428818,134.390625 478.800558,133.84636 480.425971,132.757812 C482.051384,131.669265 482.864078,130.069455 482.864078,127.958333 C482.864078,126.638882 482.449438,125.500873 481.620146,124.544271 C480.790853,123.587669 479.314736,122.515631 477.191748,121.328125 L471.519417,118.161458 Z M511.325243,118.161458 C508.273448,116.512145 506.067563,114.681434 504.707524,112.669271 C503.347485,110.657108 502.667476,108.298625 502.667476,105.59375 C502.667476,100.843726 504.491891,97.0173756 508.140777,94.1145833 C511.789662,91.211791 516.599485,89.7604167 522.570388,89.7604167 C525.15778,89.7604167 527.745133,90.0407958 530.332524,90.6015625 C532.919916,91.1623292 535.142386,91.9374951 537,92.9270833 L535.407767,101.140625 C533.749183,100.348954 531.758911,99.7057316 529.436893,99.2109375 C527.114875,98.7161434 524.859234,98.46875 522.669903,98.46875 C519.618108,98.46875 517.31271,98.9965225 515.753641,100.052083 C514.194571,101.107644 513.415049,102.657976 513.415049,104.703125 C513.415049,105.956603 513.796517,106.995656 514.559466,107.820312 C515.24612,108.562504 516.591047,109.505074 518.594281,110.648045 L524.56068,114.005208 C527.944192,115.918412 530.299346,117.798602 531.626214,119.645833 C532.953081,121.493065 533.616505,123.802069 533.616505,126.572917 C533.616505,131.652803 531.775504,135.677068 528.093447,138.645833 C524.411389,141.614598 519.385954,143.098958 513.01699,143.098958 C510.031538,143.098958 506.996375,142.752608 503.911408,142.059896 C500.826441,141.367184 498.15616,140.460075 495.900485,139.338542 L497.492718,131.125 C499.814737,132.114588 502.43526,132.906247 505.354369,133.5 C508.273477,134.093753 510.86083,134.390625 513.116505,134.390625 C516.234643,134.390625 518.606383,133.84636 520.231796,132.757812 C521.857209,131.669265 522.669903,130.069455 522.669903,127.958333 C522.669903,126.638882 522.255263,125.500873 521.425971,124.544271 C520.596679,123.587669 519.120561,122.515631 516.997573,121.328125 L511.325243,118.161458 Z" id="primeftness" fill="#BACE3F"></path>
            <g id="connect-+">
                <path d="M37.4127203,59.7725532 C34.8256576,61.834833 31.8572134,63.4314128 28.5072989,64.5623404 C25.1573843,65.6932681 21.7577695,66.2587234 18.3083525,66.2587234 C12.4708776,66.2587234 7.96016918,64.5623574 4.77609195,61.1695745 C1.59201473,57.7767915 -1.70530257e-13,52.9870522 -1.70530257e-13,46.8002128 C-1.70530257e-13,41.0125243 1.32667894,35.5076502 3.98007663,30.2854255 C6.63347431,25.0632008 10.2984249,20.7890237 14.9750383,17.462766 C19.6516517,14.1365082 24.7427822,12.4734043 30.2485824,12.4734043 C32.3713005,12.4734043 34.4939868,12.7062388 36.616705,13.1719149 C38.7394231,13.637591 40.6299406,14.3028326 42.2883142,15.1676596 L40.6962835,23.5497872 C37.3132015,22.3523344 34.129172,21.753617 31.1440996,21.753617 C27.5620127,21.753617 24.3116493,22.7348483 21.3929119,24.6973404 C18.4741744,26.6598325 16.1359028,29.4704782 14.3780268,33.1293617 C12.6201509,36.7882452 11.7412261,40.9792672 11.7412261,45.7025532 C11.7412261,49.6275374 12.454316,52.4880761 13.8805172,54.2842553 C15.3067185,56.0804345 17.6118232,56.9785106 20.7959004,56.9785106 C22.7196137,56.9785106 24.7427991,56.6458899 26.8655172,55.9806383 C28.9882354,55.3153867 31.4757584,54.2177381 34.3281609,52.6876596 L37.4127203,59.7725532 Z M60.9946743,66.2587234 C54.8918597,66.2587234 50.1323989,64.379416 46.7161494,60.6207447 C43.2998999,56.8620734 41.5918008,51.623296 41.5918008,44.9042553 C41.5918008,39.1165668 42.8023953,33.7780032 45.2236207,28.8884043 C47.6448461,23.9988053 51.0776278,20.040618 55.522069,17.0137234 C59.9665101,13.9868288 64.9415561,12.4734043 70.4473563,12.4734043 C76.550171,12.4734043 81.3096317,14.3527117 84.7258812,18.111383 C88.1421307,21.8700543 89.8502299,27.1088317 89.8502299,33.8278723 C89.8502299,39.6155609 88.6396354,44.9541245 86.21841,49.8437234 C83.7971846,54.7333223 80.3644028,58.6915097 75.9199617,61.7184043 C71.4755206,64.7452988 66.5004745,66.2587234 60.9946743,66.2587234 Z M62.1886973,57.1780851 C65.0410998,57.1780851 67.6944577,56.2134848 70.1488506,54.2842553 C72.6032434,52.3550258 74.5766784,49.6275354 76.0692146,46.1017021 C77.5617508,42.5758689 78.3080077,38.6176815 78.3080077,34.2270213 C78.3080077,30.1024616 77.5451673,26.9591952 76.0194636,24.7971277 C74.4937599,22.6350601 72.2384057,21.5540426 69.2533333,21.5540426 C66.4009308,21.5540426 63.7475729,22.5186428 61.2931801,24.4478723 C58.8387872,26.3771018 56.8653523,29.1045923 55.3728161,32.6304255 C53.8802799,36.1562588 53.134023,40.1144461 53.134023,44.5051064 C53.134023,48.629666 53.8968634,51.7729325 55.422567,53.935 C56.9482707,56.0970675 59.2036249,57.1780851 62.1886973,57.1780851 Z M125.272912,64.7619149 L130.447011,38.1187234 C131.375701,33.1958619 131.840038,29.6368195 131.840038,27.4414894 C131.840038,23.5165052 129.85002,21.5540426 125.869923,21.5540426 C123.68087,21.5540426 121.176764,22.4687497 118.357529,24.2981915 C115.538294,26.1276333 112.735684,28.6389202 109.949617,31.8321277 L103.581494,64.7619149 L92.2382759,64.7619149 L102.088966,13.9702128 L111.442146,13.9702128 L111.14364,23.0508511 C113.996042,19.6580681 117.063987,17.046995 120.347567,15.2175532 C123.631147,13.3881114 126.898094,12.4734043 130.148506,12.4734043 C134.393942,12.4734043 137.660889,13.637577 139.949444,15.9659574 C142.238,18.2943379 143.382261,21.5872837 143.382261,25.8448936 C143.382261,28.572425 142.851589,32.6636607 141.79023,38.1187234 L136.61613,64.7619149 L125.272912,64.7619149 Z M180.595977,64.7619149 L185.770077,38.1187234 C186.698766,33.1958619 187.163103,29.6368195 187.163103,27.4414894 C187.163103,23.5165052 185.173085,21.5540426 181.192989,21.5540426 C179.003935,21.5540426 176.499829,22.4687497 173.680594,24.2981915 C170.861359,26.1276333 168.05875,28.6389202 165.272682,31.8321277 L158.904559,64.7619149 L147.561341,64.7619149 L157.412031,13.9702128 L166.765211,13.9702128 L166.466705,23.0508511 C169.319107,19.6580681 172.387053,17.046995 175.670632,15.2175532 C178.954212,13.3881114 182.221159,12.4734043 185.471571,12.4734043 C189.717007,12.4734043 192.983954,13.637577 195.27251,15.9659574 C197.561065,18.2943379 198.705326,21.5872837 198.705326,25.8448936 C198.705326,28.572425 198.174654,32.6636607 197.113295,38.1187234 L191.939195,64.7619149 L180.595977,64.7619149 Z M242.386667,59.9721277 C239.467929,61.9678823 236.151232,63.5478311 232.436475,64.7120213 C228.721718,65.8762115 225.007017,66.4582979 221.292261,66.4582979 C215.388451,66.4582979 210.944076,64.8783491 207.959004,61.7184043 C204.973931,58.5584594 203.481418,53.8851373 203.481418,47.6982979 C203.481418,41.6445087 204.791513,35.9400622 207.411743,30.5847872 C210.031974,25.2295122 213.696924,20.8389178 218.406705,17.4128723 C223.116486,13.9868268 228.290534,12.2738298 233.929004,12.2738298 C238.240775,12.2738298 241.623806,13.3382163 244.078199,15.4670213 C246.532592,17.5958262 247.75977,20.5228892 247.75977,24.2482979 C247.75977,29.43726 245.355165,33.9609027 240.545881,37.8193617 C235.736598,41.6778207 228.987119,44.4718353 220.297241,46.2014894 L214.327126,47.3989362 C214.327126,51.0578197 215.0568,53.702155 216.516169,55.3320213 C217.975537,56.9618876 220.363559,57.7768085 223.680307,57.7768085 C228.456422,57.7768085 233.696804,56.2467529 239.401609,53.1865957 L242.386667,59.9721277 Z M231.64046,20.8555319 C229.186067,20.8555319 226.798045,21.6371908 224.476322,23.2005319 C222.154599,24.7638731 220.11483,26.9924323 218.356954,29.8862766 C216.599078,32.7801209 215.388484,36.0564356 214.725134,39.7153191 L220.695249,38.3182979 C225.80304,37.1208451 229.84941,35.3745859 232.834483,33.0794681 C235.819555,30.7843502 237.312069,28.3063254 237.312069,25.6453191 C237.312069,24.1152406 236.831148,22.9344368 235.869291,22.1028723 C234.907435,21.2713079 233.497838,20.8555319 231.64046,20.8555319 Z M286.267011,59.7725532 C283.679949,61.834833 280.711505,63.4314128 277.36159,64.5623404 C274.011675,65.6932681 270.612061,66.2587234 267.162644,66.2587234 C261.325169,66.2587234 256.81446,64.5623574 253.630383,61.1695745 C250.446306,57.7767915 248.854291,52.9870522 248.854291,46.8002128 C248.854291,41.0125243 250.18097,35.5076502 252.834368,30.2854255 C255.487766,25.0632008 259.152716,20.7890237 263.82933,17.462766 C268.505943,14.1365082 273.597073,12.4734043 279.102874,12.4734043 C281.225592,12.4734043 283.348278,12.7062388 285.470996,13.1719149 C287.593714,13.637591 289.484232,14.3028326 291.142605,15.1676596 L289.550575,23.5497872 C286.167493,22.3523344 282.983463,21.753617 279.998391,21.753617 C276.416304,21.753617 273.165941,22.7348483 270.247203,24.6973404 C267.328466,26.6598325 264.990194,29.4704782 263.232318,33.1293617 C261.474442,36.7882452 260.595517,40.9792672 260.595517,45.7025532 C260.595517,49.6275374 261.308607,52.4880761 262.734808,54.2842553 C264.16101,56.0804345 266.466114,56.9785106 269.650192,56.9785106 C271.573905,56.9785106 273.59709,56.6458899 275.719808,55.9806383 C277.842527,55.3153867 280.33005,54.2177381 283.182452,52.6876596 L286.267011,59.7725532 Z M322.485709,60.97 C320.694674,62.3005031 318.522229,63.3815207 315.968333,64.2130851 C313.414438,65.0446495 310.910332,65.4604255 308.455939,65.4604255 C299.434387,65.4604255 294.923678,61.6020244 294.923678,53.8851064 L294.929891,53.5171073 C294.987872,51.7048043 295.451728,48.5628654 296.321467,44.0912149 L300.495785,22.7514894 L291.839119,22.7514894 L293.232146,15.5668085 L302.485824,14.1697872 L306.96341,1.70530257e-13 L316.217088,1.70530257e-13 L313.530536,13.9702128 L327.858812,13.9702128 L326.16728,22.7514894 L311.839004,22.7514894 L307.54041,44.8439693 C306.824067,48.5813413 306.4659,50.9297867 306.4659,51.8893617 C306.4659,53.4859654 306.897071,54.6335071 307.759425,55.3320213 C308.62178,56.0305354 310.014792,56.3797872 311.938506,56.3797872 C314.525568,56.3797872 317.212093,55.7145457 319.998161,54.3840426 L322.485709,60.97 Z" id="connect" fill="#BACE3F"></path>
                <polygon id="+" fill="#FFFFFF" points="351.562416 43.7855028 347.992248 62.7234043 338.174285 62.7234043 341.744453 43.7855028 324.091954 43.7855028 325.877038 34.6187526 343.529538 34.6187526 347.099706 15.6808511 356.917669 15.6808511 353.347501 34.6187526 371 34.6187526 369.214916 43.7855028"></polygon>
            </g>
        </g>
    </g>
</svg>