<svg width="700" height="500" viewBox="0 0 700 500" fill="none" xmlns="http://www.w3.org/2000/svg">
<g id="primefitness">
<g id="connect+ primefitness">
<path d="M140.888 221.264C139.256 223.056 137.688 224.56 136.184 225.776C134.712 226.992 133.208 227.968 131.672 228.704C130.136 229.44 128.52 229.952 126.824 230.24C125.16 230.56 123.32 230.72 121.304 230.72C118.456 230.72 115.896 230.24 113.624 229.28C111.384 228.288 109.48 226.896 107.912 225.104C106.344 223.312 105.144 221.152 104.312 218.624C103.48 216.096 103.064 213.28 103.064 210.176C103.064 207.52 103.352 204.928 103.928 202.4C104.504 199.872 105.336 197.488 106.424 195.248C107.512 193.008 108.824 190.96 110.36 189.104C111.896 187.248 113.624 185.648 115.544 184.304C117.464 182.96 119.544 181.92 121.784 181.184C124.056 180.416 126.456 180.032 128.984 180.032C132.248 180.032 135.016 180.608 137.288 181.76C139.592 182.912 141.624 184.64 143.384 186.944L139.592 191.456C139.336 191.744 139.016 192.016 138.632 192.272C138.248 192.496 137.832 192.608 137.384 192.608C136.84 192.608 136.344 192.448 135.896 192.128C135.48 191.776 134.968 191.408 134.36 191.024C133.784 190.64 133.048 190.288 132.152 189.968C131.288 189.616 130.152 189.44 128.744 189.44C126.92 189.44 125.176 189.936 123.512 190.928C121.848 191.92 120.376 193.328 119.096 195.152C117.816 196.976 116.792 199.168 116.024 201.728C115.288 204.288 114.92 207.12 114.92 210.224C114.92 213.84 115.72 216.64 117.32 218.624C118.92 220.576 121.096 221.552 123.848 221.552C125.064 221.552 126.136 221.424 127.064 221.168C127.992 220.912 128.808 220.608 129.512 220.256C130.248 219.872 130.888 219.472 131.432 219.056C131.976 218.608 132.488 218.208 132.968 217.856C133.448 217.472 133.896 217.152 134.312 216.896C134.76 216.64 135.24 216.512 135.752 216.512C136.168 216.512 136.552 216.624 136.904 216.848C137.288 217.04 137.624 217.296 137.912 217.616L140.888 221.264ZM165.645 221.6C167.629 221.6 169.421 221.04 171.021 219.92C172.621 218.768 173.981 217.248 175.101 215.36C176.221 213.44 177.085 211.216 177.693 208.688C178.301 206.16 178.605 203.504 178.605 200.72C178.605 196.72 177.933 193.792 176.589 191.936C175.245 190.048 173.197 189.104 170.445 189.104C168.461 189.104 166.653 189.664 165.021 190.784C163.421 191.904 162.061 193.424 160.941 195.344C159.821 197.232 158.957 199.44 158.349 201.968C157.741 204.496 157.437 207.168 157.437 209.984C157.437 213.984 158.109 216.928 159.453 218.816C160.797 220.672 162.861 221.6 165.645 221.6ZM164.541 230.72C161.821 230.72 159.309 230.272 157.005 229.376C154.701 228.448 152.701 227.104 151.005 225.344C149.309 223.584 147.981 221.424 147.021 218.864C146.061 216.304 145.581 213.376 145.581 210.08C145.581 205.824 146.269 201.856 147.645 198.176C149.021 194.496 150.877 191.312 153.213 188.624C155.581 185.936 158.333 183.824 161.469 182.288C164.605 180.752 167.949 179.984 171.501 179.984C174.221 179.984 176.733 180.448 179.037 181.376C181.373 182.272 183.373 183.6 185.037 185.36C186.733 187.12 188.061 189.28 189.021 191.84C189.981 194.4 190.461 197.328 190.461 200.624C190.461 204.848 189.773 208.8 188.397 212.48C187.021 216.128 185.149 219.312 182.781 222.032C180.445 224.72 177.709 226.848 174.573 228.416C171.437 229.952 168.093 230.72 164.541 230.72ZM211.239 190.928C213.735 187.248 216.503 184.512 219.543 182.72C222.583 180.896 225.719 179.984 228.951 179.984C230.999 179.984 232.839 180.4 234.471 181.232C236.103 182.064 237.447 183.28 238.503 184.88C239.559 186.448 240.295 188.4 240.711 190.736C241.159 193.04 241.191 195.68 240.807 198.656L237.111 230H225.255L228.951 198.656C229.367 195.456 229.207 193.168 228.471 191.792C227.735 190.384 226.391 189.68 224.439 189.68C223.127 189.68 221.783 190.064 220.407 190.832C219.031 191.568 217.703 192.64 216.423 194.048C215.143 195.424 213.959 197.088 212.871 199.04C211.815 200.96 210.951 203.12 210.279 205.52L207.543 230H195.687L201.591 180.704H207.591C208.839 180.704 209.799 181.008 210.471 181.616C211.175 182.224 211.527 183.2 211.527 184.544L211.239 190.928ZM263.176 190.928C265.672 187.248 268.44 184.512 271.48 182.72C274.52 180.896 277.656 179.984 280.888 179.984C282.936 179.984 284.776 180.4 286.408 181.232C288.04 182.064 289.384 183.28 290.44 184.88C291.496 186.448 292.232 188.4 292.648 190.736C293.096 193.04 293.128 195.68 292.744 198.656L289.048 230H277.192L280.888 198.656C281.304 195.456 281.144 193.168 280.408 191.792C279.672 190.384 278.328 189.68 276.376 189.68C275.064 189.68 273.72 190.064 272.344 190.832C270.968 191.568 269.64 192.64 268.36 194.048C267.08 195.424 265.896 197.088 264.808 199.04C263.752 200.96 262.888 203.12 262.216 205.52L259.48 230H247.624L253.528 180.704H259.528C260.776 180.704 261.736 181.008 262.408 181.616C263.112 182.224 263.464 183.2 263.464 184.544L263.176 190.928ZM325.194 188.336C323.594 188.336 322.106 188.672 320.73 189.344C319.354 189.984 318.106 190.896 316.986 192.08C315.898 193.264 314.938 194.688 314.106 196.352C313.306 197.984 312.666 199.776 312.186 201.728C316.154 201.184 319.338 200.592 321.738 199.952C324.17 199.28 326.042 198.576 327.354 197.84C328.666 197.072 329.53 196.256 329.946 195.392C330.394 194.496 330.618 193.568 330.618 192.608C330.618 192.128 330.506 191.632 330.282 191.12C330.09 190.608 329.77 190.16 329.322 189.776C328.906 189.36 328.346 189.024 327.642 188.768C326.97 188.48 326.154 188.336 325.194 188.336ZM311.178 209.936C311.178 217.68 314.458 221.552 321.018 221.552C322.426 221.552 323.674 221.424 324.762 221.168C325.85 220.88 326.794 220.544 327.594 220.16C328.426 219.776 329.162 219.344 329.802 218.864C330.474 218.384 331.082 217.952 331.626 217.568C332.202 217.184 332.762 216.864 333.306 216.608C333.85 216.32 334.442 216.176 335.082 216.176C335.466 216.176 335.834 216.272 336.186 216.464C336.57 216.656 336.906 216.912 337.194 217.232L340.218 220.88C338.522 222.576 336.858 224.048 335.226 225.296C333.594 226.544 331.93 227.568 330.234 228.368C328.538 229.168 326.746 229.76 324.858 230.144C322.97 230.528 320.922 230.72 318.714 230.72C315.834 230.72 313.226 230.24 310.89 229.28C308.554 228.288 306.554 226.912 304.89 225.152C303.226 223.36 301.93 221.216 301.002 218.72C300.106 216.192 299.658 213.376 299.658 210.272C299.658 207.68 299.93 205.136 300.474 202.64C301.05 200.144 301.866 197.776 302.922 195.536C303.978 193.296 305.274 191.232 306.81 189.344C308.346 187.456 310.074 185.824 311.994 184.448C313.946 183.072 316.074 182 318.378 181.232C320.714 180.464 323.21 180.08 325.866 180.08C328.426 180.08 330.666 180.448 332.586 181.184C334.538 181.92 336.154 182.88 337.434 184.064C338.746 185.216 339.722 186.512 340.362 187.952C341.002 189.392 341.322 190.8 341.322 192.176C341.322 194.384 340.874 196.4 339.978 198.224C339.114 200.048 337.546 201.68 335.274 203.12C333.034 204.56 329.962 205.808 326.058 206.864C322.154 207.888 317.194 208.704 311.178 209.312V209.936ZM384.169 221.264C382.537 223.056 380.969 224.56 379.465 225.776C377.993 226.992 376.489 227.968 374.953 228.704C373.417 229.44 371.801 229.952 370.105 230.24C368.441 230.56 366.601 230.72 364.585 230.72C361.737 230.72 359.177 230.24 356.905 229.28C354.665 228.288 352.761 226.896 351.193 225.104C349.625 223.312 348.425 221.152 347.593 218.624C346.761 216.096 346.345 213.28 346.345 210.176C346.345 207.52 346.633 204.928 347.209 202.4C347.785 199.872 348.617 197.488 349.705 195.248C350.793 193.008 352.105 190.96 353.641 189.104C355.177 187.248 356.905 185.648 358.825 184.304C360.745 182.96 362.825 181.92 365.065 181.184C367.337 180.416 369.737 180.032 372.265 180.032C375.529 180.032 378.297 180.608 380.569 181.76C382.873 182.912 384.905 184.64 386.665 186.944L382.873 191.456C382.617 191.744 382.297 192.016 381.913 192.272C381.529 192.496 381.113 192.608 380.665 192.608C380.121 192.608 379.625 192.448 379.177 192.128C378.761 191.776 378.249 191.408 377.641 191.024C377.065 190.64 376.329 190.288 375.433 189.968C374.569 189.616 373.433 189.44 372.025 189.44C370.201 189.44 368.457 189.936 366.793 190.928C365.129 191.92 363.657 193.328 362.377 195.152C361.097 196.976 360.073 199.168 359.305 201.728C358.569 204.288 358.201 207.12 358.201 210.224C358.201 213.84 359.001 216.64 360.601 218.624C362.201 220.576 364.377 221.552 367.129 221.552C368.345 221.552 369.417 221.424 370.345 221.168C371.273 220.912 372.089 220.608 372.793 220.256C373.529 219.872 374.169 219.472 374.713 219.056C375.257 218.608 375.769 218.208 376.249 217.856C376.729 217.472 377.177 217.152 377.593 216.896C378.041 216.64 378.521 216.512 379.033 216.512C379.449 216.512 379.833 216.624 380.185 216.848C380.569 217.04 380.905 217.296 381.193 217.616L384.169 221.264ZM393.877 219.968C393.877 219.744 393.877 219.488 393.877 219.2C393.877 218.88 393.893 218.432 393.925 217.856C393.989 217.248 394.069 216.464 394.165 215.504C394.293 214.512 394.453 213.248 394.645 211.712L397.381 189.632H392.725C392.149 189.632 391.669 189.424 391.285 189.008C390.933 188.592 390.821 187.968 390.949 187.136L391.477 182.432L398.965 181.136L402.901 167.696C403.125 167.056 403.461 166.56 403.909 166.208C404.357 165.856 404.917 165.68 405.589 165.68H411.925L410.005 181.184H421.909L420.901 189.632H408.949L406.309 211.088C406.149 212.4 406.021 213.44 405.925 214.208C405.829 214.976 405.749 215.584 405.685 216.032C405.653 216.448 405.637 216.752 405.637 216.944C405.637 217.104 405.637 217.216 405.637 217.28C405.637 218.496 405.925 219.456 406.501 220.16C407.109 220.864 407.957 221.216 409.045 221.216C409.717 221.216 410.293 221.136 410.773 220.976C411.253 220.784 411.669 220.592 412.021 220.4C412.373 220.208 412.693 220.032 412.981 219.872C413.269 219.68 413.541 219.584 413.797 219.584C414.149 219.584 414.421 219.68 414.613 219.872C414.805 220.032 414.981 220.288 415.141 220.64L417.685 226.4C415.925 227.84 413.973 228.928 411.829 229.664C409.717 230.4 407.557 230.768 405.349 230.768C401.861 230.768 399.093 229.824 397.045 227.936C395.029 226.048 393.973 223.392 393.877 219.968ZM115.88 333.48C116.968 334.664 118.216 335.496 119.624 335.976C121.032 336.456 122.408 336.696 123.752 336.696C125.864 336.696 127.784 336.04 129.512 334.728C131.24 333.416 132.728 331.704 133.976 329.592C135.224 327.48 136.184 325.112 136.856 322.488C137.528 319.832 137.864 317.176 137.864 314.52C137.864 311.064 137.288 308.504 136.136 306.84C135.016 305.144 133.448 304.296 131.432 304.296C130.12 304.296 128.792 304.744 127.448 305.64C126.104 306.536 124.808 307.768 123.56 309.336C122.312 310.872 121.144 312.696 120.056 314.808C119 316.92 118.088 319.192 117.32 321.624L115.88 333.48ZM118.52 306.6C120.888 303.048 123.56 300.232 126.536 298.152C129.544 296.04 132.728 294.984 136.088 294.984C138.136 294.984 139.992 295.368 141.656 296.136C143.32 296.872 144.744 297.992 145.928 299.496C147.112 301 148.024 302.904 148.664 305.208C149.304 307.512 149.624 310.216 149.624 313.32C149.624 316.104 149.336 318.84 148.76 321.528C148.184 324.216 147.368 326.76 146.312 329.16C145.256 331.56 143.992 333.768 142.52 335.784C141.08 337.8 139.464 339.544 137.672 341.016C135.88 342.488 133.96 343.64 131.912 344.472C129.896 345.304 127.8 345.72 125.624 345.72C123.384 345.72 121.368 345.32 119.576 344.52C117.816 343.72 116.264 342.632 114.92 341.256L112.472 361.08H100.952L108.92 295.704H114.92C116.168 295.704 117.128 296.008 117.8 296.616C118.504 297.224 118.856 298.2 118.856 299.544L118.52 306.6ZM170.27 307.56C171.518 305.128 172.846 303.048 174.254 301.32C175.694 299.56 177.182 298.2 178.718 297.24C180.254 296.248 181.838 295.672 183.47 295.512C185.102 295.32 186.734 295.576 188.366 296.28L186.206 307.608C182.302 305.976 178.878 306.376 175.934 308.808C173.022 311.24 170.686 316.024 168.926 323.16L166.286 345H154.67L160.622 295.704H166.67C167.918 295.704 168.878 296.008 169.55 296.616C170.254 297.224 170.606 298.2 170.606 299.544L170.27 307.56ZM206.656 295.752L200.752 345H189.088L194.992 295.752H206.656ZM209.68 281.4C209.68 282.424 209.456 283.384 209.008 284.28C208.592 285.176 208.032 285.96 207.328 286.632C206.624 287.304 205.824 287.848 204.928 288.264C204.032 288.648 203.104 288.84 202.144 288.84C201.216 288.84 200.32 288.648 199.456 288.264C198.592 287.848 197.824 287.304 197.152 286.632C196.48 285.96 195.936 285.176 195.52 284.28C195.136 283.384 194.944 282.424 194.944 281.4C194.944 280.376 195.152 279.4 195.568 278.472C195.984 277.544 196.528 276.744 197.2 276.072C197.872 275.368 198.64 274.824 199.504 274.44C200.4 274.024 201.312 273.816 202.24 273.816C203.2 273.816 204.128 274.024 205.024 274.44C205.92 274.824 206.704 275.352 207.376 276.024C208.08 276.696 208.64 277.496 209.056 278.424C209.472 279.352 209.68 280.344 209.68 281.4ZM212.139 345L218.091 295.704H224.139C225.387 295.704 226.347 296.008 227.019 296.616C227.723 297.224 228.075 298.2 228.075 299.544L227.835 304.968C230.043 301.608 232.443 299.112 235.035 297.48C237.627 295.816 240.331 294.984 243.147 294.984C246.155 294.984 248.539 295.992 250.299 298.008C252.059 300.024 253.083 302.936 253.371 306.744C255.675 302.712 258.219 299.752 261.003 297.864C263.819 295.944 266.875 294.984 270.171 294.984C272.251 294.984 274.075 295.4 275.643 296.232C277.211 297.064 278.491 298.28 279.483 299.88C280.475 301.448 281.147 303.4 281.499 305.736C281.851 308.04 281.835 310.68 281.451 313.656L277.755 345H266.043L269.739 313.656C270.155 310.456 270.059 308.168 269.451 306.792C268.875 305.384 267.691 304.68 265.899 304.68C264.683 304.68 263.499 305 262.347 305.64C261.195 306.28 260.091 307.208 259.035 308.424C258.011 309.64 257.051 311.128 256.155 312.888C255.291 314.648 254.523 316.632 253.851 318.84L250.779 345H239.067L242.811 313.656C243.195 310.456 243.115 308.168 242.571 306.792C242.027 305.384 240.843 304.68 239.019 304.68C237.739 304.68 236.507 305.016 235.323 305.688C234.171 306.36 233.067 307.336 232.011 308.616C230.987 309.864 230.027 311.4 229.131 313.224C228.267 315.016 227.499 317.032 226.827 319.272L223.755 345H212.139ZM313.944 303.336C312.344 303.336 310.856 303.672 309.48 304.344C308.104 304.984 306.856 305.896 305.736 307.08C304.648 308.264 303.688 309.688 302.856 311.352C302.056 312.984 301.416 314.776 300.936 316.728C304.904 316.184 308.088 315.592 310.488 314.952C312.92 314.28 314.792 313.576 316.104 312.84C317.416 312.072 318.28 311.256 318.696 310.392C319.144 309.496 319.368 308.568 319.368 307.608C319.368 307.128 319.256 306.632 319.032 306.12C318.84 305.608 318.52 305.16 318.072 304.776C317.656 304.36 317.096 304.024 316.392 303.768C315.72 303.48 314.904 303.336 313.944 303.336ZM299.928 324.936C299.928 332.68 303.208 336.552 309.768 336.552C311.176 336.552 312.424 336.424 313.512 336.168C314.6 335.88 315.544 335.544 316.344 335.16C317.176 334.776 317.912 334.344 318.552 333.864C319.224 333.384 319.832 332.952 320.376 332.568C320.952 332.184 321.512 331.864 322.056 331.608C322.6 331.32 323.192 331.176 323.832 331.176C324.216 331.176 324.584 331.272 324.936 331.464C325.32 331.656 325.656 331.912 325.944 332.232L328.968 335.88C327.272 337.576 325.608 339.048 323.976 340.296C322.344 341.544 320.68 342.568 318.984 343.368C317.288 344.168 315.496 344.76 313.608 345.144C311.72 345.528 309.672 345.72 307.464 345.72C304.584 345.72 301.976 345.24 299.64 344.28C297.304 343.288 295.304 341.912 293.64 340.152C291.976 338.36 290.68 336.216 289.752 333.72C288.856 331.192 288.408 328.376 288.408 325.272C288.408 322.68 288.68 320.136 289.224 317.64C289.8 315.144 290.616 312.776 291.672 310.536C292.728 308.296 294.024 306.232 295.56 304.344C297.096 302.456 298.824 300.824 300.744 299.448C302.696 298.072 304.824 297 307.128 296.232C309.464 295.464 311.96 295.08 314.616 295.08C317.176 295.08 319.416 295.448 321.336 296.184C323.288 296.92 324.904 297.88 326.184 299.064C327.496 300.216 328.472 301.512 329.112 302.952C329.752 304.392 330.072 305.8 330.072 307.176C330.072 309.384 329.624 311.4 328.728 313.224C327.864 315.048 326.296 316.68 324.024 318.12C321.784 319.56 318.712 320.808 314.808 321.864C310.904 322.888 305.944 323.704 299.928 324.312V324.936ZM354.643 296.184H382.963L377.011 345H365.395L370.339 304.632H354.019L349.363 343.032L346.915 352.056C346.435 353.592 345.731 354.792 344.803 355.656C343.875 356.52 342.547 356.952 340.819 356.952H336.067L342.499 304.68L338.851 304.008C337.987 303.816 337.315 303.512 336.835 303.096C336.355 302.648 336.163 302.008 336.259 301.176L336.787 296.184H343.555L343.747 294.6C344.099 291.592 344.883 288.824 346.099 286.296C347.347 283.736 349.027 281.528 351.139 279.672C353.251 277.784 355.811 276.312 358.819 275.256C361.827 274.2 365.299 273.672 369.235 273.672C370.483 273.672 371.795 273.752 373.171 273.912C374.579 274.04 375.747 274.264 376.675 274.584L375.523 280.488C375.363 281.224 374.915 281.656 374.179 281.784C373.443 281.88 372.563 281.928 371.539 281.928C368.659 281.928 366.211 282.2 364.195 282.744C362.179 283.256 360.515 284.056 359.203 285.144C357.923 286.2 356.931 287.544 356.227 289.176C355.523 290.776 355.043 292.664 354.787 294.84L354.643 296.184ZM392.565 334.968C392.565 334.744 392.565 334.488 392.565 334.2C392.565 333.88 392.581 333.432 392.613 332.856C392.677 332.248 392.757 331.464 392.853 330.504C392.981 329.512 393.141 328.248 393.333 326.712L396.069 304.632H391.413C390.837 304.632 390.357 304.424 389.973 304.008C389.621 303.592 389.509 302.968 389.637 302.136L390.165 297.432L397.653 296.136L401.589 282.696C401.813 282.056 402.149 281.56 402.597 281.208C403.045 280.856 403.605 280.68 404.277 280.68H410.613L408.693 296.184H420.597L419.589 304.632H407.637L404.997 326.088C404.837 327.4 404.709 328.44 404.613 329.208C404.517 329.976 404.437 330.584 404.373 331.032C404.341 331.448 404.325 331.752 404.325 331.944C404.325 332.104 404.325 332.216 404.325 332.28C404.325 333.496 404.613 334.456 405.189 335.16C405.797 335.864 406.645 336.216 407.733 336.216C408.405 336.216 408.981 336.136 409.461 335.976C409.941 335.784 410.357 335.592 410.709 335.4C411.061 335.208 411.381 335.032 411.669 334.872C411.957 334.68 412.229 334.584 412.485 334.584C412.837 334.584 413.109 334.68 413.301 334.872C413.493 335.032 413.669 335.288 413.829 335.64L416.373 341.4C414.613 342.84 412.661 343.928 410.517 344.664C408.405 345.4 406.245 345.768 404.037 345.768C400.549 345.768 397.781 344.824 395.733 342.936C393.717 341.048 392.661 338.392 392.565 334.968ZM439.145 305.928C441.641 302.248 444.409 299.512 447.449 297.72C450.489 295.896 453.625 294.984 456.857 294.984C458.905 294.984 460.745 295.4 462.377 296.232C464.009 297.064 465.353 298.28 466.409 299.88C467.465 301.448 468.201 303.4 468.617 305.736C469.065 308.04 469.097 310.68 468.713 313.656L465.017 345H453.161L456.857 313.656C457.273 310.456 457.113 308.168 456.377 306.792C455.641 305.384 454.297 304.68 452.345 304.68C451.033 304.68 449.689 305.064 448.313 305.832C446.937 306.568 445.609 307.64 444.329 309.048C443.049 310.424 441.865 312.088 440.777 314.04C439.721 315.96 438.857 318.12 438.185 320.52L435.449 345H423.593L429.497 295.704H435.497C436.745 295.704 437.705 296.008 438.377 296.616C439.081 297.224 439.433 298.2 439.433 299.544L439.145 305.928ZM501.163 303.336C499.563 303.336 498.075 303.672 496.699 304.344C495.323 304.984 494.075 305.896 492.955 307.08C491.867 308.264 490.907 309.688 490.075 311.352C489.275 312.984 488.635 314.776 488.155 316.728C492.123 316.184 495.307 315.592 497.707 314.952C500.139 314.28 502.011 313.576 503.323 312.84C504.635 312.072 505.499 311.256 505.915 310.392C506.363 309.496 506.587 308.568 506.587 307.608C506.587 307.128 506.475 306.632 506.251 306.12C506.059 305.608 505.739 305.16 505.291 304.776C504.875 304.36 504.315 304.024 503.611 303.768C502.939 303.48 502.123 303.336 501.163 303.336ZM487.147 324.936C487.147 332.68 490.427 336.552 496.987 336.552C498.395 336.552 499.643 336.424 500.731 336.168C501.819 335.88 502.763 335.544 503.562 335.16C504.395 334.776 505.131 334.344 505.771 333.864C506.443 333.384 507.051 332.952 507.595 332.568C508.171 332.184 508.731 331.864 509.275 331.608C509.819 331.32 510.411 331.176 511.051 331.176C511.435 331.176 511.803 331.272 512.155 331.464C512.539 331.656 512.875 331.912 513.163 332.232L516.187 335.88C514.491 337.576 512.827 339.048 511.195 340.296C509.563 341.544 507.899 342.568 506.203 343.368C504.507 344.168 502.715 344.76 500.827 345.144C498.939 345.528 496.891 345.72 494.683 345.72C491.803 345.72 489.195 345.24 486.859 344.28C484.523 343.288 482.523 341.912 480.859 340.152C479.195 338.36 477.899 336.216 476.971 333.72C476.075 331.192 475.627 328.376 475.627 325.272C475.627 322.68 475.899 320.136 476.443 317.64C477.019 315.144 477.835 312.776 478.891 310.536C479.947 308.296 481.243 306.232 482.779 304.344C484.315 302.456 486.043 300.824 487.963 299.448C489.915 298.072 492.043 297 494.347 296.232C496.683 295.464 499.179 295.08 501.835 295.08C504.395 295.08 506.635 295.448 508.555 296.184C510.507 296.92 512.123 297.88 513.403 299.064C514.715 300.216 515.691 301.512 516.331 302.952C516.971 304.392 517.291 305.8 517.291 307.176C517.291 309.384 516.843 311.4 515.947 313.224C515.083 315.048 513.515 316.68 511.243 318.12C509.003 319.56 505.931 320.808 502.027 321.864C498.123 322.888 493.163 323.704 487.147 324.312V324.936ZM555.096 305.016C554.744 305.528 554.408 305.896 554.088 306.12C553.768 306.312 553.352 306.408 552.84 306.408C552.264 306.408 551.688 306.248 551.112 305.928C550.536 305.608 549.864 305.256 549.096 304.872C548.36 304.456 547.496 304.088 546.504 303.768C545.544 303.448 544.392 303.288 543.048 303.288C540.52 303.288 538.584 303.864 537.24 305.016C535.896 306.136 535.224 307.544 535.224 309.24C535.224 310.552 535.688 311.608 536.616 312.408C537.576 313.208 538.776 313.912 540.216 314.52C541.656 315.128 543.192 315.752 544.824 316.392C546.488 317 548.04 317.784 549.48 318.744C550.92 319.672 552.104 320.888 553.032 322.392C553.992 323.864 554.472 325.768 554.472 328.104C554.472 330.472 553.992 332.728 553.032 334.872C552.104 337.016 550.76 338.904 549 340.536C547.24 342.136 545.112 343.416 542.616 344.376C540.152 345.304 537.368 345.768 534.264 345.768C532.728 345.768 531.224 345.608 529.752 345.288C528.28 345 526.904 344.584 525.624 344.04C524.376 343.496 523.224 342.856 522.168 342.12C521.112 341.384 520.216 340.584 519.48 339.72L522.408 335.208C522.76 334.664 523.176 334.248 523.656 333.96C524.136 333.672 524.728 333.528 525.432 333.528C526.104 333.528 526.712 333.736 527.256 334.152C527.8 334.568 528.424 335.032 529.128 335.544C529.864 336.024 530.744 336.472 531.768 336.888C532.824 337.304 534.168 337.512 535.8 337.512C537.112 337.512 538.264 337.336 539.256 336.984C540.28 336.632 541.144 336.152 541.848 335.544C542.552 334.936 543.08 334.232 543.432 333.432C543.784 332.632 543.96 331.784 543.96 330.888C543.96 329.8 543.688 328.904 543.144 328.2C542.6 327.464 541.864 326.84 540.936 326.328C540.04 325.784 539.016 325.32 537.864 324.936C536.712 324.52 535.528 324.088 534.312 323.64C533.128 323.192 531.96 322.68 530.808 322.104C529.688 321.528 528.664 320.808 527.736 319.944C526.84 319.048 526.12 317.976 525.576 316.728C525.032 315.448 524.76 313.896 524.76 312.072C524.76 309.896 525.176 307.784 526.008 305.736C526.84 303.656 528.056 301.832 529.656 300.264C531.256 298.664 533.224 297.384 535.56 296.424C537.928 295.464 540.632 294.984 543.672 294.984C546.808 294.984 549.592 295.528 552.024 296.616C554.456 297.672 556.488 299.032 558.12 300.696L555.096 305.016ZM594.002 305.016C593.65 305.528 593.314 305.896 592.994 306.12C592.674 306.312 592.258 306.408 591.746 306.408C591.17 306.408 590.594 306.248 590.018 305.928C589.442 305.608 588.77 305.256 588.002 304.872C587.266 304.456 586.402 304.088 585.41 303.768C584.45 303.448 583.298 303.288 581.954 303.288C579.426 303.288 577.49 303.864 576.146 305.016C574.802 306.136 574.13 307.544 574.13 309.24C574.13 310.552 574.594 311.608 575.522 312.408C576.482 313.208 577.682 313.912 579.122 314.52C580.562 315.128 582.098 315.752 583.73 316.392C585.394 317 586.946 317.784 588.386 318.744C589.826 319.672 591.01 320.888 591.938 322.392C592.898 323.864 593.378 325.768 593.378 328.104C593.378 330.472 592.898 332.728 591.938 334.872C591.01 337.016 589.666 338.904 587.906 340.536C586.146 342.136 584.018 343.416 581.522 344.376C579.058 345.304 576.274 345.768 573.17 345.768C571.634 345.768 570.13 345.608 568.658 345.288C567.186 345 565.81 344.584 564.53 344.04C563.282 343.496 562.13 342.856 561.074 342.12C560.018 341.384 559.122 340.584 558.386 339.72L561.314 335.208C561.666 334.664 562.082 334.248 562.562 333.96C563.042 333.672 563.634 333.528 564.338 333.528C565.01 333.528 565.618 333.736 566.162 334.152C566.706 334.568 567.33 335.032 568.034 335.544C568.77 336.024 569.65 336.472 570.674 336.888C571.73 337.304 573.074 337.512 574.706 337.512C576.018 337.512 577.17 337.336 578.162 336.984C579.186 336.632 580.05 336.152 580.754 335.544C581.458 334.936 581.986 334.232 582.338 333.432C582.69 332.632 582.866 331.784 582.866 330.888C582.866 329.8 582.594 328.904 582.05 328.2C581.506 327.464 580.77 326.84 579.842 326.328C578.946 325.784 577.922 325.32 576.77 324.936C575.618 324.52 574.434 324.088 573.218 323.64C572.034 323.192 570.866 322.68 569.714 322.104C568.594 321.528 567.57 320.808 566.642 319.944C565.746 319.048 565.026 317.976 564.482 316.728C563.938 315.448 563.666 313.896 563.666 312.072C563.666 309.896 564.082 307.784 564.914 305.736C565.746 303.656 566.962 301.832 568.562 300.264C570.162 298.664 572.13 297.384 574.466 296.424C576.834 295.464 579.538 294.984 582.578 294.984C585.714 294.984 588.498 295.528 590.93 296.616C593.362 297.672 595.394 299.032 597.026 300.696L594.002 305.016Z" fill="#BACE3F"/>
<path d="M473.962 202.016H455.242L452.794 221.888H443.434L445.882 202.016H427.258L428.314 193.52H446.938L449.385 173.744H458.698L456.25 193.52H475.066L473.962 202.016Z" fill="#074726"/>
</g>
</g>
</svg>
