<svg width="700" height="500" viewBox="0 0 700 500" fill="none" xmlns="http://www.w3.org/2000/svg">
<g id="primefitness">
<g id="Group 1157">
<g id="Group">
<path id="primeftness" fill-rule="evenodd" clip-rule="evenodd" d="M375.542 320.784L383.634 279.469H362.12L354.028 320.784H342.777L350.87 279.469H342.284L343.666 272.403L352.547 271.127L353.83 264.454C354.949 258.631 357.12 254.232 360.344 251.255C363.568 248.278 367.778 246.79 372.976 246.79C376.331 246.79 379.423 247.411 382.252 248.654L380.673 256.505C378.371 255.982 376.265 255.72 374.357 255.72C371.594 255.72 369.522 256.309 368.14 257.486C366.758 258.664 365.804 260.594 365.278 263.276L363.798 270.833H396.562L386.792 320.784H375.542ZM194.599 261.167C195.684 262.115 197.214 262.59 199.187 262.59C201.424 262.59 203.316 261.837 204.862 260.332C206.408 258.828 207.181 256.996 207.181 254.837C207.181 253.005 206.638 251.615 205.553 250.666C204.467 249.717 202.938 249.243 200.964 249.243C198.727 249.243 196.835 249.995 195.289 251.5C193.743 253.005 192.97 254.837 192.97 256.996C192.97 258.828 193.513 260.218 194.599 261.167ZM101.684 270.833L87.9668 341H99.2172L103.263 320.489C106.224 321.667 109.119 322.256 111.948 322.256C117.474 322.256 122.507 320.604 127.047 317.3C131.587 313.996 135.106 309.678 137.607 304.346C140.107 299.014 141.357 293.241 141.357 287.025C141.357 281.268 140.255 276.885 138.051 273.875C135.847 270.866 132.639 269.361 128.429 269.361C122.244 269.361 116.323 272.763 110.665 279.567L110.961 270.833H101.684ZM117.228 280.892C119.761 279.158 122.014 278.291 123.988 278.291C127.935 278.291 129.909 281.791 129.909 288.792C129.909 293.633 129.037 297.935 127.294 301.697C125.55 305.458 123.231 308.37 120.336 310.431C117.441 312.492 114.218 313.522 110.665 313.522C108.625 313.522 106.652 313.293 104.744 312.835L109.481 288.203C112.112 285.063 114.695 282.626 117.228 280.892ZM145.304 320.784L155.074 270.833H164.351L164.055 279.862C166.621 276.656 169.186 274.284 171.752 272.747C174.318 271.209 177.049 270.441 179.943 270.441C181.588 270.441 183.003 270.604 184.187 270.931L182.115 281.334C180.009 281.007 178.332 280.843 177.081 280.843C174.516 280.843 172.016 281.497 169.581 282.806C167.147 284.114 164.91 285.979 162.871 288.399L156.555 320.784H145.304ZM181.818 320.784L191.588 270.833H202.839L193.069 320.784H181.818ZM274.387 294.582L269.255 320.784H280.506L285.638 294.582C286.622 289.441 287.146 285.702 287.21 283.367L287.217 282.904C287.217 278.52 286.147 275.167 284.009 272.845C281.871 270.522 278.795 269.361 274.782 269.361C267.742 269.361 261.328 272.828 255.538 279.763C255.077 276.492 253.762 273.94 251.59 272.109C249.419 270.277 246.656 269.361 243.301 269.361C236.721 269.361 230.636 272.828 225.044 279.763L225.34 270.833H216.063L206.293 320.784H217.543L223.859 288.399C229.452 281.66 234.583 278.291 239.254 278.291C242.61 278.291 244.288 280.287 244.288 284.277C244.288 285.985 243.915 288.938 243.168 293.136L242.906 294.582L237.774 320.784H249.025L254.156 294.582C254.683 291.899 255.11 289.38 255.439 287.025C260.966 281.202 265.999 278.291 270.538 278.291C272.381 278.291 273.729 278.798 274.585 279.812C275.44 280.826 275.867 282.38 275.867 284.474C275.867 285.956 275.462 288.862 274.652 293.192L274.387 294.582ZM332.119 316.074C329.224 318.036 325.935 319.59 322.251 320.735C318.566 321.88 314.882 322.452 311.198 322.452C305.342 322.452 300.934 320.899 297.973 317.791C295.013 314.683 293.532 310.087 293.532 304.003C293.532 298.049 294.832 292.439 297.431 287.173C300.029 281.906 303.664 277.588 308.336 274.219C313.007 270.849 318.139 269.165 323.731 269.165C328.007 269.165 331.363 270.212 333.797 272.305C336.231 274.399 337.448 277.277 337.448 280.941C337.448 286.044 335.063 290.493 330.294 294.288C325.524 298.082 318.829 300.83 310.211 302.531L304.289 303.709C304.289 307.307 305.013 309.907 306.461 311.51C307.908 313.113 310.276 313.915 313.566 313.915C318.303 313.915 323.501 312.41 329.159 309.4L332.119 316.074ZM314.355 279.911C316.658 278.373 319.027 277.605 321.461 277.605C323.303 277.605 324.701 278.013 325.655 278.831C326.609 279.649 327.086 280.81 327.086 282.315C327.086 284.932 325.606 287.369 322.645 289.626C319.685 291.883 315.671 293.601 310.605 294.778L304.684 296.152C305.342 292.554 306.543 289.332 308.286 286.486C310.03 283.64 312.053 281.448 314.355 279.911ZM398.585 260.332C400.131 258.828 400.904 256.996 400.904 254.837C400.904 253.005 400.362 251.615 399.276 250.666C398.19 249.717 396.661 249.243 394.687 249.243C392.45 249.243 390.559 249.995 389.013 251.5C387.466 253.005 386.693 254.837 386.693 256.996C386.693 258.828 387.236 260.218 388.322 261.167C389.407 262.115 390.937 262.59 392.911 262.59C395.148 262.59 397.039 261.837 398.585 260.332ZM432.385 317.055C430.609 318.363 428.454 319.427 425.921 320.244C423.388 321.062 420.905 321.471 418.471 321.471C409.654 321.471 405.182 317.787 405.052 310.42L405.049 310.087C405.049 308.378 405.511 305.167 406.435 300.456L410.576 279.469H401.99L403.371 272.403L412.549 271.029L416.99 257.094H426.168L423.504 270.833H437.715L436.037 279.469H421.826L417.977 299.096L417.563 301.196C416.852 304.871 416.497 307.181 416.497 308.125C416.497 309.695 416.924 310.823 417.78 311.51C418.635 312.197 420.017 312.541 421.925 312.541C424.491 312.541 427.155 311.886 429.918 310.578L432.385 317.055ZM475.413 294.582L470.282 320.784H481.532L486.664 294.582C487.716 289.217 488.243 285.193 488.243 282.511C488.243 278.324 487.108 275.085 484.838 272.796C482.568 270.506 479.328 269.361 475.117 269.361C471.893 269.361 468.653 270.26 465.397 272.06C462.14 273.859 459.097 276.427 456.268 279.763L456.564 270.833H447.287L437.517 320.784H448.768L455.084 288.399C457.847 285.259 460.627 282.789 463.423 280.99C466.219 279.191 468.703 278.291 470.874 278.291C474.821 278.291 476.795 280.221 476.795 284.081C476.795 286.009 476.428 289.006 475.694 293.072L475.413 294.582ZM533.145 316.074C530.25 318.036 526.961 319.59 523.277 320.735C519.592 321.88 515.908 322.452 512.224 322.452C506.368 322.452 501.96 320.899 498.999 317.791C496.039 314.683 494.559 310.087 494.559 304.003C494.559 298.049 495.858 292.439 498.457 287.173C501.055 281.906 504.69 277.588 509.362 274.219C514.033 270.849 519.165 269.165 524.757 269.165C529.033 269.165 532.389 270.212 534.823 272.305C537.257 274.399 538.474 277.277 538.474 280.941C538.474 286.044 536.09 290.493 531.32 294.288C526.55 298.082 519.855 300.83 511.237 302.531L505.315 303.709C505.315 307.307 506.039 309.907 507.487 311.51C508.934 313.113 511.302 313.915 514.592 313.915C519.329 313.915 524.527 312.41 530.185 309.4L533.145 316.074ZM515.382 279.911C517.684 278.373 520.053 277.605 522.487 277.605C524.329 277.605 525.727 278.013 526.681 278.831C527.635 279.649 528.112 280.81 528.112 282.315C528.112 284.932 526.632 287.369 523.671 289.626C520.711 291.883 516.697 293.601 511.631 294.778L505.71 296.152C506.368 292.554 507.569 289.332 509.312 286.486C511.056 283.64 513.079 281.448 515.382 279.911ZM551.6 297.526C548.574 295.89 546.386 294.075 545.037 292.079C543.689 290.084 543.014 287.745 543.014 285.062C543.014 280.352 544.823 276.557 548.442 273.679C552.061 270.8 556.83 269.361 562.752 269.361C565.318 269.361 567.883 269.639 570.449 270.195C573.015 270.751 575.219 271.52 577.061 272.501L575.482 280.646C573.838 279.861 571.864 279.223 569.561 278.733C567.258 278.242 565.021 277.997 562.85 277.997C559.824 277.997 557.538 278.52 555.992 279.567C554.445 280.614 553.672 282.151 553.672 284.179C553.672 285.422 554.051 286.453 554.807 287.271C555.488 288.007 556.822 288.941 558.809 290.075L564.725 293.404C568.081 295.301 570.416 297.166 571.732 298.998C573.048 300.83 573.706 303.119 573.706 305.867C573.706 310.905 571.88 314.896 568.229 317.84C564.577 320.784 559.594 322.256 553.278 322.256C550.317 322.256 547.307 321.912 544.248 321.226C541.188 320.539 538.54 319.639 536.303 318.527L537.882 310.382C540.185 311.363 542.784 312.148 545.679 312.737C548.574 313.326 551.139 313.62 553.376 313.62C556.469 313.62 558.821 313.08 560.432 312.001C562.044 310.921 562.85 309.335 562.85 307.241C562.85 305.933 562.439 304.804 561.617 303.855C560.794 302.907 559.331 301.844 557.225 300.666L551.6 297.526ZM584.512 292.079C585.861 294.075 588.048 295.89 591.075 297.526L596.7 300.666C598.805 301.844 600.269 302.907 601.092 303.855C601.914 304.804 602.325 305.933 602.325 307.241C602.325 309.335 601.519 310.921 599.907 312.001C598.295 313.08 595.943 313.62 592.851 313.62C590.614 313.62 588.048 313.326 585.154 312.737C582.259 312.148 579.66 311.363 577.357 310.382L575.778 318.527C578.015 319.639 580.663 320.539 583.723 321.226C586.782 321.912 589.792 322.256 592.752 322.256C599.068 322.256 604.052 320.784 607.704 317.84C611.355 314.896 613.181 310.905 613.181 305.867C613.181 303.119 612.523 300.83 611.207 298.998C609.891 297.166 607.556 295.301 604.2 293.404L598.283 290.075C596.297 288.941 594.963 288.007 594.282 287.271C593.525 286.453 593.147 285.422 593.147 284.179C593.147 282.151 593.92 280.614 595.466 279.567C597.012 278.52 599.299 277.997 602.325 277.997C604.496 277.997 606.733 278.242 609.036 278.733C611.339 279.223 613.312 279.861 614.957 280.646L616.536 272.501C614.694 271.52 612.49 270.751 609.924 270.195C607.358 269.639 604.792 269.361 602.226 269.361C596.305 269.361 591.535 270.8 587.917 273.679C584.298 276.557 582.489 280.352 582.489 285.062C582.489 287.745 583.163 290.084 584.512 292.079Z" fill="#BACE3F"/>
<g id="connect +">
<path id="connect" fill-rule="evenodd" clip-rule="evenodd" d="M397.342 223.679C399.874 222.855 402.029 221.783 403.805 220.463L401.338 213.932C398.575 215.251 395.911 215.911 393.345 215.911C391.438 215.911 390.056 215.565 389.201 214.872C388.346 214.179 387.918 213.041 387.918 211.458C387.918 210.506 388.273 208.177 388.984 204.471L393.247 182.562H407.456L409.133 173.854H394.924L397.588 160H388.412L383.971 174.052L374.795 175.437L373.413 182.562H381.998L377.858 203.725C376.996 208.159 376.536 211.275 376.478 213.072L376.472 213.437C376.472 221.09 380.945 224.916 389.892 224.916C392.326 224.916 394.809 224.504 397.342 223.679ZM324.372 219.473C321.477 221.453 318.188 223.019 314.504 224.174C310.82 225.328 307.137 225.906 303.453 225.906C297.598 225.906 293.191 224.339 290.23 221.205C287.27 218.072 285.79 213.437 285.79 207.302C285.79 201.298 287.089 195.641 289.688 190.33C292.286 185.02 295.921 180.666 300.591 177.268C305.262 173.87 310.393 172.172 315.984 172.172C320.26 172.172 323.615 173.227 326.049 175.338C328.483 177.449 329.7 180.352 329.7 184.047C329.7 189.192 327.316 193.678 322.546 197.505C317.777 201.331 311.084 204.102 302.466 205.817L296.546 207.005C296.546 210.633 297.269 213.256 298.716 214.872C300.164 216.488 302.532 217.296 305.821 217.296C310.557 217.296 315.754 215.779 321.412 212.744L324.372 219.473ZM121.102 219.276C118.536 221.321 115.592 222.904 112.27 224.026C108.948 225.147 105.577 225.708 102.156 225.708C96.3672 225.708 91.894 224.026 88.7364 220.661C85.5788 217.297 84 212.547 84 206.411C84 200.672 85.3157 195.213 87.947 190.034C90.5783 184.855 94.2128 180.616 98.8506 177.318C103.488 174.019 108.537 172.37 113.997 172.37C116.102 172.37 118.207 172.601 120.312 173.062C122.417 173.524 124.292 174.184 125.937 175.042L124.358 183.354C121.003 182.167 117.845 181.573 114.885 181.573C111.333 181.573 108.11 182.546 105.215 184.492C102.321 186.438 100.002 189.226 98.2585 192.854C96.5152 196.482 95.6436 200.639 95.6436 205.323C95.6436 209.215 96.3508 212.052 97.7651 213.833C99.1795 215.614 101.465 216.505 104.623 216.505C106.531 216.505 108.537 216.175 110.642 215.515C112.747 214.856 115.214 213.767 118.043 212.25L121.102 219.276ZM144.488 225.708C138.436 225.708 133.716 223.844 130.328 220.117C126.94 216.389 125.246 211.194 125.246 204.531C125.246 198.791 126.447 193.497 128.848 188.648C131.249 183.799 134.653 179.874 139.061 176.872C143.468 173.871 148.402 172.37 153.862 172.37C159.914 172.37 164.634 174.233 168.022 177.961C171.409 181.688 173.103 186.884 173.103 193.547C173.103 199.286 171.903 204.58 169.502 209.429C167.101 214.278 163.696 218.204 159.289 221.205C154.881 224.207 149.948 225.708 144.488 225.708ZM153.566 213.833C151.132 215.746 148.5 216.703 145.672 216.703C142.711 216.703 140.475 215.631 138.962 213.487C137.449 211.343 136.692 208.225 136.692 204.135C136.692 199.781 137.432 195.856 138.913 192.359C140.393 188.863 142.35 186.158 144.784 184.245C147.218 182.331 149.849 181.375 152.678 181.375C155.638 181.375 157.875 182.447 159.388 184.591C160.901 186.735 161.657 189.852 161.657 193.942C161.657 198.297 160.917 202.222 159.437 205.718C157.957 209.215 156 211.92 153.566 213.833ZM208.232 224.224L213.363 197.802C214.284 192.92 214.744 189.391 214.744 187.213C214.744 183.321 212.771 181.375 208.824 181.375C206.653 181.375 204.169 182.282 201.374 184.096C198.578 185.91 195.799 188.401 193.036 191.568L186.72 224.224H175.472L185.24 173.854H194.516L194.22 182.859C197.048 179.495 200.091 176.905 203.347 175.091C206.603 173.277 209.843 172.37 213.067 172.37C217.277 172.37 220.517 173.524 222.786 175.833C225.056 178.142 226.19 181.408 226.19 185.63C226.19 188.335 225.664 192.392 224.612 197.802L219.48 224.224H208.232ZM268.226 197.802L263.095 224.224H274.344L279.475 197.802C280.527 192.392 281.053 188.335 281.053 185.63C281.053 181.408 279.919 178.142 277.649 175.833C275.38 173.524 272.14 172.37 267.93 172.37C264.706 172.37 261.467 173.277 258.21 175.091C254.954 176.905 251.912 179.495 249.083 182.859L249.379 173.854H240.103L230.335 224.224H241.584L247.899 191.568C250.662 188.401 253.441 185.91 256.237 184.096C259.033 182.282 261.516 181.375 263.687 181.375C267.634 181.375 269.607 183.321 269.607 187.213C269.607 189.391 269.147 192.92 268.226 197.802ZM306.61 183.008C308.913 181.457 311.281 180.682 313.715 180.682C315.557 180.682 316.955 181.094 317.909 181.919C318.862 182.744 319.339 183.915 319.339 185.432C319.339 188.071 317.859 190.528 314.899 192.804C311.939 195.081 307.926 196.812 302.861 198L296.94 199.385C297.598 195.757 298.799 192.508 300.542 189.638C302.285 186.768 304.308 184.558 306.61 183.008ZM367.887 219.276C365.322 221.321 362.378 222.904 359.056 224.026C355.734 225.147 352.363 225.708 348.942 225.708C343.153 225.708 338.68 224.026 335.522 220.661C332.364 217.297 330.786 212.547 330.786 206.411C330.786 200.672 332.101 195.213 334.733 190.034C337.364 184.855 340.998 180.616 345.636 177.318C350.274 174.019 355.323 172.37 360.783 172.37C362.888 172.37 364.993 172.601 367.098 173.062C369.203 173.524 371.078 174.184 372.722 175.042L371.144 183.354C367.789 182.167 364.631 181.573 361.671 181.573C358.119 181.573 354.895 182.546 352.001 184.492C349.106 186.438 346.787 189.226 345.044 192.854C343.301 196.482 342.429 200.639 342.429 205.323C342.429 209.215 343.136 212.052 344.551 213.833C345.965 215.614 348.251 216.505 351.409 216.505C353.316 216.505 355.323 216.175 357.428 215.515C359.533 214.856 362 213.767 364.828 212.25L367.887 219.276Z" fill="#BACE3F"/>
<path id="+" d="M451.015 195.257L447.474 214.038H437.738L441.278 195.257H423.773L425.543 186.167H443.049L446.589 167.386H456.325L452.785 186.167H470.291L468.52 195.257H451.015Z" fill="#074726"/>
</g>
</g>
</g>
</g>
</svg>
