<?xml version="1.0" encoding="UTF-8"?>
<svg width="500px" height="500px" viewBox="0 0 500 500" version="1.1" xmlns="http://www.w3.org/2000/svg" xmlns:xlink="http://www.w3.org/1999/xlink">
    <title>redesign</title>
    <defs>
        <filter x="-51.6%" y="-48.5%" width="203.2%" height="197.0%" filterUnits="objectBoundingBox" id="filter-1">
            <feOffset dx="0" dy="2" in="SourceAlpha" result="shadowOffsetOuter1"></feOffset>
            <feGaussianBlur stdDeviation="3" in="shadowOffsetOuter1" result="shadowBlurOuter1"></feGaussianBlur>
            <feColorMatrix values="0 0 0 0 0   0 0 0 0 0   0 0 0 0 0  0 0 0 0.29865579 0" type="matrix" in="shadowBlurOuter1" result="shadowMatrixOuter1"></feColorMatrix>
            <feMerge>
                <feMergeNode in="shadowMatrixOuter1"></feMergeNode>
                <feMergeNode in="SourceGraphic"></feMergeNode>
            </feMerge>
        </filter>
    </defs>
    <g id="redesign" stroke="none" stroke-width="1" fill="none" fill-rule="evenodd">
        <path d="M96.65625,251.7 C101.989583,251.7 106.922917,249.9 111.45625,246.3 L105.65625,237.5 C104.722917,238.166667 103.722917,238.75 102.65625,239.25 C101.589583,239.75 100.322917,240 98.85625,240 C96.9229167,240 95.50625,239.383333 94.60625,238.15 C93.70625,236.916667 93.25625,235.166667 93.25625,232.9 L93.25625,214.4 L105.35625,214.4 L105.35625,203.1 L93.25625,203.1 L93.25625,187.7 L78.85625,187.7 L78.85625,203.1 L71.45625,203.1 L71.45625,214.4 L78.85625,214.4 L78.85625,232.1 C78.85625,235.033333 79.15625,237.7 79.75625,240.1 C80.35625,242.5 81.35625,244.55 82.75625,246.25 C84.15625,247.95 85.9895833,249.283333 88.25625,250.25 C90.5229167,251.216667 93.3229167,251.7 96.65625,251.7 Z M138.86875,251.6 C141.86875,251.6 144.535417,251.316667 146.86875,250.75 C149.202083,250.183333 151.21875,249.533333 152.91875,248.8 C154.61875,248.066667 156.002083,247.316667 157.06875,246.55 C158.135417,245.783333 158.935417,245.233333 159.46875,244.9 L153.56875,235.8 C152.502083,236.6 150.802083,237.55 148.46875,238.65 C146.135417,239.75 143.102083,240.3 139.36875,240.3 C135.56875,240.3 132.585417,239.35 130.41875,237.45 C128.252083,235.55 127.135417,233.333333 127.06875,230.8 L160.46875,230.8 L160.46875,228.4 C160.46875,224.466667 159.96875,220.85 158.96875,217.55 C157.96875,214.25 156.485417,211.416667 154.51875,209.05 C152.552083,206.683333 150.135417,204.833333 147.26875,203.5 C144.402083,202.166667 141.06875,201.5 137.26875,201.5 C133.46875,201.5 130.06875,202.183333 127.06875,203.55 C124.06875,204.916667 121.535417,206.733333 119.46875,209 C117.402083,211.266667 115.81875,213.916667 114.71875,216.95 C113.61875,219.983333 113.06875,223.133333 113.06875,226.4 C113.06875,230.133333 113.652083,233.55 114.81875,236.65 C115.985417,239.75 117.685417,242.4 119.91875,244.6 C122.152083,246.8 124.86875,248.516667 128.06875,249.75 C131.26875,250.983333 134.86875,251.6 138.86875,251.6 Z M127.06875,221.6 C127.06875,220.6 127.285417,219.583333 127.71875,218.55 C128.152083,217.516667 128.785417,216.566667 129.61875,215.7 C130.452083,214.833333 131.502083,214.116667 132.76875,213.55 C134.035417,212.983333 135.502083,212.7 137.16875,212.7 C138.835417,212.7 140.26875,212.983333 141.46875,213.55 C142.66875,214.116667 143.66875,214.833333 144.46875,215.7 C145.26875,216.566667 145.86875,217.516667 146.26875,218.55 C146.66875,219.583333 146.86875,220.6 146.86875,221.6 L127.06875,221.6 Z M187.68125,251.6 C190.28125,251.6 192.83125,251.3 195.33125,250.7 C197.83125,250.1 200.064583,249.183333 202.03125,247.95 C203.997917,246.716667 205.564583,245.166667 206.73125,243.3 C207.897917,241.433333 208.48125,239.2 208.48125,236.6 C208.48125,232.733333 207.397917,229.633333 205.23125,227.3 C203.064583,224.966667 199.58125,223.133333 194.78125,221.8 C191.247917,220.866667 188.447917,220.033333 186.38125,219.3 C184.314583,218.566667 183.28125,217.433333 183.28125,215.9 C183.28125,214.833333 183.78125,213.983333 184.78125,213.35 C185.78125,212.716667 187.38125,212.4 189.58125,212.4 C192.047917,212.4 194.264583,212.8 196.23125,213.6 C198.197917,214.4 199.947917,215.3 201.48125,216.3 L207.58125,206.8 C205.047917,205.066667 202.28125,203.75 199.28125,202.85 C196.28125,201.95 192.78125,201.5 188.78125,201.5 C185.98125,201.5 183.364583,201.85 180.93125,202.55 C178.497917,203.25 176.397917,204.25 174.63125,205.55 C172.864583,206.85 171.48125,208.383333 170.48125,210.15 C169.48125,211.916667 168.98125,213.9 168.98125,216.1 C168.98125,218.233333 169.397917,220.1 170.23125,221.7 C171.064583,223.3 172.164583,224.666667 173.53125,225.8 C174.897917,226.933333 176.464583,227.883333 178.23125,228.65 C179.997917,229.416667 181.78125,230.033333 183.58125,230.5 C185.78125,231.1 187.597917,231.633333 189.03125,232.1 C190.464583,232.566667 191.58125,233.016667 192.38125,233.45 C193.18125,233.883333 193.73125,234.35 194.03125,234.85 C194.33125,235.35 194.48125,235.9 194.48125,236.5 C194.48125,238.033333 193.78125,239.066667 192.38125,239.6 C190.98125,240.133333 189.214583,240.4 187.08125,240.4 C184.747917,240.4 182.33125,239.933333 179.83125,239 C177.33125,238.066667 175.314583,236.9 173.78125,235.5 L166.68125,244.7 C169.014583,247.033333 172.047917,248.766667 175.78125,249.9 C179.514583,251.033333 183.48125,251.6 187.68125,251.6 Z M234.49375,250 L234.49375,234.1 L218.19375,234.1 L218.19375,250 L234.49375,250 Z M268.30625,251.6 C272.639583,251.6 276.389583,250.833333 279.55625,249.3 C282.722917,247.766667 285.272917,245.933333 287.20625,243.8 L278.80625,234.4 C277.80625,235.533333 276.472917,236.583333 274.80625,237.55 C273.139583,238.516667 271.072917,239 268.60625,239 C266.872917,239 265.322917,238.633333 263.95625,237.9 C262.589583,237.166667 261.422917,236.216667 260.45625,235.05 C259.489583,233.883333 258.75625,232.55 258.25625,231.05 C257.75625,229.55 257.50625,228.033333 257.50625,226.5 C257.50625,224.833333 257.75625,223.25 258.25625,221.75 C258.75625,220.25 259.489583,218.933333 260.45625,217.8 C261.422917,216.666667 262.589583,215.75 263.95625,215.05 C265.322917,214.35 266.872917,214 268.60625,214 C271.139583,214 273.172917,214.466667 274.70625,215.4 C276.239583,216.333333 277.539583,217.4 278.60625,218.6 L287.30625,209.2 C285.172917,206.866667 282.539583,205 279.40625,203.6 C276.272917,202.2 272.572917,201.5 268.30625,201.5 C264.639583,201.5 261.25625,202.15 258.15625,203.45 C255.05625,204.75 252.389583,206.533333 250.15625,208.8 C247.922917,211.066667 246.172917,213.716667 244.90625,216.75 C243.639583,219.783333 243.00625,223.033333 243.00625,226.5 C243.00625,230.166667 243.622917,233.533333 244.85625,236.6 C246.089583,239.666667 247.80625,242.316667 250.00625,244.55 C252.20625,246.783333 254.85625,248.516667 257.95625,249.75 C261.05625,250.983333 264.50625,251.6 268.30625,251.6 Z M315.71875,251.6 C319.452083,251.6 322.852083,250.933333 325.91875,249.6 C328.985417,248.266667 331.61875,246.466667 333.81875,244.2 C336.01875,241.933333 337.735417,239.283333 338.96875,236.25 C340.202083,233.216667 340.81875,229.966667 340.81875,226.5 C340.81875,223.033333 340.202083,219.783333 338.96875,216.75 C337.735417,213.716667 336.01875,211.066667 333.81875,208.8 C331.61875,206.533333 328.985417,204.75 325.91875,203.45 C322.852083,202.15 319.452083,201.5 315.71875,201.5 C311.985417,201.5 308.56875,202.15 305.46875,203.45 C302.36875,204.75 299.71875,206.533333 297.51875,208.8 C295.31875,211.066667 293.602083,213.716667 292.36875,216.75 C291.135417,219.783333 290.51875,223.033333 290.51875,226.5 C290.51875,229.966667 291.135417,233.216667 292.36875,236.25 C293.602083,239.283333 295.31875,241.933333 297.51875,244.2 C299.71875,246.466667 302.36875,248.266667 305.46875,249.6 C308.56875,250.933333 311.985417,251.6 315.71875,251.6 Z M315.71875,239.1 C313.91875,239.1 312.302083,238.75 310.86875,238.05 C309.435417,237.35 308.252083,236.4 307.31875,235.2 C306.385417,234 305.66875,232.65 305.16875,231.15 C304.66875,229.65 304.41875,228.1 304.41875,226.5 C304.41875,224.9 304.66875,223.35 305.16875,221.85 C305.66875,220.35 306.385417,219.016667 307.31875,217.85 C308.252083,216.683333 309.435417,215.75 310.86875,215.05 C312.302083,214.35 313.91875,214 315.71875,214 C317.51875,214 319.11875,214.35 320.51875,215.05 C321.91875,215.75 323.102083,216.683333 324.06875,217.85 C325.035417,219.016667 325.752083,220.35 326.21875,221.85 C326.685417,223.35 326.91875,224.9 326.91875,226.5 C326.91875,228.1 326.685417,229.65 326.21875,231.15 C325.752083,232.65 325.035417,234 324.06875,235.2 C323.102083,236.4 321.91875,237.35 320.51875,238.05 C319.11875,238.75 317.51875,239.1 315.71875,239.1 Z M364.03125,250 L364.03125,224.8 C364.03125,221.8 364.88125,219.333333 366.58125,217.4 C368.28125,215.466667 370.497917,214.5 373.23125,214.5 C375.697917,214.5 377.547917,215.266667 378.78125,216.8 C380.014583,218.333333 380.63125,220.5 380.63125,223.3 L380.63125,250 L394.53125,250 L394.53125,224.8 C394.53125,221.8 395.364583,219.333333 397.03125,217.4 C398.697917,215.466667 400.93125,214.5 403.73125,214.5 C406.197917,214.5 408.047917,215.266667 409.28125,216.8 C410.514583,218.333333 411.13125,220.5 411.13125,223.3 L411.13125,250 L425.53125,250 L425.53125,221 C425.53125,215.133333 423.947917,210.5 420.78125,207.1 C417.614583,203.7 413.03125,202 407.03125,202 C404.03125,202 401.147917,202.566667 398.38125,203.7 C395.614583,204.833333 393.264583,206.433333 391.33125,208.5 C390.797917,207.766667 390.114583,207.016667 389.28125,206.25 C388.447917,205.483333 387.48125,204.783333 386.38125,204.15 C385.28125,203.516667 383.997917,203 382.53125,202.6 C381.064583,202.2 379.397917,202 377.53125,202 C374.464583,202 371.797917,202.6 369.53125,203.8 C367.264583,205 365.397917,206.5 363.93125,208.3 L363.43125,203.1 L349.63125,203.1 L349.63125,250 L364.03125,250 Z M181.16,310 L181.16,300.2 C181.16,299.426667 181.3,298.693333 181.58,298 C181.86,297.306667 182.24,296.7 182.72,296.18 C183.2,295.66 183.766667,295.253333 184.42,294.96 C185.073333,294.666667 185.786667,294.52 186.56,294.52 C187.306667,294.52 187.92,294.613333 188.4,294.8 L189.2,291.44 C188.906667,291.333333 188.593333,291.253333 188.26,291.2 C187.926667,291.146667 187.56,291.12 187.16,291.12 C186.306667,291.12 185.553333,291.233333 184.9,291.46 C184.246667,291.686667 183.673333,291.96 183.18,292.28 C182.686667,292.6 182.266667,292.953333 181.92,293.34 C181.573333,293.726667 181.293333,294.08 181.08,294.4 L180.96,291.4 L177.52,291.4 C177.546667,291.933333 177.56,292.32 177.56,292.56 L177.56,310 L181.16,310 Z M200.045,310.56 C201.218333,310.56 202.265,310.433333 203.185,310.18 C204.105,309.926667 204.905,309.626667 205.585,309.28 C206.265,308.933333 206.818333,308.573333 207.245,308.2 C207.671667,307.826667 207.991667,307.52 208.205,307.28 L206.165,305.12 C205.711667,305.626667 204.978333,306.146667 203.965,306.68 C202.951667,307.213333 201.658333,307.48 200.085,307.48 C199.285,307.48 198.525,307.333333 197.805,307.04 C197.085,306.746667 196.445,306.346667 195.885,305.84 C195.325,305.333333 194.878333,304.733333 194.545,304.04 C194.211667,303.346667 194.031667,302.586667 194.005,301.76 L208.685,301.76 C208.685,300.346667 208.511667,298.986667 208.165,297.68 C207.818333,296.373333 207.278333,295.213333 206.545,294.2 C205.811667,293.186667 204.871667,292.373333 203.725,291.76 C202.578333,291.146667 201.205,290.84 199.605,290.84 C198.245,290.84 196.998333,291.093333 195.865,291.6 C194.731667,292.106667 193.751667,292.793333 192.925,293.66 C192.098333,294.526667 191.458333,295.553333 191.005,296.74 C190.551667,297.926667 190.325,299.2 190.325,300.56 C190.325,302.053333 190.558333,303.413333 191.025,304.64 C191.491667,305.866667 192.151667,306.92 193.005,307.8 C193.858333,308.68 194.885,309.36 196.085,309.84 C197.285,310.32 198.605,310.56 200.045,310.56 Z M194.005,299.08 C194.031667,298.413333 194.178333,297.766667 194.445,297.14 C194.711667,296.513333 195.085,295.96 195.565,295.48 C196.045,295 196.625,294.613333 197.305,294.32 C197.985,294.026667 198.751667,293.88 199.605,293.88 C201.258333,293.88 202.538333,294.386667 203.445,295.4 C204.351667,296.413333 204.858333,297.64 204.965,299.08 L194.005,299.08 Z M220.17,310.56 C221.076667,310.56 221.87,310.44 222.55,310.2 C223.23,309.96 223.823333,309.68 224.33,309.36 C224.836667,309.04 225.243333,308.713333 225.55,308.38 C225.856667,308.046667 226.076667,307.8 226.21,307.64 L226.33,310 L229.85,310 C229.823333,309.626667 229.81,309.246667 229.81,308.86 L229.81,283.32 L226.21,283.32 L226.21,292.16 C225.463333,291.786667 224.723333,291.493333 223.99,291.28 C223.256667,291.066667 222.383333,290.96 221.37,290.96 C220.383333,290.96 219.336667,291.146667 218.23,291.52 C217.123333,291.893333 216.096667,292.486667 215.15,293.3 C214.203333,294.113333 213.423333,295.153333 212.81,296.42 C212.196667,297.686667 211.89,299.2 211.89,300.96 C211.89,302.426667 212.096667,303.753333 212.51,304.94 C212.923333,306.126667 213.503333,307.133333 214.25,307.96 C214.996667,308.786667 215.876667,309.426667 216.89,309.88 C217.903333,310.333333 218.996667,310.56 220.17,310.56 Z M220.97,307.44 C220.036667,307.44 219.23,307.273333 218.55,306.94 C217.87,306.606667 217.31,306.146667 216.87,305.56 C216.43,304.973333 216.103333,304.286667 215.89,303.5 C215.676667,302.713333 215.57,301.88 215.57,301 C215.57,299.933333 215.723333,298.973333 216.03,298.12 C216.336667,297.266667 216.763333,296.546667 217.31,295.96 C217.856667,295.373333 218.496667,294.92 219.23,294.6 C219.963333,294.28 220.77,294.12 221.65,294.12 C222.716667,294.12 223.623333,294.253333 224.37,294.52 C225.116667,294.786667 225.73,295.12 226.21,295.52 L226.21,302.16 C226.21,302.693333 226.11,303.273333 225.91,303.9 C225.71,304.526667 225.403333,305.1 224.99,305.62 C224.576667,306.14 224.036667,306.573333 223.37,306.92 C222.703333,307.266667 221.903333,307.44 220.97,307.44 Z M243.735,310.56 C244.908333,310.56 245.955,310.433333 246.875,310.18 C247.795,309.926667 248.595,309.626667 249.275,309.28 C249.955,308.933333 250.508333,308.573333 250.935,308.2 C251.361667,307.826667 251.681667,307.52 251.895,307.28 L249.855,305.12 C249.401667,305.626667 248.668333,306.146667 247.655,306.68 C246.641667,307.213333 245.348333,307.48 243.775,307.48 C242.975,307.48 242.215,307.333333 241.495,307.04 C240.775,306.746667 240.135,306.346667 239.575,305.84 C239.015,305.333333 238.568333,304.733333 238.235,304.04 C237.901667,303.346667 237.721667,302.586667 237.695,301.76 L252.375,301.76 C252.375,300.346667 252.201667,298.986667 251.855,297.68 C251.508333,296.373333 250.968333,295.213333 250.235,294.2 C249.501667,293.186667 248.561667,292.373333 247.415,291.76 C246.268333,291.146667 244.895,290.84 243.295,290.84 C241.935,290.84 240.688333,291.093333 239.555,291.6 C238.421667,292.106667 237.441667,292.793333 236.615,293.66 C235.788333,294.526667 235.148333,295.553333 234.695,296.74 C234.241667,297.926667 234.015,299.2 234.015,300.56 C234.015,302.053333 234.248333,303.413333 234.715,304.64 C235.181667,305.866667 235.841667,306.92 236.695,307.8 C237.548333,308.68 238.575,309.36 239.775,309.84 C240.975,310.32 242.295,310.56 243.735,310.56 Z M237.695,299.08 C237.721667,298.413333 237.868333,297.766667 238.135,297.14 C238.401667,296.513333 238.775,295.96 239.255,295.48 C239.735,295 240.315,294.613333 240.995,294.32 C241.675,294.026667 242.441667,293.88 243.295,293.88 C244.948333,293.88 246.228333,294.386667 247.135,295.4 C248.041667,296.413333 248.548333,297.64 248.655,299.08 L237.695,299.08 Z M263.42,310.56 C264.433333,310.56 265.406667,310.44 266.34,310.2 C267.273333,309.96 268.1,309.6 268.82,309.12 C269.54,308.64 270.113333,308.046667 270.54,307.34 C270.966667,306.633333 271.18,305.813333 271.18,304.88 C271.18,303.973333 271.013333,303.2 270.68,302.56 C270.346667,301.92 269.893333,301.38 269.32,300.94 C268.746667,300.5 268.08,300.14 267.32,299.86 C266.56,299.58 265.74,299.333333 264.86,299.12 C263.366667,298.773333 262.16,298.406667 261.24,298.02 C260.32,297.633333 259.86,297.04 259.86,296.24 C259.86,295.386667 260.206667,294.773333 260.9,294.4 C261.593333,294.026667 262.513333,293.84 263.66,293.84 C264.78,293.84 265.76,294.013333 266.6,294.36 C267.44,294.706667 268.14,295.133333 268.7,295.64 L270.66,293.16 C269.806667,292.413333 268.813333,291.833333 267.68,291.42 C266.546667,291.006667 265.193333,290.8 263.62,290.8 C262.686667,290.8 261.786667,290.92 260.92,291.16 C260.053333,291.4 259.273333,291.753333 258.58,292.22 C257.886667,292.686667 257.333333,293.26 256.92,293.94 C256.506667,294.62 256.3,295.413333 256.3,296.32 C256.3,297.2 256.473333,297.953333 256.82,298.58 C257.166667,299.206667 257.62,299.74 258.18,300.18 C258.74,300.62 259.373333,300.973333 260.08,301.24 C260.786667,301.506667 261.5,301.72 262.22,301.88 C263.233333,302.12 264.08,302.34 264.76,302.54 C265.44,302.74 265.986667,302.96 266.4,303.2 C266.813333,303.44 267.106667,303.713333 267.28,304.02 C267.453333,304.326667 267.54,304.693333 267.54,305.12 C267.54,305.946667 267.14,306.553333 266.34,306.94 C265.54,307.326667 264.54,307.52 263.34,307.52 C262.113333,307.52 261.033333,307.32 260.1,306.92 C259.166667,306.52 258.366667,305.986667 257.7,305.32 L255.5,307.72 C257.26,309.613333 259.9,310.56 263.42,310.56 Z M279.465,288.08 L279.465,284.04 L275.425,284.04 L275.425,288.08 L279.465,288.08 Z M279.265,310 L279.265,291.4 L275.665,291.4 L275.665,310 L279.265,310 Z M292.55,318.48 C295.376667,318.48 297.57,317.74 299.13,316.26 C300.69,314.78 301.47,312.693333 301.47,310 L301.47,292.24 C300.67,291.92 299.616667,291.626667 298.31,291.36 C297.003333,291.093333 295.59,290.96 294.07,290.96 C292.496667,290.96 291.07,291.206667 289.79,291.7 C288.51,292.193333 287.41,292.886667 286.49,293.78 C285.57,294.673333 284.856667,295.726667 284.35,296.94 C283.843333,298.153333 283.59,299.48 283.59,300.92 C283.59,302.253333 283.776667,303.486667 284.15,304.62 C284.523333,305.753333 285.07,306.726667 285.79,307.54 C286.51,308.353333 287.396667,308.993333 288.45,309.46 C289.503333,309.926667 290.71,310.16 292.07,310.16 C292.896667,310.16 293.63,310.06 294.27,309.86 C294.91,309.66 295.463333,309.433333 295.93,309.18 C296.396667,308.926667 296.783333,308.66 297.09,308.38 C297.396667,308.1 297.643333,307.88 297.83,307.72 L297.83,310 C297.83,311.6 297.39,312.893333 296.51,313.88 C295.63,314.866667 294.296667,315.36 292.51,315.36 C291.23,315.36 290.143333,315.206667 289.25,314.9 C288.356667,314.593333 287.603333,314.226667 286.99,313.8 L285.31,316.44 C286.003333,316.973333 286.91,317.446667 288.03,317.86 C289.15,318.273333 290.656667,318.48 292.55,318.48 Z M292.63,307.04 C291.67,307.04 290.856667,306.88 290.19,306.56 C289.523333,306.24 288.97,305.8 288.53,305.24 C288.09,304.68 287.77,304.026667 287.57,303.28 C287.37,302.533333 287.27,301.733333 287.27,300.88 C287.27,299.893333 287.436667,298.986667 287.77,298.16 C288.103333,297.333333 288.57,296.62 289.17,296.02 C289.77,295.42 290.483333,294.953333 291.31,294.62 C292.136667,294.286667 293.056667,294.12 294.07,294.12 C295.216667,294.12 296.076667,294.193333 296.65,294.34 C297.223333,294.486667 297.63,294.6 297.87,294.68 L297.87,302.4 C297.87,302.986667 297.763333,303.553333 297.55,304.1 C297.336667,304.646667 297.016667,305.14 296.59,305.58 C296.163333,306.02 295.616667,306.373333 294.95,306.64 C294.283333,306.906667 293.51,307.04 292.63,307.04 Z M310.115,310 L310.115,301.36 C310.115,300.453333 310.208333,299.566667 310.395,298.7 C310.581667,297.833333 310.881667,297.06 311.295,296.38 C311.708333,295.7 312.261667,295.146667 312.955,294.72 C313.648333,294.293333 314.515,294.08 315.555,294.08 C316.915,294.08 317.968333,294.486667 318.715,295.3 C319.461667,296.113333 319.835,297.386667 319.835,299.12 L319.835,310 L323.435,310 L323.435,298.84 C323.435,296.413333 322.848333,294.493333 321.675,293.08 C320.501667,291.666667 318.701667,290.96 316.275,290.96 C315.421667,290.96 314.655,291.066667 313.975,291.28 C313.295,291.493333 312.701667,291.76 312.195,292.08 C311.688333,292.4 311.261667,292.753333 310.915,293.14 C310.568333,293.526667 310.275,293.88 310.035,294.2 L309.915,291.4 L306.475,291.4 C306.501667,291.933333 306.515,292.326667 306.515,292.58 L306.515,310 L310.115,310 Z" id="tes.comredesign" fill="#000000" fill-rule="nonzero"></path>
        <rect id="Rectangle" fill="#000000" x="63" y="258" width="375" height="6"></rect>
        <g id="cursor-pointer" transform="translate(320.000000, 244.000000)" filter="url(#filter-1)">
            <path d="M7.7704618,27.1045576 C8.07104733,27.3753673 8.27858889,27.5698793 8.91988287,28.1790675 C9.54801458,28.7757017 9.85177112,29.0576134 10.1295358,29.2934857 C10.2453736,29.3910562 10.3441347,29.6519846 10.3832631,30.0398113 C10.4154588,30.3589242 10.4042541,30.7148795 10.3652247,31.057862 C10.3517269,31.1764774 10.3387088,31.2620387 10.3312498,31.3028012 C10.247517,31.7603895 10.5962343,32.1830455 11.0613967,32.1877615 C11.4799909,32.1920053 11.8025283,32.1972013 12.6562233,32.2124161 C12.8698206,32.2162188 12.8698206,32.2162188 13.0841272,32.2199456 C15.4047104,32.2598653 16.5899409,32.2489055 17.4405744,32.1419397 C18.3498172,32.0276197 19.2862162,30.9295622 20.0956676,29.5516961 C20.781555,30.7709023 21.7329697,31.9614529 22.6936948,32.11625 C22.9988933,32.1649977 23.3681155,32.180123 23.7960477,32.1702791 C24.1150992,32.1629398 24.4527455,32.1419098 24.7934851,32.1114649 C25.0504336,32.0885068 25.255161,32.0654303 25.3774493,32.0495725 C25.8292736,31.9909818 26.1249186,31.5463815 26.0041893,31.107061 C25.9781117,31.0121674 25.9362084,30.8380518 25.8939542,30.6188477 C25.8449689,30.3647245 25.8095677,30.1165194 25.7934785,29.8904101 C25.783278,29.7470571 25.7812669,29.6172687 25.7877508,29.5050695 C25.7990238,29.3095075 25.8025408,29.199994 25.8080161,28.9469769 C25.8101076,28.8527888 25.8101076,28.8527888 25.8129027,28.7703595 C25.8234824,28.5005975 25.8597215,28.2444547 25.9769954,27.6859129 C26.0273757,27.4434924 26.2715759,26.9795746 26.6561678,26.4054466 C26.7707146,26.2344483 26.8959304,26.0558815 27.0300997,25.8715291 C27.2845137,25.5219568 27.5583424,25.1687268 27.8322701,24.8307204 C27.9963616,24.6282438 28.1232135,24.4767958 28.1938638,24.3945678 C28.7863036,23.5457618 29.4180322,22.1562287 29.650143,21.3438408 C29.872975,20.5630375 30.051224,19.1250896 30.1607578,17.7117512 C30.2207864,16.9099751 30.243,16.2636433 30.243,15.2498 C30.2431013,15.0719637 30.2431013,15.0719637 30.2434064,14.9251063 C30.243978,14.6846013 30.2440127,14.5936268 30.243229,14.4812024 C30.2410878,14.1740416 30.2321334,13.8695995 30.2024526,13.0931512 C30.1386144,11.4658482 29.2468521,10.413769 27.9327104,10.2108356 C26.8147374,10.0381951 25.4539425,10.9667507 25.4539425,10.9667507 C25.4539425,10.9667507 25.1510618,9.92112529 24.9465033,9.59833571 C24.6141117,9.07964089 23.7581536,8.41867915 23.103813,8.28991333 C22.4308101,8.15923074 21.6330081,8.17368149 20.9003744,8.30326296 C20.2587857,8.41807204 19.6196771,8.9909167 19.2499994,9.6088066 C18.9855248,10.0495964 19.2342607,9.58542331 18.9697373,9.1294492 C18.6036269,8.5014029 17.7510786,7.93900106 16.939246,7.77300333 C16.2513189,7.63075213 15.463208,7.68493082 14.7433347,7.89887918 C13.8172522,8.17560711 13.6698289,8.88034481 13.6329998,8.67857169 C13.5098263,8.00209471 13.4984501,8.0465527 13.4216878,7.56397964 C13.1365263,5.77343093 12.8174245,4.53450866 12.3335634,3.45341302 C12.3613969,3.51556763 12.1563438,3.04911901 12.0817178,2.88827744 C11.9524978,2.60976913 11.8235072,2.35768624 11.6817252,2.11523335 C11.2447184,1.36793381 10.7438997,0.808415284 10.1155436,0.490555484 C9.02432288,-0.0620320735 7.38870822,0.206894196 6.61343232,1.11185261 C5.84351297,2.01118853 5.71514593,3.51483834 5.90903912,5.37553267 C5.98308664,6.09795791 6.24261165,7.41685554 6.47793834,8.3917804 C6.56115038,8.7301592 6.63405793,9.03875845 6.76776991,9.60880703 C6.79076436,9.70577532 6.79076436,9.70577532 6.81395956,9.80276774 C6.91740429,10.2342057 7.00811169,10.5891691 7.11640621,10.9786935 C7.10504311,10.9380883 7.31043543,11.6668655 7.3541829,11.8281528 C7.36873663,11.8819845 7.36873663,11.8819845 7.38314882,11.9360595 C7.46480595,12.2436182 7.54463048,12.5752458 7.6693479,13.1286793 C7.73759934,13.4329687 7.80419879,13.7580514 7.8693434,14.1026597 C8.04701446,15.0425215 8.04789139,14.8468072 7.87686044,14.6463837 C7.75871406,14.5079332 7.64759934,14.3821986 7.54024725,14.2663108 C7.34070851,14.0509065 7.15727709,13.8727663 6.98313346,13.7306826 C5.71433847,12.6925767 4.93687365,12.2338941 3.86949576,12.1331205 C2.11866443,11.9649173 0.457099699,13.2016547 0.207263118,14.8707757 C0.053609173,15.8941684 0.10311035,16.3652411 0.576534783,17.2696304 C0.837059236,17.7582865 1.27774906,18.3484744 2.09998942,19.364339 C2.15030847,19.426475 2.15030847,19.426475 2.20059799,19.4884673 C3.20988872,20.7322022 3.31983995,20.8703751 3.55982732,21.217943 C4.2085369,22.1593121 5.78772752,24.862234 6.07479955,25.2251173 L7.7704618,27.1045576 Z" id="Hand" fill="#000000"></path>
            <path d="M3.36533888,18.5432802 C3.31556639,18.4819252 3.31556639,18.4819252 3.26592754,18.4206291 C2.51134422,17.4883537 2.0975675,16.9342088 1.90280271,16.5689301 C1.59716813,15.9850254 1.58053951,15.8267809 1.69068685,15.0931581 C1.82015383,14.228209 2.7543185,13.5328907 3.72727782,13.6263627 C4.40048785,13.6899231 4.98864733,14.0369208 6.03407166,14.892268 C6.14726006,14.9846193 6.28372872,15.1171514 6.43983631,15.2856712 C6.53216767,15.385344 6.63010013,15.4961619 6.73583859,15.6200721 C6.89465717,15.8061845 7.42989553,16.4611167 7.35106706,16.36581 C7.46735273,16.5056423 7.55050411,16.613964 7.64550017,16.7467103 C7.83371255,17.0153924 7.93960237,17.1646032 8.083,17.3558 C8.0157658,17.2660571 8.51246165,17.9526661 8.61764319,18.0530667 C9.17483942,18.5849358 9.98170896,18.1369841 9.93116277,17.428171 C9.92272448,17.3098402 9.89490728,17.1820023 9.83680408,16.9588333 C9.60705558,15.3203585 9.52668905,14.794467 9.34323904,13.8240351 C9.275092,13.4635442 9.20513247,13.1220606 9.13281701,12.7996541 C9.00410883,12.2285099 8.9201025,11.8795092 8.83292112,11.5511436 C8.81742509,11.4930023 8.81742509,11.4930023 8.80187397,11.4354817 C8.75586109,11.2658424 8.54737153,10.5260755 8.56125741,10.5757004 C8.45856981,10.2063396 8.37216681,9.86822053 8.27261749,9.4530292 C8.24999957,9.35845102 8.24999957,9.35845102 8.22741941,9.26323021 C8.09443431,8.69621199 8.01965943,8.37970877 7.93529814,8.03668603 C7.71532351,7.12533298 7.46679035,5.86229564 7.40109093,5.22132568 C7.25015763,3.77288532 7.35430332,2.55295654 7.75273662,2.08755013 C8.0638333,1.72441552 8.94555692,1.57944333 9.43817166,1.82890041 C9.7603219,1.9918632 10.0822572,2.35153183 10.3868737,2.8724384 C10.5021597,3.06958223 10.6103289,3.28097443 10.7210413,3.51959311 C10.7880925,3.66410875 10.9868926,4.11633317 10.9644994,4.06632721 C11.3851436,5.00617658 11.6741014,6.12806403 11.9403341,7.7997579 C12.0191247,8.29508192 12.1166074,8.85622864 12.2416127,9.54276622 C12.2787707,9.74634113 12.2787707,9.74634113 12.3160711,9.94905384 C12.9188556,13.2197258 12.8747471,12.9718415 12.8834136,13.2327032 C12.9150269,14.1842646 14.3196249,14.2065566 14.3814187,13.2564776 C14.4010158,12.9551723 14.3940384,12.6861454 14.3592621,11.9135473 C14.3543522,11.8042424 14.3543522,11.8042424 14.3496246,11.6953443 C14.3191941,10.9835351 14.3209508,10.5740109 14.3630355,10.3412301 C14.4397297,9.91676763 14.8207755,9.44127455 15.1717306,9.33640335 C15.6645679,9.18993159 16.2045374,9.15281138 16.6371281,9.24226234 C17.0512043,9.32693155 17.5344228,9.64569707 17.6730545,9.88351232 C17.840127,10.1715081 17.9833746,10.6102597 18.0931766,11.1541214 C18.1817996,11.5930812 18.2427854,12.0639913 18.2856838,12.5666067 C18.2990309,12.7229861 18.3077443,12.843803 18.3211289,13.0437002 C18.326829,13.127372 18.326829,13.127372 18.3325083,13.1964044 C18.335714,13.2310338 18.335714,13.2310338 18.3435323,13.2857511 C18.349603,13.3240986 18.349603,13.3240986 18.3782166,13.4212233 C18.3927686,13.6968701 18.3927686,13.6968701 19.4998475,13.7990863 C19.8304528,13.3994316 19.8304528,13.3994316 19.8213928,13.3293572 C19.8755543,13.092659 19.9086984,12.8288272 19.9559493,12.3330834 C19.9861112,12.0108352 20.0013208,11.852413 20.0190976,11.6880856 C20.0926855,11.0078451 20.1861303,10.5756541 20.3001197,10.3856718 C20.4415492,10.1492837 20.9396885,9.82005363 21.1631119,9.7800726 C21.7241816,9.68083734 22.3403248,9.66967701 22.8160391,9.76204872 C23.0315084,9.80445273 23.5571248,10.2103281 23.6815388,10.4044688 C23.9369952,10.8075922 24.185463,12.1072322 24.3253763,13.3967034 C24.3033519,13.4812815 24.3033519,13.4812815 24.6468089,13.9719115 C25.8274905,13.8373058 25.8274905,13.8373058 25.7943227,13.6241274 C25.8254694,13.5481445 25.8502559,13.460297 25.8853361,13.3238512 C25.9697255,13.0044376 26.0256799,12.8189713 26.1089909,12.6111332 C26.1666238,12.4673549 26.2273779,12.3444232 26.2896704,12.2465756 C26.5310205,11.8667172 27.1558457,11.6086494 27.7037896,11.6932644 C28.2922986,11.7841436 28.6673033,12.2265649 28.7035764,13.1511996 C28.7326609,13.9120596 28.741264,14.2045591 28.7432655,14.4916589 C28.744004,14.5975957 28.7439715,14.6826381 28.7434099,14.9218523 C28.7431027,15.0696771 28.7431027,15.0696771 28.743,15.2498 C28.743,16.227649 28.722062,16.8368653 28.6650931,17.597807 C28.5638343,18.904339 28.3928802,20.2834379 28.2077949,20.9319766 C28.0188829,21.5931686 27.4548769,22.8337412 27.0083012,23.4789715 C26.9766235,23.509575 26.8406901,23.6718652 26.6669148,23.886291 C26.3777312,24.243122 26.0884485,24.616287 25.817292,24.9888641 C25.6721656,25.1882719 25.5358819,25.3826223 25.4099387,25.5706334 C24.9225995,26.298145 24.6098932,26.8922069 24.5086888,27.3791989 C24.3758136,28.0120378 24.3283263,28.3476841 24.314055,28.711577 C24.3105697,28.8146081 24.3105697,28.8146081 24.3083672,28.914524 C24.3032577,29.1506352 24.3001958,29.245978 24.290243,29.4186386 C24.2797635,29.599979 24.2827543,29.7929975 24.2972616,29.9968761 C24.3180382,30.28886 24.2972619,30.6878384 24.2972619,30.6878384 C24.2972619,30.6878384 24.0439955,30.6641786 23.7615515,30.6706758 C23.4165162,30.6786128 23.1295799,30.6668584 22.9312923,30.6351875 C22.6452002,30.5890901 21.8725906,29.6222869 21.476991,28.8690652 C20.8724502,27.7162196 19.4048938,27.7721798 18.8033051,28.790253 C18.2607013,29.7138805 17.4840002,30.62467 17.2534384,30.6536587 C16.5042277,30.7478709 15.3440152,30.7585992 13.1099271,30.7201675 C12.8963375,30.7164532 12.8963375,30.7164532 12.6829525,30.7126543 C11.8251573,30.6973664 11.8581226,30.8421852 11.8756863,30.6878384 C11.9258257,30.2472248 11.920133,30.3297759 11.8756866,29.8892386 C11.8011621,29.1505786 11.5731785,28.5482418 11.0981447,28.1481527 C10.8524058,27.939468 10.558484,27.6666839 9.96812987,27.1059334 C9.29368129,26.4652511 9.08245613,26.2672867 8.8221473,26.0384802 L7.2195382,24.2570424 C7.04362108,24.0320848 5.49949142,21.3891727 4.79456593,20.3662271 C4.52034902,19.9690848 4.41777304,19.8401801 3.36533888,18.5432802 Z M22.3828,18.5508 L22.3828,25.4688 C22.3828,26.4688 23.8828,26.4688 23.8828,25.4688 L23.8828,18.5508 C23.8828,17.5508 22.3828,17.5508 22.3828,18.5508 Z M18.319608,18.5496552 L18.351608,25.4956552 C18.3562149,26.4956446 19.856199,26.4887342 19.851592,25.4887448 L19.819592,18.5427448 C19.8149851,17.5427554 18.315001,17.5496658 18.319608,18.5496552 Z M15.9013859,25.4568029 L15.8593859,18.6048029 C15.8532564,17.6048217 14.3532846,17.6140159 14.3594141,18.6139971 L14.4014141,25.4659971 C14.4075436,26.4659783 15.9075154,26.4567841 15.9013859,25.4568029 Z" id="White" fill="#FFFFFF"></path>
        </g>
    </g>
</svg>