<?xml version="1.0" encoding="UTF-8"?>
<svg width="500px" height="500px" viewBox="0 0 500 500" version="1.1" xmlns="http://www.w3.org/2000/svg" xmlns:xlink="http://www.w3.org/1999/xlink">
    <title>social</title>
    <g id="social" stroke="none" stroke-width="1" fill="none" fill-rule="evenodd" fill-opacity="0.5">
        <g id="Group-2" transform="translate(71.000000, 86.000000)" fill-rule="nonzero">
            <path d="M289.442008,42.0812124 C259.183811,14.9472466 219.12459,0 176.5,0 C133.87541,0 93.8161885,14.9472466 63.5579918,42.0812124 C32.905123,69.6191578 16,106.313975 16,145.5 C16,176.404442 26.985041,206.702915 47.047541,231.547663 C43.1008197,239.425266 37.7069672,245.68695 30.8659836,250.265386 C25.2090164,254.035863 22.5120902,260.836187 24.025,267.569181 C25.4721311,274.234845 30.7344262,279.082601 37.3122951,280.02522 C50.8627049,281.977788 77.3057377,282.920407 101.841189,267.905831 C107.432377,264.472004 109.27418,256.99838 105.919467,251.275335 C102.564754,245.552291 95.2633197,243.667052 89.6721311,247.100879 C79.4106557,253.362564 68.5571721,255.921101 59.1508197,256.661731 C64.5446721,250.063397 68.8202869,242.320453 71.9776639,233.567561 C73.5563525,229.258445 72.5696721,224.478019 69.6096311,221.111522 C50.007582,199.431282 39.6803279,173.239935 39.6803279,145.5 C39.6803279,78.6413697 101.051844,24.2387783 176.5,24.2387783 C251.948156,24.2387783 313.319672,78.6413697 313.319672,145.5 C313.319672,212.35863 251.948156,266.761222 176.5,266.761222 C165.580738,266.761222 154.661475,265.616613 144.136885,263.327395 C137.756352,261.913466 131.441598,266.155252 130.126025,272.686256 C128.744672,279.217261 132.88873,285.680935 139.269262,287.027534 C151.43832,289.653401 163.93627,291 176.565779,291 C219.12459,291 259.24959,276.052753 289.507787,248.918788 C320.094877,221.380842 337,184.686025 337,145.5 C337,106.313975 320.094877,69.6191578 289.442008,42.0812124 Z" id="Shape" fill="#FF0042"></path>
            <ellipse id="Oval-path" fill="#FF0042" cx="176.434221" cy="145.5" rx="15.5237705" ry="15.8898658"></ellipse>
            <ellipse id="Oval-path" fill="#FF0042" cx="224.847336" cy="145.5" rx="15.5237705" ry="15.8898658"></ellipse>
            <ellipse id="Oval-path" fill="#FF0042" cx="128.021107" cy="145.5" rx="15.5237705" ry="15.8898658"></ellipse>
            <path d="M291.442008,60.0812124 C261.183811,32.9472466 221.12459,18 178.5,18 C135.87541,18 95.8161885,32.9472466 65.5579918,60.0812124 C34.905123,87.6191578 18,124.313975 18,163.5 C18,194.404442 28.985041,224.702915 49.047541,249.547663 C45.1008197,257.425266 39.7069672,263.68695 32.8659836,268.265386 C27.2090164,272.035863 24.5120902,278.836187 26.025,285.569181 C27.4721311,292.234845 32.7344262,297.082601 39.3122951,298.02522 C52.8627049,299.977788 79.3057377,300.920407 103.841189,285.905831 C109.432377,282.472004 111.27418,274.99838 107.919467,269.275335 C104.564754,263.552291 97.2633197,261.667052 91.6721311,265.100879 C81.4106557,271.362564 70.5571721,273.921101 61.1508197,274.661731 C66.5446721,268.063397 70.8202869,260.320453 73.9776639,251.567561 C75.5563525,247.258445 74.5696721,242.478019 71.6096311,239.111522 C52.007582,217.431282 41.6803279,191.239935 41.6803279,163.5 C41.6803279,96.6413697 103.051844,42.2387783 178.5,42.2387783 C253.948156,42.2387783 315.319672,96.6413697 315.319672,163.5 C315.319672,230.35863 253.948156,284.761222 178.5,284.761222 C167.580738,284.761222 156.661475,283.616613 146.136885,281.327395 C139.756352,279.913466 133.441598,284.155252 132.126025,290.686256 C130.744672,297.217261 134.88873,303.680935 141.269262,305.027534 C153.43832,307.653401 165.93627,309 178.565779,309 C221.12459,309 261.24959,294.052753 291.507787,266.918788 C322.094877,239.380842 339,202.686025 339,163.5 C339,124.313975 322.094877,87.6191578 291.442008,60.0812124 Z" id="Shape" fill="#00FBFF"></path>
            <ellipse id="Oval-path" fill="#00FBFF" cx="178.434221" cy="163.5" rx="15.5237705" ry="15.8898658"></ellipse>
            <ellipse id="Oval-path" fill="#00FBFF" cx="226.847336" cy="163.5" rx="15.5237705" ry="15.8898658"></ellipse>
            <ellipse id="Oval-path" fill="#00FBFF" cx="130.021107" cy="163.5" rx="15.5237705" ry="15.8898658"></ellipse>
            <path d="M273.442008,50.0812124 C243.183811,22.9472466 203.12459,8 160.5,8 C117.87541,8 77.8161885,22.9472466 47.5579918,50.0812124 C16.905123,77.6191578 0,114.313975 0,153.5 C0,184.404442 10.985041,214.702915 31.047541,239.547663 C27.1008197,247.425266 21.7069672,253.68695 14.8659836,258.265386 C9.20901639,262.035863 6.51209016,268.836187 8.025,275.569181 C9.47213115,282.234845 14.7344262,287.082601 21.3122951,288.02522 C34.8627049,289.977788 61.3057377,290.920407 85.8411885,275.905831 C91.432377,272.472004 93.2741803,264.99838 89.9194672,259.275335 C86.5647541,253.552291 79.2633197,251.667052 73.6721311,255.100879 C63.4106557,261.362564 52.5571721,263.921101 43.1508197,264.661731 C48.5446721,258.063397 52.8202869,250.320453 55.9776639,241.567561 C57.5563525,237.258445 56.5696721,232.478019 53.6096311,229.111522 C34.007582,207.431282 23.6803279,181.239935 23.6803279,153.5 C23.6803279,86.6413697 85.0518443,32.2387783 160.5,32.2387783 C235.948156,32.2387783 297.319672,86.6413697 297.319672,153.5 C297.319672,220.35863 235.948156,274.761222 160.5,274.761222 C149.580738,274.761222 138.661475,273.616613 128.136885,271.327395 C121.756352,269.913466 115.441598,274.155252 114.126025,280.686256 C112.744672,287.217261 116.88873,293.680935 123.269262,295.027534 C135.43832,297.653401 147.93627,299 160.565779,299 C203.12459,299 243.24959,284.052753 273.507787,256.918788 C304.094877,229.380842 321,192.686025 321,153.5 C321,114.313975 304.094877,77.6191578 273.442008,50.0812124 Z" id="Shape" fill="#EEFF00"></path>
            <ellipse id="Oval-path" fill="#EEFF00" cx="160.434221" cy="153.5" rx="15.5237705" ry="15.8898658"></ellipse>
            <ellipse id="Oval-path" fill="#EEFF00" cx="208.847336" cy="153.5" rx="15.5237705" ry="15.8898658"></ellipse>
            <ellipse id="Oval-path" fill="#EEFF00" cx="112.021107" cy="153.5" rx="15.5237705" ry="15.8898658"></ellipse>
        </g>
    </g>
</svg>