<?xml version="1.0" encoding="UTF-8"?>
<svg width="500px" height="500px" viewBox="0 0 500 500" version="1.1" xmlns="http://www.w3.org/2000/svg" xmlns:xlink="http://www.w3.org/1999/xlink">
    <title>social</title>
    <defs>
        <filter id="filter-1">
            <feColorMatrix in="SourceGraphic" type="matrix" values="0 0 0 0 0.000000 0 0 0 0 0.000000 0 0 0 0 0.000000 0 0 0 1.000000 0"></feColorMatrix>
        </filter>
        <filter x="-28.9%" y="-14.6%" width="157.9%" height="129.5%" filterUnits="objectBoundingBox" id="filter-2">
            <feOffset dx="0" dy="8" in="SourceAlpha" result="shadowOffsetOuter1"></feOffset>
            <feGaussianBlur stdDeviation="10" in="shadowOffsetOuter1" result="shadowBlurOuter1"></feGaussianBlur>
            <feColorMatrix values="0 0 0 0 0   0 0 0 0 0   0 0 0 0 0  0 0 0 0.199819712 0" type="matrix" in="shadowBlurOuter1" result="shadowMatrixOuter1"></feColorMatrix>
            <feMerge>
                <feMergeNode in="shadowMatrixOuter1"></feMergeNode>
                <feMergeNode in="SourceGraphic"></feMergeNode>
            </feMerge>
        </filter>
        <filter id="filter-3">
            <feColorMatrix in="SourceGraphic" type="matrix" values="0 0 0 0 0.000000 0 0 0 0 0.000000 0 0 0 0 0.000000 0 0 0 1.000000 0"></feColorMatrix>
        </filter>
        <filter x="-28.4%" y="-14.6%" width="156.8%" height="129.2%" filterUnits="objectBoundingBox" id="filter-4">
            <feOffset dx="0" dy="8" in="SourceAlpha" result="shadowOffsetOuter1"></feOffset>
            <feGaussianBlur stdDeviation="10" in="shadowOffsetOuter1" result="shadowBlurOuter1"></feGaussianBlur>
            <feColorMatrix values="0 0 0 0 0   0 0 0 0 0   0 0 0 0 0  0 0 0 0.199819712 0" type="matrix" in="shadowBlurOuter1" result="shadowMatrixOuter1"></feColorMatrix>
            <feMerge>
                <feMergeNode in="shadowMatrixOuter1"></feMergeNode>
                <feMergeNode in="SourceGraphic"></feMergeNode>
            </feMerge>
        </filter>
        <rect id="path-5" x="0" y="0" width="40" height="40" rx="4"></rect>
        <path d="M29.5623529,11.5258824 C28.2,10.1623529 26.3870588,9.41176471 24.4576471,9.41176471 C22.8023529,9.41176471 21.2305882,9.96588235 19.9564706,10.9858824 C18.6823529,9.96588235 17.1105882,9.41176471 15.4552941,9.41176471 C13.5258824,9.41176471 11.7129412,10.1623529 10.3505882,11.5258824 C8.98705882,12.8894118 8.23529412,14.7023529 8.23529412,16.6305882 C8.23529412,18.5588235 8.98705882,20.3717647 10.3505882,21.7352941 L19.3529412,30.7388235 C19.5129412,30.8988235 19.7305882,30.9882353 19.9564706,30.9882353 C20.1823529,30.9882353 20.4,30.8988235 20.56,30.7388235 L29.5623529,21.7352941 C32.3776471,18.92 32.3776471,14.3411765 29.5623529,11.5258824" id="path-7"></path>
        <rect id="path-9" x="0" y="0" width="40" height="40" rx="4"></rect>
        <path d="M29.5623529,11.5258824 C28.2,10.1623529 26.3870588,9.41176471 24.4576471,9.41176471 C22.8023529,9.41176471 21.2305882,9.96588235 19.9564706,10.9858824 C18.6823529,9.96588235 17.1105882,9.41176471 15.4552941,9.41176471 C13.5258824,9.41176471 11.7129412,10.1623529 10.3505882,11.5258824 C8.98705882,12.8894118 8.23529412,14.7023529 8.23529412,16.6305882 C8.23529412,18.5588235 8.98705882,20.3717647 10.3505882,21.7352941 L19.3529412,30.7388235 C19.5129412,30.8988235 19.7305882,30.9882353 19.9564706,30.9882353 C20.1823529,30.9882353 20.4,30.8988235 20.56,30.7388235 L29.5623529,21.7352941 C32.3776471,18.92 32.3776471,14.3411765 29.5623529,11.5258824" id="path-11"></path>
        <rect id="path-13" x="0" y="0" width="40" height="40" rx="4"></rect>
        <path d="M29.5623529,11.5258824 C28.2,10.1623529 26.3870588,9.41176471 24.4576471,9.41176471 C22.8023529,9.41176471 21.2305882,9.96588235 19.9564706,10.9858824 C18.6823529,9.96588235 17.1105882,9.41176471 15.4552941,9.41176471 C13.5258824,9.41176471 11.7129412,10.1623529 10.3505882,11.5258824 C8.98705882,12.8894118 8.23529412,14.7023529 8.23529412,16.6305882 C8.23529412,18.5588235 8.98705882,20.3717647 10.3505882,21.7352941 L19.3529412,30.7388235 C19.5129412,30.8988235 19.7305882,30.9882353 19.9564706,30.9882353 C20.1823529,30.9882353 20.4,30.8988235 20.56,30.7388235 L29.5623529,21.7352941 C32.3776471,18.92 32.3776471,14.3411765 29.5623529,11.5258824" id="path-15"></path>
        <rect id="path-17" x="0" y="0" width="40" height="40" rx="4"></rect>
        <path d="M29.5623529,11.5258824 C28.2,10.1623529 26.3870588,9.41176471 24.4576471,9.41176471 C22.8023529,9.41176471 21.2305882,9.96588235 19.9564706,10.9858824 C18.6823529,9.96588235 17.1105882,9.41176471 15.4552941,9.41176471 C13.5258824,9.41176471 11.7129412,10.1623529 10.3505882,11.5258824 C8.98705882,12.8894118 8.23529412,14.7023529 8.23529412,16.6305882 C8.23529412,18.5588235 8.98705882,20.3717647 10.3505882,21.7352941 L19.3529412,30.7388235 C19.5129412,30.8988235 19.7305882,30.9882353 19.9564706,30.9882353 C20.1823529,30.9882353 20.4,30.8988235 20.56,30.7388235 L29.5623529,21.7352941 C32.3776471,18.92 32.3776471,14.3411765 29.5623529,11.5258824" id="path-19"></path>
    </defs>
    <g id="social" stroke="none" stroke-width="1" fill="none" fill-rule="evenodd">
        <g id="Group-5" transform="translate(249.644477, 266.284087) rotate(-15.000000) translate(-249.644477, -266.284087) translate(154.644477, 81.284087)">
            <g filter="url(#filter-1)" id="MockUp-Copy">
                <g transform="translate(0.000000, 0.000000)">
                    <g id="iPhone-Front" filter="url(#filter-2)" transform="translate(0.000000, 0.000000)" fill="#FFFFFF">
                        <g id="Base" transform="translate(2.007969, 0.233564)" fill-rule="nonzero">
                            <path d="M160,5.68434189e-14 C173.807119,5.43070923e-14 185,11.1928813 185,25 L185,345 C185,358.807119 173.807119,370 160,370 L25,370 C11.1928813,370 5.85343032e-14,358.807119 5.68434189e-14,345 L5.68434189e-14,25 C5.51525345e-14,11.1928813 11.1928813,5.93797454e-14 25,5.68434189e-14 L160,5.68434189e-14 Z M160.230351,3.39897949 L25.2303509,3.39897949 C13.0800864,3.39897949 3.23035091,13.248715 3.23035091,25.3989795 L3.23035091,25.3989795 L3.23035091,345.398979 C3.23035091,357.549244 13.0800864,367.398979 25.2303509,367.398979 L25.2303509,367.398979 L160.230351,367.398979 C172.380615,367.398979 182.230351,357.549244 182.230351,345.398979 L182.230351,345.398979 L182.230351,25.3989795 C182.230351,13.248715 172.380615,3.39897949 160.230351,3.39897949 L160.230351,3.39897949 Z" id="Combined-Shape"></path>
                        </g>
                        <g id="Elements" transform="translate(0.461891, 44.640639)">
                            <path d="M0.911478834,0.330365488 L1.91147883,0.330365488 L1.91147883,0.330365488 L1.91147883,13.3303655 L0.911478834,13.3303655 C0.359194084,13.3303655 -0.0885211658,12.8826502 -0.0885211658,12.3303655 L-0.0885211658,1.33036549 C-0.0885211658,0.778080738 0.359194084,0.330365488 0.911478834,0.330365488 Z"></path>
                            <path d="M1.46130254,25.3243186 L2.46130254,25.3243186 L2.46130254,25.3243186 L2.46130254,48.3243186 L1.46130254,48.3243186 C0.909017786,48.3243186 0.461302536,47.8766034 0.461302536,47.3243186 L0.461302536,26.3243186 C0.461302536,25.7720339 0.909017786,25.3243186 1.46130254,25.3243186 Z"></path>
                            <path d="M0.717031012,55.1479009 L1.71703101,55.1479009 L1.71703101,55.1479009 L1.71703101,78.1479009 L0.717031012,78.1479009 C0.164746262,78.1479009 -0.282968988,77.7001857 -0.282968988,77.1479009 L-0.282968988,56.1479009 C-0.282968988,55.5956162 0.164746262,55.1479009 0.717031012,55.1479009 Z"></path>
                            <path d="M188.83731,33.085245 L189.83731,33.085245 L189.83731,33.085245 L189.83731,71.085245 L188.83731,71.085245 C188.285025,71.085245 187.83731,70.6375298 187.83731,70.085245 L187.83731,34.085245 C187.83731,33.5329603 188.285025,33.085245 188.83731,33.085245 Z" transform="translate(188.837310, 52.085245) scale(-1, 1) translate(-188.837310, -52.085245) "></path>
                        </g>
                    </g>
                </g>
            </g>
            <path d="M27.4971391,2.66661758 L162.497139,2.66661758 C174.647404,2.66661758 184.497139,12.5163531 184.497139,24.6666176 L184.497139,344.666618 C184.497139,356.816882 174.647404,366.666618 162.497139,366.666618 L27.4971391,366.666618 C15.3468746,366.666618 5.49713906,356.816882 5.49713906,344.666618 L5.49713906,24.6666176 C5.49713906,12.5163531 15.3468746,2.66661758 27.4971391,2.66661758 Z" id="Base" fill="#FFFFFF" fill-rule="nonzero"></path>
        </g>
        <g id="Group-5-Copy" transform="translate(167.000000, 86.000000)">
            <g filter="url(#filter-3)" id="MockUp-Copy">
                <g id="iPhone-Front" filter="url(#filter-4)" fill="#FFFFFF">
                    <g id="Base" transform="translate(2.000000, 0.000000)" fill-rule="nonzero">
                        <path d="M160,0 C173.807119,-2.53632657e-15 185,11.1928813 185,25 L185,345 C185,358.807119 173.807119,370 160,370 L25,370 C11.1928813,370 1.69088438e-15,358.807119 0,345 L0,25 C-1.69088438e-15,11.1928813 11.1928813,2.53632657e-15 25,0 L160,0 Z M160,3 L25,3 C12.8497355,3 3,12.8497355 3,25 L3,25 L3,345 C3,357.150264 12.8497355,367 25,367 L25,367 L160,367 C172.150264,367 182,357.150264 182,345 L182,345 L182,25 C182,12.8497355 172.150264,3 160,3 L160,3 Z" id="Combined-Shape"></path>
                    </g>
                    <g id="Elements" transform="translate(0.000000, 45.000000)">
                        <path d="M1,1 L2,1 L2,1 L2,14 L1,14 C0.44771525,14 6.76353751e-17,13.5522847 0,13 L0,2 C-6.76353751e-17,1.44771525 0.44771525,1 1,1 Z"></path>
                        <path d="M1,26 L2,26 L2,26 L2,49 L1,49 C0.44771525,49 6.76353751e-17,48.5522847 0,48 L0,27 C-6.76353751e-17,26.4477153 0.44771525,26 1,26 Z"></path>
                        <path d="M1,56 L2,56 L2,56 L2,79 L1,79 C0.44771525,79 6.76353751e-17,78.5522847 0,78 L0,57 C-6.76353751e-17,56.4477153 0.44771525,56 1,56 Z"></path>
                        <path d="M189,34 L190,34 L190,34 L190,72 L189,72 C188.447715,72 188,71.5522847 188,71 L188,35 C188,34.4477153 188.447715,34 189,34 Z" transform="translate(189.000000, 53.000000) scale(-1, 1) translate(-189.000000, -53.000000) "></path>
                    </g>
                </g>
            </g>
            <path d="M27,3 L162,3 C174.150264,3 184,12.8497355 184,25 L184,345 C184,357.150264 174.150264,367 162,367 L27,367 C14.8497355,367 5,357.150264 5,345 L5,25 C5,12.8497355 14.8497355,3 27,3 Z" id="Base" fill="#FFFFFF" fill-rule="nonzero"></path>
        </g>
        <text id="Social" stroke="#000000" font-family="Helvetica-Bold, Helvetica" font-size="120" font-weight="bold" letter-spacing="1" fill="#FFFFFF">
            <tspan x="70" y="302">Social</tspan>
        </text>
        <g id="icons/40px/heart-fill" transform="translate(410.000000, 91.000000)">
            <g id="Icon-frame">
                <mask id="mask-6" fill="white">
                    <use xlink:href="#path-5"></use>
                </mask>
                <g id="Rectangle-2"></g>
            </g>
            <g id="Icon">
                <mask id="mask-8" fill="white">
                    <use xlink:href="#path-7"></use>
                </mask>
                <g id="icon/heart-fill"></g>
                <g id="Group" mask="url(#mask-8)" fill="#EF426F">
                    <g id="🎨-ICON-COLOUR">
                        <polygon id="#F2C00C" points="0 0 77 0 77 77 0 77"></polygon>
                    </g>
                </g>
            </g>
        </g>
        <g id="icons/40px/heart-fill" transform="translate(116.000000, 46.000000)">
            <g id="Icon-frame">
                <mask id="mask-10" fill="white">
                    <use xlink:href="#path-9"></use>
                </mask>
                <g id="Rectangle-2"></g>
            </g>
            <g id="Icon">
                <mask id="mask-12" fill="white">
                    <use xlink:href="#path-11"></use>
                </mask>
                <g id="icon/heart-fill"></g>
                <g id="Group" mask="url(#mask-12)" fill="#EF426F">
                    <g id="🎨-ICON-COLOUR">
                        <polygon id="#F2C00C" points="0 0 77 0 77 77 0 77"></polygon>
                    </g>
                </g>
            </g>
        </g>
        <g id="icons/40px/heart-fill" transform="translate(43.000000, 364.000000)">
            <g id="Icon-frame">
                <mask id="mask-14" fill="white">
                    <use xlink:href="#path-13"></use>
                </mask>
                <g id="Rectangle-2"></g>
            </g>
            <g id="Icon">
                <mask id="mask-16" fill="white">
                    <use xlink:href="#path-15"></use>
                </mask>
                <g id="icon/heart-fill"></g>
                <g id="Group" mask="url(#mask-16)" fill="#EF426F">
                    <g id="🎨-ICON-COLOUR">
                        <polygon id="#F2C00C" points="0 0 77 0 77 77 0 77"></polygon>
                    </g>
                </g>
            </g>
        </g>
        <g id="icons/40px/heart-fill" transform="translate(242.000000, 404.000000)">
            <g id="Icon-frame">
                <mask id="mask-18" fill="white">
                    <use xlink:href="#path-17"></use>
                </mask>
                <g id="Rectangle-2"></g>
            </g>
            <g id="Icon">
                <mask id="mask-20" fill="white">
                    <use xlink:href="#path-19"></use>
                </mask>
                <g id="icon/heart-fill"></g>
                <g id="Group" mask="url(#mask-20)" fill="#EF426F">
                    <g id="🎨-ICON-COLOUR">
                        <polygon id="#F2C00C" points="0 0 77 0 77 77 0 77"></polygon>
                    </g>
                </g>
            </g>
        </g>
    </g>
</svg>