<svg width="500" height="500" viewBox="0 0 500 500" fill="none" xmlns="http://www.w3.org/2000/svg">
<g id="social">
<path id="Socials" d="M163.773 235.8C162.493 229.4 157.213 221.08 143.453 221.08C132.733 221.08 123.693 228.76 123.693 238.84C123.693 247.4 129.533 253.24 138.573 255.08L146.493 256.68C150.893 257.56 153.373 260.12 153.373 263.4C153.373 267.4 150.093 270.36 144.173 270.36C136.173 270.36 132.253 265.32 131.773 259.72L121.533 262.44C122.413 270.52 129.053 280.2 144.093 280.2C157.293 280.2 164.573 271.4 164.573 262.68C164.573 254.68 159.053 247.96 148.733 245.96L140.813 244.44C136.653 243.64 134.653 241.16 134.653 238.04C134.653 234.28 138.173 230.84 143.533 230.84C150.733 230.84 153.293 235.72 153.853 238.84L163.773 235.8ZM190.462 270.52C185.262 270.52 180.462 266.68 180.462 259.32C180.462 251.88 185.262 248.12 190.462 248.12C195.662 248.12 200.462 251.88 200.462 259.32C200.462 266.76 195.662 270.52 190.462 270.52ZM190.462 238.44C178.702 238.44 169.822 247.16 169.822 259.32C169.822 271.4 178.702 280.2 190.462 280.2C202.222 280.2 211.102 271.4 211.102 259.32C211.102 247.16 202.222 238.44 190.462 238.44ZM237.18 248.28C242.46 248.28 244.94 251.64 245.9 254.92L255.42 251.72C253.74 245.08 247.66 238.44 236.94 238.44C225.5 238.44 216.54 247.16 216.54 259.32C216.54 271.4 225.66 280.2 237.26 280.2C247.74 280.2 253.9 273.48 255.66 266.92L246.3 263.8C245.42 266.84 242.7 270.44 237.26 270.44C231.82 270.44 227.18 266.44 227.18 259.32C227.18 252.2 231.74 248.28 237.18 248.28ZM274.125 279V239.64H263.485V279H274.125ZM262.205 226.76C262.205 230.28 265.165 233.24 268.765 233.24C272.445 233.24 275.325 230.28 275.325 226.76C275.325 223.08 272.445 220.12 268.765 220.12C265.165 220.12 262.205 223.08 262.205 226.76ZM283.116 268.28C283.116 274.44 288.236 280.12 296.636 280.12C302.476 280.12 306.236 277.4 308.236 274.28C308.236 275.8 308.396 277.96 308.636 279H318.396C318.156 277.64 317.916 274.84 317.916 272.76V253.4C317.916 245.48 313.276 238.44 300.796 238.44C290.236 238.44 284.556 245.24 283.916 251.4L293.356 253.4C293.676 249.96 296.236 247 300.876 247C305.356 247 307.516 249.32 307.516 252.12C307.516 253.48 306.796 254.6 304.556 254.92L294.876 256.36C288.316 257.32 283.116 261.24 283.116 268.28ZM298.876 272.2C295.436 272.2 293.756 269.96 293.756 267.64C293.756 264.6 295.916 263.08 298.636 262.68L307.516 261.32V263.08C307.516 270.04 303.356 272.2 298.876 272.2ZM339.281 279V221.08H328.641V279H339.281ZM347.312 268.04C347.792 272.52 351.872 280.2 363.712 280.2C374.032 280.2 378.992 273.64 378.992 267.24C378.992 261.48 375.072 256.76 367.312 255.16L361.712 253.96C359.552 253.56 358.112 252.36 358.112 250.44C358.112 248.2 360.352 246.52 363.152 246.52C367.632 246.52 369.312 249.48 369.632 251.8L378.512 249.8C378.032 245.56 374.272 238.44 363.072 238.44C354.592 238.44 348.352 244.28 348.352 251.32C348.352 256.84 351.792 261.4 359.392 263.08L364.592 264.28C367.632 264.92 368.832 266.36 368.832 268.12C368.832 270.2 367.152 272.04 363.632 272.04C358.992 272.04 356.672 269.16 356.432 266.04L347.312 268.04Z" fill="#FF3838"/>
</g>
</svg>
