<svg xmlns="http://www.w3.org/2000/svg" viewBox="0 -50 500 500"><g transform="translate(0.000000, 0.000000)"><g><g><path d="M247.7 290.8c1 .3 2 .7 3 .9 5.3 1.1 10.7.8 16-.3 5.8-1.2 11.1-3.5 16.1-6.7.2-.1.3-.2.5-.3 1.5-.9 2.6-.3 2.6 1.4 0 3.1 0 6.2 0 9.4 0 3.8 0 7.7 0 11.5 0 1.7-.7 2.8-2.2 3.7-5.7 3.3-11.8 5-18.2 5.8-5.6.7-11.3 1-17 .5-5.8-.5-11.3-1.8-16.5-4.2-4.4-2-8.4-4.8-11.7-8.3-4.2-4.4-6.9-9.6-8.5-15.5-1-3.8-1.3-7.7-1.3-11.6 0-8.4 0-16.8 0-25.3 0-6.4 1.2-12.6 4-18.4 3.7-7.4 9.3-12.6 16.9-15.8 5.2-2.2 10.6-3.1 16.2-3.3 5.5-.2 10.9.3 16.1 2.2 6.6 2.3 12.1 6 16.3 11.7 3.5 4.9 5.5 10.3 5.6 16.3.1 5 .2 10-1 14.9-.7 3-1.9 5.9-3.5 8.5-3.5 5.7-8.6 9.7-14.5 12.7-6.1 3.2-12.3 6.3-18.5 9.5-.2.1-.4.2-.5.3C247.7 290.6 247.7 290.7 247.7 290.8zM238.8 269.1c1.2-.6 2.2-1.1 3.3-1.6 3.1-1.6 6.2-3.1 9.3-4.8 1.8-1 3.6-2 5-3.5 3-3.1 4-7 3.7-11.3-.3-4.9-2.8-8.8-7.6-9.9-4.2-1-8-.3-10.9 3.2-2.2 2.6-2.7 5.8-2.8 9-.1 5.9 0 11.8 0 17.7C238.7 268.2 238.7 268.5 238.8 269.1zM153 264.9c0-8.3 0-16.7 0-25 0-1.3 0-1.3-1.4-1.3-3.8 0-7.6 0-11.5 0-1.4 0-1.9-.5-1.9-1.9 0-6.5 0-12.9 0-19.4 0-1.5.5-2 2-2 3.8 0 7.7 0 11.5 0 .9 0 1.2-.2 1.2-1.2 0-9.5 0-19 0-28.4 0-.3 0-.7 0-1 0-.6.3-.9 1-.9 8.8 0 17.6 0 26.4 0 .6 0 .9.3.9.8 0 .3 0 .7 0 1 0 9.4 0 18.8 0 28.3 0 1.4 0 1.4 1.4 1.4 5.2 0 10.4 0 15.5 0 1.6 0 2.1.5 2.1 2.1 0 6.4 0 12.8 0 19.2 0 1.6-.4 2-2 2-5.2 0-10.5 0-15.7 0-1.2 0-1.2 0-1.2 1.2 0 13.2 0 26.4.1 39.6 0 2.7.4 5.3 1.7 7.7 1.1 2 2.7 3.2 4.9 3.7 2.2.5 4.4.4 6.4-.3 2.5-.9 5-1.9 7.4-3 1.6-.7 2.5-.4 2.9 1.3 1.4 6 3.9 11.6 7.6 16.5 1.1 1.5 1 2.5-.6 3.4-4.8 2.9-9.9 5-15.4 6.4-7 1.7-14.1 2.3-21.2 1.3-6.2-.8-11.6-3.4-15.7-8.2-2.8-3.3-4.5-7.2-5.4-11.4-.8-3.4-1.1-6.8-1.1-10.3C153.1 279.4 153 272.1 153 264.9zM293.5 296.5c0-3.5 0-6.9 0-10.4 0-.6.3-1.6.7-1.8.5-.3 1.5-.1 2 .3 5.2 3.1 10.7 5.7 16.5 7.5 4.4 1.3 8.8 2.1 13.4 1.7 1.9-.2 3.8-.6 5.4-1.6 2-1.2 3-3.2 3.3-5.5.5-4.3-.8-7.3-4.6-8.9-2.5-1.1-5.2-2-7.8-2.8-5.9-1.8-11.7-3.8-16.9-7.2-3.7-2.4-6.7-5.5-8.6-9.5-1.8-3.7-2.6-7.6-2.7-11.7-.2-5.8.7-11.5 3.5-16.7 2.5-4.6 6.1-8.2 10.7-10.7 6.3-3.5 13.1-4.6 20.2-4.8 6.8-.2 13.5.5 20 2.3 2.3.7 4.6 1.5 6.9 2.3 1.1.4 1.5 1 1.4 2.2-.7 6.7-1.4 13.4-2.1 20.1-.1 1.3-1 1.7-2.4 1.1-1.7-.8-3.4-1.7-5.2-2.4-5.5-2.1-11.3-3.3-17.2-2.8-2 .2-3.9.7-5.6 1.9-3.7 2.7-3.8 8.9-.1 11.5 2.1 1.5 4.6 2.3 7 3.1 4.9 1.6 9.8 2.9 14.5 5.1 4.3 2 8.2 4.5 11.1 8.3 2.8 3.6 4.3 7.7 4.8 12.2.5 4.4.5 8.8-.4 13.1-.8 4.2-2.4 8-4.8 11.5-2.6 3.7-6.1 6.6-10.1 8.7-5.7 2.9-11.7 4.2-18 4.4-8.8.3-17.5-.6-25.9-3.6-2.4-.9-4.7-2-7.1-3.1-1.5-.7-2.1-1.9-2.1-3.5C293.5 303.3 293.5 299.9 293.5 296.5z"/></g></g></g></svg>