<?xml version="1.0" encoding="UTF-8"?>
<svg width="500px" height="500px" viewBox="0 0 500 500" version="1.1" xmlns="http://www.w3.org/2000/svg" xmlns:xlink="http://www.w3.org/1999/xlink">
    <!-- Generator: Sketch 58 (84663) - https://sketch.com -->
    <title>tes for school</title>
    <desc>Created with Sketch.</desc>
    <g id="tes-for-school" stroke="none" stroke-width="1" fill="none" fill-rule="evenodd">
        <g id="Group-2" transform="translate(75.000000, 129.000000)">
            <path d="M118.878475,26.8985507 C122.824821,26.8985507 126.649949,27.8148788 130.353975,29.6475626 C134.058001,31.4802463 136.879249,33.8524229 138.817804,36.7641634 C140.687126,39.5388808 141.933322,42.7760026 142.556429,46.4756258 C143.110302,49.0105529 143.387234,53.0526732 143.387234,58.602108 L102.625845,58.602108 C102.798931,64.1857987 104.131667,68.6646735 106.624096,72.0388669 C109.116525,75.4130603 112.976269,77.1001318 118.203446,77.1001318 C123.084452,77.1001318 126.978813,75.5072623 129.886647,72.3214756 C131.548266,70.471664 132.725228,68.3307104 133.41757,65.8985507 L142.608354,65.8985507 C142.366035,67.9196412 141.5612,70.1719243 140.193826,72.6554677 C138.924121,74.9616151 137.512657,76.8763729 135.959396,78.3997897 L135.598434,78.7444005 C132.759834,81.4848622 129.246255,83.3346461 125.05759,84.2938076 C122.807481,84.8419 120.263165,85.115942 117.424566,85.115942 C110.501153,85.115942 104.633649,82.6238721 99.821877,77.6396574 C95.0101052,72.6554428 92.6042553,65.6759342 92.6042553,56.7009223 C92.6042553,47.8629334 95.0274134,40.6864571 99.8738024,35.171278 C104.720191,29.6560989 111.055019,26.8985507 118.878475,26.8985507 Z M132.931915,52.2753623 C132.563739,48.2350184 131.710252,45.006245 130.371429,42.5889453 C127.894606,38.0996743 123.761052,35.8550725 117.970642,35.8550725 C113.82029,35.8550725 110.339403,37.4003945 107.527874,40.4910849 C104.716346,43.5817753 103.226927,47.5098285 103.059574,52.2753623 L132.931915,52.2753623 Z M161.118023,65.8633486 C161.388362,68.9274371 162.14868,71.2765365 163.398999,72.910717 C165.696883,75.8726693 169.684327,77.3536232 175.361452,77.3536232 C178.740693,77.3536232 181.71438,76.6131462 184.282603,75.1321701 C186.850826,73.651194 188.134919,71.3616733 188.134919,68.2635393 C188.134919,65.9144047 187.104266,64.1270466 185.042929,62.9014111 C183.775713,62.1812194 181.321301,61.3508705 177.679622,60.4103413 L169.988486,58.458505 C165.358926,57.3009604 161.945943,56.0072535 159.749437,54.5773455 C155.829517,52.0920293 153.869587,48.6534926 153.869587,44.2616323 C153.869587,39.0867272 155.719694,34.8992024 159.419962,31.6989321 C163.120231,28.4986619 168.096089,26.8985507 174.347685,26.8985507 C182.525448,26.8985507 188.422135,29.3157399 192.037922,34.1501907 C194.302014,37.2142792 195.400251,40.5166363 195.332666,44.0573608 L186.715645,44.0573608 C186.546683,41.9805897 185.820157,40.0910967 184.536045,38.3888253 C182.440916,35.9715999 178.808286,34.7630053 173.638048,34.7630053 C170.191222,34.7630053 167.580797,35.4268812 165.806696,36.7546529 C164.032594,38.0824246 163.145557,39.8357379 163.145557,42.0146453 C163.145557,44.3978253 164.311378,46.3043407 166.643054,47.7342487 C167.99475,48.5853844 169.988472,49.3343726 172.62428,49.9812357 L178.656195,51.4622044 C185.211923,53.0623396 189.60487,54.6113833 191.835169,56.1093822 C195.383372,58.4585167 197.157447,62.1523903 197.157447,67.1911137 C197.157447,72.0596099 195.324236,76.2641572 191.65776,79.8048818 C187.991283,83.3456063 182.407171,85.115942 174.905257,85.115942 C166.828871,85.115942 161.109591,83.2690052 157.747247,79.5750763 C154.384902,75.8811473 152.585483,71.3106171 152.348936,65.8633486 L161.118023,65.8633486 Z M238.972831,19.3366015 C239.106384,15.4467399 239.757441,12.5988483 240.926023,10.7928412 C243.02947,7.59759774 247.086058,6 253.095908,6 C253.663505,6 254.247788,6.01736519 254.848773,6.0520961 L255.610017,6.10210833 C256.01067,6.13128207 256.441372,6.16670731 256.902128,6.2083844 L256.902128,14.7521447 L255.693902,14.6674885 C255.423461,14.6501232 255.194421,14.6369255 255.006781,14.6278955 L254.873813,14.6219045 C254.456463,14.604539 254.064159,14.5958564 253.69689,14.5958564 C250.95907,14.5958564 249.32308,15.3338771 248.788871,16.8099407 C248.254662,18.2860042 247.987561,22.0455685 247.987561,28.0887462 L256.902128,28.0887462 L256.902128,35.4863924 L247.887398,35.4863924 L247.887398,83.6231884 L238.972831,83.6231884 L238.972831,35.4863924 L231.510638,35.4863924 L231.510638,28.0887462 L238.972831,28.0887462 L238.972831,19.3366015 Z M288.294373,77.6521739 C294.568392,77.6521739 298.870763,75.2936228 301.201614,70.5764497 C303.532464,65.8592767 304.697872,60.6112828 304.697872,54.8323106 C304.697872,49.6103478 303.856676,45.3632151 302.174257,42.0907851 C299.510428,36.9384485 294.918896,34.3623188 288.399523,34.3623188 C282.616209,34.3623188 278.410226,36.5555103 275.781447,40.9419591 C273.152668,45.3284078 271.838298,50.6199174 271.838298,56.8166466 C271.838298,62.7696841 273.152668,67.7304744 275.781447,71.6991661 C278.410226,75.6678578 282.58116,77.6521739 288.294373,77.6521739 Z M288.573394,26.8985507 C295.595524,26.8985507 301.532019,29.2455912 306.383055,33.9397427 C311.234092,38.6338941 313.659574,45.5389553 313.659574,54.6551334 C313.659574,63.4651713 311.522436,70.7443983 307.248096,76.4930331 C302.973756,82.2416678 296.341843,85.115942 287.35216,85.115942 C279.855103,85.115942 273.901647,82.5733148 269.491613,77.4879841 C265.081579,72.4026534 262.876596,65.5741261 262.876596,57.0021974 C262.876596,47.8179881 265.200309,40.5047459 269.847806,35.0622515 C274.495303,29.6197571 280.737103,26.8985507 288.573394,26.8985507 Z M324.114894,28.1418305 L332.938988,28.1418305 L332.938988,37.725445 C333.661432,35.8605161 335.433114,33.5898265 338.254086,30.9133082 C341.075058,28.2367898 344.326008,26.8985507 348.007032,26.8985507 L348.183957,26.9027795 C348.287162,26.9070084 348.412483,26.9144088 348.55992,26.9249809 L349.167066,26.9752197 C349.590897,27.0138994 350.201871,27.0746816 351,27.1575673 L351,37.0001985 C350.449566,36.8965914 349.942143,36.827521 349.477715,36.7929852 C349.013286,36.7584495 348.505863,36.7411819 347.955429,36.7411819 C343.276744,36.7411819 339.681778,38.252097 337.170425,41.2739726 C334.659072,44.2958482 333.403414,47.7752698 333.403414,51.712342 L333.403414,83.6231884 L324.114894,83.6231884 L324.114894,28.1418305 Z M8.76908636,192.747407 C9.03942563,195.811495 9.79974344,198.160594 11.0500626,199.794775 C13.3479464,202.756727 17.3353909,204.237681 23.0125156,204.237681 C26.3917566,204.237681 29.365444,203.497204 31.9336671,202.016228 C34.5018902,200.535252 35.7859825,198.245731 35.7859825,195.147597 C35.7859825,192.798463 34.7553295,191.011105 32.6939925,189.785469 C31.4267771,189.065277 28.9723646,188.234928 25.3306854,187.294399 L17.6395494,185.342563 C13.0099894,184.185018 9.59700723,182.891311 7.40050063,181.461404 C3.48058115,178.976087 1.52065081,175.537551 1.52065081,171.14569 C1.52065081,165.970785 3.37075747,161.78326 7.07102628,158.58299 C10.7712951,155.38272 15.7471527,153.782609 21.9987484,153.782609 C30.1765115,153.782609 36.0731984,156.199798 39.6889862,161.034249 C41.9530777,164.098337 43.0513145,167.400694 42.9837297,170.941419 L34.3667084,170.941419 C34.1977463,168.864648 33.4712204,166.975155 32.1871089,165.272883 C30.0919795,162.855658 26.45935,161.647063 21.2891114,161.647063 C17.8422856,161.647063 15.2318612,162.310939 13.4577597,163.638711 C11.6836582,164.966483 10.7966208,166.719796 10.7966208,168.898703 C10.7966208,171.281883 11.9624414,173.188399 14.2941176,174.618307 C15.645814,175.469442 17.6395363,176.218431 20.2753442,176.865294 L26.3072591,178.346262 C32.8629865,179.946398 37.2559338,181.495441 39.4862328,182.99344 C43.0344358,185.342575 44.8085106,189.036448 44.8085106,194.075172 C44.8085106,198.943668 42.9752999,203.148215 39.3088235,206.68894 C35.6423471,210.229664 30.0582353,212 22.5563204,212 C14.4799346,212 8.76065511,210.153063 5.39831039,206.459134 C2.03596567,202.765205 0.236546865,198.194675 0,192.747407 L8.76908636,192.747407 Z M76.1142022,153.782609 C82.4036046,153.782609 87.5201826,155.28984 91.4640897,158.304348 C95.4079967,161.318856 97.7795176,166.508527 98.5787234,173.873518 L89.4573981,173.873518 C88.9014288,170.482196 87.6331429,167.664702 85.6525024,165.420949 C83.6718618,163.177196 80.4924602,162.055336 76.1142022,162.055336 C70.1375325,162.055336 65.8635828,164.932778 63.2922249,170.687747 C61.6243171,174.421626 60.7903756,179.028958 60.7903756,184.509881 C60.7903756,190.025061 61.9717926,194.666648 64.3346621,198.434783 C66.6975315,202.202917 70.4155202,204.086957 75.4887399,204.086957 C79.3805248,204.086957 82.4643706,202.913714 84.7403698,200.567194 C87.0163691,198.220673 88.5886961,195.009243 89.4573981,190.932806 L98.5787234,190.932806 C97.536281,198.229285 94.9302141,203.564542 90.7604446,206.938735 C86.590675,210.312929 81.2569248,212 74.7590339,212 C67.4619371,212 61.6417211,209.370909 57.2982111,204.112648 C52.9547011,198.854387 50.7829787,192.285942 50.7829787,184.407115 C50.7829787,174.746987 53.1631865,167.227958 57.9236734,161.849802 C62.6841603,156.471646 68.7476093,153.782609 76.1142022,153.782609 Z M107.540426,134.376812 L116.779294,134.376812 L116.779294,162.680393 C118.969259,159.89134 120.936776,157.928702 122.681904,156.792421 C125.658887,154.829754 129.371507,153.848436 133.819873,153.848436 C141.792714,153.848436 147.199108,156.654663 150.039219,162.267202 C151.579038,165.331717 152.348936,169.584098 152.348936,175.024472 L152.348936,210.507246 L142.853433,210.507246 L142.853433,175.644259 C142.853433,171.581194 142.340167,168.602806 141.313621,166.709004 C139.63693,163.678922 136.488902,162.163904 131.869445,162.163904 C128.037007,162.163904 124.563911,163.489545 121.450055,166.140867 C118.336199,168.792189 116.779294,173.802079 116.779294,181.170688 L116.779294,210.507246 L107.540426,210.507246 L107.540426,134.376812 Z M188.222032,204.536232 C194.496052,204.536232 198.798422,202.177681 201.129273,197.460508 C203.460124,192.743335 204.625532,187.495341 204.625532,181.716369 C204.625532,176.494406 203.784335,172.247273 202.101917,168.974843 C199.438087,163.822506 194.846555,161.246377 188.327183,161.246377 C182.543869,161.246377 178.337885,163.439568 175.709106,167.826017 C173.080327,172.212466 171.765957,177.503975 171.765957,183.700705 C171.765957,189.653742 173.080327,194.614532 175.709106,198.583224 C178.337885,202.551916 182.508819,204.536232 188.222032,204.536232 Z M188.501053,153.782609 C195.523184,153.782609 201.459678,156.129649 206.310715,160.823801 C211.161752,165.517952 213.587234,172.423013 213.587234,181.539191 C213.587234,190.349229 211.450096,197.628456 207.175756,203.377091 C202.901416,209.125726 196.269503,212 187.279819,212 C179.782762,212 173.829306,209.457373 169.419273,204.372042 C165.009239,199.286711 162.804255,192.458184 162.804255,183.886255 C162.804255,174.702046 165.127969,167.388804 169.775466,161.946309 C174.422963,156.503815 180.664763,153.782609 188.501053,153.782609 Z M246.473096,204.536232 C252.747116,204.536232 257.049486,202.177681 259.380337,197.460508 C261.711188,192.743335 262.876596,187.495341 262.876596,181.716369 C262.876596,176.494406 262.035399,172.247273 260.35298,168.974843 C257.689151,163.822506 253.097619,161.246377 246.578247,161.246377 C240.794933,161.246377 236.588949,163.439568 233.96017,167.826017 C231.331391,172.212466 230.017021,177.503975 230.017021,183.700705 C230.017021,189.653742 231.331391,194.614532 233.96017,198.583224 C236.588949,202.551916 240.759883,204.536232 246.473096,204.536232 Z M246.752117,153.782609 C253.774247,153.782609 259.710742,156.129649 264.561779,160.823801 C269.412816,165.517952 271.838298,172.423013 271.838298,181.539191 C271.838298,190.349229 269.70116,197.628456 265.42682,203.377091 C261.152479,209.125726 254.520567,212 245.530883,212 C238.033826,212 232.08037,209.457373 227.670336,204.372042 C223.260303,199.286711 221.055319,192.458184 221.055319,183.886255 C221.055319,174.702046 223.379033,167.388804 228.02653,161.946309 C232.674027,156.503815 238.915827,153.782609 246.752117,153.782609 Z M283.787234,134.376812 L292.748936,134.376812 L292.748936,210.507246 L283.787234,210.507246 L283.787234,134.376812 Z M311.973342,192.747407 C312.243681,195.811495 313.003999,198.160594 314.254318,199.794775 C316.552202,202.756727 320.539646,204.237681 326.216771,204.237681 C329.596012,204.237681 332.569699,203.497204 335.137922,202.016228 C337.706146,200.535252 338.990238,198.245731 338.990238,195.147597 C338.990238,192.798463 337.959585,191.011105 335.898248,189.785469 C334.631032,189.065277 332.17662,188.234928 328.534941,187.294399 L320.843805,185.342563 C316.214245,184.185018 312.801263,182.891311 310.604756,181.461404 C306.684836,178.976087 304.724906,175.537551 304.724906,171.14569 C304.724906,165.970785 306.575013,161.78326 310.275282,158.58299 C313.97555,155.38272 318.951408,153.782609 325.203004,153.782609 C333.380767,153.782609 339.277454,156.199798 342.893242,161.034249 C345.157333,164.098337 346.25557,167.400694 346.187985,170.941419 L337.570964,170.941419 C337.402002,168.864648 336.675476,166.975155 335.391364,165.272883 C333.296235,162.855658 329.663605,161.647063 324.493367,161.647063 C321.046541,161.647063 318.436117,162.310939 316.662015,163.638711 C314.887914,164.966483 314.000876,166.719796 314.000876,168.898703 C314.000876,171.281883 315.166697,173.188399 317.498373,174.618307 C318.850069,175.469442 320.843792,176.218431 323.479599,176.865294 L329.511514,178.346262 C336.067242,179.946398 340.460189,181.495441 342.690488,182.99344 C346.238691,185.342575 348.012766,189.036448 348.012766,194.075172 C348.012766,198.943668 346.179555,203.148215 342.513079,206.68894 C338.846602,210.229664 333.262491,212 325.760576,212 C317.68419,212 311.96491,210.153063 308.602566,206.459134 C305.240221,202.765205 303.440802,198.194675 303.204255,192.747407 L311.973342,192.747407 Z" id="tesforschools" fill="#3B99D0" fill-rule="nonzero"></path>
            <path d="M194,242.130462 C194.356191,242.648564 195.229762,244.012238 195.57624,244.538022 C200.266978,251.656253 203.647225,258.181814 209.535268,264.353004 C213.29151,268.289879 218.660955,270.404133 223.589146,272.768077 C247.160829,284.074897 252.991504,249.577811 257,233" id="Path-3" stroke="#3B99D0" stroke-width="4" stroke-linecap="round" stroke-linejoin="round"></path>
            <path d="M194,247.697889 C237.344088,247.697889 216.359299,250.33954 257,240" id="Path-4" stroke="#3B99D0" stroke-width="4" stroke-linecap="round" stroke-linejoin="round"></path>
            <path d="M185.663461,195.268587 C186.728571,199.365025 192.276152,201.577033 190.72973,193.864137 C189.330385,186.8848 182.953412,187.471321 185.663461,195.268587" id="Path-5" stroke="#3B99D0" stroke-width="3" stroke-linecap="round" stroke-linejoin="round"></path>
            <path d="M243,164 C243,190.655937 261,164.681564 243,164" id="Path-6" stroke="#3B99D0" stroke-width="3" stroke-linecap="round" stroke-linejoin="round"></path>
            <path d="M20,7.9535038 C24,7.65116793 28,7.34883207 32,7.0464962" id="Path-11" stroke="#3B99D0" stroke-width="4" stroke-linecap="round" stroke-linejoin="round"></path>
            <path d="M27.9263228,0 C27.9263228,12.5175002 28.7341442,6.14394399 25,19" id="Path-12" stroke="#3B99D0" stroke-width="4" stroke-linecap="round" stroke-linejoin="round"></path>
            <polygon id="Path" fill="#3B99D0" points="99 16.5310537 75.0142602 16.5310537 75.0142602 83 65.0374332 83 65.0374332 16.5310537 41 16.5310537 41 8 99 8"></polygon>
        </g>
    </g>
</svg>