<?xml version="1.0" encoding="UTF-8"?>
<svg width="500px" height="500px" viewBox="0 0 500 500" version="1.1" xmlns="http://www.w3.org/2000/svg" xmlns:xlink="http://www.w3.org/1999/xlink">
    <title>tes for school</title>
    <g id="tes-for-school" stroke="none" stroke-width="1" fill="none" fill-rule="evenodd">
        <path d="M108.357422,225 L108.357422,221.191406 C107.250651,221.061198 105.907878,220.841471 104.329102,220.532227 C102.750326,220.222982 101.586589,219.921875 100.837891,219.628906 C99.6009114,219.108073 98.7708333,218.400065 98.3476562,217.504883 C97.9244792,216.609701 97.7128906,215.576172 97.7128906,214.404297 L97.7128906,214.404297 L97.7128906,160.058594 L100.007812,160.058594 C101.114583,160.058594 102.432943,160.107422 103.962891,160.205078 C105.492839,160.302734 106.778646,160.416667 107.820312,160.546875 C109.708333,160.807292 111.767253,162.630208 113.99707,166.015625 C116.226888,169.401042 117.846354,172.57487 118.855469,175.537109 L118.855469,175.537109 L122.615234,175.537109 L122.615234,155.712891 L55.4765625,155.712891 L55.4765625,175.537109 L59.2363281,175.537109 C60.2454427,172.57487 61.8649088,169.401042 64.0947265,166.015625 C66.3245443,162.630208 68.3834635,160.807292 70.2714844,160.546875 C71.313151,160.416667 72.5989583,160.302734 74.1289062,160.205078 C75.6588542,160.107422 76.9772135,160.058594 78.0839844,160.058594 L78.0839844,160.058594 L80.3789062,160.058594 L80.3789062,214.892578 C80.3789062,216.097005 80.1673177,217.138672 79.7441406,218.017578 C79.3209635,218.896484 78.4746094,219.596354 77.2050781,220.117188 C76.5865885,220.377604 75.4228515,220.597331 73.7138672,220.776367 C72.0048828,220.955404 70.6783854,221.09375 69.734375,221.191406 L69.734375,221.191406 L69.734375,225 L108.357422,225 Z M154.958984,226.5625 C157.85612,226.5625 160.419596,226.245117 162.649414,225.610352 C164.879232,224.975586 167.084635,224.039714 169.265625,222.802734 C171.316406,221.630859 173.147461,220.222982 174.758789,218.579102 C176.370117,216.935221 177.745443,215.185547 178.884766,213.330078 L178.884766,213.330078 L175.173828,210.644531 C173.448568,213.216146 171.365234,215.340169 168.923828,217.016602 C166.482422,218.693034 163.731771,219.53125 160.671875,219.53125 C155.072917,219.53125 150.98763,217.789714 148.416016,214.306641 C145.844401,210.823568 144.558594,205.745443 144.558594,199.072266 L144.558594,199.072266 L177.566406,199.072266 L177.566406,195.898438 C177.566406,193.13151 177.143229,190.486654 176.296875,187.963867 C175.450521,185.441081 174.099609,183.251953 172.244141,181.396484 C170.323568,179.443359 167.898437,177.913411 164.96875,176.806641 C162.039062,175.69987 158.295573,175.146484 153.738281,175.146484 C149.571615,175.146484 145.803711,175.86263 142.43457,177.294922 C139.06543,178.727214 136.274089,180.598958 134.060547,182.910156 C131.814453,185.286458 130.081055,187.996419 128.860352,191.040039 C127.639648,194.083659 127.029297,197.265625 127.029297,200.585938 C127.029297,204.264323 127.59082,207.674154 128.713867,210.81543 C129.836914,213.956706 131.53776,216.682943 133.816406,218.994141 C136.095052,221.305339 138.984049,223.144531 142.483398,224.511719 C145.982747,225.878906 150.141276,226.5625 154.958984,226.5625 Z M144.558594,194.970703 C144.688802,189.469401 145.502604,185.449219 147,182.910156 C148.497396,180.371094 150.499349,179.101562 153.005859,179.101562 C154.470703,179.101562 155.683268,179.492188 156.643555,180.273438 C157.603841,181.054688 158.360677,182.210286 158.914062,183.740234 C159.402344,185.042318 159.744141,186.71875 159.939453,188.769531 C160.134766,190.820312 160.232422,192.822266 160.232422,194.775391 L160.232422,194.775391 L144.558594,194.970703 Z M206.492187,226.660156 C213.230469,226.660156 218.691081,225.195312 222.874023,222.265625 C227.056966,219.335938 229.148437,215.201823 229.148437,209.863281 C229.148437,205.859375 227.797526,202.563477 225.095703,199.975586 C222.39388,197.387695 218.129557,195.345052 212.302734,193.847656 C208.526693,192.871094 205.588867,191.829427 203.489258,190.722656 C201.389648,189.615885 200.339844,187.825521 200.339844,185.351562 C200.339844,183.496094 201.05599,182.047526 202.488281,181.005859 C203.920573,179.964193 205.889974,179.443359 208.396484,179.443359 C211.586589,179.443359 214.565104,180.672201 217.332031,183.129883 C220.098958,185.587565 222.052083,188.509115 223.191406,191.894531 L223.191406,191.894531 L226.658203,191.894531 L225.876953,175.244141 L222.166016,175.244141 L221.140625,178.125 C219.447917,177.408854 217.356445,176.749674 214.866211,176.147461 C212.375977,175.545247 209.64974,175.244141 206.6875,175.244141 C200.4375,175.244141 195.383789,176.660156 191.526367,179.492188 C187.668945,182.324219 185.740234,186.035156 185.740234,190.625 C185.740234,193.098958 186.179687,195.23112 187.058594,197.021484 C187.9375,198.811849 189.109375,200.341797 190.574219,201.611328 C192.266927,203.04362 193.902669,204.093424 195.481445,204.760742 C197.060221,205.42806 198.95638,206.08724 201.169922,206.738281 C203.383464,207.389323 205.24707,207.942708 206.760742,208.398438 C208.274414,208.854167 209.666016,209.407552 210.935547,210.058594 C212.07487,210.677083 212.970052,211.409505 213.621094,212.255859 C214.272135,213.102214 214.597656,214.176432 214.597656,215.478516 C214.597656,217.88737 213.873372,219.669596 212.424805,220.825195 C210.976237,221.980794 208.770833,222.558594 205.808594,222.558594 C203.5625,222.558594 201.454753,222.054036 199.485352,221.044922 C197.515951,220.035807 195.766276,218.798828 194.236328,217.333984 C192.771484,215.869141 191.469401,214.217122 190.330078,212.37793 C189.190755,210.538737 188.376953,208.886719 187.888672,207.421875 L187.888672,207.421875 L184.324219,207.421875 L184.958984,225.634766 L188.767578,225.634766 L190.232422,222.314453 C191.892578,223.35612 194.22819,224.34082 197.239258,225.268555 C200.250326,226.196289 203.334635,226.660156 206.492187,226.660156 Z M294.226563,225 L294.226563,221.435547 C293.217448,221.337891 292.078125,221.166992 290.808594,220.922852 C289.539063,220.678711 288.513672,220.426432 287.732422,220.166016 C286.788411,219.840495 286.023438,219.327799 285.4375,218.62793 C284.851563,217.92806 284.558594,216.943359 284.558594,215.673828 L284.558594,215.673828 L284.558594,182.03125 L297.9375,182.03125 L297.9375,176.757812 L284.460938,176.757812 L284.460938,172.900391 C284.460938,165.283203 284.867839,160.31901 285.681641,158.007812 C286.495443,155.696615 287.553385,154.264323 288.855469,153.710938 C290.515625,157.877604 292.078125,160.85612 293.542969,162.646484 C295.007813,164.436849 297.026042,165.332031 299.597656,165.332031 C301.290365,165.332031 302.559896,165.120443 303.40625,164.697266 C304.252604,164.274089 305.017578,163.655599 305.701172,162.841797 C306.287109,162.158203 306.710286,161.328125 306.970703,160.351562 C307.23112,159.375 307.361328,158.479818 307.361328,157.666016 C307.361328,155.192057 306.254557,153.190104 304.041016,151.660156 C301.827474,150.130208 298.702474,149.365234 294.666016,149.365234 C290.141276,149.365234 286.202474,150.146484 282.849609,151.708984 C279.496745,153.271484 276.794922,155.322266 274.744141,157.861328 C272.628255,160.432943 271.065755,163.354492 270.056641,166.625977 C269.047526,169.897461 268.542969,173.27474 268.542969,176.757812 L268.542969,176.757812 L258.630859,176.757812 L258.630859,182.03125 L268.542969,182.03125 L268.542969,216.113281 C268.542969,217.317708 268.355794,218.286133 267.981445,219.018555 C267.607096,219.750977 266.899089,220.3125 265.857422,220.703125 C265.238932,220.93099 264.530924,221.09375 263.733398,221.191406 C262.935872,221.289062 262.113932,221.370443 261.267578,221.435547 L261.267578,221.435547 L261.267578,225 L294.226563,225 Z M329.255859,226.5625 C333.845703,226.5625 337.922852,225.911458 341.487305,224.609375 C345.051758,223.307292 348.119792,221.435547 350.691406,218.994141 C353.10026,216.715495 354.931315,213.972982 356.18457,210.766602 C357.437826,207.560221 358.064453,204.150391 358.064453,200.537109 C358.064453,196.891276 357.429688,193.505859 356.160156,190.380859 C354.890625,187.255859 353.051432,184.570312 350.642578,182.324219 C348.16862,180.045573 345.198242,178.279622 341.731445,177.026367 C338.264648,175.773112 334.252604,175.146484 329.695313,175.146484 C325.333333,175.146484 321.386393,175.773112 317.854492,177.026367 C314.322591,178.279622 311.352214,180.045573 308.943359,182.324219 C306.436849,184.700521 304.556966,187.410482 303.303711,190.454102 C302.050456,193.497721 301.423828,196.972656 301.423828,200.878906 C301.423828,204.85026 302.139974,208.439128 303.572266,211.645508 C305.004557,214.851888 306.957682,217.545573 309.431641,219.726562 C312.003255,222.005208 314.957357,223.714193 318.293945,224.853516 C321.630534,225.992839 325.284505,226.5625 329.255859,226.5625 Z M329.792969,222.607422 C327.644531,222.607422 325.870443,222.021484 324.470703,220.849609 C323.070964,219.677734 321.996745,218.082682 321.248047,216.064453 C320.369141,213.720703 319.815755,211.385091 319.587891,209.057617 C319.360026,206.730143 319.246094,203.792318 319.246094,200.244141 C319.246094,197.542318 319.376302,194.946289 319.636719,192.456055 C319.897135,189.96582 320.369141,187.792969 321.052734,185.9375 C321.801432,183.919271 322.867513,182.275391 324.250977,181.005859 C325.63444,179.736328 327.481771,179.101562 329.792969,179.101562 C331.908854,179.101562 333.658529,179.6875 335.041992,180.859375 C336.425456,182.03125 337.507813,183.642578 338.289063,185.693359 C338.940104,187.386068 339.428385,189.697266 339.753906,192.626953 C340.079427,195.556641 340.242188,198.160807 340.242188,200.439453 C340.242188,203.889974 340.071289,206.917318 339.729492,209.521484 C339.387695,212.125651 338.858724,214.339193 338.142578,216.162109 C337.328776,218.277995 336.222005,219.881185 334.822266,220.97168 C333.422526,222.062174 331.746094,222.607422 329.792969,222.607422 Z M397.341797,225 L397.341797,221.435547 C396.625651,221.402995 395.461914,221.264648 393.850586,221.020508 C392.239258,220.776367 391.075521,220.47526 390.359375,220.117188 C389.513021,219.69401 388.910807,219.108073 388.552734,218.359375 C388.194661,217.610677 388.015625,216.666667 388.015625,215.527344 L388.015625,215.527344 L388.015625,188.720703 C389.285156,187.093099 390.75,185.791016 392.410156,184.814453 C394.070313,183.837891 395.649089,183.317057 397.146484,183.251953 C397.016276,183.805339 396.869792,184.399414 396.707031,185.03418 C396.544271,185.668945 396.462891,186.55599 396.462891,187.695312 C396.462891,190.039062 397.284831,191.813151 398.928711,193.017578 C400.572591,194.222005 402.582682,194.824219 404.958984,194.824219 C407.465495,194.824219 409.483724,193.888346 411.013672,192.016602 C412.54362,190.144857 413.308594,187.972005 413.308594,185.498047 C413.308594,182.535807 412.388997,180.118815 410.549805,178.24707 C408.710612,176.375326 406.277344,175.439453 403.25,175.439453 C400.515625,175.439453 397.887044,176.180013 395.364258,177.661133 C392.841471,179.142253 390.457031,181.184896 388.210938,183.789062 L388.210938,183.789062 L388.015625,183.789062 L388.015625,176.708984 L387.283203,175.976562 L363.992188,177.246094 L363.992188,180.810547 C365.066406,180.908203 366.051107,181.08724 366.946289,181.347656 C367.841471,181.608073 368.582031,181.933594 369.167969,182.324219 C369.949219,182.877604 370.616536,183.618164 371.169922,184.545898 C371.723307,185.473633 372,186.523438 372,187.695312 L372,187.695312 L372,216.113281 C372,217.317708 371.804688,218.294271 371.414063,219.042969 C371.023438,219.791667 370.307292,220.345052 369.265625,220.703125 C368.679688,220.898438 367.97168,221.05306 367.141602,221.166992 C366.311523,221.280924 365.489583,221.370443 364.675781,221.435547 L364.675781,221.435547 L364.675781,225 L397.341797,225 Z M66.243164,340.660156 C72.9814453,340.660156 78.4420573,339.195312 82.625,336.265625 C86.8079427,333.335938 88.899414,329.201823 88.899414,323.863281 C88.899414,319.859375 87.5485026,316.563477 84.8466797,313.975586 C82.1448568,311.387695 77.8805338,309.345052 72.0537109,307.847656 C68.2776693,306.871094 65.3398437,305.829427 63.2402344,304.722656 C61.140625,303.615885 60.0908203,301.825521 60.0908203,299.351562 C60.0908203,297.496094 60.8069661,296.047526 62.2392578,295.005859 C63.6715495,293.964193 65.6409505,293.443359 68.1474609,293.443359 C71.3375651,293.443359 74.3160807,294.672201 77.0830078,297.129883 C79.8499349,299.587565 81.8030599,302.509115 82.9423828,305.894531 L82.9423828,305.894531 L86.4091797,305.894531 L85.6279297,289.244141 L81.9169922,289.244141 L80.8916015,292.125 C79.1988932,291.408854 77.1074219,290.749674 74.6171875,290.147461 C72.1269531,289.545247 69.4007161,289.244141 66.4384765,289.244141 C60.1884765,289.244141 55.1347656,290.660156 51.2773437,293.492188 C47.4199219,296.324219 45.4912109,300.035156 45.4912109,304.625 C45.4912109,307.098958 45.930664,309.23112 46.8095703,311.021484 C47.6884765,312.811849 48.8603515,314.341797 50.3251953,315.611328 C52.0179036,317.04362 53.6536458,318.093424 55.2324219,318.760742 C56.8111979,319.42806 58.7073568,320.08724 60.9208984,320.738281 C63.1344401,321.389323 64.9980469,321.942708 66.5117187,322.398438 C68.0253906,322.854167 69.4169922,323.407552 70.6865234,324.058594 C71.8258463,324.677083 72.7210286,325.409505 73.3720703,326.255859 C74.023112,327.102214 74.3486328,328.176432 74.3486328,329.478516 C74.3486328,331.88737 73.6243489,333.669596 72.1757812,334.825195 C70.7272135,335.980794 68.5218099,336.558594 65.5595703,336.558594 C63.3134765,336.558594 61.2057292,336.054036 59.2363281,335.044922 C57.2669271,334.035807 55.5172526,332.798828 53.9873047,331.333984 C52.5224609,329.869141 51.2203776,328.217122 50.0810547,326.37793 C48.9417318,324.538737 48.1279297,322.886719 47.6396484,321.421875 L47.6396484,321.421875 L44.0751953,321.421875 L44.7099609,339.634766 L48.5185547,339.634766 L49.9833984,336.314453 C51.6435547,337.35612 53.9791667,338.34082 56.9902344,339.268555 C60.0013021,340.196289 63.085612,340.660156 66.243164,340.660156 Z M123.098633,340.5625 C125.898112,340.5625 128.355794,340.220703 130.47168,339.537109 C132.587565,338.853516 134.670898,337.844401 136.72168,336.509766 C138.674805,335.240234 140.351237,333.783529 141.750977,332.139648 C143.150716,330.495768 144.355143,328.68099 145.364258,326.695312 L145.364258,326.695312 L141.702148,324.15625 C140.041992,327.11849 138.145833,329.405273 136.013672,331.016602 C133.88151,332.62793 131.008789,333.433594 127.395508,333.433594 C123.619466,333.433594 120.372396,331.659505 117.654297,328.111328 C114.936198,324.563151 113.577148,319.891927 113.577148,314.097656 C113.577148,310.25651 113.878255,306.96875 114.480469,304.234375 C115.082682,301.5 115.888346,299.31901 116.897461,297.691406 C117.939128,295.966146 119.062174,294.761719 120.266602,294.078125 C121.471029,293.394531 122.805664,293.052734 124.270508,293.052734 C125.442383,293.052734 126.305013,293.207357 126.858398,293.516602 C127.411784,293.825846 127.867513,294.273438 128.225586,294.859375 C128.12793,295.673177 127.818685,296.861328 127.297852,298.423828 C126.777018,299.986328 126.516602,301.565104 126.516602,303.160156 C126.516602,305.048177 127.338542,306.578125 128.982422,307.75 C130.626302,308.921875 132.668945,309.507812 135.110352,309.507812 C138.137695,309.507812 140.269857,308.791667 141.506836,307.359375 C142.743815,305.927083 143.362305,304.039062 143.362305,301.695312 C143.362305,297.854167 141.620768,294.802409 138.137695,292.540039 C134.654622,290.277669 129.918294,289.146484 123.928711,289.146484 C119.664388,289.146484 115.766276,289.854492 112.234375,291.270508 C108.702474,292.686523 105.748372,294.582682 103.37207,296.958984 C101.060872,299.270182 99.2298177,301.955729 97.8789062,305.015625 C96.5279948,308.075521 95.8525391,311.298177 95.8525391,314.683594 C95.8525391,318.394531 96.4059245,321.828776 97.5126953,324.986328 C98.6194661,328.14388 100.295898,330.878255 102.541992,333.189453 C104.788086,335.468099 107.644531,337.266602 111.111328,338.584961 C114.578125,339.90332 118.573893,340.5625 123.098633,340.5625 Z M177.317383,339 L177.317383,335.435547 C176.568685,335.337891 175.795573,335.17513 174.998047,334.947266 C174.200521,334.719401 173.557617,334.458984 173.069336,334.166016 C172.255534,333.710286 171.702148,333.132487 171.40918,332.432617 C171.116211,331.732747 170.969727,330.780599 170.969727,329.576172 L170.969727,329.576172 L170.969727,303.355469 C171.360352,302.834635 171.840495,302.232422 172.410156,301.548828 C172.979818,300.865234 173.736654,300.197917 174.680664,299.546875 C175.754883,298.798177 176.853516,298.228516 177.976562,297.837891 C179.099609,297.447266 180.312174,297.251953 181.614258,297.251953 C183.925456,297.251953 185.707682,298.082031 186.960937,299.742188 C188.214193,301.402344 188.84082,303.908854 188.84082,307.261719 L188.84082,307.261719 L188.84082,330.113281 C188.84082,331.447917 188.702474,332.457031 188.425781,333.140625 C188.149089,333.824219 187.668945,334.345052 186.985352,334.703125 C186.562174,334.93099 185.911133,335.09375 185.032227,335.191406 C184.15332,335.289062 183.388346,335.370443 182.737305,335.435547 L182.737305,335.435547 L182.737305,339 L212.131836,339 L212.131836,335.435547 C211.090169,335.305339 210.211263,335.142578 209.495117,334.947266 C208.778971,334.751953 208.12793,334.524089 207.541992,334.263672 C206.56543,333.840495 205.898112,333.270833 205.540039,332.554688 C205.181966,331.838542 205.00293,330.878255 205.00293,329.673828 L205.00293,329.673828 L205.00293,305.748047 C205.00293,300.80013 203.676432,296.8125 201.023437,293.785156 C198.370443,290.757812 194.407227,289.244141 189.133789,289.244141 C186.887695,289.244141 184.796224,289.520833 182.859375,290.074219 C180.922526,290.627604 179.351888,291.294922 178.147461,292.076172 C176.715169,292.98763 175.502604,293.890951 174.509766,294.786133 C173.516927,295.681315 172.402018,296.682292 171.165039,297.789062 L171.165039,297.789062 L170.969727,297.789062 L170.969727,264.195312 L170.237305,263.414062 L145.969727,264.683594 L145.969727,268.248047 C146.946289,268.313151 148.05306,268.467773 149.290039,268.711914 C150.527018,268.956055 151.471029,269.289714 152.12207,269.712891 C153.000977,270.298828 153.68457,271.177734 154.172852,272.349609 C154.661133,273.521484 154.905273,274.628255 154.905273,275.669922 L154.905273,275.669922 L154.905273,330.113281 C154.905273,331.317708 154.718099,332.286133 154.34375,333.018555 C153.969401,333.750977 153.261393,334.3125 152.219727,334.703125 C151.601237,334.93099 150.893229,335.09375 150.095703,335.191406 C149.298177,335.289062 148.476237,335.370443 147.629883,335.435547 L147.629883,335.435547 L147.629883,339 L177.317383,339 Z M245.40332,340.5625 C249.993164,340.5625 254.070312,339.911458 257.634766,338.609375 C261.199219,337.307292 264.267253,335.435547 266.838867,332.994141 C269.247721,330.715495 271.078776,327.972982 272.332031,324.766602 C273.585286,321.560221 274.211914,318.150391 274.211914,314.537109 C274.211914,310.891276 273.577148,307.505859 272.307617,304.380859 C271.038086,301.255859 269.198893,298.570312 266.790039,296.324219 C264.316081,294.045573 261.345703,292.279622 257.878906,291.026367 C254.412109,289.773112 250.400065,289.146484 245.842773,289.146484 C241.480794,289.146484 237.533854,289.773112 234.001953,291.026367 C230.470052,292.279622 227.499674,294.045573 225.09082,296.324219 C222.58431,298.700521 220.704427,301.410482 219.451172,304.454102 C218.197917,307.497721 217.571289,310.972656 217.571289,314.878906 C217.571289,318.85026 218.287435,322.439128 219.719727,325.645508 C221.152018,328.851888 223.105143,331.545573 225.579102,333.726562 C228.150716,336.005208 231.104818,337.714193 234.441406,338.853516 C237.777995,339.992839 241.431966,340.5625 245.40332,340.5625 Z M245.94043,336.607422 C243.791992,336.607422 242.017904,336.021484 240.618164,334.849609 C239.218424,333.677734 238.144206,332.082682 237.395508,330.064453 C236.516602,327.720703 235.963216,325.385091 235.735352,323.057617 C235.507487,320.730143 235.393555,317.792318 235.393555,314.244141 C235.393555,311.542318 235.523763,308.946289 235.78418,306.456055 C236.044596,303.96582 236.516602,301.792969 237.200195,299.9375 C237.948893,297.919271 239.014974,296.275391 240.398437,295.005859 C241.781901,293.736328 243.629232,293.101562 245.94043,293.101562 C248.056315,293.101562 249.80599,293.6875 251.189453,294.859375 C252.572917,296.03125 253.655273,297.642578 254.436523,299.693359 C255.087565,301.386068 255.575846,303.697266 255.901367,306.626953 C256.226888,309.556641 256.389648,312.160807 256.389648,314.439453 C256.389648,317.889974 256.21875,320.917318 255.876953,323.521484 C255.535156,326.125651 255.006185,328.339193 254.290039,330.162109 C253.476237,332.277995 252.369466,333.881185 250.969727,334.97168 C249.569987,336.062174 247.893555,336.607422 245.94043,336.607422 Z M309.290039,340.5625 C313.879883,340.5625 317.957031,339.911458 321.521484,338.609375 C325.085938,337.307292 328.153971,335.435547 330.725586,332.994141 C333.13444,330.715495 334.965495,327.972982 336.21875,324.766602 C337.472005,321.560221 338.098633,318.150391 338.098633,314.537109 C338.098633,310.891276 337.463867,307.505859 336.194336,304.380859 C334.924805,301.255859 333.085612,298.570312 330.676758,296.324219 C328.202799,294.045573 325.232422,292.279622 321.765625,291.026367 C318.298828,289.773112 314.286784,289.146484 309.729492,289.146484 C305.367513,289.146484 301.420573,289.773112 297.888672,291.026367 C294.356771,292.279622 291.386393,294.045573 288.977539,296.324219 C286.471029,298.700521 284.591146,301.410482 283.337891,304.454102 C282.084635,307.497721 281.458008,310.972656 281.458008,314.878906 C281.458008,318.85026 282.174154,322.439128 283.606445,325.645508 C285.038737,328.851888 286.991862,331.545573 289.46582,333.726562 C292.037435,336.005208 294.991536,337.714193 298.328125,338.853516 C301.664714,339.992839 305.318685,340.5625 309.290039,340.5625 Z M309.827148,336.607422 C307.678711,336.607422 305.904622,336.021484 304.504883,334.849609 C303.105143,333.677734 302.030924,332.082682 301.282227,330.064453 C300.40332,327.720703 299.849935,325.385091 299.62207,323.057617 C299.394206,320.730143 299.280273,317.792318 299.280273,314.244141 C299.280273,311.542318 299.410482,308.946289 299.670898,306.456055 C299.931315,303.96582 300.40332,301.792969 301.086914,299.9375 C301.835612,297.919271 302.901693,296.275391 304.285156,295.005859 C305.66862,293.736328 307.515951,293.101562 309.827148,293.101562 C311.943034,293.101562 313.692708,293.6875 315.076172,294.859375 C316.459635,296.03125 317.541992,297.642578 318.323242,299.693359 C318.974284,301.386068 319.462565,303.697266 319.788086,306.626953 C320.113607,309.556641 320.276367,312.160807 320.276367,314.439453 C320.276367,317.889974 320.105469,320.917318 319.763672,323.521484 C319.421875,326.125651 318.892904,328.339193 318.176758,330.162109 C317.362956,332.277995 316.256185,333.881185 314.856445,334.97168 C313.456706,336.062174 311.780273,336.607422 309.827148,336.607422 Z M374.446289,339 L374.446289,335.435547 C373.469727,335.337891 372.623372,335.17513 371.907227,334.947266 C371.191081,334.719401 370.507487,334.458984 369.856445,334.166016 C368.912435,333.742839 368.228841,333.156901 367.805664,332.408203 C367.382487,331.659505 367.170898,330.682943 367.170898,329.478516 L367.170898,329.478516 L367.170898,264.195312 L366.438477,263.414062 L341.87793,264.683594 L341.87793,268.248047 C342.887044,268.313151 344.050781,268.541016 345.369141,268.931641 C346.6875,269.322266 347.672201,269.729167 348.323242,270.152344 C349.169596,270.705729 349.845052,271.511393 350.349609,272.569336 C350.854167,273.627279 351.106445,274.77474 351.106445,276.011719 L351.106445,276.011719 L351.106445,330.113281 C351.106445,331.317708 350.919271,332.286133 350.544922,333.018555 C350.170573,333.750977 349.462565,334.3125 348.420898,334.703125 C347.802409,334.93099 347.094401,335.09375 346.296875,335.191406 C345.499349,335.289062 344.677409,335.370443 343.831055,335.435547 L343.831055,335.435547 L343.831055,339 L374.446289,339 Z M402.053711,340.660156 C408.791992,340.660156 414.252604,339.195312 418.435547,336.265625 C422.61849,333.335938 424.709961,329.201823 424.709961,323.863281 C424.709961,319.859375 423.359049,316.563477 420.657227,313.975586 C417.955404,311.387695 413.691081,309.345052 407.864258,307.847656 C404.088216,306.871094 401.150391,305.829427 399.050781,304.722656 C396.951172,303.615885 395.901367,301.825521 395.901367,299.351562 C395.901367,297.496094 396.617513,296.047526 398.049805,295.005859 C399.482096,293.964193 401.451497,293.443359 403.958008,293.443359 C407.148112,293.443359 410.126628,294.672201 412.893555,297.129883 C415.660482,299.587565 417.613607,302.509115 418.75293,305.894531 L418.75293,305.894531 L422.219727,305.894531 L421.438477,289.244141 L417.727539,289.244141 L416.702148,292.125 C415.00944,291.408854 412.917969,290.749674 410.427734,290.147461 C407.9375,289.545247 405.211263,289.244141 402.249023,289.244141 C395.999023,289.244141 390.945313,290.660156 387.087891,293.492188 C383.230469,296.324219 381.301758,300.035156 381.301758,304.625 C381.301758,307.098958 381.741211,309.23112 382.620117,311.021484 C383.499023,312.811849 384.670898,314.341797 386.135742,315.611328 C387.828451,317.04362 389.464193,318.093424 391.042969,318.760742 C392.621745,319.42806 394.517904,320.08724 396.731445,320.738281 C398.944987,321.389323 400.808594,321.942708 402.322266,322.398438 C403.835938,322.854167 405.227539,323.407552 406.49707,324.058594 C407.636393,324.677083 408.531576,325.409505 409.182617,326.255859 C409.833659,327.102214 410.15918,328.176432 410.15918,329.478516 C410.15918,331.88737 409.434896,333.669596 407.986328,334.825195 C406.53776,335.980794 404.332357,336.558594 401.370117,336.558594 C399.124023,336.558594 397.016276,336.054036 395.046875,335.044922 C393.077474,334.035807 391.327799,332.798828 389.797852,331.333984 C388.333008,329.869141 387.030924,328.217122 385.891602,326.37793 C384.752279,324.538737 383.938477,322.886719 383.450195,321.421875 L383.450195,321.421875 L379.885742,321.421875 L380.520508,339.634766 L384.329102,339.634766 L385.793945,336.314453 C387.454102,337.35612 389.789714,338.34082 392.800781,339.268555 C395.811849,340.196289 398.896159,340.660156 402.053711,340.660156 Z" id="Tesforschools" fill="#000000" fill-rule="nonzero"></path>
        <g id="undraw_secure_data_0rwp" transform="translate(22.000000, 81.000000)" fill-rule="nonzero" opacity="0.5">
            <g id="Group" transform="translate(57.000000, 314.000000)" fill="#EF426F">
                <rect id="Rectangle" x="9" y="0" width="3" height="20"></rect>
                <polygon id="Rectangle" transform="translate(10.500000, 10.000000) rotate(90.000000) translate(-10.500000, -10.000000) " points="9 0 12 0 12 20 9 20"></polygon>
            </g>
            <path d="M279.894916,7.14272356 C278.085161,6.35419021 277.154829,4.3335085 277.732437,2.44582081 C277.778245,2.30557643 277.807281,2.16039992 277.818937,2.01332517 L277.818937,2.01332517 C277.847758,1.17639326 277.337979,0.414855344 276.553227,0.122535446 C275.768476,-0.169784452 274.884713,0.0726591098 274.358971,0.724488131 L274.358971,0.724488131 C274.272225,0.842442039 274.199644,0.970183926 274.142724,1.1050843 C273.35419,2.91483889 271.333509,3.84517117 269.445821,3.26756255 C269.305576,3.22175472 269.1604,3.19271942 269.013325,3.18106342 L269.013325,3.18106342 C268.176393,3.15224194 267.414855,3.66202134 267.122535,4.44677274 C266.830216,5.23152415 267.072659,6.11528664 267.724488,6.64102861 L267.724488,6.64102861 C267.842442,6.72777511 267.970184,6.80035572 268.105084,6.85727644 C269.914839,7.64580979 270.845171,9.6664915 270.267563,11.5541792 C270.221755,11.6944236 270.192719,11.8396001 270.181063,11.9866748 L270.181063,11.9866748 C270.152242,12.8236067 270.662021,13.5851447 271.446773,13.8774646 C272.231524,14.1697845 273.115287,13.9273409 273.641029,13.2755119 L273.641029,13.2755119 C273.727775,13.157558 273.800356,13.0298161 273.857276,12.8949157 C274.64581,11.0851611 276.666491,10.1548288 278.554179,10.7324375 C278.694424,10.7782453 278.8396,10.8072806 278.986675,10.8189366 L278.986675,10.8189366 C279.823607,10.8477581 280.585145,10.3379787 280.877465,9.55322726 C281.169784,8.76847585 280.927341,7.88471336 280.275512,7.35897139 L280.275512,7.35897139 C280.157558,7.27222489 280.029816,7.19964428 279.894916,7.14272356 L279.894916,7.14272356 Z" id="Path" fill="#4D8AF0"></path>
            <path d="M77.8949157,59.1427236 C76.0851611,58.3541902 75.1548288,56.3335085 75.7324375,54.4458208 C75.7782453,54.3055764 75.8072806,54.1603999 75.8189366,54.0133252 L75.8189366,54.0133252 C75.8477581,53.1763933 75.3379787,52.4148553 74.5532273,52.1225354 C73.7684759,51.8302155 72.8847134,52.0726591 72.3589714,52.7244881 L72.3589714,52.7244881 C72.2722249,52.842442 72.1996443,52.9701839 72.1427236,53.1050843 C71.3541902,54.9148389 69.3335085,55.8451712 67.4458208,55.2675625 C67.3055764,55.2217547 67.1603999,55.1927194 67.0133252,55.1810634 L67.0133252,55.1810634 C66.1763933,55.1522419 65.4148553,55.6620213 65.1225354,56.4467727 C64.8302155,57.2315241 65.0726591,58.1152866 65.7244881,58.6410286 L65.7244881,58.6410286 C65.842442,58.7277751 65.9701839,58.8003557 66.1050843,58.8572764 C67.9148389,59.6458098 68.8451712,61.6664915 68.2675625,63.5541792 C68.2217547,63.6944236 68.1927194,63.8396001 68.1810634,63.9866748 L68.1810634,63.9866748 C68.1522419,64.8236067 68.6620213,65.5851447 69.4467727,65.8774646 C70.2315241,66.1697845 71.1152866,65.9273409 71.6410286,65.2755119 L71.6410286,65.2755119 C71.7277751,65.157558 71.8003557,65.0298161 71.8572764,64.8949157 C72.6458098,63.0851611 74.6664915,62.1548288 76.5541792,62.7324375 C76.6944236,62.7782453 76.8396001,62.8072806 76.9866748,62.8189366 L76.9866748,62.8189366 C77.8236067,62.8477581 78.5851447,62.3379787 78.8774646,61.5532273 C79.1697845,60.7684759 78.9273409,59.8847134 78.2755119,59.3589714 L78.2755119,59.3589714 C78.157558,59.2722249 78.0298161,59.1996443 77.8949157,59.1427236 Z" id="Path" fill="#FDD835"></path>
            <path d="M61.8949157,208.142724 C60.0851611,207.35419 59.1548288,205.333509 59.7324375,203.445821 C59.7782453,203.305576 59.8072806,203.1604 59.8189366,203.013325 L59.8189366,203.013325 C59.8477581,202.176393 59.3379787,201.414855 58.5532273,201.122535 C57.7684759,200.830216 56.8847134,201.072659 56.3589714,201.724488 L56.3589714,201.724488 C56.2722249,201.842442 56.1996443,201.970184 56.1427236,202.105084 C55.3541902,203.914839 53.3335085,204.845171 51.4458208,204.267563 C51.3055764,204.221755 51.1603999,204.192719 51.0133252,204.181063 L51.0133252,204.181063 C50.1763933,204.152242 49.4148553,204.662021 49.1225354,205.446773 C48.8302155,206.231524 49.0726591,207.115287 49.7244881,207.641029 L49.7244881,207.641029 C49.842442,207.727775 49.9701839,207.800356 50.1050843,207.857276 C51.9148389,208.64581 52.8451712,210.666491 52.2675625,212.554179 C52.2217547,212.694424 52.1927194,212.8396 52.1810634,212.986675 L52.1810634,212.986675 C52.1522419,213.823607 52.6620213,214.585145 53.4467727,214.877465 C54.2315241,215.169784 55.1152866,214.927341 55.6410286,214.275512 L55.6410286,214.275512 C55.7277751,214.157558 55.8003557,214.029816 55.8572764,213.894916 C56.6458098,212.085161 58.6664915,211.154829 60.5541792,211.732437 C60.6944236,211.778245 60.8396001,211.807281 60.9866748,211.818937 L60.9866748,211.818937 C61.8236067,211.847758 62.5851447,211.337979 62.8774646,210.553227 C63.1697845,209.768476 62.9273409,208.884713 62.2755119,208.358971 L62.2755119,208.358971 C62.157558,208.272225 62.0298161,208.199644 61.8949157,208.142724 L61.8949157,208.142724 Z" id="Path" fill="#FDD835"></path>
            <circle id="Oval" fill="#F55F44" cx="169" cy="18" r="7"></circle>
            <circle id="Oval" fill="#F55F44" cx="7" cy="159" r="7"></circle>
            <circle id="Oval" fill="#F55F44" cx="426" cy="64" r="7"></circle>
            <circle id="Oval" fill="#4D8AF0" cx="406" cy="170" r="7"></circle>
            <circle id="Oval" fill="#47E6B1" cx="23" cy="75" r="7"></circle>
            <circle id="Oval" fill="#47E6B1" cx="421" cy="321" r="7"></circle>
            <circle id="Oval" fill="#D0DF00" cx="450" cy="214" r="7"></circle>
        </g>
    </g>
</svg>