<?xml version="1.0" encoding="UTF-8"?>
<svg width="600px" height="500px" viewBox="0 0 600 500" version="1.1" xmlns="http://www.w3.org/2000/svg" xmlns:xlink="http://www.w3.org/1999/xlink">
    <!-- Generator: Sketch 56.2 (81672) - https://sketch.com -->
    <title>travel store</title>
    <desc>Created with Sketch.</desc>
    <defs>
        <polygon id="path-1" points="0.0425757943 0.027528 22.23456 0.027528 22.23456 20.28 0.0425757943 20.28"></polygon>
        <polygon id="path-3" points="0.00792068054 0.112788 20.65224 0.112788 20.65224 18.6032675 0.00792068054 18.6032675"></polygon>
    </defs>
    <g id="travel-store" stroke="none" stroke-width="1" fill="none" fill-rule="evenodd">
        <text font-family="LucidaGrande, Lucida Grande" font-size="100" font-weight="normal" fill="#D6A269">
            <tspan x="30.2579627" y="276">travel</tspan>
            <tspan x="300.179838" y="276" font-family="Kailasa" letter-spacing="-16"> </tspan>
            <tspan x="323.564453" y="276">store</tspan>
        </text>
        <g id="Group-15" transform="translate(212.000000, 153.000000)">
            <path d="M15.62424,39.792168 C12.90408,39.236568 10.46028,38.064528 8.24064,36.422568 C4.55904,33.699288 2.08344,30.124608 0.79068,25.731768 C0.75168,25.598928 0.73836,25.458528 0.71304,25.321728 C1.5144,22.720128 2.94,20.556168 5.15736,18.937128 C6.90912,17.658288 8.85012,16.909008 11.01156,16.664808 C13.23132,16.414248 15.31164,16.783008 17.28504,17.821008 C18.336,18.373848 19.21308,19.143168 20.05548,19.961568 C20.05584,19.987488 20.06004,20.012808 20.06808,20.037408 C20.03508,20.049648 20.00508,20.067048 19.9782,20.089728 C19.27428,20.234208 18.61788,20.485128 17.9976,20.860248 C16.82604,21.568848 15.7668,22.406328 14.89776,23.465688 C12.54396,26.335248 11.61084,29.596488 12.22776,33.277488 C12.65364,35.817648 13.85592,37.952328 15.62424,39.792168" id="Fill-1" fill="#35B34A"></path>
            <path d="M20.068224,20.037456 C20.060064,20.012736 20.055744,19.987416 20.055504,19.961496 L20.087664,19.944816 C20.335944,19.973256 20.560344,19.873296 20.784024,19.797456 C23.151864,18.994176 25.114104,17.600136 26.602464,15.601056 C28.784304,12.670896 29.493264,9.398736 28.728984,5.807376 C28.357104,4.059696 27.555144,2.527416 26.537304,1.087656 C28.380144,1.591776 30.042144,2.478216 31.597224,3.559296 C35.933424,6.573576 38.673024,10.678056 39.871104,15.816576 C39.910944,15.987576 39.935664,16.162296 39.967344,16.335336 C39.108864,18.177696 37.980744,19.801176 36.379104,21.100176 C34.450584,22.664256 32.243784,23.522856 29.812464,23.759256 C27.608184,23.973456 25.482384,23.518776 23.491704,22.547976 C22.206264,21.921096 21.088584,21.039216 20.068224,20.037456" id="Fill-3" fill="#EE4345"></path>
            <path d="M20.055444,19.96152 C19.213044,19.14312 18.335964,18.3738 17.285004,17.82108 C15.311604,16.78308 13.231284,16.4142 11.011524,16.66488 C8.850084,16.90896 6.909084,17.65824 5.157444,18.9372 C2.940084,20.55612 1.514484,22.7202 0.713004,25.32168 C0.065004,23.19708 -0.102156,21.01284 0.055164,18.81768 C0.355524,14.62704 1.806084,10.86096 4.442724,7.57296 C5.140764,6.70236 5.869164,5.85528 6.761364,5.1696 C7.690644,5.00988 8.636004,4.9788 9.561204,5.08392 C11.562684,5.31132 13.431444,5.96136 15.119484,7.08732 C16.882884,8.26368 18.242244,9.81276 19.168764,11.70288 C20.455164,14.32668 20.790084,17.085 20.087724,19.94472 L20.055444,19.96152 Z" id="Fill-5" fill="#FFCF02"></path>
            <path d="M20.087676,19.944768 C20.790156,17.085048 20.455236,14.326728 19.168836,11.702928 C18.242196,9.812688 16.882836,8.263608 15.119436,7.087368 C13.431396,5.961288 11.562636,5.311248 9.561276,5.083968 C8.635956,4.978848 7.690596,5.009928 6.761436,5.169648 C9.481716,2.658528 12.691356,1.109688 16.301436,0.388848 C19.544916,-0.258792 22.762596,-0.092232 25.936236,0.849648 C26.142996,0.910968 26.367156,0.932808 26.537316,1.087728 C27.555156,2.527368 28.357116,4.059768 28.728996,5.807328 C29.493276,9.398808 28.784316,12.670848 26.602476,15.601128 C25.114116,17.600208 23.151876,18.994128 20.784036,19.797408 C20.560236,19.873248 20.335956,19.973208 20.087676,19.944768" id="Fill-7" fill="#F89E1C"></path>
            <g id="Group-11" transform="translate(12.000000, 20.062560)">
                <mask id="mask-2" fill="white">
                    <use xlink:href="#path-1"></use>
                </mask>
                <g id="Clip-10"></g>
                <path d="M3.62424,19.729608 C1.85592,17.889768 0.65364,15.755088 0.22776,13.214928 C-0.38916,9.533928 0.54396,6.272688 2.89776,3.403128 C3.7668,2.343768 4.82604,1.506288 5.9976,0.797688 C6.61788,0.422568 7.27428,0.171648 7.9776,0.027528 C7.69668,1.583208 7.55748,3.150528 7.85172,4.712568 C8.38716,7.556688 9.69216,9.975408 11.92476,11.866848 C14.09952,13.709328 16.6074,14.656368 19.44876,14.758368 C20.39004,14.792208 21.31068,14.642208 22.23456,14.507088 C20.89476,15.962928 19.28256,17.058048 17.54856,17.973888 C14.26176,19.709808 10.74312,20.441568 7.04028,20.250408 C5.89044,20.191128 4.737,20.072088 3.62424,19.729608" id="Fill-9" fill="#2594D1" mask="url(#mask-2)"></path>
            </g>
            <g id="Group-14" transform="translate(19.680000, 16.222560)">
                <mask id="mask-4" fill="white">
                    <use xlink:href="#path-3"></use>
                </mask>
                <g id="Clip-13"></g>
                <path d="M14.554548,18.347028 C13.630668,18.482268 12.710028,18.632268 11.768748,18.598428 C8.927388,18.496308 6.419508,17.549388 4.244748,15.706788 C2.012148,13.815348 0.707148,11.396748 0.171708,8.552628 C-0.122532,6.990588 0.016668,5.423148 0.297588,3.867468 C0.325068,3.844548 0.355068,3.827028 0.388068,3.814908 C1.408548,4.816668 2.526348,5.698548 3.811788,6.325428 C5.802348,7.296228 7.928148,7.750908 10.132428,7.536708 C12.563748,7.300308 14.770548,6.441708 16.699068,4.877628 C18.300828,3.578628 19.428828,1.955148 20.287308,0.112788 C21.475428,6.795588 19.753548,12.647748 15.257868,17.704308 C15.047988,17.940348 14.790108,18.133788 14.554548,18.347028" id="Fill-12" fill="#A960A6" mask="url(#mask-4)"></path>
            </g>
        </g>
        <path d="M260.547996,175.103223 C353.252645,153.458218 423.779535,163.308384 472.128666,204.653722" id="Path-2" stroke="#DFDFDF" stroke-width="2" stroke-linecap="round" stroke-linejoin="round" stroke-dasharray="8,8" transform="translate(366.338331, 184.300162) rotate(6.000000) translate(-366.338331, -184.300162) "></path>
    </g>
</svg>