<?xml version="1.0" encoding="UTF-8"?>
<svg width="600px" height="500px" viewBox="0 0 600 500" version="1.1" xmlns="http://www.w3.org/2000/svg" xmlns:xlink="http://www.w3.org/1999/xlink">
    <title>travel store</title>
    <defs>
        <polygon id="path-1" points="0.0425757943 0.027528 22.23456 0.027528 22.23456 20.28 0.0425757943 20.28"></polygon>
        <polygon id="path-3" points="0.00792068054 0.112788 20.65224 0.112788 20.65224 18.6032675 0.00792068054 18.6032675"></polygon>
    </defs>
    <g id="travel-store" stroke="none" stroke-width="1" fill="none" fill-rule="evenodd">
        <path d="M55.7950721,277.220703 C50.9122352,277.220703 47.1036795,275.820978 44.3692909,273.021484 C41.6349022,270.221991 40.2677284,266.332056 40.2677284,261.351562 L40.2677284,230.199219 L33.6271034,230.199219 L33.6271034,222.972656 L40.2677284,222.972656 L40.2677284,213.353516 L49.886869,212.425781 L49.886869,222.972656 L63.7540565,222.972656 L63.7540565,230.199219 L49.886869,230.199219 L49.886869,259.59375 C49.886869,266.527378 52.8816307,269.994141 58.871244,269.994141 C60.1407816,269.994141 61.6869901,269.782554 63.5099159,269.359375 L63.5099159,276 C60.5476615,276.813806 57.9760726,277.220703 55.7950721,277.220703 Z M77.2794471,276 L77.2794471,222.972656 L86.8985877,222.972656 L86.8985877,232.933594 C90.7072005,225.511682 96.2409994,221.800781 103.50015,221.800781 C104.476718,221.800781 105.502098,221.882161 106.576322,222.044922 L106.576322,231.029297 C104.916158,230.475909 103.451328,230.199219 102.181791,230.199219 C96.0945208,230.199219 91.0001707,233.812464 86.8985877,241.039062 L86.8985877,276 L77.2794471,276 Z M145.541166,269.261719 C139.779418,274.567735 134.229344,277.220703 128.890775,277.220703 C124.496222,277.220703 120.850425,275.845391 117.953275,273.094727 C115.056125,270.344062 113.607572,266.869162 113.607572,262.669922 C113.607572,256.875622 116.040816,252.424169 120.907377,249.31543 C125.773938,246.20669 132.748152,244.652344 141.830228,244.652344 L144.12515,244.652344 L144.12515,238.255859 C144.12515,232.103485 140.96763,229.027344 134.652494,229.027344 C129.574344,229.027344 124.089372,230.589828 118.197416,233.714844 L118.197416,225.755859 C124.675313,223.119127 130.746216,221.800781 136.410306,221.800781 C142.334815,221.800781 146.704889,223.135403 149.520658,225.804688 C152.336427,228.473972 153.744291,232.624321 153.744291,238.255859 L153.744291,262.279297 C153.744291,267.780626 155.436982,270.53125 158.822416,270.53125 C159.245595,270.53125 159.864078,270.466146 160.677885,270.335938 L161.361478,275.658203 C159.180478,276.699875 156.771648,277.220703 154.134916,277.220703 C149.642706,277.220703 146.778151,274.567735 145.541166,269.261719 Z M144.12515,264.037109 L144.12515,250.316406 L140.902494,250.21875 C135.62903,250.21875 131.36475,251.219717 128.109525,253.22168 C124.854301,255.223643 123.226713,257.852197 123.226713,261.107422 C123.226713,263.418631 124.040507,265.371737 125.668119,266.966797 C127.295731,268.561857 129.281389,269.359375 131.62515,269.359375 C135.629077,269.359375 139.795702,267.585304 144.12515,264.037109 Z M184.408353,276 L164.681791,222.972656 L174.300931,222.972656 L189.730619,264.232422 L205.990385,222.972656 L214.97476,222.972656 L194.027494,276 L184.408353,276 Z M264.047025,274.291016 C257.601681,276.24415 252.084158,277.220703 247.494291,277.220703 C239.681752,277.220703 233.309745,274.6247 228.37808,269.432617 C223.446415,264.240534 220.980619,257.510458 220.980619,249.242188 C220.980619,241.201783 223.153449,234.610052 227.499174,229.466797 C231.844899,224.323542 237.403111,221.751953 244.173978,221.751953 C250.586771,221.751953 255.542776,224.030576 259.042142,228.587891 C262.541509,233.145205 264.291166,239.623005 264.291166,248.021484 L264.242338,251 L230.795072,251 C232.194819,263.597719 238.363377,269.896484 249.300931,269.896484 C253.304858,269.896484 258.220173,268.822276 264.047025,266.673828 L264.047025,274.291016 Z M231.234525,243.773438 L254.623197,243.773438 C254.623197,233.910107 250.944848,228.978516 243.588041,228.978516 C236.198681,228.978516 232.080884,233.910107 231.234525,243.773438 Z M280.892728,276 L280.892728,198.900391 L290.511869,198.900391 L290.511869,276 L280.892728,276 Z M347.246094,277.220703 C342.851541,277.220703 337.513052,276.195323 331.230469,274.144531 L331.230469,265.306641 C337.513052,268.431656 342.981748,269.994141 347.636719,269.994141 C350.40366,269.994141 352.698559,269.24545 354.521484,267.748047 C356.34441,266.250644 357.255859,264.378917 357.255859,262.132812 C357.255859,258.923316 354.820779,256.256719 349.950548,254.132945 L343.974609,251.585938 C335.673787,248.135399 331.523438,243.171256 331.523438,236.693359 C331.523438,232.07094 333.159163,228.433281 336.430664,225.780273 C339.702165,223.127265 344.186169,221.800781 349.882813,221.800781 C352.845067,221.800781 356.50714,222.207678 360.869141,223.021484 L362.871094,223.412109 L362.871094,231.419922 L361.737081,231.090331 C356.896437,229.715 353.010152,229.027344 350.078125,229.027344 C343.893198,229.027344 340.800781,231.273415 340.800781,235.765625 C340.800781,238.662775 343.144508,241.104157 347.832031,243.089844 L352.470703,245.042969 C357.711615,247.256521 361.422515,249.59211 363.603516,252.049805 C365.784516,254.507499 366.875,257.575502 366.875,261.253906 C366.875,265.908877 365.035826,269.733709 361.357422,272.728516 C357.679018,275.723322 352.975289,277.220703 347.246094,277.220703 Z M400.078125,277.220703 C395.195288,277.220703 391.386732,275.820978 388.652344,273.021484 C385.917955,270.221991 384.550781,266.332056 384.550781,261.351562 L384.550781,230.199219 L377.910156,230.199219 L377.910156,222.972656 L384.550781,222.972656 L384.550781,213.353516 L394.169922,212.425781 L394.169922,222.972656 L408.037109,222.972656 L408.037109,230.199219 L394.169922,230.199219 L394.169922,259.59375 C394.169922,266.527378 397.164684,269.994141 403.154297,269.994141 C404.423834,269.994141 405.970043,269.782554 407.792969,269.359375 L407.792969,276 C404.830714,276.813806 402.259125,277.220703 400.078125,277.220703 Z M442.314453,277.220703 C434.72978,277.220703 428.675153,274.70608 424.150391,269.676758 C419.625628,264.647436 417.363281,257.91736 417.363281,249.486328 C417.363281,240.95764 419.633766,234.211288 424.174805,229.24707 C428.715843,224.282853 434.876263,221.800781 442.65625,221.800781 C450.436237,221.800781 456.596657,224.282853 461.137695,229.24707 C465.678734,234.211288 467.949219,240.925088 467.949219,249.388672 C467.949219,258.047569 465.670596,264.850887 461.113281,269.798828 C456.555967,274.74677 450.289753,277.220703 442.314453,277.220703 Z M442.460938,269.994141 C452.649791,269.994141 457.744141,263.12572 457.744141,249.388672 C457.744141,235.814385 452.714894,229.027344 442.65625,229.027344 C432.630158,229.027344 427.617188,235.846937 427.617188,249.486328 C427.617188,263.158271 432.565055,269.994141 442.460938,269.994141 Z M542.900391,221.751953 C549.313183,221.751953 554.269188,224.030576 557.768555,228.587891 C561.267921,233.145205 563.017578,239.623005 563.017578,248.021484 L562.96875,251 L529.521484,251 C530.921231,263.597719 537.089789,269.896484 548.027344,269.896484 C552.03127,269.896484 556.946585,268.822276 562.773438,266.673828 L562.773438,274.291016 C556.328093,276.24415 550.81057,277.220703 546.220703,277.220703 C538.408164,277.220703 532.036157,274.6247 527.104492,269.432617 C522.172827,264.240534 519.707031,257.510458 519.707031,249.242188 C519.707031,241.201783 521.879861,234.610052 526.225586,229.466797 C530.571311,224.323542 536.129523,221.751953 542.900391,221.751953 Z M509.208984,221.800781 C510.185552,221.800781 511.210932,221.882161 512.285156,222.044922 L512.285156,231.029297 C510.624992,230.475909 509.160163,230.199219 507.890625,230.199219 C501.803355,230.199219 496.709005,233.812464 492.607422,241.039062 L492.607422,276 L482.988281,276 L482.988281,222.972656 L492.607422,222.972656 L492.607422,232.933594 C496.416035,225.511682 501.949833,221.800781 509.208984,221.800781 Z M542.314453,228.978516 C534.925093,228.978516 530.807296,233.910107 529.960938,243.773438 L529.960938,243.773438 L553.349609,243.773438 C553.349609,233.910107 549.671261,228.978516 542.314453,228.978516 Z" id="travelstore" fill="#295D96" fill-rule="nonzero"></path>
        <g id="Group-15" transform="translate(212.000000, 153.000000)">
            <path d="M15.62424,39.792168 C12.90408,39.236568 10.46028,38.064528 8.24064,36.422568 C4.55904,33.699288 2.08344,30.124608 0.79068,25.731768 C0.75168,25.598928 0.73836,25.458528 0.71304,25.321728 C1.5144,22.720128 2.94,20.556168 5.15736,18.937128 C6.90912,17.658288 8.85012,16.909008 11.01156,16.664808 C13.23132,16.414248 15.31164,16.783008 17.28504,17.821008 C18.336,18.373848 19.21308,19.143168 20.05548,19.961568 C20.05584,19.987488 20.06004,20.012808 20.06808,20.037408 C20.03508,20.049648 20.00508,20.067048 19.9782,20.089728 C19.27428,20.234208 18.61788,20.485128 17.9976,20.860248 C16.82604,21.568848 15.7668,22.406328 14.89776,23.465688 C12.54396,26.335248 11.61084,29.596488 12.22776,33.277488 C12.65364,35.817648 13.85592,37.952328 15.62424,39.792168" id="Fill-1" fill="#35B34A"></path>
            <path d="M20.068224,20.037456 C20.060064,20.012736 20.055744,19.987416 20.055504,19.961496 L20.087664,19.944816 C20.335944,19.973256 20.560344,19.873296 20.784024,19.797456 C23.151864,18.994176 25.114104,17.600136 26.602464,15.601056 C28.784304,12.670896 29.493264,9.398736 28.728984,5.807376 C28.357104,4.059696 27.555144,2.527416 26.537304,1.087656 C28.380144,1.591776 30.042144,2.478216 31.597224,3.559296 C35.933424,6.573576 38.673024,10.678056 39.871104,15.816576 C39.910944,15.987576 39.935664,16.162296 39.967344,16.335336 C39.108864,18.177696 37.980744,19.801176 36.379104,21.100176 C34.450584,22.664256 32.243784,23.522856 29.812464,23.759256 C27.608184,23.973456 25.482384,23.518776 23.491704,22.547976 C22.206264,21.921096 21.088584,21.039216 20.068224,20.037456" id="Fill-3" fill="#EE4345"></path>
            <path d="M20.055444,19.96152 C19.213044,19.14312 18.335964,18.3738 17.285004,17.82108 C15.311604,16.78308 13.231284,16.4142 11.011524,16.66488 C8.850084,16.90896 6.909084,17.65824 5.157444,18.9372 C2.940084,20.55612 1.514484,22.7202 0.713004,25.32168 C0.065004,23.19708 -0.102156,21.01284 0.055164,18.81768 C0.355524,14.62704 1.806084,10.86096 4.442724,7.57296 C5.140764,6.70236 5.869164,5.85528 6.761364,5.1696 C7.690644,5.00988 8.636004,4.9788 9.561204,5.08392 C11.562684,5.31132 13.431444,5.96136 15.119484,7.08732 C16.882884,8.26368 18.242244,9.81276 19.168764,11.70288 C20.455164,14.32668 20.790084,17.085 20.087724,19.94472 L20.055444,19.96152 Z" id="Fill-5" fill="#FFCF02"></path>
            <path d="M20.087676,19.944768 C20.790156,17.085048 20.455236,14.326728 19.168836,11.702928 C18.242196,9.812688 16.882836,8.263608 15.119436,7.087368 C13.431396,5.961288 11.562636,5.311248 9.561276,5.083968 C8.635956,4.978848 7.690596,5.009928 6.761436,5.169648 C9.481716,2.658528 12.691356,1.109688 16.301436,0.388848 C19.544916,-0.258792 22.762596,-0.092232 25.936236,0.849648 C26.142996,0.910968 26.367156,0.932808 26.537316,1.087728 C27.555156,2.527368 28.357116,4.059768 28.728996,5.807328 C29.493276,9.398808 28.784316,12.670848 26.602476,15.601128 C25.114116,17.600208 23.151876,18.994128 20.784036,19.797408 C20.560236,19.873248 20.335956,19.973208 20.087676,19.944768" id="Fill-7" fill="#F89E1C"></path>
            <g id="Group-11" transform="translate(12.000000, 20.062560)">
                <mask id="mask-2" fill="white">
                    <use xlink:href="#path-1"></use>
                </mask>
                <g id="Clip-10"></g>
                <path d="M3.62424,19.729608 C1.85592,17.889768 0.65364,15.755088 0.22776,13.214928 C-0.38916,9.533928 0.54396,6.272688 2.89776,3.403128 C3.7668,2.343768 4.82604,1.506288 5.9976,0.797688 C6.61788,0.422568 7.27428,0.171648 7.9776,0.027528 C7.69668,1.583208 7.55748,3.150528 7.85172,4.712568 C8.38716,7.556688 9.69216,9.975408 11.92476,11.866848 C14.09952,13.709328 16.6074,14.656368 19.44876,14.758368 C20.39004,14.792208 21.31068,14.642208 22.23456,14.507088 C20.89476,15.962928 19.28256,17.058048 17.54856,17.973888 C14.26176,19.709808 10.74312,20.441568 7.04028,20.250408 C5.89044,20.191128 4.737,20.072088 3.62424,19.729608" id="Fill-9" fill="#2594D1" mask="url(#mask-2)"></path>
            </g>
            <g id="Group-14" transform="translate(19.680000, 16.222560)">
                <mask id="mask-4" fill="white">
                    <use xlink:href="#path-3"></use>
                </mask>
                <g id="Clip-13"></g>
                <path d="M14.554548,18.347028 C13.630668,18.482268 12.710028,18.632268 11.768748,18.598428 C8.927388,18.496308 6.419508,17.549388 4.244748,15.706788 C2.012148,13.815348 0.707148,11.396748 0.171708,8.552628 C-0.122532,6.990588 0.016668,5.423148 0.297588,3.867468 C0.325068,3.844548 0.355068,3.827028 0.388068,3.814908 C1.408548,4.816668 2.526348,5.698548 3.811788,6.325428 C5.802348,7.296228 7.928148,7.750908 10.132428,7.536708 C12.563748,7.300308 14.770548,6.441708 16.699068,4.877628 C18.300828,3.578628 19.428828,1.955148 20.287308,0.112788 C21.475428,6.795588 19.753548,12.647748 15.257868,17.704308 C15.047988,17.940348 14.790108,18.133788 14.554548,18.347028" id="Fill-12" fill="#A960A6" mask="url(#mask-4)"></path>
            </g>
        </g>
        <path d="M260.547996,175.103223 C353.252645,153.458218 423.779535,163.308384 472.128666,204.653722" id="Path-2" stroke="#295D96" stroke-width="2" stroke-linecap="round" stroke-linejoin="round" stroke-dasharray="8,8" transform="translate(366.338331, 184.300162) rotate(6.000000) translate(-366.338331, -184.300162) "></path>
    </g>
</svg>