<svg width="600" height="500" viewBox="0 0 600 500" fill="none" xmlns="http://www.w3.org/2000/svg">
<g id="travel_store">
<g id="travelstore" filter="url(#filter0_i)">
<path fill-rule="evenodd" clip-rule="evenodd" d="M280.893 276V198.9H290.512V276H280.893ZM55.7952 277.221C50.9123 277.221 47.1038 275.821 44.3694 273.021C41.635 270.222 40.2678 266.332 40.2678 261.352V230.199H33.6272V222.973H40.2678V213.354L49.887 212.426V222.973H63.7542V230.199H49.887V259.594C49.887 266.527 52.8817 269.994 58.8713 269.994C60.1409 269.994 61.6871 269.783 63.51 269.359V276C60.5478 276.814 57.9762 277.221 55.7952 277.221ZM77.2795 276V222.973H86.8987V232.934C90.7073 225.512 96.2411 221.801 103.5 221.801C104.477 221.801 105.502 221.882 106.576 222.045V231.029C104.916 230.476 103.451 230.199 102.182 230.199C96.0946 230.199 91.0003 233.812 86.8987 241.039V276H77.2795ZM128.891 277.221C134.229 277.221 139.78 274.568 145.541 269.262C146.778 274.568 149.643 277.221 154.135 277.221C156.772 277.221 159.181 276.7 161.362 275.658L160.678 270.336C159.864 270.466 159.246 270.531 158.823 270.531C155.437 270.531 153.744 267.781 153.744 262.279V238.256C153.744 232.624 152.337 228.474 149.521 225.805C146.705 223.135 142.335 221.801 136.41 221.801C130.746 221.801 124.675 223.119 118.198 225.756V233.715C124.089 230.59 129.574 229.027 134.653 229.027C140.968 229.027 144.125 232.103 144.125 238.256V244.652H141.83C132.748 244.652 125.774 246.207 120.907 249.315C116.041 252.424 113.608 256.876 113.608 262.67C113.608 266.869 115.056 270.344 117.953 273.095C120.851 275.845 124.496 277.221 128.891 277.221ZM144.125 264.037V250.316L140.903 250.219C135.629 250.219 131.365 251.22 128.11 253.222C124.854 255.224 123.227 257.852 123.227 261.107C123.227 263.419 124.041 265.372 125.668 266.967C127.296 268.562 129.281 269.359 131.625 269.359C135.629 269.359 139.796 267.585 144.125 264.037ZM164.682 222.973L184.408 276H194.028L214.975 222.973H205.99L189.731 264.232L174.301 222.973H164.682ZM264.047 274.291C257.602 276.244 252.084 277.221 247.494 277.221C239.682 277.221 233.31 274.625 228.378 269.433C223.447 264.241 220.981 257.51 220.981 249.242C220.981 241.202 223.154 234.61 227.499 229.467C231.845 224.324 237.403 221.752 244.174 221.752C250.587 221.752 255.543 224.031 259.042 228.588C262.542 233.145 264.291 239.623 264.291 248.021L264.242 251H230.795C232.195 263.598 238.363 269.896 249.301 269.896C253.305 269.896 258.22 268.822 264.047 266.674V274.291ZM254.623 243.773H231.235C232.081 233.91 236.199 228.979 243.588 228.979C250.945 228.979 254.623 233.91 254.623 243.773ZM331.231 274.145C337.513 276.195 342.852 277.221 347.246 277.221C352.975 277.221 357.679 275.723 361.358 272.729C365.036 269.734 366.875 265.909 366.875 261.254C366.875 257.576 365.785 254.507 363.604 252.05C361.423 249.592 357.712 247.257 352.471 245.043L347.832 243.09C343.145 241.104 340.801 238.663 340.801 235.766C340.801 231.273 343.893 229.027 350.078 229.027C353.01 229.027 356.897 229.715 361.737 231.09L362.871 231.42V223.412L360.869 223.021C356.507 222.208 352.845 221.801 349.883 221.801C344.186 221.801 339.702 223.127 336.431 225.78C333.159 228.433 331.524 232.071 331.524 236.693C331.524 243.171 335.674 248.135 343.975 251.586L349.951 254.133C354.821 256.257 357.256 258.923 357.256 262.133C357.256 264.379 356.345 266.251 354.522 267.748C352.699 269.245 350.404 269.994 347.637 269.994C342.982 269.994 337.513 268.432 331.231 265.307V274.145ZM400.078 277.221C395.195 277.221 391.387 275.821 388.652 273.021C385.918 270.222 384.551 266.332 384.551 261.352V230.199H377.91V222.973H384.551V213.354L394.17 212.426V222.973H408.037V230.199H394.17V259.594C394.17 266.527 397.165 269.994 403.154 269.994C404.424 269.994 405.97 269.783 407.793 269.359V276C404.831 276.814 402.259 277.221 400.078 277.221ZM424.15 269.677C428.675 274.706 434.73 277.221 442.315 277.221C450.29 277.221 456.556 274.747 461.113 269.799C465.671 264.851 467.949 258.048 467.949 249.389C467.949 240.925 465.679 234.211 461.138 229.247C456.597 224.283 450.436 221.801 442.656 221.801C434.876 221.801 428.716 224.283 424.175 229.247C419.634 234.211 417.363 240.958 417.363 249.486C417.363 257.917 419.626 264.647 424.15 269.677ZM442.461 269.994C452.65 269.994 457.744 263.126 457.744 249.389C457.744 235.814 452.715 229.027 442.656 229.027C432.63 229.027 427.617 235.847 427.617 249.486C427.617 263.158 432.565 269.994 442.461 269.994ZM492.608 222.973H482.988V276H492.608V241.039C496.709 233.812 501.803 230.199 507.891 230.199C509.16 230.199 510.625 230.476 512.285 231.029V222.045C511.211 221.882 510.186 221.801 509.209 221.801C501.95 221.801 496.416 225.512 492.608 232.934V222.973ZM562.774 274.291C556.328 276.244 550.811 277.221 546.221 277.221C538.408 277.221 532.036 274.625 527.105 269.433C522.173 264.241 519.707 257.51 519.707 249.242C519.707 241.202 521.88 234.61 526.226 229.467C530.571 224.324 536.13 221.752 542.9 221.752C549.313 221.752 554.269 224.031 557.769 228.588C561.268 233.145 563.018 239.623 563.018 248.021L562.969 251H529.522C530.921 263.598 537.09 269.896 548.027 269.896C552.031 269.896 556.947 268.822 562.774 266.674V274.291ZM542.315 228.979C534.925 228.979 530.807 233.91 529.961 243.773H553.35C553.35 233.91 549.671 228.979 542.315 228.979Z" fill="#295D96"/>
</g>
<g id="Group 15">
<path id="Fill 1" fill-rule="evenodd" clip-rule="evenodd" d="M227.624 192.792C224.904 192.237 222.46 191.065 220.241 189.423C216.559 186.699 214.084 183.125 212.791 178.732C212.752 178.599 212.738 178.459 212.713 178.322C213.514 175.72 214.94 173.556 217.157 171.937C218.909 170.658 220.85 169.909 223.012 169.665C225.231 169.414 227.312 169.783 229.285 170.821C230.336 171.374 231.213 172.143 232.056 172.962C232.056 172.988 232.06 173.013 232.068 173.037C232.035 173.05 232.005 173.067 231.978 173.09C231.274 173.234 230.618 173.485 229.998 173.86C228.826 174.569 227.767 175.406 226.898 176.466C224.544 179.335 223.611 182.597 224.228 186.278C224.654 188.818 225.856 190.952 227.624 192.792Z" fill="#35B34A"/>
<path id="Fill 3" fill-rule="evenodd" clip-rule="evenodd" d="M232.068 173.037C232.06 173.013 232.056 172.987 232.055 172.961L232.088 172.945C232.336 172.973 232.56 172.873 232.784 172.797C235.152 171.994 237.114 170.6 238.602 168.601C240.784 165.671 241.493 162.399 240.729 158.807C240.357 157.06 239.555 155.527 238.537 154.088C240.38 154.592 242.042 155.478 243.597 156.559C247.933 159.574 250.673 163.678 251.871 168.817C251.911 168.988 251.936 169.162 251.967 169.335C251.109 171.178 249.981 172.801 248.379 174.1C246.451 175.664 244.244 176.523 241.812 176.759C239.608 176.973 237.482 176.519 235.492 175.548C234.206 174.921 233.088 174.039 232.068 173.037Z" fill="#EE4345"/>
<path id="Fill 5" fill-rule="evenodd" clip-rule="evenodd" d="M232.055 172.961C231.213 172.143 230.336 171.374 229.285 170.821C227.312 169.783 225.231 169.414 223.012 169.665C220.85 169.909 218.909 170.658 217.157 171.937C214.94 173.556 213.514 175.72 212.713 178.322C212.065 176.197 211.898 174.013 212.055 171.818C212.356 167.627 213.806 163.861 216.443 160.573C217.141 159.702 217.869 158.855 218.761 158.17C219.691 158.01 220.636 157.979 221.561 158.084C223.563 158.311 225.431 158.961 227.119 160.087C228.883 161.264 230.242 162.813 231.169 164.703C232.455 167.327 232.79 170.085 232.088 172.945L232.055 172.961Z" fill="#FFCF02"/>
<path id="Fill 7" fill-rule="evenodd" clip-rule="evenodd" d="M232.088 172.945C232.79 170.085 232.455 167.327 231.169 164.703C230.242 162.813 228.883 161.264 227.119 160.087C225.431 158.961 223.563 158.311 221.561 158.084C220.636 157.979 219.691 158.01 218.761 158.17C221.482 155.659 224.691 154.11 228.301 153.389C231.545 152.741 234.763 152.908 237.936 153.85C238.143 153.911 238.367 153.933 238.537 154.088C239.555 155.527 240.357 157.06 240.729 158.807C241.493 162.399 240.784 165.671 238.603 168.601C237.114 170.6 235.152 171.994 232.784 172.797C232.56 172.873 232.336 172.973 232.088 172.945Z" fill="#F89E1C"/>
<g id="Group 11">
<mask id="mask0" mask-type="alpha" maskUnits="userSpaceOnUse" x="224" y="173" width="23" height="21">
<path id="Clip 10" fill-rule="evenodd" clip-rule="evenodd" d="M224.042 173.09H246.234V193.343H224.042V173.09Z" fill="white"/>
</mask>
<g mask="url(#mask0)">
<path id="Fill 9" fill-rule="evenodd" clip-rule="evenodd" d="M227.624 192.792C225.856 190.952 224.654 188.818 224.228 186.277C223.611 182.596 224.544 179.335 226.898 176.466C227.767 175.406 228.826 174.569 229.998 173.86C230.618 173.485 231.274 173.234 231.978 173.09C231.697 174.646 231.557 176.213 231.852 177.775C232.387 180.619 233.692 183.038 235.925 184.929C238.099 186.772 240.607 187.719 243.449 187.821C244.39 187.855 245.311 187.705 246.234 187.57C244.895 189.025 243.282 190.121 241.548 191.036C238.262 192.772 234.743 193.504 231.04 193.313C229.89 193.254 228.737 193.135 227.624 192.792Z" fill="#2594D1"/>
</g>
</g>
<g id="Group 14">
<mask id="mask1" mask-type="alpha" maskUnits="userSpaceOnUse" x="231" y="169" width="22" height="19">
<path id="Clip 13" fill-rule="evenodd" clip-rule="evenodd" d="M231.688 169.335H252.332V187.826H231.688V169.335Z" fill="white"/>
</mask>
<g mask="url(#mask1)">
<path id="Fill 12" fill-rule="evenodd" clip-rule="evenodd" d="M246.234 187.57C245.31 187.705 244.39 187.855 243.449 187.821C240.607 187.719 238.099 186.772 235.925 184.929C233.692 183.038 232.387 180.619 231.852 177.775C231.557 176.213 231.696 174.646 231.977 173.09C232.005 173.067 232.035 173.05 232.068 173.037C233.088 174.039 234.206 174.921 235.492 175.548C237.482 176.519 239.608 176.973 241.812 176.759C244.244 176.523 246.45 175.664 248.379 174.1C249.981 172.801 251.109 171.178 251.967 169.335C253.155 176.018 251.433 181.87 246.938 186.927C246.728 187.163 246.47 187.356 246.234 187.57Z" fill="#A960A6"/>
</g>
</g>
</g>
<path id="Path 2" d="M262.089 164.096C262.089 164.096 403.778 146.341 469.422 215.6" stroke="#295D96" stroke-width="2" stroke-linecap="round" stroke-linejoin="round" stroke-dasharray="8 8"/>
</g>
<defs>
<filter id="filter0_i" x="33.6272" y="198.9" width="529.391" height="82.3203" filterUnits="userSpaceOnUse" color-interpolation-filters="sRGB">
<feFlood flood-opacity="0" result="BackgroundImageFix"/>
<feBlend mode="normal" in="SourceGraphic" in2="BackgroundImageFix" result="shape"/>
<feColorMatrix in="SourceAlpha" type="matrix" values="0 0 0 0 0 0 0 0 0 0 0 0 0 0 0 0 0 0 127 0" result="hardAlpha"/>
<feOffset dy="4"/>
<feGaussianBlur stdDeviation="2"/>
<feComposite in2="hardAlpha" operator="arithmetic" k2="-1" k3="1"/>
<feColorMatrix type="matrix" values="0 0 0 0 0 0 0 0 0 0 0 0 0 0 0 0 0 0 0.25 0"/>
<feBlend mode="normal" in2="shape" result="effect1_innerShadow"/>
</filter>
</defs>
</svg>
