<svg width="500" height="500" viewBox="0 0 500 500" fill="none" xmlns="http://www.w3.org/2000/svg">
<path d="M142.864 236.912C142.864 247.92 150.032 254.768 161.36 254.768C172.752 254.768 179.92 247.856 179.92 236.912V207.216H171.728V236.4C171.728 243.056 168.016 246.832 161.36 246.832C154.704 246.832 151.056 243.12 151.056 236.4V207.216H142.864V236.912ZM198.189 207.216H189.997V254H198.189V207.216ZM238.767 253.936V246.32H219.311L227.759 239.088C234.863 233.008 238.447 228.08 238.447 221.552C238.447 212.08 232.239 206.384 222.255 206.384C212.335 206.384 205.807 213.04 205.743 223.28H213.871C213.935 217.264 217.135 213.68 222.255 213.68C227.183 213.68 230.063 216.688 230.063 222C230.063 226.48 227.951 229.552 221.615 234.928L206.319 247.856V254L238.767 253.936ZM243.815 230.704C243.815 245.168 251.175 254.832 263.591 254.832C276.007 254.832 283.431 245.168 283.431 230.704C283.431 216.176 275.559 206.32 263.591 206.32C251.623 206.32 243.815 216.176 243.815 230.704ZM251.879 230.704C251.879 219.632 256.231 213.552 263.591 213.552C271.015 213.552 275.367 219.632 275.367 230.704C275.367 241.52 271.015 247.6 263.591 247.6C256.231 247.6 251.879 241.52 251.879 230.704ZM321.58 253.936V246.32H302.124L310.572 239.088C317.676 233.008 321.26 228.08 321.26 221.552C321.26 212.08 315.052 206.384 305.068 206.384C295.148 206.384 288.62 213.04 288.556 223.28H296.684C296.748 217.264 299.948 213.68 305.068 213.68C309.996 213.68 312.876 216.688 312.876 222C312.876 226.48 310.764 229.552 304.428 234.928L289.132 247.856V254L321.58 253.936ZM359.705 253.936V246.32H340.249L348.697 239.088C355.801 233.008 359.385 228.08 359.385 221.552C359.385 212.08 353.177 206.384 343.193 206.384C333.273 206.384 326.745 213.04 326.681 223.28H334.809C334.873 217.264 338.073 213.68 343.193 213.68C348.121 213.68 351.001 216.688 351.001 222C351.001 226.48 348.889 229.552 342.553 234.928L327.257 247.856V254L359.705 253.936Z" fill="url(#paint0_linear_515_24067)"/>
<path d="M183.012 307L184.788 302.224H193.284L195.084 307H196.26L189.876 289.96H188.172L181.86 307H183.012ZM188.868 291.184C188.916 291.064 188.988 290.848 189.012 290.752C189.036 290.872 189.108 291.04 189.156 291.184L192.9 301.168H185.172L188.868 291.184ZM198.441 311.872H199.545V304.504C200.385 306.376 201.969 307.288 204.009 307.288C207.393 307.288 209.313 304.648 209.313 301.24C209.313 297.832 207.393 295.192 204.009 295.192C202.017 295.192 200.361 296.104 199.497 298.072L199.329 295.48H198.441V311.872ZM199.569 301.24C199.569 298.312 201.129 296.2 203.889 296.2C206.625 296.2 208.185 298.312 208.185 301.24C208.185 304.144 206.625 306.28 203.889 306.28C201.129 306.28 199.569 304.144 199.569 301.24ZM212.105 311.872H213.209V304.504C214.049 306.376 215.633 307.288 217.673 307.288C221.057 307.288 222.977 304.648 222.977 301.24C222.977 297.832 221.057 295.192 217.673 295.192C215.681 295.192 214.025 296.104 213.161 298.072L212.993 295.48H212.105V311.872ZM213.233 301.24C213.233 298.312 214.793 296.2 217.553 296.2C220.289 296.2 221.849 298.312 221.849 301.24C221.849 304.144 220.289 306.28 217.553 306.28C214.793 306.28 213.233 304.144 213.233 301.24ZM237.992 295.312C237.608 295.216 237.344 295.192 236.984 295.192C235.352 295.192 234.08 296.032 233.624 297.328L233.528 295.48H232.496V307H233.6V299.992C233.6 297.832 234.992 296.272 237.128 296.272H237.992V295.312ZM244.512 307.288C247.104 307.288 248.76 306.064 249.432 303.688H248.304C247.848 305.392 246.552 306.28 244.512 306.28C241.8 306.28 240.168 304.408 240.072 301.264H249.432V300.496C249.432 297.352 247.368 295.192 244.368 295.192C241.152 295.192 238.968 297.664 238.968 301.264C238.968 304.888 241.176 307.288 244.512 307.288ZM244.368 296.2C246.744 296.2 248.304 297.856 248.304 300.352H240.096C240.36 297.832 242.016 296.2 244.368 296.2ZM256.647 307.288C258.639 307.288 260.295 306.376 261.159 304.408L261.327 307H262.215V289.672H261.111V297.976C260.271 296.104 258.687 295.192 256.647 295.192C253.263 295.192 251.343 297.832 251.343 301.24C251.343 304.648 253.263 307.288 256.647 307.288ZM256.767 306.28C254.031 306.28 252.471 304.168 252.471 301.24C252.471 298.336 254.031 296.2 256.767 296.2C259.527 296.2 261.087 298.336 261.087 301.24C261.087 304.168 259.527 306.28 256.767 306.28ZM270.551 307.288C273.143 307.288 274.799 306.064 275.471 303.688H274.343C273.887 305.392 272.591 306.28 270.551 306.28C267.839 306.28 266.207 304.408 266.111 301.264H275.471V300.496C275.471 297.352 273.407 295.192 270.407 295.192C267.191 295.192 265.007 297.664 265.007 301.264C265.007 304.888 267.215 307.288 270.551 307.288ZM270.407 296.2C272.783 296.2 274.343 297.856 274.343 300.352H266.135C266.399 297.832 268.055 296.2 270.407 296.2ZM277.214 303.88C277.214 305.968 278.774 307.288 281.222 307.288C283.742 307.288 285.422 305.968 285.422 304C285.422 302.392 284.534 301.456 282.518 300.928L280.598 300.424C279.206 300.064 278.534 299.368 278.534 298.384C278.534 296.968 279.542 296.2 281.39 296.2C283.118 296.2 284.174 297.064 284.246 298.552H285.326C285.254 296.464 283.766 295.192 281.39 295.192C279.014 295.192 277.43 296.464 277.43 298.384C277.43 299.8 278.366 300.904 280.334 301.408L282.278 301.912C283.766 302.296 284.318 302.872 284.318 304C284.318 305.416 283.118 306.28 281.174 306.28C279.398 306.28 278.294 305.368 278.294 303.88H277.214ZM288.923 291.952C289.451 291.952 289.931 291.496 289.931 290.968C289.931 290.416 289.451 289.936 288.923 289.936C288.371 289.936 287.915 290.416 287.915 290.968C287.915 291.496 288.371 291.952 288.923 291.952ZM288.371 307H289.475V295.48H288.371V307ZM292.265 300.88C292.265 303.928 294.209 306.568 297.521 306.568C299.609 306.568 301.313 305.488 302.105 303.64V306.76C302.105 309.376 300.401 311.128 297.857 311.128C295.649 311.128 294.089 309.952 293.657 307.936H292.577C293.057 310.576 295.049 312.136 297.833 312.136C301.049 312.136 303.185 309.976 303.185 306.76V295.48H302.297L302.153 298.168C301.385 296.248 299.777 295.192 297.641 295.192C294.233 295.192 292.265 297.832 292.265 300.88ZM293.393 300.88C293.393 298.36 294.905 296.2 297.641 296.2C300.401 296.2 301.913 298.192 301.913 300.856C301.913 303.568 300.329 305.56 297.593 305.56C294.929 305.56 293.393 303.424 293.393 300.88ZM307.944 307V301.048C307.944 298.144 309.408 296.2 312.024 296.2C314.112 296.2 315.432 297.16 315.432 300.208V307H316.536V299.992C316.536 297.112 315.312 295.192 312.048 295.192C310.32 295.192 308.736 296.104 307.968 297.712L307.728 295.48H306.84V307H307.944Z" fill="url(#paint1_linear_515_24067)"/>
<defs>
<linearGradient id="paint0_linear_515_24067" x1="138" y1="186" x2="359.39" y2="278.263" gradientUnits="userSpaceOnUse">
<stop stop-color="#FFFF99"/>
<stop offset="1" stop-color="#99FFFF"/>
</linearGradient>
<linearGradient id="paint1_linear_515_24067" x1="181.5" y1="282" x2="289.666" y2="356.094" gradientUnits="userSpaceOnUse">
<stop stop-color="#FFFF99"/>
<stop offset="1" stop-color="#99FFFF"/>
</linearGradient>
</defs>
</svg>
