<?xml version="1.0" encoding="UTF-8"?>
<svg width="135px" height="85px" viewBox="0 0 135 85" version="1.1" xmlns="http://www.w3.org/2000/svg" xmlns:xlink="http://www.w3.org/1999/xlink">
    <!-- Generator: Sketch 56.2 (81672) - https://sketch.com -->
    <title>Combined Shape</title>
    <desc>Created with Sketch.</desc>
    <g id="Page-1" stroke="none" stroke-width="1" fill="none" fill-rule="evenodd">
        <g id="institute-copy" transform="translate(-225.000000, -250.000000)" stroke="#FFFFFF" stroke-width="3">
            <path d="M262.5,254 L262.5,260.5 L233,260.5 C229.410149,260.5 226.5,263.410149 226.5,267 L226.5,327 C226.5,330.589851 229.410149,333.5 233,333.5 L352,333.5 C355.589851,333.5 358.5,330.589851 358.5,327 L358.5,267 C358.5,263.410149 355.589851,260.5 352,260.5 L322.5,260.5 L322.5,254 C322.5,252.619288 321.380712,251.5 320,251.5 L265,251.5 C263.619288,251.5 262.5,252.619288 262.5,254 Z M293,322.5 C277.812169,322.5 265.5,310.187831 265.5,295 C265.5,279.812169 277.812169,267.5 293,267.5 C308.187831,267.5 320.5,279.812169 320.5,295 C320.5,310.187831 308.187831,322.5 293,322.5 Z M244.5,282.5 C241.186292,282.5 238.5,279.813708 238.5,276.5 C238.5,273.186292 241.186292,270.5 244.5,270.5 C247.813708,270.5 250.5,273.186292 250.5,276.5 C250.5,279.813708 247.813708,282.5 244.5,282.5 Z" id="Combined-Shape"></path>
        </g>
    </g>
</svg>