<svg width="500" height="500" viewBox="0 0 500 500" fill="none" xmlns="http://www.w3.org/2000/svg">
<g clip-path="url(#clip0_515_24018)">
<path d="M195.868 319.148H193.516V336.5H195.868V319.148ZM201.786 336.5V330.284C201.786 328.004 203.01 326.492 205.122 326.492C206.85 326.492 207.954 327.452 207.954 329.828V336.5H210.21V329.324C210.21 326.324 208.794 324.428 205.698 324.428C204.042 324.428 202.554 325.22 201.81 326.564L201.57 324.764H199.53V336.5H201.786ZM216.647 336.5V326.66H218.951V324.764H216.647V321.092H214.391V324.764H212.087V326.66H214.391V336.5H216.647ZM225.923 336.788C228.827 336.788 230.795 335.372 231.371 332.852H229.259C228.875 334.196 227.723 334.916 225.971 334.916C223.739 334.916 222.443 333.548 222.275 331.076L231.347 331.052V330.212C231.347 326.732 229.163 324.428 225.827 324.428C222.419 324.428 220.091 326.972 220.091 330.644C220.091 334.292 222.467 336.788 225.923 336.788ZM225.827 326.324C227.819 326.324 229.091 327.62 229.091 329.564H222.323C222.611 327.5 223.859 326.324 225.827 326.324ZM233.122 330.332C233.122 333.62 235.234 336.188 238.57 336.188C240.418 336.188 241.954 335.372 242.722 334.004V336.356C242.722 338.588 241.282 340.028 239.074 340.028C237.106 340.028 235.81 339.02 235.522 337.292H233.266C233.698 340.268 235.882 342.068 239.074 342.068C242.674 342.068 244.954 339.716 244.954 336.02V324.764H242.938L242.77 326.756C242.026 325.292 240.562 324.428 238.666 324.428C235.258 324.428 233.122 327.02 233.122 330.332ZM235.378 330.284C235.378 328.124 236.722 326.396 238.978 326.396C241.282 326.396 242.626 328.028 242.626 330.284C242.626 332.588 241.234 334.22 238.954 334.22C236.746 334.22 235.378 332.492 235.378 330.284ZM254.93 324.668C254.474 324.572 254.138 324.524 253.73 324.524C252.122 324.524 250.946 325.34 250.466 326.564L250.322 324.788H248.21V336.5H250.466V330.284C250.466 328.028 251.786 326.732 253.922 326.732H254.93V324.668ZM260.009 336.788C261.905 336.788 263.513 335.948 264.113 334.604L264.353 336.5H266.273V329.132C266.273 325.964 264.305 324.428 261.401 324.428C258.377 324.428 256.361 326.036 256.361 328.484H258.329C258.329 327.068 259.409 326.228 261.305 326.228C262.889 326.228 264.065 326.924 264.065 328.892V329.228L260.369 329.516C257.609 329.732 256.001 331.076 256.001 333.236C256.001 335.372 257.489 336.788 260.009 336.788ZM260.657 335.036C259.193 335.036 258.281 334.412 258.281 333.164C258.281 332.012 259.097 331.244 261.089 331.052L264.089 330.812V331.436C264.089 333.644 262.793 335.036 260.657 335.036ZM272.522 336.5V326.66H274.826V324.764H272.522V321.092H270.266V324.764H267.962V326.66H270.266V336.5H272.522ZM277.955 321.98C278.771 321.98 279.443 321.308 279.443 320.492C279.443 319.652 278.771 319.004 277.955 319.004C277.139 319.004 276.467 319.652 276.467 320.492C276.467 321.308 277.139 321.98 277.955 321.98ZM276.851 336.5H279.107V324.764H276.851V336.5ZM281.614 330.62C281.614 334.244 284.206 336.788 287.734 336.788C291.238 336.788 293.83 334.244 293.83 330.62C293.83 326.996 291.238 324.452 287.734 324.452C284.206 324.452 281.614 326.996 281.614 330.62ZM283.894 330.62C283.894 328.172 285.454 326.468 287.734 326.468C289.99 326.468 291.574 328.172 291.574 330.62C291.574 333.068 289.99 334.772 287.734 334.772C285.454 334.772 283.894 333.068 283.894 330.62ZM298.583 336.5V330.284C298.583 328.004 299.807 326.492 301.919 326.492C303.647 326.492 304.751 327.452 304.751 329.828V336.5H307.007V329.324C307.007 326.324 305.591 324.428 302.495 324.428C300.839 324.428 299.351 325.22 298.607 326.564L298.367 324.764H296.327V336.5H298.583Z" fill="#03363D"/>
<g clip-path="url(#clip1_515_24018)">
<path d="M245.29 171.205V233.082H194.043L245.29 171.205ZM245.29 149C245.29 155.796 242.59 162.314 237.785 167.12C232.98 171.926 226.462 174.626 219.666 174.626C212.871 174.626 206.353 171.926 201.548 167.12C196.743 162.314 194.043 155.796 194.043 149H245.29ZM253.732 233.087C253.732 226.291 256.432 219.773 261.237 214.967C266.042 210.161 272.56 207.461 279.355 207.461C286.151 207.461 292.669 210.161 297.474 214.967C302.279 219.773 304.979 226.291 304.979 233.087H253.732V233.087ZM253.732 210.882V149H304.99L253.732 210.877V210.882ZM282.393 286.027C285.028 286.086 287.58 285.101 289.492 283.286L293.011 287.085C290.687 289.476 287.463 291.252 282.453 291.252C273.862 291.252 268.309 285.55 268.309 277.842C268.274 276.075 268.596 274.319 269.254 272.679C269.912 271.04 270.894 269.549 272.141 268.297C273.388 267.045 274.874 266.057 276.511 265.392C278.148 264.727 279.902 264.398 281.669 264.426C290.199 264.426 295.034 270.917 294.607 279.92H274.444C275.156 283.659 277.788 286.044 282.376 286.044L282.393 286.027ZM288.516 275.627C287.968 272.134 285.885 269.563 281.718 269.563C277.842 269.563 275.14 271.756 274.444 275.627H288.522H288.516ZM150 285.737L165.514 269.969H150.367V265.023H172.712V270.067L157.198 285.83H172.932V290.781H150V285.737V285.737ZM190.348 286.022C192.984 286.081 195.536 285.095 197.448 283.28L200.967 287.08C198.643 289.47 195.419 291.247 190.409 291.247C181.818 291.247 176.265 285.545 176.265 277.836C176.23 276.069 176.551 274.314 177.21 272.674C177.868 271.034 178.85 269.544 180.097 268.292C181.344 267.04 182.83 266.052 184.467 265.386C186.104 264.721 187.858 264.393 189.625 264.42C198.155 264.42 202.99 270.912 202.562 279.914H182.41C183.123 283.653 185.754 286.038 190.343 286.038L190.348 286.022ZM196.483 275.621C195.934 272.129 193.851 269.557 189.685 269.557C185.809 269.557 183.106 271.75 182.41 275.621H196.488H196.483ZM236.08 277.831C236.08 269.607 242.236 264.431 249.018 264.431C250.645 264.41 252.257 264.744 253.741 265.412C255.225 266.08 256.545 267.064 257.608 268.296V253.099H263.09V290.709H257.608V287.162C256.565 288.445 255.247 289.477 253.752 290.181C252.256 290.885 250.621 291.244 248.968 291.23C242.39 291.23 236.085 286.022 236.085 277.836L236.08 277.831ZM257.915 277.781C257.872 276.173 257.356 274.614 256.431 273.298C255.506 271.981 254.214 270.967 252.716 270.382C251.217 269.796 249.58 269.665 248.008 270.006C246.436 270.346 244.999 271.143 243.877 272.295C242.755 273.448 241.998 274.906 241.701 276.487C241.403 278.068 241.578 279.702 242.204 281.183C242.83 282.665 243.879 283.93 245.219 284.819C246.56 285.707 248.133 286.181 249.741 286.181C254.456 286.181 257.91 282.42 257.91 277.781H257.915ZM298.192 285.238L303.159 282.661C303.815 283.832 304.779 284.801 305.946 285.464C307.113 286.126 308.439 286.458 309.781 286.422C312.884 286.422 314.496 284.832 314.496 283.023C314.496 280.961 311.497 280.501 308.235 279.826C303.849 278.894 299.283 277.452 299.283 272.151C299.283 268.077 303.159 264.311 309.26 264.365C314.068 264.365 317.648 266.273 319.676 269.355L315.071 271.877C314.435 270.934 313.569 270.17 312.555 269.656C311.541 269.141 310.413 268.894 309.277 268.938C306.327 268.938 304.825 270.38 304.825 272.03C304.825 273.883 307.205 274.399 310.932 275.226C315.175 276.159 319.978 277.546 319.978 282.902C319.978 286.455 316.875 291.247 309.529 291.197C304.156 291.197 300.374 289.032 298.197 285.221L298.192 285.238ZM334.873 279.262L330.525 284.004V290.693H325.043V253.082H330.525V277.716L342.164 264.941H348.841L338.754 275.961L349.104 290.698H342.898L334.878 279.262H334.873ZM219.513 264.426C212.989 264.426 207.535 268.647 207.535 275.665V290.715H213.126V276.361C213.126 272.14 215.555 269.607 219.705 269.607C223.855 269.607 225.916 272.129 225.916 276.361V290.715H231.475V275.665C231.475 268.658 225.993 264.426 219.496 264.426" fill="#03363D"/>
</g>
</g>
<defs>
<clipPath id="clip0_515_24018">
<rect width="500" height="500" fill="white"/>
</clipPath>
<clipPath id="clip1_515_24018">
<rect width="199" height="142" fill="white" transform="translate(150 149)"/>
</clipPath>
</defs>
</svg>
