<?xml version="1.0" encoding="UTF-8"?>
<svg width="43px" height="48px" viewBox="0 0 43 48" version="1.1" xmlns="http://www.w3.org/2000/svg" xmlns:xlink="http://www.w3.org/1999/xlink">
    <title>icon/clipboard</title>
    <g id="design-system" stroke="none" stroke-width="1" fill="none" fill-rule="evenodd">
        <g id="Desktop-HD" transform="translate(-339.000000, -1152.000000)" fill="#7C8500" fill-rule="nonzero">
            <g id="Group-8" transform="translate(220.000000, 1152.000000)">
                <path d="M147.843199,0 C148.851845,0 149.6771,0.778546713 149.6771,1.73010381 L149.6771,1.73010381 L149.6771,5.01730104 L159.519039,5.01730104 C160.527685,5.01730104 161.352941,5.79584775 161.352941,6.74740484 L161.352941,6.74740484 L161.352941,45.3287197 C161.352941,46.2802768 160.527685,47.0588235 159.519039,47.0588235 L159.519039,47.0588235 L120.833902,47.0588235 C119.825256,47.0588235 119,46.2802768 119,45.3287197 L119,45.3287197 L119,6.74740484 C119,5.79584775 119.825256,5.01730104 120.833902,5.01730104 L120.833902,5.01730104 L125.469598,5.01730104 C126.478244,5.01730104 127.303499,5.79584775 127.303499,6.74740484 C127.303499,7.69896194 126.478244,8.47750865 125.469598,8.47750865 L125.469598,8.47750865 L122.667803,8.47750865 L122.667803,43.5986159 L157.695326,43.5986159 L157.695326,8.47750865 L147.853387,8.47750865 C146.844741,8.47750865 146.019485,7.69896194 146.019485,6.74740484 L146.019485,6.74740484 L146.019485,3.46020761 L134.353833,3.46020761 L134.353833,9.10226836 L143.849368,9.10226836 C144.858014,9.10226836 145.68327,9.88081507 145.68327,10.8323722 C145.68327,11.7839293 144.858014,12.562476 143.849368,12.562476 L143.849368,12.562476 L132.519931,12.562476 C131.511285,12.562476 130.686029,11.7839293 130.686029,10.8323722 L130.686029,10.8323722 L130.686029,1.73010381 C130.686029,0.778546713 131.511285,0 132.519931,0 L132.519931,0 Z M146.029674,20.8477509 C146.753046,20.1749327 147.914517,20.1749327 148.627701,20.8573626 C149.340885,21.5397924 149.340885,22.6355248 148.617513,23.3083429 L148.617513,23.3083429 L138.765385,32.5259516 C138.408793,32.8623606 137.940129,33.0257593 137.471466,33.0257593 C136.992613,33.0257593 136.52395,32.8527489 136.167358,32.5163399 L136.167358,32.5163399 L131.745617,28.3160323 C131.032433,27.6336025 131.032433,26.53787 131.755805,25.8650519 C132.479178,25.1922338 133.640649,25.1922338 134.353833,25.8746636 L134.353833,25.8746636 L137.481654,28.8446751 Z" id="icon/clipboard"></path>
            </g>
        </g>
    </g>
</svg>