<?xml version="1.0" encoding="UTF-8"?>
<svg width="45px" height="45px" viewBox="0 0 45 45" version="1.1" xmlns="http://www.w3.org/2000/svg" xmlns:xlink="http://www.w3.org/1999/xlink">
    <title>icon/clock</title>
    <defs>
        <path d="M124.540065,6.54891761 C129.894396,1.19452925 137.527559,-1.07506443 144.947661,0.481228383 C145.846225,0.666501336 146.420565,1.55581151 146.235294,2.45438534 C146.050023,3.36222281 145.160723,3.93656896 144.280686,3.75129601 C137.972209,2.42659439 131.478462,4.35343311 126.920797,8.91114776 C119.509958,16.3220659 119.509958,28.3833352 126.920797,35.7942533 C134.331635,43.2051714 146.392774,43.2051714 153.803613,35.7942533 C160.825382,28.7724084 161.195924,17.5911856 154.933766,10.1339493 L154.933766,10.1339493 L151.070866,13.9968903 C150.413154,14.6453457 149.35711,14.6453457 148.708661,13.9968903 C148.060213,13.3391713 148.060213,12.2831155 148.708661,11.6346602 L148.708661,11.6346602 L153.794349,6.54891761 C154.452061,5.90046227 155.508106,5.90046227 156.156554,6.54891761 C160.380732,10.7731409 162.705882,16.3776478 162.705882,22.3527005 C162.705882,28.3277533 160.380732,33.9322601 156.156554,38.1564835 C151.932376,42.3807068 146.32793,44.7058824 140.352941,44.7058824 C134.377953,44.7058824 128.773506,42.3807068 124.549328,38.1564835 C120.325151,33.9322601 118,28.3184896 118,22.3527005 C118,16.3869114 120.325151,10.7731409 124.540065,6.54891761 Z M140.343678,6.79903609 C141.260769,6.79903609 142.011116,7.54939155 142.001938,8.46649267 L142.001938,8.46649267 L142.001938,22.3341732 C142.001938,22.3897551 142.001938,22.445337 141.992589,22.5009189 C141.992589,22.5287098 141.983326,22.5472371 141.983326,22.5750281 C141.983326,22.6120827 141.983326,22.6398736 141.974062,22.6676645 C141.974062,22.6954555 141.964799,22.7232464 141.955535,22.7510374 L141.955535,22.7510374 L141.937008,22.8251466 C141.927744,22.8529375 141.918481,22.8807284 141.909217,22.9085194 L141.909217,22.9085194 L141.881427,22.9826286 C141.872163,23.0104195 141.853636,23.0289468 141.844372,23.0567378 C141.835109,23.0845287 141.816582,23.103056 141.807318,23.1308469 C141.798055,23.1586379 141.779528,23.1864288 141.770264,23.2049561 C141.751737,23.2327471 141.742473,23.260538 141.723946,23.2790653 C141.705419,23.3068562 141.686892,23.3253835 141.668365,23.3531745 C141.659101,23.3717018 141.649838,23.3902291 141.631311,23.4087564 C141.594257,23.445811 141.557202,23.4921292 141.520148,23.5291838 L141.520148,23.5291838 L134.377953,30.6714561 C134.053729,30.9956838 133.627605,31.1624295 133.201482,31.1624295 C132.775359,31.1624295 132.349236,30.9956838 132.025012,30.6714561 C131.376563,30.0137372 131.376563,28.9576813 132.025012,28.309226 L132.025012,28.309226 L138.676239,21.657927 L138.676239,8.46649267 C138.676239,7.54939155 139.426586,6.79903609 140.343678,6.79903609 Z" id="path-1"></path>
    </defs>
    <g id="design-system" stroke="none" stroke-width="1" fill="none" fill-rule="evenodd">
        <g id="Desktop-HD" transform="translate(-698.000000, -1152.000000)">
            <g id="Group-7" transform="translate(580.000000, 1152.000000)">
                <mask id="mask-2" fill="white">
                    <use xlink:href="#path-1"></use>
                </mask>
                <use id="icon/clock" fill="#CA592C" fill-rule="nonzero" xlink:href="#path-1"></use>
            </g>
        </g>
    </g>
</svg>