<svg width="56" height="56" viewBox="0 0 56 56" fill="none" xmlns="http://www.w3.org/2000/svg">
<path fill-rule="evenodd" clip-rule="evenodd" d="M44.8371 8.20338C45.661 7.39111 46.9838 7.39111 47.7961 8.20338C53.0874 13.4948 56 20.5152 56 27.9997C56 35.4842 53.0874 42.5046 47.7961 47.796C42.5048 53.0874 35.4845 56 28 56C20.5155 56 13.4952 53.0874 8.2039 47.796C2.91256 42.5046 0 35.4726 0 27.9997C0 20.5268 2.91256 13.4948 8.19229 8.20338C14.8993 1.49631 24.4608 -1.34666 33.7555 0.602802C34.8811 0.834881 35.6005 1.94886 35.3684 3.07444C35.1363 4.21163 34.0224 4.93107 32.92 4.69899C25.0178 3.03963 16.8835 5.45325 11.1745 11.1624C1.89142 20.4455 1.89142 35.5539 11.1745 44.837C20.4575 54.1202 35.5657 54.1202 44.8487 44.837C53.6444 36.0412 54.1086 22.0353 46.2644 12.6941L41.4256 17.5329C40.6017 18.3452 39.2789 18.3452 38.4666 17.5329C37.6544 16.7091 37.6544 15.3862 38.4666 14.5739L44.8371 8.20338ZM25.8999 10.6053C25.8999 9.45648 26.8399 8.51656 27.9886 8.51656C29.1374 8.51656 30.0773 9.45648 30.0657 10.6053V27.9764C30.0657 28.046 30.0657 28.1156 30.0541 28.1852C30.0541 28.2026 30.0512 28.2171 30.0483 28.2316C30.0454 28.2462 30.0425 28.2607 30.0425 28.2781C30.0425 28.3245 30.0425 28.3593 30.0309 28.3941C30.0309 28.4289 30.0193 28.4637 30.0077 28.4985C30.0019 28.5159 29.999 28.5304 29.9961 28.545C29.9932 28.5595 29.9903 28.574 29.9845 28.5914L29.9497 28.6958C29.9439 28.7132 29.9381 28.7277 29.9323 28.7422C29.9265 28.7567 29.9207 28.7712 29.9149 28.7886C29.9091 28.806 29.9004 28.8205 29.8917 28.8351C29.883 28.8496 29.8743 28.8641 29.8685 28.8815C29.8626 28.8989 29.8539 28.9134 29.8452 28.9279C29.8365 28.9424 29.8278 28.9569 29.822 28.9743C29.8139 28.9986 29.8002 29.0228 29.7887 29.0432C29.7837 29.052 29.7791 29.0601 29.7756 29.0671C29.7665 29.0809 29.7591 29.0946 29.7522 29.1076C29.7415 29.1276 29.7317 29.1459 29.7176 29.16C29.706 29.1774 29.6944 29.1919 29.6828 29.2064C29.6712 29.2209 29.6596 29.2354 29.648 29.2528C29.6364 29.276 29.6248 29.2992 29.6016 29.3224C29.5784 29.3456 29.5551 29.3717 29.5319 29.3979C29.5087 29.424 29.4855 29.4501 29.4623 29.4733L20.5158 38.4199C20.1096 38.826 19.5759 39.0349 19.0421 39.0349C18.5083 39.0349 17.9745 38.826 17.5684 38.4199C16.7561 37.596 16.7561 36.2732 17.5684 35.4609L25.8999 27.1293V10.6053Z" fill="#08A039"/>
</svg>
