<svg width="63" height="56" viewBox="0 0 63 56" fill="none" xmlns="http://www.w3.org/2000/svg">
<path fill-rule="evenodd" clip-rule="evenodd" d="M31.1111 0C39.3734 0 47.1384 2.87645 53.0036 8.0981C58.9454 13.3975 62.2222 20.459 62.2222 28C62.2222 35.541 58.9454 42.6025 53.0164 47.9019C47.1512 53.1236 39.3734 56 31.1239 56C28.6758 56 26.2532 55.7409 23.8944 55.2355C22.6576 54.9764 21.8543 53.7325 22.122 52.4757C22.3771 51.2189 23.6011 50.4026 24.8379 50.6747C26.878 51.1152 28.9945 51.3355 31.1111 51.3355C45.7359 51.3355 57.6321 40.8663 57.6321 28C57.6321 15.1337 45.7359 4.66451 31.1111 4.66451C16.4863 4.66451 4.59016 15.1337 4.59016 28C4.59016 33.3383 6.59199 38.3785 10.3916 42.5507C10.9654 43.1985 11.1566 44.1185 10.8506 44.9477C10.2386 46.6321 9.40984 48.1222 8.3643 49.3919C10.1876 49.2494 12.2914 48.7571 14.2805 47.5521C15.3643 46.8913 16.7796 47.2541 17.4299 48.3554C18.0801 49.4567 17.7231 50.895 16.6393 51.5558C11.8834 54.4452 6.75774 54.2638 4.13115 53.888C2.8561 53.7066 1.83607 52.7737 1.55556 51.491C1.2623 50.1953 1.78506 48.8866 2.8816 48.161C4.20765 47.28 5.25319 46.075 6.01821 44.559C2.12933 39.7779 0 33.9472 0 28C0 20.459 3.27687 13.3975 9.21858 8.0981C15.0838 2.87645 22.8488 0 31.1111 0ZM31.0957 31.0585C32.7576 31.0585 34.1048 29.6895 34.1048 28.0007C34.1048 26.3119 32.7576 24.9428 31.0957 24.9428C29.4338 24.9428 28.0866 26.3119 28.0866 28.0007C28.0866 29.6895 29.4338 31.0585 31.0957 31.0585ZM43.4898 28.0007C43.4898 29.6895 42.1426 31.0585 40.4807 31.0585C38.8188 31.0585 37.4716 29.6895 37.4716 28.0007C37.4716 26.3119 38.8188 24.9428 40.4807 24.9428C42.1426 24.9428 43.4898 26.3119 43.4898 28.0007ZM21.7168 31.0585C23.3787 31.0585 24.7259 29.6895 24.7259 28.0007C24.7259 26.3119 23.3787 24.9428 21.7168 24.9428C20.0549 24.9428 18.7077 26.3119 18.7077 28.0007C18.7077 29.6895 20.0549 31.0585 21.7168 31.0585Z" fill="#009FE3"/>
</svg>
