<?xml version="1.0" encoding="UTF-8"?>
<svg width="45px" height="45px" viewBox="0 0 45 45" version="1.1" xmlns="http://www.w3.org/2000/svg" xmlns:xlink="http://www.w3.org/1999/xlink">
    <title>plane</title>
    <g id="design-system" stroke="none" stroke-width="1" fill="none" fill-rule="evenodd">
        <g id="Desktop-HD" transform="translate(-1058.000000, -1152.000000)" fill="#006C87" fill-rule="nonzero">
            <g id="Group-9" transform="translate(940.000000, 1152.000000)">
                <path d="M161.741613,1.25844692 C160.500382,0.0171576148 158.731165,-0.334849801 157.110155,0.332111618 L120.642058,15.3387436 C118.983996,16.0242317 117.94655,17.6175284 118.002127,19.4053555 C118.039179,21.1931827 119.169255,22.7216359 120.864368,23.3052272 L133.332252,27.5663696 C133.888027,27.7609 134.499379,27.6404764 134.953262,27.2606789 L146.226531,17.6916352 C146.930513,17.0987806 147.013879,16.0427584 146.421053,15.3387436 C145.828226,14.6347287 144.772254,14.5513585 144.068272,15.1442131 L133.51751,24.1018755 L121.948129,20.1464238 C121.401617,19.9611567 121.327514,19.4887257 121.318251,19.3034587 C121.308988,19.1089282 121.355303,18.6364972 121.892552,18.4234401 L158.360649,3.40754483 C158.879372,3.19448771 159.240625,3.48165165 159.370306,3.6113386 C159.499987,3.74102554 159.787137,4.10229631 159.57409,4.62104408 L144.568168,41.090865 C144.345858,41.6281395 143.873449,41.6651929 143.688191,41.6651929 C143.49367,41.6559296 143.030524,41.5910861 142.845266,41.0352849 L139.445776,31.0771804 C139.149363,30.2064252 138.204545,29.7432575 137.324568,30.0396848 C136.453854,30.3361121 135.990708,31.2809741 136.287122,32.1609927 L139.686612,42.1190972 C140.270175,43.8142908 141.798556,44.9444199 143.586299,45 C143.632613,45 143.678928,45 143.725243,45 C145.457408,45 146.995052,43.9717678 147.661982,42.3599444 L162.667904,5.89012345 C163.334834,4.26903666 162.982843,2.49973623 161.741613,1.25844692 Z" id="plane"></path>
            </g>
        </g>
    </g>
</svg>