<?xml version="1.0" encoding="UTF-8"?>
<svg width="45px" height="45px" viewBox="0 0 45 45" version="1.1" xmlns="http://www.w3.org/2000/svg" xmlns:xlink="http://www.w3.org/1999/xlink">
    <title>icon/current location</title>
    <defs>
        <path d="M161.45572,1.25022178 C160.222602,0.0170454735 158.464948,-0.33266124 156.854533,0.329940954 L120.62479,15.2384903 C118.977565,15.9194981 117.946899,17.5023812 118.002113,19.2785231 C118.038923,21.0546651 119.161612,22.5731285 120.845647,23.1529054 L133.232041,27.3861972 C133.784183,27.5794562 134.39154,27.4598197 134.842456,27.0825045 L146.042044,17.5760036 C146.741425,16.9870239 146.824246,15.9379038 146.235294,15.2384903 C145.646342,14.5390769 144.597272,14.4562516 143.897891,15.0452314 L133.416089,23.9443469 L121.922324,20.0147478 C121.379384,19.8306916 121.305765,19.3613484 121.296563,19.1772923 C121.287361,18.9840333 121.333373,18.5146901 121.86711,18.3030255 L158.096853,3.38527329 C158.612186,3.1736087 158.971079,3.45889576 159.099912,3.58773508 C159.228745,3.71657439 159.514019,4.07548391 159.302364,4.59084118 L144.39452,40.8222973 C144.173663,41.3560601 143.704342,41.3928714 143.520294,41.3928714 C143.327044,41.3836686 142.866926,41.3192489 142.682878,40.7670804 L139.305607,30.8740615 C139.011131,30.0089976 138.072489,29.5488572 137.198264,29.843347 C136.333241,30.1378369 135.873122,31.0765233 136.167598,31.9507901 L139.544869,41.843809 C140.124619,43.5279229 141.64301,44.6506655 143.419068,44.7058824 C143.46508,44.7058824 143.511092,44.7058824 143.557104,44.7058824 C145.277948,44.7058824 146.805542,43.6843706 147.468112,42.083082 L162.375957,5.85162591 C163.038528,4.24113446 162.688838,2.48339809 161.45572,1.25022178 Z" id="path-1"></path>
    </defs>
    <g id="design-system" stroke="none" stroke-width="1" fill="none" fill-rule="evenodd">
        <g id="Desktop-HD" transform="translate(-1058.000000, -1152.000000)">
            <g id="Group-9" transform="translate(940.000000, 1152.000000)">
                <mask id="mask-2" fill="white">
                    <use xlink:href="#path-1"></use>
                </mask>
                <use id="icon/current-location" fill="#006C87" fill-rule="nonzero" xlink:href="#path-1"></use>
            </g>
        </g>
    </g>
</svg>