<svg width="105" height="38" viewBox="0 0 105 38" fill="none" xmlns="http://www.w3.org/2000/svg">
<path d="M27.8873 0.656038H0.279297V7.32004H18.9833C18.9833 7.32004 6.8313 17.456 5.3193 37H13.3273C14.9513 18.688 25.1433 9.44804 27.8873 7.09604V0.656038Z" fill="#FD7037"/>
<path d="M29.4452 26.808C29.8932 32.52 35.3812 37.896 43.2772 37.896C52.0132 37.896 57.2212 32.016 57.2212 25.24C57.2212 17.456 52.0692 13.088 44.7892 13.088C42.3812 13.088 39.8052 13.872 38.2372 15.328L40.0292 7.32004H55.2612V0.656038H34.7652L30.4532 19.304C31.2372 19.528 36.7812 21.432 37.5092 21.712C38.6852 20.368 40.6452 19.248 43.1092 19.248C46.4692 19.248 49.5492 21.208 49.5492 25.352C49.5492 28.992 46.7492 31.288 43.2772 31.288C39.4132 31.288 36.8372 28.544 36.6692 25.184L29.4452 26.808Z" fill="#FD7037"/>
<path d="M66.8242 9.22404C66.8242 6.92804 68.4482 5.36004 70.5202 5.36004C72.6482 5.36004 74.2162 6.92804 74.2162 9.22404C74.2162 11.52 72.6482 13.144 70.5202 13.144C68.4482 13.144 66.8242 11.576 66.8242 9.22404ZM61.2242 9.22404C61.2242 14.32 65.4242 18.352 70.5202 18.352C75.5602 18.352 79.8722 14.432 79.8722 9.22404C79.8722 4.07204 75.5602 0.0400391 70.5202 0.0400391C65.4802 0.0400391 61.2242 4.07204 61.2242 9.22404ZM91.2962 28.488C91.2962 26.192 92.9202 24.624 94.9922 24.624C97.1202 24.624 98.6882 26.192 98.6882 28.488C98.6882 30.784 97.1202 32.408 94.9922 32.408C92.9202 32.408 91.2962 30.84 91.2962 28.488ZM85.6962 28.488C85.6962 33.584 89.8962 37.616 94.9922 37.616C100.032 37.616 104.344 33.696 104.344 28.488C104.344 23.336 100.032 19.304 94.9922 19.304C89.9522 19.304 85.6962 23.336 85.6962 28.488ZM73.2082 37L98.8562 0.656038H92.3602L66.7122 37H73.2082Z" fill="#FD7037"/>
</svg>
