<?xml version="1.0" encoding="UTF-8"?>
<svg width="32px" height="27px" viewBox="0 0 32 27" version="1.1" xmlns="http://www.w3.org/2000/svg" xmlns:xlink="http://www.w3.org/1999/xlink">
    <title>3</title>
    <g id="design-system" stroke="none" stroke-width="1" fill="none" fill-rule="evenodd">
        <g id="Desktop-HD" transform="translate(-971.000000, -1652.000000)" fill="#7C8500" fill-rule="nonzero">
            <g id="Group-12" transform="translate(1.000000, 1451.000000)">
                <g id="Group-5" transform="translate(970.000000, 201.000000)">
                    <path d="M10.76,26.6 C17.04,26.6 20.72,22.48 20.72,18 C20.72,13.24 17.12,10.24 13.2,10.08 L19.92,4.48 L19.92,0.04 L1.56,0.04 L1.56,4.8 L12.92,4.8 L6.12,10.64 L8.56,14.48 C9.12,14.28 9.8,14.08 10.92,14.08 C13.4,14.08 15.16,15.48 15.16,17.92 C15.16,20.08 13.52,21.84 10.76,21.84 C8.04,21.84 6.16,19.92 6.04,17.28 L0.72,18.32 C1.04,22.68 4.72,26.6 10.76,26.6 Z M28.0933333,26.28 C30.1333333,26.28 31.7733333,24.64 31.7733333,22.64 C31.7733333,20.64 30.1333333,19 28.0933333,19 C26.0933333,19 24.4533333,20.64 24.4533333,22.64 C24.4533333,24.64 26.0933333,26.28 28.0933333,26.28 Z" id="3."></path>
                </g>
            </g>
        </g>
    </g>
</svg>