<?xml version="1.0" encoding="UTF-8"?>
<svg width="31px" height="28px" viewBox="0 0 31 28" version="1.1" xmlns="http://www.w3.org/2000/svg" xmlns:xlink="http://www.w3.org/1999/xlink">
    <title>2</title>
    <g id="design-system" stroke="none" stroke-width="1" fill="none" fill-rule="evenodd">
        <g id="Desktop-HD" transform="translate(-582.000000, -1651.000000)" fill="#CA592C" fill-rule="nonzero">
            <g id="Group-12" transform="translate(1.000000, 1451.000000)">
                <g id="Group-10" transform="translate(580.000000, 200.000000)">
                    <path d="M20.48,27 L20.48,22.24 L8.04,22.24 C8.44,21.24 9.28,20.52 10.28,19.88 L15.28,16.84 C18.48,14.88 20.32,12.16 20.32,8.8 C20.32,4.28 16.76,0.44 10.96,0.44 C4.92,0.44 1.48,4.56 1.48,9.12 C1.48,9.76 1.6,10.56 1.68,10.92 L6.92,11.08 C6.8,10.64 6.72,10.12 6.72,9.64 C6.72,7.2 8.08,5.32 10.84,5.32 C13.44,5.32 14.76,7 14.76,8.88 C14.76,10.68 13.88,12.04 11.68,13.36 L7.4,15.92 C2.76,18.72 1.32,22.44 1.28,27 L20.48,27 Z M28.2533333,27.28 C30.2933333,27.28 31.9333333,25.64 31.9333333,23.64 C31.9333333,21.64 30.2933333,20 28.2533333,20 C26.2533333,20 24.6133333,21.64 24.6133333,23.64 C24.6133333,25.64 26.2533333,27.28 28.2533333,27.28 Z" id="2."></path>
                </g>
            </g>
        </g>
    </g>
</svg>