<?xml version="1.0" encoding="UTF-8"?>
<svg width="1024px" height="600px" viewBox="0 0 1024 600" version="1.1" xmlns="http://www.w3.org/2000/svg" xmlns:xlink="http://www.w3.org/1999/xlink">
    <!-- Generator: Sketch 58 (84663) - https://sketch.com -->
    <title>design system hero</title>
    <desc>Created with Sketch.</desc>
    <defs>
        <linearGradient x1="50%" y1="0%" x2="50%" y2="100%" id="linearGradient-1">
            <stop stop-color="#FF842F" offset="0%"></stop>
            <stop stop-color="#CA592C" offset="100%"></stop>
        </linearGradient>
        <linearGradient x1="97.6371344%" y1="0%" x2="50%" y2="100%" id="linearGradient-2">
            <stop stop-color="#EAF100" offset="0%"></stop>
            <stop stop-color="#D0DF00" offset="100%"></stop>
        </linearGradient>
    </defs>
    <g id="design-system-hero" stroke="none" stroke-width="1" fill="none" fill-rule="evenodd" transform="translate(0.000000, 0.000000)">
        <rect fill="#FBEAE3" x="0" y="0" width="1024" height="600"></rect>
        <rect id="Rectangle-Copy" fill="#E08AF7" x="612" y="224" width="28" height="27" rx="8"></rect>
        <rect id="Rectangle-Copy" fill="#DAF78A" x="652" y="118" width="40" height="25" rx="8"></rect>
        <path d="M345.321706,192.096633 C344.945896,192.516352 344.486576,192.95705 343.943737,193.418741 C343.400897,193.880432 342.764115,194.300145 342.033369,194.677892 C341.302624,195.055639 340.488377,195.370423 339.590605,195.622255 C338.692832,195.874086 337.680243,196 336.552808,196 C334.966047,196 333.400188,195.66423 331.855184,194.992679 C330.310179,194.321129 328.932223,193.334804 327.721274,192.033675 C326.510325,190.732546 325.52905,189.137638 324.77743,187.248902 C324.025806,185.360166 323.65,183.198646 323.65,180.764275 C323.65,178.455821 323.98405,176.430707 324.65216,174.688873 C325.32027,172.947039 326.1554,171.467551 327.157559,170.250366 C327.992697,169.24304 328.911334,168.403615 329.913499,167.732064 C330.915664,167.060514 331.928253,166.504395 332.951296,166.06369 C333.974339,165.622985 334.96605,165.3082 335.926458,165.119327 C336.886866,164.930453 337.721991,164.836018 338.431857,164.836018 C339.392265,164.836018 340.185634,164.867496 340.811987,164.930454 C341.43834,164.993412 342.002049,165.077354 342.503132,165.182284 C343.004214,165.287214 343.463533,165.42362 343.881102,165.591508 L345.055507,166.054945 C345.1425,166.088756 345.231233,166.123149 345.321706,166.158126 L345.321706,153 L352.65,153 L352.65,194.992679 L345.509611,194.992679 L345.321706,192.096633 Z M344.65,172.546392 C343.951024,171.969069 343.138991,171.567011 342.213877,171.340206 C341.288762,171.113401 340.106689,171 338.667621,171 C337.228554,171 336.036201,171.278348 335.090529,171.835052 C334.144856,172.391755 333.322544,173.123707 332.623568,174.030928 C332.006825,174.855674 331.523717,175.814428 331.174229,176.907216 C330.824741,178 330.65,179.144324 330.65,180.340206 C330.65,182.814445 331.266734,184.87628 332.50022,186.525773 C333.733707,188.175266 335.522235,189 337.865859,189 C339.099345,189 340.147793,188.762889 341.011233,188.28866 C341.874674,187.814431 342.573639,187.206189 343.10815,186.463918 C343.642661,185.721646 344.033259,184.907221 344.279956,184.020619 C344.526652,183.134016 344.65,182.278355 344.65,181.453608 L344.65,172.546392 Z M388.266205,190.802395 L387.210768,191.823353 C386.635072,192.380242 385.803524,192.968061 384.716098,193.586826 C383.628673,194.205592 382.242759,194.762473 380.558316,195.257485 C378.873872,195.752497 376.858967,196 374.513539,196 C372.125468,196 369.950649,195.608121 367.989019,194.824351 C366.027389,194.040582 364.353632,192.957758 362.967697,191.575848 C361.581763,190.193939 360.515675,188.533609 359.769403,186.59481 C359.023131,184.656012 358.65,182.51099 358.65,180.159681 C358.65,178.014627 359.023131,176.024294 359.769403,174.188623 C360.515675,172.352952 361.560441,170.754498 362.903731,169.393214 C364.247022,168.031929 365.846153,166.959418 367.701173,166.175649 C369.556193,165.391879 371.613741,165 373.873881,165 C376.603105,165 378.916515,165.484692 380.814179,166.454092 C382.711843,167.423491 384.236354,168.691942 385.38774,170.259481 C386.539132,171.82702 387.37068,173.600789 387.882409,175.580838 C388.394136,177.560888 388.65,179.582159 388.65,181.644711 L388.65,182.696607 L366.26194,182.696607 C366.26194,183.769134 366.50714,184.738519 366.997548,185.60479 C367.487956,186.471062 368.127608,187.21357 368.916525,187.832335 C369.705441,188.451101 370.600954,188.925481 371.603092,189.255489 C372.605229,189.585497 373.59669,189.750499 374.577505,189.750499 C376.027406,189.750499 377.29605,189.616435 378.383475,189.348303 C379.470901,189.080172 380.398401,188.770794 381.165991,188.42016 C381.933586,188.069526 382.562578,187.698272 383.052985,187.306387 L383.362549,187.055826 C383.703438,186.775982 383.973383,186.53981 384.172388,186.347305 L388.266205,190.802395 Z M380.65,177 C380.65,176.294118 380.497828,175.588239 380.193478,174.882353 C379.889129,174.176467 379.443481,173.539219 378.856522,172.970588 C378.269562,172.401958 377.51957,171.931374 376.606522,171.558824 C375.693474,171.186273 374.65,171 373.476087,171 C372.215211,171 371.095657,171.186273 370.117391,171.558824 C369.139126,171.931374 368.323916,172.401958 367.671739,172.970588 C367.019562,173.539219 366.519567,174.176467 366.171739,174.882353 C365.823911,175.588239 365.65,176.294118 365.65,177 L380.65,177 Z M397.208025,186.718563 C398.149593,187.626086 399.337236,188.378906 400.770988,188.977046 C402.20474,189.575186 403.84176,189.874251 405.682099,189.874251 C407.308444,189.874251 408.613781,189.667999 409.598148,189.255489 C410.582515,188.842979 411.074691,188.162347 411.074691,187.213573 C411.074691,186.801062 410.989096,186.419496 410.817901,186.068862 C410.646707,185.718228 410.282925,185.377912 409.726543,185.047904 C409.216527,184.745397 408.526707,184.442893 407.657065,184.140386 L407.415432,184.057884 C406.431065,183.727876 405.104329,183.377247 403.435185,183.005988 C402.40802,182.758482 401.338071,182.428478 400.225309,182.015968 C399.112546,181.603458 398.074696,181.036264 397.111728,180.314371 C396.148761,179.592478 395.356999,178.726219 394.73642,177.715569 C394.115841,176.704918 393.805556,175.498344 393.805556,174.095808 C393.805556,172.652022 394.169338,171.362946 394.896914,170.228543 C395.624489,169.094139 396.576743,168.14538 397.753704,167.382236 C398.930664,166.619091 400.2574,166.031273 401.733951,165.618762 C403.210501,165.206252 404.697729,165 406.195679,165 C408.84919,165 411.106781,165.268128 412.968519,165.804391 C414.830256,166.340655 416.510075,167.145038 418.008025,168.217565 L414.091975,173.353293 C413.278803,172.775779 412.208854,172.249836 410.882099,171.775449 C409.555343,171.301062 407.993219,171.063872 406.195679,171.063872 C404.398139,171.063872 403.1463,171.321687 402.440123,171.837325 C401.733947,172.352963 401.380864,172.982032 401.380864,173.724551 C401.380864,174.632074 401.969336,175.343643 403.146296,175.859281 C404.323257,176.374919 406.152868,176.921487 408.635185,177.499002 C410.175934,177.82901 411.556167,178.241514 412.775926,178.736527 C413.995685,179.231537 415.044234,179.850299 415.921605,180.592814 C416.798976,181.335333 417.473043,182.211904 417.943827,183.222555 C418.414611,184.233205 418.65,185.43978 418.65,186.842315 C418.65,188.244851 418.307617,189.513301 417.62284,190.647705 C416.938062,191.782108 416.007208,192.74118 414.830247,193.52495 C413.653286,194.30872 412.283753,194.917164 410.721605,195.350299 C409.159457,195.783435 407.501038,196 405.746296,196 C402.921591,196 400.375114,195.618434 398.10679,194.855289 C395.838466,194.092145 394.019554,192.968071 392.65,191.483034 L397.208025,186.718563 Z M424.65,153 L432.65,153 L432.65,161 L424.65,161 L424.65,153 Z M424.65,166 L432.65,166 L432.65,195 L424.65,195 L424.65,166 Z M444.814859,199.536903 C445.989124,200.325137 447.25773,200.89556 448.620716,201.248191 C449.983702,201.600822 451.587807,201.777135 453.43308,201.777135 C455.362229,201.777135 456.976819,201.19634 458.276898,200.034732 C459.576977,198.873125 460.227007,197.255196 460.227007,195.180897 L460.227007,192.007236 C459.220494,192.836955 458.119637,193.511092 456.924403,194.029667 C455.72917,194.548242 454.146033,194.807525 452.174946,194.807525 C450.036106,194.807525 448.138439,194.4549 446.481887,193.749638 C444.825335,193.044377 443.409948,192.059099 442.235683,190.793777 C441.061419,189.528455 440.170249,188.034982 439.562148,186.313314 C438.954046,184.591646 438.65,182.693691 438.65,180.619392 C438.65,178.462121 439.037921,176.429339 439.813774,174.520984 C440.589628,172.612629 441.700969,170.953215 443.147831,169.542692 C444.594693,168.132169 446.345579,167.022435 448.400542,166.213459 C450.455506,165.404482 452.762062,165 455.320282,165 C457.878502,165 460.23748,165.207427 462.397289,165.622287 C464.557097,166.037146 466.307983,166.472743 467.65,166.929088 L467.65,195.305355 C467.65,197.338167 467.293532,199.14278 466.580586,200.719247 C465.867639,202.295715 464.88211,203.623246 463.62397,204.701881 C462.365829,205.780517 460.877051,206.599852 459.157592,207.159913 C457.438133,207.719974 455.571919,208 453.558894,208 C452.007187,208 450.633737,207.927401 449.438503,207.7822 C448.24327,207.636999 447.173866,207.439943 446.23026,207.191027 C445.286655,206.942112 444.426938,206.630971 443.651085,206.257598 C442.875231,205.884224 442.151811,205.448625 441.480803,204.950796 L444.814859,199.536903 Z M460.65,171.620438 C460.064048,171.413624 459.457178,171.258516 458.829372,171.155109 C458.201566,171.051703 457.218019,171 455.8787,171 C454.371966,171 453.053593,171.248173 451.923543,171.744526 C450.793492,172.240876 449.830871,172.902672 449.03565,173.729927 C448.24043,174.557182 447.644023,175.518851 447.246413,176.614964 C446.848802,177.711076 446.65,178.858875 446.65,180.058394 C446.65,182.291982 447.215017,184.173958 448.345067,185.70438 C449.475112,187.234801 451.295727,188 453.806951,188 C456.067052,188 457.772565,187.524336 458.923543,186.572993 C460.07452,185.62165 460.65,184.111932 460.65,182.043796 L460.65,171.620438 Z M475.65,165.626305 L482.890275,165.626305 L483.082494,168.94572 C483.466936,168.528182 483.926122,168.089773 484.460069,167.63048 C484.994015,167.171188 485.634741,166.743217 486.382265,166.346555 C487.12979,165.949894 487.973413,165.626305 488.913158,165.375783 C489.852903,165.12526 490.92078,165 492.116819,165 C495.875801,165 498.737709,166.096022 500.702632,168.2881 C502.667554,170.480178 503.65,173.434219 503.65,177.150313 L503.65,195 L496.089359,195 L496.089359,177.212944 C496.089359,175.33402 495.5661,173.883095 494.519565,172.860125 C493.473031,171.837156 492.116828,171.325678 490.450915,171.325678 C489.425744,171.325678 488.464645,171.524006 487.56762,171.920668 C486.67059,172.31733 485.901716,172.87056 485.260984,173.580376 C484.620252,174.290191 484.118347,175.114818 483.755263,176.05428 C483.39218,176.993742 483.210641,178.006258 483.210641,179.091858 L483.210641,195 L475.65,195 L475.65,165.626305 Z M525.208025,186.718563 C526.149593,187.626086 527.337236,188.378906 528.770988,188.977046 C530.20474,189.575186 531.84176,189.874251 533.682099,189.874251 C535.308444,189.874251 536.613781,189.667999 537.598148,189.255489 C538.582515,188.842979 539.074691,188.162347 539.074691,187.213573 C539.074691,186.801062 538.989096,186.419496 538.817901,186.068862 C538.646707,185.718228 538.282925,185.377912 537.726543,185.047904 C537.216527,184.745397 536.526707,184.442893 535.657065,184.140386 L535.415432,184.057884 C534.431065,183.727876 533.104329,183.377247 531.435185,183.005988 C530.40802,182.758482 529.338071,182.428478 528.225309,182.015968 C527.112546,181.603458 526.074696,181.036264 525.111728,180.314371 C524.148761,179.592478 523.356999,178.726219 522.73642,177.715569 C522.115841,176.704918 521.805556,175.498344 521.805556,174.095808 C521.805556,172.652022 522.169338,171.362946 522.896914,170.228543 C523.624489,169.094139 524.576743,168.14538 525.753704,167.382236 C526.930664,166.619091 528.2574,166.031273 529.733951,165.618762 C531.210501,165.206252 532.697729,165 534.195679,165 C536.84919,165 539.106781,165.268128 540.968519,165.804391 C542.830256,166.340655 544.510075,167.145038 546.008025,168.217565 L542.091975,173.353293 C541.278803,172.775779 540.208854,172.249836 538.882099,171.775449 C537.555343,171.301062 535.993219,171.063872 534.195679,171.063872 C532.398139,171.063872 531.1463,171.321687 530.440123,171.837325 C529.733947,172.352963 529.380864,172.982032 529.380864,173.724551 C529.380864,174.632074 529.969336,175.343643 531.146296,175.859281 C532.323257,176.374919 534.152868,176.921487 536.635185,177.499002 C538.175934,177.82901 539.556167,178.241514 540.775926,178.736527 C541.995685,179.231537 543.044234,179.850299 543.921605,180.592814 C544.798976,181.335333 545.473043,182.211904 545.943827,183.222555 C546.414611,184.233205 546.65,185.43978 546.65,186.842315 C546.65,188.244851 546.307617,189.513301 545.62284,190.647705 C544.938062,191.782108 544.007208,192.74118 542.830247,193.52495 C541.653286,194.30872 540.283753,194.917164 538.721605,195.350299 C537.159457,195.783435 535.501038,196 533.746296,196 C530.921591,196 528.375114,195.618434 526.10679,194.855289 C523.838466,194.092145 522.019554,192.968071 520.65,191.483034 L525.208025,186.718563 Z M553.245745,200.48605 C553.671279,200.822811 554.139359,201.149044 554.65,201.464758 C555.160641,201.780471 555.798932,201.938326 556.564894,201.938326 C557.58617,201.938326 558.426592,201.517381 559.08617,200.675477 C559.745748,199.833574 560.43723,198.528643 561.160638,196.760646 L562.118085,194.361233 L548.65,165 L557.330851,165 L565.884043,185.268722 L573.415957,165 L581.65,165 L569.139362,194.613803 C568.543614,196.087134 567.947875,197.602537 567.352128,199.160059 C566.75638,200.71758 566.022345,202.159318 565.15,203.485316 C564.277655,204.811314 563.203198,205.895248 561.926596,206.737151 C560.65,207.579055 559.032989,208 557.075532,208 C555.373396,208 553.958516,207.800051 552.830851,207.400147 C551.703186,207.000243 550.713834,206.44249 549.862766,205.726872 L553.245745,200.48605 Z M589.208025,186.718563 C590.149593,187.626086 591.337236,188.378906 592.770988,188.977046 C594.20474,189.575186 595.84176,189.874251 597.682099,189.874251 C599.308444,189.874251 600.613781,189.667999 601.598148,189.255489 C602.582515,188.842979 603.074691,188.162347 603.074691,187.213573 C603.074691,186.801062 602.989096,186.419496 602.817901,186.068862 C602.646707,185.718228 602.282925,185.377912 601.726543,185.047904 C601.216527,184.745397 600.526707,184.442893 599.657065,184.140386 L599.415432,184.057884 C598.431065,183.727876 597.104329,183.377247 595.435185,183.005988 C594.40802,182.758482 593.338071,182.428478 592.225309,182.015968 C591.112546,181.603458 590.074696,181.036264 589.111728,180.314371 C588.148761,179.592478 587.356999,178.726219 586.73642,177.715569 C586.115841,176.704918 585.805556,175.498344 585.805556,174.095808 C585.805556,172.652022 586.169338,171.362946 586.896914,170.228543 C587.624489,169.094139 588.576743,168.14538 589.753704,167.382236 C590.930664,166.619091 592.2574,166.031273 593.733951,165.618762 C595.210501,165.206252 596.697729,165 598.195679,165 C600.84919,165 603.106781,165.268128 604.968519,165.804391 C606.830256,166.340655 608.510075,167.145038 610.008025,168.217565 L606.091975,173.353293 C605.278803,172.775779 604.208854,172.249836 602.882099,171.775449 C601.555343,171.301062 599.993219,171.063872 598.195679,171.063872 C596.398139,171.063872 595.1463,171.321687 594.440123,171.837325 C593.733947,172.352963 593.380864,172.982032 593.380864,173.724551 C593.380864,174.632074 593.969336,175.343643 595.146296,175.859281 C596.323257,176.374919 598.152868,176.921487 600.635185,177.499002 C602.175934,177.82901 603.556167,178.241514 604.775926,178.736527 C605.995685,179.231537 607.044234,179.850299 607.921605,180.592814 C608.798976,181.335333 609.473043,182.211904 609.943827,183.222555 C610.414611,184.233205 610.65,185.43978 610.65,186.842315 C610.65,188.244851 610.307617,189.513301 609.62284,190.647705 C608.938062,191.782108 608.007208,192.74118 606.830247,193.52495 C605.653286,194.30872 604.283753,194.917164 602.721605,195.350299 C601.159457,195.783435 599.501038,196 597.746296,196 C594.921591,196 592.375114,195.618434 590.10679,194.855289 C587.838466,194.092145 586.019554,192.968071 584.65,191.483034 L589.208025,186.718563 Z M618.68937,171.597484 L613.65,171.597484 L613.65,165.559748 L618.68937,165.559748 L618.68937,156 L626.122441,156 L626.122441,165.559748 L634.059449,165.559748 L634.059449,171.597484 L626.122441,171.597484 L626.122441,184.490566 C626.122441,186.167723 626.405903,187.457019 626.972835,188.358491 C627.539767,189.259963 628.453143,189.710692 629.712992,189.710692 C630.888851,189.710692 631.823225,189.542979 632.516142,189.207547 C633.209059,188.872116 633.870469,188.473797 634.500394,188.012579 L637.65,192.603774 C636.180176,193.819713 634.731372,194.689725 633.303543,195.213836 C631.875715,195.737948 630.27993,196 628.516142,196 C626.710358,196 625.177565,195.737948 623.917717,195.213836 C622.657868,194.689725 621.639505,193.945497 620.862598,192.981132 C620.085692,192.016767 619.529267,190.853256 619.193307,189.490566 C618.857347,188.127876 618.68937,186.628939 618.68937,184.993711 L618.68937,171.597484 Z M670.266205,190.802395 L669.210768,191.823353 C668.635072,192.380242 667.803524,192.968061 666.716098,193.586826 C665.628673,194.205592 664.242759,194.762473 662.558316,195.257485 C660.873872,195.752497 658.858967,196 656.513539,196 C654.125468,196 651.950649,195.608121 649.989019,194.824351 C648.027389,194.040582 646.353632,192.957758 644.967697,191.575848 C643.581763,190.193939 642.515675,188.533609 641.769403,186.59481 C641.023131,184.656012 640.65,182.51099 640.65,180.159681 C640.65,178.014627 641.023131,176.024294 641.769403,174.188623 C642.515675,172.352952 643.560441,170.754498 644.903731,169.393214 C646.247022,168.031929 647.846153,166.959418 649.701173,166.175649 C651.556193,165.391879 653.613741,165 655.873881,165 C658.603105,165 660.916515,165.484692 662.814179,166.454092 C664.711843,167.423491 666.236354,168.691942 667.38774,170.259481 C668.539132,171.82702 669.37068,173.600789 669.882409,175.580838 C670.394136,177.560888 670.65,179.582159 670.65,181.644711 L670.65,182.696607 L648.26194,182.696607 C648.26194,183.769134 648.50714,184.738519 648.997548,185.60479 C649.487956,186.471062 650.127608,187.21357 650.916525,187.832335 C651.705441,188.451101 652.600954,188.925481 653.603092,189.255489 C654.605229,189.585497 655.59669,189.750499 656.577505,189.750499 C658.027406,189.750499 659.29605,189.616435 660.383475,189.348303 C661.470901,189.080172 662.398401,188.770794 663.165991,188.42016 C663.933586,188.069526 664.562578,187.698272 665.052985,187.306387 L665.362549,187.055826 C665.703438,186.775982 665.973383,186.53981 666.172388,186.347305 L670.266205,190.802395 Z M662.65,177 C662.65,176.294118 662.497828,175.588239 662.193478,174.882353 C661.889129,174.176467 661.443481,173.539219 660.856522,172.970588 C660.269562,172.401958 659.51957,171.931374 658.606522,171.558824 C657.693474,171.186273 656.65,171 655.476087,171 C654.215211,171 653.095657,171.186273 652.117391,171.558824 C651.139126,171.931374 650.323916,172.401958 649.671739,172.970588 C649.019562,173.539219 648.519567,174.176467 648.171739,174.882353 C647.823911,175.588239 647.65,176.294118 647.65,177 L662.65,177 Z M675.65,165.626305 L682.846477,165.626305 L683.037534,168.94572 C683.41965,168.528182 683.85483,168.079334 684.343089,167.599165 C684.831348,167.118996 685.425742,166.691025 686.126287,166.31524 C686.826833,165.939457 687.633509,165.626305 688.546341,165.375783 C689.459173,165.12526 690.509976,165 691.69878,165 C695.64731,165 698.640505,166.41961 700.678455,169.258873 C702.206918,167.71398 703.767201,166.617957 705.35935,165.970772 C706.951498,165.323588 708.808978,165 710.931843,165 C714.710543,165 717.60821,166.096022 719.624932,168.2881 C721.641654,170.480178 722.65,173.434219 722.65,177.150313 L722.65,195 L715.135095,195 L715.135095,177.212944 C715.135095,175.33402 714.657457,173.883095 713.702168,172.860125 C712.746879,171.837156 711.441336,171.325678 709.785501,171.325678 C708.766531,171.325678 707.832479,171.524006 706.983333,171.920668 C706.134187,172.31733 705.40181,172.87056 704.786179,173.580376 C704.170548,174.290191 703.703525,175.114818 703.385095,176.05428 C703.066665,176.993742 702.907453,178.006258 702.907453,179.091858 L702.907453,195 L695.392547,195 L695.392547,177.212944 C695.392547,175.33402 694.91491,173.883095 693.959621,172.860125 C693.004331,171.837156 691.698789,171.325678 690.042954,171.325678 C689.023984,171.325678 688.089932,171.524006 687.240786,171.920668 C686.39164,172.31733 685.659262,172.87056 685.043631,173.580376 C684.428001,174.290191 683.960977,175.114818 683.642547,176.05428 C683.324118,176.993742 683.164905,178.006258 683.164905,179.091858 L683.164905,195 L675.65,195 L675.65,165.626305 Z" id="designsystem" fill="#57056C" fill-rule="nonzero"></path>
        <rect id="Rectangle" stroke="#57056C" stroke-width="4" x="606" y="219" width="24" height="23" rx="8"></rect>
        <rect id="Rectangle-Copy" fill="#F78A8A" x="400" y="94" width="96" height="43" rx="8"></rect>
        <rect id="Rectangle-Copy-2" stroke="#6C0505" stroke-width="4" x="396" y="109" width="92" height="19" rx="8"></rect>
        <g id="undraw_voting_nvu7" transform="translate(281.000000, 285.000000)" fill-rule="nonzero">
            <circle id="Oval" fill="#DAF78A" opacity="0.4" cx="404.5" cy="84.5" r="11.5"></circle>
            <circle id="Oval" fill="#E08AF7" opacity="0.4" cx="162.5" cy="16.5" r="16.5"></circle>
            <circle id="Oval" fill="#E08AF7" opacity="0.4" cx="131.5" cy="24.5" r="11.5"></circle>
            <path d="M477.517147,303 C477.517147,303 480.654421,316.291506 477.802356,316.869396 C474.95029,317.447287 460.97514,317.260763 457.552656,317.838653 C454.130172,318.416544 447,317.447287 447,314.846777 C447,312.246266 454.415376,310.512589 454.415376,310.512589 C454.415376,310.512589 464.968037,304.733677 465.253241,304.444729 C465.538445,304.155781 477.517147,303 477.517147,303 Z" id="Path" fill="#222222"></path>
            <path d="M474.870614,225.428572 C474.870614,225.428572 474.020402,235.14286 474.020402,236 C474.020402,236.857149 474.870614,250.28572 474.020402,250.857137 C473.170189,251.428555 474.587208,255.428565 474.587208,256.857137 C474.587208,258.285709 479.121673,282 477.988054,291.142857 C476.854435,300.285717 479.688479,299.428567 478.838267,300.285712 C477.988054,301.142856 477.988054,301.142856 477.988054,302.857139 C477.988054,304.571423 468.919136,306 468.919136,306 L459,242.857148 L464.101271,224 L474.870614,225.428572 Z" id="Path" fill="#575A89"></path>
            <path d="M474.870614,225.428572 C474.870614,225.428572 474.020402,235.14286 474.020402,236 C474.020402,236.857149 474.870614,250.28572 474.020402,250.857137 C473.170189,251.428555 474.587208,255.428565 474.587208,256.857137 C474.587208,258.285709 479.121673,282 477.988054,291.142857 C476.854435,300.285717 479.688479,299.428567 478.838267,300.285712 C477.988054,301.142856 477.988054,301.142856 477.988054,302.857139 C477.988054,304.571423 468.919136,306 468.919136,306 L459,242.857148 L464.101271,224 L474.870614,225.428572 Z" id="Path" fill="#000000" opacity="0.1"></path>
            <path d="M472.735177,306.511482 C472.735177,306.511482 475.581028,317.154873 472.735177,317.746172 C469.889327,318.33747 455.944666,317.068816 452.529646,317.66012 C449.114627,318.251424 442,318.337476 442,315.676624 C442,313.015772 449.399203,311.241882 449.399203,311.241882 C449.399203,311.241882 459.92885,305.328885 460.213432,305.033238 C460.498014,304.737592 472.735177,306.511482 472.735177,306.511482 Z" id="Path" fill="#222222"></path>
            <path d="M477.615888,213 C477.615888,213 481.085779,221.334312 477.037574,225.645159 C472.98937,229.956006 468.362851,238.577716 468.362851,239.152495 C468.362851,239.727274 476.45926,296.91789 475.302626,300.653963 C474.145993,304.390036 474.435158,306.689153 474.724312,307.263932 C475.013467,307.838712 471.832736,311 468.362851,311 C464.892966,311 459.688122,308.413491 459.109808,306.114369 C458.531494,303.815246 459.977282,283.985334 459.688122,280.249266 C459.398963,276.513198 457.95318,271.052782 457.37486,269.903224 C456.796541,268.753665 453.615815,267.604102 453.037501,264.155421 C452.459187,260.70674 447.832663,216.736062 449.278456,215.299117 C450.72425,213.862171 477.615888,213 477.615888,213 Z" id="Path" fill="#575A89"></path>
            <circle id="Oval" fill="#FFB9B9" cx="455" cy="138" r="10"></circle>
            <path d="M461,142.335345 C461,142.335345 459.022415,152.974408 460.434977,154.124576 C461.847538,155.274743 449.699515,157 449.699515,157 C449.699515,157 448.286954,142.910429 448.004445,141.472717 C447.721936,140.035005 461,142.335345 461,142.335345 Z" id="Path" fill="#FFB9B9"></path>
            <path d="M465.951314,149.514814 C465.951314,149.514814 468.532031,150.374331 467.67179,151.233843 C466.811549,152.093354 465.951314,152.09336 467.098298,152.952877 C468.245282,153.812393 469.679015,152.952877 468.818779,153.812393 C467.958544,154.67191 476.56093,159.829001 475.987438,169.570178 C475.413946,179.311355 477.994662,193.063598 475.987438,195.355641 C473.980213,197.647684 477.42117,207.675363 476.847678,209.680899 C476.274186,211.686435 480.288636,214.26498 478.568154,215.124497 C477.664412,215.575988 468.690411,217.213282 460.249203,217.793996 C458.859288,224.109709 457.104435,230 455.410352,230 C451.777606,230 448.983178,229.429774 448.14486,228.004223 C448.050045,227.842991 448.005275,227.437401 448.000441,226.84479 C447.62419,226.605368 447.334484,226.326677 447.14486,226.004223 C446.798567,225.415353 447.119831,221.566923 447.616231,217.252339 C446.113146,216.799114 445.160096,216.112441 445.018846,215.124497 C444.158632,209.10789 444.732098,213.405463 443.871857,211.972937 C443.011616,210.540411 442.724873,207.961865 443.298365,204.810311 C443.871857,201.658756 445.30559,193.923115 444.732098,191.058062 C444.158606,188.193009 444.732098,164.12658 446.452574,161.261548 C448.17305,158.396516 448.459783,156.677441 448.459783,156.677441 C448.459783,156.677441 451.900735,146.649762 465.951314,149.514814 Z" id="Combined-Shape" fill="url(#linearGradient-1)"></path>
            <path d="M454.372118,226.57627 C454.372118,226.57627 458.714949,243 453.214025,243 C447.713102,243 448.002626,226 448.002626,226 L454.372118,226.57627 Z" id="Path" fill="#FFB9B9"></path>
            <path d="M451,137.445055 C451,138.272397 452.217518,138.797314 454.104699,138.917131 L454.1076,138.917131 C454.907712,138.961869 455.710124,138.946613 456.507883,138.871494 C457.713797,138.763082 458.212433,139.878548 458.418276,141.350644 C458.754523,143.778448 458.284903,147.181927 458.826993,147.715414 C459.574928,148.451442 465.027714,147.712559 466.732259,146.043633 C466.997587,145.809459 467.174382,145.493659 467.233763,145.147821 C467.412594,144.128706 467.923364,143.194474 468.689008,142.486084 C469.694913,141.40485 471.126946,140.206635 472.741646,138.30092 C475.640533,134.877467 472.741646,134.592182 471.871979,132.024588 C471.002312,129.456995 469.552868,128.601136 469.552868,126.889406 C469.552868,125.177677 462.885433,123.751243 457.37755,124.036533 C451.869667,124.321823 453.02922,131.168724 453.02922,131.168724 C453.02922,131.168724 452.701649,131.996066 452.310305,133.06304 C451.780912,134.401935 451.350758,135.776809 451.023218,137.176869 C451.009583,137.265675 451.001828,137.355259 451,137.445055 Z" id="Path" fill="#2F2E41"></path>
            <g id="b6a4aa65-5bff-4dd4-a595-827386906092" transform="translate(0.000000, 113.000000)">
                <polygon id="Rectangle" fill="#FFFFFF" transform="translate(17.966629, 124.581233) rotate(167.942360) translate(-17.966629, -124.581233) " points="2.82736206 109.44758 33.1033826 109.450093 33.1058959 139.714885 2.82987531 139.712372"></polygon>
                <path d="M35.1097946,98.7140642 C35.1097946,98.7140642 24.2344877,106.478982 27.85959,109.584952 C31.4846923,112.690922 38.7348917,100.267047 38.7348917,100.267047 L35.1097946,98.7140642 Z" id="ac286760-ef31-4470-8aba-995faff60c3b" fill="#D8AF7C"></path>
                <path d="M85.3433416,110.620275 C85.3433416,110.620275 83.2718531,136.503334 82.7539836,140.126964 C82.2361141,143.750593 81.7182393,176.363246 80.682495,179.986875 C79.6467508,183.610504 78.6110065,192.41074 78.6110065,192.41074 L72.3965514,192.41074 C72.3965514,192.41074 72.9144209,176.363246 71.3608072,170.151311 C69.8071934,163.939376 70.3250629,146.856558 70.3250629,146.856558 C70.3250629,146.856558 67.2178353,116.314546 68.7714649,112.173258 C70.3250944,108.03197 85.3433416,110.620275 85.3433416,110.620275 Z" id="ad0ee0d5-d520-47bd-bca9-706ef112ee3c" fill="#D8AF7C"></path>
                <path d="M77.0573927,190.857758 C77.0573927,190.857758 79.6467508,192.410725 79.6467508,193.446064 C79.6467508,194.481403 79.1288813,197.069693 79.6467508,198.105016 C80.1646203,199.14034 83.7897278,203.281628 81.7182393,204.316952 C79.6467508,205.352275 70.3250629,204.316952 70.3250629,204.316952 C70.3250629,204.316952 70.8429324,197.069693 71.3608072,196.552034 C71.8786819,196.034375 70.8429324,190.857758 70.8429324,190.857758 L77.0573927,190.857758 Z" id="a2d865fc-f989-4a0f-bdfe-5d1a04b5cb09" fill="#2F2E41"></path>
                <path d="M45.7550568,109.985929 C45.7550568,109.985929 45.0971536,135.943333 45.2316484,139.601298 C45.3661432,143.259264 42.4565457,175.746081 43.1060515,179.458363 C43.7555572,183.170646 43.861482,192.03095 43.861482,192.03095 L50.0416079,192.682992 C50.0416079,192.682992 51.2117263,176.669807 53.4090657,170.655191 C55.6064051,164.640575 56.885244,147.597798 56.885244,147.597798 C56.885244,147.597798 63.1825087,117.550529 62.072326,113.269106 C60.9621433,108.987684 45.7550568,109.985929 45.7550568,109.985929 Z" id="a5afd73e-dc2f-49f8-bb76-01b6bc8ff4ec" fill="#D8AF7C"></path>
                <path d="M45.5696163,190.649554 C45.5696163,190.649554 42.8314863,191.922274 42.7227659,192.951877 C42.6140455,193.981481 42.857266,196.609827 42.2335347,197.585087 C41.6098033,198.560347 37.569861,202.298404 39.5211843,203.545355 C41.4725076,204.792305 50.8514248,204.740751 50.8514248,204.740751 C50.8514248,204.740751 51.0974199,197.479195 50.6367849,196.910055 C50.1761499,196.340915 51.7497475,191.301575 51.7497475,191.301575 L45.5696163,190.649554 Z" id="bae9c969-98bd-41cd-ab49-dced4866e2f9" fill="#2F2E41"></path>
                <path d="M78.093137,71.795682 C78.093137,71.795682 82.2361088,72.3133463 83.7897278,81.1135873 C85.3433469,89.9138284 91.0399272,112.173258 86.3790859,113.72624 C81.7182446,115.279223 67.7357049,118.385193 67.2178353,117.34987 C66.6999658,116.314546 65.6642373,113.72624 65.6642373,113.72624 C65.6642373,113.72624 67.2178353,118.385193 65.1463678,118.385193 C63.0749002,118.385193 42.8778897,115.279223 43.3957592,113.72624 C43.9136287,112.173258 44.9493573,100.784711 44.9493573,100.784711 C44.9493573,100.784711 48.05659,81.6312464 51.1638176,78.5252815 C52.9843877,76.7780957 53.9332571,74.312036 53.7531756,71.795682 L78.093137,71.795682 Z" id="efa1face-c8d6-4f61-8a17-c81461288bfc" fill="#2F2E41"></path>
                <path d="M85.8612111,67.6544146 C85.8612111,67.6544146 79.1288813,66.1014478 78.093137,68.1720737 C77.0573927,70.2426995 80.682495,73.3486907 82.2361088,73.3486907 C83.7897226,73.3486907 86.3790859,71.7957239 86.3790859,71.7957239 L85.8612111,67.6544146 Z" id="ba787e0e-2496-4127-9664-864bc1f1b460" fill="#D8AF7C"></path>
                <ellipse id="af432612-84fe-4a80-a474-ad6710b59c23" fill="#D8AF7C" cx="71.8786819" cy="14.3352935" rx="9.32168789" ry="9.31790013"></ellipse>
                <path d="M70.3250629,21.0648877 C70.3250629,21.0648877 68.7714649,28.312141 69.8071934,28.312141 C70.8429219,28.312141 62.0391193,32.9710937 62.0391193,32.9710937 L55.3067842,31.9357703 L53.2353009,28.8298054 C53.2353009,28.8298054 64.1106025,21.5825468 64.1106025,17.4412584 C64.1106025,13.2999701 70.3250629,21.0648877 70.3250629,21.0648877 Z" id="fc691572-079c-4ac7-a111-0c7206f484e6" fill="#D8AF7C"></path>
                <path d="M71.8786767,27.2768229 C72.3836046,27.2768229 78.7961488,28.7531119 79.1164604,28.8269264 L79.1288655,28.8298054 C79.1288655,28.8298054 82.2360931,28.312141 85.8611954,31.4181113 C89.4862977,34.5240815 102.950989,43.8419816 102.950989,43.8419816 L102.995279,43.8783571 C103.49591,44.2952986 108.044962,48.2373944 106.576091,52.6422174 C105.022477,57.3011648 102.433119,68.689717 94.6650452,68.1720527 C94.6650452,68.1720527 90.0041987,74.3839879 87.4148406,73.3486697 C84.8254826,72.3133515 82.7539993,68.1720527 84.3076131,67.6543936 C85.8612269,67.1367345 90.0041987,61.9601228 90.0041987,61.9601228 L84.8254826,52.1245583 L83.2718846,52.1245583 C83.2718531,52.1245426 76.0216485,64.0307486 81.2003646,73.348654 C81.0843268,73.2779116 79.392373,72.331494 72.3965514,72.8309896 C65.1463363,73.3486487 52.1995566,74.9016364 51.6816819,74.9016364 C51.1638071,74.9016364 51.1638124,70.7603428 51.6816819,69.7250247 C52.1995514,68.6897065 51.1638124,69.2073604 51.1638124,66.6190545 C51.1638124,65.031892 50.5796276,62.6661259 50.1277083,61.0734492 L50.1280838,66.6190335 C53.2353166,77.4899214 45.985112,85.254839 45.985112,85.254839 C45.985112,85.254839 39.7706569,99.7493299 40.2885264,101.819992 C40.8063959,103.890655 34.5919303,100.784664 33.5561913,100.267026 C32.5204523,99.7493876 37.6991684,82.1489055 37.6991684,82.1489055 C36.1455336,78.5252815 39.7706412,47.9832804 39.2527664,41.2536705 C38.7348917,34.5240605 42.359994,32.9710937 42.359994,32.9710937 L42.359994,32.9710937 C42.3600097,32.971078 51.6816976,27.7944662 53.2353166,28.3121253 C54.7889356,28.8297844 59.449777,30.3827721 60.485516,29.8650921 C61.521255,29.347412 65.6642163,28.312141 65.6642163,28.312141 C65.6642163,28.312141 67.2178144,27.2768229 67.7357049,27.2768229 L71.8786767,27.2768229 Z" id="Combined-Shape" fill="url(#linearGradient-2)"></path>
                <path d="M79.6368061,23.3440054 L73.0532849,24.7776684 L72.2072506,21.537279 L72.5325516,24.8910948 L61.9119519,27.2038775 L61.4448811,25.4150192 L61.6244366,27.26651 L54.8220165,28.7478473 L53.366827,14.7847783 C51.8707991,9.05504923 57.3308255,2.94825652 63.0628575,1.45282609 L65.6057282,0.789423018 C69.8157219,-0.308910358 77.4683304,0.689733248 78.567105,4.89798478 C76.6439479,12.2350396 73.3655256,20.2785738 79.6368061,23.3440054 Z" id="eb14ef5a-0bc4-48da-8b11-b0e113a7ef46" fill="#2F2E41"></path>
            </g>
        </g>
        <g id="Group" transform="translate(253.000000, 219.000000)">
            <path d="M319.575221,122 L319.575221,110.703463 C319.575221,109.598894 318.679791,108.703463 317.575221,108.703463 L307,108.703463 C305.895431,108.703463 305,107.808033 305,106.703463 L305,104.296537 C305,103.191967 305.895431,102.296537 307,102.296537 L317.575221,102.296537 C318.679791,102.296537 319.575221,101.401106 319.575221,100.296537 L319.575221,89 C319.575221,87.8954305 320.470652,87 321.575221,87 L324.424779,87 C325.529348,87 326.424779,87.8954305 326.424779,89 L326.424779,100.296537 C326.424779,101.401106 327.320209,102.296537 328.424779,102.296537 L339,102.296537 C340.104569,102.296537 341,103.191967 341,104.296537 L341,106.703463 C341,107.808033 340.104569,108.703463 339,108.703463 L328.424779,108.703463 C327.320209,108.703463 326.424779,109.598894 326.424779,110.703463 L326.424779,122 C326.424779,123.104569 325.529348,124 324.424779,124 L321.575221,124 C320.470652,124 319.575221,123.104569 319.575221,122 Z" id="+" fill="#00C7B1" fill-rule="nonzero" opacity="0.4" transform="translate(323.000000, 105.500000) rotate(-315.000000) translate(-323.000000, -105.500000) "></path>
            <rect id="Rectangle" fill="#222222" transform="translate(494.500000, 178.500000) rotate(11.000000) translate(-494.500000, -178.500000) " x="494" y="173" width="1" height="11"></rect>
            <rect id="Rectangle-Copy-3" fill="#222222" transform="translate(512.500000, 190.500000) rotate(61.000000) translate(-512.500000, -190.500000) " x="512" y="185" width="1" height="11"></rect>
            <path d="M232.077709,196.155418 L238.105573,208.211146 C239.09353,210.18706 238.292632,212.589752 236.316718,213.577709 C235.761297,213.85542 235.148844,214 234.527864,214 L222.472136,214 C220.262997,214 218.472136,212.209139 218.472136,210 C218.472136,209.37902 218.616716,208.766567 218.894427,208.211146 L224.922291,196.155418 C225.910248,194.179504 228.31294,193.378606 230.288854,194.366563 C231.062964,194.753618 231.690654,195.381308 232.077709,196.155418 Z" id="Triangle" fill="#EF426F" opacity="0.4" transform="translate(228.500000, 201.500000) rotate(-360.000000) translate(-228.500000, -201.500000) "></path>
            <path d="M19.2633558,1.28115295 L32.3801333,10.8110496 C33.4315955,11.5749817 33.8715699,12.9290836 33.4699471,14.1651516 L28.4597839,29.5848484 C28.058161,30.8209164 26.9062931,31.6577974 25.6066143,31.6577974 L9.39338567,31.6577974 C8.09370688,31.6577974 6.94183895,30.8209164 6.54021612,29.5848484 L1.53005293,14.1651516 C1.1284301,12.9290836 1.5684045,11.5749817 2.61986672,10.8110496 L15.7366442,1.28115295 C16.7881065,0.517220927 18.2118935,0.517220927 19.2633558,1.28115295 Z" id="Polygon" fill="#F8C81D" opacity="0.4"></path>
        </g>
    </g>
</svg>