<svg width="94" height="57" viewBox="0 0 94 57" fill="none" xmlns="http://www.w3.org/2000/svg">
<path d="M11.2885 25.1603C11.0485 24.2803 10.8885 23.2403 10.8885 22.2803C10.8885 17.4003 13.6085 13.6403 19.1285 13.6403C24.3285 13.6403 26.9685 17.0003 26.9685 20.7603C26.9685 24.3603 25.2085 27.0803 20.8085 29.7203L12.2485 34.8403C2.96854 40.4403 0.0885448 47.8803 0.00854492 57.0003H38.4085V47.4803H13.5285C14.3285 45.4803 16.0085 44.0403 18.0085 42.7603L28.0085 36.6803C34.4085 32.7603 38.0885 27.3203 38.0885 20.6003C38.0885 11.5603 30.9685 3.88027 19.3685 3.88027C7.28854 3.88027 0.408545 12.1203 0.408545 21.2403C0.408545 22.5203 0.648545 24.1203 0.808545 24.8403L11.2885 25.1603Z" fill="#F38355"/>
<path d="M93.1161 0.280273H80.236L67.836 19.8803L55.676 0.280273H42.396L60.956 28.6003L42.316 57.0003H55.276L67.596 37.4003L79.836 57.0003H93.196L74.556 28.6803L93.1161 0.280273Z" fill="#F38355"/>
</svg>
