<svg width="62" height="72" viewBox="0 0 62 72" fill="none" xmlns="http://www.w3.org/2000/svg">
<path d="M-7.24857e-05 41.3794C-7.3909e-05 58.2644 13.7363 72 30.621 72C47.5051 72 61.2412 58.2644 61.2412 41.3794C61.2412 35.7981 59.7226 30.3318 56.8518 25.5762L48.8623 30.3989C50.8554 33.7011 51.9087 37.4985 51.9097 41.3803C51.9097 53.1188 42.3599 62.6678 30.6221 62.6678C18.8833 62.6678 9.33392 53.1187 9.33392 41.3803C9.33393 30.0669 18.2115 20.8141 29.3616 20.1569L33.9271 20.1569L30.0827 29.8891C29.9535 30.2151 30.0581 30.5872 30.3383 30.7977C30.6181 31.0091 31.0047 31.0081 31.283 30.7937L50.3988 16.0953C50.5903 15.9473 50.7035 15.721 50.7035 15.477C50.7035 15.2343 50.5903 15.0061 50.3989 14.8586L31.2818 0.161126C31.1415 0.0529924 30.975 -2.55125e-06 30.807 -2.56541e-06C30.6412 -2.57938e-06 30.4771 0.0520733 30.3371 0.156531C30.0569 0.366979 29.9523 0.739629 30.0814 1.06602L33.9259 10.7972L30.6197 10.7583C29.4372 10.7583 25.5154 11.1562 24.8691 11.3083C10.726 14.0084 -7.12282e-05 26.4616 -7.24857e-05 41.3794Z" fill="#66C0DE"/>
</svg>
