<svg width="156" height="56" viewBox="0 0 156 56" fill="none" xmlns="http://www.w3.org/2000/svg">
<path d="M12.1509 22.1599C11.9108 21.2799 11.7509 20.2399 11.7509 19.2799C11.7509 14.3999 14.4709 10.6399 19.9909 10.6399C25.1909 10.6399 27.8309 13.9999 27.8309 17.7599C27.8309 21.3599 26.0708 24.0799 21.6709 26.7199L13.1108 31.8399C3.83085 37.4399 0.950849 44.8799 0.87085 53.9999H39.2709V44.4799H14.3909C15.1909 42.4799 16.8709 41.0399 18.8708 39.7599L28.8709 33.6799C35.2709 29.7599 38.9509 24.3199 38.9509 17.5999C38.9509 8.55988 31.8309 0.879883 20.2309 0.879883C8.15085 0.879883 1.27085 9.11988 1.27085 18.2399C1.27085 19.5199 1.51085 21.1199 1.67085 21.8399L12.1509 22.1599Z" fill="#B1BD0B"/>
<path d="M56.2184 28.0799C56.2184 22.6399 57.0184 17.9999 59.0184 14.8799C60.6184 12.3199 63.0984 10.6399 66.8584 10.6399C70.6984 10.6399 73.0184 12.3199 74.6184 14.8799C76.6984 17.9999 77.4984 22.6399 77.4984 28.0799C77.4984 33.5199 76.6984 38.1599 74.6184 41.2799C73.0184 43.8399 70.6984 45.5199 66.8584 45.5199C63.0984 45.5199 60.6184 43.8399 59.0184 41.2799C57.0184 38.1599 56.2184 33.5199 56.2184 28.0799ZM45.1784 28.0799C45.1784 34.7199 46.2183 41.1999 49.7383 46.5599C53.1783 51.6799 58.7784 55.2799 66.8584 55.2799C74.9384 55.2799 80.5384 51.6799 83.8984 46.5599C87.4184 41.1999 88.5384 34.7199 88.5384 28.0799C88.5384 21.4399 87.4184 14.9599 83.8984 9.59988C80.5384 4.47988 74.9384 0.879883 66.8584 0.879883C58.7784 0.879883 53.1783 4.47988 49.7383 9.59988C46.2183 14.9599 45.1784 21.4399 45.1784 28.0799Z" fill="#B1BD0B"/>
<path d="M101.928 14.3199C101.928 11.0399 104.248 8.79989 107.208 8.79989C110.248 8.79989 112.488 11.0399 112.488 14.3199C112.488 17.5999 110.248 19.9199 107.208 19.9199C104.248 19.9199 101.928 17.6799 101.928 14.3199ZM93.9277 14.3199C93.9277 21.5999 99.9277 27.3599 107.208 27.3599C114.408 27.3599 120.568 21.7599 120.568 14.3199C120.568 6.95989 114.408 1.19988 107.208 1.19988C100.008 1.19988 93.9277 6.95989 93.9277 14.3199ZM136.888 41.8399C136.888 38.5599 139.208 36.3199 142.168 36.3199C145.208 36.3199 147.448 38.5599 147.448 41.8399C147.448 45.1199 145.208 47.4399 142.168 47.4399C139.208 47.4399 136.888 45.1999 136.888 41.8399ZM128.888 41.8399C128.888 49.1199 134.888 54.8799 142.168 54.8799C149.368 54.8799 155.528 49.2799 155.528 41.8399C155.528 34.4799 149.368 28.7199 142.168 28.7199C134.968 28.7199 128.888 34.4799 128.888 41.8399ZM111.048 53.9999L147.688 2.07988H138.408L101.768 53.9999H111.048Z" fill="#B1BD0B"/>
</svg>
