<?xml version="1.0" encoding="UTF-8"?>
<svg width="158px" height="221px" viewBox="0 0 158 221" version="1.1" xmlns="http://www.w3.org/2000/svg" xmlns:xlink="http://www.w3.org/1999/xlink">
    <!-- Generator: Sketch 64 (93537) - https://sketch.com -->
    <title>jumper</title>
    <desc>Created with Sketch.</desc>
    <g id="website" stroke="none" stroke-width="1" fill="none" fill-rule="evenodd">
        <g id="footer" transform="translate(-783.000000, -444.000000)">
            <g id="a-person/bust" transform="translate(858.500000, 548.500000) scale(-1, 1) translate(-858.500000, -548.500000) translate(745.000000, 395.000000)">
                <g id="body/Polo-and-Sweater" transform="translate(29.374120, 127.966732)" fill-rule="evenodd">
                    <path d="M19.3377623,141.967374 C31.573382,142.310621 43.1316801,142.689314 55.3437205,141.967374 C74.8857029,140.755995 132.234917,142.939641 144.840725,141.967374 C145.79202,141.894002 149.063646,142.939641 149.131786,141.967374 C149.685898,135.197153 150.045182,66.7004959 148.398832,61.9874348 C146.752483,57.2743736 138.626043,34.618105 128.271366,24.0535401 C125.384109,21.1994214 120.990415,20.0938799 118.563354,16.7955825 C116.470701,13.1989956 116.633274,11.0880639 114.56664,9.19580559 C113.669828,8.3746633 111.554797,8.04177076 109.983199,6.90199282 C108.402991,5.3281422 109.899153,1.86362818 109.250524,-0.328027397 C107.913702,-5.80035747 102.988641,-9.31113177 97.6055839,-10.1384097 C90.1237681,-11.9325783 82.2251833,-10.2362245 78.6414045,-4.34638988 C77.3074229,-2.15403065 78.0173535,0.510798743 76.3766878,4.02384279 C76.4937846,6.67870189 73.4011094,7.32013764 71.5525381,8.37210828 L67.881452,12.090424 C56.5714167,18.4679334 43.2664598,21.9117495 33.3565909,30.4801135 C24.9312142,39.0458741 16.5509976,48.9463738 12.8126913,60.5354736 C12.0387732,63.6933881 11.7861957,66.9572407 11.4654783,70.184045 C10.5498849,79.6139315 8.00033125,88.7664566 5.80626435,97.9518245 C3.30446857,109.524703 0.972390106,121.809742 4.34421933,133.492163 C5.31636282,135.964785 17.1247121,141.851823 19.3377623,141.967374 Z" id="ðŸŽ¨-Background" fill="#FFFFFF"></path>
                    <path d="M77.9931835,-3.40343444 C78.0910973,-3.72405219 78.5129256,-3.63393477 78.5448974,-3.3293379 C78.8626175,-0.309403131 78.4629696,2.84670907 78.0793077,5.84661774 C77.8954696,7.29450424 77.7893631,8.80046641 77.5096096,10.2281265 C77.4736413,10.3805251 77.4396712,10.5345258 77.4076994,10.6869243 C77.4996184,10.850938 77.7715788,11.0351781 77.9012645,11.1613425 L78.4653601,11.7109994 L79.5957716,12.8076875 C81.8080224,14.9544847 84.0198737,17.1030841 86.2319247,19.2500815 L89.4790638,22.4041911 C90.592283,23.4853999 91.8571686,24.5209491 92.8341078,25.7265199 C93.3638411,26.3811729 93.4835357,27.1842192 92.9619952,27.8851324 C92.7042223,28.2315838 92.2408305,28.4839126 91.7710445,28.5359804 C91.9548825,28.7923144 92.0967575,29.0826928 92.1866783,29.4053131 C92.3705163,30.0621689 91.7073006,30.8690202 91.0019221,30.5946628 C90.2006281,30.2862609 89.539011,29.7335408 88.7237293,29.4691963 C87.9004547,29.2008467 87.0054432,29.1489791 86.1519952,29.2929667 C85.7603402,29.3590528 85.3766783,29.457381 85.0030075,29.5815427 C89.0016844,31.4259459 93.327673,32.4853262 97.7397857,32.6373242 C98.6389934,32.6675636 99.5364027,32.6553477 100.429416,32.5954697 C101.932292,32.4971416 103.424777,32.2690444 104.891485,31.9005643 C106.044669,31.6101859 107.185663,31.2455108 108.292688,30.8049367 C108.836209,30.5886549 109.373536,30.3505447 109.893278,30.0801924 L109.938778,30.0532057 C110.056268,29.9796134 112.227325,28.7456493 112.265188,28.560212 C112.303051,28.3747747 112.303051,28.3101755 112.232409,28.1487455 C112.185315,28.0411255 112.096443,27.9502217 111.965793,27.8760341 C111.294975,27.58869 110.60004,27.3212439 109.867301,27.3163914 C108.180587,27.3063783 106.340208,28.5562068 104.945637,29.4073157 C103.412987,30.3425342 102.004029,31.4357586 100.529328,32.4492792 C100.495358,32.4731102 100.457591,32.4833235 100.421423,32.4833235 C100.26576,32.4833235 100.121687,32.2908728 100.221599,32.1406771 C101.278543,30.5810888 102.705108,29.2825494 104.197362,28.1487455 L104.798664,27.6970255 C106.165379,26.6755744 107.763954,25.5443029 109.42569,25.2977613 C111.461696,24.9973699 113.588022,26.269227 115.404422,27.0139974 L118.621388,28.3337169 C119.194882,28.5680222 119.818533,28.7682831 120.395824,29.0346301 L119.047713,24.8073367 C118.374118,22.693456 117.702278,20.579013 117.036984,18.4630561 L116.90789,18.0485185 C116.245169,15.900667 115.636745,13.6663821 114.53299,11.7042498 C114.269222,11.2336367 113.967488,10.79106 113.66975,10.3442779 C113.360023,9.88187541 113.244125,9.37121005 112.854669,8.95847228 C112.083348,8.13940509 110.978122,7.65877886 109.923051,7.34456947 C109.665279,7.26847032 109.741412,6.92802674 109.983199,6.90199282 C111.065922,6.7876503 112.098305,7.04071676 113.076725,7.49838735 L113.483385,7.69276495 C114.408601,8.13147275 115.310705,8.53950639 115.997699,9.32695238 C117.564183,11.1253195 118.377696,13.3896445 119.125058,15.6241916 L119.324968,16.2241389 C119.604522,16.1320189 121.504847,16.7127756 121.742638,16.8507554 C128.866561,19.8688878 134.353727,25.4880091 138.366191,32.0725884 C142.762318,39.2879896 145.156009,47.5327319 147.132268,55.6915623 C147.742131,58.2094429 148.325417,60.7351337 148.885723,63.2664318 C146.389323,64.2290861 143.73606,64.7327423 141.399119,66.0889093 C140.508904,66.6053823 141.312995,67.9903868 142.205809,67.4723118 C144.39468,66.202257 146.887883,65.7330457 149.230819,64.8410835 C150.5011,70.701319 151.631104,76.5935962 152.577471,82.5105055 C155.485109,100.670166 157.321291,119.126013 157.205393,137.533997 C157.203395,137.940727 157.0837,138.395119 156.861696,138.785628 C156.991781,138.721745 157.093691,138.645446 157.15164,138.553526 C157.888791,137.393815 159.737162,138.469416 158.995816,139.634935 L158.887549,139.803845 C158.331242,140.663423 157.811907,141.320203 156.83392,141.805563 C155.848588,142.2944 154.781529,142.376507 153.694686,142.404543 C149.999941,142.50207 146.302599,142.565553 142.604058,142.611213 C142.096904,138.646447 141.890686,134.643832 141.191902,130.702296 C141.01226,129.688776 139.471418,130.118335 139.65046,131.128251 C140.325265,134.93441 140.541275,138.798245 141.01226,142.630438 C133.105227,142.715749 125.193797,142.71675 117.292758,142.738979 C106.585192,142.77052 95.8790032,142.748244 85.1719153,142.742183 L80.5831017,142.740781 C68.2139996,142.740781 55.8446976,142.700729 43.4757953,142.618622 L40.5341871,142.597795 C39.364018,135.684588 38.5675198,128.712303 38.5527328,121.68715 C38.5505348,120.656407 36.9519432,120.654404 36.9541413,121.68715 C36.9689283,128.704493 37.7566342,135.677579 38.9160128,142.588783 C35.987393,142.575967 33.0601721,142.586581 30.1313526,142.690716 L28.6406578,142.743941 C25.6581019,142.84627 22.6695268,142.909315 19.6925497,142.67089 C16.3874617,142.404543 13.044607,141.79575 10.0812179,140.235718 C8.74659375,139.5318 7.57142914,138.632028 6.567114,137.57405 C7.58801452,136.978874 8.6235022,136.40793 9.6124309,135.759485 C10.4698754,135.197153 9.66998019,133.809545 8.80554181,134.376283 C7.73988072,135.075194 6.61966769,135.683787 5.52243442,136.330229 C4.72793442,135.267644 4.07590889,134.088308 3.58074516,132.81605 C2.79943354,130.807233 2.49769938,128.646417 2.23593002,126.519646 C1.92640273,124.014583 1.79831558,121.489092 1.79831558,118.966005 C1.79831558,113.65909 2.35582438,108.368196 3.13333935,103.125365 C3.87685818,98.1026297 4.85969583,93.120387 5.89858149,88.1539255 L6.0405779,87.4767763 C7.06567474,82.5944149 8.04281382,77.6980352 9.21777861,72.8497182 C10.3042214,68.3664768 11.5597152,63.9042629 13.0559969,59.5283614 C14.3878235,60.3536367 15.7815955,61.0755773 17.0926404,61.9352975 C17.9560797,62.5016354 18.7579732,61.1150287 17.8995295,60.5520952 C16.5007619,59.6346999 15.0088763,58.8723066 13.59732,57.9759387 C15.2704459,53.2902335 17.2343156,48.7138708 19.5888411,44.3307599 C24.3044864,35.5533235 30.6590876,27.7008924 38.7979168,21.9055414 C42.8721272,19.0055629 47.3421888,16.6326712 52.0362531,14.9062218 C56.8220365,13.1441259 61.781467,12.178668 66.8529987,11.7823516 C66.9978123,11.7708543 67.0790805,11.9051746 67.0731468,12.0293731 L67.0710066,12.0525036 L67.2708305,12.0847456 C67.3447654,11.5820907 67.4966316,11.0952564 67.7863763,10.6488748 C68.4457953,9.63154925 69.6964934,8.97869863 70.6956131,8.35388454 L70.9324955,8.20619235 C72.1212016,7.4677847 73.3757018,6.74034471 74.7582337,6.48144488 C74.8061915,6.47323418 74.8359652,6.52329941 74.8039934,6.56154925 C73.8922749,7.60915769 72.7264288,8.40959493 71.6579571,9.29567815 L71.412363,9.50091587 C70.5268899,10.231228 69.2917833,11.0600994 69.258879,12.280801 C69.2211122,13.7188748 69.5146536,15.2146236 69.6207601,16.6486921 C69.7266668,18.0783549 69.8004018,19.5062153 69.8383684,20.9400835 C69.9764467,26.0769765 69.8105929,31.2156719 69.3567927,36.3323386 L71.3629063,34.9863035 C74.4849112,32.8918635 77.6172794,30.8032875 80.8146976,28.8423796 C82.7491932,27.6550326 84.9232777,26.6395095 87.2410357,26.6857697 C87.8904635,26.6975851 88.6238173,26.791908 89.3273974,26.9921689 C88.5700647,26.2732322 87.8447038,25.5082355 87.103357,24.7852935 C85.8822328,23.5935408 84.6613085,22.4021885 83.4405841,21.2126386 L79.9202607,17.776061 L76.3985885,14.3394834 C75.3077496,13.2720926 74.0286765,12.2890117 74.1445744,10.60682 C74.2386915,9.26507175 74.9198913,7.92933138 75.3854811,6.63564579 C75.451423,6.44940313 75.5113702,6.26516308 75.5673209,6.08292564 C76.5066932,2.95484997 77.0400233,-0.28757469 77.9931835,-3.40343444 Z M123.491297,130.810237 C122.763139,130.080085 121.632535,131.212561 122.361093,131.942913 L122.746313,132.327413 C123.389727,132.970705 124.027581,133.633781 124.472852,134.429018 L124.538175,134.549309 C125.017952,135.461697 126.398336,134.653044 125.918359,133.740655 C125.325081,132.612986 124.381313,131.702599 123.491297,130.810237 Z M92.2923851,130.604168 C89.9742276,130.16059 87.739996,130.16059 85.4218385,130.604168 C84.4125277,130.79742 84.8399511,132.341832 85.846864,132.149181 C87.8742777,131.761076 89.839746,131.761076 91.8673596,132.149181 C92.8726739,132.341432 93.3032945,130.797821 92.2923851,130.604168 Z M60.9855682,114.455127 C59.9880471,114.201797 59.5624221,115.74661 60.5607425,115.99994 L61.0522343,116.123515 C62.72303,116.537303 64.314311,116.84562 66.0499062,116.461541 C67.0408095,116.241979 66.6401281,114.734663 65.6642218,114.908665 L65.6248807,114.916528 C64.0188957,115.271992 62.5393992,114.849641 60.9855682,114.455127 Z M116.585581,104.048969 C115.847432,103.329832 114.715829,104.461506 115.455177,105.181644 C116.377765,106.080816 117.465007,106.764106 118.782646,106.800554 C119.796379,106.828961 119.810734,105.27457 118.828002,105.20079 L118.782646,105.198466 C117.899624,105.173834 117.196044,104.643944 116.585581,104.048969 Z M22.5034732,99.7701937 C23.4238622,99.3089928 22.6151747,97.9267919 21.6967839,98.3869915 L16.1720515,101.155198 L16.1720515,101.155198 C15.2516624,101.616399 16.0603499,102.999001 16.9787408,102.538601 L22.5034732,99.7701937 L22.5034732,99.7701937 Z M131.673688,100.123254 C130.644595,100.094216 130.645394,101.696303 131.673688,101.725341 C132.640636,101.752376 133.631563,102.119455 134.493004,102.538601 C135.414592,102.987185 136.226077,101.606186 135.299893,101.155198 C134.173685,100.607284 132.937375,100.1585 131.673688,100.123254 Z M80.0527689,92.3879752 C80.8988235,91.8118245 80.0999274,90.4228147 79.2458798,91.0045727 C78.0805399,91.7979731 77.0246757,92.7357533 75.8778896,93.5532171 L75.5627249,93.7729798 C74.7166703,94.3491305 75.5155665,95.7377397 76.369614,95.1563823 C77.6406941,94.2906543 78.7816888,93.2533027 80.0527689,92.3879752 Z M139.500392,80.744204 C138.471699,80.7438037 138.4701,82.3458911 139.500392,82.3462915 L139.695449,82.345694 C140.544522,82.3409106 141.439465,82.3174046 142.229075,82.657476 L142.319708,82.6983503 C143.245293,83.1353196 144.057577,81.7545205 143.126597,81.3151481 C141.969017,80.7688363 140.758684,80.744805 139.500392,80.744204 Z M50.7226166,79.5997339 L50.8568922,79.5492472 C51.8180453,79.2033966 51.4036105,77.6545786 50.4318666,78.0046347 C48.9675568,78.5319217 47.8283605,79.5278193 46.5580797,80.3921455 C45.7116254,80.9682962 46.5105216,82.3569054 47.3647689,81.7757482 C48.4592805,81.0307499 49.4776032,80.0874891 50.7226166,79.5997339 L50.7226166,79.5997339 Z M110.683479,75.4318034 L110.898992,75.3161318 C111.814185,74.8441168 111.006297,73.4613151 110.092302,73.9327293 C109.36676,74.3068531 108.717514,74.8046091 108.005693,75.2012115 L107.790131,75.3169328 C106.875137,75.7887476 107.682825,77.1715492 108.59702,76.7003353 C109.322562,76.3260294 109.971809,75.8282569 110.683479,75.4318034 L110.683479,75.4318034 Z M86.364154,59.9139521 L86.1995533,59.7546562 C85.4638015,59.0327156 84.3325982,60.1647906 85.0691492,60.8875323 C86.9087399,62.6918718 89.0835361,64.0618233 91.2774869,65.3863064 L91.6765277,65.6267071 C92.5607487,66.1583999 93.3654397,64.7737958 92.4834168,64.2433046 L91.8977939,63.8904561 C89.9471653,62.7115767 88.0193417,61.4946638 86.364154,59.9139521 L86.364154,59.9139521 Z M42.1267839,58.4183151 C42.7466519,57.6116546 41.3986286,56.8222049 40.7685916,57.5818694 L40.7464001,57.6096614 C40.1011333,58.4491553 39.335502,59.2091766 38.5353023,59.9027484 L38.3848807,60.0320176 C37.9085004,60.4381468 37.0414643,61.3082805 36.372254,61.3655551 C35.3547504,61.4522681 35.3455585,63.0551566 36.372254,62.9676425 C37.4077416,62.8793275 38.2987566,62.1489759 39.0810673,61.5231605 C40.2196642,60.612574 41.2381668,59.5742211 42.1267839,58.4183151 Z M127.174452,52.5821109 C127.917251,51.882816 126.820058,50.7697621 126.070553,51.4255516 L126.044248,51.4494351 C124.656071,52.7563379 122.65923,53.1069948 120.872205,53.5501722 C119.874084,53.7980952 120.296912,55.3433085 121.29723,55.0951853 L122.11133,54.8937481 C123.937495,54.4370046 125.769867,53.9050568 127.174452,52.5821109 Z M95.5151457,42.4767443 C94.5176246,42.2226132 94.0919996,43.767426 95.09032,44.0215571 C96.7858261,44.4533196 98.3918112,45.0114468 99.9634265,45.7864566 C100.883416,46.2398474 101.694301,44.858848 100.770316,44.4030541 C99.0794054,43.5691676 97.3407372,42.9417502 95.5151457,42.4767443 Z M111.845338,8.70430111 C111.821359,8.63220718 111.897492,8.5501002 111.971227,8.57593386 C113.765234,9.24627526 112.811546,11.601009 112.254142,13.0105684 L112.153067,13.2682476 C111.279836,15.5271909 110.059112,17.7260558 108.728284,19.7486912 C107.335511,21.8654492 105.788874,23.8920898 104.114349,25.7945686 C103.387878,26.6205336 102.634409,27.4227641 101.855625,28.2011192 L101.562398,28.491883 C100.775291,29.267093 99.7601856,30.6288673 98.5390614,30.4786716 C97.2242199,30.3202652 96.490866,28.9126312 97.450021,27.8432378 C98.1276239,27.0862515 99.0667965,26.4832659 99.8239294,25.7945686 C100.575467,25.1134811 101.302826,24.4107656 102.012002,23.6878236 C103.462923,22.2038902 104.837712,20.6358471 106.094605,18.9836945 C107.310221,17.3859878 108.473501,15.7441024 109.531262,14.0370821 L109.741392,13.6948034 C110.546482,12.3670735 112.405045,10.4145294 111.845338,8.70430111 Z M48.2855577,25.4858063 C47.433908,24.9022459 46.6334133,26.2900541 47.4786686,26.8690085 C49.0328992,27.9335956 50.4002945,29.2232759 52.0826122,30.0988167 C52.9833567,30.5677849 53.7844079,29.2238806 52.921421,28.7329817 L52.8895013,28.7156145 C51.2083825,27.840274 49.838989,26.5495923 48.2855577,25.4858063 Z" id="ðŸ–-Ink" fill="#000000"></path>
                </g>
                <g id="head/Short-4" transform="translate(74.334507, 36.046967)" fill-rule="evenodd">
                    <path d="M81.0344066,60.8798823 C80.60426,57.0919469 81.1609421,49.174422 81.1982428,48.6934042 C81.4340545,45.652454 80.0123225,33.6441961 77.3246728,34.7506377 C72.8162119,31.1737773 66.8113397,30.3839482 61.1963199,30.0066566 C49.5330656,29.2228354 37.1254917,31.0221798 28.1194107,38.888429 C23.6655619,42.9735516 19.3295279,48.915093 19.6780633,55.1015536 C15.6314528,60.965594 9.92664014,69.0094746 14.9685401,75.8650069 C16.682377,78.0552607 19.4062303,78.8709234 21.5592136,80.5296847 C25.889725,84.0302457 28.6066239,89.0539913 32.9782478,92.5337251 C44.5600954,102.963915 64.2261643,105.142754 75.6053133,93.2792965 C84.4046049,84.6873018 82.9818053,71.8333539 81.4340545,60.8798823 C80.3934904,53.5157837 81.8735782,68.2697518 81.0344066,60.8798823 Z" id="ðŸŽ¨-Background" fill="#FFFFFF"></path>
                    <path d="M45.6158099,13.943187 C48.7350616,13.3123651 51.9380396,12.9198537 55.1234331,13.0380076 L55.3690264,13.0475672 C57.7657411,13.1435649 60.8009908,13.3559219 62.8917887,14.7526417 C63.0120827,14.6316841 63.2055123,14.5696032 63.3809577,14.6535125 C65.8655687,15.8420611 68.5983609,16.7013808 71.214456,17.5552933 C73.8185616,18.4050005 76.5201813,18.9659313 79.2495766,19.1920259 C80.2764718,19.2771368 81.1552975,20.3883847 80.5050704,21.3850833 C80.3504067,21.6225928 80.1997394,21.8625053 80.0496717,22.1030187 C80.3006505,22.0767845 80.5516294,22.0497493 80.8026083,22.0243162 C81.6284806,21.9410076 82.4535537,22.8243586 82.4045968,23.6302085 C82.3740238,24.1370689 82.3194718,24.6379215 82.238743,25.1327663 C82.5532658,25.1261577 82.8659903,25.1734192 83.1681241,25.301386 C84.6979762,25.9488295 84.5914701,27.7750089 84.476971,29.1644192 C84.3183107,31.0925314 83.5987447,33.1347924 82.2627218,34.5778726 C83.260243,35.6162255 83.9664208,36.8562412 84.3876496,38.32896 C84.6931805,39.4043612 84.8632306,40.5498537 84.7793046,41.6693123 L84.7525494,42.0044726 C84.6487605,43.2193037 84.4424099,44.5642757 83.5703697,45.4382229 C83.1227641,45.88881 82.57125,46.0530239 82.0455132,46.0009561 C82.3634331,48.8006038 82.5672535,51.6162725 82.7590845,54.421928 L82.8490381,55.762906 C83.276955,62.247329 83.5985384,68.7739826 83.514419,75.2690905 C83.4362879,81.3389992 82.2395423,87.2306756 78.5248151,92.159097 C75.141596,96.6469444 70.2840757,99.9552549 64.7889173,101.212893 C61.8275264,101.891778 58.8041901,101.939841 55.806831,101.507277 C54.3539111,101.297003 52.8913996,100.974583 51.5124146,100.46592 C49.9859595,99.9011844 48.8889261,99.0701016 47.861831,97.8244786 C47.376059,97.2337089 47.609853,95.9760703 48.5772007,96.0942242 C50.0401845,96.2720013 51.3757185,96.4862722 52.7782795,96.9199208 L52.9791224,96.9833827 C54.3760915,97.4319672 55.8228169,97.7664029 57.2833301,97.9085882 C60.2748944,98.1989665 63.3120185,97.9065856 66.1776937,96.997401 C70.8435827,95.5154701 74.8620423,92.2131674 77.4377729,88.0637611 C80.4950792,83.1453527 80.8407746,77.5620781 80.7966136,71.9067095 C80.7492868,65.7009396 80.5479042,59.491575 80.2191405,53.2922377 L80.1631717,52.25911 C79.9893248,49.0689535 79.8214727,45.8767943 79.6738028,42.6846352 C79.6278433,41.6833305 79.5579049,40.6740155 79.431816,39.6747134 C78.2790317,38.9978315 77.2459419,38.0646156 76.5725352,36.9131153 C75.2197271,37.4738459 73.7969806,37.8783729 72.487934,38.200793 C69.4558055,38.9481668 66.307779,39.1296032 63.2214982,38.6615934 C62.3890317,39.0062425 61.5399798,39.3092372 60.6779393,39.569977 C60.4449445,39.6735119 60.2119498,39.7752444 59.9791549,39.8749744 C57.9007861,40.7661355 55.7926435,41.5211192 53.5987764,42.0738393 L53.0598176,42.2085347 C51.9052644,42.4937708 50.6511916,42.7746615 49.422456,42.8628674 C49.2206338,42.9409691 49.0028257,43.0070553 48.7648354,43.0651309 C47.6460211,43.3374858 46.4848442,43.423598 45.3380546,43.3274727 C44.2208389,43.2333501 43.4135502,42.1018759 44.0290079,41.0424956 C44.4786118,40.2694884 44.932412,39.4984838 45.3900088,38.7294819 C43.797412,39.3943481 42.1528609,39.9470683 40.4943222,40.4156789 C38.8197975,40.8882947 37.121294,41.2868139 35.4205924,41.6532914 C34.5113935,41.8475445 33.5983979,42.0197689 32.6911972,42.214022 C32.0417694,42.352202 31.0446479,42.424296 30.5149146,42.8528543 C29.9296303,43.3234675 29.7637764,44.4208974 29.541772,45.0977793 C29.250029,45.9769248 28.9762702,46.8600755 28.7264903,47.7532392 C28.2291285,49.5355614 27.8214877,51.3439176 27.5057658,53.1702973 C27.190044,54.9986795 26.9780308,56.8450853 26.8601347,58.6974988 C26.7424384,60.5479098 26.7941928,62.4103364 26.6045599,64.2527369 C26.5024498,65.2300102 25.4555722,65.7326652 24.6822535,65.0497754 C24.5915335,64.969671 24.5001029,64.8886766 24.4095604,64.8067922 L24.2746127,64.6832979 C23.6129956,64.0825151 22.9715607,63.4456854 22.4422271,62.7287513 C22.3463116,62.5965791 22.2543926,62.458399 22.1684683,62.3182164 C22.1544806,62.3182164 22.1424912,62.3142112 22.1285035,62.3041981 L21.9817311,62.1935117 C20.3656249,60.9879778 17.6656555,59.4162954 16.0898239,61.4190448 C15.5876738,62.0570613 15.3305779,62.8694614 15.1171977,63.6532281 L14.7427847,65.0559411 C14.5006064,65.9716432 14.2726916,66.8924429 14.1393424,67.8293971 C13.8376083,69.9281316 13.9894745,72.3472836 15.4304049,74.0294753 C16.0058979,74.7023521 16.7991989,75.1829783 17.6842192,75.3091427 C18.1779842,75.3772314 18.6655546,75.2931218 19.1551232,75.2310409 C19.6526849,75.16896 20.1320625,75.2690905 20.6298239,75.2210279 C21.4211268,75.1429261 21.7668222,76.0921629 21.4710827,76.6889404 C21.3112236,77.0093579 21.1231893,77.285718 20.9095775,77.5200233 C21.0812262,77.6682164 21.2452817,77.8284251 21.4031426,77.9966443 C21.8707306,78.14684 22.2901611,78.4692601 22.6040845,78.8958159 C22.8578609,79.2402646 22.9895449,79.6147526 23.0117254,80.0092666 C23.0395009,80.1073945 23.0634798,80.2075249 23.0856602,80.309658 L23.5143593,81.0069505 C23.6086474,81.1598858 23.7025967,81.3109626 23.7968336,81.4591557 C24.8878724,83.1813997 26.0990053,84.6392992 27.6036796,86.0130892 C29.0524032,87.3348113 30.6248178,88.5183534 31.9858187,89.9362007 L32.1461433,90.1045439 C33.414958,91.4444774 34.7523812,93.0664955 34.2558187,95.0148178 C34.1279313,95.5154701 33.430346,95.8759398 32.9749472,95.5374988 C31.5102377,94.4480794 30.7726875,92.7218302 29.5299824,91.4001081 C28.2509093,90.0383338 26.8341576,88.8147395 25.5514877,87.4569705 C24.3383565,86.1753005 23.3811998,84.7234088 22.6600352,83.1253266 C22.3720889,83.4437415 21.9526585,83.6700363 21.3711708,83.7581511 C20.3720511,83.9083468 19.4406717,83.3215823 19.0052553,82.4544525 C18.7253019,82.5786143 18.4397535,82.6907604 18.1518072,82.7788752 C16.6371417,83.2434806 15.6841813,81.555281 16.2556778,80.3076554 C16.5612086,79.6387839 16.9428724,79.0580272 17.4166549,78.5693905 C15.9357597,78.3651244 14.4290871,77.598125 13.4559445,76.6408778 C11.0142958,74.2357441 10.6785915,70.6210344 11.2281074,67.4068465 C11.5198504,65.702626 12.0232069,63.9783795 12.676831,62.3782947 C12.7905308,62.099932 12.9126232,61.8195667 13.0463055,61.5432066 C12.9723706,61.541204 12.8964375,61.5091622 12.8484798,61.4470813 C12.4068688,60.8422933 11.8695423,60.3476489 11.5416312,59.6707669 C11.239897,59.0499581 10.9043926,58.4211387 10.6664023,57.774296 C10.1770335,56.4505712 9.93724472,54.9566247 9.77738556,53.5568008 C9.44767606,50.691067 9.57536356,47.8433566 10.0131778,44.9956462 C10.7583213,40.1453266 12.5583354,35.5036789 15.2101989,31.4307721 C15.0658119,31.3547302 14.927444,31.2629453 14.7984929,31.1544086 L14.7348178,31.0987395 L14.631309,31.0050174 C13.8745757,30.3187232 13.9399181,29.0324473 14.631309,28.3373416 L14.8496718,28.1179774 C15.126177,27.8426811 15.3646229,27.6245729 15.8112694,27.3248224 C15.8772113,27.2805647 15.9445519,27.2389104 16.0126919,27.2000598 C15.7788979,26.7670957 15.6977694,26.2608361 15.8606259,25.7023083 C16.4281259,23.7565732 19.2216646,23.8254629 20.9923046,24.6739685 C22.9511787,22.9218856 25.123265,21.4009039 27.4775907,20.1692992 C33.0848504,17.2374793 39.4250643,15.1928152 45.6158099,13.943187 Z M16.6314068,65.1899581 C17.6784842,64.8475119 19.0692589,65.5664486 20.0104297,65.9990122 C21.2033786,66.5477271 22.2184842,67.3587839 23.201618,68.2159007 C23.6911867,68.644459 23.7789094,69.3453723 23.6572166,69.9441524 C23.6450274,70.0042307 23.6332378,70.0663116 23.6190503,70.1283925 C23.4891647,70.7672249 22.7777915,71.2698798 22.148346,71.2518563 C20.8315063,71.2158093 20.2042589,70.0763247 19.4587158,69.111067 C19.370993,69.2672705 19.2610899,69.4114584 19.1250098,69.5195993 L19.0331208,69.5916827 C18.7237765,69.8277529 18.3827546,70.0164284 17.9740239,69.9982229 C17.6842791,69.9842046 17.4067237,69.9101081 17.1507492,69.7759333 C16.5113126,69.4374923 16.2297607,68.6084121 16.4034077,67.9335327 C16.5113126,67.5089796 16.7590943,67.1765464 17.0828091,66.9462464 L16.9621408,66.8635331 C16.7039552,66.6834567 16.4684754,66.4936303 16.284962,66.2134923 L16.2435485,66.1472053 L16.2595344,66.1472053 C16.0597105,65.8027565 16.1897959,65.3341459 16.6314068,65.1899581 Z" id="ðŸ–-Ink" fill="#000000"></path>
                </g>
                <g id="face/Contempt" transform="translate(106.106514, 73.295499)" fill="#000000" fill-rule="evenodd">
                    <path d="M38.0826146,44.0218778 C37.4232238,44.8859372 36.2292305,45.5476724 34.8921037,45.8641497 C33.6179128,46.1657311 32.2097049,46.1534253 30.994415,45.6893445 L30.8900919,45.6477111 C29.9814621,45.2695177 29.1092765,44.5058623 28.7780803,43.7089203 C28.6463995,43.3920629 28.6018488,43.0700341 28.6919683,42.7695072 C28.7730337,42.4991737 28.9630842,42.2503658 29.2796377,42.0366121 C29.3790188,41.9695102 29.512327,41.9646259 29.6393292,41.9870688 C29.796914,42.014916 29.9522367,42.0888069 30.0459471,42.188592 C30.5658889,42.7426765 31.3202011,43.2828645 32.2130353,43.2736733 C32.901913,43.266594 33.4644901,42.9939836 34.0100359,42.6859042 L34.3933856,42.4658736 C34.7632638,42.2543676 35.1383723,42.0556286 35.5627768,41.9648701 C36.322483,41.8022849 37.2439307,42.0993151 37.8054568,42.5894645 C38.0503019,42.8031869 38.228183,43.0544092 38.2765234,43.3249722 C38.3171233,43.5522112 38.2601072,43.7893469 38.0826146,44.0218778 Z M34.1327878,28.9111001 C35.641734,29.8303069 37.9409047,31.9737178 36.3176258,34.2525434 C34.4068714,36.2618592 31.6558164,33.9580414 30.3001441,32.9161143 C29.0431013,32.108615 27.6307432,34.1854428 28.7970282,35.1283344 C38.5931444,42.396852 42.5686157,29.1514599 34.8959917,27.8303383 C34.0512083,27.6847563 33.7374536,28.6267334 34.1327878,28.9111001 Z M17.1095255,14.7835019 L17.5430319,14.6643791 L17.9850542,14.5448212 L18.2839559,14.465618 C20.3371137,13.9270395 22.6017029,13.4530623 24.6376928,13.6844699 C25.3802386,13.76898 25.9829076,14.1877256 26.088015,14.9673414 C26.176537,15.6251986 25.7523107,16.4739044 25.0303468,16.5908568 C22.6390537,16.9785619 20.1910106,16.852798 17.7887271,17.2525189 C16.5923812,17.451378 15.4052271,17.6982997 14.2134771,17.9207896 C13.3072755,18.0902103 12.3709005,18.1496878 11.4569058,18.2866663 L11.6669208,18.3159044 C11.740456,18.3259174 11.7220722,18.4498789 11.6495361,18.4448724 C11.3482765,18.4147331 11.046558,18.4100458 10.7443805,18.4312128 L10.6148477,18.4418685 C10.4176215,18.4697048 10.3013239,18.2337974 10.477169,18.1140414 C11.5907879,17.3568548 12.5357553,16.5361855 13.7826567,15.9780583 C14.8611065,15.4954295 15.9711285,15.097511 17.1095255,14.7835019 Z M35.8008774,13.6222288 C37.3794865,12.0229451 40.7365288,12.6375459 42.6144742,13.369099 C43.6863298,13.7868433 44.705432,14.3149314 45.5542841,15.1049607 L45.6370337,15.1826805 L45.764506,15.3055334 C46.3374903,15.8677299 46.9764533,16.6413403 46.8855112,17.4518185 C46.8717233,17.5753795 46.8045825,17.7165635 46.6653052,17.7413958 C45.9131679,17.8749699 45.1744188,17.4772517 44.4798307,17.2379399 L44.0198234,17.0797461 C43.3290413,16.8439323 42.6338571,16.6186238 41.9216846,16.4559209 C41.0360649,16.2540579 40.1326608,16.1373058 39.2234619,16.1489209 C38.3044716,16.1609366 37.3173413,16.4208753 36.4419126,16.0551988 C35.4655728,15.6476678 34.9594188,14.4749399 35.8008774,13.6222288 Z M20.205409,26.5205534 C19.8026244,26.9327602 19.270696,27.1653358 18.589914,27.0269815 C18.0579329,26.918963 17.0450474,26.3828822 16.2359076,25.5573113 C15.6823477,24.9925103 15.2194945,24.2867633 15.0936713,23.4692053 C15.0644502,23.2793367 14.9639127,23.1576175 14.8319028,23.0809635 C14.7276444,23.0204239 14.5901849,22.9900094 14.4404594,23.0052018 C14.3133432,23.0181 14.1783609,23.0642282 14.0740565,23.1253945 C13.8756421,23.2417489 13.7944988,23.4069347 13.7780029,23.5302829 C13.6188227,24.7205582 14.0775928,25.9015852 14.7926967,26.8973865 C15.7577725,28.2412805 17.1750243,29.2260807 18.00803,29.4565811 C19.4335326,29.8512572 20.9355878,29.5370668 22.0430268,28.5427525 C22.9286207,27.7477295 23.3825445,26.7119527 23.8037111,25.6468523 L23.8849253,25.4403945 C23.9796511,25.1987139 24.0736599,24.9588105 24.1732587,24.7214511 C24.3728797,24.2458235 24.3089473,23.8347021 24.1153924,23.5142615 C23.9009685,23.1592714 23.5051827,22.9093883 23.0645635,22.8326397 C22.6573127,22.7617033 22.2214853,22.8392924 21.8774434,23.0885963 C21.58681,23.2991987 21.3524335,23.632886 21.2691622,24.1263235 C21.133745,24.9286802 20.8196044,25.8492792 20.2656785,26.4566916 L20.205409,26.5205534 Z M44.6488168,21.876593 C44.3166671,21.703147 44.0568125,21.6508522 43.6883602,21.7614849 C43.4846068,21.8228194 43.2832296,21.9403701 43.1255687,22.0983758 C42.9693181,22.2549681 42.8565834,22.4497031 42.8127633,22.6657344 C42.7049889,23.1988942 42.4139133,23.6979663 41.9991183,24.0233124 C41.6445856,24.3013916 41.197085,24.4487802 40.7007224,24.3656293 C40.1651092,24.2760219 39.6548076,23.9317578 39.3033454,23.5258783 C39.2054546,23.4126994 39.1251955,23.2867203 39.0475904,23.1592103 L39.001226,23.0826108 C38.828057,22.7960989 38.6597433,22.529779 38.4209176,22.3193685 C38.3303867,22.2393136 38.1939703,22.1838672 38.0618455,22.1838672 C38.0081464,22.1838672 37.9536495,22.1926242 37.9017191,22.2088443 C37.3686118,22.7450823 37.266091,23.1518738 37.2832784,23.5553569 C37.3013019,23.9784686 37.4677506,24.4068649 37.7367328,24.8065714 C38.367699,25.7441844 39.5656925,26.5129397 40.3741079,26.6870663 C41.4812272,26.9255034 42.580729,26.6392756 43.4622588,26.0195714 C44.3693012,25.3819322 45.0414175,24.3919371 45.2509634,23.2762615 C45.3013731,23.0075605 45.2799519,22.7175281 45.1778434,22.4660575 C45.0780679,22.2203328 44.9041929,22.0098742 44.6488168,21.876593 Z" id="ðŸ–-Ink"></path>
                </g>
                <g id="facial-hair/*-None" transform="translate(98.912839, 103.735091)"></g>
                <g id="accessories/Glasses-5" transform="translate(83.726232, 84.309850)" fill="#000000" fill-rule="evenodd">
                    <path d="M73.3532716,14.9058813 C72.7881695,16.4470894 71.9281272,18.05158 70.8764538,19.34867 C66.6214027,22.959775 62.4868455,20.9603699 60.3874952,16.0661932 C59.589798,12.6074867 61.707732,8.88183242 63.9519547,6.33751735 C67.193099,3.08187547 72.4826386,4.7905017 73.9729256,8.66074436 C74.0634459,9.16219772 74.1181976,9.66244951 74.1443746,10.1610992 C74.1134018,11.7814104 73.9185735,13.1662147 73.3532716,14.7056204 M32.4533068,11.7976315 C38.058768,5.11552518 48.5455286,4.75825969 48.2779643,15.0426596 C47.0738253,28.0604208 26.7974899,24.8652577 32.4533068,11.7976315 Z M75.1163182,6.22336862 C74.9198913,5.88993418 74.7018834,5.56731383 74.463893,5.25871174 C74.3759705,5.20624338 74.3254151,4.74083699 74.0020999,4.70639211 C69.6805075,-0.0716333333 62.0885964,2.63929883 59.3454133,7.40030209 C58.8444547,8.00228643 58.4358147,8.70700463 58.1344802,9.45157476 C55.4316615,8.9547274 52.2806378,9.05125316 49.7668526,10.0743862 C47.2742487,3.55148735 39.7278974,2.96912857 34.754879,5.75615988 C31.6618041,7.28074631 29.6561712,10.4735063 26.6480216,12.2273915 C19.576452,12.737456 11.9869388,11.1495871 5.04305678,12.9273034 C-0.433318222,14.0683902 4.14464833,16.847411 5.06303917,14.9927946 C11.609871,13.0542688 19.3660374,14.6924032 26.1634485,14.2556341 C26.8702258,15.4537952 28.2256316,16.4342727 29.5764415,16.3924182 C31.0353561,29.3535056 49.8955392,27.2043053 50.5461659,15.6826935 C51.2841158,14.5133699 52.2019071,13.3943119 53.5155497,12.6657626 C54.0185066,12.5614267 54.5042786,12.42585 54.9482874,12.2159766 C55.7072187,12.1086367 56.8765885,12.4310568 57.5747733,13.0642819 C59.9664661,27.4462205 73.7453261,25.7712382 76.2077566,13.1720222 C76.2567135,13.121957 76.3935929,12.9341123 76.4987003,12.6327196 C77.3415577,11.5158644 79.4049397,11.1007235 79.0752302,9.21526686 C78.7816888,7.32940972 76.4053825,7.35183894 75.1163182,6.22336862 Z" id="ðŸ–-Ink"></path>
                </g>
            </g>
        </g>
    </g>
</svg>