<?xml version="1.0" encoding="UTF-8"?>
<svg width="134px" height="186px" viewBox="0 0 134 186" version="1.1" xmlns="http://www.w3.org/2000/svg" xmlns:xlink="http://www.w3.org/1999/xlink">
    <!-- Generator: Sketch 64 (93537) - https://sketch.com -->
    <title>mug</title>
    <desc>Created with Sketch.</desc>
    <g id="website" stroke="none" stroke-width="1" fill="none" fill-rule="evenodd">
        <g id="footer" transform="translate(-40.000000, -467.000000)">
            <g id="a-person/bust" transform="translate(11.000000, 425.500000)">
                <g id="body/Coffee" transform="translate(24.974472, 108.375734)" fill-rule="evenodd">
                    <path d="M66.9735144,0.538130463 C71.1673569,-2.64987997 81.6962204,-4.08352642 86.1722574,-1.01389824 C90.5932486,2.0686197 91.0752113,7.05347325 93.1353504,11.6391745 C95.0791118,10.7241712 98.2890267,12.034608 98.8525663,13.8351037 C99.5515117,14.6843014 99.5829029,17.070155 100.064893,18.2117466 C121.036994,21.5442581 124.22095,37.8665323 126.745241,56.3969172 C130.084684,75.200531 137.665541,93.9631011 134.374517,113.312325 C134.80333,113.931712 135.14142,114.533799 135.454026,115.248841 C136.20309,116.521196 135.23826,118.322201 133.727389,118.252494 C131.771735,118.081027 129.835449,117.846976 127.870621,117.773877 C122.423852,117.585044 116.972109,117.607558 111.523272,117.676666 L110.780267,117.686363 C83.319731,118.027602 55.8607239,118.700074 28.3989986,118.878415 C27.402738,118.879853 26.9149713,117.987915 27.0479986,117.10802 C27.315922,115.336526 27.5644775,113.564184 27.8239062,111.791842 C21.3285048,113.504484 14.4233181,113.935443 7.94626532,111.97196 C7.49315704,111.511151 9.00198891,111.760975 9.24137007,111.690929 C3.28045634,107.624719 5.06060951,99.0586262 5.5886412,92.8888415 C8.87201972,71.7477717 10.02951,48.356591 22.7153525,30.3165258 C28.2034502,22.9544384 36.2494775,17.1255538 45.494959,15.8140209 L45.7514563,15.7789623 C48.4548264,15.4191265 51.4677078,15.3032133 53.8313357,13.8351037 C56.489709,11.7165518 57.6225435,7.80202883 60.4192641,7.7653837 C61.3427552,7.75328329 62.5990385,8.91955594 63.9509238,9.71139856 C64.0518449,7.96947673 64.9922048,6.49945151 65.1998254,5.14884823 L65.2166322,5.0333469 C65.4332797,3.45873008 65.1365732,2.04207654 66.9735144,0.538130463 Z M112.044499,56.9554552 C106.150739,52.8681288 90.9260007,54.9218493 90.5774697,55.1507233 C89.8100569,55.6546111 89.479591,55.6991742 89.0645391,56.353499 C88.6547539,56.4077717 88.2453085,56.4640796 87.8362028,56.5220835 C87.0154431,56.7897156 87.623665,57.7974912 88.5716755,57.4379348 C88.0014677,59.8928058 89.6795355,61.6386357 90.3475813,64.0655409 C90.5644911,64.8535399 90.3554101,66.2707685 90.3475813,67.0759126 C90.4123663,68.102497 91.5493343,69.3151045 91.3598406,70.3450328 C90.6861578,74.006605 87.030364,77.5784062 88.5716755,81.1293431 C89.5927407,83.1348877 92.6637512,84.1575564 94.7055417,84.8393568 C98.9357415,86.4600744 106.306475,84.778332 108.764336,81.1293431 C110.075323,79.1830268 111.594162,74.2734399 112.375846,72.7505827 L112.549103,70.3348413 C112.976377,64.329771 113.356441,57.8652881 112.044499,56.9554552 Z" id="ðŸŽ¨-Background" fill="#FFFFFF"></path>
                    <path d="M69.5909993,24.9552757 L69.998773,25.0966651 C72.0270071,25.8074808 74.1947674,26.7674126 75.3380087,28.6844618 C75.5634585,29.0625049 75.1095008,29.529589 74.727918,29.2936725 C72.7413432,28.0657534 70.4071645,27.8188128 68.244749,27.0074364 C66.1558978,26.2237052 64.33497,25.0174951 62.7260703,23.478017 C61.119889,21.9410828 59.7712675,20.1924853 58.3645422,18.4808611 C56.9734471,16.7884018 55.4756584,15.3428832 53.8302314,13.9109328 C51.2910707,15.6161777 48.3926807,16.3581777 45.4455126,17.0869493 L45.1238247,17.1664449 C42.1730994,17.8957339 39.2381742,18.7427267 36.4699154,20.0127071 C34.0292129,21.1322505 31.6286055,22.4692237 29.6405017,24.2910894 C27.5300739,26.2245532 25.8875351,28.6939596 24.3841399,31.1089237 C21.0212508,36.5117678 18.6570008,42.4308806 16.5756249,48.4219048 C14.4108309,54.6534247 12.6000967,61.0097717 11.1383256,67.4415917 C10.3948679,70.7132159 9.79106329,74.0080757 9.29480185,77.3260013 C9.05593037,78.9239922 8.84373231,80.5253751 8.65735819,82.1303196 C8.45841188,83.8441487 8.4127103,85.607332 7.88603776,87.2551859 C7.66024815,87.961409 7.12711963,88.2544814 6.59348143,88.2295499 L6.4850929,89.5827656 C6.34136498,91.3869845 6.20737949,93.1917678 6.16211963,95.0071885 C6.08704109,98.0257665 6.12108291,101.035655 6.33858697,104.047837 L6.36939076,104.458604 C6.54030449,106.656986 6.92222702,109.127071 8.57818741,110.736765 C10.2931011,112.403953 12.9303714,112.928193 15.2417842,112.958213 C20.625227,113.028258 25.807345,110.488976 30.571183,108.261252 C35.4773925,105.967045 40.2495554,103.42047 44.9073793,100.658669 C47.2794445,99.2521592 49.6258555,97.7988389 51.9423652,96.3031181 C53.0791284,95.5689106 54.2079066,94.8223222 55.3281901,94.0636921 C55.9698811,93.6291716 56.577933,93.1527593 57.2311768,92.7672538 C56.9110959,92.4697717 56.7682147,92.0020091 57.036308,91.5936073 C55.1479321,89.9572864 54.3620008,87.0372472 54.2700879,84.6745205 C54.1958441,82.7673451 54.4770193,80.8655969 54.6989013,78.9763992 C54.8108617,78.0237443 54.9491557,77.0727854 55.0927165,76.1243705 C55.1494612,75.7497195 55.1927842,75.3489498 55.259043,74.9534377 C50.1600034,77.7506849 44.9180827,80.2418004 39.5373582,82.454938 C36.779293,83.5894064 33.9858899,84.6093933 31.1539207,85.5440705 L30.5799248,85.7326027 C27.8966274,86.6094256 25.1491289,87.4377004 22.375139,87.9390215 C22.2268212,87.9658187 22.1063661,87.7472016 22.2647077,87.6774951 C24.9680668,86.4867189 27.7650378,85.4823353 30.5090017,84.3856882 L30.9599013,84.2023483 C30.9080835,84.1994651 30.8543969,84.1923418 30.7983318,84.1789432 C29.1890923,83.7912329 27.5924251,83.1937247 26.0141064,82.6906849 C24.5492772,82.2237704 22.9035105,81.9305284 21.5343318,81.2256621 C21.4289973,81.1713894 21.4879506,81.0251924 21.5905668,81.0182387 C23.12947,80.9117286 24.8000413,81.3594781 26.3088732,81.6228702 L26.8756911,81.7219861 C27.8252276,81.8891266 28.7958435,82.0688106 29.7407393,82.3031442 C29.7748881,81.9871755 29.9517482,81.66985 30.2033617,81.4837965 C32.9721302,79.4368689 32.690955,75.3026484 32.9870809,72.2540509 L33.2066675,69.9907067 C33.5929093,66.0296103 34.0015202,62.0690453 34.6223142,58.1375603 C34.6554436,57.927593 34.9807913,57.9878017 34.9821504,58.1860665 C35.014169,63.0595173 34.6456415,67.9105447 34.4609241,72.7763903 L34.4323211,73.5746161 C34.3302013,76.5770462 34.2501665,79.6947193 32.3559233,82.0049837 C32.6207886,81.8504762 32.978926,81.8504762 33.1935026,82.1052185 C33.4571786,82.4184736 33.609404,82.7702283 33.6046469,83.1153686 C35.3163327,82.3989693 37.020543,81.6639139 38.7164286,80.9139335 C44.1688485,78.502531 49.5069295,75.8039922 54.7038283,72.8841226 C55.2631205,72.56985 55.79472,72.8167906 56.071308,73.2311285 L56.1112269,73.2254123 C56.1178968,73.224514 56.1246548,73.2238356 56.1316205,73.223666 L56.1712059,73.22197 C56.1727349,73.22197 56.174264,73.2221396 56.1756232,73.2221396 C56.9071883,72.8208611 57.9037886,73.1066406 58.5315483,73.6919374 C58.5500668,73.709576 58.565867,73.7285714 58.5823467,73.7472277 C59.3771126,73.3910633 60.1192112,72.9102414 60.7926724,72.3008611 C62.1708555,71.0539465 63.3381997,69.5120939 64.355867,67.9660013 C66.2299717,65.1183823 67.821882,61.9517417 70.3534779,59.6076712 C72.410389,57.7032094 74.9605034,56.5175212 77.63583,55.7731376 C77.624617,55.6951207 77.6545184,55.6120157 77.7085448,55.5567254 C77.8459893,55.4161252 77.9440184,55.3674494 78.121558,55.4527593 C78.1356592,55.459713 78.144154,55.4692107 78.1499304,55.4793868 L78.4109929,55.0341011 C78.5534909,54.7924857 78.699814,54.5491077 78.750507,54.4851794 C79.0542781,54.1034051 79.3668837,53.724514 79.6842464,53.3535943 C80.2223018,52.7255577 80.8354506,52.1058317 81.5454392,51.6702935 C83.0999726,50.7169602 84.7341865,51.2564644 86.3323828,51.7774821 C87.2980624,52.0924331 88.260514,52.4175603 89.2244946,52.7372603 L89.3239338,52.7696764 C90.0427332,53.000225 90.8838529,53.2018833 91.205293,53.9621265 C91.3325439,54.2630007 91.3522517,54.5752381 91.2929585,54.8781474 C98.1199938,53.1449837 105.702719,53.9412655 112.364787,55.9758121 C112.620478,56.0538291 112.875829,56.2637965 112.929686,56.5395695 C113.693021,60.4473712 67.5720066,24.2431814 69.5909993,24.9552757 Z M120.011681,61.7214729 C120.091022,61.601225 120.279435,61.6772068 120.244607,61.8195029 C119.323609,65.5861957 118.459017,69.3605205 117.894458,73.1991246 C116.875333,80.1273181 117.062798,87.1459853 117.146111,94.1254217 L117.15032,94.4863914 C117.193134,98.2457913 117.252597,102.00553 117.377129,105.763404 C117.43999,107.662608 117.564353,109.580468 117.496735,111.48069 C117.459868,112.511532 117.184639,113.486574 117.08712,114.505035 C117.001663,115.395615 117.077776,116.299933 117.120419,117.191701 C117.148961,117.78463 116.272306,117.759359 116.212673,117.191701 L116.136425,116.457467 C116.037368,115.528275 115.914934,114.604761 115.609888,113.715367 C115.243086,112.645687 115.067076,111.595172 114.939825,110.472067 C114.744914,108.751061 114.658234,107.012813 114.583008,105.279702 L114.531569,104.080951 C114.217438,96.8382241 114.228448,89.561518 114.737004,82.326377 L114.774178,81.809653 C115.277745,74.9706184 116.151511,67.581225 120.011681,61.7214729 Z M100.379555,18.6176621 C100.138984,18.5189537 100.223252,18.1558356 100.489646,18.2190972 L100.974109,18.3344601 C104.523979,19.1832694 108.009422,20.1029192 111.322791,21.6823718 C114.638279,23.2627241 117.445274,25.6220587 119.675647,28.523272 C124.011351,34.162711 125.813081,41.0163314 127.235437,47.8635068 C128.816134,55.4720261 130.255309,63.1083601 131.849768,70.7145049 L132.145855,72.1313163 C133.62122,79.2155286 135.014178,86.3037564 136.040552,93.4718826 L136.114281,93.9917696 C137.149309,101.362932 137.771875,108.989335 136.642488,116.379697 C136.419077,117.841837 133.981772,117.477701 134.077083,116.0332 C134.352312,111.857088 134.549389,107.702855 134.358938,103.517414 C134.168316,99.3311259 133.775011,95.1631546 133.188705,91.0135003 C132.695307,87.5213425 131.9598,84.0726553 131.308909,80.608256 L131.206888,80.0611063 C130.661866,77.1145075 130.099992,74.1708394 129.539357,71.2269759 L128.701546,66.8193689 C127.445853,60.2196363 126.165595,53.61412 124.718962,47.0558617 L124.633112,46.6699528 C123.217412,40.360393 121.130266,33.7511037 116.883773,28.7407019 C112.574403,23.6558617 106.405368,21.0950398 100.379555,18.6176621 Z M84.7209008,85.5422557 C84.8245364,85.3117665 85.1870909,85.3370372 85.2985416,85.5422557 C85.7352325,86.346588 85.7837628,87.3732729 85.8663147,88.2812852 L85.8749932,88.3747802 C85.9799879,89.4827906 86.0729202,90.5945323 86.1298348,91.7061044 C86.2377177,93.8157847 86.2893656,95.9227515 86.2827397,98.0351455 C86.2759439,100.199947 86.2322811,102.362204 86.1153937,104.523782 L86.0836733,105.102984 C85.9769659,106.981437 85.7979958,109.07668 84.903877,110.718838 C84.5788691,111.316007 83.6949087,111.140468 83.5066658,110.536685 C82.8899492,108.559803 83.2066323,106.215902 83.364804,104.191192 L83.487627,102.611325 C83.6092501,101.031283 83.7252349,99.4506445 83.8172327,97.8687658 C83.9432943,95.7044736 84.0472696,93.5383157 84.1473374,91.3730059 C84.1798439,90.6697225 84.2149931,89.9662131 84.2521308,89.2629298 L84.3092467,88.2082309 C84.3580064,87.3259609 84.353929,86.3578721 84.7209008,85.5422557 Z M15.3788922,88.3439993 L15.6519025,88.0807304 C16.4899912,87.2619794 17.54908,86.0009954 18.7880403,86.079199 C19.2820931,86.1104057 19.5969074,86.5198252 19.4944611,87.0050568 C19.2756371,88.0423431 18.2156662,88.5806601 17.4526706,89.2139543 C16.6167903,89.9074573 15.8289901,90.648788 15.042719,91.397242 C14.3451705,92.0608761 13.6743353,92.7434052 13.0195936,93.4472115 L12.7747991,93.7121409 C12.5401044,93.9678069 10.8688348,95.4768748 11.0495363,95.8684054 L11.0593757,95.8859309 C11.1096644,95.960895 11.0259065,96.064013 10.9424884,96.0377247 C10.2207771,95.8101187 10.2657991,95.1925975 10.5386495,94.5669354 C11.0629435,93.3647958 11.9810526,92.2527149 12.7827842,91.2261135 C13.5823495,90.2019819 14.4477655,89.2483577 15.3788922,88.3439993 L15.3788922,88.3439993 Z M87.3361187,58.1967515 C86.7780158,56.8799609 84.722124,56.907606 83.5549497,56.9863014 C80.6157772,57.1845662 77.4356945,57.9269145 74.8205105,59.298317 C72.1092264,60.7200939 70.2829134,62.9981895 68.6487678,65.5172442 L68.5723054,65.635499 C66.9795457,68.1071102 65.4455695,71.0329159 62.9515202,72.7323288 C61.68122,73.5981474 60.1978723,74.3886628 58.6565906,74.7310894 C58.5507464,74.9168037 58.379323,75.0638487 58.1545527,75.1172733 L58.0500661,75.1411424 C57.6110918,75.2378985 56.9291177,75.3449706 56.3400809,75.2809393 C56.3439885,75.5685845 56.3409304,75.8540248 56.3482358,76.1265753 C56.3689629,76.907593 56.3777974,77.6920026 56.3777974,78.473529 C56.3781372,80.1110372 56.2899621,81.7517678 56.3584295,83.3891063 C56.4190818,84.8373386 56.6239744,86.3505284 57.3205413,87.6451011 C57.8314136,88.5948728 58.5057244,89.2234181 59.3196883,89.8234703 C61.3220633,88.6052185 63.5862455,87.8627006 65.8842367,87.3043705 C68.6633688,86.6291846 71.5089295,86.1785519 74.2248608,85.2630398 C75.5320281,84.822244 76.7887367,84.2454273 77.9273687,83.4620352 C79.1358274,82.630137 80.0588635,81.5046575 81.008573,80.4037704 L81.1570177,80.2327303 C82.1262423,79.1230619 83.1838093,78.0612429 84.5535888,77.4596477 C85.7331654,76.9413438 87.2878688,76.8490802 88.3192974,76.0472016 C88.8585422,75.627606 88.9037341,75.0187345 88.9604788,74.3952772 C88.2999295,74.489576 87.6006443,74.3384605 86.9423036,74.2614612 L86.6012088,74.2214941 C85.9786799,74.1476572 85.3704671,74.0664971 84.757632,73.9083496 C84.6438027,73.8790085 84.6438027,73.7077104 84.757632,73.6783692 C85.4818916,73.4916373 86.1996953,73.4120939 86.9423036,73.3252577 L87.1167264,73.3035431 C87.7885374,73.2155894 88.494676,73.082842 89.1536487,73.2304501 C89.2718952,72.7813438 89.442639,72.3525897 89.6821901,71.9231572 C90.018411,71.3198826 90.6546654,70.6358774 90.740632,69.9311807 C90.766286,69.7207045 90.7171865,69.4725766 90.6177983,69.2865232 L90.5835407,69.2231036 C90.5417779,69.1482032 90.4922841,69.0728811 90.4198714,69.026184 C90.4118864,69.0355121 90.3948969,69.046197 90.3580298,69.0577299 C89.8508952,69.2171559 89.4084902,68.9693673 89.1736962,68.5874234 C88.176926,68.7108937 87.0890923,68.6693412 86.1543335,68.7105545 L85.2092155,68.7561889 C84.1993421,68.8024082 83.1435886,68.8226439 82.1946055,68.6189693 C82.0620879,68.5906458 82.0219929,68.3705023 82.1546804,68.3138552 C83.321345,67.8157339 84.7365651,67.6568167 85.9856284,67.4655055 C86.6832147,67.3584866 87.3858978,67.2770776 88.0855228,67.1829485 C88.5513732,67.1201957 89.0457658,67.0165688 89.5284357,66.9916373 C90.7385932,65.4877756 90.0865386,63.1153816 88.4023758,62.4678408 C87.7888872,62.7369993 87.2372402,62.5804566 86.567007,62.5229615 C85.8979629,62.465636 85.22722,62.4267971 84.5554577,62.4296804 C83.2093846,62.4356164 81.7829515,62.7890672 80.4499603,62.6369341 C80.2331751,62.6120026 80.0316804,62.3240183 80.2472763,62.1483105 C81.2676582,61.3170796 82.7299961,61.0460502 84.0252071,60.8689096 L84.2936504,60.8330463 C84.7279004,60.7762296 85.2559321,60.6932942 85.8036716,60.64394 C85.9275246,60.4027658 86.1497464,60.2204436 86.4835888,60.1751598 C86.5828071,60.1615917 86.6825351,60.1536204 86.7820932,60.1451402 L86.7805642,60.1353033 L86.7805642,60.1353033 C87.594698,60.0962948 87.5593599,58.7235356 87.3361187,58.1967515 Z M31.5990439,83.8787476 C31.5846595,83.9009089 31.568916,83.9220149 31.5521657,83.9423169 L31.5263291,83.9721983 L31.6602059,83.9179256 L31.5990439,83.8787476 L31.5990439,83.8787476 Z M101.543025,55.2543249 C98.1162561,54.8867971 94.6845598,54.9643053 91.2475967,55.0630137 C90.9727077,55.9605479 90.0158626,56.7254534 89.088749,56.7542857 C89.8148776,57.8575473 89.889801,59.3507241 89.3806276,60.5208089 C90.4616654,60.950411 91.3930263,61.7221005 91.9584348,62.821122 C92.7424973,64.3446575 92.6398811,66.04 91.8649929,67.4480365 C92.5263916,68.0457143 92.916639,69.016347 92.8775633,69.9311807 C92.8339004,70.9513372 92.2248291,71.8227528 91.7187138,72.6673712 C91.1718239,73.580848 91.1534753,74.3851011 90.9854497,75.4081409 C90.7396126,76.9053881 89.7280615,77.8134377 88.4265008,78.3805871 L88.4956939,78.6522819 C88.8312547,79.9561993 89.2487637,81.3320395 90.2078432,82.2855055 C91.4415945,83.5121271 93.3555695,83.5007163 94.9856256,83.5784468 L95.0642737,83.5822831 C96.5568976,83.6567723 98.0488692,83.7440699 99.5409712,83.8284585 L100.660084,83.8909589 C102.378056,83.9852577 104.0279,83.996621 105.430378,82.8628311 C107.720045,81.0121331 109.289699,77.949289 110.283241,75.2378604 C112.368525,69.5466928 112.393499,63.3010959 111.436314,57.3738421 C108.22616,56.3409654 104.895381,55.6138813 101.543025,55.2543249 Z M73.0451509,64.6963048 L73.0703437,64.6981422 C73.775915,64.7785336 74.2606236,65.3489054 74.4332363,66.0254481 C74.6840004,67.008801 74.5609968,67.8978552 75.1642917,68.7855525 C75.7849158,69.6983509 76.1664986,70.4291663 76.2567125,71.5568506 C76.2937495,72.0208819 76.27676,72.483726 76.3802257,72.9379204 L76.4552495,73.2561391 C76.5349201,73.5954554 76.600109,73.922281 76.5604836,74.2865962 C76.5242961,74.6188467 76.3622169,74.8776595 76.0283745,74.9841696 C74.9405408,75.3315147 74.1005831,74.531332 73.8195778,73.5193164 C73.5767988,72.6451872 73.9009572,71.6034912 73.5584502,70.7826171 C73.3686782,70.3275747 73.0186958,69.9469876 72.8209387,69.4888924 C72.6250505,69.0348676 72.5266817,68.5604905 72.4952512,68.0669485 C72.4356183,67.1334586 73.2626641,66.01188 72.801231,65.1660744 C72.7029735,64.9856177 72.814252,64.6908497 73.0451509,64.6963048 Z M58.5951738,55.0632342 C59.3318357,54.9138147 60.1675461,54.5713881 60.8940144,54.8559804 C61.2674423,55.0025166 61.4519475,55.4570502 61.1364537,55.7730189 C60.5886851,56.3211632 59.7925734,56.351709 59.0547788,56.4809639 L58.9898384,56.4926406 C58.1174308,56.6537626 57.2434942,56.806574 56.3683683,56.9514142 C54.721922,57.2236256 53.0715681,57.4642909 51.4154379,57.6688311 C49.7144555,57.878968 48.008716,58.0660391 46.3005981,58.2068089 L45.6393321,58.2609694 C44.1964556,58.3761652 42.6950998,58.463055 41.2793701,58.2424253 C41.073628,58.2103705 41.1067574,57.911362 41.2793701,57.858955 C42.8303357,57.3903444 44.5316579,57.2646693 46.135121,57.0664044 C47.839841,56.8552498 49.5416729,56.6322231 51.2390875,56.3676438 C52.9337838,56.1034038 54.6262715,55.8198291 56.3124731,55.5064044 C57.0746192,55.3649563 57.8355761,55.2172329 58.5951738,55.0632342 Z M85.1759119,53.5586432 C84.5294638,53.3301892 83.818286,52.9916634 83.1178115,53.1049576 C81.9098626,53.3003392 80.834771,54.4751729 79.8786055,55.2488976 L80.3587075,55.1557395 C82.8152668,54.6844049 86.0683988,54.176652 88.1305448,55.7358252 C88.1358115,55.7268363 88.139889,55.7178474 88.1458353,55.7088584 C88.3123318,55.4564905 88.5051619,55.2595825 88.715661,55.0436791 C88.7357652,55.0247402 88.7552275,55.0051794 88.7743689,54.9852983 L88.8879339,54.8645793 L88.628181,54.7747511 C88.0718177,54.57843 87.4127043,54.324913 87.3085096,54.2879086 L87.3012904,54.2853881 C86.5919814,54.0455708 85.881823,53.8084671 85.1759119,53.5586432 Z M64.9921724,2.15660926 C64.8910852,0.858644488 66.914697,0.869329419 67.0149347,2.15660926 C67.2335887,4.96691585 66.6000526,7.75059491 65.2364805,10.2144044 C65.2264567,10.2323823 65.2154136,10.2483249 65.2048801,10.2652851 C66.0577498,10.7082857 66.9203035,11.1333085 67.8020553,11.5132172 C68.929984,11.9992968 70.0791495,12.4419583 71.2488722,12.8174573 C72.3069743,13.1573399 73.6105738,13.2914951 74.5001407,13.9987358 C76.3759444,15.4898774 75.6712225,18.5844371 75.3103669,20.5903209 L75.2540697,20.9069737 C75.0743939,21.9391769 74.9444421,22.9981736 75.3803634,23.9888076 C75.8458739,25.046955 76.7872586,25.8318735 77.6270465,26.5889772 L77.7966621,26.7425046 C78.5406361,27.4190877 79.390732,28.2412407 79.9364206,29.1584488 C80.4345509,28.1303209 81.1136187,27.2901122 81.8315923,26.3442414 C82.3438238,25.669225 81.9792305,25.4467071 81.6112393,24.7872942 C81.2570095,24.1526432 81.084057,23.4761005 81.1948282,22.7520691 C81.3992111,21.4149263 82.4697155,20.4490424 83.535293,19.7233151 C84.7937005,18.8666549 86.1982173,18.2320039 87.4990984,17.4350437 C90.1722164,15.7977052 92.7755077,13.9256373 95.1208995,11.8464853 C95.1856292,11.7889902 95.2977595,11.8642935 95.2459417,11.9428193 C93.3932437,14.7560091 91.2208044,17.1869159 88.5509144,19.2502948 C87.4683157,20.0869631 86.3310654,20.7809769 85.1861997,21.5105145 L84.857054,21.7213641 C84.3973741,22.0186282 83.8240079,22.4159237 83.6161627,22.9220104 C83.4070227,23.4309863 83.8529954,23.8153046 84.0930562,24.2369354 C84.855367,25.5758668 84.487582,26.8251448 83.5838386,27.9606302 L83.5417489,28.0129563 C82.6436873,29.1177443 81.9630905,30.1451937 81.6375729,31.5566223 C80.9381465,34.5885614 81.912359,37.7467327 82.9321577,40.5931043 L82.9724329,40.7052981 C83.5240799,42.2395186 84.1103854,43.7625453 84.5896574,45.3213581 L84.7215289,45.7523082 C85.1557819,47.1865774 85.5113807,48.601185 85.0242472,50.0756438 C84.8586002,50.5771572 84.1734162,50.6957091 83.8888431,50.2237065 C82.8849373,48.5592316 82.6346829,46.5562309 82.0053942,44.7262244 C81.3920755,42.9426888 80.6878634,41.1913777 80.0954417,39.4005492 C79.332616,37.0948089 78.8220835,34.6128519 79.0991812,32.1943262 C79.0910262,32.1802492 79.0820218,32.1670202 79.0752261,32.1520952 L78.8810408,31.7280692 C78.3515231,30.5799098 77.8400894,29.5771872 76.8771327,28.6620235 C75.8727173,27.7073333 74.7825051,26.8622061 73.9921565,25.7065375 C72.2754359,23.1962234 73.3371499,20.4037274 73.5445109,17.6589139 L73.5682383,17.3223295 C73.605906,16.7524335 73.6265484,15.977928 73.2536257,15.5834977 C72.8341565,15.1394795 71.8504681,15.0261853 71.2938942,14.8296164 C69.8555685,14.3214886 68.4381398,13.7294077 67.0881592,13.0184357 C65.8030782,12.3417234 64.5582621,11.5941174 63.3992428,10.7182922 L62.8117906,10.2771178 C61.884912,9.57897466 60.9237919,8.81659391 60.3025782,7.86626354 C60.2308827,7.75687019 60.352697,7.58031442 60.4824963,7.63272146 C61.5195315,8.05282583 62.4670324,8.72105806 63.4372991,9.30245401 C63.4524197,9.26700718 63.4699188,9.23122114 63.4897965,9.19526549 C64.6902701,7.026394 65.1839831,4.62347162 64.9921724,2.15660926 Z M98.1187535,17.0163301 C98.5319366,15.8852538 100.415046,15.9725988 100.339952,17.3165258 C100.282376,18.3489931 99.843263,19.2809043 99.4417625,20.2183548 L99.3989076,20.3188219 C98.9843653,21.2955603 98.505603,22.2125988 97.9327192,23.1077586 C96.8380898,24.8190437 95.555897,26.4071977 94.1863785,27.9059713 C92.9447905,29.2648232 91.3151637,30.0957038 89.4373213,29.9576477 C88.6461232,29.8994742 87.8474498,29.6984958 87.1541109,29.3040013 C86.3306329,28.8352211 85.436309,27.4276934 84.3856822,27.7685936 C84.2840854,27.8014964 84.1892843,27.652925 84.2771197,27.5825401 C85.4899956,26.6074977 86.8666496,28.1193307 88.0278776,28.483636 C89.7776197,29.0322988 91.5732333,28.4256321 92.699463,27.0135251 C93.8753019,25.5391742 94.957529,23.8884371 95.9458046,22.2831533 C96.4476725,21.4680457 96.9055379,20.6220705 97.3010519,19.7501461 C97.7001338,18.8700809 97.7908574,17.9136947 98.1187535,17.0163301 Z M95.2982862,10.0554534 C95.2473179,9.89924984 95.441677,9.75067841 95.5791216,9.83988911 C96.376096,10.3578539 97.0667166,11.0421983 97.8018496,11.6420809 C98.6175124,12.3075995 99.4391216,12.9595499 100.273473,13.6014938 C101.489747,14.5375277 100.079114,16.2606849 99.0084393,15.2381539 C97.5432703,13.8394455 95.938618,12.0104566 95.2982862,10.0554534 Z M90.9226398,4.58078278 C91.246416,3.33441605 93.1613949,3.84839331 92.882329,5.08019696 L92.873197,5.11774299 C92.3446454,7.15240815 93.097425,9.22382316 94.7044381,10.5428812 L94.7636116,10.5908023 C95.7802595,11.4030267 94.3398951,12.8229354 93.333271,12.0185127 C91.1356873,10.2627919 90.2214857,7.2803392 90.9226398,4.58078278 Z" id="ðŸ–-Ink" fill="#000000"></path>
                </g>
                <g id="head/Short-4" transform="translate(63.200704, 30.528376)" fill-rule="evenodd">
                    <path d="M68.8970946,51.5595095 C68.5313752,48.351486 69.0046776,41.6460903 69.0363915,41.2387136 C69.2368834,38.6633161 68.028098,28.493456 65.7430037,29.4305075 C61.909819,26.4012446 56.8043549,25.732334 52.0303513,25.4128037 C42.1140161,24.7489811 31.5648454,26.2728558 23.9076928,32.9348258 C20.1209403,36.3945388 16.4343563,41.4264631 16.7306882,46.6658108 C13.2901779,51.6320992 8.4398306,58.4445062 12.7265561,64.2504945 C14.183695,66.1054325 16.4995702,66.7962218 18.3300803,68.2010359 C22.0119688,71.1656804 24.3219313,75.4203183 28.0387745,78.3673242 C37.8858961,87.2007097 54.6063864,89.0459804 64.2811694,78.9987528 C71.7625055,71.7221448 70.5528125,60.8360652 69.2368834,51.5595095 C68.3521747,45.3228135 69.6105753,57.8180309 68.8970946,51.5595095 Z" id="ðŸŽ¨-Background" fill="#FFFFFF"></path>
                    <path d="M38.7834859,11.8085623 C41.435537,11.2743157 44.1587738,10.9418956 46.8670599,11.0419609 L47.0758683,11.0500569 C49.1136036,11.1313579 51.6942345,11.3112042 53.4718732,12.4940939 C53.5741496,12.3916543 53.7386074,12.3390776 53.8877746,12.4101409 C56.0002412,13.4167293 58.3237165,14.1444918 60.5479736,14.8676751 C62.762037,15.5872968 65.0590088,16.0623523 67.379596,16.253833 C68.2526831,16.3259139 68.9998785,17.2670359 68.4470423,18.1111455 C68.315544,18.3122935 68.1874437,18.5154768 68.059853,18.7191689 C68.2732403,18.6969511 68.4866276,18.6740548 68.700015,18.6525153 C69.4021884,18.5819609 70.1036822,19.3300757 70.0620581,20.0125545 C70.0360643,20.4418174 69.9896831,20.8659922 69.9210458,21.2850789 C70.1884595,21.2794821 70.4543442,21.3195082 70.7112245,21.4278839 C72.0119357,21.9762074 71.921382,23.5228089 71.8240326,24.6995082 C71.6891364,26.3324371 71.0773468,28.0620391 69.9414331,29.2841918 C70.7895458,30.1635786 71.3899525,31.2137547 71.7480898,32.4610085 C72.0078583,33.3717717 72.1524384,34.3418956 72.0810827,35.2899713 L72.058335,35.5738204 C71.9700915,36.6026677 71.7946481,37.7417319 71.0532218,38.4818826 C70.6726585,38.8634873 70.20375,39.002561 69.7567579,38.9584644 C70.0270599,41.3295016 70.2003521,43.714107 70.3634507,46.0902322 L70.4399311,47.2259139 C70.8037547,52.7176076 71.0771715,58.2450667 71.0056514,63.7458095 C70.9392227,68.8864488 69.9217254,73.8761422 66.7633891,78.0500496 C63.8869076,81.8508324 59.7569454,84.6526588 55.0848504,85.7177599 C52.5670158,86.292711 49.9965141,86.3334155 47.4480986,85.967075 C46.2127967,85.7889928 44.9693398,85.5159335 43.7968988,85.0851442 C42.4990757,84.6068663 41.5663556,83.9030176 40.6930986,82.8480926 C40.2800854,82.3477665 40.4788618,81.2826654 41.3013204,81.3827306 C42.5451789,81.533291 43.680677,81.7147582 44.8731628,82.0820176 L45.0439234,82.1357639 C46.2316549,82.5156725 47.4616901,82.798908 48.7034481,82.9193255 C51.2469366,83.1652485 53.8291611,82.9176295 56.2656162,82.147636 C60.2326496,80.8925806 63.6492254,78.0958421 65.8391637,74.5816869 C68.4385475,70.4162596 68.7324648,65.6877534 68.6949181,60.8981905 C68.65468,55.6424896 68.4834604,50.3837443 68.2039388,45.1334912 L68.156353,44.2585297 C68.0085449,41.5567684 67.8658336,38.8533112 67.7402817,36.1498539 C67.701206,35.3018434 67.641743,34.4470489 67.5345396,33.6007345 C66.554419,33.0274795 65.6760651,32.2371337 65.1035211,31.2619217 C63.9533363,31.7368076 62.7436884,32.0794038 61.6307104,32.3524631 C59.0527333,32.9854181 56.3762174,33.1390776 53.7521989,32.7427175 C53.044419,33.0346027 52.3225379,33.2912107 51.5896136,33.5120326 C51.3915167,33.5997169 51.1934199,33.6858748 50.995493,33.7703366 C49.2284217,34.5250659 47.4360361,35.1644658 45.5707658,35.6325675 L45.1125321,35.7466418 C44.1309076,35.9882098 43.0646695,36.2260977 42.0199736,36.3007997 C41.8483803,36.3669446 41.6631954,36.4229132 41.4608512,36.4720978 C40.5096127,36.7027567 39.5223565,36.7756856 38.5473327,36.6942766 C37.5974533,36.6145636 36.9110801,35.6563118 37.4343548,34.7591168 C37.8166171,34.1044527 38.2024472,33.4514847 38.5915053,32.8002127 C37.2374472,33.3632916 35.8392165,33.8313933 34.4290933,34.2282622 C33.0053785,34.6285232 31.5612764,34.9660313 30.1153055,35.2764031 C29.3422861,35.4409172 28.5660387,35.586775 27.7947183,35.751289 C27.2425616,35.8683144 26.3947887,35.9293712 25.9443988,36.2923196 C25.4467782,36.6908845 25.3057658,37.620304 25.1170132,38.193559 C24.8689674,38.9381122 24.6362121,39.6860574 24.4238442,40.4424827 C24.0009771,41.9519413 23.6543926,43.4834481 23.3859595,45.0302192 C23.1175264,46.5786862 22.9372685,48.1424175 22.8370308,49.7112368 C22.736963,51.2783601 22.7809657,52.8556595 22.6197359,54.4159987 C22.5329199,55.2436569 21.6428433,55.6693581 20.9853521,55.091015 C20.9082201,55.0231742 20.830484,54.9545795 20.7535029,54.8852311 L20.6387676,54.7806432 C20.0762474,54.2718369 19.5308864,53.7325023 19.0808363,53.1253268 C18.999287,53.0133894 18.9211356,52.896364 18.848081,52.7776425 C18.8361884,52.7776425 18.8259947,52.7742505 18.8141021,52.7657704 L18.6893132,52.6720295 C17.315267,51.6510561 15.0196983,50.3199896 13.6798944,52.0161292 C13.2529561,52.5564688 13.034368,53.244495 12.8529478,53.9082713 L12.5346143,55.0962367 C12.3287094,55.8717499 12.1349316,56.6515803 12.0215555,57.445092 C11.765015,59.2225219 11.8941347,61.2713151 13.119243,62.6959726 C13.6085387,63.2658356 14.2830194,63.6728806 15.0354815,63.7797299 C15.4552905,63.8373947 15.8698327,63.7661618 16.2860739,63.7135851 C16.7091109,63.6610085 17.1166875,63.7458095 17.5398944,63.705105 C18.2126761,63.6389602 18.5065933,64.4428741 18.2551496,64.9482883 C18.1192342,65.2196517 17.9593636,65.4537025 17.7777465,65.652137 C17.9236857,65.7776425 18.063169,65.9133242 18.1973856,66.05579 C18.5949384,66.1829915 18.9515467,66.4560509 19.2184507,66.8173033 C19.4342165,67.1090189 19.5461769,67.4261748 19.5650352,67.7602909 C19.5886505,67.843396 19.6090379,67.928197 19.6278961,68.0146941 L19.9923848,68.605235 C20.0725505,68.7347567 20.152428,68.8627045 20.2325502,68.98821 C21.1601734,70.446788 22.1899032,71.6814912 23.4692077,72.8449615 C24.7009419,73.9643353 26.0378407,74.9666836 27.1949912,76.1674664 L27.3313025,76.3100372 C28.4100744,77.4448343 29.5471787,78.8185304 29.1249912,80.4685753 C29.0162588,80.8925806 28.4231576,81.1978643 28.0359683,80.9112368 C26.7906426,79.9886014 26.1635625,78.5266314 25.1069894,77.4072577 C24.0194956,76.2539635 22.8149445,75.2176947 21.7243926,74.0677926 C20.6929639,72.9823392 19.8791699,71.7527241 19.2660211,70.3992994 C19.0212033,70.6689667 18.6645951,70.8606171 18.1702025,70.935242 C17.3207306,71.0624436 16.528853,70.5655095 16.1586532,69.8311324 C15.9206312,69.9362857 15.6778521,70.0312629 15.4330343,70.1058878 C14.145235,70.4993646 13.3350088,69.069619 13.8209067,68.012998 C14.0806752,67.4465271 14.4051734,66.954681 14.807993,66.5408519 C13.5489058,66.3678578 12.2679023,65.7182818 11.4405167,64.9075838 C9.36457746,62.8706628 9.07915493,59.8093451 9.54636444,57.0872316 C9.79441021,55.6439178 10.2223741,54.1836438 10.7780986,52.8285232 C10.8747685,52.5927763 10.9785739,52.3553333 11.0922333,52.1212825 C11.0293724,52.1195864 10.9648125,52.0924501 10.9240379,52.0398735 C10.5485713,51.5276751 10.0917254,51.108758 9.8129287,50.5355029 C9.5563882,50.0097365 9.27113556,49.4771859 9.06879137,48.9293712 C8.65272007,47.8083014 8.44884683,46.5430698 8.31293134,45.3575512 C8.03260563,42.9305453 8.14116813,40.5188037 8.51340669,38.107062 C9.14694278,33.9992994 10.6773512,30.0682622 12.9320194,26.618895 C12.8092586,26.5544946 12.6916154,26.4767615 12.5819785,26.3848411 L12.5278407,26.3376947 L12.4398354,26.2583209 C11.7964454,25.6770946 11.8520009,24.5877404 12.4398354,23.9990515 L12.6254919,23.8132708 C12.8605822,23.5801208 13.0633137,23.3954038 13.4430616,23.1415434 C13.4991268,23.1040613 13.5563812,23.0687841 13.6143151,23.0358813 C13.4155387,22.6692016 13.3465616,22.2404475 13.4850255,21.7674273 C13.9675255,20.1195734 16.3426488,20.1779165 17.8480827,20.8965205 C19.5135572,19.4126719 21.360309,18.124544 23.3620044,17.0814912 C28.1294102,14.5985166 33.5199886,12.8668793 38.7834859,11.8085623 Z M14.1403591,55.2097365 C15.0306055,54.9197169 16.2130703,55.5285884 17.0132728,55.8949289 C18.0275422,56.3596386 18.8906055,57.0465271 19.7264858,57.772424 C20.142727,58.1353725 20.2173107,58.7289798 20.113845,59.23609 C20.1034814,59.2869706 20.0934577,59.3395473 20.0813952,59.3921239 C19.9709638,59.9331546 19.3661399,60.3588558 18.8309726,60.3435917 C17.7113688,60.3130633 17.1780703,59.3480274 16.5441945,58.5305453 C16.4696108,58.662835 16.3761689,58.7849485 16.2604709,58.8765336 L16.182345,58.9375814 C15.9193342,59.1375106 15.6293905,59.297301 15.2818793,59.2818826 C15.0355325,59.2700104 14.7995492,59.2072577 14.5819145,59.0936243 C14.0382526,58.8069967 13.7988714,58.1048441 13.9465096,57.5332851 C14.0382526,57.1737286 14.2489216,56.8921892 14.5241504,56.6971468 L14.4215558,56.6270965 C14.2020412,56.4745888 14.0018315,56.3138237 13.8458047,56.0765733 L13.8105941,56.0204344 L13.8241857,56.0204344 C13.6542913,55.7287189 13.7648925,55.33185 14.1403591,55.2097365 Z" id="ðŸ–-Ink" fill="#000000"></path>
                </g>
                <g id="face/Loving-Grin-1" transform="translate(90.213908, 62.074364)" fill="#000000" fill-rule="evenodd">
                    <path d="M16.3581427,37.1208089 C16.376033,35.2521331 17.9981844,34.9298891 19.5391263,35.1790346 C22.1478543,35.6003262 24.7662663,35.8967906 27.4103323,35.9502153 L27.865989,35.9581866 L27.865989,35.9581866 C27.9393834,35.8513372 28.0620471,35.7702674 28.2285436,35.7524592 C29.6942223,35.5943901 31.1915013,35.62 32.6651651,35.5765819 C33.9507557,35.5389302 35.2718543,35.4105414 36.5572751,35.5112851 L36.6595915,35.5202725 C38.230635,35.6721191 39.8885168,36.4725753 39.6987918,38.3131115 C39.5243103,40.0174429 37.892305,41.5262231 36.5890453,42.4732811 C36.3255392,42.6630659 36.0560867,42.8409785 35.7788191,43.0031181 C35.6918332,43.1138682 35.5649221,43.1910372 35.4183033,43.2068102 C34.1349212,43.8987867 32.7188517,44.3082061 31.2530031,44.4445662 C28.1452953,44.733229 24.5324916,44.4208219 21.5476175,43.0763862 C20.5771809,42.6393216 19.6719837,42.0935421 18.8717812,41.4232746 C17.6378385,40.3892107 16.3444327,38.8212394 16.3581427,37.1208089 Z M28.6028209,40.8261057 C27.3569855,40.7886236 26.1131888,40.9626354 24.9266466,41.3462753 C24.1225365,41.6052577 23.3896122,42.103379 22.6191413,42.4495369 C25.2158068,43.4381474 28.2324511,43.6537117 30.8963948,43.4737639 C32.0650982,43.3947293 33.1981237,43.1257404 34.2538473,42.6630659 C34.0893895,42.544514 33.922893,42.4239269 33.7485814,42.3189432 C33.2219089,42.0006001 32.6711114,41.7297456 32.0966985,41.5141813 C30.9777742,41.0950946 29.7971783,40.8637573 28.6028209,40.8261057 Z M29.0203878,24.4849708 C28.6842667,24.244139 28.9510273,23.4463735 29.6692793,23.5696676 C36.1926997,24.6885328 32.8126734,35.9061288 24.483817,29.750381 C23.4922178,28.9518408 24.6930332,27.1929638 25.7617965,27.8768395 L26.1412732,28.1689032 C27.3750727,29.1129483 29.4158755,30.5401993 30.8779814,29.0086687 C32.258126,27.0787186 30.3033245,25.2634521 29.0203878,24.4849708 Z M33.4366554,15.9950541 C34.8233729,14.8139254 36.562644,15.6843819 37.5835449,16.8806842 L37.7635047,17.0945614 C37.9677041,17.3386147 38.1938675,17.622895 38.329783,17.9268219 C39.4611096,16.9651781 40.9952557,16.2884658 42.4633129,16.7277352 C43.8870277,17.155302 44.6989529,18.5121187 44.4544749,19.9688311 C44.1770736,21.6253708 42.9215081,22.7387827 41.5724648,23.5997429 L41.189885,23.8422691 C39.5687184,24.8739639 38.0517226,25.9132917 36.7174855,27.3314273 C36.4998508,27.5619165 36.0294133,27.5313881 35.886702,27.224578 L35.771811,26.9776585 L35.771811,26.9776585 L35.6556457,26.7308663 C34.7091642,24.7161631 33.6950647,22.7146888 32.8624124,20.6524971 C32.2456959,19.1242127 32.0453904,17.1788767 33.4366554,15.9950541 Z M17.6291675,17.0649571 L17.8404205,16.8211011 C18.8563888,15.6406706 20.5774188,14.8503249 21.9350446,15.9951389 C23.3806758,17.214578 23.0969522,19.2311468 22.4530526,20.7863979 C21.6776547,22.662197 20.7720195,24.4966283 19.9019036,26.3365752 L19.7160543,26.7309511 C19.6379029,26.8954651 19.5614504,27.0599791 19.4851679,27.2244932 C19.3422867,27.5314729 18.8701503,27.5620013 18.6542145,27.3313425 C17.3614728,25.9575656 15.8988368,24.9410744 14.3366383,23.9420276 L13.8650622,23.6424971 C12.4938448,22.7741344 11.1975508,21.6530646 10.9155261,19.9689159 C10.6742761,18.515426 11.4812744,17.1501292 12.9066881,16.7276504 C14.3779733,16.2919426 15.9087216,16.9635669 17.041917,17.9269067 C17.176983,17.6152629 17.4095259,17.3217453 17.6291675,17.0649571 L17.6291675,17.0649571 Z M19.488141,8.5963666 C19.9844025,9.23949772 19.4545019,10.2905219 18.7299025,10.4567319 C17.8325204,10.6627984 16.9259641,10.5374625 16.0448919,10.7930528 C15.2375539,11.0272733 14.4641947,11.4965623 13.772215,11.9643249 C12.9830556,12.4975538 12.2562475,13.0928571 11.5883928,13.7710959 C11.1911798,14.1745793 10.690671,15.1304566 10.0780319,15.1482648 C9.46896056,15.1660731 10.2864923,13.2646641 10.3541102,13.10015 C10.8344016,11.9290476 11.5090521,10.851396 12.3529174,9.90739074 C14.0180521,8.04465101 17.5445495,6.07913242 19.488141,8.5963666 Z M38.0833573,8.0816134 L38.4990318,8.19688584 C39.5275723,8.48232616 40.6255996,8.83306327 41.5080309,9.44854925 L41.5773246,9.49753591 L41.6841387,9.57553779 C42.7919814,10.4000158 44.3588619,12.0451397 43.5742862,13.4803301 C43.5200899,13.5792081 43.4052413,13.589045 43.3128188,13.5486797 C42.2689878,13.0922805 41.4951189,12.1808389 40.3848592,11.7995734 L40.1800432,11.7299417 C39.1047812,11.3683774 37.7745147,10.9882227 36.6171119,11.0227958 C35.803361,11.2868474 34.7042914,11.0681371 34.4924518,10.0792451 L34.4828989,10.0307932 L34.4645503,9.92835356 C34.3425661,9.25265884 34.5240133,8.39124984 35.2238082,8.06561383 C36.1826495,7.61951794 37.1180773,7.81800538 38.0833573,8.0816134 Z" id="ðŸ–-Ink"></path>
                </g>
                <g id="facial-hair/*-None" transform="translate(84.097700, 87.853823)"></g>
                <g id="accessories/*-None" transform="translate(71.185739, 71.402479)"></g>
            </g>
        </g>
    </g>
</svg>