<?xml version="1.0" encoding="utf-8"?>
<!-- Generator: Adobe Illustrator 24.1.0, SVG Export Plug-In . SVG Version: 6.00 Build 0)  -->
<svg version="1.1" id="scroll" xmlns="http://www.w3.org/2000/svg" xmlns:xlink="http://www.w3.org/1999/xlink" x="0px" y="0px"
	 viewBox="0 0 18 40.9" style="enable-background:new 0 0 18 40.9;" xml:space="preserve">
<style type="text/css">
	.st0{fill:none;stroke:#FFFFFF;stroke-miterlimit:10;}
	.st1{fill:none;stroke:#FFFFFF;stroke-linecap:round;stroke-miterlimit:10;}
	.st2{fill:#FFFFFF;}
</style>
<g>
	<g>
		<g transform="translate(-232 -236)translate(233 237)">
			<path class="st0" d="M8.8,0H7.2C3.2,0,0,3.2,0,7.2v10.6c0,4,3.2,7.2,7.2,7.2h1.6c4,0,7.2-3.2,7.2-7.2V7.2C16,3.2,12.8,0,8.8,0z"
				/>
			<polyline class="st1" points="5,35.2 8,38.2 11,35.2 			"/>
		</g>
	</g>
	<path class="st2" d="M10,9c0,0.6-0.4,1-1,1S8,9.6,8,9V6c0-0.6,0.4-1,1-1s1,0.4,1,1V9z"/>
</g>
</svg>
