<svg xmlns="http://www.w3.org/2000/svg" fill="none" viewBox="0 0 540 80">
  <defs/>
  <path fill="#fff" d="M131.376 68.5947l-3.256 8.208h-1.792l-3.256-8.208h1.632c.149 0 .272.0347.368.104.101.0694.168.1574.2.264l1.584 4.384c.085.256.16.5067.224.752.064.2454.12.4907.168.736.053-.2453.112-.4906.176-.736.064-.2453.141-.496.232-.752l1.616-4.384c.037-.1066.104-.1946.2-.264.096-.0693.211-.104.344-.104h1.56zm3.101 0v8.208h-1.984v-8.208h1.984zm.272-2.392c0 .1707-.035.3307-.104.48-.069.1494-.163.28-.28.392-.112.112-.245.2027-.4.272-.155.064-.32.096-.496.096-.171 0-.333-.032-.488-.096-.149-.0693-.28-.16-.392-.272-.112-.112-.203-.2426-.272-.392-.064-.1493-.096-.3093-.096-.48 0-.176.032-.3413.096-.496.069-.1546.16-.288.272-.4.112-.112.243-.2.392-.264.155-.0693.317-.104.488-.104.176 0 .341.0347.496.104.155.064.288.152.4.264.117.112.211.2454.28.4.069.1547.104.32.104.496zm6.895 4.488c-.224-.272-.47-.464-.736-.576-.262-.112-.544-.168-.848-.168-.299 0-.568.056-.808.168-.24.112-.446.2827-.616.512-.171.224-.302.512-.392.864-.091.3467-.136.7574-.136 1.232 0 .48.037.888.112 1.224.08.3307.192.6027.336.816.144.208.32.36.528.456.208.0907.44.136.696.136.41 0 .76-.0853 1.048-.256.288-.1706.56-.4133.816-.728v-3.68zm1.976-5.776v11.888h-1.208c-.262 0-.427-.12-.496-.36l-.168-.792c-.331.3787-.712.6854-1.144.92-.427.2347-.926.352-1.496.352-.448 0-.859-.0933-1.232-.28-.374-.1866-.696-.456-.968-.808-.267-.3573-.475-.7973-.624-1.32-.144-.5226-.216-1.12-.216-1.792 0-.608.082-1.1733.248-1.696.165-.5226.402-.976.712-1.36.309-.384.68-.6826 1.112-.896.432-.2186.917-.328 1.456-.328.458 0 .85.072 1.176.216.325.144.616.3387.872.584v-4.328h1.976zm7.238 6.84c0-.256-.038-.496-.112-.72-.07-.2293-.176-.4293-.32-.6-.144-.1706-.328-.304-.552-.4-.219-.1013-.475-.152-.768-.152-.571 0-1.022.1627-1.352.488-.326.3254-.534.7867-.624 1.384h3.728zm-3.768 1.192c.032.4214.106.7867.224 1.096.117.304.272.5574.464.76.192.1974.418.3467.68.448.266.096.56.144.88.144.32 0 .594-.0373.824-.112.234-.0746.437-.1573.608-.248.176-.0906.328-.1733.456-.248.133-.0746.261-.112.384-.112.165 0 .288.0614.368.184l.568.72c-.219.256-.464.472-.736.648-.272.1707-.558.3094-.856.416-.294.1014-.595.1734-.904.216-.304.0427-.6.064-.888.064-.571 0-1.102-.0933-1.592-.28-.491-.192-.918-.472-1.28-.84-.363-.3733-.648-.832-.856-1.376-.208-.5493-.312-1.184-.312-1.904 0-.56.09-1.0853.272-1.576.181-.496.44-.9253.776-1.288.341-.368.754-.6586 1.24-.872.49-.2133 1.042-.32 1.656-.32.517 0 .994.0827 1.432.248.437.1654.813.408 1.128.728.314.3147.56.704.736 1.168.181.4587.272.984.272 1.576 0 .2987-.032.5014-.096.608-.064.1014-.187.152-.368.152h-5.08zm10.659-4.48c.608 0 1.16.0987 1.656.296.501.1974.928.4774 1.28.84.357.3627.632.8054.824 1.328.192.5227.288 1.1067.288 1.752 0 .6507-.096 1.2374-.288 1.76-.192.5227-.467.968-.824 1.336-.352.368-.779.6507-1.28.848-.496.1974-1.048.296-1.656.296-.614 0-1.171-.0986-1.672-.296-.502-.1973-.931-.48-1.288-.848-.352-.368-.627-.8133-.824-1.336-.192-.5226-.288-1.1093-.288-1.76 0-.6453.096-1.2293.288-1.752.197-.5226.472-.9653.824-1.328.357-.3626.786-.6426 1.288-.84.501-.1973 1.058-.296 1.672-.296zm0 6.936c.682 0 1.186-.2293 1.512-.688.33-.4586.496-1.1306.496-2.016 0-.8853-.166-1.56-.496-2.024-.326-.464-.83-.696-1.512-.696-.694 0-1.208.2347-1.544.704-.331.464-.496 1.136-.496 2.016 0 .88.165 1.552.496 2.016.336.4587.85.688 1.544.688zm8.493-2.904c.245 0 .458-.032.64-.096.181-.0693.33-.1626.448-.28.122-.1173.213-.2586.272-.424.064-.1653.096-.3466.096-.544 0-.4053-.123-.7253-.368-.96-.24-.24-.603-.36-1.088-.36-.486 0-.851.12-1.096.36-.24.2347-.36.5547-.36.96 0 .192.029.3707.088.536.064.1654.154.3094.272.432.122.1174.274.2107.456.28.186.064.4.096.64.096zm2.232 4.672c0-.16-.048-.2906-.144-.392-.096-.1013-.227-.1786-.392-.232-.166-.0586-.36-.1013-.584-.128-.219-.0266-.454-.0453-.704-.056-.246-.016-.502-.0293-.768-.04-.262-.0106-.518-.032-.768-.064-.219.1227-.398.2667-.536.432-.134.1654-.2.3574-.2.576 0 .144.034.2774.104.4.074.128.189.2374.344.328.16.0907.365.16.616.208.25.0534.557.08.92.08.368 0 .685-.0293.952-.088.266-.0533.485-.1306.656-.232.176-.096.304-.2133.384-.352.08-.1333.12-.28.12-.44zm1.968-8.296v.736c0 .2347-.142.3787-.424.432l-.736.136c.112.2827.168.592.168.928 0 .4054-.083.7734-.248 1.104-.16.3254-.384.6027-.672.832-.288.2294-.63.408-1.024.536-.39.1227-.811.184-1.264.184-.16 0-.315-.008-.464-.024-.15-.016-.296-.0373-.44-.064-.256.1547-.384.328-.384.52 0 .1654.074.288.224.368.154.0747.357.128.608.16.25.032.536.0534.856.064.32.0054.648.0214.984.048.336.0267.664.0747.984.144.32.064.605.168.856.312.25.144.45.3414.6.592.154.2454.232.5627.232.952 0 .3627-.091.7147-.272 1.056-.176.3414-.435.6454-.776.912-.336.2667-.752.48-1.248.64-.491.1654-1.051.248-1.68.248-.619 0-1.158-.0613-1.616-.184-.459-.1173-.84-.2773-1.144-.48-.304-.1973-.531-.4266-.68-.688-.15-.2613-.224-.5333-.224-.816 0-.384.114-.704.344-.96.234-.2613.554-.4693.96-.624-.219-.112-.392-.2613-.52-.448-.128-.1866-.192-.432-.192-.736 0-.1226.021-.248.064-.376.048-.1333.114-.264.2-.392.09-.128.202-.248.336-.36.133-.1173.29-.2213.472-.312-.416-.224-.744-.5226-.984-.896-.235-.3733-.352-.8106-.352-1.312 0-.4053.08-.7706.24-1.096.165-.3306.392-.6106.68-.84.293-.2346.637-.4133 1.032-.536.4-.1226.834-.184 1.304-.184.352 0 .682.0374.992.112.309.0694.592.1734.848.312h2.36zm3.117 1.144c.256-.4906.56-.8746.912-1.152.352-.2826.768-.424 1.248-.424.378 0 .682.0827.912.248l-.128 1.48c-.027.096-.067.1654-.12.208-.048.0374-.115.056-.2.056-.08 0-.2-.0133-.36-.04-.155-.0266-.307-.04-.456-.04-.219 0-.414.032-.584.096-.171.064-.326.1574-.464.28-.134.1174-.254.2614-.36.432-.102.1707-.198.3654-.288.584v5.056h-1.976v-8.208h1.16c.202 0 .344.0374.424.112.08.0694.133.1974.16.384l.12.928zm8.331 3.28c-.571.0267-1.051.0774-1.44.152-.389.0694-.701.16-.936.272-.235.112-.403.2427-.504.392-.101.1494-.152.312-.152.488 0 .3467.101.5947.304.744.208.1494.477.224.808.224.405 0 .755-.072 1.048-.216.299-.1493.589-.3733.872-.672v-1.384zm-4.528-3.56c.944-.864 2.08-1.296 3.408-1.296.48 0 .909.08 1.288.24.379.1547.699.3734.96.656.261.2774.459.6107.592 1 .139.3894.208.816.208 1.28v5.184h-.896c-.187 0-.331-.0266-.432-.08-.101-.0586-.181-.1733-.24-.344l-.176-.592c-.208.1867-.411.352-.608.496-.197.1387-.403.256-.616.352-.213.096-.443.168-.688.216-.24.0534-.507.08-.8.08-.347 0-.667-.0453-.96-.136-.293-.096-.547-.2373-.76-.424-.213-.1866-.379-.4186-.496-.696-.117-.2773-.176-.6-.176-.968 0-.208.035-.4133.104-.616.069-.208.181-.4053.336-.592.16-.1866.365-.3626.616-.528.251-.1653.557-.3093.92-.432.368-.1226.795-.2213 1.28-.296.485-.08 1.04-.128 1.664-.144v-.48c0-.5493-.117-.9546-.352-1.216-.235-.2666-.573-.4-1.016-.4-.32 0-.587.0374-.8.112-.208.0747-.392.16-.552.256-.16.0907-.307.1734-.44.248-.128.0747-.272.112-.432.112-.139 0-.256-.0346-.352-.104-.096-.0746-.173-.16-.232-.256l-.352-.632zm10.293 4.936c.224.272.467.464.728.576.267.112.555.168.864.168.299 0 .568-.056.808-.168.24-.112.443-.2826.608-.512.171-.2293.301-.5173.392-.864.091-.352.136-.7653.136-1.24 0-.48-.04-.8853-.12-1.216-.075-.336-.184-.608-.328-.816-.144-.208-.32-.36-.528-.456-.203-.096-.435-.144-.696-.144-.411 0-.76.088-1.048.264-.288.1707-.56.4134-.816.728v3.68zm-.104-4.96c.336-.3786.717-.6853 1.144-.92.427-.2346.928-.352 1.504-.352.448 0 .856.0934 1.224.28.373.1867.693.4587.96.816.272.352.48.7894.624 1.312.149.5174.224 1.112.224 1.784 0 .6134-.083 1.1814-.248 1.704-.165.5227-.403.976-.712 1.36-.304.384-.675.6854-1.112.904-.432.2134-.917.32-1.456.32-.459 0-.851-.0693-1.176-.208-.325-.144-.616-.3413-.872-.592v3.36h-1.976v-10.888h1.208c.256 0 .424.12.504.36l.16.76zm9.198-.24c.32-.2986.672-.5413 1.056-.728.384-.1866.835-.28 1.352-.28.448 0 .845.0774 1.192.232.347.1494.635.3627.864.64.235.272.411.6.528.984.123.3787.184.7974.184 1.256v5.224h-1.976v-5.224c0-.5013-.115-.888-.344-1.16-.229-.2773-.579-.416-1.048-.416-.341 0-.661.0774-.96.232-.299.1547-.581.3654-.848.632v5.936h-1.976v-11.888h1.976v4.56zm14.292-.88l-4.472 10.464c-.058.1387-.136.2427-.232.312-.09.0747-.232.112-.424.112h-1.472l1.536-3.296-3.32-7.592h1.736c.155 0 .275.0374.36.112.091.0747.158.16.2.256l1.744 4.256c.059.144.107.288.144.432.043.144.083.2907.12.44.048-.1493.096-.296.144-.44.048-.1493.102-.296.16-.44l1.648-4.248c.043-.1066.112-.1946.208-.264.102-.0693.214-.104.336-.104h1.584zM152.73 6c-3.164 0-5.73 2.56559-5.73 5.7304v18.5135c0 3.1648 2.566 5.7304 5.73 5.7304h16.751c3.164 0 5.73-2.5656 5.73-5.7304V11.7304c0-3.16483-2.566-5.7304-5.73-5.7304H152.73zM184.244 32.7l-6.389-6.2587V15.6954l6.369-6.39743c1.387-1.39321 3.766-.41095 3.766 1.55493v20.2727c0 1.9528-2.351 2.9409-3.746 1.5744zM246.952 73.872c.224.272.467.464.728.576.267.112.555.168.864.168.299 0 .568-.056.808-.168.24-.112.443-.2827.608-.512.171-.2293.301-.5173.392-.864.091-.352.136-.7653.136-1.24 0-.48-.04-.8853-.12-1.216-.075-.336-.184-.608-.328-.816-.144-.208-.32-.36-.528-.456-.203-.096-.435-.144-.696-.144-.411 0-.76.088-1.048.264-.288.1707-.56.4133-.816.728v3.68zm-.104-4.96c.336-.3787.717-.6853 1.144-.92.427-.2347.928-.352 1.504-.352.448 0 .856.0933 1.224.28.373.1867.693.4587.96.816.272.352.48.7893.624 1.312.149.5173.224 1.112.224 1.784 0 .6133-.083 1.1813-.248 1.704-.165.5227-.403.976-.712 1.36-.304.384-.675.6853-1.112.904-.432.2133-.917.32-1.456.32-.459 0-.851-.0693-1.176-.208-.325-.144-.616-.3413-.872-.592v3.36h-1.976V67.792h1.208c.256 0 .424.12.504.36l.16.76zm9.086.304c.256-.4907.56-.8747.912-1.152.352-.2827.768-.424 1.248-.424.378 0 .682.0827.912.248l-.128 1.48c-.027.096-.067.1653-.12.208-.048.0373-.115.056-.2.056-.08 0-.2-.0133-.36-.04-.155-.0267-.307-.04-.456-.04-.219 0-.414.032-.584.096-.171.064-.326.1573-.464.28-.134.1173-.254.2613-.36.432-.102.1707-.198.3653-.288.584V76h-1.976v-8.208h1.16c.202 0 .344.0373.424.112.08.0693.133.1973.16.384l.12.928zm7.502-1.552c.608 0 1.16.0987 1.656.296.501.1973.928.4773 1.28.84.357.3627.632.8053.824 1.328.192.5227.288 1.1067.288 1.752 0 .6507-.096 1.2373-.288 1.76-.192.5227-.467.968-.824 1.336-.352.368-.779.6507-1.28.848-.496.1973-1.048.296-1.656.296-.613 0-1.171-.0987-1.672-.296-.501-.1973-.931-.48-1.288-.848-.352-.368-.627-.8133-.824-1.336-.192-.5227-.288-1.1093-.288-1.76 0-.6453.096-1.2293.288-1.752.197-.5227.472-.9653.824-1.328.357-.3627.787-.6427 1.288-.84.501-.1973 1.059-.296 1.672-.296zm0 6.936c.683 0 1.187-.2293 1.512-.688.331-.4587.496-1.1307.496-2.016s-.165-1.56-.496-2.024c-.325-.464-.829-.696-1.512-.696-.693 0-1.208.2347-1.544.704-.331.464-.496 1.136-.496 2.016 0 .88.165 1.552.496 2.016.336.4587.851.688 1.544.688zm10.708-4.712c-.224-.272-.47-.464-.736-.576-.262-.112-.544-.168-.848-.168-.299 0-.568.056-.808.168-.24.112-.446.2827-.616.512-.171.224-.302.512-.392.864-.091.3467-.136.7573-.136 1.232 0 .48.037.888.112 1.224.08.3307.192.6027.336.816.144.208.32.36.528.456.208.0907.44.136.696.136.41 0 .76-.0853 1.048-.256.288-.1707.56-.4133.816-.728v-3.68zm1.976-5.776V76h-1.208c-.262 0-.427-.12-.496-.36l-.168-.792c-.331.3787-.712.6853-1.144.92-.427.2347-.926.352-1.496.352-.448 0-.859-.0933-1.232-.28-.374-.1867-.696-.456-.968-.808-.267-.3573-.475-.7973-.624-1.32-.144-.5227-.216-1.12-.216-1.792 0-.608.082-1.1733.248-1.696.165-.5227.402-.976.712-1.36.309-.384.68-.6827 1.112-.896.432-.2187.917-.328 1.456-.328.458 0 .85.072 1.176.216.325.144.616.3387.872.584v-4.328h1.976zm9.022 3.68V76h-1.208c-.262 0-.427-.12-.496-.36l-.136-.656c-.336.3413-.707.6187-1.112.832-.406.208-.883.312-1.432.312-.448 0-.846-.0747-1.192-.224-.342-.1547-.63-.3707-.864-.648-.235-.2773-.414-.6053-.536-.984-.118-.384-.176-.8053-.176-1.264v-5.216h1.976v5.216c0 .5013.114.8907.344 1.168.234.272.584.408 1.048.408.341 0 .661-.0747.96-.224.298-.1547.581-.3653.848-.632v-5.936h1.976zm7.839 1.736c-.059.0747-.117.1333-.176.176-.053.0427-.133.064-.24.064-.101 0-.2-.0293-.296-.088-.096-.064-.211-.1333-.344-.208-.133-.08-.293-.1493-.48-.208-.181-.064-.408-.096-.68-.096-.347 0-.651.064-.912.192-.261.1227-.48.3013-.656.536-.171.2347-.299.52-.384.856-.085.3307-.128.7067-.128 1.128 0 .4373.045.8267.136 1.168.096.3413.232.6293.408.864.176.2293.389.4053.64.528.251.1173.533.176.848.176.315 0 .568-.0373.76-.112.197-.08.363-.1653.496-.256.133-.096.248-.1813.344-.256.101-.08.213-.12.336-.12.16 0 .28.0613.36.184l.568.72c-.219.256-.456.472-.712.648-.256.1707-.523.3093-.8.416-.272.1013-.555.1733-.848.216-.288.0427-.576.064-.864.064-.507 0-.984-.0933-1.432-.28-.448-.192-.84-.4693-1.176-.832-.336-.3627-.603-.8053-.8-1.328-.192-.528-.288-1.128-.288-1.8 0-.6027.085-1.16.256-1.672.176-.5173.432-.9627.768-1.336.336-.3787.752-.6747 1.248-.888.496-.2133 1.067-.32 1.712-.32.613 0 1.149.0987 1.608.296.464.1973.88.48 1.248.848l-.52.72zm4.575 6.6c-.715 0-1.264-.2-1.648-.6-.379-.4053-.568-.9627-.568-1.672v-4.584h-.84c-.107 0-.198-.0347-.272-.104-.075-.0693-.112-.1733-.112-.312v-.784l1.32-.216.416-2.24c.026-.1067.077-.1893.152-.248.074-.0587.17-.088.288-.088h1.024v2.584h2.192v1.408h-2.192v4.448c0 .256.061.456.184.6.128.144.301.216.52.216.122 0 .224-.0133.304-.04.085-.032.157-.064.216-.096.064-.032.12-.0613.168-.088.048-.032.096-.048.144-.048.058 0 .106.016.144.048.037.0267.077.0693.12.128l.592.96c-.288.24-.619.4213-.992.544-.374.1227-.76.184-1.16.184zm12.26-6.24c-.224-.272-.47-.464-.736-.576-.262-.112-.544-.168-.848-.168-.299 0-.568.056-.808.168-.24.112-.446.2827-.616.512-.171.224-.302.512-.392.864-.091.3467-.136.7573-.136 1.232 0 .48.037.888.112 1.224.08.3307.192.6027.336.816.144.208.32.36.528.456.208.0907.44.136.696.136.41 0 .76-.0853 1.048-.256.288-.1707.56-.4133.816-.728v-3.68zm1.976-5.776V76h-1.208c-.262 0-.427-.12-.496-.36l-.168-.792c-.331.3787-.712.6853-1.144.92-.427.2347-.926.352-1.496.352-.448 0-.859-.0933-1.232-.28-.374-.1867-.696-.456-.968-.808-.267-.3573-.475-.7973-.624-1.32-.144-.5227-.216-1.12-.216-1.792 0-.608.082-1.1733.248-1.696.165-.5227.402-.976.712-1.36.309-.384.68-.6827 1.112-.896.432-.2187.917-.328 1.456-.328.458 0 .85.072 1.176.216.325.144.616.3387.872.584v-4.328h1.976zm7.238 6.84c0-.256-.038-.496-.112-.72-.07-.2293-.176-.4293-.32-.6-.144-.1707-.328-.304-.552-.4-.219-.1013-.475-.152-.768-.152-.571 0-1.022.1627-1.352.488-.326.3253-.534.7867-.624 1.384h3.728zm-3.768 1.192c.032.4213.106.7867.224 1.096.117.304.272.5573.464.76.192.1973.418.3467.68.448.266.096.56.144.88.144.32 0 .594-.0373.824-.112.234-.0747.437-.1573.608-.248.176-.0907.328-.1733.456-.248.133-.0747.261-.112.384-.112.165 0 .288.0613.368.184l.568.72c-.219.256-.464.472-.736.648-.272.1707-.558.3093-.856.416-.294.1013-.595.1733-.904.216-.304.0427-.6.064-.888.064-.571 0-1.102-.0933-1.592-.28-.491-.192-.918-.472-1.28-.84-.363-.3733-.648-.832-.856-1.376-.208-.5493-.312-1.184-.312-1.904 0-.56.09-1.0853.272-1.576.181-.496.44-.9253.776-1.288.341-.368.754-.6587 1.24-.872.49-.2133 1.042-.32 1.656-.32.517 0 .994.0827 1.432.248.437.1653.813.408 1.128.728.314.3147.56.704.736 1.168.181.4587.272.984.272 1.576 0 .2987-.032.5013-.096.608-.064.1013-.187.152-.368.152h-5.08zm12.035-2.752c-.054.0853-.11.1467-.168.184-.059.032-.134.048-.224.048-.096 0-.2-.0267-.312-.08-.107-.0533-.232-.112-.376-.176-.144-.0693-.31-.1307-.497-.184-.181-.0533-.397-.08-.647-.08-.39 0-.696.0827-.92.248-.219.1653-.328.3813-.328.648 0 .176.056.3253.168.448.117.1173.269.2213.456.312.192.0907.408.1733.648.248.24.0693.482.1467.728.232.25.0853.496.184.736.296.24.1067.453.2453.64.416.192.1653.344.3653.456.6.117.2347.176.5173.176.848 0 .3947-.072.76-.216 1.096-.139.3307-.347.6187-.624.864-.278.24-.622.4293-1.032.568-.406.1333-.875.2-1.408.2-.283 0-.56-.0267-.832-.08-.267-.048-.526-.1173-.776-.208-.246-.0907-.475-.1973-.688-.32-.208-.1227-.392-.256-.552-.4l.456-.752c.058-.0907.128-.16.207-.208.08-.048.182-.072.305-.072.122 0 .237.0347.344.104.112.0693.24.144.384.224.144.08.312.1547.504.224.197.0693.445.104.744.104.234 0 .434-.0267.6-.08.17-.0587.309-.1333.416-.224.112-.0907.191-.1947.24-.312.053-.1227.08-.248.08-.376 0-.192-.059-.3493-.176-.472-.112-.1227-.264-.2293-.457-.32-.186-.0907-.402-.1707-.647-.24-.24-.0747-.488-.1547-.744-.24-.251-.0853-.499-.184-.744-.296-.24-.1173-.456-.264-.648-.44-.187-.176-.339-.392-.456-.648-.112-.256-.168-.5653-.168-.928 0-.336.066-.656.2-.96.133-.304.328-.568.584-.792.261-.2293.584-.4107.968-.544.389-.1387.837-.208 1.344-.208.565 0 1.08.0933 1.544.28.464.1867.85.432 1.16.736l-.448.712zm4.071-1.6V76h-1.984v-8.208h1.984zm.272-2.392c0 .1707-.035.3307-.104.48-.07.1493-.163.28-.28.392-.112.112-.246.2027-.4.272-.155.064-.32.096-.496.096-.171 0-.334-.032-.488-.096-.15-.0693-.28-.16-.392-.272-.112-.112-.203-.2427-.272-.392-.064-.1493-.096-.3093-.096-.48 0-.176.032-.3413.096-.496.069-.1547.16-.288.272-.4.112-.112.242-.2.392-.264.154-.0693.317-.104.488-.104.176 0 .341.0347.496.104.154.064.288.152.4.264.117.112.21.2453.28.4.069.1547.104.32.104.496zm4.742 6.296c.246 0 .459-.032.64-.096.182-.0693.331-.1627.448-.28.123-.1173.214-.2587.272-.424.064-.1653.096-.3467.096-.544 0-.4053-.122-.7253-.368-.96-.24-.24-.602-.36-1.088-.36-.485 0-.85.12-1.096.36-.24.2347-.36.5547-.36.96 0 .192.03.3707.088.536.064.1653.155.3093.272.432.123.1173.275.2107.456.28.187.064.4.096.64.096zm2.232 4.672c0-.16-.048-.2907-.144-.392-.096-.1013-.226-.1787-.392-.232-.165-.0587-.36-.1013-.584-.128-.218-.0267-.453-.0453-.704-.056-.245-.016-.501-.0293-.768-.04-.261-.0107-.517-.032-.768-.064-.218.1227-.397.2667-.536.432-.133.1653-.2.3573-.2.576 0 .144.035.2773.104.4.075.128.19.2373.344.328.16.0907.366.16.616.208.251.0533.558.08.92.08.368 0 .686-.0293.952-.088.267-.0533.486-.1307.656-.232.176-.096.304-.2133.384-.352.08-.1333.12-.28.12-.44zm1.968-8.296v.736c0 .2347-.141.3787-.424.432l-.736.136c.112.2827.168.592.168.928 0 .4053-.082.7733-.248 1.104-.16.3253-.384.6027-.672.832-.288.2293-.629.408-1.024.536-.389.1227-.81.184-1.264.184-.16 0-.314-.008-.464-.024-.149-.016-.296-.0373-.44-.064-.256.1547-.384.328-.384.52 0 .1653.075.288.224.368.155.0747.358.128.608.16.251.032.536.0533.856.064.32.0053.648.0213.984.048.336.0267.664.0747.984.144.32.064.606.168.856.312.251.144.451.3413.6.592.155.2453.232.5627.232.952 0 .3627-.09.7147-.272 1.056-.176.3413-.434.6453-.776.912-.336.2667-.752.48-1.248.64-.49.1653-1.05.248-1.68.248-.618 0-1.157-.0613-1.616-.184-.458-.1173-.84-.2773-1.144-.48-.304-.1973-.53-.4267-.68-.688-.149-.2613-.224-.5333-.224-.816 0-.384.115-.704.344-.96.235-.2613.555-.4693.96-.624-.218-.112-.392-.2613-.52-.448-.128-.1867-.192-.432-.192-.736 0-.1227.022-.248.064-.376.048-.1333.115-.264.2-.392.091-.128.203-.248.336-.36.134-.1173.291-.2213.472-.312-.416-.224-.744-.5227-.984-.896-.234-.3733-.352-.8107-.352-1.312 0-.4053.08-.7707.24-1.096.166-.3307.392-.6107.68-.84.294-.2347.638-.4133 1.032-.536.4-.1227.835-.184 1.304-.184.352 0 .683.0373.992.112.31.0693.592.1733.848.312h2.36zm3.101.728c.166-.1653.339-.3173.52-.456.187-.144.382-.264.584-.36.208-.1013.43-.1787.664-.232.235-.0587.491-.088.768-.088.448 0 .846.0773 1.192.232.347.1493.635.3627.864.64.235.272.411.6.528.984.123.3787.184.7973.184 1.256V76h-1.976v-5.224c0-.5013-.114-.888-.344-1.16-.229-.2773-.578-.416-1.048-.416-.341 0-.661.0773-.96.232-.298.1547-.581.3653-.848.632V76h-1.976v-8.208h1.208c.256 0 .424.12.504.36l.136.648zM284.327.151725c.532.255962.871.794529.871 1.385415 0 1.70076.64 2.67997 1.441 3.87247l.058.08663c.682 1.01254 1.575 2.33981 1.575 4.2389 0 1.93786-.978 3.64726-2.467 4.66156.392.3285.739.7337 1.037 1.2164.975 1.5781 1.43 3.9893 1.43 7.4538 0 3.5089-.471 7.7227-1.239 11.0868-.382 1.6728-.854 3.2158-1.42 4.3756-.28.5751-.621 1.1369-1.046 1.5763-.42.4343-1.069.8944-1.931.8944-.861 0-1.511-.4601-1.931-.8944-.425-.4394-.766-1.0012-1.046-1.5763-.565-1.1598-1.038-2.7028-1.42-4.3756-.768-3.3641-1.239-7.5779-1.239-11.0868 0-3.4645.455-5.8757 1.43-7.4538.298-.4827.645-.8879 1.037-1.2164C277.978 13.3824 277 11.673 277 9.73514c0-.75463.001-2.0518.786-3.72667.768-1.6391 2.228-3.52241 4.915-5.671613.461-.3691355 1.093-.441094 1.626-.185132zM293.396 26.4727c-1.103-.1851-2.157-.5171-3.14-.9752.043-.8327.066-1.6482.066-2.4313 0-.8317-.025-1.6271-.079-2.3844.908.7467 1.98 1.3017 3.153 1.6038v-4.8655c0-1.6979 1.376-3.0743 3.074-3.0743h7.173c0-4.52761-3.67-8.19798-8.198-8.19798-2.019 0-3.868.73016-5.297 1.94086-.356-1.66751-1.18-2.89055-1.706-3.67158l-.083-.1226c2.003-1.41462 4.448-2.24567 7.086-2.24567 6.792 0 12.297 5.50554 12.297 12.29697h7.174c1.698 0 3.074 1.3764 3.074 3.0743v18.4454c0 1.6978-1.376 3.0743-3.074 3.0743H296.47c-1.698 0-3.074-1.3765-3.074-3.0743v-9.3928zm4.099 0v8.3681h16.396v-16.396h-6.848c-1.468 4.1533-5.104 7.2825-9.548 8.0279zm5.052-8.0279h-5.052v3.8408c2.154-.5544 3.965-1.9618 5.052-3.8408zM2.952 74.3095c.224.272.46667.464.728.576.26667.112.55467.168.864.168.29867 0 .568-.056.808-.168.24-.112.44267-.2827.608-.512.17067-.2293.30133-.5173.392-.864.09067-.352.136-.7653.136-1.24 0-.48-.04-.8853-.12-1.216-.07467-.336-.184-.608-.328-.816-.144-.208-.32-.36-.528-.456-.20267-.096-.43467-.144-.696-.144-.41067 0-.76.088-1.048.264-.288.1707-.56.4133-.816.728v3.68zm-.104-4.96c.336-.3787.71733-.6853 1.144-.92.42667-.2347.928-.352 1.504-.352.448 0 .856.0933 1.224.28.37333.1867.69333.4587.96.816.272.352.48.7893.624 1.312.14933.5173.224 1.112.224 1.784 0 .6133-.08267 1.1813-.248 1.704-.16533.5227-.40267.976-.712 1.36-.304.384-.67467.6853-1.112.904-.432.2133-.91733.32-1.456.32-.45867 0-.85067-.0693-1.176-.208-.32533-.144-.616-.3413-.872-.592v3.36H.976v-10.888h1.208c.256 0 .424.12.504.36l.16.76zm9.1978-.24c.32-.2987.672-.5413 1.056-.728.384-.1867.8346-.28 1.352-.28.448 0 .8453.0773 1.192.232.3466.1493.6346.3627.864.64.2346.272.4106.6.528.984.1226.3787.184.7973.184 1.256v5.224h-1.976v-5.224c0-.5013-.1147-.888-.344-1.16-.2294-.2773-.5787-.416-1.048-.416-.3414 0-.6614.0773-.96.232-.2987.1547-.5814.3653-.848.632v5.936h-1.976v-11.888h1.976v4.56zm10.6872-1.008c.608 0 1.16.0987 1.656.296.5013.1973.928.4773 1.28.84.3573.3627.632.8053.824 1.328.192.5227.288 1.1067.288 1.752 0 .6507-.096 1.2373-.288 1.76-.192.5227-.4667.968-.824 1.336-.352.368-.7787.6507-1.28.848-.496.1973-1.048.296-1.656.296-.6133 0-1.1707-.0987-1.672-.296-.5013-.1973-.9307-.48-1.288-.848-.352-.368-.6267-.8133-.824-1.336-.192-.5227-.288-1.1093-.288-1.76 0-.6453.096-1.2293.288-1.752.1973-.5227.472-.9653.824-1.328.3573-.3627.7867-.6427 1.288-.84.5013-.1973 1.0587-.296 1.672-.296zm0 6.936c.6827 0 1.1867-.2293 1.512-.688.3307-.4587.496-1.1307.496-2.016s-.1653-1.56-.496-2.024c-.3253-.464-.8293-.696-1.512-.696-.6933 0-1.208.2347-1.544.704-.3307.464-.496 1.136-.496 2.016 0 .88.1653 1.552.496 2.016.336.4587.8507.688 1.544.688zm8.1353 1.528c-.7147 0-1.264-.2-1.648-.6-.3787-.4053-.568-.9627-.568-1.672v-4.584h-.84c-.1067 0-.1974-.0347-.272-.104-.0747-.0693-.112-.1733-.112-.312v-.784l1.32-.216.416-2.24c.0266-.1067.0773-.1893.152-.248.0746-.0587.1706-.088.288-.088h1.024v2.584h2.192v1.408h-2.192v4.448c0 .256.0613.456.184.6.128.144.3013.216.52.216.1226 0 .224-.0133.304-.04.0853-.032.1573-.064.216-.096.064-.032.12-.0613.168-.088.048-.032.096-.048.144-.048.0586 0 .1066.016.144.048.0373.0267.0773.0693.12.128l.592.96c-.288.24-.6187.4213-.992.544-.3734.1227-.76.184-1.16.184zm6.7866-8.464c.608 0 1.16.0987 1.656.296.5013.1973.928.4773 1.28.84.3573.3627.632.8053.824 1.328.192.5227.288 1.1067.288 1.752 0 .6507-.096 1.2373-.288 1.76-.192.5227-.4667.968-.824 1.336-.352.368-.7787.6507-1.28.848-.496.1973-1.048.296-1.656.296-.6134 0-1.1707-.0987-1.672-.296-.5014-.1973-.9307-.48-1.288-.848-.352-.368-.6267-.8133-.824-1.336-.192-.5227-.288-1.1093-.288-1.76 0-.6453.096-1.2293.288-1.752.1973-.5227.472-.9653.824-1.328.3573-.3627.7866-.6427 1.288-.84.5013-.1973 1.0586-.296 1.672-.296zm0 6.936c.6826 0 1.1866-.2293 1.512-.688.3306-.4587.496-1.1307.496-2.016s-.1654-1.56-.496-2.024c-.3254-.464-.8294-.696-1.512-.696-.6934 0-1.208.2347-1.544.704-.3307.464-.496 1.136-.496 2.016 0 .88.1653 1.552.496 2.016.336.4587.8506.688 1.544.688zm8.493-2.904c.2453 0 .4586-.032.64-.096.1813-.0693.3306-.1627.448-.28.1226-.1173.2133-.2587.272-.424.064-.1653.096-.3467.096-.544 0-.4053-.1227-.7253-.368-.96-.24-.24-.6027-.36-1.088-.36-.4854 0-.8507.12-1.096.36-.24.2347-.36.5547-.36.96 0 .192.0293.3707.088.536.064.1653.1546.3093.272.432.1226.1173.2746.2107.456.28.1866.064.4.096.64.096zm2.232 4.672c0-.16-.048-.2907-.144-.392-.096-.1013-.2267-.1787-.392-.232-.1654-.0587-.36-.1013-.584-.128-.2187-.0267-.4534-.0453-.704-.056-.2454-.016-.5014-.0293-.768-.04-.2614-.0107-.5174-.032-.768-.064-.2187.1227-.3974.2667-.536.432-.1334.1653-.2.3573-.2.576 0 .144.0346.2773.104.4.0746.128.1893.2373.344.328.16.0907.3653.16.616.208.2506.0533.5573.08.92.08.368 0 .6853-.0293.952-.088.2666-.0533.4853-.1307.656-.232.176-.096.304-.2133.384-.352.08-.1333.12-.28.12-.44zm1.968-8.296v.736c0 .2347-.1414.3787-.424.432l-.736.136c.112.2827.168.592.168.928 0 .4053-.0827.7733-.248 1.104-.16.3253-.384.6027-.672.832-.288.2293-.6294.408-1.024.536-.3894.1227-.8107.184-1.264.184-.16 0-.3147-.008-.464-.024-.1494-.016-.296-.0373-.44-.064-.256.1547-.384.328-.384.52 0 .1653.0746.288.224.368.1546.0747.3573.128.608.16.2506.032.536.0533.856.064.32.0053.648.0213.984.048.336.0267.664.0747.984.144.32.064.6053.168.856.312.2506.144.4506.3413.6.592.1546.2453.232.5627.232.952 0 .3627-.0907.7147-.272 1.056-.176.3413-.4347.6453-.776.912-.336.2667-.752.48-1.248.64-.4907.1653-1.0507.248-1.68.248-.6187 0-1.1574-.0613-1.616-.184-.4587-.1173-.84-.2773-1.144-.48-.304-.1973-.5307-.4267-.68-.688-.1494-.2613-.224-.5333-.224-.816 0-.384.1146-.704.344-.96.2346-.2613.5546-.4693.96-.624-.2187-.112-.392-.2613-.52-.448-.128-.1867-.192-.432-.192-.736 0-.1227.0213-.248.064-.376.048-.1333.1146-.264.2-.392.0906-.128.2026-.248.336-.36.1333-.1173.2906-.2213.472-.312-.416-.224-.744-.5227-.984-.896-.2347-.3733-.352-.8107-.352-1.312 0-.4053.08-.7707.24-1.096.1653-.3307.392-.6107.68-.84.2933-.2347.6373-.4133 1.032-.536.4-.1227.8346-.184 1.304-.184.352 0 .6826.0373.992.112.3093.0693.592.1733.848.312h2.36zm3.1171 1.144c.256-.4907.56-.8747.912-1.152.352-.2827.768-.424 1.248-.424.3787 0 .6827.0827.912.248l-.128 1.48c-.0267.096-.0667.1653-.12.208-.048.0373-.1147.056-.2.056-.08 0-.2-.0133-.36-.04-.1547-.0267-.3067-.04-.456-.04-.2187 0-.4133.032-.584.096-.1707.064-.3253.1573-.464.28-.1333.1173-.2533.2613-.36.432-.1013.1707-.1973.3653-.288.584v5.056h-1.976v-8.208h1.16c.2027 0 .344.0373.424.112.08.0693.1333.1973.16.384l.12.928zm8.3314 3.28c-.5707.0267-1.0507.0773-1.44.152-.3894.0693-.7014.16-.936.272-.2347.112-.4027.2427-.504.392-.1014.1493-.152.312-.152.488 0 .3467.1013.5947.304.744.208.1493.4773.224.808.224.4053 0 .7546-.072 1.048-.216.2986-.1493.5893-.3733.872-.672v-1.384zm-4.528-3.56c.944-.864 2.08-1.296 3.408-1.296.48 0 .9093.08 1.288.24.3786.1547.6986.3733.96.656.2613.2773.4586.6107.592 1 .1386.3893.208.816.208 1.28v5.184h-.896c-.1867 0-.3307-.0267-.432-.08-.1014-.0587-.1814-.1733-.24-.344l-.176-.592c-.208.1867-.4107.352-.608.496-.1974.1387-.4027.256-.616.352-.2134.096-.4427.168-.688.216-.24.0533-.5067.08-.8.08-.3467 0-.6667-.0453-.96-.136-.2934-.096-.5467-.2373-.76-.424-.2134-.1867-.3787-.4187-.496-.696-.1174-.2773-.176-.6-.176-.968 0-.208.0346-.4133.104-.616.0693-.208.1813-.4053.336-.592.16-.1867.3653-.3627.616-.528.2506-.1653.5573-.3093.92-.432.368-.1227.7946-.2213 1.28-.296.4853-.08 1.04-.128 1.664-.144v-.48c0-.5493-.1174-.9547-.352-1.216-.2347-.2667-.5734-.4-1.016-.4-.32 0-.5867.0373-.8.112-.208.0747-.392.16-.552.256-.16.0907-.3067.1733-.44.248-.128.0747-.272.112-.432.112-.1387 0-.256-.0347-.352-.104-.096-.0747-.1734-.16-.232-.256l-.352-.632zm10.293 4.936c.224.272.4666.464.728.576.2666.112.5546.168.864.168.2986 0 .568-.056.808-.168.24-.112.4426-.2827.608-.512.1706-.2293.3013-.5173.392-.864.0906-.352.136-.7653.136-1.24 0-.48-.04-.8853-.12-1.216-.0747-.336-.184-.608-.328-.816-.144-.208-.32-.36-.528-.456-.2027-.096-.4347-.144-.696-.144-.4107 0-.76.088-1.048.264-.288.1707-.56.4133-.816.728v3.68zm-.104-4.96c.336-.3787.7173-.6853 1.144-.92.4266-.2347.928-.352 1.504-.352.448 0 .856.0933 1.224.28.3733.1867.6933.4587.96.816.272.352.48.7893.624 1.312.1493.5173.224 1.112.224 1.784 0 .6133-.0827 1.1813-.248 1.704-.1654.5227-.4027.976-.712 1.36-.304.384-.6747.6853-1.112.904-.432.2133-.9174.32-1.456.32-.4587 0-.8507-.0693-1.176-.208-.3254-.144-.616-.3413-.872-.592v3.36h-1.976v-10.888h1.208c.256 0 .424.12.504.36l.16.76zm9.1977-.24c.32-.2987.672-.5413 1.056-.728.384-.1867.8347-.28 1.352-.28.448 0 .8454.0773 1.192.232.3467.1493.6347.3627.864.64.2347.272.4107.6.528.984.1227.3787.184.7973.184 1.256v5.224h-1.976v-5.224c0-.5013-.1146-.888-.344-1.16-.2293-.2773-.5786-.416-1.048-.416-.3413 0-.6613.0773-.96.232-.2986.1547-.5813.3653-.848.632v5.936h-1.976v-11.888h1.976v4.56zm14.2925-.88l-4.472 10.464c-.0586.1387-.136.2427-.232.312-.0906.0747-.232.112-.424.112h-1.472l1.536-3.296-3.32-7.592h1.736c.1547 0 .2747.0373.36.112.0907.0747.1574.16.2.256l1.744 4.256c.0587.144.1067.288.144.432.0427.144.0827.2907.12.44.048-.1493.096-.296.144-.44.048-.1493.1014-.296.16-.44l1.648-4.248c.0427-.1067.112-.1947.208-.264.1014-.0693.2134-.104.336-.104h1.584z"/>
  <path fill="#fff" fill-rule="evenodd" d="M65.9908 10.9667V34.024c0 2.1216-1.7213 3.8429-3.8429 3.8429h-33.305C26.7213 37.8669 25 36.1456 25 34.024V10.9667c0-2.12156 1.7213-3.84286 3.8429-3.84286h7.0453l.9847-2.63397C37.4333 2.99274 38.8664 2 40.4676 2h10.0475c1.6012 0 3.0343.99274 3.5947 2.48987l.9928 2.63397h7.0453c2.1216 0 3.8429 1.7213 3.8429 3.84286zM55.1011 22.4939c0-5.3-4.3072-9.6072-9.6072-9.6072-5.3 0-9.6072 4.3072-9.6072 9.6072 0 5.3 4.3072 9.6072 9.6072 9.6072 5.3 0 9.6072-4.3072 9.6072-9.6072zm-2.5604.0009c0 3.8829-3.1624 7.0453-7.0453 7.0453-3.8829 0-7.0453-3.1624-7.0453-7.0453 0-3.8829 3.1624-7.0453 7.0453-7.0453 3.8829 0 7.0453 3.1624 7.0453 7.0453z" clip-rule="evenodd"/>
  <path fill="#fff" d="M462.264 70.952c0-.256-.037-.496-.112-.72-.069-.2293-.176-.4293-.32-.6-.144-.1707-.328-.304-.552-.4-.219-.1013-.475-.152-.768-.152-.571 0-1.021.1627-1.352.488-.325.3253-.533.7867-.624 1.384h3.728zm-3.768 1.192c.032.4213.107.7867.224 1.096.117.304.272.5573.464.76.192.1973.419.3467.68.448.267.096.56.144.88.144.32 0 .595-.0373.824-.112.235-.0747.437-.1573.608-.248.176-.0907.328-.1733.456-.248.133-.0747.261-.112.384-.112.165 0 .288.0613.368.184l.568.72c-.219.256-.464.472-.736.648-.272.1707-.557.3093-.856.416-.293.1013-.595.1733-.904.216-.304.0427-.6.064-.888.064-.571 0-1.101-.0933-1.592-.28-.491-.192-.917-.472-1.28-.84-.363-.3733-.648-.832-.856-1.376-.208-.5493-.312-1.184-.312-1.904 0-.56.091-1.0853.272-1.576.181-.496.44-.9253.776-1.288.341-.368.755-.6587 1.24-.872.491-.2133 1.043-.32 1.656-.32.517 0 .995.0827 1.432.248.437.1653.813.408 1.128.728.315.3147.56.704.736 1.168.181.4587.272.984.272 1.576 0 .2987-.032.5013-.096.608-.064.1013-.187.152-.368.152h-5.08zm8.875-3.344c.165-.1653.339-.3173.52-.456.187-.144.381-.264.584-.36.208-.1013.429-.1787.664-.232.235-.0587.491-.088.768-.088.448 0 .845.0773 1.192.232.347.1493.635.3627.864.64.235.272.411.6.528.984.123.3787.184.7973.184 1.256V76h-1.976v-5.224c0-.5013-.115-.888-.344-1.16-.229-.2773-.579-.416-1.048-.416-.341 0-.661.0773-.96.232-.299.1547-.581.3653-.848.632V76h-1.976v-8.208h1.208c.256 0 .424.12.504.36l.136.648zm10.183 2.896c.245 0 .459-.032.64-.096.181-.0693.331-.1627.448-.28.123-.1173.213-.2587.272-.424.064-.1653.096-.3467.096-.544 0-.4053-.123-.7253-.368-.96-.24-.24-.603-.36-1.088-.36-.485 0-.851.12-1.096.36-.24.2347-.36.5547-.36.96 0 .192.029.3707.088.536.064.1653.155.3093.272.432.123.1173.275.2107.456.28.187.064.4.096.64.096zm2.232 4.672c0-.16-.048-.2907-.144-.392-.096-.1013-.227-.1787-.392-.232-.165-.0587-.36-.1013-.584-.128-.219-.0267-.453-.0453-.704-.056-.245-.016-.501-.0293-.768-.04-.261-.0107-.517-.032-.768-.064-.219.1227-.397.2667-.536.432-.133.1653-.2.3573-.2.576 0 .144.035.2773.104.4.075.128.189.2373.344.328.16.0907.365.16.616.208.251.0533.557.08.92.08.368 0 .685-.0293.952-.088.267-.0533.485-.1307.656-.232.176-.096.304-.2133.384-.352.08-.1333.12-.28.12-.44zm1.968-8.296v.736c0 .2347-.141.3787-.424.432l-.736.136c.112.2827.168.592.168.928 0 .4053-.083.7733-.248 1.104-.16.3253-.384.6027-.672.832-.288.2293-.629.408-1.024.536-.389.1227-.811.184-1.264.184-.16 0-.315-.008-.464-.024-.149-.016-.296-.0373-.44-.064-.256.1547-.384.328-.384.52 0 .1653.075.288.224.368.155.0747.357.128.608.16s.536.0533.856.064c.32.0053.648.0213.984.048.336.0267.664.0747.984.144.32.064.605.168.856.312s.451.3413.6.592c.155.2453.232.5627.232.952 0 .3627-.091.7147-.272 1.056-.176.3413-.435.6453-.776.912-.336.2667-.752.48-1.248.64-.491.1653-1.051.248-1.68.248-.619 0-1.157-.0613-1.616-.184-.459-.1173-.84-.2773-1.144-.48-.304-.1973-.531-.4267-.68-.688-.149-.2613-.224-.5333-.224-.816 0-.384.115-.704.344-.96.235-.2613.555-.4693.96-.624-.219-.112-.392-.2613-.52-.448-.128-.1867-.192-.432-.192-.736 0-.1227.021-.248.064-.376.048-.1333.115-.264.2-.392.091-.128.203-.248.336-.36.133-.1173.291-.2213.472-.312-.416-.224-.744-.5227-.984-.896-.235-.3733-.352-.8107-.352-1.312 0-.4053.08-.7707.24-1.096.165-.3307.392-.6107.68-.84.293-.2347.637-.4133 1.032-.536.4-.1227.835-.184 1.304-.184.352 0 .683.0373.992.112.309.0693.592.1733.848.312h2.36zm3.301-.28V76h-1.984v-8.208h1.984zm.272-2.392c0 .1707-.034.3307-.104.48-.069.1493-.162.28-.28.392-.112.112-.245.2027-.4.272-.154.064-.32.096-.496.096-.17 0-.333-.032-.488-.096-.149-.0693-.28-.16-.392-.272-.112-.112-.202-.2427-.272-.392-.064-.1493-.096-.3093-.096-.48 0-.176.032-.3413.096-.496.07-.1547.16-.288.272-.4.112-.112.243-.2.392-.264.155-.0693.318-.104.488-.104.176 0 .342.0347.496.104.155.064.288.152.4.264.118.112.211.2453.28.4.07.1547.104.32.104.496zm3.591 3.4c.165-.1653.338-.3173.52-.456.186-.144.381-.264.584-.36.208-.1013.429-.1787.664-.232.234-.0587.49-.088.768-.088.448 0 .845.0773 1.192.232.346.1493.634.3627.864.64.234.272.41.6.528.984.122.3787.184.7973.184 1.256V76h-1.976v-5.224c0-.5013-.115-.888-.344-1.16-.23-.2773-.579-.416-1.048-.416-.342 0-.662.0773-.96.232-.299.1547-.582.3653-.848.632V76h-1.976v-8.208h1.208c.256 0 .424.12.504.36l.136.648zm12.471 2.152c0-.256-.037-.496-.112-.72-.069-.2293-.176-.4293-.32-.6-.144-.1707-.328-.304-.552-.4-.219-.1013-.475-.152-.768-.152-.571 0-1.021.1627-1.352.488-.325.3253-.533.7867-.624 1.384h3.728zm-3.768 1.192c.032.4213.107.7867.224 1.096.117.304.272.5573.464.76.192.1973.419.3467.68.448.267.096.56.144.88.144.32 0 .595-.0373.824-.112.235-.0747.437-.1573.608-.248.176-.0907.328-.1733.456-.248.133-.0747.261-.112.384-.112.165 0 .288.0613.368.184l.568.72c-.219.256-.464.472-.736.648-.272.1707-.557.3093-.856.416-.293.1013-.595.1733-.904.216-.304.0427-.6.064-.888.064-.571 0-1.101-.0933-1.592-.28-.491-.192-.917-.472-1.28-.84-.363-.3733-.648-.832-.856-1.376-.208-.5493-.312-1.184-.312-1.904 0-.56.091-1.0853.272-1.576.181-.496.44-.9253.776-1.288.341-.368.755-.6587 1.24-.872.491-.2133 1.043-.32 1.656-.32.517 0 .995.0827 1.432.248.437.1653.813.408 1.128.728.315.3147.56.704.736 1.168.181.4587.272.984.272 1.576 0 .2987-.032.5013-.096.608-.064.1013-.187.152-.368.152h-5.08zm12.315-1.192c0-.256-.037-.496-.112-.72-.069-.2293-.176-.4293-.32-.6-.144-.1707-.328-.304-.552-.4-.219-.1013-.475-.152-.768-.152-.571 0-1.021.1627-1.352.488-.325.3253-.533.7867-.624 1.384h3.728zm-3.768 1.192c.032.4213.107.7867.224 1.096.117.304.272.5573.464.76.192.1973.419.3467.68.448.267.096.56.144.88.144.32 0 .595-.0373.824-.112.235-.0747.437-.1573.608-.248.176-.0907.328-.1733.456-.248.133-.0747.261-.112.384-.112.165 0 .288.0613.368.184l.568.72c-.219.256-.464.472-.736.648-.272.1707-.557.3093-.856.416-.293.1013-.595.1733-.904.216-.304.0427-.6.064-.888.064-.571 0-1.101-.0933-1.592-.28-.491-.192-.917-.472-1.28-.84-.363-.3733-.648-.832-.856-1.376-.208-.5493-.312-1.184-.312-1.904 0-.56.091-1.0853.272-1.576.181-.496.44-.9253.776-1.288.341-.368.755-.6587 1.24-.872.491-.2133 1.043-.32 1.656-.32.517 0 .995.0827 1.432.248.437.1653.813.408 1.128.728.315.3147.56.704.736 1.168.181.4587.272.984.272 1.576 0 .2987-.032.5013-.096.608-.064.1013-.187.152-.368.152h-5.08zm8.891-2.928c.256-.4907.56-.8747.912-1.152.352-.2827.768-.424 1.248-.424.378 0 .682.0827.912.248l-.128 1.48c-.027.096-.067.1653-.12.208-.048.0373-.115.056-.2.056-.08 0-.2-.0133-.36-.04-.155-.0267-.307-.04-.456-.04-.219 0-.414.032-.584.096-.171.064-.326.1573-.464.28-.134.1173-.254.2613-.36.432-.102.1707-.198.3653-.288.584V76h-1.976v-8.208h1.16c.202 0 .344.0373.424.112.08.0693.133.1973.16.384l.12.928zm6.153-1.424V76h-1.984v-8.208h1.984zm.272-2.392c0 .1707-.035.3307-.104.48-.07.1493-.163.28-.28.392-.112.112-.246.2027-.4.272-.155.064-.32.096-.496.096-.171 0-.334-.032-.488-.096-.15-.0693-.28-.16-.392-.272-.112-.112-.203-.2427-.272-.392-.064-.1493-.096-.3093-.096-.48 0-.176.032-.3413.096-.496.069-.1547.16-.288.272-.4.112-.112.242-.2.392-.264.154-.0693.317-.104.488-.104.176 0 .341.0347.496.104.154.064.288.152.4.264.117.112.21.2453.28.4.069.1547.104.32.104.496zm3.59 3.4c.165-.1653.339-.3173.52-.456.187-.144.381-.264.584-.36.208-.1013.429-.1787.664-.232.235-.0587.491-.088.768-.088.448 0 .845.0773 1.192.232.347.1493.635.3627.864.64.235.272.411.6.528.984.123.3787.184.7973.184 1.256V76h-1.976v-5.224c0-.5013-.115-.888-.344-1.16-.229-.2773-.579-.416-1.048-.416-.341 0-.661.0773-.96.232-.299.1547-.581.3653-.848.632V76h-1.976v-8.208h1.208c.256 0 .424.12.504.36l.136.648zm10.183 2.896c.246 0 .459-.032.64-.096.182-.0693.331-.1627.448-.28.123-.1173.214-.2587.272-.424.064-.1653.096-.3467.096-.544 0-.4053-.122-.7253-.368-.96-.24-.24-.602-.36-1.088-.36-.485 0-.85.12-1.096.36-.24.2347-.36.5547-.36.96 0 .192.03.3707.088.536.064.1653.155.3093.272.432.123.1173.275.2107.456.28.187.064.4.096.64.096zm2.232 4.672c0-.16-.048-.2907-.144-.392-.096-.1013-.226-.1787-.392-.232-.165-.0587-.36-.1013-.584-.128-.218-.0267-.453-.0453-.704-.056-.245-.016-.501-.0293-.768-.04-.261-.0107-.517-.032-.768-.064-.218.1227-.397.2667-.536.432-.133.1653-.2.3573-.2.576 0 .144.035.2773.104.4.075.128.19.2373.344.328.16.0907.366.16.616.208.251.0533.558.08.92.08.368 0 .686-.0293.952-.088.267-.0533.486-.1307.656-.232.176-.096.304-.2133.384-.352.08-.1333.12-.28.12-.44zm1.968-8.296v.736c0 .2347-.141.3787-.424.432l-.736.136c.112.2827.168.592.168.928 0 .4053-.082.7733-.248 1.104-.16.3253-.384.6027-.672.832-.288.2293-.629.408-1.024.536-.389.1227-.81.184-1.264.184-.16 0-.314-.008-.464-.024-.149-.016-.296-.0373-.44-.064-.256.1547-.384.328-.384.52 0 .1653.075.288.224.368.155.0747.358.128.608.16.251.032.536.0533.856.064.32.0053.648.0213.984.048.336.0267.664.0747.984.144.32.064.606.168.856.312.251.144.451.3413.6.592.155.2453.232.5627.232.952 0 .3627-.09.7147-.272 1.056-.176.3413-.434.6453-.776.912-.336.2667-.752.48-1.248.64-.49.1653-1.05.248-1.68.248-.618 0-1.157-.0613-1.616-.184-.458-.1173-.84-.2773-1.144-.48-.304-.1973-.53-.4267-.68-.688-.149-.2613-.224-.5333-.224-.816 0-.384.115-.704.344-.96.235-.2613.555-.4693.96-.624-.218-.112-.392-.2613-.52-.448-.128-.1867-.192-.432-.192-.736 0-.1227.022-.248.064-.376.048-.1333.115-.264.2-.392.091-.128.203-.248.336-.36.134-.1173.291-.2213.472-.312-.416-.224-.744-.5227-.984-.896-.234-.3733-.352-.8107-.352-1.312 0-.4053.08-.7707.24-1.096.166-.3307.392-.6107.68-.84.294-.2347.638-.4133 1.032-.536.4-.1227.835-.184 1.304-.184.352 0 .683.0373.992.112.31.0693.592.1733.848.312h2.36z"/>
  <path fill="#fff" fill-rule="evenodd" d="M513.744 9.7626v.4851h-10.248V0h.485c.51 0 .999.202472 1.359.562742l7.841 7.841158c.36.36039.563.84911.563 1.3587zm-10.889 3.047c-1.057 0-1.922-.8646-1.922-1.9214V0h-16.012C483.86 0 483 .860245 483 1.92144V39.0693c0 1.0612.86 1.9215 1.921 1.9215h26.901c1.061 0 1.921-.8603 1.921-1.9215V12.8096h-10.888zm-9.992 19.2549c-.078.0836-.187.1327-.301.1364-.115.0037-.226-.0383-.31-.1167l-5.193-4.8686c-.087-.0818-.137-.1959-.137-.3154 0-.1195.05-.2337.137-.3154l5.193-4.8686c.084-.0785.195-.1205.31-.1168.114.0037.223.0528.301.1364l1.568 1.6721c.08.0854.122.1995.116.3164-.006.1169-.058.2265-.146.3038l-3.264 2.8721 3.264 2.8721c.088.0773.14.1869.146.3038.006.1169-.036.231-.116.3164l-1.568 1.672zm4.108 4.0418l-2.198-.6381c-.229-.0666-.361-.3064-.295-.5358l4.919-16.9427c.067-.2293.306-.3612.536-.2947l2.198.638c.11.032.203.1064.258.2069.055.1005.068.2188.036.3289l-4.919 16.9428c-.032.1101-.106.2031-.206.2583-.101.0553-.219.0684-.329.0364zm12.873-8.8903l-5.193 4.8686c-.084.0784-.195.1204-.31.1167-.114-.0037-.223-.0528-.301-.1364l-1.568-1.6721c-.08-.0853-.122-.1995-.116-.3164.006-.1169.058-.2265.146-.3038l3.264-2.872-3.264-2.8721c-.088-.0773-.14-.1869-.146-.3038-.006-.1169.036-.231.116-.3164l1.568-1.6721c.078-.0836.187-.1327.302-.1364.114-.0037.226.0383.309.1168l5.193 4.8686c.087.0817.137.1959.137.3154 0 .1195-.05.2336-.137.3154z" clip-rule="evenodd"/>
  <path fill="#fff" d="M382.976 76v-8.208h1.208c.256 0 .424.12.504.36l.128.608c.144-.16.293-.3067.448-.44.16-.1333.328-.248.504-.344.181-.096.373-.1707.576-.224.208-.0587.435-.088.68-.088.517 0 .941.1413 1.272.424.336.2773.587.648.752 1.112.128-.272.288-.504.48-.696.192-.1973.403-.3573.632-.48.229-.1227.472-.2133.728-.272.261-.0587.523-.088.784-.088.453 0 .856.0693 1.208.208s.648.3413.888.608.421.592.544.976c.128.384.192.824.192 1.32V76h-1.976v-5.224c0-.5227-.115-.9147-.344-1.176-.229-.2667-.565-.4-1.008-.4-.203 0-.392.0347-.568.104-.171.0693-.323.1707-.456.304-.128.128-.229.2907-.304.488-.075.1973-.112.424-.112.68V76h-1.984v-5.224c0-.5493-.112-.9493-.336-1.2-.219-.2507-.541-.376-.968-.376-.288 0-.557.072-.808.216-.245.1387-.475.3307-.688.576V76h-1.976zm20.478-8.208V76h-1.208c-.261 0-.426-.12-.496-.36l-.136-.656c-.336.3413-.706.6187-1.112.832-.405.208-.882.312-1.432.312-.448 0-.845-.0747-1.192-.224-.341-.1547-.629-.3707-.864-.648-.234-.2773-.413-.6053-.536-.984-.117-.384-.176-.8053-.176-1.264v-5.216h1.976v5.216c0 .5013.115.8907.344 1.168.235.272.584.408 1.048.408.342 0 .662-.0747.96-.224.299-.1547.582-.3653.848-.632v-5.936h1.976zm6.968 1.6c-.054.0853-.11.1467-.168.184-.059.032-.134.048-.224.048-.096 0-.2-.0267-.312-.08-.107-.0533-.232-.112-.376-.176-.144-.0693-.31-.1307-.497-.184-.181-.0533-.397-.08-.647-.08-.39 0-.696.0827-.92.248-.219.1653-.328.3813-.328.648 0 .176.056.3253.168.448.117.1173.269.2213.456.312.192.0907.408.1733.648.248.24.0693.482.1467.728.232.25.0853.496.184.736.296.24.1067.453.2453.64.416.192.1653.344.3653.456.6.117.2347.176.5173.176.848 0 .3947-.072.76-.216 1.096-.139.3307-.347.6187-.624.864-.278.24-.622.4293-1.032.568-.406.1333-.875.2-1.408.2-.283 0-.56-.0267-.832-.08-.267-.048-.526-.1173-.776-.208-.246-.0907-.475-.1973-.688-.32-.208-.1227-.392-.256-.552-.4l.456-.752c.058-.0907.128-.16.207-.208.08-.048.182-.072.305-.072.122 0 .237.0347.344.104.112.0693.24.144.384.224.144.08.312.1547.504.224.197.0693.445.104.744.104.234 0 .434-.0267.6-.08.17-.0587.309-.1333.416-.224.112-.0907.191-.1947.24-.312.053-.1227.08-.248.08-.376 0-.192-.059-.3493-.176-.472-.112-.1227-.264-.2293-.457-.32-.186-.0907-.402-.1707-.647-.24-.24-.0747-.488-.1547-.744-.24-.251-.0853-.499-.184-.744-.296-.24-.1173-.456-.264-.648-.44-.187-.176-.339-.392-.456-.648-.112-.256-.168-.5653-.168-.928 0-.336.066-.656.2-.96.133-.304.328-.568.584-.792.261-.2293.584-.4107.968-.544.389-.1387.837-.208 1.344-.208.565 0 1.08.0933 1.544.28.464.1867.85.432 1.16.736l-.448.712zm4.071-1.6V76h-1.984v-8.208h1.984zm.272-2.392c0 .1707-.035.3307-.104.48-.07.1493-.163.28-.28.392-.112.112-.246.2027-.4.272-.155.064-.32.096-.496.096-.171 0-.334-.032-.488-.096-.15-.0693-.28-.16-.392-.272-.112-.112-.203-.2427-.272-.392-.064-.1493-.096-.3093-.096-.48 0-.176.032-.3413.096-.496.069-.1547.16-.288.272-.4.112-.112.242-.2.392-.264.154-.0693.317-.104.488-.104.176 0 .341.0347.496.104.154.064.288.152.4.264.117.112.21.2453.28.4.069.1547.104.32.104.496zm7.622 4.128c-.058.0747-.117.1333-.176.176-.053.0427-.133.064-.24.064-.101 0-.2-.0293-.296-.088-.096-.064-.21-.1333-.344-.208-.133-.08-.293-.1493-.48-.208-.181-.064-.408-.096-.68-.096-.346 0-.65.064-.912.192-.261.1227-.48.3013-.656.536-.17.2347-.298.52-.384.856-.085.3307-.128.7067-.128 1.128 0 .4373.046.8267.136 1.168.096.3413.232.6293.408.864.176.2293.39.4053.64.528.251.1173.534.176.848.176.315 0 .568-.0373.76-.112.198-.08.363-.1653.496-.256.134-.096.248-.1813.344-.256.102-.08.214-.12.336-.12.16 0 .28.0613.36.184l.568.72c-.218.256-.456.472-.712.648-.256.1707-.522.3093-.8.416-.272.1013-.554.1733-.848.216-.288.0427-.576.064-.864.064-.506 0-.984-.0933-1.432-.28-.448-.192-.84-.4693-1.176-.832-.336-.3627-.602-.8053-.8-1.328-.192-.528-.288-1.128-.288-1.8 0-.6027.086-1.16.256-1.672.176-.5173.432-.9627.768-1.336.336-.3787.752-.6747 1.248-.888.496-.2133 1.067-.32 1.712-.32.614 0 1.15.0987 1.608.296.464.1973.88.48 1.248.848l-.52.72z"/>
  <path fill="#fff" fill-rule="evenodd" d="M417.953.120816L396.657 7.80645c-.932.33624-1.569 1.32096-1.569 2.44175v21.1836c-.988-.4324-2.137-.6886-3.363-.6886-3.713 0-6.725 2.2977-6.725 5.1238 0 2.8261 3.012 5.1238 6.725 5.1238 3.713 0 6.725-2.2977 6.725-5.1238V17.6537l19.054-6.8771V26.308c-.987-.4323-2.136-.6885-3.362-.6885-3.713 0-6.725 2.2977-6.725 5.1237 0 2.8261 3.012 5.1238 6.725 5.1238 3.713 0 6.725-2.2977 6.725-5.1238V2.5626c0-1.737268-1.478-2.962165-2.914-2.441784z" clip-rule="evenodd"/>
</svg>