<svg width="32" height="43" xmlns="http://www.w3.org/2000/svg"><g fill="none" fill-rule="evenodd"><path d="M4.496,18.24 C7.088,18.24 8.48,16.704 8.48,13.968 C8.48,11.88 7.784,10.536 5.576,8.592 C3.848,7.08 3.296,6.192 3.296,4.968 C3.296,3.816 3.776,3.36 4.616,3.36 C5.456,3.36 5.936,3.816 5.936,5.016 L5.936,5.04 C5.936,5.616 6.248,5.88 6.776,5.88 L7.592,5.88 C8.12,5.88 8.432,5.616 8.432,5.04 C8.432,2.544 7.16,0.96 4.592,0.96 C2.024,0.96 0.656,2.496 0.656,5.136 C0.656,7.056 1.376,8.424 3.584,10.368 C5.312,11.88 5.84,12.768 5.84,14.16 C5.84,15.408 5.312,15.84 4.472,15.84 C3.632,15.84 3.104,15.408 3.104,14.208 L3.104,13.896 C3.104,13.368 2.792,13.056 2.264,13.056 L1.448,13.056 C0.92,13.056 0.608,13.368 0.608,13.896 L0.608,14.016 C0.608,16.704 1.904,18.24 4.496,18.24 Z M15.832,18.24 C18.424,18.24 19.768,16.704 19.768,14.016 L19.768,2.04 C19.768,1.512 19.456,1.2 18.928,1.2 L18.064,1.2 C17.536,1.2 17.224,1.512 17.224,2.04 L17.224,14.208 C17.224,15.408 16.72,15.84 15.88,15.84 C15.04,15.84 14.536,15.408 14.536,14.208 L14.536,2.04 C14.536,1.512 14.224,1.2 13.696,1.2 L12.736,1.2 C12.208,1.2 11.896,1.512 11.896,2.04 L11.896,14.016 C11.896,16.704 13.24,18.24 15.832,18.24 Z M25.44,18 C25.968,18 26.28,17.688 26.28,17.16 L26.28,11.16 L27.528,11.16 C30.168,11.16 31.464,9.696 31.464,7.008 L31.464,5.352 C31.464,2.664 30.168,1.2 27.528,1.2 L24.48,1.2 C23.952,1.2 23.64,1.512 23.64,2.04 L23.64,17.16 C23.64,17.688 23.952,18 24.48,18 L25.44,18 Z M27.528,8.76 L26.28,8.76 L26.28,3.6 L27.528,3.6 C28.368,3.6 28.824,3.984 28.824,5.184 L28.824,7.176 C28.824,8.376 28.368,8.76 27.528,8.76 Z M2.612,42 C3.14,42 3.452,41.688 3.452,41.16 L3.452,29.736 L3.5,29.736 L6.476,41.28 C6.596,41.784 6.908,42 7.412,42 L8.54,42 C9.068,42 9.38,41.688 9.38,41.16 L9.38,26.04 C9.38,25.512 9.068,25.2 8.54,25.2 L7.868,25.2 C7.34,25.2 7.028,25.512 7.028,26.04 L7.028,35.256 L6.98,35.256 L4.604,25.92 C4.484,25.416 4.172,25.2 3.668,25.2 L1.94,25.2 C1.412,25.2 1.1,25.512 1.1,26.04 L1.1,41.16 C1.1,41.688 1.412,42 1.94,42 L2.612,42 Z M15.148,42 C15.676,42 15.988,41.688 15.988,41.16 L15.988,26.04 C15.988,25.512 15.676,25.2 15.148,25.2 L14.188,25.2 C13.66,25.2 13.348,25.512 13.348,26.04 L13.348,41.16 C13.348,41.688 13.66,42 14.188,42 L15.148,42 Z M21.42,42 C21.948,42 22.26,41.688 22.26,41.16 L22.26,29.28 L22.308,29.28 L24.108,41.232 C24.18,41.76 24.516,42 25.02,42 L25.644,42 C26.148,42 26.484,41.76 26.556,41.232 L28.356,29.28 L28.404,29.28 L28.404,41.16 C28.404,41.688 28.716,42 29.244,42 L30.06,42 C30.588,42 30.9,41.688 30.9,41.16 L30.9,26.04 C30.9,25.512 30.588,25.2 30.06,25.2 L27.924,25.2 C27.42,25.2 27.084,25.44 27.012,25.968 L25.452,37.224 L25.404,37.224 L23.844,25.968 C23.772,25.44 23.436,25.2 22.932,25.2 L20.796,25.2 C20.268,25.2 19.956,25.512 19.956,26.04 L19.956,41.16 C19.956,41.688 20.268,42 20.796,42 L21.42,42 Z" stroke="#FFF" stroke-width=".5" fill="#FFF" fill-rule="nonzero"/></g></svg>