<svg width="39" height="33" viewBox="0 0 39 33" fill="none" xmlns="http://www.w3.org/2000/svg">
<path d="M0.543372 8.40341C0.629221 10.5711 2.34619 12.0734 5.05042 12.0734C7.64733 12.0734 9.45015 10.6999 9.45015 8.48925C9.45015 6.90106 8.50581 5.84941 6.74592 5.42017L4.83579 4.94801C4.14901 4.77631 3.71976 4.60461 3.71976 4.0466C3.71976 3.48858 4.17047 3.12373 4.83579 3.12373C5.58697 3.12373 6.0806 3.61736 6.05913 4.34707H9.04237C8.95652 2.11501 7.26101 0.719971 4.90018 0.719971C2.51789 0.719971 0.736531 2.13647 0.736531 4.28268C0.736531 5.72064 1.53063 6.90106 3.65538 7.45907L5.54404 7.9527C6.10206 8.10294 6.33814 8.36048 6.33814 8.72534C6.33814 9.26189 5.84451 9.60528 5.00749 9.60528C4.0417 9.60528 3.52661 9.15458 3.52661 8.40341H0.543372Z" fill="white"/>
<path d="M16.2263 12.0734C17.5355 12.0734 18.8447 11.4725 19.51 10.5925L19.7246 11.7944H22.8366V1.06337H19.5315V6.64351C19.5315 8.25317 19.0593 9.13312 17.5355 9.13312C16.3551 9.13312 15.5824 8.59656 15.5824 6.60059V1.06337H12.2773V7.80247C12.2773 10.3565 13.6938 12.0734 16.2263 12.0734Z" fill="white"/>
<path d="M26.4683 16.9453H29.7305V10.7213C30.3529 11.5369 31.7694 12.0949 33.2503 12.0949C36.4481 12.0949 38.3797 9.64821 38.2939 6.25719C38.208 2.8018 36.2121 0.719971 33.2288 0.719971C31.705 0.719971 30.267 1.3853 29.6661 2.37255L29.4944 1.06337H26.4683V16.9453ZM29.7949 6.42889C29.7949 4.81923 30.868 3.74613 32.4133 3.74613C33.98 3.74613 34.9673 4.8407 34.9673 6.42889C34.9673 8.01709 33.98 9.11166 32.4133 9.11166C30.868 9.11166 29.7949 8.03855 29.7949 6.42889Z" fill="white"/>
<path d="M3.72295 32.72V26.8394C3.72295 24.8005 5.26822 24.6502 5.86916 24.6502C6.38425 24.6502 7.75783 24.8005 7.75783 26.8823V32.72H11.063V26.0882C11.063 23.4269 9.73234 21.6455 7.02812 21.6455C5.65454 21.6455 4.4312 22.1606 3.74441 23.1049L3.52979 21.9889H0.417786V32.72H3.72295Z" fill="white"/>
<path d="M16.2788 20.3149C17.309 20.3149 18.146 19.4779 18.146 18.4262C18.146 17.3746 17.309 16.559 16.2788 16.559C15.2271 16.559 14.3901 17.3746 14.3901 18.4262C14.3901 19.4779 15.2271 20.3149 16.2788 20.3149ZM14.6047 32.72H17.9314V21.9889H14.6047V32.72Z" fill="white"/>
<path d="M24.9114 32.72V26.8608C24.9114 25.058 25.8772 24.5429 26.8215 24.5429C27.8732 24.5429 28.56 25.1868 28.56 26.5174V32.72H31.8222V26.8608C31.8222 25.0365 32.7665 24.5214 33.7109 24.5214C34.7625 24.5214 35.4708 25.1653 35.4708 26.5174V32.72H38.6901V25.7019C38.6901 23.2552 37.4024 21.6241 34.6337 21.6241C33.0885 21.6241 31.8222 22.3752 31.2642 23.5342C30.6203 22.3752 29.5043 21.6241 27.723 21.6241C26.5425 21.6241 25.448 22.1606 24.8041 23.0191L24.6753 21.9889H21.5848V32.72H24.9114Z" fill="white"/>
</svg>
