<?xml version="1.0" encoding="UTF-8"?>
<svg width="40px" height="36px" viewBox="0 0 40 36" version="1.1" xmlns="http://www.w3.org/2000/svg" xmlns:xlink="http://www.w3.org/1999/xlink">
    <!-- Generator: Sketch 64 (93537) - https://sketch.com -->
    <title>design</title>
    <desc>Created with Sketch.</desc>
    <defs>
        <path d="M37.5,11.6666667 L37.5,9.16666667 L39.0625,9.16666667 C39.5802344,9.16666667 40,8.74690104 40,8.22916667 L40,5.10416667 C40,4.58643229 39.5802344,4.16666667 39.0625,4.16666667 L35.9375,4.16666667 C35.4197656,4.16666667 35,4.58643229 35,5.10416667 L35,6.66666667 L5,6.66666667 L5,5.10416667 C5,4.58643229 4.58023437,4.16666667 4.0625,4.16666667 L0.9375,4.16666667 C0.419765625,4.16666667 0,4.58643229 0,5.10416667 L0,8.22916667 C0,8.74690104 0.419765625,9.16666667 0.9375,9.16666667 L2.5,9.16666667 L2.5,34.1666667 L0.9375,34.1666667 C0.419765625,34.1666667 0,34.5864323 0,35.1041667 L0,38.2291667 C0,38.746901 0.419765625,39.1666667 0.9375,39.1666667 L4.0625,39.1666667 C4.58023437,39.1666667 5,38.746901 5,38.2291667 L5,36.6666667 L35,36.6666667 L35,38.2291667 C35,38.746901 35.4197656,39.1666667 35.9375,39.1666667 L39.0625,39.1666667 C39.5802344,39.1666667 40,38.746901 40,38.2291667 L40,35.1041667 C40,34.5864323 39.5802344,34.1666667 39.0625,34.1666667 L37.5,34.1666667 L37.5,11.6666667 Z M7.5,23.2291667 L7.5,12.6041667 C7.5,12.0864323 7.91976563,11.6666667 8.4375,11.6666667 L21.5625,11.6666667 C22.0802344,11.6666667 22.5,12.0864323 22.5,12.6041667 L22.5,23.2291667 C22.5,23.746901 22.0802344,24.1666667 21.5625,24.1666667 L8.4375,24.1666667 C7.91976563,24.1666667 7.5,23.746901 7.5,23.2291667 Z M32.5,30.7291667 C32.5,31.246901 32.0802344,31.6666667 31.5625,31.6666667 L18.4375,31.6666667 C17.9197656,31.6666667 17.5,31.246901 17.5,30.7291667 L17.5,26.6666667 L23.125,26.6666667 C24.1605469,26.6666667 25,25.8272135 25,24.7916667 L25,19.1666667 L31.5625,19.1666667 C32.0802344,19.1666667 32.5,19.5864323 32.5,20.1041667 L32.5,30.7291667 Z" id="path-1"></path>
    </defs>
    <g id="website" stroke="none" stroke-width="1" fill="none" fill-rule="evenodd">
        <g id="design" transform="translate(-24.000000, -53.000000)">
            <g id="Solid/object-group" transform="translate(24.000000, 49.000000)">
                <mask id="mask-2" fill="white">
                    <use xlink:href="#path-1"></use>
                </mask>
                <g id="Mask"></g>
                <g id="Color/Black" mask="url(#mask-2)" fill="#242A42" fill-rule="evenodd">
                    <rect id="Black" x="0" y="0" width="40" height="40"></rect>
                </g>
            </g>
        </g>
    </g>
</svg>