<?xml version="1.0" encoding="UTF-8"?>
<svg width="40px" height="36px" viewBox="0 0 40 36" version="1.1" xmlns="http://www.w3.org/2000/svg" xmlns:xlink="http://www.w3.org/1999/xlink">
    <!-- Generator: Sketch 64 (93537) - https://sketch.com -->
    <title>develop</title>
    <desc>Created with Sketch.</desc>
    <defs>
        <path d="M38.171875,19.546875 L30.625,16.71875 L30.625,8.2421875 C30.625,7.0703125 29.8984375,6.0234375 28.796875,5.609375 L20.984375,2.6796875 C20.3515625,2.4375 19.6484375,2.4375 19.0078125,2.6796875 L11.1953125,5.609375 C10.09375,6.0234375 9.3671875,7.0703125 9.3671875,8.2421875 L9.3671875,16.71875 L1.8203125,19.546875 C0.7265625,19.9609375 0,21.0078125 0,22.1796875 L0,30.78125 C0,31.84375 0.6015625,32.8203125 1.5546875,33.296875 L9.3671875,37.203125 C10.15625,37.6015625 11.09375,37.6015625 11.8828125,37.203125 L20,33.140625 L28.1171875,37.203125 C28.90625,37.6015625 29.84375,37.6015625 30.6328125,37.203125 L38.4453125,33.296875 C39.3984375,32.8203125 40,31.84375 40,30.78125 L40,22.1796875 C40,21.0078125 39.2734375,19.9609375 38.171875,19.546875 Z M27.96875,16.78125 L21.328125,19.2734375 L21.328125,13.9453125 L27.96875,11.0546875 L27.96875,16.78125 Z M12.03125,8.1328125 L20,5.1484375 L27.96875,8.1328125 L27.96875,8.1796875 L20,11.4140625 L12.03125,8.1796875 L12.03125,8.1328125 Z M18.59375,30.875 L11.953125,34.1953125 L11.953125,28.015625 L18.59375,24.984375 L18.59375,30.875 Z M18.59375,22.125 L10.625,25.359375 L2.65625,22.125 L2.65625,22.078125 L10.625,19.09375 L18.59375,22.078125 L18.59375,22.125 Z M37.34375,30.875 L30.703125,34.1953125 L30.703125,28.015625 L37.34375,24.984375 L37.34375,30.875 Z M37.34375,22.125 L29.375,25.359375 L21.40625,22.125 L21.40625,22.078125 L29.375,19.09375 L37.34375,22.078125 L37.34375,22.125 Z" id="path-1"></path>
    </defs>
    <g id="website" stroke="none" stroke-width="1" fill="none" fill-rule="evenodd">
        <g id="develop" transform="translate(-24.000000, -51.000000)">
            <g id="Solid/cubes" transform="translate(24.000000, 49.000000)">
                <mask id="mask-2" fill="white">
                    <use xlink:href="#path-1"></use>
                </mask>
                <g id="Mask"></g>
                <g id="Color/Black" mask="url(#mask-2)" fill="#242A42" fill-rule="evenodd">
                    <rect id="Black" x="0" y="0" width="40" height="40"></rect>
                </g>
            </g>
        </g>
    </g>
</svg>