<?xml version="1.0" encoding="UTF-8"?>
<svg width="40px" height="24px" viewBox="0 0 40 24" version="1.1" xmlns="http://www.w3.org/2000/svg" xmlns:xlink="http://www.w3.org/1999/xlink">
    <!-- Generator: Sketch 64 (93537) - https://sketch.com -->
    <title>explore</title>
    <desc>Created with Sketch.</desc>
    <defs>
        <path d="M32.0318125,16.0000625 C31.0085,15.9960625 30.0299375,16.18475 29.1295625,16.531 L24.2745625,8.7089375 C24.0009326,8.26810344 23.518915,8 23.0000625,8 L19.0000625,8 C18.44775,8 18.0000625,8.4476875 18.0000625,9 L18.0000625,10 C18.0000625,10.5523125 18.44775,11 19.0000625,11 L22.165625,11 L23.096625,12.5 L16.000125,12.5 L16.000125,11.5 C16.000125,10.9476875 15.5524375,10.5 15.000125,10.5 L9.5339375,10.5 C8.693875,10.5 7.985375,11.1874375 8.0004375,12.0273125 C8.0149375,12.8425625 8.6801875,13.5 9.500125,13.5 L12.5455,13.5 L10.7069375,16.47 C9.867375,16.168125 8.9629375,16.0023125 8.0199375,16 C3.630875,15.989375 0.02575,19.56325 -1.45999268e-05,23.95225 C-0.0258125,28.3924375 3.5659375,32 8.000125,32 C11.72775,32 14.86,29.4504375 15.7480625,26 L19.000125,26 C19.5195859,26 20.0020687,25.7312355 20.2755,25.2895625 L25.648125,16.610625 L26.58175,18.1148125 C24.9908125,19.5803125 23.9951875,21.682375 24.0000625,24.017125 C24.009125,28.3191875 27.61875,31.9578125 31.920625,31.9995625 C36.3335,32.042375 39.9319375,28.511875 39.9990625,24.1248125 C40.0669375,19.691 36.4661875,16.0173125 32.0318125,16.0000625 L32.0318125,16.0000625 Z M11.671875,20.61075 C12.2798125,21.2688125 12.7139375,22.0895625 12.8995,23 L10.192875,23 L11.671875,20.61075 Z M8.000125,29 C5.243125,29 3.000125,26.757 3.000125,24 C3.000125,21.243 5.243125,19 8.000125,19 C8.3669375,19 8.72425,19.0408125 9.0688125,19.1161875 L6.22475,23.7105 C5.6071875,24.7079375 6.3258125,26 7.500125,26 L12.581375,26 C11.80825,27.7640625 10.04625,29 8.000125,29 Z M18.1645,23 L15.938,23 C15.6905,21.01525 14.71575,19.256625 13.2890625,17.998375 L14.8356875,15.5 L22.807375,15.5 L18.1645,23 Z M31.7305625,28.992875 C29.1658125,28.8575625 27.1025,26.762125 27.003875,24.1956875 C26.953125,22.875625 27.4184375,21.6633125 28.2123125,20.74175 L30.989375,25.215875 C31.280625,25.685125 31.897125,25.829375 32.366375,25.538125 L33.216,25.0108125 C33.68525,24.7195625 33.8295625,24.1030625 33.53825,23.6338125 L30.759,19.156125 C31.164532,19.0522902 31.5815108,18.9998581 32.000125,19.0000619 C34.757125,19.0000619 37.000125,21.2430625 37.000125,24.0000619 C37.000125,26.8463125 34.609375,29.1448125 31.7305625,28.992875 L31.7305625,28.992875 Z" id="path-1"></path>
    </defs>
    <g id="website" stroke="none" stroke-width="1" fill="none" fill-rule="evenodd">
        <g id="explore" transform="translate(-24.000000, -57.000000)">
            <g id="Solid/bicycle" transform="translate(24.000000, 49.000000)">
                <mask id="mask-2" fill="white">
                    <use xlink:href="#path-1"></use>
                </mask>
                <g id="Mask"></g>
                <g id="Color/Black" mask="url(#mask-2)" fill="#242A42" fill-rule="evenodd">
                    <rect id="Black" x="0" y="0" width="40" height="40"></rect>
                </g>
            </g>
        </g>
    </g>
</svg>