<?xml version="1.0" encoding="UTF-8"?>
<svg width="40px" height="40px" viewBox="0 0 40 40" version="1.1" xmlns="http://www.w3.org/2000/svg" xmlns:xlink="http://www.w3.org/1999/xlink">
    <!-- Generator: Sketch 64 (93537) - https://sketch.com -->
    <title>loop</title>
    <desc>Created with Sketch.</desc>
    <defs>
        <path d="M29.2516129,10.1032258 C26.7304839,7.74258065 23.4587097,6.44854839 19.9877419,6.4516129 C13.741129,6.45709677 8.3483871,10.7401613 6.85943548,16.6814516 C6.75104839,17.1139516 6.36572581,17.4193548 5.91983871,17.4193548 L1.29862903,17.4193548 C0.693951613,17.4193548 0.234596774,16.8704032 0.346451613,16.276129 C2.09137097,7.01 10.2268548,0 20,0 C25.3587097,0 30.2250806,2.10774194 33.8157258,5.5391129 L36.6959677,2.65887097 C37.9152419,1.43959677 40,2.30314516 40,4.0275 L40,14.8387097 C40,15.9076613 39.1334677,16.7741935 38.0645161,16.7741935 L27.2533065,16.7741935 C25.5289516,16.7741935 24.6654032,14.6894355 25.8846774,13.4700806 L29.2516129,10.1032258 Z M1.93548387,23.2258065 L12.7466935,23.2258065 C14.4710484,23.2258065 15.3345968,25.3105645 14.1153226,26.5299194 L10.7483871,29.8968548 C13.2695161,32.2575806 16.5415323,33.5516129 20.0125806,33.5484677 C26.2559677,33.5428226 31.6508871,29.2626613 33.1405645,23.3187097 C33.2489516,22.8862097 33.6342742,22.5808065 34.0801613,22.5808065 L38.7014516,22.5808065 C39.306129,22.5808065 39.7654839,23.1297581 39.653629,23.7240323 C37.908629,32.99 29.7731452,40 20,40 C14.6412903,40 9.77491935,37.8922581 6.18427419,34.4608871 L3.30403226,37.341129 C2.08475806,38.5604032 0,37.6968548 0,35.9725 L0,25.1612903 C0,24.0923387 0.866532258,23.2258065 1.93548387,23.2258065 Z" id="path-1"></path>
    </defs>
    <g id="website" stroke="none" stroke-width="1" fill="none" fill-rule="evenodd">
        <g id="loop" transform="translate(-24.000000, -49.000000)">
            <g id="Solid/sync-alt" transform="translate(24.000000, 49.000000)">
                <mask id="mask-2" fill="white">
                    <use xlink:href="#path-1"></use>
                </mask>
                <g id="Mask"></g>
                <g id="Color/Black" mask="url(#mask-2)" fill="#242A42" fill-rule="evenodd">
                    <rect id="Black" x="0" y="0" width="40" height="40"></rect>
                </g>
            </g>
        </g>
    </g>
</svg>