<?xml version="1.0" encoding="UTF-8"?>
<svg width="40px" height="26px" viewBox="0 0 40 26" version="1.1" xmlns="http://www.w3.org/2000/svg" xmlns:xlink="http://www.w3.org/1999/xlink">
    <!-- Generator: Sketch 64 (93537) - https://sketch.com -->
    <title>plan</title>
    <desc>Created with Sketch.</desc>
    <defs>
        <path d="M8,21 C8,23.209125 6.209125,25 4,25 C1.790875,25 0,23.209125 0,21 C0,18.790875 1.790875,17 4,17 C6.209125,17 8,18.790875 8,21 Z M4,29 C2.8954375,29 2,29.8954375 2,31 C2,32.1045625 2.8954375,33 4,33 C5.1045625,33 6,32.1045625 6,31 C6,29.8954375 5.1045625,29 4,29 Z M4,7 C1.790875,7 0,8.790875 0,11 C0,13.209125 1.790875,15 4,15 C6.209125,15 8,13.209125 8,11 C8,8.790875 6.209125,7 4,7 Z M14,19 C12.8954375,19 12,19.8954375 12,21 C12,22.1045625 12.8954375,23 14,23 C15.1045625,23 16,22.1045625 16,21 C16,19.8954375 15.1045625,19 14,19 Z M14,29 C12.8954375,29 12,29.8954375 12,31 C12,32.1045625 12.8954375,33 14,33 C15.1045625,33 16,32.1045625 16,31 C16,29.8954375 15.1045625,29 14,29 Z M14,7 C11.790875,7 10,8.790875 10,11 C10,13.209125 11.790875,15 14,15 C16.209125,15 18,13.209125 18,11 C18,8.790875 16.209125,7 14,7 Z M28,19 C26.8954375,19 26,19.8954375 26,21 C26,22.1045625 26.8954375,23 28,23 C29.1045625,23 30,22.1045625 30,21 C30,19.8954375 29.1045625,19 28,19 Z M28,29 C26.8954375,29 26,29.8954375 26,31 C26,32.1045625 26.8954375,33 28,33 C29.1045625,33 30,32.1045625 30,31 C30,29.8954375 29.1045625,29 28,29 Z M28,7 C25.790875,7 24,8.790875 24,11 C24,13.209125 25.790875,15 28,15 C30.209125,15 32,13.209125 32,11 C32,8.790875 30.209125,7 28,7 Z M38,19 C36.8954375,19 36,19.8954375 36,21 C36,22.1045625 36.8954375,23 38,23 C39.1045625,23 40,22.1045625 40,21 C40,19.8954375 39.1045625,19 38,19 Z M38,29 C36.8954375,29 36,29.8954375 36,31 C36,32.1045625 36.8954375,33 38,33 C39.1045625,33 40,32.1045625 40,31 C40,29.8954375 39.1045625,29 38,29 Z M38,9 C36.8954375,9 36,9.8954375 36,11 C36,12.1045625 36.8954375,13 38,13 C39.1045625,13 40,12.1045625 40,11 C40,9.8954375 39.1045625,9 38,9 Z" id="path-1"></path>
    </defs>
    <g id="website" stroke="none" stroke-width="1" fill="none" fill-rule="evenodd">
        <g id="decide" transform="translate(-24.000000, -56.000000)">
            <g id="Solid/braille" transform="translate(24.000000, 49.000000)">
                <mask id="mask-2" fill="white">
                    <use xlink:href="#path-1"></use>
                </mask>
                <g id="Mask"></g>
                <g id="Color/Black" mask="url(#mask-2)" fill="#242A42" fill-rule="evenodd">
                    <rect id="Black" x="0" y="0" width="40" height="40"></rect>
                </g>
            </g>
        </g>
    </g>
</svg>