<?xml version="1.0" encoding="UTF-8"?>
<svg width="40px" height="26px" viewBox="0 0 40 26" version="1.1" xmlns="http://www.w3.org/2000/svg" xmlns:xlink="http://www.w3.org/1999/xlink">
    <!-- Generator: Sketch 64 (93537) - https://sketch.com -->
    <title>understand</title>
    <desc>Created with Sketch.</desc>
    <defs>
        <path d="M39.469948,18.3106412 C35.5611092,11.6775737 28.2710572,7.24436742 19.965338,7.24436742 C11.6561525,7.24436742 4.36769497,11.6806932 0.460727903,18.3106412 C-0.153619709,19.3531257 -0.153619709,20.6469436 0.460727903,21.6894281 C4.36956672,28.3224263 11.6596187,32.7556326 19.965338,32.7556326 C28.2745234,32.7556326 35.5629809,28.3193068 39.469948,21.6893588 C40.0842981,20.6468998 40.0842981,19.3531002 39.469948,18.3106412 Z M19.965338,29.4280763 C14.7548007,29.4280763 10.5372617,25.2112998 10.5372617,20 C10.5372617,14.7894627 14.7539688,10.5719237 19.965338,10.5719237 C25.1758752,10.5719237 29.3934142,14.7886308 29.3934142,20 C29.3934142,25.2105373 25.1767071,29.4280763 19.965338,29.4280763 Z M27.1750433,20 C27.1750433,23.9818371 23.947175,27.2097054 19.965338,27.2097054 C15.9835009,27.2097054 12.7556326,23.9818371 12.7556326,20 C12.7556326,18.772409 13.0628076,17.6167071 13.6038821,16.6049913 L13.6038128,16.6072097 C13.6038128,18.2467938 14.9329636,19.5758752 16.5725477,19.5758752 C18.2121317,19.5758752 19.5412825,18.2467244 19.5412825,16.6072097 C19.5412825,14.9676256 18.2121317,13.6384749 16.5725477,13.6384749 L16.5703293,13.6385442 C17.5820451,13.0974697 18.737747,12.7902946 19.965338,12.7902946 C23.947175,12.7902946 27.1750433,16.0181629 27.1750433,20 Z" id="path-1"></path>
    </defs>
    <g id="website" stroke="none" stroke-width="1" fill="none" fill-rule="evenodd">
        <g id="understand" transform="translate(-24.000000, -56.000000)">
            <g id="Solid/eye" transform="translate(24.000000, 49.000000)">
                <mask id="mask-2" fill="white">
                    <use xlink:href="#path-1"></use>
                </mask>
                <g id="Mask"></g>
                <g id="Color/Black" mask="url(#mask-2)" fill="#242A42" fill-rule="evenodd">
                    <rect id="Black" x="0" y="0" width="40" height="40"></rect>
                </g>
            </g>
        </g>
    </g>
</svg>