<?xml version="1.0" encoding="UTF-8"?>
<svg width="268px" height="268px" viewBox="0 0 268 268" version="1.1" xmlns="http://www.w3.org/2000/svg" xmlns:xlink="http://www.w3.org/1999/xlink">
    <title>autonomy</title>
    <defs>
        <rect id="path-1" x="0" y="0" width="80" height="80" rx="4"></rect>
        <path d="M52.5639448,46.4607483 C51.8462343,47.1039432 51.7970761,48.1983344 52.4557966,48.8991288 C53.1145172,49.5999232 54.2353254,49.6479228 54.9530359,49.004728 C58.9053593,45.4623563 61.1764706,40.4319965 61.1764706,35.2000384 C61.1764706,24.880121 52.5737765,16.4705882 41.9949206,16.4705882 C39.1339103,16.4705882 36.3712165,17.0753834 33.8051558,18.2657739 C30.5410478,19.744162 27.778354,22.0865433 25.812024,25.0433197 C23.786704,28.0768954 22.7248857,31.6000672 22.7248857,35.2384381 L22.7248857,37.6384189 L19.3821246,43.878369 C18.6644141,45.2223582 18.6349191,46.623947 19.313303,47.7183383 C19.9818552,48.7935297 21.2206432,49.4175247 22.7248857,49.4463244 L22.7248857,54.0062879 C22.7248857,56.9342645 25.163135,59.3054456 28.1519568,59.3054456 C28.2404416,59.3054456 28.3289265,59.2958456 28.4075797,59.2862457 L31.4062331,58.8542492 L31.4062331,61.8014256 C31.4062331,62.751818 32.2025967,63.5294118 33.1759301,63.5294118 L53.2226654,63.5294118 C54.4909483,63.5294118 55.5331032,62.5214198 55.5331032,61.2734298 L55.5331032,55.00468 C55.5331032,54.0542876 54.7367395,53.2766938 53.7634062,53.2766938 C52.7900728,53.2766938 51.9937091,54.0542876 51.9937091,55.00468 L51.9937091,60.0542396 L34.9357956,60.0542396 L34.9357956,56.8382653 C34.9357956,56.8286654 34.9357956,56.8190654 34.9357956,56.7998656 C34.9357956,56.7710658 34.9357956,56.7422661 34.9357956,56.7038664 C34.9357956,56.6750666 34.9259639,56.6462668 34.9259639,56.6078671 C34.9259639,56.5982672 34.9259639,56.5886673 34.9259639,56.5694674 C34.9259639,56.5598675 34.9161323,56.5406677 34.9161323,56.5310678 C34.9063006,56.502268 34.9063006,56.4638683 34.896469,56.4350685 C34.8866373,56.4158687 34.8866373,56.3870689 34.8768057,56.3678691 C34.866974,56.3390693 34.8571424,56.3102695 34.8473107,56.2718698 C34.8374791,56.2430701 34.8276474,56.2238702 34.8178158,56.1950704 C34.8079841,56.1662707 34.7981525,56.1374709 34.7784892,56.1086711 C34.7686575,56.0798714 34.7588259,56.0606715 34.7391626,56.0318717 C34.7293309,56.003072 34.7096676,55.9838721 34.699836,55.9646723 C34.6801726,55.9358725 34.670341,55.9166727 34.6506777,55.8878729 C34.640846,55.8686731 34.6211827,55.8494732 34.6015194,55.8206734 C34.5818561,55.7918737 34.5621928,55.7726738 34.5425295,55.753474 C34.5228662,55.7342741 34.5130346,55.7150743 34.4933713,55.6958744 C34.473708,55.6766746 34.4540447,55.6478748 34.4343814,55.628675 C34.4147181,55.6094751 34.3950548,55.5902753 34.3753915,55.5710754 C34.3557282,55.5518756 34.3360649,55.5326757 34.3164016,55.5134759 C34.2967383,55.494276 34.2672433,55.4750762 34.24758,55.4558764 C34.2279167,55.4366765 34.2082534,55.4270766 34.1885901,55.4078767 C34.1590952,55.3886769 34.1394319,55.369477 34.1099369,55.3598771 C34.0902736,55.3502772 34.0706103,55.3310774 34.050947,55.3214774 C34.0214521,55.3022776 33.9919571,55.2926777 33.9624622,55.2734778 C33.9427989,55.2638779 33.9231356,55.254278 33.8936406,55.244678 C33.8641457,55.2350781 33.8346507,55.2158783 33.8051558,55.2062783 C33.7854925,55.1966784 33.7559975,55.1870785 33.7363342,55.1774786 C33.7068393,55.1678787 33.6773443,55.1582787 33.6478494,55.1486788 C33.6183544,55.1390789 33.5888595,55.129479 33.5691961,55.129479 C33.5397012,55.119879 33.5102062,55.119879 33.4905429,55.1102791 C33.461048,55.1006792 33.431553,55.1006792 33.3922264,55.1006792 C33.3627315,55.1006792 33.3430682,55.0910793 33.3135732,55.0910793 C33.2840783,55.0910793 33.2447517,55.0910793 33.2152567,55.0814793 C33.2054251,55.0814793 33.1857618,55.0814793 33.1759301,55.0814793 C33.1660985,55.0814793 33.1562668,55.0814793 33.1366035,55.0814793 C33.1071086,55.0814793 33.0776136,55.0814793 33.0481187,55.0814793 C33.0186237,55.0814793 32.9891288,55.0910793 32.9498022,55.0910793 C32.9399705,55.0910793 32.9301389,55.0910793 32.9104756,55.0910793 L28.033977,55.8014736 C27.0409803,55.743874 26.2544482,54.9374805 26.2544482,53.9582883 L26.2544482,47.6703386 C26.2544482,46.7199462 25.4580845,45.9423525 24.4847511,45.9423525 L22.8133706,45.9423525 C22.5577477,45.9423525 22.4102729,45.9039528 22.3414513,45.875153 C22.351283,45.8079535 22.3807779,45.6639547 22.4987578,45.4335565 L26.0479836,38.8192094 C26.1856267,38.5696114 26.2544482,38.3008136 26.2544482,38.0128159 L26.2544482,35.1904385 C26.2544482,29.2768858 29.803674,23.8529292 35.2995666,21.3569491 C35.2995666,21.3569491 35.3093983,21.3569491 35.3093983,21.3473492 C37.4035398,20.377757 39.6549878,19.8881609 41.9949206,19.8881609 C50.617278,19.8881609 57.6370764,26.7425061 57.6370764,35.1616387 C57.6370764,39.4720042 55.7887261,43.5807714 52.5639448,46.4607483 Z" id="path-3"></path>
    </defs>
    <g id="pagebuilder" stroke="none" stroke-width="1" fill="none" fill-rule="evenodd">
        <g id="Desktop-HD-Copy" transform="translate(-588.000000, -1161.000000)">
            <g id="Group-5" transform="translate(201.000000, 1162.000000)">
                <g id="autonomy" transform="translate(388.000000, 0.000000)">
                    <rect id="Rectangle" stroke="#00B5E2" fill-opacity="0.1" fill="#00B5E2" x="0" y="0" width="266" height="266"></rect>
                    <g id="icons/40px/head" transform="translate(93.000000, 53.000000)">
                        <g id="Icon-frame">
                            <mask id="mask-2" fill="white">
                                <use xlink:href="#path-1"></use>
                            </mask>
                            <g id="Rectangle-2"></g>
                        </g>
                        <g id="Icon">
                            <mask id="mask-4" fill="white">
                                <use xlink:href="#path-3"></use>
                            </mask>
                            <use id="icon/head" fill="#222222" fill-rule="nonzero" xlink:href="#path-3"></use>
                            <g id="Group" mask="url(#mask-4)" fill="#006C87">
                                <g id="🎨-ICON-COLOUR">
                                    <polygon id="#FFDB44" points="0 0 154 0 154 154 0 154"></polygon>
                                </g>
                            </g>
                        </g>
                    </g>
                    <path d="M25.042,208.401 C25.6,208.401 26.092,208.326 26.518,208.176 C26.944,208.026 27.304,207.8205 27.598,207.5595 C27.892,207.2985 28.114,206.9895 28.264,206.6325 C28.414,206.2755 28.489,205.887 28.489,205.467 C28.489,205.101 28.4215,204.7875 28.2865,204.5265 C28.1515,204.2655 27.973,204.045 27.751,203.865 C27.529,203.685 27.277,203.535 26.995,203.415 C26.713,203.295 26.4235,203.1855 26.1265,203.0865 C25.8295,202.9875 25.54,202.8945 25.258,202.8075 C24.976,202.7205 24.724,202.62 24.502,202.506 C24.28,202.392 24.1015,202.257 23.9665,202.101 C23.8315,201.945 23.764,201.75 23.764,201.516 C23.764,201.33 23.8045,201.1575 23.8855,200.9985 C23.9665,200.8395 24.0835,200.7 24.2365,200.58 C24.3895,200.46 24.574,200.3655 24.79,200.2965 C25.006,200.2275 25.249,200.193 25.519,200.193 C25.831,200.193 26.101,200.2275 26.329,200.2965 C26.557,200.3655 26.7535,200.4405 26.9185,200.5215 C27.0835,200.6025 27.223,200.676 27.337,200.742 C27.451,200.808 27.553,200.841 27.643,200.841 C27.793,200.841 27.904,200.775 27.976,200.643 L27.976,200.643 L28.336,200.058 C27.988,199.728 27.5755,199.4685 27.0985,199.2795 C26.6215,199.0905 26.083,198.996 25.483,198.996 C24.967,198.996 24.508,199.068 24.106,199.212 C23.704,199.356 23.365,199.5495 23.089,199.7925 C22.813,200.0355 22.603,200.3175 22.459,200.6385 C22.315,200.9595 22.243,201.294 22.243,201.642 C22.243,202.032 22.3105,202.3635 22.4455,202.6365 C22.5805,202.9095 22.759,203.139 22.981,203.325 C23.203,203.511 23.4565,203.6655 23.7415,203.7885 C24.0265,203.9115 24.3175,204.021 24.6145,204.117 C24.9115,204.213 25.2025,204.3045 25.4875,204.3915 C25.7725,204.4785 26.026,204.5805 26.248,204.6975 C26.47,204.8145 26.6485,204.9555 26.7835,205.1205 C26.9185,205.2855 26.986,205.494 26.986,205.746 C26.986,205.95 26.9485,206.142 26.8735,206.322 C26.7985,206.502 26.683,206.661 26.527,206.799 C26.371,206.937 26.176,207.0465 25.942,207.1275 C25.708,207.2085 25.435,207.249 25.123,207.249 C24.757,207.249 24.451,207.207 24.205,207.123 C23.959,207.039 23.7505,206.946 23.5795,206.844 C23.4085,206.742 23.263,206.649 23.143,206.565 C23.023,206.481 22.909,206.439 22.801,206.439 C22.699,206.439 22.615,206.46 22.549,206.502 C22.483,206.544 22.426,206.604 22.378,206.682 L22.378,206.682 L22,207.294 C22.36,207.618 22.798,207.8835 23.314,208.0905 C23.83,208.2975 24.406,208.401 25.042,208.401 Z M34.285,208.383 C34.615,208.383 34.948,208.3545 35.284,208.2975 C35.62,208.2405 35.9455,208.155 36.2605,208.041 C36.5755,207.927 36.871,207.7815 37.147,207.6045 C37.423,207.4275 37.66,207.219 37.858,206.979 L37.858,206.979 L37.408,206.394 C37.336,206.292 37.234,206.241 37.102,206.241 C37,206.241 36.8785,206.2875 36.7375,206.3805 C36.5965,206.4735 36.421,206.574 36.211,206.682 C36.001,206.79 35.7505,206.8905 35.4595,206.9835 C35.1685,207.0765 34.822,207.123 34.42,207.123 C33.988,207.123 33.598,207.0525 33.25,206.9115 C32.902,206.7705 32.602,206.5575 32.35,206.2725 C32.098,205.9875 31.9015,205.632 31.7605,205.206 C31.6195,204.78 31.54,204.279 31.522,203.703 L31.522,203.703 L37.615,203.703 C37.765,203.703 37.867,203.661 37.921,203.577 C37.975,203.493 38.002,203.325 38.002,203.073 C38.002,202.425 37.906,201.8475 37.714,201.3405 C37.522,200.8335 37.2565,200.4075 36.9175,200.0625 C36.5785,199.7175 36.1765,199.4535 35.7115,199.2705 C35.2465,199.0875 34.741,198.996 34.195,198.996 C33.535,198.996 32.941,199.1115 32.413,199.3425 C31.885,199.5735 31.438,199.8915 31.072,200.2965 C30.706,200.7015 30.4255,201.18 30.2305,201.732 C30.0355,202.284 29.938,202.878 29.938,203.514 C29.938,204.3 30.046,204.996 30.262,205.602 C30.478,206.208 30.7795,206.7165 31.1665,207.1275 C31.5535,207.5385 32.0125,207.8505 32.5435,208.0635 C33.0745,208.2765 33.655,208.383 34.285,208.383 Z M36.562,202.704 L31.576,202.704 C31.684,201.912 31.9615,201.2925 32.4085,200.8455 C32.8555,200.3985 33.463,200.175 34.231,200.175 C34.597,200.175 34.924,200.2365 35.212,200.3595 C35.5,200.4825 35.7445,200.6565 35.9455,200.8815 C36.1465,201.1065 36.2995,201.3735 36.4045,201.6825 C36.5095,201.9915 36.562,202.332 36.562,202.704 L36.562,202.704 Z M41.62,208.257 L41.62,195 L40.018,195 L40.018,208.257 L41.62,208.257 Z M46.417,208.257 L46.417,200.481 L48.991,200.481 L48.991,199.32 L46.363,199.32 L46.363,198.483 C46.363,198.093 46.4065,197.766 46.4935,197.502 C46.5805,197.238 46.705,197.025 46.867,196.863 C47.029,196.701 47.2225,196.584 47.4475,196.512 C47.6725,196.44 47.923,196.404 48.199,196.404 C48.445,196.404 48.6415,196.398 48.7885,196.386 C48.9355,196.374 49.015,196.296 49.027,196.152 L49.027,196.152 L49.063,195.351 C48.721,195.231 48.346,195.171 47.938,195.171 C47.458,195.171 47.026,195.243 46.642,195.387 C46.258,195.531 45.9295,195.7425 45.6565,196.0215 C45.3835,196.3005 45.1735,196.6425 45.0265,197.0475 C44.8795,197.4525 44.806,197.916 44.806,198.438 L44.806,198.438 L44.806,199.32 L43.366,199.32 L43.366,199.977 C43.366,200.097 43.4065,200.1885 43.4875,200.2515 C43.5685,200.3145 43.672,200.361 43.798,200.391 L43.798,200.391 L44.806,200.508 L44.806,208.257 L46.417,208.257 Z M54.562,203.541 L54.562,202.182 L50.116,202.182 L50.116,203.541 L54.562,203.541 Z M60.214,211.542 C60.88,211.542 61.4785,211.4565 62.0095,211.2855 C62.5405,211.1145 62.989,210.8865 63.355,210.6015 C63.721,210.3165 64.0015,209.991 64.1965,209.625 C64.3915,209.259 64.489,208.881 64.489,208.491 C64.489,208.071 64.4005,207.729 64.2235,207.465 C64.0465,207.201 63.814,206.994 63.526,206.844 C63.238,206.694 62.9095,206.586 62.5405,206.52 C62.1715,206.454 61.7935,206.4075 61.4065,206.3805 C61.0195,206.3535 60.6415,206.334 60.2725,206.322 C59.9035,206.31 59.575,206.28 59.287,206.232 C58.999,206.184 58.7665,206.1045 58.5895,205.9935 C58.4125,205.8825 58.324,205.719 58.324,205.503 C58.324,205.365 58.375,205.2285 58.477,205.0935 C58.579,204.9585 58.726,204.831 58.918,204.711 C59.296,204.813 59.698,204.864 60.124,204.864 C60.616,204.864 61.072,204.795 61.492,204.657 C61.912,204.519 62.272,204.321 62.572,204.063 C62.872,203.805 63.1075,203.4945 63.2785,203.1315 C63.4495,202.7685 63.535,202.365 63.535,201.921 C63.535,201.441 63.433,201.003 63.229,200.607 L63.229,200.607 L64.264,200.472 C64.516,200.418 64.642,200.292 64.642,200.094 L64.642,200.094 L64.642,199.5 L62.167,199.5 C61.885,199.332 61.573,199.2045 61.231,199.1175 C60.889,199.0305 60.52,198.987 60.124,198.987 C59.62,198.987 59.1565,199.056 58.7335,199.194 C58.3105,199.332 57.946,199.5285 57.64,199.7835 C57.334,200.0385 57.0955,200.3475 56.9245,200.7105 C56.7535,201.0735 56.668,201.477 56.668,201.921 C56.668,202.473 56.794,202.9575 57.046,203.3745 C57.298,203.7915 57.649,204.126 58.099,204.378 C57.907,204.474 57.739,204.585 57.595,204.711 C57.451,204.837 57.3295,204.9705 57.2305,205.1115 C57.1315,205.2525 57.058,205.3935 57.01,205.5345 C56.962,205.6755 56.938,205.812 56.938,205.944 C56.938,206.286 57.0175,206.5575 57.1765,206.7585 C57.3355,206.9595 57.55,207.12 57.82,207.24 C57.328,207.426 56.941,207.675 56.659,207.987 C56.377,208.299 56.236,208.68 56.236,209.13 C56.236,209.448 56.3185,209.7525 56.4835,210.0435 C56.6485,210.3345 56.896,210.591 57.226,210.813 C57.556,211.035 57.97,211.212 58.468,211.344 C58.966,211.476 59.548,211.542 60.214,211.542 Z M60.124,203.802 C59.8,203.802 59.515,203.757 59.269,203.667 C59.023,203.577 58.816,203.451 58.648,203.289 C58.48,203.127 58.3525,202.9335 58.2655,202.7085 C58.1785,202.4835 58.135,202.236 58.135,201.966 C58.135,201.408 58.3045,200.964 58.6435,200.634 C58.9825,200.304 59.476,200.139 60.124,200.139 C60.766,200.139 61.2565,200.304 61.5955,200.634 C61.9345,200.964 62.104,201.408 62.104,201.966 C62.104,202.236 62.062,202.4835 61.978,202.7085 C61.894,202.9335 61.768,203.127 61.6,203.289 C61.432,203.451 61.225,203.577 60.979,203.667 C60.733,203.757 60.448,203.802 60.124,203.802 Z M60.25,210.372 C59.806,210.372 59.4205,210.3345 59.0935,210.2595 C58.7665,210.1845 58.495,210.0825 58.279,209.9535 C58.063,209.8245 57.9025,209.6715 57.7975,209.4945 C57.6925,209.3175 57.64,209.127 57.64,208.923 C57.64,208.605 57.7465,208.3275 57.9595,208.0905 C58.1725,207.8535 58.447,207.657 58.783,207.501 C59.083,207.543 59.395,207.573 59.719,207.591 C60.043,207.609 60.3625,207.627 60.6775,207.645 C60.9925,207.663 61.291,207.6885 61.573,207.7215 C61.855,207.7545 62.1025,207.81 62.3155,207.888 C62.5285,207.966 62.698,208.074 62.824,208.212 C62.95,208.35 63.013,208.53 63.013,208.752 C63.013,208.992 62.95,209.211 62.824,209.409 C62.698,209.607 62.5165,209.778 62.2795,209.922 C62.0425,210.066 61.753,210.177 61.411,210.255 C61.069,210.333 60.682,210.372 60.25,210.372 Z M70.006,208.383 C70.672,208.383 71.272,208.2735 71.806,208.0545 C72.34,207.8355 72.796,207.522 73.174,207.114 C73.552,206.706 73.8415,206.214 74.0425,205.638 C74.2435,205.062 74.344,204.414 74.344,203.694 C74.344,202.98 74.2435,202.3335 74.0425,201.7545 C73.8415,201.1755 73.552,200.682 73.174,200.274 C72.796,199.866 72.34,199.551 71.806,199.329 C71.272,199.107 70.672,198.996 70.006,198.996 C69.334,198.996 68.7295,199.107 68.1925,199.329 C67.6555,199.551 67.198,199.866 66.82,200.274 C66.442,200.682 66.1525,201.1755 65.9515,201.7545 C65.7505,202.3335 65.65,202.98 65.65,203.694 C65.65,204.414 65.7505,205.062 65.9515,205.638 C66.1525,206.214 66.442,206.706 66.82,207.114 C67.198,207.522 67.6555,207.8355 68.1925,208.0545 C68.7295,208.2735 69.334,208.383 70.006,208.383 Z M70.006,207.132 C69.094,207.132 68.4145,206.8305 67.9675,206.2275 C67.5205,205.6245 67.297,204.783 67.297,203.703 C67.297,203.163 67.3525,202.6785 67.4635,202.2495 C67.5745,201.8205 67.7425,201.459 67.9675,201.165 C68.1925,200.871 68.4745,200.646 68.8135,200.49 C69.1525,200.334 69.55,200.256 70.006,200.256 C70.906,200.256 71.578,200.559 72.022,201.165 C72.466,201.771 72.688,202.617 72.688,203.703 C72.688,204.783 72.466,205.6245 72.022,206.2275 C71.578,206.8305 70.906,207.132 70.006,207.132 Z M80.212,208.257 L83.929,199.14 L82.678,199.14 C82.564,199.14 82.465,199.1715 82.381,199.2345 C82.297,199.2975 82.237,199.377 82.201,199.473 L82.201,199.473 L79.861,205.341 C79.783,205.563 79.717,205.779 79.663,205.989 C79.609,206.199 79.558,206.409 79.51,206.619 C79.462,206.409 79.411,206.199 79.357,205.989 C79.303,205.779 79.24,205.563 79.168,205.341 L79.168,205.341 L76.855,199.473 C76.825,199.383 76.768,199.305 76.684,199.239 C76.6,199.173 76.492,199.14 76.36,199.14 L76.36,199.14 L75.055,199.14 L78.772,208.257 L80.212,208.257 Z M88.978,208.383 C89.308,208.383 89.641,208.3545 89.977,208.2975 C90.313,208.2405 90.6385,208.155 90.9535,208.041 C91.2685,207.927 91.564,207.7815 91.84,207.6045 C92.116,207.4275 92.353,207.219 92.551,206.979 L92.551,206.979 L92.101,206.394 C92.029,206.292 91.927,206.241 91.795,206.241 C91.693,206.241 91.5715,206.2875 91.4305,206.3805 C91.2895,206.4735 91.114,206.574 90.904,206.682 C90.694,206.79 90.4435,206.8905 90.1525,206.9835 C89.8615,207.0765 89.515,207.123 89.113,207.123 C88.681,207.123 88.291,207.0525 87.943,206.9115 C87.595,206.7705 87.295,206.5575 87.043,206.2725 C86.791,205.9875 86.5945,205.632 86.4535,205.206 C86.3125,204.78 86.233,204.279 86.215,203.703 L86.215,203.703 L92.308,203.703 C92.458,203.703 92.56,203.661 92.614,203.577 C92.668,203.493 92.695,203.325 92.695,203.073 C92.695,202.425 92.599,201.8475 92.407,201.3405 C92.215,200.8335 91.9495,200.4075 91.6105,200.0625 C91.2715,199.7175 90.8695,199.4535 90.4045,199.2705 C89.9395,199.0875 89.434,198.996 88.888,198.996 C88.228,198.996 87.634,199.1115 87.106,199.3425 C86.578,199.5735 86.131,199.8915 85.765,200.2965 C85.399,200.7015 85.1185,201.18 84.9235,201.732 C84.7285,202.284 84.631,202.878 84.631,203.514 C84.631,204.3 84.739,204.996 84.955,205.602 C85.171,206.208 85.4725,206.7165 85.8595,207.1275 C86.2465,207.5385 86.7055,207.8505 87.2365,208.0635 C87.7675,208.2765 88.348,208.383 88.978,208.383 Z M91.255,202.704 L86.269,202.704 C86.377,201.912 86.6545,201.2925 87.1015,200.8455 C87.5485,200.3985 88.156,200.175 88.924,200.175 C89.29,200.175 89.617,200.2365 89.905,200.3595 C90.193,200.4825 90.4375,200.6565 90.6385,200.8815 C90.8395,201.1065 90.9925,201.3735 91.0975,201.6825 C91.2025,201.9915 91.255,202.332 91.255,202.704 L91.255,202.704 Z M96.268,208.257 L96.268,202.497 C96.382,202.185 96.5095,201.9075 96.6505,201.6645 C96.7915,201.4215 96.9505,201.2175 97.1275,201.0525 C97.3045,200.8875 97.5055,200.763 97.7305,200.679 C97.9555,200.595 98.212,200.553 98.5,200.553 C98.704,200.553 98.887,200.571 99.049,200.607 C99.211,200.643 99.334,200.661 99.418,200.661 C99.562,200.661 99.652,200.586 99.688,200.436 L99.688,200.436 L99.805,199.239 C99.667,199.149 99.5095,199.083 99.3325,199.041 C99.1555,198.999 98.971,198.978 98.779,198.978 C98.173,198.978 97.66,199.1535 97.24,199.5045 C96.82,199.8555 96.466,200.343 96.178,200.967 L96.178,200.967 L96.07,199.581 C96.046,199.419 96.001,199.305 95.935,199.239 C95.869,199.173 95.749,199.14 95.575,199.14 L95.575,199.14 L94.657,199.14 L94.657,208.257 L96.268,208.257 Z M102.82,208.257 L102.82,201.543 C103.168,201.153 103.5475,200.844 103.9585,200.616 C104.3695,200.388 104.812,200.274 105.286,200.274 C105.928,200.274 106.4065,200.4645 106.7215,200.8455 C107.0365,201.2265 107.194,201.762 107.194,202.452 L107.194,202.452 L107.194,208.257 L108.805,208.257 L108.805,202.452 C108.805,201.936 108.739,201.465 108.607,201.039 C108.475,200.613 108.2815,200.2485 108.0265,199.9455 C107.7715,199.6425 107.4535,199.4085 107.0725,199.2435 C106.6915,199.0785 106.252,198.996 105.754,198.996 C105.43,198.996 105.1285,199.0305 104.8495,199.0995 C104.5705,199.1685 104.3065,199.2675 104.0575,199.3965 C103.8085,199.5255 103.573,199.68 103.351,199.86 C103.129,200.04 102.919,200.241 102.721,200.463 L102.721,200.463 L102.595,199.473 C102.541,199.251 102.4,199.14 102.172,199.14 L102.172,199.14 L101.209,199.14 L101.209,208.257 L102.82,208.257 Z M112.864,208.257 L112.864,201.462 C113.146,201.096 113.455,200.8065 113.791,200.5935 C114.127,200.3805 114.493,200.274 114.889,200.274 C115.453,200.274 115.882,200.454 116.176,200.814 C116.47,201.174 116.617,201.72 116.617,202.452 L116.617,202.452 L116.617,208.257 L118.228,208.257 L118.228,202.452 C118.228,202.092 118.2805,201.7755 118.3855,201.5025 C118.4905,201.2295 118.633,201.003 118.813,200.823 C118.993,200.643 119.2015,200.5065 119.4385,200.4135 C119.6755,200.3205 119.926,200.274 120.19,200.274 C120.778,200.274 121.228,200.4585 121.54,200.8275 C121.852,201.1965 122.008,201.738 122.008,202.452 L122.008,202.452 L122.008,208.257 L123.619,208.257 L123.619,202.452 C123.619,201.9 123.55,201.4095 123.412,200.9805 C123.274,200.5515 123.0745,200.19 122.8135,199.896 C122.5525,199.602 122.2345,199.3785 121.8595,199.2255 C121.4845,199.0725 121.057,198.996 120.577,198.996 C120.277,198.996 119.9815,199.032 119.6905,199.104 C119.3995,199.176 119.125,199.29 118.867,199.446 C118.609,199.602 118.3765,199.8 118.1695,200.04 C117.9625,200.28 117.793,200.565 117.661,200.895 C117.493,200.313 117.2185,199.851 116.8375,199.509 C116.4565,199.167 115.96,198.996 115.348,198.996 C114.796,198.996 114.31,199.128 113.89,199.392 C113.47,199.656 113.092,199.995 112.756,200.409 L112.756,200.409 L112.639,199.473 C112.585,199.251 112.444,199.14 112.216,199.14 L112.216,199.14 L111.253,199.14 L111.253,208.257 L112.864,208.257 Z M129.883,208.383 C130.213,208.383 130.546,208.3545 130.882,208.2975 C131.218,208.2405 131.5435,208.155 131.8585,208.041 C132.1735,207.927 132.469,207.7815 132.745,207.6045 C133.021,207.4275 133.258,207.219 133.456,206.979 L133.456,206.979 L133.006,206.394 C132.934,206.292 132.832,206.241 132.7,206.241 C132.598,206.241 132.4765,206.2875 132.3355,206.3805 C132.1945,206.4735 132.019,206.574 131.809,206.682 C131.599,206.79 131.3485,206.8905 131.0575,206.9835 C130.7665,207.0765 130.42,207.123 130.018,207.123 C129.586,207.123 129.196,207.0525 128.848,206.9115 C128.5,206.7705 128.2,206.5575 127.948,206.2725 C127.696,205.9875 127.4995,205.632 127.3585,205.206 C127.2175,204.78 127.138,204.279 127.12,203.703 L127.12,203.703 L133.213,203.703 C133.363,203.703 133.465,203.661 133.519,203.577 C133.573,203.493 133.6,203.325 133.6,203.073 C133.6,202.425 133.504,201.8475 133.312,201.3405 C133.12,200.8335 132.8545,200.4075 132.5155,200.0625 C132.1765,199.7175 131.7745,199.4535 131.3095,199.2705 C130.8445,199.0875 130.339,198.996 129.793,198.996 C129.133,198.996 128.539,199.1115 128.011,199.3425 C127.483,199.5735 127.036,199.8915 126.67,200.2965 C126.304,200.7015 126.0235,201.18 125.8285,201.732 C125.6335,202.284 125.536,202.878 125.536,203.514 C125.536,204.3 125.644,204.996 125.86,205.602 C126.076,206.208 126.3775,206.7165 126.7645,207.1275 C127.1515,207.5385 127.6105,207.8505 128.1415,208.0635 C128.6725,208.2765 129.253,208.383 129.883,208.383 Z M132.16,202.704 L127.174,202.704 C127.282,201.912 127.5595,201.2925 128.0065,200.8455 C128.4535,200.3985 129.061,200.175 129.829,200.175 C130.195,200.175 130.522,200.2365 130.81,200.3595 C131.098,200.4825 131.3425,200.6565 131.5435,200.8815 C131.7445,201.1065 131.8975,201.3735 132.0025,201.6825 C132.1075,201.9915 132.16,202.332 132.16,202.704 L132.16,202.704 Z M137.173,208.257 L137.173,201.543 C137.521,201.153 137.9005,200.844 138.3115,200.616 C138.7225,200.388 139.165,200.274 139.639,200.274 C140.281,200.274 140.7595,200.4645 141.0745,200.8455 C141.3895,201.2265 141.547,201.762 141.547,202.452 L141.547,202.452 L141.547,208.257 L143.158,208.257 L143.158,202.452 C143.158,201.936 143.092,201.465 142.96,201.039 C142.828,200.613 142.6345,200.2485 142.3795,199.9455 C142.1245,199.6425 141.8065,199.4085 141.4255,199.2435 C141.0445,199.0785 140.605,198.996 140.107,198.996 C139.783,198.996 139.4815,199.0305 139.2025,199.0995 C138.9235,199.1685 138.6595,199.2675 138.4105,199.3965 C138.1615,199.5255 137.926,199.68 137.704,199.86 C137.482,200.04 137.272,200.241 137.074,200.463 L137.074,200.463 L136.948,199.473 C136.894,199.251 136.753,199.14 136.525,199.14 L136.525,199.14 L135.562,199.14 L135.562,208.257 L137.173,208.257 Z M148.279,208.401 C148.693,208.401 149.095,208.3275 149.485,208.1805 C149.875,208.0335 150.208,207.831 150.484,207.573 L150.484,207.573 L150.016,206.808 C149.95,206.706 149.875,206.655 149.791,206.655 C149.743,206.655 149.6875,206.6775 149.6245,206.7225 C149.5615,206.7675 149.485,206.817 149.395,206.871 C149.305,206.925 149.1985,206.9745 149.0755,207.0195 C148.9525,207.0645 148.807,207.087 148.639,207.087 C148.345,207.087 148.105,206.994 147.919,206.808 C147.733,206.622 147.64,206.337 147.64,205.953 L147.64,205.953 L147.64,200.481 L150.277,200.481 L150.277,199.32 L147.64,199.32 L147.64,196.179 L146.83,196.179 C146.728,196.179 146.6455,196.2075 146.5825,196.2645 C146.5195,196.3215 146.479,196.395 146.461,196.485 L146.461,196.485 L146.092,199.302 L144.598,199.491 L144.598,200.13 C144.598,200.25 144.631,200.3385 144.697,200.3955 C144.763,200.4525 144.844,200.481 144.94,200.481 L144.94,200.481 L146.038,200.481 L146.038,206.061 C146.038,206.817 146.2315,207.396 146.6185,207.798 C147.0055,208.2 147.559,208.401 148.279,208.401 Z M158.422,208.401 C158.77,208.401 159.0865,208.3695 159.3715,208.3065 C159.6565,208.2435 159.925,208.1535 160.177,208.0365 C160.429,207.9195 160.669,207.7755 160.897,207.6045 C161.125,207.4335 161.359,207.237 161.599,207.015 L161.599,207.015 L161.779,207.879 C161.827,208.029 161.893,208.1295 161.977,208.1805 C162.061,208.2315 162.181,208.257 162.337,208.257 L162.337,208.257 L163.048,208.257 L163.048,202.425 C163.048,201.915 162.979,201.447 162.841,201.021 C162.703,200.595 162.499,200.232 162.229,199.932 C161.959,199.632 161.626,199.398 161.23,199.23 C160.834,199.062 160.381,198.978 159.871,198.978 C159.163,198.978 158.518,199.098 157.936,199.338 C157.354,199.578 156.811,199.941 156.307,200.427 L156.307,200.427 L156.595,200.94 C156.649,201.024 156.715,201.0945 156.793,201.1515 C156.871,201.2085 156.964,201.237 157.072,201.237 C157.21,201.237 157.3495,201.1875 157.4905,201.0885 C157.6315,200.9895 157.7995,200.8785 157.9945,200.7555 C158.1895,200.6325 158.4205,200.5215 158.6875,200.4225 C158.9545,200.3235 159.286,200.274 159.682,200.274 C160.27,200.274 160.717,200.4555 161.023,200.8185 C161.329,201.1815 161.482,201.717 161.482,202.425 L161.482,202.425 L161.482,203.136 C160.444,203.16 159.568,203.2545 158.854,203.4195 C158.14,203.5845 157.561,203.796 157.117,204.054 C156.673,204.312 156.352,204.6075 156.154,204.9405 C155.956,205.2735 155.857,205.62 155.857,205.98 C155.857,206.394 155.9245,206.7525 156.0595,207.0555 C156.1945,207.3585 156.3775,207.609 156.6085,207.807 C156.8395,208.005 157.111,208.1535 157.423,208.2525 C157.735,208.3515 158.068,208.401 158.422,208.401 Z M158.899,207.276 C158.689,207.276 158.4925,207.2505 158.3095,207.1995 C158.1265,207.1485 157.9675,207.0675 157.8325,206.9565 C157.6975,206.8455 157.591,206.703 157.513,206.529 C157.435,206.355 157.396,206.148 157.396,205.908 C157.396,205.656 157.4695,205.428 157.6165,205.224 C157.7635,205.02 158.0005,204.843 158.3275,204.693 C158.6545,204.543 159.0775,204.4215 159.5965,204.3285 C160.1155,204.2355 160.744,204.177 161.482,204.153 L161.482,204.153 L161.482,206.043 C161.302,206.235 161.1175,206.406 160.9285,206.556 C160.7395,206.706 160.5415,206.835 160.3345,206.943 C160.1275,207.051 159.907,207.1335 159.673,207.1905 C159.439,207.2475 159.181,207.276 158.899,207.276 Z M167.098,208.257 L167.098,201.543 C167.446,201.153 167.8255,200.844 168.2365,200.616 C168.6475,200.388 169.09,200.274 169.564,200.274 C170.206,200.274 170.6845,200.4645 170.9995,200.8455 C171.3145,201.2265 171.472,201.762 171.472,202.452 L171.472,202.452 L171.472,208.257 L173.083,208.257 L173.083,202.452 C173.083,201.936 173.017,201.465 172.885,201.039 C172.753,200.613 172.5595,200.2485 172.3045,199.9455 C172.0495,199.6425 171.7315,199.4085 171.3505,199.2435 C170.9695,199.0785 170.53,198.996 170.032,198.996 C169.708,198.996 169.4065,199.0305 169.1275,199.0995 C168.8485,199.1685 168.5845,199.2675 168.3355,199.3965 C168.0865,199.5255 167.851,199.68 167.629,199.86 C167.407,200.04 167.197,200.241 166.999,200.463 L166.999,200.463 L166.873,199.473 C166.819,199.251 166.678,199.14 166.45,199.14 L166.45,199.14 L165.487,199.14 L165.487,208.257 L167.098,208.257 Z M178.483,208.383 C179.137,208.383 179.713,208.239 180.211,207.951 C180.709,207.663 181.153,207.285 181.543,206.817 L181.543,206.817 L181.687,207.924 C181.747,208.146 181.891,208.257 182.119,208.257 L182.119,208.257 L183.073,208.257 L183.073,195 L181.471,195 L181.471,200.049 C181.159,199.713 180.8035,199.4505 180.4045,199.2615 C180.0055,199.0725 179.527,198.978 178.969,198.978 C178.357,198.978 177.8065,199.0995 177.3175,199.3425 C176.8285,199.5855 176.416,199.92 176.08,200.346 C175.744,200.772 175.486,201.2745 175.306,201.8535 C175.126,202.4325 175.036,203.058 175.036,203.73 C175.036,204.486 175.117,205.155 175.279,205.737 C175.441,206.319 175.672,206.805 175.972,207.195 C176.272,207.585 176.635,207.8805 177.061,208.0815 C177.487,208.2825 177.961,208.383 178.483,208.383 Z M179.005,207.087 C178.639,207.087 178.312,207.024 178.024,206.898 C177.736,206.772 177.493,206.5725 177.295,206.2995 C177.097,206.0265 176.947,205.6785 176.845,205.2555 C176.743,204.8325 176.692,204.324 176.692,203.73 C176.692,202.608 176.92,201.744 177.376,201.138 C177.832,200.532 178.483,200.229 179.329,200.229 C179.761,200.229 180.151,200.3085 180.499,200.4675 C180.847,200.6265 181.171,200.907 181.471,201.309 L181.471,201.309 L181.471,205.71 C181.141,206.148 180.7795,206.487 180.3865,206.727 C179.9935,206.967 179.533,207.087 179.005,207.087 Z M191.83,211.344 L191.83,207.312 C192.136,207.648 192.4885,207.9105 192.8875,208.0995 C193.2865,208.2885 193.765,208.383 194.323,208.383 C194.935,208.383 195.4855,208.2615 195.9745,208.0185 C196.4635,207.7755 196.8775,207.4425 197.2165,207.0195 C197.5555,206.5965 197.815,206.0955 197.995,205.5165 C198.175,204.9375 198.265,204.312 198.265,203.64 C198.265,202.884 198.184,202.215 198.022,201.633 C197.86,201.051 197.629,200.5635 197.329,200.1705 C197.029,199.7775 196.666,199.4805 196.24,199.2795 C195.814,199.0785 195.337,198.978 194.809,198.978 C194.161,198.978 193.585,199.122 193.081,199.41 C192.577,199.698 192.133,200.079 191.749,200.553 L191.749,200.553 L191.605,199.473 C191.551,199.251 191.41,199.14 191.182,199.14 L191.182,199.14 L190.219,199.14 L190.219,211.344 L191.83,211.344 Z M193.963,207.141 C193.531,207.141 193.141,207.06 192.793,206.898 C192.445,206.736 192.124,206.457 191.83,206.061 L191.83,206.061 L191.83,201.651 C192.16,201.213 192.5215,200.874 192.9145,200.634 C193.3075,200.394 193.765,200.274 194.287,200.274 C194.653,200.274 194.98,200.337 195.268,200.463 C195.556,200.589 195.799,200.7885 195.997,201.0615 C196.195,201.3345 196.3465,201.684 196.4515,202.11 C196.5565,202.536 196.609,203.046 196.609,203.64 C196.609,204.762 196.381,205.626 195.925,206.232 C195.469,206.838 194.815,207.141 193.963,207.141 Z M203.269,208.401 C203.905,208.401 204.469,208.2675 204.961,208.0005 C205.453,207.7335 205.897,207.381 206.293,206.943 L206.293,206.943 L206.419,207.924 C206.479,208.146 206.623,208.257 206.851,208.257 L206.851,208.257 L207.805,208.257 L207.805,199.14 L206.203,199.14 L206.203,205.854 C205.855,206.25 205.4755,206.5605 205.0645,206.7855 C204.6535,207.0105 204.211,207.123 203.737,207.123 C203.089,207.123 202.6075,206.934 202.2925,206.556 C201.9775,206.178 201.82,205.644 201.82,204.954 L201.82,204.954 L201.82,199.14 L200.218,199.14 L200.218,204.954 C200.218,205.47 200.2825,205.941 200.4115,206.367 C200.5405,206.793 200.734,207.156 200.992,207.456 C201.25,207.756 201.5695,207.9885 201.9505,208.1535 C202.3315,208.3185 202.771,208.401 203.269,208.401 Z M214.465,208.383 C215.071,208.383 215.617,208.2645 216.103,208.0275 C216.589,207.7905 217.0015,207.4575 217.3405,207.0285 C217.6795,206.5995 217.939,206.082 218.119,205.476 C218.299,204.87 218.389,204.198 218.389,203.46 C218.389,202.77 218.3095,202.149 218.1505,201.597 C217.9915,201.045 217.762,200.5755 217.462,200.1885 C217.162,199.8015 216.7975,199.506 216.3685,199.302 C215.9395,199.098 215.458,198.996 214.924,198.996 C214.294,198.996 213.7375,199.128 213.2545,199.392 C212.7715,199.656 212.338,200.01 211.954,200.454 L211.954,200.454 L211.954,195 L210.343,195 L210.343,208.257 L211.378,208.257 C211.606,208.257 211.744,208.143 211.792,207.915 L211.792,207.915 L211.873,207.087 C212.179,207.501 212.5375,207.8205 212.9485,208.0455 C213.3595,208.2705 213.865,208.383 214.465,208.383 Z M214.078,207.141 C213.658,207.141 213.2725,207.06 212.9215,206.898 C212.5705,206.736 212.248,206.457 211.954,206.061 L211.954,206.061 L211.954,201.651 C212.284,201.213 212.6425,200.874 213.0295,200.634 C213.4165,200.394 213.871,200.274 214.393,200.274 C215.143,200.274 215.7205,200.5365 216.1255,201.0615 C216.5305,201.5865 216.733,202.407 216.733,203.523 C216.733,204.723 216.505,205.626 216.049,206.232 C215.593,206.838 214.936,207.141 214.078,207.141 Z M222.079,208.257 L222.079,195 L220.477,195 L220.477,208.257 L222.079,208.257 Z M225.544,197.412 C225.7,197.412 225.8485,197.382 225.9895,197.322 C226.1305,197.262 226.2535,197.1795 226.3585,197.0745 C226.4635,196.9695 226.5475,196.8495 226.6105,196.7145 C226.6735,196.5795 226.705,196.434 226.705,196.278 C226.705,196.122 226.6735,195.9735 226.6105,195.8325 C226.5475,195.6915 226.4635,195.5685 226.3585,195.4635 C226.2535,195.3585 226.1305,195.276 225.9895,195.216 C225.8485,195.156 225.7,195.126 225.544,195.126 C225.388,195.126 225.2425,195.156 225.1075,195.216 C224.9725,195.276 224.854,195.3585 224.752,195.4635 C224.65,195.5685 224.569,195.6915 224.509,195.8325 C224.449,195.9735 224.419,196.122 224.419,196.278 C224.419,196.434 224.449,196.5795 224.509,196.7145 C224.569,196.8495 224.65,196.9695 224.752,197.0745 C224.854,197.1795 224.9725,197.262 225.1075,197.322 C225.2425,197.382 225.388,197.412 225.544,197.412 Z M226.363,208.257 L226.363,199.14 L224.761,199.14 L224.761,208.257 L226.363,208.257 Z M231.367,208.401 C231.925,208.401 232.417,208.326 232.843,208.176 C233.269,208.026 233.629,207.8205 233.923,207.5595 C234.217,207.2985 234.439,206.9895 234.589,206.6325 C234.739,206.2755 234.814,205.887 234.814,205.467 C234.814,205.101 234.7465,204.7875 234.6115,204.5265 C234.4765,204.2655 234.298,204.045 234.076,203.865 C233.854,203.685 233.602,203.535 233.32,203.415 C233.038,203.295 232.7485,203.1855 232.4515,203.0865 C232.1545,202.9875 231.865,202.8945 231.583,202.8075 C231.301,202.7205 231.049,202.62 230.827,202.506 C230.605,202.392 230.4265,202.257 230.2915,202.101 C230.1565,201.945 230.089,201.75 230.089,201.516 C230.089,201.33 230.1295,201.1575 230.2105,200.9985 C230.2915,200.8395 230.4085,200.7 230.5615,200.58 C230.7145,200.46 230.899,200.3655 231.115,200.2965 C231.331,200.2275 231.574,200.193 231.844,200.193 C232.156,200.193 232.426,200.2275 232.654,200.2965 C232.882,200.3655 233.0785,200.4405 233.2435,200.5215 C233.4085,200.6025 233.548,200.676 233.662,200.742 C233.776,200.808 233.878,200.841 233.968,200.841 C234.118,200.841 234.229,200.775 234.301,200.643 L234.301,200.643 L234.661,200.058 C234.313,199.728 233.9005,199.4685 233.4235,199.2795 C232.9465,199.0905 232.408,198.996 231.808,198.996 C231.292,198.996 230.833,199.068 230.431,199.212 C230.029,199.356 229.69,199.5495 229.414,199.7925 C229.138,200.0355 228.928,200.3175 228.784,200.6385 C228.64,200.9595 228.568,201.294 228.568,201.642 C228.568,202.032 228.6355,202.3635 228.7705,202.6365 C228.9055,202.9095 229.084,203.139 229.306,203.325 C229.528,203.511 229.7815,203.6655 230.0665,203.7885 C230.3515,203.9115 230.6425,204.021 230.9395,204.117 C231.2365,204.213 231.5275,204.3045 231.8125,204.3915 C232.0975,204.4785 232.351,204.5805 232.573,204.6975 C232.795,204.8145 232.9735,204.9555 233.1085,205.1205 C233.2435,205.2855 233.311,205.494 233.311,205.746 C233.311,205.95 233.2735,206.142 233.1985,206.322 C233.1235,206.502 233.008,206.661 232.852,206.799 C232.696,206.937 232.501,207.0465 232.267,207.1275 C232.033,207.2085 231.76,207.249 231.448,207.249 C231.082,207.249 230.776,207.207 230.53,207.123 C230.284,207.039 230.0755,206.946 229.9045,206.844 C229.7335,206.742 229.588,206.649 229.468,206.565 C229.348,206.481 229.234,206.439 229.126,206.439 C229.024,206.439 228.94,206.46 228.874,206.502 C228.808,206.544 228.751,206.604 228.703,206.682 L228.703,206.682 L228.325,207.294 C228.685,207.618 229.123,207.8835 229.639,208.0905 C230.155,208.2975 230.731,208.401 231.367,208.401 Z M238.396,208.257 L238.396,201.543 C238.744,201.153 239.1235,200.844 239.5345,200.616 C239.9455,200.388 240.388,200.274 240.862,200.274 C241.504,200.274 241.9825,200.4645 242.2975,200.8455 C242.6125,201.2265 242.77,201.762 242.77,202.452 L242.77,202.452 L242.77,208.257 L244.381,208.257 L244.381,202.452 C244.381,201.936 244.315,201.465 244.183,201.039 C244.051,200.613 243.8575,200.2485 243.6025,199.9455 C243.3475,199.6425 243.0295,199.4085 242.6485,199.2435 C242.2675,199.0785 241.828,198.996 241.33,198.996 C240.712,198.996 240.166,199.119 239.692,199.365 C239.218,199.611 238.786,199.941 238.396,200.355 L238.396,200.355 L238.396,195 L236.785,195 L236.785,208.257 L238.396,208.257 Z M56.3305,230.383 C56.6605,230.383 56.9845,230.356 57.3025,230.302 C57.6205,230.248 57.925,230.1625 58.216,230.0455 C58.507,229.9285 58.7785,229.783 59.0305,229.609 C59.2825,229.435 59.5075,229.225 59.7055,228.979 L59.7055,228.979 L59.2555,228.394 C59.1835,228.292 59.0815,228.241 58.9495,228.241 C58.8415,228.241 58.732,228.2875 58.621,228.3805 C58.51,228.4735 58.372,228.577 58.207,228.691 C58.042,228.805 57.8335,228.9085 57.5815,229.0015 C57.3295,229.0945 57.0085,229.141 56.6185,229.141 C56.2105,229.141 55.843,229.0645 55.516,228.9115 C55.189,228.7585 54.91,228.5365 54.679,228.2455 C54.448,227.9545 54.2695,227.5945 54.1435,227.1655 C54.0175,226.7365 53.9545,226.246 53.9545,225.694 C53.9545,225.166 54.013,224.689 54.13,224.263 C54.247,223.837 54.421,223.474 54.652,223.174 C54.883,222.874 55.1695,222.6445 55.5115,222.4855 C55.8535,222.3265 56.2495,222.247 56.6995,222.247 C57.0355,222.247 57.319,222.2845 57.55,222.3595 C57.781,222.4345 57.976,222.517 58.135,222.607 C58.294,222.697 58.4275,222.7795 58.5355,222.8545 C58.6435,222.9295 58.7425,222.967 58.8325,222.967 C58.9165,222.967 58.9825,222.949 59.0305,222.913 C59.0785,222.877 59.1265,222.826 59.1745,222.76 L59.1745,222.76 L59.5975,222.184 C59.2195,221.806 58.786,221.5135 58.297,221.3065 C57.808,221.0995 57.2425,220.996 56.6005,220.996 C55.9105,220.996 55.3,221.113 54.769,221.347 C54.238,221.581 53.791,221.9065 53.428,222.3235 C53.065,222.7405 52.789,223.237 52.6,223.813 C52.411,224.389 52.3165,225.016 52.3165,225.694 C52.3165,226.438 52.4185,227.101 52.6225,227.683 C52.8265,228.265 53.1085,228.7555 53.4685,229.1545 C53.8285,229.5535 54.253,229.858 54.742,230.068 C55.231,230.278 55.7605,230.383 56.3305,230.383 Z M65.1055,230.383 C65.7715,230.383 66.3715,230.2735 66.9055,230.0545 C67.4395,229.8355 67.8955,229.522 68.2735,229.114 C68.6515,228.706 68.941,228.214 69.142,227.638 C69.343,227.062 69.4435,226.414 69.4435,225.694 C69.4435,224.98 69.343,224.3335 69.142,223.7545 C68.941,223.1755 68.6515,222.682 68.2735,222.274 C67.8955,221.866 67.4395,221.551 66.9055,221.329 C66.3715,221.107 65.7715,220.996 65.1055,220.996 C64.4335,220.996 63.829,221.107 63.292,221.329 C62.755,221.551 62.2975,221.866 61.9195,222.274 C61.5415,222.682 61.252,223.1755 61.051,223.7545 C60.85,224.3335 60.7495,224.98 60.7495,225.694 C60.7495,226.414 60.85,227.062 61.051,227.638 C61.252,228.214 61.5415,228.706 61.9195,229.114 C62.2975,229.522 62.755,229.8355 63.292,230.0545 C63.829,230.2735 64.4335,230.383 65.1055,230.383 Z M65.1055,229.132 C64.1935,229.132 63.514,228.8305 63.067,228.2275 C62.62,227.6245 62.3965,226.783 62.3965,225.703 C62.3965,225.163 62.452,224.6785 62.563,224.2495 C62.674,223.8205 62.842,223.459 63.067,223.165 C63.292,222.871 63.574,222.646 63.913,222.49 C64.252,222.334 64.6495,222.256 65.1055,222.256 C66.0055,222.256 66.6775,222.559 67.1215,223.165 C67.5655,223.771 67.7875,224.617 67.7875,225.703 C67.7875,226.783 67.5655,227.6245 67.1215,228.2275 C66.6775,228.8305 66.0055,229.132 65.1055,229.132 Z M73.0795,230.257 L73.0795,223.543 C73.4275,223.153 73.807,222.844 74.218,222.616 C74.629,222.388 75.0715,222.274 75.5455,222.274 C76.1875,222.274 76.666,222.4645 76.981,222.8455 C77.296,223.2265 77.4535,223.762 77.4535,224.452 L77.4535,224.452 L77.4535,230.257 L79.0645,230.257 L79.0645,224.452 C79.0645,223.936 78.9985,223.465 78.8665,223.039 C78.7345,222.613 78.541,222.2485 78.286,221.9455 C78.031,221.6425 77.713,221.4085 77.332,221.2435 C76.951,221.0785 76.5115,220.996 76.0135,220.996 C75.6895,220.996 75.388,221.0305 75.109,221.0995 C74.83,221.1685 74.566,221.2675 74.317,221.3965 C74.068,221.5255 73.8325,221.68 73.6105,221.86 C73.3885,222.04 73.1785,222.241 72.9805,222.463 L72.9805,222.463 L72.8545,221.473 C72.8005,221.251 72.6595,221.14 72.4315,221.14 L72.4315,221.14 L71.4685,221.14 L71.4685,230.257 L73.0795,230.257 Z M84.1855,230.401 C84.5995,230.401 85.0015,230.3275 85.3915,230.1805 C85.7815,230.0335 86.1145,229.831 86.3905,229.573 L86.3905,229.573 L85.9225,228.808 C85.8565,228.706 85.7815,228.655 85.6975,228.655 C85.6495,228.655 85.594,228.6775 85.531,228.7225 C85.468,228.7675 85.3915,228.817 85.3015,228.871 C85.2115,228.925 85.105,228.9745 84.982,229.0195 C84.859,229.0645 84.7135,229.087 84.5455,229.087 C84.2515,229.087 84.0115,228.994 83.8255,228.808 C83.6395,228.622 83.5465,228.337 83.5465,227.953 L83.5465,227.953 L83.5465,222.481 L86.1835,222.481 L86.1835,221.32 L83.5465,221.32 L83.5465,218.179 L82.7365,218.179 C82.6345,218.179 82.552,218.2075 82.489,218.2645 C82.426,218.3215 82.3855,218.395 82.3675,218.485 L82.3675,218.485 L81.9985,221.302 L80.5045,221.491 L80.5045,222.13 C80.5045,222.25 80.5375,222.3385 80.6035,222.3955 C80.6695,222.4525 80.7505,222.481 80.8465,222.481 L80.8465,222.481 L81.9445,222.481 L81.9445,228.061 C81.9445,228.817 82.138,229.396 82.525,229.798 C82.912,230.2 83.4655,230.401 84.1855,230.401 Z M91.6195,230.383 C91.9495,230.383 92.2825,230.3545 92.6185,230.2975 C92.9545,230.2405 93.28,230.155 93.595,230.041 C93.91,229.927 94.2055,229.7815 94.4815,229.6045 C94.7575,229.4275 94.9945,229.219 95.1925,228.979 L95.1925,228.979 L94.7425,228.394 C94.6705,228.292 94.5685,228.241 94.4365,228.241 C94.3345,228.241 94.213,228.2875 94.072,228.3805 C93.931,228.4735 93.7555,228.574 93.5455,228.682 C93.3355,228.79 93.085,228.8905 92.794,228.9835 C92.503,229.0765 92.1565,229.123 91.7545,229.123 C91.3225,229.123 90.9325,229.0525 90.5845,228.9115 C90.2365,228.7705 89.9365,228.5575 89.6845,228.2725 C89.4325,227.9875 89.236,227.632 89.095,227.206 C88.954,226.78 88.8745,226.279 88.8565,225.703 L88.8565,225.703 L94.9495,225.703 C95.0995,225.703 95.2015,225.661 95.2555,225.577 C95.3095,225.493 95.3365,225.325 95.3365,225.073 C95.3365,224.425 95.2405,223.8475 95.0485,223.3405 C94.8565,222.8335 94.591,222.4075 94.252,222.0625 C93.913,221.7175 93.511,221.4535 93.046,221.2705 C92.581,221.0875 92.0755,220.996 91.5295,220.996 C90.8695,220.996 90.2755,221.1115 89.7475,221.3425 C89.2195,221.5735 88.7725,221.8915 88.4065,222.2965 C88.0405,222.7015 87.76,223.18 87.565,223.732 C87.37,224.284 87.2725,224.878 87.2725,225.514 C87.2725,226.3 87.3805,226.996 87.5965,227.602 C87.8125,228.208 88.114,228.7165 88.501,229.1275 C88.888,229.5385 89.347,229.8505 89.878,230.0635 C90.409,230.2765 90.9895,230.383 91.6195,230.383 Z M93.8965,224.704 L88.9105,224.704 C89.0185,223.912 89.296,223.2925 89.743,222.8455 C90.19,222.3985 90.7975,222.175 91.5655,222.175 C91.9315,222.175 92.2585,222.2365 92.5465,222.3595 C92.8345,222.4825 93.079,222.6565 93.28,222.8815 C93.481,223.1065 93.634,223.3735 93.739,223.6825 C93.844,223.9915 93.8965,224.332 93.8965,224.704 L93.8965,224.704 Z M98.9095,230.257 L98.9095,223.543 C99.2575,223.153 99.637,222.844 100.048,222.616 C100.459,222.388 100.9015,222.274 101.3755,222.274 C102.0175,222.274 102.496,222.4645 102.811,222.8455 C103.126,223.2265 103.2835,223.762 103.2835,224.452 L103.2835,224.452 L103.2835,230.257 L104.8945,230.257 L104.8945,224.452 C104.8945,223.936 104.8285,223.465 104.6965,223.039 C104.5645,222.613 104.371,222.2485 104.116,221.9455 C103.861,221.6425 103.543,221.4085 103.162,221.2435 C102.781,221.0785 102.3415,220.996 101.8435,220.996 C101.5195,220.996 101.218,221.0305 100.939,221.0995 C100.66,221.1685 100.396,221.2675 100.147,221.3965 C99.898,221.5255 99.6625,221.68 99.4405,221.86 C99.2185,222.04 99.0085,222.241 98.8105,222.463 L98.8105,222.463 L98.6845,221.473 C98.6305,221.251 98.4895,221.14 98.2615,221.14 L98.2615,221.14 L97.2985,221.14 L97.2985,230.257 L98.9095,230.257 Z M110.0155,230.401 C110.4295,230.401 110.8315,230.3275 111.2215,230.1805 C111.6115,230.0335 111.9445,229.831 112.2205,229.573 L112.2205,229.573 L111.7525,228.808 C111.6865,228.706 111.6115,228.655 111.5275,228.655 C111.4795,228.655 111.424,228.6775 111.361,228.7225 C111.298,228.7675 111.2215,228.817 111.1315,228.871 C111.0415,228.925 110.935,228.9745 110.812,229.0195 C110.689,229.0645 110.5435,229.087 110.3755,229.087 C110.0815,229.087 109.8415,228.994 109.6555,228.808 C109.4695,228.622 109.3765,228.337 109.3765,227.953 L109.3765,227.953 L109.3765,222.481 L112.0135,222.481 L112.0135,221.32 L109.3765,221.32 L109.3765,218.179 L108.5665,218.179 C108.4645,218.179 108.382,218.2075 108.319,218.2645 C108.256,218.3215 108.2155,218.395 108.1975,218.485 L108.1975,218.485 L107.8285,221.302 L106.3345,221.491 L106.3345,222.13 C106.3345,222.25 106.3675,222.3385 106.4335,222.3955 C106.4995,222.4525 106.5805,222.481 106.6765,222.481 L106.6765,222.481 L107.7745,222.481 L107.7745,228.061 C107.7745,228.817 107.968,229.396 108.355,229.798 C108.742,230.2 109.2955,230.401 110.0155,230.401 Z M120.1585,230.401 C120.5065,230.401 120.823,230.3695 121.108,230.3065 C121.393,230.2435 121.6615,230.1535 121.9135,230.0365 C122.1655,229.9195 122.4055,229.7755 122.6335,229.6045 C122.8615,229.4335 123.0955,229.237 123.3355,229.015 L123.3355,229.015 L123.5155,229.879 C123.5635,230.029 123.6295,230.1295 123.7135,230.1805 C123.7975,230.2315 123.9175,230.257 124.0735,230.257 L124.0735,230.257 L124.7845,230.257 L124.7845,224.425 C124.7845,223.915 124.7155,223.447 124.5775,223.021 C124.4395,222.595 124.2355,222.232 123.9655,221.932 C123.6955,221.632 123.3625,221.398 122.9665,221.23 C122.5705,221.062 122.1175,220.978 121.6075,220.978 C120.8995,220.978 120.2545,221.098 119.6725,221.338 C119.0905,221.578 118.5475,221.941 118.0435,222.427 L118.0435,222.427 L118.3315,222.94 C118.3855,223.024 118.4515,223.0945 118.5295,223.1515 C118.6075,223.2085 118.7005,223.237 118.8085,223.237 C118.9465,223.237 119.086,223.1875 119.227,223.0885 C119.368,222.9895 119.536,222.8785 119.731,222.7555 C119.926,222.6325 120.157,222.5215 120.424,222.4225 C120.691,222.3235 121.0225,222.274 121.4185,222.274 C122.0065,222.274 122.4535,222.4555 122.7595,222.8185 C123.0655,223.1815 123.2185,223.717 123.2185,224.425 L123.2185,224.425 L123.2185,225.136 C122.1805,225.16 121.3045,225.2545 120.5905,225.4195 C119.8765,225.5845 119.2975,225.796 118.8535,226.054 C118.4095,226.312 118.0885,226.6075 117.8905,226.9405 C117.6925,227.2735 117.5935,227.62 117.5935,227.98 C117.5935,228.394 117.661,228.7525 117.796,229.0555 C117.931,229.3585 118.114,229.609 118.345,229.807 C118.576,230.005 118.8475,230.1535 119.1595,230.2525 C119.4715,230.3515 119.8045,230.401 120.1585,230.401 Z M120.6355,229.276 C120.4255,229.276 120.229,229.2505 120.046,229.1995 C119.863,229.1485 119.704,229.0675 119.569,228.9565 C119.434,228.8455 119.3275,228.703 119.2495,228.529 C119.1715,228.355 119.1325,228.148 119.1325,227.908 C119.1325,227.656 119.206,227.428 119.353,227.224 C119.5,227.02 119.737,226.843 120.064,226.693 C120.391,226.543 120.814,226.4215 121.333,226.3285 C121.852,226.2355 122.4805,226.177 123.2185,226.153 L123.2185,226.153 L123.2185,228.043 C123.0385,228.235 122.854,228.406 122.665,228.556 C122.476,228.706 122.278,228.835 122.071,228.943 C121.864,229.051 121.6435,229.1335 121.4095,229.1905 C121.1755,229.2475 120.9175,229.276 120.6355,229.276 Z M129.5995,230.401 C130.1575,230.401 130.6495,230.326 131.0755,230.176 C131.5015,230.026 131.8615,229.8205 132.1555,229.5595 C132.4495,229.2985 132.6715,228.9895 132.8215,228.6325 C132.9715,228.2755 133.0465,227.887 133.0465,227.467 C133.0465,227.101 132.979,226.7875 132.844,226.5265 C132.709,226.2655 132.5305,226.045 132.3085,225.865 C132.0865,225.685 131.8345,225.535 131.5525,225.415 C131.2705,225.295 130.981,225.1855 130.684,225.0865 C130.387,224.9875 130.0975,224.8945 129.8155,224.8075 C129.5335,224.7205 129.2815,224.62 129.0595,224.506 C128.8375,224.392 128.659,224.257 128.524,224.101 C128.389,223.945 128.3215,223.75 128.3215,223.516 C128.3215,223.33 128.362,223.1575 128.443,222.9985 C128.524,222.8395 128.641,222.7 128.794,222.58 C128.947,222.46 129.1315,222.3655 129.3475,222.2965 C129.5635,222.2275 129.8065,222.193 130.0765,222.193 C130.3885,222.193 130.6585,222.2275 130.8865,222.2965 C131.1145,222.3655 131.311,222.4405 131.476,222.5215 C131.641,222.6025 131.7805,222.676 131.8945,222.742 C132.0085,222.808 132.1105,222.841 132.2005,222.841 C132.3505,222.841 132.4615,222.775 132.5335,222.643 L132.5335,222.643 L132.8935,222.058 C132.5455,221.728 132.133,221.4685 131.656,221.2795 C131.179,221.0905 130.6405,220.996 130.0405,220.996 C129.5245,220.996 129.0655,221.068 128.6635,221.212 C128.2615,221.356 127.9225,221.5495 127.6465,221.7925 C127.3705,222.0355 127.1605,222.3175 127.0165,222.6385 C126.8725,222.9595 126.8005,223.294 126.8005,223.642 C126.8005,224.032 126.868,224.3635 127.003,224.6365 C127.138,224.9095 127.3165,225.139 127.5385,225.325 C127.7605,225.511 128.014,225.6655 128.299,225.7885 C128.584,225.9115 128.875,226.021 129.172,226.117 C129.469,226.213 129.76,226.3045 130.045,226.3915 C130.33,226.4785 130.5835,226.5805 130.8055,226.6975 C131.0275,226.8145 131.206,226.9555 131.341,227.1205 C131.476,227.2855 131.5435,227.494 131.5435,227.746 C131.5435,227.95 131.506,228.142 131.431,228.322 C131.356,228.502 131.2405,228.661 131.0845,228.799 C130.9285,228.937 130.7335,229.0465 130.4995,229.1275 C130.2655,229.2085 129.9925,229.249 129.6805,229.249 C129.3145,229.249 129.0085,229.207 128.7625,229.123 C128.5165,229.039 128.308,228.946 128.137,228.844 C127.966,228.742 127.8205,228.649 127.7005,228.565 C127.5805,228.481 127.4665,228.439 127.3585,228.439 C127.2565,228.439 127.1725,228.46 127.1065,228.502 C127.0405,228.544 126.9835,228.604 126.9355,228.682 L126.9355,228.682 L126.5575,229.294 C126.9175,229.618 127.3555,229.8835 127.8715,230.0905 C128.3875,230.2975 128.9635,230.401 129.5995,230.401 Z M141.5065,230.401 C141.8545,230.401 142.171,230.3695 142.456,230.3065 C142.741,230.2435 143.0095,230.1535 143.2615,230.0365 C143.5135,229.9195 143.7535,229.7755 143.9815,229.6045 C144.2095,229.4335 144.4435,229.237 144.6835,229.015 L144.6835,229.015 L144.8635,229.879 C144.9115,230.029 144.9775,230.1295 145.0615,230.1805 C145.1455,230.2315 145.2655,230.257 145.4215,230.257 L145.4215,230.257 L146.1325,230.257 L146.1325,224.425 C146.1325,223.915 146.0635,223.447 145.9255,223.021 C145.7875,222.595 145.5835,222.232 145.3135,221.932 C145.0435,221.632 144.7105,221.398 144.3145,221.23 C143.9185,221.062 143.4655,220.978 142.9555,220.978 C142.2475,220.978 141.6025,221.098 141.0205,221.338 C140.4385,221.578 139.8955,221.941 139.3915,222.427 L139.3915,222.427 L139.6795,222.94 C139.7335,223.024 139.7995,223.0945 139.8775,223.1515 C139.9555,223.2085 140.0485,223.237 140.1565,223.237 C140.2945,223.237 140.434,223.1875 140.575,223.0885 C140.716,222.9895 140.884,222.8785 141.079,222.7555 C141.274,222.6325 141.505,222.5215 141.772,222.4225 C142.039,222.3235 142.3705,222.274 142.7665,222.274 C143.3545,222.274 143.8015,222.4555 144.1075,222.8185 C144.4135,223.1815 144.5665,223.717 144.5665,224.425 L144.5665,224.425 L144.5665,225.136 C143.5285,225.16 142.6525,225.2545 141.9385,225.4195 C141.2245,225.5845 140.6455,225.796 140.2015,226.054 C139.7575,226.312 139.4365,226.6075 139.2385,226.9405 C139.0405,227.2735 138.9415,227.62 138.9415,227.98 C138.9415,228.394 139.009,228.7525 139.144,229.0555 C139.279,229.3585 139.462,229.609 139.693,229.807 C139.924,230.005 140.1955,230.1535 140.5075,230.2525 C140.8195,230.3515 141.1525,230.401 141.5065,230.401 Z M141.9835,229.276 C141.7735,229.276 141.577,229.2505 141.394,229.1995 C141.211,229.1485 141.052,229.0675 140.917,228.9565 C140.782,228.8455 140.6755,228.703 140.5975,228.529 C140.5195,228.355 140.4805,228.148 140.4805,227.908 C140.4805,227.656 140.554,227.428 140.701,227.224 C140.848,227.02 141.085,226.843 141.412,226.693 C141.739,226.543 142.162,226.4215 142.681,226.3285 C143.2,226.2355 143.8285,226.177 144.5665,226.153 L144.5665,226.153 L144.5665,228.043 C144.3865,228.235 144.202,228.406 144.013,228.556 C143.824,228.706 143.626,228.835 143.419,228.943 C143.212,229.051 142.9915,229.1335 142.7575,229.1905 C142.5235,229.2475 142.2655,229.276 141.9835,229.276 Z M150.1825,230.257 L150.1825,223.543 C150.5305,223.153 150.91,222.844 151.321,222.616 C151.732,222.388 152.1745,222.274 152.6485,222.274 C153.2905,222.274 153.769,222.4645 154.084,222.8455 C154.399,223.2265 154.5565,223.762 154.5565,224.452 L154.5565,224.452 L154.5565,230.257 L156.1675,230.257 L156.1675,224.452 C156.1675,223.936 156.1015,223.465 155.9695,223.039 C155.8375,222.613 155.644,222.2485 155.389,221.9455 C155.134,221.6425 154.816,221.4085 154.435,221.2435 C154.054,221.0785 153.6145,220.996 153.1165,220.996 C152.7925,220.996 152.491,221.0305 152.212,221.0995 C151.933,221.1685 151.669,221.2675 151.42,221.3965 C151.171,221.5255 150.9355,221.68 150.7135,221.86 C150.4915,222.04 150.2815,222.241 150.0835,222.463 L150.0835,222.463 L149.9575,221.473 C149.9035,221.251 149.7625,221.14 149.5345,221.14 L149.5345,221.14 L148.5715,221.14 L148.5715,230.257 L150.1825,230.257 Z M161.5675,230.383 C162.2215,230.383 162.7975,230.239 163.2955,229.951 C163.7935,229.663 164.2375,229.285 164.6275,228.817 L164.6275,228.817 L164.7715,229.924 C164.8315,230.146 164.9755,230.257 165.2035,230.257 L165.2035,230.257 L166.1575,230.257 L166.1575,217 L164.5555,217 L164.5555,222.049 C164.2435,221.713 163.888,221.4505 163.489,221.2615 C163.09,221.0725 162.6115,220.978 162.0535,220.978 C161.4415,220.978 160.891,221.0995 160.402,221.3425 C159.913,221.5855 159.5005,221.92 159.1645,222.346 C158.8285,222.772 158.5705,223.2745 158.3905,223.8535 C158.2105,224.4325 158.1205,225.058 158.1205,225.73 C158.1205,226.486 158.2015,227.155 158.3635,227.737 C158.5255,228.319 158.7565,228.805 159.0565,229.195 C159.3565,229.585 159.7195,229.8805 160.1455,230.0815 C160.5715,230.2825 161.0455,230.383 161.5675,230.383 Z M162.0895,229.087 C161.7235,229.087 161.3965,229.024 161.1085,228.898 C160.8205,228.772 160.5775,228.5725 160.3795,228.2995 C160.1815,228.0265 160.0315,227.6785 159.9295,227.2555 C159.8275,226.8325 159.7765,226.324 159.7765,225.73 C159.7765,224.608 160.0045,223.744 160.4605,223.138 C160.9165,222.532 161.5675,222.229 162.4135,222.229 C162.8455,222.229 163.2355,222.3085 163.5835,222.4675 C163.9315,222.6265 164.2555,222.907 164.5555,223.309 L164.5555,223.309 L164.5555,227.71 C164.2255,228.148 163.864,228.487 163.471,228.727 C163.078,228.967 162.6175,229.087 162.0895,229.087 Z M176.1205,230.257 C176.3065,230.257 176.4265,230.155 176.4805,229.951 L176.4805,229.951 L178.5325,223.777 C178.5805,223.633 178.6195,223.4905 178.6495,223.3495 C178.6795,223.2085 178.7095,223.069 178.7395,222.931 C178.7695,223.069 178.7995,223.2085 178.8295,223.3495 C178.8595,223.4905 178.8985,223.63 178.9465,223.768 L178.9465,223.768 L180.9625,229.951 C181.0225,230.155 181.1305,230.257 181.2865,230.257 L181.2865,230.257 L182.5555,230.257 L185.5075,221.14 L184.3015,221.14 C184.1875,221.14 184.0885,221.1715 184.0045,221.2345 C183.9205,221.2975 183.8635,221.377 183.8335,221.473 L183.8335,221.473 L182.0515,227.341 C181.9975,227.557 181.948,227.7655 181.903,227.9665 C181.858,228.1675 181.8205,228.367 181.7905,228.565 C181.7425,228.367 181.6915,228.166 181.6375,227.962 C181.5835,227.758 181.5235,227.551 181.4575,227.341 L181.4575,227.341 L179.5765,221.437 C179.5465,221.347 179.4925,221.272 179.4145,221.212 C179.3365,221.152 179.2375,221.122 179.1175,221.122 L179.1175,221.122 L178.4155,221.122 C178.3075,221.122 178.216,221.152 178.141,221.212 C178.066,221.272 178.0135,221.347 177.9835,221.437 L177.9835,221.437 L176.0575,227.341 C175.9915,227.551 175.93,227.758 175.873,227.962 C175.816,228.166 175.7605,228.367 175.7065,228.565 C175.6465,228.181 175.5655,227.773 175.4635,227.341 L175.4635,227.341 L173.7175,221.473 C173.6875,221.383 173.629,221.305 173.542,221.239 C173.455,221.173 173.3485,221.14 173.2225,221.14 L173.2225,221.14 L171.9625,221.14 L174.9145,230.257 L176.1205,230.257 Z M188.6845,230.257 L188.6845,223.543 C189.0325,223.153 189.412,222.844 189.823,222.616 C190.234,222.388 190.6765,222.274 191.1505,222.274 C191.7925,222.274 192.271,222.4645 192.586,222.8455 C192.901,223.2265 193.0585,223.762 193.0585,224.452 L193.0585,224.452 L193.0585,230.257 L194.6695,230.257 L194.6695,224.452 C194.6695,223.936 194.6035,223.465 194.4715,223.039 C194.3395,222.613 194.146,222.2485 193.891,221.9455 C193.636,221.6425 193.318,221.4085 192.937,221.2435 C192.556,221.0785 192.1165,220.996 191.6185,220.996 C191.0005,220.996 190.4545,221.119 189.9805,221.365 C189.5065,221.611 189.0745,221.941 188.6845,222.355 L188.6845,222.355 L188.6845,217 L187.0735,217 L187.0735,230.257 L188.6845,230.257 Z M200.9425,230.383 C201.2725,230.383 201.6055,230.3545 201.9415,230.2975 C202.2775,230.2405 202.603,230.155 202.918,230.041 C203.233,229.927 203.5285,229.7815 203.8045,229.6045 C204.0805,229.4275 204.3175,229.219 204.5155,228.979 L204.5155,228.979 L204.0655,228.394 C203.9935,228.292 203.8915,228.241 203.7595,228.241 C203.6575,228.241 203.536,228.2875 203.395,228.3805 C203.254,228.4735 203.0785,228.574 202.8685,228.682 C202.6585,228.79 202.408,228.8905 202.117,228.9835 C201.826,229.0765 201.4795,229.123 201.0775,229.123 C200.6455,229.123 200.2555,229.0525 199.9075,228.9115 C199.5595,228.7705 199.2595,228.5575 199.0075,228.2725 C198.7555,227.9875 198.559,227.632 198.418,227.206 C198.277,226.78 198.1975,226.279 198.1795,225.703 L198.1795,225.703 L204.2725,225.703 C204.4225,225.703 204.5245,225.661 204.5785,225.577 C204.6325,225.493 204.6595,225.325 204.6595,225.073 C204.6595,224.425 204.5635,223.8475 204.3715,223.3405 C204.1795,222.8335 203.914,222.4075 203.575,222.0625 C203.236,221.7175 202.834,221.4535 202.369,221.2705 C201.904,221.0875 201.3985,220.996 200.8525,220.996 C200.1925,220.996 199.5985,221.1115 199.0705,221.3425 C198.5425,221.5735 198.0955,221.8915 197.7295,222.2965 C197.3635,222.7015 197.083,223.18 196.888,223.732 C196.693,224.284 196.5955,224.878 196.5955,225.514 C196.5955,226.3 196.7035,226.996 196.9195,227.602 C197.1355,228.208 197.437,228.7165 197.824,229.1275 C198.211,229.5385 198.67,229.8505 199.201,230.0635 C199.732,230.2765 200.3125,230.383 200.9425,230.383 Z M203.2195,224.704 L198.2335,224.704 C198.3415,223.912 198.619,223.2925 199.066,222.8455 C199.513,222.3985 200.1205,222.175 200.8885,222.175 C201.2545,222.175 201.5815,222.2365 201.8695,222.3595 C202.1575,222.4825 202.402,222.6565 202.603,222.8815 C202.804,223.1065 202.957,223.3735 203.062,223.6825 C203.167,223.9915 203.2195,224.332 203.2195,224.704 L203.2195,224.704 Z M208.2325,230.257 L208.2325,223.543 C208.5805,223.153 208.96,222.844 209.371,222.616 C209.782,222.388 210.2245,222.274 210.6985,222.274 C211.3405,222.274 211.819,222.4645 212.134,222.8455 C212.449,223.2265 212.6065,223.762 212.6065,224.452 L212.6065,224.452 L212.6065,230.257 L214.2175,230.257 L214.2175,224.452 C214.2175,223.936 214.1515,223.465 214.0195,223.039 C213.8875,222.613 213.694,222.2485 213.439,221.9455 C213.184,221.6425 212.866,221.4085 212.485,221.2435 C212.104,221.0785 211.6645,220.996 211.1665,220.996 C210.8425,220.996 210.541,221.0305 210.262,221.0995 C209.983,221.1685 209.719,221.2675 209.47,221.3965 C209.221,221.5255 208.9855,221.68 208.7635,221.86 C208.5415,222.04 208.3315,222.241 208.1335,222.463 L208.1335,222.463 L208.0075,221.473 C207.9535,221.251 207.8125,221.14 207.5845,221.14 L207.5845,221.14 L206.6215,221.14 L206.6215,230.257 L208.2325,230.257 Z" id="self-governmentandpublishcontentasandwhen" fill="#006C87" fill-rule="nonzero"></path>
                    <path d="M65.784,175.696 C66.3706667,175.696 66.9066667,175.645333 67.392,175.544 C67.8773333,175.442667 68.3333333,175.296 68.76,175.104 C69.1866667,174.912 69.5973333,174.674667 69.992,174.392 C70.3866667,174.109333 70.792,173.781333 71.208,173.408 L71.208,173.408 L71.56,174.592 C71.6773333,174.933333 71.8373333,175.16 72.04,175.272 C72.2426667,175.384 72.5306667,175.44 72.904,175.44 L72.904,175.44 L74.696,175.44 L74.696,165.072 C74.696,164.144 74.56,163.290667 74.288,162.512 C74.016,161.733333 73.6186667,161.064 73.096,160.504 C72.5733333,159.944 71.9333333,159.506667 71.176,159.192 C70.4186667,158.877333 69.56,158.72 68.6,158.72 C65.944,158.72 63.672,159.584 61.784,161.312 L61.784,161.312 L62.488,162.576 C62.6053333,162.768 62.76,162.936 62.952,163.08 C63.144,163.224 63.3786667,163.296 63.656,163.296 C63.976,163.296 64.2666667,163.221333 64.528,163.072 C64.7893333,162.922667 65.08,162.754667 65.4,162.568 C65.72,162.381333 66.0906667,162.213333 66.512,162.064 C66.9333333,161.914667 67.464,161.84 68.104,161.84 C68.9893333,161.84 69.6666667,162.104 70.136,162.632 C70.6053333,163.16 70.84,163.973333 70.84,165.072 L70.84,165.072 L70.84,166.032 C69.592,166.064 68.4826667,166.157333 67.512,166.312 C66.5413333,166.466667 65.6906667,166.666667 64.96,166.912 C64.2293333,167.157333 63.6133333,167.445333 63.112,167.776 C62.6106667,168.106667 62.2026667,168.458667 61.888,168.832 C61.5733333,169.205333 61.3466667,169.597333 61.208,170.008 C61.0693333,170.418667 61,170.832 61,171.248 C61,171.984 61.1173333,172.629333 61.352,173.184 C61.5866667,173.738667 61.9173333,174.202667 62.344,174.576 C62.7706667,174.949333 63.2773333,175.229333 63.864,175.416 C64.4506667,175.602667 65.0906667,175.696 65.784,175.696 Z M67,172.976 C66.3386667,172.976 65.8026667,172.826667 65.392,172.528 C64.9813333,172.229333 64.776,171.733333 64.776,171.04 C64.776,170.688 64.8773333,170.362667 65.08,170.064 C65.2826667,169.765333 65.6186667,169.504 66.088,169.28 C66.5573333,169.056 67.1813333,168.872 67.96,168.728 C68.7386667,168.584 69.6986667,168.485333 70.84,168.432 L70.84,168.432 L70.84,171.2 C70.2746667,171.797333 69.696,172.242667 69.104,172.536 C68.512,172.829333 67.8106667,172.976 67,172.976 Z M83.784,175.696 C84.8826667,175.696 85.8373333,175.485333 86.648,175.064 C87.4586667,174.642667 88.2,174.090667 88.872,173.408 L88.872,173.408 L89.144,174.72 C89.2826667,175.2 89.6133333,175.44 90.136,175.44 L90.136,175.44 L92.552,175.44 L92.552,159.024 L88.6,159.024 L88.6,170.896 C88.0666667,171.429333 87.5013333,171.848 86.904,172.152 C86.3066667,172.456 85.6666667,172.608 84.984,172.608 C84.056,172.608 83.36,172.333333 82.896,171.784 C82.432,171.234667 82.2,170.458667 82.2,169.456 L82.2,169.456 L82.2,159.024 L78.248,159.024 L78.248,169.456 C78.248,170.373333 78.368,171.213333 78.608,171.976 C78.848,172.738667 79.2026667,173.397333 79.672,173.952 C80.1413333,174.506667 80.72,174.936 81.408,175.24 C82.096,175.544 82.888,175.696 83.784,175.696 Z M101.928,175.696 C102.728,175.696 103.501333,175.573333 104.248,175.328 C104.994667,175.082667 105.656,174.72 106.232,174.24 L106.232,174.24 L105.048,172.32 C104.962667,172.202667 104.882667,172.114667 104.808,172.056 C104.733333,171.997333 104.637333,171.968 104.52,171.968 C104.424,171.968 104.328,171.997333 104.232,172.056 C104.136,172.114667 104.026667,172.176 103.904,172.24 C103.781333,172.304 103.637333,172.365333 103.472,172.424 C103.306667,172.482667 103.101333,172.512 102.856,172.512 C102.418667,172.512 102.074667,172.368 101.824,172.08 C101.573333,171.792 101.448,171.392 101.448,170.88 L101.448,170.88 L101.448,161.984 L105.832,161.984 L105.832,159.168 L101.448,159.168 L101.448,154 L99.4,154 C99.1653333,154 98.9733333,154.058667 98.824,154.176 C98.6746667,154.293333 98.5733333,154.458667 98.52,154.672 L98.52,154.672 L97.688,159.152 L95.048,159.584 L95.048,161.152 C95.048,161.429333 95.1226667,161.637333 95.272,161.776 C95.4213333,161.914667 95.6026667,161.984 95.816,161.984 L95.816,161.984 L97.496,161.984 L97.496,171.152 C97.496,172.570667 97.8773333,173.682667 98.64,174.488 C99.4026667,175.293333 100.498667,175.696 101.928,175.696 Z M115.496,175.68 C116.712,175.68 117.818667,175.482667 118.816,175.088 C119.813333,174.693333 120.666667,174.128 121.376,173.392 C122.085333,172.656 122.632,171.765333 123.016,170.72 C123.4,169.674667 123.592,168.501333 123.592,167.2 C123.592,165.909333 123.4,164.741333 123.016,163.696 C122.632,162.650667 122.085333,161.765333 121.376,161.04 C120.666667,160.314667 119.813333,159.754667 118.816,159.36 C117.818667,158.965333 116.712,158.768 115.496,158.768 C114.269333,158.768 113.154667,158.965333 112.152,159.36 C111.149333,159.754667 110.293333,160.314667 109.584,161.04 C108.874667,161.765333 108.325333,162.650667 107.936,163.696 C107.546667,164.741333 107.352,165.909333 107.352,167.2 C107.352,168.501333 107.546667,169.674667 107.936,170.72 C108.325333,171.765333 108.874667,172.656 109.584,173.392 C110.293333,174.128 111.149333,174.693333 112.152,175.088 C113.154667,175.482667 114.269333,175.68 115.496,175.68 Z M115.496,172.64 C114.109333,172.64 113.082667,172.178667 112.416,171.256 C111.749333,170.333333 111.416,168.992 111.416,167.232 C111.416,165.472 111.749333,164.125333 112.416,163.192 C113.082667,162.258667 114.109333,161.792 115.496,161.792 C116.861333,161.792 117.872,162.256 118.528,163.184 C119.184,164.112 119.512,165.461333 119.512,167.232 C119.512,169.002667 119.184,170.346667 118.528,171.264 C117.872,172.181333 116.861333,172.64 115.496,172.64 Z M130.568,175.44 L130.568,163.568 C131.101333,163.034667 131.666667,162.613333 132.264,162.304 C132.861333,161.994667 133.501333,161.84 134.184,161.84 C135.122667,161.84 135.821333,162.114667 136.28,162.664 C136.738667,163.213333 136.968,163.989333 136.968,164.992 L136.968,164.992 L136.968,175.44 L140.92,175.44 L140.92,164.992 C140.92,164.074667 140.8,163.234667 140.56,162.472 C140.32,161.709333 139.968,161.053333 139.504,160.504 C139.04,159.954667 138.461333,159.528 137.768,159.224 C137.074667,158.92 136.28,158.768 135.384,158.768 C134.829333,158.768 134.317333,158.824 133.848,158.936 C133.378667,159.048 132.938667,159.202667 132.528,159.4 C132.117333,159.597333 131.728,159.837333 131.36,160.12 C130.992,160.402667 130.642667,160.709333 130.312,161.04 L130.312,161.04 L130.04,159.744 C129.88,159.264 129.544,159.024 129.032,159.024 L129.032,159.024 L126.616,159.024 L126.616,175.44 L130.568,175.44 Z M151.928,175.68 C153.144,175.68 154.250667,175.482667 155.248,175.088 C156.245333,174.693333 157.098667,174.128 157.808,173.392 C158.517333,172.656 159.064,171.765333 159.448,170.72 C159.832,169.674667 160.024,168.501333 160.024,167.2 C160.024,165.909333 159.832,164.741333 159.448,163.696 C159.064,162.650667 158.517333,161.765333 157.808,161.04 C157.098667,160.314667 156.245333,159.754667 155.248,159.36 C154.250667,158.965333 153.144,158.768 151.928,158.768 C150.701333,158.768 149.586667,158.965333 148.584,159.36 C147.581333,159.754667 146.725333,160.314667 146.016,161.04 C145.306667,161.765333 144.757333,162.650667 144.368,163.696 C143.978667,164.741333 143.784,165.909333 143.784,167.2 C143.784,168.501333 143.978667,169.674667 144.368,170.72 C144.757333,171.765333 145.306667,172.656 146.016,173.392 C146.725333,174.128 147.581333,174.693333 148.584,175.088 C149.586667,175.482667 150.701333,175.68 151.928,175.68 Z M151.928,172.64 C150.541333,172.64 149.514667,172.178667 148.848,171.256 C148.181333,170.333333 147.848,168.992 147.848,167.232 C147.848,165.472 148.181333,164.125333 148.848,163.192 C149.514667,162.258667 150.541333,161.792 151.928,161.792 C153.293333,161.792 154.304,162.256 154.96,163.184 C155.616,164.112 155.944,165.461333 155.944,167.232 C155.944,169.002667 155.616,170.346667 154.96,171.264 C154.304,172.181333 153.293333,172.64 151.928,172.64 Z M167,175.44 L167,163.424 C167.426667,162.933333 167.888,162.546667 168.384,162.264 C168.88,161.981333 169.416,161.84 169.992,161.84 C170.845333,161.84 171.493333,162.090667 171.936,162.592 C172.378667,163.093333 172.6,163.893333 172.6,164.992 L172.6,164.992 L172.6,175.44 L176.568,175.44 L176.568,164.992 C176.568,164.48 176.642667,164.026667 176.792,163.632 C176.941333,163.237333 177.146667,162.909333 177.408,162.648 C177.669333,162.386667 177.973333,162.186667 178.32,162.048 C178.666667,161.909333 179.042667,161.84 179.448,161.84 C180.333333,161.84 181.005333,162.104 181.464,162.632 C181.922667,163.16 182.152,163.946667 182.152,164.992 L182.152,164.992 L182.152,175.44 L186.104,175.44 L186.104,164.992 C186.104,164 185.978667,163.12 185.728,162.352 C185.477333,161.584 185.112,160.933333 184.632,160.4 C184.152,159.866667 183.56,159.461333 182.856,159.184 C182.152,158.906667 181.346667,158.768 180.44,158.768 C179.917333,158.768 179.397333,158.826667 178.88,158.944 C178.362667,159.061333 177.874667,159.242667 177.416,159.488 C176.957333,159.733333 176.536,160.050667 176.152,160.44 C175.768,160.829333 175.448,161.296 175.192,161.84 C174.861333,160.912 174.362667,160.168 173.696,159.608 C173.029333,159.048 172.178667,158.768 171.144,158.768 C170.653333,158.768 170.202667,158.824 169.792,158.936 C169.381333,159.048 168.997333,159.2 168.64,159.392 C168.282667,159.584 167.946667,159.813333 167.632,160.08 C167.317333,160.346667 167.016,160.64 166.728,160.96 L166.728,160.96 L166.472,159.744 C166.312,159.264 165.976,159.024 165.464,159.024 L165.464,159.024 L163.048,159.024 L163.048,175.44 L167,175.44 Z M194.056,180.8 C194.44,180.8 194.725333,180.728 194.912,180.584 C195.098667,180.44 195.250667,180.229333 195.368,179.952 L195.368,179.952 L204.312,159.024 L201.144,159.024 C200.898667,159.024 200.677333,159.093333 200.48,159.232 C200.282667,159.370667 200.141333,159.546667 200.056,159.76 L200.056,159.76 L196.76,168.256 C196.642667,168.544 196.536,168.834667 196.44,169.128 C196.344,169.421333 196.248,169.717333 196.152,170.016 C196.077333,169.717333 196,169.424 195.92,169.136 C195.84,168.848 195.741333,168.56 195.624,168.272 L195.624,168.272 L192.136,159.76 C192.050667,159.568 191.92,159.397333 191.744,159.248 C191.568,159.098667 191.325333,159.024 191.016,159.024 L191.016,159.024 L187.544,159.024 L194.184,174.208 L191.112,180.8 L194.056,180.8 Z" fill="#006C87" fill-rule="nonzero"></path>
                </g>
            </g>
        </g>
    </g>
</svg>