<?xml version="1.0" encoding="UTF-8"?>
<svg width="268px" height="268px" viewBox="0 0 268 268" version="1.1" xmlns="http://www.w3.org/2000/svg" xmlns:xlink="http://www.w3.org/1999/xlink">
    <title>Group 21</title>
    <g id="pagebuilder" stroke="none" stroke-width="1" fill="none" fill-rule="evenodd">
        <g id="Desktop-HD-Copy" transform="translate(-976.000000, -1161.000000)">
            <g id="Group-21" transform="translate(977.000000, 1162.000000)">
                <g id="Group-20">
                    <rect id="Rectangle" stroke="#D0DF00" fill-opacity="0.1" fill="#D0DF00" x="0" y="0" width="266" height="266"></rect>
                    <path d="M44.2775,208.401 C44.6255,208.401 44.942,208.3695 45.227,208.3065 C45.512,208.2435 45.7805,208.1535 46.0325,208.0365 C46.2845,207.9195 46.5245,207.7755 46.7525,207.6045 C46.9805,207.4335 47.2145,207.237 47.4545,207.015 L47.4545,207.015 L47.6345,207.879 C47.6825,208.029 47.7485,208.1295 47.8325,208.1805 C47.9165,208.2315 48.0365,208.257 48.1925,208.257 L48.1925,208.257 L48.9035,208.257 L48.9035,202.425 C48.9035,201.915 48.8345,201.447 48.6965,201.021 C48.5585,200.595 48.3545,200.232 48.0845,199.932 C47.8145,199.632 47.4815,199.398 47.0855,199.23 C46.6895,199.062 46.2365,198.978 45.7265,198.978 C45.0185,198.978 44.3735,199.098 43.7915,199.338 C43.2095,199.578 42.6665,199.941 42.1625,200.427 L42.1625,200.427 L42.4505,200.94 C42.5045,201.024 42.5705,201.0945 42.6485,201.1515 C42.7265,201.2085 42.8195,201.237 42.9275,201.237 C43.0655,201.237 43.205,201.1875 43.346,201.0885 C43.487,200.9895 43.655,200.8785 43.85,200.7555 C44.045,200.6325 44.276,200.5215 44.543,200.4225 C44.81,200.3235 45.1415,200.274 45.5375,200.274 C46.1255,200.274 46.5725,200.4555 46.8785,200.8185 C47.1845,201.1815 47.3375,201.717 47.3375,202.425 L47.3375,202.425 L47.3375,203.136 C46.2995,203.16 45.4235,203.2545 44.7095,203.4195 C43.9955,203.5845 43.4165,203.796 42.9725,204.054 C42.5285,204.312 42.2075,204.6075 42.0095,204.9405 C41.8115,205.2735 41.7125,205.62 41.7125,205.98 C41.7125,206.394 41.78,206.7525 41.915,207.0555 C42.05,207.3585 42.233,207.609 42.464,207.807 C42.695,208.005 42.9665,208.1535 43.2785,208.2525 C43.5905,208.3515 43.9235,208.401 44.2775,208.401 Z M44.7545,207.276 C44.5445,207.276 44.348,207.2505 44.165,207.1995 C43.982,207.1485 43.823,207.0675 43.688,206.9565 C43.553,206.8455 43.4465,206.703 43.3685,206.529 C43.2905,206.355 43.2515,206.148 43.2515,205.908 C43.2515,205.656 43.325,205.428 43.472,205.224 C43.619,205.02 43.856,204.843 44.183,204.693 C44.51,204.543 44.933,204.4215 45.452,204.3285 C45.971,204.2355 46.5995,204.177 47.3375,204.153 L47.3375,204.153 L47.3375,206.043 C47.1575,206.235 46.973,206.406 46.784,206.556 C46.595,206.706 46.397,206.835 46.19,206.943 C45.983,207.051 45.7625,207.1335 45.5285,207.1905 C45.2945,207.2475 45.0365,207.276 44.7545,207.276 Z M52.9535,208.257 L52.9535,201.543 C53.3015,201.153 53.681,200.844 54.092,200.616 C54.503,200.388 54.9455,200.274 55.4195,200.274 C56.0615,200.274 56.54,200.4645 56.855,200.8455 C57.17,201.2265 57.3275,201.762 57.3275,202.452 L57.3275,202.452 L57.3275,208.257 L58.9385,208.257 L58.9385,202.452 C58.9385,201.936 58.8725,201.465 58.7405,201.039 C58.6085,200.613 58.415,200.2485 58.16,199.9455 C57.905,199.6425 57.587,199.4085 57.206,199.2435 C56.825,199.0785 56.3855,198.996 55.8875,198.996 C55.5635,198.996 55.262,199.0305 54.983,199.0995 C54.704,199.1685 54.44,199.2675 54.191,199.3965 C53.942,199.5255 53.7065,199.68 53.4845,199.86 C53.2625,200.04 53.0525,200.241 52.8545,200.463 L52.8545,200.463 L52.7285,199.473 C52.6745,199.251 52.5335,199.14 52.3055,199.14 L52.3055,199.14 L51.3425,199.14 L51.3425,208.257 L52.9535,208.257 Z M63.3665,211.344 C63.5345,211.344 63.659,211.308 63.74,211.236 C63.821,211.164 63.8885,211.068 63.9425,210.948 L63.9425,210.948 L69.0275,199.14 L67.7585,199.14 C67.6505,199.14 67.553,199.1715 67.466,199.2345 C67.379,199.2975 67.3175,199.377 67.2815,199.473 L67.2815,199.473 L64.9145,205.206 C64.8185,205.458 64.7285,205.725 64.6445,206.007 C64.5785,205.731 64.4975,205.467 64.4015,205.215 L64.4015,205.215 L61.9625,199.473 C61.9325,199.389 61.877,199.3125 61.796,199.2435 C61.715,199.1745 61.6055,199.14 61.4675,199.14 L61.4675,199.14 L60.0815,199.14 L63.8435,207.726 L62.1785,211.344 L63.3665,211.344 Z M77.5595,208.383 C78.2135,208.383 78.7895,208.239 79.2875,207.951 C79.7855,207.663 80.2295,207.285 80.6195,206.817 L80.6195,206.817 L80.7635,207.924 C80.8235,208.146 80.9675,208.257 81.1955,208.257 L81.1955,208.257 L82.1495,208.257 L82.1495,195 L80.5475,195 L80.5475,200.049 C80.2355,199.713 79.88,199.4505 79.481,199.2615 C79.082,199.0725 78.6035,198.978 78.0455,198.978 C77.4335,198.978 76.883,199.0995 76.394,199.3425 C75.905,199.5855 75.4925,199.92 75.1565,200.346 C74.8205,200.772 74.5625,201.2745 74.3825,201.8535 C74.2025,202.4325 74.1125,203.058 74.1125,203.73 C74.1125,204.486 74.1935,205.155 74.3555,205.737 C74.5175,206.319 74.7485,206.805 75.0485,207.195 C75.3485,207.585 75.7115,207.8805 76.1375,208.0815 C76.5635,208.2825 77.0375,208.383 77.5595,208.383 Z M78.0815,207.087 C77.7155,207.087 77.3885,207.024 77.1005,206.898 C76.8125,206.772 76.5695,206.5725 76.3715,206.2995 C76.1735,206.0265 76.0235,205.6785 75.9215,205.2555 C75.8195,204.8325 75.7685,204.324 75.7685,203.73 C75.7685,202.608 75.9965,201.744 76.4525,201.138 C76.9085,200.532 77.5595,200.229 78.4055,200.229 C78.8375,200.229 79.2275,200.3085 79.5755,200.4675 C79.9235,200.6265 80.2475,200.907 80.5475,201.309 L80.5475,201.309 L80.5475,205.71 C80.2175,206.148 79.856,206.487 79.463,206.727 C79.07,206.967 78.6095,207.087 78.0815,207.087 Z M88.5125,208.383 C88.8425,208.383 89.1755,208.3545 89.5115,208.2975 C89.8475,208.2405 90.173,208.155 90.488,208.041 C90.803,207.927 91.0985,207.7815 91.3745,207.6045 C91.6505,207.4275 91.8875,207.219 92.0855,206.979 L92.0855,206.979 L91.6355,206.394 C91.5635,206.292 91.4615,206.241 91.3295,206.241 C91.2275,206.241 91.106,206.2875 90.965,206.3805 C90.824,206.4735 90.6485,206.574 90.4385,206.682 C90.2285,206.79 89.978,206.8905 89.687,206.9835 C89.396,207.0765 89.0495,207.123 88.6475,207.123 C88.2155,207.123 87.8255,207.0525 87.4775,206.9115 C87.1295,206.7705 86.8295,206.5575 86.5775,206.2725 C86.3255,205.9875 86.129,205.632 85.988,205.206 C85.847,204.78 85.7675,204.279 85.7495,203.703 L85.7495,203.703 L91.8425,203.703 C91.9925,203.703 92.0945,203.661 92.1485,203.577 C92.2025,203.493 92.2295,203.325 92.2295,203.073 C92.2295,202.425 92.1335,201.8475 91.9415,201.3405 C91.7495,200.8335 91.484,200.4075 91.145,200.0625 C90.806,199.7175 90.404,199.4535 89.939,199.2705 C89.474,199.0875 88.9685,198.996 88.4225,198.996 C87.7625,198.996 87.1685,199.1115 86.6405,199.3425 C86.1125,199.5735 85.6655,199.8915 85.2995,200.2965 C84.9335,200.7015 84.653,201.18 84.458,201.732 C84.263,202.284 84.1655,202.878 84.1655,203.514 C84.1655,204.3 84.2735,204.996 84.4895,205.602 C84.7055,206.208 85.007,206.7165 85.394,207.1275 C85.781,207.5385 86.24,207.8505 86.771,208.0635 C87.302,208.2765 87.8825,208.383 88.5125,208.383 Z M90.7895,202.704 L85.8035,202.704 C85.9115,201.912 86.189,201.2925 86.636,200.8455 C87.083,200.3985 87.6905,200.175 88.4585,200.175 C88.8245,200.175 89.1515,200.2365 89.4395,200.3595 C89.7275,200.4825 89.972,200.6565 90.173,200.8815 C90.374,201.1065 90.527,201.3735 90.632,201.6825 C90.737,201.9915 90.7895,202.332 90.7895,202.704 L90.7895,202.704 Z M96.5675,208.401 C97.1255,208.401 97.6175,208.326 98.0435,208.176 C98.4695,208.026 98.8295,207.8205 99.1235,207.5595 C99.4175,207.2985 99.6395,206.9895 99.7895,206.6325 C99.9395,206.2755 100.0145,205.887 100.0145,205.467 C100.0145,205.101 99.947,204.7875 99.812,204.5265 C99.677,204.2655 99.4985,204.045 99.2765,203.865 C99.0545,203.685 98.8025,203.535 98.5205,203.415 C98.2385,203.295 97.949,203.1855 97.652,203.0865 C97.355,202.9875 97.0655,202.8945 96.7835,202.8075 C96.5015,202.7205 96.2495,202.62 96.0275,202.506 C95.8055,202.392 95.627,202.257 95.492,202.101 C95.357,201.945 95.2895,201.75 95.2895,201.516 C95.2895,201.33 95.33,201.1575 95.411,200.9985 C95.492,200.8395 95.609,200.7 95.762,200.58 C95.915,200.46 96.0995,200.3655 96.3155,200.2965 C96.5315,200.2275 96.7745,200.193 97.0445,200.193 C97.3565,200.193 97.6265,200.2275 97.8545,200.2965 C98.0825,200.3655 98.279,200.4405 98.444,200.5215 C98.609,200.6025 98.7485,200.676 98.8625,200.742 C98.9765,200.808 99.0785,200.841 99.1685,200.841 C99.3185,200.841 99.4295,200.775 99.5015,200.643 L99.5015,200.643 L99.8615,200.058 C99.5135,199.728 99.101,199.4685 98.624,199.2795 C98.147,199.0905 97.6085,198.996 97.0085,198.996 C96.4925,198.996 96.0335,199.068 95.6315,199.212 C95.2295,199.356 94.8905,199.5495 94.6145,199.7925 C94.3385,200.0355 94.1285,200.3175 93.9845,200.6385 C93.8405,200.9595 93.7685,201.294 93.7685,201.642 C93.7685,202.032 93.836,202.3635 93.971,202.6365 C94.106,202.9095 94.2845,203.139 94.5065,203.325 C94.7285,203.511 94.982,203.6655 95.267,203.7885 C95.552,203.9115 95.843,204.021 96.14,204.117 C96.437,204.213 96.728,204.3045 97.013,204.3915 C97.298,204.4785 97.5515,204.5805 97.7735,204.6975 C97.9955,204.8145 98.174,204.9555 98.309,205.1205 C98.444,205.2855 98.5115,205.494 98.5115,205.746 C98.5115,205.95 98.474,206.142 98.399,206.322 C98.324,206.502 98.2085,206.661 98.0525,206.799 C97.8965,206.937 97.7015,207.0465 97.4675,207.1275 C97.2335,207.2085 96.9605,207.249 96.6485,207.249 C96.2825,207.249 95.9765,207.207 95.7305,207.123 C95.4845,207.039 95.276,206.946 95.105,206.844 C94.934,206.742 94.7885,206.649 94.6685,206.565 C94.5485,206.481 94.4345,206.439 94.3265,206.439 C94.2245,206.439 94.1405,206.46 94.0745,206.502 C94.0085,206.544 93.9515,206.604 93.9035,206.682 L93.9035,206.682 L93.5255,207.294 C93.8855,207.618 94.3235,207.8835 94.8395,208.0905 C95.3555,208.2975 95.9315,208.401 96.5675,208.401 Z M102.8585,197.412 C103.0145,197.412 103.163,197.382 103.304,197.322 C103.445,197.262 103.568,197.1795 103.673,197.0745 C103.778,196.9695 103.862,196.8495 103.925,196.7145 C103.988,196.5795 104.0195,196.434 104.0195,196.278 C104.0195,196.122 103.988,195.9735 103.925,195.8325 C103.862,195.6915 103.778,195.5685 103.673,195.4635 C103.568,195.3585 103.445,195.276 103.304,195.216 C103.163,195.156 103.0145,195.126 102.8585,195.126 C102.7025,195.126 102.557,195.156 102.422,195.216 C102.287,195.276 102.1685,195.3585 102.0665,195.4635 C101.9645,195.5685 101.8835,195.6915 101.8235,195.8325 C101.7635,195.9735 101.7335,196.122 101.7335,196.278 C101.7335,196.434 101.7635,196.5795 101.8235,196.7145 C101.8835,196.8495 101.9645,196.9695 102.0665,197.0745 C102.1685,197.1795 102.287,197.262 102.422,197.322 C102.557,197.382 102.7025,197.412 102.8585,197.412 Z M103.6775,208.257 L103.6775,199.14 L102.0755,199.14 L102.0755,208.257 L103.6775,208.257 Z M109.5725,211.542 C110.2385,211.542 110.837,211.4565 111.368,211.2855 C111.899,211.1145 112.3475,210.8865 112.7135,210.6015 C113.0795,210.3165 113.36,209.991 113.555,209.625 C113.75,209.259 113.8475,208.881 113.8475,208.491 C113.8475,208.071 113.759,207.729 113.582,207.465 C113.405,207.201 113.1725,206.994 112.8845,206.844 C112.5965,206.694 112.268,206.586 111.899,206.52 C111.53,206.454 111.152,206.4075 110.765,206.3805 C110.378,206.3535 110,206.334 109.631,206.322 C109.262,206.31 108.9335,206.28 108.6455,206.232 C108.3575,206.184 108.125,206.1045 107.948,205.9935 C107.771,205.8825 107.6825,205.719 107.6825,205.503 C107.6825,205.365 107.7335,205.2285 107.8355,205.0935 C107.9375,204.9585 108.0845,204.831 108.2765,204.711 C108.6545,204.813 109.0565,204.864 109.4825,204.864 C109.9745,204.864 110.4305,204.795 110.8505,204.657 C111.2705,204.519 111.6305,204.321 111.9305,204.063 C112.2305,203.805 112.466,203.4945 112.637,203.1315 C112.808,202.7685 112.8935,202.365 112.8935,201.921 C112.8935,201.441 112.7915,201.003 112.5875,200.607 L112.5875,200.607 L113.6225,200.472 C113.8745,200.418 114.0005,200.292 114.0005,200.094 L114.0005,200.094 L114.0005,199.5 L111.5255,199.5 C111.2435,199.332 110.9315,199.2045 110.5895,199.1175 C110.2475,199.0305 109.8785,198.987 109.4825,198.987 C108.9785,198.987 108.515,199.056 108.092,199.194 C107.669,199.332 107.3045,199.5285 106.9985,199.7835 C106.6925,200.0385 106.454,200.3475 106.283,200.7105 C106.112,201.0735 106.0265,201.477 106.0265,201.921 C106.0265,202.473 106.1525,202.9575 106.4045,203.3745 C106.6565,203.7915 107.0075,204.126 107.4575,204.378 C107.2655,204.474 107.0975,204.585 106.9535,204.711 C106.8095,204.837 106.688,204.9705 106.589,205.1115 C106.49,205.2525 106.4165,205.3935 106.3685,205.5345 C106.3205,205.6755 106.2965,205.812 106.2965,205.944 C106.2965,206.286 106.376,206.5575 106.535,206.7585 C106.694,206.9595 106.9085,207.12 107.1785,207.24 C106.6865,207.426 106.2995,207.675 106.0175,207.987 C105.7355,208.299 105.5945,208.68 105.5945,209.13 C105.5945,209.448 105.677,209.7525 105.842,210.0435 C106.007,210.3345 106.2545,210.591 106.5845,210.813 C106.9145,211.035 107.3285,211.212 107.8265,211.344 C108.3245,211.476 108.9065,211.542 109.5725,211.542 Z M109.4825,203.802 C109.1585,203.802 108.8735,203.757 108.6275,203.667 C108.3815,203.577 108.1745,203.451 108.0065,203.289 C107.8385,203.127 107.711,202.9335 107.624,202.7085 C107.537,202.4835 107.4935,202.236 107.4935,201.966 C107.4935,201.408 107.663,200.964 108.002,200.634 C108.341,200.304 108.8345,200.139 109.4825,200.139 C110.1245,200.139 110.615,200.304 110.954,200.634 C111.293,200.964 111.4625,201.408 111.4625,201.966 C111.4625,202.236 111.4205,202.4835 111.3365,202.7085 C111.2525,202.9335 111.1265,203.127 110.9585,203.289 C110.7905,203.451 110.5835,203.577 110.3375,203.667 C110.0915,203.757 109.8065,203.802 109.4825,203.802 Z M109.6085,210.372 C109.1645,210.372 108.779,210.3345 108.452,210.2595 C108.125,210.1845 107.8535,210.0825 107.6375,209.9535 C107.4215,209.8245 107.261,209.6715 107.156,209.4945 C107.051,209.3175 106.9985,209.127 106.9985,208.923 C106.9985,208.605 107.105,208.3275 107.318,208.0905 C107.531,207.8535 107.8055,207.657 108.1415,207.501 C108.4415,207.543 108.7535,207.573 109.0775,207.591 C109.4015,207.609 109.721,207.627 110.036,207.645 C110.351,207.663 110.6495,207.6885 110.9315,207.7215 C111.2135,207.7545 111.461,207.81 111.674,207.888 C111.887,207.966 112.0565,208.074 112.1825,208.212 C112.3085,208.35 112.3715,208.53 112.3715,208.752 C112.3715,208.992 112.3085,209.211 112.1825,209.409 C112.0565,209.607 111.875,209.778 111.638,209.922 C111.401,210.066 111.1115,210.177 110.7695,210.255 C110.4275,210.333 110.0405,210.372 109.6085,210.372 Z M117.2765,208.257 L117.2765,201.543 C117.6245,201.153 118.004,200.844 118.415,200.616 C118.826,200.388 119.2685,200.274 119.7425,200.274 C120.3845,200.274 120.863,200.4645 121.178,200.8455 C121.493,201.2265 121.6505,201.762 121.6505,202.452 L121.6505,202.452 L121.6505,208.257 L123.2615,208.257 L123.2615,202.452 C123.2615,201.936 123.1955,201.465 123.0635,201.039 C122.9315,200.613 122.738,200.2485 122.483,199.9455 C122.228,199.6425 121.91,199.4085 121.529,199.2435 C121.148,199.0785 120.7085,198.996 120.2105,198.996 C119.8865,198.996 119.585,199.0305 119.306,199.0995 C119.027,199.1685 118.763,199.2675 118.514,199.3965 C118.265,199.5255 118.0295,199.68 117.8075,199.86 C117.5855,200.04 117.3755,200.241 117.1775,200.463 L117.1775,200.463 L117.0515,199.473 C116.9975,199.251 116.8565,199.14 116.6285,199.14 L116.6285,199.14 L115.6655,199.14 L115.6655,208.257 L117.2765,208.257 Z M133.8185,208.383 C134.1485,208.383 134.4725,208.356 134.7905,208.302 C135.1085,208.248 135.413,208.1625 135.704,208.0455 C135.995,207.9285 136.2665,207.783 136.5185,207.609 C136.7705,207.435 136.9955,207.225 137.1935,206.979 L137.1935,206.979 L136.7435,206.394 C136.6715,206.292 136.5695,206.241 136.4375,206.241 C136.3295,206.241 136.22,206.2875 136.109,206.3805 C135.998,206.4735 135.86,206.577 135.695,206.691 C135.53,206.805 135.3215,206.9085 135.0695,207.0015 C134.8175,207.0945 134.4965,207.141 134.1065,207.141 C133.6985,207.141 133.331,207.0645 133.004,206.9115 C132.677,206.7585 132.398,206.5365 132.167,206.2455 C131.936,205.9545 131.7575,205.5945 131.6315,205.1655 C131.5055,204.7365 131.4425,204.246 131.4425,203.694 C131.4425,203.166 131.501,202.689 131.618,202.263 C131.735,201.837 131.909,201.474 132.14,201.174 C132.371,200.874 132.6575,200.6445 132.9995,200.4855 C133.3415,200.3265 133.7375,200.247 134.1875,200.247 C134.5235,200.247 134.807,200.2845 135.038,200.3595 C135.269,200.4345 135.464,200.517 135.623,200.607 C135.782,200.697 135.9155,200.7795 136.0235,200.8545 C136.1315,200.9295 136.2305,200.967 136.3205,200.967 C136.4045,200.967 136.4705,200.949 136.5185,200.913 C136.5665,200.877 136.6145,200.826 136.6625,200.76 L136.6625,200.76 L137.0855,200.184 C136.7075,199.806 136.274,199.5135 135.785,199.3065 C135.296,199.0995 134.7305,198.996 134.0885,198.996 C133.3985,198.996 132.788,199.113 132.257,199.347 C131.726,199.581 131.279,199.9065 130.916,200.3235 C130.553,200.7405 130.277,201.237 130.088,201.813 C129.899,202.389 129.8045,203.016 129.8045,203.694 C129.8045,204.438 129.9065,205.101 130.1105,205.683 C130.3145,206.265 130.5965,206.7555 130.9565,207.1545 C131.3165,207.5535 131.741,207.858 132.23,208.068 C132.719,208.278 133.2485,208.383 133.8185,208.383 Z M140.5235,208.257 L140.5235,201.543 C140.8715,201.153 141.251,200.844 141.662,200.616 C142.073,200.388 142.5155,200.274 142.9895,200.274 C143.6315,200.274 144.11,200.4645 144.425,200.8455 C144.74,201.2265 144.8975,201.762 144.8975,202.452 L144.8975,202.452 L144.8975,208.257 L146.5085,208.257 L146.5085,202.452 C146.5085,201.936 146.4425,201.465 146.3105,201.039 C146.1785,200.613 145.985,200.2485 145.73,199.9455 C145.475,199.6425 145.157,199.4085 144.776,199.2435 C144.395,199.0785 143.9555,198.996 143.4575,198.996 C142.8395,198.996 142.2935,199.119 141.8195,199.365 C141.3455,199.611 140.9135,199.941 140.5235,200.355 L140.5235,200.355 L140.5235,195 L138.9125,195 L138.9125,208.257 L140.5235,208.257 Z M150.8375,208.401 C151.1855,208.401 151.502,208.3695 151.787,208.3065 C152.072,208.2435 152.3405,208.1535 152.5925,208.0365 C152.8445,207.9195 153.0845,207.7755 153.3125,207.6045 C153.5405,207.4335 153.7745,207.237 154.0145,207.015 L154.0145,207.015 L154.1945,207.879 C154.2425,208.029 154.3085,208.1295 154.3925,208.1805 C154.4765,208.2315 154.5965,208.257 154.7525,208.257 L154.7525,208.257 L155.4635,208.257 L155.4635,202.425 C155.4635,201.915 155.3945,201.447 155.2565,201.021 C155.1185,200.595 154.9145,200.232 154.6445,199.932 C154.3745,199.632 154.0415,199.398 153.6455,199.23 C153.2495,199.062 152.7965,198.978 152.2865,198.978 C151.5785,198.978 150.9335,199.098 150.3515,199.338 C149.7695,199.578 149.2265,199.941 148.7225,200.427 L148.7225,200.427 L149.0105,200.94 C149.0645,201.024 149.1305,201.0945 149.2085,201.1515 C149.2865,201.2085 149.3795,201.237 149.4875,201.237 C149.6255,201.237 149.765,201.1875 149.906,201.0885 C150.047,200.9895 150.215,200.8785 150.41,200.7555 C150.605,200.6325 150.836,200.5215 151.103,200.4225 C151.37,200.3235 151.7015,200.274 152.0975,200.274 C152.6855,200.274 153.1325,200.4555 153.4385,200.8185 C153.7445,201.1815 153.8975,201.717 153.8975,202.425 L153.8975,202.425 L153.8975,203.136 C152.8595,203.16 151.9835,203.2545 151.2695,203.4195 C150.5555,203.5845 149.9765,203.796 149.5325,204.054 C149.0885,204.312 148.7675,204.6075 148.5695,204.9405 C148.3715,205.2735 148.2725,205.62 148.2725,205.98 C148.2725,206.394 148.34,206.7525 148.475,207.0555 C148.61,207.3585 148.793,207.609 149.024,207.807 C149.255,208.005 149.5265,208.1535 149.8385,208.2525 C150.1505,208.3515 150.4835,208.401 150.8375,208.401 Z M151.3145,207.276 C151.1045,207.276 150.908,207.2505 150.725,207.1995 C150.542,207.1485 150.383,207.0675 150.248,206.9565 C150.113,206.8455 150.0065,206.703 149.9285,206.529 C149.8505,206.355 149.8115,206.148 149.8115,205.908 C149.8115,205.656 149.885,205.428 150.032,205.224 C150.179,205.02 150.416,204.843 150.743,204.693 C151.07,204.543 151.493,204.4215 152.012,204.3285 C152.531,204.2355 153.1595,204.177 153.8975,204.153 L153.8975,204.153 L153.8975,206.043 C153.7175,206.235 153.533,206.406 153.344,206.556 C153.155,206.706 152.957,206.835 152.75,206.943 C152.543,207.051 152.3225,207.1335 152.0885,207.1905 C151.8545,207.2475 151.5965,207.276 151.3145,207.276 Z M159.5135,208.257 L159.5135,201.543 C159.8615,201.153 160.241,200.844 160.652,200.616 C161.063,200.388 161.5055,200.274 161.9795,200.274 C162.6215,200.274 163.1,200.4645 163.415,200.8455 C163.73,201.2265 163.8875,201.762 163.8875,202.452 L163.8875,202.452 L163.8875,208.257 L165.4985,208.257 L165.4985,202.452 C165.4985,201.936 165.4325,201.465 165.3005,201.039 C165.1685,200.613 164.975,200.2485 164.72,199.9455 C164.465,199.6425 164.147,199.4085 163.766,199.2435 C163.385,199.0785 162.9455,198.996 162.4475,198.996 C162.1235,198.996 161.822,199.0305 161.543,199.0995 C161.264,199.1685 161,199.2675 160.751,199.3965 C160.502,199.5255 160.2665,199.68 160.0445,199.86 C159.8225,200.04 159.6125,200.241 159.4145,200.463 L159.4145,200.463 L159.2885,199.473 C159.2345,199.251 159.0935,199.14 158.8655,199.14 L158.8655,199.14 L157.9025,199.14 L157.9025,208.257 L159.5135,208.257 Z M171.2135,211.542 C171.8795,211.542 172.478,211.4565 173.009,211.2855 C173.54,211.1145 173.9885,210.8865 174.3545,210.6015 C174.7205,210.3165 175.001,209.991 175.196,209.625 C175.391,209.259 175.4885,208.881 175.4885,208.491 C175.4885,208.071 175.4,207.729 175.223,207.465 C175.046,207.201 174.8135,206.994 174.5255,206.844 C174.2375,206.694 173.909,206.586 173.54,206.52 C173.171,206.454 172.793,206.4075 172.406,206.3805 C172.019,206.3535 171.641,206.334 171.272,206.322 C170.903,206.31 170.5745,206.28 170.2865,206.232 C169.9985,206.184 169.766,206.1045 169.589,205.9935 C169.412,205.8825 169.3235,205.719 169.3235,205.503 C169.3235,205.365 169.3745,205.2285 169.4765,205.0935 C169.5785,204.9585 169.7255,204.831 169.9175,204.711 C170.2955,204.813 170.6975,204.864 171.1235,204.864 C171.6155,204.864 172.0715,204.795 172.4915,204.657 C172.9115,204.519 173.2715,204.321 173.5715,204.063 C173.8715,203.805 174.107,203.4945 174.278,203.1315 C174.449,202.7685 174.5345,202.365 174.5345,201.921 C174.5345,201.441 174.4325,201.003 174.2285,200.607 L174.2285,200.607 L175.2635,200.472 C175.5155,200.418 175.6415,200.292 175.6415,200.094 L175.6415,200.094 L175.6415,199.5 L173.1665,199.5 C172.8845,199.332 172.5725,199.2045 172.2305,199.1175 C171.8885,199.0305 171.5195,198.987 171.1235,198.987 C170.6195,198.987 170.156,199.056 169.733,199.194 C169.31,199.332 168.9455,199.5285 168.6395,199.7835 C168.3335,200.0385 168.095,200.3475 167.924,200.7105 C167.753,201.0735 167.6675,201.477 167.6675,201.921 C167.6675,202.473 167.7935,202.9575 168.0455,203.3745 C168.2975,203.7915 168.6485,204.126 169.0985,204.378 C168.9065,204.474 168.7385,204.585 168.5945,204.711 C168.4505,204.837 168.329,204.9705 168.23,205.1115 C168.131,205.2525 168.0575,205.3935 168.0095,205.5345 C167.9615,205.6755 167.9375,205.812 167.9375,205.944 C167.9375,206.286 168.017,206.5575 168.176,206.7585 C168.335,206.9595 168.5495,207.12 168.8195,207.24 C168.3275,207.426 167.9405,207.675 167.6585,207.987 C167.3765,208.299 167.2355,208.68 167.2355,209.13 C167.2355,209.448 167.318,209.7525 167.483,210.0435 C167.648,210.3345 167.8955,210.591 168.2255,210.813 C168.5555,211.035 168.9695,211.212 169.4675,211.344 C169.9655,211.476 170.5475,211.542 171.2135,211.542 Z M171.1235,203.802 C170.7995,203.802 170.5145,203.757 170.2685,203.667 C170.0225,203.577 169.8155,203.451 169.6475,203.289 C169.4795,203.127 169.352,202.9335 169.265,202.7085 C169.178,202.4835 169.1345,202.236 169.1345,201.966 C169.1345,201.408 169.304,200.964 169.643,200.634 C169.982,200.304 170.4755,200.139 171.1235,200.139 C171.7655,200.139 172.256,200.304 172.595,200.634 C172.934,200.964 173.1035,201.408 173.1035,201.966 C173.1035,202.236 173.0615,202.4835 172.9775,202.7085 C172.8935,202.9335 172.7675,203.127 172.5995,203.289 C172.4315,203.451 172.2245,203.577 171.9785,203.667 C171.7325,203.757 171.4475,203.802 171.1235,203.802 Z M171.2495,210.372 C170.8055,210.372 170.42,210.3345 170.093,210.2595 C169.766,210.1845 169.4945,210.0825 169.2785,209.9535 C169.0625,209.8245 168.902,209.6715 168.797,209.4945 C168.692,209.3175 168.6395,209.127 168.6395,208.923 C168.6395,208.605 168.746,208.3275 168.959,208.0905 C169.172,207.8535 169.4465,207.657 169.7825,207.501 C170.0825,207.543 170.3945,207.573 170.7185,207.591 C171.0425,207.609 171.362,207.627 171.677,207.645 C171.992,207.663 172.2905,207.6885 172.5725,207.7215 C172.8545,207.7545 173.102,207.81 173.315,207.888 C173.528,207.966 173.6975,208.074 173.8235,208.212 C173.9495,208.35 174.0125,208.53 174.0125,208.752 C174.0125,208.992 173.9495,209.211 173.8235,209.409 C173.6975,209.607 173.516,209.778 173.279,209.922 C173.042,210.066 172.7525,210.177 172.4105,210.255 C172.0685,210.333 171.6815,210.372 171.2495,210.372 Z M180.9875,208.383 C181.3175,208.383 181.6505,208.3545 181.9865,208.2975 C182.3225,208.2405 182.648,208.155 182.963,208.041 C183.278,207.927 183.5735,207.7815 183.8495,207.6045 C184.1255,207.4275 184.3625,207.219 184.5605,206.979 L184.5605,206.979 L184.1105,206.394 C184.0385,206.292 183.9365,206.241 183.8045,206.241 C183.7025,206.241 183.581,206.2875 183.44,206.3805 C183.299,206.4735 183.1235,206.574 182.9135,206.682 C182.7035,206.79 182.453,206.8905 182.162,206.9835 C181.871,207.0765 181.5245,207.123 181.1225,207.123 C180.6905,207.123 180.3005,207.0525 179.9525,206.9115 C179.6045,206.7705 179.3045,206.5575 179.0525,206.2725 C178.8005,205.9875 178.604,205.632 178.463,205.206 C178.322,204.78 178.2425,204.279 178.2245,203.703 L178.2245,203.703 L184.3175,203.703 C184.4675,203.703 184.5695,203.661 184.6235,203.577 C184.6775,203.493 184.7045,203.325 184.7045,203.073 C184.7045,202.425 184.6085,201.8475 184.4165,201.3405 C184.2245,200.8335 183.959,200.4075 183.62,200.0625 C183.281,199.7175 182.879,199.4535 182.414,199.2705 C181.949,199.0875 181.4435,198.996 180.8975,198.996 C180.2375,198.996 179.6435,199.1115 179.1155,199.3425 C178.5875,199.5735 178.1405,199.8915 177.7745,200.2965 C177.4085,200.7015 177.128,201.18 176.933,201.732 C176.738,202.284 176.6405,202.878 176.6405,203.514 C176.6405,204.3 176.7485,204.996 176.9645,205.602 C177.1805,206.208 177.482,206.7165 177.869,207.1275 C178.256,207.5385 178.715,207.8505 179.246,208.0635 C179.777,208.2765 180.3575,208.383 180.9875,208.383 Z M183.2645,202.704 L178.2785,202.704 C178.3865,201.912 178.664,201.2925 179.111,200.8455 C179.558,200.3985 180.1655,200.175 180.9335,200.175 C181.2995,200.175 181.6265,200.2365 181.9145,200.3595 C182.2025,200.4825 182.447,200.6565 182.648,200.8815 C182.849,201.1065 183.002,201.3735 183.107,201.6825 C183.212,201.9915 183.2645,202.332 183.2645,202.704 L183.2645,202.704 Z M189.0425,208.401 C189.6005,208.401 190.0925,208.326 190.5185,208.176 C190.9445,208.026 191.3045,207.8205 191.5985,207.5595 C191.8925,207.2985 192.1145,206.9895 192.2645,206.6325 C192.4145,206.2755 192.4895,205.887 192.4895,205.467 C192.4895,205.101 192.422,204.7875 192.287,204.5265 C192.152,204.2655 191.9735,204.045 191.7515,203.865 C191.5295,203.685 191.2775,203.535 190.9955,203.415 C190.7135,203.295 190.424,203.1855 190.127,203.0865 C189.83,202.9875 189.5405,202.8945 189.2585,202.8075 C188.9765,202.7205 188.7245,202.62 188.5025,202.506 C188.2805,202.392 188.102,202.257 187.967,202.101 C187.832,201.945 187.7645,201.75 187.7645,201.516 C187.7645,201.33 187.805,201.1575 187.886,200.9985 C187.967,200.8395 188.084,200.7 188.237,200.58 C188.39,200.46 188.5745,200.3655 188.7905,200.2965 C189.0065,200.2275 189.2495,200.193 189.5195,200.193 C189.8315,200.193 190.1015,200.2275 190.3295,200.2965 C190.5575,200.3655 190.754,200.4405 190.919,200.5215 C191.084,200.6025 191.2235,200.676 191.3375,200.742 C191.4515,200.808 191.5535,200.841 191.6435,200.841 C191.7935,200.841 191.9045,200.775 191.9765,200.643 L191.9765,200.643 L192.3365,200.058 C191.9885,199.728 191.576,199.4685 191.099,199.2795 C190.622,199.0905 190.0835,198.996 189.4835,198.996 C188.9675,198.996 188.5085,199.068 188.1065,199.212 C187.7045,199.356 187.3655,199.5495 187.0895,199.7925 C186.8135,200.0355 186.6035,200.3175 186.4595,200.6385 C186.3155,200.9595 186.2435,201.294 186.2435,201.642 C186.2435,202.032 186.311,202.3635 186.446,202.6365 C186.581,202.9095 186.7595,203.139 186.9815,203.325 C187.2035,203.511 187.457,203.6655 187.742,203.7885 C188.027,203.9115 188.318,204.021 188.615,204.117 C188.912,204.213 189.203,204.3045 189.488,204.3915 C189.773,204.4785 190.0265,204.5805 190.2485,204.6975 C190.4705,204.8145 190.649,204.9555 190.784,205.1205 C190.919,205.2855 190.9865,205.494 190.9865,205.746 C190.9865,205.95 190.949,206.142 190.874,206.322 C190.799,206.502 190.6835,206.661 190.5275,206.799 C190.3715,206.937 190.1765,207.0465 189.9425,207.1275 C189.7085,207.2085 189.4355,207.249 189.1235,207.249 C188.7575,207.249 188.4515,207.207 188.2055,207.123 C187.9595,207.039 187.751,206.946 187.58,206.844 C187.409,206.742 187.2635,206.649 187.1435,206.565 C187.0235,206.481 186.9095,206.439 186.8015,206.439 C186.6995,206.439 186.6155,206.46 186.5495,206.502 C186.4835,206.544 186.4265,206.604 186.3785,206.682 L186.3785,206.682 L186.0005,207.294 C186.3605,207.618 186.7985,207.8835 187.3145,208.0905 C187.8305,208.2975 188.4065,208.401 189.0425,208.401 Z M201.8855,208.257 C202.0715,208.257 202.1915,208.155 202.2455,207.951 L202.2455,207.951 L204.2975,201.777 C204.3455,201.633 204.3845,201.4905 204.4145,201.3495 C204.4445,201.2085 204.4745,201.069 204.5045,200.931 C204.5345,201.069 204.5645,201.2085 204.5945,201.3495 C204.6245,201.4905 204.6635,201.63 204.7115,201.768 L204.7115,201.768 L206.7275,207.951 C206.7875,208.155 206.8955,208.257 207.0515,208.257 L207.0515,208.257 L208.3205,208.257 L211.2725,199.14 L210.0665,199.14 C209.9525,199.14 209.8535,199.1715 209.7695,199.2345 C209.6855,199.2975 209.6285,199.377 209.5985,199.473 L209.5985,199.473 L207.8165,205.341 C207.7625,205.557 207.713,205.7655 207.668,205.9665 C207.623,206.1675 207.5855,206.367 207.5555,206.565 C207.5075,206.367 207.4565,206.166 207.4025,205.962 C207.3485,205.758 207.2885,205.551 207.2225,205.341 L207.2225,205.341 L205.3415,199.437 C205.3115,199.347 205.2575,199.272 205.1795,199.212 C205.1015,199.152 205.0025,199.122 204.8825,199.122 L204.8825,199.122 L204.1805,199.122 C204.0725,199.122 203.981,199.152 203.906,199.212 C203.831,199.272 203.7785,199.347 203.7485,199.437 L203.7485,199.437 L201.8225,205.341 C201.7565,205.551 201.695,205.758 201.638,205.962 C201.581,206.166 201.5255,206.367 201.4715,206.565 C201.4115,206.181 201.3305,205.773 201.2285,205.341 L201.2285,205.341 L199.4825,199.473 C199.4525,199.383 199.394,199.305 199.307,199.239 C199.22,199.173 199.1135,199.14 198.9875,199.14 L198.9875,199.14 L197.7275,199.14 L200.6795,208.257 L201.8855,208.257 Z M213.7115,197.412 C213.8675,197.412 214.016,197.382 214.157,197.322 C214.298,197.262 214.421,197.1795 214.526,197.0745 C214.631,196.9695 214.715,196.8495 214.778,196.7145 C214.841,196.5795 214.8725,196.434 214.8725,196.278 C214.8725,196.122 214.841,195.9735 214.778,195.8325 C214.715,195.6915 214.631,195.5685 214.526,195.4635 C214.421,195.3585 214.298,195.276 214.157,195.216 C214.016,195.156 213.8675,195.126 213.7115,195.126 C213.5555,195.126 213.41,195.156 213.275,195.216 C213.14,195.276 213.0215,195.3585 212.9195,195.4635 C212.8175,195.5685 212.7365,195.6915 212.6765,195.8325 C212.6165,195.9735 212.5865,196.122 212.5865,196.278 C212.5865,196.434 212.6165,196.5795 212.6765,196.7145 C212.7365,196.8495 212.8175,196.9695 212.9195,197.0745 C213.0215,197.1795 213.14,197.262 213.275,197.322 C213.41,197.382 213.5555,197.412 213.7115,197.412 Z M214.5305,208.257 L214.5305,199.14 L212.9285,199.14 L212.9285,208.257 L214.5305,208.257 Z M218.8145,208.257 L218.8145,195 L217.2125,195 L217.2125,208.257 L218.8145,208.257 Z M223.0625,208.257 L223.0625,195 L221.4605,195 L221.4605,208.257 L223.0625,208.257 Z M24.014,230.383 C24.344,230.383 24.668,230.356 24.986,230.302 C25.304,230.248 25.6085,230.1625 25.8995,230.0455 C26.1905,229.9285 26.462,229.783 26.714,229.609 C26.966,229.435 27.191,229.225 27.389,228.979 L27.389,228.979 L26.939,228.394 C26.867,228.292 26.765,228.241 26.633,228.241 C26.525,228.241 26.4155,228.2875 26.3045,228.3805 C26.1935,228.4735 26.0555,228.577 25.8905,228.691 C25.7255,228.805 25.517,228.9085 25.265,229.0015 C25.013,229.0945 24.692,229.141 24.302,229.141 C23.894,229.141 23.5265,229.0645 23.1995,228.9115 C22.8725,228.7585 22.5935,228.5365 22.3625,228.2455 C22.1315,227.9545 21.953,227.5945 21.827,227.1655 C21.701,226.7365 21.638,226.246 21.638,225.694 C21.638,225.166 21.6965,224.689 21.8135,224.263 C21.9305,223.837 22.1045,223.474 22.3355,223.174 C22.5665,222.874 22.853,222.6445 23.195,222.4855 C23.537,222.3265 23.933,222.247 24.383,222.247 C24.719,222.247 25.0025,222.2845 25.2335,222.3595 C25.4645,222.4345 25.6595,222.517 25.8185,222.607 C25.9775,222.697 26.111,222.7795 26.219,222.8545 C26.327,222.9295 26.426,222.967 26.516,222.967 C26.6,222.967 26.666,222.949 26.714,222.913 C26.762,222.877 26.81,222.826 26.858,222.76 L26.858,222.76 L27.281,222.184 C26.903,221.806 26.4695,221.5135 25.9805,221.3065 C25.4915,221.0995 24.926,220.996 24.284,220.996 C23.594,220.996 22.9835,221.113 22.4525,221.347 C21.9215,221.581 21.4745,221.9065 21.1115,222.3235 C20.7485,222.7405 20.4725,223.237 20.2835,223.813 C20.0945,224.389 20,225.016 20,225.694 C20,226.438 20.102,227.101 20.306,227.683 C20.51,228.265 20.792,228.7555 21.152,229.1545 C21.512,229.5535 21.9365,229.858 22.4255,230.068 C22.9145,230.278 23.444,230.383 24.014,230.383 Z M30.989,230.401 C31.337,230.401 31.6535,230.3695 31.9385,230.3065 C32.2235,230.2435 32.492,230.1535 32.744,230.0365 C32.996,229.9195 33.236,229.7755 33.464,229.6045 C33.692,229.4335 33.926,229.237 34.166,229.015 L34.166,229.015 L34.346,229.879 C34.394,230.029 34.46,230.1295 34.544,230.1805 C34.628,230.2315 34.748,230.257 34.904,230.257 L34.904,230.257 L35.615,230.257 L35.615,224.425 C35.615,223.915 35.546,223.447 35.408,223.021 C35.27,222.595 35.066,222.232 34.796,221.932 C34.526,221.632 34.193,221.398 33.797,221.23 C33.401,221.062 32.948,220.978 32.438,220.978 C31.73,220.978 31.085,221.098 30.503,221.338 C29.921,221.578 29.378,221.941 28.874,222.427 L28.874,222.427 L29.162,222.94 C29.216,223.024 29.282,223.0945 29.36,223.1515 C29.438,223.2085 29.531,223.237 29.639,223.237 C29.777,223.237 29.9165,223.1875 30.0575,223.0885 C30.1985,222.9895 30.3665,222.8785 30.5615,222.7555 C30.7565,222.6325 30.9875,222.5215 31.2545,222.4225 C31.5215,222.3235 31.853,222.274 32.249,222.274 C32.837,222.274 33.284,222.4555 33.59,222.8185 C33.896,223.1815 34.049,223.717 34.049,224.425 L34.049,224.425 L34.049,225.136 C33.011,225.16 32.135,225.2545 31.421,225.4195 C30.707,225.5845 30.128,225.796 29.684,226.054 C29.24,226.312 28.919,226.6075 28.721,226.9405 C28.523,227.2735 28.424,227.62 28.424,227.98 C28.424,228.394 28.4915,228.7525 28.6265,229.0555 C28.7615,229.3585 28.9445,229.609 29.1755,229.807 C29.4065,230.005 29.678,230.1535 29.99,230.2525 C30.302,230.3515 30.635,230.401 30.989,230.401 Z M31.466,229.276 C31.256,229.276 31.0595,229.2505 30.8765,229.1995 C30.6935,229.1485 30.5345,229.0675 30.3995,228.9565 C30.2645,228.8455 30.158,228.703 30.08,228.529 C30.002,228.355 29.963,228.148 29.963,227.908 C29.963,227.656 30.0365,227.428 30.1835,227.224 C30.3305,227.02 30.5675,226.843 30.8945,226.693 C31.2215,226.543 31.6445,226.4215 32.1635,226.3285 C32.6825,226.2355 33.311,226.177 34.049,226.153 L34.049,226.153 L34.049,228.043 C33.869,228.235 33.6845,228.406 33.4955,228.556 C33.3065,228.706 33.1085,228.835 32.9015,228.943 C32.6945,229.051 32.474,229.1335 32.24,229.1905 C32.006,229.2475 31.748,229.276 31.466,229.276 Z M40.43,230.401 C40.988,230.401 41.48,230.326 41.906,230.176 C42.332,230.026 42.692,229.8205 42.986,229.5595 C43.28,229.2985 43.502,228.9895 43.652,228.6325 C43.802,228.2755 43.877,227.887 43.877,227.467 C43.877,227.101 43.8095,226.7875 43.6745,226.5265 C43.5395,226.2655 43.361,226.045 43.139,225.865 C42.917,225.685 42.665,225.535 42.383,225.415 C42.101,225.295 41.8115,225.1855 41.5145,225.0865 C41.2175,224.9875 40.928,224.8945 40.646,224.8075 C40.364,224.7205 40.112,224.62 39.89,224.506 C39.668,224.392 39.4895,224.257 39.3545,224.101 C39.2195,223.945 39.152,223.75 39.152,223.516 C39.152,223.33 39.1925,223.1575 39.2735,222.9985 C39.3545,222.8395 39.4715,222.7 39.6245,222.58 C39.7775,222.46 39.962,222.3655 40.178,222.2965 C40.394,222.2275 40.637,222.193 40.907,222.193 C41.219,222.193 41.489,222.2275 41.717,222.2965 C41.945,222.3655 42.1415,222.4405 42.3065,222.5215 C42.4715,222.6025 42.611,222.676 42.725,222.742 C42.839,222.808 42.941,222.841 43.031,222.841 C43.181,222.841 43.292,222.775 43.364,222.643 L43.364,222.643 L43.724,222.058 C43.376,221.728 42.9635,221.4685 42.4865,221.2795 C42.0095,221.0905 41.471,220.996 40.871,220.996 C40.355,220.996 39.896,221.068 39.494,221.212 C39.092,221.356 38.753,221.5495 38.477,221.7925 C38.201,222.0355 37.991,222.3175 37.847,222.6385 C37.703,222.9595 37.631,223.294 37.631,223.642 C37.631,224.032 37.6985,224.3635 37.8335,224.6365 C37.9685,224.9095 38.147,225.139 38.369,225.325 C38.591,225.511 38.8445,225.6655 39.1295,225.7885 C39.4145,225.9115 39.7055,226.021 40.0025,226.117 C40.2995,226.213 40.5905,226.3045 40.8755,226.3915 C41.1605,226.4785 41.414,226.5805 41.636,226.6975 C41.858,226.8145 42.0365,226.9555 42.1715,227.1205 C42.3065,227.2855 42.374,227.494 42.374,227.746 C42.374,227.95 42.3365,228.142 42.2615,228.322 C42.1865,228.502 42.071,228.661 41.915,228.799 C41.759,228.937 41.564,229.0465 41.33,229.1275 C41.096,229.2085 40.823,229.249 40.511,229.249 C40.145,229.249 39.839,229.207 39.593,229.123 C39.347,229.039 39.1385,228.946 38.9675,228.844 C38.7965,228.742 38.651,228.649 38.531,228.565 C38.411,228.481 38.297,228.439 38.189,228.439 C38.087,228.439 38.003,228.46 37.937,228.502 C37.871,228.544 37.814,228.604 37.766,228.682 L37.766,228.682 L37.388,229.294 C37.748,229.618 38.186,229.8835 38.702,230.0905 C39.218,230.2975 39.794,230.401 40.43,230.401 Z M49.349,230.383 C49.679,230.383 50.003,230.356 50.321,230.302 C50.639,230.248 50.9435,230.1625 51.2345,230.0455 C51.5255,229.9285 51.797,229.783 52.049,229.609 C52.301,229.435 52.526,229.225 52.724,228.979 L52.724,228.979 L52.274,228.394 C52.202,228.292 52.1,228.241 51.968,228.241 C51.86,228.241 51.7505,228.2875 51.6395,228.3805 C51.5285,228.4735 51.3905,228.577 51.2255,228.691 C51.0605,228.805 50.852,228.9085 50.6,229.0015 C50.348,229.0945 50.027,229.141 49.637,229.141 C49.229,229.141 48.8615,229.0645 48.5345,228.9115 C48.2075,228.7585 47.9285,228.5365 47.6975,228.2455 C47.4665,227.9545 47.288,227.5945 47.162,227.1655 C47.036,226.7365 46.973,226.246 46.973,225.694 C46.973,225.166 47.0315,224.689 47.1485,224.263 C47.2655,223.837 47.4395,223.474 47.6705,223.174 C47.9015,222.874 48.188,222.6445 48.53,222.4855 C48.872,222.3265 49.268,222.247 49.718,222.247 C50.054,222.247 50.3375,222.2845 50.5685,222.3595 C50.7995,222.4345 50.9945,222.517 51.1535,222.607 C51.3125,222.697 51.446,222.7795 51.554,222.8545 C51.662,222.9295 51.761,222.967 51.851,222.967 C51.935,222.967 52.001,222.949 52.049,222.913 C52.097,222.877 52.145,222.826 52.193,222.76 L52.193,222.76 L52.616,222.184 C52.238,221.806 51.8045,221.5135 51.3155,221.3065 C50.8265,221.0995 50.261,220.996 49.619,220.996 C48.929,220.996 48.3185,221.113 47.7875,221.347 C47.2565,221.581 46.8095,221.9065 46.4465,222.3235 C46.0835,222.7405 45.8075,223.237 45.6185,223.813 C45.4295,224.389 45.335,225.016 45.335,225.694 C45.335,226.438 45.437,227.101 45.641,227.683 C45.845,228.265 46.127,228.7555 46.487,229.1545 C46.847,229.5535 47.2715,229.858 47.7605,230.068 C48.2495,230.278 48.779,230.383 49.349,230.383 Z M56.324,230.401 C56.672,230.401 56.9885,230.3695 57.2735,230.3065 C57.5585,230.2435 57.827,230.1535 58.079,230.0365 C58.331,229.9195 58.571,229.7755 58.799,229.6045 C59.027,229.4335 59.261,229.237 59.501,229.015 L59.501,229.015 L59.681,229.879 C59.729,230.029 59.795,230.1295 59.879,230.1805 C59.963,230.2315 60.083,230.257 60.239,230.257 L60.239,230.257 L60.95,230.257 L60.95,224.425 C60.95,223.915 60.881,223.447 60.743,223.021 C60.605,222.595 60.401,222.232 60.131,221.932 C59.861,221.632 59.528,221.398 59.132,221.23 C58.736,221.062 58.283,220.978 57.773,220.978 C57.065,220.978 56.42,221.098 55.838,221.338 C55.256,221.578 54.713,221.941 54.209,222.427 L54.209,222.427 L54.497,222.94 C54.551,223.024 54.617,223.0945 54.695,223.1515 C54.773,223.2085 54.866,223.237 54.974,223.237 C55.112,223.237 55.2515,223.1875 55.3925,223.0885 C55.5335,222.9895 55.7015,222.8785 55.8965,222.7555 C56.0915,222.6325 56.3225,222.5215 56.5895,222.4225 C56.8565,222.3235 57.188,222.274 57.584,222.274 C58.172,222.274 58.619,222.4555 58.925,222.8185 C59.231,223.1815 59.384,223.717 59.384,224.425 L59.384,224.425 L59.384,225.136 C58.346,225.16 57.47,225.2545 56.756,225.4195 C56.042,225.5845 55.463,225.796 55.019,226.054 C54.575,226.312 54.254,226.6075 54.056,226.9405 C53.858,227.2735 53.759,227.62 53.759,227.98 C53.759,228.394 53.8265,228.7525 53.9615,229.0555 C54.0965,229.3585 54.2795,229.609 54.5105,229.807 C54.7415,230.005 55.013,230.1535 55.325,230.2525 C55.637,230.3515 55.97,230.401 56.324,230.401 Z M56.801,229.276 C56.591,229.276 56.3945,229.2505 56.2115,229.1995 C56.0285,229.1485 55.8695,229.0675 55.7345,228.9565 C55.5995,228.8455 55.493,228.703 55.415,228.529 C55.337,228.355 55.298,228.148 55.298,227.908 C55.298,227.656 55.3715,227.428 55.5185,227.224 C55.6655,227.02 55.9025,226.843 56.2295,226.693 C56.5565,226.543 56.9795,226.4215 57.4985,226.3285 C58.0175,226.2355 58.646,226.177 59.384,226.153 L59.384,226.153 L59.384,228.043 C59.204,228.235 59.0195,228.406 58.8305,228.556 C58.6415,228.706 58.4435,228.835 58.2365,228.943 C58.0295,229.051 57.809,229.1335 57.575,229.1905 C57.341,229.2475 57.083,229.276 56.801,229.276 Z M66.341,230.383 C66.995,230.383 67.571,230.239 68.069,229.951 C68.567,229.663 69.011,229.285 69.401,228.817 L69.401,228.817 L69.545,229.924 C69.605,230.146 69.749,230.257 69.977,230.257 L69.977,230.257 L70.931,230.257 L70.931,217 L69.329,217 L69.329,222.049 C69.017,221.713 68.6615,221.4505 68.2625,221.2615 C67.8635,221.0725 67.385,220.978 66.827,220.978 C66.215,220.978 65.6645,221.0995 65.1755,221.3425 C64.6865,221.5855 64.274,221.92 63.938,222.346 C63.602,222.772 63.344,223.2745 63.164,223.8535 C62.984,224.4325 62.894,225.058 62.894,225.73 C62.894,226.486 62.975,227.155 63.137,227.737 C63.299,228.319 63.53,228.805 63.83,229.195 C64.13,229.585 64.493,229.8805 64.919,230.0815 C65.345,230.2825 65.819,230.383 66.341,230.383 Z M66.863,229.087 C66.497,229.087 66.17,229.024 65.882,228.898 C65.594,228.772 65.351,228.5725 65.153,228.2995 C64.955,228.0265 64.805,227.6785 64.703,227.2555 C64.601,226.8325 64.55,226.324 64.55,225.73 C64.55,224.608 64.778,223.744 65.234,223.138 C65.69,222.532 66.341,222.229 67.187,222.229 C67.619,222.229 68.009,222.3085 68.357,222.4675 C68.705,222.6265 69.029,222.907 69.329,223.309 L69.329,223.309 L69.329,227.71 C68.999,228.148 68.6375,228.487 68.2445,228.727 C67.8515,228.967 67.391,229.087 66.863,229.087 Z M77.294,230.383 C77.624,230.383 77.957,230.3545 78.293,230.2975 C78.629,230.2405 78.9545,230.155 79.2695,230.041 C79.5845,229.927 79.88,229.7815 80.156,229.6045 C80.432,229.4275 80.669,229.219 80.867,228.979 L80.867,228.979 L80.417,228.394 C80.345,228.292 80.243,228.241 80.111,228.241 C80.009,228.241 79.8875,228.2875 79.7465,228.3805 C79.6055,228.4735 79.43,228.574 79.22,228.682 C79.01,228.79 78.7595,228.8905 78.4685,228.9835 C78.1775,229.0765 77.831,229.123 77.429,229.123 C76.997,229.123 76.607,229.0525 76.259,228.9115 C75.911,228.7705 75.611,228.5575 75.359,228.2725 C75.107,227.9875 74.9105,227.632 74.7695,227.206 C74.6285,226.78 74.549,226.279 74.531,225.703 L74.531,225.703 L80.624,225.703 C80.774,225.703 80.876,225.661 80.93,225.577 C80.984,225.493 81.011,225.325 81.011,225.073 C81.011,224.425 80.915,223.8475 80.723,223.3405 C80.531,222.8335 80.2655,222.4075 79.9265,222.0625 C79.5875,221.7175 79.1855,221.4535 78.7205,221.2705 C78.2555,221.0875 77.75,220.996 77.204,220.996 C76.544,220.996 75.95,221.1115 75.422,221.3425 C74.894,221.5735 74.447,221.8915 74.081,222.2965 C73.715,222.7015 73.4345,223.18 73.2395,223.732 C73.0445,224.284 72.947,224.878 72.947,225.514 C72.947,226.3 73.055,226.996 73.271,227.602 C73.487,228.208 73.7885,228.7165 74.1755,229.1275 C74.5625,229.5385 75.0215,229.8505 75.5525,230.0635 C76.0835,230.2765 76.664,230.383 77.294,230.383 Z M79.571,224.704 L74.585,224.704 C74.693,223.912 74.9705,223.2925 75.4175,222.8455 C75.8645,222.3985 76.472,222.175 77.24,222.175 C77.606,222.175 77.933,222.2365 78.221,222.3595 C78.509,222.4825 78.7535,222.6565 78.9545,222.8815 C79.1555,223.1065 79.3085,223.3735 79.4135,223.6825 C79.5185,223.9915 79.571,224.332 79.571,224.704 L79.571,224.704 Z M90.533,230.383 C91.187,230.383 91.763,230.239 92.261,229.951 C92.759,229.663 93.203,229.285 93.593,228.817 L93.593,228.817 L93.737,229.924 C93.797,230.146 93.941,230.257 94.169,230.257 L94.169,230.257 L95.123,230.257 L95.123,217 L93.521,217 L93.521,222.049 C93.209,221.713 92.8535,221.4505 92.4545,221.2615 C92.0555,221.0725 91.577,220.978 91.019,220.978 C90.407,220.978 89.8565,221.0995 89.3675,221.3425 C88.8785,221.5855 88.466,221.92 88.13,222.346 C87.794,222.772 87.536,223.2745 87.356,223.8535 C87.176,224.4325 87.086,225.058 87.086,225.73 C87.086,226.486 87.167,227.155 87.329,227.737 C87.491,228.319 87.722,228.805 88.022,229.195 C88.322,229.585 88.685,229.8805 89.111,230.0815 C89.537,230.2825 90.011,230.383 90.533,230.383 Z M91.055,229.087 C90.689,229.087 90.362,229.024 90.074,228.898 C89.786,228.772 89.543,228.5725 89.345,228.2995 C89.147,228.0265 88.997,227.6785 88.895,227.2555 C88.793,226.8325 88.742,226.324 88.742,225.73 C88.742,224.608 88.97,223.744 89.426,223.138 C89.882,222.532 90.533,222.229 91.379,222.229 C91.811,222.229 92.201,222.3085 92.549,222.4675 C92.897,222.6265 93.221,222.907 93.521,223.309 L93.521,223.309 L93.521,227.71 C93.191,228.148 92.8295,228.487 92.4365,228.727 C92.0435,228.967 91.583,229.087 91.055,229.087 Z M101.504,230.383 C102.17,230.383 102.77,230.2735 103.304,230.0545 C103.838,229.8355 104.294,229.522 104.672,229.114 C105.05,228.706 105.3395,228.214 105.5405,227.638 C105.7415,227.062 105.842,226.414 105.842,225.694 C105.842,224.98 105.7415,224.3335 105.5405,223.7545 C105.3395,223.1755 105.05,222.682 104.672,222.274 C104.294,221.866 103.838,221.551 103.304,221.329 C102.77,221.107 102.17,220.996 101.504,220.996 C100.832,220.996 100.2275,221.107 99.6905,221.329 C99.1535,221.551 98.696,221.866 98.318,222.274 C97.94,222.682 97.6505,223.1755 97.4495,223.7545 C97.2485,224.3335 97.148,224.98 97.148,225.694 C97.148,226.414 97.2485,227.062 97.4495,227.638 C97.6505,228.214 97.94,228.706 98.318,229.114 C98.696,229.522 99.1535,229.8355 99.6905,230.0545 C100.2275,230.2735 100.832,230.383 101.504,230.383 Z M101.504,229.132 C100.592,229.132 99.9125,228.8305 99.4655,228.2275 C99.0185,227.6245 98.795,226.783 98.795,225.703 C98.795,225.163 98.8505,224.6785 98.9615,224.2495 C99.0725,223.8205 99.2405,223.459 99.4655,223.165 C99.6905,222.871 99.9725,222.646 100.3115,222.49 C100.6505,222.334 101.048,222.256 101.504,222.256 C102.404,222.256 103.076,222.559 103.52,223.165 C103.964,223.771 104.186,224.617 104.186,225.703 C104.186,226.783 103.964,227.6245 103.52,228.2275 C103.076,228.8305 102.404,229.132 101.504,229.132 Z M110.918,230.257 C111.104,230.257 111.224,230.155 111.278,229.951 L111.278,229.951 L113.33,223.777 C113.378,223.633 113.417,223.4905 113.447,223.3495 C113.477,223.2085 113.507,223.069 113.537,222.931 C113.567,223.069 113.597,223.2085 113.627,223.3495 C113.657,223.4905 113.696,223.63 113.744,223.768 L113.744,223.768 L115.76,229.951 C115.82,230.155 115.928,230.257 116.084,230.257 L116.084,230.257 L117.353,230.257 L120.305,221.14 L119.099,221.14 C118.985,221.14 118.886,221.1715 118.802,221.2345 C118.718,221.2975 118.661,221.377 118.631,221.473 L118.631,221.473 L116.849,227.341 C116.795,227.557 116.7455,227.7655 116.7005,227.9665 C116.6555,228.1675 116.618,228.367 116.588,228.565 C116.54,228.367 116.489,228.166 116.435,227.962 C116.381,227.758 116.321,227.551 116.255,227.341 L116.255,227.341 L114.374,221.437 C114.344,221.347 114.29,221.272 114.212,221.212 C114.134,221.152 114.035,221.122 113.915,221.122 L113.915,221.122 L113.213,221.122 C113.105,221.122 113.0135,221.152 112.9385,221.212 C112.8635,221.272 112.811,221.347 112.781,221.437 L112.781,221.437 L110.855,227.341 C110.789,227.551 110.7275,227.758 110.6705,227.962 C110.6135,228.166 110.558,228.367 110.504,228.565 C110.444,228.181 110.363,227.773 110.261,227.341 L110.261,227.341 L108.515,221.473 C108.485,221.383 108.4265,221.305 108.3395,221.239 C108.2525,221.173 108.146,221.14 108.02,221.14 L108.02,221.14 L106.76,221.14 L109.712,230.257 L110.918,230.257 Z M123.482,230.257 L123.482,223.543 C123.83,223.153 124.2095,222.844 124.6205,222.616 C125.0315,222.388 125.474,222.274 125.948,222.274 C126.59,222.274 127.0685,222.4645 127.3835,222.8455 C127.6985,223.2265 127.856,223.762 127.856,224.452 L127.856,224.452 L127.856,230.257 L129.467,230.257 L129.467,224.452 C129.467,223.936 129.401,223.465 129.269,223.039 C129.137,222.613 128.9435,222.2485 128.6885,221.9455 C128.4335,221.6425 128.1155,221.4085 127.7345,221.2435 C127.3535,221.0785 126.914,220.996 126.416,220.996 C126.092,220.996 125.7905,221.0305 125.5115,221.0995 C125.2325,221.1685 124.9685,221.2675 124.7195,221.3965 C124.4705,221.5255 124.235,221.68 124.013,221.86 C123.791,222.04 123.581,222.241 123.383,222.463 L123.383,222.463 L123.257,221.473 C123.203,221.251 123.062,221.14 122.834,221.14 L122.834,221.14 L121.871,221.14 L121.871,230.257 L123.482,230.257 Z M139.322,230.401 C139.736,230.401 140.138,230.3275 140.528,230.1805 C140.918,230.0335 141.251,229.831 141.527,229.573 L141.527,229.573 L141.059,228.808 C140.993,228.706 140.918,228.655 140.834,228.655 C140.786,228.655 140.7305,228.6775 140.6675,228.7225 C140.6045,228.7675 140.528,228.817 140.438,228.871 C140.348,228.925 140.2415,228.9745 140.1185,229.0195 C139.9955,229.0645 139.85,229.087 139.682,229.087 C139.388,229.087 139.148,228.994 138.962,228.808 C138.776,228.622 138.683,228.337 138.683,227.953 L138.683,227.953 L138.683,222.481 L141.32,222.481 L141.32,221.32 L138.683,221.32 L138.683,218.179 L137.873,218.179 C137.771,218.179 137.6885,218.2075 137.6255,218.2645 C137.5625,218.3215 137.522,218.395 137.504,218.485 L137.504,218.485 L137.135,221.302 L135.641,221.491 L135.641,222.13 C135.641,222.25 135.674,222.3385 135.74,222.3955 C135.806,222.4525 135.887,222.481 135.983,222.481 L135.983,222.481 L137.081,222.481 L137.081,228.061 C137.081,228.817 137.2745,229.396 137.6615,229.798 C138.0485,230.2 138.602,230.401 139.322,230.401 Z M144.587,230.257 L144.587,223.543 C144.935,223.153 145.3145,222.844 145.7255,222.616 C146.1365,222.388 146.579,222.274 147.053,222.274 C147.695,222.274 148.1735,222.4645 148.4885,222.8455 C148.8035,223.2265 148.961,223.762 148.961,224.452 L148.961,224.452 L148.961,230.257 L150.572,230.257 L150.572,224.452 C150.572,223.936 150.506,223.465 150.374,223.039 C150.242,222.613 150.0485,222.2485 149.7935,221.9455 C149.5385,221.6425 149.2205,221.4085 148.8395,221.2435 C148.4585,221.0785 148.019,220.996 147.521,220.996 C146.903,220.996 146.357,221.119 145.883,221.365 C145.409,221.611 144.977,221.941 144.587,222.355 L144.587,222.355 L144.587,217 L142.976,217 L142.976,230.257 L144.587,230.257 Z M156.845,230.383 C157.175,230.383 157.508,230.3545 157.844,230.2975 C158.18,230.2405 158.5055,230.155 158.8205,230.041 C159.1355,229.927 159.431,229.7815 159.707,229.6045 C159.983,229.4275 160.22,229.219 160.418,228.979 L160.418,228.979 L159.968,228.394 C159.896,228.292 159.794,228.241 159.662,228.241 C159.56,228.241 159.4385,228.2875 159.2975,228.3805 C159.1565,228.4735 158.981,228.574 158.771,228.682 C158.561,228.79 158.3105,228.8905 158.0195,228.9835 C157.7285,229.0765 157.382,229.123 156.98,229.123 C156.548,229.123 156.158,229.0525 155.81,228.9115 C155.462,228.7705 155.162,228.5575 154.91,228.2725 C154.658,227.9875 154.4615,227.632 154.3205,227.206 C154.1795,226.78 154.1,226.279 154.082,225.703 L154.082,225.703 L160.175,225.703 C160.325,225.703 160.427,225.661 160.481,225.577 C160.535,225.493 160.562,225.325 160.562,225.073 C160.562,224.425 160.466,223.8475 160.274,223.3405 C160.082,222.8335 159.8165,222.4075 159.4775,222.0625 C159.1385,221.7175 158.7365,221.4535 158.2715,221.2705 C157.8065,221.0875 157.301,220.996 156.755,220.996 C156.095,220.996 155.501,221.1115 154.973,221.3425 C154.445,221.5735 153.998,221.8915 153.632,222.2965 C153.266,222.7015 152.9855,223.18 152.7905,223.732 C152.5955,224.284 152.498,224.878 152.498,225.514 C152.498,226.3 152.606,226.996 152.822,227.602 C153.038,228.208 153.3395,228.7165 153.7265,229.1275 C154.1135,229.5385 154.5725,229.8505 155.1035,230.0635 C155.6345,230.2765 156.215,230.383 156.845,230.383 Z M159.122,224.704 L154.136,224.704 C154.244,223.912 154.5215,223.2925 154.9685,222.8455 C155.4155,222.3985 156.023,222.175 156.791,222.175 C157.157,222.175 157.484,222.2365 157.772,222.3595 C158.06,222.4825 158.3045,222.6565 158.5055,222.8815 C158.7065,223.1065 158.8595,223.3735 158.9645,223.6825 C159.0695,223.9915 159.122,224.332 159.122,224.704 L159.122,224.704 Z M169.949,230.257 C170.135,230.257 170.255,230.155 170.309,229.951 L170.309,229.951 L172.361,223.777 C172.409,223.633 172.448,223.4905 172.478,223.3495 C172.508,223.2085 172.538,223.069 172.568,222.931 C172.598,223.069 172.628,223.2085 172.658,223.3495 C172.688,223.4905 172.727,223.63 172.775,223.768 L172.775,223.768 L174.791,229.951 C174.851,230.155 174.959,230.257 175.115,230.257 L175.115,230.257 L176.384,230.257 L179.336,221.14 L178.13,221.14 C178.016,221.14 177.917,221.1715 177.833,221.2345 C177.749,221.2975 177.692,221.377 177.662,221.473 L177.662,221.473 L175.88,227.341 C175.826,227.557 175.7765,227.7655 175.7315,227.9665 C175.6865,228.1675 175.649,228.367 175.619,228.565 C175.571,228.367 175.52,228.166 175.466,227.962 C175.412,227.758 175.352,227.551 175.286,227.341 L175.286,227.341 L173.405,221.437 C173.375,221.347 173.321,221.272 173.243,221.212 C173.165,221.152 173.066,221.122 172.946,221.122 L172.946,221.122 L172.244,221.122 C172.136,221.122 172.0445,221.152 171.9695,221.212 C171.8945,221.272 171.842,221.347 171.812,221.437 L171.812,221.437 L169.886,227.341 C169.82,227.551 169.7585,227.758 169.7015,227.962 C169.6445,228.166 169.589,228.367 169.535,228.565 C169.475,228.181 169.394,227.773 169.292,227.341 L169.292,227.341 L167.546,221.473 C167.516,221.383 167.4575,221.305 167.3705,221.239 C167.2835,221.173 167.177,221.14 167.051,221.14 L167.051,221.14 L165.791,221.14 L168.743,230.257 L169.949,230.257 Z M182.513,230.257 L182.513,223.543 C182.861,223.153 183.2405,222.844 183.6515,222.616 C184.0625,222.388 184.505,222.274 184.979,222.274 C185.621,222.274 186.0995,222.4645 186.4145,222.8455 C186.7295,223.2265 186.887,223.762 186.887,224.452 L186.887,224.452 L186.887,230.257 L188.498,230.257 L188.498,224.452 C188.498,223.936 188.432,223.465 188.3,223.039 C188.168,222.613 187.9745,222.2485 187.7195,221.9455 C187.4645,221.6425 187.1465,221.4085 186.7655,221.2435 C186.3845,221.0785 185.945,220.996 185.447,220.996 C184.829,220.996 184.283,221.119 183.809,221.365 C183.335,221.611 182.903,221.941 182.513,222.355 L182.513,222.355 L182.513,217 L180.902,217 L180.902,230.257 L182.513,230.257 Z M194.789,230.383 C195.455,230.383 196.055,230.2735 196.589,230.0545 C197.123,229.8355 197.579,229.522 197.957,229.114 C198.335,228.706 198.6245,228.214 198.8255,227.638 C199.0265,227.062 199.127,226.414 199.127,225.694 C199.127,224.98 199.0265,224.3335 198.8255,223.7545 C198.6245,223.1755 198.335,222.682 197.957,222.274 C197.579,221.866 197.123,221.551 196.589,221.329 C196.055,221.107 195.455,220.996 194.789,220.996 C194.117,220.996 193.5125,221.107 192.9755,221.329 C192.4385,221.551 191.981,221.866 191.603,222.274 C191.225,222.682 190.9355,223.1755 190.7345,223.7545 C190.5335,224.3335 190.433,224.98 190.433,225.694 C190.433,226.414 190.5335,227.062 190.7345,227.638 C190.9355,228.214 191.225,228.706 191.603,229.114 C191.981,229.522 192.4385,229.8355 192.9755,230.0545 C193.5125,230.2735 194.117,230.383 194.789,230.383 Z M194.789,229.132 C193.877,229.132 193.1975,228.8305 192.7505,228.2275 C192.3035,227.6245 192.08,226.783 192.08,225.703 C192.08,225.163 192.1355,224.6785 192.2465,224.2495 C192.3575,223.8205 192.5255,223.459 192.7505,223.165 C192.9755,222.871 193.2575,222.646 193.5965,222.49 C193.9355,222.334 194.333,222.256 194.789,222.256 C195.689,222.256 196.361,222.559 196.805,223.165 C197.249,223.771 197.471,224.617 197.471,225.703 C197.471,226.783 197.249,227.6245 196.805,228.2275 C196.361,228.8305 195.689,229.132 194.789,229.132 Z M202.808,230.257 L202.808,217 L201.206,217 L201.206,230.257 L202.808,230.257 Z M209.225,230.383 C209.555,230.383 209.888,230.3545 210.224,230.2975 C210.56,230.2405 210.8855,230.155 211.2005,230.041 C211.5155,229.927 211.811,229.7815 212.087,229.6045 C212.363,229.4275 212.6,229.219 212.798,228.979 L212.798,228.979 L212.348,228.394 C212.276,228.292 212.174,228.241 212.042,228.241 C211.94,228.241 211.8185,228.2875 211.6775,228.3805 C211.5365,228.4735 211.361,228.574 211.151,228.682 C210.941,228.79 210.6905,228.8905 210.3995,228.9835 C210.1085,229.0765 209.762,229.123 209.36,229.123 C208.928,229.123 208.538,229.0525 208.19,228.9115 C207.842,228.7705 207.542,228.5575 207.29,228.2725 C207.038,227.9875 206.8415,227.632 206.7005,227.206 C206.5595,226.78 206.48,226.279 206.462,225.703 L206.462,225.703 L212.555,225.703 C212.705,225.703 212.807,225.661 212.861,225.577 C212.915,225.493 212.942,225.325 212.942,225.073 C212.942,224.425 212.846,223.8475 212.654,223.3405 C212.462,222.8335 212.1965,222.4075 211.8575,222.0625 C211.5185,221.7175 211.1165,221.4535 210.6515,221.2705 C210.1865,221.0875 209.681,220.996 209.135,220.996 C208.475,220.996 207.881,221.1115 207.353,221.3425 C206.825,221.5735 206.378,221.8915 206.012,222.2965 C205.646,222.7015 205.3655,223.18 205.1705,223.732 C204.9755,224.284 204.878,224.878 204.878,225.514 C204.878,226.3 204.986,226.996 205.202,227.602 C205.418,228.208 205.7195,228.7165 206.1065,229.1275 C206.4935,229.5385 206.9525,229.8505 207.4835,230.0635 C208.0145,230.2765 208.595,230.383 209.225,230.383 Z M211.502,224.704 L206.516,224.704 C206.624,223.912 206.9015,223.2925 207.3485,222.8455 C207.7955,222.3985 208.403,222.175 209.171,222.175 C209.537,222.175 209.864,222.2365 210.152,222.3595 C210.44,222.4825 210.6845,222.6565 210.8855,222.8815 C211.0865,223.1065 211.2395,223.3735 211.3445,223.6825 C211.4495,223.9915 211.502,224.332 211.502,224.704 L211.502,224.704 Z M221.888,230.401 C222.446,230.401 222.938,230.326 223.364,230.176 C223.79,230.026 224.15,229.8205 224.444,229.5595 C224.738,229.2985 224.96,228.9895 225.11,228.6325 C225.26,228.2755 225.335,227.887 225.335,227.467 C225.335,227.101 225.2675,226.7875 225.1325,226.5265 C224.9975,226.2655 224.819,226.045 224.597,225.865 C224.375,225.685 224.123,225.535 223.841,225.415 C223.559,225.295 223.2695,225.1855 222.9725,225.0865 C222.6755,224.9875 222.386,224.8945 222.104,224.8075 C221.822,224.7205 221.57,224.62 221.348,224.506 C221.126,224.392 220.9475,224.257 220.8125,224.101 C220.6775,223.945 220.61,223.75 220.61,223.516 C220.61,223.33 220.6505,223.1575 220.7315,222.9985 C220.8125,222.8395 220.9295,222.7 221.0825,222.58 C221.2355,222.46 221.42,222.3655 221.636,222.2965 C221.852,222.2275 222.095,222.193 222.365,222.193 C222.677,222.193 222.947,222.2275 223.175,222.2965 C223.403,222.3655 223.5995,222.4405 223.7645,222.5215 C223.9295,222.6025 224.069,222.676 224.183,222.742 C224.297,222.808 224.399,222.841 224.489,222.841 C224.639,222.841 224.75,222.775 224.822,222.643 L224.822,222.643 L225.182,222.058 C224.834,221.728 224.4215,221.4685 223.9445,221.2795 C223.4675,221.0905 222.929,220.996 222.329,220.996 C221.813,220.996 221.354,221.068 220.952,221.212 C220.55,221.356 220.211,221.5495 219.935,221.7925 C219.659,222.0355 219.449,222.3175 219.305,222.6385 C219.161,222.9595 219.089,223.294 219.089,223.642 C219.089,224.032 219.1565,224.3635 219.2915,224.6365 C219.4265,224.9095 219.605,225.139 219.827,225.325 C220.049,225.511 220.3025,225.6655 220.5875,225.7885 C220.8725,225.9115 221.1635,226.021 221.4605,226.117 C221.7575,226.213 222.0485,226.3045 222.3335,226.3915 C222.6185,226.4785 222.872,226.5805 223.094,226.6975 C223.316,226.8145 223.4945,226.9555 223.6295,227.1205 C223.7645,227.2855 223.832,227.494 223.832,227.746 C223.832,227.95 223.7945,228.142 223.7195,228.322 C223.6445,228.502 223.529,228.661 223.373,228.799 C223.217,228.937 223.022,229.0465 222.788,229.1275 C222.554,229.2085 222.281,229.249 221.969,229.249 C221.603,229.249 221.297,229.207 221.051,229.123 C220.805,229.039 220.5965,228.946 220.4255,228.844 C220.2545,228.742 220.109,228.649 219.989,228.565 C219.869,228.481 219.755,228.439 219.647,228.439 C219.545,228.439 219.461,228.46 219.395,228.502 C219.329,228.544 219.272,228.604 219.224,228.682 L219.224,228.682 L218.846,229.294 C219.206,229.618 219.644,229.8835 220.16,230.0905 C220.676,230.2975 221.252,230.401 221.888,230.401 Z M228.179,219.412 C228.335,219.412 228.4835,219.382 228.6245,219.322 C228.7655,219.262 228.8885,219.1795 228.9935,219.0745 C229.0985,218.9695 229.1825,218.8495 229.2455,218.7145 C229.3085,218.5795 229.34,218.434 229.34,218.278 C229.34,218.122 229.3085,217.9735 229.2455,217.8325 C229.1825,217.6915 229.0985,217.5685 228.9935,217.4635 C228.8885,217.3585 228.7655,217.276 228.6245,217.216 C228.4835,217.156 228.335,217.126 228.179,217.126 C228.023,217.126 227.8775,217.156 227.7425,217.216 C227.6075,217.276 227.489,217.3585 227.387,217.4635 C227.285,217.5685 227.204,217.6915 227.144,217.8325 C227.084,217.9735 227.054,218.122 227.054,218.278 C227.054,218.434 227.084,218.5795 227.144,218.7145 C227.204,218.8495 227.285,218.9695 227.387,219.0745 C227.489,219.1795 227.6075,219.262 227.7425,219.322 C227.8775,219.382 228.023,219.412 228.179,219.412 Z M228.998,230.257 L228.998,221.14 L227.396,221.14 L227.396,230.257 L228.998,230.257 Z M234.425,230.401 C234.839,230.401 235.241,230.3275 235.631,230.1805 C236.021,230.0335 236.354,229.831 236.63,229.573 L236.63,229.573 L236.162,228.808 C236.096,228.706 236.021,228.655 235.937,228.655 C235.889,228.655 235.8335,228.6775 235.7705,228.7225 C235.7075,228.7675 235.631,228.817 235.541,228.871 C235.451,228.925 235.3445,228.9745 235.2215,229.0195 C235.0985,229.0645 234.953,229.087 234.785,229.087 C234.491,229.087 234.251,228.994 234.065,228.808 C233.879,228.622 233.786,228.337 233.786,227.953 L233.786,227.953 L233.786,222.481 L236.423,222.481 L236.423,221.32 L233.786,221.32 L233.786,218.179 L232.976,218.179 C232.874,218.179 232.7915,218.2075 232.7285,218.2645 C232.6655,218.3215 232.625,218.395 232.607,218.485 L232.607,218.485 L232.238,221.302 L230.744,221.491 L230.744,222.13 C230.744,222.25 230.777,222.3385 230.843,222.3955 C230.909,222.4525 230.99,222.481 231.086,222.481 L231.086,222.481 L232.184,222.481 L232.184,228.061 C232.184,228.817 232.3775,229.396 232.7645,229.798 C233.1515,230.2 233.705,230.401 234.425,230.401 Z M241.859,230.383 C242.189,230.383 242.522,230.3545 242.858,230.2975 C243.194,230.2405 243.5195,230.155 243.8345,230.041 C244.1495,229.927 244.445,229.7815 244.721,229.6045 C244.997,229.4275 245.234,229.219 245.432,228.979 L245.432,228.979 L244.982,228.394 C244.91,228.292 244.808,228.241 244.676,228.241 C244.574,228.241 244.4525,228.2875 244.3115,228.3805 C244.1705,228.4735 243.995,228.574 243.785,228.682 C243.575,228.79 243.3245,228.8905 243.0335,228.9835 C242.7425,229.0765 242.396,229.123 241.994,229.123 C241.562,229.123 241.172,229.0525 240.824,228.9115 C240.476,228.7705 240.176,228.5575 239.924,228.2725 C239.672,227.9875 239.4755,227.632 239.3345,227.206 C239.1935,226.78 239.114,226.279 239.096,225.703 L239.096,225.703 L245.189,225.703 C245.339,225.703 245.441,225.661 245.495,225.577 C245.549,225.493 245.576,225.325 245.576,225.073 C245.576,224.425 245.48,223.8475 245.288,223.3405 C245.096,222.8335 244.8305,222.4075 244.4915,222.0625 C244.1525,221.7175 243.7505,221.4535 243.2855,221.2705 C242.8205,221.0875 242.315,220.996 241.769,220.996 C241.109,220.996 240.515,221.1115 239.987,221.3425 C239.459,221.5735 239.012,221.8915 238.646,222.2965 C238.28,222.7015 237.9995,223.18 237.8045,223.732 C237.6095,224.284 237.512,224.878 237.512,225.514 C237.512,226.3 237.62,226.996 237.836,227.602 C238.052,228.208 238.3535,228.7165 238.7405,229.1275 C239.1275,229.5385 239.5865,229.8505 240.1175,230.0635 C240.6485,230.2765 241.229,230.383 241.859,230.383 Z M244.136,224.704 L239.15,224.704 C239.258,223.912 239.5355,223.2925 239.9825,222.8455 C240.4295,222.3985 241.037,222.175 241.805,222.175 C242.171,222.175 242.498,222.2365 242.786,222.3595 C243.074,222.4825 243.3185,222.6565 243.5195,222.8815 C243.7205,223.1065 243.8735,223.3735 243.9785,223.6825 C244.0835,223.9915 244.136,224.332 244.136,224.704 L244.136,224.704 Z" id="anydesignchangeswillcascadedownthewholesite" fill="#7C8500" fill-rule="nonzero"></path>
                    <path d="M57.392,174.968 C57.968,174.968 58.5466667,174.925333 59.128,174.84 C59.7093333,174.754667 60.2746667,174.608 60.824,174.4 C61.3733333,174.192 61.904,173.914667 62.416,173.568 C62.928,173.221333 63.4026667,172.792 63.84,172.28 L63.84,172.28 L62.704,170.84 C62.544,170.594667 62.304,170.472 61.984,170.472 C61.7386667,170.472 61.5173333,170.549333 61.32,170.704 C61.1226667,170.858667 60.8906667,171.029333 60.624,171.216 C60.3573333,171.402667 60.0293333,171.573333 59.64,171.728 C59.2506667,171.882667 58.7413333,171.96 58.112,171.96 C57.4826667,171.96 56.9173333,171.84 56.416,171.6 C55.9146667,171.36 55.488,171.008 55.136,170.544 C54.784,170.08 54.5146667,169.506667 54.328,168.824 C54.1413333,168.141333 54.048,167.362667 54.048,166.488 C54.048,165.645333 54.1333333,164.890667 54.304,164.224 C54.4746667,163.557333 54.7333333,162.989333 55.08,162.52 C55.4266667,162.050667 55.8613333,161.690667 56.384,161.44 C56.9066667,161.189333 57.5146667,161.064 58.208,161.064 C58.752,161.064 59.208,161.125333 59.576,161.248 C59.944,161.370667 60.2613333,161.509333 60.528,161.664 C60.7946667,161.818667 61.024,161.957333 61.216,162.08 C61.408,162.202667 61.6053333,162.264 61.808,162.264 C62.0213333,162.264 62.184,162.221333 62.296,162.136 C62.408,162.050667 62.5226667,161.933333 62.64,161.784 L62.64,161.784 L63.68,160.344 C62.944,159.608 62.1146667,159.042667 61.192,158.648 C60.2693333,158.253333 59.1946667,158.056 57.968,158.056 C56.6773333,158.056 55.536,158.269333 54.544,158.696 C53.552,159.122667 52.72,159.712 52.048,160.464 C51.376,161.216 50.8666667,162.106667 50.52,163.136 C50.1733333,164.165333 50,165.282667 50,166.488 C50,167.832 50.1946667,169.029333 50.584,170.08 C50.9733333,171.130667 51.504,172.018667 52.176,172.744 C52.848,173.469333 53.632,174.021333 54.528,174.4 C55.424,174.778667 56.3786667,174.968 57.392,174.968 Z M73.28,174.968 C74.496,174.968 75.6026667,174.770667 76.6,174.376 C77.5973333,173.981333 78.4506667,173.416 79.16,172.68 C79.8693333,171.944 80.416,171.053333 80.8,170.008 C81.184,168.962667 81.376,167.789333 81.376,166.488 C81.376,165.197333 81.184,164.029333 80.8,162.984 C80.416,161.938667 79.8693333,161.053333 79.16,160.328 C78.4506667,159.602667 77.5973333,159.042667 76.6,158.648 C75.6026667,158.253333 74.496,158.056 73.28,158.056 C72.0533333,158.056 70.9386667,158.253333 69.936,158.648 C68.9333333,159.042667 68.0773333,159.602667 67.368,160.328 C66.6586667,161.053333 66.1093333,161.938667 65.72,162.984 C65.3306667,164.029333 65.136,165.197333 65.136,166.488 C65.136,167.789333 65.3306667,168.962667 65.72,170.008 C66.1093333,171.053333 66.6586667,171.944 67.368,172.68 C68.0773333,173.416 68.9333333,173.981333 69.936,174.376 C70.9386667,174.770667 72.0533333,174.968 73.28,174.968 Z M73.28,171.928 C71.8933333,171.928 70.8666667,171.466667 70.2,170.544 C69.5333333,169.621333 69.2,168.28 69.2,166.52 C69.2,164.76 69.5333333,163.413333 70.2,162.48 C70.8666667,161.546667 71.8933333,161.08 73.28,161.08 C74.6453333,161.08 75.656,161.544 76.312,162.472 C76.968,163.4 77.296,164.749333 77.296,166.52 C77.296,168.290667 76.968,169.634667 76.312,170.552 C75.656,171.469333 74.6453333,171.928 73.28,171.928 Z M88.352,174.728 L88.352,162.856 C88.8853333,162.322667 89.4506667,161.901333 90.048,161.592 C90.6453333,161.282667 91.2853333,161.128 91.968,161.128 C92.9066667,161.128 93.6053333,161.402667 94.064,161.952 C94.5226667,162.501333 94.752,163.277333 94.752,164.28 L94.752,164.28 L94.752,174.728 L98.704,174.728 L98.704,164.28 C98.704,163.362667 98.584,162.522667 98.344,161.76 C98.104,160.997333 97.752,160.341333 97.288,159.792 C96.824,159.242667 96.2453333,158.816 95.552,158.512 C94.8586667,158.208 94.064,158.056 93.168,158.056 C92.6133333,158.056 92.1013333,158.112 91.632,158.224 C91.1626667,158.336 90.7226667,158.490667 90.312,158.688 C89.9013333,158.885333 89.512,159.125333 89.144,159.408 C88.776,159.690667 88.4266667,159.997333 88.096,160.328 L88.096,160.328 L87.824,159.032 C87.664,158.552 87.328,158.312 86.816,158.312 L86.816,158.312 L84.4,158.312 L84.4,174.728 L88.352,174.728 Z M106.976,174.984 C108.042667,174.984 108.984,174.848 109.8,174.576 C110.616,174.304 111.301333,173.925333 111.856,173.44 C112.410667,172.954667 112.829333,172.378667 113.112,171.712 C113.394667,171.045333 113.536,170.317333 113.536,169.528 C113.536,168.866667 113.421333,168.301333 113.192,167.832 C112.962667,167.362667 112.658667,166.96 112.28,166.624 C111.901333,166.288 111.472,166.010667 110.992,165.792 C110.512,165.573333 110.024,165.378667 109.528,165.208 C109.032,165.037333 108.544,164.88 108.064,164.736 C107.584,164.592 107.154667,164.429333 106.776,164.248 C106.397333,164.066667 106.093333,163.856 105.864,163.616 C105.634667,163.376 105.52,163.08 105.52,162.728 C105.52,162.194667 105.741333,161.762667 106.184,161.432 C106.626667,161.101333 107.237333,160.936 108.016,160.936 C108.517333,160.936 108.952,160.989333 109.32,161.096 C109.688,161.202667 110.016,161.322667 110.304,161.456 C110.592,161.589333 110.845333,161.709333 111.064,161.816 C111.282667,161.922667 111.488,161.976 111.68,161.976 C111.861333,161.976 112.010667,161.941333 112.128,161.872 C112.245333,161.802667 112.357333,161.682667 112.464,161.512 L112.464,161.512 L113.36,160.088 C112.741333,159.48 111.968,158.989333 111.04,158.616 C110.112,158.242667 109.082667,158.056 107.952,158.056 C106.938667,158.056 106.045333,158.192 105.272,158.464 C104.498667,158.736 103.853333,159.098667 103.336,159.552 C102.818667,160.005333 102.426667,160.536 102.16,161.144 C101.893333,161.752 101.76,162.392 101.76,163.064 C101.76,163.789333 101.874667,164.408 102.104,164.92 C102.333333,165.432 102.637333,165.864 103.016,166.216 C103.394667,166.568 103.826667,166.858667 104.312,167.088 C104.797333,167.317333 105.293333,167.517333 105.8,167.688 C106.306667,167.858667 106.802667,168.016 107.288,168.16 C107.773333,168.304 108.205333,168.466667 108.584,168.648 C108.962667,168.829333 109.266667,169.042667 109.496,169.288 C109.725333,169.533333 109.84,169.848 109.84,170.232 C109.84,170.488 109.789333,170.736 109.688,170.976 C109.586667,171.216 109.426667,171.426667 109.208,171.608 C108.989333,171.789333 108.712,171.936 108.376,172.048 C108.04,172.16 107.637333,172.216 107.168,172.216 C106.570667,172.216 106.077333,172.146667 105.688,172.008 C105.298667,171.869333 104.96,171.72 104.672,171.56 C104.384,171.4 104.130667,171.250667 103.912,171.112 C103.693333,170.973333 103.461333,170.904 103.216,170.904 C102.970667,170.904 102.768,170.952 102.608,171.048 C102.448,171.144 102.309333,171.282667 102.192,171.464 L102.192,171.464 L101.28,172.968 C101.6,173.256 101.970667,173.522667 102.392,173.768 C102.813333,174.013333 103.272,174.226667 103.768,174.408 C104.264,174.589333 104.781333,174.730667 105.32,174.832 C105.858667,174.933333 106.410667,174.984 106.976,174.984 Z M118.592,156.008 C118.944,156.008 119.274667,155.941333 119.584,155.808 C119.893333,155.674667 120.162667,155.496 120.392,155.272 C120.621333,155.048 120.805333,154.786667 120.944,154.488 C121.082667,154.189333 121.152,153.869333 121.152,153.528 C121.152,153.176 121.082667,152.845333 120.944,152.536 C120.805333,152.226667 120.621333,151.96 120.392,151.736 C120.162667,151.512 119.893333,151.333333 119.584,151.2 C119.274667,151.066667 118.944,151 118.592,151 C118.250667,151 117.928,151.066667 117.624,151.2 C117.32,151.333333 117.056,151.512 116.832,151.736 C116.608,151.96 116.429333,152.226667 116.296,152.536 C116.162667,152.845333 116.096,153.176 116.096,153.528 C116.096,153.869333 116.162667,154.189333 116.296,154.488 C116.429333,154.786667 116.608,155.048 116.832,155.272 C117.056,155.496 117.32,155.674667 117.624,155.808 C117.928,155.941333 118.250667,156.008 118.592,156.008 Z M120.608,174.728 L120.608,158.312 L116.64,158.312 L116.64,174.728 L120.608,174.728 Z M129.168,174.984 C130.234667,174.984 131.176,174.848 131.992,174.576 C132.808,174.304 133.493333,173.925333 134.048,173.44 C134.602667,172.954667 135.021333,172.378667 135.304,171.712 C135.586667,171.045333 135.728,170.317333 135.728,169.528 C135.728,168.866667 135.613333,168.301333 135.384,167.832 C135.154667,167.362667 134.850667,166.96 134.472,166.624 C134.093333,166.288 133.664,166.010667 133.184,165.792 C132.704,165.573333 132.216,165.378667 131.72,165.208 C131.224,165.037333 130.736,164.88 130.256,164.736 C129.776,164.592 129.346667,164.429333 128.968,164.248 C128.589333,164.066667 128.285333,163.856 128.056,163.616 C127.826667,163.376 127.712,163.08 127.712,162.728 C127.712,162.194667 127.933333,161.762667 128.376,161.432 C128.818667,161.101333 129.429333,160.936 130.208,160.936 C130.709333,160.936 131.144,160.989333 131.512,161.096 C131.88,161.202667 132.208,161.322667 132.496,161.456 C132.784,161.589333 133.037333,161.709333 133.256,161.816 C133.474667,161.922667 133.68,161.976 133.872,161.976 C134.053333,161.976 134.202667,161.941333 134.32,161.872 C134.437333,161.802667 134.549333,161.682667 134.656,161.512 L134.656,161.512 L135.552,160.088 C134.933333,159.48 134.16,158.989333 133.232,158.616 C132.304,158.242667 131.274667,158.056 130.144,158.056 C129.130667,158.056 128.237333,158.192 127.464,158.464 C126.690667,158.736 126.045333,159.098667 125.528,159.552 C125.010667,160.005333 124.618667,160.536 124.352,161.144 C124.085333,161.752 123.952,162.392 123.952,163.064 C123.952,163.789333 124.066667,164.408 124.296,164.92 C124.525333,165.432 124.829333,165.864 125.208,166.216 C125.586667,166.568 126.018667,166.858667 126.504,167.088 C126.989333,167.317333 127.485333,167.517333 127.992,167.688 C128.498667,167.858667 128.994667,168.016 129.48,168.16 C129.965333,168.304 130.397333,168.466667 130.776,168.648 C131.154667,168.829333 131.458667,169.042667 131.688,169.288 C131.917333,169.533333 132.032,169.848 132.032,170.232 C132.032,170.488 131.981333,170.736 131.88,170.976 C131.778667,171.216 131.618667,171.426667 131.4,171.608 C131.181333,171.789333 130.904,171.936 130.568,172.048 C130.232,172.16 129.829333,172.216 129.36,172.216 C128.762667,172.216 128.269333,172.146667 127.88,172.008 C127.490667,171.869333 127.152,171.72 126.864,171.56 C126.576,171.4 126.322667,171.250667 126.104,171.112 C125.885333,170.973333 125.653333,170.904 125.408,170.904 C125.162667,170.904 124.96,170.952 124.8,171.048 C124.64,171.144 124.501333,171.282667 124.384,171.464 L124.384,171.464 L123.472,172.968 C123.792,173.256 124.162667,173.522667 124.584,173.768 C125.005333,174.013333 125.464,174.226667 125.96,174.408 C126.456,174.589333 126.973333,174.730667 127.512,174.832 C128.050667,174.933333 128.602667,174.984 129.168,174.984 Z M144.176,174.984 C144.976,174.984 145.749333,174.861333 146.496,174.616 C147.242667,174.370667 147.904,174.008 148.48,173.528 L148.48,173.528 L147.296,171.608 C147.210667,171.490667 147.130667,171.402667 147.056,171.344 C146.981333,171.285333 146.885333,171.256 146.768,171.256 C146.672,171.256 146.576,171.285333 146.48,171.344 C146.384,171.402667 146.274667,171.464 146.152,171.528 C146.029333,171.592 145.885333,171.653333 145.72,171.712 C145.554667,171.770667 145.349333,171.8 145.104,171.8 C144.666667,171.8 144.322667,171.656 144.072,171.368 C143.821333,171.08 143.696,170.68 143.696,170.168 L143.696,170.168 L143.696,161.272 L148.08,161.272 L148.08,158.456 L143.696,158.456 L143.696,153.288 L141.648,153.288 C141.413333,153.288 141.221333,153.346667 141.072,153.464 C140.922667,153.581333 140.821333,153.746667 140.768,153.96 L140.768,153.96 L139.936,158.44 L137.296,158.872 L137.296,160.44 C137.296,160.717333 137.370667,160.925333 137.52,161.064 C137.669333,161.202667 137.850667,161.272 138.064,161.272 L138.064,161.272 L139.744,161.272 L139.744,170.44 C139.744,171.858667 140.125333,172.970667 140.888,173.776 C141.650667,174.581333 142.746667,174.984 144.176,174.984 Z M157.664,174.968 C158.24,174.968 158.834667,174.925333 159.448,174.84 C160.061333,174.754667 160.664,174.608 161.256,174.4 C161.848,174.192 162.416,173.914667 162.96,173.568 C163.504,173.221333 163.994667,172.792 164.432,172.28 L164.432,172.28 L163.296,170.84 C163.136,170.594667 162.890667,170.472 162.56,170.472 C162.314667,170.472 162.061333,170.546667 161.8,170.696 C161.538667,170.845333 161.234667,171.010667 160.888,171.192 C160.541333,171.373333 160.136,171.538667 159.672,171.688 C159.208,171.837333 158.656,171.912 158.016,171.912 C157.376,171.912 156.792,171.813333 156.264,171.616 C155.736,171.418667 155.28,171.12 154.896,170.72 C154.512,170.32 154.202667,169.813333 153.968,169.2 C153.733333,168.586667 153.584,167.858667 153.52,167.016 L153.52,167.016 L163.68,167.016 C164.042667,167.016 164.288,166.912 164.416,166.704 C164.544,166.496 164.608,166.093333 164.608,165.496 C164.608,164.312 164.429333,163.258667 164.072,162.336 C163.714667,161.413333 163.221333,160.634667 162.592,160 C161.962667,159.365333 161.210667,158.882667 160.336,158.552 C159.461333,158.221333 158.506667,158.056 157.472,158.056 C156.245333,158.056 155.144,158.269333 154.168,158.696 C153.192,159.122667 152.365333,159.701333 151.688,160.432 C151.010667,161.162667 150.490667,162.021333 150.128,163.008 C149.765333,163.994667 149.584,165.048 149.584,166.168 C149.584,167.608 149.792,168.874667 150.208,169.968 C150.624,171.061333 151.194667,171.978667 151.92,172.72 C152.645333,173.461333 153.498667,174.021333 154.48,174.4 C155.461333,174.778667 156.522667,174.968 157.664,174.968 Z M161.056,164.632 L153.6,164.632 C153.781333,163.437333 154.2,162.514667 154.856,161.864 C155.512,161.213333 156.410667,160.888 157.552,160.888 C158.138667,160.888 158.653333,160.986667 159.096,161.184 C159.538667,161.381333 159.904,161.650667 160.192,161.992 C160.48,162.333333 160.696,162.730667 160.84,163.184 C160.984,163.637333 161.056,164.12 161.056,164.632 L161.056,164.632 Z M171.52,174.728 L171.52,162.856 C172.053333,162.322667 172.618667,161.901333 173.216,161.592 C173.813333,161.282667 174.453333,161.128 175.136,161.128 C176.074667,161.128 176.773333,161.402667 177.232,161.952 C177.690667,162.501333 177.92,163.277333 177.92,164.28 L177.92,164.28 L177.92,174.728 L181.872,174.728 L181.872,164.28 C181.872,163.362667 181.752,162.522667 181.512,161.76 C181.272,160.997333 180.92,160.341333 180.456,159.792 C179.992,159.242667 179.413333,158.816 178.72,158.512 C178.026667,158.208 177.232,158.056 176.336,158.056 C175.781333,158.056 175.269333,158.112 174.8,158.224 C174.330667,158.336 173.890667,158.490667 173.48,158.688 C173.069333,158.885333 172.68,159.125333 172.312,159.408 C171.944,159.690667 171.594667,159.997333 171.264,160.328 L171.264,160.328 L170.992,159.032 C170.832,158.552 170.496,158.312 169.984,158.312 L169.984,158.312 L167.568,158.312 L167.568,174.728 L171.52,174.728 Z M192.128,174.968 C192.704,174.968 193.282667,174.925333 193.864,174.84 C194.445333,174.754667 195.010667,174.608 195.56,174.4 C196.109333,174.192 196.64,173.914667 197.152,173.568 C197.664,173.221333 198.138667,172.792 198.576,172.28 L198.576,172.28 L197.44,170.84 C197.28,170.594667 197.04,170.472 196.72,170.472 C196.474667,170.472 196.253333,170.549333 196.056,170.704 C195.858667,170.858667 195.626667,171.029333 195.36,171.216 C195.093333,171.402667 194.765333,171.573333 194.376,171.728 C193.986667,171.882667 193.477333,171.96 192.848,171.96 C192.218667,171.96 191.653333,171.84 191.152,171.6 C190.650667,171.36 190.224,171.008 189.872,170.544 C189.52,170.08 189.250667,169.506667 189.064,168.824 C188.877333,168.141333 188.784,167.362667 188.784,166.488 C188.784,165.645333 188.869333,164.890667 189.04,164.224 C189.210667,163.557333 189.469333,162.989333 189.816,162.52 C190.162667,162.050667 190.597333,161.690667 191.12,161.44 C191.642667,161.189333 192.250667,161.064 192.944,161.064 C193.488,161.064 193.944,161.125333 194.312,161.248 C194.68,161.370667 194.997333,161.509333 195.264,161.664 C195.530667,161.818667 195.76,161.957333 195.952,162.08 C196.144,162.202667 196.341333,162.264 196.544,162.264 C196.757333,162.264 196.92,162.221333 197.032,162.136 C197.144,162.050667 197.258667,161.933333 197.376,161.784 L197.376,161.784 L198.416,160.344 C197.68,159.608 196.850667,159.042667 195.928,158.648 C195.005333,158.253333 193.930667,158.056 192.704,158.056 C191.413333,158.056 190.272,158.269333 189.28,158.696 C188.288,159.122667 187.456,159.712 186.784,160.464 C186.112,161.216 185.602667,162.106667 185.256,163.136 C184.909333,164.165333 184.736,165.282667 184.736,166.488 C184.736,167.832 184.930667,169.029333 185.32,170.08 C185.709333,171.130667 186.24,172.018667 186.912,172.744 C187.584,173.469333 188.368,174.021333 189.264,174.4 C190.16,174.778667 191.114667,174.968 192.128,174.968 Z M205.696,180.088 C206.08,180.088 206.365333,180.016 206.552,179.872 C206.738667,179.728 206.890667,179.517333 207.008,179.24 L207.008,179.24 L215.952,158.312 L212.784,158.312 C212.538667,158.312 212.317333,158.381333 212.12,158.52 C211.922667,158.658667 211.781333,158.834667 211.696,159.048 L211.696,159.048 L208.4,167.544 C208.282667,167.832 208.176,168.122667 208.08,168.416 C207.984,168.709333 207.888,169.005333 207.792,169.304 C207.717333,169.005333 207.64,168.712 207.56,168.424 C207.48,168.136 207.381333,167.848 207.264,167.56 L207.264,167.56 L203.776,159.048 C203.690667,158.856 203.56,158.685333 203.384,158.536 C203.208,158.386667 202.965333,158.312 202.656,158.312 L202.656,158.312 L199.184,158.312 L205.824,173.496 L202.752,180.088 L205.696,180.088 Z" id="consistency" fill="#7C8500" fill-rule="nonzero"></path>
                </g>
                <path d="M140.666728,69.4705882 C141.675374,69.4705882 142.50063,70.2491349 142.50063,71.200692 L142.50063,71.200692 L142.50063,74.4878893 L152.342569,74.4878893 C153.351215,74.4878893 154.176471,75.266436 154.176471,76.2179931 L154.176471,76.2179931 L154.176471,114.799308 C154.176471,115.750865 153.351215,116.529412 152.342569,116.529412 L152.342569,116.529412 L113.657431,116.529412 C112.648785,116.529412 111.823529,115.750865 111.823529,114.799308 L111.823529,114.799308 L111.823529,76.2179931 C111.823529,75.266436 112.648785,74.4878893 113.657431,74.4878893 L113.657431,74.4878893 L118.293127,74.4878893 C119.301773,74.4878893 120.127029,75.266436 120.127029,76.2179931 C120.127029,77.1695502 119.301773,77.9480969 118.293127,77.9480969 L118.293127,77.9480969 L115.491333,77.9480969 L115.491333,113.069204 L150.518856,113.069204 L150.518856,77.9480969 L140.676916,77.9480969 C139.66827,77.9480969 138.843015,77.1695502 138.843015,76.2179931 L138.843015,76.2179931 L138.843015,72.9307958 L127.177362,72.9307958 L127.177362,78.5728566 L136.672898,78.5728566 C137.681544,78.5728566 138.506799,79.3514033 138.506799,80.3029604 C138.506799,81.2545175 137.681544,82.0330642 136.672898,82.0330642 L136.672898,82.0330642 L125.34346,82.0330642 C124.334814,82.0330642 123.509559,81.2545175 123.509559,80.3029604 L123.509559,80.3029604 L123.509559,71.200692 C123.509559,70.2491349 124.334814,69.4705882 125.34346,69.4705882 L125.34346,69.4705882 Z M138.853203,90.3183391 C139.576575,89.645521 140.738046,89.645521 141.45123,90.3279508 C142.164414,91.0103806 142.164414,92.106113 141.441042,92.7789312 L141.441042,92.7789312 L131.588915,101.99654 C131.232323,102.332949 130.763659,102.496348 130.294995,102.496348 C129.816143,102.496348 129.347479,102.323337 128.990887,101.986928 L128.990887,101.986928 L124.569146,97.7866205 C123.855962,97.1041907 123.855962,96.0084583 124.579335,95.3356401 C125.302707,94.662822 126.464178,94.662822 127.177362,95.3452518 L127.177362,95.3452518 L130.305183,98.3152634 Z" id="icon/clipboard" fill="#7C8500" fill-rule="nonzero"></path>
            </g>
        </g>
    </g>
</svg>