<svg width="137" height="39" viewBox="0 0 137 39" fill="none" xmlns="http://www.w3.org/2000/svg">
<path d="M17.1441 37.9999V1.65592H10.4801C9.75208 5.46392 6.05608 8.43192 0.736084 8.48792V13.6959H9.47208V37.9999H17.1441Z" fill="#FD7037"/>
<path d="M31.9788 19.8559C31.9788 16.0479 32.5388 12.7999 33.9388 10.6159C35.0588 8.82392 36.7948 7.64792 39.4268 7.64792C42.1148 7.64792 43.7388 8.82392 44.8588 10.6159C46.3148 12.7999 46.8748 16.0479 46.8748 19.8559C46.8748 23.6639 46.3148 26.9119 44.8588 29.0959C43.7388 30.8879 42.1148 32.0639 39.4268 32.0639C36.7948 32.0639 35.0588 30.8879 33.9388 29.0959C32.5388 26.9119 31.9788 23.6639 31.9788 19.8559ZM24.2508 19.8559C24.2508 24.5039 24.9788 29.0399 27.4428 32.7919C29.8508 36.3759 33.7708 38.8959 39.4268 38.8959C45.0828 38.8959 49.0028 36.3759 51.3548 32.7919C53.8188 29.0399 54.6028 24.5039 54.6028 19.8559C54.6028 15.2079 53.8188 10.6719 51.3548 6.91992C49.0028 3.33592 45.0828 0.815918 39.4268 0.815918C33.7708 0.815918 29.8508 3.33592 27.4428 6.91992C24.9788 10.6719 24.2508 15.2079 24.2508 19.8559Z" fill="#FD7037"/>
<path d="M66.9647 19.8559C66.9647 16.0479 67.5247 12.7999 68.9247 10.6159C70.0447 8.82392 71.7807 7.64792 74.4127 7.64792C77.1007 7.64792 78.7247 8.82392 79.8447 10.6159C81.3007 12.7999 81.8607 16.0479 81.8607 19.8559C81.8607 23.6639 81.3007 26.9119 79.8447 29.0959C78.7247 30.8879 77.1007 32.0639 74.4127 32.0639C71.7807 32.0639 70.0447 30.8879 68.9247 29.0959C67.5247 26.9119 66.9647 23.6639 66.9647 19.8559ZM59.2367 19.8559C59.2367 24.5039 59.9647 29.0399 62.4287 32.7919C64.8367 36.3759 68.7567 38.8959 74.4127 38.8959C80.0687 38.8959 83.9887 36.3759 86.3407 32.7919C88.8047 29.0399 89.5887 24.5039 89.5887 19.8559C89.5887 15.2079 88.8047 10.6719 86.3407 6.91992C83.9887 3.33592 80.0687 0.815918 74.4127 0.815918C68.7567 0.815918 64.8367 3.33592 62.4287 6.91992C59.9647 10.6719 59.2367 15.2079 59.2367 19.8559Z" fill="#FD7037"/>
<path d="M99.0063 10.2239C99.0063 7.92792 100.63 6.35992 102.702 6.35992C104.83 6.35992 106.398 7.92792 106.398 10.2239C106.398 12.5199 104.83 14.1439 102.702 14.1439C100.63 14.1439 99.0063 12.5759 99.0063 10.2239ZM93.4063 10.2239C93.4063 15.3199 97.6063 19.3519 102.702 19.3519C107.742 19.3519 112.054 15.4319 112.054 10.2239C112.054 5.07192 107.742 1.03992 102.702 1.03992C97.6623 1.03992 93.4063 5.07192 93.4063 10.2239ZM123.478 29.4879C123.478 27.1919 125.102 25.6239 127.174 25.6239C129.302 25.6239 130.87 27.1919 130.87 29.4879C130.87 31.7839 129.302 33.4079 127.174 33.4079C125.102 33.4079 123.478 31.8399 123.478 29.4879ZM117.878 29.4879C117.878 34.5839 122.078 38.6159 127.174 38.6159C132.214 38.6159 136.526 34.6959 136.526 29.4879C136.526 24.3359 132.214 20.3039 127.174 20.3039C122.134 20.3039 117.878 24.3359 117.878 29.4879ZM105.39 37.9999L131.038 1.65592H124.542L98.8943 37.9999H105.39Z" fill="#FD7037"/>
</svg>
