<?xml version="1.0" encoding="UTF-8"?>
<svg width="268px" height="268px" viewBox="0 0 268 268" version="1.1" xmlns="http://www.w3.org/2000/svg" xmlns:xlink="http://www.w3.org/1999/xlink">
    <title>time</title>
    <defs>
        <path d="M6.54006484,6.54891761 C11.8943956,1.19452925 19.5275591,-1.07506443 26.947661,0.481228383 C27.8462251,0.666501336 28.4205651,1.55581151 28.2352941,2.45438534 C28.0500232,3.36222281 27.1607226,3.93656896 26.2806855,3.75129601 C19.9722094,2.42659439 13.4784623,4.35343311 8.92079667,8.91114776 C1.50995831,16.3220659 1.50995831,28.3833352 8.92079667,35.7942533 C16.331635,43.2051714 28.3927744,43.2051714 35.8036128,35.7942533 C42.8253821,28.7724084 43.195924,17.5911856 36.9337656,10.1339493 L36.9337656,10.1339493 L33.0708661,13.9968903 C32.4131542,14.6453457 31.3571098,14.6453457 30.7086614,13.9968903 C30.0602131,13.3391713 30.0602131,12.2831155 30.7086614,11.6346602 L30.7086614,11.6346602 L35.7943492,6.54891761 C36.4520611,5.90046227 37.5081056,5.90046227 38.156554,6.54891761 C42.3807318,10.7731409 44.7058824,16.3776478 44.7058824,22.3527005 C44.7058824,28.3277533 42.3807318,33.9322601 38.156554,38.1564835 C33.9323761,42.3807068 28.3279296,44.7058824 22.3529412,44.7058824 C16.3779528,44.7058824 10.7735063,42.3807068 6.54932839,38.1564835 C2.32515053,33.9322601 0,28.3184896 0,22.3527005 C0,16.3869114 2.32515053,10.7731409 6.54006484,6.54891761 Z M22.3436776,6.79903609 C23.2607689,6.79903609 24.0111163,7.54939155 24.0019376,8.46649267 L24.0019376,8.46649267 L24.0019376,22.3341732 C24.0019376,22.3897551 24.0019376,22.445337 23.9925892,22.5009189 C23.9925892,22.5287098 23.9833256,22.5472371 23.9833256,22.5750281 C23.9833256,22.6120827 23.9833256,22.6398736 23.9740621,22.6676645 C23.9740621,22.6954555 23.9647985,22.7232464 23.955535,22.7510374 L23.955535,22.7510374 L23.9370079,22.8251466 C23.9277443,22.8529375 23.9184808,22.8807284 23.9092172,22.9085194 L23.9092172,22.9085194 L23.8814266,22.9826286 C23.872163,23.0104195 23.8536359,23.0289468 23.8443724,23.0567378 C23.8351088,23.0845287 23.8165818,23.103056 23.8073182,23.1308469 C23.7980547,23.1586379 23.7795276,23.1864288 23.770264,23.2049561 C23.7517369,23.2327471 23.7424734,23.260538 23.7239463,23.2790653 C23.7054192,23.3068562 23.6868921,23.3253835 23.668365,23.3531745 C23.6591014,23.3717018 23.6498379,23.3902291 23.6313108,23.4087564 C23.5942566,23.445811 23.5572024,23.4921292 23.5201482,23.5291838 L23.5201482,23.5291838 L16.3779528,30.6714561 C16.0537286,30.9956838 15.6276054,31.1624295 15.2014822,31.1624295 C14.775359,31.1624295 14.3492358,30.9956838 14.0250116,30.6714561 C13.3765632,30.0137372 13.3765632,28.9576813 14.0250116,28.309226 L14.0250116,28.309226 L20.676239,21.657927 L20.676239,8.46649267 C20.676239,7.54939155 21.4265864,6.79903609 22.3436776,6.79903609 Z" id="path-1"></path>
    </defs>
    <g id="pagebuilder" stroke="none" stroke-width="1" fill="none" fill-rule="evenodd">
        <g id="Desktop-HD-Copy" transform="translate(-200.000000, -1161.000000)">
            <g id="time" transform="translate(201.000000, 1162.000000)">
                <rect id="Rectangle" stroke="#FD7037" fill-opacity="0.5" fill="#FFE2D7" x="0" y="0" width="266" height="266"></rect>
                <path d="M118.08,156.024 C118.432,156.024 118.765333,155.957333 119.08,155.824 C119.394667,155.690667 119.666667,155.512 119.896,155.288 C120.125333,155.064 120.309333,154.8 120.448,154.496 C120.586667,154.192 120.656,153.869333 120.656,153.528 C120.656,153.176 120.586667,152.848 120.448,152.544 C120.309333,152.24 120.125333,151.973333 119.896,151.744 C119.666667,151.514667 119.394667,151.333333 119.08,151.2 C118.765333,151.066667 118.432,151 118.08,151 C117.738667,151 117.418667,151.066667 117.12,151.2 C116.821333,151.333333 116.56,151.514667 116.336,151.744 C116.112,151.973333 115.933333,152.24 115.8,152.544 C115.666667,152.848 115.6,153.176 115.6,153.528 C115.6,153.869333 115.666667,154.192 115.8,154.496 C115.933333,154.8 116.112,155.064 116.336,155.288 C116.56,155.512 116.821333,155.690667 117.12,155.824 C117.418667,155.957333 117.738667,156.024 118.08,156.024 Z M108.88,175.048 C109.68,175.048 110.453333,174.925333 111.2,174.68 C111.946667,174.434667 112.608,174.072 113.184,173.592 L113.184,173.592 L112,171.672 C111.914667,171.554667 111.834667,171.466667 111.76,171.408 C111.685333,171.349333 111.589333,171.32 111.472,171.32 C111.376,171.32 111.28,171.349333 111.184,171.408 C111.088,171.466667 110.978667,171.528 110.856,171.592 C110.733333,171.656 110.589333,171.717333 110.424,171.776 C110.258667,171.834667 110.053333,171.864 109.808,171.864 C109.370667,171.864 109.026667,171.72 108.776,171.432 C108.525333,171.144 108.4,170.744 108.4,170.232 L108.4,170.232 L108.4,161.336 L116.016,161.336 L116.016,174.792 L119.968,174.792 L119.968,158.52 L108.4,158.52 L108.4,153.352 L106.352,153.352 C106.117333,153.352 105.925333,153.410667 105.776,153.528 C105.626667,153.645333 105.525333,153.810667 105.472,154.024 L105.472,154.024 L104.64,158.488 L102,158.936 L102,160.504 C102,160.781333 102.074667,160.989333 102.224,161.128 C102.373333,161.266667 102.554667,161.336 102.768,161.336 L102.768,161.336 L104.448,161.336 L104.448,170.504 C104.448,171.922667 104.829333,173.034667 105.592,173.84 C106.354667,174.645333 107.450667,175.048 108.88,175.048 Z M127.952,174.792 L127.952,162.776 C128.378667,162.285333 128.84,161.898667 129.336,161.616 C129.832,161.333333 130.368,161.192 130.944,161.192 C131.797333,161.192 132.445333,161.442667 132.888,161.944 C133.330667,162.445333 133.552,163.245333 133.552,164.344 L133.552,164.344 L133.552,174.792 L137.52,174.792 L137.52,164.344 C137.52,163.832 137.594667,163.378667 137.744,162.984 C137.893333,162.589333 138.098667,162.261333 138.36,162 C138.621333,161.738667 138.925333,161.538667 139.272,161.4 C139.618667,161.261333 139.994667,161.192 140.4,161.192 C141.285333,161.192 141.957333,161.456 142.416,161.984 C142.874667,162.512 143.104,163.298667 143.104,164.344 L143.104,164.344 L143.104,174.792 L147.056,174.792 L147.056,164.344 C147.056,163.352 146.930667,162.472 146.68,161.704 C146.429333,160.936 146.064,160.285333 145.584,159.752 C145.104,159.218667 144.512,158.813333 143.808,158.536 C143.104,158.258667 142.298667,158.12 141.392,158.12 C140.869333,158.12 140.349333,158.178667 139.832,158.296 C139.314667,158.413333 138.826667,158.594667 138.368,158.84 C137.909333,159.085333 137.488,159.402667 137.104,159.792 C136.72,160.181333 136.4,160.648 136.144,161.192 C135.813333,160.264 135.314667,159.52 134.648,158.96 C133.981333,158.4 133.130667,158.12 132.096,158.12 C131.605333,158.12 131.154667,158.176 130.744,158.288 C130.333333,158.4 129.949333,158.552 129.592,158.744 C129.234667,158.936 128.898667,159.165333 128.584,159.432 C128.269333,159.698667 127.968,159.992 127.68,160.312 L127.68,160.312 L127.424,159.096 C127.264,158.616 126.928,158.376 126.416,158.376 L126.416,158.376 L124,158.376 L124,174.792 L127.952,174.792 Z M157.984,175.032 C158.56,175.032 159.154667,174.989333 159.768,174.904 C160.381333,174.818667 160.984,174.672 161.576,174.464 C162.168,174.256 162.736,173.978667 163.28,173.632 C163.824,173.285333 164.314667,172.856 164.752,172.344 L164.752,172.344 L163.616,170.904 C163.456,170.658667 163.210667,170.536 162.88,170.536 C162.634667,170.536 162.381333,170.610667 162.12,170.76 C161.858667,170.909333 161.554667,171.074667 161.208,171.256 C160.861333,171.437333 160.456,171.602667 159.992,171.752 C159.528,171.901333 158.976,171.976 158.336,171.976 C157.696,171.976 157.112,171.877333 156.584,171.68 C156.056,171.482667 155.6,171.184 155.216,170.784 C154.832,170.384 154.522667,169.877333 154.288,169.264 C154.053333,168.650667 153.904,167.922667 153.84,167.08 L153.84,167.08 L164,167.08 C164.362667,167.08 164.608,166.976 164.736,166.768 C164.864,166.56 164.928,166.157333 164.928,165.56 C164.928,164.376 164.749333,163.322667 164.392,162.4 C164.034667,161.477333 163.541333,160.698667 162.912,160.064 C162.282667,159.429333 161.530667,158.946667 160.656,158.616 C159.781333,158.285333 158.826667,158.12 157.792,158.12 C156.565333,158.12 155.464,158.333333 154.488,158.76 C153.512,159.186667 152.685333,159.765333 152.008,160.496 C151.330667,161.226667 150.810667,162.085333 150.448,163.072 C150.085333,164.058667 149.904,165.112 149.904,166.232 C149.904,167.672 150.112,168.938667 150.528,170.032 C150.944,171.125333 151.514667,172.042667 152.24,172.784 C152.965333,173.525333 153.818667,174.085333 154.8,174.464 C155.781333,174.842667 156.842667,175.032 157.984,175.032 Z M161.376,164.696 L153.92,164.696 C154.101333,163.501333 154.52,162.578667 155.176,161.928 C155.832,161.277333 156.730667,160.952 157.872,160.952 C158.458667,160.952 158.973333,161.050667 159.416,161.248 C159.858667,161.445333 160.224,161.714667 160.512,162.056 C160.8,162.397333 161.016,162.794667 161.16,163.248 C161.304,163.701333 161.376,164.184 161.376,164.696 L161.376,164.696 Z" id="tme" fill="#CA592C" fill-rule="nonzero"></path>
                <g id="icons/40px/clock" transform="translate(93.000000, 54.000000)">
                    <g id="Icon-frame"></g>
                    <g id="Icon" transform="translate(17.823529, 18.823529)">
                        <mask id="mask-2" fill="white">
                            <use xlink:href="#path-1"></use>
                        </mask>
                        <use id="icon/clock" fill="#CA592C" fill-rule="nonzero" xlink:href="#path-1"></use>
                    </g>
                </g>
                <path d="M30.9975,208.257 L30.9975,201.543 C31.3455,201.153 31.725,200.844 32.136,200.616 C32.547,200.388 32.9895,200.274 33.4635,200.274 C34.1055,200.274 34.584,200.4645 34.899,200.8455 C35.214,201.2265 35.3715,201.762 35.3715,202.452 L35.3715,202.452 L35.3715,208.257 L36.9825,208.257 L36.9825,202.452 C36.9825,201.936 36.9165,201.465 36.7845,201.039 C36.6525,200.613 36.459,200.2485 36.204,199.9455 C35.949,199.6425 35.631,199.4085 35.25,199.2435 C34.869,199.0785 34.4295,198.996 33.9315,198.996 C33.6075,198.996 33.306,199.0305 33.027,199.0995 C32.748,199.1685 32.484,199.2675 32.235,199.3965 C31.986,199.5255 31.7505,199.68 31.5285,199.86 C31.3065,200.04 31.0965,200.241 30.8985,200.463 L30.8985,200.463 L30.7725,199.473 C30.7185,199.251 30.5775,199.14 30.3495,199.14 L30.3495,199.14 L29.3865,199.14 L29.3865,208.257 L30.9975,208.257 Z M43.2735,208.383 C43.9395,208.383 44.5395,208.2735 45.0735,208.0545 C45.6075,207.8355 46.0635,207.522 46.4415,207.114 C46.8195,206.706 47.109,206.214 47.31,205.638 C47.511,205.062 47.6115,204.414 47.6115,203.694 C47.6115,202.98 47.511,202.3335 47.31,201.7545 C47.109,201.1755 46.8195,200.682 46.4415,200.274 C46.0635,199.866 45.6075,199.551 45.0735,199.329 C44.5395,199.107 43.9395,198.996 43.2735,198.996 C42.6015,198.996 41.997,199.107 41.46,199.329 C40.923,199.551 40.4655,199.866 40.0875,200.274 C39.7095,200.682 39.42,201.1755 39.219,201.7545 C39.018,202.3335 38.9175,202.98 38.9175,203.694 C38.9175,204.414 39.018,205.062 39.219,205.638 C39.42,206.214 39.7095,206.706 40.0875,207.114 C40.4655,207.522 40.923,207.8355 41.46,208.0545 C41.997,208.2735 42.6015,208.383 43.2735,208.383 Z M43.2735,207.132 C42.3615,207.132 41.682,206.8305 41.235,206.2275 C40.788,205.6245 40.5645,204.783 40.5645,203.703 C40.5645,203.163 40.62,202.6785 40.731,202.2495 C40.842,201.8205 41.01,201.459 41.235,201.165 C41.46,200.871 41.742,200.646 42.081,200.49 C42.42,200.334 42.8175,200.256 43.2735,200.256 C44.1735,200.256 44.8455,200.559 45.2895,201.165 C45.7335,201.771 45.9555,202.617 45.9555,203.703 C45.9555,204.783 45.7335,205.6245 45.2895,206.2275 C44.8455,206.8305 44.1735,207.132 43.2735,207.132 Z M58.3665,208.383 C58.9725,208.383 59.5185,208.2645 60.0045,208.0275 C60.4905,207.7905 60.903,207.4575 61.242,207.0285 C61.581,206.5995 61.8405,206.082 62.0205,205.476 C62.2005,204.87 62.2905,204.198 62.2905,203.46 C62.2905,202.77 62.211,202.149 62.052,201.597 C61.893,201.045 61.6635,200.5755 61.3635,200.1885 C61.0635,199.8015 60.699,199.506 60.27,199.302 C59.841,199.098 59.3595,198.996 58.8255,198.996 C58.1955,198.996 57.639,199.128 57.156,199.392 C56.673,199.656 56.2395,200.01 55.8555,200.454 L55.8555,200.454 L55.8555,195 L54.2445,195 L54.2445,208.257 L55.2795,208.257 C55.5075,208.257 55.6455,208.143 55.6935,207.915 L55.6935,207.915 L55.7745,207.087 C56.0805,207.501 56.439,207.8205 56.85,208.0455 C57.261,208.2705 57.7665,208.383 58.3665,208.383 Z M57.9795,207.141 C57.5595,207.141 57.174,207.06 56.823,206.898 C56.472,206.736 56.1495,206.457 55.8555,206.061 L55.8555,206.061 L55.8555,201.651 C56.1855,201.213 56.544,200.874 56.931,200.634 C57.318,200.394 57.7725,200.274 58.2945,200.274 C59.0445,200.274 59.622,200.5365 60.027,201.0615 C60.432,201.5865 60.6345,202.407 60.6345,203.523 C60.6345,204.723 60.4065,205.626 59.9505,206.232 C59.4945,206.838 58.8375,207.141 57.9795,207.141 Z M68.1675,208.383 C68.8335,208.383 69.4335,208.2735 69.9675,208.0545 C70.5015,207.8355 70.9575,207.522 71.3355,207.114 C71.7135,206.706 72.003,206.214 72.204,205.638 C72.405,205.062 72.5055,204.414 72.5055,203.694 C72.5055,202.98 72.405,202.3335 72.204,201.7545 C72.003,201.1755 71.7135,200.682 71.3355,200.274 C70.9575,199.866 70.5015,199.551 69.9675,199.329 C69.4335,199.107 68.8335,198.996 68.1675,198.996 C67.4955,198.996 66.891,199.107 66.354,199.329 C65.817,199.551 65.3595,199.866 64.9815,200.274 C64.6035,200.682 64.314,201.1755 64.113,201.7545 C63.912,202.3335 63.8115,202.98 63.8115,203.694 C63.8115,204.414 63.912,205.062 64.113,205.638 C64.314,206.214 64.6035,206.706 64.9815,207.114 C65.3595,207.522 65.817,207.8355 66.354,208.0545 C66.891,208.2735 67.4955,208.383 68.1675,208.383 Z M68.1675,207.132 C67.2555,207.132 66.576,206.8305 66.129,206.2275 C65.682,205.6245 65.4585,204.783 65.4585,203.703 C65.4585,203.163 65.514,202.6785 65.625,202.2495 C65.736,201.8205 65.904,201.459 66.129,201.165 C66.354,200.871 66.636,200.646 66.975,200.49 C67.314,200.334 67.7115,200.256 68.1675,200.256 C69.0675,200.256 69.7395,200.559 70.1835,201.165 C70.6275,201.771 70.8495,202.617 70.8495,203.703 C70.8495,204.783 70.6275,205.6245 70.1835,206.2275 C69.7395,206.8305 69.0675,207.132 68.1675,207.132 Z M83.0085,208.401 C83.4225,208.401 83.8245,208.3275 84.2145,208.1805 C84.6045,208.0335 84.9405,207.831 85.2225,207.573 L85.2225,207.573 L84.7455,206.808 C84.6855,206.706 84.6105,206.655 84.5205,206.655 C84.4725,206.655 84.417,206.6775 84.354,206.7225 C84.291,206.7675 84.2145,206.817 84.1245,206.871 C84.0345,206.925 83.928,206.9745 83.805,207.0195 C83.682,207.0645 83.5365,207.087 83.3685,207.087 C83.0805,207.087 82.842,206.994 82.653,206.808 C82.464,206.622 82.3695,206.337 82.3695,205.953 L82.3695,205.953 L82.3695,200.481 L85.0065,200.481 L85.0065,199.32 L82.3695,199.32 L82.3695,196.179 L81.5595,196.179 C81.4575,196.179 81.375,196.2075 81.312,196.2645 C81.249,196.3215 81.2085,196.395 81.1905,196.485 L81.1905,196.485 L80.8215,199.32 L76.5285,199.32 L76.5285,196.179 L75.7185,196.179 C75.6165,196.179 75.534,196.2075 75.471,196.2645 C75.408,196.3215 75.3675,196.395 75.3495,196.485 L75.3495,196.485 L74.9805,199.302 L73.4865,199.491 L73.4865,200.13 C73.4865,200.25 73.5195,200.3385 73.5855,200.3955 C73.6515,200.4525 73.7325,200.481 73.8285,200.481 L73.8285,200.481 L74.9265,200.481 L74.9265,206.061 C74.9265,206.817 75.12,207.396 75.507,207.798 C75.894,208.2 76.4475,208.401 77.1675,208.401 C77.5815,208.401 77.9835,208.3275 78.3735,208.1805 C78.7635,208.0335 79.0965,207.831 79.3725,207.573 L79.3725,207.573 L78.9045,206.808 C78.8385,206.706 78.7635,206.655 78.6795,206.655 C78.6315,206.655 78.576,206.6775 78.513,206.7225 C78.45,206.7675 78.3735,206.817 78.2835,206.871 C78.1935,206.925 78.087,206.9745 77.964,207.0195 C77.841,207.0645 77.6955,207.087 77.5275,207.087 C77.2335,207.087 76.9935,206.994 76.8075,206.808 C76.6215,206.622 76.5285,206.337 76.5285,205.953 L76.5285,205.953 L76.5285,200.481 L80.7675,200.481 L80.7675,206.061 C80.7675,206.817 80.9625,207.396 81.3525,207.798 C81.7425,208.2 82.2945,208.401 83.0085,208.401 Z M88.3185,208.257 L88.3185,195 L86.7165,195 L86.7165,208.257 L88.3185,208.257 Z M94.7355,208.383 C95.0655,208.383 95.3985,208.3545 95.7345,208.2975 C96.0705,208.2405 96.396,208.155 96.711,208.041 C97.026,207.927 97.3215,207.7815 97.5975,207.6045 C97.8735,207.4275 98.1105,207.219 98.3085,206.979 L98.3085,206.979 L97.8585,206.394 C97.7865,206.292 97.6845,206.241 97.5525,206.241 C97.4505,206.241 97.329,206.2875 97.188,206.3805 C97.047,206.4735 96.8715,206.574 96.6615,206.682 C96.4515,206.79 96.201,206.8905 95.91,206.9835 C95.619,207.0765 95.2725,207.123 94.8705,207.123 C94.4385,207.123 94.0485,207.0525 93.7005,206.9115 C93.3525,206.7705 93.0525,206.5575 92.8005,206.2725 C92.5485,205.9875 92.352,205.632 92.211,205.206 C92.07,204.78 91.9905,204.279 91.9725,203.703 L91.9725,203.703 L98.0655,203.703 C98.2155,203.703 98.3175,203.661 98.3715,203.577 C98.4255,203.493 98.4525,203.325 98.4525,203.073 C98.4525,202.425 98.3565,201.8475 98.1645,201.3405 C97.9725,200.8335 97.707,200.4075 97.368,200.0625 C97.029,199.7175 96.627,199.4535 96.162,199.2705 C95.697,199.0875 95.1915,198.996 94.6455,198.996 C93.9855,198.996 93.3915,199.1115 92.8635,199.3425 C92.3355,199.5735 91.8885,199.8915 91.5225,200.2965 C91.1565,200.7015 90.876,201.18 90.681,201.732 C90.486,202.284 90.3885,202.878 90.3885,203.514 C90.3885,204.3 90.4965,204.996 90.7125,205.602 C90.9285,206.208 91.23,206.7165 91.617,207.1275 C92.004,207.5385 92.463,207.8505 92.994,208.0635 C93.525,208.2765 94.1055,208.383 94.7355,208.383 Z M97.0125,202.704 L92.0265,202.704 C92.1345,201.912 92.412,201.2925 92.859,200.8455 C93.306,200.3985 93.9135,200.175 94.6815,200.175 C95.0475,200.175 95.3745,200.2365 95.6625,200.3595 C95.9505,200.4825 96.195,200.6565 96.396,200.8815 C96.597,201.1065 96.75,201.3735 96.855,201.6825 C96.96,201.9915 97.0125,202.332 97.0125,202.704 L97.0125,202.704 Z M106.6335,208.257 L106.6335,201.543 C106.9815,201.153 107.361,200.844 107.772,200.616 C108.183,200.388 108.6255,200.274 109.0995,200.274 C109.7415,200.274 110.22,200.4645 110.535,200.8455 C110.85,201.2265 111.0075,201.762 111.0075,202.452 L111.0075,202.452 L111.0075,208.257 L112.6185,208.257 L112.6185,202.452 C112.6185,201.936 112.5525,201.465 112.4205,201.039 C112.2885,200.613 112.095,200.2485 111.84,199.9455 C111.585,199.6425 111.267,199.4085 110.886,199.2435 C110.505,199.0785 110.0655,198.996 109.5675,198.996 C109.2435,198.996 108.942,199.0305 108.663,199.0995 C108.384,199.1685 108.12,199.2675 107.871,199.3965 C107.622,199.5255 107.3865,199.68 107.1645,199.86 C106.9425,200.04 106.7325,200.241 106.5345,200.463 L106.5345,200.463 L106.4085,199.473 C106.3545,199.251 106.2135,199.14 105.9855,199.14 L105.9855,199.14 L105.0225,199.14 L105.0225,208.257 L106.6335,208.257 Z M118.8915,208.383 C119.2215,208.383 119.5545,208.3545 119.8905,208.2975 C120.2265,208.2405 120.552,208.155 120.867,208.041 C121.182,207.927 121.4775,207.7815 121.7535,207.6045 C122.0295,207.4275 122.2665,207.219 122.4645,206.979 L122.4645,206.979 L122.0145,206.394 C121.9425,206.292 121.8405,206.241 121.7085,206.241 C121.6065,206.241 121.485,206.2875 121.344,206.3805 C121.203,206.4735 121.0275,206.574 120.8175,206.682 C120.6075,206.79 120.357,206.8905 120.066,206.9835 C119.775,207.0765 119.4285,207.123 119.0265,207.123 C118.5945,207.123 118.2045,207.0525 117.8565,206.9115 C117.5085,206.7705 117.2085,206.5575 116.9565,206.2725 C116.7045,205.9875 116.508,205.632 116.367,205.206 C116.226,204.78 116.1465,204.279 116.1285,203.703 L116.1285,203.703 L122.2215,203.703 C122.3715,203.703 122.4735,203.661 122.5275,203.577 C122.5815,203.493 122.6085,203.325 122.6085,203.073 C122.6085,202.425 122.5125,201.8475 122.3205,201.3405 C122.1285,200.8335 121.863,200.4075 121.524,200.0625 C121.185,199.7175 120.783,199.4535 120.318,199.2705 C119.853,199.0875 119.3475,198.996 118.8015,198.996 C118.1415,198.996 117.5475,199.1115 117.0195,199.3425 C116.4915,199.5735 116.0445,199.8915 115.6785,200.2965 C115.3125,200.7015 115.032,201.18 114.837,201.732 C114.642,202.284 114.5445,202.878 114.5445,203.514 C114.5445,204.3 114.6525,204.996 114.8685,205.602 C115.0845,206.208 115.386,206.7165 115.773,207.1275 C116.16,207.5385 116.619,207.8505 117.15,208.0635 C117.681,208.2765 118.2615,208.383 118.8915,208.383 Z M121.1685,202.704 L116.1825,202.704 C116.2905,201.912 116.568,201.2925 117.015,200.8455 C117.462,200.3985 118.0695,200.175 118.8375,200.175 C119.2035,200.175 119.5305,200.2365 119.8185,200.3595 C120.1065,200.4825 120.351,200.6565 120.552,200.8815 C120.753,201.1065 120.906,201.3735 121.011,201.6825 C121.116,201.9915 121.1685,202.332 121.1685,202.704 L121.1685,202.704 Z M128.0715,208.383 C128.4015,208.383 128.7255,208.356 129.0435,208.302 C129.3615,208.248 129.666,208.1625 129.957,208.0455 C130.248,207.9285 130.5195,207.783 130.7715,207.609 C131.0235,207.435 131.2485,207.225 131.4465,206.979 L131.4465,206.979 L130.9965,206.394 C130.9245,206.292 130.8225,206.241 130.6905,206.241 C130.5825,206.241 130.473,206.2875 130.362,206.3805 C130.251,206.4735 130.113,206.577 129.948,206.691 C129.783,206.805 129.5745,206.9085 129.3225,207.0015 C129.0705,207.0945 128.7495,207.141 128.3595,207.141 C127.9515,207.141 127.584,207.0645 127.257,206.9115 C126.93,206.7585 126.651,206.5365 126.42,206.2455 C126.189,205.9545 126.0105,205.5945 125.8845,205.1655 C125.7585,204.7365 125.6955,204.246 125.6955,203.694 C125.6955,203.166 125.754,202.689 125.871,202.263 C125.988,201.837 126.162,201.474 126.393,201.174 C126.624,200.874 126.9105,200.6445 127.2525,200.4855 C127.5945,200.3265 127.9905,200.247 128.4405,200.247 C128.7765,200.247 129.06,200.2845 129.291,200.3595 C129.522,200.4345 129.717,200.517 129.876,200.607 C130.035,200.697 130.1685,200.7795 130.2765,200.8545 C130.3845,200.9295 130.4835,200.967 130.5735,200.967 C130.6575,200.967 130.7235,200.949 130.7715,200.913 C130.8195,200.877 130.8675,200.826 130.9155,200.76 L130.9155,200.76 L131.3385,200.184 C130.9605,199.806 130.527,199.5135 130.038,199.3065 C129.549,199.0995 128.9835,198.996 128.3415,198.996 C127.6515,198.996 127.041,199.113 126.51,199.347 C125.979,199.581 125.532,199.9065 125.169,200.3235 C124.806,200.7405 124.53,201.237 124.341,201.813 C124.152,202.389 124.0575,203.016 124.0575,203.694 C124.0575,204.438 124.1595,205.101 124.3635,205.683 C124.5675,206.265 124.8495,206.7555 125.2095,207.1545 C125.5695,207.5535 125.994,207.858 126.483,208.068 C126.972,208.278 127.5015,208.383 128.0715,208.383 Z M134.7765,208.257 L134.7765,203.901 L135.2355,203.901 C135.4155,203.901 135.549,203.9205 135.636,203.9595 C135.723,203.9985 135.8115,204.081 135.9015,204.207 L135.9015,204.207 L138.8985,207.942 C138.9705,208.062 139.056,208.1445 139.155,208.1895 C139.254,208.2345 139.3725,208.257 139.5105,208.257 L139.5105,208.257 L140.9415,208.257 L137.3775,203.757 C137.2995,203.637 137.217,203.5305 137.13,203.4375 C137.043,203.3445 136.9455,203.262 136.8375,203.19 C137.0235,203.076 137.1975,202.917 137.3595,202.713 L137.3595,202.713 L140.7165,199.14 L139.2675,199.14 C139.1115,199.14 138.987,199.1685 138.894,199.2255 C138.801,199.2825 138.7125,199.362 138.6285,199.464 L138.6285,199.464 L135.7485,202.551 C135.6585,202.653 135.573,202.7205 135.492,202.7535 C135.411,202.7865 135.3105,202.803 135.1905,202.803 L135.1905,202.803 L134.7765,202.803 L134.7765,195 L133.1655,195 L133.1655,208.257 L134.7765,208.257 Z M144.6855,208.401 C145.2435,208.401 145.7355,208.326 146.1615,208.176 C146.5875,208.026 146.9475,207.8205 147.2415,207.5595 C147.5355,207.2985 147.7575,206.9895 147.9075,206.6325 C148.0575,206.2755 148.1325,205.887 148.1325,205.467 C148.1325,205.101 148.065,204.7875 147.93,204.5265 C147.795,204.2655 147.6165,204.045 147.3945,203.865 C147.1725,203.685 146.9205,203.535 146.6385,203.415 C146.3565,203.295 146.067,203.1855 145.77,203.0865 C145.473,202.9875 145.1835,202.8945 144.9015,202.8075 C144.6195,202.7205 144.3675,202.62 144.1455,202.506 C143.9235,202.392 143.745,202.257 143.61,202.101 C143.475,201.945 143.4075,201.75 143.4075,201.516 C143.4075,201.33 143.448,201.1575 143.529,200.9985 C143.61,200.8395 143.727,200.7 143.88,200.58 C144.033,200.46 144.2175,200.3655 144.4335,200.2965 C144.6495,200.2275 144.8925,200.193 145.1625,200.193 C145.4745,200.193 145.7445,200.2275 145.9725,200.2965 C146.2005,200.3655 146.397,200.4405 146.562,200.5215 C146.727,200.6025 146.8665,200.676 146.9805,200.742 C147.0945,200.808 147.1965,200.841 147.2865,200.841 C147.4365,200.841 147.5475,200.775 147.6195,200.643 L147.6195,200.643 L147.9795,200.058 C147.6315,199.728 147.219,199.4685 146.742,199.2795 C146.265,199.0905 145.7265,198.996 145.1265,198.996 C144.6105,198.996 144.1515,199.068 143.7495,199.212 C143.3475,199.356 143.0085,199.5495 142.7325,199.7925 C142.4565,200.0355 142.2465,200.3175 142.1025,200.6385 C141.9585,200.9595 141.8865,201.294 141.8865,201.642 C141.8865,202.032 141.954,202.3635 142.089,202.6365 C142.224,202.9095 142.4025,203.139 142.6245,203.325 C142.8465,203.511 143.1,203.6655 143.385,203.7885 C143.67,203.9115 143.961,204.021 144.258,204.117 C144.555,204.213 144.846,204.3045 145.131,204.3915 C145.416,204.4785 145.6695,204.5805 145.8915,204.6975 C146.1135,204.8145 146.292,204.9555 146.427,205.1205 C146.562,205.2855 146.6295,205.494 146.6295,205.746 C146.6295,205.95 146.592,206.142 146.517,206.322 C146.442,206.502 146.3265,206.661 146.1705,206.799 C146.0145,206.937 145.8195,207.0465 145.5855,207.1275 C145.3515,207.2085 145.0785,207.249 144.7665,207.249 C144.4005,207.249 144.0945,207.207 143.8485,207.123 C143.6025,207.039 143.394,206.946 143.223,206.844 C143.052,206.742 142.9065,206.649 142.7865,206.565 C142.6665,206.481 142.5525,206.439 142.4445,206.439 C142.3425,206.439 142.2585,206.46 142.1925,206.502 C142.1265,206.544 142.0695,206.604 142.0215,206.682 L142.0215,206.682 L141.6435,207.294 C142.0035,207.618 142.4415,207.8835 142.9575,208.0905 C143.4735,208.2975 144.0495,208.401 144.6855,208.401 Z M156.5925,208.401 C156.9405,208.401 157.257,208.3695 157.542,208.3065 C157.827,208.2435 158.0955,208.1535 158.3475,208.0365 C158.5995,207.9195 158.8395,207.7755 159.0675,207.6045 C159.2955,207.4335 159.5295,207.237 159.7695,207.015 L159.7695,207.015 L159.9495,207.879 C159.9975,208.029 160.0635,208.1295 160.1475,208.1805 C160.2315,208.2315 160.3515,208.257 160.5075,208.257 L160.5075,208.257 L161.2185,208.257 L161.2185,202.425 C161.2185,201.915 161.1495,201.447 161.0115,201.021 C160.8735,200.595 160.6695,200.232 160.3995,199.932 C160.1295,199.632 159.7965,199.398 159.4005,199.23 C159.0045,199.062 158.5515,198.978 158.0415,198.978 C157.3335,198.978 156.6885,199.098 156.1065,199.338 C155.5245,199.578 154.9815,199.941 154.4775,200.427 L154.4775,200.427 L154.7655,200.94 C154.8195,201.024 154.8855,201.0945 154.9635,201.1515 C155.0415,201.2085 155.1345,201.237 155.2425,201.237 C155.3805,201.237 155.52,201.1875 155.661,201.0885 C155.802,200.9895 155.97,200.8785 156.165,200.7555 C156.36,200.6325 156.591,200.5215 156.858,200.4225 C157.125,200.3235 157.4565,200.274 157.8525,200.274 C158.4405,200.274 158.8875,200.4555 159.1935,200.8185 C159.4995,201.1815 159.6525,201.717 159.6525,202.425 L159.6525,202.425 L159.6525,203.136 C158.6145,203.16 157.7385,203.2545 157.0245,203.4195 C156.3105,203.5845 155.7315,203.796 155.2875,204.054 C154.8435,204.312 154.5225,204.6075 154.3245,204.9405 C154.1265,205.2735 154.0275,205.62 154.0275,205.98 C154.0275,206.394 154.095,206.7525 154.23,207.0555 C154.365,207.3585 154.548,207.609 154.779,207.807 C155.01,208.005 155.2815,208.1535 155.5935,208.2525 C155.9055,208.3515 156.2385,208.401 156.5925,208.401 Z M157.0695,207.276 C156.8595,207.276 156.663,207.2505 156.48,207.1995 C156.297,207.1485 156.138,207.0675 156.003,206.9565 C155.868,206.8455 155.7615,206.703 155.6835,206.529 C155.6055,206.355 155.5665,206.148 155.5665,205.908 C155.5665,205.656 155.64,205.428 155.787,205.224 C155.934,205.02 156.171,204.843 156.498,204.693 C156.825,204.543 157.248,204.4215 157.767,204.3285 C158.286,204.2355 158.9145,204.177 159.6525,204.153 L159.6525,204.153 L159.6525,206.043 C159.4725,206.235 159.288,206.406 159.099,206.556 C158.91,206.706 158.712,206.835 158.505,206.943 C158.298,207.051 158.0775,207.1335 157.8435,207.1905 C157.6095,207.2475 157.3515,207.276 157.0695,207.276 Z M165.2685,208.257 L165.2685,201.543 C165.6165,201.153 165.996,200.844 166.407,200.616 C166.818,200.388 167.2605,200.274 167.7345,200.274 C168.3765,200.274 168.855,200.4645 169.17,200.8455 C169.485,201.2265 169.6425,201.762 169.6425,202.452 L169.6425,202.452 L169.6425,208.257 L171.2535,208.257 L171.2535,202.452 C171.2535,201.936 171.1875,201.465 171.0555,201.039 C170.9235,200.613 170.73,200.2485 170.475,199.9455 C170.22,199.6425 169.902,199.4085 169.521,199.2435 C169.14,199.0785 168.7005,198.996 168.2025,198.996 C167.8785,198.996 167.577,199.0305 167.298,199.0995 C167.019,199.1685 166.755,199.2675 166.506,199.3965 C166.257,199.5255 166.0215,199.68 165.7995,199.86 C165.5775,200.04 165.3675,200.241 165.1695,200.463 L165.1695,200.463 L165.0435,199.473 C164.9895,199.251 164.8485,199.14 164.6205,199.14 L164.6205,199.14 L163.6575,199.14 L163.6575,208.257 L165.2685,208.257 Z M176.6535,208.383 C177.3075,208.383 177.8835,208.239 178.3815,207.951 C178.8795,207.663 179.3235,207.285 179.7135,206.817 L179.7135,206.817 L179.8575,207.924 C179.9175,208.146 180.0615,208.257 180.2895,208.257 L180.2895,208.257 L181.2435,208.257 L181.2435,195 L179.6415,195 L179.6415,200.049 C179.3295,199.713 178.974,199.4505 178.575,199.2615 C178.176,199.0725 177.6975,198.978 177.1395,198.978 C176.5275,198.978 175.977,199.0995 175.488,199.3425 C174.999,199.5855 174.5865,199.92 174.2505,200.346 C173.9145,200.772 173.6565,201.2745 173.4765,201.8535 C173.2965,202.4325 173.2065,203.058 173.2065,203.73 C173.2065,204.486 173.2875,205.155 173.4495,205.737 C173.6115,206.319 173.8425,206.805 174.1425,207.195 C174.4425,207.585 174.8055,207.8805 175.2315,208.0815 C175.6575,208.2825 176.1315,208.383 176.6535,208.383 Z M177.1755,207.087 C176.8095,207.087 176.4825,207.024 176.1945,206.898 C175.9065,206.772 175.6635,206.5725 175.4655,206.2995 C175.2675,206.0265 175.1175,205.6785 175.0155,205.2555 C174.9135,204.8325 174.8625,204.324 174.8625,203.73 C174.8625,202.608 175.0905,201.744 175.5465,201.138 C176.0025,200.532 176.6535,200.229 177.4995,200.229 C177.9315,200.229 178.3215,200.3085 178.6695,200.4675 C179.0175,200.6265 179.3415,200.907 179.6415,201.309 L179.6415,201.309 L179.6415,205.71 C179.3115,206.148 178.95,206.487 178.557,206.727 C178.164,206.967 177.7035,207.087 177.1755,207.087 Z M190.2705,208.401 C190.6185,208.401 190.935,208.3695 191.22,208.3065 C191.505,208.2435 191.7735,208.1535 192.0255,208.0365 C192.2775,207.9195 192.5175,207.7755 192.7455,207.6045 C192.9735,207.4335 193.2075,207.237 193.4475,207.015 L193.4475,207.015 L193.6275,207.879 C193.6755,208.029 193.7415,208.1295 193.8255,208.1805 C193.9095,208.2315 194.0295,208.257 194.1855,208.257 L194.1855,208.257 L194.8965,208.257 L194.8965,202.425 C194.8965,201.915 194.8275,201.447 194.6895,201.021 C194.5515,200.595 194.3475,200.232 194.0775,199.932 C193.8075,199.632 193.4745,199.398 193.0785,199.23 C192.6825,199.062 192.2295,198.978 191.7195,198.978 C191.0115,198.978 190.3665,199.098 189.7845,199.338 C189.2025,199.578 188.6595,199.941 188.1555,200.427 L188.1555,200.427 L188.4435,200.94 C188.4975,201.024 188.5635,201.0945 188.6415,201.1515 C188.7195,201.2085 188.8125,201.237 188.9205,201.237 C189.0585,201.237 189.198,201.1875 189.339,201.0885 C189.48,200.9895 189.648,200.8785 189.843,200.7555 C190.038,200.6325 190.269,200.5215 190.536,200.4225 C190.803,200.3235 191.1345,200.274 191.5305,200.274 C192.1185,200.274 192.5655,200.4555 192.8715,200.8185 C193.1775,201.1815 193.3305,201.717 193.3305,202.425 L193.3305,202.425 L193.3305,203.136 C192.2925,203.16 191.4165,203.2545 190.7025,203.4195 C189.9885,203.5845 189.4095,203.796 188.9655,204.054 C188.5215,204.312 188.2005,204.6075 188.0025,204.9405 C187.8045,205.2735 187.7055,205.62 187.7055,205.98 C187.7055,206.394 187.773,206.7525 187.908,207.0555 C188.043,207.3585 188.226,207.609 188.457,207.807 C188.688,208.005 188.9595,208.1535 189.2715,208.2525 C189.5835,208.3515 189.9165,208.401 190.2705,208.401 Z M190.7475,207.276 C190.5375,207.276 190.341,207.2505 190.158,207.1995 C189.975,207.1485 189.816,207.0675 189.681,206.9565 C189.546,206.8455 189.4395,206.703 189.3615,206.529 C189.2835,206.355 189.2445,206.148 189.2445,205.908 C189.2445,205.656 189.318,205.428 189.465,205.224 C189.612,205.02 189.849,204.843 190.176,204.693 C190.503,204.543 190.926,204.4215 191.445,204.3285 C191.964,204.2355 192.5925,204.177 193.3305,204.153 L193.3305,204.153 L193.3305,206.043 C193.1505,206.235 192.966,206.406 192.777,206.556 C192.588,206.706 192.39,206.835 192.183,206.943 C191.976,207.051 191.7555,207.1335 191.5215,207.1905 C191.2875,207.2475 191.0295,207.276 190.7475,207.276 Z M198.9915,208.257 L198.9915,195 L197.3895,195 L197.3895,208.257 L198.9915,208.257 Z M203.2395,208.257 L203.2395,195 L201.6375,195 L201.6375,208.257 L203.2395,208.257 Z M209.6745,208.383 C210.3405,208.383 210.9405,208.2735 211.4745,208.0545 C212.0085,207.8355 212.4645,207.522 212.8425,207.114 C213.2205,206.706 213.51,206.214 213.711,205.638 C213.912,205.062 214.0125,204.414 214.0125,203.694 C214.0125,202.98 213.912,202.3335 213.711,201.7545 C213.51,201.1755 213.2205,200.682 212.8425,200.274 C212.4645,199.866 212.0085,199.551 211.4745,199.329 C210.9405,199.107 210.3405,198.996 209.6745,198.996 C209.0025,198.996 208.398,199.107 207.861,199.329 C207.324,199.551 206.8665,199.866 206.4885,200.274 C206.1105,200.682 205.821,201.1755 205.62,201.7545 C205.419,202.3335 205.3185,202.98 205.3185,203.694 C205.3185,204.414 205.419,205.062 205.62,205.638 C205.821,206.214 206.1105,206.706 206.4885,207.114 C206.8665,207.522 207.324,207.8355 207.861,208.0545 C208.398,208.2735 209.0025,208.383 209.6745,208.383 Z M209.6745,207.132 C208.7625,207.132 208.083,206.8305 207.636,206.2275 C207.189,205.6245 206.9655,204.783 206.9655,203.703 C206.9655,203.163 207.021,202.6785 207.132,202.2495 C207.243,201.8205 207.411,201.459 207.636,201.165 C207.861,200.871 208.143,200.646 208.482,200.49 C208.821,200.334 209.2185,200.256 209.6745,200.256 C210.5745,200.256 211.2465,200.559 211.6905,201.165 C212.1345,201.771 212.3565,202.617 212.3565,203.703 C212.3565,204.783 212.1345,205.6245 211.6905,206.2275 C211.2465,206.8305 210.5745,207.132 209.6745,207.132 Z M219.0885,208.257 C219.2745,208.257 219.3945,208.155 219.4485,207.951 L219.4485,207.951 L221.5005,201.777 C221.5485,201.633 221.5875,201.4905 221.6175,201.3495 C221.6475,201.2085 221.6775,201.069 221.7075,200.931 C221.7375,201.069 221.7675,201.2085 221.7975,201.3495 C221.8275,201.4905 221.8665,201.63 221.9145,201.768 L221.9145,201.768 L223.9305,207.951 C223.9905,208.155 224.0985,208.257 224.2545,208.257 L224.2545,208.257 L225.5235,208.257 L228.4755,199.14 L227.2695,199.14 C227.1555,199.14 227.0565,199.1715 226.9725,199.2345 C226.8885,199.2975 226.8315,199.377 226.8015,199.473 L226.8015,199.473 L225.0195,205.341 C224.9655,205.557 224.916,205.7655 224.871,205.9665 C224.826,206.1675 224.7885,206.367 224.7585,206.565 C224.7105,206.367 224.6595,206.166 224.6055,205.962 C224.5515,205.758 224.4915,205.551 224.4255,205.341 L224.4255,205.341 L222.5445,199.437 C222.5145,199.347 222.4605,199.272 222.3825,199.212 C222.3045,199.152 222.2055,199.122 222.0855,199.122 L222.0855,199.122 L221.3835,199.122 C221.2755,199.122 221.184,199.152 221.109,199.212 C221.034,199.272 220.9815,199.347 220.9515,199.437 L220.9515,199.437 L219.0255,205.341 C218.9595,205.551 218.898,205.758 218.841,205.962 C218.784,206.166 218.7285,206.367 218.6745,206.565 C218.6145,206.181 218.5335,205.773 218.4315,205.341 L218.4315,205.341 L216.6855,199.473 C216.6555,199.383 216.597,199.305 216.51,199.239 C216.423,199.173 216.3165,199.14 216.1905,199.14 L216.1905,199.14 L214.9305,199.14 L217.8825,208.257 L219.0885,208.257 Z M232.3455,208.401 C232.9035,208.401 233.3955,208.326 233.8215,208.176 C234.2475,208.026 234.6075,207.8205 234.9015,207.5595 C235.1955,207.2985 235.4175,206.9895 235.5675,206.6325 C235.7175,206.2755 235.7925,205.887 235.7925,205.467 C235.7925,205.101 235.725,204.7875 235.59,204.5265 C235.455,204.2655 235.2765,204.045 235.0545,203.865 C234.8325,203.685 234.5805,203.535 234.2985,203.415 C234.0165,203.295 233.727,203.1855 233.43,203.0865 C233.133,202.9875 232.8435,202.8945 232.5615,202.8075 C232.2795,202.7205 232.0275,202.62 231.8055,202.506 C231.5835,202.392 231.405,202.257 231.27,202.101 C231.135,201.945 231.0675,201.75 231.0675,201.516 C231.0675,201.33 231.108,201.1575 231.189,200.9985 C231.27,200.8395 231.387,200.7 231.54,200.58 C231.693,200.46 231.8775,200.3655 232.0935,200.2965 C232.3095,200.2275 232.5525,200.193 232.8225,200.193 C233.1345,200.193 233.4045,200.2275 233.6325,200.2965 C233.8605,200.3655 234.057,200.4405 234.222,200.5215 C234.387,200.6025 234.5265,200.676 234.6405,200.742 C234.7545,200.808 234.8565,200.841 234.9465,200.841 C235.0965,200.841 235.2075,200.775 235.2795,200.643 L235.2795,200.643 L235.6395,200.058 C235.2915,199.728 234.879,199.4685 234.402,199.2795 C233.925,199.0905 233.3865,198.996 232.7865,198.996 C232.2705,198.996 231.8115,199.068 231.4095,199.212 C231.0075,199.356 230.6685,199.5495 230.3925,199.7925 C230.1165,200.0355 229.9065,200.3175 229.7625,200.6385 C229.6185,200.9595 229.5465,201.294 229.5465,201.642 C229.5465,202.032 229.614,202.3635 229.749,202.6365 C229.884,202.9095 230.0625,203.139 230.2845,203.325 C230.5065,203.511 230.76,203.6655 231.045,203.7885 C231.33,203.9115 231.621,204.021 231.918,204.117 C232.215,204.213 232.506,204.3045 232.791,204.3915 C233.076,204.4785 233.3295,204.5805 233.5515,204.6975 C233.7735,204.8145 233.952,204.9555 234.087,205.1205 C234.222,205.2855 234.2895,205.494 234.2895,205.746 C234.2895,205.95 234.252,206.142 234.177,206.322 C234.102,206.502 233.9865,206.661 233.8305,206.799 C233.6745,206.937 233.4795,207.0465 233.2455,207.1275 C233.0115,207.2085 232.7385,207.249 232.4265,207.249 C232.0605,207.249 231.7545,207.207 231.5085,207.123 C231.2625,207.039 231.054,206.946 230.883,206.844 C230.712,206.742 230.5665,206.649 230.4465,206.565 C230.3265,206.481 230.2125,206.439 230.1045,206.439 C230.0025,206.439 229.9185,206.46 229.8525,206.502 C229.7865,206.544 229.7295,206.604 229.6815,206.682 L229.6815,206.682 L229.3035,207.294 C229.6635,207.618 230.1015,207.8835 230.6175,208.0905 C231.1335,208.2975 231.7095,208.401 232.3455,208.401 Z M19.122,230.383 C19.728,230.383 20.274,230.2645 20.76,230.0275 C21.246,229.7905 21.6585,229.4575 21.9975,229.0285 C22.3365,228.5995 22.596,228.082 22.776,227.476 C22.956,226.87 23.046,226.198 23.046,225.46 C23.046,224.77 22.9665,224.149 22.8075,223.597 C22.6485,223.045 22.419,222.5755 22.119,222.1885 C21.819,221.8015 21.4545,221.506 21.0255,221.302 C20.5965,221.098 20.115,220.996 19.581,220.996 C18.951,220.996 18.3945,221.128 17.9115,221.392 C17.4285,221.656 16.995,222.01 16.611,222.454 L16.611,222.454 L16.611,217 L15,217 L15,230.257 L16.035,230.257 C16.263,230.257 16.401,230.143 16.449,229.915 L16.449,229.915 L16.53,229.087 C16.836,229.501 17.1945,229.8205 17.6055,230.0455 C18.0165,230.2705 18.522,230.383 19.122,230.383 Z M18.735,229.141 C18.315,229.141 17.9295,229.06 17.5785,228.898 C17.2275,228.736 16.905,228.457 16.611,228.061 L16.611,228.061 L16.611,223.651 C16.941,223.213 17.2995,222.874 17.6865,222.634 C18.0735,222.394 18.528,222.274 19.05,222.274 C19.8,222.274 20.3775,222.5365 20.7825,223.0615 C21.1875,223.5865 21.39,224.407 21.39,225.523 C21.39,226.723 21.162,227.626 20.706,228.232 C20.25,228.838 19.593,229.141 18.735,229.141 Z M28.905,230.383 C29.235,230.383 29.568,230.3545 29.904,230.2975 C30.24,230.2405 30.5655,230.155 30.8805,230.041 C31.1955,229.927 31.491,229.7815 31.767,229.6045 C32.043,229.4275 32.28,229.219 32.478,228.979 L32.478,228.979 L32.028,228.394 C31.956,228.292 31.854,228.241 31.722,228.241 C31.62,228.241 31.4985,228.2875 31.3575,228.3805 C31.2165,228.4735 31.041,228.574 30.831,228.682 C30.621,228.79 30.3705,228.8905 30.0795,228.9835 C29.7885,229.0765 29.442,229.123 29.04,229.123 C28.608,229.123 28.218,229.0525 27.87,228.9115 C27.522,228.7705 27.222,228.5575 26.97,228.2725 C26.718,227.9875 26.5215,227.632 26.3805,227.206 C26.2395,226.78 26.16,226.279 26.142,225.703 L26.142,225.703 L32.235,225.703 C32.385,225.703 32.487,225.661 32.541,225.577 C32.595,225.493 32.622,225.325 32.622,225.073 C32.622,224.425 32.526,223.8475 32.334,223.3405 C32.142,222.8335 31.8765,222.4075 31.5375,222.0625 C31.1985,221.7175 30.7965,221.4535 30.3315,221.2705 C29.8665,221.0875 29.361,220.996 28.815,220.996 C28.155,220.996 27.561,221.1115 27.033,221.3425 C26.505,221.5735 26.058,221.8915 25.692,222.2965 C25.326,222.7015 25.0455,223.18 24.8505,223.732 C24.6555,224.284 24.558,224.878 24.558,225.514 C24.558,226.3 24.666,226.996 24.882,227.602 C25.098,228.208 25.3995,228.7165 25.7865,229.1275 C26.1735,229.5385 26.6325,229.8505 27.1635,230.0635 C27.6945,230.2765 28.275,230.383 28.905,230.383 Z M31.182,224.704 L26.196,224.704 C26.304,223.912 26.5815,223.2925 27.0285,222.8455 C27.4755,222.3985 28.083,222.175 28.851,222.175 C29.217,222.175 29.544,222.2365 29.832,222.3595 C30.12,222.4825 30.3645,222.6565 30.5655,222.8815 C30.7665,223.1065 30.9195,223.3735 31.0245,223.6825 C31.1295,223.9915 31.182,224.332 31.182,224.704 L31.182,224.704 Z M43.161,230.401 C43.575,230.401 43.977,230.3275 44.367,230.1805 C44.757,230.0335 45.093,229.831 45.375,229.573 L45.375,229.573 L44.898,228.808 C44.838,228.706 44.763,228.655 44.673,228.655 C44.625,228.655 44.5695,228.6775 44.5065,228.7225 C44.4435,228.7675 44.367,228.817 44.277,228.871 C44.187,228.925 44.0805,228.9745 43.9575,229.0195 C43.8345,229.0645 43.689,229.087 43.521,229.087 C43.233,229.087 42.9945,228.994 42.8055,228.808 C42.6165,228.622 42.522,228.337 42.522,227.953 L42.522,227.953 L42.522,222.481 L45.159,222.481 L45.159,221.32 L42.522,221.32 L42.522,218.179 L41.712,218.179 C41.61,218.179 41.5275,218.2075 41.4645,218.2645 C41.4015,218.3215 41.361,218.395 41.343,218.485 L41.343,218.485 L40.974,221.32 L36.681,221.32 L36.681,218.179 L35.871,218.179 C35.769,218.179 35.6865,218.2075 35.6235,218.2645 C35.5605,218.3215 35.52,218.395 35.502,218.485 L35.502,218.485 L35.133,221.302 L33.639,221.491 L33.639,222.13 C33.639,222.25 33.672,222.3385 33.738,222.3955 C33.804,222.4525 33.885,222.481 33.981,222.481 L33.981,222.481 L35.079,222.481 L35.079,228.061 C35.079,228.817 35.2725,229.396 35.6595,229.798 C36.0465,230.2 36.6,230.401 37.32,230.401 C37.734,230.401 38.136,230.3275 38.526,230.1805 C38.916,230.0335 39.249,229.831 39.525,229.573 L39.525,229.573 L39.057,228.808 C38.991,228.706 38.916,228.655 38.832,228.655 C38.784,228.655 38.7285,228.6775 38.6655,228.7225 C38.6025,228.7675 38.526,228.817 38.436,228.871 C38.346,228.925 38.2395,228.9745 38.1165,229.0195 C37.9935,229.0645 37.848,229.087 37.68,229.087 C37.386,229.087 37.146,228.994 36.96,228.808 C36.774,228.622 36.681,228.337 36.681,227.953 L36.681,227.953 L36.681,222.481 L40.92,222.481 L40.92,228.061 C40.92,228.817 41.115,229.396 41.505,229.798 C41.895,230.2 42.447,230.401 43.161,230.401 Z M50.595,230.383 C50.925,230.383 51.258,230.3545 51.594,230.2975 C51.93,230.2405 52.2555,230.155 52.5705,230.041 C52.8855,229.927 53.181,229.7815 53.457,229.6045 C53.733,229.4275 53.97,229.219 54.168,228.979 L54.168,228.979 L53.718,228.394 C53.646,228.292 53.544,228.241 53.412,228.241 C53.31,228.241 53.1885,228.2875 53.0475,228.3805 C52.9065,228.4735 52.731,228.574 52.521,228.682 C52.311,228.79 52.0605,228.8905 51.7695,228.9835 C51.4785,229.0765 51.132,229.123 50.73,229.123 C50.298,229.123 49.908,229.0525 49.56,228.9115 C49.212,228.7705 48.912,228.5575 48.66,228.2725 C48.408,227.9875 48.2115,227.632 48.0705,227.206 C47.9295,226.78 47.85,226.279 47.832,225.703 L47.832,225.703 L53.925,225.703 C54.075,225.703 54.177,225.661 54.231,225.577 C54.285,225.493 54.312,225.325 54.312,225.073 C54.312,224.425 54.216,223.8475 54.024,223.3405 C53.832,222.8335 53.5665,222.4075 53.2275,222.0625 C52.8885,221.7175 52.4865,221.4535 52.0215,221.2705 C51.5565,221.0875 51.051,220.996 50.505,220.996 C49.845,220.996 49.251,221.1115 48.723,221.3425 C48.195,221.5735 47.748,221.8915 47.382,222.2965 C47.016,222.7015 46.7355,223.18 46.5405,223.732 C46.3455,224.284 46.248,224.878 46.248,225.514 C46.248,226.3 46.356,226.996 46.572,227.602 C46.788,228.208 47.0895,228.7165 47.4765,229.1275 C47.8635,229.5385 48.3225,229.8505 48.8535,230.0635 C49.3845,230.2765 49.965,230.383 50.595,230.383 Z M52.872,224.704 L47.886,224.704 C47.994,223.912 48.2715,223.2925 48.7185,222.8455 C49.1655,222.3985 49.773,222.175 50.541,222.175 C50.907,222.175 51.234,222.2365 51.522,222.3595 C51.81,222.4825 52.0545,222.6565 52.2555,222.8815 C52.4565,223.1065 52.6095,223.3735 52.7145,223.6825 C52.8195,223.9915 52.872,224.332 52.872,224.704 L52.872,224.704 Z M57.885,230.257 L57.885,224.497 C57.999,224.185 58.1265,223.9075 58.2675,223.6645 C58.4085,223.4215 58.5675,223.2175 58.7445,223.0525 C58.9215,222.8875 59.1225,222.763 59.3475,222.679 C59.5725,222.595 59.829,222.553 60.117,222.553 C60.321,222.553 60.504,222.571 60.666,222.607 C60.828,222.643 60.951,222.661 61.035,222.661 C61.179,222.661 61.269,222.586 61.305,222.436 L61.305,222.436 L61.422,221.239 C61.284,221.149 61.1265,221.083 60.9495,221.041 C60.7725,220.999 60.588,220.978 60.396,220.978 C59.79,220.978 59.277,221.1535 58.857,221.5045 C58.437,221.8555 58.083,222.343 57.795,222.967 L57.795,222.967 L57.687,221.581 C57.663,221.419 57.618,221.305 57.552,221.239 C57.486,221.173 57.366,221.14 57.192,221.14 L57.192,221.14 L56.274,221.14 L56.274,230.257 L57.885,230.257 Z M70.017,230.401 C70.653,230.401 71.217,230.2675 71.709,230.0005 C72.201,229.7335 72.645,229.381 73.041,228.943 L73.041,228.943 L73.167,229.924 C73.227,230.146 73.371,230.257 73.599,230.257 L73.599,230.257 L74.553,230.257 L74.553,221.14 L72.951,221.14 L72.951,227.854 C72.603,228.25 72.2235,228.5605 71.8125,228.7855 C71.4015,229.0105 70.959,229.123 70.485,229.123 C69.837,229.123 69.3555,228.934 69.0405,228.556 C68.7255,228.178 68.568,227.644 68.568,226.954 L68.568,226.954 L68.568,221.14 L66.966,221.14 L66.966,226.954 C66.966,227.47 67.0305,227.941 67.1595,228.367 C67.2885,228.793 67.482,229.156 67.74,229.456 C67.998,229.756 68.3175,229.9885 68.6985,230.1535 C69.0795,230.3185 69.519,230.401 70.017,230.401 Z M79.467,230.401 C80.025,230.401 80.517,230.326 80.943,230.176 C81.369,230.026 81.729,229.8205 82.023,229.5595 C82.317,229.2985 82.539,228.9895 82.689,228.6325 C82.839,228.2755 82.914,227.887 82.914,227.467 C82.914,227.101 82.8465,226.7875 82.7115,226.5265 C82.5765,226.2655 82.398,226.045 82.176,225.865 C81.954,225.685 81.702,225.535 81.42,225.415 C81.138,225.295 80.8485,225.1855 80.5515,225.0865 C80.2545,224.9875 79.965,224.8945 79.683,224.8075 C79.401,224.7205 79.149,224.62 78.927,224.506 C78.705,224.392 78.5265,224.257 78.3915,224.101 C78.2565,223.945 78.189,223.75 78.189,223.516 C78.189,223.33 78.2295,223.1575 78.3105,222.9985 C78.3915,222.8395 78.5085,222.7 78.6615,222.58 C78.8145,222.46 78.999,222.3655 79.215,222.2965 C79.431,222.2275 79.674,222.193 79.944,222.193 C80.256,222.193 80.526,222.2275 80.754,222.2965 C80.982,222.3655 81.1785,222.4405 81.3435,222.5215 C81.5085,222.6025 81.648,222.676 81.762,222.742 C81.876,222.808 81.978,222.841 82.068,222.841 C82.218,222.841 82.329,222.775 82.401,222.643 L82.401,222.643 L82.761,222.058 C82.413,221.728 82.0005,221.4685 81.5235,221.2795 C81.0465,221.0905 80.508,220.996 79.908,220.996 C79.392,220.996 78.933,221.068 78.531,221.212 C78.129,221.356 77.79,221.5495 77.514,221.7925 C77.238,222.0355 77.028,222.3175 76.884,222.6385 C76.74,222.9595 76.668,223.294 76.668,223.642 C76.668,224.032 76.7355,224.3635 76.8705,224.6365 C77.0055,224.9095 77.184,225.139 77.406,225.325 C77.628,225.511 77.8815,225.6655 78.1665,225.7885 C78.4515,225.9115 78.7425,226.021 79.0395,226.117 C79.3365,226.213 79.6275,226.3045 79.9125,226.3915 C80.1975,226.4785 80.451,226.5805 80.673,226.6975 C80.895,226.8145 81.0735,226.9555 81.2085,227.1205 C81.3435,227.2855 81.411,227.494 81.411,227.746 C81.411,227.95 81.3735,228.142 81.2985,228.322 C81.2235,228.502 81.108,228.661 80.952,228.799 C80.796,228.937 80.601,229.0465 80.367,229.1275 C80.133,229.2085 79.86,229.249 79.548,229.249 C79.182,229.249 78.876,229.207 78.63,229.123 C78.384,229.039 78.1755,228.946 78.0045,228.844 C77.8335,228.742 77.688,228.649 77.568,228.565 C77.448,228.481 77.334,228.439 77.226,228.439 C77.124,228.439 77.04,228.46 76.974,228.502 C76.908,228.544 76.851,228.604 76.803,228.682 L76.803,228.682 L76.425,229.294 C76.785,229.618 77.223,229.8835 77.739,230.0905 C78.255,230.2975 78.831,230.401 79.467,230.401 Z M88.71,230.383 C89.04,230.383 89.373,230.3545 89.709,230.2975 C90.045,230.2405 90.3705,230.155 90.6855,230.041 C91.0005,229.927 91.296,229.7815 91.572,229.6045 C91.848,229.4275 92.085,229.219 92.283,228.979 L92.283,228.979 L91.833,228.394 C91.761,228.292 91.659,228.241 91.527,228.241 C91.425,228.241 91.3035,228.2875 91.1625,228.3805 C91.0215,228.4735 90.846,228.574 90.636,228.682 C90.426,228.79 90.1755,228.8905 89.8845,228.9835 C89.5935,229.0765 89.247,229.123 88.845,229.123 C88.413,229.123 88.023,229.0525 87.675,228.9115 C87.327,228.7705 87.027,228.5575 86.775,228.2725 C86.523,227.9875 86.3265,227.632 86.1855,227.206 C86.0445,226.78 85.965,226.279 85.947,225.703 L85.947,225.703 L92.04,225.703 C92.19,225.703 92.292,225.661 92.346,225.577 C92.4,225.493 92.427,225.325 92.427,225.073 C92.427,224.425 92.331,223.8475 92.139,223.3405 C91.947,222.8335 91.6815,222.4075 91.3425,222.0625 C91.0035,221.7175 90.6015,221.4535 90.1365,221.2705 C89.6715,221.0875 89.166,220.996 88.62,220.996 C87.96,220.996 87.366,221.1115 86.838,221.3425 C86.31,221.5735 85.863,221.8915 85.497,222.2965 C85.131,222.7015 84.8505,223.18 84.6555,223.732 C84.4605,224.284 84.363,224.878 84.363,225.514 C84.363,226.3 84.471,226.996 84.687,227.602 C84.903,228.208 85.2045,228.7165 85.5915,229.1275 C85.9785,229.5385 86.4375,229.8505 86.9685,230.0635 C87.4995,230.2765 88.08,230.383 88.71,230.383 Z M90.987,224.704 L86.001,224.704 C86.109,223.912 86.3865,223.2925 86.8335,222.8455 C87.2805,222.3985 87.888,222.175 88.656,222.175 C89.022,222.175 89.349,222.2365 89.637,222.3595 C89.925,222.4825 90.1695,222.6565 90.3705,222.8815 C90.5715,223.1065 90.7245,223.3735 90.8295,223.6825 C90.9345,223.9915 90.987,224.332 90.987,224.704 L90.987,224.704 Z M102.84,230.383 C103.506,230.383 104.106,230.2735 104.64,230.0545 C105.174,229.8355 105.63,229.522 106.008,229.114 C106.386,228.706 106.6755,228.214 106.8765,227.638 C107.0775,227.062 107.178,226.414 107.178,225.694 C107.178,224.98 107.0775,224.3335 106.8765,223.7545 C106.6755,223.1755 106.386,222.682 106.008,222.274 C105.63,221.866 105.174,221.551 104.64,221.329 C104.106,221.107 103.506,220.996 102.84,220.996 C102.168,220.996 101.5635,221.107 101.0265,221.329 C100.4895,221.551 100.032,221.866 99.654,222.274 C99.276,222.682 98.9865,223.1755 98.7855,223.7545 C98.5845,224.3335 98.484,224.98 98.484,225.694 C98.484,226.414 98.5845,227.062 98.7855,227.638 C98.9865,228.214 99.276,228.706 99.654,229.114 C100.032,229.522 100.4895,229.8355 101.0265,230.0545 C101.5635,230.2735 102.168,230.383 102.84,230.383 Z M102.84,229.132 C101.928,229.132 101.2485,228.8305 100.8015,228.2275 C100.3545,227.6245 100.131,226.783 100.131,225.703 C100.131,225.163 100.1865,224.6785 100.2975,224.2495 C100.4085,223.8205 100.5765,223.459 100.8015,223.165 C101.0265,222.871 101.3085,222.646 101.6475,222.49 C101.9865,222.334 102.384,222.256 102.84,222.256 C103.74,222.256 104.412,222.559 104.856,223.165 C105.3,223.771 105.522,224.617 105.522,225.703 C105.522,226.783 105.3,227.6245 104.856,228.2275 C104.412,228.8305 103.74,229.132 102.84,229.132 Z M111.21,230.257 L111.21,222.481 L113.784,222.481 L113.784,221.32 L111.156,221.32 L111.156,220.483 C111.156,220.093 111.1995,219.766 111.2865,219.502 C111.3735,219.238 111.498,219.025 111.66,218.863 C111.822,218.701 112.0155,218.584 112.2405,218.512 C112.4655,218.44 112.716,218.404 112.992,218.404 C113.238,218.404 113.4345,218.398 113.5815,218.386 C113.7285,218.374 113.808,218.296 113.82,218.152 L113.82,218.152 L113.856,217.351 C113.514,217.231 113.139,217.171 112.731,217.171 C112.251,217.171 111.819,217.243 111.435,217.387 C111.051,217.531 110.7225,217.7425 110.4495,218.0215 C110.1765,218.3005 109.9665,218.6425 109.8195,219.0475 C109.6725,219.4525 109.599,219.916 109.599,220.438 L109.599,220.438 L109.599,221.32 L108.159,221.32 L108.159,221.977 C108.159,222.097 108.1995,222.1885 108.2805,222.2515 C108.3615,222.3145 108.465,222.361 108.591,222.391 L108.591,222.391 L109.599,222.508 L109.599,230.257 L111.21,230.257 Z M123.414,230.383 C123.744,230.383 124.077,230.3545 124.413,230.2975 C124.749,230.2405 125.0745,230.155 125.3895,230.041 C125.7045,229.927 126,229.7815 126.276,229.6045 C126.552,229.4275 126.789,229.219 126.987,228.979 L126.987,228.979 L126.537,228.394 C126.465,228.292 126.363,228.241 126.231,228.241 C126.129,228.241 126.0075,228.2875 125.8665,228.3805 C125.7255,228.4735 125.55,228.574 125.34,228.682 C125.13,228.79 124.8795,228.8905 124.5885,228.9835 C124.2975,229.0765 123.951,229.123 123.549,229.123 C123.117,229.123 122.727,229.0525 122.379,228.9115 C122.031,228.7705 121.731,228.5575 121.479,228.2725 C121.227,227.9875 121.0305,227.632 120.8895,227.206 C120.7485,226.78 120.669,226.279 120.651,225.703 L120.651,225.703 L126.744,225.703 C126.894,225.703 126.996,225.661 127.05,225.577 C127.104,225.493 127.131,225.325 127.131,225.073 C127.131,224.425 127.035,223.8475 126.843,223.3405 C126.651,222.8335 126.3855,222.4075 126.0465,222.0625 C125.7075,221.7175 125.3055,221.4535 124.8405,221.2705 C124.3755,221.0875 123.87,220.996 123.324,220.996 C122.664,220.996 122.07,221.1115 121.542,221.3425 C121.014,221.5735 120.567,221.8915 120.201,222.2965 C119.835,222.7015 119.5545,223.18 119.3595,223.732 C119.1645,224.284 119.067,224.878 119.067,225.514 C119.067,226.3 119.175,226.996 119.391,227.602 C119.607,228.208 119.9085,228.7165 120.2955,229.1275 C120.6825,229.5385 121.1415,229.8505 121.6725,230.0635 C122.2035,230.2765 122.784,230.383 123.414,230.383 Z M125.691,224.704 L120.705,224.704 C120.813,223.912 121.0905,223.2925 121.5375,222.8455 C121.9845,222.3985 122.592,222.175 123.36,222.175 C123.726,222.175 124.053,222.2365 124.341,222.3595 C124.629,222.4825 124.8735,222.6565 125.0745,222.8815 C125.2755,223.1065 125.4285,223.3735 125.5335,223.6825 C125.6385,223.9915 125.691,224.332 125.691,224.704 L125.691,224.704 Z M130.704,230.257 L130.704,223.543 C131.052,223.153 131.4315,222.844 131.8425,222.616 C132.2535,222.388 132.696,222.274 133.17,222.274 C133.812,222.274 134.2905,222.4645 134.6055,222.8455 C134.9205,223.2265 135.078,223.762 135.078,224.452 L135.078,224.452 L135.078,230.257 L136.689,230.257 L136.689,224.452 C136.689,223.936 136.623,223.465 136.491,223.039 C136.359,222.613 136.1655,222.2485 135.9105,221.9455 C135.6555,221.6425 135.3375,221.4085 134.9565,221.2435 C134.5755,221.0785 134.136,220.996 133.638,220.996 C133.314,220.996 133.0125,221.0305 132.7335,221.0995 C132.4545,221.1685 132.1905,221.2675 131.9415,221.3965 C131.6925,221.5255 131.457,221.68 131.235,221.86 C131.013,222.04 130.803,222.241 130.605,222.463 L130.605,222.463 L130.479,221.473 C130.425,221.251 130.284,221.14 130.056,221.14 L130.056,221.14 L129.093,221.14 L129.093,230.257 L130.704,230.257 Z M142.404,233.542 C143.07,233.542 143.6685,233.4565 144.1995,233.2855 C144.7305,233.1145 145.179,232.8865 145.545,232.6015 C145.911,232.3165 146.1915,231.991 146.3865,231.625 C146.5815,231.259 146.679,230.881 146.679,230.491 C146.679,230.071 146.5905,229.729 146.4135,229.465 C146.2365,229.201 146.004,228.994 145.716,228.844 C145.428,228.694 145.0995,228.586 144.7305,228.52 C144.3615,228.454 143.9835,228.4075 143.5965,228.3805 C143.2095,228.3535 142.8315,228.334 142.4625,228.322 C142.0935,228.31 141.765,228.28 141.477,228.232 C141.189,228.184 140.9565,228.1045 140.7795,227.9935 C140.6025,227.8825 140.514,227.719 140.514,227.503 C140.514,227.365 140.565,227.2285 140.667,227.0935 C140.769,226.9585 140.916,226.831 141.108,226.711 C141.486,226.813 141.888,226.864 142.314,226.864 C142.806,226.864 143.262,226.795 143.682,226.657 C144.102,226.519 144.462,226.321 144.762,226.063 C145.062,225.805 145.2975,225.4945 145.4685,225.1315 C145.6395,224.7685 145.725,224.365 145.725,223.921 C145.725,223.441 145.623,223.003 145.419,222.607 L145.419,222.607 L146.454,222.472 C146.706,222.418 146.832,222.292 146.832,222.094 L146.832,222.094 L146.832,221.5 L144.357,221.5 C144.075,221.332 143.763,221.2045 143.421,221.1175 C143.079,221.0305 142.71,220.987 142.314,220.987 C141.81,220.987 141.3465,221.056 140.9235,221.194 C140.5005,221.332 140.136,221.5285 139.83,221.7835 C139.524,222.0385 139.2855,222.3475 139.1145,222.7105 C138.9435,223.0735 138.858,223.477 138.858,223.921 C138.858,224.473 138.984,224.9575 139.236,225.3745 C139.488,225.7915 139.839,226.126 140.289,226.378 C140.097,226.474 139.929,226.585 139.785,226.711 C139.641,226.837 139.5195,226.9705 139.4205,227.1115 C139.3215,227.2525 139.248,227.3935 139.2,227.5345 C139.152,227.6755 139.128,227.812 139.128,227.944 C139.128,228.286 139.2075,228.5575 139.3665,228.7585 C139.5255,228.9595 139.74,229.12 140.01,229.24 C139.518,229.426 139.131,229.675 138.849,229.987 C138.567,230.299 138.426,230.68 138.426,231.13 C138.426,231.448 138.5085,231.7525 138.6735,232.0435 C138.8385,232.3345 139.086,232.591 139.416,232.813 C139.746,233.035 140.16,233.212 140.658,233.344 C141.156,233.476 141.738,233.542 142.404,233.542 Z M142.314,225.802 C141.99,225.802 141.705,225.757 141.459,225.667 C141.213,225.577 141.006,225.451 140.838,225.289 C140.67,225.127 140.5425,224.9335 140.4555,224.7085 C140.3685,224.4835 140.325,224.236 140.325,223.966 C140.325,223.408 140.4945,222.964 140.8335,222.634 C141.1725,222.304 141.666,222.139 142.314,222.139 C142.956,222.139 143.4465,222.304 143.7855,222.634 C144.1245,222.964 144.294,223.408 144.294,223.966 C144.294,224.236 144.252,224.4835 144.168,224.7085 C144.084,224.9335 143.958,225.127 143.79,225.289 C143.622,225.451 143.415,225.577 143.169,225.667 C142.923,225.757 142.638,225.802 142.314,225.802 Z M142.44,232.372 C141.996,232.372 141.6105,232.3345 141.2835,232.2595 C140.9565,232.1845 140.685,232.0825 140.469,231.9535 C140.253,231.8245 140.0925,231.6715 139.9875,231.4945 C139.8825,231.3175 139.83,231.127 139.83,230.923 C139.83,230.605 139.9365,230.3275 140.1495,230.0905 C140.3625,229.8535 140.637,229.657 140.973,229.501 C141.273,229.543 141.585,229.573 141.909,229.591 C142.233,229.609 142.5525,229.627 142.8675,229.645 C143.1825,229.663 143.481,229.6885 143.763,229.7215 C144.045,229.7545 144.2925,229.81 144.5055,229.888 C144.7185,229.966 144.888,230.074 145.014,230.212 C145.14,230.35 145.203,230.53 145.203,230.752 C145.203,230.992 145.14,231.211 145.014,231.409 C144.888,231.607 144.7065,231.778 144.4695,231.922 C144.2325,232.066 143.943,232.177 143.601,232.255 C143.259,232.333 142.872,232.372 142.44,232.372 Z M149.37,219.412 C149.526,219.412 149.6745,219.382 149.8155,219.322 C149.9565,219.262 150.0795,219.1795 150.1845,219.0745 C150.2895,218.9695 150.3735,218.8495 150.4365,218.7145 C150.4995,218.5795 150.531,218.434 150.531,218.278 C150.531,218.122 150.4995,217.9735 150.4365,217.8325 C150.3735,217.6915 150.2895,217.5685 150.1845,217.4635 C150.0795,217.3585 149.9565,217.276 149.8155,217.216 C149.6745,217.156 149.526,217.126 149.37,217.126 C149.214,217.126 149.0685,217.156 148.9335,217.216 C148.7985,217.276 148.68,217.3585 148.578,217.4635 C148.476,217.5685 148.395,217.6915 148.335,217.8325 C148.275,217.9735 148.245,218.122 148.245,218.278 C148.245,218.434 148.275,218.5795 148.335,218.7145 C148.395,218.8495 148.476,218.9695 148.578,219.0745 C148.68,219.1795 148.7985,219.262 148.9335,219.322 C149.0685,219.382 149.214,219.412 149.37,219.412 Z M150.189,230.257 L150.189,221.14 L148.587,221.14 L148.587,230.257 L150.189,230.257 Z M154.428,230.257 L154.428,223.543 C154.776,223.153 155.1555,222.844 155.5665,222.616 C155.9775,222.388 156.42,222.274 156.894,222.274 C157.536,222.274 158.0145,222.4645 158.3295,222.8455 C158.6445,223.2265 158.802,223.762 158.802,224.452 L158.802,224.452 L158.802,230.257 L160.413,230.257 L160.413,224.452 C160.413,223.936 160.347,223.465 160.215,223.039 C160.083,222.613 159.8895,222.2485 159.6345,221.9455 C159.3795,221.6425 159.0615,221.4085 158.6805,221.2435 C158.2995,221.0785 157.86,220.996 157.362,220.996 C157.038,220.996 156.7365,221.0305 156.4575,221.0995 C156.1785,221.1685 155.9145,221.2675 155.6655,221.3965 C155.4165,221.5255 155.181,221.68 154.959,221.86 C154.737,222.04 154.527,222.241 154.329,222.463 L154.329,222.463 L154.203,221.473 C154.149,221.251 154.008,221.14 153.78,221.14 L153.78,221.14 L152.817,221.14 L152.817,230.257 L154.428,230.257 Z M166.686,230.383 C167.016,230.383 167.349,230.3545 167.685,230.2975 C168.021,230.2405 168.3465,230.155 168.6615,230.041 C168.9765,229.927 169.272,229.7815 169.548,229.6045 C169.824,229.4275 170.061,229.219 170.259,228.979 L170.259,228.979 L169.809,228.394 C169.737,228.292 169.635,228.241 169.503,228.241 C169.401,228.241 169.2795,228.2875 169.1385,228.3805 C168.9975,228.4735 168.822,228.574 168.612,228.682 C168.402,228.79 168.1515,228.8905 167.8605,228.9835 C167.5695,229.0765 167.223,229.123 166.821,229.123 C166.389,229.123 165.999,229.0525 165.651,228.9115 C165.303,228.7705 165.003,228.5575 164.751,228.2725 C164.499,227.9875 164.3025,227.632 164.1615,227.206 C164.0205,226.78 163.941,226.279 163.923,225.703 L163.923,225.703 L170.016,225.703 C170.166,225.703 170.268,225.661 170.322,225.577 C170.376,225.493 170.403,225.325 170.403,225.073 C170.403,224.425 170.307,223.8475 170.115,223.3405 C169.923,222.8335 169.6575,222.4075 169.3185,222.0625 C168.9795,221.7175 168.5775,221.4535 168.1125,221.2705 C167.6475,221.0875 167.142,220.996 166.596,220.996 C165.936,220.996 165.342,221.1115 164.814,221.3425 C164.286,221.5735 163.839,221.8915 163.473,222.2965 C163.107,222.7015 162.8265,223.18 162.6315,223.732 C162.4365,224.284 162.339,224.878 162.339,225.514 C162.339,226.3 162.447,226.996 162.663,227.602 C162.879,228.208 163.1805,228.7165 163.5675,229.1275 C163.9545,229.5385 164.4135,229.8505 164.9445,230.0635 C165.4755,230.2765 166.056,230.383 166.686,230.383 Z M168.963,224.704 L163.977,224.704 C164.085,223.912 164.3625,223.2925 164.8095,222.8455 C165.2565,222.3985 165.864,222.175 166.632,222.175 C166.998,222.175 167.325,222.2365 167.613,222.3595 C167.901,222.4825 168.1455,222.6565 168.3465,222.8815 C168.5475,223.1065 168.7005,223.3735 168.8055,223.6825 C168.9105,223.9915 168.963,224.332 168.963,224.704 L168.963,224.704 Z M176.19,230.383 C176.52,230.383 176.853,230.3545 177.189,230.2975 C177.525,230.2405 177.8505,230.155 178.1655,230.041 C178.4805,229.927 178.776,229.7815 179.052,229.6045 C179.328,229.4275 179.565,229.219 179.763,228.979 L179.763,228.979 L179.313,228.394 C179.241,228.292 179.139,228.241 179.007,228.241 C178.905,228.241 178.7835,228.2875 178.6425,228.3805 C178.5015,228.4735 178.326,228.574 178.116,228.682 C177.906,228.79 177.6555,228.8905 177.3645,228.9835 C177.0735,229.0765 176.727,229.123 176.325,229.123 C175.893,229.123 175.503,229.0525 175.155,228.9115 C174.807,228.7705 174.507,228.5575 174.255,228.2725 C174.003,227.9875 173.8065,227.632 173.6655,227.206 C173.5245,226.78 173.445,226.279 173.427,225.703 L173.427,225.703 L179.52,225.703 C179.67,225.703 179.772,225.661 179.826,225.577 C179.88,225.493 179.907,225.325 179.907,225.073 C179.907,224.425 179.811,223.8475 179.619,223.3405 C179.427,222.8335 179.1615,222.4075 178.8225,222.0625 C178.4835,221.7175 178.0815,221.4535 177.6165,221.2705 C177.1515,221.0875 176.646,220.996 176.1,220.996 C175.44,220.996 174.846,221.1115 174.318,221.3425 C173.79,221.5735 173.343,221.8915 172.977,222.2965 C172.611,222.7015 172.3305,223.18 172.1355,223.732 C171.9405,224.284 171.843,224.878 171.843,225.514 C171.843,226.3 171.951,226.996 172.167,227.602 C172.383,228.208 172.6845,228.7165 173.0715,229.1275 C173.4585,229.5385 173.9175,229.8505 174.4485,230.0635 C174.9795,230.2765 175.56,230.383 176.19,230.383 Z M178.467,224.704 L173.481,224.704 C173.589,223.912 173.8665,223.2925 174.3135,222.8455 C174.7605,222.3985 175.368,222.175 176.136,222.175 C176.502,222.175 176.829,222.2365 177.117,222.3595 C177.405,222.4825 177.6495,222.6565 177.8505,222.8815 C178.0515,223.1065 178.2045,223.3735 178.3095,223.6825 C178.4145,223.9915 178.467,224.332 178.467,224.704 L178.467,224.704 Z M183.48,230.257 L183.48,224.497 C183.594,224.185 183.7215,223.9075 183.8625,223.6645 C184.0035,223.4215 184.1625,223.2175 184.3395,223.0525 C184.5165,222.8875 184.7175,222.763 184.9425,222.679 C185.1675,222.595 185.424,222.553 185.712,222.553 C185.916,222.553 186.099,222.571 186.261,222.607 C186.423,222.643 186.546,222.661 186.63,222.661 C186.774,222.661 186.864,222.586 186.9,222.436 L186.9,222.436 L187.017,221.239 C186.879,221.149 186.7215,221.083 186.5445,221.041 C186.3675,220.999 186.183,220.978 185.991,220.978 C185.385,220.978 184.872,221.1535 184.452,221.5045 C184.032,221.8555 183.678,222.343 183.39,222.967 L183.39,222.967 L183.282,221.581 C183.258,221.419 183.213,221.305 183.147,221.239 C183.081,221.173 182.961,221.14 182.787,221.14 L182.787,221.14 L181.869,221.14 L181.869,230.257 L183.48,230.257 Z M189.294,219.412 C189.45,219.412 189.5985,219.382 189.7395,219.322 C189.8805,219.262 190.0035,219.1795 190.1085,219.0745 C190.2135,218.9695 190.2975,218.8495 190.3605,218.7145 C190.4235,218.5795 190.455,218.434 190.455,218.278 C190.455,218.122 190.4235,217.9735 190.3605,217.8325 C190.2975,217.6915 190.2135,217.5685 190.1085,217.4635 C190.0035,217.3585 189.8805,217.276 189.7395,217.216 C189.5985,217.156 189.45,217.126 189.294,217.126 C189.138,217.126 188.9925,217.156 188.8575,217.216 C188.7225,217.276 188.604,217.3585 188.502,217.4635 C188.4,217.5685 188.319,217.6915 188.259,217.8325 C188.199,217.9735 188.169,218.122 188.169,218.278 C188.169,218.434 188.199,218.5795 188.259,218.7145 C188.319,218.8495 188.4,218.9695 188.502,219.0745 C188.604,219.1795 188.7225,219.262 188.8575,219.322 C188.9925,219.382 189.138,219.412 189.294,219.412 Z M190.113,230.257 L190.113,221.14 L188.511,221.14 L188.511,230.257 L190.113,230.257 Z M194.352,230.257 L194.352,223.543 C194.7,223.153 195.0795,222.844 195.4905,222.616 C195.9015,222.388 196.344,222.274 196.818,222.274 C197.46,222.274 197.9385,222.4645 198.2535,222.8455 C198.5685,223.2265 198.726,223.762 198.726,224.452 L198.726,224.452 L198.726,230.257 L200.337,230.257 L200.337,224.452 C200.337,223.936 200.271,223.465 200.139,223.039 C200.007,222.613 199.8135,222.2485 199.5585,221.9455 C199.3035,221.6425 198.9855,221.4085 198.6045,221.2435 C198.2235,221.0785 197.784,220.996 197.286,220.996 C196.962,220.996 196.6605,221.0305 196.3815,221.0995 C196.1025,221.1685 195.8385,221.2675 195.5895,221.3965 C195.3405,221.5255 195.105,221.68 194.883,221.86 C194.661,222.04 194.451,222.241 194.253,222.463 L194.253,222.463 L194.127,221.473 C194.073,221.251 193.932,221.14 193.704,221.14 L193.704,221.14 L192.741,221.14 L192.741,230.257 L194.352,230.257 Z M206.052,233.542 C206.718,233.542 207.3165,233.4565 207.8475,233.2855 C208.3785,233.1145 208.827,232.8865 209.193,232.6015 C209.559,232.3165 209.8395,231.991 210.0345,231.625 C210.2295,231.259 210.327,230.881 210.327,230.491 C210.327,230.071 210.2385,229.729 210.0615,229.465 C209.8845,229.201 209.652,228.994 209.364,228.844 C209.076,228.694 208.7475,228.586 208.3785,228.52 C208.0095,228.454 207.6315,228.4075 207.2445,228.3805 C206.8575,228.3535 206.4795,228.334 206.1105,228.322 C205.7415,228.31 205.413,228.28 205.125,228.232 C204.837,228.184 204.6045,228.1045 204.4275,227.9935 C204.2505,227.8825 204.162,227.719 204.162,227.503 C204.162,227.365 204.213,227.2285 204.315,227.0935 C204.417,226.9585 204.564,226.831 204.756,226.711 C205.134,226.813 205.536,226.864 205.962,226.864 C206.454,226.864 206.91,226.795 207.33,226.657 C207.75,226.519 208.11,226.321 208.41,226.063 C208.71,225.805 208.9455,225.4945 209.1165,225.1315 C209.2875,224.7685 209.373,224.365 209.373,223.921 C209.373,223.441 209.271,223.003 209.067,222.607 L209.067,222.607 L210.102,222.472 C210.354,222.418 210.48,222.292 210.48,222.094 L210.48,222.094 L210.48,221.5 L208.005,221.5 C207.723,221.332 207.411,221.2045 207.069,221.1175 C206.727,221.0305 206.358,220.987 205.962,220.987 C205.458,220.987 204.9945,221.056 204.5715,221.194 C204.1485,221.332 203.784,221.5285 203.478,221.7835 C203.172,222.0385 202.9335,222.3475 202.7625,222.7105 C202.5915,223.0735 202.506,223.477 202.506,223.921 C202.506,224.473 202.632,224.9575 202.884,225.3745 C203.136,225.7915 203.487,226.126 203.937,226.378 C203.745,226.474 203.577,226.585 203.433,226.711 C203.289,226.837 203.1675,226.9705 203.0685,227.1115 C202.9695,227.2525 202.896,227.3935 202.848,227.5345 C202.8,227.6755 202.776,227.812 202.776,227.944 C202.776,228.286 202.8555,228.5575 203.0145,228.7585 C203.1735,228.9595 203.388,229.12 203.658,229.24 C203.166,229.426 202.779,229.675 202.497,229.987 C202.215,230.299 202.074,230.68 202.074,231.13 C202.074,231.448 202.1565,231.7525 202.3215,232.0435 C202.4865,232.3345 202.734,232.591 203.064,232.813 C203.394,233.035 203.808,233.212 204.306,233.344 C204.804,233.476 205.386,233.542 206.052,233.542 Z M205.962,225.802 C205.638,225.802 205.353,225.757 205.107,225.667 C204.861,225.577 204.654,225.451 204.486,225.289 C204.318,225.127 204.1905,224.9335 204.1035,224.7085 C204.0165,224.4835 203.973,224.236 203.973,223.966 C203.973,223.408 204.1425,222.964 204.4815,222.634 C204.8205,222.304 205.314,222.139 205.962,222.139 C206.604,222.139 207.0945,222.304 207.4335,222.634 C207.7725,222.964 207.942,223.408 207.942,223.966 C207.942,224.236 207.9,224.4835 207.816,224.7085 C207.732,224.9335 207.606,225.127 207.438,225.289 C207.27,225.451 207.063,225.577 206.817,225.667 C206.571,225.757 206.286,225.802 205.962,225.802 Z M206.088,232.372 C205.644,232.372 205.2585,232.3345 204.9315,232.2595 C204.6045,232.1845 204.333,232.0825 204.117,231.9535 C203.901,231.8245 203.7405,231.6715 203.6355,231.4945 C203.5305,231.3175 203.478,231.127 203.478,230.923 C203.478,230.605 203.5845,230.3275 203.7975,230.0905 C204.0105,229.8535 204.285,229.657 204.621,229.501 C204.921,229.543 205.233,229.573 205.557,229.591 C205.881,229.609 206.2005,229.627 206.5155,229.645 C206.8305,229.663 207.129,229.6885 207.411,229.7215 C207.693,229.7545 207.9405,229.81 208.1535,229.888 C208.3665,229.966 208.536,230.074 208.662,230.212 C208.788,230.35 208.851,230.53 208.851,230.752 C208.851,230.992 208.788,231.211 208.662,231.409 C208.536,231.607 208.3545,231.778 208.1175,231.922 C207.8805,232.066 207.591,232.177 207.249,232.255 C206.907,232.333 206.52,232.372 206.088,232.372 Z M224.457,219.34 C224.613,219.34 224.76,219.31 224.898,219.25 C225.036,219.19 225.1575,219.109 225.2625,219.007 C225.3675,218.905 225.4515,218.7865 225.5145,218.6515 C225.5775,218.5165 225.609,218.371 225.609,218.215 C225.609,218.059 225.5775,217.9105 225.5145,217.7695 C225.4515,217.6285 225.3675,217.5055 225.2625,217.4005 C225.1575,217.2955 225.036,217.213 224.898,217.153 C224.76,217.093 224.613,217.063 224.457,217.063 C224.301,217.063 224.1555,217.093 224.0205,217.153 C223.8855,217.213 223.767,217.2955 223.665,217.4005 C223.563,217.5055 223.482,217.6285 223.422,217.7695 C223.362,217.9105 223.332,218.059 223.332,218.215 C223.332,218.371 223.362,218.5165 223.422,218.6515 C223.482,218.7865 223.563,218.905 223.665,219.007 C223.767,219.109 223.8855,219.19 224.0205,219.25 C224.1555,219.31 224.301,219.34 224.457,219.34 Z M219.552,230.401 C219.966,230.401 220.368,230.3275 220.758,230.1805 C221.148,230.0335 221.481,229.831 221.757,229.573 L221.757,229.573 L221.289,228.808 C221.223,228.706 221.148,228.655 221.064,228.655 C221.016,228.655 220.9605,228.6775 220.8975,228.7225 C220.8345,228.7675 220.758,228.817 220.668,228.871 C220.578,228.925 220.4715,228.9745 220.3485,229.0195 C220.2255,229.0645 220.08,229.087 219.912,229.087 C219.618,229.087 219.378,228.994 219.192,228.808 C219.006,228.622 218.913,228.337 218.913,227.953 L218.913,227.953 L218.913,222.481 L223.611,222.481 L223.611,230.257 L225.213,230.257 L225.213,221.32 L218.913,221.32 L218.913,218.179 L218.103,218.179 C218.001,218.179 217.9185,218.2075 217.8555,218.2645 C217.7925,218.3215 217.752,218.395 217.734,218.485 L217.734,218.485 L217.365,221.293 L215.871,221.491 L215.871,222.13 C215.871,222.25 215.904,222.3385 215.97,222.3955 C216.036,222.4525 216.117,222.481 216.213,222.481 L216.213,222.481 L217.311,222.481 L217.311,228.061 C217.311,228.817 217.5045,229.396 217.8915,229.798 C218.2785,230.2 218.832,230.401 219.552,230.401 Z M229.452,230.257 L229.452,223.462 C229.734,223.096 230.043,222.8065 230.379,222.5935 C230.715,222.3805 231.081,222.274 231.477,222.274 C232.041,222.274 232.47,222.454 232.764,222.814 C233.058,223.174 233.205,223.72 233.205,224.452 L233.205,224.452 L233.205,230.257 L234.816,230.257 L234.816,224.452 C234.816,224.092 234.8685,223.7755 234.9735,223.5025 C235.0785,223.2295 235.221,223.003 235.401,222.823 C235.581,222.643 235.7895,222.5065 236.0265,222.4135 C236.2635,222.3205 236.514,222.274 236.778,222.274 C237.366,222.274 237.816,222.4585 238.128,222.8275 C238.44,223.1965 238.596,223.738 238.596,224.452 L238.596,224.452 L238.596,230.257 L240.207,230.257 L240.207,224.452 C240.207,223.9 240.138,223.4095 240,222.9805 C239.862,222.5515 239.6625,222.19 239.4015,221.896 C239.1405,221.602 238.8225,221.3785 238.4475,221.2255 C238.0725,221.0725 237.645,220.996 237.165,220.996 C236.865,220.996 236.5695,221.032 236.2785,221.104 C235.9875,221.176 235.713,221.29 235.455,221.446 C235.197,221.602 234.9645,221.8 234.7575,222.04 C234.5505,222.28 234.381,222.565 234.249,222.895 C234.081,222.313 233.8065,221.851 233.4255,221.509 C233.0445,221.167 232.548,220.996 231.936,220.996 C231.384,220.996 230.898,221.128 230.478,221.392 C230.058,221.656 229.68,221.995 229.344,222.409 L229.344,222.409 L229.227,221.473 C229.173,221.251 229.032,221.14 228.804,221.14 L228.804,221.14 L227.841,221.14 L227.841,230.257 L229.452,230.257 Z M246.471,230.383 C246.801,230.383 247.134,230.3545 247.47,230.2975 C247.806,230.2405 248.1315,230.155 248.4465,230.041 C248.7615,229.927 249.057,229.7815 249.333,229.6045 C249.609,229.4275 249.846,229.219 250.044,228.979 L250.044,228.979 L249.594,228.394 C249.522,228.292 249.42,228.241 249.288,228.241 C249.186,228.241 249.0645,228.2875 248.9235,228.3805 C248.7825,228.4735 248.607,228.574 248.397,228.682 C248.187,228.79 247.9365,228.8905 247.6455,228.9835 C247.3545,229.0765 247.008,229.123 246.606,229.123 C246.174,229.123 245.784,229.0525 245.436,228.9115 C245.088,228.7705 244.788,228.5575 244.536,228.2725 C244.284,227.9875 244.0875,227.632 243.9465,227.206 C243.8055,226.78 243.726,226.279 243.708,225.703 L243.708,225.703 L249.801,225.703 C249.951,225.703 250.053,225.661 250.107,225.577 C250.161,225.493 250.188,225.325 250.188,225.073 C250.188,224.425 250.092,223.8475 249.9,223.3405 C249.708,222.8335 249.4425,222.4075 249.1035,222.0625 C248.7645,221.7175 248.3625,221.4535 247.8975,221.2705 C247.4325,221.0875 246.927,220.996 246.381,220.996 C245.721,220.996 245.127,221.1115 244.599,221.3425 C244.071,221.5735 243.624,221.8915 243.258,222.2965 C242.892,222.7015 242.6115,223.18 242.4165,223.732 C242.2215,224.284 242.124,224.878 242.124,225.514 C242.124,226.3 242.232,226.996 242.448,227.602 C242.664,228.208 242.9655,228.7165 243.3525,229.1275 C243.7395,229.5385 244.1985,229.8505 244.7295,230.0635 C245.2605,230.2765 245.841,230.383 246.471,230.383 Z M248.748,224.704 L243.762,224.704 C243.87,223.912 244.1475,223.2925 244.5945,222.8455 C245.0415,222.3985 245.649,222.175 246.417,222.175 C246.783,222.175 247.11,222.2365 247.398,222.3595 C247.686,222.4825 247.9305,222.6565 248.1315,222.8815 C248.3325,223.1065 248.4855,223.3735 248.5905,223.6825 C248.6955,223.9915 248.748,224.332 248.748,224.704 L248.748,224.704 Z" id="nobotlenecksandallowsbeteruseofengineeringtme" fill="#CA592C" fill-rule="nonzero"></path>
            </g>
        </g>
    </g>
</svg>