<?xml version="1.0" encoding="UTF-8"?>
<svg width="1024px" height="600px" viewBox="0 0 1024 600" version="1.1" xmlns="http://www.w3.org/2000/svg" xmlns:xlink="http://www.w3.org/1999/xlink">
    <!-- Generator: Sketch 58 (84663) - https://sketch.com -->
    <title>bookwise hero</title>
    <desc>Created with Sketch.</desc>
    <defs>
        <rect id="path-1" x="0" y="0" width="91" height="91" rx="4"></rect>
        <path d="M71.5413889,21.8702246 C70.9709265,21.3809841 70.1810555,21.2785849 69.5008887,21.5857824 L20.6495586,43.6812466 C19.4098999,44.2387532 18.6639105,45.5130539 18.7407036,46.9125092 C18.8174966,48.3119644 19.7061015,49.483866 21.0006124,49.8820849 L33.0461458,53.6594763 C34.0883368,53.9894292 35.1963504,53.3750342 35.5035224,52.2941542 C35.8106945,51.2132741 35.2292617,50.0641279 34.1870707,49.7455527 L24.1052444,46.5825563 L62.2713746,29.3226082 L39.7600497,52.624107 C39.7490793,52.6354847 39.7381089,52.6582401 39.716168,52.6696178 C39.6832567,52.7037508 39.6613159,52.7265062 39.6284046,52.7606392 C39.6064637,52.7833946 39.5845228,52.8175277 39.5735524,52.840283 C39.562582,52.8630384 39.5406411,52.8857938 39.5296707,52.9085491 C39.5187003,52.9199268 39.5187003,52.9313045 39.5187003,52.9313045 C39.4967594,52.9540599 39.485789,52.9881929 39.4638481,53.0109483 C39.4419072,53.0450814 39.4309368,53.0792144 39.4089959,53.1133475 C39.3980255,53.1361028 39.3870551,53.1702359 39.3760846,53.1929913 C39.3541438,53.2271243 39.3431734,53.2726351 39.3212325,53.3067681 C39.3102621,53.3295235 39.2992916,53.3522789 39.2992916,53.3750342 C39.2883212,53.420545 39.2663803,53.454678 39.2554099,53.5001888 C39.2444395,53.5229441 39.2444395,53.5456995 39.233469,53.5684549 C39.2224986,53.6139656 39.2115282,53.6594763 39.2005577,53.7049871 C39.2005577,53.7277425 39.1895873,53.7504978 39.1895873,53.7732532 C39.1786169,53.8187639 39.1786169,53.8642747 39.1786169,53.9097854 C39.1786169,53.9325408 39.1786169,53.9666738 39.1786169,53.9894292 C39.1786169,54.03494 39.1786169,54.0804507 39.1786169,54.1145837 C39.1786169,54.1373391 39.1786169,54.1487168 39.1786169,54.1714722 L39.7710202,65.8335993 C39.8368428,67.1079 40.6267138,68.2115354 41.7895795,68.6438874 C42.1296629,68.769042 42.4697462,68.8259304 42.8098296,68.8259304 C43.6545528,68.8259304 44.4773352,68.4618445 45.0697384,67.7791834 L49.5785857,62.6137144 L58.4646349,68.9965957 C59.0131565,69.383437 59.6384711,69.5882353 60.2857265,69.5882353 C60.680662,69.5882353 61.086568,69.5085915 61.4705331,69.3493039 C62.4688423,68.9397073 63.1928908,68.0408701 63.4122994,66.9599901 L72.2215557,23.8840748 C72.3751417,23.1331476 72.1118514,22.359465 71.5413889,21.8702246 Z M43.6106711,63.3760193 L43.3473807,58.1309065 L46.3203676,60.2699113 L43.6106711,63.3760193 Z M59.7920571,64.9575175 L44.2250152,53.7732532 L66.8570148,30.3465999 L59.7920571,64.9575175 Z" id="path-3"></path>
        <rect id="path-5" x="0" y="0" width="91" height="91" rx="4"></rect>
        <path d="M71.5413889,21.8702246 C70.9709265,21.3809841 70.1810555,21.2785849 69.5008887,21.5857824 L20.6495586,43.6812466 C19.4098999,44.2387532 18.6639105,45.5130539 18.7407036,46.9125092 C18.8174966,48.3119644 19.7061015,49.483866 21.0006124,49.8820849 L33.0461458,53.6594763 C34.0883368,53.9894292 35.1963504,53.3750342 35.5035224,52.2941542 C35.8106945,51.2132741 35.2292617,50.0641279 34.1870707,49.7455527 L24.1052444,46.5825563 L62.2713746,29.3226082 L39.7600497,52.624107 C39.7490793,52.6354847 39.7381089,52.6582401 39.716168,52.6696178 C39.6832567,52.7037508 39.6613159,52.7265062 39.6284046,52.7606392 C39.6064637,52.7833946 39.5845228,52.8175277 39.5735524,52.840283 C39.562582,52.8630384 39.5406411,52.8857938 39.5296707,52.9085491 C39.5187003,52.9199268 39.5187003,52.9313045 39.5187003,52.9313045 C39.4967594,52.9540599 39.485789,52.9881929 39.4638481,53.0109483 C39.4419072,53.0450814 39.4309368,53.0792144 39.4089959,53.1133475 C39.3980255,53.1361028 39.3870551,53.1702359 39.3760846,53.1929913 C39.3541438,53.2271243 39.3431734,53.2726351 39.3212325,53.3067681 C39.3102621,53.3295235 39.2992916,53.3522789 39.2992916,53.3750342 C39.2883212,53.420545 39.2663803,53.454678 39.2554099,53.5001888 C39.2444395,53.5229441 39.2444395,53.5456995 39.233469,53.5684549 C39.2224986,53.6139656 39.2115282,53.6594763 39.2005577,53.7049871 C39.2005577,53.7277425 39.1895873,53.7504978 39.1895873,53.7732532 C39.1786169,53.8187639 39.1786169,53.8642747 39.1786169,53.9097854 C39.1786169,53.9325408 39.1786169,53.9666738 39.1786169,53.9894292 C39.1786169,54.03494 39.1786169,54.0804507 39.1786169,54.1145837 C39.1786169,54.1373391 39.1786169,54.1487168 39.1786169,54.1714722 L39.7710202,65.8335993 C39.8368428,67.1079 40.6267138,68.2115354 41.7895795,68.6438874 C42.1296629,68.769042 42.4697462,68.8259304 42.8098296,68.8259304 C43.6545528,68.8259304 44.4773352,68.4618445 45.0697384,67.7791834 L49.5785857,62.6137144 L58.4646349,68.9965957 C59.0131565,69.383437 59.6384711,69.5882353 60.2857265,69.5882353 C60.680662,69.5882353 61.086568,69.5085915 61.4705331,69.3493039 C62.4688423,68.9397073 63.1928908,68.0408701 63.4122994,66.9599901 L72.2215557,23.8840748 C72.3751417,23.1331476 72.1118514,22.359465 71.5413889,21.8702246 Z M43.6106711,63.3760193 L43.3473807,58.1309065 L46.3203676,60.2699113 L43.6106711,63.3760193 Z M59.7920571,64.9575175 L44.2250152,53.7732532 L66.8570148,30.3465999 L59.7920571,64.9575175 Z" id="path-7"></path>
    </defs>
    <g id="bookwise-hero" stroke="none" stroke-width="1" fill="none" fill-rule="evenodd">
        <rect fill="#FBEAE3" x="0" y="0" width="1024" height="600"></rect>
        <g id="undraw_book_reading_kx9s" transform="translate(290.000000, 241.000000)" fill-rule="nonzero">
            <rect id="Rectangle" fill="#3F3D56" x="12.386034" y="288.137209" width="418.05" height="1"></rect>
            <rect id="Rectangle" fill="#3F3D56" transform="translate(237.611044, 206.687233) rotate(-67.078030) translate(-237.611044, -206.687233) " x="237.161071" y="-2.33776445" width="1" height="418.049996"></rect>
            <rect id="Rectangle" fill="#3F3D56" x="12.386034" y="124.78721" width="418.05" height="1"></rect>
            <path d="M373.7367,144.362214 C373.852501,182.819589 358.679305,219.746483 331.557534,247.011714 C330.077016,248.501214 328.563516,249.956214 327.017034,251.376714 C325.154034,253.095714 323.243034,254.762214 321.284034,256.376214 C320.910534,256.686714 320.537034,256.992714 320.159034,257.294214 C312.420337,263.565581 304.039665,269.000347 295.157034,273.507714 C294.630534,273.773214 294.104034,274.038714 293.573034,274.299714 C292.731534,274.713714 291.881034,275.118714 291.030534,275.514714 C259.546743,290.165189 223.742461,292.594909 190.568034,282.332214 C132.486534,264.305214 90.236034,209.355714 90.236034,144.362214 C90.236034,64.707714 153.699534,0.137214 231.986034,0.137214 C310.272534,0.137214 373.7367,64.7077095 373.7367,144.362214 Z" id="Path" fill="#FFE2D7"></path>
            <path d="M263.5466,114.107085 L263.659176,114.102684 L263.215233,113.127984 C262.716692,111.74737 262.107296,110.409342 261.393008,109.126989 L248.372406,80.538372 C247.523149,78.6737231 245.649198,77.4900079 243.600543,77.5234182 L227.110887,77.798844 C224.925719,77.8352668 223.001587,79.2471189 222.311187,81.3206745 L211.944847,112.455247 C211.603582,113.327125 211.307599,114.216056 211.058082,115.118483 L210.706132,116.175573 L210.788784,116.172342 C208.155641,127.428113 212.874237,139.125047 222.580569,145.403019 C232.286901,151.68099 244.890075,151.187627 254.075942,144.170102 C263.261809,137.152576 267.05159,125.122573 263.546618,114.107085 L263.5466,114.107085 Z" id="Path" fill="#3F3D56"></path>
            <rect id="Rectangle" fill="#FEC6AF" transform="translate(230.514033, 99.026491) rotate(-79.633510) translate(-230.514033, -99.026491) " x="216.09606" y="98.7288719" width="28.835946" height="1"></rect>
            <rect id="Rectangle" fill="#FEC6AF" transform="translate(241.822855, 98.838087) rotate(-12.264350) translate(-241.822855, -98.838087) " x="241.525237" y="84.420114" width="1" height="28.835946"></rect>
            <path d="M225.313727,63.837657 L246.443364,63.4856535 C246.772085,63.4801784 247.043004,63.7422208 247.048563,64.0709415 C247.053954,64.3996622 246.791912,64.6705814 246.463191,64.6760565 L225.333558,65.02806 C225.120913,65.0316026 224.922531,64.9214313 224.81314,64.7390466 C224.70375,64.5566618 224.69997,64.3297723 224.803225,64.143845 C224.906479,63.9579178 225.101081,63.8411995 225.313726,63.837657 L225.313727,63.837657 Z" id="Path" fill="#3F3D56"></path>
            <path d="M225.53689,68.2992045 L246.666528,67.947201 C246.995249,67.9417247 247.266169,68.203766 247.27173,68.5324867 C247.277122,68.8612075 247.01508,69.1321277 246.686359,69.137604 L225.556722,69.4896075 C225.228001,69.4950838 224.957081,69.2330424 224.95152,68.9043217 C224.946128,68.5756011 225.20817,68.3046808 225.53689,68.2992045 Z" id="Path" fill="#3F3D56"></path>
            <path d="M225.760059,72.760734 L246.889697,72.4087305 C247.218417,72.4032542 247.489337,72.6652956 247.494898,72.9940163 C247.50029,73.3227369 247.238249,73.5936572 246.909528,73.5991335 L225.779891,73.951137 C225.45117,73.9566133 225.18025,73.6945719 225.174689,73.3658512 C225.169297,73.0371306 225.431338,72.7662103 225.760059,72.760734 L225.760059,72.760734 Z" id="Path" fill="#3F3D56"></path>
            <path d="M235.807812,59.416218 C231.616629,59.48604 228.257914,61.87851 228.305916,64.759968 L243.483543,64.507122 C243.435546,61.6256595 239.998999,59.346396 235.807812,59.416218 Z" id="Path" fill="#3F3D56"></path>
            <path d="M238.143249,117.3447 C238.971382,117.400703 239.756022,117.735984 240.3689,118.295734 C240.52572,118.425829 240.680034,118.562215 240.834785,118.698885 C241.324369,119.209847 241.924145,119.602291 242.588399,119.846304 C244.042727,120.243164 245.478407,119.093198 246.690225,117.915853 L247.105197,118.342674 C245.772945,119.637436 244.176287,120.896338 242.431682,120.420733 C241.678163,120.155386 240.996566,119.718664 240.440607,119.144983 C240.290573,119.012305 240.140835,118.880055 239.988875,118.753803 C239.49158,118.341292 238.530875,117.69943 237.676775,118.032273 C237.322454,118.20507 237.007101,118.448319 236.749995,118.747147 C236.551002,118.956692 236.335921,119.150348 236.10672,119.326343 C235.147826,120.006961 233.873909,120.044863 232.876247,119.422458 C232.700851,119.30545 232.532015,119.178896 232.370501,119.043369 C232.105669,118.780705 231.775931,118.592952 231.414894,118.499247 C230.909049,118.428309 230.449352,118.789465 229.962096,119.171286 C229.501701,119.619119 228.91275,119.911717 228.277746,120.008093 C228.256254,120.009177 228.234465,120.009974 228.212946,120.010343 C227.026611,120.030107 226.274265,118.843623 225.808934,117.941607 L226.338134,117.66883 C226.970496,118.894959 227.580134,119.454007 228.246323,119.413548 C228.756324,119.315725 229.225693,119.068383 229.594698,118.702998 C230.15799,118.261044 230.741096,117.804078 231.496947,117.909648 C231.967565,118.012131 232.399993,118.244589 232.745076,118.580598 C232.889751,118.702299 233.0409,118.816088 233.197862,118.921469 C233.990051,119.406201 234.993977,119.376356 235.755972,118.845418 C235.960037,118.687391 236.151623,118.513875 236.329029,118.326411 C236.642089,117.96696 237.027598,117.677748 237.460275,117.477742 C237.678158,117.392953 237.909471,117.347893 238.143249,117.3447 L238.143249,117.3447 Z" id="Path" fill="#FEC6AF"></path>
            <rect id="Rectangle" fill="#3F3D56" x="235.860277" y="0" width="1" height="59.3919135"></rect>
            <path d="M423.189266,102.901612 C419.417284,116.845123 406.497416,125.480686 406.497416,125.480686 C406.497416,125.480686 399.693119,111.509361 403.4651,97.5658365 C407.237081,83.622312 420.15695,74.986758 420.15695,74.986758 C420.15695,74.986758 426.961251,88.9581015 423.189266,102.901612 Z" id="Path" fill="#F68EA9"></path>
            <path d="M388.874758,102.901612 C392.646739,116.845123 405.566608,125.480686 405.566608,125.480686 C405.566608,125.480686 412.370905,111.509361 408.598924,97.5658365 C404.826943,83.622312 391.907074,74.986758 391.907074,74.986758 C391.907074,74.986758 385.102773,88.9581015 388.874758,102.901612 Z" id="Path" fill="#F9B4C6"></path>
            <path d="M394.417417,99.905004 C404.767791,109.980657 406.032012,125.469319 406.032012,125.469319 C406.032012,125.469319 390.514968,124.622082 380.164595,114.546411 C369.814221,104.47074 368.55,88.9820955 368.55,88.9820955 C368.55,88.9820955 384.067062,89.829333 394.417417,99.905004 Z" id="Path" fill="#3F3D56"></path>
            <path d="M417.646607,99.905004 C407.296233,109.980657 406.032012,125.469319 406.032012,125.469319 C406.032012,125.469319 421.549056,124.622082 431.899429,114.546411 C442.249803,104.47074 443.514024,88.9820955 443.514024,88.9820955 C443.514024,88.9820955 427.996962,89.829333 417.646607,99.905004 Z" id="Path" fill="#3F3D56"></path>
            <path d="M54.6392655,265.801613 C50.8672845,279.745124 37.9474155,288.380687 37.9474155,288.380687 C37.9474155,288.380687 31.1431185,274.409361 34.9150995,260.465837 C38.6870805,246.522312 51.6069495,237.886758 51.6069495,237.886758 C51.6069495,237.886758 58.411251,251.858102 54.6392655,265.801613 Z" id="Path" fill="#F9B4C6"></path>
            <path d="M20.3247585,265.801613 C24.0967395,279.745124 37.0166085,288.380687 37.0166085,288.380687 C37.0166085,288.380687 43.8209055,274.409361 40.0489245,260.465837 C36.2769435,246.522312 23.3570745,237.886758 23.3570745,237.886758 C23.3570745,237.886758 16.552773,251.858102 20.3247585,265.801613 Z" id="Path" fill="#F68EA9"></path>
            <path d="M25.8674175,262.805004 C36.217791,272.880657 37.482012,288.369319 37.482012,288.369319 C37.482012,288.369319 21.964968,287.522082 11.6145945,277.446411 C1.264221,267.37074 1.42108547e-14,251.882095 1.42108547e-14,251.882095 C1.42108547e-14,251.882095 15.517062,252.729333 25.8674175,262.805004 Z" id="Path" fill="#3F3D56"></path>
            <path d="M49.0966065,262.805004 C38.746233,272.880657 37.482012,288.369319 37.482012,288.369319 C37.482012,288.369319 52.999056,287.522082 63.3494295,277.446411 C73.699803,267.37074 74.964024,251.882095 74.964024,251.882095 C74.964024,251.882095 59.446962,252.729333 49.0966065,262.805004 Z" id="Path" fill="#3F3D56"></path>
            <circle id="Oval" fill="#2F2E41" cx="301.653913" cy="128.334942" r="8.655471"></circle>
            <path d="M292.380192,124.625457 C292.3808,120.204601 295.712895,116.494725 300.108312,116.021151 C296.810204,115.660888 293.59637,117.217566 291.834416,120.028763 C290.072462,122.839959 290.072462,126.41095 291.834416,129.222147 C293.59637,132.033343 296.810204,133.590022 300.108312,133.229759 C295.712897,132.756184 292.380802,129.046311 292.380192,124.625457 L292.380192,124.625457 Z" id="Path" fill="#2F2E41"></path>
            <path d="M292.998438,128.334942 C292.998438,128.334942 291.654171,134.517425 300.054407,136.990418 L292.998438,128.334942 Z" id="Path" fill="#94CE51"></path>
            <circle id="Oval" fill="#2F2E41" cx="305.233636" cy="158.069273" r="29.0576565"></circle>
            <path d="M321.284039,256.376205 C320.910539,256.686705 320.537039,256.992705 320.159039,257.294205 C312.420341,263.565572 304.039669,269.000338 295.157039,273.507705 C294.630539,273.773205 294.104039,274.038705 293.573039,274.299705 C292.731539,274.713705 291.881039,275.118705 291.030539,275.514705 L276.135539,270.551205 L276.306539,266.982705 L276.306539,266.969205 L276.954539,253.361205 L277.175039,248.708205 L321.284039,256.376205 Z" id="Path" fill="#A0616A"></path>
            <path d="M293.57303,274.299714 C292.73153,274.713714 291.88103,275.118714 291.03053,275.514714 C285.212125,278.234983 279.211062,280.546091 273.07103,282.431214 C273.039848,282.341256 273.021665,282.247309 273.017029,282.152214 L276.135529,266.910687 L276.306529,266.982687 L293.57303,274.299714 Z" id="Path" fill="#2F2E41"></path>
            <circle id="Oval" fill="#A0616A" cx="297.980289" cy="169.655328" r="19.2427965"></circle>
            <path d="M313.582559,170.695481 C313.582559,170.695481 316.703012,186.29775 322.423843,189.938282 L290.69923,227.383727 L278.737492,215.942062 L287.578777,200.339793 C287.578777,200.339793 297.460215,194.618943 294.339762,186.817829 L313.582559,170.695481 Z" id="Path" fill="#A0616A"></path>
            <path d="M351.23153,222.3697 C345.592762,231.277281 338.995434,239.540539 331.55753,247.0117 C331.23803,240.0367 330.54503,234.2857 329.18603,232.5847 C329.182574,232.584372 329.179365,232.582768 329.17703,232.5802 L312.540529,227.3827 C312.540529,227.3827 316.18103,193.056701 325.023529,191.4997 C325.023529,191.4997 326.30603,191.760678 328.29953,192.3637 C334.725529,194.2987 348.522502,199.7527 350.507029,211.2592 C351.071506,214.934548 351.313927,218.652171 351.23153,222.3697 L351.23153,222.3697 Z" id="Path" fill="#A0616A"></path>
            <path d="M287.578778,200.339793 C287.578778,200.339793 271.976508,199.819719 262.095071,212.301531 C252.213633,224.783343 228.290171,234.144711 228.290171,234.144711 L168.481458,257.548113 C168.481458,257.548113 157.559868,238.305317 150.798888,245.066297 C144.037908,251.827277 163.2807,268.989777 172.121985,266.909477 C180.96327,264.829176 234.531063,248.706828 234.531063,248.706828 L277.177266,229.464027 L287.578778,200.339793 Z" id="Path" fill="#A0616A"></path>
            <path d="M329.186034,232.584705 L327.017034,251.376705 C325.154034,253.095705 323.243034,254.762205 321.284034,256.376205 C320.910534,256.686705 320.537034,256.992705 320.159034,257.294205 C305.142534,252.690705 281.612034,253.203705 276.954534,253.361205 C276.423534,253.374705 276.135534,253.388205 276.135534,253.388205 L275.618034,242.466705 C270.627534,240.806205 268.989511,237.174705 268.944534,233.178705 C268.868034,225.933705 274.056534,217.500705 274.056534,217.500705 C274.988034,216.569205 281.949534,203.370705 283.389534,200.634705 C283.556034,200.315205 283.650534,200.139705 283.650534,200.139705 L289.892034,198.582705 C289.892034,198.582705 289.874034,198.632205 289.838034,198.722205 C289.280034,200.283705 284.429034,214.409205 292.781034,214.899705 C300.998034,215.385682 318.872034,192.309705 321.333534,189.074205 C321.518034,188.831205 321.617034,188.700705 321.617034,188.700705 L328.380534,192.341205 C328.353534,192.350205 328.326534,192.354705 328.299534,192.363705 C324.168511,193.511205 320.343511,203.460705 320.343511,203.460705 C309.557011,222.468705 328.704511,232.341732 329.177011,232.580205 C329.179353,232.582777 329.182571,232.584382 329.186034,232.584705 Z" id="Path" fill="#D0CDE1"></path>
            <path d="M299.025707,147.068199 C288.78224,147.068199 280.478268,151.912183 280.478268,157.887549 C280.478268,160.561179 282.147431,163.004701 284.902668,164.892425 L288.473252,162.305285 L287.502259,166.358349 C287.905153,166.545063 288.316539,166.725774 288.74561,166.892787 L294.079698,160.669665 L294.079698,168.314787 C295.715304,168.576845 297.369214,168.707962 299.02568,168.706897 C309.269151,168.706897 317.573123,163.862906 317.573123,157.88754 C317.573123,151.912175 309.269178,147.068199 299.025707,147.068199 Z" id="Path" fill="#2F2E41"></path>
            <circle id="Oval" fill="#2F2E41" cx="337.019053" cy="141.856907" r="8.655471"></circle>
            <path d="M327.745337,138.147422 C327.745943,133.726574 331.078026,130.016701 335.473434,129.543116 C335.165436,129.509642 334.855876,129.492563 334.546065,129.491941 C331.339845,129.487325 328.393729,131.255437 326.889625,134.086963 C325.385522,136.918489 325.569871,140.3495 327.368715,143.003559 C329.167559,145.657617 332.286169,147.099871 335.473434,146.751723 C331.078028,146.278138 327.745945,142.568268 327.745337,138.147422 L327.745337,138.147422 Z" id="Path" fill="#2F2E41"></path>
            <path d="M328.363583,141.856911 C328.363583,141.856911 327.019311,148.039389 335.419547,150.512382 L328.363583,141.856911 Z" id="Path" fill="#94CE51"></path>
            <ellipse id="Oval" fill="#A0616A" cx="318.003201" cy="168.095101" rx="1.502442" ry="3.38049"></ellipse>
            <path d="M152.181612,181.172943 L129.376894,186.698106 L129.302595,186.715796 L126.823639,188.960058 L126.110146,189.60516 L124.580556,189.32801 L121.872811,188.838594 L123.759738,182.470194 L124.113537,170.323088 L122.816277,162.893304 L130.010193,157.940114 C130.010193,157.940114 144.044217,157.114593 152.181612,181.172943 Z" id="Path" fill="#D0CDE1"></path>
            <path d="M129.376881,186.698106 C129.067893,187.357356 129.715349,186.922179 129.361545,187.600297 L126.059422,188.661694 L124.580542,189.328009 L121.872798,188.838594 L123.759725,182.470194 L124.113524,170.323087 L122.816264,162.893304 L130.01018,157.940113 C130.01018,157.940113 137.731253,168.874879 129.376881,186.698106 Z" id="Path" fill="#000000" opacity="0.1"></path>
            <path d="M179.07034,163.718847 C179.07034,163.718847 149.115339,177.634949 136.968232,179.757747 C124.821126,181.880546 125.882523,194.027648 125.882523,194.027648 L193.929912,183.413673 C193.929912,183.413673 191.571246,172.445895 179.07034,163.718847 Z" id="Path" fill="#D0CDE1"></path>
            <path d="M121.283131,161.360186 C121.283131,161.360186 126.472185,173.979027 120.693465,189.664124 L127.415651,192.730383 L130.01018,189.664124 L130.06913,189.369293 L122.934177,188.720658 C122.934177,188.720658 128.830828,172.917626 123.995574,161.949852 C123.995592,161.949852 122.934195,159.591191 121.283131,161.360186 Z" id="Path" fill="#FEC6AF"></path>
            <path d="M220.228983,254.881107 C193.69404,248.984464 168.98706,261.190557 168.98706,261.190557 L168.919839,261.13041 L159.080684,252.345577 L120.634484,189.605183 L130.010161,189.664132 C156.073369,174.096967 192.750556,176.219761 192.750556,176.219761 C208.553607,194.145583 220.228983,254.881107 220.228983,254.881107 Z" id="Path" fill="#3F3D56"></path>
            <path d="M168.919839,261.130387 L159.080684,252.345555 L120.634484,189.60516 L130.010161,189.66411 C130.010161,189.66411 167.378454,239.017936 168.919839,261.130387 Z" id="Path" fill="#000000" opacity="0.1"></path>
            <ellipse id="Oval" fill="#D0CDE1" transform="translate(170.402265, 202.931584) rotate(-17.051850) translate(-170.402265, -202.931584) " cx="170.402265" cy="202.931584" rx="15.213366" ry="9.6705135"></ellipse>
            <circle id="Oval" fill="#3F3D56" cx="12.507012" cy="124.718607" r="8.55"></circle>
            <circle id="Oval" fill="#3F3D56" cx="430.107012" cy="288.968607" r="8.55"></circle>
            <circle id="Oval" fill="#00B5E2" cx="49.857012" cy="125.618607" r="6.75"></circle>
            <circle id="Oval" fill="#94CE51" cx="430.107012" cy="125.618607" r="6.75"></circle>
            <circle id="Oval" fill="#FFE324" cx="12.507012" cy="288.068607" r="6.75"></circle>
        </g>
        <g id="Group" transform="translate(300.000000, 16.000000)">
            <path d="M354.617188,81.7163489 C320.28771,97.553103 271.803739,124.472853 209.165275,162.475598 C146.52681,200.478343 92.3441146,205.895889 46.6171875,178.728237" id="Path" stroke-opacity="0.2" stroke="#974321" stroke-width="4" stroke-linecap="round" stroke-linejoin="round" stroke-dasharray="4,20"></path>
            <path d="M12.0117188,96.5034583 L12.0117188,122.040568 C15.5599136,119.501492 19.5800557,118.231974 24.0722656,118.231974 C28.0761919,118.231974 31.7138508,119.216665 34.9853516,121.186075 C38.2568523,123.155486 40.7958894,125.922386 42.6025391,129.486857 C44.4091887,133.051328 45.3125,137.03078 45.3125,141.425333 C45.3125,148.91235 43.0827046,154.812356 38.6230469,159.125529 C34.1633892,163.438701 28.0599346,165.595255 20.3125,165.595255 C13.3463193,165.595255 6.57555371,164.309461 0,161.737833 L0,96.5034583 L12.0117188,96.5034583 Z M12.0117188,155.194865 C14.5833462,156.073775 17.5781079,156.513224 20.9960938,156.513224 C24.6744976,156.513224 27.5960178,155.170464 29.7607422,152.484904 C31.9254666,149.799343 33.0078125,146.080305 33.0078125,141.327677 C33.0078125,137.030781 31.9173286,133.604708 29.7363281,131.049357 C27.5553276,128.494005 24.6744971,127.216349 21.09375,127.216349 C19.4335854,127.216349 17.9036528,127.525591 16.5039062,128.144083 C15.1041597,128.762576 13.6067788,129.722853 12.0117188,131.024943 L12.0117188,155.194865 Z M77.4902344,118.231974 C82.2428623,118.231974 86.5559702,119.224803 90.4296875,121.21049 C94.3034048,123.196177 97.2981665,125.979352 99.4140625,129.560099 C101.529958,133.140846 102.587891,137.19354 102.587891,141.718302 C102.587891,146.438378 101.570648,150.572451 99.5361328,154.120646 C97.5016174,157.668841 94.5068557,160.468292 90.5517578,162.519083 C86.5966599,164.569875 82.2428623,165.595255 77.4902344,165.595255 C72.7050542,165.595255 68.3593945,164.569875 64.453125,162.519083 C60.5468555,160.468292 57.5765076,157.668841 55.5419922,154.120646 C53.5074768,150.572451 52.4902344,146.438378 52.4902344,141.718302 C52.4902344,137.128435 53.5644424,133.051328 55.7128906,129.486857 C57.8613389,125.922386 60.8561006,123.155486 64.6972656,121.186075 C68.5384307,119.216665 72.8027109,118.231974 77.4902344,118.231974 Z M65.0878906,141.718302 C65.0878906,146.275616 66.2027883,149.913275 68.4326172,152.631388 C70.662446,155.349501 73.6490698,156.708536 77.3925781,156.708536 C81.2988477,156.708536 84.3749888,155.406466 86.6210938,152.802286 C88.8671987,150.198107 89.9902344,146.47093 89.9902344,141.620646 C89.9902344,136.998227 88.8590608,133.425671 86.5966797,130.902872 C84.3342986,128.380073 81.2662954,127.118693 77.3925781,127.118693 C73.7467266,127.118693 70.7845166,128.453315 68.5058594,131.122599 C66.2272021,133.791883 65.0878906,137.323749 65.0878906,141.718302 Z M134.814453,118.231974 C139.567081,118.231974 143.880189,119.224803 147.753906,121.21049 C151.627624,123.196177 154.622385,125.979352 156.738281,129.560099 C158.854177,133.140846 159.912109,137.19354 159.912109,141.718302 C159.912109,146.438378 158.894867,150.572451 156.860352,154.120646 C154.825836,157.668841 151.831074,160.468292 147.875977,162.519083 C143.920879,164.569875 139.567081,165.595255 134.814453,165.595255 C130.029273,165.595255 125.683613,164.569875 121.777344,162.519083 C117.871074,160.468292 114.900726,157.668841 112.866211,154.120646 C110.831696,150.572451 109.814453,146.438378 109.814453,141.718302 C109.814453,137.128435 110.888661,133.051328 113.037109,129.486857 C115.185558,125.922386 118.180319,123.155486 122.021484,121.186075 C125.862649,119.216665 130.12693,118.231974 134.814453,118.231974 Z M122.412109,141.718302 C122.412109,146.275616 123.527007,149.913275 125.756836,152.631388 C127.986665,155.349501 130.973289,156.708536 134.716797,156.708536 C138.623066,156.708536 141.699208,155.406466 143.945312,152.802286 C146.191417,150.198107 147.314453,146.47093 147.314453,141.620646 C147.314453,136.998227 146.18328,133.425671 143.920898,130.902872 C141.658517,128.380073 138.590514,127.118693 134.716797,127.118693 C131.070945,127.118693 128.108735,128.453315 125.830078,131.122599 C123.551421,133.791883 122.412109,137.323749 122.412109,141.718302 Z M181.542969,96.5034583 L181.542969,164.716349 L169.53125,164.716349 L169.53125,96.5034583 L181.542969,96.5034583 Z M214.648438,119.11088 L196.142578,141.620646 L216.943359,164.716349 L201.708984,164.716349 L181.738281,141.620646 L200.537109,119.11088 L214.648438,119.11088 Z M227.832031,119.11088 L238.427734,145.42924 L249.21875,119.11088 L257.03125,119.11088 L267.724609,145.42924 L278.320312,119.11088 L290.820312,119.11088 L270.507812,165.595255 L265.429688,165.595255 L253.125,137.714396 L240.820312,165.595255 L235.839844,165.595255 L215.332031,119.11088 L227.832031,119.11088 Z M303.222656,98.0171301 C305.078134,98.0171301 306.67317,98.6844412 308.007812,100.019083 C309.342455,101.353725 310.009766,102.948761 310.009766,104.80424 C310.009766,106.594613 309.350593,108.181511 308.032227,109.564982 C306.713861,110.948452 305.110687,111.640177 303.222656,111.640177 C301.39973,111.640177 299.812832,110.948452 298.461914,109.564982 C297.110996,108.181511 296.435547,106.594613 296.435547,104.80424 C296.435547,102.916209 297.119134,101.313035 298.486328,99.9946692 C299.853522,98.6763032 301.432283,98.0171301 303.222656,98.0171301 Z M309.228516,119.11088 L309.228516,164.716349 L297.216797,164.716349 L297.216797,119.11088 L309.228516,119.11088 Z M336.425781,118.231974 C338.932304,118.231974 341.292307,118.516802 343.505859,119.086466 C345.719412,119.65613 348.063139,120.559442 350.537109,121.796427 L350.537109,131.415568 C348.258452,129.950717 345.81707,128.770715 343.212891,127.875529 C340.608711,126.980342 338.28126,126.532755 336.230469,126.532755 C334.5052,126.532755 333.154302,126.858273 332.177734,127.509318 C331.201167,128.160363 330.712891,129.088088 330.712891,130.292521 C330.712891,130.976118 331.119788,131.659705 331.933594,132.343302 C332.7474,133.026899 334.977195,134.280142 338.623047,136.103068 C343.831406,138.7398 347.485341,141.173043 349.584961,143.402872 C351.684581,145.632701 352.734375,148.310083 352.734375,151.435099 C352.734375,155.829652 351.204442,159.288276 348.144531,161.811075 C345.08462,164.333875 340.950547,165.595255 335.742188,165.595255 C332.486963,165.595255 329.451511,165.237186 326.635742,164.521036 C323.819973,163.804887 321.484384,162.942265 319.628906,161.933146 L319.628906,151.92338 C325.488311,155.178605 330.419902,156.806193 334.423828,156.806193 C336.47462,156.806193 338.134759,156.439985 339.404297,155.70756 C340.673834,154.975134 341.308594,154.006719 341.308594,152.802286 C341.308594,152.086137 341.080731,151.435102 340.625,150.849161 C340.169269,150.263221 339.485682,149.661013 338.574219,149.042521 L338.398995,148.928043 C337.330914,148.251942 334.541038,146.808994 330.029297,144.599161 C326.350893,142.84134 323.632821,140.928924 321.875,138.861857 C320.117179,136.794789 319.238281,134.345269 319.238281,131.513224 C319.238281,127.476745 320.817042,124.254121 323.974609,121.845255 C327.132177,119.436389 331.282526,118.231974 336.425781,118.231974 Z M382.421875,118.231974 C389.127638,118.231974 394.433574,120.38039 398.339844,124.677286 C402.246113,128.974183 404.199219,134.914879 404.199219,142.499552 L404.199219,144.306193 L371.923828,144.306193 C372.412112,148.375223 373.933906,151.50833 376.489258,153.705607 C379.044609,155.902883 382.552061,157.001505 387.011719,157.001505 C389.876316,157.001505 392.635078,156.505091 395.288086,155.512247 C397.941094,154.519404 400.68358,153.013885 403.515625,150.995646 L403.515625,159.931193 C398.177057,163.707253 391.699257,165.595255 384.082031,165.595255 C376.887985,165.595255 371.012393,163.430563 366.455078,159.101115 C361.897764,154.771666 359.619141,149.010005 359.619141,141.815958 C359.619141,134.88233 361.726867,129.218324 365.942383,124.823771 C370.157899,120.429218 375.651008,118.231974 382.421875,118.231974 Z M382.910156,126.435099 C379.882797,126.435099 377.449553,127.330272 375.610352,129.120646 C373.77115,130.911019 372.607424,133.547712 372.119141,137.030802 L372.119141,137.030802 L392.919922,137.030802 C392.594399,133.710473 391.585295,131.11447 389.892578,129.242716 C388.199861,127.370962 385.872411,126.435099 382.910156,126.435099 Z" id="bookwise" fill="#CA592C" fill-rule="nonzero"></path>
            <g id="icons/32px/paper-plane" transform="translate(361.400839, 64.500000) rotate(21.000000) translate(-361.400839, -64.500000) translate(315.900839, 19.000000)">
                <g id="Icon-frame">
                    <mask id="mask-2" fill="white">
                        <use xlink:href="#path-1"></use>
                    </mask>
                    <g id="Rectangle-2"></g>
                </g>
                <g id="Icon">
                    <mask id="mask-4" fill="white">
                        <use xlink:href="#path-3"></use>
                    </mask>
                    <use id="icon/paper-plane" fill="#222222" fill-rule="nonzero" xlink:href="#path-3"></use>
                    <g id="colours/burning-orange/20" mask="url(#mask-4)" fill="#FFE2D7">
                        <polygon id="#EB612A" points="0 0 219 0 219 219 0 219"></polygon>
                    </g>
                </g>
            </g>
            <g id="icons/32px/paper-plane" transform="translate(364.400839, 59.500000) rotate(21.000000) translate(-364.400839, -59.500000) translate(318.900839, 14.000000)">
                <g id="Icon-frame">
                    <mask id="mask-6" fill="white">
                        <use xlink:href="#path-5"></use>
                    </mask>
                    <g id="Rectangle-2"></g>
                </g>
                <g id="Icon">
                    <mask id="mask-8" fill="white">
                        <use xlink:href="#path-7"></use>
                    </mask>
                    <use id="icon/paper-plane" fill="#222222" fill-rule="nonzero" xlink:href="#path-7"></use>
                    <g id="colours/burning-orange/80" mask="url(#mask-8)" fill="#FD8D5F">
                        <polygon id="#EB612A" points="0 0 219 0 219 219 0 219"></polygon>
                    </g>
                </g>
            </g>
        </g>
    </g>
</svg>