<svg width="1200" height="600" viewBox="0 0 1200 600" fill="none" xmlns="http://www.w3.org/2000/svg">
<g id="design_system_hero" clip-path="url(#clip0)">
<rect width="1200" height="600" fill="#EF426F" fill-opacity="0.1"/>
<rect id="Rectangle Copy" x="1000" y="224" width="28" height="27" rx="8" fill="#F9B4C6"/>
<rect id="Rectangle Copy_2" x="1040" y="118" width="40" height="25" rx="8" fill="#BF3458"/>
<rect id="Rectangle" x="994" y="219" width="24" height="23" rx="6" stroke="#5F1A1A" stroke-width="4"/>
<rect id="Rectangle Copy_3" x="788" y="94" width="96" height="43" rx="8" fill="#BF3458"/>
<rect id="Rectangle Copy 2" x="784" y="109" width="92" height="19" rx="6" stroke="#5F1A2C" stroke-width="4"/>
<g id="undraw_voting_nvu7">
<circle id="Oval" opacity="0.4" cx="1073.5" cy="369.5" r="11.5" fill="#FCDAE3"/>
<circle id="Oval_2" opacity="0.4" cx="831.5" cy="301.5" r="16.5" fill="white"/>
<circle id="Oval_3" opacity="0.4" cx="800.5" cy="309.5" r="11.5" fill="white"/>
<path id="Path" d="M1146.52 588C1146.52 588 1149.65 601.292 1146.8 601.869C1143.95 602.447 1129.98 602.261 1126.55 602.839C1123.13 603.417 1116 602.447 1116 599.847C1116 597.246 1123.42 595.513 1123.42 595.513C1123.42 595.513 1133.97 589.734 1134.25 589.445C1134.54 589.156 1146.52 588 1146.52 588Z" fill="#222222"/>
<path id="Path_2" d="M1143.87 510.429C1143.87 510.429 1143.02 520.143 1143.02 521C1143.02 521.857 1143.87 535.286 1143.02 535.857C1142.17 536.429 1143.59 540.429 1143.59 541.857C1143.59 543.286 1148.12 567 1146.99 576.143C1145.85 585.286 1148.69 584.429 1147.84 585.286C1146.99 586.143 1146.99 586.143 1146.99 587.857C1146.99 589.571 1137.92 591 1137.92 591L1128 527.857L1133.1 509L1143.87 510.429Z" fill="black"/>
<path id="Path_3" opacity="0.1" d="M1143.87 510.429C1143.87 510.429 1143.02 520.143 1143.02 521C1143.02 521.857 1143.87 535.286 1143.02 535.857C1142.17 536.429 1143.59 540.429 1143.59 541.857C1143.59 543.286 1148.12 567 1146.99 576.143C1145.85 585.286 1148.69 584.429 1147.84 585.286C1146.99 586.143 1146.99 586.143 1146.99 587.857C1146.99 589.571 1137.92 591 1137.92 591L1128 527.857L1133.1 509L1143.87 510.429Z" fill="black"/>
<path id="Path_4" d="M1141.74 591.511C1141.74 591.511 1144.58 602.155 1141.74 602.746C1138.89 603.337 1124.94 602.069 1121.53 602.66C1118.11 603.251 1111 603.337 1111 600.677C1111 598.016 1118.4 596.242 1118.4 596.242C1118.4 596.242 1128.93 590.329 1129.21 590.033C1129.5 589.738 1141.74 591.511 1141.74 591.511Z" fill="#222222"/>
<path id="Path_5" d="M1146.62 498C1146.62 498 1150.09 506.334 1146.04 510.645C1141.99 514.956 1137.36 523.578 1137.36 524.152C1137.36 524.727 1145.46 581.918 1144.3 585.654C1143.15 589.39 1143.44 591.689 1143.72 592.264C1144.01 592.839 1140.83 596 1137.36 596C1133.89 596 1128.69 593.413 1128.11 591.114C1127.53 588.815 1128.98 568.985 1128.69 565.249C1128.4 561.513 1126.95 556.053 1126.37 554.903C1125.8 553.754 1122.62 552.604 1122.04 549.155C1121.46 545.707 1116.83 501.736 1118.28 500.299C1119.72 498.862 1146.62 498 1146.62 498Z" fill="black"/>
<circle id="Oval_4" cx="1124" cy="423" r="10" fill="#FFB9B9"/>
<path id="Path_6" d="M1130 427.335C1130 427.335 1128.02 437.974 1129.43 439.125C1130.85 440.275 1118.7 442 1118.7 442C1118.7 442 1117.29 427.91 1117 426.473C1116.72 425.035 1130 427.335 1130 427.335Z" fill="#FFB9B9"/>
<path id="Combined Shape" fill-rule="evenodd" clip-rule="evenodd" d="M1117.46 441.677C1117.46 441.677 1120.9 431.65 1134.95 434.515C1134.95 434.515 1137.53 435.374 1136.67 436.234C1136.44 436.466 1136.21 436.635 1136.01 436.776C1135.49 437.156 1135.26 437.325 1136.1 437.953C1136.67 438.383 1137.32 438.383 1137.71 438.383C1138.11 438.383 1138.25 438.383 1137.82 438.812C1137.57 439.066 1138.13 439.692 1139.05 440.698C1141.23 443.108 1145.39 447.698 1144.99 454.57C1144.74 458.768 1145.08 463.71 1145.38 468.159C1145.79 474.035 1146.13 479.051 1144.99 480.356C1143.75 481.766 1144.58 486.104 1145.27 489.701C1145.69 491.95 1146.07 493.909 1145.85 494.681C1145.57 495.646 1146.36 496.744 1147.06 497.719C1147.81 498.77 1148.46 499.679 1147.57 500.124C1146.66 500.576 1137.69 502.213 1129.25 502.794C1127.86 509.11 1126.1 515 1124.41 515C1120.78 515 1117.98 514.43 1117.14 513.004C1117.05 512.843 1117.01 512.437 1117 511.843C1116.62 511.605 1116.33 511.327 1116.14 511.004C1115.8 510.415 1116.12 506.567 1116.62 502.253C1115.11 501.799 1114.16 501.113 1114.02 500.124C1113.51 496.583 1113.5 496.615 1113.41 496.949C1113.34 497.182 1113.23 497.562 1112.87 496.973C1112.01 495.54 1111.72 492.962 1112.3 489.81L1112.34 489.595C1112.93 486.32 1114.29 478.86 1113.73 476.058C1113.16 473.193 1113.73 449.127 1115.45 446.262C1117.17 443.397 1117.46 441.677 1117.46 441.677Z" fill="url(#paint0_linear)"/>
<path id="Path_7" d="M1123.37 511.576C1123.37 511.576 1127.71 528 1122.21 528C1116.71 528 1117 511 1117 511L1123.37 511.576Z" fill="#FFB9B9"/>
<path id="Path_8" d="M1120 422.445C1120 423.272 1121.22 423.797 1123.1 423.917H1123.11C1123.91 423.962 1124.71 423.947 1125.51 423.871C1126.71 423.763 1127.21 424.879 1127.42 426.351C1127.75 428.778 1127.28 432.182 1127.83 432.715C1128.57 433.451 1134.03 432.713 1135.73 431.044C1136 430.809 1136.17 430.494 1136.23 430.148C1136.41 429.129 1136.92 428.194 1137.69 427.486C1138.69 426.405 1140.13 425.207 1141.74 423.301C1144.64 419.877 1141.74 419.592 1140.87 417.025C1140 414.457 1138.55 413.601 1138.55 411.889C1138.55 410.178 1131.89 408.751 1126.38 409.037C1120.87 409.322 1122.03 416.169 1122.03 416.169C1122.03 416.169 1121.7 416.996 1121.31 418.063C1120.78 419.402 1120.35 420.777 1120.02 422.177C1120.01 422.266 1120 422.355 1120 422.445Z" fill="#2F2E41"/>
<g id="b6a4aa65-5bff-4dd4-a595-827386906092">
<path id="Rectangle_2" d="M704.933 534.218L675.325 540.54L669 510.944L698.609 504.622L704.933 534.218Z" fill="white"/>
<path id="ac286760-ef31-4470-8aba-995faff60c3b" d="M704.11 496.714C704.11 496.714 693.234 504.479 696.86 507.585C700.485 510.691 707.735 498.267 707.735 498.267L704.11 496.714Z" fill="#D8AF7C"/>
<path id="ad0ee0d5-d520-47bd-bca9-706ef112ee3c" d="M754.343 508.62C754.343 508.62 752.272 534.503 751.754 538.127C751.236 541.75 750.718 574.363 749.683 577.987C748.647 581.61 747.611 590.411 747.611 590.411H741.397C741.397 590.411 741.914 574.363 740.361 568.151C738.807 561.939 739.325 544.856 739.325 544.856C739.325 544.856 736.218 514.314 737.771 510.173C739.325 506.032 754.343 508.62 754.343 508.62Z" fill="#D8AF7C"/>
<path id="a2d865fc-f989-4a0f-bdfe-5d1a04b5cb09" d="M746.057 588.858C746.057 588.858 748.647 590.411 748.647 591.446C748.647 592.482 748.129 595.07 748.647 596.105C749.165 597.14 752.79 601.282 750.718 602.317C748.647 603.352 739.325 602.317 739.325 602.317C739.325 602.317 739.843 595.07 740.361 594.552C740.879 594.035 739.843 588.858 739.843 588.858L746.057 588.858Z" fill="#2F2E41"/>
<path id="a5afd73e-dc2f-49f8-bb76-01b6bc8ff4ec" d="M714.755 507.986C714.755 507.986 714.097 533.943 714.232 537.601C714.366 541.259 711.457 573.746 712.106 577.458C712.756 581.17 712.861 590.031 712.861 590.031L719.042 590.683C719.042 590.683 720.212 574.67 722.409 568.655C724.606 562.64 725.885 545.598 725.885 545.598C725.885 545.598 732.182 515.55 731.072 511.269C729.962 506.987 714.755 507.986 714.755 507.986Z" fill="#D8AF7C"/>
<path id="bae9c969-98bd-41cd-ab49-dced4866e2f9" d="M714.57 588.649C714.57 588.649 711.831 589.922 711.723 590.952C711.614 591.981 711.857 594.61 711.234 595.585C710.61 596.56 706.57 600.298 708.521 601.545C710.473 602.792 719.851 602.741 719.851 602.741C719.851 602.741 720.097 595.479 719.637 594.91C719.176 594.341 720.75 589.301 720.75 589.301L714.57 588.649Z" fill="#2F2E41"/>
<path id="efa1face-c8d6-4f61-8a17-c81461288bfc" d="M747.093 469.796C747.093 469.796 751.236 470.314 752.79 479.114C754.343 487.914 760.04 510.173 755.379 511.726C750.718 513.279 736.736 516.385 736.218 515.35C735.7 514.315 734.664 511.726 734.664 511.726C734.664 511.726 736.218 516.385 734.146 516.385C732.075 516.385 711.878 513.279 712.396 511.726C712.914 510.173 713.949 498.785 713.949 498.785C713.949 498.785 717.057 479.631 720.164 476.525C721.984 474.778 722.933 472.312 722.753 469.796L747.093 469.796Z" fill="#2F2E41"/>
<path id="ba787e0e-2496-4127-9664-864bc1f1b460" d="M754.861 465.654C754.861 465.654 748.129 464.101 747.093 466.172C746.057 468.243 749.682 471.349 751.236 471.349C752.79 471.349 755.379 469.796 755.379 469.796L754.861 465.654Z" fill="#D8AF7C"/>
<ellipse id="af432612-84fe-4a80-a474-ad6710b59c23" cx="740.879" cy="412.335" rx="9.32169" ry="9.3179" fill="#D8AF7C"/>
<path id="fc691572-079c-4ac7-a111-0c7206f484e6" d="M739.325 419.065C739.325 419.065 737.771 426.312 738.807 426.312C739.843 426.312 731.039 430.971 731.039 430.971L724.307 429.936L722.235 426.83C722.235 426.83 733.111 419.582 733.111 415.441C733.111 411.3 739.325 419.065 739.325 419.065Z" fill="#D8AF7C"/>
<path id="Combined Shape_2" fill-rule="evenodd" clip-rule="evenodd" d="M734.664 426.312C734.664 426.312 736.218 425.277 736.736 425.277H740.879C741.397 425.277 748.129 426.83 748.129 426.83L748.129 426.83C748.14 426.828 751.243 426.318 754.861 429.418C758.486 432.524 771.951 441.842 771.951 441.842C771.951 441.842 777.13 445.983 775.576 450.642C775.412 451.135 775.236 451.703 775.044 452.323L775.044 452.324C773.417 457.576 770.612 466.635 763.665 466.172C763.665 466.172 759.004 472.384 756.415 471.349C753.825 470.313 751.754 466.172 753.308 465.654C754.861 465.137 759.004 459.96 759.004 459.96L753.825 450.125H752.272L752.272 450.125C752.272 450.125 745.022 462.031 750.2 471.349C750.2 471.349 748.647 470.313 741.397 470.831C736.398 471.188 728.693 472.037 724.218 472.53L724.218 472.53L724.218 472.53C722.202 472.752 720.843 472.902 720.682 472.902C720.164 472.902 720.164 468.76 720.682 467.725C720.92 467.249 720.829 467.101 720.662 466.829C720.466 466.509 720.164 466.017 720.164 464.619C720.164 463.032 719.58 460.667 719.128 459.075V464.619C722.235 475.49 714.985 483.255 714.985 483.255C714.985 483.255 708.771 497.749 709.289 499.82C709.806 501.891 703.593 498.785 702.556 498.267L702.556 498.267C701.52 497.749 706.699 480.149 706.699 480.149C705.81 478.075 706.617 467.18 707.373 456.981C707.938 449.362 708.474 442.131 708.253 439.254C707.735 432.524 711.36 430.971 711.36 430.971L711.36 430.971C711.36 430.971 720.682 425.794 722.235 426.312L722.235 426.312C723.789 426.83 728.45 428.383 729.486 427.865C730.521 427.347 734.664 426.312 734.664 426.312Z" fill="url(#paint1_linear)"/>
<path id="eb14ef5a-0bc4-48da-8b11-b0e113a7ef46" d="M748.637 421.344L742.053 422.778L741.207 419.537L741.533 422.891L730.912 425.204L730.445 423.415L730.624 425.266L723.822 426.748L722.367 412.785C720.871 407.055 726.331 400.948 732.063 399.453L734.606 398.789C738.816 397.691 746.468 398.69 747.567 402.898C745.644 410.235 742.366 418.278 748.637 421.344Z" fill="#2F2E41"/>
</g>
</g>
<g id="Group">
<path id="+" opacity="0.4" d="M949.911 336.574C949.13 335.793 949.13 334.526 949.911 333.745L957.899 325.758C958.68 324.976 958.68 323.71 957.899 322.929L950.421 315.451C949.64 314.67 949.64 313.404 950.421 312.623L952.123 310.921C952.904 310.14 954.17 310.14 954.951 310.921L962.429 318.399C963.21 319.18 964.477 319.18 965.258 318.399L973.246 310.411C974.027 309.63 975.293 309.63 976.074 310.411L978.089 312.426C978.87 313.207 978.87 314.473 978.089 315.254L970.101 323.242C969.32 324.023 969.32 325.289 970.101 326.071L977.579 333.548C978.36 334.329 978.36 335.596 977.579 336.377L975.877 338.079C975.096 338.86 973.83 338.86 973.048 338.079L965.571 330.601C964.79 329.82 963.523 329.82 962.742 330.601L954.754 338.589C953.973 339.37 952.707 339.37 951.926 338.589L949.911 336.574Z" fill="#5F1A1A"/>
<rect id="Rectangle_3" x="1136.06" y="392.006" width="1" height="11" transform="rotate(11 1136.06 392.006)" fill="#222222"/>
<rect id="Rectangle Copy 3" x="1158.07" y="406.396" width="1" height="11" transform="rotate(61 1158.07 406.396)" fill="#222222"/>
<path id="Triangle" opacity="0.4" fill-rule="evenodd" clip-rule="evenodd" d="M865.922 415.155C867.396 412.207 871.604 412.207 873.078 415.155L879.106 427.211C880.435 429.871 878.501 433 875.528 433H863.472C860.499 433 858.565 429.871 859.894 427.211L865.922 415.155Z" fill="white"/>
<path id="Polygon" opacity="0.4" fill-rule="evenodd" clip-rule="evenodd" d="M656.737 220.281C657.788 219.517 659.212 219.517 660.263 220.281L673.38 229.811C674.432 230.575 674.872 231.929 674.47 233.165L669.46 248.585C669.058 249.821 667.906 250.658 666.607 250.658H650.393C649.094 250.658 647.942 249.821 647.54 248.585L642.53 233.165C642.128 231.929 642.568 230.575 643.62 229.811L656.737 220.281Z" fill="#F9B4C6"/>
</g>
<g id="Group 43">
<path id="One source to rule t" d="M123.12 281.756C123.12 284.724 122.625 287.477 121.636 290.016C120.665 292.536 119.284 294.72 117.492 296.568C115.7 298.416 113.544 299.863 111.024 300.908C108.504 301.935 105.704 302.448 102.624 302.448C99.5627 302.448 96.772 301.935 94.252 300.908C91.732 299.863 89.5667 298.416 87.756 296.568C85.964 294.72 84.5733 292.536 83.584 290.016C82.5947 287.477 82.1 284.724 82.1 281.756C82.1 278.788 82.5947 276.044 83.584 273.524C84.5733 270.985 85.964 268.792 87.756 266.944C89.5667 265.096 91.732 263.659 94.252 262.632C96.772 261.587 99.5627 261.064 102.624 261.064C104.677 261.064 106.609 261.307 108.42 261.792C110.231 262.259 111.892 262.931 113.404 263.808C114.916 264.667 116.269 265.721 117.464 266.972C118.677 268.204 119.704 269.585 120.544 271.116C121.384 272.647 122.019 274.308 122.448 276.1C122.896 277.892 123.12 279.777 123.12 281.756ZM115.42 281.756C115.42 279.535 115.121 277.547 114.524 275.792C113.927 274.019 113.077 272.516 111.976 271.284C110.875 270.052 109.531 269.109 107.944 268.456C106.376 267.803 104.603 267.476 102.624 267.476C100.645 267.476 98.8627 267.803 97.276 268.456C95.708 269.109 94.364 270.052 93.244 271.284C92.1427 272.516 91.2933 274.019 90.696 275.792C90.0987 277.547 89.8 279.535 89.8 281.756C89.8 283.977 90.0987 285.975 90.696 287.748C91.2933 289.503 92.1427 290.996 93.244 292.228C94.364 293.441 95.708 294.375 97.276 295.028C98.8627 295.681 100.645 296.008 102.624 296.008C104.603 296.008 106.376 295.681 107.944 295.028C109.531 294.375 110.875 293.441 111.976 292.228C113.077 290.996 113.927 289.503 114.524 287.748C115.121 285.975 115.42 283.977 115.42 281.756ZM134.618 276.8C135.197 276.221 135.804 275.689 136.438 275.204C137.092 274.7 137.773 274.28 138.482 273.944C139.21 273.589 139.985 273.319 140.806 273.132C141.628 272.927 142.524 272.824 143.494 272.824C145.062 272.824 146.453 273.095 147.666 273.636C148.88 274.159 149.888 274.905 150.69 275.876C151.512 276.828 152.128 277.976 152.538 279.32C152.968 280.645 153.182 282.111 153.182 283.716V302H146.266V283.716C146.266 281.961 145.865 280.608 145.062 279.656C144.26 278.685 143.037 278.2 141.394 278.2C140.2 278.2 139.08 278.471 138.034 279.012C136.989 279.553 136 280.291 135.066 281.224V302H128.15V273.272H132.378C133.274 273.272 133.862 273.692 134.142 274.532L134.618 276.8ZM178.268 284.332C178.268 283.436 178.137 282.596 177.876 281.812C177.633 281.009 177.26 280.309 176.756 279.712C176.252 279.115 175.608 278.648 174.824 278.312C174.058 277.957 173.162 277.78 172.136 277.78C170.138 277.78 168.561 278.349 167.404 279.488C166.265 280.627 165.537 282.241 165.22 284.332H178.268ZM165.08 288.504C165.192 289.979 165.453 291.257 165.864 292.34C166.274 293.404 166.816 294.291 167.488 295C168.16 295.691 168.953 296.213 169.868 296.568C170.801 296.904 171.828 297.072 172.948 297.072C174.068 297.072 175.029 296.941 175.832 296.68C176.653 296.419 177.362 296.129 177.96 295.812C178.576 295.495 179.108 295.205 179.556 294.944C180.022 294.683 180.47 294.552 180.9 294.552C181.478 294.552 181.908 294.767 182.188 295.196L184.176 297.716C183.41 298.612 182.552 299.368 181.6 299.984C180.648 300.581 179.649 301.067 178.604 301.44C177.577 301.795 176.522 302.047 175.44 302.196C174.376 302.345 173.34 302.42 172.332 302.42C170.334 302.42 168.477 302.093 166.76 301.44C165.042 300.768 163.549 299.788 162.28 298.5C161.01 297.193 160.012 295.588 159.284 293.684C158.556 291.761 158.192 289.54 158.192 287.02C158.192 285.06 158.509 283.221 159.144 281.504C159.778 279.768 160.684 278.265 161.86 276.996C163.054 275.708 164.501 274.691 166.2 273.944C167.917 273.197 169.849 272.824 171.996 272.824C173.806 272.824 175.477 273.113 177.008 273.692C178.538 274.271 179.854 275.12 180.956 276.24C182.057 277.341 182.916 278.704 183.532 280.328C184.166 281.933 184.484 283.772 184.484 285.844C184.484 286.889 184.372 287.599 184.148 287.972C183.924 288.327 183.494 288.504 182.86 288.504H165.08ZM220.819 278.872C220.632 279.171 220.436 279.385 220.231 279.516C220.026 279.628 219.764 279.684 219.447 279.684C219.111 279.684 218.747 279.591 218.355 279.404C217.982 279.217 217.543 279.012 217.039 278.788C216.535 278.545 215.956 278.331 215.303 278.144C214.668 277.957 213.912 277.864 213.035 277.864C211.672 277.864 210.599 278.153 209.815 278.732C209.05 279.311 208.667 280.067 208.667 281C208.667 281.616 208.863 282.139 209.255 282.568C209.666 282.979 210.198 283.343 210.851 283.66C211.523 283.977 212.279 284.267 213.119 284.528C213.959 284.771 214.808 285.041 215.667 285.34C216.544 285.639 217.403 285.984 218.243 286.376C219.083 286.749 219.83 287.235 220.483 287.832C221.155 288.411 221.687 289.111 222.079 289.932C222.49 290.753 222.695 291.743 222.695 292.9C222.695 294.281 222.443 295.56 221.939 296.736C221.454 297.893 220.726 298.901 219.755 299.76C218.784 300.6 217.58 301.263 216.143 301.748C214.724 302.215 213.082 302.448 211.215 302.448C210.226 302.448 209.255 302.355 208.303 302.168C207.37 302 206.464 301.757 205.587 301.44C204.728 301.123 203.926 300.749 203.179 300.32C202.451 299.891 201.807 299.424 201.247 298.92L202.843 296.288C203.048 295.971 203.291 295.728 203.571 295.56C203.851 295.392 204.206 295.308 204.635 295.308C205.064 295.308 205.466 295.429 205.839 295.672C206.231 295.915 206.679 296.176 207.183 296.456C207.687 296.736 208.275 296.997 208.947 297.24C209.638 297.483 210.506 297.604 211.551 297.604C212.372 297.604 213.072 297.511 213.651 297.324C214.248 297.119 214.734 296.857 215.107 296.54C215.499 296.223 215.779 295.859 215.947 295.448C216.134 295.019 216.227 294.58 216.227 294.132C216.227 293.46 216.022 292.909 215.611 292.48C215.219 292.051 214.687 291.677 214.015 291.36C213.362 291.043 212.606 290.763 211.747 290.52C210.907 290.259 210.039 289.979 209.143 289.68C208.266 289.381 207.398 289.036 206.539 288.644C205.699 288.233 204.943 287.72 204.271 287.104C203.618 286.488 203.086 285.732 202.675 284.836C202.283 283.94 202.087 282.857 202.087 281.588C202.087 280.412 202.32 279.292 202.787 278.228C203.254 277.164 203.935 276.24 204.831 275.456C205.746 274.653 206.875 274.019 208.219 273.552C209.582 273.067 211.15 272.824 212.923 272.824C214.902 272.824 216.703 273.151 218.327 273.804C219.951 274.457 221.304 275.316 222.387 276.38L220.819 278.872ZM240.612 272.824C242.74 272.824 244.672 273.169 246.408 273.86C248.163 274.551 249.656 275.531 250.888 276.8C252.139 278.069 253.1 279.619 253.772 281.448C254.444 283.277 254.78 285.321 254.78 287.58C254.78 289.857 254.444 291.911 253.772 293.74C253.1 295.569 252.139 297.128 250.888 298.416C249.656 299.704 248.163 300.693 246.408 301.384C244.672 302.075 242.74 302.42 240.612 302.42C238.466 302.42 236.515 302.075 234.76 301.384C233.006 300.693 231.503 299.704 230.252 298.416C229.02 297.128 228.059 295.569 227.368 293.74C226.696 291.911 226.36 289.857 226.36 287.58C226.36 285.321 226.696 283.277 227.368 281.448C228.059 279.619 229.02 278.069 230.252 276.8C231.503 275.531 233.006 274.551 234.76 273.86C236.515 273.169 238.466 272.824 240.612 272.824ZM240.612 297.1C243.002 297.1 244.766 296.297 245.904 294.692C247.062 293.087 247.64 290.735 247.64 287.636C247.64 284.537 247.062 282.176 245.904 280.552C244.766 278.928 243.002 278.116 240.612 278.116C238.186 278.116 236.384 278.937 235.208 280.58C234.051 282.204 233.472 284.556 233.472 287.636C233.472 290.716 234.051 293.068 235.208 294.692C236.384 296.297 238.186 297.1 240.612 297.1ZM284.809 273.272V302H280.581C279.666 302 279.087 301.58 278.845 300.74L278.369 298.444C277.193 299.639 275.895 300.609 274.477 301.356C273.058 302.084 271.387 302.448 269.465 302.448C267.897 302.448 266.506 302.187 265.293 301.664C264.098 301.123 263.09 300.367 262.269 299.396C261.447 298.425 260.822 297.277 260.393 295.952C259.982 294.608 259.777 293.133 259.777 291.528V273.272H266.693V291.528C266.693 293.283 267.094 294.645 267.897 295.616C268.718 296.568 269.941 297.044 271.565 297.044C272.759 297.044 273.879 296.783 274.925 296.26C275.97 295.719 276.959 294.981 277.893 294.048V273.272H284.809ZM298.19 278.256C299.086 276.539 300.15 275.195 301.382 274.224C302.614 273.235 304.07 272.74 305.75 272.74C307.075 272.74 308.139 273.029 308.942 273.608L308.494 278.788C308.401 279.124 308.261 279.367 308.074 279.516C307.906 279.647 307.673 279.712 307.374 279.712C307.094 279.712 306.674 279.665 306.114 279.572C305.573 279.479 305.041 279.432 304.518 279.432C303.753 279.432 303.071 279.544 302.474 279.768C301.877 279.992 301.335 280.319 300.85 280.748C300.383 281.159 299.963 281.663 299.59 282.26C299.235 282.857 298.899 283.539 298.582 284.304V302H291.666V273.272H295.726C296.435 273.272 296.93 273.403 297.21 273.664C297.49 273.907 297.677 274.355 297.77 275.008L298.19 278.256ZM332.316 279.348C332.111 279.609 331.906 279.815 331.7 279.964C331.514 280.113 331.234 280.188 330.86 280.188C330.506 280.188 330.16 280.085 329.824 279.88C329.488 279.656 329.087 279.413 328.62 279.152C328.154 278.872 327.594 278.629 326.94 278.424C326.306 278.2 325.512 278.088 324.56 278.088C323.347 278.088 322.283 278.312 321.368 278.76C320.454 279.189 319.688 279.815 319.072 280.636C318.475 281.457 318.027 282.456 317.728 283.632C317.43 284.789 317.28 286.105 317.28 287.58C317.28 289.111 317.439 290.473 317.756 291.668C318.092 292.863 318.568 293.871 319.184 294.692C319.8 295.495 320.547 296.111 321.424 296.54C322.302 296.951 323.291 297.156 324.392 297.156C325.494 297.156 326.38 297.025 327.052 296.764C327.743 296.484 328.322 296.185 328.788 295.868C329.255 295.532 329.656 295.233 329.992 294.972C330.347 294.692 330.739 294.552 331.168 294.552C331.728 294.552 332.148 294.767 332.428 295.196L334.416 297.716C333.651 298.612 332.82 299.368 331.924 299.984C331.028 300.581 330.095 301.067 329.124 301.44C328.172 301.795 327.183 302.047 326.156 302.196C325.148 302.345 324.14 302.42 323.132 302.42C321.359 302.42 319.688 302.093 318.12 301.44C316.552 300.768 315.18 299.797 314.004 298.528C312.828 297.259 311.895 295.709 311.204 293.88C310.532 292.032 310.196 289.932 310.196 287.58C310.196 285.471 310.495 283.52 311.092 281.728C311.708 279.917 312.604 278.359 313.78 277.052C314.956 275.727 316.412 274.691 318.148 273.944C319.884 273.197 321.882 272.824 324.14 272.824C326.287 272.824 328.163 273.169 329.768 273.86C331.392 274.551 332.848 275.54 334.136 276.828L332.316 279.348ZM356.768 284.332C356.768 283.436 356.637 282.596 356.376 281.812C356.133 281.009 355.76 280.309 355.256 279.712C354.752 279.115 354.108 278.648 353.324 278.312C352.558 277.957 351.662 277.78 350.636 277.78C348.638 277.78 347.061 278.349 345.904 279.488C344.765 280.627 344.037 282.241 343.72 284.332H356.768ZM343.58 288.504C343.692 289.979 343.953 291.257 344.364 292.34C344.774 293.404 345.316 294.291 345.988 295C346.66 295.691 347.453 296.213 348.368 296.568C349.301 296.904 350.328 297.072 351.448 297.072C352.568 297.072 353.529 296.941 354.332 296.68C355.153 296.419 355.862 296.129 356.46 295.812C357.076 295.495 357.608 295.205 358.056 294.944C358.522 294.683 358.97 294.552 359.4 294.552C359.978 294.552 360.408 294.767 360.688 295.196L362.676 297.716C361.91 298.612 361.052 299.368 360.1 299.984C359.148 300.581 358.149 301.067 357.104 301.44C356.077 301.795 355.022 302.047 353.94 302.196C352.876 302.345 351.84 302.42 350.832 302.42C348.834 302.42 346.977 302.093 345.26 301.44C343.542 300.768 342.049 299.788 340.78 298.5C339.51 297.193 338.512 295.588 337.784 293.684C337.056 291.761 336.692 289.54 336.692 287.02C336.692 285.06 337.009 283.221 337.644 281.504C338.278 279.768 339.184 278.265 340.36 276.996C341.554 275.708 343.001 274.691 344.7 273.944C346.417 273.197 348.349 272.824 350.496 272.824C352.306 272.824 353.977 273.113 355.508 273.692C357.038 274.271 358.354 275.12 359.456 276.24C360.557 277.341 361.416 278.704 362.032 280.328C362.666 281.933 362.984 283.772 362.984 285.844C362.984 286.889 362.872 287.599 362.648 287.972C362.424 288.327 361.994 288.504 361.36 288.504H343.58ZM92.992 369.448C90.4907 369.448 88.568 368.748 87.224 367.348C85.8987 365.929 85.236 363.979 85.236 361.496V345.452H82.296C81.9227 345.452 81.6053 345.331 81.344 345.088C81.0827 344.845 80.952 344.481 80.952 343.996V341.252L85.572 340.496L87.028 332.656C87.1213 332.283 87.2987 331.993 87.56 331.788C87.8213 331.583 88.1573 331.48 88.568 331.48H92.152V340.524H99.824V345.452H92.152V361.02C92.152 361.916 92.3667 362.616 92.796 363.12C93.244 363.624 93.8507 363.876 94.616 363.876C95.0453 363.876 95.4 363.829 95.68 363.736C95.9787 363.624 96.2307 363.512 96.436 363.4C96.66 363.288 96.856 363.185 97.024 363.092C97.192 362.98 97.36 362.924 97.528 362.924C97.7333 362.924 97.9013 362.98 98.032 363.092C98.1627 363.185 98.3027 363.335 98.452 363.54L100.524 366.9C99.516 367.74 98.3587 368.375 97.052 368.804C95.7453 369.233 94.392 369.448 92.992 369.448ZM116.745 339.824C118.873 339.824 120.805 340.169 122.541 340.86C124.296 341.551 125.789 342.531 127.021 343.8C128.272 345.069 129.233 346.619 129.905 348.448C130.577 350.277 130.913 352.321 130.913 354.58C130.913 356.857 130.577 358.911 129.905 360.74C129.233 362.569 128.272 364.128 127.021 365.416C125.789 366.704 124.296 367.693 122.541 368.384C120.805 369.075 118.873 369.42 116.745 369.42C114.599 369.42 112.648 369.075 110.893 368.384C109.139 367.693 107.636 366.704 106.385 365.416C105.153 364.128 104.192 362.569 103.501 360.74C102.829 358.911 102.493 356.857 102.493 354.58C102.493 352.321 102.829 350.277 103.501 348.448C104.192 346.619 105.153 345.069 106.385 343.8C107.636 342.531 109.139 341.551 110.893 340.86C112.648 340.169 114.599 339.824 116.745 339.824ZM116.745 364.1C119.135 364.1 120.899 363.297 122.037 361.692C123.195 360.087 123.773 357.735 123.773 354.636C123.773 351.537 123.195 349.176 122.037 347.552C120.899 345.928 119.135 345.116 116.745 345.116C114.319 345.116 112.517 345.937 111.341 347.58C110.184 349.204 109.605 351.556 109.605 354.636C109.605 357.716 110.184 360.068 111.341 361.692C112.517 363.297 114.319 364.1 116.745 364.1ZM156.331 345.256C157.227 343.539 158.291 342.195 159.523 341.224C160.755 340.235 162.211 339.74 163.891 339.74C165.216 339.74 166.28 340.029 167.083 340.608L166.635 345.788C166.541 346.124 166.401 346.367 166.215 346.516C166.047 346.647 165.813 346.712 165.515 346.712C165.235 346.712 164.815 346.665 164.255 346.572C163.713 346.479 163.181 346.432 162.659 346.432C161.893 346.432 161.212 346.544 160.615 346.768C160.017 346.992 159.476 347.319 158.991 347.748C158.524 348.159 158.104 348.663 157.731 349.26C157.376 349.857 157.04 350.539 156.723 351.304V369H149.807V340.272H153.867C154.576 340.272 155.071 340.403 155.351 340.664C155.631 340.907 155.817 341.355 155.911 342.008L156.331 345.256ZM195.449 340.272V369H191.221C190.307 369 189.728 368.58 189.485 367.74L189.009 365.444C187.833 366.639 186.536 367.609 185.117 368.356C183.699 369.084 182.028 369.448 180.105 369.448C178.537 369.448 177.147 369.187 175.933 368.664C174.739 368.123 173.731 367.367 172.909 366.396C172.088 365.425 171.463 364.277 171.033 362.952C170.623 361.608 170.417 360.133 170.417 358.528V340.272H177.333V358.528C177.333 360.283 177.735 361.645 178.537 362.616C179.359 363.568 180.581 364.044 182.205 364.044C183.4 364.044 184.52 363.783 185.565 363.26C186.611 362.719 187.6 361.981 188.533 361.048V340.272H195.449ZM209.307 327.392V369H202.391V327.392H209.307ZM234.705 351.332C234.705 350.436 234.575 349.596 234.313 348.812C234.071 348.009 233.697 347.309 233.193 346.712C232.689 346.115 232.045 345.648 231.261 345.312C230.496 344.957 229.6 344.78 228.573 344.78C226.576 344.78 224.999 345.349 223.841 346.488C222.703 347.627 221.975 349.241 221.657 351.332H234.705ZM221.517 355.504C221.629 356.979 221.891 358.257 222.301 359.34C222.712 360.404 223.253 361.291 223.925 362C224.597 362.691 225.391 363.213 226.305 363.568C227.239 363.904 228.265 364.072 229.385 364.072C230.505 364.072 231.467 363.941 232.269 363.68C233.091 363.419 233.8 363.129 234.397 362.812C235.013 362.495 235.545 362.205 235.993 361.944C236.46 361.683 236.908 361.552 237.337 361.552C237.916 361.552 238.345 361.767 238.625 362.196L240.613 364.716C239.848 365.612 238.989 366.368 238.037 366.984C237.085 367.581 236.087 368.067 235.041 368.44C234.015 368.795 232.96 369.047 231.877 369.196C230.813 369.345 229.777 369.42 228.769 369.42C226.772 369.42 224.915 369.093 223.197 368.44C221.48 367.768 219.987 366.788 218.717 365.5C217.448 364.193 216.449 362.588 215.721 360.684C214.993 358.761 214.629 356.54 214.629 354.02C214.629 352.06 214.947 350.221 215.581 348.504C216.216 346.768 217.121 345.265 218.297 343.996C219.492 342.708 220.939 341.691 222.637 340.944C224.355 340.197 226.287 339.824 228.433 339.824C230.244 339.824 231.915 340.113 233.445 340.692C234.976 341.271 236.292 342.12 237.393 343.24C238.495 344.341 239.353 345.704 239.969 347.328C240.604 348.933 240.921 350.772 240.921 352.844C240.921 353.889 240.809 354.599 240.585 354.972C240.361 355.327 239.932 355.504 239.297 355.504H221.517ZM269.305 369.448C266.803 369.448 264.881 368.748 263.537 367.348C262.211 365.929 261.549 363.979 261.549 361.496V345.452H258.609C258.235 345.452 257.918 345.331 257.657 345.088C257.395 344.845 257.265 344.481 257.265 343.996V341.252L261.885 340.496L263.341 332.656C263.434 332.283 263.611 331.993 263.873 331.788C264.134 331.583 264.47 331.48 264.881 331.48H268.465V340.524H276.137V345.452H268.465V361.02C268.465 361.916 268.679 362.616 269.109 363.12C269.557 363.624 270.163 363.876 270.929 363.876C271.358 363.876 271.713 363.829 271.993 363.736C272.291 363.624 272.543 363.512 272.749 363.4C272.973 363.288 273.169 363.185 273.337 363.092C273.505 362.98 273.673 362.924 273.841 362.924C274.046 362.924 274.214 362.98 274.345 363.092C274.475 363.185 274.615 363.335 274.765 363.54L276.837 366.9C275.829 367.74 274.671 368.375 273.365 368.804C272.058 369.233 270.705 369.448 269.305 369.448ZM287.48 343.352C288.6 342.307 289.832 341.457 291.176 340.804C292.52 340.151 294.098 339.824 295.908 339.824C297.476 339.824 298.867 340.095 300.08 340.636C301.294 341.159 302.302 341.905 303.104 342.876C303.926 343.828 304.542 344.976 304.952 346.32C305.382 347.645 305.596 349.111 305.596 350.716V369H298.68V350.716C298.68 348.961 298.279 347.608 297.476 346.656C296.674 345.685 295.451 345.2 293.808 345.2C292.614 345.2 291.494 345.471 290.448 346.012C289.403 346.553 288.414 347.291 287.48 348.224V369H280.564V327.392H287.48V343.352ZM330.682 351.332C330.682 350.436 330.551 349.596 330.29 348.812C330.047 348.009 329.674 347.309 329.17 346.712C328.666 346.115 328.022 345.648 327.238 345.312C326.472 344.957 325.576 344.78 324.55 344.78C322.552 344.78 320.975 345.349 319.818 346.488C318.679 347.627 317.951 349.241 317.634 351.332H330.682ZM317.494 355.504C317.606 356.979 317.867 358.257 318.278 359.34C318.688 360.404 319.23 361.291 319.902 362C320.574 362.691 321.367 363.213 322.282 363.568C323.215 363.904 324.242 364.072 325.362 364.072C326.482 364.072 327.443 363.941 328.246 363.68C329.067 363.419 329.776 363.129 330.374 362.812C330.99 362.495 331.522 362.205 331.97 361.944C332.436 361.683 332.884 361.552 333.314 361.552C333.892 361.552 334.322 361.767 334.602 362.196L336.59 364.716C335.824 365.612 334.966 366.368 334.014 366.984C333.062 367.581 332.063 368.067 331.018 368.44C329.991 368.795 328.936 369.047 327.854 369.196C326.79 369.345 325.754 369.42 324.746 369.42C322.748 369.42 320.891 369.093 319.174 368.44C317.456 367.768 315.963 366.788 314.694 365.5C313.424 364.193 312.426 362.588 311.698 360.684C310.97 358.761 310.606 356.54 310.606 354.02C310.606 352.06 310.923 350.221 311.558 348.504C312.192 346.768 313.098 345.265 314.274 343.996C315.468 342.708 316.915 341.691 318.614 340.944C320.331 340.197 322.263 339.824 324.41 339.824C326.22 339.824 327.891 340.113 329.422 340.692C330.952 341.271 332.268 342.12 333.37 343.24C334.471 344.341 335.33 345.704 335.946 347.328C336.58 348.933 336.898 350.772 336.898 352.844C336.898 353.889 336.786 354.599 336.562 354.972C336.338 355.327 335.908 355.504 335.274 355.504H317.494ZM342.088 369V340.272H346.316C347.212 340.272 347.8 340.692 348.08 341.532L348.528 343.66C349.032 343.1 349.555 342.587 350.096 342.12C350.656 341.653 351.244 341.252 351.86 340.916C352.495 340.58 353.167 340.319 353.876 340.132C354.604 339.927 355.397 339.824 356.256 339.824C358.067 339.824 359.551 340.319 360.708 341.308C361.884 342.279 362.761 343.576 363.34 345.2C363.788 344.248 364.348 343.436 365.02 342.764C365.692 342.073 366.429 341.513 367.232 341.084C368.035 340.655 368.884 340.337 369.78 340.132C370.695 339.927 371.609 339.824 372.524 339.824C374.111 339.824 375.52 340.067 376.752 340.552C377.984 341.037 379.02 341.747 379.86 342.68C380.7 343.613 381.335 344.752 381.764 346.096C382.212 347.44 382.436 348.98 382.436 350.716V369H375.52V350.716C375.52 348.887 375.119 347.515 374.316 346.6C373.513 345.667 372.337 345.2 370.788 345.2C370.079 345.2 369.416 345.321 368.8 345.564C368.203 345.807 367.671 346.161 367.204 346.628C366.756 347.076 366.401 347.645 366.14 348.336C365.879 349.027 365.748 349.82 365.748 350.716V369H358.804V350.716C358.804 348.793 358.412 347.393 357.628 346.516C356.863 345.639 355.733 345.2 354.24 345.2C353.232 345.2 352.289 345.452 351.412 345.956C350.553 346.441 349.751 347.113 349.004 347.972V369H342.088ZM417.803 356.736C415.806 356.829 414.126 357.007 412.763 357.268C411.4 357.511 410.308 357.828 409.487 358.22C408.666 358.612 408.078 359.069 407.723 359.592C407.368 360.115 407.191 360.684 407.191 361.3C407.191 362.513 407.546 363.381 408.255 363.904C408.983 364.427 409.926 364.688 411.083 364.688C412.502 364.688 413.724 364.436 414.751 363.932C415.796 363.409 416.814 362.625 417.803 361.58V356.736ZM401.955 344.276C405.259 341.252 409.235 339.74 413.883 339.74C415.563 339.74 417.066 340.02 418.391 340.58C419.716 341.121 420.836 341.887 421.751 342.876C422.666 343.847 423.356 345.013 423.823 346.376C424.308 347.739 424.551 349.232 424.551 350.856V369H421.415C420.762 369 420.258 368.907 419.903 368.72C419.548 368.515 419.268 368.113 419.063 367.516L418.447 365.444C417.719 366.097 417.01 366.676 416.319 367.18C415.628 367.665 414.91 368.076 414.163 368.412C413.416 368.748 412.614 369 411.755 369.168C410.915 369.355 409.982 369.448 408.955 369.448C407.742 369.448 406.622 369.289 405.595 368.972C404.568 368.636 403.682 368.141 402.935 367.488C402.188 366.835 401.61 366.023 401.199 365.052C400.788 364.081 400.583 362.952 400.583 361.664C400.583 360.936 400.704 360.217 400.947 359.508C401.19 358.78 401.582 358.089 402.123 357.436C402.683 356.783 403.402 356.167 404.279 355.588C405.156 355.009 406.23 354.505 407.499 354.076C408.787 353.647 410.28 353.301 411.979 353.04C413.678 352.76 415.619 352.592 417.803 352.536V350.856C417.803 348.933 417.392 347.515 416.571 346.6C415.75 345.667 414.564 345.2 413.015 345.2C411.895 345.2 410.962 345.331 410.215 345.592C409.487 345.853 408.843 346.152 408.283 346.488C407.723 346.805 407.21 347.095 406.743 347.356C406.295 347.617 405.791 347.748 405.231 347.748C404.746 347.748 404.335 347.627 403.999 347.384C403.663 347.123 403.392 346.824 403.187 346.488L401.955 344.276ZM438.064 327.392V369H431.148V327.392H438.064ZM451.955 327.392V369H445.039V327.392H451.955Z" fill="#EF426F"/>
<path id="DESIGN SYSTEM" d="M91.56 230.216C91.56 231.064 91.4187 231.843 91.136 232.552C90.8533 233.261 90.456 233.872 89.944 234.384C89.432 234.896 88.816 235.293 88.096 235.576C87.376 235.859 86.576 236 85.696 236H81.288V224.432H85.696C86.576 224.432 87.376 224.576 88.096 224.864C88.816 225.147 89.432 225.544 89.944 226.056C90.456 226.563 90.8533 227.171 91.136 227.88C91.4187 228.589 91.56 229.368 91.56 230.216ZM89.352 230.216C89.352 229.581 89.2667 229.013 89.096 228.512C88.9307 228.005 88.688 227.579 88.368 227.232C88.0533 226.88 87.6693 226.611 87.216 226.424C86.768 226.237 86.2613 226.144 85.696 226.144H83.448V234.288H85.696C86.2613 234.288 86.768 234.195 87.216 234.008C87.6693 233.821 88.0533 233.555 88.368 233.208C88.688 232.856 88.9307 232.429 89.096 231.928C89.2667 231.421 89.352 230.851 89.352 230.216ZM95.6199 226.144V229.352H99.6679V231.008H95.6199V234.28H100.756V236H93.4599V224.432H100.756V226.144H95.6199ZM108.823 226.536C108.759 226.648 108.69 226.731 108.615 226.784C108.546 226.832 108.458 226.856 108.351 226.856C108.239 226.856 108.116 226.816 107.983 226.736C107.855 226.651 107.7 226.557 107.519 226.456C107.338 226.355 107.124 226.264 106.879 226.184C106.639 226.099 106.354 226.056 106.023 226.056C105.724 226.056 105.463 226.093 105.239 226.168C105.015 226.237 104.826 226.336 104.671 226.464C104.522 226.592 104.41 226.747 104.335 226.928C104.26 227.104 104.223 227.299 104.223 227.512C104.223 227.784 104.298 228.011 104.447 228.192C104.602 228.373 104.804 228.528 105.055 228.656C105.306 228.784 105.591 228.899 105.911 229C106.231 229.101 106.559 229.211 106.895 229.328C107.231 229.44 107.559 229.573 107.879 229.728C108.199 229.877 108.484 230.069 108.735 230.304C108.986 230.533 109.186 230.816 109.335 231.152C109.49 231.488 109.567 231.896 109.567 232.376C109.567 232.899 109.476 233.389 109.295 233.848C109.119 234.301 108.858 234.699 108.511 235.04C108.17 235.376 107.751 235.643 107.255 235.84C106.759 236.032 106.191 236.128 105.551 236.128C105.183 236.128 104.82 236.091 104.463 236.016C104.106 235.947 103.762 235.845 103.431 235.712C103.106 235.579 102.799 235.419 102.511 235.232C102.223 235.045 101.967 234.837 101.743 234.608L102.375 233.576C102.428 233.501 102.498 233.44 102.583 233.392C102.668 233.339 102.759 233.312 102.855 233.312C102.988 233.312 103.132 233.368 103.287 233.48C103.442 233.587 103.626 233.707 103.839 233.84C104.052 233.973 104.3 234.096 104.583 234.208C104.871 234.315 105.215 234.368 105.615 234.368C106.228 234.368 106.703 234.224 107.039 233.936C107.375 233.643 107.543 233.224 107.543 232.68C107.543 232.376 107.466 232.128 107.311 231.936C107.162 231.744 106.962 231.584 106.711 231.456C106.46 231.323 106.175 231.211 105.855 231.12C105.535 231.029 105.21 230.931 104.879 230.824C104.548 230.717 104.223 230.589 103.903 230.44C103.583 230.291 103.298 230.096 103.047 229.856C102.796 229.616 102.594 229.317 102.439 228.96C102.29 228.597 102.215 228.152 102.215 227.624C102.215 227.203 102.298 226.792 102.463 226.392C102.634 225.992 102.879 225.637 103.199 225.328C103.519 225.019 103.914 224.771 104.383 224.584C104.852 224.397 105.391 224.304 105.999 224.304C106.682 224.304 107.311 224.411 107.887 224.624C108.463 224.837 108.954 225.136 109.359 225.52L108.823 226.536ZM113.604 236H111.444V224.432H113.604V236ZM125.73 230.2V234.88C125.144 235.312 124.517 235.629 123.85 235.832C123.189 236.029 122.48 236.128 121.722 236.128C120.778 236.128 119.922 235.981 119.154 235.688C118.392 235.395 117.738 234.987 117.194 234.464C116.656 233.941 116.24 233.317 115.946 232.592C115.653 231.867 115.506 231.075 115.506 230.216C115.506 229.347 115.648 228.549 115.93 227.824C116.213 227.099 116.613 226.475 117.13 225.952C117.653 225.429 118.285 225.024 119.026 224.736C119.768 224.448 120.6 224.304 121.522 224.304C121.992 224.304 122.429 224.341 122.834 224.416C123.245 224.491 123.624 224.595 123.97 224.728C124.322 224.856 124.642 225.013 124.93 225.2C125.218 225.387 125.482 225.592 125.722 225.816L125.106 226.792C125.01 226.947 124.885 227.043 124.73 227.08C124.576 227.112 124.408 227.072 124.226 226.96C124.05 226.859 123.874 226.757 123.698 226.656C123.522 226.555 123.325 226.467 123.106 226.392C122.893 226.317 122.65 226.256 122.378 226.208C122.112 226.16 121.802 226.136 121.45 226.136C120.88 226.136 120.362 226.232 119.898 226.424C119.44 226.616 119.048 226.891 118.722 227.248C118.397 227.605 118.146 228.035 117.97 228.536C117.794 229.037 117.706 229.597 117.706 230.216C117.706 230.877 117.8 231.469 117.986 231.992C118.178 232.509 118.445 232.949 118.786 233.312C119.133 233.669 119.549 233.944 120.034 234.136C120.52 234.323 121.061 234.416 121.658 234.416C122.085 234.416 122.466 234.371 122.802 234.28C123.138 234.189 123.466 234.067 123.786 233.912V231.816H122.33C122.192 231.816 122.082 231.779 122.002 231.704C121.928 231.624 121.89 231.528 121.89 231.416V230.2H125.73ZM137.556 224.432V236H136.452C136.281 236 136.137 235.973 136.02 235.92C135.908 235.861 135.798 235.765 135.692 235.632L129.652 227.92C129.684 228.272 129.7 228.597 129.7 228.896V236H127.804V224.432H128.932C129.022 224.432 129.1 224.437 129.164 224.448C129.233 224.453 129.292 224.469 129.34 224.496C129.393 224.517 129.444 224.552 129.492 224.6C129.54 224.643 129.593 224.701 129.652 224.776L135.716 232.52C135.7 232.333 135.686 232.149 135.676 231.968C135.665 231.787 135.66 231.619 135.66 231.464V224.432H137.556ZM150.182 226.536C150.118 226.648 150.049 226.731 149.974 226.784C149.905 226.832 149.817 226.856 149.71 226.856C149.598 226.856 149.476 226.816 149.342 226.736C149.214 226.651 149.06 226.557 148.878 226.456C148.697 226.355 148.484 226.264 148.238 226.184C147.998 226.099 147.713 226.056 147.382 226.056C147.084 226.056 146.822 226.093 146.598 226.168C146.374 226.237 146.185 226.336 146.03 226.464C145.881 226.592 145.769 226.747 145.694 226.928C145.62 227.104 145.582 227.299 145.582 227.512C145.582 227.784 145.657 228.011 145.806 228.192C145.961 228.373 146.164 228.528 146.414 228.656C146.665 228.784 146.95 228.899 147.27 229C147.59 229.101 147.918 229.211 148.254 229.328C148.59 229.44 148.918 229.573 149.238 229.728C149.558 229.877 149.844 230.069 150.094 230.304C150.345 230.533 150.545 230.816 150.694 231.152C150.849 231.488 150.926 231.896 150.926 232.376C150.926 232.899 150.836 233.389 150.654 233.848C150.478 234.301 150.217 234.699 149.87 235.04C149.529 235.376 149.11 235.643 148.614 235.84C148.118 236.032 147.55 236.128 146.91 236.128C146.542 236.128 146.18 236.091 145.822 236.016C145.465 235.947 145.121 235.845 144.79 235.712C144.465 235.579 144.158 235.419 143.87 235.232C143.582 235.045 143.326 234.837 143.102 234.608L143.734 233.576C143.788 233.501 143.857 233.44 143.942 233.392C144.028 233.339 144.118 233.312 144.214 233.312C144.348 233.312 144.492 233.368 144.646 233.48C144.801 233.587 144.985 233.707 145.198 233.84C145.412 233.973 145.66 234.096 145.942 234.208C146.23 234.315 146.574 234.368 146.974 234.368C147.588 234.368 148.062 234.224 148.398 233.936C148.734 233.643 148.902 233.224 148.902 232.68C148.902 232.376 148.825 232.128 148.67 231.936C148.521 231.744 148.321 231.584 148.07 231.456C147.82 231.323 147.534 231.211 147.214 231.12C146.894 231.029 146.569 230.931 146.238 230.824C145.908 230.717 145.582 230.589 145.262 230.44C144.942 230.291 144.657 230.096 144.406 229.856C144.156 229.616 143.953 229.317 143.798 228.96C143.649 228.597 143.574 228.152 143.574 227.624C143.574 227.203 143.657 226.792 143.822 226.392C143.993 225.992 144.238 225.637 144.558 225.328C144.878 225.019 145.273 224.771 145.742 224.584C146.212 224.397 146.75 224.304 147.358 224.304C148.041 224.304 148.67 224.411 149.246 224.624C149.822 224.837 150.313 225.136 150.718 225.52L150.182 226.536ZM157.506 231.52V236H155.362V231.52L151.146 224.432H153.042C153.229 224.432 153.375 224.477 153.482 224.568C153.594 224.659 153.687 224.773 153.762 224.912L155.874 228.776C155.997 229.005 156.103 229.221 156.194 229.424C156.29 229.627 156.375 229.829 156.45 230.032C156.519 229.829 156.599 229.627 156.69 229.424C156.781 229.221 156.885 229.005 157.002 228.776L159.106 224.912C159.165 224.795 159.253 224.685 159.37 224.584C159.487 224.483 159.637 224.432 159.818 224.432H161.722L157.506 231.52ZM168.651 226.536C168.587 226.648 168.518 226.731 168.443 226.784C168.374 226.832 168.286 226.856 168.179 226.856C168.067 226.856 167.944 226.816 167.811 226.736C167.683 226.651 167.528 226.557 167.347 226.456C167.166 226.355 166.952 226.264 166.707 226.184C166.467 226.099 166.182 226.056 165.851 226.056C165.552 226.056 165.291 226.093 165.067 226.168C164.843 226.237 164.654 226.336 164.499 226.464C164.35 226.592 164.238 226.747 164.163 226.928C164.088 227.104 164.051 227.299 164.051 227.512C164.051 227.784 164.126 228.011 164.275 228.192C164.43 228.373 164.632 228.528 164.883 228.656C165.134 228.784 165.419 228.899 165.739 229C166.059 229.101 166.387 229.211 166.723 229.328C167.059 229.44 167.387 229.573 167.707 229.728C168.027 229.877 168.312 230.069 168.563 230.304C168.814 230.533 169.014 230.816 169.163 231.152C169.318 231.488 169.395 231.896 169.395 232.376C169.395 232.899 169.304 233.389 169.123 233.848C168.947 234.301 168.686 234.699 168.339 235.04C167.998 235.376 167.579 235.643 167.083 235.84C166.587 236.032 166.019 236.128 165.379 236.128C165.011 236.128 164.648 236.091 164.291 236.016C163.934 235.947 163.59 235.845 163.259 235.712C162.934 235.579 162.627 235.419 162.339 235.232C162.051 235.045 161.795 234.837 161.571 234.608L162.203 233.576C162.256 233.501 162.326 233.44 162.411 233.392C162.496 233.339 162.587 233.312 162.683 233.312C162.816 233.312 162.96 233.368 163.115 233.48C163.27 233.587 163.454 233.707 163.667 233.84C163.88 233.973 164.128 234.096 164.411 234.208C164.699 234.315 165.043 234.368 165.443 234.368C166.056 234.368 166.531 234.224 166.867 233.936C167.203 233.643 167.371 233.224 167.371 232.68C167.371 232.376 167.294 232.128 167.139 231.936C166.99 231.744 166.79 231.584 166.539 231.456C166.288 231.323 166.003 231.211 165.683 231.12C165.363 231.029 165.038 230.931 164.707 230.824C164.376 230.717 164.051 230.589 163.731 230.44C163.411 230.291 163.126 230.096 162.875 229.856C162.624 229.616 162.422 229.317 162.267 228.96C162.118 228.597 162.043 228.152 162.043 227.624C162.043 227.203 162.126 226.792 162.291 226.392C162.462 225.992 162.707 225.637 163.027 225.328C163.347 225.019 163.742 224.771 164.211 224.584C164.68 224.397 165.219 224.304 165.827 224.304C166.51 224.304 167.139 224.411 167.715 224.624C168.291 224.837 168.782 225.136 169.187 225.52L168.651 226.536ZM179.352 226.2H175.864V236H173.712V226.2H170.224V224.432H179.352V226.2ZM183.026 226.144V229.352H187.074V231.008H183.026V234.28H188.162V236H180.866V224.432H188.162V226.144H183.026ZM202.613 224.432V236H200.717V228.528C200.717 228.229 200.733 227.907 200.765 227.56L197.269 234.128C197.104 234.443 196.851 234.6 196.509 234.6H196.205C195.864 234.6 195.611 234.443 195.445 234.128L191.909 227.536C191.925 227.712 191.939 227.885 191.949 228.056C191.96 228.227 191.965 228.384 191.965 228.528V236H190.069V224.432H191.693C191.789 224.432 191.872 224.435 191.941 224.44C192.011 224.445 192.072 224.459 192.125 224.48C192.184 224.501 192.235 224.536 192.277 224.584C192.325 224.632 192.371 224.696 192.413 224.776L195.877 231.2C195.968 231.371 196.051 231.547 196.125 231.728C196.205 231.909 196.283 232.096 196.357 232.288C196.432 232.091 196.509 231.901 196.589 231.72C196.669 231.533 196.755 231.355 196.845 231.184L200.261 224.776C200.304 224.696 200.349 224.632 200.397 224.584C200.445 224.536 200.496 224.501 200.549 224.48C200.608 224.459 200.672 224.445 200.741 224.44C200.811 224.435 200.893 224.432 200.989 224.432H202.613Z" fill="#BF3458"/>
</g>
</g>
<defs>
<linearGradient id="paint0_linear" x1="1112" y1="434" x2="1112" y2="515" gradientUnits="userSpaceOnUse">
<stop stop-color="#BF3458"/>
<stop offset="1" stop-color="#BF3458"/>
</linearGradient>
<linearGradient id="paint1_linear" x1="739.143" y1="406.465" x2="700.976" y2="480.973" gradientUnits="userSpaceOnUse">
<stop stop-color="#BF3458"/>
<stop offset="1" stop-color="#8F2742"/>
</linearGradient>
<clipPath id="clip0">
<rect width="1200" height="600" fill="white"/>
</clipPath>
</defs>
</svg>
