<?xml version="1.0" encoding="UTF-8"?>
<svg width="1200px" height="600px" viewBox="0 0 1200 600" version="1.1" xmlns="http://www.w3.org/2000/svg" xmlns:xlink="http://www.w3.org/1999/xlink">
    <title>design_system_hero</title>
    <defs>
        <linearGradient x1="50%" y1="0%" x2="50%" y2="100%" id="linearGradient-1">
            <stop stop-color="#FF842F" offset="0%"></stop>
            <stop stop-color="#CA592C" offset="100%"></stop>
        </linearGradient>
        <linearGradient x1="97.6371344%" y1="0%" x2="50%" y2="100%" id="linearGradient-2">
            <stop stop-color="#EAF100" offset="0%"></stop>
            <stop stop-color="#D0DF00" offset="100%"></stop>
        </linearGradient>
    </defs>
    <g id="design_system_hero" stroke="none" stroke-width="1" fill="none" fill-rule="evenodd">
        <rect fill="#FBEAE3" x="0" y="0" width="1200" height="600"></rect>
        <rect id="Rectangle-Copy" fill="#E08AF7" x="1000" y="224" width="28" height="27" rx="8"></rect>
        <rect id="Rectangle-Copy" fill="#DAF78A" x="1040" y="118" width="40" height="25" rx="8"></rect>
        <rect id="Rectangle" stroke="#57056C" stroke-width="4" x="994" y="219" width="24" height="23" rx="8"></rect>
        <rect id="Rectangle-Copy" fill="#F78A8A" x="788" y="94" width="96" height="43" rx="8"></rect>
        <rect id="Rectangle-Copy-2" stroke="#6C0505" stroke-width="4" x="784" y="109" width="92" height="19" rx="8"></rect>
        <g id="undraw_voting_nvu7" transform="translate(669.000000, 285.000000)" fill-rule="nonzero">
            <circle id="Oval" fill="#DAF78A" opacity="0.4" cx="404.5" cy="84.5" r="11.5"></circle>
            <circle id="Oval" fill="#E08AF7" opacity="0.4" cx="162.5" cy="16.5" r="16.5"></circle>
            <circle id="Oval" fill="#E08AF7" opacity="0.4" cx="131.5" cy="24.5" r="11.5"></circle>
            <path d="M477.517147,303 C477.517147,303 480.654421,316.291506 477.802356,316.869396 C474.95029,317.447287 460.97514,317.260763 457.552656,317.838653 C454.130172,318.416544 447,317.447287 447,314.846777 C447,312.246266 454.415376,310.512589 454.415376,310.512589 C454.415376,310.512589 464.968037,304.733677 465.253241,304.444729 C465.538445,304.155781 477.517147,303 477.517147,303 Z" id="Path" fill="#222222"></path>
            <path d="M474.870614,225.428572 C474.870614,225.428572 474.020402,235.14286 474.020402,236 C474.020402,236.857149 474.870614,250.28572 474.020402,250.857137 C473.170189,251.428555 474.587208,255.428565 474.587208,256.857137 C474.587208,258.285709 479.121673,282 477.988054,291.142857 C476.854435,300.285717 479.688479,299.428567 478.838267,300.285712 C477.988054,301.142856 477.988054,301.142856 477.988054,302.857139 C477.988054,304.571423 468.919136,306 468.919136,306 L459,242.857148 L464.101271,224 L474.870614,225.428572 Z" id="Path" fill="#575A89"></path>
            <path d="M474.870614,225.428572 C474.870614,225.428572 474.020402,235.14286 474.020402,236 C474.020402,236.857149 474.870614,250.28572 474.020402,250.857137 C473.170189,251.428555 474.587208,255.428565 474.587208,256.857137 C474.587208,258.285709 479.121673,282 477.988054,291.142857 C476.854435,300.285717 479.688479,299.428567 478.838267,300.285712 C477.988054,301.142856 477.988054,301.142856 477.988054,302.857139 C477.988054,304.571423 468.919136,306 468.919136,306 L459,242.857148 L464.101271,224 L474.870614,225.428572 Z" id="Path" fill="#000000" opacity="0.1"></path>
            <path d="M472.735177,306.511482 C472.735177,306.511482 475.581028,317.154873 472.735177,317.746172 C469.889327,318.33747 455.944666,317.068816 452.529646,317.66012 C449.114627,318.251424 442,318.337476 442,315.676624 C442,313.015772 449.399203,311.241882 449.399203,311.241882 C449.399203,311.241882 459.92885,305.328885 460.213432,305.033238 C460.498014,304.737592 472.735177,306.511482 472.735177,306.511482 Z" id="Path" fill="#222222"></path>
            <path d="M477.615888,213 C477.615888,213 481.085779,221.334312 477.037574,225.645159 C472.98937,229.956006 468.362851,238.577716 468.362851,239.152495 C468.362851,239.727274 476.45926,296.91789 475.302626,300.653963 C474.145993,304.390036 474.435158,306.689153 474.724312,307.263932 C475.013467,307.838712 471.832736,311 468.362851,311 C464.892966,311 459.688122,308.413491 459.109808,306.114369 C458.531494,303.815246 459.977282,283.985334 459.688122,280.249266 C459.398963,276.513198 457.95318,271.052782 457.37486,269.903224 C456.796541,268.753665 453.615815,267.604102 453.037501,264.155421 C452.459187,260.70674 447.832663,216.736062 449.278456,215.299117 C450.72425,213.862171 477.615888,213 477.615888,213 Z" id="Path" fill="#575A89"></path>
            <circle id="Oval" fill="#FFB9B9" cx="455" cy="138" r="10"></circle>
            <path d="M461,142.335345 C461,142.335345 459.022415,152.974408 460.434977,154.124576 C461.847538,155.274743 449.699515,157 449.699515,157 C449.699515,157 448.286954,142.910429 448.004445,141.472717 C447.721936,140.035005 461,142.335345 461,142.335345 Z" id="Path" fill="#FFB9B9"></path>
            <path d="M465.951314,149.514814 C465.951314,149.514814 468.532031,150.374331 467.67179,151.233843 C466.811549,152.093354 465.951314,152.09336 467.098298,152.952877 C468.245282,153.812393 469.679015,152.952877 468.818779,153.812393 C467.958544,154.67191 476.56093,159.829001 475.987438,169.570178 C475.413946,179.311355 477.994662,193.063598 475.987438,195.355641 C473.980213,197.647684 477.42117,207.675363 476.847678,209.680899 C476.274186,211.686435 480.288636,214.26498 478.568154,215.124497 C477.664412,215.575988 468.690411,217.213282 460.249203,217.793996 C458.859288,224.109709 457.104435,230 455.410352,230 C451.777606,230 448.983178,229.429774 448.14486,228.004223 C448.050045,227.842991 448.005275,227.437401 448.000441,226.84479 C447.62419,226.605368 447.334484,226.326677 447.14486,226.004223 C446.798567,225.415353 447.119831,221.566923 447.616231,217.252339 C446.113146,216.799114 445.160096,216.112441 445.018846,215.124497 C444.158632,209.10789 444.732098,213.405463 443.871857,211.972937 C443.011616,210.540411 442.724873,207.961865 443.298365,204.810311 C443.871857,201.658756 445.30559,193.923115 444.732098,191.058062 C444.158606,188.193009 444.732098,164.12658 446.452574,161.261548 C448.17305,158.396516 448.459783,156.677441 448.459783,156.677441 C448.459783,156.677441 451.900735,146.649762 465.951314,149.514814 Z" id="Combined-Shape" fill="url(#linearGradient-1)"></path>
            <path d="M454.372118,226.57627 C454.372118,226.57627 458.714949,243 453.214025,243 C447.713102,243 448.002626,226 448.002626,226 L454.372118,226.57627 Z" id="Path" fill="#FFB9B9"></path>
            <path d="M451,137.445055 C451,138.272397 452.217518,138.797314 454.104699,138.917131 L454.1076,138.917131 C454.907712,138.961869 455.710124,138.946613 456.507883,138.871494 C457.713797,138.763082 458.212433,139.878548 458.418276,141.350644 C458.754523,143.778448 458.284903,147.181927 458.826993,147.715414 C459.574928,148.451442 465.027714,147.712559 466.732259,146.043633 C466.997587,145.809459 467.174382,145.493659 467.233763,145.147821 C467.412594,144.128706 467.923364,143.194474 468.689008,142.486084 C469.694913,141.40485 471.126946,140.206635 472.741646,138.30092 C475.640533,134.877467 472.741646,134.592182 471.871979,132.024588 C471.002312,129.456995 469.552868,128.601136 469.552868,126.889406 C469.552868,125.177677 462.885433,123.751243 457.37755,124.036533 C451.869667,124.321823 453.02922,131.168724 453.02922,131.168724 C453.02922,131.168724 452.701649,131.996066 452.310305,133.06304 C451.780912,134.401935 451.350758,135.776809 451.023218,137.176869 C451.009583,137.265675 451.001828,137.355259 451,137.445055 Z" id="Path" fill="#2F2E41"></path>
            <g id="b6a4aa65-5bff-4dd4-a595-827386906092" transform="translate(0.000000, 113.000000)">
                <polygon id="Rectangle" fill="#FFFFFF" transform="translate(17.966629, 124.581233) rotate(167.942360) translate(-17.966629, -124.581233) " points="2.82736206 109.44758 33.1033826 109.450093 33.1058959 139.714885 2.82987531 139.712372"></polygon>
                <path d="M35.1097946,98.7140642 C35.1097946,98.7140642 24.2344877,106.478982 27.85959,109.584952 C31.4846923,112.690922 38.7348917,100.267047 38.7348917,100.267047 L35.1097946,98.7140642 Z" id="ac286760-ef31-4470-8aba-995faff60c3b" fill="#D8AF7C"></path>
                <path d="M85.3433416,110.620275 C85.3433416,110.620275 83.2718531,136.503334 82.7539836,140.126964 C82.2361141,143.750593 81.7182393,176.363246 80.682495,179.986875 C79.6467508,183.610504 78.6110065,192.41074 78.6110065,192.41074 L72.3965514,192.41074 C72.3965514,192.41074 72.9144209,176.363246 71.3608072,170.151311 C69.8071934,163.939376 70.3250629,146.856558 70.3250629,146.856558 C70.3250629,146.856558 67.2178353,116.314546 68.7714649,112.173258 C70.3250944,108.03197 85.3433416,110.620275 85.3433416,110.620275 Z" id="ad0ee0d5-d520-47bd-bca9-706ef112ee3c" fill="#D8AF7C"></path>
                <path d="M77.0573927,190.857758 C77.0573927,190.857758 79.6467508,192.410725 79.6467508,193.446064 C79.6467508,194.481403 79.1288813,197.069693 79.6467508,198.105016 C80.1646203,199.14034 83.7897278,203.281628 81.7182393,204.316952 C79.6467508,205.352275 70.3250629,204.316952 70.3250629,204.316952 C70.3250629,204.316952 70.8429324,197.069693 71.3608072,196.552034 C71.8786819,196.034375 70.8429324,190.857758 70.8429324,190.857758 L77.0573927,190.857758 Z" id="a2d865fc-f989-4a0f-bdfe-5d1a04b5cb09" fill="#2F2E41"></path>
                <path d="M45.7550568,109.985929 C45.7550568,109.985929 45.0971536,135.943333 45.2316484,139.601298 C45.3661432,143.259264 42.4565457,175.746081 43.1060515,179.458363 C43.7555572,183.170646 43.861482,192.03095 43.861482,192.03095 L50.0416079,192.682992 C50.0416079,192.682992 51.2117263,176.669807 53.4090657,170.655191 C55.6064051,164.640575 56.885244,147.597798 56.885244,147.597798 C56.885244,147.597798 63.1825087,117.550529 62.072326,113.269106 C60.9621433,108.987684 45.7550568,109.985929 45.7550568,109.985929 Z" id="a5afd73e-dc2f-49f8-bb76-01b6bc8ff4ec" fill="#D8AF7C"></path>
                <path d="M45.5696163,190.649554 C45.5696163,190.649554 42.8314863,191.922274 42.7227659,192.951877 C42.6140455,193.981481 42.857266,196.609827 42.2335347,197.585087 C41.6098033,198.560347 37.569861,202.298404 39.5211843,203.545355 C41.4725076,204.792305 50.8514248,204.740751 50.8514248,204.740751 C50.8514248,204.740751 51.0974199,197.479195 50.6367849,196.910055 C50.1761499,196.340915 51.7497475,191.301575 51.7497475,191.301575 L45.5696163,190.649554 Z" id="bae9c969-98bd-41cd-ab49-dced4866e2f9" fill="#2F2E41"></path>
                <path d="M78.093137,71.795682 C78.093137,71.795682 82.2361088,72.3133463 83.7897278,81.1135873 C85.3433469,89.9138284 91.0399272,112.173258 86.3790859,113.72624 C81.7182446,115.279223 67.7357049,118.385193 67.2178353,117.34987 C66.6999658,116.314546 65.6642373,113.72624 65.6642373,113.72624 C65.6642373,113.72624 67.2178353,118.385193 65.1463678,118.385193 C63.0749002,118.385193 42.8778897,115.279223 43.3957592,113.72624 C43.9136287,112.173258 44.9493573,100.784711 44.9493573,100.784711 C44.9493573,100.784711 48.05659,81.6312464 51.1638176,78.5252815 C52.9843877,76.7780957 53.9332571,74.312036 53.7531756,71.795682 L78.093137,71.795682 Z" id="efa1face-c8d6-4f61-8a17-c81461288bfc" fill="#2F2E41"></path>
                <path d="M85.8612111,67.6544146 C85.8612111,67.6544146 79.1288813,66.1014478 78.093137,68.1720737 C77.0573927,70.2426995 80.682495,73.3486907 82.2361088,73.3486907 C83.7897226,73.3486907 86.3790859,71.7957239 86.3790859,71.7957239 L85.8612111,67.6544146 Z" id="ba787e0e-2496-4127-9664-864bc1f1b460" fill="#D8AF7C"></path>
                <ellipse id="af432612-84fe-4a80-a474-ad6710b59c23" fill="#D8AF7C" cx="71.8786819" cy="14.3352935" rx="9.32168789" ry="9.31790013"></ellipse>
                <path d="M70.3250629,21.0648877 C70.3250629,21.0648877 68.7714649,28.312141 69.8071934,28.312141 C70.8429219,28.312141 62.0391193,32.9710937 62.0391193,32.9710937 L55.3067842,31.9357703 L53.2353009,28.8298054 C53.2353009,28.8298054 64.1106025,21.5825468 64.1106025,17.4412584 C64.1106025,13.2999701 70.3250629,21.0648877 70.3250629,21.0648877 Z" id="fc691572-079c-4ac7-a111-0c7206f484e6" fill="#D8AF7C"></path>
                <path d="M71.8786767,27.2768229 C72.3836046,27.2768229 78.7961488,28.7531119 79.1164604,28.8269264 L79.1288655,28.8298054 C79.1288655,28.8298054 82.2360931,28.312141 85.8611954,31.4181113 C89.4862977,34.5240815 102.950989,43.8419816 102.950989,43.8419816 L102.995279,43.8783571 C103.49591,44.2952986 108.044962,48.2373944 106.576091,52.6422174 C105.022477,57.3011648 102.433119,68.689717 94.6650452,68.1720527 C94.6650452,68.1720527 90.0041987,74.3839879 87.4148406,73.3486697 C84.8254826,72.3133515 82.7539993,68.1720527 84.3076131,67.6543936 C85.8612269,67.1367345 90.0041987,61.9601228 90.0041987,61.9601228 L84.8254826,52.1245583 L83.2718846,52.1245583 C83.2718531,52.1245426 76.0216485,64.0307486 81.2003646,73.348654 C81.0843268,73.2779116 79.392373,72.331494 72.3965514,72.8309896 C65.1463363,73.3486487 52.1995566,74.9016364 51.6816819,74.9016364 C51.1638071,74.9016364 51.1638124,70.7603428 51.6816819,69.7250247 C52.1995514,68.6897065 51.1638124,69.2073604 51.1638124,66.6190545 C51.1638124,65.031892 50.5796276,62.6661259 50.1277083,61.0734492 L50.1280838,66.6190335 C53.2353166,77.4899214 45.985112,85.254839 45.985112,85.254839 C45.985112,85.254839 39.7706569,99.7493299 40.2885264,101.819992 C40.8063959,103.890655 34.5919303,100.784664 33.5561913,100.267026 C32.5204523,99.7493876 37.6991684,82.1489055 37.6991684,82.1489055 C36.1455336,78.5252815 39.7706412,47.9832804 39.2527664,41.2536705 C38.7348917,34.5240605 42.359994,32.9710937 42.359994,32.9710937 L42.359994,32.9710937 C42.3600097,32.971078 51.6816976,27.7944662 53.2353166,28.3121253 C54.7889356,28.8297844 59.449777,30.3827721 60.485516,29.8650921 C61.521255,29.347412 65.6642163,28.312141 65.6642163,28.312141 C65.6642163,28.312141 67.2178144,27.2768229 67.7357049,27.2768229 L71.8786767,27.2768229 Z" id="Combined-Shape" fill="url(#linearGradient-2)"></path>
                <path d="M79.6368061,23.3440054 L73.0532849,24.7776684 L72.2072506,21.537279 L72.5325516,24.8910948 L61.9119519,27.2038775 L61.4448811,25.4150192 L61.6244366,27.26651 L54.8220165,28.7478473 L53.366827,14.7847783 C51.8707991,9.05504923 57.3308255,2.94825652 63.0628575,1.45282609 L65.6057282,0.789423018 C69.8157219,-0.308910358 77.4683304,0.689733248 78.567105,4.89798478 C76.6439479,12.2350396 73.3655256,20.2785738 79.6368061,23.3440054 Z" id="eb14ef5a-0bc4-48da-8b11-b0e113a7ef46" fill="#2F2E41"></path>
            </g>
        </g>
        <g id="Group" transform="translate(641.000000, 219.000000)">
            <path d="M319.575221,122 L319.575221,110.703463 C319.575221,109.598894 318.679791,108.703463 317.575221,108.703463 L307,108.703463 C305.895431,108.703463 305,107.808033 305,106.703463 L305,104.296537 C305,103.191967 305.895431,102.296537 307,102.296537 L317.575221,102.296537 C318.679791,102.296537 319.575221,101.401106 319.575221,100.296537 L319.575221,89 C319.575221,87.8954305 320.470652,87 321.575221,87 L324.424779,87 C325.529348,87 326.424779,87.8954305 326.424779,89 L326.424779,100.296537 C326.424779,101.401106 327.320209,102.296537 328.424779,102.296537 L339,102.296537 C340.104569,102.296537 341,103.191967 341,104.296537 L341,106.703463 C341,107.808033 340.104569,108.703463 339,108.703463 L328.424779,108.703463 C327.320209,108.703463 326.424779,109.598894 326.424779,110.703463 L326.424779,122 C326.424779,123.104569 325.529348,124 324.424779,124 L321.575221,124 C320.470652,124 319.575221,123.104569 319.575221,122 Z" id="+" fill="#00C7B1" fill-rule="nonzero" opacity="0.4" transform="translate(323.000000, 105.500000) rotate(-315.000000) translate(-323.000000, -105.500000) "></path>
            <rect id="Rectangle" fill="#222222" transform="translate(494.500000, 178.500000) rotate(11.000000) translate(-494.500000, -178.500000) " x="494" y="173" width="1" height="11"></rect>
            <rect id="Rectangle-Copy-3" fill="#222222" transform="translate(512.500000, 190.500000) rotate(61.000000) translate(-512.500000, -190.500000) " x="512" y="185" width="1" height="11"></rect>
            <path d="M232.077709,196.155418 L238.105573,208.211146 C239.09353,210.18706 238.292632,212.589752 236.316718,213.577709 C235.761297,213.85542 235.148844,214 234.527864,214 L222.472136,214 C220.262997,214 218.472136,212.209139 218.472136,210 C218.472136,209.37902 218.616716,208.766567 218.894427,208.211146 L224.922291,196.155418 C225.910248,194.179504 228.31294,193.378606 230.288854,194.366563 C231.062964,194.753618 231.690654,195.381308 232.077709,196.155418 Z" id="Triangle" fill="#EF426F" opacity="0.4" transform="translate(228.500000, 201.500000) rotate(-360.000000) translate(-228.500000, -201.500000) "></path>
            <path d="M19.2633558,1.28115295 L32.3801333,10.8110496 C33.4315955,11.5749817 33.8715699,12.9290836 33.4699471,14.1651516 L28.4597839,29.5848484 C28.058161,30.8209164 26.9062931,31.6577974 25.6066143,31.6577974 L9.39338567,31.6577974 C8.09370688,31.6577974 6.94183895,30.8209164 6.54021612,29.5848484 L1.53005293,14.1651516 C1.1284301,12.9290836 1.5684045,11.5749817 2.61986672,10.8110496 L15.7366442,1.28115295 C16.7881065,0.517220927 18.2118935,0.517220927 19.2633558,1.28115295 Z" id="Polygon" fill="#F8C81D" opacity="0.4"></path>
        </g>
        <g id="Group-43" transform="translate(80.000000, 220.000000)" font-family="Lato-Bold, Lato" font-weight="bold">
            <text id="One-source-to-rule-t" font-size="56" fill="#222222">
                <tspan x="0" y="82">One source </tspan>
                <tspan x="0" y="149">to rule them all</tspan>
            </text>
            <text id="DESIGN-SYSTEM" font-size="16" fill="#666666">
                <tspan x="0" y="16">DESIGN SYSTEM</tspan>
            </text>
        </g>
    </g>
</svg>