<?xml version="1.0" encoding="UTF-8"?>
<svg width="1440px" height="1024px" viewBox="0 0 1440 1024" version="1.1" xmlns="http://www.w3.org/2000/svg" xmlns:xlink="http://www.w3.org/1999/xlink">
    <title>error</title>
    <g id="error" stroke="none" stroke-width="1" fill="none" fill-rule="evenodd">
        <g id="Group" transform="translate(539.000000, 196.000000)">
            <g id="Group-Copy-5" transform="translate(0.000000, 30.000000)" stroke="#FFFFFF">
                <rect id="Rectangle" stroke-width="4" fill="#000000" x="0" y="0" width="641" height="456" rx="8"></rect>
                <line x1="0.5" y1="37" x2="641.5" y2="37" id="Line" stroke-width="2" stroke-linecap="square"></line>
            </g>
            <g id="Group-Copy-4" transform="translate(15.000000, 15.000000)" stroke="#FFFFFF">
                <rect id="Rectangle" stroke-width="4" fill="#000000" x="0" y="0" width="641" height="456" rx="8"></rect>
                <line x1="0.5" y1="37" x2="641.5" y2="37" id="Line" stroke-width="2" stroke-linecap="square"></line>
            </g>
            <g id="Group-Copy-3" transform="translate(30.000000, 0.000000)">
                <rect id="Rectangle" stroke="#FFFFFF" stroke-width="4" fill="#000000" x="0" y="0" width="641" height="456" rx="8"></rect>
                <circle id="Oval" stroke="#000000" stroke-width="7" fill="#FFFFFF" cx="18.5" cy="18.5" r="8.5"></circle>
                <circle id="Oval-Copy" stroke="#000000" stroke-width="7" fill="#FFFFFF" cx="41.5" cy="18.5" r="8.5"></circle>
                <circle id="Oval-Copy-2" stroke="#000000" stroke-width="7" fill="#FFFFFF" cx="64.5" cy="18.5" r="8.5"></circle>
                <path d="M330.5425,236.1428 L330.5425,244.7858 L334.7865,244.7858 L334.7865,240.5988 C336.0635,240.5298 337.0405,240.4768 338.1595,240.4168 L338.1595,236.6348 C340.5985,234.8068 341.0835,234.8058 343.5315,236.6188 L343.5315,240.5978 L347.0595,240.5978 L347.0595,244.6558 L351.1715,244.6558 L351.1715,236.3168 C349.9525,236.1788 348.8745,236.0578 347.9895,235.9568 L347.9895,230.8928 L352.0085,230.8928 L352.0085,222.3318 L347.7375,222.3318 L347.7375,226.6848 L343.5725,226.6848 C343.4855,228.2038 343.4065,229.5768 343.3375,230.7838 L338.2265,230.7838 L338.2265,226.5458 L333.8295,226.5458 L333.8295,222.4078 L329.6365,222.4078 L329.6365,231.0328 L333.7445,231.0328 L333.7445,236.1428 L330.5425,236.1428 Z M307.8755,236.1818 L307.8755,231.0658 L311.9195,231.0658 L311.9195,222.3198 L307.6605,222.3198 L307.6605,226.6618 L303.4465,226.6618 L303.2655,230.7958 L298.2495,230.7958 L298.1885,226.4218 L293.7515,226.4218 L293.7515,222.3958 L289.5225,222.3958 L289.5225,231.0088 L293.6555,231.0088 L293.7515,236.3188 L290.4295,236.3188 L290.4295,244.6418 L294.8075,244.6418 L294.8075,240.4278 L298.1885,240.4278 L298.1885,236.5918 L303.4065,236.5918 L303.4065,240.5738 L306.9335,240.5738 L306.9335,244.6678 L311.0825,244.6678 L311.0825,236.1818 L307.8755,236.1818 Z M309.6165,273.234819 L309.6045,275.1718 L318.0845,275.1718 L318.0845,271.1158 C314.233833,271.1158 311.411167,271.077467 309.6165,271.0008 L309.6165,262.3658 L319.3645,262.3658 L319.3645,270.8828 L322.4945,270.8828 L322.4945,262.4098 L336.5145,262.2318 L336.5145,266.6848 L340.9115,266.6848 L340.9115,270.8138 L349.4505,270.8138 L349.4505,266.7288 L345.0835,266.6608 L345.0835,262.4098 L340.6945,262.3008 L340.6945,258.1498 L300.6075,258.1498 L300.6075,262.3008 L296.3635,262.3008 L296.3635,266.6948 L292.2205,266.6948 L292.2205,270.8858 L300.8515,270.8858 L300.8515,266.7808 L305.2575,266.7808 C305.3495,268.2788 305.1755,269.6518 305.2575,271.0008 C306.326167,271.0008 307.779167,271.0008 309.6165,271.0008 L309.6165,273.234819 Z M361.6435,293.5768 L279.9755,293.5768 L279.9755,209.4568 C279.9265,209.5098 280.0105,209.3848 280.1255,209.3058 C280.2315,209.2308 280.3715,209.1618 280.4975,209.1618 C290.6415,209.1548 300.7855,209.1558 311.0765,209.1558 L311.0765,178.0098 L361.6435,178.0098 L361.6435,293.5768 Z" id="Fill-3" fill="#FFFFFF"></path>
                <path d="M220.396,244.781 L220.396,212.729 L212.652,212.729 L212.652,220.168 L204.178978,220.298 L204.178978,229.358 L196.086,229.358 L196.086,237.109 L188.423,237.109 L188.423,244.781 L220.396,244.781 Z M252.724,244.716 L252.724,261.295 L237.225,261.295 L237.225,293.649 L220.584,293.649 L220.584,261.452 L171.73,261.452 L171.73,257.893 L171.73,229.626 L171.73,228.23 L179.534,228.23 L179.534,221.664 L188.193,221.664 L188.193,212.718 L196.083,212.718 L196.083,204.835 L203.826,204.835 L203.826,197.527 L203.826,196.029 L212.632,196.029 L212.632,188.3 L220.521,188.3 L220.521,180.566 L237.113,180.566 L237.113,244.716 L252.724,244.716 Z" id="Fill-7" fill="#FFFFFF"></path>
                <path d="M437.666,244.781 L437.666,212.729 L429.922,212.729 L429.922,220.168 L421.448978,220.298 L421.448978,229.358 L413.356,229.358 L413.356,237.109 L405.693,237.109 L405.693,244.781 L437.666,244.781 Z M469.994,244.716 L469.994,261.295 L454.495,261.295 L454.495,293.649 L437.854,293.649 L437.854,261.452 L389,261.452 L389,257.893 L389,229.626 L389,228.23 L396.804,228.23 L396.804,221.664 L405.463,221.664 L405.463,212.718 L413.353,212.718 L413.353,204.835 L421.096,204.835 L421.096,197.527 L421.096,196.029 L429.902,196.029 L429.902,188.3 L437.791,188.3 L437.791,180.566 L454.383,180.566 L454.383,244.716 L469.994,244.716 Z" id="Fill-7-Copy" fill="#FFFFFF"></path>
                <polygon id="Fill-9" fill="#FFFFFF" points="297.1123 182.137 301.5033 182.137 301.5033 178 306.7363 178 306.7363 204.705 279.9513 204.705 279.9513 200.522 284.1293 200.522 284.1293 196.031 288.4313 196.031 288.4313 190.971 292.5373 190.971 292.5373 186.528 297.1123 186.528"></polygon>
                <path d="M454.2192,335.4602 C454.1742,338.0752 454.1302,340.6892 454.2462,343.1472 L462.0402,343.1472 C461.9782,340.4732 462.1322,337.9502 461.9362,335.4602 L454.2192,335.4602 Z M461.8802,326.8342 L466.0362,326.8342 C466.4292,327.2272 466.7362,327.5332 467.1512,327.9482 L467.1512,345.7212 L451.7722,345.7212 C450.5832,344.8982 450.1862,342.6532 448.1792,342.3032 L448.1792,335.5612 C448.9522,335.5012 449.6382,335.4482 450.5042,335.3822 C450.6222,334.6252 450.7472,333.8282 450.8912,332.9002 L460.6672,332.9002 C461.1172,332.4512 461.4242,332.1442 461.8802,331.6892 L461.8802,326.8342 Z" id="Fill-11" fill="#FFFFFF"></path>
                <path d="M218.9556,335.5305 L218.9556,340.6985 C221.6286,340.6395 224.1546,340.7825 226.5026,340.6115 L226.5026,335.5305 L218.9556,335.5305 Z M216.2786,348.3755 L216.2786,346.0215 L226.5416,346.0215 C226.5886,345.0995 226.6286,344.3135 226.6776,343.3655 L216.6916,343.3655 C216.4386,343.1125 216.2526,343.0135 216.2476,342.9065 C216.2186,342.3335 216.2336,341.7595 216.2336,340.9295 C215.4476,340.8055 214.6636,340.6815 213.7266,340.5335 L213.7266,335.7005 C214.3466,335.5845 215.1436,335.4345 216.1196,335.2525 C216.1586,334.6035 216.2006,333.9175 216.2546,333.0385 L231.7756,333.0385 L231.7756,345.7375 L229.5326,345.7375 C229.3866,346.6565 229.2626,347.4405 229.1146,348.3755 L216.2786,348.3755 Z" id="Fill-13" fill="#FFFFFF"></path>
                <path d="M248.3623,335.6126 L240.5633,335.6126 C240.6333,336.5356 240.6943,337.3146 240.7423,337.9386 L248.3623,337.9386 L248.3623,335.6126 Z M238.0083,345.7596 C237.3793,343.9656 235.8243,343.0976 234.5003,342.0706 L234.5003,335.7366 C235.2543,335.5956 236.0443,335.4496 236.9863,335.2756 L236.9863,333.0516 L251.0023,333.0516 C251.0353,333.6956 251.0703,334.3796 251.1143,335.2486 C251.8743,335.3736 252.6713,335.5046 253.5683,335.6516 L253.5683,340.6276 L240.7003,340.6276 L240.7003,343.2646 L250.9743,343.2646 L250.9743,345.7596 L238.0083,345.7596 Z" id="Fill-15" fill="#FFFFFF"></path>
                <path d="M176.167,340.5352 L183.699,340.5352 L183.699,335.6112 L176.167,335.6112 L176.167,340.5352 Z M189.076,336.2552 L189.076,340.6092 C188.311,340.6552 187.623,340.6962 186.753,340.7482 C186.631,341.5082 186.502,342.3072 186.35,343.2492 L176.256,343.2492 L176.256,348.2902 L171,348.2902 L171,333.0522 L185.84,333.0522 C186.801,334.0032 187.803,334.9942 189.076,336.2552 L189.076,336.2552 Z" id="Fill-17" fill="#FFFFFF"></path>
                <path d="M198.032,343.0812 L205.581,343.0812 L205.581,340.7562 L198.032,340.7562 L198.032,343.0812 Z M210.524,345.9122 L195.543,345.9122 C195.03,345.1072 194.653,343.8012 193.832,343.3982 C192.739,342.8622 191.886,342.4562 191.69,340.9612 C192.532,340.8152 193.32,340.6812 194.258,340.5192 L194.258,338.2032 L205.593,338.2032 L205.593,335.6632 L195.757,335.6632 C195.211,334.8382 194.721,334.0972 194.005,333.0152 L208.196,333.0152 C208.284,333.7682 208.364,334.4512 208.463,335.2972 L210.308,335.2972 C211.193,336.0872 211.211,341.8472 210.524,345.9122 L210.524,345.9122 Z" id="Fill-19" fill="#FFFFFF"></path>
                <path d="M296.2393,345.8225 L291.2653,345.8225 L291.2653,335.6525 L283.3683,335.6525 L283.3683,345.7455 L278.3363,345.7455 C278.1333,345.5225 277.7433,345.0955 277.3173,344.6275 L277.3173,332.9625 L293.5973,332.9625 L293.5973,335.2085 C294.5193,335.3465 295.3023,335.4655 296.2393,335.6065 L296.2393,345.8225 Z" id="Fill-20" fill="#FFFFFF"></path>
                <path d="M405.4117,342.2913 L405.4117,333.0173 L411.4527,333.0173 L411.4527,343.1493 L419.1837,343.1493 L419.1837,332.9773 L424.3477,332.9773 L424.3477,345.8023 L409.0627,345.8023 C408.2597,344.3613 407.1717,343.0223 405.4117,342.2913" id="Fill-21" fill="#FFFFFF"></path>
                <path d="M304.3863,335.5305 L304.3863,343.3115 C307.0583,343.2525 309.5863,343.3975 311.9373,343.2225 L311.9373,335.5305 L304.3863,335.5305 Z M317.2293,336.2585 L317.2293,343.2385 C316.4683,343.2745 315.7813,343.3075 314.9143,343.3495 C314.7883,344.1105 314.6563,344.9075 314.5083,345.8045 L301.8023,345.8045 L301.8023,343.5495 C300.8843,343.4115 300.1023,343.2945 299.1623,343.1535 L299.1623,335.7105 C299.7713,335.5935 300.5643,335.4425 301.5723,335.2505 C301.6003,334.6175 301.6323,333.9335 301.6723,333.0445 L313.9833,333.0445 C314.9533,334.0065 315.9533,334.9965 317.2293,336.2585 L317.2293,336.2585 Z" id="Fill-22" fill="#FFFFFF"></path>
                <path d="M397.3706,343.2288 L397.3706,335.4478 C394.6986,335.5078 392.1706,335.3618 389.8196,335.5368 L389.8196,343.2288 L397.3706,343.2288 Z M400.2876,343.1458 C400.1596,344.2888 400.0816,344.9738 399.9906,345.7838 L387.2646,345.7838 C387.1506,345.1088 387.0156,344.3118 386.8656,343.4228 C386.1666,343.3538 385.4796,343.2848 384.6176,343.1988 L384.6176,335.5988 C385.3776,335.5128 386.0636,335.4348 386.9016,335.3388 L386.9016,333.4148 C387.1516,333.1778 387.2556,332.9918 387.3606,332.9918 C391.5276,332.9758 395.6946,332.9788 399.3496,332.9788 C400.5206,334.1578 401.4236,335.0648 402.6626,336.3118 L402.6626,343.1458 L400.2876,343.1458 Z" id="Fill-23" fill="#FFFFFF"></path>
                <path d="M445.4649,336.3323 L445.4649,345.6943 L440.3379,345.6943 L440.3379,335.6523 L432.4409,335.6523 L432.4409,345.7453 L427.3009,345.7453 C426.9459,343.8483 427.2159,341.7093 427.1689,339.6003 C427.1199,337.4423 427.1579,335.2843 427.1579,332.9883 L442.1199,332.9883 C443.2279,334.0963 444.2369,335.1043 445.4649,336.3323" id="Fill-24" fill="#FFFFFF"></path>
                <path d="M376.7486,345.8235 L371.4696,345.8235 L371.4696,335.6535 L366.6946,335.6535 C366.0776,334.9165 365.5616,334.2995 365.0916,333.7375 C365.4186,333.2835 365.5706,332.8815 365.7346,332.8755 C367.1826,332.8255 368.6316,332.8465 370.4526,332.8465 C370.8436,331.8195 371.2716,330.6935 371.7326,329.4795 C372.3016,329.4155 372.9886,329.3375 373.8266,329.2415 L373.8266,326.9675 L380.8486,326.9675 C380.9696,327.0965 381.4426,327.6045 382.0776,328.2865 C381.6406,328.8985 381.2486,329.4465 380.7766,330.1075 L376.7226,330.1075 C376.6676,331.0305 376.6226,331.8175 376.5656,332.7715 L381.6476,332.7715 L381.6476,335.2805 C380.2076,335.3675 378.5536,335.4675 376.7486,335.5755 L376.7486,345.8235 Z" id="Fill-25" fill="#FFFFFF"></path>
                <path d="M328.5005,326.8342 L332.6055,326.8342 C334.9145,328.3912 333.3045,330.6882 334.1905,332.7922 L339.0155,332.7922 L339.0155,335.4392 L333.8915,335.4392 L333.8915,345.7592 L328.7485,345.7592 C328.7175,344.2582 328.6685,342.5792 328.6525,340.9002 C328.6345,339.1842 328.6485,337.4672 328.6485,335.6042 L323.8505,335.6042 C323.2975,334.8552 322.8155,334.2012 321.9695,333.0542 C324.1475,332.9342 325.7855,332.8442 327.4355,332.7532 C327.7375,332.4492 328.0445,332.1432 328.5005,331.6882 L328.5005,326.8342 Z" id="Fill-26" fill="#FFFFFF"></path>
            </g>
        </g>
        <g id="Group-2" transform="translate(280.000000, 415.000000)">
            <g id="Group-Copy-6" transform="translate(0.000000, 30.000000)" stroke="#FFFFFF">
                <rect id="Rectangle" stroke-width="4" fill="#000000" x="0" y="0" width="316" height="253" rx="8"></rect>
                <line x1="0.316" y1="49" x2="316" y2="49" id="Line" stroke-width="2" stroke-linecap="square"></line>
            </g>
            <g id="Group-Copy-6" transform="translate(17.000000, 14.000000)">
                <rect id="Rectangle" stroke="#FFFFFF" stroke-width="4" fill="#000000" x="2.55795385e-13" y="0" width="317" height="253" rx="8"></rect>
                <circle id="Oval-Copy-2" stroke="#000000" stroke-width="7" fill="#FFFFFF" cx="69.5" cy="23.5" r="8.5"></circle>
                <line x1="0.317" y1="42" x2="317" y2="42" id="Line" stroke="#FFFFFF" stroke-width="2" stroke-linecap="square"></line>
            </g>
            <g id="Group-Copy-6" transform="translate(31.000000, 0.000000)">
                <rect id="Rectangle" stroke="#000000" stroke-width="4" fill="#FFFFFF" x="1.42108547e-13" y="0" width="317" height="253" rx="8"></rect>
                <circle id="Oval" stroke="#FFFFFF" stroke-width="7" fill="#000000" cx="20.5" cy="18.5" r="8.5"></circle>
                <circle id="Oval-Copy" stroke="#FFFFFF" stroke-width="7" fill="#000000" cx="43.5" cy="18.5" r="8.5"></circle>
                <circle id="Oval-Copy-2" stroke="#FFFFFF" stroke-width="7" fill="#000000" cx="66.5" cy="18.5" r="8.5"></circle>
                <line x1="0.317" y1="37" x2="317" y2="37" id="Line" stroke="#000000" stroke-width="2" fill="#FFFFFF" stroke-linecap="square"></line>
            </g>
            <path d="M65.24,97.48 C67.16,97.48 68.6,97.08 69.64,96.76 L68.72,92.48 C68.2,92.68 67.48,92.88 66.84,92.88 C65.28,92.88 64.28,91.96 64.28,89.72 L64.28,81.76 L69.04,81.76 L69.04,77.16 L64.28,77.16 L64.28,71.88 L59.4,71.88 L58.72,77.16 L55.68,77.4 L55.68,81.76 L58.4,81.76 L58.4,89.8 C58.4,94.4 60.32,97.48 65.24,97.48 Z M81.3,97 L81.3,83.6 C82.58,82.36 83.5,81.68 84.98,81.68 C86.66,81.68 87.42,82.56 87.42,85.44 L87.42,97 L93.3,97 L93.3,84.68 C93.3,79.72 91.46,76.68 87.14,76.68 C84.46,76.68 82.5,78.08 81.02,79.4 L81.3,75.84 L81.3,68.96 L75.42,68.96 L75.42,97 L81.3,97 Z M103.68,74.24 C105.68,74.24 107.08,72.96 107.08,71.16 C107.08,69.36 105.68,68.12 103.68,68.12 C101.72,68.12 100.28,69.36 100.28,71.16 C100.28,72.96 101.72,74.24 103.68,74.24 Z M106.64,97 L106.64,77.16 L100.76,77.16 L100.76,97 L106.64,97 Z M120.14,97.48 C125.46,97.48 128.3,94.68 128.3,91.08 C128.3,87.44 125.46,86.04 122.94,85.12 C120.9,84.36 119.06,83.88 119.06,82.6 C119.06,81.6 119.78,81.04 121.3,81.04 C122.7,81.04 124.06,81.68 125.5,82.72 L128.14,79.2 C126.42,77.92 124.18,76.68 121.14,76.68 C116.54,76.68 113.54,79.2 113.54,82.88 C113.54,86.16 116.38,87.8 118.78,88.72 C120.82,89.52 122.82,90.12 122.82,91.44 C122.82,92.48 122.06,93.12 120.3,93.12 C118.62,93.12 116.98,92.4 115.18,91.04 L112.54,94.72 C114.54,96.36 117.54,97.48 120.14,97.48 Z M148.26,74.24 C150.26,74.24 151.66,72.96 151.66,71.16 C151.66,69.36 150.26,68.12 148.26,68.12 C146.3,68.12 144.86,69.36 144.86,71.16 C144.86,72.96 146.3,74.24 148.26,74.24 Z M151.22,97 L151.22,77.16 L145.34,77.16 L145.34,97 L151.22,97 Z M164.72,97.48 C170.04,97.48 172.88,94.68 172.88,91.08 C172.88,87.44 170.04,86.04 167.52,85.12 C165.48,84.36 163.64,83.88 163.64,82.6 C163.64,81.6 164.36,81.04 165.88,81.04 C167.28,81.04 168.64,81.68 170.08,82.72 L172.72,79.2 C171,77.92 168.76,76.68 165.72,76.68 C161.12,76.68 158.12,79.2 158.12,82.88 C158.12,86.16 160.96,87.8 163.36,88.72 C165.4,89.52 167.4,90.12 167.4,91.44 C167.4,92.48 166.64,93.12 164.88,93.12 C163.2,93.12 161.56,92.4 159.76,91.04 L157.12,94.72 C159.12,96.36 162.12,97.48 164.72,97.48 Z M195.8,97 L195.8,83.6 C197.04,82.32 198.2,81.68 199.16,81.68 C200.84,81.68 201.6,82.56 201.6,85.44 L201.6,97 L207.48,97 L207.48,83.6 C208.76,82.32 209.88,81.68 210.88,81.68 C212.56,81.68 213.32,82.56 213.32,85.44 L213.32,97 L219.2,97 L219.2,84.68 C219.2,79.72 217.28,76.68 213,76.68 C210.36,76.68 208.52,78.2 206.76,80 C205.76,77.88 204.08,76.68 201.28,76.68 C198.68,76.68 196.92,78.08 195.28,79.72 L195.12,79.72 L194.72,77.16 L189.92,77.16 L189.92,97 L195.8,97 Z M235.22,97.48 C240.22,97.48 244.86,93.68 244.86,87.08 C244.86,80.48 240.22,76.68 235.22,76.68 C230.18,76.68 225.54,80.48 225.54,87.08 C225.54,93.68 230.18,97.48 235.22,97.48 Z M235.22,92.72 C232.78,92.72 231.58,90.52 231.58,87.08 C231.58,83.64 232.78,81.44 235.22,81.44 C237.62,81.44 238.86,83.64 238.86,87.08 C238.86,90.52 237.62,92.72 235.22,92.72 Z M257.04,97.48 C262.36,97.48 265.2,94.68 265.2,91.08 C265.2,87.44 262.36,86.04 259.84,85.12 C257.8,84.36 255.96,83.88 255.96,82.6 C255.96,81.6 256.68,81.04 258.2,81.04 C259.6,81.04 260.96,81.68 262.4,82.72 L265.04,79.2 C263.32,77.92 261.08,76.68 258.04,76.68 C253.44,76.68 250.44,79.2 250.44,82.88 C250.44,86.16 253.28,87.8 255.68,88.72 C257.72,89.52 259.72,90.12 259.72,91.44 C259.72,92.48 258.96,93.12 257.2,93.12 C255.52,93.12 253.88,92.4 252.08,91.04 L249.44,94.72 C251.44,96.36 254.44,97.48 257.04,97.48 Z M279.06,97.48 C280.98,97.48 282.42,97.08 283.46,96.76 L282.54,92.48 C282.02,92.68 281.3,92.88 280.66,92.88 C279.1,92.88 278.1,91.96 278.1,89.72 L278.1,81.76 L282.86,81.76 L282.86,77.16 L278.1,77.16 L278.1,71.88 L273.22,71.88 L272.54,77.16 L269.5,77.4 L269.5,81.76 L272.22,81.76 L272.22,89.8 C272.22,94.4 274.14,97.48 279.06,97.48 Z M63,153.48 C64.32,153.48 65.32,153.28 65.96,153 L65.24,148.64 C64.92,148.72 64.76,148.72 64.52,148.72 C64.04,148.72 63.48,148.32 63.48,147.08 L63.48,124.96 L57.6,124.96 L57.6,146.84 C57.6,150.84 58.96,153.48 63,153.48 Z M74.46,130.24 C76.46,130.24 77.86,128.96 77.86,127.16 C77.86,125.36 76.46,124.12 74.46,124.12 C72.5,124.12 71.06,125.36 71.06,127.16 C71.06,128.96 72.5,130.24 74.46,130.24 Z M77.42,153 L77.42,133.16 L71.54,133.16 L71.54,153 L77.42,153 Z M90.8,153 L90.8,148.12 L93.32,145.28 L97.8,153 L104.16,153 L96.68,141.32 L103.64,133.16 L97.24,133.16 L90.96,141.04 L90.8,141.04 L90.8,124.96 L85.08,124.96 L85.08,153 L90.8,153 Z M117.26,153.48 C119.62,153.48 122.26,152.64 124.3,151.24 L122.34,147.68 C120.9,148.56 119.54,149 118.06,149 C115.42,149 113.42,147.68 112.9,144.68 L124.78,144.68 C124.9,144.2 125.02,143.24 125.02,142.2 C125.02,136.8 122.22,132.68 116.58,132.68 C111.82,132.68 107.22,136.64 107.22,143.08 C107.22,149.64 111.58,153.48 117.26,153.48 Z M120.02,141.04 L112.86,141.04 C113.26,138.4 114.86,137.16 116.7,137.16 C119.06,137.16 120.02,138.76 120.02,141.04 Z M137,153.48 C138.32,153.48 139.32,153.28 139.96,153 L139.24,148.64 C138.92,148.72 138.76,148.72 138.52,148.72 C138.04,148.72 137.48,148.32 137.48,147.08 L137.48,124.96 L131.6,124.96 L131.6,146.84 C131.6,150.84 132.96,153.48 137,153.48 Z M147.74,160.76 C152.42,160.76 154.54,158.2 156.42,153.2 L163.3,133.16 L157.66,133.16 L155.26,141.68 C154.78,143.56 154.34,145.44 153.9,147.32 L153.74,147.32 C153.22,145.36 152.74,143.48 152.18,141.68 L149.34,133.16 L143.42,133.16 L151.06,152.48 L150.78,153.52 C150.26,155.08 149.26,156.12 147.3,156.12 C146.86,156.12 146.34,155.96 145.98,155.88 L144.94,160.36 C145.74,160.6 146.54,160.76 147.74,160.76 Z M184.86,153.48 C187.1,153.48 188.98,152.44 190.66,150.96 L190.78,150.96 L191.22,153 L196.02,153 L196.02,141.64 C196.02,135.56 193.22,132.68 188.14,132.68 C185.02,132.68 182.18,133.76 179.66,135.28 L181.74,139.16 C183.66,138.04 185.34,137.36 187.02,137.36 C189.14,137.36 190.02,138.48 190.14,140.24 C182.3,141.04 178.98,143.32 178.98,147.48 C178.98,150.84 181.26,153.48 184.86,153.48 Z M186.86,148.92 C185.46,148.92 184.58,148.32 184.58,147.04 C184.58,145.52 185.94,144.32 190.14,143.76 L190.14,147.24 C189.1,148.28 188.22,148.92 186.86,148.92 Z M216.58,160.76 C221.26,160.76 223.38,158.2 225.26,153.2 L232.14,133.16 L226.5,133.16 L224.1,141.68 C223.62,143.56 223.18,145.44 222.74,147.32 L222.58,147.32 C222.06,145.36 221.58,143.48 221.02,141.68 L218.18,133.16 L212.26,133.16 L219.9,152.48 L219.62,153.52 C219.1,155.08 218.1,156.12 216.14,156.12 C215.7,156.12 215.18,155.96 214.82,155.88 L213.78,160.36 C214.58,160.6 215.38,160.76 216.58,160.76 Z M245.92,153.48 C250.92,153.48 255.56,149.68 255.56,143.08 C255.56,136.48 250.92,132.68 245.92,132.68 C240.88,132.68 236.24,136.48 236.24,143.08 C236.24,149.68 240.88,153.48 245.92,153.48 Z M245.92,148.72 C243.48,148.72 242.28,146.52 242.28,143.08 C242.28,139.64 243.48,137.44 245.92,137.44 C248.32,137.44 249.56,139.64 249.56,143.08 C249.56,146.52 248.32,148.72 245.92,148.72 Z M268.06,153.48 C270.78,153.48 272.62,152.24 274.3,150.24 L274.42,150.24 L274.86,153 L279.66,153 L279.66,133.16 L273.78,133.16 L273.78,146.28 C272.62,147.84 271.74,148.48 270.26,148.48 C268.54,148.48 267.78,147.56 267.78,144.72 L267.78,133.16 L261.9,133.16 L261.9,145.48 C261.9,150.44 263.74,153.48 268.06,153.48 Z M63.48,216.36 L63.48,210.56 L63.28,207.4 C64.68,208.72 66.28,209.48 68,209.48 C72.28,209.48 76.36,205.56 76.36,198.76 C76.36,192.64 73.4,188.68 68.6,188.68 C66.52,188.68 64.52,189.72 62.96,191.12 L62.8,191.12 L62.4,189.16 L57.6,189.16 L57.6,216.36 L63.48,216.36 Z M66.64,204.68 C65.64,204.68 64.52,204.36 63.48,203.4 L63.48,195.28 C64.64,194.04 65.68,193.48 66.88,193.48 C69.24,193.48 70.32,195.28 70.32,198.84 C70.32,202.92 68.68,204.68 66.64,204.68 Z M88.9,209 L88.9,197.48 C89.94,194.8 91.78,193.84 93.26,193.84 C94.1,193.84 94.7,193.96 95.42,194.16 L96.38,189.08 C95.82,188.84 95.14,188.68 94.02,188.68 C91.98,188.68 89.82,189.96 88.38,192.64 L88.22,192.64 L87.82,189.16 L83.02,189.16 L83.02,209 L88.9,209 Z M109.56,209.48 C114.56,209.48 119.2,205.68 119.2,199.08 C119.2,192.48 114.56,188.68 109.56,188.68 C104.52,188.68 99.88,192.48 99.88,199.08 C99.88,205.68 104.52,209.48 109.56,209.48 Z M109.56,204.72 C107.12,204.72 105.92,202.52 105.92,199.08 C105.92,195.64 107.12,193.44 109.56,193.44 C111.96,193.44 113.2,195.64 113.2,199.08 C113.2,202.52 111.96,204.72 109.56,204.72 Z M136.14,209.48 C140.42,209.48 144.5,205.56 144.5,198.72 C144.5,192.64 141.5,188.68 136.7,188.68 C134.86,188.68 132.98,189.52 131.46,190.88 L131.62,187.84 L131.62,180.96 L125.74,180.96 L125.74,209 L130.34,209 L130.82,206.92 L130.98,206.92 C132.54,208.6 134.38,209.48 136.14,209.48 Z M134.78,204.68 C133.78,204.68 132.66,204.36 131.62,203.4 L131.62,195.28 C132.74,194.04 133.82,193.48 135.02,193.48 C137.38,193.48 138.46,195.28 138.46,198.84 C138.46,202.92 136.82,204.68 134.78,204.68 Z M156.56,209.48 C157.88,209.48 158.88,209.28 159.52,209 L158.8,204.64 C158.48,204.72 158.32,204.72 158.08,204.72 C157.6,204.72 157.04,204.32 157.04,203.08 L157.04,180.96 L151.16,180.96 L151.16,202.84 C151.16,206.84 152.52,209.48 156.56,209.48 Z M173.98,209.48 C176.34,209.48 178.98,208.64 181.02,207.24 L179.06,203.68 C177.62,204.56 176.26,205 174.78,205 C172.14,205 170.14,203.68 169.62,200.68 L181.5,200.68 C181.62,200.2 181.74,199.24 181.74,198.2 C181.74,192.8 178.94,188.68 173.3,188.68 C168.54,188.68 163.94,192.64 163.94,199.08 C163.94,205.64 168.3,209.48 173.98,209.48 Z M176.74,197.04 L169.58,197.04 C169.98,194.4 171.58,193.16 173.42,193.16 C175.78,193.16 176.74,194.76 176.74,197.04 Z M194.2,209 L194.2,195.6 C195.44,194.32 196.6,193.68 197.56,193.68 C199.24,193.68 200,194.56 200,197.44 L200,209 L205.88,209 L205.88,195.6 C207.16,194.32 208.28,193.68 209.28,193.68 C210.96,193.68 211.72,194.56 211.72,197.44 L211.72,209 L217.6,209 L217.6,196.68 C217.6,191.72 215.68,188.68 211.4,188.68 C208.76,188.68 206.92,190.2 205.16,192 C204.16,189.88 202.48,188.68 199.68,188.68 C197.08,188.68 195.32,190.08 193.68,191.72 L193.52,191.72 L193.12,189.16 L188.32,189.16 L188.32,209 L194.2,209 Z" id="thisismostlikelyayouproblem" fill="#000000" fill-rule="nonzero"></path>
        </g>
    </g>
</svg>