<?xml version="1.0" encoding="UTF-8"?>
<svg width="658px" height="189px" viewBox="0 0 658 189" version="1.1" xmlns="http://www.w3.org/2000/svg" xmlns:xlink="http://www.w3.org/1999/xlink">
    <title>Group 5</title>
    <defs>
        <rect id="path-1" x="0" y="0" width="642" height="173" rx="4"></rect>
        <rect id="path-2" x="0" y="0" width="210" height="37" rx="2"></rect>
    </defs>
    <g id="404" stroke="none" stroke-width="1" fill="none" fill-rule="evenodd">
        <g id="error-pop" transform="translate(-391.000000, -418.000000)">
            <g id="Group-5" transform="translate(399.000000, 426.000000)">
                <g id="Group-4">
                    <g id="Rectangle">
                        <use stroke="#FFFFFF" stroke-width="16" fill="#FFFFFF" fill-rule="evenodd" xlink:href="#path-1"></use>
                        <use stroke="#000000" stroke-width="4" xlink:href="#path-1"></use>
                    </g>
                    <path d="M84.1953125,73 L84.1953125,68.2070312 L89,68.2070312 L89,58.609375 L74.5976562,58.609375 L74.5976562,53.8046875 L89,53.8046875 L89,49 L69.7929688,49 L69.7929688,53.8046875 L65,53.8046875 L65,63.4023438 L79.390625,63.4023438 L79.390625,68.2070312 L65,68.2070312 L65,73 L84.1953125,73 Z M104.890625,73 L104.890625,63.4023438 L114.488281,63.4023438 L114.488281,73 L119.292969,73 L119.292969,49 L114.488281,49 L114.488281,58.609375 L104.890625,58.609375 L104.890625,49 L95.2929688,49 L95.2929688,73 L104.890625,73 Z M144.78125,53.8046875 L144.78125,58.609375 L135.183594,58.609375 L135.183594,53.8046875 L144.78125,53.8046875 Z M144.78125,53.8046875 L144.78125,49 L130.378906,49 L130.378906,53.8046875 L125.585938,53.8046875 L125.585938,73 L135.183594,73 L135.183594,63.4023438 L144.78125,63.4023438 L144.78125,73 L149.585938,73 L149.585938,53.8046875 L144.78125,53.8046875 Z M179.878906,73 L179.878906,68.2070312 L165.476562,68.2070312 L165.476562,49 L155.878906,49 L155.878906,73 L179.878906,73 Z M210.171875,73 L210.171875,68.2070312 L195.769531,68.2070312 L195.769531,49 L186.171875,49 L186.171875,73 L210.171875,73 Z M246.746094,73 L246.746094,68.2070312 L241.953125,68.2070312 L241.953125,49 L232.355469,49 L232.355469,68.2070312 L237.148438,68.2070312 L237.148438,73 L246.746094,73 Z M261.148438,68.2070312 L261.148438,49 L256.355469,49 L256.355469,68.2070312 L261.148438,68.2070312 Z M251.550781,68.2070312 L251.550781,63.4023438 L246.746094,63.4023438 L246.746094,68.2070312 L251.550781,68.2070312 Z M256.355469,73 L256.355469,68.2070312 L251.550781,68.2070312 L251.550781,73 L256.355469,73 Z M291.453125,73 L291.453125,68.2070312 L277.050781,68.2070312 L277.050781,63.4023438 L286.648438,63.4023438 L286.648438,58.609375 L277.050781,58.609375 L277.050781,53.8046875 L291.453125,53.8046875 L291.453125,49 L267.453125,49 L267.453125,73 L291.453125,73 Z M337.636719,73 L337.636719,63.4023438 L332.832031,63.4023438 L332.832031,68.2070312 L323.234375,68.2070312 L323.234375,53.8046875 L337.636719,53.8046875 L337.636719,49 L318.429688,49 L318.429688,53.8046875 L313.636719,53.8046875 L313.636719,68.2070312 L318.429688,68.2070312 L318.429688,73 L337.636719,73 Z M363.125,73 L363.125,68.2070312 L353.527344,68.2070312 L353.527344,53.8046875 L363.125,53.8046875 L363.125,49 L348.722656,49 L348.722656,53.8046875 L343.929688,53.8046875 L343.929688,68.2070312 L348.722656,68.2070312 L348.722656,73 L363.125,73 Z M367.929688,68.2070312 L367.929688,53.8046875 L363.125,53.8046875 L363.125,68.2070312 L367.929688,68.2070312 Z M399.710938,73 L399.710938,63.4023438 L409.308594,63.4023438 L409.308594,73 L414.113281,73 L414.113281,49 L409.308594,49 L409.308594,58.609375 L399.710938,58.609375 L399.710938,49 L390.113281,49 L390.113281,73 L399.710938,73 Z M439.601562,73 L439.601562,68.2070312 L430.003906,68.2070312 L430.003906,53.8046875 L439.601562,53.8046875 L439.601562,49 L425.199219,49 L425.199219,53.8046875 L420.40625,53.8046875 L420.40625,68.2070312 L425.199219,68.2070312 L425.199219,73 L439.601562,73 Z M444.40625,68.2070312 L444.40625,53.8046875 L439.601562,53.8046875 L439.601562,68.2070312 L444.40625,68.2070312 Z M460.296875,73 L460.296875,53.8046875 L465.089844,53.8046875 L465.089844,49 L450.699219,49 L450.699219,73 L460.296875,73 Z M479.492188,73 L479.492188,49 L469.894531,49 L469.894531,53.8046875 L474.699219,53.8046875 L474.699219,73 L479.492188,73 Z M469.894531,58.609375 L469.894531,53.8046875 L465.089844,53.8046875 L465.089844,58.609375 L469.894531,58.609375 Z M509.796875,73 L509.796875,68.2070312 L495.394531,68.2070312 L495.394531,63.4023438 L504.992188,63.4023438 L504.992188,58.609375 L495.394531,58.609375 L495.394531,53.8046875 L509.796875,53.8046875 L509.796875,49 L485.796875,49 L485.796875,73 L509.796875,73 Z M535.285156,63.4023438 L535.285156,58.609375 L544.882812,58.609375 L544.882812,49 L540.089844,49 L540.089844,44.2070312 L520.882812,44.2070312 L520.882812,49 L516.089844,49 L516.089844,53.8046875 L525.6875,53.8046875 L525.6875,49 L535.285156,49 L535.285156,53.8046875 L530.480469,53.8046875 L530.480469,58.609375 L525.6875,58.609375 L525.6875,63.4023438 L535.285156,63.4023438 Z M535.285156,73 L535.285156,68.2070312 L525.6875,68.2070312 L525.6875,73 L535.285156,73 Z" id="shallwegohome?" fill="#000000" fill-rule="nonzero"></path>
                </g>
                <g id="Group-3" transform="translate(216.000000, 108.000000)">
                    <g id="Rectangle-Copy">
                        <use stroke="#FFFFFF" stroke-width="8" fill="#FFFFFF" fill-rule="evenodd" xlink:href="#path-2"></use>
                        <use stroke="#000000" stroke-width="2" xlink:href="#path-2"></use>
                    </g>
                    <path d="M34.796875,28 L34.796875,24.8046875 L28.3984375,24.8046875 L28.3984375,15.203125 L34.796875,15.203125 L34.796875,12 L25.1953125,12 L25.1953125,15.203125 L22,15.203125 L22,24.8046875 L25.1953125,24.8046875 L25.1953125,28 L34.796875,28 Z M38,24.8046875 L38,15.203125 L34.796875,15.203125 L34.796875,24.8046875 L38,24.8046875 Z M48.59375,28 L48.59375,21.6015625 L51.7890625,21.6015625 L51.7890625,18.40625 L48.59375,18.40625 L48.59375,12 L42.1953125,12 L42.1953125,28 L48.59375,28 Z M58.1953125,15.203125 L58.1953125,12 L54.9921875,12 L54.9921875,15.203125 L58.1953125,15.203125 Z M54.9921875,18.40625 L54.9921875,15.203125 L51.7890625,15.203125 L51.7890625,18.40625 L54.9921875,18.40625 Z M54.9921875,24.8046875 L54.9921875,21.6015625 L51.7890625,21.6015625 L51.7890625,24.8046875 L54.9921875,24.8046875 Z M58.1953125,28 L58.1953125,24.8046875 L54.9921875,24.8046875 L54.9921875,28 L58.1953125,28 Z M75.1875,15.203125 L75.1875,18.40625 L68.7890625,18.40625 L68.7890625,15.203125 L75.1875,15.203125 Z M75.1875,15.203125 L75.1875,12 L65.5859375,12 L65.5859375,15.203125 L62.390625,15.203125 L62.390625,28 L68.7890625,28 L68.7890625,21.6015625 L75.1875,21.6015625 L75.1875,28 L78.390625,28 L78.390625,15.203125 L75.1875,15.203125 Z M92.1796875,28 L92.1796875,18.40625 L88.984375,18.40625 L88.984375,12 L82.5859375,12 L82.5859375,18.40625 L85.78125,18.40625 L85.78125,28 L92.1796875,28 Z M95.3828125,18.40625 L95.3828125,12 L92.1796875,12 L92.1796875,18.40625 L95.3828125,18.40625 Z M119.773438,28 L119.773438,15.203125 L122.976562,15.203125 L122.976562,12 L110.179688,12 L110.179688,15.203125 L113.375,15.203125 L113.375,28 L119.773438,28 Z M133.578125,28 L133.578125,21.6015625 L139.976562,21.6015625 L139.976562,28 L143.179688,28 L143.179688,12 L139.976562,12 L139.976562,18.40625 L133.578125,18.40625 L133.578125,12 L127.179688,12 L127.179688,28 L133.578125,28 Z M163.375,28 L163.375,24.8046875 L153.773438,24.8046875 L153.773438,21.6015625 L160.171875,21.6015625 L160.171875,18.40625 L153.773438,18.40625 L153.773438,15.203125 L163.375,15.203125 L163.375,12 L147.375,12 L147.375,28 L163.375,28 Z M173.96875,28 L173.96875,15.203125 L180.367188,15.203125 L180.367188,12 L167.570312,12 L167.570312,28 L173.96875,28 Z M183.570312,28 L183.570312,15.203125 L180.367188,15.203125 L180.367188,28 L183.570312,28 Z" id="okaythen" fill="#000000" fill-rule="nonzero"></path>
                </g>
            </g>
        </g>
    </g>
</svg>