<?xml version="1.0" encoding="UTF-8"?>
<svg width="1024px" height="600px" viewBox="0 0 1024 600" version="1.1" xmlns="http://www.w3.org/2000/svg" xmlns:xlink="http://www.w3.org/1999/xlink">
    <!-- Generator: Sketch 58 (84663) - https://sketch.com -->
    <title>institute hero</title>
    <desc>Created with Sketch.</desc>
    <defs>
        <path d="M0.725490196,72.21875 L8.70588235,72.21875 L8.70588235,104.53125 L0.725490196,104.53125 L0.725490196,72.21875 Z M0,63.40625 C0,62.2355011 0.375852608,61.1818431 1.02422145,60.2589286 C1.87928559,59.4363634 2.91943583,59 4.09688581,59 C5.57666622,59 6.6517795,59.4363634 7.6816609,60.2589286 C8.29506671,61.1818431 8.70588235,62.2355011 8.70588235,63.40625 C8.70588235,64.7047163 8.29506671,65.7370882 7.6816609,66.5535714 C6.6517795,67.3974226 5.57666622,67.8125 4.09688581,67.8125 C2.91943583,67.8125 1.87928559,67.3974226 1.02422145,66.5535714 C0.375852608,65.7370882 0,64.7047163 0,63.40625 Z M36.8351159,105.265625 L36.8351159,86.4260817 C36.7603886,83.9277793 36.3915459,81.9999392 35.5819964,80.5793269 C34.9161533,79.6339313 33.6620884,79.0424368 31.8226381,79.2800481 C30.3319164,79.0424368 29.0146213,79.5134417 28.0632799,80.5793269 C26.8647635,81.3974897 26.0954631,82.5695253 25.557041,83.827524 L25.557041,105.265625 L17.4117647,105.265625 L17.4117647,72.1340144 L23.6773619,72.1340144 L24.9304813,76.6814904 L24.9304813,76.6814904 C26.0954657,75.3400749 27.3811457,74.1132661 28.6898396,72.7836538 C30.5848554,72.010148 32.6503741,71.484375 34.9554367,71.484375 C36.7393194,71.484375 38.130383,71.7034471 39.3413547,72.1340144 C40.5753194,72.5797485 41.6080788,73.3026863 42.4741533,74.0829327 C43.2942418,75.3181795 43.9265434,76.6873799 44.3538324,78.6304087 C44.7696249,80.1487704 44.9803922,82.284723 44.9803922,85.1268029 L44.9803922,105.265625 L36.8351159,105.265625 Z M64.3921569,96.2314269 C64.3700515,95.1920727 64.013536,94.4947943 63.1372549,94.2777123 C62.5874524,93.448861 61.7066492,92.9694821 60.627451,92.3239976 C59.6094675,92.0978711 58.4560348,91.6511771 57.4901961,91.0215212 C55.9394166,90.7359855 54.785984,90.104077 53.7254902,89.0678066 C52.6888022,88.4915965 51.807999,87.4674689 51.2156863,86.4628538 C50.3819154,84.9833774 50.0253999,83.3818162 49.9607843,81.2529481 C50.0253999,78.1957304 50.948146,75.7334661 53.0980392,74.0893278 C54.6391859,72.334183 57.3025669,71.484375 60.627451,71.484375 C63.1746759,71.484375 65.3347407,71.7458544 67.5294118,72.1356132 C69.1935552,72.791785 70.7035034,73.3801163 71.9215686,74.0893278 L70.0392157,79.9504717 C69.0047953,79.7864268 67.7884481,79.3724177 66.2745098,78.6479953 C64.8523936,78.5008067 63.3634169,78.2829072 61.8823529,77.9967571 C59.4207151,78.2829072 58.2043679,79.2634549 58.1176471,81.2529481 C58.2043679,82.0090297 58.5608835,82.6409383 59.372549,83.2066627 C59.9869671,83.5997104 60.8677702,84.0464044 61.8823529,84.5091392 C62.964952,84.8744349 64.1183847,85.3211288 65.6470588,85.8116156 C66.6350028,86.279901 67.7884355,86.9009146 68.7843137,87.7653302 C69.8856173,88.4262339 70.7664204,89.4176766 71.2941176,90.370283 C72.1925041,91.8581875 72.5490196,93.4270639 72.5490196,95.5801887 C72.5490196,98.6567302 71.5319017,101.260629 69.4117647,103.395047 C67.463369,105.052137 64.4120153,106 60.627451,106 C58.12047,106 56.0338054,105.705836 54.3529412,105.348762 C52.1330473,104.529161 50.5496988,103.842773 49.3333333,102.743809 L51.8431373,96.8826651 C52.562982,97.2839359 53.8422437,97.8395796 55.6078431,98.1851415 C57.02996,98.9290934 58.6657372,99.2014678 60.627451,99.4876179 C61.5598481,99.2014678 62.535023,98.9617784 63.1372549,98.1851415 C64.0030502,98.0030062 64.3700515,97.1967781 64.3921569,96.2314269 Z M74.7254902,71.925 L79.2064591,71.925 L79.2064591,66.0274038 L87.5282584,63.40625 L87.5282584,71.925 L95.2099193,71.925 L95.2099193,79.1331731 L87.5282584,79.1331731 L87.5282584,92.2389423 C87.501822,94.2894817 87.7265291,95.9293797 88.1683968,96.8259615 C88.625371,97.9104943 89.4706977,98.4057655 90.7289504,98.1365385 C91.5679955,98.4057655 92.3063188,98.3177173 92.6493656,98.1365385 C93.5475767,97.9655191 94.2430987,97.7013745 95.2099193,97.48125 L96.4901961,104.034135 C95.3345422,104.525181 93.9862996,105.009448 92.6493656,105.344712 C90.9045559,105.801892 89.3423065,106 87.5282584,106 C84.805295,106 82.6331263,105.218572 81.1268743,103.378846 C79.8509966,102.092814 79.1554746,99.5284093 79.2064591,96.1706731 L79.2064591,79.1331731 L74.7254902,79.1331731 L74.7254902,71.925 Z M100.843137,72.21875 L108.823529,72.21875 L108.823529,104.53125 L100.843137,104.53125 L100.843137,72.21875 Z M100.117647,63.40625 C100.117647,62.2355011 100.4935,61.1818431 101.141869,60.2589286 C101.996933,59.4363634 103.037083,59 104.214533,59 C105.694313,59 106.769427,59.4363634 107.799308,60.2589286 C108.412714,61.1818431 108.823529,62.2355011 108.823529,63.40625 C108.823529,64.7047163 108.412714,65.7370882 107.799308,66.5535714 C106.769427,67.3974226 105.694313,67.8125 104.214533,67.8125 C103.037083,67.8125 101.996933,67.3974226 101.141869,66.5535714 C100.4935,65.7370882 100.117647,64.7047163 100.117647,63.40625 Z M113.901961,71.925 L118.38293,71.925 L118.38293,66.0274038 L126.704729,63.40625 L126.704729,71.925 L134.38639,71.925 L134.38639,79.1331731 L126.704729,79.1331731 L126.704729,92.2389423 C126.678293,94.2894817 126.903,95.9293797 127.344867,96.8259615 C127.801842,97.9104943 128.647168,98.4057655 129.905421,98.1365385 C130.744466,98.4057655 131.482789,98.3177173 131.825836,98.1365385 C132.724047,97.9655191 133.419569,97.7013745 134.38639,97.48125 L135.666667,104.034135 C134.511013,104.525181 133.16277,105.009448 131.825836,105.344712 C130.081026,105.801892 128.518777,106 126.704729,106 C123.981766,106 121.809597,105.218572 120.303345,103.378846 C119.027467,102.092814 118.331945,99.5284093 118.38293,96.1706731 L118.38293,79.1331731 L113.901961,79.1331731 L113.901961,71.925 Z M147.439394,72.21875 L147.439394,91.0582933 C147.347874,93.5565957 147.647306,95.4844299 148.065954,96.9050481 C148.84505,97.8504377 150.0118,98.4419382 151.825312,98.2043269 C153.27462,98.4419382 154.544623,97.9599797 155.58467,96.9050481 C156.568398,96.0321166 157.322139,94.8491275 158.090909,93.656851 L158.090909,72.21875 L165.609626,72.21875 L165.609626,94.9561298 C165.871514,96.88652 165.954115,98.6500501 166.236185,100.153245 C166.284528,102.111441 166.532333,103.677806 166.862745,105.350361 L160.597148,105.350361 L159.344029,100.153245 L159.344029,100.153245 C158.168814,101.881412 156.847185,103.261566 154.958111,104.051082 C153.46046,105.45232 151.457366,106 149.319073,106 C147.575023,106 146.170793,105.780928 144.933155,105.350361 C143.692701,104.904627 142.660179,104.181689 141.800357,103.401442 C141.008118,102.166196 140.378279,100.807949 139.920677,98.8539663 C139.510947,97.3903733 139.294118,95.243467 139.294118,92.3575721 L139.294118,72.21875 L147.439394,72.21875 Z M169.764706,71.925 L174.245675,71.925 L174.245675,66.0274038 L182.567474,63.40625 L182.567474,71.925 L190.249135,71.925 L190.249135,79.1331731 L182.567474,79.1331731 L182.567474,92.2389423 C182.541038,94.2894817 182.765745,95.9293797 183.207612,96.8259615 C183.664587,97.9104943 184.509913,98.4057655 185.768166,98.1365385 C186.607211,98.4057655 187.345535,98.3177173 187.688581,98.1365385 C188.586792,97.9655191 189.282314,97.7013745 190.249135,97.48125 L191.529412,104.034135 C190.373758,104.525181 189.025515,105.009448 187.688581,105.344712 C185.943772,105.801892 184.381522,106 182.567474,106 C179.844511,106 177.672342,105.218572 176.16609,103.378846 C174.890212,102.092814 174.19469,99.5284093 174.245675,96.1706731 L174.245675,79.1331731 L169.764706,79.1331731 L169.764706,71.925 Z M220.746881,102.092571 C219.744379,103.319815 218.042242,104.202308 215.734403,104.697524 C213.739844,105.640466 211.452924,106 208.842246,106 C203.97594,106 200.279275,104.463809 198.190731,101.441333 C195.600939,98.3189507 194.431373,94.1025955 194.431373,89.0678066 C194.431373,82.9895546 195.747135,78.6751446 198.190731,76.0430425 C201.010263,72.9225117 204.706928,71.484375 209.468806,71.484375 C211.056098,71.484375 212.601597,71.7022745 213.854724,72.1356132 C215.609098,72.5738855 216.945746,73.2929539 218.240642,74.0893278 C219.284914,75.2976593 220.224744,76.6486362 220.746881,78.6479953 C221.644953,80.0479192 222,82.1615443 222,84.5091392 C222,85.604408 221.947787,86.5849557 222,87.7653302 C221.738933,88.6768222 221.582295,89.7663197 221.37344,91.0215212 L202.576649,91.0215212 C202.701961,93.6449889 203.380728,95.7150341 204.456328,96.8826651 C205.845208,98.5041894 207.839737,99.2014678 210.721925,99.4876179 C212.309218,99.2014678 213.844274,98.9290934 215.107843,98.1851415 C216.55938,97.8395796 217.593193,97.2839359 218.240642,96.8826651 L220.746881,102.092571 Z M209.552116,78.09375 C207.103167,78.09375 205.440264,78.7603635 204.359133,80.0965909 C203.281763,81.4268575 202.63202,83.2081362 202.411765,85.4375 L214.745098,85.4375 C214.87815,83.0769971 214.514734,81.2629342 213.446852,80.0965909 C212.708641,78.7275792 211.288016,78.09375 209.552116,78.09375 Z" id="path-1"></path>
    </defs>
    <g id="institute-hero" stroke="none" stroke-width="1" fill="none" fill-rule="evenodd">
        <g id="undraw_teacher_35j2" transform="translate(331.000000, 402.000000)">
            <path d="M359.154055,183.690236 C357.745239,187.165489 356.010896,190.499812 353.974176,193.648696 C353.018906,195.15023 351.971011,196.590831 350.836577,197.962135 C350.826516,197.976064 350.814863,197.988771 350.801855,198 L0,198 L0.0473480706,197.962135 C0.363001875,197.716014 2.21588971,196.217196 5.09780894,193.648696 C7.16534135,191.809094 9.76001562,189.417297 12.6735002,186.539567 C36.5022059,163.110681 82.275164,107.654428 44.1536541,56.8523992 C8.71520153,9.62544448 46.8714334,1.05536303 72.0416677,0.055099471 C81.7122527,-0.323613063 91.3598057,1.25296946 100.406319,4.69039021 C112.035005,9.10795797 133.287975,15.8794583 160.977127,18.9843773 C161.88621,19.0853503 162.801606,19.1863233 163.729628,19.27783 C178.389173,20.769924 193.147622,21.0380097 207.851717,20.079303 L207.851717,20.079303 C208.284163,20.0540598 208.719765,20.0225057 209.158524,19.9909517 C223.704539,18.969915 238.139993,16.7376131 252.314712,13.317269 C253.233264,13.0932352 254.139191,12.881823 255.041961,12.6704108 C302.273239,1.74639684 345.814525,38.9770268 334.927625,81.0512044 C330.903039,96.6136645 331.925758,113.201631 345.344201,126.621571 C367.313706,148.526396 364.652744,170.099904 359.154055,183.690236 Z" id="Path" fill="#000000" fill-rule="nonzero" opacity="0.1"></path>
            <path d="M359,183.426132 C357.591603,186.974915 355.857775,190.379786 353.82166,193.595296 C352.866674,195.128599 351.81909,196.599682 350.684994,198 L0,198 C0.315560009,197.748671 2.16789726,196.218141 5.04896015,193.595296 C7.11587821,191.716771 9.70978148,189.274368 12.6224004,186.33575 L49.5839442,178.538102 C50.0615233,178.437501 50.5478847,178.386759 51.0355203,178.38666 L90.4394986,178.328661 L90.4805214,178.328661 L109.997908,178.302884 L110.042086,178.302884 L126.514319,178.283551 L137.297004,178.283551 L137.297004,178.283551 L148.341605,178.283551 L193.599221,178.219107 L193.6718,178.219107 L197.177672,178.219107 L203.337403,178.219107 L211.027601,178.219107 L213.072429,178.219107 L220.844672,178.128887 L223.413331,178.128887 L246.02005,178.096665 L253.240063,178.096665 L253.240063,178.096665 L256.711223,178.096665 L256.711223,178.096665 L282.823814,178.061221 L290.599212,178.061221 L315.332806,178.025777 L336.210256,178 C336.791687,178.000328 337.371055,178.070626 337.936369,178.209441 L359,183.426132 Z" id="Path" fill="#454B69" fill-rule="nonzero"></path>
            <path d="M5.05150502,194 L354,194 C353.044532,195.392424 351.996421,196.728343 350.861753,198 L0,198 C0.309404682,197.757132 2.16267559,196.367228 5.05150502,194 Z" id="Path"></path>
            <path d="M5.05150502,194 L354,194 C353.044532,195.392424 351.996421,196.728343 350.861753,198 L0,198 C0.309404682,197.757132 2.16267559,196.367228 5.05150502,194 Z" id="Path" fill="#000000" fill-rule="nonzero" opacity="0.4"></path>
            <path d="M231,95.7584223 L230.301317,95.8942409 L198.715815,101.983969 C189.541668,103.752769 180.235337,105.531046 170.916418,104.851952 C164.165631,104.359215 157.858601,102.350363 151.372181,100.58788 C147.705669,99.5897707 143.818852,99.1917906 142.5757,95.073012 C140.860465,89.3875815 143.652049,80.9699858 144.309818,75.2087496 C144.939262,69.5549048 145.310634,63.7589242 144.190224,58.1714095 C143.941324,56.9157711 143.613355,55.6772324 143.208291,54.4632454 C142.084734,51.1183171 140.319143,47.6407288 141.272751,44.2452633 C142.024936,41.551001 144.31926,39.6274303 146.465664,37.8459954 C150.67035,34.3715657 154.963159,30.4770458 156.631186,25.2685597 C157.449463,22.7417017 157.603677,20.0221708 158.484898,17.5142643 C160.156072,12.7448198 164.354464,9.17879142 169.024939,7.28996506 C173.695414,5.40113871 178.831677,5 183.870377,5 C188.319489,5 192.763683,5.29675253 197.173677,5.88755887 C201.982629,6.51927337 206.835643,7.55844373 211.06236,9.95264168 C215.289077,12.3468396 218.85173,16.2697867 219.83681,21.0518655 C221.231028,27.8143692 217.359947,35.0159145 219.437113,41.5825867 C220.48199,44.9022464 222.899055,47.5838745 224.576523,50.6224212 C227.340102,55.757891 227.907997,61.7992959 226.150134,67.3628555 C224.142207,73.6073533 219.226249,79.9244983 221.744025,85.9794818 C223.34596,89.8297817 227.437347,91.8860124 230.288728,94.9371934 C230.542604,95.2109364 230.779695,95.4846793 231,95.7584223 Z" id="Path" fill="#454B69" fill-rule="nonzero"></path>
            <path d="M231,94.9093856 L231,95.8460915 L199.15498,101.968021 C189.905455,103.746174 180.522661,105.533854 171.127174,104.85117 C164.32092,104.355827 157.96207,102.336352 151.422355,100.564549 C147.725718,99.5611625 143.806965,99.161078 142.553599,95.0205202 C140.824271,89.3050263 143.638792,80.8429201 144.301965,75.0512196 C144.936581,69.3674785 154.706491,48.6170604 153.576875,43 L211.961527,45.5402195 C212.354988,48.6424626 227.785671,64.2140081 226.824228,67.1892402 C224.799804,73.4667577 219.843455,79.8173064 222.381918,85.9043074 C224.000188,89.7749669 228.125191,91.8420705 231,94.9093856 Z" id="Path" fill="#000000" fill-rule="nonzero" opacity="0.1"></path>
            <path d="M171.738619,78.6194901 C172.080197,80.5796072 172.261953,82.7360527 171.271693,84.4460094 C169.95239,86.7386181 167.07562,87.4700996 164.502822,87.9894198 L155.571673,89.7943742 C154.963728,89.917871 154.318179,90.0572008 153.863787,90.4783569 C153.327918,90.9628446 153.146161,91.7291586 153.067818,92.4511403 C152.707438,95.7190576 153.851252,98.9394762 154.894786,102.052231 C157.003791,108.356905 158.774352,114.794575 161.441162,120.877588 C164.107971,126.960601 167.768175,132.768121 172.992114,136.834018 C178.216052,140.899915 185.129075,143.06586 191.525031,141.476234 C197.096814,140.092435 201.665802,136.118369 205.604908,131.903642 C208.854593,128.420397 211.894317,124.620493 213.470587,120.101774 C214.557993,116.998519 214.912105,113.692603 215.253683,110.418353 C215.782239,105.398257 216.310796,100.378162 216.839353,95.3580668 C217.086918,93.0021264 217.249873,90.3516934 215.736278,88.5435725 C215.071926,87.7487592 214.16941,87.2199393 213.248091,86.7291184 C209.819784,84.8893316 206.209719,83.36937 203.019576,81.1527594 C199.829432,78.9361488 196.999668,75.8835594 196.031344,72.0963218 C195.451602,69.8227127 195.555016,67.346442 194.567889,65.2279955 C193.464814,62.8530556 191.120779,61.2444296 188.61379,60.5382808 C186.106801,59.832132 183.461927,59.9271296 180.879728,60.2216222 C178.297529,60.5161147 168.344783,61.2697623 167.276179,64.2115212 C166.702705,65.7948145 169.081211,69.1925619 169.645283,70.7505225 C170.573784,73.3052183 171.274352,75.9386943 171.738619,78.6194901 Z" id="Path" fill="#EFB7B9" fill-rule="nonzero"></path>
            <path d="M171.738619,78.6194901 C172.080197,80.5796072 172.261953,82.7360527 171.271693,84.4460094 C169.95239,86.7386181 167.07562,87.4700996 164.502822,87.9894198 L155.571673,89.7943742 C154.963728,89.917871 154.318179,90.0572008 153.863787,90.4783569 C153.327918,90.9628446 153.146161,91.7291586 153.067818,92.4511403 C152.707438,95.7190576 153.851252,98.9394762 154.894786,102.052231 C157.003791,108.356905 158.774352,114.794575 161.441162,120.877588 C164.107971,126.960601 167.768175,132.768121 172.992114,136.834018 C178.216052,140.899915 185.129075,143.06586 191.525031,141.476234 C197.096814,140.092435 201.665802,136.118369 205.604908,131.903642 C208.854593,128.420397 211.894317,124.620493 213.470587,120.101774 C214.557993,116.998519 214.912105,113.692603 215.253683,110.418353 C215.782239,105.398257 216.310796,100.378162 216.839353,95.3580668 C217.086918,93.0021264 217.249873,90.3516934 215.736278,88.5435725 C215.071926,87.7487592 214.16941,87.2199393 213.248091,86.7291184 C209.819784,84.8893316 206.209719,83.36937 203.019576,81.1527594 C199.829432,78.9361488 196.999668,75.8835594 196.031344,72.0963218 C195.451602,69.8227127 195.555016,67.346442 194.567889,65.2279955 C193.464814,62.8530556 191.120779,61.2444296 188.61379,60.5382808 C186.106801,59.832132 183.461927,59.9271296 180.879728,60.2216222 C178.297529,60.5161147 168.344783,61.2697623 167.276179,64.2115212 C166.702705,65.7948145 169.081211,69.1925619 169.645283,70.7505225 C170.573784,73.3052183 171.274352,75.9386943 171.738619,78.6194901 Z" id="Path" fill="#000000" fill-rule="nonzero" opacity="0.1"></path>
            <path d="M192.860165,113.786587 L198.16183,102.690896 C200.646093,97.4911628 203.184292,92.0279931 202.920954,86.2857064 C202.87019,85.1441485 202.857499,83.7172013 203.872779,83.1997369 C204.313533,83.0218098 204.793788,82.9612539 205.265616,83.0241126 C210.847037,83.3062199 216.354942,84.4075648 221.608449,86.2919787 C222.626902,86.6557718 223.670736,87.0760156 224.384605,87.8788695 C225.098474,88.6817234 225.387194,89.7605582 225.631496,90.795487 C226.463684,94.2947228 227.070894,97.842531 227.449481,101.41762 C228.401306,110.267829 227.928566,119.196442 227.449481,128.074877 L226.04078,155.180603 C226.048384,155.56514 225.969265,155.946526 225.80917,156.297072 C225.460167,156.924301 224.673325,157.134423 223.965802,157.253597 C221.24041,157.714611 218.454736,157.620526 215.694444,157.517033 C196.277216,156.789447 176.758461,155.672978 157.468143,158 C157.554865,155.179558 157.509389,152.357025 157.331715,149.532401 C156.567082,137.335922 153.368951,125.437377 150.227929,113.620371 C148.397252,106.720846 146.623685,99.1940911 149.57117,92.6928565 C150.004602,91.6661627 150.627548,90.7281663 151.408192,89.9267741 C152.661428,88.7130848 154.37154,88.0733107 156.065788,87.6154331 C158.988256,86.8296349 162.015296,86.4911839 165.041497,86.6118657 L185.045683,129.661768 C185.959435,131.631269 186.711376,133.704262 187.621955,135.648674 C188.440525,132.28986 187.456973,128.353994 188.440525,124.712926 C189.500223,120.933868 191.16909,117.31789 192.860165,113.786587 Z" id="Path" fill="#FFFFFF" fill-rule="nonzero"></path>
            <path d="M190.507732,143.213661 C194.078464,143.43657 197.547898,141.621904 200.004359,139.056882 C202.46082,136.491861 204.081578,133.239275 205.452257,129.952155 C207.422699,125.266595 208.988923,120.423735 210.134094,115.475638 C211.083757,111.268626 211.758018,106.914054 211.10275,102.65053 C210.197405,96.7638529 206.838765,91.4140405 206.265802,85.4865489 C206.16767,84.4504937 206.230981,83.2386231 207.06985,82.6138504 C207.588998,82.2276843 208.272756,82.1743118 208.918526,82.1366371 C214.888739,81.7850062 221.447743,81.850937 226.0726,85.6089918 C227.481266,86.7517921 228.624027,88.1802925 230.001038,89.3576279 C233.28054,92.183233 237.914894,93.6211521 240.019979,97.3729278 C240.754385,98.6789852 241.10576,100.157719 241.618578,101.564242 C242.827815,104.892177 244.920239,107.818248 247,110.697226 C244.98355,119.136366 242.666373,127.581786 240.649922,136.020927 C239.469175,140.972015 238.278931,145.94194 236.423923,150.682678 C235.208355,153.790843 233.679398,156.9618 234.052932,160.289735 C234.201713,161.598932 234.641723,162.851617 235.024754,164.113721 C236.367458,168.54354 236.996703,173.155803 236.889258,177.780231 L146.563674,178 C150.89097,171.84646 152.160353,164.298955 151.720343,156.811101 C151.508251,153.222583 150.691541,149.612087 148.871354,146.507061 C146.003373,141.640741 140.957499,138.469784 135.984432,135.754064 C132.502335,133.870327 128.76383,144.469486 125,143.254476 C125.607784,138.990952 125.886352,122.533372 125.633108,118.241591 C125.550804,116.835068 125.424183,115.39087 125.861028,114.047138 C126.158588,113.127246 126.706227,112.304681 127.076596,111.409906 C128.561235,107.827667 127.146238,103.247047 129.545719,100.198533 C131.204463,98.079329 134.113596,97.4765333 136.478256,96.1704758 C138.906227,94.8267436 140.783394,92.7169584 142.897976,90.9148503 C147.047164,87.42056 152.117058,85.1754794 157.510119,84.4442146 C159.083386,86.9053705 160.039656,89.7043416 160.298962,92.6070738 C160.460405,94.4311589 160.34328,96.2803605 160.599689,98.0950269 C160.951064,100.553303 161.9767,102.860881 162.992839,105.133923 C167.225169,114.612259 171.473326,124.11885 176.835755,133.019506 C178.35205,135.531155 180.001297,138.042804 182.198184,139.998751 C184.39507,141.954697 187.557447,143.351802 190.507732,143.213661 Z" id="Path" fill="#E08AF7" fill-rule="nonzero"></path>
            <path d="M190.507732,143.213661 C194.078464,143.43657 197.547898,141.621904 200.004359,139.056882 C202.46082,136.491861 204.081578,133.239275 205.452257,129.952155 C207.422699,125.266595 208.988923,120.423735 210.134094,115.475638 C211.083757,111.268626 211.758018,106.914054 211.10275,102.65053 C210.197405,96.7638529 206.838765,91.4140405 206.265802,85.4865489 C206.16767,84.4504937 206.230981,83.2386231 207.06985,82.6138504 C207.588998,82.2276843 208.272756,82.1743118 208.918526,82.1366371 C214.888739,81.7850062 221.447743,81.850937 226.0726,85.6089918 C227.481266,86.7517921 228.624027,88.1802925 230.001038,89.3576279 C233.28054,92.183233 237.914894,93.6211521 240.019979,97.3729278 C240.754385,98.6789852 241.10576,100.157719 241.618578,101.564242 C242.827815,104.892177 244.920239,107.818248 247,110.697226 C244.98355,119.136366 242.666373,127.581786 240.649922,136.020927 C239.469175,140.972015 238.278931,145.94194 236.423923,150.682678 C235.208355,153.790843 233.679398,156.9618 234.052932,160.289735 C234.201713,161.598932 234.641723,162.851617 235.024754,164.113721 C236.367458,168.54354 236.996703,173.155803 236.889258,177.780231 L146.563674,178 C150.89097,171.84646 152.160353,164.298955 151.720343,156.811101 C151.508251,153.222583 150.691541,149.612087 148.871354,146.507061 C146.003373,141.640741 140.957499,138.469784 135.984432,135.754064 C132.502335,133.870327 128.76383,144.469486 125,143.254476 C125.607784,138.990952 125.886352,122.533372 125.633108,118.241591 C125.550804,116.835068 125.424183,115.39087 125.861028,114.047138 C126.158588,113.127246 126.706227,112.304681 127.076596,111.409906 C128.561235,107.827667 127.146238,103.247047 129.545719,100.198533 C131.204463,98.079329 134.113596,97.4765333 136.478256,96.1704758 C138.906227,94.8267436 140.783394,92.7169584 142.897976,90.9148503 C147.047164,87.42056 152.117058,85.1754794 157.510119,84.4442146 C159.083386,86.9053705 160.039656,89.7043416 160.298962,92.6070738 C160.460405,94.4311589 160.34328,96.2803605 160.599689,98.0950269 C160.951064,100.553303 161.9767,102.860881 162.992839,105.133923 C167.225169,114.612259 171.473326,124.11885 176.835755,133.019506 C178.35205,135.531155 180.001297,138.042804 182.198184,139.998751 C184.39507,141.954697 187.557447,143.351802 190.507732,143.213661 Z" id="Path" fill="#000000" fill-rule="nonzero" opacity="0.1"></path>
            <circle id="Oval" fill="#EFB7B9" fill-rule="nonzero" cx="186" cy="51" r="27"></circle>
            <path d="M171.491039,87.8021618 C172.234656,80.8028866 169.317148,73.9550836 166.013592,67.7352588 C164.43143,64.762618 162.735351,61.7994442 161.941106,58.5333262 C161.14686,55.2672081 161.374691,51.5687634 163.406188,48.8832885 C165.13391,46.5985837 167.874216,45.3647169 170.40884,44.0235573 C177.56338,40.2367538 184.10404,34.6701526 187.249379,27.225928 C185.471029,28.1915629 185.93302,31.0726892 187.502525,32.3444241 C189.072031,33.6161589 191.211115,33.8623012 193.141353,34.4681897 C200.178813,36.6771585 204.400023,43.6764337 207.785851,50.2149811 C208.339608,51.2815974 208.902858,52.4081715 208.896529,53.6104816 C208.8902,54.8127917 208.339608,55.879408 207.7637,56.901845 C206.092937,59.8681744 204.048783,62.7177441 203.289344,66.0343529 C202.419155,69.8211564 203.336809,73.8036114 204.52976,77.5178346 C205.79549,81.4687329 207.475747,85.451188 210.513499,88.2849793 C213.551251,91.1187706 218.262932,92.5261992 222,90.6959109 C218.26926,84.2993686 214.405619,77.1517769 215.861209,69.9000481 C216.563689,66.4288116 218.452791,63.2731419 219.25653,59.8208394 C220.788063,53.2349569 218.237617,46.4597343 215.734636,40.1736404 L208.254171,21.4131846 C207.111849,18.5446809 205.811312,15.4836814 203.19125,13.8585115 C201.419228,12.7634941 199.273816,12.4794839 197.198018,12.2806767 C190.514963,11.6874108 183.591419,11.8830623 177.370356,14.3634186 C166.035743,18.8791819 158.928668,30.0123842 153.28984,40.8110857 C151.600091,44.045647 149.932491,47.4821712 150.002106,51.1301253 C150.040078,53.1308198 150.600164,55.077868 151.055827,57.0280718 C152.910121,64.9677365 153.01138,73.1945672 153.106309,81.3456618 C153.179089,87.600199 152.853163,93.4949898 150.109693,99.1909735 C153.868912,99.9357115 159.321044,101.945873 163.042291,100.475331 C167.893202,98.5629952 170.880325,92.67136 171.491039,87.8021618 Z" id="Path" fill="#454B69" fill-rule="nonzero"></path>
            <g id="Group" opacity="0.1" transform="translate(150.000000, 26.000000)" fill="#000000" fill-rule="nonzero">
                <path d="M3.38934498,54.2771186 C3.4019214,53.3928814 3.4019214,52.5002825 3.38934498,51.599322 C3.29502183,43.5000847 3.19441048,35.3255932 1.35196507,27.4364407 C0.940379904,25.901211 0.619133287,24.3432995 0.389868996,22.770678 C0.325219327,23.3106411 0.296859076,23.8543123 0.304978166,24.3980508 C0.342707424,26.3860169 0.899213974,28.320678 1.35196507,30.2584746 C3.18497817,38.1005932 3.29816594,46.2249153 3.38934498,54.2771186 Z" id="Path"></path>
                <path d="M69.1325764,33.0209322 C69.5453211,31.1888228 69.683067,29.3057568 69.54131,27.4333051 C69.4795952,28.3646031 69.3429105,29.2894463 69.1325764,30.1988983 C68.3339738,33.6480508 66.4569432,36.7554237 65.758952,40.2139831 C65.4581584,41.7394471 65.3734901,43.2994589 65.5074236,44.8483898 C65.5574795,44.2400788 65.6414522,43.6350184 65.758952,43.0360169 C66.4569432,39.5774576 68.3339738,36.4575424 69.1325764,33.0209322 Z" id="Path"></path>
                <path d="M58.5935371,25.4108475 C58.7470436,24.9654779 58.8297894,24.4989123 58.8387773,24.0280508 C58.8387773,22.8333898 58.2854148,21.7139831 57.7351965,20.6541525 C54.3710044,14.1572034 50.189345,7.20872881 43.1842795,5.00754237 C41.2663755,4.40550847 39.1441048,4.1609322 37.5814847,2.89728814 C36.7690959,2.19959322 36.2727109,1.2049898 36.2043668,0.137966102 C32.7961572,6.37779661 26.9418341,11.1501695 20.5970306,14.5021186 C18.0817467,15.8347458 15.3558079,17.0607627 13.6391266,19.3309322 C12.0262009,21.4631356 11.5577293,24.2381356 11.8375546,26.9222034 C11.9961602,25.1995958 12.6186292,23.5517558 13.6391266,22.1529661 C15.3558079,19.8827966 18.0786026,18.6567797 20.5970306,17.3241525 C26.9418341,13.9722034 32.7961572,9.19983051 36.2043668,2.96 C36.2727109,4.0270237 36.7690959,5.02162712 37.5814847,5.71932203 C39.1535371,6.97355932 41.2663755,7.22754237 43.1842795,7.82957627 C50.1767686,10.0244915 54.3710044,16.9792373 57.7351965,23.4761864 C58.0762517,24.095411 58.3634179,24.7426706 58.5935371,25.4108475 Z" id="Path"></path>
                <path d="M60.4454148,58.4819492 C57.4270742,55.6599153 55.7638428,51.7090678 54.4999127,47.7833051 C53.7415464,45.5780622 53.2352827,43.2944725 52.9907424,40.9759322 C52.6983406,44.1961864 53.5000873,47.4916949 54.4999127,50.605339 C55.7575546,54.5311017 57.4270742,58.4882203 60.4454148,61.3039831 C63.4637555,64.1197458 68.1453275,65.5182203 71.8585153,63.6995763 C71.4120524,62.9376271 70.9687336,62.1631356 70.528559,61.3823729 C67.079476,62.3512712 63.1179039,60.9716102 60.4454148,58.4819492 Z" id="Path"></path>
                <path d="M21.6723144,58.0022034 C21.0655022,62.8404237 18.0974672,68.6945763 13.2649782,70.6072881 C9.91021834,71.9336441 5.13432314,70.4097458 1.49030568,69.5662712 C1.17671355,70.4464234 0.817808804,71.3098586 0.415021834,72.1531356 C4.15021834,72.8931356 9.56751092,74.8905085 13.2649782,73.429322 C18.0974672,71.5166102 21.0655022,65.6624576 21.6723144,60.8242373 C21.797363,59.6137754 21.8205007,58.3949929 21.7414847,57.180678 C21.7226201,57.4534746 21.6943231,57.7294068 21.6723144,58.0022034 Z" id="Path"></path>
            </g>
            <path d="M210.715925,162.596762 C205.760947,161.824197 200.732207,160.332675 195.818922,161.335432 C192.971013,161.915644 190.366843,163.309413 188,164.993289 C189.302085,166.018119 190.822252,166.932583 191.649685,168.357886 C192.163295,169.344028 192.549022,170.389639 192.797829,171.470218 C193.31738,173.362213 193.840138,175.292048 193.920316,177.259722 C194.000493,179.227397 193.599605,181.277058 192.406562,182.86318 C198.654003,183.468619 204.709017,181.955023 210.802516,180.476113 C211.499393,180.355844 212.162693,180.092609 212.749229,179.703549 C213.711361,178.959364 213.993586,177.634968 214,176.427244 C214,174.27037 213.384236,172.167103 212.75885,170.098522 C212.014802,167.616855 211.46318,165.062662 210.715925,162.596762 Z" id="Path" fill="#FFFFFF" fill-rule="nonzero"></path>
            <path d="M243.097445,109.200305 C245.516364,109.514503 247.392839,111.459389 248.774177,113.457688 C252.650124,119.018993 254.321606,125.761682 256.182313,132.275006 C258.495056,140.375031 261.214631,148.347281 264.341039,156.191758 C265.014156,158.003386 265.832567,159.758089 266.788341,161.438864 C267.567315,162.736502 268.513437,163.983868 268.857195,165.457457 C269.689782,169.020462 266.741035,172.369813 263.666138,174.355544 C262.027203,175.456231 260.237406,176.315517 258.352086,176.906832 C256.516609,177.453536 254.602289,177.660907 252.700584,177.868278 L235.194172,179.753466 C227.136366,180.626936 219.006024,181.500406 210.945065,180.658356 C210.437312,178.898847 211.433894,177.654623 211.361358,175.822849 C211.310898,174.512643 210.73061,173.293555 210.213397,172.087034 C209.259663,169.938167 208.629484,167.660831 208.343229,165.328636 C208.25177,164.470875 208.220233,163.591121 207.892244,162.793058 C207.564255,161.994995 206.860971,161.278623 206,161.222068 C210.73061,160.753913 214.32272,159.864732 219.05333,159.393435 C220.809964,159.217484 222.635979,159.01954 224.134006,158.089514 C225.991559,156.936407 227.032293,154.856416 227.858573,152.839265 C229.90535,147.843517 231.223614,142.338768 230.148188,137.047674 C229.265141,132.7086 226.80207,128.668013 226.814685,124.240963 C226.814685,121.604842 227.716655,119.050413 228.782619,116.637372 C229.911658,114.086084 231.384454,111.478241 233.863294,110.183745 C236.342134,108.889249 240.300078,108.823268 243.097445,109.200305 Z" id="Path" fill="#E08AF7" fill-rule="nonzero"></path>
            <path d="M243.097445,109.200305 C245.516364,109.514503 247.392839,111.459389 248.774177,113.457688 C252.650124,119.018993 254.321606,125.761682 256.182313,132.275006 C258.495056,140.375031 261.214631,148.347281 264.341039,156.191758 C265.014156,158.003386 265.832567,159.758089 266.788341,161.438864 C267.567315,162.736502 268.513437,163.983868 268.857195,165.457457 C269.689782,169.020462 266.741035,172.369813 263.666138,174.355544 C262.027203,175.456231 260.237406,176.315517 258.352086,176.906832 C256.516609,177.453536 254.602289,177.660907 252.700584,177.868278 L235.194172,179.753466 C227.136366,180.626936 219.006024,181.500406 210.945065,180.658356 C210.437312,178.898847 211.433894,177.654623 211.361358,175.822849 C211.310898,174.512643 210.73061,173.293555 210.213397,172.087034 C209.259663,169.938167 208.629484,167.660831 208.343229,165.328636 C208.25177,164.470875 208.220233,163.591121 207.892244,162.793058 C207.564255,161.994995 206.860971,161.278623 206,161.222068 C210.73061,160.753913 214.32272,159.864732 219.05333,159.393435 C220.809964,159.217484 222.635979,159.01954 224.134006,158.089514 C225.991559,156.936407 227.032293,154.856416 227.858573,152.839265 C229.90535,147.843517 231.223614,142.338768 230.148188,137.047674 C229.265141,132.7086 226.80207,128.668013 226.814685,124.240963 C226.814685,121.604842 227.716655,119.050413 228.782619,116.637372 C229.911658,114.086084 231.384454,111.478241 233.863294,110.183745 C236.342134,108.889249 240.300078,108.823268 243.097445,109.200305 Z" id="Path" fill="#000000" fill-rule="nonzero" opacity="0.08"></path>
            <path d="M133.416854,105.873331 C134.5796,103.154466 135.761565,100.347285 135.793597,97.3981683 C135.828832,94.2093373 134.512334,91.1813671 133.506542,88.153397 C132.262741,84.4486099 131.434595,80.6208664 131.036907,76.7385804 C130.954395,76.3666752 131.011281,75.9779328 131.197065,75.6440953 C131.462927,75.2750615 131.975432,75.1993622 132.427078,75.101584 C134.643663,74.6032306 136.318915,72.8400688 137.702679,71.0642905 C139.849458,68.3217953 141.662025,65.3407318 143.103204,62.1822447 C144.16345,59.8576468 145.598465,57.0220789 148.186617,57 C147.14465,61.8193086 145.85316,66.5830134 144.317201,71.2724634 C147.02387,70.5911701 149.596006,69.6007716 152.302675,68.9194783 C152.832542,68.7547083 153.387517,68.6821287 153.942692,68.7049971 C155.56349,68.8721663 156.556469,71.0327491 155.614741,72.3417154 C156.937645,73.868317 159.138215,74.2783546 160.86792,75.3255276 C162.597626,76.3727006 163.840451,78.9654001 162.302935,80.2806746 C162.001838,80.5361596 161.620662,80.7159453 161.402848,81.0439754 C160.659715,82.1731559 162.479109,83.4695057 162.32856,84.8068591 C162.20684,85.9013442 160.781435,86.4123141 159.701971,86.1221337 C158.622506,85.8319532 157.780076,85.037111 156.819128,84.453596 C155.858181,83.8700809 154.602543,83.5073553 153.670424,84.1129493 C153.420577,87.0809909 153.151512,90.1058069 151.847826,92.8089011 C151.370556,93.7961455 150.758753,94.7203072 150.374374,95.7454013 C150.006731,96.8631521 149.778696,98.0208308 149.695304,99.1928714 L148.532558,109.661447 C142.984687,110.755932 138.010183,109.118936 133.416854,105.873331 Z" id="Path" fill="#EFB7B9" fill-rule="nonzero"></path>
            <path d="M132.154772,114.921912 L131.159171,108.155381 C131.063995,107.604469 131.010783,107.047073 131,106.488037 C131,104.920985 131.686621,103.426017 132.351396,102 C137.859972,104.582502 143.814852,105.500795 149.891451,105.503929 C150.69355,105.503929 151.608005,105.42871 152.107366,104.798755 C153.140419,105.992849 153.171629,107.914055 152.731567,109.430961 C152.291505,110.947868 151.445712,112.314337 150.883931,113.793634 C150.59992,114.542685 150.368965,115.360687 149.82591,115.937362 C148.983238,116.849386 147.616238,117.006091 146.374077,116.999823 C145.067303,116.991555 143.763843,116.866745 142.479061,116.626865 C139.152068,116.006312 135.481765,114.323298 132.154772,114.921912 Z" id="Path" fill="#FFFFFF" fill-rule="nonzero"></path>
            <path d="M153.116815,114.25971 C148.733976,113.770283 144.37993,113.080065 140.054677,112.189057 C137.933639,111.752965 135.793406,111.266675 133.630779,111.351384 C132.223152,111.407856 130.709953,111.683943 129.471881,111 C130.677962,115.025224 130.751542,119.266925 129.308724,123.216852 C128.454551,125.569866 127.152496,127.762876 126.525462,130.184912 C125.220208,135.251737 127.011733,140.776615 125.380166,145.752457 C125.207637,146.402668 124.868449,146.998821 124.394827,147.484276 C123.895759,147.932917 123.21434,148.165081 122.753662,148.651371 C122.075441,149.366687 122.033852,150.442799 122.030653,151.418516 L122.001861,160.061923 C121.982666,165.56484 122.056246,171.400316 125.018661,176.062423 C128.396966,181.395922 135.508681,184.15993 141.699041,182.537919 C143.344971,182.125171 144.886859,181.385138 146.22904,180.363733 C148.378871,178.688387 149.748108,176.26635 151.088552,173.907061 C152.688129,171.083444 154.287705,168.197079 154.802768,165.018941 C155.167472,162.769459 154.962726,160.472916 154.700395,158.210885 C153.254378,145.661474 150.11601,133.218733 150.791031,120.622261 C150.892094,118.319505 151.70306,116.10098 153.116815,114.25971 L153.116815,114.25971 Z" id="Path" fill="#E08AF7" fill-rule="nonzero"></path>
            <path d="M171.371888,166.416325 C169.166935,166.543582 166.946118,166.670838 164.750682,166.416325 C163.164384,166.22544 161.616158,165.834125 160.042551,165.566885 C151.345729,164.158458 142.469418,166.63154 135.743643,172.336949 C134.525367,173.380455 133.2944,174.98071 133.96699,176.440982 C134.690341,178.012604 136.90164,177.968064 138.605324,177.675373 C136.766403,178.556064 135.142072,179.829824 133.846431,181.40718 C133.370542,181.98938 132.920033,182.679748 133.012039,183.433745 C133.205567,185.008548 135.337551,185.294876 136.914331,185.158075 C136.40037,185.711642 136.746183,186.69152 137.399738,187.066927 C138.053292,187.442335 138.865477,187.365981 139.604692,187.22918 C141.238931,186.929079 142.81799,186.380878 144.287442,185.603474 C143.989218,186.382922 144.506351,187.29599 145.239221,187.684123 C145.97209,188.072256 146.86359,188.043623 147.685292,187.910004 C151.562203,187.27372 154.798251,184.569512 158.579984,183.506917 C164.626951,181.81122 170.953106,184.515428 177.238017,184.706313 C179.205026,184.76676 181.222797,184.56633 183.015313,183.751887 C185.213922,182.749739 186.987402,180.86952 189.309742,180.201421 C191.889062,179.463332 194.849094,180.312771 197.209505,179.037021 C198.925879,178.111228 197.377652,170.975301 196.939834,169.600927 C196.137167,167.087605 195.331328,165.42054 192.65683,165.166026 C185.889684,164.50111 178.189796,166.021829 171.371888,166.416325 Z" id="Path" fill="#EFB7B9" fill-rule="nonzero"></path>
            <path d="M188,165.164093 C188,165.164093 198.403544,173.693495 192.401128,183 L204,179.120729 L204,170.978318 C204,170.591327 199.59565,164.777102 199.59565,164.777102 L194.392267,164 L188,165.164093 Z" id="Path" fill="#FFFFFF" fill-rule="nonzero"></path>
            <path d="M81.0502335,164 L84.9497665,164 C89.3957877,164 93,167.604212 93,172.050233 L93,184 L73,184 L73,172.050233 C73,169.915179 73.8481472,167.86757 75.3578588,166.357859 C76.8675704,164.848147 78.9151788,164 81.0502335,164 Z" id="Path" fill="#3F3D56" fill-rule="nonzero"></path>
            <path d="M81.0502335,164 L84.9497665,164 C89.3957877,164 93,167.604212 93,172.050233 L93,184 L73,184 L73,172.050233 C73,169.915179 73.8481472,167.86757 75.3578588,166.357859 C76.8675704,164.848147 78.9151788,164 81.0502335,164 Z" id="Path" fill="#000000" fill-rule="nonzero" opacity="0.1"></path>
            <circle id="Oval" fill="#3F3D56" fill-rule="nonzero" cx="82.5" cy="167.5" r="1.5"></circle>
            <circle id="Oval" fill="#3F3D56" fill-rule="nonzero" cx="82.5" cy="165.5" r="1.5"></circle>
            <circle id="Oval" fill="#3F3D56" fill-rule="nonzero" cx="82.5" cy="163.5" r="1.5"></circle>
            <circle id="Oval" fill="#3F3D56" fill-rule="nonzero" cx="82.5" cy="161.5" r="1.5"></circle>
            <circle id="Oval" fill="#3F3D56" fill-rule="nonzero" cx="82.5" cy="159.5" r="1.5"></circle>
            <circle id="Oval" fill="#3F3D56" fill-rule="nonzero" cx="82.5" cy="157.5" r="1.5"></circle>
            <circle id="Oval" fill="#3F3D56" fill-rule="nonzero" cx="82.5" cy="155.5" r="1.5"></circle>
            <circle id="Oval" fill="#3F3D56" fill-rule="nonzero" cx="84.5" cy="156.5" r="1.5"></circle>
            <circle id="Oval" fill="#3F3D56" fill-rule="nonzero" cx="86.5" cy="155.5" r="1.5"></circle>
            <circle id="Oval" fill="#3F3D56" fill-rule="nonzero" cx="87.5" cy="154.5" r="1.5"></circle>
            <circle id="Oval" fill="#3F3D56" fill-rule="nonzero" cx="82.5" cy="153.5" r="1.5"></circle>
            <circle id="Oval" fill="#3F3D56" fill-rule="nonzero" cx="82.5" cy="151.5" r="1.5"></circle>
            <circle id="Oval" fill="#3F3D56" fill-rule="nonzero" cx="82.5" cy="149.5" r="1.5"></circle>
            <circle id="Oval" fill="#3F3D56" fill-rule="nonzero" cx="82.5" cy="147.5" r="1.5"></circle>
            <path d="M88.8613761,142.398759 C88.4794021,142.454207 88.0974281,142.494252 87.7154541,142.518895 C88.0705661,142.20905 88.4002067,141.871172 88.7011935,141.508522 C88.4890783,140.865204 88.1772347,140.259194 87.7770628,139.712645 C87.3975844,139.925806 86.9780278,140.057965 86.5448885,140.100776 C86.1659949,140.156223 85.7840209,140.196269 85.4020469,140.223992 C85.9041579,139.814298 86.3723841,139.198217 86.8652538,138.683789 C84.5893704,136.621043 81.1801716,136.433055 78.6912855,138.233063 C76.2023995,140.033071 75.3133428,143.329638 76.5596641,146.136981 C77.8059854,148.944325 80.8474137,150.495984 83.8518577,149.857273 C86.8563018,149.218561 89.0034873,146.56386 89,143.492304 C89,143.1174 88.9671199,142.743219 88.9014218,142.374116 L88.8613761,142.398759 Z" id="Path" fill="#F7DD8A" fill-rule="nonzero"></path>
            <path d="M94.3627508,149.782703 C93.9552882,150.033382 93.4953234,150.186333 93.0188795,150.229577 C92.6234342,150.287445 92.2247738,150.332454 91.8261134,150.358174 C92.2498293,149.978124 92.6452526,149.567668 93.0092345,149.130075 C91.0129021,148.609594 88.948231,149.692968 88.2422194,151.631422 C87.5362078,153.569876 88.4205495,155.727264 90.2840314,156.612505 C92.1475133,157.497745 94.3785914,156.820328 95.4352551,155.04845 C96.4919188,153.276572 96.0273999,150.991715 94.3627508,149.773059 L94.3627508,149.782703 Z" id="Path" fill="#F7DD8A" fill-rule="nonzero"></path>
            <circle id="Oval" fill="#3F3D56" fill-rule="nonzero" cx="79.5" cy="156.5" r="1.5"></circle>
            <circle id="Oval" fill="#3F3D56" fill-rule="nonzero" cx="78.5" cy="155.5" r="1.5"></circle>
            <circle id="Oval" fill="#3F3D56" fill-rule="nonzero" cx="76.5" cy="154.5" r="1.5"></circle>
            <path d="M70.6372492,149.782703 C71.0447118,150.033382 71.5046766,150.186333 71.9811205,150.229577 C72.3765658,150.287445 72.7752262,150.332454 73.1738866,150.358174 C72.7493716,149.978953 72.3538892,149.568436 71.9907655,149.130075 C73.9870979,148.609594 76.051769,149.692968 76.7577806,151.631422 C77.4637922,153.569876 76.5794505,155.727264 74.7159686,156.612505 C72.8524867,157.497745 70.6214086,156.820328 69.5647449,155.04845 C68.5080812,153.276572 68.9726001,150.991715 70.6372492,149.773059 L70.6372492,149.782703 Z" id="Path" fill="#F7DD8A" fill-rule="nonzero"></path>
            <path d="M81.0560026,165 L84.953653,165 C89.3975278,165 93,168.604217 93,173.050237 L93,183.634681 C93,184.388726 92.3890207,185 91.6353396,185 L74.3646604,185 C74.00273,185 73.6556233,184.856154 73.3996998,184.600107 C73.1437763,184.34406 73,183.996786 73,183.634681 L73,173.050237 C73,170.913508 73.8490615,168.864435 75.3601332,167.354446 C76.871205,165.844457 78.9203062,164.997442 81.0560026,165 Z" id="Path" fill="#3F3D56" fill-rule="nonzero"></path>
            <g id="Group" opacity="0.1" transform="translate(75.000000, 137.000000)" fill="#000000" fill-rule="nonzero">
                <path d="M13.7851163,6.07263158 C13.6212973,6.24237204 13.4473553,6.40264724 13.264186,6.55263158 C13.4497674,6.55263158 13.632093,6.52421053 13.8176744,6.50526316 C13.8111628,6.36 13.8013953,6.21473684 13.7851163,6.07263158 Z" id="Path"></path>
                <path d="M10.8353488,4.19684211 C11.2423256,4.17157895 11.6427907,4.13052632 12.0465116,4.07368421 C12.4087195,4.0291668 12.762706,3.93562518 13.0981395,3.79578947 C12.9334603,3.48008553 12.7440681,3.17709235 12.5316279,2.88947368 C12.3291177,3.00905485 12.1097738,3.09947241 11.8804651,3.15789474 C11.5611986,3.53067387 11.2117129,3.87809666 10.8353488,4.19684211 L10.8353488,4.19684211 Z" id="Path"></path>
                <path d="M0.888837209,7.56631579 C0.883899845,5.12745316 2.25439608,2.88122448 4.46092198,1.71170705 C6.66744787,0.54218962 9.35669922,0.63664407 11.4702326,1.95789474 L11.5744186,1.85052632 C9.73189932,0.260442045 7.15198066,-0.249660509 4.81476841,0.514005565 C2.47755616,1.27767164 0.74174126,3.19790684 0.266756228,5.54521777 C-0.208228803,7.89252869 0.650511775,10.3066746 2.51674419,11.8705263 C1.46378004,10.6691349 0.886630351,9.14314246 0.888837209,7.56631579 Z" id="Path"></path>
            </g>
            <g id="Group" opacity="0.1" transform="translate(88.000000, 150.000000)" fill="#000000" fill-rule="nonzero">
                <path d="M3.90153846,1.95142857 C4.28307692,1.92857143 4.66461538,1.89142857 5.04307692,1.84 C5.49928856,1.8005974 5.93949096,1.66369235 6.32923077,1.44 C7.20293138,2.03750008 7.76218896,2.95148676 7.86769231,3.95428571 C7.88261661,3.83001219 7.88980805,3.70504269 7.88923077,3.58 C7.89511189,2.45458459 7.32388657,1.39373755 6.35076923,0.722857143 C5.96080657,0.945638852 5.52059666,1.08156833 5.06461538,1.12 L4.75692308,1.15714286 C4.49435011,1.44205174 4.20836342,1.70761082 3.90153846,1.95142857 Z" id="Path"></path>
                <path d="M4.05538462,0.74 C4.1830092,0.74135244 4.31042577,0.749939848 4.43692308,0.765714286 C4.63692308,0.568571429 4.83384615,0.357142857 5.03384615,0.151428571 C3.88731998,-0.132949044 2.66357039,0.0942506866 1.72294474,0.76612615 C0.782319091,1.43800161 0.231930073,2.47804374 0.233841167,3.58 C0.233841167,3.7 0.233841167,3.81714286 0.252307692,3.93428571 C0.448298562,2.12054257 2.09231453,0.739698368 4.05538462,0.74 Z" id="Path"></path>
            </g>
            <g id="Group" opacity="0.1" transform="translate(69.000000, 150.000000)" fill="#000000" fill-rule="nonzero">
                <path d="M4.176,1.95142857 C3.7792,1.92857143 3.3824,1.89142857 2.9888,1.84 C2.51433989,1.8005974 2.0565294,1.66369235 1.6512,1.44 C0.74255137,2.03750008 0.160923486,2.95148676 0.0512,3.95428571 C0.0356787227,3.83001219 0.0281996322,3.70504269 0.0288,3.58 C0.0226836298,2.45458459 0.616757971,1.39373755 1.6288,0.722857143 C2.03436116,0.945638852 2.49217947,1.08156833 2.9664,1.12 L3.2864,1.15714286 C3.55775102,1.44347277 3.85531049,1.70915088 4.176,1.95142857 L4.176,1.95142857 Z" id="Path"></path>
                <path d="M4.016,0.74 C3.88221249,0.741459727 3.74864176,0.750046417 3.616,0.765714286 C3.4112,0.568571429 3.2064,0.357142857 2.9984,0.151428571 C4.19078723,-0.132949044 5.4634868,0.0942506866 6.44173747,0.76612615 C7.41998815,1.43800161 7.99239272,2.47804374 7.99040519,3.58 C7.99040519,3.7 7.99040519,3.81714286 7.9712,3.93428571 C7.7673695,2.12054257 6.05759289,0.739698368 4.016,0.74 Z" id="Path"></path>
            </g>
            <path d="M61.7287919,189 L31.2928276,189 C30.5788187,189 30,188.420872 30,187.706481 L30,173.293871 C30,172.850186 30.2270479,172.437399 30.6018429,172.20026 C30.9766378,171.963121 31.4467554,171.934725 31.8473416,172.125028 C40.5918403,176.276757 50.0123475,177.701187 61.1306645,172.190483 C61.5313138,171.992782 62.0054857,172.015478 62.3854426,172.250544 C62.7653994,172.485609 62.9975656,172.899899 63,173.346858 L63,187.684662 C63.0056453,188.027739 62.8749999,188.359078 62.6366268,188.605762 C62.3982538,188.852446 62.0716869,188.994262 61.7287919,189 Z" id="Path" fill="#003B50" fill-rule="nonzero"></path>
            <path d="M61.7287919,189 L31.2928276,189 C30.5788187,189 30,188.420872 30,187.706481 L30,173.293871 C30,172.850186 30.2270479,172.437399 30.6018429,172.20026 C30.9766378,171.963121 31.4467554,171.934725 31.8473416,172.125028 C40.5918403,176.276757 50.0123475,177.701187 61.1306645,172.190483 C61.5313138,171.992782 62.0054857,172.015478 62.3854426,172.250544 C62.7653994,172.485609 62.9975656,172.899899 63,173.346858 L63,187.684662 C63.0056453,188.027739 62.8749999,188.359078 62.6366268,188.605762 C62.3982538,188.852446 62.0716869,188.994262 61.7287919,189 Z" id="Path" fill="#00485A" fill-rule="nonzero" opacity="0.1"></path>
            <ellipse id="Oval" fill="#3F3D56" fill-rule="nonzero" cx="47" cy="175.5" rx="2" ry="2.5"></ellipse>
            <ellipse id="Oval" fill="#3F3D56" fill-rule="nonzero" cx="47" cy="172.5" rx="2" ry="2.5"></ellipse>
            <ellipse id="Oval" fill="#3F3D56" fill-rule="nonzero" cx="47" cy="169.5" rx="2" ry="2.5"></ellipse>
            <ellipse id="Oval" fill="#3F3D56" fill-rule="nonzero" cx="47" cy="166.5" rx="2" ry="2.5"></ellipse>
            <ellipse id="Oval" fill="#3F3D56" fill-rule="nonzero" cx="47" cy="163.5" rx="2" ry="2.5"></ellipse>
            <ellipse id="Oval" fill="#3F3D56" fill-rule="nonzero" cx="47" cy="160.5" rx="2" ry="2.5"></ellipse>
            <ellipse id="Oval" fill="#3F3D56" fill-rule="nonzero" cx="47" cy="157.5" rx="2" ry="2.5"></ellipse>
            <path d="M53.065109,138.138333 C53.3198615,137.821011 53.5530017,137.487941 53.7630477,137.141239 L48.8287834,136.354887 L54.1655798,136.392632 C55.2062807,134.207898 55.2685481,131.703489 54.3376298,129.472733 L47.1797003,133.07108 L53.782525,128.352967 C52.0973552,125.529171 48.9259559,123.853451 45.5633923,124.010098 C42.2008287,124.166745 39.2099721,126.129539 37.8121616,129.096957 C36.4143511,132.064375 36.8435711,135.539692 38.9245464,138.103734 C38.5234062,138.595076 38.1793924,139.127771 37.8987388,139.692165 L44.3002975,142.950809 L37.4832218,140.717569 C36.5125379,143.506257 37.0581324,146.581179 38.9342851,148.895631 C36.0337287,152.468782 36.4545769,157.601937 39.9009781,160.686544 C43.3473793,163.771152 48.6617534,163.771152 52.1081546,160.686544 C55.5545558,157.601937 55.975404,152.468782 53.0748477,148.895631 C55.6411452,145.73391 55.6411452,141.281182 53.0748477,138.119461 L53.065109,138.138333 Z" id="Path" fill="#D0DF00" fill-rule="nonzero"></path>
            <path d="M38,143.130885 C37.9973395,145.123505 38.6382818,147.058746 39.8191224,148.623086 C37.0783175,152.265283 37.475987,157.497628 40.7325737,160.64184 C43.9891605,163.786053 49.0108395,163.786053 52.2674263,160.64184 C55.524013,157.497628 55.9216825,152.265283 53.1808776,148.623086 C54.3188967,147.112972 38,142.13376 38,143.130885 Z" id="Path" fill="#000000" fill-rule="nonzero" opacity="0.1"></path>
            <path d="M61.7289563,190 L31.2928343,190 C30.5788217,190 30,189.413166 30,188.68927 L30,173.311087 C30,172.861498 30.2270491,172.443219 30.601846,172.202924 C30.9766429,171.96263 31.4467629,171.933856 31.8473512,172.126692 C40.5918951,176.333662 47.5264711,181.238636 61.1308258,172.193018 C61.937679,171.656092 63,172.388838 63,173.364779 L63,188.682953 C63.0034965,189.400759 62.4368704,189.987901 61.7289563,190 Z" id="Path" fill="#00485A" fill-rule="nonzero"></path>
            <polygon id="Path" fill="#9C9CA1" fill-rule="nonzero" points="291 185.749965 245.51357 191.70342 243.238301 192 221 180.249184 221 177.498794 290.495086 170"></polygon>
            <polygon id="Path" fill="#939498" fill-rule="nonzero" points="234 180.852185 283 175 282.497919 184.164503 244.330323 187"></polygon>
            <path d="M246,188.625081 L246,191.67735 L243.679882,192 L221,179.842547 L221,177 L242.64693,188.615401 C242.64693,188.615401 245.485133,188.883201 246,188.625081 Z" id="Path" fill="#000000" fill-rule="nonzero" opacity="0.4"></path>
            <path d="M254.330266,140.656479 L244.06923,188.311732 C243.859307,189.27996 244.133229,190.289926 244.803409,191.018692 C245.473588,191.747458 246.456079,192.103738 247.436727,191.973612 L312.354587,183.366765 C313.508445,183.214388 314.47395,182.415096 314.840573,181.308744 L328.846444,139.004981 C329.160601,138.052123 328.986531,137.005445 328.380959,136.206033 C327.775387,135.406621 326.81586,134.956844 325.815062,135.003273 L257.15871,138.268158 C255.785653,138.333318 254.626555,139.312052 254.330266,140.656479 L254.330266,140.656479 Z" id="Path" fill="#3F3D56" fill-rule="nonzero"></path>
        </g>
        <g id="Group-2" transform="translate(401.000000, 151.000000)">
            <path d="M111.5,36.5 C110.395431,36.5 109.5,37.3954305 109.5,38.5 L109.5,199.5 C109.5,200.604569 110.395431,201.5 111.5,201.5 C112.604569,201.5 113.5,200.604569 113.5,199.5 L113.5,38.5 C113.5,37.3954305 112.604569,36.5 111.5,36.5 Z" id="Rectangle-Copy-4" stroke="#008796" stroke-width="3" transform="translate(111.500000, 119.000000) rotate(-270.000000) translate(-111.500000, -119.000000) "></path>
            <path d="M111.5,35.5 C110.395431,35.5 109.5,36.3954305 109.5,37.5 L109.5,223.5 C109.5,224.604569 110.395431,225.5 111.5,225.5 C112.604569,225.5 113.5,224.604569 113.5,223.5 L113.5,37.5 C113.5,36.3954305 112.604569,35.5 111.5,35.5 Z" id="Rectangle-Copy-6" stroke="#008796" stroke-width="3" transform="translate(111.500000, 130.500000) rotate(-270.000000) translate(-111.500000, -130.500000) "></path>
            <path d="M113.214978,0.813887774 L183.95684,34.3862968 C185.952633,35.3334528 186.802721,37.7191846 185.855565,39.7149778 C185.193268,41.110532 183.786598,42 182.241862,42 L40.7581382,42 C38.5489992,42 36.7581382,40.209139 36.7581382,38 C36.7581382,36.4552642 37.6476062,35.0485937 39.0431604,34.3862968 L109.785022,0.813887774 C110.870332,0.298825429 112.129668,0.298825429 113.214978,0.813887774 Z" id="Triangle" stroke="#008796" stroke-width="3"></path>
            <path d="M111.5,-32.5 C110.395431,-32.5 109.5,-31.6045695 109.5,-30.5 L109.5,130.5 C109.5,131.604569 110.395431,132.5 111.5,132.5 C112.604569,132.5 113.5,131.604569 113.5,130.5 L113.5,-30.5 C113.5,-31.6045695 112.604569,-32.5 111.5,-32.5 Z" id="Rectangle-Copy-5" stroke="#008796" stroke-width="3" transform="translate(111.500000, 50.000000) rotate(-270.000000) translate(-111.500000, -50.000000) "></path>
            <mask id="mask-2" fill="white">
                <use xlink:href="#path-1"></use>
            </mask>
            <use id="Mask" fill="#008796" fill-rule="nonzero" xlink:href="#path-1"></use>
        </g>
    </g>
</svg>