<svg width="1200" height="600" viewBox="0 0 1200 600" fill="none" xmlns="http://www.w3.org/2000/svg">
<g id="institute_hero">
<rect width="1200" height="600" fill="#870AF3" fill-opacity="0.1"/>
<g id="Group 43">
<path id="Teaching teachers" d="M112.788 300.7H100.58V335H93.048V300.7H80.84V294.512H112.788V300.7ZM128.776 317.332C128.776 316.436 128.645 315.596 128.384 314.812C128.141 314.009 127.768 313.309 127.264 312.712C126.76 312.115 126.116 311.648 125.332 311.312C124.566 310.957 123.67 310.78 122.644 310.78C120.646 310.78 119.069 311.349 117.912 312.488C116.773 313.627 116.045 315.241 115.728 317.332H128.776ZM115.588 321.504C115.7 322.979 115.961 324.257 116.372 325.34C116.782 326.404 117.324 327.291 117.996 328C118.668 328.691 119.461 329.213 120.376 329.568C121.309 329.904 122.336 330.072 123.456 330.072C124.576 330.072 125.537 329.941 126.34 329.68C127.161 329.419 127.87 329.129 128.468 328.812C129.084 328.495 129.616 328.205 130.064 327.944C130.53 327.683 130.978 327.552 131.408 327.552C131.986 327.552 132.416 327.767 132.696 328.196L134.684 330.716C133.918 331.612 133.06 332.368 132.108 332.984C131.156 333.581 130.157 334.067 129.112 334.44C128.085 334.795 127.03 335.047 125.948 335.196C124.884 335.345 123.848 335.42 122.84 335.42C120.842 335.42 118.985 335.093 117.268 334.44C115.55 333.768 114.057 332.788 112.788 331.5C111.518 330.193 110.52 328.588 109.792 326.684C109.064 324.761 108.7 322.54 108.7 320.02C108.7 318.06 109.017 316.221 109.652 314.504C110.286 312.768 111.192 311.265 112.368 309.996C113.562 308.708 115.009 307.691 116.708 306.944C118.425 306.197 120.357 305.824 122.504 305.824C124.314 305.824 125.985 306.113 127.516 306.692C129.046 307.271 130.362 308.12 131.464 309.24C132.565 310.341 133.424 311.704 134.04 313.328C134.674 314.933 134.992 316.772 134.992 318.844C134.992 319.889 134.88 320.599 134.656 320.972C134.432 321.327 134.002 321.504 133.368 321.504H115.588ZM155.358 322.736C153.36 322.829 151.68 323.007 150.318 323.268C148.955 323.511 147.863 323.828 147.042 324.22C146.22 324.612 145.632 325.069 145.278 325.592C144.923 326.115 144.746 326.684 144.746 327.3C144.746 328.513 145.1 329.381 145.81 329.904C146.538 330.427 147.48 330.688 148.638 330.688C150.056 330.688 151.279 330.436 152.306 329.932C153.351 329.409 154.368 328.625 155.358 327.58V322.736ZM139.51 310.276C142.814 307.252 146.79 305.74 151.438 305.74C153.118 305.74 154.62 306.02 155.946 306.58C157.271 307.121 158.391 307.887 159.306 308.876C160.22 309.847 160.911 311.013 161.378 312.376C161.863 313.739 162.106 315.232 162.106 316.856V335H158.97C158.316 335 157.812 334.907 157.458 334.72C157.103 334.515 156.823 334.113 156.618 333.516L156.002 331.444C155.274 332.097 154.564 332.676 153.874 333.18C153.183 333.665 152.464 334.076 151.718 334.412C150.971 334.748 150.168 335 149.31 335.168C148.47 335.355 147.536 335.448 146.51 335.448C145.296 335.448 144.176 335.289 143.15 334.972C142.123 334.636 141.236 334.141 140.49 333.488C139.743 332.835 139.164 332.023 138.754 331.052C138.343 330.081 138.138 328.952 138.138 327.664C138.138 326.936 138.259 326.217 138.502 325.508C138.744 324.78 139.136 324.089 139.678 323.436C140.238 322.783 140.956 322.167 141.834 321.588C142.711 321.009 143.784 320.505 145.054 320.076C146.342 319.647 147.835 319.301 149.534 319.04C151.232 318.76 153.174 318.592 155.358 318.536V316.856C155.358 314.933 154.947 313.515 154.126 312.6C153.304 311.667 152.119 311.2 150.57 311.2C149.45 311.2 148.516 311.331 147.77 311.592C147.042 311.853 146.398 312.152 145.838 312.488C145.278 312.805 144.764 313.095 144.298 313.356C143.85 313.617 143.346 313.748 142.786 313.748C142.3 313.748 141.89 313.627 141.554 313.384C141.218 313.123 140.947 312.824 140.742 312.488L139.51 310.276ZM189.199 312.348C188.994 312.609 188.788 312.815 188.583 312.964C188.396 313.113 188.116 313.188 187.743 313.188C187.388 313.188 187.043 313.085 186.707 312.88C186.371 312.656 185.97 312.413 185.503 312.152C185.036 311.872 184.476 311.629 183.823 311.424C183.188 311.2 182.395 311.088 181.443 311.088C180.23 311.088 179.166 311.312 178.251 311.76C177.336 312.189 176.571 312.815 175.955 313.636C175.358 314.457 174.91 315.456 174.611 316.632C174.312 317.789 174.163 319.105 174.163 320.58C174.163 322.111 174.322 323.473 174.639 324.668C174.975 325.863 175.451 326.871 176.067 327.692C176.683 328.495 177.43 329.111 178.307 329.54C179.184 329.951 180.174 330.156 181.275 330.156C182.376 330.156 183.263 330.025 183.935 329.764C184.626 329.484 185.204 329.185 185.671 328.868C186.138 328.532 186.539 328.233 186.875 327.972C187.23 327.692 187.622 327.552 188.051 327.552C188.611 327.552 189.031 327.767 189.311 328.196L191.299 330.716C190.534 331.612 189.703 332.368 188.807 332.984C187.911 333.581 186.978 334.067 186.007 334.44C185.055 334.795 184.066 335.047 183.039 335.196C182.031 335.345 181.023 335.42 180.015 335.42C178.242 335.42 176.571 335.093 175.003 334.44C173.435 333.768 172.063 332.797 170.887 331.528C169.711 330.259 168.778 328.709 168.087 326.88C167.415 325.032 167.079 322.932 167.079 320.58C167.079 318.471 167.378 316.52 167.975 314.728C168.591 312.917 169.487 311.359 170.663 310.052C171.839 308.727 173.295 307.691 175.031 306.944C176.767 306.197 178.764 305.824 181.023 305.824C183.17 305.824 185.046 306.169 186.651 306.86C188.275 307.551 189.731 308.54 191.019 309.828L189.199 312.348ZM202.551 309.352C203.671 308.307 204.903 307.457 206.247 306.804C207.591 306.151 209.168 305.824 210.979 305.824C212.547 305.824 213.937 306.095 215.151 306.636C216.364 307.159 217.372 307.905 218.175 308.876C218.996 309.828 219.612 310.976 220.023 312.32C220.452 313.645 220.667 315.111 220.667 316.716V335H213.751V316.716C213.751 314.961 213.349 313.608 212.547 312.656C211.744 311.685 210.521 311.2 208.879 311.2C207.684 311.2 206.564 311.471 205.519 312.012C204.473 312.553 203.484 313.291 202.551 314.224V335H195.635V293.392H202.551V309.352ZM234.412 306.272V335H227.468V306.272H234.412ZM235.364 297.9C235.364 298.497 235.243 299.057 235 299.58C234.757 300.103 234.431 300.56 234.02 300.952C233.628 301.344 233.161 301.661 232.62 301.904C232.079 302.128 231.5 302.24 230.884 302.24C230.287 302.24 229.717 302.128 229.176 301.904C228.653 301.661 228.196 301.344 227.804 300.952C227.412 300.56 227.095 300.103 226.852 299.58C226.628 299.057 226.516 298.497 226.516 297.9C226.516 297.284 226.628 296.705 226.852 296.164C227.095 295.623 227.412 295.156 227.804 294.764C228.196 294.372 228.653 294.064 229.176 293.84C229.717 293.597 230.287 293.476 230.884 293.476C231.5 293.476 232.079 293.597 232.62 293.84C233.161 294.064 233.628 294.372 234.02 294.764C234.431 295.156 234.757 295.623 235 296.164C235.243 296.705 235.364 297.284 235.364 297.9ZM247.931 309.8C248.51 309.221 249.116 308.689 249.751 308.204C250.404 307.7 251.086 307.28 251.795 306.944C252.523 306.589 253.298 306.319 254.119 306.132C254.94 305.927 255.836 305.824 256.807 305.824C258.375 305.824 259.766 306.095 260.979 306.636C262.192 307.159 263.2 307.905 264.003 308.876C264.824 309.828 265.44 310.976 265.851 312.32C266.28 313.645 266.495 315.111 266.495 316.716V335H259.579V316.716C259.579 314.961 259.178 313.608 258.375 312.656C257.572 311.685 256.35 311.2 254.707 311.2C253.512 311.2 252.392 311.471 251.347 312.012C250.302 312.553 249.312 313.291 248.379 314.224V335H241.463V306.272H245.691C246.587 306.272 247.175 306.692 247.455 307.532L247.931 309.8ZM283.572 319.936C284.431 319.936 285.178 319.824 285.812 319.6C286.447 319.357 286.97 319.031 287.38 318.62C287.81 318.209 288.127 317.715 288.332 317.136C288.556 316.557 288.668 315.923 288.668 315.232C288.668 313.813 288.239 312.693 287.38 311.872C286.54 311.032 285.271 310.612 283.572 310.612C281.874 310.612 280.595 311.032 279.736 311.872C278.896 312.693 278.476 313.813 278.476 315.232C278.476 315.904 278.579 316.529 278.784 317.108C279.008 317.687 279.326 318.191 279.736 318.62C280.166 319.031 280.698 319.357 281.332 319.6C281.986 319.824 282.732 319.936 283.572 319.936ZM291.384 336.288C291.384 335.728 291.216 335.271 290.88 334.916C290.544 334.561 290.087 334.291 289.508 334.104C288.93 333.899 288.248 333.749 287.464 333.656C286.699 333.563 285.878 333.497 285 333.46C284.142 333.404 283.246 333.357 282.312 333.32C281.398 333.283 280.502 333.208 279.624 333.096C278.859 333.525 278.234 334.029 277.748 334.608C277.282 335.187 277.048 335.859 277.048 336.624C277.048 337.128 277.17 337.595 277.412 338.024C277.674 338.472 278.075 338.855 278.616 339.172C279.176 339.489 279.895 339.732 280.772 339.9C281.65 340.087 282.723 340.18 283.992 340.18C285.28 340.18 286.391 340.077 287.324 339.872C288.258 339.685 289.023 339.415 289.62 339.06C290.236 338.724 290.684 338.313 290.964 337.828C291.244 337.361 291.384 336.848 291.384 336.288ZM298.272 307.252V309.828C298.272 310.649 297.778 311.153 296.788 311.34L294.212 311.816C294.604 312.805 294.8 313.888 294.8 315.064C294.8 316.483 294.511 317.771 293.932 318.928C293.372 320.067 292.588 321.037 291.58 321.84C290.572 322.643 289.378 323.268 287.996 323.716C286.634 324.145 285.159 324.36 283.572 324.36C283.012 324.36 282.471 324.332 281.948 324.276C281.426 324.22 280.912 324.145 280.408 324.052C279.512 324.593 279.064 325.2 279.064 325.872C279.064 326.451 279.326 326.88 279.848 327.16C280.39 327.421 281.099 327.608 281.976 327.72C282.854 327.832 283.852 327.907 284.972 327.944C286.092 327.963 287.24 328.019 288.416 328.112C289.592 328.205 290.74 328.373 291.86 328.616C292.98 328.84 293.979 329.204 294.856 329.708C295.734 330.212 296.434 330.903 296.956 331.78C297.498 332.639 297.768 333.749 297.768 335.112C297.768 336.381 297.451 337.613 296.816 338.808C296.2 340.003 295.295 341.067 294.1 342C292.924 342.933 291.468 343.68 289.732 344.24C288.015 344.819 286.055 345.108 283.852 345.108C281.687 345.108 279.802 344.893 278.196 344.464C276.591 344.053 275.256 343.493 274.192 342.784C273.128 342.093 272.335 341.291 271.812 340.376C271.29 339.461 271.028 338.509 271.028 337.52C271.028 336.176 271.43 335.056 272.232 334.16C273.054 333.245 274.174 332.517 275.592 331.976C274.827 331.584 274.22 331.061 273.772 330.408C273.324 329.755 273.1 328.896 273.1 327.832C273.1 327.403 273.175 326.964 273.324 326.516C273.492 326.049 273.726 325.592 274.024 325.144C274.342 324.696 274.734 324.276 275.2 323.884C275.667 323.473 276.218 323.109 276.852 322.792C275.396 322.008 274.248 320.963 273.408 319.656C272.587 318.349 272.176 316.819 272.176 315.064C272.176 313.645 272.456 312.367 273.016 311.228C273.595 310.071 274.388 309.091 275.396 308.288C276.423 307.467 277.627 306.841 279.008 306.412C280.408 305.983 281.93 305.768 283.572 305.768C284.804 305.768 285.962 305.899 287.044 306.16C288.127 306.403 289.116 306.767 290.012 307.252H298.272ZM325.851 335.448C323.35 335.448 321.427 334.748 320.083 333.348C318.758 331.929 318.095 329.979 318.095 327.496V311.452H315.155C314.782 311.452 314.465 311.331 314.203 311.088C313.942 310.845 313.811 310.481 313.811 309.996V307.252L318.431 306.496L319.887 298.656C319.981 298.283 320.158 297.993 320.419 297.788C320.681 297.583 321.017 297.48 321.427 297.48H325.011V306.524H332.683V311.452H325.011V327.02C325.011 327.916 325.226 328.616 325.655 329.12C326.103 329.624 326.71 329.876 327.475 329.876C327.905 329.876 328.259 329.829 328.539 329.736C328.838 329.624 329.09 329.512 329.295 329.4C329.519 329.288 329.715 329.185 329.883 329.092C330.051 328.98 330.219 328.924 330.387 328.924C330.593 328.924 330.761 328.98 330.891 329.092C331.022 329.185 331.162 329.335 331.311 329.54L333.383 332.9C332.375 333.74 331.218 334.375 329.911 334.804C328.605 335.233 327.251 335.448 325.851 335.448ZM355.401 317.332C355.401 316.436 355.27 315.596 355.009 314.812C354.766 314.009 354.393 313.309 353.889 312.712C353.385 312.115 352.741 311.648 351.957 311.312C351.191 310.957 350.295 310.78 349.269 310.78C347.271 310.78 345.694 311.349 344.537 312.488C343.398 313.627 342.67 315.241 342.353 317.332H355.401ZM342.213 321.504C342.325 322.979 342.586 324.257 342.997 325.34C343.407 326.404 343.949 327.291 344.621 328C345.293 328.691 346.086 329.213 347.001 329.568C347.934 329.904 348.961 330.072 350.081 330.072C351.201 330.072 352.162 329.941 352.965 329.68C353.786 329.419 354.495 329.129 355.093 328.812C355.709 328.495 356.241 328.205 356.689 327.944C357.155 327.683 357.603 327.552 358.033 327.552C358.611 327.552 359.041 327.767 359.321 328.196L361.309 330.716C360.543 331.612 359.685 332.368 358.733 332.984C357.781 333.581 356.782 334.067 355.737 334.44C354.71 334.795 353.655 335.047 352.573 335.196C351.509 335.345 350.473 335.42 349.465 335.42C347.467 335.42 345.61 335.093 343.893 334.44C342.175 333.768 340.682 332.788 339.413 331.5C338.143 330.193 337.145 328.588 336.417 326.684C335.689 324.761 335.325 322.54 335.325 320.02C335.325 318.06 335.642 316.221 336.277 314.504C336.911 312.768 337.817 311.265 338.993 309.996C340.187 308.708 341.634 307.691 343.333 306.944C345.05 306.197 346.982 305.824 349.129 305.824C350.939 305.824 352.61 306.113 354.141 306.692C355.671 307.271 356.987 308.12 358.089 309.24C359.19 310.341 360.049 311.704 360.665 313.328C361.299 314.933 361.617 316.772 361.617 318.844C361.617 319.889 361.505 320.599 361.281 320.972C361.057 321.327 360.627 321.504 359.993 321.504H342.213ZM381.983 322.736C379.985 322.829 378.305 323.007 376.943 323.268C375.58 323.511 374.488 323.828 373.667 324.22C372.845 324.612 372.257 325.069 371.903 325.592C371.548 326.115 371.371 326.684 371.371 327.3C371.371 328.513 371.725 329.381 372.435 329.904C373.163 330.427 374.105 330.688 375.263 330.688C376.681 330.688 377.904 330.436 378.931 329.932C379.976 329.409 380.993 328.625 381.983 327.58V322.736ZM366.135 310.276C369.439 307.252 373.415 305.74 378.063 305.74C379.743 305.74 381.245 306.02 382.571 306.58C383.896 307.121 385.016 307.887 385.931 308.876C386.845 309.847 387.536 311.013 388.003 312.376C388.488 313.739 388.731 315.232 388.731 316.856V335H385.595C384.941 335 384.437 334.907 384.083 334.72C383.728 334.515 383.448 334.113 383.243 333.516L382.627 331.444C381.899 332.097 381.189 332.676 380.499 333.18C379.808 333.665 379.089 334.076 378.343 334.412C377.596 334.748 376.793 335 375.935 335.168C375.095 335.355 374.161 335.448 373.135 335.448C371.921 335.448 370.801 335.289 369.775 334.972C368.748 334.636 367.861 334.141 367.115 333.488C366.368 332.835 365.789 332.023 365.379 331.052C364.968 330.081 364.763 328.952 364.763 327.664C364.763 326.936 364.884 326.217 365.127 325.508C365.369 324.78 365.761 324.089 366.303 323.436C366.863 322.783 367.581 322.167 368.459 321.588C369.336 321.009 370.409 320.505 371.679 320.076C372.967 319.647 374.46 319.301 376.159 319.04C377.857 318.76 379.799 318.592 381.983 318.536V316.856C381.983 314.933 381.572 313.515 380.751 312.6C379.929 311.667 378.744 311.2 377.195 311.2C376.075 311.2 375.141 311.331 374.395 311.592C373.667 311.853 373.023 312.152 372.463 312.488C371.903 312.805 371.389 313.095 370.923 313.356C370.475 313.617 369.971 313.748 369.411 313.748C368.925 313.748 368.515 313.627 368.179 313.384C367.843 313.123 367.572 312.824 367.367 312.488L366.135 310.276ZM415.824 312.348C415.619 312.609 415.413 312.815 415.208 312.964C415.021 313.113 414.741 313.188 414.368 313.188C414.013 313.188 413.668 313.085 413.332 312.88C412.996 312.656 412.595 312.413 412.128 312.152C411.661 311.872 411.101 311.629 410.448 311.424C409.813 311.2 409.02 311.088 408.068 311.088C406.855 311.088 405.791 311.312 404.876 311.76C403.961 312.189 403.196 312.815 402.58 313.636C401.983 314.457 401.535 315.456 401.236 316.632C400.937 317.789 400.788 319.105 400.788 320.58C400.788 322.111 400.947 323.473 401.264 324.668C401.6 325.863 402.076 326.871 402.692 327.692C403.308 328.495 404.055 329.111 404.932 329.54C405.809 329.951 406.799 330.156 407.9 330.156C409.001 330.156 409.888 330.025 410.56 329.764C411.251 329.484 411.829 329.185 412.296 328.868C412.763 328.532 413.164 328.233 413.5 327.972C413.855 327.692 414.247 327.552 414.676 327.552C415.236 327.552 415.656 327.767 415.936 328.196L417.924 330.716C417.159 331.612 416.328 332.368 415.432 332.984C414.536 333.581 413.603 334.067 412.632 334.44C411.68 334.795 410.691 335.047 409.664 335.196C408.656 335.345 407.648 335.42 406.64 335.42C404.867 335.42 403.196 335.093 401.628 334.44C400.06 333.768 398.688 332.797 397.512 331.528C396.336 330.259 395.403 328.709 394.712 326.88C394.04 325.032 393.704 322.932 393.704 320.58C393.704 318.471 394.003 316.52 394.6 314.728C395.216 312.917 396.112 311.359 397.288 310.052C398.464 308.727 399.92 307.691 401.656 306.944C403.392 306.197 405.389 305.824 407.648 305.824C409.795 305.824 411.671 306.169 413.276 306.86C414.9 307.551 416.356 308.54 417.644 309.828L415.824 312.348ZM429.176 309.352C430.296 308.307 431.528 307.457 432.872 306.804C434.216 306.151 435.793 305.824 437.604 305.824C439.172 305.824 440.562 306.095 441.776 306.636C442.989 307.159 443.997 307.905 444.8 308.876C445.621 309.828 446.237 310.976 446.648 312.32C447.077 313.645 447.292 315.111 447.292 316.716V335H440.376V316.716C440.376 314.961 439.974 313.608 439.172 312.656C438.369 311.685 437.146 311.2 435.504 311.2C434.309 311.2 433.189 311.471 432.144 312.012C431.098 312.553 430.109 313.291 429.176 314.224V335H422.26V293.392H429.176V309.352ZM472.377 317.332C472.377 316.436 472.246 315.596 471.985 314.812C471.742 314.009 471.369 313.309 470.865 312.712C470.361 312.115 469.717 311.648 468.933 311.312C468.168 310.957 467.272 310.78 466.245 310.78C464.248 310.78 462.67 311.349 461.513 312.488C460.374 313.627 459.646 315.241 459.329 317.332H472.377ZM459.189 321.504C459.301 322.979 459.562 324.257 459.973 325.34C460.384 326.404 460.925 327.291 461.597 328C462.269 328.691 463.062 329.213 463.977 329.568C464.91 329.904 465.937 330.072 467.057 330.072C468.177 330.072 469.138 329.941 469.941 329.68C470.762 329.419 471.472 329.129 472.069 328.812C472.685 328.495 473.217 328.205 473.665 327.944C474.132 327.683 474.58 327.552 475.009 327.552C475.588 327.552 476.017 327.767 476.297 328.196L478.285 330.716C477.52 331.612 476.661 332.368 475.709 332.984C474.757 333.581 473.758 334.067 472.713 334.44C471.686 334.795 470.632 335.047 469.549 335.196C468.485 335.345 467.449 335.42 466.441 335.42C464.444 335.42 462.586 335.093 460.869 334.44C459.152 333.768 457.658 332.788 456.389 331.5C455.12 330.193 454.121 328.588 453.393 326.684C452.665 324.761 452.301 322.54 452.301 320.02C452.301 318.06 452.618 316.221 453.253 314.504C453.888 312.768 454.793 311.265 455.969 309.996C457.164 308.708 458.61 307.691 460.309 306.944C462.026 306.197 463.958 305.824 466.105 305.824C467.916 305.824 469.586 306.113 471.117 306.692C472.648 307.271 473.964 308.12 475.065 309.24C476.166 310.341 477.025 311.704 477.641 313.328C478.276 314.933 478.593 316.772 478.593 318.844C478.593 319.889 478.481 320.599 478.257 320.972C478.033 321.327 477.604 321.504 476.969 321.504H459.189ZM490.307 311.256C491.203 309.539 492.267 308.195 493.499 307.224C494.731 306.235 496.187 305.74 497.867 305.74C499.193 305.74 500.257 306.029 501.059 306.608L500.611 311.788C500.518 312.124 500.378 312.367 500.191 312.516C500.023 312.647 499.79 312.712 499.491 312.712C499.211 312.712 498.791 312.665 498.231 312.572C497.69 312.479 497.158 312.432 496.635 312.432C495.87 312.432 495.189 312.544 494.591 312.768C493.994 312.992 493.453 313.319 492.967 313.748C492.501 314.159 492.081 314.663 491.707 315.26C491.353 315.857 491.017 316.539 490.699 317.304V335H483.783V306.272H487.843C488.553 306.272 489.047 306.403 489.327 306.664C489.607 306.907 489.794 307.355 489.887 308.008L490.307 311.256ZM522.092 311.872C521.906 312.171 521.71 312.385 521.504 312.516C521.299 312.628 521.038 312.684 520.72 312.684C520.384 312.684 520.02 312.591 519.628 312.404C519.255 312.217 518.816 312.012 518.312 311.788C517.808 311.545 517.23 311.331 516.576 311.144C515.942 310.957 515.186 310.864 514.308 310.864C512.946 310.864 511.872 311.153 511.088 311.732C510.323 312.311 509.94 313.067 509.94 314C509.94 314.616 510.136 315.139 510.528 315.568C510.939 315.979 511.471 316.343 512.124 316.66C512.796 316.977 513.552 317.267 514.392 317.528C515.232 317.771 516.082 318.041 516.94 318.34C517.818 318.639 518.676 318.984 519.516 319.376C520.356 319.749 521.103 320.235 521.756 320.832C522.428 321.411 522.96 322.111 523.352 322.932C523.763 323.753 523.968 324.743 523.968 325.9C523.968 327.281 523.716 328.56 523.212 329.736C522.727 330.893 521.999 331.901 521.028 332.76C520.058 333.6 518.854 334.263 517.416 334.748C515.998 335.215 514.355 335.448 512.488 335.448C511.499 335.448 510.528 335.355 509.576 335.168C508.643 335 507.738 334.757 506.86 334.44C506.002 334.123 505.199 333.749 504.452 333.32C503.724 332.891 503.08 332.424 502.52 331.92L504.116 329.288C504.322 328.971 504.564 328.728 504.844 328.56C505.124 328.392 505.479 328.308 505.908 328.308C506.338 328.308 506.739 328.429 507.112 328.672C507.504 328.915 507.952 329.176 508.456 329.456C508.96 329.736 509.548 329.997 510.22 330.24C510.911 330.483 511.779 330.604 512.824 330.604C513.646 330.604 514.346 330.511 514.924 330.324C515.522 330.119 516.007 329.857 516.38 329.54C516.772 329.223 517.052 328.859 517.22 328.448C517.407 328.019 517.5 327.58 517.5 327.132C517.5 326.46 517.295 325.909 516.884 325.48C516.492 325.051 515.96 324.677 515.288 324.36C514.635 324.043 513.879 323.763 513.02 323.52C512.18 323.259 511.312 322.979 510.416 322.68C509.539 322.381 508.671 322.036 507.812 321.644C506.972 321.233 506.216 320.72 505.544 320.104C504.891 319.488 504.359 318.732 503.948 317.836C503.556 316.94 503.36 315.857 503.36 314.588C503.36 313.412 503.594 312.292 504.06 311.228C504.527 310.164 505.208 309.24 506.104 308.456C507.019 307.653 508.148 307.019 509.492 306.552C510.855 306.067 512.423 305.824 514.196 305.824C516.175 305.824 517.976 306.151 519.6 306.804C521.224 307.457 522.578 308.316 523.66 309.38L522.092 311.872Z" fill="#870AF3"/>
<path id="INSTITUTE" d="M83.448 269H81.288V257.432H83.448V269ZM95.79 257.432V269H94.686C94.5153 269 94.3713 268.973 94.254 268.92C94.142 268.861 94.0327 268.765 93.926 268.632L87.886 260.92C87.918 261.272 87.934 261.597 87.934 261.896V269H86.038V257.432H87.166C87.2567 257.432 87.334 257.437 87.398 257.448C87.4673 257.453 87.526 257.469 87.574 257.496C87.6273 257.517 87.678 257.552 87.726 257.6C87.774 257.643 87.8273 257.701 87.886 257.776L93.95 265.52C93.934 265.333 93.9207 265.149 93.91 264.968C93.8993 264.787 93.894 264.619 93.894 264.464V257.432H95.79ZM104.526 259.536C104.462 259.648 104.393 259.731 104.318 259.784C104.249 259.832 104.161 259.856 104.054 259.856C103.942 259.856 103.819 259.816 103.686 259.736C103.558 259.651 103.403 259.557 103.222 259.456C103.041 259.355 102.827 259.264 102.582 259.184C102.342 259.099 102.057 259.056 101.726 259.056C101.427 259.056 101.166 259.093 100.942 259.168C100.718 259.237 100.529 259.336 100.374 259.464C100.225 259.592 100.113 259.747 100.038 259.928C99.9635 260.104 99.9261 260.299 99.9261 260.512C99.9261 260.784 100.001 261.011 100.15 261.192C100.305 261.373 100.507 261.528 100.758 261.656C101.009 261.784 101.294 261.899 101.614 262C101.934 262.101 102.262 262.211 102.598 262.328C102.934 262.44 103.262 262.573 103.582 262.728C103.902 262.877 104.187 263.069 104.438 263.304C104.689 263.533 104.889 263.816 105.038 264.152C105.193 264.488 105.27 264.896 105.27 265.376C105.27 265.899 105.179 266.389 104.998 266.848C104.822 267.301 104.561 267.699 104.214 268.04C103.873 268.376 103.454 268.643 102.958 268.84C102.462 269.032 101.894 269.128 101.254 269.128C100.886 269.128 100.523 269.091 100.166 269.016C99.8088 268.947 99.4648 268.845 99.1341 268.712C98.8088 268.579 98.5021 268.419 98.2141 268.232C97.9261 268.045 97.6701 267.837 97.4461 267.608L98.0781 266.576C98.1315 266.501 98.2008 266.44 98.2861 266.392C98.3715 266.339 98.4621 266.312 98.5581 266.312C98.6915 266.312 98.8355 266.368 98.9901 266.48C99.1448 266.587 99.3288 266.707 99.5421 266.84C99.7555 266.973 100.003 267.096 100.286 267.208C100.574 267.315 100.918 267.368 101.318 267.368C101.931 267.368 102.406 267.224 102.742 266.936C103.078 266.643 103.246 266.224 103.246 265.68C103.246 265.376 103.169 265.128 103.014 264.936C102.865 264.744 102.665 264.584 102.414 264.456C102.163 264.323 101.878 264.211 101.558 264.12C101.238 264.029 100.913 263.931 100.582 263.824C100.251 263.717 99.9261 263.589 99.6061 263.44C99.2861 263.291 99.0008 263.096 98.7501 262.856C98.4995 262.616 98.2968 262.317 98.1421 261.96C97.9928 261.597 97.9181 261.152 97.9181 260.624C97.9181 260.203 98.0008 259.792 98.1661 259.392C98.3368 258.992 98.5821 258.637 98.9021 258.328C99.2221 258.019 99.6168 257.771 100.086 257.584C100.555 257.397 101.094 257.304 101.702 257.304C102.385 257.304 103.014 257.411 103.59 257.624C104.166 257.837 104.657 258.136 105.062 258.52L104.526 259.536ZM115.227 259.2H111.739V269H109.587V259.2H106.099V257.432H115.227V259.2ZM118.901 269H116.741V257.432H118.901V269ZM129.571 259.2H126.083V269H123.931V259.2H120.443V257.432H129.571V259.2ZM135.741 267.264C136.157 267.264 136.528 267.195 136.853 267.056C137.184 266.917 137.461 266.723 137.685 266.472C137.909 266.221 138.08 265.917 138.197 265.56C138.32 265.203 138.381 264.803 138.381 264.36V257.432H140.533V264.36C140.533 265.048 140.421 265.685 140.197 266.272C139.978 266.853 139.661 267.357 139.245 267.784C138.834 268.205 138.333 268.536 137.741 268.776C137.149 269.011 136.482 269.128 135.741 269.128C134.994 269.128 134.325 269.011 133.733 268.776C133.141 268.536 132.637 268.205 132.221 267.784C131.81 267.357 131.493 266.853 131.269 266.272C131.05 265.685 130.941 265.048 130.941 264.36V257.432H133.093V264.352C133.093 264.795 133.152 265.195 133.269 265.552C133.392 265.909 133.565 266.216 133.789 266.472C134.018 266.723 134.296 266.917 134.621 267.056C134.952 267.195 135.325 267.264 135.741 267.264ZM151.04 259.2H147.552V269H145.4V259.2H141.912V257.432H151.04V259.2ZM154.714 259.144V262.352H158.762V264.008H154.714V267.28H159.85V269H152.554V257.432H159.85V259.144H154.714Z" fill="#870AF3"/>
</g>
<g id="undraw_teacher_35j2">
<path id="Path" opacity="0.759933" d="M1075.84 582.655C1074.13 586.867 1072.03 590.909 1069.56 594.726C1068.4 596.546 1067.13 598.292 1065.76 599.954C1065.74 599.971 1065.73 599.986 1065.71 600H640.5L640.557 599.954C640.94 599.656 643.186 597.839 646.679 594.726C649.185 592.496 652.33 589.597 655.862 586.109C684.745 557.71 740.227 490.49 694.02 428.912C651.064 371.667 697.314 361.279 727.823 360.067C739.545 359.608 751.239 361.519 762.205 365.685C776.3 371.04 802.061 379.248 835.624 383.011C836.726 383.134 837.835 383.256 838.96 383.367C856.729 385.176 874.618 385.501 892.441 384.339C892.966 384.308 893.494 384.27 894.025 384.231C911.657 382.994 929.155 380.288 946.336 376.142C947.449 375.871 948.548 375.614 949.642 375.358C1006.89 362.117 1059.67 407.245 1046.47 458.244C1041.59 477.107 1042.83 497.214 1059.1 513.481C1085.73 540.032 1082.5 566.182 1075.84 582.655Z" fill="white"/>
<path id="Path_2" d="M1076.5 582.511C1074.79 586.77 1072.69 590.856 1070.23 594.714C1069.07 596.554 1067.8 598.32 1066.42 600H641.5C641.882 599.698 644.127 597.862 647.618 594.714C650.122 592.46 653.265 589.529 656.795 586.003L701.581 576.646C702.16 576.525 702.749 576.464 703.34 576.464L751.085 576.394H751.135L774.784 576.363H774.838L794.797 576.34H807.863H821.245L876.084 576.263H876.172H880.42H887.884H897.202H899.68L909.097 576.155H912.21L939.602 576.116H948.351H952.557L984.197 576.073H993.619L1023.59 576.031L1048.89 576C1049.59 576 1050.29 576.085 1050.98 576.251L1076.5 582.511Z" fill="#454B69"/>
<path id="Path_3" opacity="0.4" d="M647.622 595H1070.5C1069.34 596.741 1068.07 598.41 1066.7 600H641.5C641.875 599.696 644.121 597.959 647.622 595Z" fill="black"/>
<path id="Path_4" d="M920.5 475.818L919.654 475.982L881.4 483.351C870.289 485.491 859.018 487.643 847.732 486.821C839.556 486.225 831.918 483.794 824.062 481.661C819.621 480.454 814.914 479.972 813.408 474.988C811.331 468.109 814.712 457.924 815.509 450.953C816.271 444.111 816.721 437.098 815.364 430.337C815.062 428.818 814.665 427.319 814.174 425.851C812.814 421.803 810.675 417.595 811.83 413.487C812.741 410.227 815.52 407.899 818.12 405.744C823.212 401.54 828.411 396.827 830.431 390.525C831.422 387.467 831.609 384.177 832.676 381.142C834.7 375.371 839.785 371.056 845.441 368.771C851.098 366.485 857.318 366 863.421 366C868.809 366 874.192 366.359 879.533 367.074C885.357 367.838 891.234 369.096 896.353 371.993C901.472 374.89 905.787 379.636 906.98 385.423C908.669 393.605 903.98 402.319 906.496 410.265C907.762 414.282 910.689 417.526 912.72 421.203C916.067 427.417 916.755 434.727 914.626 441.459C912.194 449.015 906.241 456.659 909.29 463.985C911.23 468.644 916.185 471.132 919.639 474.824C919.946 475.155 920.233 475.486 920.5 475.818Z" fill="#454B69"/>
<path id="Path_5" opacity="0.1" d="M921.5 474.794V475.927L882.857 483.332C871.632 485.483 860.247 487.646 848.845 486.82C840.586 486.221 832.87 483.778 824.934 481.635C820.448 480.421 815.693 479.937 814.172 474.928C812.073 468.014 815.489 457.778 816.293 450.772C817.063 443.896 828.919 418.795 827.548 412L898.397 415.073C898.875 418.826 917.599 437.662 916.433 441.261C913.976 448.855 907.962 456.537 911.042 463.9C913.006 468.583 918.011 471.083 921.5 474.794Z" fill="black"/>
<path id="Path_6" d="M849.338 455.48C849.754 457.846 849.976 460.45 848.769 462.514C847.161 465.282 843.655 466.165 840.519 466.792L829.634 468.971C828.893 469.12 828.107 469.289 827.553 469.797C826.9 470.382 826.678 471.307 826.583 472.179C826.143 476.124 827.537 480.012 828.809 483.77C831.38 491.382 833.537 499.154 836.788 506.499C840.038 513.843 844.499 520.854 850.865 525.763C857.232 530.672 865.657 533.287 873.452 531.368C880.243 529.697 885.811 524.899 890.612 519.81C894.573 515.605 898.277 511.017 900.199 505.562C901.524 501.815 901.955 497.824 902.372 493.871C903.016 487.81 903.66 481.749 904.304 475.688C904.606 472.844 904.805 469.644 902.96 467.461C902.15 466.502 901.05 465.863 899.927 465.271C895.749 463.049 891.349 461.214 887.461 458.538C883.573 455.862 880.125 452.176 878.944 447.604C878.238 444.859 878.364 441.869 877.161 439.312C875.816 436.445 872.96 434.502 869.904 433.65C866.849 432.797 863.625 432.912 860.478 433.268C857.331 433.623 845.201 434.533 843.899 438.085C843.2 439.996 846.099 444.098 846.786 445.979C847.918 449.064 848.772 452.243 849.338 455.48Z" fill="#EFB7B9"/>
<path id="Path_7" opacity="0.1" d="M849.338 455.48C849.754 457.846 849.976 460.45 848.769 462.514C847.161 465.282 843.655 466.165 840.519 466.792L829.634 468.971C828.893 469.12 828.107 469.289 827.553 469.797C826.9 470.382 826.678 471.307 826.583 472.179C826.143 476.124 827.537 480.012 828.809 483.77C831.38 491.382 833.537 499.154 836.788 506.499C840.038 513.843 844.499 520.854 850.865 525.763C857.232 530.672 865.657 533.287 873.452 531.368C880.243 529.697 885.811 524.899 890.612 519.81C894.573 515.605 898.277 511.017 900.199 505.562C901.524 501.815 901.955 497.824 902.372 493.871C903.016 487.81 903.66 481.749 904.304 475.688C904.606 472.844 904.805 469.644 902.96 467.461C902.15 466.502 901.05 465.863 899.927 465.271C895.749 463.049 891.349 461.214 887.461 458.538C883.573 455.862 880.125 452.176 878.944 447.604C878.238 444.859 878.364 441.869 877.161 439.312C875.816 436.445 872.96 434.502 869.904 433.65C866.849 432.797 863.625 432.912 860.478 433.268C857.331 433.623 845.201 434.533 843.899 438.085C843.2 439.996 846.099 444.098 846.786 445.979C847.918 449.064 848.772 452.243 849.338 455.48Z" fill="black"/>
<path id="Path_8" d="M874.893 498.354L881.321 484.892C884.333 478.583 887.411 471.954 887.092 464.987C887.03 463.602 887.015 461.87 888.246 461.242C888.78 461.026 889.362 460.953 889.935 461.029C896.702 461.372 903.38 462.708 909.75 464.994C910.985 465.436 912.251 465.946 913.116 466.92C913.982 467.894 914.332 469.203 914.628 470.459C915.637 474.704 916.373 479.009 916.832 483.347C917.987 494.085 917.413 504.918 916.832 515.691L915.124 548.579C915.134 549.046 915.038 549.508 914.844 549.934C914.42 550.695 913.466 550.95 912.609 551.094C909.304 551.654 905.926 551.54 902.58 551.414C879.036 550.531 855.37 549.177 831.98 552C832.085 548.578 832.03 545.153 831.815 541.726C830.888 526.928 827.01 512.491 823.201 498.153C820.982 489.781 818.831 480.649 822.405 472.761C822.931 471.515 823.686 470.377 824.632 469.404C826.152 467.932 828.225 467.156 830.28 466.6C833.823 465.647 837.494 465.236 841.163 465.382L865.418 517.616C866.526 520.006 867.438 522.521 868.542 524.88C869.534 520.805 868.342 516.03 869.534 511.612C870.819 507.026 872.843 502.639 874.893 498.354Z" fill="white"/>
<path id="Path_9" d="M871.968 533.967C876.3 534.236 880.509 532.043 883.489 528.944C886.469 525.844 888.435 521.914 890.098 517.942C892.488 512.28 894.388 506.429 895.777 500.45C896.929 495.366 897.747 490.104 896.953 484.953C895.854 477.84 891.78 471.375 891.085 464.213C890.966 462.961 891.042 461.497 892.06 460.742C892.69 460.275 893.519 460.211 894.303 460.165C901.545 459.74 909.502 459.82 915.113 464.361C916.822 465.742 918.208 467.468 919.878 468.89C923.857 472.305 929.479 474.042 932.032 478.576C932.923 480.154 933.35 481.941 933.972 483.64C935.439 487.661 937.977 491.197 940.5 494.676C938.054 504.873 935.243 515.078 932.797 525.275C931.364 531.258 929.92 537.263 927.67 542.992C926.195 546.747 924.341 550.579 924.794 554.6C924.974 556.182 925.508 557.696 925.973 559.221C927.602 564.573 928.365 570.147 928.235 575.734L818.659 576C823.909 568.564 825.449 559.445 824.915 550.397C824.658 546.061 823.667 541.698 821.459 537.946C817.98 532.066 811.858 528.234 805.825 524.953C801.601 522.677 797.066 535.484 792.5 534.016C793.237 528.864 793.575 508.978 793.268 503.792C793.168 502.092 793.015 500.347 793.545 498.724C793.906 497.612 794.57 496.618 795.019 495.537C796.82 491.208 795.104 485.674 798.014 481.99C800.027 479.429 803.556 478.701 806.424 477.123C809.37 475.499 811.647 472.95 814.212 470.772C819.246 466.55 825.396 463.837 831.939 462.953C833.847 465.927 835.007 469.309 835.322 472.817C835.518 475.021 835.375 477.255 835.687 479.448C836.113 482.419 837.357 485.207 838.59 487.953C843.724 499.406 848.877 510.894 855.383 521.649C857.222 524.683 859.223 527.718 861.888 530.082C864.553 532.445 868.389 534.133 871.968 533.967Z" fill="#E08AF7"/>
<path id="Path_10" opacity="0.1" d="M871.968 533.967C876.3 534.236 880.509 532.043 883.489 528.944C886.469 525.844 888.435 521.914 890.098 517.942C892.488 512.28 894.388 506.429 895.777 500.45C896.929 495.366 897.747 490.104 896.953 484.953C895.854 477.84 891.78 471.375 891.085 464.213C890.966 462.961 891.042 461.497 892.06 460.742C892.69 460.275 893.519 460.211 894.303 460.165C901.545 459.74 909.502 459.82 915.113 464.361C916.822 465.742 918.208 467.468 919.878 468.89C923.857 472.305 929.479 474.042 932.032 478.576C932.923 480.154 933.35 481.941 933.972 483.64C935.439 487.661 937.977 491.197 940.5 494.676C938.054 504.873 935.243 515.078 932.797 525.275C931.364 531.258 929.92 537.263 927.67 542.992C926.195 546.747 924.341 550.579 924.794 554.6C924.974 556.182 925.508 557.696 925.973 559.221C927.602 564.573 928.365 570.147 928.235 575.734L818.659 576C823.909 568.564 825.449 559.445 824.915 550.397C824.658 546.061 823.667 541.698 821.459 537.946C817.98 532.066 811.858 528.234 805.825 524.953C801.601 522.677 797.066 535.484 792.5 534.016C793.237 528.864 793.575 508.978 793.268 503.792C793.168 502.092 793.015 500.347 793.545 498.724C793.906 497.612 794.57 496.618 795.019 495.537C796.82 491.208 795.104 485.674 798.014 481.99C800.027 479.429 803.556 478.701 806.424 477.123C809.37 475.499 811.647 472.95 814.212 470.772C819.246 466.55 825.396 463.837 831.939 462.953C833.847 465.927 835.007 469.309 835.322 472.817C835.518 475.021 835.375 477.255 835.687 479.448C836.113 482.419 837.357 485.207 838.59 487.953C843.724 499.406 848.877 510.894 855.383 521.649C857.222 524.683 859.223 527.718 861.888 530.082C864.553 532.445 868.389 534.133 871.968 533.967Z" fill="black"/>
<circle id="Oval" cx="866" cy="421.5" r="32.5" fill="#EFB7B9"/>
<path id="Path_11" d="M848.468 465.985C849.367 457.491 845.842 449.181 841.85 441.634C839.938 438.027 837.889 434.431 836.929 430.467C835.969 426.504 836.244 422.016 838.699 418.757C840.787 415.985 844.098 414.488 847.161 412.86C855.806 408.265 863.709 401.51 867.51 392.476C865.361 393.648 865.919 397.144 867.816 398.688C869.712 400.231 872.297 400.53 874.629 401.265C883.133 403.945 888.233 412.439 892.325 420.373C892.994 421.668 893.674 423.035 893.667 424.494C893.659 425.953 892.994 427.247 892.298 428.488C890.279 432.087 887.809 435.545 886.891 439.57C885.84 444.165 886.949 448.998 888.39 453.505C889.92 458.299 891.95 463.132 895.62 466.571C899.291 470.009 904.984 471.717 909.5 469.496C904.992 461.734 900.323 453.061 902.082 444.261C902.931 440.048 905.214 436.219 906.185 432.03C908.036 424.038 904.954 415.816 901.929 408.188L892.89 385.423C891.51 381.942 889.939 378.227 886.773 376.255C884.632 374.926 882.039 374.582 879.531 374.341C871.456 373.621 863.09 373.858 855.573 376.868C841.877 382.348 833.289 395.858 826.475 408.962C824.433 412.887 822.418 417.057 822.503 421.484C822.548 423.912 823.225 426.274 823.776 428.641C826.016 438.275 826.139 448.259 826.253 458.15C826.341 465.74 825.948 472.893 822.633 479.805C827.175 480.709 833.763 483.148 838.259 481.363C844.121 479.043 847.73 471.893 848.468 465.985Z" fill="#454B69"/>
<g id="Group" opacity="0.1">
<path id="Path_12" d="M826.596 457.012C826.611 455.937 826.611 454.851 826.596 453.756C826.482 443.905 826.36 433.963 824.134 424.368C823.636 422.501 823.248 420.606 822.971 418.694C822.893 419.351 822.859 420.012 822.869 420.673C822.914 423.091 823.587 425.444 824.134 427.801C826.349 437.338 826.485 447.219 826.596 457.012Z" fill="black"/>
<path id="Path_13" d="M906.035 431.161C906.534 428.932 906.7 426.642 906.529 424.365C906.454 425.497 906.289 426.622 906.035 427.728C905.07 431.923 902.802 435.702 901.959 439.909C901.595 441.764 901.493 443.661 901.655 445.545C901.715 444.805 901.817 444.07 901.959 443.341C902.802 439.135 905.07 435.34 906.035 431.161Z" fill="black"/>
<path id="Path_14" d="M893.301 421.905C893.486 421.364 893.586 420.796 893.597 420.223C893.597 418.771 892.928 417.409 892.263 416.12C888.198 408.218 883.146 399.768 874.681 397.09C872.364 396.358 869.799 396.061 867.911 394.524C866.929 393.675 866.33 392.466 866.247 391.168C862.129 398.757 855.055 404.561 847.388 408.638C844.349 410.259 841.055 411.75 838.981 414.511C837.032 417.104 836.466 420.479 836.804 423.743C836.995 421.648 837.748 419.644 838.981 417.943C841.055 415.182 844.345 413.691 847.388 412.07C855.055 407.993 862.129 402.189 866.247 394.6C866.33 395.898 866.929 397.108 867.911 397.956C869.811 399.482 872.364 399.79 874.681 400.523C883.13 403.192 888.198 411.651 892.263 419.552C892.676 420.305 893.023 421.093 893.301 421.905Z" fill="black"/>
<path id="Path_15" d="M895.538 462.127C891.891 458.694 889.881 453.889 888.354 449.115C887.438 446.433 886.826 443.655 886.53 440.835C886.177 444.752 887.146 448.76 888.354 452.547C889.874 457.321 891.891 462.134 895.538 465.559C899.185 468.983 904.842 470.684 909.329 468.472C908.79 467.546 908.254 466.604 907.722 465.654C903.554 466.832 898.767 465.155 895.538 462.127Z" fill="black"/>
<path id="Path_16" d="M848.687 461.543C847.954 467.427 844.368 474.547 838.528 476.874C834.475 478.487 828.704 476.633 824.301 475.608C823.922 476.678 823.488 477.728 823.001 478.754C827.515 479.654 834.061 482.083 838.528 480.306C844.368 477.98 847.954 470.86 848.687 464.975C848.838 463.503 848.866 462.021 848.771 460.544C848.748 460.876 848.714 461.211 848.687 461.543Z" fill="black"/>
</g>
<path id="Path_17" d="M896.458 556.96C890.36 556.012 884.17 554.181 878.123 555.412C874.618 556.124 871.413 557.834 868.5 559.901C870.103 561.159 871.974 562.281 872.992 564.03C873.624 565.24 874.099 566.524 874.405 567.85C875.044 570.172 875.688 572.54 875.787 574.955C875.885 577.37 875.392 579.885 873.923 581.832C881.613 582.575 889.065 580.718 896.565 578.903C897.422 578.755 898.239 578.432 898.961 577.954C900.145 577.041 900.492 575.416 900.5 573.933C900.5 571.286 899.742 568.705 898.972 566.166C898.057 563.121 897.378 559.986 896.458 556.96Z" fill="white"/>
<path id="Path_18" d="M935.252 492.242C938.171 492.622 940.434 494.972 942.101 497.386C946.776 504.106 948.793 512.254 951.037 520.124C953.827 529.911 957.108 539.545 960.88 549.023C961.692 551.212 962.679 553.333 963.832 555.364C964.772 556.932 965.913 558.439 966.328 560.219C967.332 564.525 963.775 568.572 960.065 570.971C958.088 572.301 955.929 573.34 953.655 574.054C951.441 574.715 949.131 574.965 946.837 575.216L925.718 577.494C915.998 578.549 906.19 579.605 896.465 578.587C895.853 576.461 897.055 574.958 896.968 572.744C896.907 571.161 896.207 569.688 895.583 568.23C894.432 565.634 893.672 562.882 893.327 560.064C893.216 559.027 893.178 557.964 892.783 557C892.387 556.036 891.539 555.17 890.5 555.102C896.207 554.536 900.54 553.462 906.247 552.892C908.366 552.679 910.569 552.44 912.376 551.316C914.617 549.923 915.872 547.41 916.869 544.972C919.338 538.936 920.928 532.284 919.631 525.891C918.566 520.648 915.595 515.766 915.61 510.416C915.61 507.231 916.698 504.144 917.984 501.228C919.346 498.146 921.123 494.995 924.113 493.43C927.103 491.866 931.878 491.786 935.252 492.242Z" fill="#E08AF7"/>
<path id="Path_19" opacity="0.08" d="M935.252 492.242C938.171 492.622 940.434 494.972 942.101 497.386C946.776 504.106 948.793 512.254 951.037 520.124C953.827 529.911 957.108 539.545 960.88 549.023C961.692 551.212 962.679 553.333 963.832 555.364C964.772 556.932 965.913 558.439 966.328 560.219C967.332 564.525 963.775 568.572 960.065 570.971C958.088 572.301 955.929 573.34 953.655 574.054C951.441 574.715 949.131 574.965 946.837 575.216L925.718 577.494C915.998 578.549 906.19 579.605 896.465 578.587C895.853 576.461 897.055 574.958 896.968 572.744C896.907 571.161 896.207 569.688 895.583 568.23C894.432 565.634 893.672 562.882 893.327 560.064C893.216 559.027 893.178 557.964 892.783 557C892.387 556.036 891.539 555.17 890.5 555.102C896.207 554.536 900.54 553.462 906.247 552.892C908.366 552.679 910.569 552.44 912.376 551.316C914.617 549.923 915.872 547.41 916.869 544.972C919.338 538.936 920.928 532.284 919.631 525.891C918.566 520.648 915.595 515.766 915.61 510.416C915.61 507.231 916.698 504.144 917.984 501.228C919.346 498.146 921.123 494.995 924.113 493.43C927.103 491.866 931.878 491.786 935.252 492.242Z" fill="black"/>
<path id="Path_20" d="M802.446 488.017C803.863 484.734 805.303 481.344 805.342 477.783C805.385 473.932 803.781 470.276 802.555 466.619C801.039 462.145 800.03 457.523 799.545 452.835C799.444 452.386 799.514 451.917 799.74 451.514C800.064 451.068 800.689 450.977 801.239 450.859C803.941 450.257 805.982 448.128 807.669 445.983C810.285 442.672 812.494 439.072 814.251 435.258C815.543 432.451 817.292 429.027 820.446 429C819.176 434.82 817.602 440.572 815.73 446.235C819.029 445.412 822.164 444.216 825.463 443.393C826.108 443.194 826.785 443.107 827.461 443.134C829.437 443.336 830.647 445.945 829.499 447.526C831.112 449.369 833.793 449.864 835.902 451.129C838.01 452.393 839.524 455.524 837.65 457.113C837.283 457.421 836.819 457.638 836.553 458.034C835.648 459.398 837.865 460.963 837.682 462.578C837.533 463.9 835.796 464.517 834.481 464.166C833.165 463.816 832.138 462.856 830.967 462.152C829.796 461.447 828.266 461.009 827.13 461.74C826.825 465.324 826.497 468.977 824.908 472.241C824.327 473.433 823.581 474.549 823.113 475.787C822.664 477.137 822.387 478.535 822.285 479.95L820.868 492.591C814.106 493.913 808.044 491.936 802.446 488.017Z" fill="#EFB7B9"/>
<path id="Path_21" d="M800.917 499.506L799.695 491.386C799.579 490.725 799.513 490.056 799.5 489.386C799.5 487.505 800.343 485.711 801.159 484C807.919 487.099 815.227 488.201 822.685 488.205C823.669 488.205 824.792 488.114 825.404 487.359C826.672 488.791 826.711 491.097 826.171 492.917C825.63 494.737 824.592 496.377 823.903 498.152C823.554 499.051 823.271 500.033 822.605 500.725C821.57 501.819 819.893 502.007 818.368 502C816.764 501.99 815.165 501.84 813.588 501.552C809.505 500.808 805 498.788 800.917 499.506Z" fill="white"/>
<path id="Path_22" d="M826.217 498.939C820.905 498.347 815.627 497.513 810.384 496.437C807.814 495.91 805.219 495.322 802.598 495.425C800.892 495.493 799.058 495.826 797.557 495C799.019 499.864 799.108 504.989 797.359 509.762C796.324 512.605 794.745 515.255 793.985 518.182C792.403 524.304 794.575 530.98 792.597 536.993C792.388 537.778 791.977 538.499 791.403 539.085C790.798 539.627 789.972 539.908 789.414 540.495C788.591 541.36 788.541 542.66 788.537 543.839L788.502 554.283C788.479 560.933 788.568 567.984 792.159 573.617C796.254 580.062 804.874 583.402 812.378 581.442C814.373 580.943 816.242 580.049 817.869 578.815C820.474 576.79 822.134 573.864 823.759 571.013C825.698 567.601 827.637 564.113 828.261 560.273C828.703 557.555 828.455 554.78 828.137 552.046C826.384 536.883 822.58 521.848 823.398 506.627C823.521 503.844 824.504 501.164 826.217 498.939Z" fill="#E08AF7"/>
<path id="Path_23" d="M849.137 561.724C846.457 561.879 843.758 562.034 841.089 561.724C839.161 561.492 837.28 561.015 835.367 560.69C824.797 558.976 814.009 561.986 805.835 568.932C804.354 570.202 802.858 572.15 803.675 573.928C804.554 575.841 807.242 575.787 809.313 575.431C807.078 576.503 805.103 578.054 803.529 579.974C802.95 580.683 802.403 581.523 802.515 582.441C802.75 584.358 805.341 584.707 807.257 584.54C806.633 585.214 807.053 586.407 807.847 586.864C808.642 587.321 809.629 587.228 810.527 587.062C812.513 586.696 814.433 586.029 816.219 585.082C815.856 586.031 816.485 587.143 817.375 587.615C818.266 588.088 819.35 588.053 820.348 587.89C825.06 587.116 828.993 583.824 833.59 582.53C840.939 580.466 848.628 583.758 856.266 583.99C858.657 584.064 861.109 583.82 863.288 582.828C865.96 581.608 868.115 579.319 870.938 578.506C874.073 577.608 877.67 578.642 880.539 577.089C882.625 575.961 880.744 567.274 880.211 565.601C879.236 562.541 878.257 560.512 875.006 560.202C866.781 559.393 857.423 561.244 849.137 561.724Z" fill="#EFB7B9"/>
<path id="Path_24" d="M869.5 560.409C869.5 560.409 881.854 570.734 874.726 582L888.5 577.304V567.447C888.5 566.979 883.27 559.941 883.27 559.941L877.091 559L869.5 560.409Z" fill="white"/>
<path id="Path_25" d="M739.16 559H743.84C749.175 559 753.5 563.325 753.5 568.66V583H729.5V568.66C729.5 566.098 730.518 563.641 732.329 561.829C734.141 560.018 736.598 559 739.16 559Z" fill="#3F3D56"/>
<path id="Path_26" opacity="0.1" d="M739.16 559H743.84C749.175 559 753.5 563.325 753.5 568.66V583H729.5V568.66C729.5 566.098 730.518 563.641 732.329 561.829C734.141 560.018 736.598 559 739.16 559Z" fill="black"/>
<circle id="Oval_2" cx="740.5" cy="563" r="2" fill="#3F3D56"/>
<circle id="Oval_3" cx="740.5" cy="561" r="2" fill="#3F3D56"/>
<circle id="Oval_4" cx="740.5" cy="558" r="2" fill="#3F3D56"/>
<circle id="Oval_5" cx="740.5" cy="556" r="2" fill="#3F3D56"/>
<circle id="Oval_6" cx="740.5" cy="553" r="2" fill="#3F3D56"/>
<circle id="Oval_7" cx="740.5" cy="551" r="2" fill="#3F3D56"/>
<circle id="Oval_8" cx="740.5" cy="548" r="2" fill="#3F3D56"/>
<circle id="Oval_9" cx="743.5" cy="550" r="2" fill="#3F3D56"/>
<circle id="Oval_10" cx="745.5" cy="548" r="2" fill="#3F3D56"/>
<circle id="Oval_11" cx="747.5" cy="547" r="2" fill="#3F3D56"/>
<circle id="Oval_12" cx="740.5" cy="546" r="2" fill="#3F3D56"/>
<circle id="Oval_13" cx="740.5" cy="544" r="2" fill="#3F3D56"/>
<circle id="Oval_14" cx="740.5" cy="541" r="2" fill="#3F3D56"/>
<circle id="Oval_15" cx="740.5" cy="539" r="2" fill="#3F3D56"/>
<path id="Path_27" d="M748.329 532.645C747.859 532.713 747.389 532.762 746.919 532.792C747.356 532.411 747.762 531.995 748.132 531.549C747.871 530.757 747.487 530.011 746.995 529.339C746.528 529.601 746.011 529.764 745.478 529.816C745.012 529.885 744.542 529.934 744.072 529.968C744.69 529.464 745.266 528.705 745.873 528.072C743.072 525.534 738.876 525.302 735.812 527.518C732.749 529.733 731.655 533.79 733.189 537.246C734.723 540.701 738.466 542.61 742.164 541.824C745.862 541.038 748.504 537.771 748.5 533.991C748.5 533.529 748.46 533.069 748.379 532.614L748.329 532.645Z" fill="#F7DD8A"/>
<path id="Path_28" d="M755.453 540.978C754.944 541.292 754.369 541.483 753.774 541.537C753.279 541.609 752.781 541.666 752.283 541.698C752.812 541.223 753.307 540.71 753.762 540.163C751.266 539.512 748.685 540.866 747.803 543.289C746.92 545.712 748.026 548.409 750.355 549.516C752.684 550.622 755.473 549.775 756.794 547.561C758.115 545.346 757.534 542.49 755.453 540.966V540.978Z" fill="#F7DD8A"/>
<circle id="Oval_16" cx="737.5" cy="550" r="2" fill="#3F3D56"/>
<circle id="Oval_17" cx="736.5" cy="548" r="2" fill="#3F3D56"/>
<circle id="Oval_18" cx="733.5" cy="547" r="2" fill="#3F3D56"/>
<path id="Path_29" d="M726.547 540.978C727.056 541.292 727.631 541.483 728.226 541.537C728.721 541.609 729.219 541.666 729.717 541.698C729.187 541.224 728.692 540.711 728.238 540.163C730.734 539.512 733.315 540.866 734.197 543.289C735.08 545.712 733.974 548.409 731.645 549.516C729.316 550.622 726.527 549.775 725.206 547.561C723.885 545.346 724.466 542.49 726.547 540.966V540.978Z" fill="#F7DD8A"/>
<path id="Path_30" d="M739.167 560H743.844C749.177 560 753.5 564.325 753.5 569.66V582.362C753.5 583.266 752.767 584 751.862 584H731.138C730.703 584 730.287 583.827 729.98 583.52C729.673 583.213 729.5 582.796 729.5 582.362V569.66C729.5 567.096 730.519 564.637 732.332 562.825C734.145 561.013 736.604 559.997 739.167 560Z" fill="#3F3D56"/>
<g id="Group_2" opacity="0.1">
<path id="Path_31" d="M748.239 533.591C748.04 533.803 747.829 534.003 747.606 534.191C747.832 534.191 748.053 534.155 748.279 534.132C748.271 533.95 748.259 533.768 748.239 533.591Z" fill="black"/>
<path id="Path_32" d="M744.657 531.246C745.151 531.214 745.638 531.163 746.128 531.092C746.568 531.036 746.998 530.92 747.405 530.745C747.205 530.35 746.975 529.971 746.717 529.612C746.471 529.761 746.205 529.874 745.926 529.947C745.539 530.413 745.114 530.848 744.657 531.246Z" fill="black"/>
<path id="Path_33" d="M732.579 535.458C732.573 532.409 734.237 529.602 736.917 528.14C739.596 526.678 742.862 526.796 745.428 528.447L745.555 528.313C743.317 526.326 740.184 525.688 737.346 526.643C734.508 527.597 732.401 529.997 731.824 532.932C731.247 535.866 732.29 538.883 734.556 540.838C733.277 539.336 732.577 537.429 732.579 535.458Z" fill="black"/>
</g>
<g id="Group_3" opacity="0.1">
<path id="Path_34" d="M752.377 544.44C752.854 544.411 753.331 544.365 753.804 544.3C754.374 544.251 754.924 544.08 755.412 543.8C756.504 544.547 757.203 545.69 757.335 546.943C757.353 546.788 757.362 546.632 757.362 546.475C757.369 545.068 756.655 543.742 755.438 542.904C754.951 543.182 754.401 543.352 753.831 543.4L753.446 543.447C753.118 543.803 752.76 544.135 752.377 544.44Z" fill="black"/>
<path id="Path_35" d="M752.569 542.925C752.729 542.927 752.888 542.937 753.046 542.957C753.296 542.711 753.542 542.446 753.792 542.189C752.359 541.834 750.829 542.118 749.654 542.957C748.478 543.797 747.79 545.097 747.792 546.475C747.792 546.625 747.792 546.771 747.815 546.918C748.06 544.651 750.115 542.924 752.569 542.925Z" fill="black"/>
</g>
<g id="Group_4" opacity="0.1">
<path id="Path_36" d="M729.72 544.44C729.224 544.411 728.728 544.365 728.236 544.3C727.643 544.251 727.071 544.08 726.564 543.8C725.428 544.547 724.701 545.69 724.564 546.943C724.545 546.788 724.535 546.632 724.536 546.475C724.528 545.068 725.271 543.742 726.536 542.904C727.043 543.182 727.615 543.352 728.208 543.4L728.608 543.447C728.947 543.805 729.319 544.137 729.72 544.44Z" fill="black"/>
<path id="Path_37" d="M729.52 542.925C729.353 542.927 729.186 542.937 729.02 542.957C728.764 542.711 728.508 542.446 728.248 542.189C729.739 541.834 731.329 542.118 732.552 542.957C733.775 543.797 734.491 545.097 734.488 546.475C734.488 546.625 734.488 546.771 734.464 546.918C734.209 544.651 732.072 542.924 729.52 542.925Z" fill="black"/>
</g>
<path id="Path_38" d="M715.959 589H679.067C678.202 589 677.5 588.285 677.5 587.402V569.598C677.5 569.05 677.775 568.54 678.23 568.247C678.684 567.954 679.254 567.919 679.739 568.154C690.339 573.283 701.757 575.043 715.234 568.235C715.72 567.991 716.295 568.019 716.755 568.309C717.216 568.6 717.497 569.112 717.5 569.664V587.375C717.507 587.799 717.348 588.208 717.06 588.513C716.771 588.818 716.375 588.993 715.959 589Z" fill="#003B50"/>
<path id="Path_39" opacity="0.1" d="M715.959 589H679.067C678.202 589 677.5 588.285 677.5 587.402V569.598C677.5 569.05 677.775 568.54 678.23 568.247C678.684 567.954 679.254 567.919 679.739 568.154C690.339 573.283 701.757 575.043 715.234 568.235C715.72 567.991 716.295 568.019 716.755 568.309C717.216 568.6 717.497 569.112 717.5 569.664V587.375C717.507 587.799 717.348 588.208 717.06 588.513C716.771 588.818 716.375 588.993 715.959 589Z" fill="#00485A"/>
<ellipse id="Oval_19" cx="698" cy="573" rx="2.5" ry="3" fill="#3F3D56"/>
<ellipse id="Oval_20" cx="698" cy="569" rx="2.5" ry="3" fill="#3F3D56"/>
<ellipse id="Oval_21" cx="698" cy="565" rx="2.5" ry="3" fill="#3F3D56"/>
<ellipse id="Oval_22" cx="698" cy="562" rx="2.5" ry="3" fill="#3F3D56"/>
<ellipse id="Oval_23" cx="698" cy="558" rx="2.5" ry="3" fill="#3F3D56"/>
<ellipse id="Oval_24" cx="698" cy="555" rx="2.5" ry="3" fill="#3F3D56"/>
<ellipse id="Oval_25" cx="698" cy="551" rx="2.5" ry="3" fill="#3F3D56"/>
<path id="Path_40" d="M705.135 527.039C705.446 526.656 705.731 526.255 705.988 525.837L699.957 524.889L706.48 524.935C707.752 522.302 707.828 519.284 706.69 516.595L697.942 520.932L706.012 515.246C703.952 511.843 700.076 509.823 695.966 510.012C691.857 510.201 688.201 512.566 686.493 516.142C684.784 519.719 685.309 523.907 687.852 526.997C687.362 527.589 686.941 528.231 686.598 528.911L694.423 532.838L686.091 530.147C684.904 533.508 685.571 537.213 687.864 540.002C684.319 544.309 684.833 550.495 689.046 554.212C693.258 557.929 699.753 557.929 703.966 554.212C708.178 550.495 708.692 544.309 705.147 540.002C708.284 536.192 708.284 530.826 705.147 527.016L705.135 527.039Z" fill="#D0DF00"/>
<path id="Path_41" opacity="0.1" d="M686.5 533.157C686.497 535.548 687.288 537.87 688.747 539.748C685.361 544.118 685.853 550.397 689.876 554.17C693.898 557.943 700.102 557.943 704.124 554.17C708.147 550.397 708.639 544.118 705.253 539.748C706.659 537.936 686.5 531.961 686.5 533.157Z" fill="black"/>
<path id="Path_42" d="M715.959 590H679.067C678.202 590 677.5 589.283 677.5 588.398V569.602C677.5 569.053 677.775 568.542 678.23 568.248C678.684 567.954 679.254 567.919 679.739 568.155C690.339 573.297 698.744 579.292 715.234 568.236C716.212 567.58 717.5 568.475 717.5 569.668V588.39C717.504 589.268 716.817 589.985 715.959 590Z" fill="#00485A"/>
<path id="Path_43" d="M993.5 585.33L938.266 592.636L935.504 593L908.5 578.579V575.203L992.887 566L993.5 585.33Z" fill="#9C9CA1"/>
<path id="Path_44" d="M924.5 579.315L983.5 572L982.895 583.456L936.939 587L924.5 579.315Z" fill="#939498"/>
<path id="Path_45" opacity="0.4" d="M939.5 588.95V592.613L936.716 593L909.5 578.411V575L935.476 588.938C935.476 588.938 938.882 589.26 939.5 588.95Z" fill="black"/>
<path id="Path_46" d="M949.018 530.847L936.584 588.535C936.33 589.707 936.661 590.93 937.474 591.812C938.286 592.694 939.476 593.126 940.665 592.968L1019.33 582.549C1020.73 582.365 1021.9 581.397 1022.34 580.058L1039.31 528.848C1039.69 527.695 1039.48 526.428 1038.75 525.46C1038.02 524.492 1036.85 523.948 1035.64 524.004L952.445 527.956C950.781 528.035 949.377 529.22 949.018 530.847Z" fill="#3F3D56"/>
</g>
</g>
</svg>
