<?xml version="1.0" encoding="UTF-8"?>
<svg width="1024px" height="600px" viewBox="0 0 1024 600" version="1.1" xmlns="http://www.w3.org/2000/svg" xmlns:xlink="http://www.w3.org/1999/xlink">
    <title>institute hero</title>
    <defs>
        <filter id="filter-1">
            <feColorMatrix in="SourceGraphic" type="matrix" values="0 0 0 0 1.000000 0 0 0 0 0.940883 0 0 0 0 0.810051 0 0 0 1.000000 0"></feColorMatrix>
        </filter>
        <path d="M0.725490196,72.21875 L8.70588235,72.21875 L8.70588235,104.53125 L0.725490196,104.53125 L0.725490196,72.21875 Z M0,63.40625 C0,62.2355011 0.375852608,61.1818431 1.02422145,60.2589286 C1.87928559,59.4363634 2.91943583,59 4.09688581,59 C5.57666622,59 6.6517795,59.4363634 7.6816609,60.2589286 C8.29506671,61.1818431 8.70588235,62.2355011 8.70588235,63.40625 C8.70588235,64.7047163 8.29506671,65.7370882 7.6816609,66.5535714 C6.6517795,67.3974226 5.57666622,67.8125 4.09688581,67.8125 C2.91943583,67.8125 1.87928559,67.3974226 1.02422145,66.5535714 C0.375852608,65.7370882 0,64.7047163 0,63.40625 Z M36.8351159,105.265625 L36.8351159,86.4260817 C36.7603886,83.9277793 36.3915459,81.9999392 35.5819964,80.5793269 C34.9161533,79.6339313 33.6620884,79.0424368 31.8226381,79.2800481 C30.3319164,79.0424368 29.0146213,79.5134417 28.0632799,80.5793269 C26.8647635,81.3974897 26.0954631,82.5695253 25.557041,83.827524 L25.557041,105.265625 L17.4117647,105.265625 L17.4117647,72.1340144 L23.6773619,72.1340144 L24.9304813,76.6814904 L24.9304813,76.6814904 C26.0954657,75.3400749 27.3811457,74.1132661 28.6898396,72.7836538 C30.5848554,72.010148 32.6503741,71.484375 34.9554367,71.484375 C36.7393194,71.484375 38.130383,71.7034471 39.3413547,72.1340144 C40.5753194,72.5797485 41.6080788,73.3026863 42.4741533,74.0829327 C43.2942418,75.3181795 43.9265434,76.6873799 44.3538324,78.6304087 C44.7696249,80.1487704 44.9803922,82.284723 44.9803922,85.1268029 L44.9803922,105.265625 L36.8351159,105.265625 Z M64.3921569,96.2314269 C64.3700515,95.1920727 64.013536,94.4947943 63.1372549,94.2777123 C62.5874524,93.448861 61.7066492,92.9694821 60.627451,92.3239976 C59.6094675,92.0978711 58.4560348,91.6511771 57.4901961,91.0215212 C55.9394166,90.7359855 54.785984,90.104077 53.7254902,89.0678066 C52.6888022,88.4915965 51.807999,87.4674689 51.2156863,86.4628538 C50.3819154,84.9833774 50.0253999,83.3818162 49.9607843,81.2529481 C50.0253999,78.1957304 50.948146,75.7334661 53.0980392,74.0893278 C54.6391859,72.334183 57.3025669,71.484375 60.627451,71.484375 C63.1746759,71.484375 65.3347407,71.7458544 67.5294118,72.1356132 C69.1935552,72.791785 70.7035034,73.3801163 71.9215686,74.0893278 L70.0392157,79.9504717 C69.0047953,79.7864268 67.7884481,79.3724177 66.2745098,78.6479953 C64.8523936,78.5008067 63.3634169,78.2829072 61.8823529,77.9967571 C59.4207151,78.2829072 58.2043679,79.2634549 58.1176471,81.2529481 C58.2043679,82.0090297 58.5608835,82.6409383 59.372549,83.2066627 C59.9869671,83.5997104 60.8677702,84.0464044 61.8823529,84.5091392 C62.964952,84.8744349 64.1183847,85.3211288 65.6470588,85.8116156 C66.6350028,86.279901 67.7884355,86.9009146 68.7843137,87.7653302 C69.8856173,88.4262339 70.7664204,89.4176766 71.2941176,90.370283 C72.1925041,91.8581875 72.5490196,93.4270639 72.5490196,95.5801887 C72.5490196,98.6567302 71.5319017,101.260629 69.4117647,103.395047 C67.463369,105.052137 64.4120153,106 60.627451,106 C58.12047,106 56.0338054,105.705836 54.3529412,105.348762 C52.1330473,104.529161 50.5496988,103.842773 49.3333333,102.743809 L51.8431373,96.8826651 C52.562982,97.2839359 53.8422437,97.8395796 55.6078431,98.1851415 C57.02996,98.9290934 58.6657372,99.2014678 60.627451,99.4876179 C61.5598481,99.2014678 62.535023,98.9617784 63.1372549,98.1851415 C64.0030502,98.0030062 64.3700515,97.1967781 64.3921569,96.2314269 Z M74.7254902,71.925 L79.2064591,71.925 L79.2064591,66.0274038 L87.5282584,63.40625 L87.5282584,71.925 L95.2099193,71.925 L95.2099193,79.1331731 L87.5282584,79.1331731 L87.5282584,92.2389423 C87.501822,94.2894817 87.7265291,95.9293797 88.1683968,96.8259615 C88.625371,97.9104943 89.4706977,98.4057655 90.7289504,98.1365385 C91.5679955,98.4057655 92.3063188,98.3177173 92.6493656,98.1365385 C93.5475767,97.9655191 94.2430987,97.7013745 95.2099193,97.48125 L96.4901961,104.034135 C95.3345422,104.525181 93.9862996,105.009448 92.6493656,105.344712 C90.9045559,105.801892 89.3423065,106 87.5282584,106 C84.805295,106 82.6331263,105.218572 81.1268743,103.378846 C79.8509966,102.092814 79.1554746,99.5284093 79.2064591,96.1706731 L79.2064591,79.1331731 L74.7254902,79.1331731 L74.7254902,71.925 Z M100.843137,72.21875 L108.823529,72.21875 L108.823529,104.53125 L100.843137,104.53125 L100.843137,72.21875 Z M100.117647,63.40625 C100.117647,62.2355011 100.4935,61.1818431 101.141869,60.2589286 C101.996933,59.4363634 103.037083,59 104.214533,59 C105.694313,59 106.769427,59.4363634 107.799308,60.2589286 C108.412714,61.1818431 108.823529,62.2355011 108.823529,63.40625 C108.823529,64.7047163 108.412714,65.7370882 107.799308,66.5535714 C106.769427,67.3974226 105.694313,67.8125 104.214533,67.8125 C103.037083,67.8125 101.996933,67.3974226 101.141869,66.5535714 C100.4935,65.7370882 100.117647,64.7047163 100.117647,63.40625 Z M113.901961,71.925 L118.38293,71.925 L118.38293,66.0274038 L126.704729,63.40625 L126.704729,71.925 L134.38639,71.925 L134.38639,79.1331731 L126.704729,79.1331731 L126.704729,92.2389423 C126.678293,94.2894817 126.903,95.9293797 127.344867,96.8259615 C127.801842,97.9104943 128.647168,98.4057655 129.905421,98.1365385 C130.744466,98.4057655 131.482789,98.3177173 131.825836,98.1365385 C132.724047,97.9655191 133.419569,97.7013745 134.38639,97.48125 L135.666667,104.034135 C134.511013,104.525181 133.16277,105.009448 131.825836,105.344712 C130.081026,105.801892 128.518777,106 126.704729,106 C123.981766,106 121.809597,105.218572 120.303345,103.378846 C119.027467,102.092814 118.331945,99.5284093 118.38293,96.1706731 L118.38293,79.1331731 L113.901961,79.1331731 L113.901961,71.925 Z M147.439394,72.21875 L147.439394,91.0582933 C147.347874,93.5565957 147.647306,95.4844299 148.065954,96.9050481 C148.84505,97.8504377 150.0118,98.4419382 151.825312,98.2043269 C153.27462,98.4419382 154.544623,97.9599797 155.58467,96.9050481 C156.568398,96.0321166 157.322139,94.8491275 158.090909,93.656851 L158.090909,72.21875 L165.609626,72.21875 L165.609626,94.9561298 C165.871514,96.88652 165.954115,98.6500501 166.236185,100.153245 C166.284528,102.111441 166.532333,103.677806 166.862745,105.350361 L160.597148,105.350361 L159.344029,100.153245 L159.344029,100.153245 C158.168814,101.881412 156.847185,103.261566 154.958111,104.051082 C153.46046,105.45232 151.457366,106 149.319073,106 C147.575023,106 146.170793,105.780928 144.933155,105.350361 C143.692701,104.904627 142.660179,104.181689 141.800357,103.401442 C141.008118,102.166196 140.378279,100.807949 139.920677,98.8539663 C139.510947,97.3903733 139.294118,95.243467 139.294118,92.3575721 L139.294118,72.21875 L147.439394,72.21875 Z M169.764706,71.925 L174.245675,71.925 L174.245675,66.0274038 L182.567474,63.40625 L182.567474,71.925 L190.249135,71.925 L190.249135,79.1331731 L182.567474,79.1331731 L182.567474,92.2389423 C182.541038,94.2894817 182.765745,95.9293797 183.207612,96.8259615 C183.664587,97.9104943 184.509913,98.4057655 185.768166,98.1365385 C186.607211,98.4057655 187.345535,98.3177173 187.688581,98.1365385 C188.586792,97.9655191 189.282314,97.7013745 190.249135,97.48125 L191.529412,104.034135 C190.373758,104.525181 189.025515,105.009448 187.688581,105.344712 C185.943772,105.801892 184.381522,106 182.567474,106 C179.844511,106 177.672342,105.218572 176.16609,103.378846 C174.890212,102.092814 174.19469,99.5284093 174.245675,96.1706731 L174.245675,79.1331731 L169.764706,79.1331731 L169.764706,71.925 Z M220.746881,102.092571 C219.744379,103.319815 218.042242,104.202308 215.734403,104.697524 C213.739844,105.640466 211.452924,106 208.842246,106 C203.97594,106 200.279275,104.463809 198.190731,101.441333 C195.600939,98.3189507 194.431373,94.1025955 194.431373,89.0678066 C194.431373,82.9895546 195.747135,78.6751446 198.190731,76.0430425 C201.010263,72.9225117 204.706928,71.484375 209.468806,71.484375 C211.056098,71.484375 212.601597,71.7022745 213.854724,72.1356132 C215.609098,72.5738855 216.945746,73.2929539 218.240642,74.0893278 C219.284914,75.2976593 220.224744,76.6486362 220.746881,78.6479953 C221.644953,80.0479192 222,82.1615443 222,84.5091392 C222,85.604408 221.947787,86.5849557 222,87.7653302 C221.738933,88.6768222 221.582295,89.7663197 221.37344,91.0215212 L202.576649,91.0215212 C202.701961,93.6449889 203.380728,95.7150341 204.456328,96.8826651 C205.845208,98.5041894 207.839737,99.2014678 210.721925,99.4876179 C212.309218,99.2014678 213.844274,98.9290934 215.107843,98.1851415 C216.55938,97.8395796 217.593193,97.2839359 218.240642,96.8826651 L220.746881,102.092571 Z M209.552116,78.09375 C207.103167,78.09375 205.440264,78.7603635 204.359133,80.0965909 C203.281763,81.4268575 202.63202,83.2081362 202.411765,85.4375 L214.745098,85.4375 C214.87815,83.0769971 214.514734,81.2629342 213.446852,80.0965909 C212.708641,78.7275792 211.288016,78.09375 209.552116,78.09375 Z" id="path-2"></path>
    </defs>
    <g id="institute-hero" stroke="none" stroke-width="1" fill="none" fill-rule="evenodd">
        <rect id="Rectangle" fill="#75955B" x="0" y="0" width="1024" height="600"></rect>
        <g id="undraw_teacher_35j2" transform="translate(279.000000, 360.000000)">
            <path d="M435.838248,222.654831 C434.130593,226.867259 432.028359,230.908863 429.559607,234.725692 C428.401704,236.545733 427.131528,238.291917 425.756457,239.954103 C425.744261,239.970986 425.730137,239.986389 425.71437,240 L0.5,240 L0.557391601,239.954103 C0.940002272,239.655774 3.18592692,237.839025 6.67916235,234.725692 C9.18526225,232.495872 12.330322,229.596724 15.8618185,226.108566 C44.7450981,197.709916 100.227472,130.490216 54.0195808,68.9119991 C11.0638806,11.6672054 57.3138586,1.27922791 87.8232336,0.0667872375 C99.5451548,-0.392258259 111.239158,1.51875086 122.204629,5.68532147 C136.300006,11.0399491 162.061182,19.2478282 195.62379,23.0113665 C196.725709,23.1337579 197.83528,23.2561494 198.960155,23.3670667 C216.7293,25.1756655 234.61833,25.5006178 252.441475,24.3385491 L252.441475,24.3385491 C252.965652,24.3079513 253.493654,24.2697039 254.025483,24.2314566 C271.657017,22.9938364 289.154536,20.2880159 306.336014,16.1421442 C307.449411,15.8705881 308.547504,15.6143309 309.641771,15.3580737 C366.891805,2.11684466 419.669121,47.244881 406.472879,98.2438841 C401.594593,117.107472 402.834252,137.214099 419.099031,153.480692 C445.728734,180.031996 442.503326,206.181702 435.838248,222.654831 Z" id="Path" fill="#D0DF00" fill-rule="nonzero" opacity="0.198378619"></path>
            <path d="M436.5,222.511358 C434.793446,226.769898 432.692568,230.855744 430.22541,234.714355 C429.068254,236.554319 427.798898,238.319618 426.424714,240 L1.5,240 C1.8823638,239.698405 4.1268393,237.861769 7.61782079,234.714355 C10.1223037,232.460126 13.2653341,229.529241 16.794552,226.0029 L61.5808238,216.645723 C62.1595059,216.525001 62.7488296,216.464111 63.3396973,216.463992 L111.085465,216.394393 L111.135172,216.394393 L134.784373,216.363461 L134.837904,216.363461 L154.797294,216.340261 L167.862665,216.340261 L167.862665,216.340261 L181.245398,216.340261 L236.084015,216.262929 L236.171958,216.262929 L240.42002,216.262929 L247.883761,216.262929 L257.201967,216.262929 L259.679685,216.262929 L269.097305,216.154664 L272.209746,216.154664 L299.602289,216.115998 L308.350773,216.115998 L308.350773,216.115998 L312.556774,216.115998 L312.556774,216.115998 L344.197379,216.073465 L353.618823,216.073465 L383.588497,216.030933 L408.885686,216 C409.590206,216.000393 410.292225,216.084751 410.977216,216.251329 L436.5,222.511358 Z" id="Path" fill="#454B69" fill-rule="nonzero"></path>
            <path d="M7.62173913,235 L430.5,235 C429.342103,236.74053 428.071934,238.410429 426.69687,240 L1.5,240 C1.87495652,239.696416 4.12086957,237.959034 7.62173913,235 Z" id="Path"></path>
            <path d="M7.62173913,235 L430.5,235 C429.342103,236.74053 428.071934,238.410429 426.69687,240 L1.5,240 C1.87495652,239.696416 4.12086957,237.959034 7.62173913,235 Z" id="Path" fill="#000000" fill-rule="nonzero" opacity="0.4"></path>
            <path d="M280.5,115.817691 L279.653817,115.982031 L241.400264,123.350602 C230.289353,125.490851 219.018353,127.642565 207.732107,126.820863 C199.556153,126.22465 191.91764,123.793939 184.061863,121.661334 C179.62131,120.453623 174.913943,119.972067 173.408348,114.988345 C171.331007,108.108974 174.711926,97.9236828 175.508558,90.952587 C176.270884,84.1114348 176.720657,77.0982983 175.363716,70.3374055 C175.06227,68.8180831 174.665063,67.3194512 174.174486,65.8505269 C172.813733,61.8031637 170.675407,57.5952818 171.830331,53.4867686 C172.741312,50.2267112 175.519993,47.8991907 178.119527,45.7436545 C183.211869,41.5395945 188.410937,36.8272254 190.431103,30.5249573 C191.422127,27.4674591 191.608897,24.1768267 192.676155,21.1422597 C194.700132,15.3712319 199.784851,11.0563376 205.441315,8.77085773 C211.097779,6.48537784 217.318365,6 223.42079,6 C228.809159,6 234.191571,6.35907056 239.532564,7.07394624 C245.35674,7.83832078 251.234279,9.09571691 256.353302,11.9926964 C261.472326,14.889676 265.787095,19.6364419 266.980136,25.4227572 C268.66869,33.6053867 263.980381,42.3192565 266.496059,50.2649299 C267.761521,54.2817182 270.688856,57.5264881 272.720456,61.2031297 C276.067457,67.4170482 276.755241,74.727148 274.626273,81.4590551 C272.194451,89.0148975 266.240679,96.658643 269.289986,103.985173 C271.230108,108.644036 276.185231,111.132075 279.638571,114.824004 C279.946043,115.155233 280.233186,115.486462 280.5,115.817691 Z" id="Path" fill="#454B69" fill-rule="nonzero"></path>
            <path d="M281.5,114.793612 L281.5,115.926724 L242.856605,123.332283 C231.632463,125.483275 220.2466,127.645791 208.845335,126.819963 C200.58606,126.220758 192.869703,123.777846 184.933868,121.634535 C180.448062,120.420761 175.692722,119.936788 174.171783,114.928049 C172.073273,108.014145 175.488646,97.7777259 176.293396,90.7716366 C177.063492,83.8961433 188.919113,58.7948311 187.548343,52 L258.397133,55.0728462 C258.874593,58.8255596 277.599466,77.6621066 276.432771,81.2611777 C273.976166,88.8549488 267.96172,96.5370642 271.042102,103.900372 C273.005846,108.582621 278.011467,111.08315 281.5,114.793612 Z" id="Path" fill="#000000" fill-rule="nonzero" opacity="0.1"></path>
            <path d="M209.337692,95.4796284 C209.75399,97.8461112 209.975506,100.449625 208.768625,102.514085 C207.160725,105.28199 203.654661,106.16512 200.519064,106.792104 L189.634227,108.971257 C188.893294,109.120356 188.10653,109.288572 187.55274,109.797041 C186.89965,110.381971 186.678134,111.307155 186.582653,112.178816 C186.14344,116.124228 187.537463,120.012294 188.809271,123.770376 C191.37962,131.382117 193.537491,139.154426 196.787666,146.498551 C200.03784,153.842677 204.498714,160.854194 210.865389,165.763021 C217.232064,170.671848 225.65731,173.286831 233.452381,171.367648 C240.242992,169.696965 245.811446,164.899007 250.612232,159.810495 C254.572785,155.605114 258.277449,151.017425 260.198527,145.561898 C261.523804,141.815286 261.955378,137.823996 262.371676,133.870938 C263.015854,127.810091 263.660033,121.749244 264.304212,115.688398 C264.605932,112.844031 264.804532,109.644118 262.959839,107.461142 C262.15016,106.501551 261.050218,105.863097 259.927361,105.270521 C255.749111,103.049315 251.349345,101.214239 247.461358,98.5380876 C243.57337,95.8619358 240.124596,92.1764924 238.94445,87.6040958 C238.23789,84.8591287 238.363925,81.8694848 237.160864,79.3118483 C235.816491,76.4445427 232.959699,74.5024211 229.904306,73.6498756 C226.848913,72.7973301 223.625474,72.9120223 220.478419,73.2675682 C217.331364,73.6231141 205.201454,74.5330057 203.899093,78.0846415 C203.200172,79.9961785 206.098976,84.098337 206.786439,85.9792894 C207.918049,89.0636172 208.771867,92.2430577 209.337692,95.4796284 Z" id="Path" fill="#EFB7B9" fill-rule="nonzero"></path>
            <path d="M209.337692,95.4796284 C209.75399,97.8461112 209.975506,100.449625 208.768625,102.514085 C207.160725,105.28199 203.654661,106.16512 200.519064,106.792104 L189.634227,108.971257 C188.893294,109.120356 188.10653,109.288572 187.55274,109.797041 C186.89965,110.381971 186.678134,111.307155 186.582653,112.178816 C186.14344,116.124228 187.537463,120.012294 188.809271,123.770376 C191.37962,131.382117 193.537491,139.154426 196.787666,146.498551 C200.03784,153.842677 204.498714,160.854194 210.865389,165.763021 C217.232064,170.671848 225.65731,173.286831 233.452381,171.367648 C240.242992,169.696965 245.811446,164.899007 250.612232,159.810495 C254.572785,155.605114 258.277449,151.017425 260.198527,145.561898 C261.523804,141.815286 261.955378,137.823996 262.371676,133.870938 C263.015854,127.810091 263.660033,121.749244 264.304212,115.688398 C264.605932,112.844031 264.804532,109.644118 262.959839,107.461142 C262.15016,106.501551 261.050218,105.863097 259.927361,105.270521 C255.749111,103.049315 251.349345,101.214239 247.461358,98.5380876 C243.57337,95.8619358 240.124596,92.1764924 238.94445,87.6040958 C238.23789,84.8591287 238.363925,81.8694848 237.160864,79.3118483 C235.816491,76.4445427 232.959699,74.5024211 229.904306,73.6498756 C226.848913,72.7973301 223.625474,72.9120223 220.478419,73.2675682 C217.331364,73.6231141 205.201454,74.5330057 203.899093,78.0846415 C203.200172,79.9961785 206.098976,84.098337 206.786439,85.9792894 C207.918049,89.0636172 208.771867,92.2430577 209.337692,95.4796284 Z" id="Path" fill="#000000" fill-rule="nonzero" opacity="0.1"></path>
            <path d="M234.89295,138.354392 L241.321218,124.89162 C244.333387,118.582611 247.410954,111.953965 247.091657,104.986657 C247.030105,103.601567 247.014718,101.870204 248.245744,101.242347 C248.780159,101.026463 249.362468,100.952988 249.934559,101.029257 C256.702033,101.371547 263.380368,102.707845 269.750245,104.994267 C270.985118,105.43567 272.250768,105.945566 273.116334,106.919695 C273.981899,107.893824 274.331973,109.202811 274.628188,110.458524 C275.637217,114.704264 276.373459,119.008938 276.832496,123.346712 C277.986584,134.084966 277.413387,144.91835 276.832496,155.690851 L275.124446,188.579132 C275.133665,189.045703 275.037734,189.508451 274.843618,189.93378 C274.420453,190.694819 273.466407,190.949767 272.608535,191.094364 C269.303997,191.653727 265.926367,191.539572 262.579513,191.414 C239.036125,190.531196 215.369634,189.176547 191.980124,192 C192.085274,188.577863 192.030134,185.15319 191.814705,181.72598 C190.887588,166.927585 187.009853,152.490684 183.201364,138.152717 C180.981668,129.781293 178.831218,120.64883 182.405043,112.760666 C182.93058,111.514944 183.685902,110.376842 184.632432,109.404486 C186.151981,107.931876 188.225492,107.155617 190.279768,106.600059 C193.823261,105.646624 197.493546,105.23597 201.162815,105.382397 L225.41789,157.616278 C226.525815,160.005939 227.437544,162.521172 228.541621,164.880391 C229.534136,160.80503 228.341579,156.029513 229.534136,151.611684 C230.819021,147.026427 232.842521,142.639039 234.89295,138.354392 Z" id="Path" fill="#FFFFFF" fill-rule="nonzero"></path>
            <path d="M231.968396,173.966508 C236.300104,174.235856 240.508926,172.043134 243.488895,168.943733 C246.468864,165.844332 248.435029,161.914124 250.09782,157.942187 C252.488192,152.280468 254.388202,146.42868 255.777426,140.449729 C256.929476,135.366256 257.747431,130.104482 256.952517,124.952724 C255.854229,117.839656 251.779813,111.375299 251.084743,104.212913 C250.965698,102.961013 251.042501,101.49667 252.060145,100.741736 C252.689933,100.275119 253.519408,100.210627 254.302802,100.165103 C261.545355,99.7402158 269.50218,99.8198822 275.112662,104.360865 C276.821536,105.741749 278.207836,107.467853 279.878308,108.890467 C283.85672,112.30474 289.478723,114.042225 292.032434,118.575621 C292.923352,120.153774 293.349611,121.940577 293.971718,123.640126 C295.438661,127.66138 297.977011,131.19705 300.5,134.675814 C298.053814,144.873109 295.242813,155.077991 292.796627,165.275286 C291.364245,171.257851 289.920343,177.263178 287.670005,182.991569 C286.195381,186.747269 284.340581,190.578842 284.793721,194.600097 C284.974209,196.182043 285.507992,197.695704 285.972652,199.220746 C287.601507,204.573444 288.364853,210.146596 288.23451,215.734445 L178.659211,216 C183.908718,208.564472 185.448625,199.44457 184.914842,190.396747 C184.657551,186.060621 183.666788,181.697939 181.458692,177.946032 C177.979502,172.065896 171.858277,168.234323 165.825376,164.952827 C161.601194,162.676645 157.065957,175.483962 152.5,174.015825 C153.237312,168.864066 153.575246,148.977824 153.268033,143.791923 C153.168189,142.092374 153.014582,140.347301 153.544525,138.723625 C153.905501,137.612089 154.56985,136.618156 155.019149,135.53697 C156.820187,131.208431 155.103633,125.673515 158.014478,121.989894 C160.026725,119.429189 163.555838,118.700811 166.424442,117.122658 C169.36985,115.498982 171.647068,112.949658 174.212299,110.772111 C179.24574,106.549843 185.396103,103.837038 191.938505,102.953426 C193.847059,105.927323 195.007123,109.309413 195.321692,112.816881 C195.51754,115.020984 195.375454,117.255436 195.686508,119.448157 C196.112766,122.418575 197.35698,125.206898 198.589673,127.95349 C203.723975,139.406479 208.877478,150.89361 215.382719,161.64857 C217.222159,164.683479 219.222885,167.718388 221.887961,170.081824 C224.553036,172.445259 228.389362,174.133428 231.968396,173.966508 Z" id="Path" fill="#E08AF7" fill-rule="nonzero"></path>
            <path d="M231.968396,173.966508 C236.300104,174.235856 240.508926,172.043134 243.488895,168.943733 C246.468864,165.844332 248.435029,161.914124 250.09782,157.942187 C252.488192,152.280468 254.388202,146.42868 255.777426,140.449729 C256.929476,135.366256 257.747431,130.104482 256.952517,124.952724 C255.854229,117.839656 251.779813,111.375299 251.084743,104.212913 C250.965698,102.961013 251.042501,101.49667 252.060145,100.741736 C252.689933,100.275119 253.519408,100.210627 254.302802,100.165103 C261.545355,99.7402158 269.50218,99.8198822 275.112662,104.360865 C276.821536,105.741749 278.207836,107.467853 279.878308,108.890467 C283.85672,112.30474 289.478723,114.042225 292.032434,118.575621 C292.923352,120.153774 293.349611,121.940577 293.971718,123.640126 C295.438661,127.66138 297.977011,131.19705 300.5,134.675814 C298.053814,144.873109 295.242813,155.077991 292.796627,165.275286 C291.364245,171.257851 289.920343,177.263178 287.670005,182.991569 C286.195381,186.747269 284.340581,190.578842 284.793721,194.600097 C284.974209,196.182043 285.507992,197.695704 285.972652,199.220746 C287.601507,204.573444 288.364853,210.146596 288.23451,215.734445 L178.659211,216 C183.908718,208.564472 185.448625,199.44457 184.914842,190.396747 C184.657551,186.060621 183.666788,181.697939 181.458692,177.946032 C177.979502,172.065896 171.858277,168.234323 165.825376,164.952827 C161.601194,162.676645 157.065957,175.483962 152.5,174.015825 C153.237312,168.864066 153.575246,148.977824 153.268033,143.791923 C153.168189,142.092374 153.014582,140.347301 153.544525,138.723625 C153.905501,137.612089 154.56985,136.618156 155.019149,135.53697 C156.820187,131.208431 155.103633,125.673515 158.014478,121.989894 C160.026725,119.429189 163.555838,118.700811 166.424442,117.122658 C169.36985,115.498982 171.647068,112.949658 174.212299,110.772111 C179.24574,106.549843 185.396103,103.837038 191.938505,102.953426 C193.847059,105.927323 195.007123,109.309413 195.321692,112.816881 C195.51754,115.020984 195.375454,117.255436 195.686508,119.448157 C196.112766,122.418575 197.35698,125.206898 198.589673,127.95349 C203.723975,139.406479 208.877478,150.89361 215.382719,161.64857 C217.222159,164.683479 219.222885,167.718388 221.887961,170.081824 C224.553036,172.445259 228.389362,174.133428 231.968396,173.966508 Z" id="Path" fill="#000000" fill-rule="nonzero" opacity="0.1"></path>
            <circle id="Oval" fill="#EFB7B9" fill-rule="nonzero" cx="226" cy="61.5" r="32.5"></circle>
            <path d="M208.468339,105.984646 C209.366876,97.4911433 205.841554,89.1814497 201.849757,81.6337972 C199.937978,78.0265477 197.888549,74.4307863 196.928836,70.4674071 C195.969122,66.5040279 196.244419,62.0160274 198.699144,58.757249 C200.786808,55.9847982 204.098011,54.4875216 207.160682,52.8600471 C215.80575,48.2648248 223.709048,41.5098481 227.509667,32.476407 C225.360826,33.6481887 225.919066,37.1443869 227.815552,38.6876157 C229.712037,40.2308446 232.296764,40.529534 234.629135,41.2647696 C243.132732,43.9453159 248.233361,52.4388184 252.32457,60.3732355 C252.993693,61.6675564 253.674286,63.034635 253.666639,64.4936181 C253.658992,65.9526012 252.993693,67.2469221 252.297805,68.4876321 C250.278965,72.0872229 247.808946,75.5451277 246.891291,79.5697765 C245.839812,84.1649988 246.948645,88.9976408 248.390127,93.504788 C249.919551,98.2991366 251.949861,103.131779 255.620478,106.570537 C259.291095,110.009295 264.984376,111.717186 269.5,109.496161 C264.992023,101.734065 260.323457,93.0605832 262.082294,84.2607326 C262.931124,80.0484455 265.21379,76.2190936 266.184974,72.0297826 C268.035577,64.0379252 264.953787,55.8163067 261.929352,48.1882378 L252.890456,25.4227408 C251.510151,21.9418599 249.938668,18.2273886 246.772761,16.2552724 C244.631567,14.9264873 242.039194,14.5818456 239.530939,14.3405964 C231.455581,13.6206783 223.089632,13.8580981 215.572513,16.8679687 C201.876522,22.3477712 193.288807,35.8577247 186.475224,48.9617669 C184.433443,52.8868525 182.418427,57.0570167 182.502545,61.4837475 C182.548428,63.9115566 183.225198,66.2742667 183.77579,68.6408062 C186.016396,78.2754556 186.13875,88.2585759 186.253457,98.1497919 C186.341399,105.739567 185.947572,112.892797 182.632546,119.804777 C187.174935,120.708504 193.762929,123.147801 198.259435,121.363323 C204.120952,119.042736 207.730392,111.893336 208.468339,105.984646 Z" id="Path" fill="#454B69" fill-rule="nonzero"></path>
            <g id="Group" opacity="0.1" transform="translate(182.500000, 31.000000)" fill="#000000" fill-rule="nonzero">
                <path d="M4.09545852,66.0127119 C4.11065502,64.9372881 4.11065502,63.8516949 4.09545852,62.7559322 C3.98148472,52.9055085 3.85991266,42.9635593 1.63362445,33.3686441 C1.13629238,31.5014728 0.748119389,29.6067157 0.471091703,27.6940678 C0.392973353,28.3507797 0.358704717,29.0120015 0.368515284,29.6733051 C0.414104803,32.0911017 1.08655022,34.4440678 1.63362445,36.8008475 C3.84851528,46.3385593 3.98528384,56.2194915 4.09545852,66.0127119 Z" id="Path"></path>
                <path d="M83.5351965,40.1605932 C84.0339297,37.9323521 84.2003726,35.6421366 84.029083,33.3648305 C83.9545109,34.4974903 83.7893501,35.6222996 83.5351965,36.7283898 C82.5702183,40.9233051 80.3021397,44.7025424 79.4587336,48.9088983 C79.0952747,50.7641924 78.9929672,52.6615041 79.1548035,54.545339 C79.2152877,53.8055013 79.3167547,53.069617 79.4587336,52.3411017 C80.3021397,48.1347458 82.5702183,44.3402542 83.5351965,40.1605932 Z" id="Path"></path>
                <path d="M70.800524,30.9050847 C70.986011,30.363419 71.0859955,29.7959745 71.0968559,29.2233051 C71.0968559,27.770339 70.4282096,26.4088983 69.7633624,25.1199153 C65.6982969,17.2182203 60.6454585,8.76737288 52.1810044,6.09025424 C49.8635371,5.35805085 47.2991266,5.06059322 45.4109607,3.52372881 C44.4293243,2.67518095 43.8295257,1.46552814 43.7469432,0.16779661 C39.62869,7.75677966 32.5547162,13.5610169 24.8880786,17.6377119 C21.8487773,19.2584746 18.5549345,20.7495763 16.4806114,23.5105932 C14.5316594,26.1038136 13.9655895,29.4788136 14.3037118,32.7432203 C14.4953602,30.6481571 15.2475103,28.6440273 16.4806114,26.9427966 C18.5549345,24.1817797 21.8449782,22.690678 24.8880786,21.0699153 C32.5547162,16.9932203 39.62869,11.1889831 43.7469432,3.6 C43.8295257,4.89773153 44.4293243,6.10738434 45.4109607,6.9559322 C47.310524,8.48135593 49.8635371,8.79025424 52.1810044,9.52245763 C60.630262,12.1919492 65.6982969,20.6504237 69.7633624,28.5521186 C70.1754709,29.3052296 70.5224633,30.0924372 70.800524,30.9050847 Z" id="Path"></path>
                <path d="M73.0382096,71.1266949 C69.391048,67.6944915 67.38131,62.8894068 65.8540611,58.1148305 C64.9377018,55.4327784 64.3259666,52.6554396 64.0304803,49.8355932 C63.6771616,53.7521186 64.6459389,57.7601695 65.8540611,61.5470339 C67.3737118,66.3216102 69.391048,71.134322 73.0382096,74.5588983 C76.6853712,77.9834746 82.3422707,79.684322 86.8290393,77.4724576 C86.2895633,76.5457627 85.7538865,75.6038136 85.2220087,74.6542373 C81.0543668,75.8326271 76.2674672,74.154661 73.0382096,71.1266949 Z" id="Path"></path>
                <path d="M26.1873799,70.5432203 C25.4541485,76.4275424 21.8677729,83.5474576 16.0285153,85.8737288 C11.9748472,87.4868644 6.2039738,85.6334746 1.80078603,84.6076271 C1.4218622,85.6780825 0.988185639,86.7282064 0.501484716,87.7538136 C5.01484716,88.6538136 11.5607424,91.0830508 16.0285153,89.3059322 C21.8677729,86.979661 25.4541485,79.8597458 26.1873799,73.9754237 C26.3384803,72.5032404 26.3664383,71.0209373 26.2709607,69.5440678 C26.2481659,69.8758475 26.2139738,70.2114407 26.1873799,70.5432203 Z" id="Path"></path>
            </g>
            <path d="M256.458061,196.959662 C250.359627,196.011515 244.170408,194.18101 238.123289,195.411667 C234.618169,196.123745 231.413038,197.83428 228.5,199.900854 C230.102566,201.158601 231.973541,202.280898 232.991921,204.030133 C233.624055,205.240398 234.098797,206.523648 234.40502,207.849813 C235.044468,210.171807 235.687862,212.54024 235.786542,214.955114 C235.885223,217.369987 235.391822,219.88548 233.923461,221.832085 C241.612619,222.575123 249.064944,220.717528 256.564636,218.902503 C257.42233,218.754899 258.238699,218.431838 258.96059,217.954355 C260.144751,217.041038 260.492106,215.415642 260.5,213.933436 C260.5,211.286364 259.742136,208.705081 258.972431,206.166367 C258.056679,203.120686 257.37776,199.985994 256.458061,196.959662 Z" id="Path" fill="#FFFFFF" fill-rule="nonzero"></path>
            <path d="M295.252474,132.242036 C298.170534,132.621692 300.434219,134.971762 302.100595,137.386373 C306.77634,144.106283 308.792731,152.253699 311.037393,160.123966 C313.827369,169.911495 317.108126,179.544631 320.879666,189.023374 C321.69168,191.212425 322.678969,193.332691 323.831967,195.363628 C324.771681,196.931607 325.913035,198.438841 326.327727,200.219427 C327.332118,204.524725 323.774899,208.571857 320.0655,210.971282 C318.088372,212.301279 315.929252,213.339583 313.654898,214.054088 C311.440672,214.71469 309.131333,214.965263 306.837212,215.215835 L285.718367,217.493771 C275.997839,218.549214 266.189807,219.604658 256.465475,218.58718 C255.852948,216.461107 257.055174,214.957669 256.96767,212.744275 C256.906798,211.16111 256.206768,209.688045 255.582828,208.230167 C254.432292,205.633619 253.672076,202.881837 253.326752,200.063768 C253.216422,199.027307 253.178376,197.964271 252.782707,196.999945 C252.387038,196.035619 251.538632,195.170003 250.5,195.101665 C256.206768,194.535978 260.540107,193.461552 266.246875,192.892068 C268.365988,192.67946 270.5688,192.440277 272.375943,191.316496 C274.616801,189.923159 275.87229,187.409836 276.869072,184.972445 C279.3382,178.935916 280.928486,172.284345 279.631148,165.890939 C278.565884,160.647891 275.594561,155.765516 275.609779,150.416164 C275.609779,147.230851 276.697869,144.144249 277.983794,141.228491 C279.345809,138.145685 281.122516,134.994541 284.112863,133.430359 C287.103209,131.866176 291.877872,131.786449 295.252474,132.242036 Z" id="Path" fill="#E08AF7" fill-rule="nonzero"></path>
            <path d="M295.252474,132.242036 C298.170534,132.621692 300.434219,134.971762 302.100595,137.386373 C306.77634,144.106283 308.792731,152.253699 311.037393,160.123966 C313.827369,169.911495 317.108126,179.544631 320.879666,189.023374 C321.69168,191.212425 322.678969,193.332691 323.831967,195.363628 C324.771681,196.931607 325.913035,198.438841 326.327727,200.219427 C327.332118,204.524725 323.774899,208.571857 320.0655,210.971282 C318.088372,212.301279 315.929252,213.339583 313.654898,214.054088 C311.440672,214.71469 309.131333,214.965263 306.837212,215.215835 L285.718367,217.493771 C275.997839,218.549214 266.189807,219.604658 256.465475,218.58718 C255.852948,216.461107 257.055174,214.957669 256.96767,212.744275 C256.906798,211.16111 256.206768,209.688045 255.582828,208.230167 C254.432292,205.633619 253.672076,202.881837 253.326752,200.063768 C253.216422,199.027307 253.178376,197.964271 252.782707,196.999945 C252.387038,196.035619 251.538632,195.170003 250.5,195.101665 C256.206768,194.535978 260.540107,193.461552 266.246875,192.892068 C268.365988,192.67946 270.5688,192.440277 272.375943,191.316496 C274.616801,189.923159 275.87229,187.409836 276.869072,184.972445 C279.3382,178.935916 280.928486,172.284345 279.631148,165.890939 C278.565884,160.647891 275.594561,155.765516 275.609779,150.416164 C275.609779,147.230851 276.697869,144.144249 277.983794,141.228491 C279.345809,138.145685 281.122516,134.994541 284.112863,133.430359 C287.103209,131.866176 291.877872,131.786449 295.252474,132.242036 Z" id="Path" fill="#000000" fill-rule="nonzero" opacity="0.08"></path>
            <path d="M162.44554,128.016852 C163.862638,124.733694 165.303158,121.343891 165.342196,117.782694 C165.385139,113.93203 163.780657,110.275613 162.554848,106.619196 C161.038965,102.145491 160.029663,97.5233104 159.54498,92.8352669 C159.444419,92.3861738 159.513748,91.916749 159.740173,91.5136245 C160.064192,91.0679987 160.688808,90.9765883 161.239251,90.8585165 C163.940714,90.2567313 165.982428,88.1276303 167.66889,85.9832942 C170.285276,82.6716018 172.494343,79.071827 174.25078,75.257805 C175.542954,72.4507433 177.291879,69.0266614 180.446189,69 C179.176293,74.8195425 177.602289,80.5719407 175.730339,86.2346728 C179.029092,85.411979 182.163883,84.2160261 185.462635,83.3933323 C186.10841,83.1943647 186.784786,83.1067215 187.461406,83.1343361 C189.436754,83.3362008 190.646947,85.9452065 189.499215,87.525845 C191.111505,89.3692884 193.793449,89.8644282 195.901528,91.128939 C198.009606,92.3934498 199.5243,95.5242567 197.650452,97.1125127 C197.28349,97.4210229 196.818932,97.6381226 196.553471,98.0342345 C195.647778,99.3977732 197.865164,100.963177 197.681683,102.578094 C197.533337,103.899736 195.796124,104.516757 194.480527,104.16635 C193.16493,103.815943 192.138217,102.856134 190.967062,102.151512 C189.795908,101.44689 188.265599,101.008882 187.129579,101.740165 C186.825078,105.324215 186.497155,108.976823 184.908288,112.240937 C184.326615,113.433081 183.58098,114.54905 183.112518,115.7869 C182.664454,117.136637 182.386536,118.534588 182.284902,119.949882 L180.867805,132.591182 C174.106338,133.912824 168.04366,131.936074 162.44554,128.016852 Z" id="Path" fill="#EFB7B9" fill-rule="nonzero"></path>
            <path d="M160.917221,139.506294 L159.695347,131.386457 C159.578539,130.725363 159.513234,130.056488 159.5,129.385645 C159.5,127.505182 160.342672,125.711221 161.158531,124 C167.919056,127.099002 175.227318,128.200953 182.684963,128.204714 C183.669357,128.204714 184.791642,128.114452 185.404494,127.358506 C186.672332,128.791419 186.710635,131.096866 186.170559,132.917154 C185.630483,134.737441 184.592465,136.377205 183.903006,138.152361 C183.554447,139.051223 183.271003,140.032824 182.604526,140.724834 C181.570338,141.819263 179.892655,142.00731 178.368185,141.999788 C176.764417,141.989866 175.164716,141.840094 173.587939,141.552238 C169.504811,140.807575 165.000348,138.787958 160.917221,139.506294 Z" id="Path" fill="#FFFFFF" fill-rule="nonzero"></path>
            <path d="M186.217351,138.938816 C180.90482,138.347425 175.627188,137.513412 170.384457,136.436777 C167.813501,135.909832 165.21928,135.322232 162.597914,135.424588 C160.8917,135.492826 159.057519,135.826431 157.556826,135 C159.018741,139.863812 159.10793,144.989201 157.35906,149.762029 C156.323698,152.605255 154.74545,155.255142 153.985409,158.181769 C152.403282,164.304182 154.574828,170.980077 152.59717,176.992552 C152.388045,177.778224 151.976908,178.498575 151.40282,179.085167 C150.79789,179.627275 149.971927,179.907807 149.413529,180.495407 C148.591444,181.359747 148.541033,182.660049 148.537155,183.83904 L148.502256,194.283157 C148.478989,200.932515 148.568178,207.983715 152.158984,213.617094 C156.253898,220.061739 164.874159,223.401582 172.377625,221.441652 C174.372692,220.942915 176.241647,220.048709 177.868534,218.814511 C180.474389,216.790134 182.13407,213.863507 183.758851,211.012699 C185.697732,207.600828 187.636612,204.113137 188.260931,200.272887 C188.702996,197.554763 188.454819,194.779774 188.136843,192.046486 C186.384095,176.882614 182.580012,161.847635 183.39822,146.626899 C183.52072,143.844402 184.503709,141.163684 186.217351,138.938816 L186.217351,138.938816 Z" id="Path" fill="#E08AF7" fill-rule="nonzero"></path>
            <path d="M209.136603,201.724222 C206.456736,201.879143 203.757589,202.034064 201.08929,201.724222 C199.161329,201.491839 197.279638,201.015456 195.3671,200.690121 C184.797117,198.975514 174.008985,201.986223 165.834582,208.931938 C164.353907,210.202293 162.857809,212.150429 163.675264,213.928152 C164.554415,215.841431 167.241994,215.787208 169.312625,215.430889 C167.077628,216.503035 165.103442,218.053699 163.528739,219.973958 C162.950351,220.682723 162.40281,221.523171 162.514631,222.44108 C162.749843,224.358232 165.341023,224.706805 167.257417,224.540265 C166.632758,225.214173 167.053053,226.407067 167.847374,226.864085 C168.641694,227.321103 169.62881,227.228151 170.527241,227.06161 C172.513469,226.69627 174.432634,226.028895 176.218584,225.08249 C175.856127,226.031383 176.484642,227.142944 177.375361,227.615454 C178.266079,228.087964 179.349594,228.053107 180.348278,227.890439 C185.060216,227.115833 188.993258,223.823754 193.589519,222.53016 C200.938909,220.465833 208.627621,223.757912 216.266205,223.990294 C218.656878,224.063882 221.109245,223.819881 223.287842,222.828384 C225.959997,221.608378 228.115458,219.319415 230.937994,218.506078 C234.07286,217.607534 237.670437,218.641634 240.539244,217.088547 C242.625299,215.961495 240.743608,207.274279 240.21149,205.601129 C239.235942,202.541432 238.256537,200.511962 235.005994,200.202119 C226.781309,199.392655 217.422982,201.243965 209.136603,201.724222 Z" id="Path" fill="#EFB7B9" fill-rule="nonzero"></path>
            <path d="M229.5,200.409166 C229.5,200.409166 241.854209,210.734231 234.726339,222 L248.5,217.304041 L248.5,207.447438 C248.5,206.978975 243.269835,199.940703 243.269835,199.940703 L237.090818,199 L229.5,200.409166 Z" id="Path" fill="#FFFFFF" fill-rule="nonzero"></path>
            <path d="M99.1602801,199 L103.83972,199 C109.174945,199 113.5,203.325055 113.5,208.66028 L113.5,223 L89.5,223 L89.5,208.66028 C89.5,206.098215 90.5177766,203.641085 92.3294305,201.829431 C94.1410845,200.017777 96.5982146,199 99.1602801,199 Z" id="Path" fill="#3F3D56" fill-rule="nonzero"></path>
            <path d="M99.1602801,199 L103.83972,199 C109.174945,199 113.5,203.325055 113.5,208.66028 L113.5,223 L89.5,223 L89.5,208.66028 C89.5,206.098215 90.5177766,203.641085 92.3294305,201.829431 C94.1410845,200.017777 96.5982146,199 99.1602801,199 Z" id="Path" fill="#000000" fill-rule="nonzero" opacity="0.1"></path>
            <circle id="Oval" fill="#3F3D56" fill-rule="nonzero" cx="100.5" cy="203" r="2"></circle>
            <circle id="Oval" fill="#3F3D56" fill-rule="nonzero" cx="100.5" cy="201" r="2"></circle>
            <circle id="Oval" fill="#3F3D56" fill-rule="nonzero" cx="100.5" cy="198" r="2"></circle>
            <circle id="Oval" fill="#3F3D56" fill-rule="nonzero" cx="100.5" cy="196" r="2"></circle>
            <circle id="Oval" fill="#3F3D56" fill-rule="nonzero" cx="100.5" cy="193" r="2"></circle>
            <circle id="Oval" fill="#3F3D56" fill-rule="nonzero" cx="100.5" cy="191" r="2"></circle>
            <circle id="Oval" fill="#3F3D56" fill-rule="nonzero" cx="100.5" cy="188" r="2"></circle>
            <circle id="Oval" fill="#3F3D56" fill-rule="nonzero" cx="103.5" cy="190" r="2"></circle>
            <circle id="Oval" fill="#3F3D56" fill-rule="nonzero" cx="105.5" cy="188" r="2"></circle>
            <circle id="Oval" fill="#3F3D56" fill-rule="nonzero" cx="107.5" cy="187" r="2"></circle>
            <circle id="Oval" fill="#3F3D56" fill-rule="nonzero" cx="100.5" cy="186" r="2"></circle>
            <circle id="Oval" fill="#3F3D56" fill-rule="nonzero" cx="100.5" cy="184" r="2"></circle>
            <circle id="Oval" fill="#3F3D56" fill-rule="nonzero" cx="100.5" cy="181" r="2"></circle>
            <circle id="Oval" fill="#3F3D56" fill-rule="nonzero" cx="100.5" cy="179" r="2"></circle>
            <path d="M108.329386,172.644627 C107.859264,172.71287 107.389142,172.762156 106.91902,172.792487 C107.356081,172.411139 107.761793,171.995288 108.132238,171.54895 C107.871173,170.757174 107.487366,170.011315 106.994847,169.33864 C106.527796,169.600992 106.011419,169.76365 105.478324,169.81634 C105.011994,169.884583 104.541872,169.933869 104.07175,169.967991 C104.689733,169.463752 105.266011,168.705498 105.87262,168.072356 C103.071533,165.533592 98.8755958,165.302221 95.8123514,167.517616 C92.749107,169.733011 91.6548834,173.790323 93.1888173,177.245516 C94.7227513,180.700708 98.4660476,182.610442 102.163825,181.824336 C105.861602,181.038229 108.504292,177.770904 108.5,173.990528 C108.5,173.529108 108.459532,173.068577 108.378673,172.614297 L108.329386,172.644627 Z" id="Path" fill="#F7DD8A" fill-rule="nonzero"></path>
            <path d="M115.453439,180.978379 C114.94411,181.291728 114.369154,181.482916 113.773599,181.536971 C113.279293,181.609307 112.780967,181.665568 112.282642,181.697717 C112.812287,181.222655 113.306566,180.709585 113.761543,180.162594 C111.266128,179.511992 108.685289,180.866209 107.802774,183.289277 C106.92026,185.712345 108.025687,188.409079 110.355039,189.515631 C112.684392,190.622182 115.473239,189.77541 116.794069,187.560562 C118.114899,185.345715 117.53425,182.489643 115.453439,180.966323 L115.453439,180.978379 Z" id="Path" fill="#F7DD8A" fill-rule="nonzero"></path>
            <circle id="Oval" fill="#3F3D56" fill-rule="nonzero" cx="97.5" cy="190" r="2"></circle>
            <circle id="Oval" fill="#3F3D56" fill-rule="nonzero" cx="96.5" cy="188" r="2"></circle>
            <circle id="Oval" fill="#3F3D56" fill-rule="nonzero" cx="93.5" cy="187" r="2"></circle>
            <path d="M86.5465615,180.978379 C87.0558898,181.291728 87.6308457,181.482916 88.2264006,181.536971 C88.7207073,181.609307 89.2190328,181.665568 89.7173583,181.697717 C89.1867144,181.223691 88.6923615,180.710545 88.2384568,180.162594 C90.7338723,179.511992 93.3147113,180.866209 94.1972258,183.289277 C95.0797403,185.712345 93.9743131,188.409079 91.6449608,189.515631 C89.3156084,190.622182 86.5267608,189.77541 85.2059311,187.560562 C83.8851015,185.345715 84.4657501,182.489643 86.5465615,180.966323 L86.5465615,180.978379 Z" id="Path" fill="#F7DD8A" fill-rule="nonzero"></path>
            <path d="M99.1672031,200 L103.844384,200 C109.177033,200 113.5,204.32506 113.5,209.660284 L113.5,222.361617 C113.5,223.266471 112.766825,224 111.862407,224 L91.1375925,224 C90.703276,224 90.2867479,223.827385 89.9796397,223.520129 C89.6725316,223.212872 89.5,222.796143 89.5,222.361617 L89.5,209.660284 C89.5,207.09621 90.5188738,204.637322 92.3321599,202.825335 C94.145446,201.013348 96.6043675,199.99693 99.1672031,200 Z" id="Path" fill="#3F3D56" fill-rule="nonzero"></path>
            <g id="Group" opacity="0.1" transform="translate(91.500000, 166.000000)" fill="#000000" fill-rule="nonzero">
                <path d="M16.7390698,7.59078947 C16.5401468,7.80296505 16.3289314,8.00330905 16.1065116,8.19078947 C16.3318605,8.19078947 16.5532558,8.15526316 16.7786047,8.13157895 C16.7706977,7.95 16.7588372,7.76842105 16.7390698,7.59078947 Z" id="Path"></path>
                <path d="M13.1572093,5.24605263 C13.6513953,5.21447368 14.1376744,5.16315789 14.627907,5.09210526 C15.0677308,5.03645851 15.4975716,4.91953147 15.9048837,4.74473684 C15.7049161,4.35010691 15.4749398,3.97136543 15.2169767,3.61184211 C14.9710715,3.76131857 14.7047253,3.87434051 14.4262791,3.94736842 C14.0385983,4.41334233 13.6142228,4.84762082 13.1572093,5.24605263 L13.1572093,5.24605263 Z" id="Path"></path>
                <path d="M1.07930233,9.45789474 C1.07330695,6.40931645 2.73748096,3.6015306 5.41683383,2.13963381 C8.0961867,0.677737025 11.3617062,0.795805087 13.9281395,2.44736842 L14.0546512,2.31315789 C11.8173063,0.325552556 8.68454795,-0.312075636 5.8465045,0.642506956 C3.00846105,1.59708955 0.900685816,3.99738355 0.323918277,6.93152221 C-0.252849261,9.86566087 0.789907156,12.8833432 3.05604651,14.8381579 C1.77744719,13.3364186 1.07662257,11.4289281 1.07930233,9.45789474 Z" id="Path"></path>
            </g>
            <g id="Group" opacity="0.1" transform="translate(107.500000, 182.000000)" fill="#000000" fill-rule="nonzero">
                <path d="M4.87692308,2.43928571 C5.35384615,2.41071429 5.83076923,2.36428571 6.30384615,2.3 C6.8741107,2.25074675 7.4243637,2.07961544 7.91153846,1.8 C9.00366422,2.5468751 9.70273619,3.68935845 9.83461538,4.94285714 C9.85327077,4.78751523 9.86226006,4.63130336 9.86153846,4.475 C9.86888987,3.06823074 9.15485821,1.74217194 7.93846154,0.903571429 C7.45100822,1.18204857 6.90074583,1.35196041 6.33076923,1.4 L5.94615385,1.44642857 C5.61793764,1.80256468 5.26045427,2.13451352 4.87692308,2.43928571 Z" id="Path"></path>
                <path d="M5.06923077,0.925 C5.2287615,0.92669055 5.38803222,0.93742481 5.54615385,0.957142857 C5.79615385,0.710714286 6.04230769,0.446428571 6.29230146,0.189285714 C4.85914997,-0.166186304 3.32946298,0.117813358 2.15368092,0.957657687 C0.977898864,1.79750202 0.289912591,3.09755468 0.292301459,4.475 C0.292301459,4.625 0.292301459,4.77142857 0.315384615,4.91785714 C0.560373202,2.65067822 2.61539317,0.92462296 5.06923077,0.925 Z" id="Path"></path>
            </g>
            <g id="Group" opacity="0.1" transform="translate(84.500000, 182.000000)" fill="#000000" fill-rule="nonzero">
                <path d="M5.22,2.43928571 C4.724,2.41071429 4.228,2.36428571 3.736,2.3 C3.14292487,2.25074675 2.57066175,2.07961544 2.064,1.8 C0.928189212,2.5468751 0.201154358,3.68935845 0.064,4.94285714 C0.0445984034,4.78751523 0.0352495403,4.63130336 0.036,4.475 C0.0283545372,3.06823074 0.770947463,1.74217194 2.036,0.903571429 C2.54295146,1.18204857 3.11522434,1.35196041 3.708,1.4 L4.108,1.44642857 C4.44718877,1.80434097 4.81913812,2.1364386 5.22,2.43928571 L5.22,2.43928571 Z" id="Path"></path>
                <path d="M5.02,0.925 C4.85276562,0.926824659 4.6858022,0.937558022 4.52,0.957142857 C4.264,0.710714286 4.008,0.446428571 3.748,0.189285714 C5.23848403,-0.166186304 6.8293585,0.117813358 8.05217184,0.957657687 C9.27498518,1.79750202 9.99049091,3.09755468 9.98800648,4.475 C9.98800648,4.625 9.98800648,4.77142857 9.964,4.91785714 C9.70921187,2.65067822 7.57199111,0.92462296 5.02,0.925 Z" id="Path"></path>
            </g>
            <path d="M75.9591418,229 L39.0670638,229 C38.2015984,229 37.5,228.284606 37.5,227.402123 L37.5,209.598311 C37.5,209.050229 37.7752096,208.540316 38.2295065,208.24738 C38.6838035,207.954444 39.253643,207.919366 39.7392019,208.154446 C50.3385942,213.283053 61.757391,215.042643 75.2341388,208.235303 C75.7197743,207.991083 76.2945281,208.01912 76.7550819,208.309495 C77.2156357,208.59987 77.4970493,209.11164 77.5,209.663766 L77.5,227.375171 C77.5068428,227.798972 77.3484847,228.208272 77.0595477,228.513 C76.7706106,228.817728 76.374772,228.992912 75.9591418,229 Z" id="Path" fill="#003B50" fill-rule="nonzero"></path>
            <path d="M75.9591418,229 L39.0670638,229 C38.2015984,229 37.5,228.284606 37.5,227.402123 L37.5,209.598311 C37.5,209.050229 37.7752096,208.540316 38.2295065,208.24738 C38.6838035,207.954444 39.253643,207.919366 39.7392019,208.154446 C50.3385942,213.283053 61.757391,215.042643 75.2341388,208.235303 C75.7197743,207.991083 76.2945281,208.01912 76.7550819,208.309495 C77.2156357,208.59987 77.4970493,209.11164 77.5,209.663766 L77.5,227.375171 C77.5068428,227.798972 77.3484847,228.208272 77.0595477,228.513 C76.7706106,228.817728 76.374772,228.992912 75.9591418,229 Z" id="Path" fill="#00485A" fill-rule="nonzero" opacity="0.1"></path>
            <ellipse id="Oval" fill="#3F3D56" fill-rule="nonzero" cx="58" cy="213" rx="2.5" ry="3"></ellipse>
            <ellipse id="Oval" fill="#3F3D56" fill-rule="nonzero" cx="58" cy="209" rx="2.5" ry="3"></ellipse>
            <ellipse id="Oval" fill="#3F3D56" fill-rule="nonzero" cx="58" cy="205" rx="2.5" ry="3"></ellipse>
            <ellipse id="Oval" fill="#3F3D56" fill-rule="nonzero" cx="58" cy="202" rx="2.5" ry="3"></ellipse>
            <ellipse id="Oval" fill="#3F3D56" fill-rule="nonzero" cx="58" cy="198" rx="2.5" ry="3"></ellipse>
            <ellipse id="Oval" fill="#3F3D56" fill-rule="nonzero" cx="58" cy="195" rx="2.5" ry="3"></ellipse>
            <ellipse id="Oval" fill="#3F3D56" fill-rule="nonzero" cx="58" cy="191" rx="2.5" ry="3"></ellipse>
            <path d="M65.1351332,167.038504 C65.4464974,166.656091 65.7314465,166.254698 65.9881694,165.836878 L59.9574019,164.889223 L66.480153,164.93471 C67.7521209,162.301826 67.8282254,159.283692 66.6904364,156.595344 L57.941856,160.931814 L66.011975,155.245883 C63.952323,151.842848 60.0761684,149.823389 55.9663684,150.012169 C51.8565684,150.200949 48.201077,152.566367 46.4926419,156.142487 C44.7842069,159.718606 45.3088091,163.906808 47.8522234,166.996808 C47.3619409,167.588938 46.9414796,168.230904 46.5984585,168.911071 L54.4225858,172.838154 L46.0906044,170.146813 C44.904213,173.507541 45.5710508,177.213216 47.8641262,180.002427 C44.3190017,184.308532 44.8333718,190.494642 49.0456399,194.211989 C53.257908,197.929337 59.7532542,197.929337 63.9655223,194.211989 C68.1777904,190.494642 68.6921605,184.308532 65.147036,180.002427 C68.2836219,176.192148 68.2836219,170.82604 65.147036,167.015761 L65.1351332,167.038504 Z" id="Path" fill="#D0DF00" fill-rule="nonzero"></path>
            <path d="M46.5,173.157062 C46.4967135,175.548206 47.2884657,177.870496 48.7471512,179.747704 C45.361451,184.11834 45.8526898,190.397153 49.8755323,194.170209 C53.8983747,197.943264 60.1016253,197.943264 64.1244677,194.170209 C68.1473102,190.397153 68.638549,184.11834 65.2528488,179.747704 C66.6586371,177.935566 46.5,171.960512 46.5,173.157062 Z" id="Path" fill="#000000" fill-rule="nonzero" opacity="0.1"></path>
            <path d="M75.959341,230 L39.0670719,230 C38.201602,230 37.5,229.282758 37.5,228.397996 L37.5,209.602439 C37.5,209.052942 37.775211,208.541712 38.2295103,208.248019 C38.6838096,207.954326 39.253652,207.919157 39.7392135,208.154845 C50.3386608,213.296698 58.7442074,219.291667 75.2343343,208.235911 C76.2123382,207.579668 77.5,208.475246 77.5,209.668063 L77.5,228.390276 C77.5042381,229.267595 76.8174187,229.985212 75.959341,230 Z" id="Path" fill="#00485A" fill-rule="nonzero"></path>
            <polygon id="Path" fill="#9C9CA1" fill-rule="nonzero" points="353.5 225.329502 298.266477 232.636015 295.503652 233 268.5 218.578544 268.5 215.203065 352.88689 206"></polygon>
            <polygon id="Path" fill="#939498" fill-rule="nonzero" points="284.5 219.315232 343.5 212 342.895453 223.455629 296.938553 227"></polygon>
            <path d="M299.5,228.950097 L299.5,232.61282 L296.715858,233 L269.5,218.411056 L269.5,215 L295.476316,228.938481 C295.476316,228.938481 298.88216,229.259841 299.5,228.950097 Z" id="Path" fill="#000000" fill-rule="nonzero" opacity="0.4"></path>
            <path d="M309.017852,170.847317 L296.583891,228.535254 C296.329513,229.70732 296.661442,230.929911 297.473542,231.812101 C298.285642,232.694291 299.47619,233.125578 300.664505,232.968056 L379.329676,222.549242 C380.72788,222.364786 381.897845,221.397222 382.342106,220.057953 L399.313926,168.848135 C399.694611,167.694675 399.483679,166.427644 398.749868,165.459935 C398.016057,164.492226 396.853336,163.947759 395.640605,164.003963 L312.44526,167.956192 C310.781438,168.035069 309.376885,169.219853 309.017852,170.847317 L309.017852,170.847317 Z" id="Path" fill="#3F3D56" fill-rule="nonzero"></path>
        </g>
        <g filter="url(#filter-1)" id="Group-2">
            <g transform="translate(401.000000, 142.000000)">
                <path d="M111.5,36.5 C112.052285,36.5 112.552285,36.7238576 112.914214,37.0857864 C113.276142,37.4477153 113.5,37.9477153 113.5,38.5 L113.5,38.5 L113.5,199.5 C113.5,200.052285 113.276142,200.552285 112.914214,200.914214 C112.552285,201.276142 112.052285,201.5 111.5,201.5 C110.947715,201.5 110.447715,201.276142 110.085786,200.914214 C109.723858,200.552285 109.5,200.052285 109.5,199.5 L109.5,199.5 L109.5,38.5 C109.5,37.9477153 109.723858,37.4477153 110.085786,37.0857864 C110.447715,36.7238576 110.947715,36.5 111.5,36.5 Z" id="Rectangle-Copy-4" stroke="#008796" stroke-width="3" fill="#0A3226" transform="translate(111.500000, 119.000000) rotate(-270.000000) translate(-111.500000, -119.000000) "></path>
                <path d="M111.5,35.5 C112.052285,35.5 112.552285,35.7238576 112.914214,36.0857864 C113.276142,36.4477153 113.5,36.9477153 113.5,37.5 L113.5,37.5 L113.5,223.5 C113.5,224.052285 113.276142,224.552285 112.914214,224.914214 C112.552285,225.276142 112.052285,225.5 111.5,225.5 C110.947715,225.5 110.447715,225.276142 110.085786,224.914214 C109.723858,224.552285 109.5,224.052285 109.5,223.5 L109.5,223.5 L109.5,37.5 C109.5,36.9477153 109.723858,36.4477153 110.085786,36.0857864 C110.447715,35.7238576 110.947715,35.5 111.5,35.5 Z" id="Rectangle-Copy-6" stroke="#008796" stroke-width="3" fill="#0A3226" transform="translate(111.500000, 130.500000) rotate(-270.000000) translate(-111.500000, -130.500000) "></path>
                <path d="M113.214978,0.813887774 L183.95684,34.3862968 C185.952633,35.3334528 186.802721,37.7191846 185.855565,39.7149778 C185.193268,41.110532 183.786598,42 182.241862,42 L40.7581382,42 C38.5489992,42 36.7581382,40.209139 36.7581382,38 C36.7581382,36.4552642 37.6476062,35.0485937 39.0431604,34.3862968 L109.785022,0.813887774 C110.870332,0.298825429 112.129668,0.298825429 113.214978,0.813887774 Z" id="Triangle" stroke="#008796" stroke-width="3" fill="#0A3226"></path>
                <path d="M111.5,-32.5 C112.052285,-32.5 112.552285,-32.2761424 112.914214,-31.9142136 C113.276142,-31.5522847 113.5,-31.0522847 113.5,-30.5 L113.5,-30.5 L113.5,130.5 C113.5,131.052285 113.276142,131.552285 112.914214,131.914214 C112.552285,132.276142 112.052285,132.5 111.5,132.5 C110.947715,132.5 110.447715,132.276142 110.085786,131.914214 C109.723858,131.552285 109.5,131.052285 109.5,130.5 L109.5,130.5 L109.5,-30.5 C109.5,-31.0522847 109.723858,-31.5522847 110.085786,-31.9142136 C110.447715,-32.2761424 110.947715,-32.5 111.5,-32.5 Z" id="Rectangle-Copy-5" stroke="#008796" stroke-width="3" fill="#0A3226" transform="translate(111.500000, 50.000000) rotate(-270.000000) translate(-111.500000, -50.000000) "></path>
                <mask id="mask-3" fill="white">
                    <use xlink:href="#path-2"></use>
                </mask>
                <use id="Mask" fill="#008796" fill-rule="nonzero" xlink:href="#path-2"></use>
            </g>
        </g>
    </g>
</svg>