<?xml version="1.0" encoding="UTF-8"?>
<svg width="1200px" height="600px" viewBox="0 0 1200 600" version="1.1" xmlns="http://www.w3.org/2000/svg" xmlns:xlink="http://www.w3.org/1999/xlink">
    <title>knowhere_hero</title>
    <g id="knowhere_hero" stroke="none" stroke-width="1" fill="none" fill-rule="evenodd">
        <g id="Group" transform="translate(80.000000, 246.000000)" fill-rule="nonzero">
            <path d="M12.0117188,0 L12.0117188,68.2128906 L0,68.2128906 L0,0 L12.0117188,0 Z M45.1171875,22.6074219 L26.6113281,45.1171875 L47.4121094,68.2128906 L32.1777344,68.2128906 L12.2070312,45.1171875 L31.0058594,22.6074219 L45.1171875,22.6074219 Z M78.2226562,21.7285156 C83.1054932,21.7285156 87.0035662,23.3316897 89.9169922,26.5380859 C92.8304182,29.7444822 94.2871094,33.9680728 94.2871094,39.2089844 L94.2871094,68.2128906 L82.3242188,68.2128906 L82.3242188,40.4296875 C82.3242188,37.4674331 81.616218,35.1237065 80.2001953,33.3984375 C78.7841726,31.6731685 76.855481,30.8105469 74.4140625,30.8105469 C72.5585845,30.8105469 70.8170654,31.3557888 69.1894531,32.4462891 C67.5618408,33.5367893 65.7714941,35.3515498 63.8183594,37.890625 L63.8183594,68.2128906 L51.8066406,68.2128906 L51.8066406,22.6074219 L63.8183594,22.6074219 L63.8183594,29.0039062 C66.0319121,26.3997266 68.3023972,24.5361384 70.6298828,23.4130859 C72.9573684,22.2900334 75.4882676,21.7285156 78.2226562,21.7285156 Z M128.515625,21.7285156 C133.268253,21.7285156 137.581361,22.7213442 141.455078,24.7070312 C145.328795,26.6927183 148.323557,29.4758936 150.439453,33.0566406 C152.555349,36.6373877 153.613281,40.6900815 153.613281,45.2148438 C153.613281,49.9349194 152.596039,54.0689927 150.561523,57.6171875 C148.527008,61.1653823 145.532246,63.9648335 141.577148,66.015625 C137.622051,68.0664165 133.268253,69.0917969 128.515625,69.0917969 C123.730445,69.0917969 119.384785,68.0664165 115.478516,66.015625 C111.572246,63.9648335 108.601898,61.1653823 106.567383,57.6171875 C104.532867,54.0689927 103.515625,49.9349194 103.515625,45.2148438 C103.515625,40.6249771 104.589833,36.5478694 106.738281,32.9833984 C108.886729,29.4189275 111.881491,26.6520281 115.722656,24.6826172 C119.563821,22.7132063 123.828102,21.7285156 128.515625,21.7285156 Z M116.113281,45.2148438 C116.113281,49.7721582 117.228179,53.4098171 119.458008,56.1279297 C121.687837,58.8460422 124.67446,60.2050781 128.417969,60.2050781 C132.324238,60.2050781 135.400379,58.9030078 137.646484,56.2988281 C139.892589,53.6946484 141.015625,49.9674722 141.015625,45.1171875 C141.015625,40.4947686 139.884451,36.9222131 137.62207,34.3994141 C135.359689,31.876615 132.291686,30.6152344 128.417969,30.6152344 C124.772117,30.6152344 121.809907,31.9498564 119.53125,34.6191406 C117.252593,37.2884248 116.113281,40.8202905 116.113281,45.2148438 Z M169.726562,22.6074219 L180.322266,48.9257812 L191.113281,22.6074219 L198.925781,22.6074219 L209.619141,48.9257812 L220.214844,22.6074219 L232.714844,22.6074219 L212.402344,69.0917969 L207.324219,69.0917969 L195.019531,41.2109375 L182.714844,69.0917969 L177.734375,69.0917969 L157.226562,22.6074219 L169.726562,22.6074219 Z M250.732422,0 L250.732422,29.0039062 L251.025391,29.0039062 C254.899108,24.1536216 259.570285,21.7285156 265.039062,21.7285156 C269.889347,21.7285156 273.795558,23.3235518 276.757812,26.5136719 C279.720067,29.703792 281.201172,33.870417 281.201172,39.0136719 L281.201172,68.2128906 L269.238281,68.2128906 L269.238281,41.3085938 C269.238281,38.2486826 268.514005,35.8154387 267.06543,34.0087891 C265.616855,32.2021394 263.639335,31.2988281 261.132812,31.2988281 C259.309887,31.2988281 257.592781,31.8196563 255.981445,32.8613281 C254.370109,33.903 252.620452,35.6282432 250.732422,38.0371094 L250.732422,68.2128906 L238.720703,68.2128906 L238.720703,0 L250.732422,0 Z M313.232422,21.7285156 C319.938185,21.7285156 325.244121,23.8769316 329.150391,28.1738281 C333.05666,32.4707246 335.009766,38.4114204 335.009766,45.9960938 L335.009766,47.8027344 L302.734375,47.8027344 C303.222659,51.8717651 304.744453,55.0048718 307.299805,57.2021484 C309.855156,59.399425 313.362608,60.4980469 317.822266,60.4980469 C320.686863,60.4980469 323.445625,60.0016326 326.098633,59.0087891 C328.751641,58.0159456 331.494126,56.5104268 334.326172,54.4921875 L334.326172,63.4277344 C328.987604,67.2037949 322.509804,69.0917969 314.892578,69.0917969 C307.698532,69.0917969 301.822939,66.927105 297.265625,62.5976562 C292.708311,58.2682075 290.429688,52.5065464 290.429688,45.3125 C290.429688,38.3788716 292.537414,32.7148657 296.75293,28.3203125 C300.968446,23.9257593 306.461555,21.7285156 313.232422,21.7285156 Z M323.730469,40.5273438 C323.404946,37.2070146 322.395842,34.611012 320.703125,32.7392578 C319.010408,30.8675037 316.682958,29.9316406 313.720703,29.9316406 C310.693344,29.9316406 308.2601,30.826814 306.420898,32.6171875 C304.581697,34.407561 303.417971,37.0442534 302.929688,40.5273438 L323.730469,40.5273438 Z M406.640625,21.7285156 C413.346388,21.7285156 418.652324,23.8769316 422.558594,28.1738281 C426.464863,32.4707246 428.417969,38.4114204 428.417969,45.9960938 L428.417969,47.8027344 L396.142578,47.8027344 C396.630862,51.8717651 398.152656,55.0048718 400.708008,57.2021484 C403.263359,59.399425 406.770811,60.4980469 411.230469,60.4980469 C414.095066,60.4980469 416.853828,60.0016326 419.506836,59.0087891 C422.159844,58.0159456 424.90233,56.5104268 427.734375,54.4921875 L427.734375,63.4277344 C422.395807,67.2037949 415.918007,69.0917969 408.300781,69.0917969 C401.106735,69.0917969 395.231143,66.927105 390.673828,62.5976562 C386.116514,58.2682075 383.837891,52.5065464 383.837891,45.3125 C383.837891,38.3788716 385.945617,32.7148657 390.161133,28.3203125 C394.376649,23.9257593 399.869758,21.7285156 406.640625,21.7285156 Z M370.507812,21.7285156 C372.102873,21.7285156 373.673495,22.086585 375.219727,22.8027344 C376.765958,23.5188838 378.564443,24.7232988 380.615234,26.4160156 L376.318359,36.9140625 C372.835269,34.3098828 370.035818,33.0078125 367.919922,33.0078125 C366.064444,33.0078125 364.233407,33.6995374 362.426758,35.0830078 C360.620108,36.4664783 359.171555,38.2975146 358.081055,40.5761719 C356.990554,42.8548291 356.445312,45.1334521 356.445312,47.4121094 L356.445312,68.2128906 L344.433594,68.2128906 L344.433594,22.6074219 L356.445312,22.6074219 L356.445312,34.2285156 L356.640625,34.2285156 C358.821625,29.8339624 361.018869,26.6520281 363.232422,24.6826172 C365.445975,22.7132063 367.871081,21.7285156 370.507812,21.7285156 Z M407.128906,29.9316406 C404.101547,29.9316406 401.668303,30.826814 399.829102,32.6171875 C397.9899,34.407561 396.826174,37.0442534 396.337891,40.5273438 L396.337891,40.5273438 L417.138672,40.5273438 C416.813149,37.2070146 415.804045,34.611012 414.111328,32.7392578 C412.418611,30.8675037 410.091161,29.9316406 407.128906,29.9316406 Z" id="knowhere" fill="#00371A"></path>
            <path d="M167.974121,84.7954102 L167.974121,87.9067383 L162.133789,87.9067383 L162.133789,91.875 L162.476562,91.8486328 L162.753418,91.8486328 C163.878424,91.8486328 164.897945,92.0925269 165.812012,92.5803223 C166.726079,93.0681177 167.440183,93.7514604 167.954346,94.6303711 C168.468508,95.5092817 168.725586,96.4980414 168.725586,97.5966797 C168.725586,99.3281337 168.143316,100.736567 166.97876,101.822021 C165.814203,102.907476 164.282724,103.450195 162.384277,103.450195 C160.696769,103.450195 159.202643,103.103031 157.901855,102.408691 L157.901855,99.3237305 C159.272956,100.167485 160.586908,100.589355 161.84375,100.589355 C162.82813,100.589355 163.649899,100.3147 164.309082,99.7653809 C164.968265,99.2160617 165.297852,98.5195355 165.297852,97.6757812 C165.297852,96.7265578 164.919926,95.9860866 164.164062,95.4543457 C163.408199,94.9226048 162.379889,94.6567383 161.079102,94.6567383 C160.463864,94.6567383 159.782719,94.7358391 159.035645,94.894043 L159.035645,84.7954102 L167.974121,84.7954102 Z M181.94873,84.5581055 L181.94873,95.3027344 L183.517578,95.3027344 L183.517578,98.0053711 L181.94873,98.0053711 L181.94873,103.212891 L178.57373,103.212891 L178.57373,98.0053711 L171.045898,98.0053711 L171.045898,95.8432617 L180.010742,84.5581055 L181.94873,84.5581055 Z M178.494629,90.1479492 L174.420898,95.3027344 L178.57373,95.3027344 L178.57373,90.1479492 L178.494629,90.1479492 Z M188.158203,99.402832 C188.694339,99.402832 189.166746,99.600584 189.575439,99.9960938 C189.984133,100.391604 190.188477,100.870603 190.188477,101.433105 C190.188477,101.97803 189.990725,102.450437 189.595215,102.850342 C189.199705,103.250246 188.720706,103.450195 188.158203,103.450195 C187.604489,103.450195 187.127688,103.250246 186.727783,102.850342 C186.327879,102.450437 186.12793,101.97803 186.12793,101.433105 C186.12793,100.870603 186.330076,100.391604 186.734375,99.9960938 C187.138674,99.600584 187.613279,99.402832 188.158203,99.402832 Z M198.533691,84.5581055 C199.693853,84.5581055 200.735347,84.8305637 201.658203,85.3754883 C202.581059,85.9204129 203.292966,86.6872509 203.793945,87.6760254 C204.294924,88.6647999 204.54541,89.8007748 204.54541,91.0839844 C204.54541,93.0175878 203.958746,95.1049693 202.7854,97.3461914 C201.612055,99.5874135 200.049814,101.622061 198.098633,103.450195 L194.077637,103.450195 C195.12354,102.544917 196.230951,101.312264 197.399902,99.7521973 C198.568854,98.1921309 199.395017,96.8188536 199.878418,95.6323242 C199.219235,95.9135756 198.516117,96.0541992 197.769043,96.0541992 C196.310051,96.0541992 195.103765,95.5334525 194.150146,94.4919434 C193.196528,93.4504342 192.719727,92.1167073 192.719727,90.4907227 C192.719727,89.4184517 192.970212,88.4274948 193.471191,87.5178223 C193.97217,86.6081497 194.670894,85.8874538 195.567383,85.3557129 C196.463872,84.823972 197.452631,84.5581055 198.533691,84.5581055 Z M196.068359,90.4379883 C196.068359,91.2553752 196.301267,91.9277317 196.76709,92.4550781 C197.232912,92.9824245 197.848141,93.2460938 198.612793,93.2460938 C199.3335,93.2460938 199.93115,92.9802273 200.405762,92.4484863 C200.880373,91.9167454 201.117676,91.281742 201.117676,90.543457 C201.117676,89.6645464 200.878176,88.9504422 200.39917,88.401123 C199.920164,87.8518039 199.298344,87.5771484 198.533691,87.5771484 C197.795406,87.5771484 197.199953,87.8408177 196.747314,88.3681641 C196.294675,88.8955104 196.068359,89.585445 196.068359,90.4379883 Z M219.337402,84.7954102 L219.337402,84.9008789 L211.915039,103.450195 L208.803711,102.290039 L214.617676,87.9594727 L207.274414,87.9594727 L207.274414,84.7954102 L219.337402,84.7954102 Z M227.14209,84.5581055 C228.785653,84.5581055 230.128169,85.0371046 231.169678,85.9951172 C232.211187,86.9531298 232.731934,88.1923752 232.731934,89.7128906 C232.731934,91.3740317 231.976082,92.6791945 230.464355,93.628418 C231.413579,94.129397 232.099119,94.7490197 232.520996,95.4873047 C232.942873,96.2255896 233.153809,97.0913036 233.153809,98.0844727 C233.153809,99.104009 232.894534,100.024654 232.375977,100.846436 C231.857419,101.668217 231.136723,102.307615 230.213867,102.764648 C229.291011,103.221682 228.267095,103.450195 227.14209,103.450195 C225.384269,103.450195 223.936285,102.949224 222.798096,101.947266 C221.659906,100.945307 221.09082,99.6577227 221.09082,98.0844727 C221.09082,97.038569 221.314939,96.1530798 221.763184,95.4279785 C222.211428,94.7028772 222.888179,94.1030297 223.793457,93.628418 C222.281731,92.6704054 221.525879,91.3564537 221.525879,89.6865234 C221.525879,88.1747971 222.05102,86.9421434 223.101318,85.9885254 C224.151617,85.0349073 225.498527,84.5581055 227.14209,84.5581055 Z M224.900879,89.765625 C224.900879,90.5566446 225.111814,91.2048315 225.533691,91.7102051 C225.955569,92.2155787 226.491696,92.4682617 227.14209,92.4682617 C227.774906,92.4682617 228.302244,92.2067897 228.724121,91.6838379 C229.145998,91.1608861 229.356934,90.5214882 229.356934,89.765625 C229.356934,88.9658163 229.156984,88.3330101 228.75708,87.8671875 C228.357176,87.4013649 227.818851,87.168457 227.14209,87.168457 C226.45654,87.168457 225.911623,87.3969704 225.507324,87.8540039 C225.103025,88.3110374 224.900879,88.9482381 224.900879,89.765625 Z M224.518555,97.9262695 C224.518555,98.8315475 224.755857,99.5434544 225.230469,100.062012 C225.70508,100.580569 226.342281,100.839844 227.14209,100.839844 C227.941899,100.839844 228.572507,100.578372 229.033936,100.05542 C229.495364,99.5324681 229.726074,98.8403363 229.726074,97.9790039 C229.726074,97.1176715 229.488772,96.410159 229.01416,95.8564453 C228.539548,95.3027316 227.92432,95.0258789 227.168457,95.0258789 C226.377437,95.0258789 225.73804,95.2873509 225.250244,95.8103027 C224.762449,96.3332546 224.518555,97.0385698 224.518555,97.9262695 Z M240.233398,84.5581055 C241.938485,84.5581055 243.31396,84.9821735 244.359863,85.8303223 C245.405767,86.678471 245.928711,87.8012625 245.928711,89.1987305 C245.928711,91.0883884 245.071786,92.4946243 243.35791,93.4174805 C244.34229,93.7690447 245.084958,94.3425253 245.585938,95.1379395 C246.086917,95.9333536 246.337402,96.8803656 246.337402,97.9790039 C246.337402,99.6137777 245.766119,100.934321 244.623535,101.940674 C243.480951,102.947027 241.978037,103.450195 240.114746,103.450195 C238.646965,103.450195 237.236335,103.103031 235.882812,102.408691 L235.882812,99.1655273 C236.629887,99.6665064 237.315427,100.029052 237.939453,100.253174 C238.56348,100.477296 239.20068,100.589355 239.851074,100.589355 C240.712407,100.589355 241.417722,100.345461 241.967041,99.857666 C242.51636,99.3698706 242.791016,98.7348672 242.791016,97.9526367 C242.791016,97.0913043 242.487796,96.403567 241.881348,95.8894043 C241.274899,95.3752416 240.444341,95.1181641 239.389648,95.1181641 L239.178711,95.1181641 L239.178711,92.2573242 L239.336914,92.2573242 C240.321294,92.2573242 241.090329,92.0397971 241.644043,91.6047363 C242.197757,91.1696756 242.474609,90.5830115 242.474609,89.8447266 C242.474609,89.1152307 242.206546,88.5285667 241.67041,88.0847168 C241.134275,87.6408669 240.448735,87.4189453 239.61377,87.4189453 C238.576655,87.4189453 237.486822,87.695798 236.344238,88.2495117 L236.344238,85.3623047 C237.495611,84.8261692 238.791985,84.5581055 240.233398,84.5581055 Z M253.838867,83.5561523 C254.919927,83.5561523 255.847164,83.9450645 256.620605,84.7229004 C257.394047,85.5007363 257.780762,86.4345649 257.780762,87.5244141 C257.780762,88.596685 257.398441,89.5217246 256.633789,90.2995605 C255.869137,91.0773965 254.937505,91.4663086 253.838867,91.4663086 C252.757807,91.4663086 251.823979,91.0839882 251.037354,90.3193359 C250.250728,89.5546837 249.857422,88.6230524 249.857422,87.5244141 C249.857422,86.4169867 250.246334,85.4787636 251.02417,84.7097168 C251.802006,83.94067 252.740229,83.5561523 253.838867,83.5561523 Z M251.782227,87.5244141 C251.782227,88.0869169 251.977781,88.565916 252.368896,88.9614258 C252.760012,89.3569356 253.249997,89.5546875 253.838867,89.5546875 C254.410159,89.5546875 254.889158,89.3591328 255.275879,88.9680176 C255.6626,88.5769023 255.855957,88.095706 255.855957,87.5244141 C255.855957,86.944333 255.660402,86.4565449 255.269287,86.0610352 C254.878172,85.6655254 254.40137,85.4677734 253.838867,85.4677734 C253.285153,85.4677734 252.803957,85.6699199 252.395264,86.0742188 C251.98657,86.4785176 251.782227,86.9619113 251.782227,87.5244141 Z M271.808105,84.7954102 L282.750488,97.6494141 L282.750488,84.7954102 L286.230957,84.7954102 L286.230957,103.212891 L283.172363,103.212891 L272.164062,90.1479492 L272.164062,103.212891 L268.683594,103.212891 L268.683594,84.7954102 L271.808105,84.7954102 Z M291.491211,99.6005859 C292.194339,99.6005859 292.756834,99.8576634 293.178711,100.371826 C293.600588,100.885989 293.811523,101.582515 293.811523,102.461426 C293.811523,103.612799 293.429203,104.634517 292.664551,105.526611 C291.899899,106.418706 290.9419,106.961425 289.790527,107.154785 L289.790527,106.456055 C290.634282,105.744137 291.056152,104.8169 291.056152,103.674316 L291.056152,103.476562 L291.029785,103.265625 C290.036616,103.081054 289.540039,102.479009 289.540039,101.459473 C289.540039,100.940915 289.726805,100.501467 290.100342,100.141113 C290.473879,99.7807599 290.937497,99.6005859 291.491211,99.6005859 Z M311.200684,84.7954102 L311.200684,103.212891 L307.825684,103.212891 L307.825684,84.7954102 L311.200684,84.7954102 Z M319.967773,99.402832 C320.503909,99.402832 320.976316,99.600584 321.38501,99.9960938 C321.793703,100.391604 321.998047,100.870603 321.998047,101.433105 C321.998047,101.97803 321.800295,102.450437 321.404785,102.850342 C321.009275,103.250246 320.530276,103.450195 319.967773,103.450195 C319.41406,103.450195 318.937258,103.250246 318.537354,102.850342 C318.137449,102.450437 317.9375,101.97803 317.9375,101.433105 C317.9375,100.870603 318.139646,100.391604 318.543945,99.9960938 C318.948244,99.600584 319.422849,99.402832 319.967773,99.402832 Z M334.95752,84.5581055 C333.97314,85.3754924 332.885504,86.5839764 331.69458,88.1835938 C330.503656,89.7832111 329.653323,91.1850526 329.143555,92.3891602 C329.829105,92.0991196 330.532223,91.9541016 331.25293,91.9541016 C332.202153,91.9541016 333.06567,92.1936011 333.843506,92.6726074 C334.621342,93.1516137 335.225584,93.8151813 335.65625,94.6633301 C336.086916,95.5114789 336.302246,96.4540964 336.302246,97.4912109 C336.302246,98.5898492 336.047366,99.5961868 335.537598,100.510254 C335.027829,101.424321 334.324712,102.14282 333.428223,102.665771 C332.531734,103.188723 331.556158,103.450195 330.501465,103.450195 C328.708487,103.450195 327.256109,102.845953 326.144287,101.637451 C325.032465,100.428949 324.476562,98.8579198 324.476562,96.9243164 C324.476562,94.9995021 325.054438,92.9384875 326.210205,90.7412109 C327.365973,88.5439343 328.941396,86.4829198 330.936523,84.5581055 L334.95752,84.5581055 Z M327.904297,97.4912109 C327.904297,98.3437543 328.143796,99.0468722 328.622803,99.6005859 C329.101809,100.1543 329.719235,100.431152 330.475098,100.431152 C331.213383,100.431152 331.811033,100.16968 332.268066,99.6467285 C332.7251,99.1237767 332.953613,98.4316449 332.953613,97.5703125 C332.953613,96.7617147 332.718508,96.0915554 332.248291,95.5598145 C331.778074,95.0280735 331.169437,94.762207 330.422363,94.762207 C329.701657,94.762207 329.101809,95.023679 328.622803,95.5466309 C328.143796,96.0695827 327.904297,96.7177696 327.904297,97.4912109 Z M346.348145,84.7954102 L346.348145,103.212891 L342.973145,103.212891 L342.973145,84.7954102 L346.348145,84.7954102 Z M365.398438,84.7954102 L365.398438,84.9008789 L357.976074,103.450195 L354.864746,102.290039 L360.678711,87.9594727 L353.335449,87.9594727 L353.335449,84.7954102 L365.398438,84.7954102 Z M373.203125,84.5581055 C374.846688,84.5581055 376.189204,85.0371046 377.230713,85.9951172 C378.272222,86.9531298 378.792969,88.1923752 378.792969,89.7128906 C378.792969,91.3740317 378.037117,92.6791945 376.525391,93.628418 C377.474614,94.129397 378.160154,94.7490197 378.582031,95.4873047 C379.003908,96.2255896 379.214844,97.0913036 379.214844,98.0844727 C379.214844,99.104009 378.955569,100.024654 378.437012,100.846436 C377.918454,101.668217 377.197759,102.307615 376.274902,102.764648 C375.352046,103.221682 374.328131,103.450195 373.203125,103.450195 C371.445304,103.450195 369.99732,102.949224 368.859131,101.947266 C367.720942,100.945307 367.151855,99.6577227 367.151855,98.0844727 C367.151855,97.038569 367.375974,96.1530798 367.824219,95.4279785 C368.272463,94.7028772 368.949214,94.1030297 369.854492,93.628418 C368.342766,92.6704054 367.586914,91.3564537 367.586914,89.6865234 C367.586914,88.1747971 368.112055,86.9421434 369.162354,85.9885254 C370.212652,85.0349073 371.559562,84.5581055 373.203125,84.5581055 Z M370.961914,89.765625 C370.961914,90.5566446 371.172849,91.2048315 371.594727,91.7102051 C372.016604,92.2155787 372.552731,92.4682617 373.203125,92.4682617 C373.835941,92.4682617 374.363279,92.2067897 374.785156,91.6838379 C375.207033,91.1608861 375.417969,90.5214882 375.417969,89.765625 C375.417969,88.9658163 375.21802,88.3330101 374.818115,87.8671875 C374.418211,87.4013649 373.879886,87.168457 373.203125,87.168457 C372.517575,87.168457 371.972658,87.3969704 371.568359,87.8540039 C371.16406,88.3110374 370.961914,88.9482381 370.961914,89.765625 Z M370.57959,97.9262695 C370.57959,98.8315475 370.816892,99.5434544 371.291504,100.062012 C371.766116,100.580569 372.403316,100.839844 373.203125,100.839844 C374.002934,100.839844 374.633543,100.578372 375.094971,100.05542 C375.556399,99.5324681 375.787109,98.8403363 375.787109,97.9790039 C375.787109,97.1176715 375.549807,96.410159 375.075195,95.8564453 C374.600584,95.3027316 373.985355,95.0258789 373.229492,95.0258789 C372.438473,95.0258789 371.799075,95.2873509 371.311279,95.8103027 C370.823484,96.3332546 370.57959,97.0385698 370.57959,97.9262695 Z M385.648438,83.5561523 C386.729498,83.5561523 387.656734,83.9450645 388.430176,84.7229004 C389.203617,85.5007363 389.590332,86.4345649 389.590332,87.5244141 C389.590332,88.596685 389.208012,89.5217246 388.443359,90.2995605 C387.678707,91.0773965 386.747076,91.4663086 385.648438,91.4663086 C384.567377,91.4663086 383.633549,91.0839882 382.846924,90.3193359 C382.060299,89.5546837 381.666992,88.6230524 381.666992,87.5244141 C381.666992,86.4169867 382.055904,85.4787636 382.83374,84.7097168 C383.611576,83.94067 384.549799,83.5561523 385.648438,83.5561523 Z M383.591797,87.5244141 C383.591797,88.0869169 383.787352,88.565916 384.178467,88.9614258 C384.569582,89.3569356 385.059567,89.5546875 385.648438,89.5546875 C386.219729,89.5546875 386.698729,89.3591328 387.085449,88.9680176 C387.47217,88.5769023 387.665527,88.095706 387.665527,87.5244141 C387.665527,86.944333 387.469973,86.4565449 387.078857,86.0610352 C386.687742,85.6655254 386.21094,85.4677734 385.648438,85.4677734 C385.094724,85.4677734 384.613527,85.6699199 384.204834,86.0742188 C383.796141,86.4785176 383.591797,86.9619113 383.591797,87.5244141 Z M402.246582,84.7954102 L406.834473,96.159668 L411.659668,84.7954102 L414.665527,84.7954102 L419.51709,96.1992188 L424.091797,84.7954102 L427.730469,84.7954102 L420.149902,103.450195 L418.950195,103.450195 L413.149414,89.7919922 L407.322266,103.450195 L406.162109,103.450195 L398.568359,84.7954102 L402.246582,84.7954102 Z" id="54.9783°N,1.6178°W" fill="#A3B800"></path>
        </g>
        <g id="undraw_directions_x53j-2" transform="translate(669.000000, 308.000000)" fill-rule="nonzero">
            <path d="M171,37.778898 C138.291717,6.63606466 88.8222616,1.07116472 50,24.1674102 C88.7817372,38.0358724 131.573125,38.5457424 171,37.778898 Z" id="Path" fill="#A3B800" opacity="0.1"></path>
            <path d="M395.818895,264.477879 L353.184066,190.682861 C352.942531,190.260589 352.493113,190 352.006388,190 C351.519663,190 351.070245,190.260589 350.82871,190.682861 L308.193881,264.477879 C307.940799,264.898607 307.935114,265.42319 308.179017,265.849297 C308.42292,266.275404 308.878295,266.536444 309.369504,266.531734 L322.087607,266.531734 C322.838107,266.533989 323.445948,267.141407 323.448205,267.891386 L323.448205,283.640348 C323.448202,284.389662 324.054861,284.997736 324.804693,285 L341.399063,285 C342.150501,285 342.759662,284.391263 342.759662,283.640348 L342.759662,276.02876 C342.759662,275.280114 343.366982,274.673216 344.11615,274.673216 L359.892516,274.673216 C360.642352,274.673213 361.250849,275.27945 361.253115,276.02876 L361.253115,283.640348 C361.253115,284.391263 361.862275,285 362.613713,285 L379.203973,285 C379.955411,285 380.564571,284.391263 380.564571,283.640348 L380.564571,267.874955 C380.564571,267.12404 381.173732,266.515303 381.92517,266.515303 L394.643272,266.515303 C395.128252,266.513924 395.575832,266.254679 395.818091,265.834831 C396.060349,265.414983 396.060655,264.898013 395.818895,264.477879 L395.818895,264.477879 Z M336.363615,272.644007 C336.110838,272.903927 335.764427,273.051864 335.401742,273.054778 L329.429084,273.054778 C328.677646,273.054778 328.068485,272.446041 328.068485,271.695126 C328.068485,270.944211 328.677646,270.335474 329.429084,270.335474 L335.414074,270.335474 C335.964251,270.335648 336.460177,270.666914 336.670697,271.174868 C336.881217,271.682821 336.764894,272.26748 336.375947,272.65633 L336.363615,272.644007 Z M375.529123,272.644007 C375.276347,272.903927 374.929935,273.051864 374.56725,273.054778 L368.598703,273.054778 C367.847265,273.054778 367.238104,272.446041 367.238104,271.695126 C367.238104,270.944211 367.847265,270.335474 368.598703,270.335474 L374.591913,270.335474 C375.142091,270.335648 375.638016,270.666914 375.848537,271.174868 C376.059057,271.682821 375.942734,272.26748 375.553787,272.65633 L375.529123,272.644007 Z" id="Shape" fill="#A3B800" opacity="0.1"></path>
            <path d="M133.816501,264.47697 L91.181817,190.678758 C90.9386049,190.258681 90.4897831,190 90.0041428,190 C89.5185025,190 89.0696807,190.258681 88.8264686,190.678758 L52,254.420859 C56.6008389,260.215146 61.7626814,265.541507 67.4104734,270.322495 L73.4118847,270.322495 C74.16332,270.322495 74.7724786,270.931258 74.7724786,271.682206 C74.7724786,272.433153 74.16332,273.041917 73.4118847,273.041917 L70.8797824,273.041917 C73.9810952,275.3726 77.2823712,277.424936 80.7451161,279.174994 L80.7451161,276.032459 C80.7451161,275.281512 81.3542747,274.672748 82.10571,274.672748 L97.8820228,274.672748 C98.6318524,274.675012 99.2385096,275.283113 99.2385062,276.032459 L99.2385062,283.640268 C99.2378041,283.837719 99.2813446,284.032823 99.3659335,284.211265 C99.5883451,284.691619 100.069472,284.99999 100.5991,284.99999 L117.193414,284.99999 C117.620596,285.001669 118.022664,284.798474 118.27449,284.45363 C118.457147,284.219058 118.554297,283.929248 118.549897,283.632052 L118.549897,267.878301 C118.549897,267.127354 119.159056,266.51859 119.910491,266.51859 L132.62855,266.51859 C133.117001,266.522485 133.570059,266.264415 133.815601,265.842423 C134.061144,265.420432 134.061488,264.899284 133.816501,264.47697 L133.816501,264.47697 Z M105.638641,270.72096 C105.891417,270.461028 106.237828,270.313086 106.600512,270.310171 L112.585481,270.310171 C113.336916,270.310171 113.946075,270.918934 113.946075,271.669882 C113.946075,272.42083 113.336916,273.029593 112.585481,273.029593 L106.596401,273.029593 C106.046226,273.029419 105.550302,272.698138 105.339782,272.190163 C105.129263,271.682187 105.245585,271.097503 105.634531,270.708636 L105.638641,270.72096 Z M78.858371,243.411719 C78.1069357,243.411719 77.4977771,242.802956 77.4977771,242.052008 L77.4977771,231.724777 C77.4977771,230.973829 78.1069357,230.365066 78.858371,230.365066 L101.158136,230.365066 C101.907965,230.36733 102.514619,230.975431 102.514619,231.724777 L102.514619,242.052008 C102.514619,242.801354 101.907965,243.409455 101.158136,243.411719 L78.858371,243.411719 Z" id="Shape" fill="#A3B800" opacity="0.1"></path>
            <path d="M301.447512,132.919521 L248.92027,132.919521 L248.92027,121.546874 C248.92027,120.044517 247.70364,118.826615 246.20285,118.826615 L230.778216,118.826615 L230.778216,106.712452 C230.778216,105.766691 230.012325,105 229.067551,105 L209.198462,105 C208.253687,105 207.487796,105.766691 207.487796,106.712452 L207.487796,118.822519 L189.353927,118.822519 C187.853138,118.822519 186.636507,120.04042 186.636507,121.542777 L186.636507,132.915424 L136.548395,132.915424 C136.244864,132.917675 136,133.164633 136,133.468489 L136,284.446935 C136,284.750792 136.244864,284.997749 136.548395,285 L169.836793,285 C170.141924,285 170.389281,284.752385 170.389281,284.446935 L170.389281,264.135125 C170.391509,263.830605 170.637566,263.584292 170.941768,263.582061 L185.003599,263.582061 C185.307802,263.584292 185.553858,263.830605 185.556087,264.135125 L185.556087,284.446935 C185.556079,284.750792 185.800951,284.997749 186.104482,285 L251.891425,285 C252.195628,284.997769 252.441684,284.751456 252.443913,284.446935 L252.443913,264.135125 C252.443905,263.831269 252.688777,263.584311 252.992308,263.582061 L267.054139,263.582061 C267.35927,263.582061 267.606627,263.829676 267.606627,264.135125 L267.606627,284.446935 C267.608856,284.751456 267.854912,284.997769 268.159114,285 L301.447512,285 C301.751715,284.997769 301.997771,284.751456 302,284.446935 L302,133.472586 C301.997771,133.168065 301.751715,132.921752 301.447512,132.919521 Z M164.4306,256.527414 C164.4306,256.830601 164.185075,257.076397 163.882205,257.076397 L143.321483,257.076397 C143.175332,257.077474 143.034792,257.020119 142.931061,256.917049 C142.82733,256.813979 142.768996,256.673722 142.768996,256.527414 L142.768996,249.509639 C142.768996,249.20419 143.016353,248.956574 143.321483,248.956574 L163.882205,248.956574 C164.185736,248.958825 164.4306,249.205782 164.4306,249.509639 L164.4306,256.527414 Z M164.430615,238.362314 C164.431691,238.508618 164.374395,238.649305 164.271433,238.753144 C164.168471,238.856983 164.02836,238.915394 163.882205,238.915394 L143.321483,238.915394 C143.17462,238.91648 143.033452,238.858565 142.929601,238.754605 C142.82575,238.650646 142.767895,238.509331 142.76898,238.362314 L142.76898,231.336345 C142.767895,231.189329 142.82575,231.048014 142.929601,230.944054 C143.033452,230.840095 143.17462,230.782179 143.321483,230.783265 L163.882205,230.783265 C164.02836,230.783265 164.168471,230.841676 164.271433,230.945515 C164.374395,231.049354 164.431691,231.190041 164.430615,231.336345 L164.430615,238.362314 Z M164.4306,220.201311 C164.4306,220.505167 164.185736,220.752125 163.882205,220.754376 L143.321483,220.754376 C143.174954,220.754376 143.034427,220.696106 142.930815,220.592387 C142.827204,220.488667 142.768996,220.347993 142.768996,220.201311 L142.768996,213.171245 C142.768996,212.865796 143.016353,212.618181 143.321483,212.618181 L163.882205,212.618181 C164.185736,212.620431 164.4306,212.867389 164.4306,213.171245 L164.4306,220.201311 Z M164.430615,202.036211 C164.431691,202.182515 164.374395,202.323202 164.271433,202.427041 C164.168471,202.53088 164.02836,202.589291 163.882205,202.589291 L143.321483,202.589291 C143.17462,202.590377 143.033452,202.532461 142.929601,202.428502 C142.82575,202.324543 142.767895,202.183228 142.76898,202.036211 L142.76898,195.022532 C142.767895,194.875516 142.82575,194.734201 142.929601,194.630241 C143.033452,194.526282 143.17462,194.468366 143.321483,194.469452 L163.882205,194.469452 C164.02836,194.469452 164.168471,194.527863 164.271433,194.631702 C164.374395,194.735542 164.431691,194.876228 164.430615,195.022532 L164.430615,202.036211 Z M164.4306,183.875208 C164.4306,184.179064 164.185736,184.426022 163.882205,184.428272 L143.321483,184.428272 C143.016353,184.428272 142.768996,184.180657 142.768996,183.875208 L142.768996,176.845142 C142.768996,176.698834 142.82733,176.558577 142.931061,176.455507 C143.034792,176.352437 143.175332,176.295082 143.321483,176.296159 L163.882205,176.296159 C164.185075,176.296159 164.4306,176.541955 164.4306,176.845142 L164.4306,183.875208 Z M164.4306,165.714204 C164.4306,166.017391 164.185075,166.263188 163.882205,166.263188 L143.321483,166.263188 C143.175332,166.264264 143.034792,166.206909 142.931061,166.103839 C142.82733,166.000769 142.768996,165.860512 142.768996,165.714204 L142.768996,158.684139 C142.768996,158.37869 143.016353,158.131074 143.321483,158.131074 L163.882205,158.131074 C164.185736,158.133325 164.4306,158.380282 164.4306,158.684139 L164.4306,165.714204 Z M164.430615,147.549104 C164.431691,147.695408 164.374395,147.836095 164.271433,147.939934 C164.168471,148.043774 164.02836,148.102184 163.882205,148.102184 L143.321483,148.102184 C143.17462,148.10327 143.033452,148.045355 142.929601,147.941395 C142.82575,147.837436 142.767895,147.696121 142.76898,147.549104 L142.76898,140.535426 C142.767895,140.388409 142.82575,140.247094 142.929601,140.143135 C143.033452,140.039175 143.17462,139.98126 143.321483,139.982346 L163.882205,139.982346 C164.02836,139.982346 164.168471,140.040757 164.271433,140.144596 C164.374395,140.248435 164.431691,140.389122 164.430615,140.535426 L164.430615,147.549104 Z M213.176372,256.523317 C213.176372,256.669625 213.118037,256.809882 213.014307,256.912952 C212.910576,257.016022 212.770036,257.073377 212.623884,257.072301 L192.063163,257.072301 C191.759623,257.072301 191.512923,256.827166 191.510675,256.523317 L191.510675,249.509639 C191.512904,249.205119 191.75896,248.958805 192.063163,248.956574 L212.623884,248.956574 C212.929015,248.956574 213.176372,249.20419 213.176372,249.509639 L213.176372,256.523317 Z M213.176387,238.358217 C213.177472,238.505234 213.119617,238.646549 213.015766,238.750509 C212.911915,238.854468 212.770748,238.912383 212.623884,238.911297 L192.063163,238.911297 C191.916634,238.911297 191.776106,238.853013 191.672495,238.749293 C191.568883,238.645573 191.510675,238.504899 191.510675,238.358217 L191.510675,231.336345 C191.510675,231.189663 191.568883,231.048989 191.672495,230.945269 C191.776106,230.84155 191.916634,230.783265 192.063163,230.783265 L212.623884,230.783265 C212.770748,230.782179 212.911915,230.840095 213.015766,230.944054 C213.119617,231.048014 213.177472,231.189329 213.176387,231.336345 L213.176387,238.358217 Z M213.176372,220.197214 C213.176372,220.502663 212.929015,220.750279 212.623884,220.750279 L192.063163,220.750279 C191.75896,220.748048 191.512904,220.501734 191.510675,220.197214 L191.510675,213.171245 C191.512904,212.866725 191.75896,212.620412 192.063163,212.618181 L212.623884,212.618181 C212.929015,212.618181 213.176372,212.865796 213.176372,213.171245 L213.176372,220.197214 Z M213.176387,202.032114 C213.177472,202.179131 213.119617,202.320446 213.015766,202.424405 C212.911915,202.528365 212.770748,202.58628 212.623884,202.585194 L192.063163,202.585194 C191.916634,202.585194 191.776106,202.52691 191.672495,202.42319 C191.568883,202.31947 191.510675,202.178796 191.510675,202.032114 L191.510675,195.022532 C191.510675,194.87585 191.568883,194.735176 191.672495,194.631457 C191.776106,194.527737 191.916634,194.469452 192.063163,194.469452 L212.623884,194.469452 C212.770748,194.468366 212.911915,194.526282 213.015766,194.630241 C213.119617,194.734201 213.177472,194.875516 213.176387,195.022532 L213.176387,202.032114 Z M213.176372,183.871111 C213.176372,184.17656 212.929015,184.424176 212.623884,184.424176 L192.063163,184.424176 C191.75896,184.421945 191.512904,184.175631 191.510675,183.871111 L191.510675,176.845142 C191.512923,176.541294 191.759623,176.296159 192.063163,176.296159 L212.623884,176.296159 C212.770036,176.295082 212.910576,176.352437 213.014307,176.455507 C213.118037,176.558577 213.176372,176.698834 213.176372,176.845142 L213.176372,183.871111 Z M213.176372,165.710108 C213.176372,165.856416 213.118037,165.996672 213.014307,166.099742 C212.910576,166.202812 212.770036,166.260167 212.623884,166.259091 L192.063163,166.259091 C191.759623,166.259091 191.512923,166.013956 191.510675,165.710108 L191.510675,158.684139 C191.512904,158.379618 191.75896,158.133305 192.063163,158.131074 L212.623884,158.131074 C212.929015,158.131074 213.176372,158.37869 213.176372,158.684139 L213.176372,165.710108 Z M213.176387,147.545008 C213.177472,147.692024 213.119617,147.833339 213.015766,147.937299 C212.911915,148.041258 212.770748,148.099174 212.623884,148.098088 L192.063163,148.098088 C191.916634,148.098088 191.776106,148.039803 191.672495,147.936083 C191.568883,147.832364 191.510675,147.691689 191.510675,147.545008 L191.510675,140.535426 C191.510675,140.388744 191.568883,140.24807 191.672495,140.14435 C191.776106,140.04063 191.916634,139.982346 192.063163,139.982346 L212.623884,139.982346 C212.770748,139.98126 212.911915,140.039175 213.015766,140.143135 C213.119617,140.247094 213.177472,140.388409 213.176387,140.535426 L213.176387,147.545008 Z M246.485232,256.519221 C246.485232,256.665529 246.426898,256.805785 246.323167,256.908855 C246.219436,257.011925 246.078896,257.06928 245.932745,257.068204 L225.372023,257.068204 C225.068484,257.068204 224.821784,256.823069 224.819536,256.519221 L224.819536,249.509639 C224.821764,249.205119 225.067821,248.958805 225.372023,248.956574 L245.932745,248.956574 C246.237875,248.956574 246.485232,249.20419 246.485232,249.509639 L246.485232,256.519221 Z M246.485248,238.354121 C246.486333,238.501137 246.428478,238.642452 246.324627,238.746412 C246.220776,238.850371 246.079608,238.908287 245.932745,238.907201 L225.372023,238.907201 C225.225494,238.907201 225.084967,238.848916 224.981355,238.745196 C224.877744,238.641477 224.819536,238.500803 224.819536,238.354121 L224.819536,231.336345 C224.819536,231.189663 224.877744,231.048989 224.981355,230.945269 C225.084967,230.84155 225.225494,230.783265 225.372023,230.783265 L245.932745,230.783265 C246.079608,230.782179 246.220776,230.840095 246.324627,230.944054 C246.428478,231.048014 246.486333,231.189329 246.485248,231.336345 L246.485248,238.354121 Z M246.485232,220.193117 C246.485232,220.498567 246.237875,220.746182 245.932745,220.746182 L225.372023,220.746182 C225.067821,220.743951 224.821764,220.497638 224.819536,220.193117 L224.819536,213.171245 C224.821764,212.866725 225.067821,212.620412 225.372023,212.618181 L245.932745,212.618181 C246.237875,212.618181 246.485232,212.865796 246.485232,213.171245 L246.485232,220.193117 Z M246.485248,202.028017 C246.486333,202.175034 246.428478,202.316349 246.324627,202.420308 C246.220776,202.524268 246.079608,202.582183 245.932745,202.581097 L225.372023,202.581097 C225.225494,202.581097 225.084967,202.522813 224.981355,202.419093 C224.877744,202.315373 224.819536,202.174699 224.819536,202.028017 L224.819536,195.022532 C224.819536,194.87585 224.877744,194.735176 224.981355,194.631457 C225.084967,194.527737 225.225494,194.469452 225.372023,194.469452 L245.932745,194.469452 C246.079608,194.468366 246.220776,194.526282 246.324627,194.630241 C246.428478,194.734201 246.486333,194.875516 246.485248,195.022532 L246.485248,202.028017 Z M246.485232,183.867014 C246.485232,184.172463 246.237875,184.420079 245.932745,184.420079 L225.372023,184.420079 C225.067821,184.417848 224.821764,184.171534 224.819536,183.867014 L224.819536,176.845142 C224.821784,176.541294 225.068484,176.296159 225.372023,176.296159 L245.932745,176.296159 C246.078896,176.295082 246.219436,176.352437 246.323167,176.455507 C246.426898,176.558577 246.485232,176.698834 246.485232,176.845142 L246.485232,183.867014 Z M246.485232,165.706011 C246.485232,165.852319 246.426898,165.992575 246.323167,166.095645 C246.219436,166.198715 246.078896,166.256071 245.932745,166.254994 L225.372023,166.254994 C225.068484,166.254994 224.821784,166.009859 224.819536,165.706011 L224.819536,158.684139 C224.821764,158.379618 225.067821,158.133305 225.372023,158.131074 L245.932745,158.131074 C246.237875,158.131074 246.485232,158.37869 246.485232,158.684139 L246.485232,165.706011 Z M246.485248,147.540911 C246.486333,147.687928 246.428478,147.829242 246.324627,147.933202 C246.220776,148.037161 246.079608,148.095077 245.932745,148.093991 L225.372023,148.093991 C225.225494,148.093991 225.084967,148.035706 224.981355,147.931987 C224.877744,147.828267 224.819536,147.687593 224.819536,147.540911 L224.819536,140.535426 C224.819536,140.388744 224.877744,140.24807 224.981355,140.14435 C225.084967,140.04063 225.225494,139.982346 225.372023,139.982346 L245.932745,139.982346 C246.079608,139.98126 246.220776,140.039175 246.324627,140.143135 C246.428478,140.247094 246.486333,140.388409 246.485248,140.535426 L246.485248,147.540911 Z M295.231004,256.515124 C295.228756,256.818972 294.982056,257.064107 294.678517,257.064107 L274.117795,257.064107 C273.971644,257.065184 273.831104,257.007828 273.727373,256.904758 C273.623642,256.801688 273.565307,256.661432 273.565307,256.515124 L273.565307,249.509639 C273.565307,249.20419 273.812665,248.956574 274.117795,248.956574 L294.682609,248.956574 C294.986812,248.958805 295.232868,249.205119 295.235097,249.509639 L295.231004,256.515124 Z M295.231004,238.350024 C295.231004,238.655473 294.983647,238.903104 294.678517,238.903104 L274.117795,238.903104 C273.970932,238.90419 273.829764,238.846274 273.725913,238.742315 C273.622062,238.638356 273.564207,238.497041 273.565292,238.350024 L273.565292,231.336345 C273.564207,231.189329 273.622062,231.048014 273.725913,230.944054 C273.829764,230.840095 273.970932,230.782179 274.117795,230.783265 L294.682609,230.783265 C294.98774,230.783265 295.235097,231.030896 295.235097,231.336345 L295.231004,238.350024 Z M295.231004,220.189021 C295.228776,220.493541 294.982719,220.739854 294.678517,220.742085 L274.117795,220.742085 C273.812665,220.742085 273.565307,220.49447 273.565307,220.189021 L273.565307,213.171245 C273.565307,212.865796 273.812665,212.618181 274.117795,212.618181 L294.682609,212.618181 C294.986812,212.620412 295.232868,212.866725 295.235097,213.171245 L295.231004,220.189021 Z M295.231004,202.023921 C295.231004,202.32937 294.983647,202.577001 294.678517,202.577001 L274.117795,202.577001 C273.970932,202.578087 273.829764,202.520171 273.725913,202.416212 C273.622062,202.312252 273.564207,202.170937 273.565292,202.023921 L273.565292,195.022532 C273.564207,194.875516 273.622062,194.734201 273.725913,194.630241 C273.829764,194.526282 273.970932,194.468366 274.117795,194.469452 L294.682609,194.469452 C294.98774,194.469452 295.235097,194.717083 295.235097,195.022532 L295.231004,202.023921 Z M295.231004,183.862917 C295.228776,184.167438 294.982719,184.413751 294.678517,184.415982 L274.117795,184.415982 C273.812665,184.415982 273.565307,184.168367 273.565307,183.862917 L273.565307,176.845142 C273.565307,176.698834 273.623642,176.558577 273.727373,176.455507 C273.831104,176.352437 273.971644,176.295082 274.117795,176.296159 L294.682609,176.296159 C294.986149,176.296159 295.232848,176.541294 295.235097,176.845142 L295.231004,183.862917 Z M295.231004,165.701914 C295.23319,165.849303 295.176509,165.991467 295.073546,166.096845 C294.970583,166.202224 294.829857,166.262097 294.682609,166.263188 L274.117795,166.263188 C273.971644,166.264264 273.831104,166.206909 273.727373,166.103839 C273.623642,166.000769 273.565307,165.860512 273.565307,165.714204 L273.565307,158.684139 C273.565307,158.37869 273.812665,158.131074 274.117795,158.131074 L294.682609,158.131074 C294.986812,158.133305 295.232868,158.379618 295.235097,158.684139 L295.231004,165.701914 Z M295.231004,147.536814 C295.231004,147.842263 294.983647,148.089894 294.678517,148.089894 L274.117795,148.089894 C273.970932,148.09098 273.829764,148.033065 273.725913,147.929105 C273.622062,147.825146 273.564207,147.683831 273.565292,147.536814 L273.565292,140.535426 C273.564207,140.388409 273.622062,140.247094 273.725913,140.143135 C273.829764,140.039175 273.970932,139.98126 274.117795,139.982346 L294.682609,139.982346 C294.98774,139.982346 295.235097,140.229977 295.235097,140.535426 L295.231004,147.536814 Z" id="Shape" fill="#A3B800" opacity="0.1"></path>
            <path d="M152,91.4166656 C149.72184,90.9868129 147.366069,91.240166 145.234006,92.1443194 C142.63513,93.2921554 139.665164,93.2848813 137.072046,92.1243289 C134.013708,90.7955289 130.520877,90.8642276 127.518156,92.3122395 C126.669629,92.7552074 125.725634,92.9883862 124.766571,92.9919162 C120.893372,92.9919162 117.669741,89.1257555 117,84.0241825 C117.773961,83.4653308 118.431566,82.7634408 118.936599,81.9571659 C121.208069,78.3308911 124.726225,76 128.676081,76 C132.625937,76 136.099712,78.3029044 138.359078,81.8891982 C139.736976,84.0930512 142.178191,85.4216821 144.794236,85.391532 L144.895101,85.391532 C148.009798,85.391532 150.680692,87.8423661 152,91.4166656 Z" id="Path" fill="#A3B800" opacity="0.1"></path>
            <path d="M163.349375,74.9631902 L157.01217,78.9877301 L160.858593,71.9815951 C159.768484,71.1100181 158.419131,70.6278259 157.02442,70.6114519 L156.922339,70.6114519 C156.482029,70.6179018 156.042022,70.5850521 155.607532,70.5132924 L153.467909,71.8793456 L154.390723,70.202454 C152.868068,69.6694992 151.553012,68.6672643 150.634133,67.3394683 L146.787711,69.793456 L149.209078,65.3599182 C146.959207,62.6564417 143.929435,61 140.597502,61 C136.6,61 133.039405,63.3803681 130.740535,67.0899796 C129.354386,69.3561518 126.859135,70.7011215 124.207334,70.6114519 L123.990922,70.6114519 C119.576928,70.6114519 116,75.6216769 116,81.805726 C116,87.9897751 119.576928,93 123.990922,93 C124.96218,92.9974149 125.91812,92.7573341 126.775699,92.3006135 C129.815243,90.8206346 133.350202,90.7518525 136.444836,92.1124744 C139.061682,93.2822089 142.051658,93.2822089 144.668503,92.1124744 C147.739138,90.7751541 151.238753,90.8423356 154.255976,92.2965235 C155.105444,92.7418218 156.049326,92.9760771 157.008087,92.9795501 C161.422081,92.9795501 164.999009,87.9652352 164.999009,81.7852761 C165.027046,79.4088839 164.459882,77.0633656 163.349375,74.9631902 L163.349375,74.9631902 Z" id="Path" fill="#A3B800" opacity="0.1"></path>
            <path d="M340,165.874622 C338.370942,165.572606 336.686936,165.750899 335.161556,166.386891 C333.312747,167.196044 331.199287,167.196044 329.350478,166.386891 C327.163013,165.448426 324.664887,165.497089 322.51731,166.52 C321.911328,166.833257 321.236747,166.997967 320.551434,167 C317.781899,167 315.478075,164.269244 315,160.667227 C315.552212,160.271062 316.022191,159.775493 316.384768,159.207059 C318.008572,156.645714 320.5061,155 323.345697,155 C326.185295,155 328.658094,156.613445 330.281899,159.158655 C331.266,160.715145 333.011247,161.653376 334.881306,161.631261 L334.95549,161.631261 C337.139796,161.623193 339.047972,163.353613 340,165.874622 Z" id="Path" fill="#A3B800" opacity="0.1"></path>
            <path d="M348.834124,154.613445 L344.438432,157.382536 L347.1058,152.559737 C346.349418,151.96125 345.413632,151.630311 344.446527,151.619291 L344.377718,151.619291 C344.07272,151.622994 343.767983,151.600132 343.467008,151.550968 L341.973444,152.487395 L342.612964,151.337961 C341.558288,150.969996 340.646546,150.282587 340.006311,149.372671 L337.330848,151.044574 L339.014649,148.002192 C337.456323,146.141396 335.37181,145 333.040392,145 C330.267787,145 327.778514,146.639752 326.19995,149.191816 C325.238461,150.743566 323.512637,151.664047 321.678782,151.603215 L321.545211,151.603215 C318.485226,151.603215 316,155.047497 316,159.299598 C316,163.551699 318.485226,167 321.545211,167 C322.218263,166.997974 322.880775,166.833861 323.475916,166.521739 C325.585142,165.501647 328.039538,165.454611 330.186835,166.393131 C332.003656,167.194272 334.077129,167.194272 335.89395,166.393131 C338.024258,165.474783 340.451476,165.521723 342.544155,166.521739 C343.13468,166.825514 343.789558,166.985322 344.454622,166.987943 C347.518655,166.987943 350,163.543661 350,159.287541 C350.009392,157.657424 349.608693,156.050757 348.834124,154.613445 Z" id="Path" fill="#A3B800" opacity="0.1"></path>
            <path d="M98,139.876133 C99.6290679,139.574767 101.313,139.752813 102.838444,140.387714 C104.685743,141.196118 106.798102,141.196118 108.645401,140.387714 C110.832866,139.450509 113.330991,139.499107 115.478569,140.520645 C116.084727,140.833029 116.759193,140.99749 117.444444,141 C120.21398,141 122.521925,138.27291 123,134.67573 C122.446835,134.281144 121.97667,133.786044 121.615232,133.217523 C119.99967,130.651561 117.473294,129 114.641939,129 C111.810584,129 109.333663,130.611279 107.709858,133.153072 C106.722767,134.709451 104.975606,135.648826 103.102209,135.630413 L103.032146,135.630413 C100.839598,135.630413 98.9272997,137.35851 98,139.876133 Z" id="Path" fill="#A3B800" opacity="0.1"></path>
            <path d="M89.1618483,128.617464 L93.5575382,131.374498 L90.8861244,126.551699 C91.642809,125.953755 92.5784011,125.622884 93.5453954,125.611253 L93.6182522,125.611253 C93.9232425,125.614731 94.2279597,125.59187 94.5289614,125.54293 L96.018477,126.479357 L95.3789567,125.329923 C96.4348567,124.96221 97.3479662,124.274836 97.9896566,123.364633 L100.657023,125.044574 L98.969175,122.002192 C100.531547,120.141396 102.63225,119 104.947475,119 C107.720079,119 110.209351,120.639752 111.787914,123.191816 C112.748801,124.744198 114.475025,125.664893 116.309079,125.603215 L116.454793,125.603215 C119.518823,125.603215 122,129.047497 122,133.299598 C122,137.551699 119.518823,141 116.454793,141 C115.78186,140.99702 115.119574,140.832963 114.524089,140.521739 C112.414864,139.501647 109.960469,139.454611 107.813174,140.393131 C105.997725,141.194092 103.925559,141.194092 102.11011,140.393131 C99.978433,139.474627 97.5499258,139.521564 95.4558611,140.521739 C94.8655024,140.825952 94.2105161,140.985785 93.5453954,140.987943 C90.4854124,140.987943 88,137.543661 88,133.287541 C87.9900592,131.659127 88.3893413,130.053943 89.1618483,128.617464 Z" id="Path" fill="#A3B800" opacity="0.1"></path>
            <path d="M89,286.233021 C94.5419825,289.629602 102.527513,286.193526 108.106333,289.538763 C109.547084,290.399757 110.709509,291.66755 112.199377,292.449554 C113.988038,293.393487 116.091863,293.563316 118.126106,293.634407 C135.161358,294.270279 152.483123,289.684895 169.092699,293.389538 C173.738305,294.42431 178.281584,296.106802 183.041795,296.351672 C191.264722,296.782169 199.143833,292.911647 207.374946,292.698373 C219.858732,292.374513 232.125587,300.435468 244.171418,297.25611 C248.133485,296.209489 251.768109,293.978015 255.857061,293.602811 C260.412619,293.20786 264.792177,295.123374 269.220852,296.241086 C284.925864,300.190598 301.281671,293.792388 317.518779,293.314497 C328.107486,293.002485 338.593866,295.23001 349.174387,295.743447 C356.697403,296.106802 364.236792,295.597315 371.751622,295.091777 C374.616753,294.898251 377.616955,294.661281 380.015479,293.144668 C382.414003,291.628055 383.887499,288.369707 382.405817,286 L89,286.233021 Z" id="Path" fill="#3F3D56"></path>
            <path d="M89,286.233021 C94.5419825,289.629602 102.527513,286.193526 108.106333,289.538763 C109.547084,290.399757 110.709509,291.66755 112.199377,292.449554 C113.988038,293.393487 116.091863,293.563316 118.126106,293.634407 C135.161358,294.270279 152.483123,289.684895 169.092699,293.389538 C173.738305,294.42431 178.281584,296.106802 183.041795,296.351672 C191.264722,296.782169 199.143833,292.911647 207.374946,292.698373 C219.858732,292.374513 232.125587,300.435468 244.171418,297.25611 C248.133485,296.209489 251.768109,293.978015 255.857061,293.602811 C260.412619,293.20786 264.792177,295.123374 269.220852,296.241086 C284.925864,300.190598 301.281671,293.792388 317.518779,293.314497 C328.107486,293.002485 338.593866,295.23001 349.174387,295.743447 C356.697403,296.106802 364.236792,295.597315 371.751622,295.091777 C374.616753,294.898251 377.616955,294.661281 380.015479,293.144668 C382.414003,291.628055 383.887499,288.369707 382.405817,286 L89,286.233021 Z" id="Path" fill="#000000" opacity="0.1"></path>
            <path d="M89,284.233021 C94.5419825,287.629602 102.527513,284.193526 108.106333,287.538763 C109.547084,288.399757 110.709509,289.66755 112.199377,290.449554 C113.988038,291.393487 116.091863,291.563316 118.126106,291.634407 C135.161358,292.270279 152.483123,287.684895 169.092699,291.389538 C173.738305,292.42431 178.281584,294.106802 183.041795,294.351672 C191.264722,294.782169 199.143833,290.911647 207.374946,290.698373 C219.858732,290.374513 232.125587,298.435468 244.171418,295.25611 C248.133485,294.209489 251.768109,291.978015 255.857061,291.602811 C260.412619,291.20786 264.792177,293.123374 269.220852,294.241086 C284.925864,298.190598 301.281671,291.792388 317.518779,291.314497 C328.107486,291.002485 338.593866,293.23001 349.174387,293.743447 C356.697403,294.106802 364.236792,293.597315 371.751622,293.091777 C374.616753,292.898251 377.616955,292.661281 380.015479,291.144668 C382.414003,289.628055 383.887499,286.369707 382.405817,284 L89,284.233021 Z" id="Path" fill="#3F3D56"></path>
            <g id="Group" opacity="0.1" transform="translate(13.000000, 85.000000)">
                <path d="M36.9923585,148.724594 C37.0092596,150.498618 36.552807,152.245158 35.6698868,153.784811 C37.4331935,156.928649 37.4331935,160.761407 35.6698868,163.905245 C36.1183554,164.670976 36.4547705,165.496827 36.6689057,166.357692 C32.1995467,160.476607 28.0856162,154.334578 24.3490377,147.964336 L24.3490377,147.964336 C24.439028,146.444844 24.8819798,144.967104 25.6428491,143.648028 C24.7599288,142.108374 24.3034763,140.361835 24.3203774,138.587811 C24.3151156,137.389109 24.5173477,136.198511 24.9181509,135.068549 C25.1089315,134.532587 25.3516478,134.016489 25.6428491,133.527594 C26.7974528,131.569724 28.6153396,130.306713 30.6543208,130.306713 C32.6933019,130.306713 34.515283,131.569724 35.6698868,133.527594 C35.9507552,134.00246 36.1878361,134.501814 36.3782075,135.0195 C36.7888211,136.164339 36.9966411,137.371805 36.9923585,138.587811 C37.0092596,140.361835 36.552807,142.108374 35.6698868,143.648028 C36.5556267,145.192479 37.0121774,146.945038 36.9923585,148.724594 L36.9923585,148.724594 Z" id="Path" fill="#3F3D56"></path>
                <ellipse id="Oval" fill="#3F3D56" cx="30.6543208" cy="128.487815" rx="6.3339434" ry="8.2810979"></ellipse>
                <ellipse id="Oval" fill="#3F3D56" cx="30.6543208" cy="118.367381" rx="6.3339434" ry="8.2810979"></ellipse>
                <path d="M60.8705834,67.8224371 C60.8810892,74.6192164 58.5914108,81.2202514 54.3728302,86.555049 C60.9059713,94.8479627 62.6477474,105.936389 58.9709878,115.827657 C55.2942282,125.718926 46.7283578,132.988771 36.3577358,135.0195 C35.6289434,135.166647 34.8878679,135.281094 34.1386038,135.371017 C31.8273975,135.646984 29.49223,135.659326 27.1782264,135.407804 C26.4084906,135.326056 25.6483082,135.212971 24.8976792,135.068549 C21.5878033,134.458 18.4043904,133.295947 15.4806981,131.631035 C10.0312735,120.517292 5.27149468,109.079569 1.22830189,97.3826049 C2.29199185,93.4489455 4.1430226,89.7712231 6.66967925,86.5713986 C0.324233956,78.5240111 -1.52365635,67.8228429 1.7564717,58.1189196 L24.7994151,65.840042 L3.18949057,54.6323566 C4.14120768,52.6719466 5.30109938,50.8192596 6.64920755,49.1061748 C-0.375457224,40.193834 -1.82681156,28.1114802 2.88790222,17.7937514 C7.60261601,7.47602251 17.6940467,0.650342919 29.0406832,0.10443569 C40.3873198,-0.441471539 51.089475,5.38379098 56.7762075,15.2010874 L34.4989057,31.5507378 L58.6555094,19.0432552 C61.7771569,26.7843074 61.5668615,35.4672325 58.0741132,43.0486294 L40.0590189,42.9137448 L56.7066038,45.6441364 C55.999901,46.8523691 55.2105493,48.0104936 54.3441698,49.1102622 C58.5681005,54.4361083 60.8676753,61.0293598 60.8705834,67.8224371 Z" id="Path" fill="#A3B800"></path>
                <path d="M60.8706132,105.30401 C60.868173,119.782693 50.6080158,132.237744 36.3782075,135.03585 C35.6494151,135.182997 34.9083396,135.297444 34.1590755,135.387367 C31.8478692,135.663334 29.5127017,135.675676 27.1986981,135.424154 C26.4289623,135.342406 25.6687799,135.229321 24.9181509,135.084899 C21.608275,134.474349 18.4248621,133.312297 15.5011698,131.647385 C10.0441617,120.52881 5.27753492,109.085601 1.22830189,97.3826049 C2.29199185,93.4489455 4.1430226,89.7712231 6.66967925,86.5713986 C2.44903868,81.231424 0.159333596,74.6245507 0.171910304,67.8224371 C0.171910304,64.4217098 58.4426038,81.4008217 54.3728302,86.555049 C58.5949008,91.8942425 60.8847836,98.5016286 60.8706132,105.30401 L60.8706132,105.30401 Z" id="Path" fill="#000000"></path>
            </g>
            <g id="Group" opacity="0.1" transform="translate(387.000000, 117.000000)">
                <path d="M28.5425,108.582265 C27.3583333,112.368212 26.0925,116.12554 24.794,119.797009 C24.4331166,118.714943 24.2510561,117.581151 24.255,116.440354 C24.255,112.789327 26.0516667,109.690248 28.5425,108.582265 Z" id="Path" fill="#3F3D56"></path>
                <path d="M41.2416667,43.3462301 C41.2416667,50.5215398 39.7961667,61.8589381 37.1583333,74.827646 C34.847971,86.2173586 31.9655622,97.4831987 28.5220833,108.582265 C27.3379167,112.368212 26.0720833,116.12554 24.7735833,119.797009 C23.2831667,123.967274 21.7110833,128.023062 20.0655,131.903044 C10.9398908,128.548827 3.96813082,121.025107 1.31003207,111.662691 C-1.34806669,102.300274 0.628443151,92.2296093 6.62725,84.570531 C0.297980142,76.4976707 -1.54408163,65.7756136 1.72725,56.0491858 L24.70825,63.788708 L3.15641667,52.5535221 C4.10547102,50.5887005 5.26222309,48.7314453 6.60683333,47.0136106 C0.788875875,39.5862387 -1.25566154,29.8753631 1.07274185,20.7285089 C3.40114523,11.5816547 9.8386192,4.03540433 18.4975,0.302548673 C27.7734925,6.63874097 34.7558944,15.8069314 38.40375,26.4403009 L34.4225,29.4085487 L38.6936667,27.1884956 C40.1263446,31.596509 40.9627019,36.1768509 41.1804167,40.8072743 L39.9799167,40.8072743 L41.2049167,41.0076106 C41.2416667,41.7803363 41.2416667,42.5571504 41.2416667,43.3462301 Z" id="Path" fill="#A3B800"></path>
                <path d="M37.17875,74.827646 C34.8683876,86.2173586 31.9859788,97.4831987 28.5425,108.582265 C27.3583333,112.368212 26.0925,116.12554 24.794,119.797009 C23.3035833,123.967274 21.7315,128.023062 20.0859167,131.903044 C10.9603074,128.548827 3.98854749,121.025107 1.33044873,111.662691 C-1.32765002,102.300274 0.648859817,92.2296093 6.64766667,84.570531 C2.44316679,79.2189048 0.161770667,72.6051499 0.17146901,65.7961593 C0.17146901,63.7519115 21.2905,69.1078407 37.17875,74.827646 Z" id="Path" fill="#000000"></path>
            </g>
            <path d="M427.952408,158.163346 C427.952408,158.101961 427.952408,158.036484 427.952408,157.971008 C427.73424,153.336279 426.896142,148.751678 425.460482,144.339566 C425.378646,144.089936 425.296809,143.836214 425.210881,143.590676 C421.555433,132.947419 414.5585,123.770705 405.263203,117.428621 C383.70885,102.741414 354.60278,106.339793 337.273333,125.834199 C336.39668,120.866449 335.010409,116.00229 333.136492,111.318821 C319.483344,113.04513 305.704144,113.558673 291.960393,112.853433 C300.382463,116.737285 309.114934,119.908984 318.066277,122.335285 L317.747114,123.522051 C307.70138,120.793922 297.931541,117.135981 288.564173,112.595618 L285.736718,111.224699 L288.871061,111.429313 C303.472343,112.385532 318.131213,111.964898 332.653656,110.172978 C329.511583,102.67823 325.153834,95.7537097 319.756204,89.6787547 C296.203622,87.3052224 272.835174,82.3617276 251.013437,72.5606762 L251.516733,71.4434791 C272.757429,80.9908081 295.520287,85.8974722 318.500011,88.3119275 C302.729988,71.4048924 279.929564,62.8967815 256.940313,65.3405677 C233.951061,67.7843539 213.448284,80.8956493 201.584115,100.740234 C199.407374,79.6311855 190.640034,59.7434962 176.52574,43.8982277 C163.960419,48.9193938 150.986496,52.8502128 137.747454,55.6472125 C117.83697,59.8795427 97.4602679,61.5014453 77.131065,60.4720307 C85.5531348,64.3558832 94.285606,67.5275821 103.236949,69.953883 L102.917786,71.1406491 C92.874847,68.4120385 83.1077683,64.7541047 73.7430287,60.214216 L70.9155732,58.8432965 L74.049916,59.0479114 C108.701572,61.3241275 143.423644,55.8221585 175.674639,42.9447225 C174.460729,41.6160901 173.211356,40.3174678 171.926521,39.0488557 C131.654717,39.8673151 87.7943775,39.4580854 48.0872463,25 C18.1690245,43.4681794 -0.0328532241,76.1321243 0,111.294268 C0,130.30708 5.22531312,156.452765 14.3214542,182.684389 C18.3748157,194.424493 23.1453241,205.904536 28.6060373,217.059685 C31.3843908,222.707054 34.3346012,228.194825 37.4321175,233.449334 L37.4321175,233.449334 C41.1668101,239.826936 45.2782045,245.976282 49.744438,251.864671 C50.5464369,252.920484 51.3579834,253.957199 52.1790776,254.974817 C56.7560282,260.768239 61.8929339,266.096261 67.5152614,270.881575 L67.5152614,270.881575 C68.6527905,271.830988 69.7971393,272.735386 70.9483079,273.594768 C74.033799,275.927372 77.3201497,277.981575 80.7687031,279.733214 C86.7714196,282.741052 92.9664523,284.504832 99.304699,284.758554 C99.8120861,284.779016 100.323565,284.791293 100.830952,284.791293 L100.830952,285 L375.802017,285 L375.802017,284.791293 L376.006609,284.791293 C377.59135,284.785241 379.163409,284.508439 380.654929,283.972833 C390.37712,280.523027 399.330047,266.670602 406.773089,249.163755 C408.409821,245.280165 409.997452,241.220606 411.49097,237.046463 C412.80854,233.363396 414.06064,229.61076 415.247271,225.821293 C418.697916,214.711906 421.586324,203.435591 423.901494,192.035288 C426.524358,179.054522 427.993326,167.706582 427.993326,160.524601 C428.005601,159.722511 428.005601,158.944974 427.952408,158.163346 Z" id="Path" fill="#A3B800" opacity="0.1"></path>
            <path d="M136.49216,273.12154 L144.397808,268.448475 C143.327839,266.614161 141.961238,264.971743 140.354115,263.588654 L125.439122,268.249268 L137.128247,261.347575 C131.241271,258.107315 124.089561,258.228567 118.314737,261.666544 C112.539913,265.104522 108.999037,271.348983 109,278.093415 C109,288.634787 117.504561,289 128,289 C138.49542,289 147,288.634787 147,278.093415 C147.003758,275.424175 146.447847,272.784075 145.36846,270.345092 L136.49216,273.12154 Z" id="Path" fill="#A3B800"></path>
            <path d="M138.399847,282.611096 C137.56168,281.800906 136.625078,281.091531 135.610442,280.498424 C134.178712,279.581079 132.701726,278.643878 131.014918,278.334126 C129.533818,278.060113 128.007462,278.290442 126.489335,278.207047 C123.870463,278.052738 121.404964,276.962638 119.573421,275.149232 C118.499623,274.077011 117.652105,272.766518 116.360256,271.93654 C114.965554,271.054936 113.196462,270.864319 111.542567,271.082734 C111.062585,271.148781 110.587207,271.24294 110.119066,271.364689 C109.376165,273.352685 108.997494,275.450345 109,277.563715 C109,287.650535 117.471081,288 127.925179,288 C132.997946,288 137.601698,287.916605 141,286.681565 L140.432245,285.656998 C139.889798,284.563443 139.20697,283.540106 138.399847,282.611096 L138.399847,282.611096 Z" id="Path" fill="#000000" opacity="0.1"></path>
            <circle id="Oval" fill="#3F3D56" cx="223.5" cy="75.5" r="14.5"></circle>
            <path d="M215.676674,189.351491 C217.192485,199.899827 215.343935,210.655953 212.464307,220.919089 C211.926173,222.829931 211.346961,224.75707 210.340529,226.472346 C209.334097,228.187622 207.933307,229.662515 206.750236,231.275934 C204.285503,234.641297 202.839527,238.609656 201.488032,242.537271 C197.762006,253.405207 194.632683,264.465474 192.113834,275.669397 C191.962055,276.128634 191.962055,276.623937 192.113834,277.083175 C192.47122,277.898033 193.555702,278.003965 194.447114,278 L205.973845,277.938776 C206.384634,277.156512 205.624675,276.30906 205.152268,275.559391 C203.509113,273.025182 205.086541,269.733156 206.536626,267.080793 C210.060926,260.638969 212.789089,253.799105 214.662026,246.709344 C215.450741,243.722889 216.091571,240.671246 217.373232,237.855912 C218.921905,234.441657 221.349666,231.504094 223.321452,228.309851 C225.613653,224.598173 227.285563,220.5687 228.94515,216.52293 C231.261998,210.908559 233.599386,205.224924 234.511337,199.227569 C235.369885,193.596901 234.946773,187.860301 234.3881,182.192963 C234.44078,181.850947 234.324366,181.504676 234.07527,181.262463 C233.826175,181.020249 233.474813,180.911665 233.131086,180.970676 L217.664892,180.180264 C214.477171,180.017292 213.72132,179.324663 214.206051,182.429272 C214.542897,184.747543 215.339828,187.0047 215.676674,189.351491 Z" id="Path" fill="#3F3D56"></path>
            <path d="M215.676674,189.351491 C217.192485,199.899827 215.343935,210.655953 212.464307,220.919089 C211.926173,222.829931 211.346961,224.75707 210.340529,226.472346 C209.334097,228.187622 207.933307,229.662515 206.750236,231.275934 C204.285503,234.641297 202.839527,238.609656 201.488032,242.537271 C197.762006,253.405207 194.632683,264.465474 192.113834,275.669397 C191.962055,276.128634 191.962055,276.623937 192.113834,277.083175 C192.47122,277.898033 193.555702,278.003965 194.447114,278 L205.973845,277.938776 C206.384634,277.156512 205.624675,276.30906 205.152268,275.559391 C203.509113,273.025182 205.086541,269.733156 206.536626,267.080793 C210.060926,260.638969 212.789089,253.799105 214.662026,246.709344 C215.450741,243.722889 216.091571,240.671246 217.373232,237.855912 C218.921905,234.441657 221.349666,231.504094 223.321452,228.309851 C225.613653,224.598173 227.285563,220.5687 228.94515,216.52293 C231.261998,210.908559 233.599386,205.224924 234.511337,199.227569 C235.369885,193.596901 234.946773,187.860301 234.3881,182.192963 C234.44078,181.850947 234.324366,181.504676 234.07527,181.262463 C233.826175,181.020249 233.474813,180.911665 233.131086,180.970676 L217.664892,180.180264 C214.477171,180.017292 213.72132,179.324663 214.206051,182.429272 C214.542897,184.747543 215.339828,187.0047 215.676674,189.351491 Z" id="Path" fill="#000000" opacity="0.1"></path>
            <path d="M218.575778,164.14935 C215.441536,168.655514 212.155704,173.841699 213.196354,179.236806 C213.987084,183.333318 217.109035,186.508115 220.054812,189.478087 C231.829727,201.300622 243.407985,214.434041 247.414897,230.635748 C248.447353,234.822384 248.947193,239.119625 249.836253,243.334937 C251.450489,250.995415 254.343005,258.319979 257.210939,265.599482 L264.897,284.996469 C269.780223,285.116442 274.217078,282.169839 276,277.622746 C274.992126,277.544912 273.676974,276.569942 273.086999,275.75064 C269.809361,271.215801 269.137445,265.382367 268.29755,259.852075 C267.36752,253.740078 266.126115,247.67724 264.880612,241.618498 L259.37418,214.81092 C258.739138,211.718053 258.104095,208.62109 257.276491,205.573285 C254.0726,193.767136 248.000775,182.632815 247.062551,170.425207 C246.923252,168.630935 246.837214,166.660512 245.62039,165.329146 C244.342111,163.924042 242.244423,163.690541 240.34749,163.579935 C232.673719,163.088353 226.05289,162.338692 218.575778,164.14935 Z" id="Path" fill="#3F3D56"></path>
            <path d="M197.457805,276.125326 C196.612549,275.92887 195.748509,275.820086 194.879978,275.800775 C193.192208,275.859298 191.631557,276.693815 190.669251,278.052349 C190.185068,278.811844 189.804686,279.630194 189.537825,280.486483 L188.414688,283.642744 C188.083135,284.567715 187.75987,285.634677 188.253056,286.482567 C188.6199,287.009352 189.148131,287.408523 189.761623,287.622554 C192.480361,288.807166 195.563807,288.872076 198.506342,289.156058 C201.382567,289.431927 204.233926,289.926867 207.072851,290.446149 C208.050933,290.628709 209.024871,290.81127 210.015387,290.908635 C212.228505,291.127707 214.458201,290.908635 216.67132,290.713904 L218.954893,290.498889 C219.719286,290.466618 220.475337,290.330072 221.201167,290.0932 C221.933873,289.849906 222.532908,289.323627 222.858933,288.636776 C223.422574,287.269604 222.212404,285.650905 220.732848,285.366922 C220.131907,285.25333 219.489523,285.306069 218.901016,285.228988 C218.210523,285.113109 217.53696,284.91558 216.895118,284.640739 C213.994027,283.51698 211.02248,282.381051 208.452942,280.612247 C207.740102,280.121363 206.994107,279.435749 207.072851,278.583802 C207.146942,278.218905 207.271013,277.865469 207.441704,277.533067 C207.790114,276.662535 207.801904,275.697445 207.474859,274.819007 C207.333949,274.445773 207.060418,274.052255 206.674987,274.007629 C205.580861,273.877809 205.713482,275.439711 205.55185,276.036074 C205.332196,276.847452 204.934332,276.920476 204.155182,276.847452 C201.917197,276.648665 199.679212,276.539129 197.457805,276.125326 Z" id="Path" fill="#F2F2F2"></path>
            <path d="M262.043506,286.428045 C262.063206,288.010014 262.612325,289.54078 263.604767,290.780336 C263.908188,291.150112 264.287012,291.452254 264.71645,291.666988 C265.362936,291.930687 266.062919,292.040245 266.759985,291.986831 C268.705522,291.944902 270.627924,291.55965 272.436926,290.849163 C273.074225,290.563254 273.729524,290.318475 274.398719,290.116358 C275.240922,289.945692 276.09249,289.824025 276.949051,289.751981 C280.329058,289.270192 283.296272,287.294455 286.561841,286.29444 C287.53754,286.054954 288.493844,285.743694 289.42279,285.363252 C290.714304,284.760005 291.760594,283.743796 292.786449,282.759976 C293.391305,282.22879 293.912097,281.610534 294.331361,280.925941 C294.932161,279.820661 294.968944,278.496755 294.993467,277.245725 C295.01551,277.05009 294.981517,276.85226 294.895377,276.674866 C294.802049,276.54711 294.674692,276.447584 294.527541,276.387413 C293.534383,275.901576 292.357307,276.144494 291.257885,276.33478 C287.285252,277.035195 283.218617,276.905639 279.184679,276.776082 C278.397801,276.883227 277.636498,276.453 277.329149,275.727484 L275.796497,273.298299 C275.359181,272.601932 274.664379,271.80435 273.871487,272.04322 C273.237991,272.233506 272.980506,273.002748 273.005028,273.662676 C273.029551,274.322605 273.233904,274.978485 273.107205,275.622219 C272.924572,276.338368 272.451255,276.947896 271.799343,277.306454 C271.155532,277.653235 270.468456,277.914592 269.755807,278.083794 C267.499745,278.715382 264.875845,279.431992 263.130666,281.07574 C261.847326,282.241749 261.965851,284.853124 262.043506,286.428045 Z" id="Path" fill="#F2F2F2"></path>
            <path d="M261.670327,124.729813 C262.545492,124.058856 263.296551,123.239055 263.88935,122.307687 C264.400089,121.256833 264.720718,120.123308 264.836296,118.959935 L265.474367,114.914903 C265.827947,112.684427 266.24249,110.323467 267.725903,108.623086 C269.209315,106.922705 272.163948,106.315134 273.671746,107.995127 C274.330137,108.725027 274.590242,109.728129 274.752808,110.702688 C275.691982,116.588652 273.925965,122.584885 269.94899,127.013298 C268.124189,129.019503 265.884845,130.613865 263.954377,132.509974 C262.271821,134.141035 260.812793,136.012677 259.26029,137.786456 C255.50591,142.071213 251.205681,145.84145 246.470427,149 C246.527325,145.966227 246.913419,142.71226 246.470427,139.698875 C246.141232,137.521408 245.251184,136.347045 247.352347,134.923944 C252.22932,131.596579 257.150999,128.587272 261.670327,124.729813 Z" id="Path" fill="#FBBEBE"></path>
            <path d="M220.850982,94.4138716 C220.692142,96.5957549 219.792046,98.8268536 218,100.085948 C223.074748,101.874108 228.080259,103.845459 233.016531,106 C232.063488,105.077211 231.774317,103.662268 231.729516,102.333452 C231.603258,98.8596639 232.796598,95.443294 234.53977,92.4493564 C234.81708,92.0695867 234.977152,91.6159715 235,91.1451479 C234.94298,90.1772448 233.802587,89.7302048 232.865836,89.5046342 C229.669883,88.7239358 226.408134,88.2474584 223.123622,88.0814885 C221.718495,88.0363743 220.052707,87.5893343 220.370388,89.3897982 C220.671778,91.0713248 220.97724,92.7118386 220.850982,94.4138716 Z" id="Path" fill="#FBBEBE"></path>
            <circle id="Oval" fill="#FBBEBE" cx="230" cy="84" r="12"></circle>
            <path d="M242.518022,116.12782 C242.095963,115.225818 241.581814,114.369263 240.983664,113.571629 C238.791724,110.444199 236.541883,107.320878 233.729583,104.73181 C231.599264,102.843959 229.293613,101.161069 226.843582,99.70573 C225.521628,98.805275 224.068155,98.112233 222.534145,97.6509138 C221.623867,97.4504559 220.698425,97.3253683 219.767337,97.2769373 L216.628313,97.0221401 C216.353069,96.9858769 216.073728,96.9942042 215.801166,97.0467979 C214.949204,97.2604988 214.560445,98.3125646 214.742417,99.1632585 C214.92439,100.013952 215.569565,100.704371 216.140296,101.349583 C216.280911,107.715403 213.431389,113.994921 213.046766,120.352522 C212.372641,131.469077 219.200741,141.808912 219.746658,152.933686 C219.802939,153.436396 219.749332,153.945254 219.5895,154.425483 C219.498514,154.655622 219.362035,154.865214 219.258641,155.091243 C218.936054,155.789881 218.948461,156.58304 218.890561,157.351541 C218.66523,160.092406 217.457446,162.661886 215.48685,164.592713 C215.99899,165.224427 216.657396,165.723575 217.405832,166.047523 C218.725131,166.618762 220.300847,166.668077 221.702862,167.066712 C225.358853,168.126997 229.10583,169.195501 232.906571,168.969471 C233.378755,167.948446 233.67112,166.854479 233.77094,165.735191 C234.308586,165.402311 234.928946,166.113277 235.011661,166.737941 C235.094376,167.362605 234.974439,168.09001 235.425235,168.54207 C235.87603,168.994129 236.446762,168.924265 236.996814,168.854402 C239.316963,168.562618 241.546124,167.785897 243.820779,167.263974 C246.095434,166.742051 248.527247,166.491363 250.739866,167.239316 C251.186526,166.676297 250.996282,165.842041 250.632337,165.225596 C250.268392,164.609152 249.751425,164.06668 249.544638,163.380372 C249.440579,162.984958 249.395982,162.576419 249.412295,162.16803 C249.412295,158.654294 250.140184,155.103572 249.449516,151.655591 C249.246865,150.644621 248.924278,149.65831 248.717491,148.64323 C248.303918,146.674717 248.365954,144.644558 248.419718,142.634948 C248.473483,140.625338 248.229474,138.451342 248.188117,136.412965 C248.186835,135.570592 248.13158,134.729155 248.022687,133.89376 C247.882072,133.018409 247.609114,132.163605 247.534671,131.280034 C247.311341,129.036175 248.221203,126.808754 248.084723,124.556676 C247.857258,121.137462 243.858001,119.279908 242.518022,116.12782 Z" id="Path" fill="#00242C"></path>
            <path d="M215.344714,115.10444 C212.411678,122.80413 210.978302,130.971212 209.544925,139.080896 L206.230761,158.129223 C205.290366,163.512445 204.345829,168.928468 204.383114,174.389589 C204.383114,175.922967 204.482539,177.485045 204.076553,178.965124 C203.546287,180.908496 202.228907,182.527973 201.230514,184.295047 C199.204711,187.90362 198.52991,192.103721 199.32487,196.156177 C199.664572,197.857653 200.592538,199.788725 202.336617,199.985522 C203.769993,200.14132 205.008662,199.013836 205.845489,197.849453 C207.767705,195.180391 208.720527,191.957837 209.573924,188.784483 C212.321217,178.413872 214.242419,167.845985 215.319858,157.178036 C215.422269,155.827642 215.614632,154.48541 215.895694,153.160094 C216.261564,151.793739 216.7296,150.456203 217.295928,149.158551 C218.563596,146.048063 219.832645,142.937574 221.103075,139.827085 C224.031968,132.639888 226.977432,125.419892 231,118.769787 C227.023002,117.638204 222.884439,116.309823 218.907441,115.190539 C217.759912,114.854344 216.529528,115.055241 215.344714,115.10444 Z" id="Path" fill="#FBBEBE"></path>
            <path d="M222.011524,120.964599 C219.223881,120.379068 216.340828,120.560785 213.49511,120.492136 C213.090977,120.520745 212.688462,120.418529 212.350185,120.20139 C211.773575,119.720852 212.018323,118.820346 212.308703,118.137901 L213.685931,114.907389 C213.911977,114.239585 214.28905,113.629655 214.789372,113.122531 C215.490431,112.51681 216.477721,112.367398 217.406936,112.258369 C220.43103,111.919165 223.542238,111.806097 226.47507,112.601611 C229.407902,113.397124 232.166507,115.206211 233.477362,117.883498 C234.024935,118.998025 234.27798,120.403297 233.552031,121.41687 C232.473479,122.923097 230.055034,124.607001 228.250533,123.783221 C226.08928,122.7858 224.434118,121.465328 222.011524,120.964599 Z" id="Path" fill="#00242C"></path>
            <path d="M236.556791,65.2852422 C234.197714,65.2601661 231.88306,65.9224634 229.899603,67.1900792 C226.076416,63.5950983 220.598411,62.322053 215.564185,63.8586409 C214.836342,59.7140748 211.092203,56.7699504 206.859811,57.0141404 C202.627418,57.2583304 199.252341,60.6132015 199.013432,64.8135449 C198.774523,69.0138883 201.747736,72.7243239 205.925557,73.4395657 C204.459859,78.4074545 205.776317,83.7739172 209.379034,87.517459 C212.981751,91.2610008 218.323389,92.8128887 223.391803,91.5885415 C228.460218,90.3641943 232.485397,86.5496196 233.951094,81.5817306 C234.812591,81.7567165 235.689685,81.8449754 236.569044,81.8451655 C242.327716,81.8451655 247,78.1368126 247,73.5652039 C247,68.9935951 242.307295,65.2852422 236.556791,65.2852422 Z" id="Path" fill="#3F3D56"></path>
            <path d="M238.592864,78.0778509 C237.701042,78.080091 236.81138,77.996492 235.938197,77.8283991 C235.523427,79.2320611 234.869101,80.5652306 234,81.7774123 C234.818925,81.9236484 235.650879,81.9981726 236.484868,82 C241.943294,82 246.424339,78.9298246 247,75 C245.057662,76.872807 242.013699,78.0778509 238.592864,78.0778509 Z" id="Path" fill="#000000" opacity="0.1"></path>
            <path d="M222.080981,88.8367179 C217.420616,88.8299764 213.03917,86.6110681 210.2705,82.855502 C207.50183,79.0999359 206.673552,74.2521072 208.037822,69.7878554 C204.024922,69.0805684 201.098607,65.5883426 201.098414,61.5064571 C201.097573,61.0012097 201.142958,60.4969482 201.233997,60 C199.146551,62.2592648 198.458326,65.4806825 199.439853,68.3979716 C200.42138,71.3152607 202.915739,73.4620253 205.942441,73.9944106 C203.587581,81.740497 207.922402,89.9370524 215.642402,92.3357144 C223.362402,94.7343765 231.566239,90.4336765 234,82.7121052 C231.244801,86.5591002 226.807209,88.8393661 222.080981,88.8367179 L222.080981,88.8367179 Z" id="Path" fill="#000000" opacity="0.1"></path>
            <path d="M274.507958,112.702024 L274.507958,112.702024 L274.50707,114.967349 L274.50707,114.967349 L274.507958,112.702024 Z" id="Rectangle" fill="#3A3768" transform="translate(274.507514, 113.834686) rotate(35.510000) translate(-274.507514, -113.834686) "></path>
            <path d="M268.496263,106.432614 L268.496263,106.432614 L268.496263,106.432614 L268.496263,106.432614 L268.496263,106.432614 Z" id="Rectangle" fill="#3A3768" transform="translate(268.496263, 106.432614) rotate(35.510000) translate(-268.496263, -106.432614) "></path>
            <path d="M267.539599,107.126364 L267.539599,107.126364 L267.539091,108.422588 L267.539091,108.422588 L267.539599,107.126364 Z" id="Rectangle" fill="#3A3768" transform="translate(267.539345, 107.774476) rotate(35.510000) translate(-267.539345, -107.774476) "></path>
            <path d="M266.522121,108.55045 L266.522121,108.55045 L266.521608,109.858941 L266.521608,109.858941 L266.522121,108.55045 Z" id="Rectangle" fill="#3A3768" transform="translate(266.521864, 109.204696) rotate(35.510000) translate(-266.521864, -109.204696) "></path>
            <path d="M265.134868,105.82555 L272.565496,105.822638 C273.05261,105.821756 273.44765,106.216486 273.447841,106.703601 C273.447841,106.703832 273.447841,106.704062 273.44715,106.704292 L273.440518,123.62309 C273.439635,124.109935 273.045017,124.504553 272.558172,124.505436 L265.127544,124.508348 C264.640429,124.50923 264.24539,124.1145 264.245199,123.627385 C264.245199,123.627154 264.245199,123.626924 264.24589,123.626694 L264.252522,106.707895 C264.253404,106.221051 264.648023,105.826432 265.134868,105.82555 Z" id="Rectangle" fill="#3A3768" transform="translate(268.846520, 115.165493) rotate(35.510000) translate(-268.846520, -115.165493) "></path>
            <path d="M265.134868,105.82555 L272.565496,105.822638 C273.05261,105.821756 273.44765,106.216486 273.447841,106.703601 C273.447841,106.703832 273.447841,106.704062 273.44715,106.704292 L273.440518,123.62309 C273.439635,124.109935 273.045017,124.504553 272.558172,124.505436 L265.127544,124.508348 C264.640429,124.50923 264.24539,124.1145 264.245199,123.627385 C264.245199,123.627154 264.245199,123.626924 264.24589,123.626694 L264.252522,106.707895 C264.253404,106.221051 264.648023,105.826432 265.134868,105.82555 Z" id="Rectangle" fill="#000000" opacity="0.1" transform="translate(268.846520, 115.165493) rotate(35.510000) translate(-268.846520, -115.165493) "></path>
            <path d="M264.755744,105.063464 L272.186372,105.060552 C272.673487,105.05967 273.068527,105.4544 273.068718,105.941515 C273.068718,105.941746 273.068718,105.941976 273.068027,105.942206 L273.061395,122.861004 C273.060512,123.347849 272.665894,123.742468 272.179049,123.74335 L264.748421,123.746262 C264.261306,123.747144 263.866267,123.352414 263.866076,122.865299 C263.866076,122.865068 263.866076,122.864838 263.866767,122.864608 L263.873399,105.94581 C263.874281,105.458965 264.2689,105.064346 264.755744,105.063464 Z" id="Rectangle" fill="#3A3768" transform="translate(268.467397, 114.403407) rotate(35.510000) translate(-268.467397, -114.403407) "></path>
            <path d="M275.691838,109.072011 L274.851183,108.442718 L274.778782,108.5476 C274.592493,108.814843 274.236557,108.879811 273.974327,108.694435 L271.287446,106.693285 C271.022113,106.495098 270.960903,106.110167 271.150689,105.833251 L271.22309,105.728369 L270.418635,105.141029 C270.26411,105.024825 270.071556,104.977643 269.883587,105.009925 C269.695618,105.042207 269.527733,105.151291 269.417088,105.313036 L260.133676,118.884781 C259.903949,119.221061 259.977617,119.687704 260.298589,119.929407 L265.583859,123.860388 C265.738877,123.976166 265.931768,124.022671 266.119775,123.989595 C266.307783,123.956519 266.475376,123.846594 266.585406,123.684186 L275.868819,110.116637 C275.979016,109.953921 276.02231,109.752026 275.989074,109.55585 C275.955838,109.359674 275.848827,109.185482 275.691838,109.072011 L275.691838,109.072011 Z" id="Path" fill="#A3B800"></path>
            <path d="M272.652101,107.223611 L273.936404,107.223108 L273.936404,107.223108 L272.652101,107.223611 L272.652101,107.223611 Z" id="Rectangle" fill="#E6E8EC" transform="translate(273.294253, 107.223359) rotate(35.510000) translate(-273.294253, -107.223359) "></path>
            <ellipse id="Oval" fill="#E6E8EC" cx="274" cy="108" rx="1" ry="1"></ellipse>
            <path d="M274.5,5 C259.312169,5 247,17.3144421 247,32.5050764 C247,47.6944469 275.813433,98 275.813433,98 C275.813433,98 302,47.7149731 302,32.5050764 C302,17.3144421 289.687831,5 274.5,5 L274.5,5 Z M274.5,50.8472676 C266.54339,50.8472676 260.093284,44.3959703 260.093284,36.4378918 C260.093284,28.4798132 266.54339,22.0285159 274.5,22.0285159 C282.45661,22.0285159 288.906726,28.4798132 288.906726,36.4378918 C288.911075,40.2619628 287.395022,43.9308426 284.692648,46.6360257 C281.990274,49.3412089 278.323368,50.8606756 274.5,50.8595839 L274.5,50.8472676 Z" id="Shape" fill="#A3B800"></path>
            <path d="M274.5,5 C259.312169,5 247,17.3144421 247,32.5050764 C247,47.6944469 275.813433,98 275.813433,98 C275.813433,98 302,47.7149731 302,32.5050764 C302,17.3144421 289.687831,5 274.5,5 L274.5,5 Z M274.5,50.8472676 C266.54339,50.8472676 260.093284,44.3959703 260.093284,36.4378918 C260.093284,28.4798132 266.54339,22.0285159 274.5,22.0285159 C282.45661,22.0285159 288.906726,28.4798132 288.906726,36.4378918 C288.911075,40.2619628 287.395022,43.9308426 284.692648,46.6360257 C281.990274,49.3412089 278.323368,50.8606756 274.5,50.8595839 L274.5,50.8472676 Z" id="Shape" fill="#000000" opacity="0.1"></path>
            <path d="M274.5,0 C259.312169,0 247,12.2232779 247,27.3014553 C247,42.3783784 275.813433,98 275.813433,98 C275.813433,98 302,42.3865281 302,27.3055301 C302.001088,20.064028 299.104256,13.1187491 293.946887,7.99785174 C288.789519,2.87695434 281.794164,0 274.5,0 L274.5,0 Z M274.5,45.5078586 C266.54339,45.5078586 260.093283,39.1043205 260.093283,31.2051559 C260.093283,23.3059913 266.54339,16.9024532 274.5,16.9024532 C282.456609,16.9024532 288.906716,23.3059913 288.906716,31.2051559 C288.906716,34.9984685 287.38887,38.6364169 284.687086,41.318694 C281.985303,44.0009711 278.320898,45.5078586 274.5,45.5078586 Z" id="Shape" fill="#A3B800"></path>
        </g>
    </g>
</svg>