<?xml version="1.0" encoding="UTF-8"?>
<svg width="1024px" height="600px" viewBox="0 0 1024 600" version="1.1" xmlns="http://www.w3.org/2000/svg" xmlns:xlink="http://www.w3.org/1999/xlink">
    <!-- Generator: Sketch 58 (84663) - https://sketch.com -->
    <title>knowhere hero</title>
    <desc>Created with Sketch.</desc>
    <g id="knowhere-hero" stroke="none" stroke-width="1" fill="none" fill-rule="evenodd">
        <g id="Group" transform="translate(298.000000, 92.000000)" fill-rule="nonzero">
            <path d="M12.0117188,0 L12.0117188,68.2128906 L0,68.2128906 L0,0 L12.0117188,0 Z M45.1171875,22.6074219 L26.6113281,45.1171875 L47.4121094,68.2128906 L32.1777344,68.2128906 L12.2070312,45.1171875 L31.0058594,22.6074219 L45.1171875,22.6074219 Z M78.2226562,21.7285156 C83.1054932,21.7285156 87.0035662,23.3316897 89.9169922,26.5380859 C92.8304182,29.7444822 94.2871094,33.9680728 94.2871094,39.2089844 L94.2871094,68.2128906 L82.3242188,68.2128906 L82.3242188,40.4296875 C82.3242188,37.4674331 81.616218,35.1237065 80.2001953,33.3984375 C78.7841726,31.6731685 76.855481,30.8105469 74.4140625,30.8105469 C72.5585845,30.8105469 70.8170654,31.3557888 69.1894531,32.4462891 C67.5618408,33.5367893 65.7714941,35.3515498 63.8183594,37.890625 L63.8183594,68.2128906 L51.8066406,68.2128906 L51.8066406,22.6074219 L63.8183594,22.6074219 L63.8183594,29.0039062 C66.0319121,26.3997266 68.3023972,24.5361384 70.6298828,23.4130859 C72.9573684,22.2900334 75.4882676,21.7285156 78.2226562,21.7285156 Z M128.515625,21.7285156 C133.268253,21.7285156 137.581361,22.7213442 141.455078,24.7070312 C145.328795,26.6927183 148.323557,29.4758936 150.439453,33.0566406 C152.555349,36.6373877 153.613281,40.6900815 153.613281,45.2148438 C153.613281,49.9349194 152.596039,54.0689927 150.561523,57.6171875 C148.527008,61.1653823 145.532246,63.9648335 141.577148,66.015625 C137.622051,68.0664165 133.268253,69.0917969 128.515625,69.0917969 C123.730445,69.0917969 119.384785,68.0664165 115.478516,66.015625 C111.572246,63.9648335 108.601898,61.1653823 106.567383,57.6171875 C104.532867,54.0689927 103.515625,49.9349194 103.515625,45.2148438 C103.515625,40.6249771 104.589833,36.5478694 106.738281,32.9833984 C108.886729,29.4189275 111.881491,26.6520281 115.722656,24.6826172 C119.563821,22.7132063 123.828102,21.7285156 128.515625,21.7285156 Z M116.113281,45.2148438 C116.113281,49.7721582 117.228179,53.4098171 119.458008,56.1279297 C121.687837,58.8460422 124.67446,60.2050781 128.417969,60.2050781 C132.324238,60.2050781 135.400379,58.9030078 137.646484,56.2988281 C139.892589,53.6946484 141.015625,49.9674722 141.015625,45.1171875 C141.015625,40.4947686 139.884451,36.9222131 137.62207,34.3994141 C135.359689,31.876615 132.291686,30.6152344 128.417969,30.6152344 C124.772117,30.6152344 121.809907,31.9498564 119.53125,34.6191406 C117.252593,37.2884248 116.113281,40.8202905 116.113281,45.2148438 Z M169.726562,22.6074219 L180.322266,48.9257812 L191.113281,22.6074219 L198.925781,22.6074219 L209.619141,48.9257812 L220.214844,22.6074219 L232.714844,22.6074219 L212.402344,69.0917969 L207.324219,69.0917969 L195.019531,41.2109375 L182.714844,69.0917969 L177.734375,69.0917969 L157.226562,22.6074219 L169.726562,22.6074219 Z M250.732422,0 L250.732422,29.0039062 L251.025391,29.0039062 C254.899108,24.1536216 259.570285,21.7285156 265.039062,21.7285156 C269.889347,21.7285156 273.795558,23.3235518 276.757812,26.5136719 C279.720067,29.703792 281.201172,33.870417 281.201172,39.0136719 L281.201172,68.2128906 L269.238281,68.2128906 L269.238281,41.3085938 C269.238281,38.2486826 268.514005,35.8154387 267.06543,34.0087891 C265.616855,32.2021394 263.639335,31.2988281 261.132812,31.2988281 C259.309887,31.2988281 257.592781,31.8196563 255.981445,32.8613281 C254.370109,33.903 252.620452,35.6282432 250.732422,38.0371094 L250.732422,68.2128906 L238.720703,68.2128906 L238.720703,0 L250.732422,0 Z M313.232422,21.7285156 C319.938185,21.7285156 325.244121,23.8769316 329.150391,28.1738281 C333.05666,32.4707246 335.009766,38.4114204 335.009766,45.9960938 L335.009766,47.8027344 L302.734375,47.8027344 C303.222659,51.8717651 304.744453,55.0048718 307.299805,57.2021484 C309.855156,59.399425 313.362608,60.4980469 317.822266,60.4980469 C320.686863,60.4980469 323.445625,60.0016326 326.098633,59.0087891 C328.751641,58.0159456 331.494126,56.5104268 334.326172,54.4921875 L334.326172,63.4277344 C328.987604,67.2037949 322.509804,69.0917969 314.892578,69.0917969 C307.698532,69.0917969 301.822939,66.927105 297.265625,62.5976562 C292.708311,58.2682075 290.429688,52.5065464 290.429688,45.3125 C290.429688,38.3788716 292.537414,32.7148657 296.75293,28.3203125 C300.968446,23.9257593 306.461555,21.7285156 313.232422,21.7285156 Z M323.730469,40.5273438 C323.404946,37.2070146 322.395842,34.611012 320.703125,32.7392578 C319.010408,30.8675037 316.682958,29.9316406 313.720703,29.9316406 C310.693344,29.9316406 308.2601,30.826814 306.420898,32.6171875 C304.581697,34.407561 303.417971,37.0442534 302.929688,40.5273438 L323.730469,40.5273438 Z M406.640625,21.7285156 C413.346388,21.7285156 418.652324,23.8769316 422.558594,28.1738281 C426.464863,32.4707246 428.417969,38.4114204 428.417969,45.9960938 L428.417969,47.8027344 L396.142578,47.8027344 C396.630862,51.8717651 398.152656,55.0048718 400.708008,57.2021484 C403.263359,59.399425 406.770811,60.4980469 411.230469,60.4980469 C414.095066,60.4980469 416.853828,60.0016326 419.506836,59.0087891 C422.159844,58.0159456 424.90233,56.5104268 427.734375,54.4921875 L427.734375,63.4277344 C422.395807,67.2037949 415.918007,69.0917969 408.300781,69.0917969 C401.106735,69.0917969 395.231143,66.927105 390.673828,62.5976562 C386.116514,58.2682075 383.837891,52.5065464 383.837891,45.3125 C383.837891,38.3788716 385.945617,32.7148657 390.161133,28.3203125 C394.376649,23.9257593 399.869758,21.7285156 406.640625,21.7285156 Z M370.507812,21.7285156 C372.102873,21.7285156 373.673495,22.086585 375.219727,22.8027344 C376.765958,23.5188838 378.564443,24.7232988 380.615234,26.4160156 L376.318359,36.9140625 C372.835269,34.3098828 370.035818,33.0078125 367.919922,33.0078125 C366.064444,33.0078125 364.233407,33.6995374 362.426758,35.0830078 C360.620108,36.4664783 359.171555,38.2975146 358.081055,40.5761719 C356.990554,42.8548291 356.445312,45.1334521 356.445312,47.4121094 L356.445312,68.2128906 L344.433594,68.2128906 L344.433594,22.6074219 L356.445312,22.6074219 L356.445312,34.2285156 L356.640625,34.2285156 C358.821625,29.8339624 361.018869,26.6520281 363.232422,24.6826172 C365.445975,22.7132063 367.871081,21.7285156 370.507812,21.7285156 Z M407.128906,29.9316406 C404.101547,29.9316406 401.668303,30.826814 399.829102,32.6171875 C397.9899,34.407561 396.826174,37.0442534 396.337891,40.5273438 L396.337891,40.5273438 L417.138672,40.5273438 C416.813149,37.2070146 415.804045,34.611012 414.111328,32.7392578 C412.418611,30.8675037 410.091161,29.9316406 407.128906,29.9316406 Z" id="knowhere" fill="#00371A"></path>
            <path d="M167.974121,84.7954102 L167.974121,87.9067383 L162.133789,87.9067383 L162.133789,91.875 L162.476562,91.8486328 L162.753418,91.8486328 C163.878424,91.8486328 164.897945,92.0925269 165.812012,92.5803223 C166.726079,93.0681177 167.440183,93.7514604 167.954346,94.6303711 C168.468508,95.5092817 168.725586,96.4980414 168.725586,97.5966797 C168.725586,99.3281337 168.143316,100.736567 166.97876,101.822021 C165.814203,102.907476 164.282724,103.450195 162.384277,103.450195 C160.696769,103.450195 159.202643,103.103031 157.901855,102.408691 L157.901855,99.3237305 C159.272956,100.167485 160.586908,100.589355 161.84375,100.589355 C162.82813,100.589355 163.649899,100.3147 164.309082,99.7653809 C164.968265,99.2160617 165.297852,98.5195355 165.297852,97.6757812 C165.297852,96.7265578 164.919926,95.9860866 164.164062,95.4543457 C163.408199,94.9226048 162.379889,94.6567383 161.079102,94.6567383 C160.463864,94.6567383 159.782719,94.7358391 159.035645,94.894043 L159.035645,84.7954102 L167.974121,84.7954102 Z M181.94873,84.5581055 L181.94873,95.3027344 L183.517578,95.3027344 L183.517578,98.0053711 L181.94873,98.0053711 L181.94873,103.212891 L178.57373,103.212891 L178.57373,98.0053711 L171.045898,98.0053711 L171.045898,95.8432617 L180.010742,84.5581055 L181.94873,84.5581055 Z M178.494629,90.1479492 L174.420898,95.3027344 L178.57373,95.3027344 L178.57373,90.1479492 L178.494629,90.1479492 Z M188.158203,99.402832 C188.694339,99.402832 189.166746,99.600584 189.575439,99.9960938 C189.984133,100.391604 190.188477,100.870603 190.188477,101.433105 C190.188477,101.97803 189.990725,102.450437 189.595215,102.850342 C189.199705,103.250246 188.720706,103.450195 188.158203,103.450195 C187.604489,103.450195 187.127688,103.250246 186.727783,102.850342 C186.327879,102.450437 186.12793,101.97803 186.12793,101.433105 C186.12793,100.870603 186.330076,100.391604 186.734375,99.9960938 C187.138674,99.600584 187.613279,99.402832 188.158203,99.402832 Z M198.533691,84.5581055 C199.693853,84.5581055 200.735347,84.8305637 201.658203,85.3754883 C202.581059,85.9204129 203.292966,86.6872509 203.793945,87.6760254 C204.294924,88.6647999 204.54541,89.8007748 204.54541,91.0839844 C204.54541,93.0175878 203.958746,95.1049693 202.7854,97.3461914 C201.612055,99.5874135 200.049814,101.622061 198.098633,103.450195 L194.077637,103.450195 C195.12354,102.544917 196.230951,101.312264 197.399902,99.7521973 C198.568854,98.1921309 199.395017,96.8188536 199.878418,95.6323242 C199.219235,95.9135756 198.516117,96.0541992 197.769043,96.0541992 C196.310051,96.0541992 195.103765,95.5334525 194.150146,94.4919434 C193.196528,93.4504342 192.719727,92.1167073 192.719727,90.4907227 C192.719727,89.4184517 192.970212,88.4274948 193.471191,87.5178223 C193.97217,86.6081497 194.670894,85.8874538 195.567383,85.3557129 C196.463872,84.823972 197.452631,84.5581055 198.533691,84.5581055 Z M196.068359,90.4379883 C196.068359,91.2553752 196.301267,91.9277317 196.76709,92.4550781 C197.232912,92.9824245 197.848141,93.2460938 198.612793,93.2460938 C199.3335,93.2460938 199.93115,92.9802273 200.405762,92.4484863 C200.880373,91.9167454 201.117676,91.281742 201.117676,90.543457 C201.117676,89.6645464 200.878176,88.9504422 200.39917,88.401123 C199.920164,87.8518039 199.298344,87.5771484 198.533691,87.5771484 C197.795406,87.5771484 197.199953,87.8408177 196.747314,88.3681641 C196.294675,88.8955104 196.068359,89.585445 196.068359,90.4379883 Z M219.337402,84.7954102 L219.337402,84.9008789 L211.915039,103.450195 L208.803711,102.290039 L214.617676,87.9594727 L207.274414,87.9594727 L207.274414,84.7954102 L219.337402,84.7954102 Z M227.14209,84.5581055 C228.785653,84.5581055 230.128169,85.0371046 231.169678,85.9951172 C232.211187,86.9531298 232.731934,88.1923752 232.731934,89.7128906 C232.731934,91.3740317 231.976082,92.6791945 230.464355,93.628418 C231.413579,94.129397 232.099119,94.7490197 232.520996,95.4873047 C232.942873,96.2255896 233.153809,97.0913036 233.153809,98.0844727 C233.153809,99.104009 232.894534,100.024654 232.375977,100.846436 C231.857419,101.668217 231.136723,102.307615 230.213867,102.764648 C229.291011,103.221682 228.267095,103.450195 227.14209,103.450195 C225.384269,103.450195 223.936285,102.949224 222.798096,101.947266 C221.659906,100.945307 221.09082,99.6577227 221.09082,98.0844727 C221.09082,97.038569 221.314939,96.1530798 221.763184,95.4279785 C222.211428,94.7028772 222.888179,94.1030297 223.793457,93.628418 C222.281731,92.6704054 221.525879,91.3564537 221.525879,89.6865234 C221.525879,88.1747971 222.05102,86.9421434 223.101318,85.9885254 C224.151617,85.0349073 225.498527,84.5581055 227.14209,84.5581055 Z M224.900879,89.765625 C224.900879,90.5566446 225.111814,91.2048315 225.533691,91.7102051 C225.955569,92.2155787 226.491696,92.4682617 227.14209,92.4682617 C227.774906,92.4682617 228.302244,92.2067897 228.724121,91.6838379 C229.145998,91.1608861 229.356934,90.5214882 229.356934,89.765625 C229.356934,88.9658163 229.156984,88.3330101 228.75708,87.8671875 C228.357176,87.4013649 227.818851,87.168457 227.14209,87.168457 C226.45654,87.168457 225.911623,87.3969704 225.507324,87.8540039 C225.103025,88.3110374 224.900879,88.9482381 224.900879,89.765625 Z M224.518555,97.9262695 C224.518555,98.8315475 224.755857,99.5434544 225.230469,100.062012 C225.70508,100.580569 226.342281,100.839844 227.14209,100.839844 C227.941899,100.839844 228.572507,100.578372 229.033936,100.05542 C229.495364,99.5324681 229.726074,98.8403363 229.726074,97.9790039 C229.726074,97.1176715 229.488772,96.410159 229.01416,95.8564453 C228.539548,95.3027316 227.92432,95.0258789 227.168457,95.0258789 C226.377437,95.0258789 225.73804,95.2873509 225.250244,95.8103027 C224.762449,96.3332546 224.518555,97.0385698 224.518555,97.9262695 Z M240.233398,84.5581055 C241.938485,84.5581055 243.31396,84.9821735 244.359863,85.8303223 C245.405767,86.678471 245.928711,87.8012625 245.928711,89.1987305 C245.928711,91.0883884 245.071786,92.4946243 243.35791,93.4174805 C244.34229,93.7690447 245.084958,94.3425253 245.585938,95.1379395 C246.086917,95.9333536 246.337402,96.8803656 246.337402,97.9790039 C246.337402,99.6137777 245.766119,100.934321 244.623535,101.940674 C243.480951,102.947027 241.978037,103.450195 240.114746,103.450195 C238.646965,103.450195 237.236335,103.103031 235.882812,102.408691 L235.882812,99.1655273 C236.629887,99.6665064 237.315427,100.029052 237.939453,100.253174 C238.56348,100.477296 239.20068,100.589355 239.851074,100.589355 C240.712407,100.589355 241.417722,100.345461 241.967041,99.857666 C242.51636,99.3698706 242.791016,98.7348672 242.791016,97.9526367 C242.791016,97.0913043 242.487796,96.403567 241.881348,95.8894043 C241.274899,95.3752416 240.444341,95.1181641 239.389648,95.1181641 L239.178711,95.1181641 L239.178711,92.2573242 L239.336914,92.2573242 C240.321294,92.2573242 241.090329,92.0397971 241.644043,91.6047363 C242.197757,91.1696756 242.474609,90.5830115 242.474609,89.8447266 C242.474609,89.1152307 242.206546,88.5285667 241.67041,88.0847168 C241.134275,87.6408669 240.448735,87.4189453 239.61377,87.4189453 C238.576655,87.4189453 237.486822,87.695798 236.344238,88.2495117 L236.344238,85.3623047 C237.495611,84.8261692 238.791985,84.5581055 240.233398,84.5581055 Z M253.838867,83.5561523 C254.919927,83.5561523 255.847164,83.9450645 256.620605,84.7229004 C257.394047,85.5007363 257.780762,86.4345649 257.780762,87.5244141 C257.780762,88.596685 257.398441,89.5217246 256.633789,90.2995605 C255.869137,91.0773965 254.937505,91.4663086 253.838867,91.4663086 C252.757807,91.4663086 251.823979,91.0839882 251.037354,90.3193359 C250.250728,89.5546837 249.857422,88.6230524 249.857422,87.5244141 C249.857422,86.4169867 250.246334,85.4787636 251.02417,84.7097168 C251.802006,83.94067 252.740229,83.5561523 253.838867,83.5561523 Z M251.782227,87.5244141 C251.782227,88.0869169 251.977781,88.565916 252.368896,88.9614258 C252.760012,89.3569356 253.249997,89.5546875 253.838867,89.5546875 C254.410159,89.5546875 254.889158,89.3591328 255.275879,88.9680176 C255.6626,88.5769023 255.855957,88.095706 255.855957,87.5244141 C255.855957,86.944333 255.660402,86.4565449 255.269287,86.0610352 C254.878172,85.6655254 254.40137,85.4677734 253.838867,85.4677734 C253.285153,85.4677734 252.803957,85.6699199 252.395264,86.0742188 C251.98657,86.4785176 251.782227,86.9619113 251.782227,87.5244141 Z M271.808105,84.7954102 L282.750488,97.6494141 L282.750488,84.7954102 L286.230957,84.7954102 L286.230957,103.212891 L283.172363,103.212891 L272.164062,90.1479492 L272.164062,103.212891 L268.683594,103.212891 L268.683594,84.7954102 L271.808105,84.7954102 Z M291.491211,99.6005859 C292.194339,99.6005859 292.756834,99.8576634 293.178711,100.371826 C293.600588,100.885989 293.811523,101.582515 293.811523,102.461426 C293.811523,103.612799 293.429203,104.634517 292.664551,105.526611 C291.899899,106.418706 290.9419,106.961425 289.790527,107.154785 L289.790527,106.456055 C290.634282,105.744137 291.056152,104.8169 291.056152,103.674316 L291.056152,103.476562 L291.029785,103.265625 C290.036616,103.081054 289.540039,102.479009 289.540039,101.459473 C289.540039,100.940915 289.726805,100.501467 290.100342,100.141113 C290.473879,99.7807599 290.937497,99.6005859 291.491211,99.6005859 Z M311.200684,84.7954102 L311.200684,103.212891 L307.825684,103.212891 L307.825684,84.7954102 L311.200684,84.7954102 Z M319.967773,99.402832 C320.503909,99.402832 320.976316,99.600584 321.38501,99.9960938 C321.793703,100.391604 321.998047,100.870603 321.998047,101.433105 C321.998047,101.97803 321.800295,102.450437 321.404785,102.850342 C321.009275,103.250246 320.530276,103.450195 319.967773,103.450195 C319.41406,103.450195 318.937258,103.250246 318.537354,102.850342 C318.137449,102.450437 317.9375,101.97803 317.9375,101.433105 C317.9375,100.870603 318.139646,100.391604 318.543945,99.9960938 C318.948244,99.600584 319.422849,99.402832 319.967773,99.402832 Z M334.95752,84.5581055 C333.97314,85.3754924 332.885504,86.5839764 331.69458,88.1835938 C330.503656,89.7832111 329.653323,91.1850526 329.143555,92.3891602 C329.829105,92.0991196 330.532223,91.9541016 331.25293,91.9541016 C332.202153,91.9541016 333.06567,92.1936011 333.843506,92.6726074 C334.621342,93.1516137 335.225584,93.8151813 335.65625,94.6633301 C336.086916,95.5114789 336.302246,96.4540964 336.302246,97.4912109 C336.302246,98.5898492 336.047366,99.5961868 335.537598,100.510254 C335.027829,101.424321 334.324712,102.14282 333.428223,102.665771 C332.531734,103.188723 331.556158,103.450195 330.501465,103.450195 C328.708487,103.450195 327.256109,102.845953 326.144287,101.637451 C325.032465,100.428949 324.476562,98.8579198 324.476562,96.9243164 C324.476562,94.9995021 325.054438,92.9384875 326.210205,90.7412109 C327.365973,88.5439343 328.941396,86.4829198 330.936523,84.5581055 L334.95752,84.5581055 Z M327.904297,97.4912109 C327.904297,98.3437543 328.143796,99.0468722 328.622803,99.6005859 C329.101809,100.1543 329.719235,100.431152 330.475098,100.431152 C331.213383,100.431152 331.811033,100.16968 332.268066,99.6467285 C332.7251,99.1237767 332.953613,98.4316449 332.953613,97.5703125 C332.953613,96.7617147 332.718508,96.0915554 332.248291,95.5598145 C331.778074,95.0280735 331.169437,94.762207 330.422363,94.762207 C329.701657,94.762207 329.101809,95.023679 328.622803,95.5466309 C328.143796,96.0695827 327.904297,96.7177696 327.904297,97.4912109 Z M346.348145,84.7954102 L346.348145,103.212891 L342.973145,103.212891 L342.973145,84.7954102 L346.348145,84.7954102 Z M365.398438,84.7954102 L365.398438,84.9008789 L357.976074,103.450195 L354.864746,102.290039 L360.678711,87.9594727 L353.335449,87.9594727 L353.335449,84.7954102 L365.398438,84.7954102 Z M373.203125,84.5581055 C374.846688,84.5581055 376.189204,85.0371046 377.230713,85.9951172 C378.272222,86.9531298 378.792969,88.1923752 378.792969,89.7128906 C378.792969,91.3740317 378.037117,92.6791945 376.525391,93.628418 C377.474614,94.129397 378.160154,94.7490197 378.582031,95.4873047 C379.003908,96.2255896 379.214844,97.0913036 379.214844,98.0844727 C379.214844,99.104009 378.955569,100.024654 378.437012,100.846436 C377.918454,101.668217 377.197759,102.307615 376.274902,102.764648 C375.352046,103.221682 374.328131,103.450195 373.203125,103.450195 C371.445304,103.450195 369.99732,102.949224 368.859131,101.947266 C367.720942,100.945307 367.151855,99.6577227 367.151855,98.0844727 C367.151855,97.038569 367.375974,96.1530798 367.824219,95.4279785 C368.272463,94.7028772 368.949214,94.1030297 369.854492,93.628418 C368.342766,92.6704054 367.586914,91.3564537 367.586914,89.6865234 C367.586914,88.1747971 368.112055,86.9421434 369.162354,85.9885254 C370.212652,85.0349073 371.559562,84.5581055 373.203125,84.5581055 Z M370.961914,89.765625 C370.961914,90.5566446 371.172849,91.2048315 371.594727,91.7102051 C372.016604,92.2155787 372.552731,92.4682617 373.203125,92.4682617 C373.835941,92.4682617 374.363279,92.2067897 374.785156,91.6838379 C375.207033,91.1608861 375.417969,90.5214882 375.417969,89.765625 C375.417969,88.9658163 375.21802,88.3330101 374.818115,87.8671875 C374.418211,87.4013649 373.879886,87.168457 373.203125,87.168457 C372.517575,87.168457 371.972658,87.3969704 371.568359,87.8540039 C371.16406,88.3110374 370.961914,88.9482381 370.961914,89.765625 Z M370.57959,97.9262695 C370.57959,98.8315475 370.816892,99.5434544 371.291504,100.062012 C371.766116,100.580569 372.403316,100.839844 373.203125,100.839844 C374.002934,100.839844 374.633543,100.578372 375.094971,100.05542 C375.556399,99.5324681 375.787109,98.8403363 375.787109,97.9790039 C375.787109,97.1176715 375.549807,96.410159 375.075195,95.8564453 C374.600584,95.3027316 373.985355,95.0258789 373.229492,95.0258789 C372.438473,95.0258789 371.799075,95.2873509 371.311279,95.8103027 C370.823484,96.3332546 370.57959,97.0385698 370.57959,97.9262695 Z M385.648438,83.5561523 C386.729498,83.5561523 387.656734,83.9450645 388.430176,84.7229004 C389.203617,85.5007363 389.590332,86.4345649 389.590332,87.5244141 C389.590332,88.596685 389.208012,89.5217246 388.443359,90.2995605 C387.678707,91.0773965 386.747076,91.4663086 385.648438,91.4663086 C384.567377,91.4663086 383.633549,91.0839882 382.846924,90.3193359 C382.060299,89.5546837 381.666992,88.6230524 381.666992,87.5244141 C381.666992,86.4169867 382.055904,85.4787636 382.83374,84.7097168 C383.611576,83.94067 384.549799,83.5561523 385.648438,83.5561523 Z M383.591797,87.5244141 C383.591797,88.0869169 383.787352,88.565916 384.178467,88.9614258 C384.569582,89.3569356 385.059567,89.5546875 385.648438,89.5546875 C386.219729,89.5546875 386.698729,89.3591328 387.085449,88.9680176 C387.47217,88.5769023 387.665527,88.095706 387.665527,87.5244141 C387.665527,86.944333 387.469973,86.4565449 387.078857,86.0610352 C386.687742,85.6655254 386.21094,85.4677734 385.648438,85.4677734 C385.094724,85.4677734 384.613527,85.6699199 384.204834,86.0742188 C383.796141,86.4785176 383.591797,86.9619113 383.591797,87.5244141 Z M402.246582,84.7954102 L406.834473,96.159668 L411.659668,84.7954102 L414.665527,84.7954102 L419.51709,96.1992188 L424.091797,84.7954102 L427.730469,84.7954102 L420.149902,103.450195 L418.950195,103.450195 L413.149414,89.7919922 L407.322266,103.450195 L406.162109,103.450195 L398.568359,84.7954102 L402.246582,84.7954102 Z" id="54.9783°N,1.6178°W" fill="#A3B800"></path>
        </g>
        <g id="undraw_directions_x53j-2" transform="translate(329.000000, 272.000000)" fill-rule="nonzero">
            <path d="M146.0025,32.655 C117.965555,5.9325191 75.5612367,1.15749009 42.2835,20.9755 C75.5265,32.8755 112.2065,33.313 146.0025,32.655 Z" id="Path" fill="#A3B800" opacity="0.1"></path>
            <path d="M338.674,225.918 L302.372,163.0405 C302.166341,162.680701 301.783679,162.458664 301.36925,162.458664 C300.954821,162.458664 300.572159,162.680701 300.3665,163.0405 L264.0645,225.918 C263.84901,226.276484 263.844169,226.723458 264.051844,227.086525 C264.259518,227.449593 264.647253,227.672013 265.0655,227.668 L275.8945,227.668 C276.533524,227.669922 277.051078,228.187476 277.053,228.8265 L277.053,242.2455 C277.052997,242.883958 277.569545,243.402071 278.208,243.404 L292.3375,243.404 C292.977322,243.404 293.496,242.885322 293.496,242.2455 L293.496,235.76 C293.496,235.122111 294.013111,234.605 294.651,234.605 L308.084,234.605 C308.722458,234.604997 309.240571,235.121545 309.2425,235.76 L309.2425,242.2455 C309.2425,242.885322 309.761178,243.404 310.401,243.404 L324.527,243.404 C325.166822,243.404 325.6855,242.885322 325.6855,242.2455 L325.6855,228.8125 C325.6855,228.172678 326.204178,227.654 326.844,227.654 L337.673,227.654 C338.085942,227.652825 338.467041,227.431934 338.673315,227.0742 C338.879589,226.716466 338.87985,226.275978 338.674,225.918 L338.674,225.918 Z M288.05,232.876 C287.83477,233.097467 287.539813,233.223517 287.231,233.226 L282.1455,233.226 C281.505678,233.226 280.987,232.707322 280.987,232.0675 C280.987,231.427678 281.505678,230.909 282.1455,230.909 L287.2415,230.909 C287.709956,230.909148 288.132218,231.191406 288.311469,231.624211 C288.490719,232.057016 288.391674,232.555178 288.0605,232.8865 L288.05,232.876 Z M321.398,232.876 C321.18277,233.097467 320.887813,233.223517 320.579,233.226 L315.497,233.226 C314.857178,233.226 314.3385,232.707322 314.3385,232.0675 C314.3385,231.427678 314.857178,230.909 315.497,230.909 L320.6,230.909 C321.068456,230.909148 321.490718,231.191406 321.669969,231.624211 C321.849219,232.057016 321.750174,232.555178 321.419,232.8865 L321.398,232.876 Z" id="Shape" fill="#A3B800" opacity="0.1"></path>
            <path d="M114.2925,226.471 L77.9905,163.5935 C77.7834131,163.235586 77.4012564,163.015185 76.98775,163.015185 C76.5742436,163.015185 76.1920869,163.235586 75.985,163.5935 L44.6285,217.903 C48.5459597,222.839844 52.9410951,227.378006 57.75,231.4515 L62.86,231.4515 C63.4998219,231.4515 64.0185,231.970178 64.0185,232.61 C64.0185,233.249822 63.4998219,233.7685 62.86,233.7685 L60.704,233.7685 C63.3446636,235.754287 66.1555891,237.502917 69.104,238.994 L69.104,236.3165 C69.104,235.676678 69.6226781,235.158 70.2625,235.158 L83.6955,235.158 C84.3339546,235.159929 84.8505029,235.678042 84.8505,236.3165 L84.8505,242.7985 C84.8499021,242.966732 84.8869754,243.132964 84.959,243.285 C85.1483761,243.694271 85.5580393,243.957009 86.009,243.957009 L100.1385,243.957009 C100.502232,243.95844 100.844579,243.785314 101.059,243.4915 C101.214527,243.29164 101.297246,243.044717 101.2935,242.7915 L101.2935,229.369 C101.2935,228.729178 101.812178,228.2105 102.452,228.2105 L113.281,228.2105 C113.6969,228.213818 114.082663,227.993938 114.291734,227.634393 C114.500806,227.274848 114.501098,226.83082 114.2925,226.471 L114.2925,226.471 Z M90.3,231.791 C90.5152302,231.569533 90.8101871,231.443483 91.119,231.441 L96.215,231.441 C96.8548219,231.441 97.3735,231.959678 97.3735,232.5995 C97.3735,233.239322 96.8548219,233.758 96.215,233.758 L91.1155,233.758 C90.6470443,233.757852 90.2247815,233.475594 90.0455313,233.042789 C89.8662811,232.609984 89.9653259,232.111822 90.2965,231.7805 L90.3,231.791 Z M67.4975,208.523 C66.8576781,208.523 66.339,208.004322 66.339,207.3645 L66.339,198.5655 C66.339,197.925678 66.8576781,197.407 67.4975,197.407 L86.485,197.407 C87.1234546,197.408929 87.64,197.927042 87.64,198.5655 L87.64,207.3645 C87.64,208.002958 87.1234546,208.521071 86.485,208.523 L67.4975,208.523 Z" id="Shape" fill="#A3B800" opacity="0.1"></path>
            <path d="M257.7855,113.519 L212.863,113.519 L212.863,103.803 C212.863,102.51949 211.82251,101.479 210.539,101.479 L197.3475,101.479 L197.3475,91.1295 C197.3475,90.3215074 196.692493,89.6665 195.8845,89.6665 L178.892,89.6665 C178.084007,89.6665 177.429,90.3215074 177.429,91.1295 L177.429,101.4755 L161.9205,101.4755 C160.63699,101.4755 159.5965,102.51599 159.5965,103.7995 L159.5965,113.5155 L116.76,113.5155 C116.500413,113.517423 116.291,113.728406 116.291,113.988 L116.291,242.9735 C116.291,243.233094 116.500413,243.444077 116.76,243.446 L145.229,243.446 C145.489955,243.446 145.7015,243.234455 145.7015,242.9735 L145.7015,225.6205 C145.703406,225.360339 145.913839,225.149906 146.174,225.148 L158.2,225.148 C158.460161,225.149906 158.670594,225.360339 158.6725,225.6205 L158.6725,242.9735 C158.672493,243.233094 158.881913,243.444077 159.1415,243.446 L215.404,243.446 C215.664161,243.444094 215.874594,243.233661 215.8765,242.9735 L215.8765,225.6205 C215.876493,225.360906 216.085913,225.149923 216.3455,225.148 L228.3715,225.148 C228.632455,225.148 228.844,225.359545 228.844,225.6205 L228.844,242.9735 C228.845906,243.233661 229.056339,243.444094 229.3165,243.446 L257.7855,243.446 C258.045661,243.444094 258.256094,243.233661 258.258,242.9735 L258.258,113.9915 C258.256094,113.731339 258.045661,113.520906 257.7855,113.519 Z M140.6055,219.121 C140.6055,219.380022 140.395522,219.590013 140.1365,219.590013 L122.5525,219.590013 C122.427508,219.590933 122.307315,219.541933 122.218602,219.453877 C122.129889,219.365821 122.08,219.245995 122.08,219.121 L122.08,213.1255 C122.08,212.864545 122.291545,212.653 122.5525,212.653 L140.1365,212.653 C140.396087,212.654923 140.6055,212.865906 140.6055,213.1255 L140.6055,219.121 Z M140.605513,203.602 C140.606433,203.726992 140.557433,203.847185 140.469377,203.935898 C140.381321,204.024611 140.261495,204.074513 140.1365,204.074513 L122.5525,204.074513 C122.426899,204.075441 122.306169,204.025962 122.217354,203.937146 C122.128538,203.848331 122.079059,203.727601 122.079987,203.602 L122.079987,197.5995 C122.079059,197.473899 122.128538,197.353169 122.217354,197.264354 C122.306169,197.175538 122.426899,197.126059 122.5525,197.126987 L140.1365,197.126987 C140.261495,197.126987 140.381321,197.176889 140.469377,197.265602 C140.557433,197.354315 140.606433,197.474508 140.605513,197.5995 L140.605513,203.602 Z M140.6055,188.0865 C140.6055,188.346094 140.396087,188.557077 140.1365,188.559 L122.5525,188.559 C122.427185,188.559 122.307003,188.509219 122.218392,188.420608 C122.129781,188.331997 122.08,188.211815 122.08,188.0865 L122.08,182.0805 C122.08,181.819545 122.291545,181.608 122.5525,181.608 L140.1365,181.608 C140.396087,181.609923 140.6055,181.820906 140.6055,182.0805 L140.6055,188.0865 Z M140.605513,172.5675 C140.606433,172.692492 140.557433,172.812685 140.469377,172.901398 C140.381321,172.990111 140.261495,173.040013 140.1365,173.040013 L122.5525,173.040013 C122.426899,173.040941 122.306169,172.991462 122.217354,172.902646 C122.128538,172.813831 122.079059,172.693101 122.079987,172.5675 L122.079987,166.5755 C122.079059,166.449899 122.128538,166.329169 122.217354,166.240354 C122.306169,166.151538 122.426899,166.102059 122.5525,166.102987 L140.1365,166.102987 C140.261495,166.102987 140.381321,166.152889 140.469377,166.241602 C140.557433,166.330315 140.606433,166.450508 140.605513,166.5755 L140.605513,172.5675 Z M140.6055,157.052 C140.6055,157.311594 140.396087,157.522577 140.1365,157.5245 L122.5525,157.5245 C122.291545,157.5245 122.08,157.312955 122.08,157.052 L122.08,151.046 C122.08,150.921005 122.129889,150.801179 122.218602,150.713123 C122.307315,150.625067 122.427508,150.576067 122.5525,150.576987 L140.1365,150.576987 C140.395522,150.576987 140.6055,150.786978 140.6055,151.046 L140.6055,157.052 Z M140.6055,141.5365 C140.6055,141.795522 140.395522,142.005513 140.1365,142.005513 L122.5525,142.005513 C122.427508,142.006433 122.307315,141.957433 122.218602,141.869377 C122.129889,141.781321 122.08,141.661495 122.08,141.5365 L122.08,135.5305 C122.08,135.269545 122.291545,135.058 122.5525,135.058 L140.1365,135.058 C140.396087,135.059923 140.6055,135.270906 140.6055,135.5305 L140.6055,141.5365 Z M140.605513,126.0175 C140.606433,126.142492 140.557433,126.262685 140.469377,126.351398 C140.381321,126.440111 140.261495,126.490013 140.1365,126.490013 L122.5525,126.490013 C122.426899,126.490941 122.306169,126.441462 122.217354,126.352646 C122.128538,126.263831 122.079059,126.143101 122.079987,126.0175 L122.079987,120.0255 C122.079059,119.899899 122.128538,119.779169 122.217354,119.690354 C122.306169,119.601538 122.426899,119.552059 122.5525,119.552987 L140.1365,119.552987 C140.261495,119.552987 140.381321,119.602889 140.469377,119.691602 C140.557433,119.780315 140.606433,119.900508 140.605513,120.0255 L140.605513,126.0175 Z M182.294,219.1175 C182.294,219.242495 182.244111,219.362321 182.155398,219.450377 C182.066685,219.538433 181.946492,219.587433 181.8215,219.586513 L164.2375,219.586513 C163.977906,219.586513 163.766923,219.377087 163.765,219.1175 L163.765,213.1255 C163.766906,212.865339 163.977339,212.654906 164.2375,212.653 L181.8215,212.653 C182.082455,212.653 182.294,212.864545 182.294,213.1255 L182.294,219.1175 Z M182.294013,203.5985 C182.294941,203.724101 182.245462,203.844831 182.156646,203.933646 C182.067831,204.022462 181.947101,204.071941 181.8215,204.071013 L164.2375,204.071013 C164.112185,204.071013 163.992003,204.021219 163.903392,203.932608 C163.814781,203.843997 163.765,203.723815 163.765,203.5985 L163.765,197.5995 C163.765,197.474185 163.814781,197.354003 163.903392,197.265392 C163.992003,197.176781 164.112185,197.126987 164.2375,197.126987 L181.8215,197.126987 C181.947101,197.126059 182.067831,197.175538 182.156646,197.264354 C182.245462,197.353169 182.294941,197.473899 182.294013,197.5995 L182.294013,203.5985 Z M182.294,188.083 C182.294,188.343955 182.082455,188.5555 181.8215,188.5555 L164.2375,188.5555 C163.977339,188.553594 163.766906,188.343161 163.765,188.083 L163.765,182.0805 C163.766906,181.820339 163.977339,181.609906 164.2375,181.608 L181.8215,181.608 C182.082455,181.608 182.294,181.819545 182.294,182.0805 L182.294,188.083 Z M182.294013,172.564 C182.294941,172.689601 182.245462,172.810331 182.156646,172.899146 C182.067831,172.987962 181.947101,173.037441 181.8215,173.036513 L164.2375,173.036513 C164.112185,173.036513 163.992003,172.986719 163.903392,172.898108 C163.814781,172.809497 163.765,172.689315 163.765,172.564 L163.765,166.5755 C163.765,166.450185 163.814781,166.330003 163.903392,166.241392 C163.992003,166.152781 164.112185,166.102987 164.2375,166.102987 L181.8215,166.102987 C181.947101,166.102059 182.067831,166.151538 182.156646,166.240354 C182.245462,166.329169 182.294941,166.449899 182.294013,166.5755 L182.294013,172.564 Z M182.294,157.0485 C182.294,157.309455 182.082455,157.521 181.8215,157.521 L164.2375,157.521 C163.977339,157.519094 163.766906,157.308661 163.765,157.0485 L163.765,151.046 C163.766923,150.786413 163.977906,150.576987 164.2375,150.576987 L181.8215,150.576987 C181.946492,150.576067 182.066685,150.625067 182.155398,150.713123 C182.244111,150.801179 182.294,150.921005 182.294,151.046 L182.294,157.0485 Z M182.294,141.533 C182.294,141.657995 182.244111,141.777821 182.155398,141.865877 C182.066685,141.953933 181.946492,142.002933 181.8215,142.002013 L164.2375,142.002013 C163.977906,142.002013 163.766923,141.792587 163.765,141.533 L163.765,135.5305 C163.766906,135.270339 163.977339,135.059906 164.2375,135.058 L181.8215,135.058 C182.082455,135.058 182.294,135.269545 182.294,135.5305 L182.294,141.533 Z M182.294013,126.014 C182.294941,126.139601 182.245462,126.260331 182.156646,126.349146 C182.067831,126.437962 181.947101,126.487441 181.8215,126.486513 L164.2375,126.486513 C164.112185,126.486513 163.992003,126.436719 163.903392,126.348108 C163.814781,126.259497 163.765,126.139315 163.765,126.014 L163.765,120.0255 C163.765,119.900185 163.814781,119.780003 163.903392,119.691392 C163.992003,119.602781 164.112185,119.552987 164.2375,119.552987 L181.8215,119.552987 C181.947101,119.552059 182.067831,119.601538 182.156646,119.690354 C182.245462,119.779169 182.294941,119.899899 182.294013,120.0255 L182.294013,126.014 Z M210.7805,219.114 C210.7805,219.238995 210.730611,219.358821 210.641898,219.446877 C210.553185,219.534933 210.432992,219.583933 210.308,219.583013 L192.724,219.583013 C192.464406,219.583013 192.253423,219.373587 192.2515,219.114 L192.2515,213.1255 C192.253406,212.865339 192.463839,212.654906 192.724,212.653 L210.308,212.653 C210.568955,212.653 210.7805,212.864545 210.7805,213.1255 L210.7805,219.114 Z M210.780513,203.595 C210.781441,203.720601 210.731962,203.841331 210.643146,203.930146 C210.554331,204.018962 210.433601,204.068441 210.308,204.067513 L192.724,204.067513 C192.598685,204.067513 192.478503,204.017719 192.389892,203.929108 C192.301281,203.840497 192.2515,203.720315 192.2515,203.595 L192.2515,197.5995 C192.2515,197.474185 192.301281,197.354003 192.389892,197.265392 C192.478503,197.176781 192.598685,197.126987 192.724,197.126987 L210.308,197.126987 C210.433601,197.126059 210.554331,197.175538 210.643146,197.264354 C210.731962,197.353169 210.781441,197.473899 210.780513,197.5995 L210.780513,203.595 Z M210.7805,188.0795 C210.7805,188.340455 210.568955,188.552 210.308,188.552 L192.724,188.552 C192.463839,188.550094 192.253406,188.339661 192.2515,188.0795 L192.2515,182.0805 C192.253406,181.820339 192.463839,181.609906 192.724,181.608 L210.308,181.608 C210.568955,181.608 210.7805,181.819545 210.7805,182.0805 L210.7805,188.0795 Z M210.780513,172.5605 C210.781441,172.686101 210.731962,172.806831 210.643146,172.895646 C210.554331,172.984462 210.433601,173.033941 210.308,173.033013 L192.724,173.033013 C192.598685,173.033013 192.478503,172.983219 192.389892,172.894608 C192.301281,172.805997 192.2515,172.685815 192.2515,172.5605 L192.2515,166.5755 C192.2515,166.450185 192.301281,166.330003 192.389892,166.241392 C192.478503,166.152781 192.598685,166.102987 192.724,166.102987 L210.308,166.102987 C210.433601,166.102059 210.554331,166.151538 210.643146,166.240354 C210.731962,166.329169 210.781441,166.449899 210.780513,166.5755 L210.780513,172.5605 Z M210.7805,157.045 C210.7805,157.305955 210.568955,157.5175 210.308,157.5175 L192.724,157.5175 C192.463839,157.515594 192.253406,157.305161 192.2515,157.045 L192.2515,151.046 C192.253423,150.786413 192.464406,150.576987 192.724,150.576987 L210.308,150.576987 C210.432992,150.576067 210.553185,150.625067 210.641898,150.713123 C210.730611,150.801179 210.7805,150.921005 210.7805,151.046 L210.7805,157.045 Z M210.7805,141.5295 C210.7805,141.654495 210.730611,141.774321 210.641898,141.862377 C210.553185,141.950433 210.432992,141.999433 210.308,141.998513 L192.724,141.998513 C192.464406,141.998513 192.253423,141.789087 192.2515,141.5295 L192.2515,135.5305 C192.253406,135.270339 192.463839,135.059906 192.724,135.058 L210.308,135.058 C210.568955,135.058 210.7805,135.269545 210.7805,135.5305 L210.7805,141.5295 Z M210.780513,126.0105 C210.781441,126.136101 210.731962,126.256831 210.643146,126.345646 C210.554331,126.434462 210.433601,126.483941 210.308,126.483013 L192.724,126.483013 C192.598685,126.483013 192.478503,126.433219 192.389892,126.344608 C192.301281,126.255997 192.2515,126.135815 192.2515,126.0105 L192.2515,120.0255 C192.2515,119.900185 192.301281,119.780003 192.389892,119.691392 C192.478503,119.602781 192.598685,119.552987 192.724,119.552987 L210.308,119.552987 C210.433601,119.552059 210.554331,119.601538 210.643146,119.690354 C210.731962,119.779169 210.781441,119.899899 210.780513,120.0255 L210.780513,126.0105 Z M252.469,219.1105 C252.467077,219.370087 252.256094,219.579513 251.9965,219.579513 L234.4125,219.579513 C234.287508,219.580433 234.167315,219.531433 234.078602,219.443377 C233.989889,219.355321 233.94,219.235495 233.94,219.1105 L233.94,213.1255 C233.94,212.864545 234.151545,212.653 234.4125,212.653 L252,212.653 C252.260161,212.654906 252.470594,212.865339 252.4725,213.1255 L252.469,219.1105 Z M252.469,203.5915 C252.469,203.852455 252.257455,204.064013 251.9965,204.064013 L234.4125,204.064013 C234.286899,204.064941 234.166169,204.015462 234.077354,203.926646 C233.988538,203.837831 233.939059,203.717101 233.939987,203.5915 L233.939987,197.5995 C233.939059,197.473899 233.988538,197.353169 234.077354,197.264354 C234.166169,197.175538 234.286899,197.126059 234.4125,197.126987 L252,197.126987 C252.260955,197.126987 252.4725,197.338545 252.4725,197.5995 L252.469,203.5915 Z M252.469,188.076 C252.467094,188.336161 252.256661,188.546594 251.9965,188.5485 L234.4125,188.5485 C234.151545,188.5485 233.94,188.336955 233.94,188.076 L233.94,182.0805 C233.94,181.819545 234.151545,181.608 234.4125,181.608 L252,181.608 C252.260161,181.609906 252.470594,181.820339 252.4725,182.0805 L252.469,188.076 Z M252.469,172.557 C252.469,172.817955 252.257455,173.029513 251.9965,173.029513 L234.4125,173.029513 C234.286899,173.030441 234.166169,172.980962 234.077354,172.892146 C233.988538,172.803331 233.939059,172.682601 233.939987,172.557 L233.939987,166.5755 C233.939059,166.449899 233.988538,166.329169 234.077354,166.240354 C234.166169,166.151538 234.286899,166.102059 234.4125,166.102987 L252,166.102987 C252.260955,166.102987 252.4725,166.314545 252.4725,166.5755 L252.469,172.557 Z M252.469,157.0415 C252.467094,157.301661 252.256661,157.512094 251.9965,157.514 L234.4125,157.514 C234.151545,157.514 233.94,157.302455 233.94,157.0415 L233.94,151.046 C233.94,150.921005 233.989889,150.801179 234.078602,150.713123 C234.167315,150.625067 234.287508,150.576067 234.4125,150.576987 L252,150.576987 C252.259594,150.576987 252.470577,150.786413 252.4725,151.046 L252.469,157.0415 Z M252.469,141.526 C252.470869,141.651919 252.422395,141.773374 252.334338,141.863402 C252.246281,141.95343 252.125929,142.004581 252,142.005513 L234.4125,142.005513 C234.287508,142.006433 234.167315,141.957433 234.078602,141.869377 C233.989889,141.781321 233.94,141.661495 233.94,141.5365 L233.94,135.5305 C233.94,135.269545 234.151545,135.058 234.4125,135.058 L252,135.058 C252.260161,135.059906 252.470594,135.270339 252.4725,135.5305 L252.469,141.526 Z M252.469,126.007 C252.469,126.267955 252.257455,126.479513 251.9965,126.479513 L234.4125,126.479513 C234.286899,126.480441 234.166169,126.430962 234.077354,126.342146 C233.988538,126.253331 233.939059,126.132601 233.939987,126.007 L233.939987,120.0255 C233.939059,119.899899 233.988538,119.779169 234.077354,119.690354 C234.166169,119.601538 234.286899,119.552059 234.4125,119.552987 L252,119.552987 C252.260955,119.552987 252.4725,119.764545 252.4725,120.0255 L252.469,126.007 Z" id="Shape" fill="#A3B800" opacity="0.1"></path>
            <path d="M129.85,78.561 C127.873696,78.1846999 125.830065,78.4064894 123.9805,79.198 C121.725976,80.2028343 119.14953,80.1964664 116.9,79.1805 C114.246892,78.0172468 111.216861,78.0773868 108.612,79.345 C107.875903,79.7327813 107.056988,79.9369098 106.225,79.94 C102.865,79.94 100.0685,76.5555 99.4875,72.0895 C100.158911,71.6002721 100.729383,70.9858262 101.1675,70.28 C103.138,67.1055 106.19,65.065 109.6165,65.065 C113.043,65.065 116.0565,67.081 118.0165,70.2205 C119.211827,72.1497888 121.329581,73.3128939 123.599,73.2865 L123.6865,73.2865 C126.3885,73.2865 128.7055,75.432 129.85,78.561 Z" id="Path" fill="#A3B800" opacity="0.1"></path>
            <path d="M140.07,64.5435 L134.638,67.9875 L137.935,61.992 C137.000603,61.246148 135.84399,60.833512 134.6485,60.8195 L134.561,60.8195 C134.183584,60.8250194 133.806427,60.7969083 133.434,60.7355 L131.6,61.9045 L132.391,60.4695 C131.085841,60.0134239 129.958627,59.1557614 129.171,58.0195 L125.874,60.1195 L127.9495,56.3255 C126.021,54.012 123.424,52.5945 120.568,52.5945 C117.1415,52.5945 114.0895,54.6315 112.119,57.806 C110.930848,59.7452769 108.792018,60.8962347 106.519,60.8195 L106.3335,60.8195 C102.55,60.8195 99.484,65.107 99.484,70.399 C99.484,75.691 102.55,79.9785 106.3335,79.9785 C107.166024,79.9762878 107.985418,79.7708387 108.7205,79.38 C111.325876,78.113508 114.355903,78.0546477 117.0085,79.219 C119.251556,80.2200003 121.814444,80.2200003 124.0575,79.219 C126.689526,78.0745881 129.689257,78.1320787 132.2755,79.3765 C133.00363,79.757564 133.812688,79.958028 134.6345,79.961 C138.418,79.961 141.484,75.67 141.484,70.3815 C141.508033,68.3479024 141.021882,66.3407251 140.07,64.5435 L140.07,64.5435 Z" id="Path" fill="#A3B800" opacity="0.1"></path>
            <path d="M291.2,142.4255 C289.816539,142.163438 288.386414,142.318145 287.091,142.87 C285.520917,143.572109 283.726083,143.572109 282.156,142.87 C280.298317,142.055686 278.176809,142.097912 276.353,142.9855 C275.838376,143.257316 275.265495,143.400236 274.6835,143.402 C272.3315,143.402 270.375,141.0325 269.969,137.907 C270.437961,137.563244 270.837086,137.133235 271.145,136.64 C272.524,134.4175 274.645,132.9895 277.0565,132.9895 C279.468,132.9895 281.568,134.3895 282.947,136.598 C283.782738,137.948579 285.264871,138.76269 286.853,138.7435 L286.916,138.7435 C288.771,138.7365 290.3915,140.238 291.2,142.4255 Z" id="Path" fill="#A3B800" opacity="0.1"></path>
            <path d="M298.347,132.6255 L294.546,135.037 L296.8525,130.837 C296.19845,130.315799 295.389266,130.027597 294.553,130.018 L294.4935,130.018 C294.229765,130.021224 293.966256,130.001315 293.706,129.9585 L292.4145,130.774 L292.9675,129.773 C292.055511,129.452553 291.267118,128.853913 290.7135,128.0615 L288.4,129.5175 L289.856,126.868 C288.5085,125.2475 286.706,124.2535 284.69,124.2535 C282.2925,124.2535 280.14,125.6815 278.775,127.904 C277.943591,129.255362 276.451254,130.056976 274.8655,130.004 L274.75,130.004 C272.104,130.004 269.955,133.0035 269.955,136.7065 C269.955,140.4095 272.104,143.4125 274.75,143.4125 C275.331995,143.410736 275.904876,143.267816 276.4195,142.996 C278.243369,142.107639 280.36571,142.066677 282.2225,142.884 C283.793524,143.581685 285.586476,143.581685 287.1575,142.884 C288.999599,142.084244 291.098439,142.125122 292.908,142.996 C293.418633,143.260547 293.984913,143.399717 294.56,143.402 C297.2095,143.402 299.355144,140.4025 299.355144,136.696 C299.363266,135.27639 299.016777,133.877202 298.347,132.6255 Z" id="Path" fill="#A3B800" opacity="0.1"></path>
            <path d="M83.517,120.0255 C84.9004696,119.763651 86.3305324,119.918351 87.626,120.47 C89.1948,121.172402 90.9887,121.172402 92.5575,120.47 C94.4151827,119.655686 96.5366911,119.697912 98.3605,120.5855 C98.8752738,120.856923 99.4480567,120.999819 100.03,121.002 C102.382,121.002 104.342,118.6325 104.748,115.507 C104.27823,115.164154 103.878947,114.733974 103.572,114.24 C102.2,112.0105 100.0545,110.5755 97.65,110.5755 C95.2455,110.5755 93.142,111.9755 91.763,114.184 C90.9247224,115.536299 89.440964,116.352499 87.85,116.3365 L87.7905,116.3365 C85.9285,116.3365 84.3045,117.838 83.517,120.0255 Z" id="Path" fill="#A3B800" opacity="0.1"></path>
            <path d="M76.349,110.2255 L80.15,112.6265 L77.84,108.4265 C78.4943132,107.905772 79.3033297,107.617629 80.1395,107.6075 L80.2025,107.6075 C80.4662284,107.610528 80.7297206,107.59062 80.99,107.548 L82.278,108.3635 L81.725,107.3625 C82.638048,107.042272 83.4276235,106.443663 83.9825,105.651 L86.289,107.114 L84.8295,104.4645 C86.1805,102.844 87.997,101.85 89.999,101.85 C92.3965,101.85 94.549,103.278 95.914,105.5005 C96.7448894,106.852413 98.2375739,107.654213 99.8235,107.6005 L99.9495,107.6005 C102.599,107.6005 104.7445,110.6 104.7445,114.303 C104.7445,118.006 102.599,121.009 99.9495,121.009 C99.3676085,121.006405 98.7949227,120.863533 98.28,120.5925 C96.4561308,119.704139 94.3337896,119.663177 92.477,120.4805 C90.9071621,121.178028 89.1153379,121.178028 87.5455,120.4805 C85.7022162,119.680608 83.6022601,119.721483 81.7915,120.5925 C81.2810106,120.857428 80.7146369,120.996621 80.1395,120.9985 C77.4935,120.9985 75.3443374,117.999 75.3443374,114.2925 C75.3357415,112.874373 75.681005,111.476477 76.349,110.2255 Z" id="Path" fill="#A3B800" opacity="0.1"></path>
            <path d="M76.538,245.021 C81.277,248.031 88.1055,244.986 92.876,247.9505 C94.108,248.7135 95.102,249.837 96.376,250.53 C97.9055,251.3665 99.7045,251.517 101.444,251.58 C116.011,252.1435 130.823,248.08 145.026,251.363 C148.9985,252.28 152.8835,253.771 156.954,253.988 C163.9855,254.3695 170.723,250.9395 177.7615,250.7505 C188.4365,250.4635 198.926,257.607 209.2265,254.7895 C212.6145,253.862 215.7225,251.8845 219.219,251.552 C223.1145,251.202 226.8595,252.8995 230.6465,253.89 C244.076,257.39 258.062,251.72 271.9465,251.2965 C281.001,251.02 289.968,252.994 299.0155,253.449 C305.4485,253.771 311.8955,253.3195 318.3215,252.8715 C320.7715,252.7 323.337,252.49 325.388,251.146 C327.439,249.802 328.699,246.9145 327.432,244.8145 L76.538,245.021 Z" id="Path" fill="#3F3D56"></path>
            <path d="M76.538,245.021 C81.277,248.031 88.1055,244.986 92.876,247.9505 C94.108,248.7135 95.102,249.837 96.376,250.53 C97.9055,251.3665 99.7045,251.517 101.444,251.58 C116.011,252.1435 130.823,248.08 145.026,251.363 C148.9985,252.28 152.8835,253.771 156.954,253.988 C163.9855,254.3695 170.723,250.9395 177.7615,250.7505 C188.4365,250.4635 198.926,257.607 209.2265,254.7895 C212.6145,253.862 215.7225,251.8845 219.219,251.552 C223.1145,251.202 226.8595,252.8995 230.6465,253.89 C244.076,257.39 258.062,251.72 271.9465,251.2965 C281.001,251.02 289.968,252.994 299.0155,253.449 C305.4485,253.771 311.8955,253.3195 318.3215,252.8715 C320.7715,252.7 323.337,252.49 325.388,251.146 C327.439,249.802 328.699,246.9145 327.432,244.8145 L76.538,245.021 Z" id="Path" fill="#000000" opacity="0.1"></path>
            <path d="M76.538,243.271 C81.277,246.281 88.1055,243.236 92.876,246.2005 C94.108,246.9635 95.102,248.087 96.376,248.78 C97.9055,249.6165 99.7045,249.767 101.444,249.83 C116.011,250.3935 130.823,246.33 145.026,249.613 C148.9985,250.53 152.8835,252.021 156.954,252.238 C163.9855,252.6195 170.723,249.1895 177.7615,249.0005 C188.4365,248.7135 198.926,255.857 209.2265,253.0395 C212.6145,252.112 215.7225,250.1345 219.219,249.802 C223.1145,249.452 226.8595,251.1495 230.6465,252.14 C244.076,255.64 258.062,249.97 271.9465,249.5465 C281.001,249.27 289.968,251.244 299.0155,251.699 C305.4485,252.021 311.8955,251.5695 318.3215,251.1215 C320.7715,250.95 323.337,250.74 325.388,249.396 C327.439,248.052 328.699,245.1645 327.432,243.0645 L76.538,243.271 Z" id="Path" fill="#3F3D56"></path>
            <g id="Group" opacity="0.1" transform="translate(11.200000, 72.800000)">
                <path d="M31.6225,127.351 C31.6369477,128.870074 31.2467544,130.365614 30.492,131.684 C31.9993428,134.376029 31.9993428,137.657971 30.492,140.35 C30.8753683,141.005686 31.162949,141.712852 31.346,142.45 C27.525419,137.414101 24.0086719,132.154758 20.8145,126.7 L20.8145,126.7 C20.8914272,125.398878 21.2700795,124.133508 21.9205,123.004 C21.1657456,121.685614 20.7755523,120.190074 20.79,118.671 C20.785502,117.644566 20.9583779,116.625072 21.301,115.6575 C21.4640866,115.198562 21.6715699,114.756635 21.9205,114.338 C22.9075,112.6615 24.4615,111.58 26.2045,111.58 C27.9475,111.58 29.505,112.6615 30.492,114.338 C30.7320972,114.744622 30.9347631,115.172212 31.0975,115.6155 C31.4485084,116.595811 31.626161,117.629749 31.6225,118.671 C31.6369477,120.190074 31.2467544,121.685614 30.492,123.004 C31.2491648,124.326494 31.639442,125.827188 31.6225,127.351 L31.6225,127.351 Z" id="Path" fill="#3F3D56"></path>
                <ellipse id="Oval" fill="#3F3D56" cx="26.2045" cy="110.0225" rx="5.4145" ry="7.091"></ellipse>
                <ellipse id="Oval" fill="#3F3D56" cx="26.2045" cy="101.3565" rx="5.4145" ry="7.091"></ellipse>
                <path d="M52.034531,58.0755 C52.0435118,63.8954966 50.086206,69.54788 46.48,74.116 C52.0647819,81.2171178 53.5537195,90.7119975 50.4106831,99.1817663 C47.2676467,107.651535 39.9452091,113.876612 31.08,115.6155 C30.457,115.7415 29.8235,115.8395 29.183,115.9165 C27.2072914,116.152807 25.2110999,116.163375 23.233,115.948 C22.575,115.878 21.9251667,115.781167 21.2835,115.6575 C18.45409,115.134694 15.7327854,114.139644 13.2335,112.714 C8.57512091,103.197441 4.50627771,93.4034636 1.05,83.3875 C1.95928335,80.0191569 3.5416161,76.8699695 5.7015,74.13 C0.277167736,67.2391233 -1.30248042,58.0758475 1.5015,49.7665 L21.1995,56.378 L2.7265,46.781 C3.54006463,45.1023255 4.53158495,43.515893 5.684,42.049 C-0.320955369,34.4174746 -1.56162924,24.071507 2.46869061,15.2365655 C6.49901046,6.40162406 15.1255561,0.556880464 24.8251002,0.0894269681 C34.5246443,-0.378026527 43.6732609,4.61007251 48.5345,13.0165 L29.491,27.0165 L50.141,16.3065 C52.8095051,22.9350656 52.6297365,30.3701452 49.644,36.862 L34.244,36.7465 L48.475,39.0845 C47.8708831,40.1190945 47.1961147,41.1107819 46.4555,42.0525 C50.0662794,46.612955 52.0320451,52.2586734 52.034531,58.0755 Z" id="Path" fill="#A3B800"></path>
                <path d="M52.0345564,90.1705 C52.0324705,102.568414 43.261691,113.233518 31.0975,115.6295 C30.4745,115.7555 29.841,115.8535 29.2005,115.9305 C27.2247914,116.166807 25.2285999,116.177375 23.2505,115.962 C22.5925,115.892 21.9426667,115.795167 21.301,115.6715 C18.47159,115.148694 15.7502854,114.153644 13.251,112.728 C8.58613823,103.207304 4.51144114,93.408628 1.05,83.3875 C1.95928335,80.0191569 3.5416161,76.8699695 5.7015,74.13 C2.09353307,69.5574469 0.136204525,63.9000644 0.146955582,58.0755 C0.146955582,55.1635 49.959,69.7025 46.48,74.116 C50.0891894,78.6878843 52.0466699,84.3457059 52.0345564,90.1705 L52.0345564,90.1705 Z" id="Path" fill="#000000"></path>
            </g>
            <g id="Group" opacity="0.1" transform="translate(330.750000, 100.450000)">
                <path d="M24.465,92.953 C23.45,96.194 22.365,99.4105 21.252,102.5535 C20.9426713,101.627186 20.7866195,100.656591 20.79,99.68 C20.79,96.5545 22.33,93.9015 24.465,92.953 Z" id="Path" fill="#3F3D56"></path>
                <path d="M35.35,37.107 C35.35,43.2495 34.111,52.955 31.85,64.057 C29.8696894,73.8072842 27.3990533,83.4515261 24.4475,92.953 C23.4325,96.194 22.3475,99.4105 21.2345,102.5535 C19.957,106.1235 18.6095,109.5955 17.199,112.917 C9.37704922,110.045587 3.40125499,103.604827 1.12288463,95.5900309 C-1.15548574,87.5752348 0.538665558,78.9541352 5.6805,72.3975 C0.25541155,65.4866423 -1.32349854,56.3079117 1.4805,47.9815 L21.1785,54.607 L2.7055,44.989 C3.51897516,43.3069936 4.51047693,41.7170706 5.663,40.2465 C0.676179321,33.8882195 -1.07628132,25.5751215 0.919493011,17.7448599 C2.91526734,9.91459833 8.43310217,3.45455068 15.855,0.259 C23.8058507,5.68316462 29.7907666,13.5316912 32.9175,22.6345 L29.505,25.1755 L33.166,23.275 C34.3940096,27.0485266 35.1108873,30.9695769 35.2975,34.9335 L34.2685,34.9335 L35.3185,35.105 C35.35,35.7665 35.35,36.4315 35.35,37.107 Z" id="Path" fill="#A3B800"></path>
                <path d="M31.8675,64.057 C29.8871894,73.8072842 27.4165533,83.4515261 24.465,92.953 C23.45,96.194 22.365,99.4105 21.252,102.5535 C19.9745,106.1235 18.627,109.5955 17.2165,112.917 C9.39454922,110.045587 3.41875499,103.604827 1.14038463,95.5900309 C-1.13798574,87.5752348 0.556165558,78.9541352 5.698,72.3975 C2.09414296,67.8161836 0.138660572,62.1544086 0.146973437,56.3255 C0.146973437,54.5755 18.249,59.1605 31.8675,64.057 Z" id="Path" fill="#000000"></path>
            </g>
            <path d="M366.0545,135.548 C366.0545,135.4955 366.0545,135.4395 366.0545,135.3835 C365.867887,131.419577 365.15101,127.498527 363.923,123.725 C363.853,123.5115 363.783,123.2945 363.7095,123.0845 C360.582767,113.981691 354.597851,106.133165 346.647,100.709 C328.21021,88.14754 303.313963,91.2251094 288.491,107.898 C287.741143,103.649255 286.555378,99.4891086 284.9525,95.4835 C273.274106,96.959952 261.487892,97.3991679 249.732,96.796 C256.935925,100.117725 264.405355,102.830369 272.062,104.9055 L271.789,105.9205 C263.196253,103.587226 254.839497,100.458715 246.827,96.5755 L244.4085,95.403 L247.0895,95.578 C259.578893,96.3958204 272.117543,96.0360666 284.5395,94.5035 C281.851888,88.093501 278.124432,82.1711987 273.5075,76.9755 C253.3615,74.9455 233.373,70.7175 214.7075,62.335 L215.138,61.3795 C233.3065,69.545 252.777,73.7415 272.433,75.8065 C258.94391,61.3464982 239.441277,54.0698054 219.777128,56.1598912 C200.11298,58.2499769 182.575668,69.463614 172.4275,86.436 C170.565597,68.3821619 163.066341,51.3729096 150.9935,37.821 C140.245593,42.1154295 129.148183,45.4773229 117.824,47.8695 C100.793314,51.4892655 83.3638424,52.8764227 65.975,51.996 C73.1789245,55.3177246 80.648355,58.0303688 88.305,60.1055 L88.032,61.1205 C79.4416442,58.7868138 71.0872492,55.6583097 63.077,51.7755 L60.6585,50.603 L63.3395,50.778 C92.9792352,52.7247689 122.679201,48.0191252 150.2655,37.0055 C149.227167,35.8691667 148.1585,34.7585 147.0595,33.6735 C112.6125,34.3735 75.096,34.0235 41.132,21.658 C15.5410683,37.4531945 -0.0281395027,65.389536 -3.80793957e-05,95.4625 C-3.80793957e-05,111.7235 4.4695,134.085 12.25,156.52 C15.7170944,166.560904 19.7976095,176.379388 24.4685,185.92 C26.845,190.75 29.3685,195.4435 32.018,199.9375 L32.018,199.9375 C35.2125168,205.392042 38.7292504,210.651365 42.5495,215.6875 C43.2355,216.5905 43.9296667,217.477167 44.632,218.3475 C48.5469529,223.302414 52.9408706,227.859286 57.75,231.952 L57.75,231.952 C58.723,232.764 59.7018333,233.5375 60.6865,234.2725 C63.3257141,236.267496 66.136736,238.024384 69.0865,239.5225 C74.221,242.095 79.52,243.6035 84.9415,243.8205 C85.3755,243.838 85.813,243.8485 86.247,243.8485 L86.247,244.027 L321.447,244.027 L321.447,243.8485 L321.622,243.8485 C322.977529,243.843324 324.322209,243.606585 325.598,243.1485 C333.914,240.198 341.572,228.3505 347.9385,213.3775 C349.3385,210.056 350.6965,206.584 351.974,203.014 C353.101,199.864 354.172,196.6545 355.187,193.4135 C358.138553,183.912026 360.609189,174.267784 362.5895,164.5175 C364.833,153.4155 366.0895,143.71 366.0895,137.5675 C366.1,136.8815 366.1,136.2165 366.0545,135.548 Z" id="Path" fill="#A3B800" opacity="0.1"></path>
            <path d="M116.921,233.7265 L123.62,229.7855 C122.713341,228.238543 121.555326,226.85342 120.1935,225.687 L107.555,229.6175 L117.46,223.797 C112.47156,221.064347 106.411423,221.166604 101.518018,224.066001 C96.6246118,226.965398 93.624184,232.231625 93.6249998,237.9195 C93.6249998,246.8095 100.8315,247.1175 109.725,247.1175 C118.6185,247.1175 125.825016,246.8095 125.825016,237.9195 C125.8282,235.668413 125.357139,233.441901 124.4425,231.385 L116.921,233.7265 Z" id="Path" fill="#A3B800"></path>
            <path d="M118.6255,242.368 C117.912455,241.65394 117.115671,241.028734 116.2525,240.506 C115.0345,239.6975 113.778,238.8715 112.343,238.5985 C111.083,238.357 109.7845,238.56 108.493,238.4865 C106.265076,238.3505 104.167629,237.389742 102.6095,235.7915 C101.696,234.8465 100.975,233.6915 99.876,232.96 C98.6895,232.183 97.1845,232.015 95.7775,232.2075 C95.3691696,232.265711 94.9647566,232.348697 94.5665,232.456 C93.9345002,234.208117 93.6123573,236.056885 93.6144894,237.9195 C93.6144894,246.8095 100.821,247.1175 109.7145,247.1175 C114.03,247.1175 117.9465,247.044 120.8375,245.9555 L120.3545,245.0525 C119.89303,244.088697 119.312136,243.186781 118.6255,242.368 L118.6255,242.368 Z" id="Path" fill="#000000" opacity="0.1"></path>
            <circle id="Oval" fill="#3F3D56" cx="191.569" cy="65.0195" r="12.5125"></circle>
            <path d="M184.31,162.3545 C185.6015,171.416 184.0265,180.656 181.573,189.4725 C181.1145,191.114 180.621,192.7695 179.7635,194.243 C178.906,195.7165 177.7125,196.9835 176.7045,198.3695 C174.6045,201.2605 173.3725,204.6695 172.221,208.0435 C169.046353,217.37955 166.380108,226.880822 164.234,236.5055 C164.104682,236.900006 164.104682,237.325494 164.234,237.72 C164.5385,238.42 165.4625,238.511 166.222,238.507594 L176.043,238.455 C176.393,237.783 175.7455,237.055 175.343,236.411 C173.943,234.234 175.287,231.406 176.5225,229.1275 C179.525273,223.59368 181.849721,217.717926 183.4455,211.6275 C184.1175,209.062 184.6635,206.4405 185.7555,204.022 C187.075,201.089 189.1435,198.5655 190.8235,195.8215 C192.7765,192.633 194.201,189.1715 195.615,185.696 C197.589,180.873 199.5805,175.9905 200.3575,170.8385 C201.089,166.0015 200.7285,161.0735 200.2525,156.205 C200.297385,155.911192 200.198197,155.61373 199.985963,155.405658 C199.773729,155.197585 199.474361,155.104307 199.1815,155.155 L186.004,154.476 C183.288,154.336 182.644,153.741 183.057,156.408 C183.344,158.3995 184.023,160.3385 184.31,162.3545 Z" id="Path" fill="#3F3D56"></path>
            <path d="M184.31,162.3545 C185.6015,171.416 184.0265,180.656 181.573,189.4725 C181.1145,191.114 180.621,192.7695 179.7635,194.243 C178.906,195.7165 177.7125,196.9835 176.7045,198.3695 C174.6045,201.2605 173.3725,204.6695 172.221,208.0435 C169.046353,217.37955 166.380108,226.880822 164.234,236.5055 C164.104682,236.900006 164.104682,237.325494 164.234,237.72 C164.5385,238.42 165.4625,238.511 166.222,238.507594 L176.043,238.455 C176.393,237.783 175.7455,237.055 175.343,236.411 C173.943,234.234 175.287,231.406 176.5225,229.1275 C179.525273,223.59368 181.849721,217.717926 183.4455,211.6275 C184.1175,209.062 184.6635,206.4405 185.7555,204.022 C187.075,201.089 189.1435,198.5655 190.8235,195.8215 C192.7765,192.633 194.201,189.1715 195.615,185.696 C197.589,180.873 199.5805,175.9905 200.3575,170.8385 C201.089,166.0015 200.7285,161.0735 200.2525,156.205 C200.297385,155.911192 200.198197,155.61373 199.985963,155.405658 C199.773729,155.197585 199.474361,155.104307 199.1815,155.155 L186.004,154.476 C183.288,154.336 182.644,153.741 183.057,156.408 C183.344,158.3995 184.023,160.3385 184.31,162.3545 Z" id="Path" fill="#000000" opacity="0.1"></path>
            <path d="M186.9,140.3255 C184.2225,144.1755 181.4155,148.6065 182.3045,153.216 C182.98,156.716 185.647,159.4285 188.1635,161.966 C198.2225,172.067 208.1135,183.288 211.5365,197.1305 C212.4185,200.7075 212.8455,204.379 213.605,207.9805 C214.984,214.5255 217.455,220.7835 219.905,227.003 L226.471,243.5755 C230.642609,243.678004 234.432897,241.160469 235.956,237.2755 C235.095,237.209 233.9715,236.376 233.4675,235.676 C230.6675,231.8015 230.0935,226.8175 229.376,222.0925 C228.5815,216.8705 227.521,211.6905 226.457,206.514 L221.753,183.61 C221.2105,180.9675 220.668,178.3215 219.961,175.7175 C217.224,165.6305 212.037,156.1175 211.2355,145.6875 C211.1165,144.1545 211.043,142.471 210.0035,141.3335 C208.9115,140.133 207.1195,139.9335 205.499,139.839 C198.9435,139.419 193.2875,138.7785 186.9,140.3255 Z" id="Path" fill="#3F3D56"></path>
            <path d="M169.2145,236.271 C168.500673,236.101511 167.770983,236.007661 167.0375,235.991 C165.612162,236.04149 164.294177,236.761452 163.4815,237.9335 C163.072603,238.588739 162.751366,239.294754 162.526,240.0335 L161.5775,242.7565 C161.2975,243.5545 161.0245,244.475 161.441,245.2065 C161.750804,245.660973 162.1969,246.005349 162.715,246.19 C165.011,247.212 167.615,247.268 170.1,247.513 C172.529,247.751 174.937,248.178 177.3345,248.626 C178.1605,248.7835 178.983,248.941 179.8195,249.025 C181.6885,249.214 183.5715,249.025 185.4405,248.857 L187.369,248.6715 C188.014537,248.643659 188.65303,248.525856 189.266,248.3215 C189.884778,248.111603 190.390668,247.657566 190.666,247.065 C191.142,245.8855 190.12,244.489 188.8705,244.244 C188.363,244.146 187.8205,244.1915 187.3235,244.125 C186.740372,244.025028 186.171542,243.854614 185.6295,243.6175 C183.1795,242.648 180.67,241.668 178.5,240.142 C177.898,239.7185 177.268,239.127 177.3345,238.392 C177.39707,238.077193 177.50185,237.772273 177.646,237.4855 C177.940236,236.734467 177.950192,235.901855 177.674,235.144 C177.555,234.822 177.324,234.4825 176.9985,234.444 C176.0745,234.332 176.1865,235.6795 176.05,236.194 C175.8645,236.894 175.5285,236.957 174.8705,236.894 C172.9805,236.7225 171.0905,236.628 169.2145,236.271 Z" id="Path" fill="#F2F2F2"></path>
            <path d="M224.469,245.6755 C224.485871,247.043092 224.956114,248.366419 225.806,249.438 C226.065838,249.757667 226.390247,250.018864 226.758,250.2045 C227.311624,250.432464 227.911062,250.527176 228.508,250.481 C230.174078,250.444753 231.820345,250.111707 233.3695,249.4975 C233.915257,249.250336 234.476428,249.038727 235.0495,248.864 C235.770728,248.716461 236.499976,248.611281 237.2335,248.549 C240.128,248.1325 242.669,246.4245 245.4655,245.56 C246.301049,245.352967 247.119989,245.083887 247.9155,244.755 C249.0215,244.2335 249.9175,243.355 250.796,242.5045 C251.313974,242.045297 251.759959,241.510823 252.119,240.919 C252.6335,239.9635 252.665,238.819 252.686,237.7375 C252.704876,237.568376 252.675766,237.397355 252.602,237.244 C252.522078,237.133556 252.413014,237.047517 252.287,236.9955 C251.4365,236.5755 250.4285,236.7855 249.487,236.95 C246.085,237.5555 242.6025,237.4435 239.148,237.3315 C238.47415,237.424125 237.822202,237.052199 237.559,236.425 L236.2465,234.325 C235.872,233.723 235.277,233.0335 234.598,233.24 C234.0555,233.4045 233.835,234.0695 233.856,234.64 C233.877,235.2105 234.052,235.7775 233.9435,236.334 C233.787101,236.953102 233.381771,237.48003 232.8235,237.79 C232.272166,238.089788 231.683783,238.315727 231.0735,238.462 C229.1415,239.008 226.8945,239.6275 225.4,241.0485 C224.301,242.0565 224.4025,244.314 224.469,245.6755 Z" id="Path" fill="#F2F2F2"></path>
            <path d="M223.79,106.8165 C224.543683,106.240593 225.190487,105.536927 225.701,104.7375 C226.140843,103.835513 226.416965,102.862566 226.5165,101.864 L227.066,98.392 C227.3705,96.4775 227.7275,94.451 229.005,92.9915 C230.2825,91.532 232.827,91.0105 234.1255,92.4525 C234.6925,93.079 234.9165,93.94 235.0565,94.7765 C235.865307,99.8286407 234.344431,104.975429 230.9195,108.7765 C229.348,110.4985 227.4195,111.867 225.757,113.4945 C224.308,114.8945 223.0515,116.501 221.7145,118.0235 C218.481267,121.701266 214.777953,124.9374 210.7,127.6485 C210.749,125.0445 211.0815,122.2515 210.7,119.665 C210.4165,117.796 209.65,116.788 211.4595,115.5665 C215.6595,112.7105 219.898,110.1275 223.79,106.8165 Z" id="Path" fill="#FBBEBE"></path>
            <path d="M188.496,81.2035 C188.3595,83.0655 187.586,84.9695 186.046,86.044 C190.407,87.57 194.7085,89.2523333 198.9505,91.091 C198.1315,90.3035 197.883,89.096 197.8445,87.962 C197.736,84.9975 198.7615,82.082 200.2595,79.527 C200.497807,79.2029079 200.635366,78.8157967 200.655,78.414 C200.606,77.588 199.626,77.2065 198.821,77.014 C196.074548,76.3477589 193.271554,75.9411373 190.449,75.7995 C189.2415,75.761 187.81,75.3795 188.083,76.916 C188.342,78.351 188.6045,79.751 188.496,81.2035 Z" id="Path" fill="#FBBEBE"></path>
            <circle id="Oval" fill="#FBBEBE" cx="196.931" cy="71.9705" r="10.2305"></circle>
            <path d="M207.06,99.603 C206.702819,98.8348029 206.267704,98.1053108 205.7615,97.426 C203.9065,94.7625 202.0025,92.1025 199.6225,89.8975 C197.819649,88.2896974 195.868418,86.8564507 193.795,85.617 C192.676254,84.8501206 191.446205,84.259886 190.148,83.867 C189.377648,83.6962785 188.594463,83.5897466 187.8065,83.5485 L185.15,83.3315 C184.917065,83.3006161 184.680664,83.3077082 184.45,83.3525 C183.729,83.5345 183.4,84.4305 183.554,85.155 C183.708,85.8795 184.254,86.4675 184.737,87.017 C184.856,92.4385 182.4445,97.7865 182.119,103.201 C181.5485,112.6685 187.327,121.4745 187.789,130.949 C187.836629,131.377136 187.791262,131.810509 187.656,132.2195 C187.579,132.4155 187.4635,132.594 187.376,132.7865 C187.103,133.3815 187.1135,134.057 187.0645,134.7115 C186.873806,137.045779 185.851681,139.234096 184.184,140.8785 C184.617415,141.416504 185.174612,141.841607 185.808,142.1175 C186.9245,142.604 188.258,142.646 189.4445,142.9855 C192.5385,143.8885 195.7095,144.7985 198.926,144.606 C199.325601,143.736436 199.573024,142.80475 199.6575,141.8515 C200.1125,141.568 200.6375,142.1735 200.7075,142.7055 C200.7775,143.2375 200.676,143.857 201.0575,144.242 C201.439,144.627 201.922,144.5675 202.3875,144.508 C204.351,144.2595 206.2375,143.598 208.1625,143.1535 C210.0875,142.709 212.1455,142.4955 214.018,143.1325 C214.396,142.653 214.235,141.9425 213.927,141.4175 C213.619,140.8925 213.1815,140.4305 213.0065,139.846 C212.918437,139.509243 212.880694,139.161307 212.8945,138.8135 C212.8945,135.821 213.5105,132.797 212.926,129.8605 C212.7545,128.9995 212.4815,128.1595 212.3065,127.295 C211.9565,125.6185 212.009,123.8895 212.0545,122.178 C212.1,120.4665 211.8935,118.615 211.8585,116.879 C211.857415,116.161587 211.810654,115.444971 211.7185,114.7335 C211.5995,113.988 211.3685,113.26 211.3055,112.5075 C211.1165,110.5965 211.8865,108.6995 211.771,106.7815 C211.5785,103.8695 208.194,102.2875 207.06,99.603 Z" id="Path" fill="#00242C"></path>
            <path d="M183.9705,98.231 C181.4925,104.804 180.2815,111.776 179.0705,118.699 L176.2705,134.96 C175.476,139.5555 174.678,144.179 174.7095,148.841 C174.7095,150.15 174.7935,151.4835 174.4505,152.747 C174.0025,154.406 172.8895,155.7885 172.046,157.297 C170.334483,160.377533 169.764372,163.963036 170.436,167.4225 C170.723,168.875 171.507,170.5235 172.9805,170.6915 C174.1915,170.8245 175.238,169.862 175.945,168.868 C177.569,166.5895 178.374,163.8385 179.095,161.1295 C181.416074,152.276412 183.039217,143.254917 183.9495,134.148 C184.036023,132.995208 184.198543,131.849384 184.436,130.718 C184.745109,129.551582 185.140533,128.409767 185.619,127.302 C186.69,124.646667 187.762167,121.991333 188.8355,119.336 C191.31,113.2005 193.7985,107.037 197.197,101.36 C193.837,100.394 190.3405,99.26 186.9805,98.3045 C186.011,98.0175 184.9715,98.189 183.9705,98.231 Z" id="Path" fill="#FBBEBE"></path>
            <path d="M189.7945,103.2255 C187.4425,102.718 185.01,102.8755 182.609,102.816 C182.268024,102.840796 181.928412,102.752202 181.643,102.564 C181.1565,102.1475 181.363,101.367 181.608,100.7755 L182.77,97.9755 C182.960721,97.3966907 183.278866,96.8680428 183.701,96.4285 C184.2925,95.9035 185.1255,95.774 185.9095,95.6795 C188.461,95.3855 191.086,95.2875 193.5605,95.977 C196.035,96.6665 198.3625,98.2345 199.4685,100.555 C199.9305,101.521 200.144,102.739 199.5315,103.6175 C198.6215,104.923 196.581,106.3825 195.0585,105.6685 C193.235,104.804 191.8385,103.6595 189.7945,103.2255 Z" id="Path" fill="#00242C"></path>
            <path d="M202.3,56.0805 C200.278345,56.0588445 198.29476,56.6307985 196.595,57.7255 C193.31865,54.620907 188.624173,53.5215166 184.31,54.8485 C183.686261,51.2692902 180.477653,48.726771 176.850626,48.9376513 C173.223599,49.1485316 170.331265,52.0457679 170.126527,55.6731465 C169.92179,59.300525 172.469739,62.5048236 176.05,63.1225 C174.793943,67.4127239 175.922106,72.0471525 179.009521,75.2800413 C182.096936,78.5129302 186.67455,79.8531265 191.018021,78.7957914 C195.361492,77.7384562 198.810944,74.444224 200.067,70.154 C200.805275,70.3051162 201.556917,70.3813358 202.3105,70.3815 C207.2455,70.3815 211.2495,67.179 211.2495,63.231 C211.2495,59.283 207.228,56.0805 202.3,56.0805 Z" id="Path" fill="#3F3D56"></path>
            <path d="M204.0815,66.8045 C203.327807,66.806543 202.57594,66.7303007 201.838,66.577 C201.487472,67.8571397 200.93449,69.0729903 200.2,70.1785 C200.892086,70.3118674 201.595183,70.3798334 202.3,70.3815 C206.913,70.3815 210.7,67.5815 211.1865,63.9975 C209.545,65.7055 206.9725,66.8045 204.0815,66.8045 Z" id="Path" fill="#000000" opacity="0.1"></path>
            <path d="M189.7805,75.7435 C185.810457,75.7377675 182.078018,73.8509421 179.71946,70.6574359 C177.360903,67.4639297 176.655314,63.3416296 177.8175,59.5455 C174.399015,58.9440659 171.906164,55.9744884 171.906,52.5035 C171.905284,52.0738681 171.943946,51.6450747 172.0215,51.2225 C170.243259,53.1436421 169.656979,55.8829408 170.493116,58.3636269 C171.329253,60.844313 173.454132,62.6697917 176.0325,63.1225 C174.026456,69.7093031 177.719177,76.6791579 184.295643,78.718835 C190.872109,80.7585121 197.860743,77.101457 199.934,70.5355 C197.586918,73.8067517 193.806649,75.7457519 189.7805,75.7435 L189.7805,75.7435 Z" id="Path" fill="#000000" opacity="0.1"></path>
            <rect id="Rectangle" fill="#3A3768" transform="translate(234.835099, 97.463812) rotate(35.510000) translate(-234.835099, -97.463812) " x="234.717849" y="96.4943117" width="1" height="1.939" rx="0.119"></rect>
            <rect id="Rectangle" fill="#3A3768" transform="translate(229.692607, 91.126252) rotate(35.510000) translate(-229.692607, -91.126252) " x="229.626107" y="90.8077517" width="1" height="1" rx="0.0665"></rect>
            <rect id="Rectangle" fill="#3A3768" transform="translate(228.873985, 92.275136) rotate(35.510000) translate(-228.873985, -92.275136) " x="228.800485" y="91.7203863" width="1" height="1.1095" rx="0.0735"></rect>
            <rect id="Rectangle" fill="#3A3768" transform="translate(228.003553, 93.499673) rotate(35.510000) translate(-228.003553, -93.499673) " x="227.933553" y="92.9396727" width="1" height="1.12" rx="0.07"></rect>
            <rect id="Rectangle" fill="#3A3768" transform="translate(229.992244, 98.603231) rotate(35.510000) translate(-229.992244, -98.603231) " x="226.058244" y="90.6074814" width="7.868" height="15.9915" rx="0.882"></rect>
            <rect id="Rectangle" fill="#000000" opacity="0.1" transform="translate(229.992244, 98.603231) rotate(35.510000) translate(-229.992244, -98.603231) " x="226.058244" y="90.6074814" width="7.868" height="15.9915" rx="0.882"></rect>
            <rect id="Rectangle" fill="#3A3768" transform="translate(229.667913, 97.950743) rotate(35.510000) translate(-229.667913, -97.950743) " x="225.733913" y="89.9549931" width="7.868" height="15.9915" rx="0.882"></rect>
            <path d="M236.348,93.4255 L235.6165,92.9005 L235.5535,92.988 C235.3914,93.2109527 235.081681,93.2651535 234.8535,93.1105 L232.5155,91.441 C232.284619,91.2756592 232.231357,90.9545229 232.3965,90.7235 L232.4595,90.636 L231.7595,90.146 C231.62504,90.0490543 231.457488,90.0096917 231.293926,90.0366237 C231.130364,90.0635556 230.984278,90.1545612 230.888,90.2895 L222.81,101.612 C222.610102,101.892548 222.674205,102.281855 222.9535,102.4835 L227.5525,105.763 C227.68739,105.85959 227.855234,105.898388 228.01883,105.870794 C228.182425,105.843199 228.328257,105.751492 228.424,105.616 L236.502,94.297 C236.597888,94.1612515 236.635561,93.9928166 236.606641,93.8291529 C236.57772,93.6654891 236.484604,93.5201655 236.348,93.4255 L236.348,93.4255 Z" id="Path" fill="#A3B800"></path>
            <rect id="Rectangle" fill="#E6E8EC" transform="translate(233.797181, 91.803278) rotate(35.510000) translate(-233.797181, -91.803278) " x="233.247681" y="91.6912776" width="1.099" height="1" rx="0.112"></rect>
            <circle id="Oval" fill="#E6E8EC" cx="234.465" cy="92.302" r="1"></circle>
            <path d="M234.5,4.8755 C221.548923,4.8755 211.05,15.3744226 211.05,28.3255 C211.05,41.2755 235.62,84.1645 235.62,84.1645 C235.62,84.1645 257.95,41.293 257.95,28.3255 C257.95,15.3744226 247.451077,4.8755 234.5,4.8755 L234.5,4.8755 Z M234.5,43.9635 C227.715182,43.9635 222.215,38.4633182 222.215,31.6785 C222.215,24.8936818 227.715182,19.3935 234.5,19.3935 C241.284818,19.3935 246.785008,24.8936818 246.785008,31.6785 C246.788717,34.9387878 245.495937,38.0667643 243.191549,40.373122 C240.887161,42.6794797 237.76029,43.9749312 234.5,43.9740005 L234.5,43.9635 Z" id="Shape" fill="#A3B800"></path>
            <path d="M234.5,4.8755 C221.548923,4.8755 211.05,15.3744226 211.05,28.3255 C211.05,41.2755 235.62,84.1645 235.62,84.1645 C235.62,84.1645 257.95,41.293 257.95,28.3255 C257.95,15.3744226 247.451077,4.8755 234.5,4.8755 L234.5,4.8755 Z M234.5,43.9635 C227.715182,43.9635 222.215,38.4633182 222.215,31.6785 C222.215,24.8936818 227.715182,19.3935 234.5,19.3935 C241.284818,19.3935 246.785008,24.8936818 246.785008,31.6785 C246.788717,34.9387878 245.495937,38.0667643 243.191549,40.373122 C240.887161,42.6794797 237.76029,43.9749312 234.5,43.9740005 L234.5,43.9635 Z" id="Shape" fill="#000000" opacity="0.1"></path>
            <path d="M234.5,-1.42108547e-14 C221.548923,-1.42108547e-14 211.05,10.4989226 211.05,23.45 C211.05,36.4 235.62,84.175 235.62,84.175 C235.62,84.175 257.95,36.407 257.95,23.4535 C257.950928,17.2335669 255.48072,11.2680685 251.082892,6.86958337 C246.685063,2.47109828 240.719933,-1.42108547e-14 234.5,-1.42108547e-14 L234.5,-1.42108547e-14 Z M234.5,39.088 C227.715182,39.088 222.215,33.5878182 222.215,26.803 C222.215,20.0181818 227.715182,14.518 234.5,14.518 C241.284818,14.518 246.785,20.0181818 246.785,26.803 C246.785,30.0611846 245.490691,33.1859224 243.186807,35.4898068 C240.882922,37.7936912 237.758185,39.088 234.5,39.088 Z" id="Shape" fill="#A3B800"></path>
        </g>
    </g>
</svg>