<?xml version="1.0" encoding="UTF-8"?>
<svg width="1024px" height="600px" viewBox="0 0 1024 600" version="1.1" xmlns="http://www.w3.org/2000/svg" xmlns:xlink="http://www.w3.org/1999/xlink">
    <title>music branding hero</title>
    <defs>
        <polygon id="path-1" points="0 0 8 0 8 25 0 25"></polygon>
        <polygon id="path-3" points="0 0 9 0 9 25 0 25"></polygon>
        <polygon id="path-5" points="3e-05 0.108285714 20.6780312 0.108285714 20.6780312 24 3e-05 24"></polygon>
        <polygon id="path-7" points="0 0 25 0 25 26 0 26"></polygon>
    </defs>
    <g id="music-branding-hero" stroke="none" stroke-width="1" fill="none" fill-rule="evenodd">
        <rect fill="#0084FF" x="0" y="0" width="1024" height="600"></rect>
        <g id="undraw_media_player_ylg8" transform="translate(295.000000, 345.000000)">
            <path d="M175.941326,254 L173.238993,254 C172.002431,254 171,253.087102 171,251.960985 L171,245 L175.941339,245 L177.927443,251.631945 C178.096265,252.195669 177.966817,252.798845 177.577358,253.263203 C177.187898,253.727561 176.582964,254 175.941343,254 L175.941326,254 Z" id="Path" fill="#605D82" fill-rule="nonzero"></path>
            <rect id="Rectangle" fill="#F2F2F2" fill-rule="nonzero" x="34" y="80" width="303" height="115" rx="6.612205"></rect>
            <rect id="Rectangle" stroke="#3F3D56" stroke-width="0.5" fill-opacity="0.9" fill="#FFFFFF" x="1" y="0" width="411" height="223" rx="6.8189"></rect>
            <line x1="0" y1="16" x2="411" y2="16" id="Path" stroke="#3F3D56" stroke-width="0.5"></line>
            <line x1="0" y1="43" x2="411" y2="43" id="Path" stroke="#3F3D56" stroke-width="0.5"></line>
            <circle id="Oval" fill="#F86B75" fill-rule="nonzero" cx="10.5" cy="9.5" r="4.5"></circle>
            <circle id="Oval" fill="#FAD375" fill-rule="nonzero" cx="23.5" cy="9.5" r="4.5"></circle>
            <circle id="Oval" fill="#8BCC55" fill-rule="nonzero" cx="36.5" cy="9.5" r="4.5"></circle>
            <circle id="Oval" stroke="#3F3D56" stroke-width="0.5" cx="11.5" cy="7.5" r="4.5"></circle>
            <circle id="Oval" stroke="#3F3D56" stroke-width="0.5" cx="24.5" cy="7.5" r="4.5"></circle>
            <circle id="Oval" stroke="#3F3D56" stroke-width="0.5" cx="38.5" cy="7.5" r="4.5"></circle>
            <circle id="Oval" fill="#F2F2F2" fill-rule="nonzero" cx="96.5" cy="31.5" r="8.5"></circle>
            <circle id="Oval" stroke="#3F3D56" stroke-width="0.5" cx="98.5" cy="29.5" r="8.5"></circle>
            <rect id="Rectangle" fill="#94CE51" fill-rule="nonzero" x="216" y="27" width="42" height="12" rx="2.711615"></rect>
            <rect id="Rectangle" fill="#94CE51" fill-rule="nonzero" x="276" y="27" width="42" height="12" rx="2.711615"></rect>
            <rect id="Rectangle" stroke="#3F3D56" stroke-width="0.5" x="219" y="23" width="42" height="12" rx="2.11122"></rect>
            <rect id="Rectangle" stroke="#3F3D56" stroke-width="0.5" x="279" y="23" width="42" height="12" rx="2.11122"></rect>
            <rect id="Rectangle" stroke="#3F3D56" stroke-width="0.5" fill-opacity="0.9" fill="#FFFFFF" x="49" y="71" width="303" height="115" rx="8.00197"></rect>
            <path d="M192.610684,156 C202.580909,150.641768 208.561488,139.995443 207.9583,128.678947 C207.355112,117.36245 200.276818,107.414369 189.793679,103.149758 C179.31054,98.8851464 167.31102,101.072244 159,108.762381 M172.96263,122.059373 L172.96263,117.081518 L190.477946,130.238606 L186.445828,133.025217" id="Shape" stroke="#3F3D56" stroke-width="0.5"></path>
            <path d="M175,104 C158.983742,104 146,116.983742 146,133 C146,149.016258 158.983742,162 175,162 C191.016258,162 204,149.016258 204,133 C203.992586,116.986814 191.013186,104.007414 175,104 Z M169.2,146.05 L169.2,119.95 L186.6,133 L169.2,146.05 Z" id="Shape" fill="#052B50" fill-rule="nonzero"></path>
            <path d="M164.124676,184.312203 C164.124676,184.312203 158.925919,202.345486 158.699885,210.235075 C158.47385,218.124663 157.569719,230.747957 158.247819,233.903781 C158.925919,237.059606 160.960215,243.371268 160.960215,243.371268 C160.960215,243.371268 165.254837,238.186692 166.837085,241.117103 C166.837085,241.117103 166.611055,235.030864 165.480889,233.227535 C165.480889,233.227535 165.932954,223.760049 165.932954,220.378807 C165.932954,216.997564 171.583777,201.443839 172.035842,201.218425 C172.487907,200.993011 173.844103,205.501331 172.713942,215.41965 C171.583781,225.337968 170.679646,242.699826 170.679646,244.503158 C170.679646,246.306491 173.392038,249.913147 175.200303,248.786069 C177.008569,247.658991 178.13873,237.961274 178.13873,237.961274 C178.13873,237.961274 179.720948,217.67381 180.625091,215.41965 C181.529234,213.165489 186.275913,187.242592 182.659387,185.213867 C179.04286,183.185142 164.124676,184.312203 164.124676,184.312203 Z" id="Path" fill="#46455B" fill-rule="nonzero"></path>
            <path d="M167.869391,242.493034 C167.649217,243.39809 166.76853,247.697107 166.76853,249.054696 C166.76853,250.412284 167.649217,252.901185 163.906294,253.806241 C160.260233,254.688653 160.793056,252.349102 160.211802,250.973412 C160.196402,250.937214 160.180998,250.901004 160.163371,250.864807 C159.502853,249.507224 161.044058,242.493034 161.264228,242.493034 C161.393584,242.493034 162.434939,240.69667 163.271999,239.214759 C163.626804,238.574887 164.247246,238.137265 164.955821,238.027094 C165.664396,237.916923 166.383042,238.146339 166.906158,238.649709 C167.608332,239.348816 168.003054,240.311732 167.999314,241.316444 C168.006109,241.712785 167.962431,242.108336 167.869391,242.493034 Z" id="Path" fill="#605D82" fill-rule="nonzero"></path>
            <path d="M167.865839,242.846072 C167.639678,243.723361 166.73504,247.890483 166.73504,249.20642 C166.73504,250.522356 167.639678,252.934897 163.794965,253.812186 C160.049748,254.667524 160.597062,252.399753 160,251.066269 C160.649103,249.43013 162.225431,245.914387 163.342646,242.846072 C164.32869,240.13525 166.753151,241.019111 167.999295,241.705593 C168.006274,242.08977 167.961408,242.473181 167.865839,242.846072 L167.865839,242.846072 Z" id="Path" fill="#000000" fill-rule="nonzero" opacity="0.1"></path>
            <circle id="Oval" fill="#FBBEBE" fill-rule="nonzero" cx="174" cy="144" r="5"></circle>
            <path d="M170.666668,144.073244 L170,151.626655 L178,153 C178,153 177.111112,146.362157 177.77778,144.988812 C178.444448,143.615466 170.666668,144.073244 170.666668,144.073244 Z" id="Path" fill="#FBBEBE" fill-rule="nonzero"></path>
            <path d="M176.586777,150.302789 C176.586777,150.302789 169.64463,149.621513 169.181817,150.302789 C168.879573,150.862525 168.720729,151.486055 168.719007,152.119521 C168.719007,152.119521 165.94215,153.25498 165.479341,152.800797 C165.016532,152.346614 164.553718,150.984066 163.165289,151.438249 C161.776861,151.892431 159,160.06773 159,160.06773 C159,160.06773 159.694216,157.569723 160.851238,167.10757 C162.008259,176.645417 161.776861,182.549802 162.008264,183.231074 C162.239666,183.912346 160.851238,188 169.181817,188 C177.512395,188 183.528927,187.545817 183.528927,185.956175 C183.528927,184.366533 182.140499,177.553787 183.528927,172.557751 C184.917355,167.561714 187,160.748985 187,160.748985 L184.223143,151.892414 C184.223143,151.892414 181.446282,151.211138 180.752066,152.346597 C180.05785,153.482056 178.206612,153.254963 178.206612,153.254963 C178.206612,153.254963 177.975209,150.529879 176.586777,150.302789 Z" id="Path" fill="#605D82" fill-rule="nonzero"></path>
            <path d="M164,152.531469 L158.261082,150.015116 C158.261082,150.015116 147.471939,141.779779 147.93103,134.459478 C147.93103,134.459478 144.258122,131.028085 144.028564,134.688235 C143.799005,138.348385 144.946789,146.583723 147.701471,149.328837 C150.456153,152.07395 159.867979,160.766806 161.245335,160.995563 C162.622691,161.22432 164,152.531469 164,152.531469 Z" id="Path" fill="#605D82" fill-rule="nonzero"></path>
            <path d="M144.214365,135 C144.214365,135 139.575547,123.572856 143.726068,124.012361 C147.87659,124.451865 146.899997,129.28642 146.899997,129.28642 L146.899997,135 L144.214365,135 Z" id="Path" fill="#FBBEBE" fill-rule="nonzero"></path>
            <path d="M183,152.531468 L188.738918,150.015115 C188.738918,150.015115 199.528083,141.779778 199.06897,134.459476 C199.06897,134.459476 202.741878,131.028087 202.971436,134.688233 C203.200995,138.34838 202.053211,146.583722 199.298529,149.328836 C196.543847,152.07395 187.132021,160.766806 185.754665,160.995563 C184.377309,161.22432 183,152.531468 183,152.531468 Z" id="Path" fill="#605D82" fill-rule="nonzero"></path>
            <path d="M202.785635,135 C202.785635,135 207.424453,123.572856 203.273932,124.012361 C199.12341,124.451865 200.100003,129.28642 200.100003,129.28642 L200.100003,135 L202.785635,135 Z" id="Path" fill="#FBBEBE" fill-rule="nonzero"></path>
            <path d="M178.104467,137.948411 L178.771698,137.505128 C178.771698,137.505128 174.545907,135.06707 172.76663,136.396919 C170.987353,137.726767 170.542529,138.834977 170.09771,139.278264 C169.65289,139.721551 168.540852,142.159604 169.208071,143.04617 C169.875289,143.932736 169.65289,144.114444 170.09771,144.910156 C170.542529,145.705867 169.320634,148.906943 172.711706,149.855285 C176.102777,150.803627 178.771698,146.814081 179.216517,145.927511 C179.661336,145.040941 181.218206,139.05662 178.104467,137.948411 Z" id="Path" fill="#46455B" fill-rule="nonzero"></path>
            <path d="M353,202 C353,226.873045 368.654296,247 388,247" id="Path" fill="#46455B" fill-rule="nonzero"></path>
            <path d="M388,248 C388,222.574218 405.443358,202 427,202" id="Path" fill="#052B50" fill-rule="nonzero"></path>
            <path d="M365,205 C365,228.767583 375.287107,248 388,248" id="Path" fill="#052B50" fill-rule="nonzero"></path>
            <path d="M388,248 C388,215.388673 408.574219,189 434,189" id="Path" fill="#46455B" fill-rule="nonzero"></path>
            <path d="M380,248.573796 C380,248.573796 385.106163,248.427097 386.64503,247.404892 C388.183898,246.382687 394.499591,245.162123 394.881347,246.801512 C395.263104,248.440901 402.554961,254.955086 396.790129,254.998461 C391.025297,255.041836 383.395225,254.160816 381.859318,253.28808 C380.323411,252.415345 380,248.573796 380,248.573796 Z" id="Path" fill="#A8A8A8" fill-rule="nonzero"></path>
            <path d="M396.894185,254.377299 C391.128952,254.424514 383.498353,253.465743 381.962335,252.515993 C380.792577,251.792704 380.326443,249.197382 380.17048,248 C380.062464,248.004716 380,248.006744 380,248.006744 C380,248.006744 380.323438,252.187264 381.859452,253.137019 C383.395466,254.086774 391.026069,255.04554 396.791303,254.998325 C398.455496,254.984699 399.030339,254.383681 398.998776,253.493517 C398.767579,254.031328 398.132855,254.36716 396.894185,254.377299 Z" id="Path" fill="#000000" fill-rule="nonzero" opacity="0.2"></path>
            <line x1="118" y1="254" x2="219" y2="254" id="Path" stroke="#3F3D56" stroke-width="0.5"></line>
            <line x1="374" y1="254" x2="406" y2="254" id="Path" stroke="#3F3D56" stroke-width="0.5"></line>
        </g>
        <g id="Group-3" transform="translate(476.000000, 104.000000)">
            <mask id="mask-2" fill="white">
                <use xlink:href="#path-1"></use>
            </mask>
            <g id="Clip-2"></g>
        </g>
        <path d="M351,180 L351,138.860656 L357.946108,138.860656 L358.640719,141.614754 C359.798409,140.505459 361.197264,139.625686 362.837325,138.97541 C364.477387,138.325133 366.146365,138 367.844311,138 C371.58751,138 374.549224,139.35791 376.729541,142.07377 C378.909858,144.789631 380,148.461725 380,153.090164 C380,156.112037 379.498342,158.808731 378.49501,161.180328 C377.491678,163.551924 376.044587,165.41666 374.153693,166.77459 C372.262798,168.13252 370.082514,168.811475 367.612774,168.811475 C366.030598,168.811475 364.525623,168.562844 363.097804,168.065574 C361.669986,167.568304 360.45443,166.879786 359.451098,166 L359.451098,180 L351,180 Z M364.681159,144 C362.671488,144 360.777787,144.511036 359,145.533123 L359,160.466877 C360.700492,161.488964 362.594192,162 364.681159,162 C366.845421,162 368.439608,161.280764 369.463768,159.842271 C370.487928,158.403778 371,156.132508 371,153.028391 C371,149.88642 370.49759,147.596222 369.492754,146.157729 C368.487918,144.719236 366.884069,144 364.681159,144 Z M387,168 L387,138.290698 L393.930091,138.290698 L394.969605,142.709302 C396.509633,141.003867 397.963012,139.792639 399.329787,139.075581 C400.696562,138.358524 402.149942,138 403.68997,138 C404.421483,138 405.191489,138.058139 406,138.174419 L406,146.023256 C404.92198,145.790697 403.728477,145.674419 402.419453,145.674419 C399.916907,145.674419 397.58765,146.120151 395.431611,147.011628 L395.431611,168 L387,168 Z M411,168 L411,139 L419,139 L419,168 L411,168 Z M415,134 C413.492056,134 412.281751,133.596158 411.369048,132.788462 C410.456345,131.980765 410,130.884622 410,129.5 C410,128.115378 410.456345,127.019231 411.369048,126.211538 C412.281751,125.403842 413.492056,125 415,125 C416.507944,125 417.718249,125.403842 418.630952,126.211538 C419.543655,127.019231 420,128.115378 420,129.5 C420,130.884622 419.543655,131.980765 418.630952,132.788462 C417.718249,133.596158 416.507944,134 415,134 Z M464.56611,168 L464.56611,148.26616 C464.56611,145.680595 463.391539,144.387833 461.042362,144.387833 C458.962762,144.387833 456.863939,144.882124 454.745828,145.870722 L454.745828,168 L446.311938,168 L446.311938,148.26616 C446.311938,145.680595 445.137367,144.387833 442.78819,144.387833 C440.631568,144.387833 438.513489,144.901136 436.43389,145.927757 L436.43389,168 L428,168 L428,138.855513 L434.931964,138.855513 L435.682927,141.65019 C437.724015,140.319385 439.562893,139.37833 441.199615,138.826996 C442.836337,138.275663 444.521172,138 446.254172,138 C449.720171,138 452.16559,139.216718 453.590501,141.65019 C455.554567,140.357408 457.403072,139.425856 459.136072,138.855513 C460.869072,138.285171 462.659811,138 464.508344,138 C467.204121,138 469.293317,138.741437 470.775995,140.224335 C472.258672,141.707232 473,143.779454 473,146.441065 L473,168 L464.56611,168 Z M487.010989,155.534196 C487.169232,158.055465 487.960432,159.879538 489.384615,161.00647 C490.808798,162.133401 493.043941,162.696858 496.09011,162.696858 C498.740673,162.696858 501.826356,162.219352 505.347253,161.264325 L505.347253,166.822551 C503.96263,167.510166 502.310999,168.044977 500.392308,168.426987 C498.473617,168.808998 496.485725,169 494.428571,169 C489.40437,169 485.576936,167.682083 482.946154,165.046211 C480.315371,162.410338 479,158.552089 479,153.471349 C479,148.581614 480.305481,144.780667 482.916484,142.068392 C485.527486,139.356117 489.14723,138 493.775824,138 C497.692327,138 500.708781,139.040963 502.825275,141.122921 C504.941769,143.204878 506,146.174965 506,150.033272 C506,150.873695 505.94066,151.828707 505.821978,152.898336 C505.703297,153.967966 505.564836,154.846577 505.406593,155.534196 L487.010989,155.534196 Z M492.173469,144 C490.340127,144 488.890311,144.513038 487.82398,145.53913 C486.757648,146.565223 486.149661,148.052164 486,150 L497,150 L497,149.113043 C497,145.704331 495.391173,144 492.173469,144 Z M563.56611,168 L563.56611,148.26616 C563.56611,145.680595 562.391539,144.387833 560.042362,144.387833 C557.962762,144.387833 555.863939,144.882124 553.745828,145.870722 L553.745828,168 L545.311938,168 L545.311938,148.26616 C545.311938,145.680595 544.137367,144.387833 541.78819,144.387833 C539.631568,144.387833 537.513489,144.901136 535.43389,145.927757 L535.43389,168 L527,168 L527,138.855513 L533.931964,138.855513 L534.682927,141.65019 C536.724015,140.319385 538.562893,139.37833 540.199615,138.826996 C541.836337,138.275663 543.521172,138 545.254172,138 C548.720171,138 551.16559,139.216718 552.590501,141.65019 C554.554567,140.357408 556.403072,139.425856 558.136072,138.855513 C559.869072,138.285171 561.659811,138 563.508344,138 C566.204121,138 568.293317,138.741437 569.775995,140.224335 C571.258672,141.707232 572,143.779454 572,146.441065 L572,168 L563.56611,168 Z M599.017241,168.144487 L598.202586,165.064639 C594.749983,167.688226 591.14226,169 587.37931,169 C584.741366,169 582.685352,168.230046 581.211207,166.690114 C579.737062,165.150182 579,163.030432 579,160.330798 L579,139 L587.49569,139 L587.49569,157.992395 C587.49569,161.072259 588.853435,162.612167 591.568966,162.612167 C593.586217,162.612167 595.564645,162.003808 597.50431,160.787072 L597.50431,139 L606,139 L606,168.144487 L599.017241,168.144487 Z M627.382429,160.020295 C627.382429,159.257684 627.164516,158.666669 626.728682,158.247232 C626.292849,157.827796 625.411721,157.370236 624.085271,156.874539 L619.651163,155.101476 C617.339351,154.186342 615.67184,153.061507 614.648579,151.726937 C613.625318,150.392367 613.113695,148.695582 613.113695,146.636531 C613.113695,144.043652 614.146415,141.956035 616.211886,140.373616 C618.277357,138.791198 621.034436,138 624.483204,138 C627.666683,138 630.603776,138.629145 633.294574,139.887454 L633.294574,145.435424 C630.414284,144.558421 627.723527,144.119926 625.222222,144.119926 C623.668382,144.119926 622.531442,144.310576 621.81137,144.691882 C621.091297,145.073188 620.731266,145.683268 620.731266,146.52214 C620.731266,147.17036 620.94918,147.694647 621.385013,148.095018 C621.820846,148.495389 622.739872,148.981547 624.142119,149.553506 L628.462532,151.326568 C630.812243,152.279833 632.489228,153.385603 633.49354,154.643911 C634.497852,155.90222 635,157.54181 635,159.562731 C635,162.384393 633.929382,164.66266 631.788114,166.397601 C629.646845,168.132542 626.83292,169 623.346253,169 C619.442702,169 615.993986,168.218335 613,166.654982 L613,161.107011 C616.751957,162.289059 620.181724,162.880074 623.289406,162.880074 C626.018101,162.880074 627.382429,161.926824 627.382429,160.020295 Z M641,168 L641,139 L649,139 L649,168 L641,168 Z M679,167.080675 C677.951893,167.701066 676.690303,168.176046 675.21519,168.505629 C673.740077,168.835211 672.206759,169 670.61519,169 C665.879301,169 662.259506,167.681689 659.755696,165.045028 C657.251886,162.408367 656,158.60853 656,153.645403 C656,148.721051 657.319818,144.88244 659.959494,142.129456 C662.599169,139.376472 666.267487,138 670.964557,138 C673.798326,138 676.418553,138.620382 678.825316,139.861163 L678.825316,145.502814 C676.53501,144.843649 674.438828,144.514071 672.536709,144.514071 C669.819396,144.514071 667.82026,145.202307 666.539241,146.578799 C665.258221,147.955291 664.617722,150.13632 664.617722,153.121951 L664.617722,153.93621 C664.617722,156.883067 665.248517,159.044709 666.510127,160.421201 C667.771736,161.797693 669.72235,162.485929 672.362025,162.485929 C674.264145,162.485929 676.476781,162.136961 679,161.439024 L679,167.080675 Z M436,237.370173 L436,195 L444.451098,195 L444.451098,210.344874 C445.570199,209.390586 446.882228,208.636709 448.387226,208.083222 C449.892223,207.529735 451.377904,207.252996 452.844311,207.252996 C456.58751,207.252996 459.549224,208.608065 461.729541,211.318242 C463.909858,214.02842 465,217.692831 465,222.311585 C465,225.327134 464.498342,228.018186 463.49501,230.38482 C462.491678,232.751454 461.044587,234.612288 459.153693,235.967377 C457.262798,237.322466 455.082514,238 452.612774,238 C450.837649,238 449.178318,237.694632 447.634731,237.083888 C446.091143,236.473144 444.798408,235.614298 443.756487,234.507324 L443.003992,237.370173 L436,237.370173 Z M450.681159,213 C448.671488,213 446.777787,213.511036 445,214.533123 L445,229.466877 C446.700492,230.488964 448.594192,231 450.681159,231 C452.845421,231 454.439608,230.280764 455.463768,228.842271 C456.487928,227.403778 457,225.132508 457,222.028391 C457,218.88642 456.49759,216.596222 455.492754,215.157729 C454.487918,213.719236 452.884069,213 450.681159,213 Z M472,237 L472,207.290698 L478.930091,207.290698 L479.969605,211.709302 C481.509633,210.003867 482.963012,208.792639 484.329787,208.075581 C485.696562,207.358524 487.149942,207 488.68997,207 C489.421483,207 490.191489,207.058139 491,207.174419 L491,215.023256 C489.92198,214.790697 488.728477,214.674419 487.419453,214.674419 C484.916907,214.674419 482.58765,215.120151 480.431611,216.011628 L480.431611,237 L472,237 Z M513.204545,237.084871 L512.495455,234.51107 C511.274236,235.578726 509.865917,236.427119 508.270455,237.056273 C506.674992,237.685428 505.128795,238 503.631818,238 C500.716652,238 498.382585,237.19927 496.629545,235.597786 C494.876506,233.996302 494,231.861022 494,229.191882 C494,227.361614 494.472723,225.750622 495.418182,224.358856 C496.363636,222.96709 497.722718,221.870849 499.495455,221.070111 C501.268191,220.269369 503.356049,219.869004 505.759091,219.869004 C507.650009,219.869004 509.737867,220.116849 512.022727,220.612546 L512.022727,217.752768 C512.022727,215.998761 511.648489,214.797666 510.9,214.149446 C510.151511,213.501227 508.772737,213.177122 506.763636,213.177122 C503.533317,213.177122 499.968201,213.768137 496.068182,214.950185 L496.068182,209.402214 C497.525765,208.677733 499.357565,208.096251 501.563636,207.657749 C503.769708,207.219248 506.01514,207 508.3,207 C512.357596,207 515.32196,207.791198 517.193182,209.373616 C519.064403,210.956035 520,213.444017 520,216.837638 L520,237.084871 L513.204545,237.084871 Z M505.524096,232 C506.427715,232 507.358429,231.782718 508.316265,231.348148 C509.274101,230.913578 510.168671,230.320991 511,229.57037 L511,224.414815 C509.409631,224.13827 507.981934,224 506.716867,224 C503.572273,224 502,225.382702 502,228.148148 C502,229.372846 502.307226,230.320984 502.921687,230.992593 C503.536148,231.664201 504.403609,232 505.524096,232 Z M546.375527,237 L546.375527,217.893536 C546.375527,216.334593 546.021101,215.19392 545.312236,214.471483 C544.603372,213.749046 543.520401,213.387833 542.063291,213.387833 C539.897317,213.387833 537.751065,214.034214 535.624473,215.326996 L535.624473,237 L527,237 L527,207.855513 L534.088608,207.855513 L534.915612,210.992395 C538.459933,208.330785 542.240486,207 546.257384,207 C549.05346,207 551.209556,207.731932 552.725738,209.195817 C554.24192,210.659703 555,212.741431 555,215.441065 L555,237 L546.375527,237 Z M582.604418,237.370173 L581.905622,234.793609 C579.498649,236.931214 576.645264,238 573.345382,238 C570.899586,238 568.744989,237.398808 566.881526,236.196405 C565.018063,234.994002 563.57196,233.247681 562.543173,230.95739 C561.514386,228.667099 561,225.976047 561,222.884154 C561,218.150886 562.145236,214.36242 564.435743,211.518642 C566.72625,208.674864 569.754332,207.252996 573.52008,207.252996 C576.58703,207.252996 579.246307,208.111842 581.497992,209.829561 L581.497992,195 L590,195 L590,237.370173 L582.604418,237.370173 Z M575.588235,231 C577.470598,231 579.274501,230.470037 581,229.410095 L581,214.419558 C579.313717,213.473181 577.37256,213 575.176471,213 C573.098029,213 571.549025,213.747627 570.529412,215.242902 C569.509799,216.738178 569,218.999985 569,222.028391 C569,225.056797 569.53921,227.309141 570.617647,228.785489 C571.696084,230.261837 573.35293,231 575.588235,231 Z M598,237 L598,208 L606,208 L606,237 L598,237 Z M602,203 C600.492056,203 599.281751,202.596158 598.369048,201.788462 C597.456345,200.980765 597,199.884622 597,198.5 C597,197.115378 597.456345,196.019231 598.369048,195.211538 C599.281751,194.403842 600.492056,194 602,194 C603.507944,194 604.718249,194.403842 605.630952,195.211538 C606.543655,196.019231 607,197.115378 607,198.5 C607,199.884622 606.543655,200.980765 605.630952,201.788462 C604.718249,202.596158 603.507944,203 602,203 Z M633.375527,237 L633.375527,217.893536 C633.375527,216.334593 633.021101,215.19392 632.312236,214.471483 C631.603372,213.749046 630.520401,213.387833 629.063291,213.387833 C626.897317,213.387833 624.751065,214.034214 622.624473,215.326996 L622.624473,237 L614,237 L614,207.855513 L621.088608,207.855513 L621.915612,210.992395 C625.459933,208.330785 629.240486,207 633.257384,207 C636.05346,207 638.209556,207.731932 639.725738,209.195817 C641.24192,210.659703 642,212.741431 642,215.441065 L642,237 L633.375527,237 Z M668.634855,233.817204 C666.427375,235.782268 663.832657,236.764785 660.850622,236.764785 C657.248945,236.764785 654.373455,235.425865 652.224066,232.747984 C650.074678,230.070103 649,226.496438 649,222.026882 C649,217.480264 650.08436,213.839171 652.253112,211.103495 C654.421864,208.367818 657.3264,207 660.966805,207 C662.593369,207 664.123091,207.288978 665.556017,207.866935 C666.988942,208.444892 668.266938,209.292557 669.390041,210.409946 L670.029046,207.866935 L677,207.866935 L677,235.08871 C677,239.78945 675.683277,243.449808 673.049793,246.069892 C670.416308,248.689977 666.775957,250 662.128631,250 C658.372042,250 654.809145,249.171603 651.439834,247.514785 L651.439834,241.850806 C655.273878,243.045257 658.585048,243.642473 661.373444,243.642473 C663.929473,243.642473 665.778694,243.054889 666.921162,241.879704 C668.06363,240.704519 668.634855,238.787648 668.634855,236.129032 L668.634855,233.817204 Z M663.901042,230 C664.779518,230 665.66753,229.857861 666.565104,229.573579 C667.462678,229.289296 668.274302,228.900783 669,228.408027 L669,214.421405 C667.43402,213.473797 665.600705,213 663.5,213 C659.833315,213 658,215.804877 658,221.414716 C658,224.333348 658.477426,226.493861 659.432292,227.896321 C660.387158,229.298781 661.876726,230 663.901042,230 Z" id="primemusicbranding" fill="#052B50" fill-rule="nonzero"></path>
        <g id="Group-3" transform="translate(478.000000, 100.000000)">
            <mask id="mask-4" fill="white">
                <use xlink:href="#path-3"></use>
            </mask>
            <g id="Clip-2"></g>
            <path d="M9,21.176217 L9,21.1702057 L9,21.1627435 L8.8862,0 L7.766,0 L7.8514,18.6216389 C7.0302,17.8113625 5.825,17.2989545 4.4804,17.2989545 C2.006,17.2989545 0,19.0322701 0,21.1702057 C0,23.3081413 2.006,25 4.4804,25 C6.9334,25 8.9246,23.4231844 8.9592,21.1430514 L9,21.1430514 L9,21.176217 Z" id="Fill-1" fill="#052B50" mask="url(#mask-4)"></path>
        </g>
        <g id="Group-8" transform="translate(372.000000, 202.000000)">
            <g id="Group-3">
                <mask id="mask-6" fill="white">
                    <use xlink:href="#path-5"></use>
                </mask>
                <g id="Clip-2"></g>
                <path d="M18.16773,3.51934286 C17.10513,2.26991429 15.72153,1.34277143 14.30973,0.791057143 C14.13333,0.720485714 13.95783,0.652771429 13.77933,0.597628571 L13.51443,0.510771429 L13.35963,0.461914286 L13.24053,0.429914286 L12.99723,0.364771429 L12.70683,0.297057143 C12.51333,0.252485714 12.33873,0.2262 12.15513,0.197342857 C11.42673,0.0953428571 10.70943,0.0813428571 10.03353,0.152771429 C8.67723,0.289057143 7.51413,0.732771429 6.59823,1.24105714 C5.67963,1.75905714 5.02623,2.38734286 4.58193,2.95191429 C4.13373,3.51791429 3.89283,4.02734286 3.74943,4.37762857 C3.67893,4.5542 3.63393,4.69248571 3.60873,4.78905714 C3.59973,4.81848571 3.59313,4.8422 3.58743,4.86334286 C3.38883,5.27248571 3.27183,5.72591429 3.26043,6.20534286 C3.21603,8.07477143 4.77093,9.62505714 6.73383,9.66734286 C8.69673,9.70962857 10.32393,8.2282 10.36863,6.35905714 C10.41093,4.58505714 9.01143,3.10105714 7.19103,2.91791429 C7.28103,2.8762 7.36773,2.83391429 7.46103,2.79305714 C8.23683,2.44334286 9.16773,2.1842 10.17903,2.1682 C11.18913,2.1462 12.26253,2.38477143 13.33023,2.88534286 C14.39703,3.37448571 15.38403,4.10134286 16.17723,5.05077143 C16.57023,5.52734286 16.92183,6.05277143 17.21223,6.62305714 C17.49603,7.1962 17.73093,7.80677143 17.90343,8.44534286 C18.24903,9.72334286 18.32343,11.1059143 18.16593,12.4716286 C18.08763,13.1587714 17.95053,13.8313429 17.75583,14.4907714 C17.55123,15.1696286 17.31093,15.7876286 16.98183,16.3910571 C16.66113,16.9904857 16.29123,17.5647714 15.86793,18.0970571 C15.44463,18.6296286 14.96523,19.1144857 14.45973,19.5610571 C13.44363,20.4479143 12.31053,21.1759143 11.14713,21.7119143 C9.98703,22.2570571 8.80923,22.6324857 7.69443,22.8836286 C6.57633,23.1224857 5.52153,23.2453429 4.57953,23.2776286 C3.63753,23.3073429 2.80923,23.2679143 2.12883,23.1967714 C1.44963,23.1139143 0.91773,23.0322 0.55503,22.9550571 C0.19293,22.8767714 3e-05,22.8350571 3e-05,22.8350571 C3e-05,22.8350571 0.18303,22.9064857 0.52653,23.0404857 C0.87063,23.1687714 1.38873,23.3507714 2.06403,23.5242 C2.74143,23.6882 3.57993,23.8576286 4.56063,23.9373429 C5.53983,24.0193429 6.66183,24.0359143 7.87773,23.8947714 C9.08913,23.7464857 10.40763,23.4893429 11.73033,22.9896286 C12.39513,22.7496286 13.06143,22.4544857 13.71813,22.1039143 C14.05083,21.9347714 14.37093,21.7367714 14.69793,21.5407714 C15.01413,21.3296286 15.33453,21.1162 15.64023,20.8773429 C16.87623,19.9416286 18.00183,18.7527714 18.84933,17.3539143 C19.27503,16.6630571 19.61913,15.8899143 19.88823,15.1427714 C20.16243,14.3739143 20.37183,13.5750571 20.50683,12.7733429 C20.77863,11.1622 20.72583,9.49134286 20.35533,7.8902 C19.99143,6.28877143 19.24203,4.75905714 18.16773,3.51934286" id="Fill-1" fill="#052B50" mask="url(#mask-6)"></path>
            </g>
            <path d="M24.5,12 C25.8806579,12 27,10.8806579 27,9.5 C27,8.11934212 25.8806579,7 24.5,7 C23.1193421,7 22,8.11934212 22,9.5 C22,10.8806579 23.1193421,12 24.5,12" id="Fill-4" fill="#052B50"></path>
            <path d="M24.5,14 C23.1193421,14 22,15.1193421 22,16.5 C22,17.8806579 23.1193421,19 24.5,19 C25.8806579,19 27,17.8806579 27,16.5 C27,15.1193421 25.8806579,14 24.5,14" id="Fill-6" fill="#052B50"></path>
        </g>
        <g id="Group-3" transform="translate(625.000000, 104.000000)">
            <mask id="mask-8" fill="white">
                <use xlink:href="#path-7"></use>
            </mask>
            <g id="Clip-2"></g>
            <path d="M25,20.5628243 L25,20.5570801 C25,20.5545051 25,20.5519301 25,20.5495532 L24.9206316,0.329993982 L24.9195705,0.329993982 L24.9182972,0 L8.22333517,1.93797186 L8.251772,4.3594463 L8.33114044,19.9044209 C7.45978524,19.1301433 6.18076482,18.6405004 4.75425491,18.6405004 C2.12851747,18.6405004 0,20.2966106 0,22.3397606 C0,24.3827126 2.12851747,26 4.75425491,26 C7.35643648,26 9.4688256,24.4952195 9.50638767,22.3163877 L9.50829761,22.3163877 L9.50829761,22.3455048 L9.50829761,22.3397606 C9.50829761,22.3371857 9.5080854,22.3346107 9.5080854,22.3322338 L9.43720555,4.22851832 L23.74305,2.49040476 L23.8228428,18.1217403 C22.9514876,17.3474627 21.6724672,16.8578198 20.2459573,16.8578198 C17.6202199,16.8578198 15.4917024,18.51393 15.4917024,20.5570801 C15.4917024,22.600032 17.6202199,24.2173194 20.2459573,24.2173194 C22.8481389,24.2173194 24.960528,22.7125389 24.9980901,20.5337071 L25,20.5337071 L25,20.5628243 Z" id="Fill-1" fill="#052B50" mask="url(#mask-8)"></path>
        </g>
        <path d="M527.206897,181 L527.206897,186.142857 L522.793103,186.142857 L522.793103,182.428571 L521.137931,182.428571 L521.137931,186.142857 L517,186.142857 L517,187.857143 L521.137931,187.857143 L521.137931,192.142857 L517,192.142857 L517,193.857143 L521.137931,193.857143 L521.137931,199 L522.793103,199 L522.793103,193.857143 L527.206897,193.857143 L527.206897,197.571429 L528.862069,197.571429 L528.862069,193.857143 L533,193.857143 L533,192.142857 L528.862069,192.142857 L528.862069,187.857143 L533,187.857143 L533,186.142857 L528.862069,186.142857 L528.862069,181 L527.206897,181 Z M523,192 L527,192 L527,187 L523,187 L523,192 Z" id="Fill-1" fill="#052B50"></path>
    </g>
</svg>