<?xml version="1.0" encoding="UTF-8"?>
<svg width="1024px" height="600px" viewBox="0 0 1024 600" version="1.1" xmlns="http://www.w3.org/2000/svg" xmlns:xlink="http://www.w3.org/1999/xlink">
    <!-- Generator: Sketch 58 (84663) - https://sketch.com -->
    <title>music branding hero</title>
    <desc>Created with Sketch.</desc>
    <defs>
        <polygon id="path-1" points="0 1 8 1 8 26 0 26"></polygon>
        <polygon id="path-3" points="2.85714286e-05 0.110174419 19.693363 0.110174419 19.693363 24.4186047 2.85714286e-05 24.4186047"></polygon>
        <polygon id="path-5" points="0 0 23 0 23 28 0 28"></polygon>
    </defs>
    <g id="music-branding-hero" stroke="none" stroke-width="1" fill="none" fill-rule="evenodd">
        <rect fill="#0D2228" x="0" y="0" width="1024" height="600"></rect>
        <g id="undraw_media_player_ylg8" transform="translate(295.000000, 345.000000)">
            <path d="M175.941326,254 L173.238993,254 C172.002431,254 171,253.087102 171,251.960985 L171,245 L175.941339,245 L177.927443,251.631945 C178.096265,252.195669 177.966817,252.798845 177.577358,253.263203 C177.187898,253.727561 176.582964,254 175.941343,254 L175.941326,254 Z" id="Path" fill="#605D82" fill-rule="nonzero"></path>
            <rect id="Rectangle" fill="#F2F2F2" fill-rule="nonzero" x="34" y="80" width="303" height="115" rx="6.612205"></rect>
            <rect id="Rectangle" stroke="#3F3D56" stroke-width="0.5" fill-opacity="0.9" fill="#FFFFFF" x="1" y="0" width="411" height="223" rx="6.8189"></rect>
            <path d="M0,16 L411,16" id="Path" stroke="#3F3D56" stroke-width="0.5"></path>
            <path d="M0,43 L411,43" id="Path" stroke="#3F3D56" stroke-width="0.5"></path>
            <circle id="Oval" fill="#F86B75" fill-rule="nonzero" cx="10.5" cy="9.5" r="4.5"></circle>
            <circle id="Oval" fill="#FAD375" fill-rule="nonzero" cx="23.5" cy="9.5" r="4.5"></circle>
            <circle id="Oval" fill="#8BCC55" fill-rule="nonzero" cx="36.5" cy="9.5" r="4.5"></circle>
            <circle id="Oval" stroke="#3F3D56" stroke-width="0.5" cx="11.5" cy="7.5" r="4.5"></circle>
            <circle id="Oval" stroke="#3F3D56" stroke-width="0.5" cx="24.5" cy="7.5" r="4.5"></circle>
            <circle id="Oval" stroke="#3F3D56" stroke-width="0.5" cx="38.5" cy="7.5" r="4.5"></circle>
            <circle id="Oval" fill="#F2F2F2" fill-rule="nonzero" cx="96.5" cy="31.5" r="8.5"></circle>
            <circle id="Oval" stroke="#3F3D56" stroke-width="0.5" cx="98.5" cy="29.5" r="8.5"></circle>
            <rect id="Rectangle" fill="#94CE51" fill-rule="nonzero" x="216" y="27" width="42" height="12" rx="2.711615"></rect>
            <rect id="Rectangle" fill="#94CE51" fill-rule="nonzero" x="276" y="27" width="42" height="12" rx="2.711615"></rect>
            <rect id="Rectangle" stroke="#3F3D56" stroke-width="0.5" x="219" y="23" width="42" height="12" rx="2.11122"></rect>
            <rect id="Rectangle" stroke="#3F3D56" stroke-width="0.5" x="279" y="23" width="42" height="12" rx="2.11122"></rect>
            <rect id="Rectangle" stroke="#3F3D56" stroke-width="0.5" fill-opacity="0.9" fill="#FFFFFF" x="49" y="71" width="303" height="115" rx="8.00197"></rect>
            <path d="M192.610684,156 C202.580909,150.641768 208.561488,139.995443 207.9583,128.678947 C207.355112,117.36245 200.276818,107.414369 189.793679,103.149758 C179.31054,98.8851464 167.31102,101.072244 159,108.762381 M172.96263,122.059373 L172.96263,117.081518 L190.477946,130.238606 L186.445828,133.025217" id="Shape" stroke="#3F3D56" stroke-width="0.5"></path>
            <path d="M175,104 C158.983742,104 146,116.983742 146,133 C146,149.016258 158.983742,162 175,162 C191.016258,162 204,149.016258 204,133 C203.992586,116.986814 191.013186,104.007414 175,104 Z M169.2,146.05 L169.2,119.95 L186.6,133 L169.2,146.05 Z" id="Shape" fill="#D4FE07" fill-rule="nonzero"></path>
            <path d="M164.124676,184.312203 C164.124676,184.312203 158.925919,202.345486 158.699885,210.235075 C158.47385,218.124663 157.569719,230.747957 158.247819,233.903781 C158.925919,237.059606 160.960215,243.371268 160.960215,243.371268 C160.960215,243.371268 165.254837,238.186692 166.837085,241.117103 C166.837085,241.117103 166.611055,235.030864 165.480889,233.227535 C165.480889,233.227535 165.932954,223.760049 165.932954,220.378807 C165.932954,216.997564 171.583777,201.443839 172.035842,201.218425 C172.487907,200.993011 173.844103,205.501331 172.713942,215.41965 C171.583781,225.337968 170.679646,242.699826 170.679646,244.503158 C170.679646,246.306491 173.392038,249.913147 175.200303,248.786069 C177.008569,247.658991 178.13873,237.961274 178.13873,237.961274 C178.13873,237.961274 179.720948,217.67381 180.625091,215.41965 C181.529234,213.165489 186.275913,187.242592 182.659387,185.213867 C179.04286,183.185142 164.124676,184.312203 164.124676,184.312203 Z" id="Path" fill="#46455B" fill-rule="nonzero"></path>
            <path d="M167.869391,242.493034 C167.649217,243.39809 166.76853,247.697107 166.76853,249.054696 C166.76853,250.412284 167.649217,252.901185 163.906294,253.806241 C160.260233,254.688653 160.793056,252.349102 160.211802,250.973412 C160.196402,250.937214 160.180998,250.901004 160.163371,250.864807 C159.502853,249.507224 161.044058,242.493034 161.264228,242.493034 C161.393584,242.493034 162.434939,240.69667 163.271999,239.214759 C163.626804,238.574887 164.247246,238.137265 164.955821,238.027094 C165.664396,237.916923 166.383042,238.146339 166.906158,238.649709 C167.608332,239.348816 168.003054,240.311732 167.999314,241.316444 C168.006109,241.712785 167.962431,242.108336 167.869391,242.493034 Z" id="Path" fill="#605D82" fill-rule="nonzero"></path>
            <path d="M167.865839,242.846072 C167.639678,243.723361 166.73504,247.890483 166.73504,249.20642 C166.73504,250.522356 167.639678,252.934897 163.794965,253.812186 C160.049748,254.667524 160.597062,252.399753 160,251.066269 C160.649103,249.43013 162.225431,245.914387 163.342646,242.846072 C164.32869,240.13525 166.753151,241.019111 167.999295,241.705593 C168.006274,242.08977 167.961408,242.473181 167.865839,242.846072 L167.865839,242.846072 Z" id="Path" fill="#000000" fill-rule="nonzero" opacity="0.1"></path>
            <circle id="Oval" fill="#FBBEBE" fill-rule="nonzero" cx="174" cy="144" r="5"></circle>
            <path d="M170.666668,144.073244 L170,151.626655 L178,153 C178,153 177.111112,146.362157 177.77778,144.988812 C178.444448,143.615466 170.666668,144.073244 170.666668,144.073244 Z" id="Path" fill="#FBBEBE" fill-rule="nonzero"></path>
            <path d="M176.586777,150.302789 C176.586777,150.302789 169.64463,149.621513 169.181817,150.302789 C168.879573,150.862525 168.720729,151.486055 168.719007,152.119521 C168.719007,152.119521 165.94215,153.25498 165.479341,152.800797 C165.016532,152.346614 164.553718,150.984066 163.165289,151.438249 C161.776861,151.892431 159,160.06773 159,160.06773 C159,160.06773 159.694216,157.569723 160.851238,167.10757 C162.008259,176.645417 161.776861,182.549802 162.008264,183.231074 C162.239666,183.912346 160.851238,188 169.181817,188 C177.512395,188 183.528927,187.545817 183.528927,185.956175 C183.528927,184.366533 182.140499,177.553787 183.528927,172.557751 C184.917355,167.561714 187,160.748985 187,160.748985 L184.223143,151.892414 C184.223143,151.892414 181.446282,151.211138 180.752066,152.346597 C180.05785,153.482056 178.206612,153.254963 178.206612,153.254963 C178.206612,153.254963 177.975209,150.529879 176.586777,150.302789 Z" id="Path" fill="#605D82" fill-rule="nonzero"></path>
            <path d="M164,152.531469 L158.261082,150.015116 C158.261082,150.015116 147.471939,141.779779 147.93103,134.459478 C147.93103,134.459478 144.258122,131.028085 144.028564,134.688235 C143.799005,138.348385 144.946789,146.583723 147.701471,149.328837 C150.456153,152.07395 159.867979,160.766806 161.245335,160.995563 C162.622691,161.22432 164,152.531469 164,152.531469 Z" id="Path" fill="#605D82" fill-rule="nonzero"></path>
            <path d="M144.214365,135 C144.214365,135 139.575547,123.572856 143.726068,124.012361 C147.87659,124.451865 146.899997,129.28642 146.899997,129.28642 L146.899997,135 L144.214365,135 Z" id="Path" fill="#FBBEBE" fill-rule="nonzero"></path>
            <path d="M183,152.531468 L188.738918,150.015115 C188.738918,150.015115 199.528083,141.779778 199.06897,134.459476 C199.06897,134.459476 202.741878,131.028087 202.971436,134.688233 C203.200995,138.34838 202.053211,146.583722 199.298529,149.328836 C196.543847,152.07395 187.132021,160.766806 185.754665,160.995563 C184.377309,161.22432 183,152.531468 183,152.531468 Z" id="Path" fill="#605D82" fill-rule="nonzero"></path>
            <path d="M202.785635,135 C202.785635,135 207.424453,123.572856 203.273932,124.012361 C199.12341,124.451865 200.100003,129.28642 200.100003,129.28642 L200.100003,135 L202.785635,135 Z" id="Path" fill="#FBBEBE" fill-rule="nonzero"></path>
            <path d="M178.104467,137.948411 L178.771698,137.505128 C178.771698,137.505128 174.545907,135.06707 172.76663,136.396919 C170.987353,137.726767 170.542529,138.834977 170.09771,139.278264 C169.65289,139.721551 168.540852,142.159604 169.208071,143.04617 C169.875289,143.932736 169.65289,144.114444 170.09771,144.910156 C170.542529,145.705867 169.320634,148.906943 172.711706,149.855285 C176.102777,150.803627 178.771698,146.814081 179.216517,145.927511 C179.661336,145.040941 181.218206,139.05662 178.104467,137.948411 Z" id="Path" fill="#46455B" fill-rule="nonzero"></path>
            <path d="M353,202 C353,226.873045 368.654296,247 388,247" id="Path" fill="#46455B" fill-rule="nonzero"></path>
            <path d="M388,248 C388,222.574218 405.443358,202 427,202" id="Path" fill="#94CE51" fill-rule="nonzero"></path>
            <path d="M365,205 C365,228.767583 375.287107,248 388,248" id="Path" fill="#D4FE07" fill-rule="nonzero"></path>
            <path d="M388,248 C388,215.388673 408.574219,189 434,189" id="Path" fill="#46455B" fill-rule="nonzero"></path>
            <path d="M380,248.573796 C380,248.573796 385.106163,248.427097 386.64503,247.404892 C388.183898,246.382687 394.499591,245.162123 394.881347,246.801512 C395.263104,248.440901 402.554961,254.955086 396.790129,254.998461 C391.025297,255.041836 383.395225,254.160816 381.859318,253.28808 C380.323411,252.415345 380,248.573796 380,248.573796 Z" id="Path" fill="#A8A8A8" fill-rule="nonzero"></path>
            <path d="M396.894185,254.377299 C391.128952,254.424514 383.498353,253.465743 381.962335,252.515993 C380.792577,251.792704 380.326443,249.197382 380.17048,248 C380.062464,248.004716 380,248.006744 380,248.006744 C380,248.006744 380.323438,252.187264 381.859452,253.137019 C383.395466,254.086774 391.026069,255.04554 396.791303,254.998325 C398.455496,254.984699 399.030339,254.383681 398.998776,253.493517 C398.767579,254.031328 398.132855,254.36716 396.894185,254.377299 Z" id="Path" fill="#000000" fill-rule="nonzero" opacity="0.2"></path>
            <path d="M118,254 L219,254" id="Path" stroke="#3F3D56" stroke-width="0.5"></path>
            <path d="M374,254 L406,254" id="Path" stroke="#3F3D56" stroke-width="0.5"></path>
        </g>
        <path d="M348,184 L348,142.860656 L354.946108,142.860656 L355.640719,145.614754 C356.798409,144.505459 358.197264,143.625686 359.837325,142.97541 C361.477387,142.325133 363.146365,142 364.844311,142 C368.58751,142 371.549224,143.35791 373.729541,146.07377 C375.909858,148.789631 377,152.461725 377,157.090164 C377,160.112037 376.498342,162.808731 375.49501,165.180328 C374.491678,167.551924 373.044587,169.41666 371.153693,170.77459 C369.262798,172.13252 367.082514,172.811475 364.612774,172.811475 C363.030598,172.811475 361.525623,172.562844 360.097804,172.065574 C358.669986,171.568304 357.45443,170.879786 356.451098,170 L356.451098,184 L348,184 Z M362.681159,148 C360.671488,148 358.777787,148.511036 357,149.533123 L357,164.466877 C358.700492,165.488964 360.594192,166 362.681159,166 C364.845421,166 366.439608,165.280764 367.463768,163.842271 C368.487928,162.403778 369,160.132508 369,157.028391 C369,153.88642 368.49759,151.596222 367.492754,150.157729 C366.487918,148.719236 364.884069,148 362.681159,148 Z M384,172 L384,142.290698 L390.930091,142.290698 L391.969605,146.709302 C393.509633,145.003867 394.963012,143.792639 396.329787,143.075581 C397.696562,142.358524 399.149942,142 400.68997,142 C401.421483,142 402.191489,142.058139 403,142.174419 L403,150.023256 C401.92198,149.790697 400.728477,149.674419 399.419453,149.674419 C396.916907,149.674419 394.58765,150.120151 392.431611,151.011628 L392.431611,172 L384,172 Z M407,172 L407,142 L416,142 L416,172 L407,172 Z M411.5,138 C410.14285,138 409.053576,137.596158 408.232143,136.788462 C407.41071,135.980765 407,134.884622 407,133.5 C407,132.115378 407.41071,131.019231 408.232143,130.211538 C409.053576,129.403842 410.14285,129 411.5,129 C412.85715,129 413.946424,129.403842 414.767857,130.211538 C415.58929,131.019231 416,132.115378 416,133.5 C416,134.884622 415.58929,135.980765 414.767857,136.788462 C413.946424,137.596158 412.85715,138 411.5,138 Z M460.56611,172 L460.56611,151.608365 C460.56611,148.936615 459.391539,147.60076 457.042362,147.60076 C454.962762,147.60076 452.863939,148.111528 450.745828,149.13308 L450.745828,172 L442.311938,172 L442.311938,151.608365 C442.311938,148.936615 441.137367,147.60076 438.78819,147.60076 C436.631568,147.60076 434.513489,148.131173 432.43389,149.192015 L432.43389,172 L424,172 L424,141.88403 L430.931964,141.88403 L431.682927,144.771863 C433.724015,143.396698 435.562893,142.424274 437.199615,141.854563 C438.836337,141.284851 440.521172,141 442.254172,141 C445.720171,141 448.16559,142.257275 449.590501,144.771863 C451.554567,143.435988 453.403072,142.473384 455.136072,141.88403 C456.869072,141.294677 458.659811,141 460.508344,141 C463.204121,141 465.293317,141.766152 466.775995,143.298479 C468.258672,144.830806 469,146.972103 469,149.722433 L469,172 L460.56611,172 Z M483.714286,159.534196 C483.866667,162.055465 484.628565,163.879538 486,165.00647 C487.371435,166.133401 489.523795,166.696858 492.457143,166.696858 C495.009537,166.696858 497.980935,166.219352 501.371429,165.264325 L501.371429,170.822551 C500.038089,171.510166 498.447628,172.044977 496.6,172.426987 C494.752372,172.808998 492.838105,173 490.857143,173 C486.019023,173 482.333346,171.682083 479.8,169.046211 C477.266654,166.410338 476,162.552089 476,157.471349 C476,152.581614 477.25713,148.780667 479.771429,146.068392 C482.285727,143.356117 485.771406,142 490.228571,142 C494.000019,142 496.904752,143.040963 498.942857,145.122921 C500.980963,147.204878 502,150.174965 502,154.033272 C502,154.873695 501.942858,155.828707 501.828571,156.898336 C501.714286,157.967966 501.580953,158.846577 501.428571,159.534196 L483.714286,159.534196 Z M490.173469,147 C488.340127,147 486.890311,147.598545 485.82398,148.795652 C484.757648,149.99276 484.149661,151.727525 484,154 L495,154 L495,152.965217 C495,148.988386 493.391173,147 490.173469,147 Z M560.56611,172 L560.56611,151.608365 C560.56611,148.936615 559.391539,147.60076 557.042362,147.60076 C554.962762,147.60076 552.863939,148.111528 550.745828,149.13308 L550.745828,172 L542.311938,172 L542.311938,151.608365 C542.311938,148.936615 541.137367,147.60076 538.78819,147.60076 C536.631568,147.60076 534.513489,148.131173 532.43389,149.192015 L532.43389,172 L524,172 L524,141.88403 L530.931964,141.88403 L531.682927,144.771863 C533.724015,143.396698 535.562893,142.424274 537.199615,141.854563 C538.836337,141.284851 540.521172,141 542.254172,141 C545.720171,141 548.16559,142.257275 549.590501,144.771863 C551.554567,143.435988 553.403072,142.473384 555.136072,141.88403 C556.869072,141.294677 558.659811,141 560.508344,141 C563.204121,141 565.293317,141.766152 566.775995,143.298479 C568.258672,144.830806 569,146.972103 569,149.722433 L569,172 L560.56611,172 Z M596.275862,172.11597 L595.491379,168.93346 C592.16665,171.6445 588.692547,173 585.068966,173 C582.528723,173 580.548858,172.204381 579.12931,170.613118 C577.709763,169.021855 577,166.831446 577,164.041825 L577,142 L585.181034,142 L585.181034,161.625475 C585.181034,164.808001 586.488493,166.39924 589.103448,166.39924 C591.045987,166.39924 592.95114,165.770602 594.818966,164.513308 L594.818966,142 L603,142 L603,172.11597 L596.275862,172.11597 Z M624.382429,164.020295 C624.382429,163.257684 624.164516,162.666669 623.728682,162.247232 C623.292849,161.827796 622.411721,161.370236 621.085271,160.874539 L616.651163,159.101476 C614.339351,158.186342 612.67184,157.061507 611.648579,155.726937 C610.625318,154.392367 610.113695,152.695582 610.113695,150.636531 C610.113695,148.043652 611.146415,145.956035 613.211886,144.373616 C615.277357,142.791198 618.034436,142 621.483204,142 C624.666683,142 627.603776,142.629145 630.294574,143.887454 L630.294574,149.435424 C627.414284,148.558421 624.723527,148.119926 622.222222,148.119926 C620.668382,148.119926 619.531442,148.310576 618.81137,148.691882 C618.091297,149.073188 617.731266,149.683268 617.731266,150.52214 C617.731266,151.17036 617.94918,151.694647 618.385013,152.095018 C618.820846,152.495389 619.739872,152.981547 621.142119,153.553506 L625.462532,155.326568 C627.812243,156.279833 629.489228,157.385603 630.49354,158.643911 C631.497852,159.90222 632,161.54181 632,163.562731 C632,166.384393 630.929382,168.66266 628.788114,170.397601 C626.646845,172.132542 623.83292,173 620.346253,173 C616.442702,173 612.993986,172.218335 610,170.654982 L610,165.107011 C613.751957,166.289059 617.181724,166.880074 620.289406,166.880074 C623.018101,166.880074 624.382429,165.926824 624.382429,164.020295 Z M637,172 L637,142 L646,142 L646,172 L637,172 Z M676,171.080675 C674.951893,171.701066 673.690303,172.176046 672.21519,172.505629 C670.740077,172.835211 669.206759,173 667.61519,173 C662.879301,173 659.259506,171.681689 656.755696,169.045028 C654.251886,166.408367 653,162.60853 653,157.645403 C653,152.721051 654.319818,148.88244 656.959494,146.129456 C659.599169,143.376472 663.267487,142 667.964557,142 C670.798326,142 673.418553,142.620382 675.825316,143.861163 L675.825316,149.502814 C673.53501,148.843649 671.438828,148.514071 669.536709,148.514071 C666.819396,148.514071 664.82026,149.202307 663.539241,150.578799 C662.258221,151.955291 661.617722,154.13632 661.617722,157.121951 L661.617722,157.93621 C661.617722,160.883067 662.248517,163.044709 663.510127,164.421201 C664.771736,165.797693 666.72235,166.485929 669.362025,166.485929 C671.264145,166.485929 673.476781,166.136961 676,165.439024 L676,171.080675 Z M433,240.370173 L433,198 L441.451098,198 L441.451098,213.344874 C442.570199,212.390586 443.882228,211.636709 445.387226,211.083222 C446.892223,210.529735 448.377904,210.252996 449.844311,210.252996 C453.58751,210.252996 456.549224,211.608065 458.729541,214.318242 C460.909858,217.02842 462,220.692831 462,225.311585 C462,228.327134 461.498342,231.018186 460.49501,233.38482 C459.491678,235.751454 458.044587,237.612288 456.153693,238.967377 C454.262798,240.322466 452.082514,241 449.612774,241 C447.837649,241 446.178318,240.694632 444.634731,240.083888 C443.091143,239.473144 441.798408,238.614298 440.756487,237.507324 L440.003992,240.370173 L433,240.370173 Z M447.681159,217 C445.671488,217 443.777787,217.511036 442,218.533123 L442,233.466877 C443.700492,234.488964 445.594192,235 447.681159,235 C449.845421,235 451.439608,234.280764 452.463768,232.842271 C453.487928,231.403778 454,229.132508 454,226.028391 C454,222.88642 453.49759,220.596222 452.492754,219.157729 C451.487918,217.719236 449.884069,217 447.681159,217 Z M469,241 L469,211.290698 L475.930091,211.290698 L476.969605,215.709302 C478.509633,214.003867 479.963012,212.792639 481.329787,212.075581 C482.696562,211.358524 484.149942,211 485.68997,211 C486.421483,211 487.191489,211.058139 488,211.174419 L488,219.023256 C486.92198,218.790697 485.728477,218.674419 484.419453,218.674419 C481.916907,218.674419 479.58765,219.120151 477.431611,220.011628 L477.431611,241 L469,241 Z M510.204545,240.084871 L509.495455,237.51107 C508.274236,238.578726 506.865917,239.427119 505.270455,240.056273 C503.674992,240.685428 502.128795,241 500.631818,241 C497.716652,241 495.382585,240.19927 493.629545,238.597786 C491.876506,236.996302 491,234.861022 491,232.191882 C491,230.361614 491.472723,228.750622 492.418182,227.358856 C493.363636,225.96709 494.722718,224.870849 496.495455,224.070111 C498.268191,223.269369 500.356049,222.869004 502.759091,222.869004 C504.650009,222.869004 506.737867,223.116849 509.022727,223.612546 L509.022727,220.752768 C509.022727,218.998761 508.648489,217.797666 507.9,217.149446 C507.151511,216.501227 505.772737,216.177122 503.763636,216.177122 C500.533317,216.177122 496.968201,216.768137 493.068182,217.950185 L493.068182,212.402214 C494.525765,211.677733 496.357565,211.096251 498.563636,210.657749 C500.769708,210.219248 503.01514,210 505.3,210 C509.357596,210 512.32196,210.791198 514.193182,212.373616 C516.064403,213.956035 517,216.444017 517,219.837638 L517,240.084871 L510.204545,240.084871 Z M502.524096,236 C503.427715,236 504.358429,235.782718 505.316265,235.348148 C506.274101,234.913578 507.168671,234.320991 508,233.57037 L508,228.414815 C506.409631,228.13827 504.981934,228 503.716867,228 C500.572273,228 499,229.382702 499,232.148148 C499,233.372846 499.307226,234.320984 499.921687,234.992593 C500.536148,235.664201 501.403609,236 502.524096,236 Z M542.683544,241 L542.683544,221.256654 C542.683544,219.645746 542.341776,218.467051 541.658228,217.720532 C540.97468,216.974014 539.930387,216.60076 538.525316,216.60076 C536.436698,216.60076 534.367099,217.268688 532.316456,218.604563 L532.316456,241 L524,241 L524,210.88403 L530.835443,210.88403 L531.632911,214.125475 C535.05065,211.375145 538.696183,210 542.56962,210 C545.265836,210 547.344929,210.75633 548.806962,212.269011 C550.268995,213.781693 551,215.932812 551,218.722433 L551,241 L542.683544,241 Z M579.604418,240.370173 L578.905622,237.793609 C576.498649,239.931214 573.645264,241 570.345382,241 C567.899586,241 565.744989,240.398808 563.881526,239.196405 C562.018063,237.994002 560.57196,236.247681 559.543173,233.95739 C558.514386,231.667099 558,228.976047 558,225.884154 C558,221.150886 559.145236,217.36242 561.435743,214.518642 C563.72625,211.674864 566.754332,210.252996 570.52008,210.252996 C573.58703,210.252996 576.246307,211.111842 578.497992,212.829561 L578.497992,198 L587,198 L587,240.370173 L579.604418,240.370173 Z M573.588235,235 C575.470598,235 577.274501,234.470037 579,233.410095 L579,218.419558 C577.313717,217.473181 575.37256,217 573.176471,217 C571.098029,217 569.549025,217.747627 568.529412,219.242902 C567.509799,220.738178 567,222.999985 567,226.028391 C567,229.056797 567.53921,231.309141 568.617647,232.785489 C569.696084,234.261837 571.35293,235 573.588235,235 Z M595,241 L595,211 L604,211 L604,241 L595,241 Z M599.5,207 C598.14285,207 597.053576,206.596158 596.232143,205.788462 C595.41071,204.980765 595,203.884622 595,202.5 C595,201.115378 595.41071,200.019231 596.232143,199.211538 C597.053576,198.403842 598.14285,198 599.5,198 C600.85715,198 601.946424,198.403842 602.767857,199.211538 C603.58929,200.019231 604,201.115378 604,202.5 C604,203.884622 603.58929,204.980765 602.767857,205.788462 C601.946424,206.596158 600.85715,207 599.5,207 Z M630.683544,241 L630.683544,221.256654 C630.683544,219.645746 630.341776,218.467051 629.658228,217.720532 C628.97468,216.974014 627.930387,216.60076 626.525316,216.60076 C624.436698,216.60076 622.367099,217.268688 620.316456,218.604563 L620.316456,241 L612,241 L612,210.88403 L618.835443,210.88403 L619.632911,214.125475 C623.05065,211.375145 626.696183,210 630.56962,210 C633.265836,210 635.344929,210.75633 636.806962,212.269011 C638.268995,213.781693 639,215.932812 639,218.722433 L639,241 L630.683544,241 Z M665.634855,236.193548 C663.427375,238.112913 660.832657,239.072581 657.850622,239.072581 C654.248945,239.072581 651.373455,237.764798 649.224066,235.149194 C647.074678,232.533589 646,229.043033 646,224.677419 C646,220.236537 647.08436,216.680121 649.253112,214.008065 C651.421864,211.336008 654.3264,210 657.966805,210 C659.593369,210 661.123091,210.282258 662.556017,210.846774 C663.988942,211.41129 665.266938,212.239242 666.390041,213.330645 L667.029046,210.846774 L674,210.846774 L674,237.435484 C674,242.026905 672.683277,245.602138 670.049793,248.16129 C667.416308,250.720443 663.775957,252 659.128631,252 C655.372042,252 651.809145,251.190868 648.439834,249.572581 L648.439834,244.040323 C652.273878,245.206995 655.585048,245.790323 658.373444,245.790323 C660.929473,245.790323 662.778694,245.216404 663.921162,244.068548 C665.06363,242.920693 665.634855,241.0484 665.634855,238.451613 L665.634855,236.193548 Z M660.901042,233 C661.779518,233 662.66753,232.857861 663.565104,232.573579 C664.462678,232.289296 665.274302,231.900783 666,231.408027 L666,217.421405 C664.43402,216.473797 662.600705,216 660.5,216 C656.833315,216 655,218.804877 655,224.414716 C655,227.333348 655.477426,229.493861 656.432292,230.896321 C657.387158,232.298781 658.876726,233 660.901042,233 Z" id="primemusicbranding" fill="#D4FE07" fill-rule="nonzero"></path>
        <g id="Group-3" transform="translate(476.000000, 103.000000)">
            <mask id="mask-2" fill="white">
                <use xlink:href="#path-1"></use>
            </mask>
            <g id="Clip-2"></g>
            <path d="M8,22.176217 L8,22.1702057 L8,22.1627435 L7.89884444,1 L6.90311111,1 L6.97902222,19.6216389 C6.24906667,18.8113625 5.17777778,18.2989545 3.98257778,18.2989545 C1.78311111,18.2989545 0,20.0322701 0,22.1702057 C0,24.3081413 1.78311111,26 3.98257778,26 C6.16302222,26 7.93297778,24.4231844 7.96373333,22.1430514 L8,22.1430514 L8,22.176217 Z" id="Fill-1" fill="#D4FE07" mask="url(#mask-2)"></path>
        </g>
        <g id="Group-8" transform="translate(369.000000, 205.000000)">
            <g id="Group-3" transform="translate(0.000000, 1.000000)">
                <mask id="mask-4" fill="white">
                    <use xlink:href="#path-3"></use>
                </mask>
                <g id="Clip-2"></g>
                <path d="M17.3026,3.58072674 C16.2906,2.30950581 14.9728857,1.36619186 13.6283143,0.804854651 C13.4603143,0.733052326 13.2931714,0.664156977 13.1231714,0.608052326 L12.8708857,0.519680233 L12.7234571,0.46997093 L12.6100286,0.437412791 L12.3783143,0.371133721 L12.1017429,0.302238372 C11.9174571,0.256889535 11.7511714,0.230145349 11.5763143,0.200784884 C10.8826,0.097005814 10.1994571,0.0827616279 9.55574286,0.155436047 C8.26402857,0.294098837 7.15631429,0.745552326 6.28402857,1.26270349 C5.40917143,1.78973837 4.78688571,2.42898256 4.36374286,3.00340116 C3.93688571,3.57927326 3.70745714,4.09758721 3.57088571,4.45398256 C3.50374286,4.63363372 3.46088571,4.7743314 3.43688571,4.87258721 C3.42831429,4.90252907 3.42202857,4.92665698 3.4166,4.9481686 C3.22745714,5.36444767 3.11602857,5.82578488 3.10517143,6.31357558 C3.06288571,8.21561047 4.54374286,9.79293605 6.41317143,9.8359593 C8.2826,9.87898256 9.83231429,8.37171512 9.87488571,6.46997093 C9.91517143,4.66502907 8.58231429,3.15514535 6.8486,2.96880814 C6.93431429,2.92636628 7.01688571,2.88334302 7.10574286,2.84177326 C7.8446,2.4859593 8.73117143,2.22229651 9.69431429,2.20601744 C10.6563143,2.18363372 11.6786,2.42636628 12.6954571,2.9356686 C13.7114571,3.43334302 14.6514571,4.17287791 15.4068857,5.13886628 C15.7811714,5.62375 16.1160286,6.15834302 16.3926,6.73857558 C16.6628857,7.32171512 16.8866,7.94293605 17.0508857,8.59264535 C17.3800286,9.89293605 17.4508857,11.2996221 17.3008857,12.689157 C17.2263143,13.3882849 17.0957429,14.0725872 16.9103143,14.7435174 C16.7154571,15.4342151 16.4866,16.0629942 16.1731714,16.6769477 C15.8677429,17.2868314 15.5154571,17.8711337 15.1123143,18.4127035 C14.7091714,18.954564 14.2526,19.4478779 13.7711714,19.9022384 C12.8034571,20.804564 11.7243143,21.5452616 10.6163143,22.0906105 C9.51145714,22.6452616 8.38974286,23.0272384 7.32802857,23.2827616 C6.26317143,23.5257849 5.2586,23.6507849 4.36145714,23.6836337 C3.46431429,23.7138663 2.67545714,23.67375 2.02745714,23.6013663 C1.3806,23.517064 0.874028571,23.4339244 0.5286,23.355436 C0.183742857,23.2757849 2.85714286e-05,23.233343 2.85714286e-05,23.233343 C2.85714286e-05,23.233343 0.174314286,23.3060174 0.501457143,23.4423547 C0.829171429,23.5728779 1.3226,23.7580523 1.96574286,23.9345058 C2.61088571,24.1013663 3.40945714,24.27375 4.34345714,24.3548547 C5.27602857,24.4382849 6.3446,24.4551453 7.5026,24.3115407 C8.65631429,24.1606686 9.91202857,23.8990407 11.1717429,23.3906105 C11.8048857,23.1464244 12.4394571,22.8461337 13.0648857,22.4894477 C13.3817429,22.3173547 13.6866,22.1159012 13.9980286,21.9164826 C14.2991714,21.701657 14.6043143,21.4845058 14.8954571,21.2414826 C16.0726,20.2894477 17.1446,19.0798547 17.9517429,17.6565988 C18.3571714,16.9536919 18.6848857,16.167064 18.9411714,15.4068895 C19.2023143,14.6246221 19.4017429,13.8118314 19.5303143,12.9961337 C19.7891714,11.3568895 19.7388857,9.65688953 19.3860286,8.02781977 C19.0394571,6.3984593 18.3257429,4.84206395 17.3026,3.58072674" id="Fill-1" fill="#D4FE07" mask="url(#mask-4)"></path>
            </g>
            <path d="M23,12 C24.1045263,12 25,11.1045263 25,10 C25,8.8954737 24.1045263,8 23,8 C21.8954737,8 21,8.8954737 21,10 C21,11.1045263 21.8954737,12 23,12" id="Fill-4" fill="#D4FE07"></path>
            <path d="M23,15 C21.8954737,15 21,15.8954737 21,17 C21,18.1045263 21.8954737,19 23,19 C24.1045263,19 25,18.1045263 25,17 C25,15.8954737 24.1045263,15 23,15" id="Fill-6" fill="#D4FE07"></path>
        </g>
        <path d="M523.482759,184 L523.482759,189.142857 L518.517241,189.142857 L518.517241,185.428571 L516.655172,185.428571 L516.655172,189.142857 L512,189.142857 L512,190.857143 L516.655172,190.857143 L516.655172,195.142857 L512,195.142857 L512,196.857143 L516.655172,196.857143 L516.655172,202 L518.517241,202 L518.517241,196.857143 L523.482759,196.857143 L523.482759,200.571429 L525.344828,200.571429 L525.344828,196.857143 L530,196.857143 L530,195.142857 L525.344828,195.142857 L525.344828,190.857143 L530,190.857143 L530,189.142857 L525.344828,189.142857 L525.344828,184 L523.482759,184 Z M519,195 L524,195 L524,191 L519,191 L519,195 Z" id="Fill-1" fill="#D4FE07"></path>
        <g id="Group-3" transform="translate(623.000000, 106.000000)">
            <mask id="mask-6" fill="white">
                <use xlink:href="#path-5"></use>
            </mask>
            <g id="Clip-2"></g>
            <path d="M23,22.14458 L23,22.1383939 C23,22.1356209 23,22.1328478 23,22.130288 L22.926981,0.355378134 L22.9260048,0.355378134 L22.9248334,0 L7.56546836,2.08704662 L7.59163024,4.69478833 L7.66464921,21.4355302 C6.86300242,20.6016928 5.68630364,20.074385 4.37391452,20.074385 C1.95823607,20.074385 0,21.8578884 0,24.0582038 C0,26.2583058 1.95823607,28 4.37391452,28 C6.76792157,28 8.71131955,26.3794672 8.74587666,24.0330329 L8.7476338,24.0330329 L8.7476338,24.0643898 L8.7476338,24.0582038 C8.7476338,24.0554307 8.74743856,24.0526576 8.74743856,24.0500979 L8.68222911,4.55378896 L21.843606,2.68197436 L21.9170154,19.5157203 C21.1153686,18.6818829 19.9386698,18.1545752 18.6262807,18.1545752 C16.2106023,18.1545752 14.2523662,19.9380785 14.2523662,22.1383939 C14.2523662,24.338496 16.2106023,26.0801902 18.6262807,26.0801902 C21.0202878,26.0801902 22.9636858,24.4596573 22.9982429,22.1132231 L23,22.1132231 L23,22.14458 Z" id="Fill-1" fill="#D4FE07" mask="url(#mask-6)"></path>
        </g>
    </g>
</svg>