<?xml version="1.0" encoding="UTF-8"?>
<svg width="1024px" height="600px" viewBox="0 0 1024 600" version="1.1" xmlns="http://www.w3.org/2000/svg" xmlns:xlink="http://www.w3.org/1999/xlink">
    <!-- Generator: Sketch 58 (84663) - https://sketch.com -->
    <title>music for students hero</title>
    <desc>Created with Sketch.</desc>
    <g id="music-for-students-hero" stroke="none" stroke-width="1" fill="none" fill-rule="evenodd">
        <rect fill="#FFFC00" x="0" y="0" width="1024" height="600"></rect>
        <g id="Group-5" transform="translate(239.000000, 373.000000)">
            <path d="M91.3671786,15.0034288 C86.3927558,15.5264858 81.035685,16.8380908 77.9745018,21.3435136 C75.3304047,25.2188904 75.3878019,31.9790058 77.8711868,35.957409 C80.6913019,40.478682 86.4539794,40.6411466 90.93096,39.1789646 C95.4079405,37.7167825 100.041807,35.1530108 99.9997154,29.6133617 C99.9767565,26.6414469 98.9397807,23.546693 97.7956634,20.852157 C96.8084318,18.5261384 95.0597309,16.4933487 92.4118074,16.7509147 C91.6809499,16.8222406 91.6732969,18.0110065 92.4118074,17.9396806 C95.9589535,17.598901 97.0992442,21.9616718 97.9410696,24.7156462 C98.7063655,27.2873431 99.4142641,30.3305838 98.2127497,32.8864304 C97.0112352,35.4422771 94.1145906,36.7459571 91.6388586,37.6811196 C88.9603232,38.687608 86.0177608,39.3018037 83.2206046,38.4736302 C77.6798629,36.8687962 76.1492712,29.5975115 77.744913,24.4382675 C79.581623,18.494438 86.0866374,16.7469521 91.386311,16.1921947 C92.113342,16.1169062 92.1209949,14.9281403 91.386311,15.0034288 L91.3671786,15.0034288 Z" id="Path" fill="#FFFC00" fill-rule="nonzero"></path>
            <path d="M100.367179,60.0034288 C95.3927558,60.5264858 90.035685,61.8380908 86.9745018,66.3435136 C84.3304047,70.2188904 84.3878019,76.9790058 86.8711868,80.957409 C89.6913019,85.478682 95.4539794,85.6411466 99.93096,84.1789646 C104.40794,82.7167825 109.041807,80.1530108 108.999715,74.6133617 C108.976757,71.6414469 107.939781,68.546693 106.795663,65.852157 C105.808432,63.5261384 104.059731,61.4933487 101.411807,61.7509147 C100.68095,61.8222406 100.673297,63.0110065 101.411807,62.9396806 C104.958953,62.598901 106.099244,66.9616718 106.94107,69.7156462 C107.706365,72.2873431 108.414264,75.3305838 107.21275,77.8864304 C106.011235,80.4422771 103.114591,81.7459571 100.638859,82.6811196 C97.9603232,83.687608 95.0177608,84.3018037 92.2206046,83.4736302 C86.6798629,81.8687962 85.1492712,74.5975115 86.744913,69.4382675 C88.581623,63.494438 95.0866374,61.7469521 100.386311,61.1921947 C101.113342,61.1169062 101.120995,59.9281403 100.386311,60.0034288 L100.367179,60.0034288 Z" id="Path" fill="#FFFC00" fill-rule="nonzero"></path>
            <path d="M85.1387955,25.6813632 L88.7666381,29.8370459 C88.9127134,29.9786439 89.1219968,30.0329671 89.3180832,29.9801831 C89.5141696,29.9273991 89.6683582,29.7752338 89.7243579,29.5792397 C90.4905338,27.5552683 90.3449603,25.4581876 90.5250117,23.3303242 C90.7235419,21.1310358 91.2732834,18.978193 92.1531353,16.9544295 C93.9205781,12.8496662 96.9172518,9.39992192 100.726643,7.08468316 C101.358738,6.69989772 100.780275,5.69945559 100.14818,6.08808888 C96.3920402,8.35991499 93.3787719,11.6847841 91.4789006,15.6538548 C90.5488814,17.5852632 89.9036405,19.6423329 89.563461,21.7603996 C89.1803731,24.2576571 89.5289831,26.874198 88.6095721,29.2714113 L89.5711227,29.0136051 L85.9624345,24.8656181 C85.472082,24.3076792 84.6637665,25.1272722 85.1502881,25.6813632 L85.1387955,25.6813632 Z" id="Path" fill="#FFFC00" fill-rule="nonzero"></path>
            <path d="M88.3730729,66.1507103 C95.2500756,68.8042446 101.865153,72.0720246 108.135254,75.9130247 C108.774882,76.2964621 109.363809,75.3110281 108.72418,74.919922 C102.371484,71.0314925 95.668811,67.7251455 88.7006875,65.0425764 C88.0025563,64.7703359 87.6983428,65.8823042 88.3925737,66.1507103 L88.3730729,66.1507103 Z" id="Path" fill="#FFFC00" fill-rule="nonzero"></path>
            <path d="M99.9807563,61.1943397 C92.6971887,69.3714954 88.4780265,79.6684801 88.0006403,90.4321517 C87.9680524,91.1892828 89.1900976,91.1892828 89.2226854,90.4321517 C89.6854218,79.9775131 93.7777604,69.9748399 100.844335,62.026007 C101.35352,61.453255 100.494015,60.6176648 99.9807563,61.1943397 Z" id="Path" fill="#FFFC00" fill-rule="nonzero"></path>
            <g id="b30eccf6-7cfe-48df-9caa-415a128bd568" transform="translate(115.000000, 31.000000)" fill-rule="nonzero">
                <path d="M5.83149058,185.624498 C4.8511466,186.24 3.73075348,186.586707 2.71928747,187.128193 C1.70782146,187.669679 0.723587224,188.483855 0.435708436,189.605783 C0.328291903,189.954035 0.346187312,190.328975 0.486281736,190.665382 C0.737964353,191.071663 1.12312449,191.377459 1.57555283,191.530201 C5.72835498,193.377056 10.4572563,193.430595 14.6506962,191.678233 C15.3808319,191.326803 16.1348198,191.027399 16.9070434,190.782249 C17.8583644,190.587974 18.8266033,190.488799 19.797502,190.486185 C20.8180086,190.42648 21.8331834,190.296318 22.8357903,190.096627 C23.3397988,190.040444 23.8174425,189.841828 24.2129402,189.523976 C24.5737985,189.107597 24.7907449,188.585666 24.8314906,188.035863 C25.2918833,185.000892 24.5977136,181.903435 22.8863636,179.356506 C22.6707827,178.999576 22.3816599,178.692792 22.0382883,178.456627 C21.619626,178.239912 21.159149,178.116329 20.6883702,178.094337 C18.7432432,177.856707 16.7047502,177.420402 14.740172,177.373655 C13.3319001,177.34249 12.6238739,178.01253 11.6279689,178.98253 C9.57002457,181.043293 8.36793612,184.038996 5.83149058,185.624498 Z" id="Path" fill="#323444"></path>
                <path d="M34.4987715,185.336225 C34.4987715,187.24506 34.7282965,189.266867 35.8837019,190.79004 C36.4120842,191.448674 37.0520591,192.00909 37.7743653,192.445663 C40.2174447,194.003896 43.454136,194.576546 46.029484,193.255944 C46.4455037,193.068959 46.8011787,192.769459 47.0565111,192.391124 C47.4455364,191.713293 47.239353,190.867952 47.0214988,190.12 L43.2946355,177.186667 C40.8865684,177.556747 37.3464373,177.817751 35.2067977,179.040964 C33.6545864,179.925261 34.4987715,183.62996 34.4987715,185.336225 Z" id="Path" fill="#323444"></path>
                <path d="M3.6451679,105.698835 C3.41953317,106.411727 2.60257985,106.742851 2.15520066,107.342771 C1.63001638,108.047871 1.68447993,109.025663 1.87510238,109.882691 C2.11057484,111.146445 2.7033148,112.315972 3.58292383,113.252369 C4.48869322,114.193514 5.79321913,114.63766 7.08415233,114.444418 C8.33681409,114.206787 9.41830467,113.096546 9.46109746,111.822691 C9.43852926,111.243356 9.31476321,110.672461 9.0954136,110.135904 L6.44226044,102.453815 C6.4203793,102.343979 6.35234702,102.248887 6.25552826,102.192811 C6.15540781,102.170517 6.05054609,102.188718 5.96375921,102.243454 C5.33742834,102.539518 4.08087633,102.851165 3.71519247,103.501727 C3.3495086,104.152289 3.90970516,104.993735 3.6451679,105.698835 Z" id="Path" fill="#FBB3B2"></path>
                <path d="M2.4041769,105.313173 C3.37285012,105.161245 4.22092547,104.59249 5.12735463,104.218514 C6.03378378,103.844538 7.16973792,103.700402 7.93222768,104.323695 C8.1500819,104.502892 8.36015561,104.748313 8.64414414,104.744418 C8.25783873,102.839549 7.67371933,100.98034 6.9013104,99.1971084 C6.87414553,99.1116642 6.82112556,99.03679 6.7495905,98.9828514 C6.64356736,98.9397567 6.52494206,98.9397567 6.41891892,98.9828514 L3.80077805,99.6684739 C2.83210483,99.9216867 2.71928747,99.8437751 2.79320229,100.798193 C2.81265356,101.222811 3.03050778,105.313173 2.4041769,105.313173 Z" id="Path" fill="#323444"></path>
                <path d="M2.11629812,49.8400803 C1.72727273,50.44 1.72727273,51.1879518 1.72727273,51.8930522 C1.72727273,55.3406426 1.76228501,58.8077108 2.27190827,62.220241 C2.39250614,63.0383133 2.54422604,63.8563855 2.62203112,64.682249 C2.71020836,65.8318682 2.72839653,66.9857974 2.67649468,68.1376305 L2.28746929,83.1356225 C2.24078624,84.9704418 2.14742015,86.9416064 1.01535627,88.3829719 C0.672088765,88.8661536 0.510833168,89.4554737 0.56019656,90.0463855 C0.855855856,93.8095181 1.47829648,97.5414859 2.09684685,101.261767 C4.11704144,100.349285 6.45144516,100.460806 8.37571663,101.561727 C10.3385077,95.3816713 11.4241332,88.9560368 11.6007371,82.4733735 C11.6902129,79.2828916 11.5540541,76.0729317 12.044226,72.9214056 C12.8650696,67.6156225 12.5305078,62.173494 11.9275184,56.8365462 C11.736896,55.1458635 11.3323096,53.4045382 10.250819,52.0956225 C9.22703592,50.9503583 7.86356274,50.163922 6.36056511,49.8517671 C4.92117117,49.4738956 3.63349713,49.8634538 2.11629812,49.8400803 Z" id="Path" fill="#5B5583"></path>
                <path d="M2.11629812,49.8400803 C1.72727273,50.44 1.72727273,51.1879518 1.72727273,51.8930522 C1.72727273,55.3406426 1.76228501,58.8077108 2.27190827,62.220241 C2.39250614,63.0383133 2.54422604,63.8563855 2.62203112,64.682249 C2.71020836,65.8318682 2.72839653,66.9857974 2.67649468,68.1376305 L2.28746929,83.1356225 C2.24078624,84.9704418 2.14742015,86.9416064 1.01535627,88.3829719 C0.672088765,88.8661536 0.510833168,89.4554737 0.56019656,90.0463855 C0.855855856,93.8095181 1.47829648,97.5414859 2.09684685,101.261767 C4.11704144,100.349285 6.45144516,100.460806 8.37571663,101.561727 C10.3385077,95.3816713 11.4241332,88.9560368 11.6007371,82.4733735 C11.6902129,79.2828916 11.5540541,76.0729317 12.044226,72.9214056 C12.8650696,67.6156225 12.5305078,62.173494 11.9275184,56.8365462 C11.736896,55.1458635 11.3323096,53.4045382 10.250819,52.0956225 C9.22703592,50.9503583 7.86356274,50.163922 6.36056511,49.8517671 C4.92117117,49.4738956 3.63349713,49.8634538 2.11629812,49.8400803 Z" id="Path" fill="#000000" opacity="0.1"></path>
                <path d="M6.87018837,93.334257 C4.26108992,106.723098 5.68560682,120.586415 10.9627355,133.162691 C11.4186537,134.093671 11.7383406,135.085533 11.9119574,136.107751 C12.1259214,138.016586 11.246724,139.851406 10.7448812,141.697912 C9.57780508,145.897349 10.250819,150.369478 10.9977477,154.666305 C11.3089681,156.458273 11.6292656,158.248942 11.9586405,160.038313 C12.2815315,161.783534 12.5927518,163.680683 11.783579,165.262289 C12.4799345,168.168394 12.8923014,171.047229 13.5886568,173.953333 C13.6624865,174.183264 13.6850616,174.426611 13.6547912,174.666225 C13.5144764,175.046516 13.2672181,175.377998 12.9428747,175.620643 C11.8869163,176.692717 11.47431,178.243221 11.8574939,179.699317 C13.6353399,178.421566 16.1134316,178.869558 18.1441441,179.699317 C20.1748567,180.529076 22.1744472,181.647108 24.3685504,181.647108 C24.0495495,179.068233 23.7422195,176.360803 24.6914414,173.941647 C25.2438575,172.539237 26.216421,171.214739 26.1891892,169.71494 C26.1619574,168.370964 25.3411138,167.171124 25.1427109,165.842731 C25.0689737,165.016239 25.1003467,164.183717 25.236077,163.365141 C25.757371,158.596948 25.1660524,153.782008 24.5747338,149.021606 C24.5078764,148.082869 24.2870668,147.161569 23.9211712,146.294699 C23.6449631,145.733735 23.2325962,145.196145 23.2403767,144.568956 C23.2403767,143.840482 23.8278051,143.248353 24.0456593,142.55494 C24.4346847,141.277189 23.718878,139.539759 24.7964783,138.748956 C27.6363636,136.660924 26.5470925,131.674578 26.4848485,128.149076 C26.4355719,125.107925 26.3058968,122.069371 26.0958231,119.033414 C27.8838569,124.067903 28.614915,129.417772 28.2432432,134.748193 C28.1187551,136.493414 27.8892301,138.328233 28.5700246,139.941004 C29.0913186,141.179799 30.1261261,142.200442 30.4062244,143.513253 C30.5812858,144.323534 30.4567977,145.161084 30.4957002,145.986948 C30.5346028,146.812811 30.8147011,147.712691 31.5266175,148.129518 C31.5810811,151.884859 31.9156429,155.901205 31.9739967,159.656546 C31.9361475,161.576268 32.0925558,163.494893 32.4408272,165.383052 C32.6154336,165.983653 32.7121867,166.604244 32.728706,167.229558 C32.6409591,168.013612 32.4336633,168.779555 32.1140459,169.500683 C30.737451,173.582221 31.4656482,178.081352 34.0591728,181.518554 C34.9772727,179.886305 36.8912776,179.021486 38.7585995,178.885141 C40.6259214,178.748795 42.4699017,179.220161 44.2788698,179.695422 C44.0022916,177.419321 44.4545396,175.114062 45.5704341,173.111888 C45.8695979,172.660683 46.0991094,172.166886 46.2512285,171.647149 C46.4613022,170.657671 45.9711302,169.672088 45.706593,168.694297 C45.2747748,167.136064 45.4264947,165.457068 45.5276413,163.828715 C45.8671115,158.375137 45.6258531,152.900865 44.8079443,147.498434 C44.6816482,146.434298 44.4322965,145.388463 44.0649058,144.381968 C43.9248567,144.023574 43.7536855,143.680763 43.6369779,143.318474 C43.453385,142.668608 43.3488875,141.998908 43.3257576,141.323936 L42.8783784,135.091004 C42.5632678,130.724056 43.9948812,126.411647 44.9946765,122.14988 C45.4420557,120.241044 45.9283374,118.336104 46.227887,116.396104 C46.6363636,113.7549 46.702498,111.055261 47.3015971,108.449116 C47.8384521,106.111767 48.8071253,103.832851 49.0094185,101.437068 C49.3206388,97.7245783 47.7800983,94.136747 46.2862408,90.732008 C45.6638002,89.3295984 43.3101966,89.4698394 41.7968878,89.2205221 C31.0636773,87.4558233 19.7585995,87.4441365 9.63615889,91.4215261 C8.58933214,91.855815 7.64654509,92.5077735 6.87018837,93.334257 Z" id="Path" fill="#F5F5F5"></path>
                <path d="M14.6079034,24.1915663 L15.798321,28.8273092 C16.1219428,29.8904839 16.3012066,30.9924354 16.3312858,32.103494 C16.3435802,32.5087694 16.2539521,32.9106388 16.0706388,33.2721687 C15.8747274,33.5690502 15.6238207,33.8255901 15.3314906,34.0279116 C14.5184275,34.6473092 13.9543407,36.0925703 13.02457,36.5210843 C13.5030713,37.354739 14.1644144,36.813253 15.0280508,37.2300803 C16.54914,37.970241 17.9418509,39.0337349 19.5913186,39.3999197 C21.1474201,39.7427309 22.7813268,39.4193976 24.3257576,39.0103614 C26.5159705,38.4143373 28.6945127,37.5923695 30.4567977,36.1548996 C32.2190827,34.7174297 33.2227682,33.4474699 33.2150326,31.1763454 C31.2698608,31.4061847 29.5386978,29.4389157 28.6789517,27.6703213 C28.3808604,26.9980344 28.1615445,26.2934319 28.025389,25.5706024 L26.982801,20.9777108 C25.8468468,21.2270281 24.9209664,22.0412048 23.8355856,22.4658233 C22.7502048,22.8904418 21.466421,22.9293976 20.2604423,22.9839357 C18.119707,23.0814378 15.9908328,23.3576844 13.8959869,23.8097992 C13.6081081,23.8682329 13.2463145,24.0513253 13.3163391,24.3318072" id="Path" fill="#FBB3B2"></path>
                <path d="M14.6079034,24.1915663 L15.798321,28.8273092 C16.1219428,29.8904839 16.3012066,30.9924354 16.3312858,32.103494 C16.3435802,32.5087694 16.2539521,32.9106388 16.0706388,33.2721687 C15.8747274,33.5690502 15.6238207,33.8255901 15.3314906,34.0279116 C14.5184275,34.6473092 13.9543407,36.0925703 13.02457,36.5210843 C13.5030713,37.354739 14.1644144,36.813253 15.0280508,37.2300803 C16.54914,37.970241 17.9418509,39.0337349 19.5913186,39.3999197 C21.1474201,39.7427309 22.7813268,39.4193976 24.3257576,39.0103614 C26.5159705,38.4143373 28.6945127,37.5923695 30.4567977,36.1548996 C32.2190827,34.7174297 33.2227682,33.4474699 33.2150326,31.1763454 C31.2698608,31.4061847 29.5386978,29.4389157 28.6789517,27.6703213 C28.3808604,26.9980344 28.1615445,26.2934319 28.025389,25.5706024 L26.982801,20.9777108 C25.8468468,21.2270281 24.9209664,22.0412048 23.8355856,22.4658233 C22.7502048,22.8904418 21.466421,22.9293976 20.2604423,22.9839357 C18.119707,23.0814378 15.9908328,23.3576844 13.8959869,23.8097992 C13.6081081,23.8682329 13.2463145,24.0513253 13.3163391,24.3318072" id="Path" fill="#000000" opacity="0.1"></path>
                <ellipse id="Oval" fill="#FBB3B2" cx="19.719697" cy="16.4315663" rx="10.3013923" ry="10.315502"></ellipse>
                <path d="M22.5556921,33.4357831 C23.1065895,32.2443681 23.9019017,31.1824994 24.8898444,30.3193173 C26.3409091,29.0454618 28.3249386,28.0131325 28.6672809,26.1120884 L31.8106061,29.7778313 C31.9814321,29.9478081 32.1140615,30.1523373 32.1996314,30.377751 C32.2798114,30.8053823 32.1720707,31.2468722 31.9039722,31.5892771 C31.1259214,32.8319679 29.9004914,33.7201606 28.7411957,34.6200402 C26.0840231,36.7276664 23.5401282,38.9746656 21.1201884,41.3516064 C21.0135545,41.4756052 20.8706384,41.5628353 20.7117117,41.6009237 C20.5613578,41.6050486 20.4133575,41.5628991 20.287674,41.4801606 C18.1997525,40.3823713 16.3520007,38.8777749 14.8529894,37.0547791 C14.740172,36.9184337 14.6001229,36.7626104 14.4172809,36.7742972 C14.3070361,36.7945697 14.2053994,36.8474932 14.1255119,36.9262249 C13.0790336,37.783253 11.9352989,38.8077912 10.5931613,38.6753414 C12.3321048,37.4248594 13.3163391,35.3368273 13.6820229,33.2215261 C13.7543349,32.4975486 13.9029931,31.7832727 14.1255119,31.0906426 C14.3596254,30.3869315 14.9286218,29.846375 15.6427109,29.6492771 C14.7946355,30.946506 15.3742834,32.7852209 16.5141278,33.8331325 C17.621589,34.7744363 18.9493539,35.4191235 20.3732596,35.7069076 C21.6959459,35.9562249 22.0849713,34.4564257 22.5556921,33.4357831 Z" id="Path" fill="#323444"></path>
                <path d="M9.1537674,94.3938554 C10.6203931,94.7561446 12.0092138,95.3716466 13.4330467,95.8274297 C16.0280829,96.6412256 18.7591361,96.9286107 21.466421,96.6727711 C22.2997005,96.6544652 23.1100693,96.3961445 23.8005733,95.9287149 C23.9834152,95.7806827 24.1506962,95.6053815 24.3452088,95.4690361 C24.6705751,95.2735004 25.0232969,95.1277541 25.3916871,95.0366265 C28.95905,93.9185944 31.9467649,91.5072289 34.8450041,89.146506 C34.9383702,89.0685944 35.043407,88.9712048 35.0356265,88.8465462 C35.0222456,88.7616663 34.9812135,88.6835986 34.9189189,88.624498 L33.3939394,86.8714859 C29.3947584,87.5532129 25.298321,87.2961044 21.2407862,87.1948193 C20.407755,87.1577763 19.5731494,87.1799067 18.7432432,87.2610442 C17.9418509,87.3545382 17.1521294,87.5571084 16.3624079,87.7285141 C13.3630221,88.3829719 10.297502,88.6322892 7.25921376,89.0608032 C7.04665152,89.0765051 6.84044672,89.1404496 6.65622441,89.2477912 C6.52810804,89.3470138 6.41875457,89.4683909 6.33333333,89.6061847 L5.26740377,91.1059839 C4.85366174,91.6104737 4.54898387,92.1954605 4.37264537,92.8239357 C4.12366912,93.9926104 4.64496314,94.3821687 5.63697789,94.230241 C6.80887327,94.0584638 8.00282574,94.114011 9.1537674,94.3938554 L9.1537674,94.3938554 Z" id="Path" fill="#323444"></path>
                <path d="M21.0773956,39.5674297 C19.8873242,38.3462952 18.5382124,37.2914721 17.0665438,36.4314859 C16.4719797,36.0533328 15.8124018,35.7891403 15.1214169,35.6523695 C14.4176683,35.5132555 13.68851,35.6929425 13.1296069,36.1432129 C12.7833743,36.4509639 12.5655201,36.8794779 12.2309582,37.2028112 C11.809922,37.5570204 11.3272301,37.8303923 10.8071253,38.0091968 C9.03623956,38.7669054 7.35770937,39.7249519 5.8042588,40.8646586 C4.9574679,41.457825 4.19456546,42.1628056 3.53624079,42.9604819 C1.77395577,45.2199197 1.50941851,48.2935341 1.55610156,51.1606827 C1.59111384,53.1552209 3.5012285,54.6355422 4.81613432,56.1275502 C6.04939658,57.5957599 7.16544941,59.1588109 8.15397215,60.802249 C8.86199836,61.9241767 9.6011466,63.1395984 9.51167076,64.4757831 C9.43775594,65.5704418 8.7997543,66.5988755 8.9009009,67.6896386 C8.93591319,68.0791968 9.06040131,68.4375904 9.0954136,68.8154618 C9.16543817,69.5945783 8.85810811,70.3736948 8.78030303,71.1528112 C8.67526618,72.255261 9.03316953,73.3499197 9.0526208,74.4601606 C9.03834095,75.2202163 8.94181744,75.976482 8.76474201,76.7157028 C8.01781327,80.2762651 7.08026208,83.8563052 7.27088452,87.4908835 L5.11568387,87.8804418 C5.52973955,88.2867977 5.72577449,88.8663291 5.64356964,89.4410126 C5.5613648,90.015696 5.21074916,90.5168182 4.6994267,90.7904418 C8.06449631,91.9162651 11.7018837,91.34751 15.2692465,91.3436145 C18.2219492,91.3436145 21.1629812,91.7331727 24.1117936,91.6786345 C27.0606061,91.6240964 30.1027846,91.0904016 32.5341933,89.4191968 C33.1955364,88.9673092 33.8024161,88.43751 34.4987715,88.0440562 C35.4315114,87.5600357 36.436642,87.2311118 37.4748157,87.0701606 C39.397855,86.7029 41.352599,86.528037 43.3101966,86.5481526 C44.267199,86.5481526 45.3097871,86.5871084 46.0722768,86.0105622 C46.9125717,85.3716867 47.1265356,84.2146988 47.239353,83.1667871 C47.3521704,82.0604418 47.4221949,80.9502008 47.4416462,79.8399598 C47.4742585,78.9753901 47.4286865,78.1096387 47.3054873,77.2532932 C47.1887086,76.6271153 47.0367473,76.0080328 46.8503276,75.398996 L45.3837019,70.2256627 C44.7768223,68.0908835 45.6210074,65.7496386 45.799959,63.5369478 C45.8427518,63.0149398 45.8505324,62.4072289 45.4498362,62.0722088 C45.3058968,61.9514458 45.1074939,61.8696386 45.0608108,61.6826506 C45.018444,61.5032075 45.0522486,61.3142064 45.1541769,61.1606426 C45.9322277,59.6024096 47.0993038,58.2272691 48.1652334,56.8209639 C49.9555384,54.3541923 51.6175881,51.796591 53.1447584,49.1583534 C52.6665115,43.6377042 50.3449777,38.4393481 46.5546683,34.4018876 C45.7766175,33.5565462 44.8857494,32.7462651 43.7964783,32.364498 C43.0846514,32.1467999 42.3464544,32.0275305 41.6023751,32.01 C38.5524161,31.8035341 35.3779689,31.6204418 32.7209255,30.0855823 C32.530239,29.9533152 32.3143799,29.8618142 32.0868141,29.8167871 C31.4993857,29.7505622 31.0714578,30.331004 30.6902129,30.7906827 C29.709869,31.9593574 28.2665848,32.6293976 26.998362,33.4903213 C24.6330876,35.0991968 22.785217,37.3118876 21.0773956,39.5674297 Z" id="Path" fill="#5B5583"></path>
                <path d="M53.4092957,50.7516466 C54.0161753,52.6760643 53.9578215,54.7329317 54.1562244,56.7391566 C54.2737285,57.9498442 54.4857473,59.1494562 54.7903358,60.326988 C54.9294017,60.9742029 55.179489,61.5923692 55.529484,62.1540161 C55.8796069,62.6682329 56.3814496,63.0850602 56.6031941,63.665502 C56.7244047,64.0587417 56.7783319,64.4696761 56.7626945,64.8809237 L56.8093776,67.5688755 C56.909243,68.9932773 56.6926822,70.4221417 56.1752662,71.7527309 L54.4985667,76.8598394 C53.5921376,79.6257028 52.6623669,82.4344177 51.0284603,84.8418876 C50.7982649,85.249341 50.4494984,85.5768423 50.028665,85.7807229 C49.6991985,85.8679301 49.3614783,85.9201591 49.0210893,85.9365462 C47.7976628,86.1550584 46.9014851,87.2126562 46.8853399,88.456988 C46.4960413,87.8873503 46.0102153,87.3903116 45.4498362,86.9883534 L42.0380835,84.2614458 C40.8710074,83.3109237 39.6533579,82.3448193 38.2373055,81.7955422 C42.1284467,80.5786836 44.9375465,77.1793238 45.4031532,73.1239759 C45.4019106,72.5330357 45.5349428,71.9495569 45.7921785,71.4177108 C46.0761671,70.9580321 46.6013514,70.6074297 46.6402539,70.0659438 C46.6869369,69.3842169 45.9166667,68.87 45.9166667,68.1882731 C45.9166667,67.7363855 46.2512285,67.3624096 46.3990581,66.9377912 C46.5372275,66.4130636 46.5372275,65.8614344 46.3990581,65.3367068 L45.9283374,62.7188755 C45.9005872,62.4565763 45.8212573,62.2023729 45.6949222,61.9709237 C45.5187896,61.7490361 45.3235258,61.5430766 45.1113841,61.3554217 C44.3022113,60.447751 44.6601147,59.0180723 45.1113841,57.9000402 C46.1476642,55.4183368 47.4828343,53.0727018 49.0872236,50.915261 C49.6583061,50.1907884 50.1869706,49.4337757 50.6705569,48.6480321 C51.0829238,47.931245 51.1762899,46.9378715 51.6119984,46.3106827 C52.1721949,47.7832129 52.9307944,49.2362651 53.4092957,50.7516466 Z" id="Path" fill="#5B5583"></path>
                <path d="M38.1167076,81.955261 C37.9430659,82.0843116 37.7930245,82.2424663 37.6732187,82.4227309 C37.2148673,82.998941 36.6043181,83.4348737 35.9109337,83.681004 C36.299959,83.9614859 36.6539722,84.2380723 37.019656,84.5224498 C39.7253247,86.6148815 42.2028775,88.9874496 44.4111384,91.6007229 C44.6562244,90.7242169 46.1228501,90.7865462 46.4807535,89.948996 C46.5650391,89.7092687 46.5916952,89.4530197 46.5585586,89.2010442 C46.4842265,87.8887831 46.2967972,86.5854079 45.998362,85.3054618 C45.880568,84.6464907 45.6144937,84.023024 45.2203112,83.4823293 C44.6756757,82.8239759 43.8276003,82.5084337 43.0184275,82.235743 C41.7929975,81.8072289 39.3615889,81.2034137 38.1167076,81.955261 Z" id="Path" fill="#323444"></path>
                <path d="M33.2538903,85.0171888 C32.0868141,85.882008 31.0636773,86.9649799 29.7526618,87.5571084 C28.8267813,87.9778313 27.7725225,88.1609237 26.9633497,88.7881124 C27.4029484,89.7581124 28.546683,90.2606426 29.6087224,90.2216867 C30.6717313,90.1171234 31.6906069,89.7430687 32.5692056,89.1348193 C33.265561,88.7063052 34.0825143,88.2076707 34.8411138,88.5076305 C34.9578215,89.099759 34.4520885,89.6568273 34.4520885,90.256747 C34.4520885,90.8566667 34.950041,91.2929719 35.4402129,91.6085141 C37.7743653,93.1161044 40.7776413,92.9914458 43.5591728,92.8161446 C43.7187396,92.8220827 43.8758629,92.7755652 44.006552,92.6836948 C44.1283494,92.541367 44.1885426,92.3563349 44.1738329,92.1694779 C44.2088452,91.5539759 44.2244062,90.9423695 44.2282965,90.3268675 C44.3888341,89.3136625 43.9489506,88.2990257 43.1001229,87.7246185 C41.5906932,86.4253165 39.9625863,85.271038 38.2373055,84.2770281 C36.5255938,83.2836546 34.7905405,83.8718876 33.2538903,85.0171888 Z" id="Path" fill="#FBB3B2"></path>
                <path d="M23.3376331,12.1191566 C21.6103604,12.3256225 20.3538084,13.6773896 20.5288698,15.1460241 C20.7039312,16.6146586 22.2444717,17.62751 23.9717445,17.4171486 C25.6990172,17.2067871 26.9555692,15.8589157 26.7805078,14.3941767 C26.6054464,12.9294378 25.0649058,11.9126908 23.3376331,12.1191566 Z M23.9250614,17.012008 C22.462326,17.1873092 21.1590909,16.3263855 21.007371,15.0875904 C20.8556511,13.8487952 21.9254709,12.703494 23.3843161,12.5281928 C24.8431613,12.3528916 26.1502867,13.2138153 26.3020066,14.4526104 C26.4537265,15.6914056 25.3839066,16.8367068 23.9250614,17.012008 L23.9250614,17.012008 Z" id="Shape" fill="#3C354C"></path>
                <path d="M14.9191237,13.132008 C13.1918509,13.3384739 11.9352989,14.690241 12.1103604,16.1549799 C12.2854218,17.6197189 13.8259623,18.6364659 15.5532351,18.43 C17.2805078,18.2235341 18.5370598,16.8717671 18.3619984,15.4031325 C18.1869369,13.934498 16.6463964,12.9255422 14.9191237,13.132008 Z M15.506552,18.0209639 C14.0438165,18.1962651 12.7405815,17.3353414 12.5927518,16.1004418 C12.4449222,14.8655422 13.5069615,13.7163454 14.969697,13.5371486 C16.4324324,13.3579518 17.7356675,14.2227711 17.8834971,15.4615663 C18.0313268,16.7003614 16.9653972,17.8456627 15.506552,18.0209639 Z" id="Shape" fill="#3C354C"></path>
                <polygon id="Path" fill="#3C354C" points="8.66748567 13.8838554 12.4215807 14.6863454 12.0520066 15.6758233 8.51187551 14.6357028"></polygon>
                <polygon id="Path" fill="#3C354C" points="29.5931613 11.3673092 26.1308354 13.0385141 26.7260442 13.9111245 29.9199427 12.0607229"></polygon>
                <polygon id="Path" fill="#3C354C" points="18.0157658 14.4370281 20.6494676 14.1214859 20.5133088 14.7759438 18.2530713 14.9278715"></polygon>
                <path d="M12.9078624,13.5527309 C13.1556789,13.0189945 13.2882414,12.4389028 13.2968878,11.8503614 C13.3061133,11.498098 13.3663933,11.1490449 13.4758395,10.8141365 C13.6670692,10.3887861 13.957999,10.0159395 14.3239148,9.72726908 C15.537674,8.69883534 17.2766175,8.16903614 18.9922195,8.09502008 C20.8628841,8.00883991 22.7237482,8.41159487 24.3918919,9.26369478 C24.9014489,9.50276281 25.3578562,9.84189416 25.7340295,10.2609639 C26.278665,10.9271084 26.3953726,11.7880321 26.9438984,12.4463855 C27.7053015,13.2588761 28.8355698,13.6134922 29.9238329,13.3813253 C30.1144554,12.703494 29.8654791,11.9867068 29.9627355,11.2932932 C30.1160232,10.6991291 30.3230628,10.120189 30.5812858,9.56365462 C31.1842752,7.78337349 30.3050778,5.71871486 28.4922195,4.65522088 C27.8581081,4.26566265 27.1072891,4.0124498 26.6326781,3.48654618 C26.1580672,2.96064257 26.0452498,2.41526104 25.7184685,1.88935743 C24.8509419,0.498634538 22.6062654,-0.151927711 20.8984439,0.490843373 C20.3615889,0.693413655 19.8869779,1.00116466 19.3423423,1.21931727 C18.3308763,1.63614458 17.1793612,1.71016064 16.0667486,1.85040161 C14.9700781,1.95193019 13.8975844,2.23358216 12.8923014,2.68405622 C11.9314087,3.15931727 11.1261261,3.92285141 10.9043817,4.83441767 C10.7993448,5.25514056 10.8226863,5.69144578 10.7176495,6.10827309 C10.1807944,8.2235743 6.71457821,9.25200803 6.52006552,11.4101606 C6.45004095,12.1892771 6.87407862,12.9372289 7.40315315,13.5722088 C7.76883702,14.0046185 8.64414414,15.1616064 9.26269451,15.3291165 C9.88124488,15.4966265 10.3519656,14.9083936 10.9432842,14.7058233 C11.8769451,14.4136546 12.4410319,14.3513253 12.9078624,13.5527309 Z" id="Path" fill="#CBCEDA"></path>
            </g>
            <path d="M172,181 C172,200.344334 184.523911,216 200,216" id="Path" fill="#46455B" fill-rule="nonzero"></path>
            <path d="M200,217 C200,197.100522 213.418945,181 230,181" id="Path" fill="#FFFC00" fill-rule="nonzero"></path>
            <path d="M182,183 C182,201.240764 189.605164,216 199,216" id="Path" fill="#FFFC00" fill-rule="nonzero"></path>
            <path d="M199,216 C199,190.575856 214.655666,170 234,170" id="Path" fill="#46455B" fill-rule="nonzero"></path>
            <ellipse id="Oval" fill="#FFFC00" fill-rule="nonzero" opacity="0.1" cx="197" cy="222" rx="7" ry="1"></ellipse>
            <path d="M192,217.287613 C192,217.287613 196.035389,217.156276 197.246006,216.249625 C198.456622,215.342975 203.448399,214.254147 203.751053,215.711566 C204.053707,217.168986 209.804136,222.960533 205.256253,222.998663 C200.70837,223.036793 194.675463,222.253006 193.464846,221.477693 C192.25423,220.70238 192,217.287613 192,217.287613 Z" id="Path" fill="#A8A8A8" fill-rule="nonzero"></path>
            <path d="M205.337001,221.557538 C200.786445,221.590913 194.763414,220.904872 193.549125,220.226248 C192.625298,219.71079 192.258188,217.852916 192.133128,217 L192,217 C192,217 192.254153,219.988914 193.468442,220.667539 C194.68273,221.346163 200.705762,222.032204 205.256317,221.99883 C206.57146,221.99883 207.023288,221.557538 206.999083,220.923414 C206.817545,221.30908 206.337478,221.550122 205.337001,221.557538 Z" id="Path" fill="#000000" fill-rule="nonzero" opacity="0.2"></path>
            <ellipse id="Oval" fill="#3F3D56" fill-rule="nonzero" cx="388.5" cy="220" rx="59.5" ry="5"></ellipse>
            <path d="M448,163.214631 C448,187.515162 433.673112,196 416,196 C398.326885,196 384,187.515162 384,163.214631 C384,138.914101 416,108 416,108 C416,108 448,138.914098 448,163.214631 Z" id="Path" fill="#F2F2F2" fill-rule="nonzero"></path>
            <polygon id="Path" fill="#3F3D56" fill-rule="nonzero" points="413.943964 193.15817 414.273719 172.850692 428 147.727774 414.325378 169.66526 414.473552 160.534183 423.933744 142.357754 414.512838 158.117798 414.512838 158.117798 414.779487 141.695167 424.909708 127.224707 414.821557 139.112902 414.987982 109 413.940871 148.864168 414.026867 147.219615 403.727438 131.447502 413.86168 150.376576 412.902112 168.717646 412.873652 168.230841 401 151.633046 412.837769 169.950596 412.717746 172.24412 412.696092 172.278781 412.705991 172.466942 410.271187 219 413.524191 219 413.914577 194.964889 425.722959 176.692212"></polygon>
            <path d="M438,207.685945 C438,214.589525 433.746908,217 428.5,217 C428.378453,217 428.257097,216.998696 428.135933,216.996089 C427.89283,216.991062 427.652043,216.979893 427.414154,216.964254 C422.678914,216.640886 419,214.106425 419,207.685945 C419,201.041507 427.799642,192.657354 428.460639,192.036861 L428.461795,192.035746 C428.487269,192.011731 428.5,192 428.5,192 C428.5,192 438,200.782365 438,207.685945 Z" id="Path" fill="#FFFC00" fill-rule="nonzero"></path>
            <path d="M427.835182,215.947611 L431.325045,211.262215 L427.82647,216.462085 L427.817173,217 C427.573003,216.994973 427.331157,216.983802 427.092223,216.96816 L427.468361,210.060161 L427.465454,210.006533 L427.47185,209.996481 L427.50731,209.344056 L424,204.131338 L427.518347,208.85472 L427.526493,208.993249 L427.81077,203.773847 L424.80809,198.387423 L427.847394,202.857756 L428.143303,192.036876 L428.144464,192 L428.144464,192.035752 L428.09505,200.568673 L431.084368,197.185884 L428.082845,201.303763 L428.003784,205.976869 L430.794855,201.492004 L427.992158,206.66449 L427.947973,209.262458 L432,203.020288 L427.932858,210.169041 L427.835182,215.947611 Z" id="Path" fill="#3F3D56" fill-rule="nonzero"></path>
            <path d="M250,57 L237.634298,36.6821603 C240.703166,32.860512 240.406647,27.3989455 236.941342,23.9186585 C233.476037,20.4383715 227.916899,20.0189642 223.949819,22.9385173 C219.982738,25.8580704 218.838321,31.2109259 221.275353,35.4479651 C223.712386,39.6850043 228.974889,41.4918791 233.573652,39.6705723 L250,57 Z" id="Path" fill="#3F3D56" fill-rule="nonzero"></path>
            <circle id="Oval" fill="#FFFC00" fill-rule="nonzero" cx="230" cy="30" r="4"></circle>
            <path d="M289,54 L305.535459,37.4129185 C309.907269,39.3976253 315.060103,37.8035465 317.577462,33.6876087 C320.094822,29.5716709 319.195811,24.2106559 315.476504,21.1590925 C311.757197,18.1075291 306.371338,18.3120255 302.889929,21.636994 C299.40852,24.9619624 298.911509,30.3759831 301.72843,34.2893828 L289,54 Z" id="Path" fill="#3F3D56" fill-rule="nonzero"></path>
            <circle id="Oval" fill="#FFFC00" fill-rule="nonzero" cx="309" cy="29" r="4"></circle>
            <path d="M300,91 L320.007205,102.906263 C319.153657,107.561477 321.940866,112.117623 326.520822,113.553827 C331.100777,114.990031 336.052757,112.860776 338.093436,108.577828 C340.134115,104.29488 338.630466,99.1868276 334.579458,96.6404771 C330.52845,94.0941266 325.186722,94.8993667 322.096015,98.5222969 L300,91 Z" id="Path" fill="#3F3D56" fill-rule="nonzero"></path>
            <circle id="Oval" fill="#FFFC00" fill-rule="nonzero" cx="330" cy="105" r="4"></circle>
            <path d="M266.721216,111 L259.874473,133.628614 C255.114479,133.94891 251.325506,137.822812 251.019766,142.681796 C250.714026,147.54078 253.986362,151.877568 258.667107,152.816727 C263.347852,153.755886 267.98502,151.006086 269.504015,146.390533 C271.02301,141.77498 268.952634,136.72544 264.665614,134.589924 L266.721216,111 Z" id="Path" fill="#3F3D56" fill-rule="nonzero"></path>
            <circle id="Oval" fill="#FFFC00" fill-rule="nonzero" cx="260" cy="143" r="4"></circle>
            <path d="M240,83.8808986 L216.672687,82.6009399 C215.206638,78.0581739 210.575697,75.2998898 205.85033,76.1549204 C201.124962,77.0099511 197.770998,81.2130622 198.012225,85.9774534 C198.253451,90.7418446 202.01504,94.5895812 206.802934,94.9694877 C211.590828,95.3493942 215.919802,92.143622 216.919604,87.4777031 L240,83.8808986 Z" id="Path" fill="#3F3D56" fill-rule="nonzero"></path>
            <circle id="Oval" fill="#FFFC00" fill-rule="nonzero" cx="207" cy="86" r="4"></circle>
            <circle id="Oval" fill="#F2F2F2" fill-rule="nonzero" cx="449.5" cy="34.5" r="4.5"></circle>
            <circle id="Oval" stroke="#3F3D56" cx="447.5" cy="32.5" r="4.5"></circle>
            <rect id="Rectangle" fill="#FFFC00" fill-rule="nonzero" x="410" y="35" width="11" height="11"></rect>
            <rect id="Rectangle" stroke="#3F3D56" x="412" y="33" width="11" height="11"></rect>
            <path d="M385.709009,201 C385.709009,201 384.75801,206.9375 383.173012,207.875 C381.588013,208.8125 391.415002,211 391.415002,211 L393,201.625 L385.709009,201 Z" id="Path" fill="#FBBEBE" fill-rule="nonzero"></path>
            <path d="M397.68254,134 L401,138.066693 L399.492063,152.143707 L398.285714,179.984913 C398.285714,179.984913 400.698413,204.072248 398.285714,204.697893 C395.873016,205.323538 385.015873,205.010716 385.31746,203.446603 C385.619048,201.88249 385.920635,200.6312 386.52381,198.441442 C387.126984,196.251685 385.920635,188.431121 385.920635,188.431121 L387.428571,179.67209 L382,141.820563 L397.68254,134 Z" id="Path" fill="#2F2E41" fill-rule="nonzero"></path>
            <path d="M387.26574,207.27698 C387.26574,207.27698 383.720872,206.653775 383.398611,207.27698 C383.07635,207.900184 376.953394,214.443833 375.986612,214.443833 C375.01983,214.443833 367.930092,220.675879 375.34209,220.987481 C382.754089,221.299084 395,215.690242 395,215.690242 C395,215.690242 393.197834,207.76106 393.293265,208.142225 C393.388696,208.523389 387.26574,208.834991 387.26574,207.27698 Z" id="Path" fill="#2F2E41" fill-rule="nonzero"></path>
            <path d="M383,193.987013 C383,193.987013 391.784314,203.649351 392.098039,204.584416 C392.411765,205.519481 397.117647,204.584416 397.117647,204.584416 L399,198.350649 L397.431373,196.168831 L388.647059,189 L383,193.987013 Z" id="Path" fill="#FBBEBE" fill-rule="nonzero"></path>
            <path d="M395.296296,200.548192 L391,204.764916 C391,204.764916 396.481481,213.524523 396.481481,214.451403 C396.481481,215.378284 396.777778,223.10229 399.740741,221.866449 C402.703704,220.630608 403,208.272198 403,208.272198 C403,208.272198 402.703704,195.604828 400.925926,194.677948 C399.148148,193.751067 395.25171,194.043906 395.25171,194.043906 C395.25171,194.043906 397.666667,200.239232 395.296296,200.548192 Z" id="Path" fill="#2F2E41" fill-rule="nonzero"></path>
            <path d="M369.339503,106.283533 C369.339503,106.283533 367.787518,111.246711 367.477121,112.487506 C367.166724,113.7283 365.304341,117.140486 365.304341,122.413862 C365.304341,127.687239 365.925135,133.891212 365.304341,134.51161 C364.683547,135.132007 354.750842,169.874255 359.096401,173.596638 C363.441959,177.319022 377.720223,189.726968 378.651414,191.277961 C379.582605,192.828954 379.893002,196.551338 381.755384,195.930941 C383.617766,195.310543 390.756898,189.106571 391.067295,187.865776 C391.377692,186.624981 387.032134,184.453591 387.032134,184.453591 C387.032134,184.453591 378.341017,171.735447 376.168237,172.045645 C373.995458,172.355844 374.305855,170.494652 374.616252,169.564056 C374.926649,168.63346 375.547443,168.013063 374.616252,168.013063 C373.685061,168.013063 374.305855,165.531474 374.616252,164.290679 C374.926649,163.049885 382.065781,146.299158 382.065781,146.299158 L401,137.923795 C401,137.923795 400.068809,115.279294 393.240074,109.075321 L391.688089,105.352937 C391.688089,105.352937 374.305855,104.112143 369.339503,106.283533 Z" id="Path" fill="#2F2E41" fill-rule="nonzero"></path>
            <path d="M378.084337,57 C378.084337,57 379.650602,68.3380282 375.891566,68.9859155 C372.13253,69.6338028 369,69.3098592 369,69.6338028 C369,69.9577465 378.39759,80 378.39759,80 L387.168675,79.3521127 L395,70.6056338 C395,70.6056338 387.795181,69.3098592 387.795181,64.7746479 C387.795181,60.2394366 387.481928,57 387.481928,57 L378.084337,57 Z" id="Path" fill="#FBBEBE" fill-rule="nonzero"></path>
            <path d="M378.084337,57 C378.084337,57 379.650602,68.3380282 375.891566,68.9859155 C372.13253,69.6338028 369,69.3098592 369,69.6338028 C369,69.9577465 378.39759,80 378.39759,80 L387.168675,79.3521127 L395,70.6056338 C395,70.6056338 387.795181,69.3098592 387.795181,64.7746479 C387.795181,60.2394366 387.481928,57 387.481928,57 L378.084337,57 Z" id="Path" fill="#000000" fill-rule="nonzero" opacity="0.1"></path>
            <circle id="Oval" fill="#FBBEBE" fill-rule="nonzero" cx="382.5" cy="52.5" r="9.5"></circle>
            <path d="M373.027937,68 C373.027937,68 361.007612,69.5267176 360.082972,73.4961832 C359.158332,77.4656489 366.247241,102.198473 367.171881,104.335878 C368.096521,106.473282 367.788308,108 367.788308,108 C370.609872,105.909454 374.206225,105.130077 377.651138,105.862595 C383.507194,107.083969 391.828956,106.473282 391.828956,106.473282 C391.828956,106.473282 394.602877,95.1755725 395.219304,93.9541985 C395.835731,92.7328244 398.301439,86.0152672 398.301439,84.1832061 C398.301439,82.351145 402,74.7175573 402,74.7175573 C402,74.7175573 400.150719,69.221374 393.370024,69.5267176 C393.370024,69.5267176 390.412349,68.2152489 389.579584,69.1763267 C388.746819,70.1374046 384.12362,74.4122137 378.267565,72.5801527 C372.41151,70.7480916 373.027937,68 373.027937,68 Z" id="Path" fill="#3F3D56" fill-rule="nonzero"></path>
            <path d="M363.329488,73 L359.880996,73 L358,97.9347496 C358,97.9347496 364.896984,99.8285281 365.837482,98.5660091 C366.77798,97.3034901 363.329488,73 363.329488,73 Z" id="Path" fill="#3F3D56" fill-rule="nonzero"></path>
            <path d="M359.858369,95.0489064 L359.034335,97.7014564 C359.034335,97.7014564 358.484979,106.322244 361.781116,105.990675 C365.077253,105.659106 367,100.685575 367,100.685575 C367,100.685575 365.077253,94.3857689 362.879828,95.0489064 C360.682403,95.7120439 359.858369,95.0489064 359.858369,95.0489064 Z" id="Path" fill="#3F3D56" fill-rule="nonzero"></path>
            <path d="M397,73 L402.929011,74.5957447 C402.929011,74.5957447 407.297755,90.8723404 407.609808,91.1914894 C407.921862,91.5106383 408.233915,93.4255319 408.233915,93.4255319 C408.233915,93.4255319 408.233915,93.7446809 408.858021,94.7021277 C409.482128,95.6595745 410.418287,95.0212766 409.794181,96.2978723 C409.170074,97.5744681 408.233915,96.9361702 408.858021,98.212766 C409.482128,99.4893617 409.170074,103 409.170074,103 C409.170074,103 407.609808,96.9361702 401.992851,98.5319149 L398.248213,81.2978723 L397,73 Z" id="Path" fill="#3F3D56" fill-rule="nonzero"></path>
            <path d="M371.1949,44.2356138 C369.242196,47.7065608 368.802396,51.8178033 368.532955,55.8022491 C368.417413,57.5110837 368.330509,59.2649761 368.831501,60.9011003 C369.359767,62.6262933 370.535133,64.3791673 369.932397,66.0791896 C369.349424,67.723424 367.399856,68.3813879 366.311127,69.7371746 C365.388486,70.8861365 365.156741,72.460368 365.236805,73.9384795 C365.316869,75.416591 365.671129,76.8677048 365.775045,78.3442932 C365.989602,81.5877763 365.000032,84.7955254 363,87.3397716 C367.665644,87.1577634 372.653965,85.0646713 374.621506,80.7809066 C375.209699,79.5002842 375.495854,78.098788 376.026651,76.7927536 C376.627123,75.3152845 377.533218,73.9779999 378.101912,72.4877167 C378.959954,70.2391942 379.006394,67.7701647 379.042026,65.3601667 C379.063356,63.9175299 379.078528,62.4363911 378.585051,61.0827198 C377.498745,58.1028366 374.120443,56.1774875 373.785007,53.0195918 C373.727179,52.6856619 373.776034,52.3417768 373.924481,52.0378402 C374.082053,51.8157941 374.273195,51.6202284 374.490888,51.4583248 C376.600393,49.5747305 376.252545,45.5869755 378.763623,44.3029122 C379.890447,43.7266998 381.248731,43.9294068 382.458747,44.2941658 C383.802395,44.6992098 385.142983,45.3264875 386.017154,46.4354245 C387.777495,48.6685099 387.082809,51.8942337 386.538104,54.6968376 C385.748692,58.7620813 385.468779,62.9117597 385.704979,67.0478106 C385.720251,67.7093588 385.816676,68.3664274 385.992039,69.0039305 C386.315484,70.038308 387.004997,70.9072865 387.525503,71.8558229 C388.586301,73.8056421 388.930521,76.0724423 388.497157,78.2544847 C388.112909,80.1534127 387.158422,82.1757091 387.998656,83.9176837 C388.368528,84.5904053 388.883738,85.169978 389.505868,85.6131871 C392.251077,87.7899267 395.735789,89.1386372 397.77691,92 C398.128432,89.6628097 397.457855,87.3108121 396.962805,85.0003876 C396.467755,82.689963 396.166504,80.1746003 397.183864,78.046325 C397.630185,77.1126459 398.312369,76.300289 398.677229,75.3310664 C399.519867,73.0926848 398.515555,70.6375475 397.905645,68.3231681 C397.469654,66.5057249 397.154921,64.6606858 396.963576,62.8005296 L396.334538,57.7795973 C395.814518,53.6288376 395.270414,49.3935403 393.468794,45.6274266 C390.073632,38.5301586 382.390315,35.8942636 375.510995,39.8269514 C373.708338,40.879391 372.217821,42.4018755 371.1949,44.2356138 Z" id="Path" fill="#FF6584" fill-rule="nonzero"></path>
            <path d="M362.750249,96.3176899 C362.750249,96.3176899 360.869416,102 363.063721,102 C365.258027,102 369.333165,98.5274772 369.646637,95.6863221 C369.96011,92.8451671 375.602609,82.1119148 371.52747,83.0589664 C367.452332,84.0060181 365.571499,91.8981154 365.571499,91.8981154 L362.750249,96.3176899 Z" id="Path" fill="#FBBEBE" fill-rule="nonzero"></path>
            <polygon id="Path" fill="#FFFC00" fill-rule="nonzero" points="394.153846 74 384 106.923077 397.846154 110 408 78"></polygon>
            <path d="M406.985858,97.3341289 L408.931691,100.697952 C408.931691,100.697952 409.789105,107 405.428498,107 C401.067891,107 394.838452,100.878282 394.838452,100.878282 C394.838452,100.878282 391.723733,99.5894988 389.854901,99.9116945 C387.98607,100.23389 377.707496,99.9116945 382.068103,94.4343675 C386.42871,88.9570406 393.904036,94.4343675 393.904036,94.4343675 L401.690835,98.300716 L405.73997,96.0453461 L406.985858,97.3341289 Z" id="Path" fill="#FBBEBE" fill-rule="nonzero"></path>
            <path d="M404.169188,92.6027324 L401,97.4245913 C401,97.4245913 408.289133,98.3286899 408.922971,99.8355208 C409.556809,101.342352 406.070702,92 406.070702,92 L404.169188,92.6027324 Z" id="Path" fill="#3F3D56" fill-rule="nonzero"></path>
            <path d="M235,151 L239.763444,147.831698 L249.636022,135.671627 C250.222303,134.949495 250.085809,133.909305 249.331152,133.348289 L249.331152,133.348289 C248.57649,132.78728 247.489441,132.91789 246.903153,133.640016 L237.030575,145.800087 L235,151 Z" id="Path" fill="#2F2E41" fill-rule="nonzero"></path>
            <path d="M277.022988,32.3725074 C277.022988,32.3725074 271.12372,27.1946431 263.190222,36.9529238 C255.256724,46.7112046 242.847921,51.4907694 240,55.2745927 C240,55.2745927 251.798532,50.4950222 255.866993,48.5035421 C259.935453,46.512062 259.732021,46.9103529 259.732021,46.9103529 C259.732021,46.9103529 254.239611,50.6941848 253.222494,54.4779995 C252.205378,58.2618142 253.019072,61.4481984 251.188264,65.2320217 C249.357457,69.0158451 286.177007,67.8209524 286.177007,67.8209524 C286.177007,67.8209524 289.838622,61.6473467 288.821505,55.2745927 C287.804389,48.9018387 288.414674,33.1691005 277.022988,32.3725074 Z" id="Path" fill="#2F2E41" fill-rule="nonzero"></path>
            <path d="M265.113219,48 C265.113219,48 266.564076,57.9814799 260.346123,60.2222206 C254.12817,62.4629613 256.408095,65.5185186 256.408095,65.5185186 L265.735023,70 L275.683757,66.9444456 L279,62.0555515 C279,62.0555515 273.611106,60.8333309 275.061972,57.1666574 C276.512837,53.4999838 276.927358,52.2777632 276.927358,52.2777632 L265.113219,48 Z" id="Path" fill="#FFB9B9" fill-rule="nonzero"></path>
            <path d="M265.113219,48 C265.113219,48 266.564076,57.9814799 260.346123,60.2222206 C254.12817,62.4629613 256.408095,65.5185186 256.408095,65.5185186 L265.735023,70 L275.683757,66.9444456 L279,62.0555515 C279,62.0555515 273.611106,60.8333309 275.061972,57.1666574 C276.512837,53.4999838 276.927358,52.2777632 276.927358,52.2777632 L265.113219,48 Z" id="Path" fill="#000000" fill-rule="nonzero" opacity="0.1"></path>
            <path d="M290.963663,76 C290.963663,76 289.604018,94.7972085 289.992474,95.6144802 C290.38093,96.431752 289.992474,124.831878 289.992474,124.831878 C289.992474,124.831878 292.711768,140.155691 289.215531,140.97296 C285.719294,141.790228 286.496237,123.810292 286.496237,123.810292 L283,100.109464 L283.38847,76.6129427 L290.963663,76 Z" id="Path" fill="#FFB9B9" fill-rule="nonzero"></path>
            <path d="M290.963663,76 C290.963663,76 289.604018,94.7972085 289.992474,95.6144802 C290.38093,96.431752 289.992474,124.831878 289.992474,124.831878 C289.992474,124.831878 292.711768,140.155691 289.215531,140.97296 C285.719294,141.790228 286.496237,123.810292 286.496237,123.810292 L283,100.109464 L283.38847,76.6129427 L290.963663,76 Z" id="Path" fill="#000000" fill-rule="nonzero" opacity="0.1"></path>
            <path d="M251.457067,133 C251.457067,133 244.802849,158.38071 245.004492,170.766496 C245.206135,183.152283 247.827496,200.411168 247.827496,200.411168 C247.827496,200.411168 248.230781,207.923856 247.62585,208.736041 C247.020919,209.548225 250.650496,213 250.650496,213 L254.481705,210.766498 L255.893204,209.142132 L255.893204,207.720805 C255.893204,207.720805 253.675131,200.817253 255.489918,195.335018 C257.304706,189.852784 258.312922,176.045679 256.498146,171.78172 L269,134.421315 L251.457067,133 Z" id="Path" fill="#FFB9B9" fill-rule="nonzero"></path>
            <path d="M251.418726,209.331162 C251.418726,209.331162 248.959935,206.165256 247.320741,207.220557 C245.681546,208.275858 243.017856,215.451916 243.017856,215.451916 C243.017856,215.451916 233.79739,224.527512 240.354166,224.949635 C246.910943,225.371759 249.779531,223.050091 250.59913,221.361609 C251.418729,219.673128 259,215.240855 259,215.240855 C259,215.240855 258.180401,207.220557 256.951007,207.009497 C255.721613,206.798437 253.877517,210.175402 253.877517,210.175402 L251.418726,209.331162 Z" id="Path" fill="#2F2E41" fill-rule="nonzero"></path>
            <path d="M272.854368,135.086954 L272.854368,160.246375 C272.878046,163.299161 273.082282,166.347912 273.466018,169.376809 C274.077667,173.84058 270,207.115944 270,207.115944 L270.407766,213 L275.504853,212.594203 L276.116502,207.521741 L283.456309,185.202901 C283.456309,185.202901 285.902911,171.608696 284.679612,166.536234 C283.456312,161.463771 291,129 291,129 L272.854368,135.086954 Z" id="Path" fill="#FFB9B9" fill-rule="nonzero"></path>
            <path d="M269.41397,210.443122 L270.8547,210.100112 C270.8547,210.100112 271.942862,207.460709 273.304574,208.099799 C274.26281,208.583778 275.170619,209.179453 276.012273,209.876502 L276.611587,211.082188 C276.611587,211.082188 277.973296,214.277628 279.724068,216.407922 C281.47484,218.538216 283.420133,223.224866 280.502191,223.650924 C277.584248,224.076982 273.693633,224.290011 272.526454,223.224866 C271.359275,222.15972 272.137392,220.455481 270.970212,220.029423 C269.803033,219.603365 268.830381,218.325187 269.024911,217.899129 C269.21944,217.473071 269.41397,210.443122 269.41397,210.443122 Z" id="Path" fill="#2F2E41" fill-rule="nonzero"></path>
            <circle id="Oval" fill="#FFB9B9" fill-rule="nonzero" cx="273" cy="46" r="10"></circle>
            <path d="M256,61.9326711 L258.66228,61 C258.66228,61 257.612401,62.7416517 263.255813,63.7528956 C268.899225,64.7641396 274.743626,65.1221357 277.364059,61.808315 C277.364059,61.808315 278.372095,61.3259423 279.782946,62.7416663 C281.193797,64.1573903 282,63.7529102 282,63.7529102 L280.992249,69.0113117 L278.976745,78.7191369 L276.356591,86 L268.899225,84.3820301 L260.837209,78.516891 L257.813954,70.6292553 L257.813954,63.3483951 L256,61.9326711 Z" id="Path" fill="#FFFC00" fill-rule="nonzero"></path>
            <path d="M281.504591,64.0416327 L283.568811,62.6114693 C283.568811,62.6114693 290.587157,63.8373211 291,67.1062652 L285.63303,77.3217118 C286.727676,80.1641674 286.653572,83.3179754 285.426606,86.106992 C283.362386,90.8060966 283.568811,91.8276427 283.568811,91.8276427 L282.123856,97.9569107 L255.908267,100 C255.908267,100 254.876144,97.5482934 254.463313,97.1396732 C254.050481,96.731053 254.050469,95.3008925 254.463313,95.3008925 C254.876156,95.3008925 254.463313,94.6879666 254.050469,94.0750407 C253.637626,93.4621148 253.431201,93.2578032 254.050469,92.4405686 C254.669737,91.6233341 253.018346,84.2682114 253.018346,84.2682114 L253.018346,76.3001568 L246,67.1062564 C246,67.1062564 248.477063,63.428695 249.715596,63.0200777 C250.954129,62.6114604 256.845762,61 256.845762,61 L258.178897,62.9428475 L260.036692,77.7303084 L262.72018,86.7199003 L274.01901,84.8197848 L278.408254,77.5259998 L281.298163,68.9450252 L281.504591,64.0416327 Z" id="Path" fill="#FFFC00" fill-rule="nonzero"></path>
            <path d="M289.215879,66 L290.88309,67.2408332 C290.88309,67.2408332 292.3419,78.8219306 291.92511,79.6491538 C291.50832,80.4763769 284.214262,81.3035971 284.005861,80.889984 C283.79746,80.476371 289.215879,66 289.215879,66 Z" id="Path" fill="#FFFC00" fill-rule="nonzero"></path>
            <path d="M244.036339,79 C244.036339,79 245.395987,97.7972085 245.007528,98.6144802 C244.619069,99.431752 245.007528,127.83188 245.007528,127.83188 C245.007528,127.83188 242.288231,143.155691 245.784469,143.97296 C249.280706,144.790228 248.503763,126.810292 248.503763,126.810292 L252,103.109464 L251.61153,79.6129427 L244.036339,79 Z" id="Path" fill="#FFB9B9" fill-rule="nonzero"></path>
            <path d="M255.49749,60.8159014 L257.532719,74.2784375 C257.532719,74.2784375 255.701012,94.268267 256.10806,98.3478239 L256.515106,99.5716893 C256.515106,99.5716893 255.701012,99.1637342 255.497478,99.9796444 C255.293943,100.795555 255.497478,103.447269 255.497478,103.447269 C255.497478,103.447269 254.276342,104.671137 253.869294,111.402405 C253.462246,118.133673 248.577699,134.247923 250.409406,134.859868 C252.241113,135.471812 263.23135,138.531469 269.133515,137.919537 C275.035681,137.307604 296.202065,130.168378 295.998542,128.332577 C295.79502,126.496776 285.618873,100.591592 285.618873,100.591592 C285.618873,100.591592 283.787166,97.5319226 283.787166,97.1239675 C283.787166,96.7160124 286.229441,95.084189 285.618873,93.4523656 C285.008305,91.8205423 281.751946,74.6864044 281.751946,74.6864044 L283.990698,62.4477336 L280.937852,61.6318234 L278.6991,73.462539 C278.6991,73.462539 269.947618,77.7460735 260.789084,73.8704941 L258.753855,60 L255.49749,60.8159014 Z" id="Path" fill="#2F2E41" fill-rule="nonzero"></path>
            <path d="M247.109105,67 L245.438584,67.5965209 C245.438584,67.5965209 242.306357,80.1234768 243.141619,80.1234768 C243.976881,80.1234768 254,81.3165214 254,80.9188409 C254,80.5211603 252.120664,70.7779714 252.120664,70.7779714 L247.109105,67 Z" id="Path" fill="#FFFC00" fill-rule="nonzero"></path>
            <path d="M265,37.0772012 C265,37.0772012 280.043907,47.4740414 284.109828,42.785271 C288.175749,38.0965007 276.994467,34.0193113 276.994467,34.0193113 L267.642848,33 L265,37.0772012 Z" id="Path" fill="#2F2E41" fill-rule="nonzero"></path>
            <polygon id="Path" fill="#2F2E41" fill-rule="nonzero" points="51 63.5920403 28 68 28 50 49.1451056 50.7346125"></polygon>
            <path d="M50.7776229,93 L50,101.035735 L54.276929,124.377634 C54.276929,124.377634 54.276929,140.066451 58.1650466,137.770526 C62.0531642,135.474601 58.5538581,124.377634 58.5538581,124.377634 L58.5538581,99.8877744 L57.7762352,93 L50.7776229,93 Z" id="Path" fill="#A0616A" fill-rule="nonzero"></path>
            <path d="M16.8102274,94 L16.4233664,99.7017789 L5.3081211,126.834585 C5.3081211,126.834585 -3.53620236,134.812169 1.60781078,138.353568 C6.75182391,141.894967 9.84671474,129.731161 9.84671474,129.731161 L21.8394171,106.543924 L23,94 L16.8102274,94 Z" id="Path" fill="#A0616A" fill-rule="nonzero"></path>
            <path d="M11.4795269,145 L12.2306635,160.2 C12.2306635,160.2 9.22611421,175.400001 12.6062318,188.320001 L14.4840761,202 L19.7420381,201.239998 L21.6198824,183.759988 C21.6198824,183.759988 22.7465873,168.559988 22.371019,166.659987 L25,148.419987 L11.4795269,145 Z" id="Path" fill="#A0616A" fill-rule="nonzero"></path>
            <path d="M36,150 L42.1333308,170.875912 C42.1333308,170.875912 42.8999967,179.9854 47.5,188.715329 C52.1000003,197.445258 52.8666663,202 52.8666663,202 L59,201.240874 L56.6999991,184.160584 C56.6999991,184.160584 54.0166652,164.802918 51.7166554,162.525548 L49.4166575,150.379562 L36,150 Z" id="Path" fill="#A0616A" fill-rule="nonzero"></path>
            <circle id="Oval" fill="#A0616A" fill-rule="nonzero" cx="37" cy="54" r="9"></circle>
            <path d="M32.9973593,61.2523781 C32.9973593,61.2523781 36.4446747,68.0095095 32.9973593,69.8864917 C29.5500438,71.7634739 28.017893,72.5142656 28.017893,72.5142656 C28.017893,72.5142656 23.4214705,89.4070999 33.7634198,87.9055135 C44.1053691,86.4039271 51,68.7603041 51,68.7603041 C51,68.7603041 44.1053691,66.8833219 42.5732273,59 L32.9973593,61.2523781 Z" id="Path" fill="#A0616A" fill-rule="nonzero"></path>
            <path d="M30.3093805,80.1355935 C29.0028118,79.3175111 28.2217619,77.879692 28.2501974,76.3448846 C28.2436938,74.9862902 28.6787328,73.6619384 29.4905413,72.5690119 L30.9417791,70.568528 C30.9417791,70.568528 23.7545816,68.7555256 18.8147322,76.6885224 C13.8748829,84.6215193 7.03509369,95.5766098 13.1149069,96.7098879 C19.1947202,97.8431661 21.0946629,97.8431748 21.0946629,97.8431748 C21.0946629,97.8431748 20.7146779,102.376317 16.5348015,106.5317 C12.3549251,110.687084 -5.12453575,142.041307 3.2352082,145.818923 C11.5949522,149.596539 51.873723,157.907301 53.3936778,151.86311 C54.9136326,145.81892 45.7939186,108.042748 45.7939186,108.042748 L48.8338282,95.9543711 C48.8338282,95.9543711 72.7730962,96.7098938 69.7331866,91.7989935 C66.693277,86.8880932 61.3734427,68 51.4937469,68 L49.7341387,68 C49.7341387,68 41.8382592,77.1308943 36.2268555,80.2371904 C34.3883754,81.2981724 32.1099126,81.2590536 30.3093805,80.1355935 Z" id="Path" fill="#2F2E41" fill-rule="nonzero"></path>
            <path d="M51.5192632,201.758985 L50.3798151,208.969263 L50,218.076981 L52.6587084,218.456472 L53.4183385,213.523115 L54.9376017,221.492369 C54.9376017,221.492369 57.5963101,225.666739 62.1540968,224.907763 C66.7118835,224.148788 61.3944637,215.041067 61.3944637,215.041067 L59.1155704,201 L51.5192632,201.758985 Z" id="Path" fill="#2F2E41" fill-rule="nonzero"></path>
            <path d="M20.4807344,200.758976 L21.6201792,207.969254 L22,217.076973 L19.3412926,217.456461 L18.5816627,212.523103 L17.0623913,220.492367 C17.0623913,220.492367 14.4036839,224.666739 9.84590183,223.907763 C5.2881198,223.148788 10.6055317,214.041067 10.6055317,214.041067 L12.8844242,200 L20.4807344,200.758976 Z" id="Path" fill="#2F2E41" fill-rule="nonzero"></path>
            <circle id="Oval" fill="#FFFC00" fill-rule="nonzero" cx="33.5" cy="84.5" r="1.5"></circle>
            <circle id="Oval" fill="#FFFC00" fill-rule="nonzero" cx="31.5" cy="94.5" r="1.5"></circle>
            <circle id="Oval" fill="#FFFC00" fill-rule="nonzero" cx="29.5" cy="104.5" r="1.5"></circle>
            <circle id="Oval" fill="#FFFC00" fill-rule="nonzero" cx="29.5" cy="115.5" r="1.5"></circle>
            <circle id="Oval" fill="#FFFC00" fill-rule="nonzero" cx="26.5" cy="124.5" r="1.5"></circle>
            <circle id="Oval" fill="#FFFC00" fill-rule="nonzero" cx="26.5" cy="134.5" r="1.5"></circle>
            <path d="M31.9353516,41.5025953 C29.419794,41.0665141 26.6642785,42.5040908 25.8800316,44.6617072 C25.6282723,45.3543485 25.5578281,46.1015705 25.1922431,46.7533628 C24.8004002,47.4519795 24.1060002,47.9765921 23.5988131,48.6145669 C22.7252291,49.6958472 22.4498637,51.1469953 22.8659808,52.4765197 C23.1110787,53.2294777 23.5773544,53.9298575 23.6809501,54.7080099 C23.7121753,54.8711516 23.6977983,55.0398221 23.6394219,55.1952168 C23.5377795,55.3760968 23.3949327,55.530075 23.2226428,55.6444735 C22.4044828,56.2928994 21.6164431,56.9694898 20.8585237,57.6742447 C20.0858609,58.3927639 19.2916307,59.3223705 19.5818959,60.2799849 C19.700028,60.5819911 19.8513898,60.8697139 20.0331482,61.1377677 C20.7569787,62.4041102 20.7536867,63.9634977 20.0245159,65.2267288 C19.6917975,65.8013903 19.2212482,66.309739 18.9221041,66.8986499 C20.1968242,66.5739968 21.3265197,65.8279528 22.1303171,64.7799657 C21.4407575,66.4715082 19.0217346,67.1117075 18,68.6663795 C18.7006696,68.6699583 19.3911452,68.4973385 20.0088199,68.1641719 C19.4916964,68.5057139 19.0086893,68.8969746 18.5665847,69.3324567 C19.5737583,69.1000455 20.5056002,68.6132048 21.2743102,67.9178056 C20.5867085,68.4250185 20.1009287,69.1622778 19.9040289,69.997457 C22.7334397,70.0469024 25.5066104,69.3668629 28.2318382,68.6925148 L32.805956,67.5606655 C33.1083642,67.5199436 33.390003,67.3831688 33.6099522,67.1702137 C33.7428535,66.9673575 33.7938549,66.7210562 33.7525412,66.4816074 C33.6564382,65.3144911 33.0256448,64.2370747 32.3325019,63.2401436 C31.8082427,62.4866704 31.2451409,61.7613835 30.6455125,61.0672662 C30.0211309,60.3440228 29.3480516,59.6411966 28.9018717,58.8213254 C27.9259857,57.0280966 28.1530789,54.9283357 28.4018012,52.9505392 C28.4749829,52.3686065 28.5715029,51.7409528 29.0319661,51.3201149 C29.2138539,51.153867 29.4414847,51.0320653 29.6314908,50.8730768 C30.2834374,50.3275589 30.3869684,49.4629635 30.5882854,48.6895855 C30.8912857,47.5543725 31.4580924,46.5080474 32.2418914,45.637029 C32.5297304,45.3139076 32.9130674,44.9852811 33.3776308,45.0071685 C34.2542975,45.0484672 34.9098275,45.6504797 35.3698882,46.3114984 C35.7888153,46.9858126 36.1459022,47.6971483 36.4367255,48.4366935 C37.2543264,50.2269789 38.5973129,52.0329574 40.6944201,52.5717691 C41.5025371,52.7794015 42.3907996,52.7883055 43.117041,53.164215 C43.8048361,53.5435078 44.3040186,54.1949585 44.4939954,54.9611889 C44.6557842,55.6891737 44.6993113,56.4387621 44.6228827,57.1807784 C44.4837669,59.7407157 44.2172613,62.2920151 43.8243702,64.8250627 L54.7070859,64.963924 C54.5134818,63.5019657 53.9856098,62.1052153 53.1650205,60.8836155 C54.4387026,61.0189635 55.7209744,61.0533187 57,60.9863638 C56.5403122,60.112749 55.2215336,60.0045961 54.2358229,59.5935438 C54.1037315,59.5489291 53.9851888,59.4709807 53.8914969,59.3671302 C53.8037741,59.2225984 53.7686456,59.0518564 53.7921219,58.884118 L53.8415245,57.1883453 C53.8870173,56.7935009 53.827669,56.3935693 53.6695377,56.0293758 C53.4743946,55.6664319 53.0942914,55.4046625 52.8780596,55.0511816 C52.3492347,54.1867045 52.9355863,53.0727728 52.5512801,52.1505585 C52.2299225,51.379411 51.3315298,50.9473913 50.5479203,50.5052814 C49.4683153,49.8961723 48.4600475,49.1144523 47.9327997,48.0826032 C47.6859543,47.5995201 47.552814,47.0780579 47.3558205,46.5773944 C46.7040472,44.9208971 45.3528572,43.5224685 43.734024,42.50867 C42.0548562,41.5128262 40.2263507,40.7980424 38.3198126,40.3921926 C36.9875907,40.0783923 35.583691,39.8564721 34.2352766,40.1105237 C32.8868623,40.3645753 31.6015493,41.1877182 31.245513,42.3652383" id="Path" fill="#2F2E41" fill-rule="nonzero"></path>
            <circle id="Oval" fill="#FFFC00" fill-rule="nonzero" cx="474.5" cy="10.5" r="10.5"></circle>
            <ellipse id="Oval" fill="#FFFC00" fill-rule="nonzero" cx="544" cy="71.5" rx="3" ry="2.5"></ellipse>
            <polygon id="Path" fill="#FFFC00" fill-rule="nonzero" points="528.453223 138 520 142.77911 520.547089 144 529 139.22089"></polygon>
            <path d="M526,130.394513 L525.636283,132.761598 C525.636283,132.761598 526.18186,149.133946 522.180962,144.00526 C518.180065,138.876574 520.90795,131.972572 520.90795,131.972572 L521.999106,130 L526,130.394513 Z" id="Path" fill="#FBBEBE" fill-rule="nonzero"></path>
            <path d="M500.266741,53 C500.266741,53 499.434727,61.5 499.018719,61.9047622 C498.60271,62.3095261 505.258822,70 505.258822,70 L511.082914,64.7381094 C511.082914,64.7381094 510.666909,57.0476322 511.914928,55.4285833 C513.162947,53.8095344 500.266741,53 500.266741,53 Z" id="Path" fill="#FBBEBE" fill-rule="nonzero"></path>
            <path d="M500.266741,53 C500.266741,53 499.434727,61.5 499.018719,61.9047622 C498.60271,62.3095261 505.258822,70 505.258822,70 L511.082914,64.7381094 C511.082914,64.7381094 510.666909,57.0476322 511.914928,55.4285833 C513.162947,53.8095344 500.266741,53 500.266741,53 Z" id="Path" fill="#000000" fill-rule="nonzero" opacity="0.1"></path>
            <polygon id="Path" fill="#3F3D56" fill-rule="nonzero" points="486 208.090963 486 214.636147 482.705746 215 478 213.909037 479.411492 207"></polygon>
            <path d="M482.121258,210.831372 C482.121258,210.831372 480.945511,207.635017 478.985931,208.034563 C477.026351,208.434109 476.634433,210.831372 476.634433,210.831372 C476.634433,210.831372 475.066772,216.824532 472.715274,218.822252 C470.363777,220.819972 468.012282,226.014047 472.715274,226.813132 C477.418266,227.612218 481.337425,225.614501 481.337425,225.214958 C481.337425,224.815416 482.513176,222.418149 484.472755,222.018604 C486.432335,221.619058 488,221.219518 488,219.621341 C488,218.023163 486.82425,216.424989 486.82425,216.424989 C486.82425,216.424989 486.432335,208.846236 485.648502,209.838804 C485.106434,210.622971 484.708095,211.500705 484.472755,212.429546 L482.121258,210.831372 Z" id="Path" fill="#2F2E41" fill-rule="nonzero"></path>
            <polygon id="Path" fill="#3F3D56" fill-rule="nonzero" points="503.500077 203.388818 502 209.222045 505.750038 210 507.625058 208.055591 508 203"></polygon>
            <path d="M502.633128,208.889923 C502.633128,208.889923 504.247848,207.722945 505.05521,207.722945 L506.266252,207.722945 C506.266252,207.722945 506.266252,205 508.284659,205 C510.303065,205 509.899379,206.94496 509.899379,206.94496 C509.899379,206.94496 514.339869,213.557832 515.550911,214.724804 C516.761952,215.891776 523.220845,219.392709 517.972997,220.948678 C512.725148,222.504648 509.092017,222.504644 506.669935,219.7817 C506.669935,219.7817 504.247848,218.614724 502.633128,218.614724 C501.018407,218.614724 499,217.836739 499,216.669764 C499,215.502789 500.211041,213.168834 500.211041,213.168834 C500.211041,213.168834 501.018403,206.166979 501.422083,206.94496 C501.825762,207.722942 502.633128,208.889923 502.633128,208.889923 Z" id="Path" fill="#2F2E41" fill-rule="nonzero"></path>
            <path d="M484.996485,111 L484.996485,124.239493 C484.996485,124.239493 480.526806,149.91609 480.526806,158.341216 C480.526806,166.766342 473.619117,206.886024 476.869797,207.688418 C480.120477,208.490812 487.840825,209.694402 488.247158,208.490812 C488.653491,207.287223 491.497831,169.173514 491.904167,168.772332 C492.310504,168.371149 500.843521,136.676593 500.843521,136.676593 L502.468859,137.077788 L503.281525,173.185497 C503.281525,173.185497 499.218183,205.682444 501.249854,205.682444 C503.281525,205.682444 511.814546,205.281246 511.814546,202.874067 C511.814546,200.466888 516.284225,155.934047 516.284225,155.934047 C516.284225,155.934047 521.566555,120.628732 519.534898,117.01796 C517.50324,113.407189 517.503227,111.401205 517.503227,111.401205 L484.996485,111 Z" id="Path" fill="#2F2E41" fill-rule="nonzero"></path>
            <circle id="Oval" fill="#FBBEBE" fill-rule="nonzero" cx="507" cy="52" r="8"></circle>
            <path d="M505.661014,64.8715397 C505.661014,64.8715397 500.576268,60.6197334 500.169486,59 C500.169486,59 497.52542,61.6320696 497.52542,62.0370021 C497.52542,62.4419347 486.135591,63.6567388 483.288136,66.8962089 C480.440682,70.135679 478,77.0195583 478,77.0195583 L484.915259,89.9774419 C484.915259,89.9774419 485.322041,97.2662537 485.322041,98.0761187 C485.322041,98.8859837 483.288143,111.843884 484.1017,112.248806 C484.915256,112.653729 493.050853,116.703081 499.966106,115.893212 C506.881358,115.083344 513.796624,113.868543 515.830509,113.868543 C517.864393,113.868543 519.491526,114.678412 519.491526,113.868543 C519.491526,113.058675 518.271188,111.438938 518.271188,110.62907 C518.271188,109.819201 517.864406,107.794532 517.864406,106.579731 C517.864406,105.36493 517.050846,103.340261 517.050846,101.720525 C517.050846,100.100788 526,78.2343591 526,78.2343591 C526,78.2343591 525.593218,71.3504765 519.084741,68.1110098 C512.576263,64.871543 511.76271,63.6567388 511.76271,63.6567388 C511.76271,63.6567388 511.635895,61.2271338 511.292522,61.2271338 C510.94915,61.2271338 509.728826,64.8715397 506.474573,65.2764755 L505.661014,64.8715397 Z" id="Path" fill="#D0CDE1" fill-rule="nonzero"></path>
            <polygon id="Path" fill="#FBBEBE" fill-rule="nonzero" points="483 118.36853 486.080116 123 494 121.315735 488.280043 115"></polygon>
            <path d="M522.633126,76 L524.987617,79.161827 C524.987617,79.161827 529.696595,102.08508 528.911765,110.38488 C528.126934,118.68468 527.342104,125.008334 527.342104,125.008334 C527.342104,125.008334 528.911765,130.936764 527.734518,130.936764 C526.557271,130.936764 519.493808,131.331991 519.493808,130.146306 C519.493808,128.960622 520.278642,121.45128 520.278642,121.45128 L518.316561,104.061226 L514,98.132799 L522.633126,76 Z" id="Path" fill="#D0CDE1" fill-rule="nonzero"></path>
            <path d="M502.478708,47.9289917 C502.965933,47.7222623 503.529193,47.8899646 504.050985,47.8017797 C504.663725,47.6982255 505.211971,47.243767 505.830733,47.3011222 C506.123958,47.3555489 506.408814,47.4481355 506.678051,47.5765263 C506.951049,47.7049475 507.264594,47.7161888 507.546069,47.6076467 C507.680515,47.5451543 507.779764,47.4254514 507.81636,47.2816519 C507.852956,47.1378523 507.82302,46.9852008 507.734833,46.8659258 C508.258349,46.8197443 508.753217,46.6064919 509.146559,46.2575731 C509.224946,46.1761 509.315912,46.1077796 509.415974,46.0552297 C509.651742,45.9936335 509.902471,46.0327308 510.108356,46.1631961 L511.017779,46.58286 C511.22264,46.6552892 511.402821,46.7843213 511.537464,46.9550186 C511.645635,47.123864 511.666808,47.3509038 511.820022,47.4801897 C512.015509,47.6451454 512.307736,47.564423 512.562885,47.5805923 C513.042373,47.6272971 513.411056,48.0258629 513.420799,48.5080431 C513.417185,48.7752073 513.320115,49.1029763 513.531192,49.2664885 C513.65362,49.361326 513.827436,49.3461495 513.970863,49.404442 C514.34259,49.555521 514.344038,50.0735627 514.289117,50.4714009 C514.234196,50.869239 514.261368,51.39409 514.643446,51.5165862 C514.912472,51.6028377 515.187409,51.4189661 515.46691,51.3779566 C515.888567,51.316088 516.278729,51.5801138 516.654089,51.7821273 C517.02945,51.9841408 517.52811,52.1204091 517.853453,51.8448548 C518.156195,51.5884418 518.136771,51.1193424 518.053521,50.7311941 C517.934027,50.174692 517.73777,49.6375401 517.470393,49.1351876 C517.37145,48.9873599 517.313146,48.8160503 517.30135,48.6384981 C517.347246,48.3856827 517.498974,48.1645947 517.718247,48.031024 C518.178163,47.6670332 518.707218,47.3005866 518.856106,46.7329103 C518.965394,46.3162803 518.842463,45.8768873 518.851953,45.4462402 C518.863505,44.9222187 519.071637,44.4004507 518.974029,43.8854822 C518.797104,42.9520483 517.759388,42.5028218 517.089522,41.8297918 C516.16905,40.9049668 515.870203,39.425764 514.783891,38.7034293 C513.914846,38.1255635 512.778125,38.1945451 511.788498,37.8639185 C510.701364,37.5007181 509.826267,36.6662923 508.753902,36.2614913 C507.568719,35.8239421 506.250203,35.9397171 505.159204,36.5771309 C504.839249,36.8146342 504.482119,36.9972999 504.102386,37.1176744 C503.782576,37.1547631 503.459354,37.1510099 503.140489,37.1065051 C502.50667,37.0737758 501.875051,37.2042372 501.305932,37.4854339 C501.088119,37.5725892 500.906727,37.7318479 500.791991,37.9366624 C500.599998,38.3635407 500.878922,39.0308815 500.458068,39.2349917 C500.261851,39.3301558 500.030201,39.2389891 499.81222,39.2437801 C499.388339,39.2530976 499.062236,39.6223431 498.860544,39.9956873 C498.703285,40.3903776 498.477526,40.7541086 498.193699,41.0700694 C497.675564,41.5243516 496.734212,41.5994241 496.598836,42.2754815 C496.596393,42.5617104 496.61263,42.8477933 496.647445,43.1319029 C496.608297,43.7310263 495.967838,44.1863535 496.001264,44.785823 C496.039821,45.4772888 496.917374,45.8151199 497.151957,46.4666278 C497.330578,46.962713 497.095519,47.4990991 496.933781,48.0009323 C496.772042,48.5027654 496.723264,49.1460172 497.140973,49.467274 C497.30476,49.5932418 497.515342,49.644885 497.682372,49.7665026 C498.114601,50.0812146 498.109143,50.7163311 498.061145,51.2492063 C498.004965,51.4738101 498.063803,51.7116826 498.218183,51.884091 C498.362556,51.97159 498.53757,51.9926289 498.698531,51.9418348 C499.223059,51.8145032 499.671952,51.4763322 499.939414,51.0070227 C500.07861,50.7766255 500.106584,50.5735604 500.359449,50.4513125 C500.53103,50.3683595 500.739387,50.4424 500.914041,50.3347504 C501.744947,49.8226755 501.458921,48.3616702 502.478708,47.9289917 Z" id="Path" fill="#2F2E41" fill-rule="nonzero"></path>
            <path d="M480.297025,76 L479.132669,77.2270029 C479.132669,77.2270029 472.146546,99.3130087 474.475242,104.221014 C476.803938,109.129019 481.461384,121.399021 483.013858,120.990019 C484.566331,120.581017 490,116.900018 490,116.491019 C490,116.082021 483.401972,104.630016 483.401972,104.630016 C483.401972,104.630016 482.625734,102.176013 483.013851,101.767015 C483.401969,101.358016 483.401972,101.767015 483.013851,100.949014 C482.625731,100.131013 482.625734,100.949014 483.401972,100.131013 C484.178211,99.313012 484.178211,99.313012 484.178211,98.9040133 C484.178211,98.4950145 486.506923,88.2700091 486.506923,88.2700091 L480.297025,76 Z" id="Path" fill="#D0CDE1" fill-rule="nonzero"></path>
            <polygon id="Path" fill="#2F2E41" fill-rule="nonzero" points="486 123.333288 494.800236 121 496 123.333288 486.40025 125"></polygon>
            <polygon id="Path" fill="#000000" fill-rule="nonzero" opacity="0.1" points="486 123.333288 494.800236 121 496 123.333288 486.40025 125"></polygon>
            <polygon id="Path" fill="#000000" fill-rule="nonzero" opacity="0.1" points="498 63 505.157731 69 506 67.7141601"></polygon>
            <polygon id="Path" fill="#000000" fill-rule="nonzero" opacity="0.1" points="511 64 507 66.7998687 507.333288 68"></polygon>
        </g>
        <path d="M407.469914,167 L398.530086,167 L398.530086,147.949416 C398.530086,144.72761 398.232095,142.439695 397.636103,141.085603 C397.040112,139.731511 395.802302,139.054475 393.922636,139.054475 C392.363889,139.054475 391.103157,139.486377 390.140401,140.350195 C389.177646,141.214012 388.444129,142.32295 387.939828,143.677043 L387.939828,167 L379,167 L379,131.980545 L385.945559,131.980545 L386.977077,136.603113 L387.252149,136.603113 C388.306596,135.108942 389.647556,133.801556 391.275072,132.680934 C392.902587,131.560306 394.999987,131 397.567335,131 C399.767919,131 401.567328,131.455248 402.965616,132.365759 C404.363904,133.276269 405.452718,134.805437 406.232092,136.953307 C407.286538,135.132287 408.63896,133.68483 410.289398,132.610895 C411.939836,131.53696 413.934086,131 416.272206,131 C418.197717,131 419.836669,131.233461 421.189112,131.700389 C422.541554,132.167318 423.64183,132.972757 424.489971,134.116732 C425.338113,135.260706 425.968479,136.789874 426.381089,138.70428 C426.793696,140.618687 427,143.046678 427,145.988327 L427,167 L418.060172,167 L418.060172,147.319066 C418.060172,144.564189 417.773642,142.498061 417.200573,141.120623 C416.627504,139.743184 415.355311,139.054475 413.383954,139.054475 C411.779362,139.054475 410.507168,139.49805 409.567335,140.385214 C408.627502,141.272378 407.928369,142.486374 407.469914,144.027237 L407.469914,167 Z M443.05618,132 L443.05618,151.891051 C443.05618,154.739314 443.392881,156.793768 444.066292,158.054475 C444.739704,159.315175 446.051676,159.945525 448.002247,159.945525 C449.720608,159.945525 451.148683,159.431912 452.286517,158.404669 C453.42435,157.377427 454.271907,156.116739 454.829213,154.622568 L454.829213,132 L463.885393,132 L463.885393,156.373541 C463.885393,158.287947 463.978276,160.167306 464.164045,162.011673 C464.349814,163.85604 464.628463,165.525284 465,167.019455 L458.173034,167.019455 L456.570787,161.836576 L456.292135,161.836576 C455.223965,163.610904 453.737837,165.081706 451.833708,166.249027 C449.929578,167.416348 447.677167,168 445.076404,168 C443.311602,168 441.732591,167.766539 440.339326,167.299611 C438.94606,166.832682 437.785023,166.062262 436.85618,164.988327 C435.927336,163.914392 435.219104,162.466935 434.731461,160.645914 C434.243818,158.824894 434,156.536979 434,153.782101 L434,132 L443.05618,132 Z M485.840108,157.348485 C485.840108,156.414137 485.440835,155.666669 484.642276,155.106061 C483.843718,154.545452 482.857278,154.031568 481.682927,153.564394 C480.508576,153.09722 479.216802,152.618374 477.807588,152.127841 C476.398367,151.637308 475.1066,150.959916 473.932249,150.095644 C472.757898,149.231372 471.771458,148.133529 470.9729,146.802083 C470.174341,145.470637 469.775068,143.753798 469.775068,141.651515 C469.775068,138.194427 470.808481,135.554933 472.875339,133.732955 C474.942196,131.910976 477.925003,131 481.823848,131 C484.501368,131 486.920495,131.2803 489.081301,131.840909 C491.242107,132.401515 492.933147,133.032193 494.154472,133.732955 L492.111111,140.320076 C491.030708,139.899619 489.668482,139.45581 488.02439,138.988636 C486.380299,138.521462 484.712746,138.287879 483.02168,138.287879 C480.297186,138.287879 478.934959,139.339005 478.934959,141.441288 C478.934959,142.282201 479.334233,142.959593 480.132791,143.473485 C480.93135,143.987376 481.91779,144.466223 483.092141,144.910038 L484.941734,145.602036 C485.587622,145.841461 486.262869,146.089645 486.96748,146.346591 C488.376694,146.860482 489.668467,147.526195 490.842818,148.34375 C492.017169,149.161305 493.003609,150.22411 493.802168,151.532197 C494.600727,152.840284 495,154.522086 495,156.577652 C495,160.128174 493.860897,162.919497 491.582656,164.951705 C489.304415,166.983912 485.887105,168 481.330623,168 C478.840999,168 476.504076,167.684662 474.319783,167.053977 C472.13549,166.423292 470.362247,165.6875 469,164.846591 L471.536585,158.049242 C472.616988,158.656569 474.049675,159.252207 475.834688,159.836174 C477.619702,160.420142 479.451662,160.712121 481.330623,160.712121 C482.69287,160.712121 483.785,160.455179 484.607046,159.941288 C485.429092,159.427396 485.840108,158.563137 485.840108,157.348485 Z M502,132 L511,132 L511,167 L502,167 L502,132 Z M501,122.072464 C501,120.671491 501.474895,119.47585 502.424699,118.485507 C503.374503,117.495164 504.688747,117 506.36747,117 C508.046193,117 509.404613,117.495164 510.442771,118.485507 C511.480929,119.47585 512,120.671491 512,122.072464 C512,123.473437 511.480929,124.644923 510.442771,125.586957 C509.404613,126.52899 508.046193,127 506.36747,127 C504.688747,127 503.374503,126.52899 502.424699,125.586957 C501.474895,124.644923 501,123.473437 501,122.072464 Z M544,164.846591 C542.624332,165.874374 540.962091,166.656879 539.013228,167.194129 C537.064364,167.731379 535.058211,168 532.994709,168 C530.243372,168 527.916235,167.556191 526.013228,166.668561 C524.11022,165.78093 522.562616,164.531258 521.37037,162.919508 C520.178125,161.307757 519.318345,159.357335 518.791005,157.068182 C518.263666,154.779029 518,152.256327 518,149.5 C518,143.56689 519.306865,139.000332 521.920635,135.800189 C524.534405,132.600047 528.340363,131 533.338624,131 C535.860683,131 537.889763,131.210225 539.425926,131.630682 C540.962089,132.051136 542.3492,132.588381 543.587302,133.242424 L541.455026,140.670455 C540.400347,140.156563 539.357148,139.75947 538.325397,139.479167 C537.293646,139.198862 536.112881,139.058712 534.783069,139.058712 C532.306866,139.058712 530.426814,139.887934 529.142857,141.546402 C527.8589,143.204869 527.216931,145.856042 527.216931,149.5 C527.216931,150.994957 527.377423,152.373106 527.698413,153.63447 C528.019402,154.89584 528.500879,155.993682 529.142857,156.92803 C529.784836,157.862378 530.621688,158.598167 531.653439,159.135417 C532.68519,159.672667 533.888882,159.941288 535.26455,159.941288 C536.777785,159.941288 538.061723,159.742742 539.116402,159.345644 C540.171081,158.948546 541.111107,158.4697 541.936508,157.909091 L544,164.846591 Z M564,131.39548 L568.818436,131.39548 L568.818436,129.457627 C568.818436,125.074366 569.749525,121.902317 571.611732,119.941384 C573.473939,117.980452 576.174098,117 579.712291,117 C583.436704,117 586.532576,117.43832 589,118.314972 L587.25419,125.512712 C586.183421,125.143595 585.240693,124.901366 584.425978,124.786017 C583.611262,124.670668 582.761643,124.612994 581.877095,124.612994 C580.945992,124.612994 580.212759,124.751411 579.677374,125.028249 C579.14199,125.305085 578.746277,125.731871 578.490223,126.308616 C578.23417,126.885361 578.071229,127.600514 578.001397,128.454096 C577.931564,129.307678 577.896648,130.28813 577.896648,131.39548 L585.578212,131.39548 L585.578212,139.008475 L577.896648,139.008475 L577.896648,166 L568.818436,166 L568.818436,139.008475 L564,139.008475 L564,131.39548 Z M587,149.5 C587,143.56689 588.447969,139.000332 591.343949,135.800189 C594.23993,132.600047 598.303583,131 603.535032,131 C606.337594,131 608.766444,131.443809 610.821656,132.331439 C612.876868,133.21907 614.581734,134.468742 615.936306,136.080492 C617.290877,137.692243 618.306791,139.642665 618.984076,141.931818 C619.661362,144.220971 620,146.743673 620,149.5 C620,155.43311 618.563709,159.999668 615.691083,163.199811 C612.818457,166.399953 608.766481,168 603.535032,168 C600.73247,168 598.30362,167.556191 596.248408,166.668561 C594.193196,165.78093 592.476652,164.531258 591.098726,162.919508 C589.7208,161.307757 588.693209,159.357335 588.015924,157.068182 C587.338638,154.779029 587,152.256327 587,149.5 Z M597,149.5 C597,151 597.13793,152.386357 597.413793,153.659091 C597.689655,154.931825 598.103446,156.045455 598.655172,157 C599.206899,157.95455 599.93103,158.693179 600.827586,159.215909 C601.724142,159.738639 602.793097,160 604.034483,160 C606.379322,160 608.126431,159.159099 609.275862,157.477273 C610.425293,155.795446 611,153.136382 611,149.5 C611,146.363621 610.47127,143.829555 609.413793,141.897727 C608.356317,139.965899 606.563231,139 604.034483,139 C601.827575,139 600.103448,139.818174 598.862069,141.454545 C597.620683,143.090917 597,145.772709 597,149.5 Z M644.83959,140.109589 C643.428889,139.607303 642.154727,139.356164 641.017065,139.356164 C639.424338,139.356164 638.093293,139.778535 637.023891,140.623288 C635.954488,141.468041 635.237772,142.552505 634.87372,143.876712 L634.87372,166 L626,166 L626,131.753425 L632.894198,131.753425 L633.918089,136.273973 L634.191126,136.273973 C634.964737,134.584466 636.01137,133.28311 637.331058,132.369863 C638.650746,131.456616 640.197943,131 641.972696,131 C643.155865,131 644.498286,131.251139 646,131.753425 L644.83959,140.109589 Z M398.840108,238.348485 C398.840108,237.414137 398.440835,236.666669 397.642276,236.106061 C396.843718,235.545452 395.857278,235.031568 394.682927,234.564394 C393.508576,234.09722 392.216809,233.618374 390.807588,233.127841 C389.398367,232.637308 388.1066,231.959916 386.932249,231.095644 C385.757898,230.231372 384.771458,229.133529 383.9729,227.802083 C383.174341,226.470637 382.775068,224.753798 382.775068,222.651515 C382.775068,219.194427 383.808481,216.554933 385.875339,214.732955 C387.942196,212.910976 390.925003,212 394.823848,212 C397.501368,212 399.920495,212.2803 402.081301,212.840909 C404.242107,213.401515 405.933147,214.032193 407.154472,214.732955 L405.111111,221.320076 C404.030708,220.899619 402.668482,220.45581 401.02439,219.988636 C399.380299,219.521462 397.712746,219.287879 396.02168,219.287879 C393.297186,219.287879 391.934959,220.339005 391.934959,222.441288 C391.934959,223.282201 392.334233,223.959593 393.132791,224.473485 C393.93135,224.987376 394.91779,225.466223 396.092141,225.910038 L397.941734,226.602036 C398.587622,226.841461 399.262869,227.089645 399.96748,227.346591 C401.376701,227.860482 402.668467,228.526195 403.842818,229.34375 C405.017169,230.161305 406.003609,231.22411 406.802168,232.532197 C407.600727,233.840284 408,235.522086 408,237.577652 C408,241.128174 406.860897,243.919497 404.582656,245.951705 C402.304415,247.983912 398.887105,249 394.330623,249 C391.840999,249 389.504076,248.684662 387.319783,248.053977 C385.13549,247.423292 383.362247,246.6875 382,245.846591 L384.536585,239.049242 C385.616988,239.656569 387.049675,240.252207 388.834688,240.836174 C390.619702,241.420142 392.451662,241.712121 394.330623,241.712121 C395.69287,241.712121 396.785,241.455179 397.607046,240.941288 C398.429092,240.427396 398.840108,239.563137 398.840108,238.348485 Z M411,213.139535 L415.681416,213.139535 L415.681416,206.581395 L424.501475,204 L424.501475,213.139535 L432.778761,213.139535 L432.778761,220.813953 L424.501475,220.813953 L424.501475,234.209302 C424.501475,236.627919 424.738936,238.36046 425.213864,239.406977 C425.688793,240.453494 426.582098,240.976744 427.893805,240.976744 C428.798431,240.976744 429.578659,240.883722 430.234513,240.697674 C430.890367,240.511627 431.625365,240.23256 432.439528,239.860465 L434,246.837209 C432.778755,247.441863 431.35399,247.953488 429.725664,248.372093 C428.097337,248.7907 426.446419,249 424.772861,249 C421.651902,249 419.356448,248.174427 417.886431,246.523256 C416.416413,244.872085 415.681416,242.16281 415.681416,238.395349 L415.681416,220.813953 L411,220.813953 L411,213.139535 Z M448.05618,213 L448.05618,232.891051 C448.05618,235.739314 448.392881,237.793768 449.066292,239.054475 C449.739704,240.315175 451.051676,240.945525 453.002247,240.945525 C454.720608,240.945525 456.148683,240.431912 457.286517,239.404669 C458.42435,238.377427 459.271907,237.116739 459.829213,235.622568 L459.829213,213 L468.885393,213 L468.885393,237.373541 C468.885393,239.287947 468.978276,241.167306 469.164045,243.011673 C469.349814,244.85604 469.628463,246.525284 470,248.019455 L463.173034,248.019455 L461.570787,242.836576 L461.292135,242.836576 C460.223965,244.610904 458.737837,246.081706 456.833708,247.249027 C454.929578,248.416348 452.677167,249 450.076404,249 C448.311602,249 446.732591,248.766539 445.339326,248.299611 C443.94606,247.832682 442.785023,247.062262 441.85618,245.988327 C440.927336,244.914392 440.219104,243.466935 439.731461,241.645914 C439.243818,239.824894 439,237.536979 439,234.782101 L439,213 L448.05618,213 Z M507.302832,235.960784 C507.302832,237.882363 507.326071,239.803912 507.372549,241.72549 C507.419027,243.647068 507.628175,245.774498 508,248.107843 L501.51634,248.107843 L500.261438,243.647059 L499.982571,243.647059 C499.053009,245.248374 497.716784,246.540845 495.973856,247.52451 C494.230928,248.508175 492.174304,249 489.803922,249 C485.434982,249 482.042133,247.581714 479.625272,244.745098 C477.208412,241.908483 476,237.470618 476,231.431373 C476,225.575134 477.347844,221.022892 480.043573,217.77451 C482.739302,214.526128 486.68988,212.901961 491.895425,212.901961 C493.336245,212.901961 494.521419,212.982025 495.45098,213.142157 C496.380542,213.302288 497.31009,213.565358 498.239651,213.931373 L498.239651,200 L507.302832,200 L507.302832,235.960784 Z M491.605405,242 C493.385594,242 494.790986,241.576802 495.821622,240.730392 C496.852257,239.883983 497.578376,238.660139 498,237.058824 L498,222.509804 C497.344141,222.006533 496.618022,221.629086 495.821622,221.377451 C495.025221,221.125816 493.994601,221 492.72973,221 C490.15314,221 488.220727,221.846397 486.932432,223.539216 C485.644138,225.232035 485,228.137234 485,232.254902 C485,235.183021 485.527022,237.539207 486.581081,239.323529 C487.63514,241.107852 489.309898,242 491.605405,242 Z M542.909091,245.005682 C541.545448,246.1269 539.693194,247.072913 537.352273,247.84375 C535.011352,248.614587 532.52274,249 529.886364,249 C524.386336,249 520.363649,247.353236 517.818182,244.059659 C515.272715,240.766082 514,236.246241 514,230.5 C514,224.333303 515.431804,219.708349 518.295455,216.625 C521.159105,213.541651 525.181792,212 530.363636,212 C532.090918,212 533.772719,212.233584 535.409091,212.700758 C537.045463,213.167932 538.5,213.938757 539.772727,215.013258 C541.045461,216.087758 542.068178,217.535976 542.840909,219.357955 C543.61364,221.179933 544,223.445694 544,226.155303 C544,227.136369 543.943182,228.187494 543.829545,229.308712 C543.715909,230.42993 543.545456,231.597847 543.318182,232.8125 L522.863636,232.8125 C523,235.755697 523.73863,237.97474 525.079545,239.469697 C526.420461,240.964654 528.590894,241.712121 531.590909,241.712121 C533.454555,241.712121 535.124993,241.420142 536.602273,240.836174 C538.079553,240.252207 539.204542,239.656569 539.977273,239.049242 L542.909091,245.005682 Z M530.313033,220 C527.944991,220 526.192202,220.726183 525.054614,222.178571 C523.917025,223.63096 523.232161,225.571416 523,228 L535.954515,228 C536.140244,225.428559 535.757184,223.452388 534.805324,222.071429 C533.853464,220.690469 532.356049,220 530.313033,220 Z M572.055046,248 L572.055046,228.108949 C572.055046,225.260686 571.653674,223.206226 570.850917,221.945525 C570.048161,220.684819 568.683496,220.054475 566.756881,220.054475 C565.059625,220.054475 563.626153,220.556415 562.456422,221.560311 C561.286691,222.564207 560.449544,223.813222 559.944954,225.307393 L559.944954,248 L551,248 L551,212.980545 L558.087156,212.980545 L559.119266,217.603113 L559.394495,217.603113 C560.449547,216.108942 561.848615,214.801556 563.591743,213.680934 C565.334871,212.560306 567.582555,212 570.334862,212 C572.032119,212 573.545865,212.233461 574.876147,212.700389 C576.206429,213.167318 577.330271,213.937738 578.247706,215.011673 C579.165142,216.085608 579.853209,217.544738 580.311927,219.389105 C580.770644,221.233472 581,223.509714 581,226.217899 L581,248 L572.055046,248 Z M586,213.139535 L590.681416,213.139535 L590.681416,206.581395 L599.501475,204 L599.501475,213.139535 L607.778761,213.139535 L607.778761,220.813953 L599.501475,220.813953 L599.501475,234.209302 C599.501475,236.627919 599.738936,238.36046 600.213864,239.406977 C600.688793,240.453494 601.582098,240.976744 602.893805,240.976744 C603.798431,240.976744 604.578659,240.883722 605.234513,240.697674 C605.890367,240.511627 606.625365,240.23256 607.439528,239.860465 L609,246.837209 C607.778755,247.441863 606.35399,247.953488 604.725664,248.372093 C603.097337,248.7907 601.446419,249 599.772861,249 C596.651902,249 594.356448,248.174427 592.886431,246.523256 C591.416413,244.872085 590.681416,242.16281 590.681416,238.395349 L590.681416,220.813953 L586,220.813953 L586,213.139535 Z M628.840108,238.348485 C628.840108,237.414137 628.440835,236.666669 627.642276,236.106061 C626.843718,235.545452 625.857278,235.031568 624.682927,234.564394 C623.508576,234.09722 622.216802,233.618374 620.807588,233.127841 C619.398374,232.637308 618.1066,231.959916 616.932249,231.095644 C615.757898,230.231372 614.771458,229.133529 613.9729,227.802083 C613.174341,226.470637 612.775068,224.753798 612.775068,222.651515 C612.775068,219.194427 613.808481,216.554933 615.875339,214.732955 C617.942196,212.910976 620.925003,212 624.823848,212 C627.501368,212 629.920495,212.2803 632.081301,212.840909 C634.242107,213.401515 635.933147,214.032193 637.154472,214.732955 L635.111111,221.320076 C634.030708,220.899619 632.668482,220.45581 631.02439,219.988636 C629.380299,219.521462 627.712746,219.287879 626.02168,219.287879 C623.297186,219.287879 621.934959,220.339005 621.934959,222.441288 C621.934959,223.282201 622.334233,223.959593 623.132791,224.473485 C623.93135,224.987376 624.91779,225.466223 626.092141,225.910038 L627.941734,226.602036 C628.587622,226.841461 629.262869,227.089645 629.96748,227.346591 C631.376701,227.860482 632.668467,228.526195 633.842818,229.34375 C635.017169,230.161305 636.003609,231.22411 636.802168,232.532197 C637.600727,233.840284 638,235.522086 638,237.577652 C638,241.128174 636.860897,243.919497 634.582656,245.951705 C632.304415,247.983912 628.887105,249 624.330623,249 C621.840999,249 619.504076,248.684662 617.319783,248.053977 C615.13549,247.423292 613.362247,246.6875 612,245.846591 L614.536585,239.049242 C615.616988,239.656569 617.049675,240.252207 618.834688,240.836174 C620.619702,241.420142 622.451662,241.712121 624.330623,241.712121 C625.69287,241.712121 626.785,241.455179 627.607046,240.941288 C628.429092,240.427396 628.840108,239.563137 628.840108,238.348485 Z" id="musicforstudents" fill="#2F2E41" fill-rule="nonzero"></path>
    </g>
</svg>