<?xml version="1.0" encoding="UTF-8"?>
<svg width="1200px" height="600px" viewBox="0 0 1200 600" version="1.1" xmlns="http://www.w3.org/2000/svg" xmlns:xlink="http://www.w3.org/1999/xlink">
    <title>music_for_students_hero</title>
    <g id="music_for_students_hero" stroke="none" stroke-width="1" fill="none" fill-rule="evenodd">
        <rect fill="#FFE4C4" x="0" y="0" width="1200" height="600"></rect>
        <g id="Group-5" transform="translate(538.000000, 334.000000)">
            <path d="M106.928375,18.0039774 C101.124882,18.6107235 94.8749659,20.1321854 91.3035854,25.3584758 C88.2188055,29.8539129 88.2857689,37.6956467 91.1830513,42.3105944 C94.4731856,47.5552711 101.196309,47.7437301 106.419453,46.0475989 C111.642597,44.3514677 117.048774,41.3774925 116.999668,34.9514995 C116.972883,31.5040784 115.763077,27.9141639 114.428274,24.7885021 C113.276504,22.0903205 111.236353,19.7322845 108.147109,20.031061 C107.294441,20.1137991 107.285513,21.4927676 108.147109,21.4100294 C112.285446,21.0147252 113.615785,26.0755393 114.597915,29.2701496 C115.49076,32.253318 116.316641,35.7834772 114.914875,38.7482593 C113.513108,41.7130415 110.133689,43.2253102 107.245335,44.3100987 C104.120377,45.4776253 100.687388,46.1900923 97.4240387,45.229411 C90.95984,43.3678036 89.1741498,34.9331133 91.0357319,28.9483903 C93.1785601,22.0535481 100.767744,20.0264644 106.950696,19.3829458 C107.798899,19.2956112 107.807827,17.9166427 106.950696,18.0039774 L106.928375,18.0039774 Z" id="Path" fill="#CCB51C" fill-rule="nonzero"></path>
            <path d="M117.928375,70.0039774 C112.124882,70.6107235 105.874966,72.1321854 102.303585,77.3584758 C99.2188055,81.8539129 99.2857689,89.6956467 102.183051,94.3105944 C105.473186,99.5552711 112.196309,99.7437301 117.419453,98.0475989 C122.642597,96.3514677 128.048774,93.3774925 127.999668,86.9514995 C127.972883,83.5040784 126.763077,79.9141639 125.428274,76.7885021 C124.276504,74.0903205 122.236353,71.7322845 119.147109,72.031061 C118.294441,72.1137991 118.285513,73.4927676 119.147109,73.4100294 C123.285446,73.0147252 124.615785,78.0755393 125.597915,81.2701496 C126.49076,84.253318 127.316641,87.7834772 125.914875,90.7482593 C124.513108,93.7130415 121.133689,95.2253102 118.245335,96.3100987 C115.120377,97.4776253 111.687388,98.1900923 108.424039,97.229411 C101.95984,95.3678036 100.17415,86.9331133 102.035732,80.9483903 C104.17856,74.0535481 111.767744,72.0264644 117.950696,71.3829458 C118.798899,71.2956112 118.807827,69.9166427 117.950696,70.0039774 L117.928375,70.0039774 Z" id="Path" fill="#CCB51C" fill-rule="nonzero"></path>
            <path d="M99.1648197,29.9615904 L103.472883,34.8098869 C103.646347,34.9750846 103.894871,35.0384616 104.127724,34.9768803 C104.360576,34.9152989 104.543675,34.7377727 104.610175,34.5091129 C105.520009,32.147813 105.34714,29.7012189 105.560951,27.2187116 C105.796706,24.6528751 106.449524,22.1412252 107.494348,19.7801678 C109.593186,14.9912773 113.151736,10.9665756 117.675389,8.26546368 C118.426001,7.81654734 117.739077,6.64936486 116.988464,7.10277036 C112.528048,9.75323416 108.949792,13.6322481 106.693694,18.2628306 C105.589297,20.5161404 104.823073,22.9160551 104.41911,25.3871329 C103.964193,28.3005999 104.378167,31.3532311 103.286367,34.1499799 L104.428208,33.8492059 L100.142891,29.0098878 C99.5605974,28.3589591 98.6007227,29.3151509 99.1784672,29.9615904 L99.1648197,29.9615904 Z" id="Path" fill="#CCB51C" fill-rule="nonzero"></path>
            <path d="M103.444134,77.3599304 C111.631042,80.4959254 119.506134,84.3578473 126.97054,88.897211 C127.732003,89.3503643 128.433105,88.1857605 127.671643,87.7235442 C120.108909,83.1281275 112.129537,79.2206265 103.834152,76.0503176 C103.003043,75.7285788 102.640884,77.0427231 103.46735,77.3599304 L103.444134,77.3599304 Z" id="Path" fill="#CCB51C" fill-rule="nonzero"></path>
            <path d="M116.82395,72.2267297 C108.419833,81.7667446 103.551569,93.7798934 103.000739,106.33751 C102.963137,107.22083 104.37319,107.22083 104.410791,106.33751 C104.944717,94.1404319 109.666647,82.4706466 117.820386,73.1970082 C118.407908,72.5287975 117.416171,71.5539423 116.82395,72.2267297 Z" id="Path" fill="#CCB51C" fill-rule="nonzero"></path>
            <g id="b30eccf6-7cfe-48df-9caa-415a128bd568" transform="translate(135.000000, 36.000000)" fill-rule="nonzero">
                <path d="M6.8545591,217.199799 C5.70222495,217.92 4.38527164,218.325683 3.19635545,218.959277 C2.00743926,219.592871 0.850532351,220.545542 0.512148512,221.858313 C0.385886974,222.265804 0.406921928,222.704522 0.571594322,223.098153 C0.867431783,223.573544 1.32016388,223.931356 1.8519656,224.11008 C6.73332954,226.271091 12.2918627,226.333737 17.2209937,224.283293 C18.0792234,223.872084 18.9654899,223.52175 19.8731914,223.2349 C20.9914108,223.007578 22.1295162,222.891533 23.270748,222.888474 C24.4702908,222.818614 25.6635665,222.666311 26.8420693,222.432651 C27.4345003,222.366911 27.9959412,222.13451 28.4608245,221.76259 C28.8849912,221.275384 29.1399983,220.664671 29.1878924,220.021345 C29.7290559,216.470116 28.9131019,212.845772 26.9015152,209.865602 C26.648113,209.447958 26.3082668,209.088989 25.9046547,208.812651 C25.4125429,208.559072 24.8712804,208.414468 24.3179088,208.388735 C22.0315315,208.110683 19.6354081,207.600161 17.3261671,207.545462 C15.6708299,207.508996 14.8385886,208.293012 13.6679634,209.428012 C11.2489762,211.839317 9.83599509,215.344598 6.8545591,217.199799 Z" id="Path" fill="#323444"></path>
                <path d="M40.5511876,216.86249 C40.5511876,219.096024 40.8209801,221.461747 42.1790882,223.244016 C42.8001691,224.014686 43.5524204,224.67043 44.4014469,225.181265 C47.2731368,227.004558 51.0776686,227.674618 54.1048321,226.129378 C54.5938377,225.910586 55.0119118,225.56014 55.3120393,225.11745 C55.7693148,224.324317 55.5269588,223.335181 55.2708845,222.46 L50.8901856,207.326667 C48.0596506,207.759699 43.8984439,208.0651 41.3834289,209.496386 C39.5588998,210.531104 40.5511876,214.865984 40.5511876,216.86249 Z" id="Path" fill="#323444"></path>
                <path d="M4.28467103,123.678534 C4.01945127,124.512691 3.05917281,124.900141 2.53330603,125.602108 C1.91598417,126.427149 1.98000273,127.571265 2.2040677,128.574076 C2.48085113,130.052799 3.17758055,131.421266 4.21150696,132.516948 C5.27618326,133.618183 6.80957337,134.13788 8.32698608,133.911767 C9.79941305,133.633715 11.0706388,132.334618 11.1209391,130.844076 C11.0944116,130.166194 10.9489322,129.498189 10.6911002,128.870361 L7.57248157,119.881526 C7.54676164,119.753006 7.46679387,119.641739 7.35298935,119.576124 C7.23530392,119.550038 7.1120454,119.571335 7.01003276,119.635382 C6.27381927,119.981807 4.79681955,120.346466 4.36698062,121.107691 C3.93714169,121.868916 4.59561835,122.853494 4.28467103,123.678534 Z" id="Path" fill="#FBB3B2"></path>
                <path d="M2.82596233,123.227269 C3.96457821,123.049498 4.96143871,122.383996 6.02689053,121.946406 C7.09234234,121.508815 8.42758668,121.340161 9.32384657,122.069478 C9.57992083,122.279157 9.82684958,122.566325 10.1606607,122.561767 C9.70658237,120.332874 9.01998588,118.157409 8.11206661,116.070843 C8.08013598,115.970865 8.01781426,115.883254 7.93372918,115.820141 C7.8091055,115.769715 7.66966873,115.769715 7.54504505,115.820141 L4.46758122,116.62239 C3.32896533,116.918675 3.19635545,116.82751 3.28323778,117.944277 C3.30610156,118.441124 3.56217581,123.227269 2.82596233,123.227269 Z" id="Path" fill="#323444"></path>
                <path d="M2.48757849,58.3180321 C2.03030303,59.02 2.03030303,59.8951807 2.03030303,60.7202209 C2.03030303,64.754257 2.07145782,68.8110843 2.67048867,72.8040964 C2.81224406,73.7613253 2.99058149,74.7185542 3.08203658,75.6848996 C3.18568351,77.0300726 3.20706259,78.3802887 3.14605515,79.7280522 L2.68877969,97.277249 C2.63390663,99.4241767 2.52416052,101.730643 1.19348894,103.417189 C0.789999075,103.982561 0.600453022,104.672126 0.658476658,105.363554 C1.00600601,109.766807 1.73764674,114.133594 2.46471471,118.486707 C4.83932941,117.419009 7.58327764,117.5495 9.8451406,118.837691 C12.152281,111.606389 13.4283671,104.087734 13.6359541,96.5023494 C13.7411275,92.7691566 13.5810811,89.0131727 14.1572482,85.3255622 C15.1220994,79.117249 14.7288425,72.7493976 14.0200655,66.5046185 C13.7960005,64.5263454 13.3204341,62.4888153 12.0492083,60.957249 C10.8458142,59.6171718 9.24313515,58.6969603 7.47645373,58.3317068 C5.78453453,57.8895582 4.27095277,58.3453815 2.48757849,58.3180321 Z" id="Path" fill="#5B5583"></path>
                <path d="M2.48757849,58.3180321 C2.03030303,59.02 2.03030303,59.8951807 2.03030303,60.7202209 C2.03030303,64.754257 2.07145782,68.8110843 2.67048867,72.8040964 C2.81224406,73.7613253 2.99058149,74.7185542 3.08203658,75.6848996 C3.18568351,77.0300726 3.20706259,78.3802887 3.14605515,79.7280522 L2.68877969,97.277249 C2.63390663,99.4241767 2.52416052,101.730643 1.19348894,103.417189 C0.789999075,103.982561 0.600453022,104.672126 0.658476658,105.363554 C1.00600601,109.766807 1.73764674,114.133594 2.46471471,118.486707 C4.83932941,117.419009 7.58327764,117.5495 9.8451406,118.837691 C12.152281,111.606389 13.4283671,104.087734 13.6359541,96.5023494 C13.7411275,92.7691566 13.5810811,89.0131727 14.1572482,85.3255622 C15.1220994,79.117249 14.7288425,72.7493976 14.0200655,66.5046185 C13.7960005,64.5263454 13.3204341,62.4888153 12.0492083,60.957249 C10.8458142,59.6171718 9.24313515,58.6969603 7.47645373,58.3317068 C5.78453453,57.8895582 4.27095277,58.3453815 2.48757849,58.3180321 Z" id="Path" fill="#000000" opacity="0.1"></path>
                <path d="M8.07548458,109.210703 C5.00864956,124.877028 6.6830817,141.098537 12.8860224,155.814076 C13.4219262,156.903419 13.7976986,158.064 14.0017745,159.2601 C14.253276,161.493635 13.2198335,163.640562 12.6299481,165.801165 C11.2581218,170.71494 12.0492083,175.947791 12.9271772,180.975522 C13.2929975,183.072309 13.6694877,185.167577 14.0566476,187.261325 C14.4361862,189.303414 14.8020066,191.523273 13.8508736,193.373916 C14.6693967,196.774357 15.1541087,200.142892 15.9726317,203.543333 C16.059414,203.812376 16.0859496,204.097116 16.0503686,204.37749 C15.8854371,204.82247 15.5948003,205.210338 15.2135545,205.494257 C13.9723402,206.748695 13.4873469,208.562944 13.9377559,210.266727 C16.0275048,208.771627 18.9403494,209.295823 21.3273273,210.266727 C23.7143052,211.237631 26.0647011,212.545843 28.6437346,212.545843 C28.2687688,209.528293 27.9075212,206.360321 29.0232733,203.529659 C29.6726044,201.888695 30.8157931,200.338896 30.7837838,198.583976 C30.7517745,197.011386 29.7869233,195.60745 29.5537128,194.053092 C29.4670392,193.086012 29.5039163,192.111875 29.6634589,191.154056 C30.276208,185.574779 29.5811493,179.940803 28.8860906,174.370643 C28.8075039,173.272223 28.5479557,172.194207 28.1178679,171.17988 C27.7932023,170.523494 27.3084903,169.894458 27.3176358,169.160582 C27.3176358,168.308193 28.0081218,167.615341 28.264196,166.803976 C28.7214715,165.308876 27.8800846,163.275904 29.1467376,162.350582 C32.4848485,159.907369 31.2044772,154.072831 31.1313131,149.947631 C31.0733916,146.38917 30.9209664,142.833748 30.6740377,139.281365 C32.7757616,145.172236 33.6350756,151.432135 33.1981982,157.669277 C33.0518701,159.711365 32.7820775,161.858293 33.5823096,163.745402 C34.1950587,165.19492 35.4114114,166.389177 35.7406497,167.925301 C35.9464237,168.873414 35.8000956,169.853434 35.8458231,170.819779 C35.8915506,171.786124 36.220789,172.839076 37.0576031,173.326807 C37.1216216,177.720944 37.5148785,182.420482 37.5834698,186.814618 C37.5389804,189.060891 37.7228287,191.30588 38.1322004,193.515221 C38.3374395,194.217985 38.4511668,194.944141 38.4705842,195.675823 C38.3674432,196.593247 38.1237796,197.489479 37.748089,198.333273 C36.1299862,203.109094 36.9859373,208.373541 40.0344663,212.395422 C41.1136364,210.485522 43.3634316,209.473594 45.5583538,209.314056 C47.753276,209.154518 49.9207617,209.706064 52.0470925,210.262169 C51.7219919,207.598897 52.2535817,204.901506 53.5652471,202.558755 C53.9168958,202.030799 54.1866724,201.453005 54.3654791,200.844859 C54.6124079,199.687068 54.0362408,198.533835 53.7252935,197.389719 C53.2177177,195.566426 53.3960551,193.601827 53.5149468,191.696486 C53.9139731,185.315237 53.6303888,178.909775 52.6689872,172.588373 C52.5205338,171.343225 52.2274362,170.11949 51.795591,168.941787 C51.6309719,168.52243 51.4297707,168.121305 51.292588,167.69739 C51.0767859,166.93698 50.9539555,166.153361 50.9267677,165.363574 L50.4009009,158.070402 C50.0305078,152.960622 51.7132815,147.914659 52.8884794,142.927952 C53.4143462,140.694418 53.9859405,138.465442 54.3380426,136.195442 C54.8181818,133.10496 54.8959186,129.946104 55.6001229,126.896647 C56.231163,124.161707 57.3697789,121.495141 57.6075621,118.691827 C57.9733825,114.347831 56.1625717,110.149699 54.4066339,106.165803 C53.6749932,104.524839 50.9084767,104.688936 49.1296751,104.397209 C36.5134453,102.332329 23.2250205,102.318655 11.3267131,106.97261 C10.0962325,107.480773 8.98804423,108.243632 8.07548458,109.210703 Z" id="Path" fill="#F5F5F5"></path>
                <path d="M17.1706934,28.3066265 L18.5699563,33.7309237 C18.9503538,34.9749476 19.1610674,36.2643445 19.1964237,37.5643976 C19.2108749,38.0386116 19.1055227,38.5088402 18.8900491,38.9318675 C18.6597673,39.2792495 18.3648418,39.5794276 18.0212258,39.8161647 C17.0655201,40.5409237 16.4024707,42.2320281 15.3095823,42.7334337 C15.8720311,43.7088956 16.6493994,43.0753012 17.6645509,43.5630321 C19.452498,44.4290964 21.0895441,45.673494 23.028392,46.1019679 C24.8574939,46.5030924 26.7780508,46.124759 28.5934343,45.6461446 C31.1678952,44.9487349 33.7286377,43.9869478 35.8000956,42.3049598 C37.8715534,40.6229719 39.0513241,39.136988 39.0422313,36.4795382 C36.7558013,36.7484739 34.7209255,34.4465663 33.7103467,32.3771285 C33.3599588,31.5904835 33.1021663,30.766026 32.9421239,29.920241 L31.7166257,24.5460843 C30.3813814,24.8378112 29.2930658,25.7904819 28.0172673,26.2873293 C26.7414687,26.7841767 25.2324597,26.829759 23.8149058,26.8935743 C21.2986029,27.0076618 18.796242,27.3308988 16.3338793,27.8599197 C15.9954955,27.9282932 15.5702293,28.1425301 15.6525389,28.4707229" id="Path" fill="#FBB3B2"></path>
                <path d="M17.1706934,28.3066265 L18.5699563,33.7309237 C18.9503538,34.9749476 19.1610674,36.2643445 19.1964237,37.5643976 C19.2108749,38.0386116 19.1055227,38.5088402 18.8900491,38.9318675 C18.6597673,39.2792495 18.3648418,39.5794276 18.0212258,39.8161647 C17.0655201,40.5409237 16.4024707,42.2320281 15.3095823,42.7334337 C15.8720311,43.7088956 16.6493994,43.0753012 17.6645509,43.5630321 C19.452498,44.4290964 21.0895441,45.673494 23.028392,46.1019679 C24.8574939,46.5030924 26.7780508,46.124759 28.5934343,45.6461446 C31.1678952,44.9487349 33.7286377,43.9869478 35.8000956,42.3049598 C37.8715534,40.6229719 39.0513241,39.136988 39.0422313,36.4795382 C36.7558013,36.7484739 34.7209255,34.4465663 33.7103467,32.3771285 C33.3599588,31.5904835 33.1021663,30.766026 32.9421239,29.920241 L31.7166257,24.5460843 C30.3813814,24.8378112 29.2930658,25.7904819 28.0172673,26.2873293 C26.7414687,26.7841767 25.2324597,26.829759 23.8149058,26.8935743 C21.2986029,27.0076618 18.796242,27.3308988 16.3338793,27.8599197 C15.9954955,27.9282932 15.5702293,28.1425301 15.6525389,28.4707229" id="Path" fill="#000000" opacity="0.1"></path>
                <ellipse id="Oval" fill="#FBB3B2" cx="23.1792929" cy="19.2266265" rx="12.1086541" ry="12.0702008"></ellipse>
                <path d="M26.512831,39.1233133 C27.1603771,37.7292349 28.0952178,36.4867389 29.2564838,35.4767269 C30.9621212,33.9861847 33.294226,32.778253 33.6966284,30.5538353 L37.3914141,34.8431325 C37.5922096,35.0420229 37.7481074,35.2813431 37.8486896,35.5451004 C37.9429362,36.0454731 37.8162937,36.5620619 37.5011603,36.9627108 C36.5866093,38.4167871 35.1461916,39.4560643 33.7835108,40.5090161 C30.6601676,42.975156 27.6699752,45.6043768 24.8254846,48.3856426 C24.700143,48.5307339 24.5321539,48.6328021 24.3453453,48.6773695 C24.1686136,48.6821961 23.9946483,48.6328768 23.8469151,48.5360643 C21.3926915,47.2515375 19.2207727,45.4910047 17.458777,43.3579116 C17.3261671,43.1983735 17.1615479,43.0160442 16.9466284,43.0297189 C16.8170425,43.0534398 16.6975748,43.1153657 16.6036719,43.20749 C15.3736009,44.2103012 14.029211,45.4091165 12.4516107,45.2541365 C14.495632,43.7909438 15.6525389,41.3477309 16.0823778,38.8726104 C16.1673761,38.0254821 16.3421148,37.1897056 16.6036719,36.379257 C16.878858,35.5558426 17.5476783,34.9233358 18.3870461,34.6927108 C17.3901856,36.2106024 18.0715261,38.3620884 19.4113432,39.588253 C20.7130958,40.6896755 22.2738019,41.4440259 23.9475157,41.7807631 C25.5022523,42.07249 25.9595277,40.3175703 26.512831,39.1233133 Z" id="Path" fill="#323444"></path>
                <path d="M10.7596915,110.450542 C12.48362,110.874458 14.1160934,111.594659 15.7897215,112.127972 C18.8400273,113.080197 22.0502126,113.416467 25.2324597,113.117108 C26.2119286,113.095689 27.1644674,112.793427 27.9761125,112.246486 C28.1910319,112.073273 28.3876604,111.868153 28.6162981,111.708614 C28.9987462,111.479817 29.413349,111.309279 29.8463691,111.202651 C34.039585,109.894438 37.5514606,107.072892 40.9581627,104.310602 C41.0679088,104.219438 41.1913732,104.105482 41.1822277,103.959618 C41.1664992,103.8603 41.1182685,103.768953 41.045045,103.699799 L39.2525253,101.648594 C34.5517336,102.446285 29.736623,102.145442 24.96724,102.026928 C23.9880629,101.983584 23.0070352,102.009478 22.0315315,102.104418 C21.0895441,102.213815 20.1612749,102.450843 19.2330057,102.651406 C15.707412,103.417189 12.1040814,103.708916 8.53276003,104.210321 C8.28290617,104.228694 8.0405251,104.303516 7.82398307,104.429116 C7.67339015,104.545217 7.54485187,104.687241 7.44444444,104.848474 L6.19150969,106.603394 C5.70518135,107.193699 5.34705122,107.878194 5.13977614,108.613574 C4.84711985,109.981044 5.45986896,110.436867 6.62592138,110.259096 C8.00341244,110.058099 9.40683025,110.123095 10.7596915,110.450542 L10.7596915,110.450542 Z" id="Path" fill="#323444"></path>
                <path d="M24.7751843,46.2979719 C23.3763285,44.8691186 21.7905304,43.6348669 20.0606743,42.6285944 C19.3618007,42.1861162 18.5865074,41.8769837 17.774297,41.7169478 C16.9470838,41.55417 16.090003,41.7644224 15.4330467,42.2912851 C15.0260715,42.6513855 14.7699973,43.1527912 14.3767404,43.5311245 C13.8818382,43.9455857 13.3144634,44.265459 12.7031122,44.4746787 C10.6215447,45.3612759 8.64853557,46.4822891 6.82254982,47.8158635 C5.82719911,48.5099293 4.93045413,49.3348293 4.15663391,50.2681928 C2.08517609,52.9119679 1.77422877,56.5084137 1.82910183,59.8632731 C1.87025662,62.1970884 4.11547912,63.9292169 5.66107016,65.6750201 C7.11069422,67.3929768 8.4225458,69.2219076 9.58449358,71.1448996 C10.4167349,72.4576707 11.2855583,73.8798394 11.1803849,75.4433133 C11.0935026,76.7241767 10.3435708,77.9275502 10.4624625,79.2038554 C10.5036173,79.6596787 10.6499454,80.0790361 10.6911002,80.5211847 C10.7734098,81.4328313 10.4121622,82.3444779 10.3207071,83.2561245 C10.1972427,84.5461044 10.6179361,85.8269679 10.6407999,87.1260643 C10.6240148,88.0154077 10.5105573,88.9003166 10.3024161,89.7652811 C9.42444717,93.931506 8.32241332,98.1205221 8.5464783,102.373353 L6.01317226,102.829177 C6.49986929,103.304655 6.73029633,103.982767 6.63366958,104.655205 C6.53704283,105.327644 6.12491568,105.914009 5.52388752,106.234177 C9.47932023,107.551506 13.7548458,106.886004 17.9480617,106.881446 C21.4187824,106.881446 24.8757849,107.337269 28.3419328,107.273454 C31.8080808,107.209639 35.3839749,106.585161 38.2419465,104.629679 C39.0193148,104.100924 39.7326645,103.481004 40.5511876,103.020622 C41.6475661,102.454269 42.8290353,102.069394 44.0493448,101.881064 C46.3097594,101.451331 48.6074409,101.246724 50.9084767,101.270261 C52.0333743,101.270261 53.2588725,101.315843 54.1551324,100.641225 C55.1428474,99.8936747 55.3943489,98.5398795 55.5269588,97.3137149 C55.6595687,96.0191767 55.7418782,94.7200803 55.764742,93.4209839 C55.8030758,92.4093482 55.7495086,91.3963298 55.6046956,90.3943173 C55.4674294,89.6616246 55.2888082,88.9372342 55.0696833,88.2245984 L53.3457548,82.1712651 C52.6324051,79.6733534 53.6246929,76.9338554 53.8350396,74.3447791 C53.8853399,73.7339759 53.8944854,73.0228916 53.4234917,72.6308835 C53.2542998,72.4895783 53.0210893,72.3938554 52.9662162,72.1750602 C52.9164166,71.9650933 52.9561519,71.7439425 53.0759623,71.564257 C53.9905132,69.7409639 55.3623396,68.1319076 56.6152744,66.4863855 C58.7196679,63.6000085 60.6733053,60.6073513 62.4684002,57.5203414 C61.9062504,51.0606126 59.1774299,44.9780001 54.722154,40.253755 C53.8076031,39.2646185 52.7604423,38.316506 51.480071,37.8697992 C50.6433621,37.61507 49.7756569,37.4755125 48.9010374,37.455 C45.3159978,37.2134137 41.5846301,36.9991767 38.4614387,35.2032329 C38.2372984,35.0484668 37.9835694,34.9414011 37.7160797,34.8887149 C37.0255938,34.8112249 36.5225908,35.4904016 36.0744608,36.0282731 C34.9221267,37.395743 33.2256347,38.179759 31.7349167,39.1871285 C28.954682,41.0696787 26.7826235,43.658755 24.7751843,46.2979719 Z" id="Path" fill="#5B5583"></path>
                <path d="M62.7793475,59.3846586 C63.4926972,61.6364257 63.4241059,64.0431727 63.6573164,66.3906627 C63.7954353,67.8072919 64.0446503,69.2109617 64.4026754,70.5887952 C64.5661388,71.3461034 64.8601011,72.0694217 65.2714988,72.7266064 C65.6830467,73.3282932 66.272932,73.8160241 66.533579,74.4952008 C66.6760547,74.9553318 66.7394427,75.4361674 66.721062,75.9173695 L66.775935,79.0625502 C66.8933208,80.7292471 66.6387668,82.4011658 66.030576,83.9580924 L64.0597188,89.9339357 C62.994267,93.1702811 61.9013787,96.4567671 59.9808217,99.273755 C59.7102411,99.7505175 59.3002876,100.133728 58.8056238,100.372289 C58.4183561,100.474331 58.0213868,100.535444 57.6212804,100.554618 C56.1832177,100.8103 55.1298158,102.047799 55.1108381,103.503795 C54.6532415,102.83726 54.0821828,102.255674 53.4234917,101.785341 L49.4131859,98.5945783 C48.0413595,97.4823695 46.6100874,96.3519277 44.9456047,95.7092169 C49.5194023,94.2853669 52.8213266,90.3077655 53.3686186,85.5625904 C53.3671581,84.8711295 53.5235292,84.188399 53.8258941,83.5660843 C54.1597052,83.0282129 54.777027,82.6179719 54.8227546,81.9843775 C54.8776276,81.1866867 53.9722222,80.585 53.9722222,79.7873092 C53.9722222,79.2585542 54.3654791,78.8209639 54.5392438,78.3241165 C54.7016534,77.7101312 54.7016534,77.064668 54.5392438,76.4506827 L53.9859405,73.3875502 C53.9533218,73.0806331 53.8600743,72.7831889 53.7115752,72.5123695 C53.5045421,72.2527381 53.2750216,72.0117443 53.025662,71.7921687 C52.0745291,70.7301004 52.4952225,69.0572289 53.025662,67.7490161 C54.2437456,64.8451672 55.8131561,62.1005325 57.6990172,59.5761044 C58.3702896,58.7283968 58.9917023,57.8426139 59.5601283,56.9232129 C60.0448403,56.084498 60.1545864,54.9221486 60.6667349,54.1882731 C61.3252116,55.9112851 62.2168987,57.611506 62.7793475,59.3846586 Z" id="Path" fill="#5B5583"></path>
                <path d="M44.8038493,95.8961044 C44.5997442,96.0471069 44.4233797,96.2321641 44.2825553,96.4430924 C43.7437913,97.1173176 43.0261282,97.6274038 42.2110975,97.9154016 C42.6683729,98.2435944 43.0844936,98.5672289 43.5143325,98.8999799 C46.6946799,101.348341 49.6068911,104.12449 52.2025662,107.182289 C52.4906497,106.156687 54.2145782,106.229618 54.6352716,105.249598 C54.7343442,104.969093 54.7656768,104.669255 54.7267267,104.374418 C54.639354,102.838937 54.4190424,101.313854 54.0682501,99.8161847 C53.9297904,99.0451205 53.6170364,98.3156002 53.1536992,97.6829317 C52.5135135,96.9125904 51.516653,96.5433735 50.5655201,96.2242972 C49.1251024,95.7228916 46.2671308,95.0163655 44.8038493,95.8961044 Z" id="Path" fill="#323444"></path>
                <path d="M39.0879061,99.4788755 C37.7160797,100.490803 36.5134453,101.757992 34.972427,102.450843 C33.8841114,102.943133 32.6448949,103.157369 31.6937619,103.891245 C32.2104832,105.026245 33.5548731,105.614257 34.8032351,105.568675 C36.0527367,105.446325 37.2503625,105.008642 38.2831013,104.296928 C39.1016244,103.795522 40.0619028,103.212068 40.95359,103.563052 C41.0907726,104.255904 40.4963145,104.907731 40.4963145,105.609699 C40.4963145,106.311667 41.0816271,106.822189 41.6577942,107.191406 C44.4014469,108.955442 47.9316134,108.809578 51.201133,108.604458 C51.388694,108.611406 51.5733827,108.556976 51.7269997,108.449478 C51.8701651,108.28294 51.9409185,108.066433 51.9236282,107.847791 C51.964783,107.12759 51.983074,106.411948 51.9876467,105.691747 C52.1763488,104.506193 51.6592928,103.318963 50.6615479,102.646847 C48.887306,101.12653 46.9735663,99.7759053 44.9456047,98.6128112 C42.9335927,97.4504618 40.8941441,98.138755 39.0879061,99.4788755 Z" id="Path" fill="#FBB3B2"></path>
                <path d="M27.4319547,14.1806627 C25.4016517,14.422249 23.9246519,16.0039558 24.1304259,17.7224096 C24.3361998,19.4408635 26.1470106,20.626004 28.1773137,20.3798594 C30.2076167,20.1337149 31.6846164,18.5565663 31.4788425,16.8426707 C31.2730685,15.1287751 29.4622577,13.9390763 27.4319547,14.1806627 Z M28.1224406,19.9058032 C26.4030849,20.1109237 24.8712121,19.1035542 24.6928747,17.6540361 C24.5145373,16.2045181 25.7720448,14.8643976 27.4868277,14.6592771 C29.2016107,14.4541566 30.7380562,15.4615261 30.9163937,16.9110442 C31.0947311,18.3605622 29.8372236,19.7006827 28.1224406,19.9058032 L28.1224406,19.9058032 Z" id="Shape" fill="#3C354C"></path>
                <path d="M17.5365138,15.3658032 C15.5062108,15.6073896 14.029211,17.1890964 14.234985,18.902992 C14.4407589,20.6168876 16.2515698,21.8065863 18.2818728,21.565 C20.3121758,21.3234137 21.7891755,19.7417068 21.5834016,18.023253 C21.3776276,16.3047992 19.5668168,15.1242169 17.5365138,15.3658032 Z M18.2269997,21.0863855 C16.507644,21.291506 14.9757712,20.2841365 14.8020066,18.8391767 C14.6282419,17.3942169 15.8766039,16.0495382 17.5959596,15.8398594 C19.3153153,15.6301807 20.8471881,16.6421084 21.0209528,18.0916265 C21.1947174,19.5411446 19.9417827,20.8812651 18.2269997,21.0863855 Z" id="Shape" fill="#3C354C"></path>
                <polygon id="Path" fill="#3C354C" points="10.1880972 16.2455422 14.6008054 17.1845382 14.1663937 18.3423293 10.005187 17.1252811"></polygon>
                <polygon id="Path" fill="#3C354C" points="34.784944 13.3009237 30.7151925 15.2564056 31.4148239 16.2774498 35.1690554 14.1122892"></polygon>
                <polygon id="Path" fill="#3C354C" points="21.1764264 16.8928112 24.2721813 16.5235944 24.1121349 17.2893775 21.4553645 17.4671486"></polygon>
                <path d="M15.1723997,15.8580924 C15.4636927,15.2335657 15.6195118,14.5547987 15.6296751,13.8661446 C15.6405192,13.45396 15.7113746,13.0455319 15.8400218,12.6536546 C16.0648007,12.1559508 16.4067707,11.7196818 16.8368823,11.3819076 C18.2635818,10.1785341 20.3076031,9.55861446 22.3241878,9.47200803 C24.5230392,9.37116835 26.7103707,9.84243317 28.6711712,10.8394779 C29.2701241,11.1192122 29.8066029,11.5160308 30.2487715,12.0063855 C30.8889571,12.7858434 31.0261398,13.7932129 31.6708982,14.5635542 C32.5658807,15.5142519 33.8944416,15.9291893 35.1736282,15.6575301 C35.3976931,14.8643976 35.1050369,14.0256827 35.2193557,13.2143173 C35.399536,12.5190841 35.6428983,11.8416645 35.9464237,11.1904618 C36.6552007,9.1073494 35.6217581,6.69148594 33.4908545,5.44708835 C32.7454955,4.99126506 31.8629539,4.69497992 31.3050778,4.07961847 C30.7472017,3.46425703 30.6145919,2.82610442 30.2304805,2.21074297 C29.2107562,0.583453815 26.5722768,-0.177771084 24.5648376,0.574337349 C23.9337974,0.811365462 23.3759214,1.17146586 22.7357357,1.42672691 C21.5468195,1.91445783 20.1932842,2.00106426 18.8854764,2.16516064 C17.5964076,2.28395955 16.3357571,2.6135214 15.1541087,3.14062249 C14.0246383,3.69672691 13.0780781,4.59014056 12.8174311,5.65676707 C12.6939667,6.14905622 12.7214032,6.65957831 12.5979388,7.14730924 C11.9668987,9.62242972 7.89257439,10.8258032 7.66393666,13.3510643 C7.58162708,14.2627108 8.08005733,15.1378916 8.70195195,15.8808835 C9.13179088,16.3868474 10.1606607,17.7406426 10.8877286,17.9366466 C11.6147966,18.1326506 12.1680999,17.4443574 12.8631586,17.2073293 C13.9606197,16.8654618 14.6236691,16.7925301 15.1723997,15.8580924 Z" id="Path" fill="#CBCEDA"></path>
            </g>
            <path d="M201,212 C201,234.660506 215.760324,253 234,253" id="Path" fill="#46455B" fill-rule="nonzero"></path>
            <path d="M234,254 C234,230.783943 249.655435,212 269,212" id="Path" fill="#CCB51C" fill-rule="nonzero"></path>
            <path d="M213,214 C213,235.557267 221.947251,253 233,253" id="Path" fill="#CCB51C" fill-rule="nonzero"></path>
            <path d="M233,253 C233,223.154265 251.339494,199 274,199" id="Path" fill="#46455B" fill-rule="nonzero"></path>
            <ellipse id="Oval" fill="#FFFC00" fill-rule="nonzero" opacity="0.1" cx="231" cy="260" rx="8" ry="1"></ellipse>
            <path d="M225,254.573564 C225,254.573564 229.842467,254.42581 231.295207,253.405828 C232.747947,252.385847 238.738078,251.160915 239.101263,252.800512 C239.464449,254.440109 246.364964,260.955599 240.907504,260.998496 C235.450043,261.041392 228.210556,260.159632 226.757815,259.287405 C225.305075,258.415178 225,254.573564 225,254.573564 Z" id="Path" fill="#A8A8A8" fill-rule="nonzero"></path>
            <path d="M241.004401,259.469046 C235.543734,259.509096 228.316096,258.685846 226.85895,257.871497 C225.750358,257.252948 225.309825,255.023499 225.159754,254 L225,254 C225,254 225.304984,257.586697 226.76213,258.401047 C228.219276,259.215396 235.446914,260.038645 240.907581,259.998595 C242.485752,259.998595 243.027946,259.469046 242.9989,258.708096 C242.781054,259.170896 242.204973,259.460146 241.004401,259.469046 Z" id="Path" fill="#000000" fill-rule="nonzero" opacity="0.2"></path>
            <ellipse id="Oval" fill="#3F3D56" fill-rule="nonzero" cx="455.5" cy="258" rx="69.5" ry="6"></ellipse>
            <path d="M525,191.626216 C525,220.068882 508.210678,230 487.5,230 C466.789319,230 450,220.068882 450,191.626216 C450,163.18355 487.5,127 487.5,127 C487.5,127 525,163.183547 525,191.626216 Z" id="Path" fill="#F2F2F2" fill-rule="nonzero"></path>
            <polygon id="Path" fill="#3F3D56" fill-rule="nonzero" points="485.340994 226.694581 485.731815 202.879448 502 173.417117 485.793041 199.143805 485.968654 188.435542 497.180734 167.119548 486.015215 185.601781 486.015215 185.601781 486.331244 166.342514 498.337431 149.372611 486.381105 163.314222 486.578349 128 485.337328 174.749797 485.439249 172.821185 473.23252 154.324797 485.243472 176.523439 484.106206 198.032512 484.072477 197.461622 470 177.996936 484.029949 199.478427 483.887699 202.168104 483.862035 202.208753 483.873767 202.429414 480.988073 257 484.843486 257 485.306165 228.813369 499.301284 207.384504"></polygon>
            <path d="M513,243.195696 C513,251.203849 508.075368,254 502,254 C501.859262,254 501.718744,253.998488 501.578448,253.995463 C501.296961,253.989632 501.018155,253.976676 500.742704,253.958535 C495.259796,253.583428 491,250.643453 491,243.195696 C491,235.488148 501.189059,225.762531 501.954424,225.042759 L501.955762,225.041465 C501.985259,225.013608 502,225 502,225 C502,225 513,235.187544 513,243.195696 Z" id="Path" fill="#CCB51C" fill-rule="nonzero"></path>
            <path d="M501.31458,252.779229 L505.240676,247.34417 L501.304779,253.376019 L501.29432,254 C501.019628,253.994168 500.747552,253.98121 500.478751,253.963066 L500.901906,245.949786 L500.898635,245.887579 L500.905832,245.875918 L500.945723,245.119105 L497,239.072352 L500.95814,244.551475 L500.967305,244.712168 L501.287116,238.657662 L497.909101,232.40941 L501.328318,237.594997 L501.661215,225.042777 L501.662522,225 L501.662522,225.041472 L501.606931,234.939661 L504.969914,231.015626 L501.593201,235.792365 L501.504257,241.213168 L504.644212,236.010725 L501.491178,242.010808 L501.44147,245.024451 L506,237.783534 L501.424466,246.076088 L501.31458,252.779229 Z" id="Path" fill="#3F3D56" fill-rule="nonzero"></path>
            <path d="M293,67 L278.573347,43.2958537 C282.153694,38.837264 281.807755,32.4654365 277.764899,28.4051016 C273.722044,24.3447668 267.236383,23.8554582 262.608122,27.2616035 C257.979862,30.6677488 256.644708,36.9127469 259.487912,41.8559593 C262.331117,46.7991716 268.470704,48.9071923 273.835927,46.7823344 L293,67 Z" id="Path" fill="#3F3D56" fill-rule="nonzero"></path>
            <circle id="Oval" fill="#CCB51C" fill-rule="nonzero" cx="269.5" cy="35.5" r="4.5"></circle>
            <path d="M339,63 L358.291368,43.5694189 C363.391814,45.8943611 369.403453,44.0270116 372.340373,39.2054845 C375.277292,34.3839574 374.228447,28.1039112 369.889255,24.5292227 C365.550063,20.9545341 359.266561,21.1940871 355.204917,25.0890501 C351.143273,28.9840131 350.563427,35.3261516 353.849835,39.9104199 L339,63 Z" id="Path" fill="#3F3D56" fill-rule="nonzero"></path>
            <circle id="Oval" fill="#CCB51C" fill-rule="nonzero" cx="362.5" cy="33.5" r="4.5"></circle>
            <path d="M351,107 L374.598242,120.976917 C373.591493,126.441734 376.878971,131.790253 382.280969,133.476232 C387.682968,135.16221 393.523764,132.66265 395.930719,127.634842 C398.337674,122.607033 396.56414,116.610624 391.786027,113.62143 C387.007915,110.632236 380.707416,111.577517 377.061967,115.830522 L351,107 Z" id="Path" fill="#3F3D56" fill-rule="nonzero"></path>
            <circle id="Oval" fill="#CCB51C" fill-rule="nonzero" cx="386.5" cy="123.5" r="4.5"></circle>
            <path d="M312.203514,130 L304.275705,156.40005 C298.764134,156.773728 294.376902,161.293281 294.022887,166.962095 C293.668873,172.63091 297.457893,177.690496 302.877703,178.786182 C308.297513,179.881867 313.666865,176.673767 315.425701,171.288955 C317.184538,165.904144 314.78726,160.013014 309.823343,157.521578 L312.203514,130 Z" id="Path" fill="#3F3D56" fill-rule="nonzero"></path>
            <circle id="Oval" fill="#FFFC00" fill-rule="nonzero" cx="304.5" cy="167.5" r="4.5"></circle>
            <path d="M281,98.125251 L253.784802,96.6431936 C252.074411,91.3831487 246.671647,88.1893461 241.158718,89.1793816 C235.645789,90.169417 231.732831,95.0361772 232.014262,100.552841 C232.295693,106.069504 236.684213,110.524778 242.270089,110.96467 C247.855966,111.404562 252.906435,107.692615 254.072871,102.289972 L281,98.125251 Z" id="Path" fill="#3F3D56" fill-rule="nonzero"></path>
            <circle id="Oval" fill="#CCB51C" fill-rule="nonzero" cx="242.5" cy="100.5" r="4.5"></circle>
            <circle id="Oval" fill="#F2F2F2" fill-rule="nonzero" cx="526.5" cy="40.5" r="5.5"></circle>
            <circle id="Oval" stroke="#3F3D56" cx="524.5" cy="38.5" r="5.5"></circle>
            <rect id="Rectangle" fill="#CCB51C" fill-rule="nonzero" x="480" y="41" width="13" height="13"></rect>
            <rect id="Rectangle" stroke="#3F3D56" x="483" y="39" width="13" height="13"></rect>
            <path d="M452.25081,235 C452.25081,235 451.109612,242.125 449.207614,243.25 C447.305616,244.375 459.098002,247 459.098002,247 L461,235.75 L452.25081,235 Z" id="Path" fill="#FBBEBE" fill-rule="nonzero"></path>
            <path d="M466.15873,157 L470,161.754021 L468.253968,178.210249 L466.857143,210.757011 C466.857143,210.757011 469.650794,238.915445 466.857143,239.646833 C464.063492,240.378221 451.492063,240.012527 451.84127,238.184057 C452.190476,236.355587 452.539683,234.892811 453.238095,232.332954 C453.936508,229.773096 452.539683,220.630747 452.539683,220.630747 L454.285714,210.391317 L448,166.142349 L466.15873,157 Z" id="Path" fill="#2F2E41" fill-rule="nonzero"></path>
            <path d="M453.920652,243.316548 C453.920652,243.316548 449.759284,242.604315 449.380978,243.316548 C449.002672,244.028782 441.814854,251.507238 440.679936,251.507238 C439.545017,251.507238 431.222281,258.629576 439.923323,258.985693 C448.624365,259.34181 463,252.931705 463,252.931705 C463,252.931705 460.884414,243.869783 460.996441,244.3054 C461.108469,244.741016 453.920652,245.097133 453.920652,243.316548 Z" id="Path" fill="#2F2E41" fill-rule="nonzero"></path>
            <path d="M449,226.922078 C449,226.922078 459.431373,238.396104 459.803922,239.506494 C460.176471,240.616883 465.764706,239.506494 465.764706,239.506494 L468,232.103896 L466.137255,229.512987 L455.705882,221 L449,226.922078 Z" id="Path" fill="#FBBEBE" fill-rule="nonzero"></path>
            <path d="M463.012346,234.717512 L458,239.687222 C458,239.687222 464.395062,250.011044 464.395062,251.10344 C464.395062,252.195835 464.740741,261.299128 468.197531,259.842601 C471.654321,258.386074 472,243.820805 472,243.820805 C472,243.820805 471.654321,228.891405 469.580247,227.79901 C467.506173,226.706615 462.960328,227.051746 462.960328,227.051746 C462.960328,227.051746 465.777778,234.353381 463.012346,234.717512 Z" id="Path" fill="#2F2E41" fill-rule="nonzero"></path>
            <path d="M433.185468,124.509209 C433.185468,124.509209 431.380834,130.345034 431.019908,131.80399 C430.658981,133.262947 428.49342,137.275076 428.49342,143.47564 C428.49342,149.676205 429.215274,156.970986 428.49342,157.700464 C427.771567,158.429942 416.22191,199.280717 421.274885,203.657586 C426.32786,208.034455 442.930491,222.624017 444.013272,224.447712 C445.096052,226.271408 445.456979,230.648277 447.62254,229.918798 C449.7881,229.18932 458.089416,221.894539 458.450343,220.435583 C458.81127,218.976627 453.758295,216.423453 453.758295,216.423453 C453.758295,216.423453 443.652345,201.469152 441.125858,201.833891 C438.59937,202.19863 438.960297,200.010195 439.321224,198.915978 C439.68215,197.821761 440.404004,197.092283 439.321224,197.092283 C438.238443,197.092283 438.960297,194.17437 439.321224,192.715414 C439.68215,191.256458 447.983466,171.560548 447.983466,171.560548 L470,161.712594 C470,161.712594 468.91722,135.086642 460.97683,127.791861 L459.172197,123.414992 C459.172197,123.414992 438.960297,121.956036 433.185468,124.509209 Z" id="Path" fill="#2F2E41" fill-rule="nonzero"></path>
            <path d="M443.481928,67 C443.481928,67 445.289157,80.3098592 440.951807,81.0704225 C436.614458,81.8309859 433,81.4507042 433,81.8309859 C433,82.2112676 443.843373,94 443.843373,94 L453.963855,93.2394366 L463,82.971831 C463,82.971831 454.686747,81.4507042 454.686747,76.1267606 C454.686747,70.8028169 454.325301,67 454.325301,67 L443.481928,67 Z" id="Path" fill="#FBBEBE" fill-rule="nonzero"></path>
            <path d="M443.481928,67 C443.481928,67 445.289157,80.3098592 440.951807,81.0704225 C436.614458,81.8309859 433,81.4507042 433,81.8309859 C433,82.2112676 443.843373,94 443.843373,94 L453.963855,93.2394366 L463,82.971831 C463,82.971831 454.686747,81.4507042 454.686747,76.1267606 C454.686747,70.8028169 454.325301,67 454.325301,67 L443.481928,67 Z" id="Path" fill="#000000" fill-rule="nonzero" opacity="0.1"></path>
            <circle id="Oval" fill="#FBBEBE" fill-rule="nonzero" cx="448" cy="62" r="11"></circle>
            <path d="M437.199259,80 C437.199259,80 423.175548,81.7938931 422.096801,86.4580153 C421.018054,91.1221374 429.288448,120.183206 430.367195,122.694656 C431.445942,125.206107 431.086359,127 431.086359,127 C434.378184,124.543609 438.573929,123.627841 442.592995,124.48855 C449.425059,125.923664 459.133783,125.206107 459.133783,125.206107 C459.133783,125.206107 462.370024,111.931298 463.089188,110.496183 C463.808353,109.061069 466.685012,101.167939 466.685012,99.0152672 C466.685012,96.8625954 471,87.8931298 471,87.8931298 C471,87.8931298 468.842506,81.4351145 460.931694,81.7938931 C460.931694,81.7938931 457.481074,80.2529174 456.509515,81.3821839 C455.537955,82.5114504 450.144224,87.5343511 443.312159,85.3816794 C436.480095,83.2290076 437.199259,80 437.199259,80 Z" id="Path" fill="#3F3D56" fill-rule="nonzero"></path>
            <path d="M425.995674,86 L422.11612,86 L420,114.770865 C420,114.770865 427.759107,116.955994 428.817167,115.499241 C429.875227,114.042489 425.995674,86 425.995674,86 Z" id="Path" fill="#3F3D56" fill-rule="nonzero"></path>
            <path d="M421.965665,111.057798 L421.038627,114.19263 C421.038627,114.19263 420.420601,124.380834 424.128755,123.98898 C427.83691,123.597126 430,117.719316 430,117.719316 C430,117.719316 427.83691,110.274091 425.364807,111.057798 C422.892704,111.841506 421.965665,111.057798 421.965665,111.057798 Z" id="Path" fill="#3F3D56" fill-rule="nonzero"></path>
            <path d="M465,86 L471.841166,87.8617021 C471.841166,87.8617021 476.882025,106.851064 477.242087,107.223404 C477.602148,107.595745 477.962209,109.829787 477.962209,109.829787 C477.962209,109.829787 477.962209,110.202128 478.682332,111.319149 C479.402455,112.43617 480.482639,111.691489 479.762516,113.180851 C479.042393,114.670213 477.962209,113.925532 478.682332,115.414894 C479.402455,116.904255 479.042393,121 479.042393,121 C479.042393,121 477.242087,113.925532 470.760982,115.787234 L466.440245,95.6808511 L465,86 Z" id="Path" fill="#3F3D56" fill-rule="nonzero"></path>
            <path d="M434.560716,52.2748828 C432.282563,56.3243209 431.769461,61.1207706 431.455114,65.7692906 C431.320315,67.762931 431.218928,69.8091388 431.803418,71.7179503 C432.419728,73.7306755 433.790989,75.7756952 433.087797,77.7590546 C432.407661,79.6773281 430.133165,80.4449526 428.862981,82.0267037 C427.786568,83.3671592 427.516197,85.2037626 427.609606,86.928226 C427.703014,88.6526895 428.116318,90.3456556 428.237553,92.0683421 C428.487869,95.8524057 427.333371,99.5947797 425,102.563067 C430.443252,102.350724 436.262959,99.9087831 438.558423,94.9110577 C439.244648,93.4169983 439.578496,91.7819193 440.197759,90.2582125 C440.89831,88.5344986 441.955422,86.9743332 442.618897,85.2356694 C443.619946,82.6123932 443.674126,79.7318588 443.715697,76.9201945 C443.740582,75.2371182 443.758283,73.509123 443.18256,71.9298398 C441.915202,68.4533094 437.97385,66.2070688 437.582509,62.5228571 C437.515043,62.1332722 437.572039,61.732073 437.745228,61.3774802 C437.929061,61.1184265 438.152061,60.8902664 438.406036,60.7013789 C440.867125,58.5038523 440.461303,53.8514714 443.390894,52.3533976 C444.705521,51.6811498 446.290186,51.9176412 447.701872,52.3431934 C449.269461,52.8157448 450.83348,53.5475688 451.853347,54.8413285 C453.907077,57.4465949 453.096611,61.2099393 452.461121,64.4796439 C451.540141,69.2224282 451.213575,74.0637197 451.489142,78.8891123 C451.50696,79.6609186 451.619455,80.4274986 451.824045,81.1712522 C452.201398,82.378026 453.005829,83.3918342 453.613087,84.49846 C454.850685,86.7732491 455.252274,89.4178494 454.746683,91.9635655 C454.298394,94.1789815 453.184826,96.5383273 454.165099,98.570631 C454.596617,99.3554729 455.197694,100.031641 455.923513,100.548718 C459.126257,103.088248 463.191753,104.661743 465.573062,108 C465.983171,105.273278 465.200831,102.529281 464.623272,99.8337855 C464.045714,97.1382902 463.694255,94.2037004 464.881174,91.7207125 C465.401883,90.6314203 466.197764,89.6836705 466.623434,88.5529107 C467.606512,85.9414656 466.434814,83.0771388 465.723252,80.3770295 C465.214596,78.256679 464.847408,76.1041335 464.624172,73.9339512 L463.890294,68.0761969 C463.283604,63.2336438 462.648816,58.2924637 460.546927,53.8986644 C456.585904,45.6185184 447.622034,42.5433075 439.596161,47.1314433 C437.493061,48.3592895 435.754124,50.1355214 434.560716,52.2748828 Z" id="Path" fill="#FF6584" fill-rule="nonzero"></path>
            <path d="M424.886658,112.420483 C424.886658,112.420483 422.663855,119 425.257125,119 C427.850395,119 432.666468,114.979184 433.036935,111.689426 C433.407402,108.399667 440.075811,95.9716908 435.259738,97.0682769 C430.443665,98.1648631 428.220862,107.303081 428.220862,107.303081 L424.886658,112.420483 Z" id="Path" fill="#FBBEBE" fill-rule="nonzero"></path>
            <polygon id="Path" fill="#CCB51C" fill-rule="nonzero" points="461.846154 87 450 125.410256 466.153846 129 478 91.6666667"></polygon>
            <path d="M476.626189,114.400955 L478.919493,118.437542 C478.919493,118.437542 479.930017,126 474.79073,126 C469.651443,126 462.309604,118.653938 462.309604,118.653938 C462.309604,118.653938 458.638685,117.107399 456.436134,117.494033 C454.233582,117.880668 442.119549,117.494033 447.258836,110.921241 C452.398123,104.348449 461.208329,110.921241 461.208329,110.921241 L470.385627,115.560859 L475.157822,112.854415 L476.626189,114.400955 Z" id="Path" fill="#FBBEBE" fill-rule="nonzero"></path>
            <path d="M473.565337,108.678074 L470,114.102665 C470,114.102665 478.200275,115.119776 478.913343,116.814961 C479.62641,118.510146 475.704539,108 475.704539,108 L473.565337,108.678074 Z" id="Path" fill="#3F3D56" fill-rule="nonzero"></path>
            <path d="M275,177 L280.716132,173.303647 L292.563226,159.116898 C293.266763,158.274411 293.10297,157.060856 292.197383,156.406337 L292.197383,156.406337 C291.291788,155.751827 289.98733,155.904205 289.283783,156.746686 L277.43669,170.933435 L275,177 Z" id="Path" fill="#2F2E41" fill-rule="nonzero"></path>
            <path d="M324.067557,38.5950761 C324.067557,38.5950761 317.205144,32.5775582 307.976381,43.9182629 C298.747618,55.2589675 284.312888,60.8135968 281,65.2110131 C281,65.2110131 294.724823,59.6563771 299.457522,57.3419543 C304.190221,55.0275316 303.953576,55.4904101 303.953576,55.4904101 C303.953576,55.4904101 297.564445,59.8878364 296.381269,64.2852427 C295.198093,68.682649 296.144634,72.3857441 294.01492,76.7831604 C291.885205,81.1805767 334.71611,79.7919177 334.71611,79.7919177 C334.71611,79.7919177 338.97554,72.6171867 337.792363,65.2110131 C336.609187,57.8048396 337.319111,39.5208466 324.067557,38.5950761 Z" id="Path" fill="#2F2E41" fill-rule="nonzero"></path>
            <path d="M310.698127,56 C310.698127,56 312.401307,67.7962944 305.101971,70.4444425 C297.802634,73.0925906 300.479068,76.7037038 300.479068,76.7037038 L311.42807,82 L323.107019,78.3888902 L327,72.6111063 C327,72.6111063 320.673907,71.1666638 322.377097,66.8333223 C324.080287,62.4999809 324.566898,61.0555384 324.566898,61.0555384 L310.698127,56 Z" id="Path" fill="#FFB9B9" fill-rule="nonzero"></path>
            <path d="M310.698127,56 C310.698127,56 312.401307,67.7962944 305.101971,70.4444425 C297.802634,73.0925906 300.479068,76.7037038 300.479068,76.7037038 L311.42807,82 L323.107019,78.3888902 L327,72.6111063 C327,72.6111063 320.673907,71.1666638 322.377097,66.8333223 C324.080287,62.4999809 324.566898,61.0555384 324.566898,61.0555384 L310.698127,56 Z" id="Path" fill="#000000" fill-rule="nonzero" opacity="0.1"></path>
            <path d="M340.959121,89 C340.959121,89 339.42952,110.978275 339.866533,111.933854 C340.303546,112.889433 339.866533,146.095734 339.866533,146.095734 C339.866533,146.095734 342.925739,164.012808 338.992472,164.968383 C335.059206,165.923959 335.933267,144.901264 335.933267,144.901264 L332,117.189528 L332.437029,89.7166715 L340.959121,89 Z" id="Path" fill="#FFB9B9" fill-rule="nonzero"></path>
            <path d="M340.959121,89 C340.959121,89 339.42952,110.978275 339.866533,111.933854 C340.303546,112.889433 339.866533,146.095734 339.866533,146.095734 C339.866533,146.095734 342.925739,164.012808 338.992472,164.968383 C335.059206,165.923959 335.933267,144.901264 335.933267,144.901264 L332,117.189528 L332.437029,89.7166715 L340.959121,89 Z" id="Path" fill="#000000" fill-rule="nonzero" opacity="0.1"></path>
            <path d="M294.533245,156 C294.533245,156 286.769991,185.822334 287.005241,200.375633 C287.24049,214.928932 290.298745,235.208122 290.298745,235.208122 C290.298745,235.208122 290.769245,244.035531 290.063492,244.989848 C289.357739,245.944165 293.592246,250 293.592246,250 L298.061989,247.375635 L299.708738,245.467005 L299.708738,243.796946 C299.708738,243.796946 297.120986,235.685272 299.238238,229.243647 C301.35549,222.802021 302.531742,206.578673 300.414504,201.568521 L315,157.670045 L294.533245,156 Z" id="Path" fill="#FFB9B9" fill-rule="nonzero"></path>
            <path d="M294.974674,245.719689 C294.974674,245.719689 292.047542,242.026132 290.09612,243.257316 C288.144697,244.488501 284.973638,252.860568 284.973638,252.860568 C284.973638,252.860568 273.996893,263.448764 281.802579,263.941241 C289.608265,264.433719 293.023251,261.725106 293.998964,259.755211 C294.974677,257.785316 304,252.614331 304,252.614331 C304,252.614331 303.024287,243.257316 301.560723,243.01108 C300.097159,242.764843 297.901806,246.704636 297.901806,246.704636 L294.974674,245.719689 Z" id="Path" fill="#2F2E41" fill-rule="nonzero"></path>
            <path d="M319.398057,158.101446 L319.398057,187.454105 C319.426245,191.015687 319.669383,194.572564 320.126211,198.106278 C320.854366,203.31401 316,242.135268 316,242.135268 L316.485436,249 L322.553396,248.526571 L323.28155,242.608698 L332.019416,216.570051 C332.019416,216.570051 334.932037,200.710146 333.475728,194.792272 C332.01942,188.874399 341,151 341,151 L319.398057,158.101446 Z" id="Path" fill="#FFB9B9" fill-rule="nonzero"></path>
            <path d="M315.477658,246.901208 L317.140038,246.493883 C317.140038,246.493883 318.39561,243.359592 319.966816,244.118511 C321.072473,244.693237 322.119945,245.4006 323.091085,246.228346 L323.782601,247.660098 C323.782601,247.660098 325.353804,251.454683 327.373925,253.984407 C329.394046,256.514132 331.638615,262.079528 328.271758,262.585472 C324.904901,263.091417 320.415731,263.344389 319.068986,262.079528 C317.72224,260.814668 318.620067,258.790884 317.273322,258.28494 C315.926576,257.778996 314.804285,256.26116 315.028743,255.755216 C315.253201,255.249271 315.477658,246.901208 315.477658,246.901208 Z" id="Path" fill="#2F2E41" fill-rule="nonzero"></path>
            <circle id="Oval" fill="#FFB9B9" fill-rule="nonzero" cx="319.5" cy="53.5" r="11.5"></circle>
            <path d="M300,73.0818985 L303.071862,72 C303.071862,72 301.860463,74.020316 308.372092,75.193359 C314.883721,76.3664019 321.62726,76.7816775 324.650838,72.9376454 C324.650838,72.9376454 325.813956,72.378093 327.441861,74.0203329 C329.069765,75.6625728 330,75.1933759 330,75.1933759 L328.837211,81.2931216 L326.511629,92.5541988 L323.488374,101 L314.883721,99.1231549 L305.581395,92.3195936 L302.093024,83.1699362 L302.093024,74.7241384 L300,73.0818985 Z" id="Path" fill="#CCB51C" fill-rule="nonzero"></path>
            <path d="M329.816518,74.5875668 L332.24771,72.9007074 C332.24771,72.9007074 340.513762,74.3465839 341,78.2022615 L334.678903,90.2512498 C335.968152,93.6038898 335.880874,97.3237659 334.43578,100.613375 C332.004588,106.155909 332.24771,107.360809 332.24771,107.360809 L330.545875,114.590202 L299.669737,117 C299.669737,117 298.454125,114.108244 297.967901,113.626281 C297.481678,113.144319 297.481664,111.457463 297.967901,111.457463 C298.454139,111.457463 297.967901,110.734525 297.481664,110.011586 C296.995426,109.288648 296.752304,109.047665 297.481664,108.083748 C298.211024,107.11983 296.266052,98.444557 296.266052,98.444557 L296.266052,89.0463388 L288,78.2022511 C288,78.2022511 290.91743,73.8646146 292.376147,73.3826558 C293.834863,72.9006969 300.773898,71 300.773898,71 L302.344034,73.2915637 L304.532104,90.7331843 L307.692656,101.336293 L321.000167,99.0951308 L326.169721,90.4922049 L329.573392,80.3710554 L329.816518,74.5875668 Z" id="Path" fill="#CCB51C" fill-rule="nonzero"></path>
            <path d="M338.867864,77 L340.743476,78.4889999 C340.743476,78.4889999 342.384637,92.3863167 341.915749,93.3789845 C341.44686,94.3716523 333.241045,95.3643165 333.006594,94.8679808 C332.772143,94.3716452 338.867864,77 338.867864,77 Z" id="Path" fill="#CCB51C" fill-rule="nonzero"></path>
            <path d="M286.040881,93 C286.040881,93 287.570486,114.978275 287.133469,115.933854 C286.696453,116.889433 287.133469,150.095737 287.133469,150.095737 C287.133469,150.095737 284.07426,168.012808 288.007527,168.968383 C291.940794,169.923959 291.066733,148.901264 291.066733,148.901264 L295,121.189528 L294.562971,93.7166715 L286.040881,93 Z" id="Path" fill="#FFB9B9" fill-rule="nonzero"></path>
            <path d="M299.453575,71.9518849 L301.842757,87.6581771 C301.842757,87.6581771 299.692493,110.979645 300.170332,115.739128 L300.648168,117.166971 C300.648168,117.166971 299.692493,116.691023 299.453561,117.642918 C299.214629,118.594814 299.453561,121.68848 299.453561,121.68848 C299.453561,121.68848 298.020054,123.116326 297.542214,130.969472 C297.064375,138.822618 291.330343,157.622577 293.480607,158.336512 C295.630871,159.050447 308.532454,162.620048 315.461083,161.906126 C322.389712,161.192205 347.237207,152.863108 346.998289,150.72134 C346.759371,148.579572 334.813459,118.356857 334.813459,118.356857 C334.813459,118.356857 332.663195,114.787243 332.663195,114.311295 C332.663195,113.835348 335.530213,111.931554 334.813459,110.02776 C334.096706,108.123966 330.274023,88.1341384 330.274023,88.1341384 L332.902123,73.8556892 L329.318348,72.9037939 L326.690248,86.7062956 C326.690248,86.7062956 316.416769,91.7037524 305.665447,87.1822432 L303.276264,71 L299.453575,71.9518849 Z" id="Path" fill="#2F2E41" fill-rule="nonzero"></path>
            <path d="M289.856215,79 L287.881963,79.6817382 C287.881963,79.6817382 284.18024,93.9982592 285.167368,93.9982592 C286.154496,93.9982592 298,95.3617388 298,94.9072467 C298,94.4527546 295.778967,83.3176816 295.778967,83.3176816 L289.856215,79 Z" id="Path" fill="#CCB51C" fill-rule="nonzero"></path>
            <path d="M311,43.8185105 C311,43.8185105 328.300493,56.1056852 332.976302,50.5644112 C337.652111,45.0231372 324.793638,40.2046407 324.793638,40.2046407 L314.039275,39 L311,43.8185105 Z" id="Path" fill="#2F2E41" fill-rule="nonzero"></path>
            <polygon id="Path" fill="#2F2E41" fill-rule="nonzero" points="60 74.8573803 33 80 33 59 57.8225153 59.8570479"></polygon>
            <path d="M58.9331475,109 L58,118.46431 L63.1323149,145.95588 C63.1323149,145.95588 63.1323149,164.43382 67.798056,161.729731 C72.4637971,159.025642 68.2646297,145.95588 68.2646297,145.95588 L68.2646297,117.112268 L67.3314822,109 L58.9331475,109 Z" id="Path" fill="#A0616A" fill-rule="nonzero"></path>
            <path d="M19.7337452,110 L19.279604,116.715429 L6.2312726,148.671844 C6.2312726,148.671844 -4.15119408,158.067666 1.88743004,162.238647 C7.92605416,166.409628 11.5591869,152.083367 11.5591869,152.083367 L25.6375766,124.773955 L27,110 L19.7337452,110 Z" id="Path" fill="#A0616A" fill-rule="nonzero"></path>
            <path d="M13.5480307,170 L14.4064725,187.866667 C14.4064725,187.866667 10.972702,205.733334 14.8356934,220.920001 L16.9818013,237 L22.9909007,236.106664 L25.1370085,215.559986 C25.1370085,215.559986 26.4246712,197.693319 25.9954503,195.459985 L29,174.019985 L13.5480307,170 Z" id="Path" fill="#A0616A" fill-rule="nonzero"></path>
            <path d="M42,176 L49.199997,200.489051 C49.199997,200.489051 50.0999962,211.175181 55.5,221.416059 C60.9000003,231.656937 61.7999995,237 61.7999995,237 L69,236.109487 L66.299999,216.072992 C66.299999,216.072992 63.1499983,193.364961 60.4499868,190.693431 L57.7499892,176.445255 L42,176 Z" id="Path" fill="#A0616A" fill-rule="nonzero"></path>
            <circle id="Oval" fill="#A0616A" fill-rule="nonzero" cx="43.5" cy="63.5" r="10.5"></circle>
            <path d="M38.9969191,71.6407191 C38.9969191,71.6407191 43.0187872,79.5628732 38.9969191,81.763473 C34.9750511,83.9640729 33.1875419,84.8443114 33.1875419,84.8443114 C33.1875419,84.8443114 27.8250489,104.649703 39.8906564,102.889223 C51.956264,101.128742 60,80.4431151 60,80.4431151 C60,80.4431151 51.956264,78.2425153 50.1687651,69 L38.9969191,71.6407191 Z" id="Path" fill="#A0616A" fill-rule="nonzero"></path>
            <path d="M35.4066641,94.2522668 C33.872866,93.2914956 32.9559813,91.6028941 32.9893622,89.8003877 C32.9817276,88.2048291 33.4924254,86.6494858 34.4454181,85.3659325 L36.149045,83.0165271 C36.149045,83.0165271 27.7119001,80.8873033 21.9129465,90.2039624 C16.1139929,99.5206215 8.0846752,112.386484 15.2218473,113.717426 C22.3590194,115.048369 24.5893869,115.04838 24.5893869,115.04838 C24.5893869,115.04838 24.1433176,120.372186 19.2365061,125.252346 C14.3296947,130.132505 -6.18967241,166.955488 3.62394006,171.391991 C13.4375525,175.828494 60.721327,185.588806 62.5056218,178.490397 C64.2899165,171.391988 53.5841653,127.026949 53.5841653,127.026949 L57.1527548,112.830133 C57.1527548,112.830133 85.2553738,113.717433 81.6867843,107.949981 C78.1181948,102.182528 71.8731718,80 60.2752681,80 L58.209641,80 C58.209641,80 48.9405651,90.7234921 42.3532652,94.3715841 C40.1950494,95.6176211 37.5203322,95.5716792 35.4066641,94.2522668 Z" id="Path" fill="#2F2E41" fill-rule="nonzero"></path>
            <path d="M60.7363008,236.885482 L59.4340744,245.297474 L59,255.923145 L62.0385239,256.365884 L62.9066726,250.610301 L64.6429734,259.907764 C64.6429734,259.907764 67.6814973,264.777862 72.8903964,263.892391 C78.0992954,263.006919 72.0222443,252.381244 72.0222443,252.381244 L69.4177947,236 L60.7363008,236.885482 Z" id="Path" fill="#2F2E41" fill-rule="nonzero"></path>
            <path d="M24.2636965,234.885472 L25.5659191,243.297464 L26,253.923135 L22.9614772,254.365871 L22.0933288,248.610287 L20.3570186,257.907761 C20.3570186,257.907761 17.3184958,262.777862 12.1096021,261.892391 C6.90070834,261.006919 12.9777505,250.381244 12.9777505,250.381244 L15.582199,234 L24.2636965,234.885472 Z" id="Path" fill="#2F2E41" fill-rule="nonzero"></path>
            <circle id="Oval" fill="#FFFC00" fill-rule="nonzero" cx="39" cy="99" r="2"></circle>
            <circle id="Oval" fill="#FFFC00" fill-rule="nonzero" cx="37" cy="111" r="2"></circle>
            <circle id="Oval" fill="#FFFC00" fill-rule="nonzero" cx="35" cy="122" r="2"></circle>
            <circle id="Oval" fill="#FFFC00" fill-rule="nonzero" cx="35" cy="135" r="2"></circle>
            <circle id="Oval" fill="#FFFC00" fill-rule="nonzero" cx="31" cy="146" r="2"></circle>
            <circle id="Oval" fill="#FFFC00" fill-rule="nonzero" cx="31" cy="158" r="2"></circle>
            <path d="M37.4365685,48.7530278 C34.4695006,48.2442664 31.2194054,49.9214393 30.2943962,52.4386584 C29.9974494,53.2467399 29.9143613,54.1184989 29.4831586,54.8789232 C29.0209848,55.6939761 28.201949,56.3060241 27.6037283,57.050328 C26.5733472,58.3118217 26.2485572,60.0048278 26.739362,61.5559397 C27.0284518,62.4343906 27.5784181,63.2515004 27.7006078,64.1593449 C27.7374376,64.3496769 27.7204801,64.5464591 27.6516259,64.7277529 C27.53174,64.9387796 27.3632539,65.1184208 27.1600402,65.2518858 C26.195031,66.0083826 25.2655483,66.7977381 24.3715921,67.6199521 C23.4602462,68.4582245 22.5234619,69.5427656 22.8658259,70.6599823 C23.0051612,71.0123229 23.1836906,71.3479996 23.3980722,71.660729 C24.251821,73.1381286 24.2479381,74.957414 23.3878906,76.4311836 C22.9954535,77.101622 22.4404466,77.6946955 22.08761,78.3817582 C23.591126,78.0029962 24.9235873,77.1326116 25.871656,75.90996 C25.0583294,77.8834263 22.2051229,78.6303254 21,80.4441094 C21.8264308,80.4482847 22.640838,80.2468949 23.3693773,79.8582006 C22.7594368,80.2566662 22.1897361,80.713137 21.6682794,81.2211994 C22.8562278,80.9500531 23.9553233,80.3820722 24.8620069,79.5707732 C24.0509895,80.1625216 23.4780184,81.0226574 23.2457776,81.9970332 C26.5830315,82.0547195 29.8539507,81.26134 33.0683219,80.4746005 L38.4634353,79.1541098 C38.8201218,79.1066008 39.1523112,78.9470303 39.4117385,78.6985827 C39.5684939,78.461917 39.6286494,78.1745656 39.5799204,77.8952086 C39.4665681,76.5335729 38.7225554,75.2765872 37.9050023,74.1135009 C37.2866453,73.2344488 36.6224738,72.3882808 35.9152199,71.5784772 C35.1787697,70.7346933 34.3848813,69.9147294 33.8586179,68.958213 C32.7075728,66.8661127 32.9754264,64.4163916 33.2687912,62.1089624 C33.355108,61.4300409 33.4689522,60.6977782 34.0120626,60.2068007 C34.226597,60.0128449 34.4950845,59.8707429 34.7191943,59.6852562 C35.488157,59.0488187 35.6102704,58.0401241 35.8477212,57.1378497 C36.2051062,55.8134345 36.8736474,54.592722 37.7981283,53.5765338 C38.1376307,53.1995589 38.5897718,52.8161613 39.1377184,52.8416965 C40.1717355,52.8898784 40.9449247,53.5922263 41.4875605,54.3634148 C41.9816796,55.1501147 42.402859,55.9800063 42.7458813,56.842809 C43.7102312,58.9314754 45.2942666,61.0384503 47.7677776,61.667064 C48.7209412,61.9093017 49.7686354,61.9196897 50.6252278,62.3582508 C51.4364733,62.8007591 52.0252527,63.5607849 52.249328,64.4547203 C52.4401557,65.304036 52.4914954,66.1785558 52.4013489,67.0442415 C52.2372635,70.030835 51.9229236,73.007351 51.4595136,75.9625731 L64.2955372,76.124578 C64.0671836,74.41896 63.4445654,72.7894179 62.4766908,71.3642181 C63.9789826,71.5221241 65.4914057,71.5622051 67,71.4840911 C66.4578042,70.4648738 64.9023216,70.3386955 63.7396885,69.8591345 C63.5838885,69.807084 63.4440689,69.7161441 63.3335604,69.5949853 C63.2300925,69.4263649 63.188659,69.2271658 63.2163489,69.031471 L63.2746186,67.0530696 C63.3282769,66.5924177 63.2582762,66.1258308 63.0717624,65.7009385 C62.8415936,65.2775038 62.3932668,64.9721062 62.1382242,64.5597119 C61.5144819,63.5511553 62.2060762,62.2515682 61.7527919,61.1756516 C61.3737547,60.2759795 60.3141121,59.7719565 59.3898547,59.2561617 C58.1164745,58.5455344 56.9272355,57.6335277 56.3053536,56.4297038 C56.0142025,55.8661067 55.8571653,55.2577342 55.6248139,54.6736268 C54.8560556,52.7410466 53.2623444,51.1095465 51.3529514,49.9267817 C49.3723944,48.7649639 47.2156957,47.9310495 44.9669585,47.457558 C43.3956198,47.0914577 41.7397381,46.8325508 40.1493007,47.1289444 C38.5588632,47.4253379 37.0428531,48.3856713 36.6229128,49.7594447" id="Path" fill="#2F2E41" fill-rule="nonzero"></path>
            <circle id="Oval" fill="#CCB51C" fill-rule="nonzero" cx="556.5" cy="12.5" r="12.5"></circle>
            <ellipse id="Oval" fill="#CCB51C" fill-rule="nonzero" cx="637.5" cy="84" rx="3.5" ry="3"></ellipse>
            <polygon id="Path" fill="#CCB51C" fill-rule="nonzero" points="619.331717 162 609 167.575629 609.668664 169 620 163.424371"></polygon>
            <path d="M616,152.473416 L615.575664,155.313917 C615.575664,155.313917 616.21217,174.960735 611.544456,168.806312 C606.876743,162.651889 610.059275,154.367086 610.059275,154.367086 L611.33229,152 L616,152.473416 Z" id="Path" fill="#FBBEBE" fill-rule="nonzero"></path>
            <path d="M586.461625,62 C586.461625,62 585.501608,72 585.021598,72.4761908 C584.541588,72.9523837 592.221718,82 592.221718,82 L598.941824,75.8095405 C598.941824,75.8095405 598.461818,66.7619202 599.90184,64.8571568 C601.341862,62.9523934 586.461625,62 586.461625,62 Z" id="Path" fill="#FBBEBE" fill-rule="nonzero"></path>
            <path d="M586.461625,62 C586.461625,62 585.501608,72 585.021598,72.4761908 C584.541588,72.9523837 592.221718,82 592.221718,82 L598.941824,75.8095405 C598.941824,75.8095405 598.461818,66.7619202 599.90184,64.8571568 C601.341862,62.9523934 586.461625,62 586.461625,62 Z" id="Path" fill="#000000" fill-rule="nonzero" opacity="0.1"></path>
            <polygon id="Path" fill="#3F3D56" fill-rule="nonzero" points="569 244.227334 569 251.590665 565.293964 252 560 250.772666 561.587929 243"></polygon>
            <path d="M565.141467,247.27843 C565.141467,247.27843 563.769762,243.577388 561.483586,244.04002 C559.19741,244.502652 558.740172,247.27843 558.740172,247.27843 C558.740172,247.27843 556.911234,254.217879 554.16782,256.531029 C551.424406,258.844178 548.680996,264.85837 554.16782,265.783627 C559.654644,266.708884 564.226996,264.395738 564.226996,263.93311 C564.226996,263.470481 565.598705,260.694699 567.884881,260.232067 C570.171057,259.769435 572,259.30681 572,257.456289 C572,255.605768 570.628291,253.755251 570.628291,253.755251 C570.628291,253.755251 570.171057,244.979852 569.256586,246.129141 C568.624172,247.037124 568.159444,248.053448 567.884881,249.128948 L565.141467,247.27843 Z" id="Path" fill="#2F2E41" fill-rule="nonzero"></path>
            <polygon id="Path" fill="#3F3D56" fill-rule="nonzero" points="589.75009 238.444363 588 245.110908 592.375045 246 594.562567 243.777818 595 238"></polygon>
            <path d="M589.325152,244.576381 C589.325152,244.576381 591.247439,243.203464 592.208584,243.203464 L593.6503,243.203464 C593.6503,243.203464 593.6503,240 596.053165,240 C598.45603,240 597.975452,242.288188 597.975452,242.288188 C597.975452,242.288188 603.261749,250.068037 604.703465,251.440946 C606.145181,252.813854 613.834339,256.932599 607.586901,258.763151 C601.339462,260.593703 597.014306,260.593699 594.130874,257.390235 C594.130874,257.390235 591.247439,256.017322 589.325152,256.017322 C587.402865,256.017322 585,255.102046 585,253.729134 C585,252.356222 586.441716,249.610393 586.441716,249.610393 C586.441716,249.610393 587.402861,241.372916 587.883432,242.288188 C588.364003,243.203461 589.325152,244.576381 589.325152,244.576381 Z" id="Path" fill="#2F2E41" fill-rule="nonzero"></path>
            <path d="M568.632209,130 L568.632209,145.53614 C568.632209,145.53614 563.349862,175.66684 563.349862,185.553467 C563.349862,195.440095 555.186229,242.519314 559.027942,243.460899 C562.869654,244.402484 571.993702,245.814859 572.473914,244.402484 C572.954126,242.990108 576.315619,198.264838 576.795834,197.794063 C577.27605,197.323288 587.360525,160.130696 587.360525,160.130696 L589.281379,160.601486 L590.241802,202.972777 C590.241802,202.972777 585.439671,241.10695 587.840737,241.10695 C590.241802,241.10695 600.326282,240.636156 600.326282,237.811405 C600.326282,234.986654 605.608629,182.728728 605.608629,182.728728 C605.608629,182.728728 611.851384,141.299022 609.450334,137.061892 C607.049283,132.824762 607.049268,130.470802 607.049268,130.470802 L568.632209,130 Z" id="Path" fill="#2F2E41" fill-rule="nonzero"></path>
            <circle id="Oval" fill="#FBBEBE" fill-rule="nonzero" cx="594.5" cy="60.5" r="9.5"></circle>
            <path d="M592.271183,75.9016344 C592.271183,75.9016344 586.338979,70.9038971 585.864401,69 C585.864401,69 582.779657,72.0938362 582.779657,72.5698095 C582.779657,73.0457828 569.491522,74.4737106 566.169493,78.2815087 C562.847463,82.0893069 560,90.1808843 560,90.1808843 L568.067802,105.412081 C568.067802,105.412081 568.542381,113.979632 568.542381,114.931578 C568.542381,115.883525 566.1695,131.114741 567.118649,131.590702 C568.067799,132.066664 577.559329,136.826428 585.627123,135.874478 C593.694918,134.922527 601.762728,133.494603 604.135593,133.494603 C606.508458,133.494603 608.40678,134.446554 608.40678,133.494603 C608.40678,132.542653 606.983052,130.638752 606.983052,129.686801 C606.983052,128.734851 606.508474,126.354976 606.508474,124.927053 C606.508474,123.499129 605.559321,121.119254 605.559321,119.215353 C605.559321,117.311452 616,91.6088081 616,91.6088081 C616,91.6088081 615.525422,83.5172268 607.932198,79.7094325 C600.338973,75.9016383 599.389828,74.4737106 599.389828,74.4737106 C599.389828,74.4737106 599.241877,71.617859 598.841276,71.617859 C598.440675,71.617859 597.016963,75.9016344 593.220336,76.3776116 L592.271183,75.9016344 Z" id="Path" fill="#D0CDE1" fill-rule="nonzero"></path>
            <polygon id="Path" fill="#FBBEBE" fill-rule="nonzero" points="566 138.789596 569.640137 144 579 142.105202 572.240051 135"></polygon>
            <path d="M612.359751,89 L615.18514,92.6792169 C615.18514,92.6792169 620.835914,119.353548 619.894118,129.011497 C618.952321,138.669445 618.010525,146.027879 618.010525,146.027879 C618.010525,146.027879 619.894118,152.926416 618.481421,152.926416 C617.068725,152.926416 608.59257,153.386317 608.59257,152.006611 C608.59257,150.626905 609.53437,141.888762 609.53437,141.888762 L607.179874,121.653063 L602,114.75453 L612.359751,89 Z" id="Path" fill="#D0CDE1" fill-rule="nonzero"></path>
            <path d="M588.605439,56.1656777 C589.1774,55.9201865 589.838618,56.119333 590.451157,56.0146134 C591.170459,55.8916428 591.814053,55.3519734 592.540426,55.4200826 C592.884647,55.4847143 593.219042,55.5946609 593.535104,55.7471249 C593.85558,55.8996252 594.223654,55.9129742 594.554081,55.7840805 C594.711909,55.7098707 594.828418,55.5677235 594.871379,55.3969616 C594.91434,55.2261997 594.879197,55.044926 594.775673,54.9032869 C595.390236,54.8484463 595.971167,54.5952091 596.432918,54.180868 C596.524936,54.0841188 596.631723,54.0029883 596.749186,53.9405853 C597.025958,53.8674397 597.320292,53.9138678 597.561983,54.0687953 L598.629566,54.5671463 C598.870056,54.6531559 599.081573,54.8063815 599.239631,55.0090846 C599.366615,55.2095885 599.39147,55.4791983 599.57133,55.6327253 C599.800815,55.8286102 600.143865,55.7327523 600.443386,55.7519533 C601.006264,55.8074153 601.439066,56.2807122 601.450503,56.8533011 C601.44626,57.1705587 601.332308,57.5597844 601.580095,57.7539551 C601.723815,57.8665746 601.927859,57.8485526 602.09623,57.9177749 C602.532605,58.0971812 602.534306,58.7123557 602.469833,59.1847885 C602.405361,59.6572213 602.437258,60.2804819 602.885784,60.4259461 C603.201597,60.5283698 603.52435,60.3100223 603.85246,60.2613235 C604.347448,60.1878546 604.805464,60.5013852 605.246105,60.7412762 C605.686746,60.9811672 606.272129,61.1429858 606.654054,60.8157651 C607.009446,60.5112746 606.986645,59.9542191 606.888915,59.493293 C606.74864,58.8324467 606.518251,58.1945789 606.204375,57.5980352 C606.088224,57.4224899 606.019781,57.2190597 606.005933,57.0082165 C606.059811,56.7079982 606.237926,56.4454563 606.495333,56.2868409 C607.035235,55.854602 607.656299,55.4194466 607.831081,54.745331 C607.959375,54.2505829 607.815066,53.7288036 607.826206,53.2174102 C607.839767,52.5951347 608.084096,51.9755352 607.969512,51.3640101 C607.761818,50.2555574 606.543629,49.7221008 605.757265,48.9228778 C604.676711,47.8246481 604.325891,46.0680948 603.050655,45.2103223 C602.030471,44.5241066 600.69606,44.6060223 599.534324,44.2134032 C598.258123,43.7821028 597.230836,42.7912221 595.971972,42.3105209 C594.580671,41.7909313 593.032847,41.928414 591.752109,42.6853429 C591.37651,42.9673781 590.957271,43.1842936 590.511497,43.3272383 C590.136068,43.3712811 589.756633,43.3668243 589.382313,43.3139748 C588.638265,43.2751088 587.896799,43.4300317 587.228703,43.7639527 C586.97301,43.8674496 586.760071,44.0565694 586.625381,44.2997866 C586.399998,44.8067046 586.72743,45.5991718 586.233385,45.8415526 C586.003042,45.95456 585.731105,45.8462995 585.475215,45.8519889 C584.977615,45.8630534 584.594798,46.3015324 584.35803,46.7448786 C584.173422,47.2135734 583.9084,47.6455039 583.575212,48.0207075 C582.966966,48.5601675 581.861901,48.6493161 581.702982,49.4521342 C581.700113,49.792031 581.719175,50.1317546 581.760044,50.4691347 C581.714088,51.1805937 580.962245,51.7212948 581.001483,52.4331649 C581.046746,53.2542805 582.076918,53.6554549 582.352297,54.4291205 C582.561983,55.0182217 582.286044,55.6551802 582.096177,56.2511071 C581.90631,56.8470339 581.849049,57.6108954 582.339403,57.9923879 C582.531675,58.1419746 582.77888,58.2033009 582.974958,58.3477218 C583.482358,58.7214424 583.475951,59.4756432 583.419605,60.1084325 C583.353655,60.3751495 583.422725,60.6576231 583.603954,60.862358 C583.773435,60.9662631 583.978886,60.9912468 584.167841,60.9309288 C584.783591,60.7797225 585.310552,60.3781444 585.62453,59.8208394 C585.787934,59.5472428 585.820773,59.306103 586.117614,59.1609336 C586.319035,59.0624269 586.563628,59.1503499 586.768657,59.0225161 C587.744068,58.4144272 587.408298,56.6794833 588.605439,56.1656777 Z" id="Path" fill="#2F2E41" fill-rule="nonzero"></path>
            <path d="M562.477717,89 L561.095045,90.4451368 C561.095045,90.4451368 552.799024,116.457544 555.56435,122.238083 C558.329677,128.018622 563.860394,142.469958 565.703956,141.988245 C567.547519,141.506531 574,137.171133 574,136.689423 C574,136.207713 566.164842,122.719796 566.164842,122.719796 C566.164842,122.719796 565.243059,119.829527 565.703949,119.347817 C566.164838,118.866107 566.164842,119.347817 565.703949,118.384394 C565.243055,117.420971 565.243059,118.384394 566.164842,117.420971 C567.086625,116.457547 567.086625,116.457547 567.086625,115.975838 C567.086625,115.494128 569.851971,103.451344 569.851971,103.451344 L562.477717,89 Z" id="Path" fill="#D0CDE1" fill-rule="nonzero"></path>
            <polygon id="Path" fill="#2F2E41" fill-rule="nonzero" points="569 144.91661 579.560284 142 581 144.91661 569.480299 147"></polygon>
            <polygon id="Path" fill="#000000" fill-rule="nonzero" opacity="0.1" points="569 144.91661 579.560284 142 581 144.91661 569.480299 147"></polygon>
            <polygon id="Path" fill="#000000" fill-rule="nonzero" opacity="0.1" points="584 74 592.052447 81 593 79.4998534"></polygon>
            <polygon id="Path" fill="#000000" fill-rule="nonzero" opacity="0.1" points="599 75 594 78.4998358 594.41661 80"></polygon>
        </g>
        <path d="M108.469914,284 L99.530086,284 L99.530086,264.949416 C99.530086,261.72761 99.2320947,259.439695 98.6361032,258.085603 C98.0401116,256.731511 96.8023017,256.054475 94.9226361,256.054475 C93.3638891,256.054475 92.1031567,256.486377 91.1404011,257.350195 C90.1776456,258.214012 89.4441286,259.32295 88.9398281,260.677043 L88.9398281,284 L80,284 L80,248.980545 L86.9455587,248.980545 L87.9770774,253.603113 L88.252149,253.603113 C89.3065955,252.108942 90.6475563,250.801556 92.2750716,249.680934 C93.9025869,248.560306 95.9999872,248 98.5673352,248 C100.767919,248 102.567328,248.455248 103.965616,249.365759 C105.363904,250.276269 106.452718,251.805437 107.232092,253.953307 C108.286538,252.132287 109.63896,250.68483 111.289398,249.610895 C112.939836,248.53696 114.934086,248 117.272206,248 C119.197717,248 120.836669,248.233461 122.189112,248.700389 C123.541554,249.167318 124.64183,249.972757 125.489971,251.116732 C126.338113,252.260706 126.968479,253.789874 127.381089,255.70428 C127.793696,257.618687 128,260.046678 128,262.988327 L128,284 L119.060172,284 L119.060172,264.319066 C119.060172,261.564189 118.773642,259.498061 118.200573,258.120623 C117.627504,256.743184 116.355311,256.054475 114.383954,256.054475 C112.779362,256.054475 111.507168,256.49805 110.567335,257.385214 C109.627502,258.272378 108.928369,259.486374 108.469914,261.027237 L108.469914,284 Z M144.05618,249 L144.05618,268.891051 C144.05618,271.739314 144.392881,273.793768 145.066292,275.054475 C145.739704,276.315175 147.051676,276.945525 149.002247,276.945525 C150.720608,276.945525 152.148683,276.431912 153.286517,275.404669 C154.42435,274.377427 155.271907,273.116739 155.829213,271.622568 L155.829213,249 L164.885393,249 L164.885393,273.373541 C164.885393,275.287947 164.978276,277.167306 165.164045,279.011673 C165.349814,280.85604 165.628463,282.525284 166,284.019455 L159.173034,284.019455 L157.570787,278.836576 L157.292135,278.836576 C156.223965,280.610904 154.737837,282.081706 152.833708,283.249027 C150.929578,284.416348 148.677167,285 146.076404,285 C144.311602,285 142.732591,284.766539 141.339326,284.299611 C139.94606,283.832682 138.785023,283.062262 137.85618,281.988327 C136.927336,280.914392 136.219104,279.466935 135.731461,277.645914 C135.243818,275.824894 135,273.536979 135,270.782101 L135,249 L144.05618,249 Z M186.840108,274.348485 C186.840108,273.414137 186.440835,272.666669 185.642276,272.106061 C184.843718,271.545452 183.857278,271.031568 182.682927,270.564394 C181.508576,270.09722 180.216802,269.618374 178.807588,269.127841 C177.398367,268.637308 176.1066,267.959916 174.932249,267.095644 C173.757898,266.231372 172.771458,265.133529 171.9729,263.802083 C171.174341,262.470637 170.775068,260.753798 170.775068,258.651515 C170.775068,255.194427 171.808481,252.554933 173.875339,250.732955 C175.942196,248.910976 178.925003,248 182.823848,248 C185.501368,248 187.920495,248.2803 190.081301,248.840909 C192.242107,249.401515 193.933147,250.032193 195.154472,250.732955 L193.111111,257.320076 C192.030708,256.899619 190.668482,256.45581 189.02439,255.988636 C187.380299,255.521462 185.712746,255.287879 184.02168,255.287879 C181.297186,255.287879 179.934959,256.339005 179.934959,258.441288 C179.934959,259.282201 180.334233,259.959593 181.132791,260.473485 C181.93135,260.987376 182.91779,261.466223 184.092141,261.910038 L185.941734,262.602036 C186.587622,262.841461 187.262869,263.089645 187.96748,263.346591 C189.376694,263.860482 190.668467,264.526195 191.842818,265.34375 C193.017169,266.161305 194.003609,267.22411 194.802168,268.532197 C195.600727,269.840284 196,271.522086 196,273.577652 C196,277.128174 194.860897,279.919497 192.582656,281.951705 C190.304415,283.983912 186.887105,285 182.330623,285 C179.840999,285 177.504076,284.684662 175.319783,284.053977 C173.13549,283.423292 171.362247,282.6875 170,281.846591 L172.536585,275.049242 C173.616988,275.656569 175.049675,276.252207 176.834688,276.836174 C178.619702,277.420142 180.451662,277.712121 182.330623,277.712121 C183.69287,277.712121 184.785,277.455179 185.607046,276.941288 C186.429092,276.427396 186.840108,275.563137 186.840108,274.348485 Z M203,249 L212,249 L212,284 L203,284 L203,249 Z M202,239.072464 C202,237.671491 202.474895,236.47585 203.424699,235.485507 C204.374503,234.495164 205.688747,234 207.36747,234 C209.046193,234 210.404613,234.495164 211.442771,235.485507 C212.480929,236.47585 213,237.671491 213,239.072464 C213,240.473437 212.480929,241.644923 211.442771,242.586957 C210.404613,243.52899 209.046193,244 207.36747,244 C205.688747,244 204.374503,243.52899 203.424699,242.586957 C202.474895,241.644923 202,240.473437 202,239.072464 Z M245,281.846591 C243.624332,282.874374 241.962091,283.656879 240.013228,284.194129 C238.064364,284.731379 236.058211,285 233.994709,285 C231.243372,285 228.916235,284.556191 227.013228,283.668561 C225.11022,282.78093 223.562616,281.531258 222.37037,279.919508 C221.178125,278.307757 220.318345,276.357335 219.791005,274.068182 C219.263666,271.779029 219,269.256327 219,266.5 C219,260.56689 220.306865,256.000332 222.920635,252.800189 C225.534405,249.600047 229.340363,248 234.338624,248 C236.860683,248 238.889763,248.210225 240.425926,248.630682 C241.962089,249.051136 243.3492,249.588381 244.587302,250.242424 L242.455026,257.670455 C241.400347,257.156563 240.357148,256.75947 239.325397,256.479167 C238.293646,256.198862 237.112881,256.058712 235.783069,256.058712 C233.306866,256.058712 231.426814,256.887934 230.142857,258.546402 C228.8589,260.204869 228.216931,262.856042 228.216931,266.5 C228.216931,267.994957 228.377423,269.373106 228.698413,270.63447 C229.019402,271.89584 229.500879,272.993682 230.142857,273.92803 C230.784836,274.862378 231.621688,275.598167 232.653439,276.135417 C233.68519,276.672667 234.888882,276.941288 236.26455,276.941288 C237.777785,276.941288 239.061723,276.742742 240.116402,276.345644 C241.171081,275.948546 242.111107,275.4697 242.936508,274.909091 L245,281.846591 Z M265,248.39548 L269.818436,248.39548 L269.818436,246.457627 C269.818436,242.074366 270.749525,238.902317 272.611732,236.941384 C274.473939,234.980452 277.174098,234 280.712291,234 C284.436704,234 287.532576,234.43832 290,235.314972 L288.25419,242.512712 C287.183421,242.143595 286.240693,241.901366 285.425978,241.786017 C284.611262,241.670668 283.761643,241.612994 282.877095,241.612994 C281.945992,241.612994 281.212759,241.751411 280.677374,242.028249 C280.14199,242.305085 279.746277,242.731871 279.490223,243.308616 C279.23417,243.885361 279.071229,244.600514 279.001397,245.454096 C278.931564,246.307678 278.896648,247.28813 278.896648,248.39548 L286.578212,248.39548 L286.578212,256.008475 L278.896648,256.008475 L278.896648,283 L269.818436,283 L269.818436,256.008475 L265,256.008475 L265,248.39548 Z M288,266.5 C288,260.56689 289.447969,256.000332 292.343949,252.800189 C295.23993,249.600047 299.303583,248 304.535032,248 C307.337594,248 309.766444,248.443809 311.821656,249.331439 C313.876868,250.21907 315.581734,251.468742 316.936306,253.080492 C318.290877,254.692243 319.306791,256.642665 319.984076,258.931818 C320.661362,261.220971 321,263.743673 321,266.5 C321,272.43311 319.563709,276.999668 316.691083,280.199811 C313.818457,283.399953 309.766481,285 304.535032,285 C301.73247,285 299.30362,284.556191 297.248408,283.668561 C295.193196,282.78093 293.476652,281.531258 292.098726,279.919508 C290.7208,278.307757 289.693209,276.357335 289.015924,274.068182 C288.338638,271.779029 288,269.256327 288,266.5 Z M298,266.5 C298,268 298.13793,269.386357 298.413793,270.659091 C298.689655,271.931825 299.103446,273.045455 299.655172,274 C300.206899,274.95455 300.93103,275.693179 301.827586,276.215909 C302.724142,276.738639 303.793097,277 305.034483,277 C307.379322,277 309.126431,276.159099 310.275862,274.477273 C311.425293,272.795446 312,270.136382 312,266.5 C312,263.363621 311.47127,260.829555 310.413793,258.897727 C309.356317,256.965899 307.563231,256 305.034483,256 C302.827575,256 301.103448,256.818174 299.862069,258.454545 C298.620683,260.090917 298,262.772709 298,266.5 Z M345.83959,257.109589 C344.428889,256.607303 343.154727,256.356164 342.017065,256.356164 C340.424338,256.356164 339.093293,256.778535 338.023891,257.623288 C336.954488,258.468041 336.237772,259.552505 335.87372,260.876712 L335.87372,283 L327,283 L327,248.753425 L333.894198,248.753425 L334.918089,253.273973 L335.191126,253.273973 C335.964737,251.584466 337.01137,250.28311 338.331058,249.369863 C339.650746,248.456616 341.197943,248 342.972696,248 C344.155865,248 345.498286,248.251139 347,248.753425 L345.83959,257.109589 Z M99.8401084,355.348485 C99.8401084,354.414137 99.4408351,353.666669 98.6422764,353.106061 C97.8437178,352.545452 96.8572778,352.031568 95.6829268,351.564394 C94.5085759,351.09722 93.2168092,350.618374 91.8075881,350.127841 C90.3983669,349.637308 89.1066003,348.959916 87.9322493,348.095644 C86.7578984,347.231372 85.7714584,346.133529 84.9728997,344.802083 C84.1743411,343.470637 83.7750678,341.753798 83.7750678,339.651515 C83.7750678,336.194427 84.8084811,333.554933 86.8753388,331.732955 C88.9421964,329.910976 91.9250031,329 95.8238482,329 C98.5013684,329 100.920495,329.2803 103.081301,329.840909 C105.242107,330.401515 106.933147,331.032193 108.154472,331.732955 L106.111111,338.320076 C105.030708,337.899619 103.668482,337.45581 102.02439,336.988636 C100.380299,336.521462 98.7127456,336.287879 97.0216802,336.287879 C94.297186,336.287879 92.9349593,337.339005 92.9349593,339.441288 C92.9349593,340.282201 93.3342327,340.959593 94.1327913,341.473485 C94.93135,341.987376 95.91779,342.466223 97.0921409,342.910038 L98.941734,343.602036 C99.5876222,343.841461 100.262869,344.089645 100.96748,344.346591 C102.376701,344.860482 103.668467,345.526195 104.842818,346.34375 C106.017169,347.161305 107.003609,348.22411 107.802168,349.532197 C108.600727,350.840284 109,352.522086 109,354.577652 C109,358.128174 107.860897,360.919497 105.582656,362.951705 C103.304415,364.983912 99.887105,366 95.3306233,366 C92.8409993,366 90.504076,365.684662 88.3197832,365.053977 C86.1354904,364.423292 84.3622471,363.6875 83,362.846591 L85.5365854,356.049242 C86.6169882,356.656569 88.0496749,357.252207 89.8346883,357.836174 C91.6197018,358.420142 93.4516618,358.712121 95.3306233,358.712121 C96.6928704,358.712121 97.7850004,358.455179 98.6070461,357.941288 C99.4290917,357.427396 99.8401084,356.563137 99.8401084,355.348485 Z M112,330.139535 L116.681416,330.139535 L116.681416,323.581395 L125.501475,321 L125.501475,330.139535 L133.778761,330.139535 L133.778761,337.813953 L125.501475,337.813953 L125.501475,351.209302 C125.501475,353.627919 125.738936,355.36046 126.213864,356.406977 C126.688793,357.453494 127.582098,357.976744 128.893805,357.976744 C129.798431,357.976744 130.578659,357.883722 131.234513,357.697674 C131.890367,357.511627 132.625365,357.23256 133.439528,356.860465 L135,363.837209 C133.778755,364.441863 132.35399,364.953488 130.725664,365.372093 C129.097337,365.7907 127.446419,366 125.772861,366 C122.651902,366 120.356448,365.174427 118.886431,363.523256 C117.416413,361.872085 116.681416,359.16281 116.681416,355.395349 L116.681416,337.813953 L112,337.813953 L112,330.139535 Z M149.05618,330 L149.05618,349.891051 C149.05618,352.739314 149.392881,354.793768 150.066292,356.054475 C150.739704,357.315175 152.051676,357.945525 154.002247,357.945525 C155.720608,357.945525 157.148683,357.431912 158.286517,356.404669 C159.42435,355.377427 160.271907,354.116739 160.829213,352.622568 L160.829213,330 L169.885393,330 L169.885393,354.373541 C169.885393,356.287947 169.978276,358.167306 170.164045,360.011673 C170.349814,361.85604 170.628463,363.525284 171,365.019455 L164.173034,365.019455 L162.570787,359.836576 L162.292135,359.836576 C161.223965,361.610904 159.737837,363.081706 157.833708,364.249027 C155.929578,365.416348 153.677167,366 151.076404,366 C149.311602,366 147.732591,365.766539 146.339326,365.299611 C144.94606,364.832682 143.785023,364.062262 142.85618,362.988327 C141.927336,361.914392 141.219104,360.466935 140.731461,358.645914 C140.243818,356.824894 140,354.536979 140,351.782101 L140,330 L149.05618,330 Z M208.302832,352.960784 C208.302832,354.882363 208.326071,356.803912 208.372549,358.72549 C208.419027,360.647068 208.628175,362.774498 209,365.107843 L202.51634,365.107843 L201.261438,360.647059 L200.982571,360.647059 C200.053009,362.248374 198.716784,363.540845 196.973856,364.52451 C195.230928,365.508175 193.174304,366 190.803922,366 C186.434982,366 183.042133,364.581714 180.625272,361.745098 C178.208412,358.908483 177,354.470618 177,348.431373 C177,342.575134 178.347844,338.022892 181.043573,334.77451 C183.739302,331.526128 187.68988,329.901961 192.895425,329.901961 C194.336245,329.901961 195.521419,329.982025 196.45098,330.142157 C197.380542,330.302288 198.31009,330.565358 199.239651,330.931373 L199.239651,317 L208.302832,317 L208.302832,352.960784 Z M192.605405,359 C194.385594,359 195.790986,358.576802 196.821622,357.730392 C197.852257,356.883983 198.578376,355.660139 199,354.058824 L199,339.509804 C198.344141,339.006533 197.618022,338.629086 196.821622,338.377451 C196.025221,338.125816 194.994601,338 193.72973,338 C191.15314,338 189.220727,338.846397 187.932432,340.539216 C186.644138,342.232035 186,345.137234 186,349.254902 C186,352.183021 186.527022,354.539207 187.581081,356.323529 C188.63514,358.107852 190.309898,359 192.605405,359 Z M243.909091,362.005682 C242.545448,363.1269 240.693194,364.072913 238.352273,364.84375 C236.011352,365.614587 233.52274,366 230.886364,366 C225.386336,366 221.363649,364.353236 218.818182,361.059659 C216.272715,357.766082 215,353.246241 215,347.5 C215,341.333303 216.431804,336.708349 219.295455,333.625 C222.159105,330.541651 226.181792,329 231.363636,329 C233.090918,329 234.772719,329.233584 236.409091,329.700758 C238.045463,330.167932 239.5,330.938757 240.772727,332.013258 C242.045461,333.087758 243.068178,334.535976 243.840909,336.357955 C244.61364,338.179933 245,340.445694 245,343.155303 C245,344.136369 244.943182,345.187494 244.829545,346.308712 C244.715909,347.42993 244.545456,348.597847 244.318182,349.8125 L223.863636,349.8125 C224,352.755697 224.73863,354.97474 226.079545,356.469697 C227.420461,357.964654 229.590894,358.712121 232.590909,358.712121 C234.454555,358.712121 236.124993,358.420142 237.602273,357.836174 C239.079553,357.252207 240.204542,356.656569 240.977273,356.049242 L243.909091,362.005682 Z M231.313033,337 C228.944991,337 227.192202,337.726183 226.054614,339.178571 C224.917025,340.63096 224.232161,342.571416 224,345 L236.954515,345 C237.140244,342.428559 236.757184,340.452388 235.805324,339.071429 C234.853464,337.690469 233.356049,337 231.313033,337 Z M273.055046,365 L273.055046,345.108949 C273.055046,342.260686 272.653674,340.206226 271.850917,338.945525 C271.048161,337.684819 269.683496,337.054475 267.756881,337.054475 C266.059625,337.054475 264.626153,337.556415 263.456422,338.560311 C262.286691,339.564207 261.449544,340.813222 260.944954,342.307393 L260.944954,365 L252,365 L252,329.980545 L259.087156,329.980545 L260.119266,334.603113 L260.394495,334.603113 C261.449547,333.108942 262.848615,331.801556 264.591743,330.680934 C266.334871,329.560306 268.582555,329 271.334862,329 C273.032119,329 274.545865,329.233461 275.876147,329.700389 C277.206429,330.167318 278.330271,330.937738 279.247706,332.011673 C280.165142,333.085608 280.853209,334.544738 281.311927,336.389105 C281.770644,338.233472 282,340.509714 282,343.217899 L282,365 L273.055046,365 Z M287,330.139535 L291.681416,330.139535 L291.681416,323.581395 L300.501475,321 L300.501475,330.139535 L308.778761,330.139535 L308.778761,337.813953 L300.501475,337.813953 L300.501475,351.209302 C300.501475,353.627919 300.738936,355.36046 301.213864,356.406977 C301.688793,357.453494 302.582098,357.976744 303.893805,357.976744 C304.798431,357.976744 305.578659,357.883722 306.234513,357.697674 C306.890367,357.511627 307.625365,357.23256 308.439528,356.860465 L310,363.837209 C308.778755,364.441863 307.35399,364.953488 305.725664,365.372093 C304.097337,365.7907 302.446419,366 300.772861,366 C297.651902,366 295.356448,365.174427 293.886431,363.523256 C292.416413,361.872085 291.681416,359.16281 291.681416,355.395349 L291.681416,337.813953 L287,337.813953 L287,330.139535 Z M329.840108,355.348485 C329.840108,354.414137 329.440835,353.666669 328.642276,353.106061 C327.843718,352.545452 326.857278,352.031568 325.682927,351.564394 C324.508576,351.09722 323.216802,350.618374 321.807588,350.127841 C320.398374,349.637308 319.1066,348.959916 317.932249,348.095644 C316.757898,347.231372 315.771458,346.133529 314.9729,344.802083 C314.174341,343.470637 313.775068,341.753798 313.775068,339.651515 C313.775068,336.194427 314.808481,333.554933 316.875339,331.732955 C318.942196,329.910976 321.925003,329 325.823848,329 C328.501368,329 330.920495,329.2803 333.081301,329.840909 C335.242107,330.401515 336.933147,331.032193 338.154472,331.732955 L336.111111,338.320076 C335.030708,337.899619 333.668482,337.45581 332.02439,336.988636 C330.380299,336.521462 328.712746,336.287879 327.02168,336.287879 C324.297186,336.287879 322.934959,337.339005 322.934959,339.441288 C322.934959,340.282201 323.334233,340.959593 324.132791,341.473485 C324.93135,341.987376 325.91779,342.466223 327.092141,342.910038 L328.941734,343.602036 C329.587622,343.841461 330.262869,344.089645 330.96748,344.346591 C332.376701,344.860482 333.668467,345.526195 334.842818,346.34375 C336.017169,347.161305 337.003609,348.22411 337.802168,349.532197 C338.600727,350.840284 339,352.522086 339,354.577652 C339,358.128174 337.860897,360.919497 335.582656,362.951705 C333.304415,364.983912 329.887105,366 325.330623,366 C322.840999,366 320.504076,365.684662 318.319783,365.053977 C316.13549,364.423292 314.362247,363.6875 313,362.846591 L315.536585,356.049242 C316.616988,356.656569 318.049675,357.252207 319.834688,357.836174 C321.619702,358.420142 323.451662,358.712121 325.330623,358.712121 C326.69287,358.712121 327.785,358.455179 328.607046,357.941288 C329.429092,357.427396 329.840108,356.563137 329.840108,355.348485 Z" id="musicforstudents" fill="#2F2E41" fill-rule="nonzero"></path>
    </g>
</svg>