<?xml version="1.0" encoding="UTF-8"?>
<svg width="1200px" height="600px" viewBox="0 0 1200 600" version="1.1" xmlns="http://www.w3.org/2000/svg" xmlns:xlink="http://www.w3.org/1999/xlink">
    <title>music_branding_hero</title>
    <defs>
        <polygon id="path-1" points="0 0 8 0 8 25 0 25"></polygon>
        <polygon id="path-3" points="0 0 9 0 9 25 0 25"></polygon>
        <polygon id="path-5" points="3e-05 0.108285714 20.6780312 0.108285714 20.6780312 24 3e-05 24"></polygon>
        <polygon id="path-7" points="0 0 25 0 25 26 0 26"></polygon>
    </defs>
    <g id="music_branding_hero" stroke="none" stroke-width="1" fill="none" fill-rule="evenodd">
        <rect fill="#0084FF" x="0" y="0" width="1200" height="600"></rect>
        <g id="undraw_media_player_ylg8" transform="translate(624.000000, 274.000000)">
            <path d="M225.353133,326 L221.878705,326 C220.28884,326 219,324.782802 219,323.281313 L219,314 L225.35315,314 L227.906712,322.842593 C228.123769,323.594226 227.957336,324.39846 227.456603,325.017604 C226.955869,325.636749 226.178097,326 225.353156,326 L225.353133,326 Z" id="Path" fill="#605D82" fill-rule="nonzero"></path>
            <rect id="Rectangle" fill="#F2F2F2" fill-rule="nonzero" x="44" y="103" width="389" height="147" rx="6.612205"></rect>
            <rect id="Rectangle" stroke="#3F3D56" stroke-width="0.5" fill-opacity="0.9" fill="#FFFFFF" x="2" y="0" width="527" height="286" rx="6.8189"></rect>
            <line x1="0" y1="20.5" x2="527" y2="20.5" id="Path" stroke="#3F3D56" stroke-width="0.5"></line>
            <line x1="0" y1="55.5" x2="527" y2="55.5" id="Path" stroke="#3F3D56" stroke-width="0.5"></line>
            <circle id="Oval" fill="#F86B75" fill-rule="nonzero" cx="13" cy="12" r="6"></circle>
            <circle id="Oval" fill="#FAD375" fill-rule="nonzero" cx="30" cy="12" r="6"></circle>
            <circle id="Oval" fill="#8BCC55" fill-rule="nonzero" cx="47" cy="12" r="6"></circle>
            <circle id="Oval" stroke="#3F3D56" stroke-width="0.5" cx="15" cy="10" r="6"></circle>
            <circle id="Oval" stroke="#3F3D56" stroke-width="0.5" cx="31" cy="10" r="6"></circle>
            <circle id="Oval" stroke="#3F3D56" stroke-width="0.5" cx="49" cy="10" r="6"></circle>
            <circle id="Oval" fill="#F2F2F2" fill-rule="nonzero" cx="124" cy="40" r="11"></circle>
            <circle id="Oval" stroke="#3F3D56" stroke-width="0.5" cx="126" cy="38" r="11"></circle>
            <rect id="Rectangle" fill="#94CE51" fill-rule="nonzero" x="277" y="35" width="54" height="15" rx="2.711615"></rect>
            <rect id="Rectangle" fill="#94CE51" fill-rule="nonzero" x="354" y="35" width="54" height="15" rx="2.711615"></rect>
            <rect id="Rectangle" stroke="#3F3D56" stroke-width="0.5" x="281" y="30" width="54" height="15" rx="2.11122"></rect>
            <rect id="Rectangle" stroke="#3F3D56" stroke-width="0.5" x="358" y="30" width="54" height="15" rx="2.11122"></rect>
            <rect id="Rectangle" stroke="#3F3D56" stroke-width="0.5" fill-opacity="0.9" fill="#FFFFFF" x="63" y="91" width="389" height="147" rx="8.00197"></rect>
            <path d="M247.213736,200 C260.032598,193.08301 267.721913,179.339572 266.946386,164.731004 C266.170859,150.122436 257.070194,137.280368 243.591872,131.775142 C230.113551,126.269916 214.685597,129.09326 204,139.020528 M221.951953,156.185737 L221.951953,149.759778 L244.471645,166.744383 L239.287493,170.341643" id="Shape" stroke="#3F3D56" stroke-width="0.5"></path>
            <path d="M225,134 C204.565464,134 188,150.565464 188,171 C188,191.434536 204.565464,208 225,208 C245.434536,208 262,191.434536 262,171 C261.99054,150.569384 245.430616,134.00946 225,134 Z M217.6,187.65 L217.6,154.35 L239.8,171 L217.6,187.65 Z" id="Shape" fill="#052B50" fill-rule="nonzero"></path>
            <path d="M210.773628,236.398659 C210.773628,236.398659 204.175205,259.425774 203.888315,269.500172 C203.601425,279.57457 202.453874,295.693545 203.31454,299.72329 C204.175205,303.753035 206.757196,311.812542 206.757196,311.812542 C206.757196,311.812542 212.208063,305.192238 214.2163,308.934147 C214.2163,308.934147 213.929415,301.162488 212.494975,298.859776 C212.494975,298.859776 213.06875,286.770525 213.06875,282.452938 C213.06875,278.135351 220.240948,258.27444 220.814723,257.986604 C221.388498,257.698768 223.109823,263.455546 221.675388,276.120476 C220.240953,288.785405 219.093397,310.955162 219.093397,313.257879 C219.093397,315.560596 222.536048,320.166019 224.831154,318.726827 C227.12626,317.287635 228.560695,304.904396 228.560695,304.904396 C228.560695,304.904396 230.568895,278.998865 231.716462,276.120476 C232.864028,273.242086 238.888659,240.140541 234.298452,237.550015 C229.708246,234.959489 210.773628,236.398659 210.773628,236.398659 Z" id="Path" fill="#46455B" fill-rule="nonzero"></path>
            <path d="M214.836739,310.897107 C214.561522,312.084993 213.460662,317.727454 213.460662,319.509288 C213.460662,321.291122 214.561522,324.557806 209.882867,325.745692 C205.325291,326.903857 205.99132,323.833197 205.264752,322.027603 C205.245503,321.980094 205.226248,321.932568 205.204213,321.88506 C204.378566,320.103231 206.305072,310.897107 206.580285,310.897107 C206.74198,310.897107 208.043673,308.53938 209.089999,306.594371 C209.533505,305.754539 210.309058,305.18016 211.194777,305.035561 C212.080495,304.890961 212.978802,305.19207 213.632698,305.852744 C214.510415,306.77032 215.003817,308.034149 214.999142,309.352833 C215.007636,309.87303 214.953038,310.392191 214.836739,310.897107 Z" id="Path" fill="#605D82" fill-rule="nonzero"></path>
            <path d="M214.832299,311.414095 C214.549597,312.561318 213.4188,318.010631 213.4188,319.731472 C213.4188,321.452312 214.549597,324.607173 209.743706,325.754397 C205.062185,326.872917 205.746327,323.907369 205,322.163582 C205.811379,320.024016 207.781789,315.426506 209.178307,311.414095 C210.410862,307.869173 213.441439,309.024991 214.999119,309.922699 C215.007842,310.425084 214.95176,310.926468 214.832299,311.414095 L214.832299,311.414095 Z" id="Path" fill="#000000" fill-rule="nonzero" opacity="0.1"></path>
            <circle id="Oval" fill="#FBBEBE" fill-rule="nonzero" cx="223.5" cy="184.5" r="6.5"></circle>
            <path d="M218.833335,184.097658 L218,194.168873 L228,196 C228,196 226.88889,187.149543 227.722225,185.318415 C228.55556,183.487288 218.833335,184.097658 218.833335,184.097658 Z" id="Path" fill="#FBBEBE" fill-rule="nonzero"></path>
            <path d="M226.61157,192.390439 C226.61157,192.390439 217.685953,191.511951 217.090907,192.390439 C216.702308,193.112203 216.49808,193.916229 216.495866,194.733066 C216.495866,194.733066 212.925622,196.197211 212.330581,195.611554 C211.735541,195.025897 211.140494,193.268927 209.355372,193.854584 C207.57025,194.44024 204,204.982073 204,204.982073 C204,204.982073 204.892564,201.760958 206.380163,214.059761 C207.867762,226.358564 207.57025,233.972113 207.867767,234.850596 C208.165285,235.729078 206.380163,241 217.090907,241 C227.801651,241 235.537192,240.414343 235.537192,238.364542 C235.537192,236.31474 233.75207,227.529883 235.537192,221.087626 C237.322314,214.645369 240,205.860534 240,205.860534 L236.429756,194.440218 C236.429756,194.440218 232.859506,193.561731 231.966942,195.025875 C231.074378,196.49002 228.694215,196.197189 228.694215,196.197189 C228.694215,196.197189 228.396698,192.683265 226.61157,192.390439 Z" id="Path" fill="#605D82" fill-rule="nonzero"></path>
            <path d="M211,196.111888 L203.539406,192.876578 C203.539406,192.876578 189.51352,182.288287 190.110339,172.876472 C190.110339,172.876472 185.335559,168.46468 185.037133,173.170588 C184.738706,177.876496 186.230826,188.464786 189.811913,191.994218 C193.392999,195.523651 205.628373,206.700179 207.418936,206.994295 C209.209499,207.288411 211,196.111888 211,196.111888 Z" id="Path" fill="#605D82" fill-rule="nonzero"></path>
            <path d="M184.657237,173 C184.657237,173 179.090656,158.456362 184.071282,159.015732 C189.051908,159.575101 187.879996,165.728171 187.879996,165.728171 L187.879996,173 L184.657237,173 Z" id="Path" fill="#FBBEBE" fill-rule="nonzero"></path>
            <path d="M235,196.111888 L242.460594,192.876577 C242.460594,192.876577 256.486508,182.288285 255.889661,172.876469 C255.889661,172.876469 260.664441,168.464683 260.962867,173.170586 C261.261294,177.876488 259.769174,188.464785 256.188087,191.994217 C252.607001,195.52365 240.371627,206.700179 238.581064,206.994295 C236.790501,207.288411 235,196.111888 235,196.111888 Z" id="Path" fill="#605D82" fill-rule="nonzero"></path>
            <path d="M260.342763,173 C260.342763,173 265.909344,158.456362 260.928718,159.015732 C255.948092,159.575101 257.120004,165.728171 257.120004,165.728171 L257.120004,173 L260.342763,173 Z" id="Path" fill="#FBBEBE" fill-rule="nonzero"></path>
            <path d="M228.587503,176.5051 L229.436706,175.935165 C229.436706,175.935165 224.058428,172.800519 221.793893,174.510324 C219.529358,176.22013 218.963219,177.64497 218.397085,178.21491 C217.830951,178.784851 216.41563,181.919491 217.264817,183.059362 C218.114005,184.199232 217.830951,184.432856 218.397085,185.455914 C218.963219,186.478972 217.40808,190.594641 221.723989,191.813937 C226.039898,193.033234 229.436706,187.903818 230.00284,186.763943 C230.568974,185.624067 232.550444,177.92994 228.587503,176.5051 Z" id="Path" fill="#46455B" fill-rule="nonzero"></path>
            <path d="M453,259 C453,291.058591 473.126952,317 498,317" id="Path" fill="#46455B" fill-rule="nonzero"></path>
            <path d="M498,318 C498,285.388671 520.36328,259 548,259" id="Path" fill="#052B50" fill-rule="nonzero"></path>
            <path d="M468,263 C468,293.400397 481.417966,318 498,318" id="Path" fill="#052B50" fill-rule="nonzero"></path>
            <path d="M498,318 C498,275.992188 524.388672,242 557,242" id="Path" fill="#46455B" fill-rule="nonzero"></path>
            <path d="M488,318.431728 C488,318.431728 494.44989,318.236129 496.393722,316.873189 C498.337555,315.51025 506.315273,313.882831 506.797492,316.068683 C507.27971,318.254535 516.490477,326.940115 509.208584,326.997948 C501.926691,327.055782 492.288706,325.881088 490.348613,324.71744 C488.40852,323.553793 488,318.431728 488,318.431728 Z" id="Path" fill="#A8A8A8" fill-rule="nonzero"></path>
            <path d="M509.340023,326.199384 C502.057623,326.26009 492.418972,325.027384 490.478739,323.806276 C489.00115,322.876333 488.412349,319.539491 488.215343,318 C488.078901,318.006063 488,318.008671 488,318.008671 C488,318.008671 488.408554,323.383625 490.348782,324.604738 C492.28901,325.825852 501.927666,327.058552 509.210067,326.997846 C511.312206,326.980327 512.038323,326.207589 511.998454,325.063093 C511.706416,325.754565 510.904659,326.186348 509.340023,326.199384 Z" id="Path" fill="#000000" fill-rule="nonzero" opacity="0.2"></path>
            <line x1="151" y1="325.5" x2="281" y2="325.5" id="Path" stroke="#3F3D56" stroke-width="0.5"></line>
            <line x1="480" y1="325.5" x2="521" y2="325.5" id="Path" stroke="#3F3D56" stroke-width="0.5"></line>
        </g>
        <g id="Group" transform="translate(101.000000, 225.000000)">
            <g id="Group-3" transform="translate(104.000000, 4.000000)">
                <mask id="mask-2" fill="white">
                    <use xlink:href="#path-1"></use>
                </mask>
                <g id="Clip-2"></g>
            </g>
            <path d="M99.5661104,68 L99.5661104,48.2661597 C99.5661104,45.6805954 98.3915393,44.3878327 96.042362,44.3878327 C93.9627624,44.3878327 91.8639387,44.8821243 89.745828,45.8707224 L89.745828,68 L81.3119384,68 L81.3119384,48.2661597 C81.3119384,45.6805954 80.1373673,44.3878327 77.78819,44.3878327 C75.6315682,44.3878327 73.5134892,44.9011356 71.4338896,45.9277567 L71.4338896,68 L63,68 L63,38.8555133 L69.9319641,38.8555133 L70.6829268,41.6501901 C72.7240153,40.319385 74.562893,39.3783298 76.1996149,38.8269962 C77.8363368,38.2756626 79.5211723,38 81.254172,38 C84.7201714,38 87.1655898,39.2167179 88.5905006,41.6501901 C90.5545669,40.357408 92.4030722,39.4258555 94.1360719,38.8555133 C95.8690716,38.2851711 97.659811,38 99.508344,38 C102.204121,38 104.293317,38.7414375 105.775995,40.2243346 C107.258672,41.7072317 108,43.7794544 108,46.4410646 L108,68 L99.5661104,68 Z M135.017241,68.1444867 L134.202586,65.0646388 C130.749983,67.688226 127.14226,69 123.37931,69 C120.741366,69 118.685352,68.2300457 117.211207,66.6901141 C115.737062,65.1501824 115,63.0304317 115,60.3307985 L115,39 L123.49569,39 L123.49569,57.9923954 C123.49569,61.0722587 124.853435,62.6121673 127.568966,62.6121673 C129.586217,62.6121673 131.564645,62.0038084 133.50431,60.7870722 L133.50431,39 L142,39 L142,68.1444867 L135.017241,68.1444867 Z M163.382429,60.0202952 C163.382429,59.2576838 163.164516,58.6666688 162.728682,58.2472325 C162.292849,57.8277962 161.411721,57.3702362 160.085271,56.8745387 L155.651163,55.101476 C153.339351,54.1863423 151.67184,53.0615073 150.648579,51.7269373 C149.625318,50.3923673 149.113695,48.6955823 149.113695,46.6365314 C149.113695,44.0436525 150.146415,41.956035 152.211886,40.3736162 C154.277357,38.7911975 157.034436,38 160.483204,38 C163.666683,38 166.603776,38.629145 169.294574,39.8874539 L169.294574,45.4354244 C166.414284,44.5584212 163.723527,44.1199262 161.222222,44.1199262 C159.668382,44.1199262 158.531442,44.3105762 157.81137,44.6918819 C157.091297,45.0731876 156.731266,45.6832676 156.731266,46.5221402 C156.731266,47.1703599 156.94918,47.6946474 157.385013,48.0950185 C157.820846,48.4953895 158.739872,48.981547 160.142119,49.5535055 L164.462532,51.3265683 C166.812243,52.2798326 168.489228,53.3856026 169.49354,54.6439114 C170.497852,55.9022203 171,57.5418103 171,59.5627306 C171,62.384393 169.929382,64.6626605 167.788114,66.3976015 C165.646845,68.1325425 162.83292,69 159.346253,69 C155.442702,69 151.993986,68.218335 149,66.6549815 L149,61.1070111 C152.751957,62.2890588 156.181724,62.8800738 159.289406,62.8800738 C162.018101,62.8800738 163.382429,61.9268238 163.382429,60.0202952 Z M177,68 L177,39 L185,39 L185,68 L177,68 Z M215,67.0806754 C213.951893,67.7010663 212.690303,68.1760459 211.21519,68.5056285 C209.740077,68.8352112 208.206759,69 206.61519,69 C201.879301,69 198.259506,67.6816892 195.755696,65.0450281 C193.251886,62.4083671 192,58.6085301 192,53.6454034 C192,48.7210511 193.319818,44.8824403 195.959494,42.1294559 C198.599169,39.3764715 202.267487,38 206.964557,38 C209.798326,38 212.418553,38.6203815 214.825316,39.8611632 L214.825316,45.5028143 C212.53501,44.843649 210.438828,44.5140713 208.536709,44.5140713 C205.819396,44.5140713 203.82026,45.2023071 202.539241,46.5787992 C201.258221,47.9552914 200.617722,50.1363203 200.617722,53.1219512 L200.617722,53.9362101 C200.617722,56.8830666 201.248517,59.0447086 202.510127,60.4212008 C203.771736,61.7976929 205.72235,62.4859287 208.362025,62.4859287 C210.264145,62.4859287 212.476781,62.1369606 215,61.4390244 L215,67.0806754 Z M64,137.370173 L64,95 L72.4510978,95 L72.4510978,110.344874 C73.5701985,109.390586 74.882228,108.636709 76.3872255,108.083222 C77.8922231,107.529735 79.3779035,107.252996 80.8443114,107.252996 C84.5875104,107.252996 87.549224,108.608065 89.7295409,111.318242 C91.9098579,114.02842 93,117.692831 93,122.311585 C93,125.327134 92.4983417,128.018186 91.49501,130.38482 C90.4916783,132.751454 89.044587,134.612288 87.1536926,135.967377 C85.2627983,137.322466 83.082514,138 80.6127745,138 C78.8376491,138 77.1783178,137.694632 75.6347305,137.083888 C74.0911433,136.473144 72.7984084,135.614298 71.756487,134.507324 L71.003992,137.370173 L64,137.370173 Z M78.6811594,113 C76.6714875,113 74.7777867,113.511036 73,114.533123 L73,129.466877 C74.7004916,130.488964 76.5941925,131 78.6811594,131 C80.8454214,131 82.4396084,130.280764 83.4637681,128.842271 C84.4879278,127.403778 85,125.132508 85,122.028391 C85,118.88642 84.4975896,116.596222 83.4927536,115.157729 C82.4879177,113.719236 80.884069,113 78.6811594,113 Z M100,137 L100,107.290698 L106.930091,107.290698 L107.969605,111.709302 C109.509633,110.003867 110.963012,108.792639 112.329787,108.075581 C113.696562,107.358524 115.149942,107 116.68997,107 C117.421483,107 118.191489,107.058139 119,107.174419 L119,115.023256 C117.92198,114.790697 116.728477,114.674419 115.419453,114.674419 C112.916907,114.674419 110.58765,115.120151 108.431611,116.011628 L108.431611,137 L100,137 Z M141.204545,137.084871 L140.495455,134.51107 C139.274236,135.578726 137.865917,136.427119 136.270455,137.056273 C134.674992,137.685428 133.128795,138 131.631818,138 C128.716652,138 126.382585,137.19927 124.629545,135.597786 C122.876506,133.996302 122,131.861022 122,129.191882 C122,127.361614 122.472723,125.750622 123.418182,124.358856 C124.363636,122.96709 125.722718,121.870849 127.495455,121.070111 C129.268191,120.269369 131.356049,119.869004 133.759091,119.869004 C135.650009,119.869004 137.737867,120.116849 140.022727,120.612546 L140.022727,117.752768 C140.022727,115.998761 139.648489,114.797666 138.9,114.149446 C138.151511,113.501227 136.772737,113.177122 134.763636,113.177122 C131.533317,113.177122 127.968201,113.768137 124.068182,114.950185 L124.068182,109.402214 C125.525765,108.677733 127.357565,108.096251 129.563636,107.657749 C131.769708,107.219248 134.01514,107 136.3,107 C140.357596,107 143.32196,107.791198 145.193182,109.373616 C147.064403,110.956035 148,113.444017 148,116.837638 L148,137.084871 L141.204545,137.084871 Z M133.524096,132 C134.427715,132 135.358429,131.782718 136.316265,131.348148 C137.274101,130.913578 138.168671,130.320991 139,129.57037 L139,124.414815 C137.409631,124.13827 135.981934,124 134.716867,124 C131.572273,124 130,125.382702 130,128.148148 C130,129.372846 130.307226,130.320984 130.921687,130.992593 C131.536148,131.664201 132.403609,132 133.524096,132 Z M174.375527,137 L174.375527,117.893536 C174.375527,116.334593 174.021101,115.19392 173.312236,114.471483 C172.603372,113.749046 171.520401,113.387833 170.063291,113.387833 C167.897317,113.387833 165.751065,114.034214 163.624473,115.326996 L163.624473,137 L155,137 L155,107.855513 L162.088608,107.855513 L162.915612,110.992395 C166.459933,108.330785 170.240486,107 174.257384,107 C177.05346,107 179.209556,107.731932 180.725738,109.195817 C182.24192,110.659703 183,112.741431 183,115.441065 L183,137 L174.375527,137 Z M210.604418,137.370173 L209.905622,134.793609 C207.498649,136.931214 204.645264,138 201.345382,138 C198.899586,138 196.744989,137.398808 194.881526,136.196405 C193.018063,134.994002 191.57196,133.247681 190.543173,130.95739 C189.514386,128.667099 189,125.976047 189,122.884154 C189,118.150886 190.145236,114.36242 192.435743,111.518642 C194.72625,108.674864 197.754332,107.252996 201.52008,107.252996 C204.58703,107.252996 207.246307,108.111842 209.497992,109.829561 L209.497992,95 L218,95 L218,137.370173 L210.604418,137.370173 Z M203.588235,131 C205.470598,131 207.274501,130.470037 209,129.410095 L209,114.419558 C207.313717,113.473181 205.37256,113 203.176471,113 C201.098029,113 199.549025,113.747627 198.529412,115.242902 C197.509799,116.738178 197,118.999985 197,122.028391 C197,125.056797 197.53921,127.309141 198.617647,128.785489 C199.696084,130.261837 201.35293,131 203.588235,131 Z M226,137 L226,108 L234,108 L234,137 L226,137 Z M230,103 C228.492056,103 227.281751,102.596158 226.369048,101.788462 C225.456345,100.980765 225,99.8846223 225,98.5 C225,97.1153777 225.456345,96.0192308 226.369048,95.2115385 C227.281751,94.4038421 228.492056,94 230,94 C231.507944,94 232.718249,94.4038421 233.630952,95.2115385 C234.543655,96.0192308 235,97.1153777 235,98.5 C235,99.8846223 234.543655,100.980765 233.630952,101.788462 C232.718249,102.596158 231.507944,103 230,103 Z M261.375527,137 L261.375527,117.893536 C261.375527,116.334593 261.021101,115.19392 260.312236,114.471483 C259.603372,113.749046 258.520401,113.387833 257.063291,113.387833 C254.897317,113.387833 252.751065,114.034214 250.624473,115.326996 L250.624473,137 L242,137 L242,107.855513 L249.088608,107.855513 L249.915612,110.992395 C253.459933,108.330785 257.240486,107 261.257384,107 C264.05346,107 266.209556,107.731932 267.725738,109.195817 C269.24192,110.659703 270,112.741431 270,115.441065 L270,137 L261.375527,137 Z M296.634855,133.817204 C294.427375,135.782268 291.832657,136.764785 288.850622,136.764785 C285.248945,136.764785 282.373455,135.425865 280.224066,132.747984 C278.074678,130.070103 277,126.496438 277,122.026882 C277,117.480264 278.08436,113.839171 280.253112,111.103495 C282.421864,108.367818 285.3264,107 288.966805,107 C290.593369,107 292.123091,107.288978 293.556017,107.866935 C294.988942,108.444892 296.266938,109.292557 297.390041,110.409946 L298.029046,107.866935 L305,107.866935 L305,135.08871 C305,139.78945 303.683277,143.449808 301.049793,146.069892 C298.416308,148.689977 294.775957,150 290.128631,150 C286.372042,150 282.809145,149.171603 279.439834,147.514785 L279.439834,141.850806 C283.273878,143.045257 286.585048,143.642473 289.373444,143.642473 C291.929473,143.642473 293.778694,143.054889 294.921162,141.879704 C296.06363,140.704519 296.634855,138.787648 296.634855,136.129032 L296.634855,133.817204 Z M291.901042,130 C292.779518,130 293.66753,129.857861 294.565104,129.573579 C295.462678,129.289296 296.274302,128.900783 297,128.408027 L297,114.421405 C295.43402,113.473797 293.600705,113 291.5,113 C287.833315,113 286,115.804877 286,121.414716 C286,124.333348 286.477426,126.493861 287.432292,127.896321 C288.387158,129.298781 289.876726,130 291.901042,130 Z" id="primemusicbranding" fill="#052B50" fill-rule="nonzero"></path>
            <g id="Group-3" transform="translate(14.000000, 0.000000)">
                <mask id="mask-4" fill="white">
                    <use xlink:href="#path-3"></use>
                </mask>
                <g id="Clip-2"></g>
                <path d="M9,21.176217 L9,21.1702057 L9,21.1627435 L8.8862,0 L7.766,0 L7.8514,18.6216389 C7.0302,17.8113625 5.825,17.2989545 4.4804,17.2989545 C2.006,17.2989545 0,19.0322701 0,21.1702057 C0,23.3081413 2.006,25 4.4804,25 C6.9334,25 8.9246,23.4231844 8.9592,21.1430514 L9,21.1430514 L9,21.176217 Z" id="Fill-1" fill="#052B50" mask="url(#mask-4)"></path>
            </g>
            <g id="Group-8" transform="translate(0.000000, 102.000000)">
                <g id="Group-3">
                    <mask id="mask-6" fill="white">
                        <use xlink:href="#path-5"></use>
                    </mask>
                    <g id="Clip-2"></g>
                    <path d="M18.16773,3.51934286 C17.10513,2.26991429 15.72153,1.34277143 14.30973,0.791057143 C14.13333,0.720485714 13.95783,0.652771429 13.77933,0.597628571 L13.51443,0.510771429 L13.35963,0.461914286 L13.24053,0.429914286 L12.99723,0.364771429 L12.70683,0.297057143 C12.51333,0.252485714 12.33873,0.2262 12.15513,0.197342857 C11.42673,0.0953428571 10.70943,0.0813428571 10.03353,0.152771429 C8.67723,0.289057143 7.51413,0.732771429 6.59823,1.24105714 C5.67963,1.75905714 5.02623,2.38734286 4.58193,2.95191429 C4.13373,3.51791429 3.89283,4.02734286 3.74943,4.37762857 C3.67893,4.5542 3.63393,4.69248571 3.60873,4.78905714 C3.59973,4.81848571 3.59313,4.8422 3.58743,4.86334286 C3.38883,5.27248571 3.27183,5.72591429 3.26043,6.20534286 C3.21603,8.07477143 4.77093,9.62505714 6.73383,9.66734286 C8.69673,9.70962857 10.32393,8.2282 10.36863,6.35905714 C10.41093,4.58505714 9.01143,3.10105714 7.19103,2.91791429 C7.28103,2.8762 7.36773,2.83391429 7.46103,2.79305714 C8.23683,2.44334286 9.16773,2.1842 10.17903,2.1682 C11.18913,2.1462 12.26253,2.38477143 13.33023,2.88534286 C14.39703,3.37448571 15.38403,4.10134286 16.17723,5.05077143 C16.57023,5.52734286 16.92183,6.05277143 17.21223,6.62305714 C17.49603,7.1962 17.73093,7.80677143 17.90343,8.44534286 C18.24903,9.72334286 18.32343,11.1059143 18.16593,12.4716286 C18.08763,13.1587714 17.95053,13.8313429 17.75583,14.4907714 C17.55123,15.1696286 17.31093,15.7876286 16.98183,16.3910571 C16.66113,16.9904857 16.29123,17.5647714 15.86793,18.0970571 C15.44463,18.6296286 14.96523,19.1144857 14.45973,19.5610571 C13.44363,20.4479143 12.31053,21.1759143 11.14713,21.7119143 C9.98703,22.2570571 8.80923,22.6324857 7.69443,22.8836286 C6.57633,23.1224857 5.52153,23.2453429 4.57953,23.2776286 C3.63753,23.3073429 2.80923,23.2679143 2.12883,23.1967714 C1.44963,23.1139143 0.91773,23.0322 0.55503,22.9550571 C0.19293,22.8767714 3e-05,22.8350571 3e-05,22.8350571 C3e-05,22.8350571 0.18303,22.9064857 0.52653,23.0404857 C0.87063,23.1687714 1.38873,23.3507714 2.06403,23.5242 C2.74143,23.6882 3.57993,23.8576286 4.56063,23.9373429 C5.53983,24.0193429 6.66183,24.0359143 7.87773,23.8947714 C9.08913,23.7464857 10.40763,23.4893429 11.73033,22.9896286 C12.39513,22.7496286 13.06143,22.4544857 13.71813,22.1039143 C14.05083,21.9347714 14.37093,21.7367714 14.69793,21.5407714 C15.01413,21.3296286 15.33453,21.1162 15.64023,20.8773429 C16.87623,19.9416286 18.00183,18.7527714 18.84933,17.3539143 C19.27503,16.6630571 19.61913,15.8899143 19.88823,15.1427714 C20.16243,14.3739143 20.37183,13.5750571 20.50683,12.7733429 C20.77863,11.1622 20.72583,9.49134286 20.35533,7.8902 C19.99143,6.28877143 19.24203,4.75905714 18.16773,3.51934286" id="Fill-1" fill="#052B50" mask="url(#mask-6)"></path>
                </g>
                <path d="M24.5,12 C25.8806579,12 27,10.8806579 27,9.5 C27,8.11934212 25.8806579,7 24.5,7 C23.1193421,7 22,8.11934212 22,9.5 C22,10.8806579 23.1193421,12 24.5,12" id="Fill-4" fill="#052B50"></path>
                <path d="M24.5,14 C23.1193421,14 22,15.1193421 22,16.5 C22,17.8806579 23.1193421,19 24.5,19 C25.8806579,19 27,17.8806579 27,16.5 C27,15.1193421 25.8806579,14 24.5,14" id="Fill-6" fill="#052B50"></path>
            </g>
            <g id="Group-3" transform="translate(161.000000, 4.000000)">
                <mask id="mask-8" fill="white">
                    <use xlink:href="#path-7"></use>
                </mask>
                <g id="Clip-2"></g>
                <path d="M25,20.5628243 L25,20.5570801 C25,20.5545051 25,20.5519301 25,20.5495532 L24.9206316,0.329993982 L24.9195705,0.329993982 L24.9182972,0 L8.22333517,1.93797186 L8.251772,4.3594463 L8.33114044,19.9044209 C7.45978524,19.1301433 6.18076482,18.6405004 4.75425491,18.6405004 C2.12851747,18.6405004 0,20.2966106 0,22.3397606 C0,24.3827126 2.12851747,26 4.75425491,26 C7.35643648,26 9.4688256,24.4952195 9.50638767,22.3163877 L9.50829761,22.3163877 L9.50829761,22.3455048 L9.50829761,22.3397606 C9.50829761,22.3371857 9.5080854,22.3346107 9.5080854,22.3322338 L9.43720555,4.22851832 L23.74305,2.49040476 L23.8228428,18.1217403 C22.9514876,17.3474627 21.6724672,16.8578198 20.2459573,16.8578198 C17.6202199,16.8578198 15.4917024,18.51393 15.4917024,20.5570801 C15.4917024,22.600032 17.6202199,24.2173194 20.2459573,24.2173194 C22.8481389,24.2173194 24.960528,22.7125389 24.9980901,20.5337071 L25,20.5337071 L25,20.5628243 Z" id="Fill-1" fill="#052B50" mask="url(#mask-8)"></path>
            </g>
            <path d="M155.206897,81 L155.206897,86.1428571 L150.793103,86.1428571 L150.793103,82.4285714 L149.137931,82.4285714 L149.137931,86.1428571 L145,86.1428571 L145,87.8571429 L149.137931,87.8571429 L149.137931,92.1428571 L145,92.1428571 L145,93.8571429 L149.137931,93.8571429 L149.137931,99 L150.793103,99 L150.793103,93.8571429 L155.206897,93.8571429 L155.206897,97.5714286 L156.862069,97.5714286 L156.862069,93.8571429 L161,93.8571429 L161,92.1428571 L156.862069,92.1428571 L156.862069,87.8571429 L161,87.8571429 L161,86.1428571 L156.862069,86.1428571 L156.862069,81 L155.206897,81 Z M151,92 L155,92 L155,87 L151,87 L151,92 Z" id="Fill-1" fill="#052B50"></path>
        </g>
    </g>
</svg>