<?xml version="1.0" encoding="UTF-8"?>
<svg width="1200px" height="600px" viewBox="0 0 1200 600" version="1.1" xmlns="http://www.w3.org/2000/svg" xmlns:xlink="http://www.w3.org/1999/xlink">
    <title>music_branding_hero</title>
    <defs>
        <polygon id="path-1" points="0 0 8 0 8 25 0 25"></polygon>
        <polygon id="path-3" points="0 0 9 0 9 25 0 25"></polygon>
        <polygon id="path-5" points="3e-05 0.108285714 20.6780312 0.108285714 20.6780312 24 3e-05 24"></polygon>
        <polygon id="path-7" points="0 0 25 0 25 26 0 26"></polygon>
    </defs>
    <g id="music_branding_hero" stroke="none" stroke-width="1" fill="none" fill-rule="evenodd">
        <rect fill="#0084FF" x="0" y="0" width="1200" height="600"></rect>
        <g id="undraw_media_player_ylg8" transform="translate(624.000000, 274.000000)">
            <path d="M225.353133,326 L221.878705,326 C220.28884,326 219,324.782802 219,323.281313 L219,314 L225.35315,314 L227.906712,322.842593 C228.123769,323.594226 227.957336,324.39846 227.456603,325.017604 C226.955869,325.636749 226.178097,326 225.353156,326 L225.353133,326 Z" id="Path" fill="#605D82" fill-rule="nonzero"></path>
            <rect id="Rectangle" fill="#F2F2F2" fill-rule="nonzero" x="44" y="103" width="389" height="147" rx="6.612205"></rect>
            <rect id="Rectangle" stroke="#3F3D56" stroke-width="0.5" fill-opacity="0.9" fill="#FFFFFF" x="2" y="0" width="527" height="286" rx="6.8189"></rect>
            <line x1="0" y1="20.5" x2="527" y2="20.5" id="Path" stroke="#3F3D56" stroke-width="0.5"></line>
            <line x1="0" y1="55.5" x2="527" y2="55.5" id="Path" stroke="#3F3D56" stroke-width="0.5"></line>
            <circle id="Oval" fill="#F86B75" fill-rule="nonzero" cx="13" cy="12" r="6"></circle>
            <circle id="Oval" fill="#FAD375" fill-rule="nonzero" cx="30" cy="12" r="6"></circle>
            <circle id="Oval" fill="#8BCC55" fill-rule="nonzero" cx="47" cy="12" r="6"></circle>
            <circle id="Oval" stroke="#3F3D56" stroke-width="0.5" cx="15" cy="10" r="6"></circle>
            <circle id="Oval" stroke="#3F3D56" stroke-width="0.5" cx="31" cy="10" r="6"></circle>
            <circle id="Oval" stroke="#3F3D56" stroke-width="0.5" cx="49" cy="10" r="6"></circle>
            <circle id="Oval" fill="#F2F2F2" fill-rule="nonzero" cx="124" cy="40" r="11"></circle>
            <circle id="Oval" stroke="#3F3D56" stroke-width="0.5" cx="126" cy="38" r="11"></circle>
            <rect id="Rectangle" fill="#94CE51" fill-rule="nonzero" x="277" y="35" width="54" height="15" rx="2.711615"></rect>
            <rect id="Rectangle" fill="#94CE51" fill-rule="nonzero" x="354" y="35" width="54" height="15" rx="2.711615"></rect>
            <rect id="Rectangle" stroke="#3F3D56" stroke-width="0.5" x="281" y="30" width="54" height="15" rx="2.11122"></rect>
            <rect id="Rectangle" stroke="#3F3D56" stroke-width="0.5" x="358" y="30" width="54" height="15" rx="2.11122"></rect>
            <rect id="Rectangle" stroke="#3F3D56" stroke-width="0.5" fill-opacity="0.9" fill="#FFFFFF" x="63" y="91" width="389" height="147" rx="8.00197"></rect>
            <path d="M247.213736,200 C260.032598,193.08301 267.721913,179.339572 266.946386,164.731004 C266.170859,150.122436 257.070194,137.280368 243.591872,131.775142 C230.113551,126.269916 214.685597,129.09326 204,139.020528 M221.951953,156.185737 L221.951953,149.759778 L244.471645,166.744383 L239.287493,170.341643" id="Shape" stroke="#3F3D56" stroke-width="0.5"></path>
            <path d="M225,134 C204.565464,134 188,150.565464 188,171 C188,191.434536 204.565464,208 225,208 C245.434536,208 262,191.434536 262,171 C261.99054,150.569384 245.430616,134.00946 225,134 Z M217.6,187.65 L217.6,154.35 L239.8,171 L217.6,187.65 Z" id="Shape" fill="#052B50" fill-rule="nonzero"></path>
            <path d="M210.773628,236.398659 C210.773628,236.398659 204.175205,259.425774 203.888315,269.500172 C203.601425,279.57457 202.453874,295.693545 203.31454,299.72329 C204.175205,303.753035 206.757196,311.812542 206.757196,311.812542 C206.757196,311.812542 212.208063,305.192238 214.2163,308.934147 C214.2163,308.934147 213.929415,301.162488 212.494975,298.859776 C212.494975,298.859776 213.06875,286.770525 213.06875,282.452938 C213.06875,278.135351 220.240948,258.27444 220.814723,257.986604 C221.388498,257.698768 223.109823,263.455546 221.675388,276.120476 C220.240953,288.785405 219.093397,310.955162 219.093397,313.257879 C219.093397,315.560596 222.536048,320.166019 224.831154,318.726827 C227.12626,317.287635 228.560695,304.904396 228.560695,304.904396 C228.560695,304.904396 230.568895,278.998865 231.716462,276.120476 C232.864028,273.242086 238.888659,240.140541 234.298452,237.550015 C229.708246,234.959489 210.773628,236.398659 210.773628,236.398659 Z" id="Path" fill="#46455B" fill-rule="nonzero"></path>
            <path d="M214.836739,310.897107 C214.561522,312.084993 213.460662,317.727454 213.460662,319.509288 C213.460662,321.291122 214.561522,324.557806 209.882867,325.745692 C205.325291,326.903857 205.99132,323.833197 205.264752,322.027603 C205.245503,321.980094 205.226248,321.932568 205.204213,321.88506 C204.378566,320.103231 206.305072,310.897107 206.580285,310.897107 C206.74198,310.897107 208.043673,308.53938 209.089999,306.594371 C209.533505,305.754539 210.309058,305.18016 211.194777,305.035561 C212.080495,304.890961 212.978802,305.19207 213.632698,305.852744 C214.510415,306.77032 215.003817,308.034149 214.999142,309.352833 C215.007636,309.87303 214.953038,310.392191 214.836739,310.897107 Z" id="Path" fill="#605D82" fill-rule="nonzero"></path>
            <path d="M214.832299,311.414095 C214.549597,312.561318 213.4188,318.010631 213.4188,319.731472 C213.4188,321.452312 214.549597,324.607173 209.743706,325.754397 C205.062185,326.872917 205.746327,323.907369 205,322.163582 C205.811379,320.024016 207.781789,315.426506 209.178307,311.414095 C210.410862,307.869173 213.441439,309.024991 214.999119,309.922699 C215.007842,310.425084 214.95176,310.926468 214.832299,311.414095 L214.832299,311.414095 Z" id="Path" fill="#000000" fill-rule="nonzero" opacity="0.1"></path>
            <circle id="Oval" fill="#FBBEBE" fill-rule="nonzero" cx="223.5" cy="184.5" r="6.5"></circle>
            <path d="M218.833335,184.097658 L218,194.168873 L228,196 C228,196 226.88889,187.149543 227.722225,185.318415 C228.55556,183.487288 218.833335,184.097658 218.833335,184.097658 Z" id="Path" fill="#FBBEBE" fill-rule="nonzero"></path>
            <path d="M226.61157,192.390439 C226.61157,192.390439 217.685953,191.511951 217.090907,192.390439 C216.702308,193.112203 216.49808,193.916229 216.495866,194.733066 C216.495866,194.733066 212.925622,196.197211 212.330581,195.611554 C211.735541,195.025897 211.140494,193.268927 209.355372,193.854584 C207.57025,194.44024 204,204.982073 204,204.982073 C204,204.982073 204.892564,201.760958 206.380163,214.059761 C207.867762,226.358564 207.57025,233.972113 207.867767,234.850596 C208.165285,235.729078 206.380163,241 217.090907,241 C227.801651,241 235.537192,240.414343 235.537192,238.364542 C235.537192,236.31474 233.75207,227.529883 235.537192,221.087626 C237.322314,214.645369 240,205.860534 240,205.860534 L236.429756,194.440218 C236.429756,194.440218 232.859506,193.561731 231.966942,195.025875 C231.074378,196.49002 228.694215,196.197189 228.694215,196.197189 C228.694215,196.197189 228.396698,192.683265 226.61157,192.390439 Z" id="Path" fill="#605D82" fill-rule="nonzero"></path>
            <path d="M211,196.111888 L203.539406,192.876578 C203.539406,192.876578 189.51352,182.288287 190.110339,172.876472 C190.110339,172.876472 185.335559,168.46468 185.037133,173.170588 C184.738706,177.876496 186.230826,188.464786 189.811913,191.994218 C193.392999,195.523651 205.628373,206.700179 207.418936,206.994295 C209.209499,207.288411 211,196.111888 211,196.111888 Z" id="Path" fill="#605D82" fill-rule="nonzero"></path>
            <path d="M184.657237,173 C184.657237,173 179.090656,158.456362 184.071282,159.015732 C189.051908,159.575101 187.879996,165.728171 187.879996,165.728171 L187.879996,173 L184.657237,173 Z" id="Path" fill="#FBBEBE" fill-rule="nonzero"></path>
            <path d="M235,196.111888 L242.460594,192.876577 C242.460594,192.876577 256.486508,182.288285 255.889661,172.876469 C255.889661,172.876469 260.664441,168.464683 260.962867,173.170586 C261.261294,177.876488 259.769174,188.464785 256.188087,191.994217 C252.607001,195.52365 240.371627,206.700179 238.581064,206.994295 C236.790501,207.288411 235,196.111888 235,196.111888 Z" id="Path" fill="#605D82" fill-rule="nonzero"></path>
            <path d="M260.342763,173 C260.342763,173 265.909344,158.456362 260.928718,159.015732 C255.948092,159.575101 257.120004,165.728171 257.120004,165.728171 L257.120004,173 L260.342763,173 Z" id="Path" fill="#FBBEBE" fill-rule="nonzero"></path>
            <path d="M228.587503,176.5051 L229.436706,175.935165 C229.436706,175.935165 224.058428,172.800519 221.793893,174.510324 C219.529358,176.22013 218.963219,177.64497 218.397085,178.21491 C217.830951,178.784851 216.41563,181.919491 217.264817,183.059362 C218.114005,184.199232 217.830951,184.432856 218.397085,185.455914 C218.963219,186.478972 217.40808,190.594641 221.723989,191.813937 C226.039898,193.033234 229.436706,187.903818 230.00284,186.763943 C230.568974,185.624067 232.550444,177.92994 228.587503,176.5051 Z" id="Path" fill="#46455B" fill-rule="nonzero"></path>
            <path d="M453,259 C453,291.058591 473.126952,317 498,317" id="Path" fill="#46455B" fill-rule="nonzero"></path>
            <path d="M498,318 C498,285.388671 520.36328,259 548,259" id="Path" fill="#052B50" fill-rule="nonzero"></path>
            <path d="M468,263 C468,293.400397 481.417966,318 498,318" id="Path" fill="#052B50" fill-rule="nonzero"></path>
            <path d="M498,318 C498,275.992188 524.388672,242 557,242" id="Path" fill="#46455B" fill-rule="nonzero"></path>
            <path d="M488,318.431728 C488,318.431728 494.44989,318.236129 496.393722,316.873189 C498.337555,315.51025 506.315273,313.882831 506.797492,316.068683 C507.27971,318.254535 516.490477,326.940115 509.208584,326.997948 C501.926691,327.055782 492.288706,325.881088 490.348613,324.71744 C488.40852,323.553793 488,318.431728 488,318.431728 Z" id="Path" fill="#A8A8A8" fill-rule="nonzero"></path>
            <path d="M509.340023,326.199384 C502.057623,326.26009 492.418972,325.027384 490.478739,323.806276 C489.00115,322.876333 488.412349,319.539491 488.215343,318 C488.078901,318.006063 488,318.008671 488,318.008671 C488,318.008671 488.408554,323.383625 490.348782,324.604738 C492.28901,325.825852 501.927666,327.058552 509.210067,326.997846 C511.312206,326.980327 512.038323,326.207589 511.998454,325.063093 C511.706416,325.754565 510.904659,326.186348 509.340023,326.199384 Z" id="Path" fill="#000000" fill-rule="nonzero" opacity="0.2"></path>
            <line x1="151" y1="325.5" x2="281" y2="325.5" id="Path" stroke="#3F3D56" stroke-width="0.5"></line>
            <line x1="480" y1="325.5" x2="521" y2="325.5" id="Path" stroke="#3F3D56" stroke-width="0.5"></line>
        </g>
        <g id="Group" transform="translate(80.000000, 225.000000)">
            <g id="Group-3" transform="translate(125.000000, 4.000000)">
                <mask id="mask-2" fill="white">
                    <use xlink:href="#path-1"></use>
                </mask>
                <g id="Clip-2"></g>
            </g>
            <path d="M0,80 L0,38.8606557 L6.94610778,38.8606557 L7.64071856,41.6147541 C8.79840898,40.5054589 10.1972639,39.6256863 11.8373253,38.9754098 C13.4773868,38.3251334 15.1463654,38 16.8443114,38 C20.5875104,38 23.549224,39.3579099 25.7295409,42.0737705 C27.9098579,44.7896311 29,48.4617255 29,53.0901639 C29,56.112037 28.4983417,58.8087313 27.49501,61.1803279 C26.4916783,63.5519244 25.044587,65.4166599 23.1536926,66.7745902 C21.2627983,68.1325205 19.082514,68.8114754 16.6127745,68.8114754 C15.0305975,68.8114754 13.5256226,68.562844 12.0978044,68.0655738 C10.6699862,67.5683035 9.4544295,66.8797858 8.4510978,66 L8.4510978,80 L0,80 Z M13.6811594,44 C11.6714875,44 9.77778667,44.5110359 8,45.533123 L8,60.466877 C9.70049159,61.4889641 11.5941925,62 13.6811594,62 C15.8454214,62 17.4396084,61.2807643 18.4637681,59.8422713 C19.4879278,58.4037783 20,56.1325076 20,53.0283912 C20,49.8864196 19.4975896,47.5962217 18.4927536,46.1577287 C17.4879177,44.7192357 15.884069,44 13.6811594,44 Z M36,68 L36,38.2906977 L42.9300912,38.2906977 L43.9696049,42.7093023 C45.5096328,41.0038674 46.9630124,39.7926392 48.3297872,39.0755814 C49.6965621,38.3585235 51.1499416,38 52.6899696,38 C53.4214829,38 54.1914894,38.058139 55,38.1744186 L55,46.0232558 C53.9219804,45.7906965 52.7284767,45.6744186 51.4194529,45.6744186 C48.9169074,45.6744186 46.5876501,46.1201506 44.4316109,47.0116279 L44.4316109,68 L36,68 Z M60,68 L60,39 L68,39 L68,68 L60,68 Z M64,34 C62.492056,34 61.2817506,33.5961579 60.3690476,32.7884615 C59.4563446,31.9807652 59,30.8846223 59,29.5 C59,28.1153777 59.4563446,27.0192308 60.3690476,26.2115385 C61.2817506,25.4038421 62.492056,25 64,25 C65.507944,25 66.7182494,25.4038421 67.6309524,26.2115385 C68.5436554,27.0192308 69,28.1153777 69,29.5 C69,30.8846223 68.5436554,31.9807652 67.6309524,32.7884615 C66.7182494,33.5961579 65.507944,34 64,34 Z M113.56611,68 L113.56611,48.2661597 C113.56611,45.6805954 112.391539,44.3878327 110.042362,44.3878327 C107.962762,44.3878327 105.863939,44.8821243 103.745828,45.8707224 L103.745828,68 L95.3119384,68 L95.3119384,48.2661597 C95.3119384,45.6805954 94.1373673,44.3878327 91.78819,44.3878327 C89.6315682,44.3878327 87.5134892,44.9011356 85.4338896,45.9277567 L85.4338896,68 L77,68 L77,38.8555133 L83.9319641,38.8555133 L84.6829268,41.6501901 C86.7240153,40.319385 88.562893,39.3783298 90.1996149,38.8269962 C91.8363368,38.2756626 93.5211723,38 95.254172,38 C98.7201714,38 101.16559,39.2167179 102.590501,41.6501901 C104.554567,40.357408 106.403072,39.4258555 108.136072,38.8555133 C109.869072,38.2851711 111.659811,38 113.508344,38 C116.204121,38 118.293317,38.7414375 119.775995,40.2243346 C121.258672,41.7072317 122,43.7794544 122,46.4410646 L122,68 L113.56611,68 Z M136.010989,55.5341959 C136.169232,58.0554655 136.960432,59.8795384 138.384615,61.0064695 C139.808798,62.1334006 142.043941,62.6968577 145.09011,62.6968577 C147.740673,62.6968577 150.826356,62.2193517 154.347253,61.2643253 L154.347253,66.8225508 C152.96263,67.5101664 151.310999,68.0449765 149.392308,68.4269871 C147.473617,68.8089976 145.485725,69 143.428571,69 C138.40437,69 134.576936,67.6820834 131.946154,65.0462107 C129.315371,62.410338 128,58.5520895 128,53.4713494 C128,48.5816145 129.305481,44.7806667 131.916484,42.0683919 C134.527486,39.3561171 138.14723,38 142.775824,38 C146.692327,38 149.708781,39.0409631 151.825275,41.1229205 C153.941769,43.2048779 155,46.1749653 155,50.0332717 C155,50.8736949 154.94066,51.8287069 154.821978,52.8983364 C154.703297,53.9679659 154.564836,54.846577 154.406593,55.5341959 L136.010989,55.5341959 Z M141.173469,44 C139.340127,44 137.890311,44.5130383 136.82398,45.5391304 C135.757648,46.5652225 135.149661,48.0521642 135,50 L146,50 L146,49.1130435 C146,45.7043308 144.391173,44 141.173469,44 Z M212.56611,68 L212.56611,48.2661597 C212.56611,45.6805954 211.391539,44.3878327 209.042362,44.3878327 C206.962762,44.3878327 204.863939,44.8821243 202.745828,45.8707224 L202.745828,68 L194.311938,68 L194.311938,48.2661597 C194.311938,45.6805954 193.137367,44.3878327 190.78819,44.3878327 C188.631568,44.3878327 186.513489,44.9011356 184.43389,45.9277567 L184.43389,68 L176,68 L176,38.8555133 L182.931964,38.8555133 L183.682927,41.6501901 C185.724015,40.319385 187.562893,39.3783298 189.199615,38.8269962 C190.836337,38.2756626 192.521172,38 194.254172,38 C197.720171,38 200.16559,39.2167179 201.590501,41.6501901 C203.554567,40.357408 205.403072,39.4258555 207.136072,38.8555133 C208.869072,38.2851711 210.659811,38 212.508344,38 C215.204121,38 217.293317,38.7414375 218.775995,40.2243346 C220.258672,41.7072317 221,43.7794544 221,46.4410646 L221,68 L212.56611,68 Z M248.017241,68.1444867 L247.202586,65.0646388 C243.749983,67.688226 240.14226,69 236.37931,69 C233.741366,69 231.685352,68.2300457 230.211207,66.6901141 C228.737062,65.1501824 228,63.0304317 228,60.3307985 L228,39 L236.49569,39 L236.49569,57.9923954 C236.49569,61.0722587 237.853435,62.6121673 240.568966,62.6121673 C242.586217,62.6121673 244.564645,62.0038084 246.50431,60.7870722 L246.50431,39 L255,39 L255,68.1444867 L248.017241,68.1444867 Z M276.382429,60.0202952 C276.382429,59.2576838 276.164516,58.6666688 275.728682,58.2472325 C275.292849,57.8277962 274.411721,57.3702362 273.085271,56.8745387 L268.651163,55.101476 C266.339351,54.1863423 264.67184,53.0615073 263.648579,51.7269373 C262.625318,50.3923673 262.113695,48.6955823 262.113695,46.6365314 C262.113695,44.0436525 263.146415,41.956035 265.211886,40.3736162 C267.277357,38.7911975 270.034436,38 273.483204,38 C276.666683,38 279.603776,38.629145 282.294574,39.8874539 L282.294574,45.4354244 C279.414284,44.5584212 276.723527,44.1199262 274.222222,44.1199262 C272.668382,44.1199262 271.531442,44.3105762 270.81137,44.6918819 C270.091297,45.0731876 269.731266,45.6832676 269.731266,46.5221402 C269.731266,47.1703599 269.94918,47.6946474 270.385013,48.0950185 C270.820846,48.4953895 271.739872,48.981547 273.142119,49.5535055 L277.462532,51.3265683 C279.812243,52.2798326 281.489228,53.3856026 282.49354,54.6439114 C283.497852,55.9022203 284,57.5418103 284,59.5627306 C284,62.384393 282.929382,64.6626605 280.788114,66.3976015 C278.646845,68.1325425 275.83292,69 272.346253,69 C268.442702,69 264.993986,68.218335 262,66.6549815 L262,61.1070111 C265.751957,62.2890588 269.181724,62.8800738 272.289406,62.8800738 C275.018101,62.8800738 276.382429,61.9268238 276.382429,60.0202952 Z M290,68 L290,39 L298,39 L298,68 L290,68 Z M328,67.0806754 C326.951893,67.7010663 325.690303,68.1760459 324.21519,68.5056285 C322.740077,68.8352112 321.206759,69 319.61519,69 C314.879301,69 311.259506,67.6816892 308.755696,65.0450281 C306.251886,62.4083671 305,58.6085301 305,53.6454034 C305,48.7210511 306.319818,44.8824403 308.959494,42.1294559 C311.599169,39.3764715 315.267487,38 319.964557,38 C322.798326,38 325.418553,38.6203815 327.825316,39.8611632 L327.825316,45.5028143 C325.53501,44.843649 323.438828,44.5140713 321.536709,44.5140713 C318.819396,44.5140713 316.82026,45.2023071 315.539241,46.5787992 C314.258221,47.9552914 313.617722,50.1363203 313.617722,53.1219512 L313.617722,53.9362101 C313.617722,56.8830666 314.248517,59.0447086 315.510127,60.4212008 C316.771736,61.7976929 318.72235,62.4859287 321.362025,62.4859287 C323.264145,62.4859287 325.476781,62.1369606 328,61.4390244 L328,67.0806754 Z M85,137.370173 L85,95 L93.4510978,95 L93.4510978,110.344874 C94.5701985,109.390586 95.882228,108.636709 97.3872255,108.083222 C98.8922231,107.529735 100.377904,107.252996 101.844311,107.252996 C105.58751,107.252996 108.549224,108.608065 110.729541,111.318242 C112.909858,114.02842 114,117.692831 114,122.311585 C114,125.327134 113.498342,128.018186 112.49501,130.38482 C111.491678,132.751454 110.044587,134.612288 108.153693,135.967377 C106.262798,137.322466 104.082514,138 101.612774,138 C99.8376491,138 98.1783178,137.694632 96.6347305,137.083888 C95.0911433,136.473144 93.7984084,135.614298 92.756487,134.507324 L92.003992,137.370173 L85,137.370173 Z M99.6811594,113 C97.6714875,113 95.7777867,113.511036 94,114.533123 L94,129.466877 C95.7004916,130.488964 97.5941925,131 99.6811594,131 C101.845421,131 103.439608,130.280764 104.463768,128.842271 C105.487928,127.403778 106,125.132508 106,122.028391 C106,118.88642 105.49759,116.596222 104.492754,115.157729 C103.487918,113.719236 101.884069,113 99.6811594,113 Z M121,137 L121,107.290698 L127.930091,107.290698 L128.969605,111.709302 C130.509633,110.003867 131.963012,108.792639 133.329787,108.075581 C134.696562,107.358524 136.149942,107 137.68997,107 C138.421483,107 139.191489,107.058139 140,107.174419 L140,115.023256 C138.92198,114.790697 137.728477,114.674419 136.419453,114.674419 C133.916907,114.674419 131.58765,115.120151 129.431611,116.011628 L129.431611,137 L121,137 Z M162.204545,137.084871 L161.495455,134.51107 C160.274236,135.578726 158.865917,136.427119 157.270455,137.056273 C155.674992,137.685428 154.128795,138 152.631818,138 C149.716652,138 147.382585,137.19927 145.629545,135.597786 C143.876506,133.996302 143,131.861022 143,129.191882 C143,127.361614 143.472723,125.750622 144.418182,124.358856 C145.363636,122.96709 146.722718,121.870849 148.495455,121.070111 C150.268191,120.269369 152.356049,119.869004 154.759091,119.869004 C156.650009,119.869004 158.737867,120.116849 161.022727,120.612546 L161.022727,117.752768 C161.022727,115.998761 160.648489,114.797666 159.9,114.149446 C159.151511,113.501227 157.772737,113.177122 155.763636,113.177122 C152.533317,113.177122 148.968201,113.768137 145.068182,114.950185 L145.068182,109.402214 C146.525765,108.677733 148.357565,108.096251 150.563636,107.657749 C152.769708,107.219248 155.01514,107 157.3,107 C161.357596,107 164.32196,107.791198 166.193182,109.373616 C168.064403,110.956035 169,113.444017 169,116.837638 L169,137.084871 L162.204545,137.084871 Z M154.524096,132 C155.427715,132 156.358429,131.782718 157.316265,131.348148 C158.274101,130.913578 159.168671,130.320991 160,129.57037 L160,124.414815 C158.409631,124.13827 156.981934,124 155.716867,124 C152.572273,124 151,125.382702 151,128.148148 C151,129.372846 151.307226,130.320984 151.921687,130.992593 C152.536148,131.664201 153.403609,132 154.524096,132 Z M195.375527,137 L195.375527,117.893536 C195.375527,116.334593 195.021101,115.19392 194.312236,114.471483 C193.603372,113.749046 192.520401,113.387833 191.063291,113.387833 C188.897317,113.387833 186.751065,114.034214 184.624473,115.326996 L184.624473,137 L176,137 L176,107.855513 L183.088608,107.855513 L183.915612,110.992395 C187.459933,108.330785 191.240486,107 195.257384,107 C198.05346,107 200.209556,107.731932 201.725738,109.195817 C203.24192,110.659703 204,112.741431 204,115.441065 L204,137 L195.375527,137 Z M231.604418,137.370173 L230.905622,134.793609 C228.498649,136.931214 225.645264,138 222.345382,138 C219.899586,138 217.744989,137.398808 215.881526,136.196405 C214.018063,134.994002 212.57196,133.247681 211.543173,130.95739 C210.514386,128.667099 210,125.976047 210,122.884154 C210,118.150886 211.145236,114.36242 213.435743,111.518642 C215.72625,108.674864 218.754332,107.252996 222.52008,107.252996 C225.58703,107.252996 228.246307,108.111842 230.497992,109.829561 L230.497992,95 L239,95 L239,137.370173 L231.604418,137.370173 Z M224.588235,131 C226.470598,131 228.274501,130.470037 230,129.410095 L230,114.419558 C228.313717,113.473181 226.37256,113 224.176471,113 C222.098029,113 220.549025,113.747627 219.529412,115.242902 C218.509799,116.738178 218,118.999985 218,122.028391 C218,125.056797 218.53921,127.309141 219.617647,128.785489 C220.696084,130.261837 222.35293,131 224.588235,131 Z M247,137 L247,108 L255,108 L255,137 L247,137 Z M251,103 C249.492056,103 248.281751,102.596158 247.369048,101.788462 C246.456345,100.980765 246,99.8846223 246,98.5 C246,97.1153777 246.456345,96.0192308 247.369048,95.2115385 C248.281751,94.4038421 249.492056,94 251,94 C252.507944,94 253.718249,94.4038421 254.630952,95.2115385 C255.543655,96.0192308 256,97.1153777 256,98.5 C256,99.8846223 255.543655,100.980765 254.630952,101.788462 C253.718249,102.596158 252.507944,103 251,103 Z M282.375527,137 L282.375527,117.893536 C282.375527,116.334593 282.021101,115.19392 281.312236,114.471483 C280.603372,113.749046 279.520401,113.387833 278.063291,113.387833 C275.897317,113.387833 273.751065,114.034214 271.624473,115.326996 L271.624473,137 L263,137 L263,107.855513 L270.088608,107.855513 L270.915612,110.992395 C274.459933,108.330785 278.240486,107 282.257384,107 C285.05346,107 287.209556,107.731932 288.725738,109.195817 C290.24192,110.659703 291,112.741431 291,115.441065 L291,137 L282.375527,137 Z M317.634855,133.817204 C315.427375,135.782268 312.832657,136.764785 309.850622,136.764785 C306.248945,136.764785 303.373455,135.425865 301.224066,132.747984 C299.074678,130.070103 298,126.496438 298,122.026882 C298,117.480264 299.08436,113.839171 301.253112,111.103495 C303.421864,108.367818 306.3264,107 309.966805,107 C311.593369,107 313.123091,107.288978 314.556017,107.866935 C315.988942,108.444892 317.266938,109.292557 318.390041,110.409946 L319.029046,107.866935 L326,107.866935 L326,135.08871 C326,139.78945 324.683277,143.449808 322.049793,146.069892 C319.416308,148.689977 315.775957,150 311.128631,150 C307.372042,150 303.809145,149.171603 300.439834,147.514785 L300.439834,141.850806 C304.273878,143.045257 307.585048,143.642473 310.373444,143.642473 C312.929473,143.642473 314.778694,143.054889 315.921162,141.879704 C317.06363,140.704519 317.634855,138.787648 317.634855,136.129032 L317.634855,133.817204 Z M312.901042,130 C313.779518,130 314.66753,129.857861 315.565104,129.573579 C316.462678,129.289296 317.274302,128.900783 318,128.408027 L318,114.421405 C316.43402,113.473797 314.600705,113 312.5,113 C308.833315,113 307,115.804877 307,121.414716 C307,124.333348 307.477426,126.493861 308.432292,127.896321 C309.387158,129.298781 310.876726,130 312.901042,130 Z" id="primemusicbranding" fill="#052B50" fill-rule="nonzero"></path>
            <g id="Group-3" transform="translate(127.000000, 0.000000)">
                <mask id="mask-4" fill="white">
                    <use xlink:href="#path-3"></use>
                </mask>
                <g id="Clip-2"></g>
                <path d="M9,21.176217 L9,21.1702057 L9,21.1627435 L8.8862,0 L7.766,0 L7.8514,18.6216389 C7.0302,17.8113625 5.825,17.2989545 4.4804,17.2989545 C2.006,17.2989545 0,19.0322701 0,21.1702057 C0,23.3081413 2.006,25 4.4804,25 C6.9334,25 8.9246,23.4231844 8.9592,21.1430514 L9,21.1430514 L9,21.176217 Z" id="Fill-1" fill="#052B50" mask="url(#mask-4)"></path>
            </g>
            <g id="Group-8" transform="translate(21.000000, 102.000000)">
                <g id="Group-3">
                    <mask id="mask-6" fill="white">
                        <use xlink:href="#path-5"></use>
                    </mask>
                    <g id="Clip-2"></g>
                    <path d="M18.16773,3.51934286 C17.10513,2.26991429 15.72153,1.34277143 14.30973,0.791057143 C14.13333,0.720485714 13.95783,0.652771429 13.77933,0.597628571 L13.51443,0.510771429 L13.35963,0.461914286 L13.24053,0.429914286 L12.99723,0.364771429 L12.70683,0.297057143 C12.51333,0.252485714 12.33873,0.2262 12.15513,0.197342857 C11.42673,0.0953428571 10.70943,0.0813428571 10.03353,0.152771429 C8.67723,0.289057143 7.51413,0.732771429 6.59823,1.24105714 C5.67963,1.75905714 5.02623,2.38734286 4.58193,2.95191429 C4.13373,3.51791429 3.89283,4.02734286 3.74943,4.37762857 C3.67893,4.5542 3.63393,4.69248571 3.60873,4.78905714 C3.59973,4.81848571 3.59313,4.8422 3.58743,4.86334286 C3.38883,5.27248571 3.27183,5.72591429 3.26043,6.20534286 C3.21603,8.07477143 4.77093,9.62505714 6.73383,9.66734286 C8.69673,9.70962857 10.32393,8.2282 10.36863,6.35905714 C10.41093,4.58505714 9.01143,3.10105714 7.19103,2.91791429 C7.28103,2.8762 7.36773,2.83391429 7.46103,2.79305714 C8.23683,2.44334286 9.16773,2.1842 10.17903,2.1682 C11.18913,2.1462 12.26253,2.38477143 13.33023,2.88534286 C14.39703,3.37448571 15.38403,4.10134286 16.17723,5.05077143 C16.57023,5.52734286 16.92183,6.05277143 17.21223,6.62305714 C17.49603,7.1962 17.73093,7.80677143 17.90343,8.44534286 C18.24903,9.72334286 18.32343,11.1059143 18.16593,12.4716286 C18.08763,13.1587714 17.95053,13.8313429 17.75583,14.4907714 C17.55123,15.1696286 17.31093,15.7876286 16.98183,16.3910571 C16.66113,16.9904857 16.29123,17.5647714 15.86793,18.0970571 C15.44463,18.6296286 14.96523,19.1144857 14.45973,19.5610571 C13.44363,20.4479143 12.31053,21.1759143 11.14713,21.7119143 C9.98703,22.2570571 8.80923,22.6324857 7.69443,22.8836286 C6.57633,23.1224857 5.52153,23.2453429 4.57953,23.2776286 C3.63753,23.3073429 2.80923,23.2679143 2.12883,23.1967714 C1.44963,23.1139143 0.91773,23.0322 0.55503,22.9550571 C0.19293,22.8767714 3e-05,22.8350571 3e-05,22.8350571 C3e-05,22.8350571 0.18303,22.9064857 0.52653,23.0404857 C0.87063,23.1687714 1.38873,23.3507714 2.06403,23.5242 C2.74143,23.6882 3.57993,23.8576286 4.56063,23.9373429 C5.53983,24.0193429 6.66183,24.0359143 7.87773,23.8947714 C9.08913,23.7464857 10.40763,23.4893429 11.73033,22.9896286 C12.39513,22.7496286 13.06143,22.4544857 13.71813,22.1039143 C14.05083,21.9347714 14.37093,21.7367714 14.69793,21.5407714 C15.01413,21.3296286 15.33453,21.1162 15.64023,20.8773429 C16.87623,19.9416286 18.00183,18.7527714 18.84933,17.3539143 C19.27503,16.6630571 19.61913,15.8899143 19.88823,15.1427714 C20.16243,14.3739143 20.37183,13.5750571 20.50683,12.7733429 C20.77863,11.1622 20.72583,9.49134286 20.35533,7.8902 C19.99143,6.28877143 19.24203,4.75905714 18.16773,3.51934286" id="Fill-1" fill="#052B50" mask="url(#mask-6)"></path>
                </g>
                <path d="M24.5,12 C25.8806579,12 27,10.8806579 27,9.5 C27,8.11934212 25.8806579,7 24.5,7 C23.1193421,7 22,8.11934212 22,9.5 C22,10.8806579 23.1193421,12 24.5,12" id="Fill-4" fill="#052B50"></path>
                <path d="M24.5,14 C23.1193421,14 22,15.1193421 22,16.5 C22,17.8806579 23.1193421,19 24.5,19 C25.8806579,19 27,17.8806579 27,16.5 C27,15.1193421 25.8806579,14 24.5,14" id="Fill-6" fill="#052B50"></path>
            </g>
            <g id="Group-3" transform="translate(274.000000, 4.000000)">
                <mask id="mask-8" fill="white">
                    <use xlink:href="#path-7"></use>
                </mask>
                <g id="Clip-2"></g>
                <path d="M25,20.5628243 L25,20.5570801 C25,20.5545051 25,20.5519301 25,20.5495532 L24.9206316,0.329993982 L24.9195705,0.329993982 L24.9182972,0 L8.22333517,1.93797186 L8.251772,4.3594463 L8.33114044,19.9044209 C7.45978524,19.1301433 6.18076482,18.6405004 4.75425491,18.6405004 C2.12851747,18.6405004 0,20.2966106 0,22.3397606 C0,24.3827126 2.12851747,26 4.75425491,26 C7.35643648,26 9.4688256,24.4952195 9.50638767,22.3163877 L9.50829761,22.3163877 L9.50829761,22.3455048 L9.50829761,22.3397606 C9.50829761,22.3371857 9.5080854,22.3346107 9.5080854,22.3322338 L9.43720555,4.22851832 L23.74305,2.49040476 L23.8228428,18.1217403 C22.9514876,17.3474627 21.6724672,16.8578198 20.2459573,16.8578198 C17.6202199,16.8578198 15.4917024,18.51393 15.4917024,20.5570801 C15.4917024,22.600032 17.6202199,24.2173194 20.2459573,24.2173194 C22.8481389,24.2173194 24.960528,22.7125389 24.9980901,20.5337071 L25,20.5337071 L25,20.5628243 Z" id="Fill-1" fill="#052B50" mask="url(#mask-8)"></path>
            </g>
            <path d="M176.206897,81 L176.206897,86.1428571 L171.793103,86.1428571 L171.793103,82.4285714 L170.137931,82.4285714 L170.137931,86.1428571 L166,86.1428571 L166,87.8571429 L170.137931,87.8571429 L170.137931,92.1428571 L166,92.1428571 L166,93.8571429 L170.137931,93.8571429 L170.137931,99 L171.793103,99 L171.793103,93.8571429 L176.206897,93.8571429 L176.206897,97.5714286 L177.862069,97.5714286 L177.862069,93.8571429 L182,93.8571429 L182,92.1428571 L177.862069,92.1428571 L177.862069,87.8571429 L182,87.8571429 L182,86.1428571 L177.862069,86.1428571 L177.862069,81 L176.206897,81 Z M172,92 L176,92 L176,87 L172,87 L172,92 Z" id="Fill-1" fill="#052B50"></path>
        </g>
    </g>
</svg>