<svg width="1200" height="600" viewBox="0 0 1200 600" fill="none" xmlns="http://www.w3.org/2000/svg">
<g id="music_for_students_hero">
<rect width="1200" height="600" fill="#FFF5EA"/>
<g id="Group 5">
<path id="Path" d="M644.928 352.004C639.125 352.611 632.875 354.132 629.304 359.358C626.219 363.854 626.286 371.696 629.183 376.311C632.473 381.555 639.196 381.744 644.419 380.048C649.643 378.351 655.049 375.377 655 368.951C654.973 365.504 653.763 361.914 652.428 358.789C651.277 356.09 649.236 353.732 646.147 354.031C645.294 354.114 645.286 355.493 646.147 355.41C650.285 355.015 651.616 360.076 652.598 363.27C653.491 366.253 654.317 369.783 652.915 372.748C651.513 375.713 648.134 377.225 645.245 378.31C642.12 379.478 638.687 380.19 635.424 379.229C628.96 377.368 627.174 368.933 629.036 362.948C631.179 356.054 638.768 354.026 644.951 353.383C645.799 353.296 645.808 351.917 644.951 352.004H644.928Z" fill="#23A0DB"/>
<path id="Path_2" d="M655.928 404.004C650.125 404.611 643.875 406.132 640.304 411.358C637.219 415.854 637.286 423.696 640.183 428.311C643.473 433.555 650.196 433.744 655.419 432.048C660.643 430.351 666.049 427.377 666 420.951C665.973 417.504 664.763 413.914 663.428 410.789C662.277 408.09 660.236 405.732 657.147 406.031C656.294 406.114 656.286 407.493 657.147 407.41C661.285 407.015 662.616 412.076 663.598 415.27C664.491 418.253 665.317 421.783 663.915 424.748C662.513 427.713 659.134 429.225 656.245 430.31C653.12 431.478 649.687 432.19 646.424 431.229C639.96 429.368 638.174 420.933 640.036 414.948C642.179 408.054 649.768 406.026 655.951 405.383C656.799 405.296 656.808 403.917 655.951 404.004H655.928Z" fill="#23A0DB"/>
<path id="Path_3" d="M637.165 363.962L641.473 368.81C641.646 368.975 641.895 369.038 642.128 368.977C642.361 368.915 642.544 368.738 642.61 368.509C643.52 366.148 643.347 363.701 643.561 361.219C643.797 358.653 644.45 356.141 645.494 353.78C647.593 348.991 651.152 344.967 655.675 342.265C656.426 341.817 655.739 340.649 654.988 341.103C650.528 343.753 646.95 347.632 644.694 352.263C643.589 354.516 642.823 356.916 642.419 359.387C641.964 362.301 642.378 365.353 641.286 368.15L642.428 367.849L638.143 363.01C637.561 362.359 636.601 363.315 637.178 363.962H637.165Z" fill="#23A0DB"/>
<path id="Path_4" d="M641.444 411.36C649.631 414.496 657.506 418.358 664.971 422.897C665.732 423.35 666.433 422.186 665.672 421.724C658.109 417.128 650.13 413.221 641.834 410.05C641.003 409.729 640.641 411.043 641.467 411.36H641.444Z" fill="#23A0DB"/>
<path id="Path_5" d="M654.824 406.227C646.42 415.767 641.552 427.78 641.001 440.338C640.963 441.221 642.373 441.221 642.411 440.338C642.945 428.14 647.667 416.471 655.82 407.197C656.408 406.529 655.416 405.554 654.824 406.227Z" fill="#23A0DB"/>
<g id="b30eccf6-7cfe-48df-9caa-415a128bd568">
<path id="Path_6" d="M679.855 587.2C678.702 587.92 677.385 588.326 676.196 588.959C675.007 589.593 673.851 590.546 673.512 591.859C673.386 592.266 673.407 592.705 673.572 593.098C673.867 593.574 674.32 593.932 674.852 594.11C679.733 596.271 685.292 596.334 690.221 594.283C691.079 593.872 691.965 593.522 692.873 593.235C693.991 593.008 695.129 592.892 696.271 592.889C697.47 592.819 698.664 592.667 699.842 592.433C700.434 592.367 700.996 592.135 701.461 591.763C701.885 591.276 702.14 590.665 702.188 590.022C702.729 586.47 701.913 582.846 699.901 579.866C699.648 579.448 699.308 579.089 698.905 578.813C698.413 578.559 697.871 578.415 697.318 578.389C695.032 578.111 692.635 577.6 690.326 577.546C688.671 577.509 687.839 578.293 686.668 579.428C684.249 581.84 682.836 585.345 679.855 587.2Z" fill="#323444"/>
<path id="Path_7" d="M713.551 586.862C713.551 589.096 713.821 591.462 715.179 593.244C715.8 594.015 716.552 594.67 717.401 595.181C720.273 597.005 724.078 597.675 727.105 596.129C727.594 595.911 728.012 595.56 728.312 595.117C728.769 594.324 728.527 593.335 728.271 592.46L723.89 577.327C721.06 577.76 716.898 578.065 714.383 579.496C712.559 580.531 713.551 584.866 713.551 586.862Z" fill="#323444"/>
<path id="Path_8" d="M677.285 493.679C677.019 494.513 676.059 494.9 675.533 495.602C674.916 496.427 674.98 497.571 675.204 498.574C675.481 500.053 676.177 501.421 677.211 502.517C678.276 503.618 679.809 504.138 681.327 503.912C682.799 503.634 684.071 502.335 684.121 500.844C684.094 500.166 683.949 499.498 683.691 498.871L680.572 489.882C680.547 489.753 680.467 489.642 680.353 489.576C680.235 489.55 680.112 489.572 680.01 489.636C679.274 489.982 677.797 490.347 677.367 491.108C676.937 491.869 677.595 492.854 677.285 493.679Z" fill="#FBB3B2"/>
<path id="Path_9" d="M675.826 493.227C676.965 493.049 677.962 492.384 679.027 491.946C680.093 491.509 681.428 491.34 682.324 492.069C682.58 492.279 682.827 492.566 683.161 492.562C682.707 490.333 682.02 488.157 681.112 486.071C681.08 485.971 681.018 485.883 680.934 485.82C680.809 485.77 680.67 485.77 680.545 485.82L677.468 486.622C676.329 486.919 676.197 486.827 676.283 487.944C676.306 488.441 676.562 493.227 675.826 493.227Z" fill="#323444"/>
<path id="Path_10" d="M675.488 428.318C675.031 429.02 675.031 429.895 675.031 430.72C675.031 434.754 675.072 438.811 675.671 442.804C675.812 443.761 675.991 444.719 676.082 445.685C676.186 447.03 676.207 448.38 676.146 449.728L675.689 467.277C675.634 469.424 675.524 471.731 674.194 473.417C673.79 473.983 673.601 474.672 673.659 475.364C674.006 479.767 674.738 484.134 675.465 488.487C677.84 487.419 680.583 487.549 682.845 488.838C685.152 481.606 686.429 474.088 686.636 466.502C686.741 462.769 686.581 459.013 687.157 455.326C688.122 449.117 687.729 442.749 687.02 436.505C686.796 434.526 686.321 432.489 685.049 430.957C683.846 429.617 682.243 428.697 680.477 428.332C678.785 427.89 677.271 428.345 675.488 428.318Z" fill="#5B5583"/>
<path id="Path_11" opacity="0.1" d="M675.488 428.318C675.031 429.02 675.031 429.895 675.031 430.72C675.031 434.754 675.072 438.811 675.671 442.804C675.812 443.761 675.991 444.719 676.082 445.685C676.186 447.03 676.207 448.38 676.146 449.728L675.689 467.277C675.634 469.424 675.524 471.731 674.194 473.417C673.79 473.983 673.601 474.672 673.659 475.364C674.006 479.767 674.738 484.134 675.465 488.487C677.84 487.419 680.583 487.549 682.845 488.838C685.152 481.606 686.429 474.088 686.636 466.502C686.741 462.769 686.581 459.013 687.157 455.326C688.122 449.117 687.729 442.749 687.02 436.505C686.796 434.526 686.321 432.489 685.049 430.957C683.846 429.617 682.243 428.697 680.477 428.332C678.785 427.89 677.271 428.345 675.488 428.318Z" fill="black"/>
<path id="Path_12" d="M681.076 479.211C678.009 494.877 679.683 511.098 685.886 525.814C686.422 526.903 686.798 528.064 687.002 529.26C687.253 531.494 686.22 533.64 685.63 535.801C684.258 540.715 685.049 545.948 685.927 550.975C686.293 553.072 686.67 555.167 687.057 557.261C687.436 559.303 687.802 561.523 686.851 563.374C687.67 566.774 688.154 570.143 688.973 573.543C689.06 573.812 689.086 574.097 689.051 574.377C688.886 574.822 688.595 575.21 688.214 575.494C686.973 576.749 686.488 578.563 686.938 580.267C689.028 578.772 691.941 579.296 694.327 580.267C696.714 581.238 699.065 582.546 701.644 582.546C701.269 579.528 700.908 576.36 702.023 573.53C702.673 571.889 703.816 570.339 703.784 568.584C703.752 567.011 702.787 565.607 702.554 564.053C702.467 563.086 702.504 562.112 702.664 561.154C703.276 555.575 702.581 549.941 701.886 544.371C701.808 543.272 701.548 542.194 701.118 541.18C700.793 540.523 700.309 539.894 700.318 539.16C700.318 538.308 701.008 537.615 701.264 536.804C701.722 535.309 700.88 533.276 702.147 532.35C705.485 529.907 704.205 524.073 704.131 519.948C704.074 516.389 703.921 512.834 703.674 509.281C705.776 515.172 706.635 521.432 706.198 527.669C706.052 529.711 705.782 531.858 706.582 533.745C707.195 535.195 708.412 536.389 708.741 537.925C708.947 538.873 708.8 539.853 708.846 540.82C708.892 541.786 709.221 542.839 710.058 543.327C710.122 547.721 710.515 552.42 710.584 556.815C710.539 559.061 710.723 561.306 711.132 563.515C711.338 564.218 711.451 564.944 711.471 565.676C711.368 566.593 711.124 567.489 710.748 568.333C709.13 573.109 709.986 578.373 713.035 582.395C714.114 580.485 716.364 579.474 718.559 579.314C720.753 579.154 722.921 579.706 725.047 580.262C724.722 577.599 725.254 574.901 726.565 572.559C726.917 572.031 727.187 571.453 727.366 570.845C727.613 569.687 727.036 568.534 726.725 567.39C726.218 565.566 726.396 563.602 726.515 561.696C726.914 555.315 726.631 548.91 725.669 542.588C725.521 541.343 725.228 540.119 724.796 538.942C724.631 538.522 724.43 538.121 724.293 537.697C724.077 536.937 723.954 536.153 723.927 535.363L723.401 528.07C723.031 522.961 724.713 517.915 725.889 512.928C726.415 510.694 726.986 508.465 727.338 506.195C727.818 503.105 727.896 499.946 728.6 496.897C729.231 494.162 730.37 491.495 730.608 488.692C730.974 484.348 729.163 480.15 727.407 476.166C726.675 474.525 723.909 474.689 722.13 474.397C709.514 472.332 696.225 472.319 684.327 476.973C683.096 477.481 681.988 478.244 681.076 479.211Z" fill="#F5F5F5"/>
<path id="Path_13" d="M690.171 398.306L691.57 403.731C691.95 404.975 692.161 406.264 692.196 407.564C692.211 408.038 692.106 408.509 691.89 408.932C691.66 409.279 691.365 409.579 691.021 409.816C690.066 410.541 689.402 412.232 688.31 412.733C688.872 413.709 689.649 413.075 690.665 413.563C692.452 414.429 694.09 415.673 696.028 416.102C697.857 416.503 699.778 416.125 701.593 415.646C704.168 414.949 706.729 413.987 708.8 412.305C710.872 410.623 712.051 409.137 712.042 406.479C709.756 406.748 707.721 404.446 706.71 402.377C706.36 401.59 706.102 400.766 705.942 399.92L704.717 394.546C703.381 394.838 702.293 395.79 701.017 396.287C699.741 396.784 698.232 396.83 696.815 396.893C694.299 397.007 691.796 397.331 689.334 397.86C688.995 397.928 688.57 398.142 688.653 398.471" fill="#FBB3B2"/>
<path id="Path_14" opacity="0.1" d="M690.171 398.306L691.57 403.731C691.95 404.975 692.161 406.264 692.196 407.564C692.211 408.038 692.106 408.509 691.89 408.932C691.66 409.279 691.365 409.579 691.021 409.816C690.066 410.541 689.402 412.232 688.31 412.733C688.872 413.709 689.649 413.075 690.665 413.563C692.452 414.429 694.09 415.673 696.028 416.102C697.857 416.503 699.778 416.125 701.593 415.646C704.168 414.949 706.729 413.987 708.8 412.305C710.872 410.623 712.051 409.137 712.042 406.479C709.756 406.748 707.721 404.446 706.71 402.377C706.36 401.59 706.102 400.766 705.942 399.92L704.717 394.546C703.381 394.838 702.293 395.79 701.017 396.287C699.741 396.784 698.232 396.83 696.815 396.893C694.299 397.007 691.796 397.331 689.334 397.86C688.995 397.928 688.57 398.142 688.653 398.471" fill="black"/>
<ellipse id="Oval" cx="696.179" cy="389.226" rx="12.1087" ry="12.0702" fill="#FBB3B2"/>
<path id="Path_15" d="M699.513 409.123C700.16 407.729 701.095 406.487 702.257 405.477C703.962 403.986 706.294 402.778 706.697 400.554L710.391 404.843C710.592 405.042 710.748 405.281 710.849 405.545C710.943 406.045 710.816 406.562 710.501 406.963C709.587 408.417 708.146 409.456 706.784 410.509C703.66 412.975 700.67 415.604 697.826 418.386C697.7 418.531 697.532 418.633 697.345 418.677C697.169 418.682 696.995 418.633 696.847 418.536C694.393 417.251 692.221 415.491 690.459 413.358C690.326 413.198 690.162 413.016 689.947 413.03C689.817 413.053 689.698 413.115 689.604 413.207C688.374 414.21 687.029 415.409 685.452 415.254C687.496 413.791 688.653 411.348 689.082 408.872C689.167 408.025 689.342 407.19 689.604 406.379C689.879 405.556 690.548 404.923 691.387 404.693C690.39 406.21 691.072 408.362 692.411 409.588C693.713 410.69 695.274 411.444 696.948 411.781C698.502 412.072 698.96 410.317 699.513 409.123Z" fill="#323444"/>
<path id="Path_16" d="M683.76 480.45C685.484 480.874 687.116 481.595 688.79 482.128C691.84 483.08 695.05 483.416 698.233 483.117C699.212 483.096 700.165 482.793 700.976 482.246C701.191 482.073 701.388 481.868 701.616 481.708C701.999 481.48 702.413 481.309 702.846 481.202C707.04 479.894 710.552 477.073 713.958 474.31C714.068 474.219 714.191 474.105 714.182 473.959C714.167 473.86 714.118 473.769 714.045 473.7L712.253 471.648C707.552 472.446 702.737 472.145 697.967 472.027C696.988 471.983 696.007 472.009 695.032 472.104C694.09 472.214 693.161 472.451 692.233 472.651C688.708 473.417 685.104 473.709 681.533 474.21C681.283 474.229 681.041 474.303 680.824 474.429C680.674 474.545 680.545 474.687 680.445 474.848L679.192 476.603C678.705 477.194 678.347 477.878 678.14 478.613C677.847 479.981 678.46 480.437 679.626 480.259C681.004 480.058 682.407 480.123 683.76 480.45Z" fill="#323444"/>
<path id="Path_17" d="M697.775 416.298C696.376 414.869 694.79 413.635 693.06 412.629C692.362 412.186 691.586 411.877 690.774 411.717C689.947 411.554 689.09 411.765 688.433 412.291C688.026 412.652 687.77 413.153 687.377 413.531C686.882 413.946 686.314 414.266 685.703 414.475C683.621 415.361 681.648 416.482 679.822 417.816C678.827 418.51 677.93 419.335 677.156 420.268C675.085 422.912 674.774 426.509 674.829 429.863C674.87 432.197 677.115 433.929 678.661 435.675C680.111 437.393 681.422 439.222 682.584 441.145C683.417 442.458 684.285 443.88 684.18 445.443C684.093 446.724 683.343 447.928 683.462 449.204C683.503 449.66 683.65 450.079 683.691 450.521C683.773 451.433 683.412 452.345 683.321 453.256C683.197 454.546 683.618 455.827 683.641 457.126C683.624 458.016 683.51 458.9 683.302 459.765C682.424 463.932 681.322 468.121 681.546 472.374L679.013 472.829C679.5 473.305 679.73 473.983 679.633 474.655C679.537 475.328 679.125 475.914 678.524 476.234C682.479 477.552 686.755 476.886 690.948 476.882C694.419 476.882 697.876 477.337 701.342 477.274C704.808 477.21 708.384 476.585 711.242 474.63C712.019 474.101 712.732 473.481 713.551 473.021C714.647 472.454 715.829 472.07 717.049 471.881C719.31 471.452 721.607 471.247 723.908 471.27C725.033 471.27 726.259 471.316 727.155 470.641C728.143 469.894 728.394 468.54 728.527 467.314C728.659 466.019 728.742 464.72 728.765 463.421C728.803 462.41 728.749 461.397 728.605 460.394C728.467 459.662 728.289 458.937 728.07 458.225L726.346 452.171C725.632 449.674 726.625 446.934 726.835 444.345C726.885 443.734 726.894 443.023 726.423 442.631C726.254 442.49 726.021 442.394 725.966 442.175C725.916 441.965 725.956 441.744 726.076 441.564C726.99 439.741 728.362 438.132 729.615 436.487C731.719 433.6 733.673 430.608 735.468 427.521C734.906 421.061 732.177 414.978 727.722 410.254C726.807 409.265 725.76 408.317 724.48 407.87C723.643 407.615 722.775 407.476 721.901 407.455C718.316 407.214 714.584 406.999 711.461 405.203C711.237 405.049 710.983 404.942 710.716 404.889C710.025 404.811 709.522 405.491 709.074 406.028C707.922 407.396 706.225 408.18 704.735 409.187C701.955 411.07 699.782 413.659 697.775 416.298Z" fill="#5B5583"/>
<path id="Path_18" d="M735.78 429.385C736.493 431.637 736.424 434.043 736.658 436.391C736.796 437.807 737.045 439.211 737.403 440.589C737.566 441.346 737.86 442.07 738.272 442.727C738.683 443.328 739.273 443.816 739.534 444.495C739.676 444.956 739.74 445.436 739.721 445.918L739.776 449.063C739.894 450.729 739.639 452.401 739.031 453.958L737.06 459.934C735.994 463.17 734.902 466.457 732.981 469.274C732.71 469.751 732.3 470.134 731.806 470.372C731.419 470.475 731.022 470.536 730.621 470.555C729.183 470.811 728.13 472.048 728.111 473.504C727.653 472.837 727.082 472.256 726.424 471.786L722.413 468.595C721.042 467.483 719.61 466.352 717.946 465.709C722.52 464.286 725.822 460.308 726.369 455.563C726.367 454.871 726.524 454.189 726.826 453.566C727.16 453.028 727.777 452.618 727.823 451.985C727.878 451.187 726.972 450.585 726.972 449.788C726.972 449.259 727.366 448.821 727.539 448.324C727.702 447.71 727.702 447.065 727.539 446.451L726.986 443.388C726.954 443.081 726.86 442.783 726.712 442.513C726.505 442.253 726.275 442.012 726.026 441.792C725.075 440.73 725.495 439.057 726.026 437.749C727.244 434.845 728.813 432.101 730.699 429.576C731.37 428.729 731.992 427.843 732.56 426.923C733.045 426.085 733.155 424.922 733.667 424.188C734.325 425.911 735.217 427.612 735.78 429.385Z" fill="#5B5583"/>
<path id="Path_19" d="M717.804 465.896C717.6 466.047 717.423 466.232 717.282 466.443C716.744 467.117 716.026 467.627 715.211 467.915C715.668 468.244 716.084 468.567 716.514 468.9C719.695 471.348 722.607 474.125 725.202 477.182C725.49 476.157 727.214 476.23 727.635 475.25C727.734 474.969 727.766 474.669 727.727 474.375C727.639 472.839 727.419 471.314 727.068 469.816C726.93 469.045 726.617 468.316 726.154 467.683C725.513 466.913 724.516 466.543 723.565 466.224C722.125 465.723 719.267 465.016 717.804 465.896Z" fill="#323444"/>
<path id="Path_20" d="M712.088 469.479C710.716 470.491 709.514 471.758 707.973 472.451C706.884 472.943 705.645 473.157 704.694 473.891C705.211 475.026 706.555 475.614 707.803 475.569C709.053 475.446 710.25 475.009 711.283 474.297C712.102 473.796 713.062 473.212 713.954 473.563C714.091 474.256 713.496 474.908 713.496 475.61C713.496 476.312 714.082 476.822 714.658 477.191C717.402 478.955 720.932 478.81 724.201 478.604C724.389 478.611 724.573 478.557 724.727 478.45C724.87 478.283 724.941 478.066 724.924 477.848C724.965 477.128 724.983 476.412 724.988 475.692C725.176 474.506 724.659 473.319 723.662 472.647C721.887 471.127 719.974 469.776 717.946 468.613C715.934 467.451 713.894 468.139 712.088 469.479Z" fill="#FBB3B2"/>
<path id="Shape" fill-rule="evenodd" clip-rule="evenodd" d="M697.13 387.722C696.925 386.004 698.402 384.422 700.432 384.181C702.462 383.939 704.273 385.129 704.479 386.843C704.685 388.556 703.208 390.134 701.177 390.38C699.147 390.626 697.336 389.441 697.13 387.722ZM697.693 387.654C697.871 389.103 699.403 390.111 701.122 389.906C702.837 389.701 704.095 388.36 703.916 386.911C703.738 385.461 702.202 384.454 700.487 384.659C698.772 384.864 697.515 386.204 697.693 387.654Z" fill="#3C354C"/>
<path id="Shape_2" fill-rule="evenodd" clip-rule="evenodd" d="M687.235 388.903C687.029 387.189 688.506 385.607 690.536 385.366C692.567 385.124 694.378 386.305 694.583 388.023C694.789 389.742 693.312 391.323 691.282 391.565C689.252 391.807 687.441 390.617 687.235 388.903ZM687.802 388.839C687.976 390.284 689.508 391.292 691.227 391.086C692.942 390.881 694.195 389.541 694.021 388.092C693.847 386.642 692.315 385.63 690.596 385.84C688.877 386.05 687.628 387.394 687.802 388.839Z" fill="#3C354C"/>
<path id="Path_21" d="M683.188 386.246L687.601 387.185L687.167 388.342L683.005 387.125L683.188 386.246Z" fill="#3C354C"/>
<path id="Path_22" d="M707.785 383.301L703.715 385.256L704.415 386.277L708.169 384.112L707.785 383.301Z" fill="#3C354C"/>
<path id="Path_23" d="M694.176 386.893L697.272 386.523L697.112 387.289L694.455 387.467L694.176 386.893Z" fill="#3C354C"/>
<path id="Path_24" d="M688.172 385.858C688.463 385.234 688.619 384.555 688.629 383.866C688.64 383.454 688.711 383.046 688.84 382.654C689.065 382.156 689.407 381.72 689.837 381.382C691.263 380.179 693.307 379.559 695.324 379.472C697.523 379.371 699.71 379.842 701.671 380.84C702.27 381.119 702.806 381.516 703.249 382.006C703.889 382.786 704.026 383.793 704.671 384.564C705.566 385.514 706.894 385.929 708.173 385.658C708.397 384.864 708.105 384.026 708.219 383.214C708.399 382.519 708.643 381.842 708.946 381.19C709.655 379.107 708.622 376.692 706.491 375.447C705.745 374.991 704.863 374.695 704.305 374.08C703.747 373.464 703.614 372.826 703.23 372.211C702.211 370.583 699.572 369.822 697.565 370.574C696.934 370.811 696.376 371.171 695.736 371.427C694.547 371.914 693.193 372.001 691.885 372.165C690.596 372.284 689.336 372.614 688.154 373.141C687.024 373.697 686.078 374.59 685.817 375.657C685.694 376.149 685.721 376.66 685.598 377.147C684.967 379.622 680.892 380.826 680.664 383.351C680.581 384.263 681.08 385.138 681.702 385.881C682.132 386.387 683.16 387.741 683.887 387.937C684.615 388.133 685.168 387.444 685.863 387.207C686.96 386.865 687.623 386.793 688.172 385.858Z" fill="#CBCEDA"/>
</g>
<path id="Path_25" d="M739 546C739 568.661 753.76 587 772 587L739 546Z" fill="#46455B"/>
<path id="Path_26" d="M772 588C772 564.784 787.655 546 807 546L772 588Z" fill="#23A0DB"/>
<path id="Path_27" d="M751 548C751 569.557 759.947 587 771 587L751 548Z" fill="#23A0DB"/>
<path id="Path_28" d="M771 587C771 557.154 789.339 533 812 533L771 587Z" fill="#46455B"/>
<ellipse id="Oval_2" opacity="0.1" cx="769" cy="594" rx="8" ry="1" fill="#FFFC00"/>
<path id="Path_29" d="M763 588.574C763 588.574 767.842 588.426 769.295 587.406C770.748 586.386 776.738 585.161 777.101 586.801C777.464 588.44 784.365 594.956 778.908 594.998C773.45 595.041 766.211 594.16 764.758 593.287C763.305 592.415 763 588.574 763 588.574Z" fill="#A8A8A8"/>
<path id="Path_30" opacity="0.2" d="M779.004 593.469C773.544 593.509 766.316 592.686 764.859 591.871C763.75 591.253 763.31 589.023 763.16 588H763C763 588 763.305 591.587 764.762 592.401C766.219 593.215 773.447 594.039 778.908 593.999C780.486 593.999 781.028 593.469 780.999 592.708C780.781 593.171 780.205 593.46 779.004 593.469Z" fill="black"/>
<ellipse id="Oval_3" cx="993.5" cy="592" rx="69.5" ry="6" fill="#3F3D56"/>
<path id="Path_31" d="M1063 525.626C1063 554.069 1046.21 564 1025.5 564C1004.79 564 988 554.069 988 525.626C988 497.184 1025.5 461 1025.5 461C1025.5 461 1063 497.184 1063 525.626Z" fill="#F2F2F2"/>
<path id="Path_32" d="M1023.34 560.695L1023.73 536.879L1040 507.417L1023.79 533.144L1023.97 522.436L1035.18 501.12L1024.02 519.602L1024.33 500.343L1036.34 483.373L1024.38 497.314L1024.58 462L1023.34 508.75L1023.44 506.821L1011.23 488.325L1023.24 510.523L1022.11 532.033L1022.07 531.462L1008 511.997L1022.03 533.478L1021.89 536.168L1021.86 536.209L1021.87 536.429L1018.99 591H1022.84L1023.31 562.813L1037.3 541.385L1023.34 560.695Z" fill="#3F3D56"/>
<path id="Path_33" d="M1051 577.196C1051 585.204 1046.08 588 1040 588C1039.86 588 1039.72 587.998 1039.58 587.995C1039.3 587.99 1039.02 587.977 1038.74 587.959C1033.26 587.583 1029 584.643 1029 577.196C1029 569.488 1039.19 559.763 1039.95 559.043L1039.96 559.041C1039.99 559.014 1040 559 1040 559C1040 559 1051 569.188 1051 577.196Z" fill="#23A0DB"/>
<path id="Path_34" d="M1039.31 586.779L1043.24 581.344L1039.3 587.376L1039.29 588C1039.02 587.994 1038.75 587.981 1038.48 587.963L1038.9 579.95L1038.9 579.888L1038.91 579.876L1038.95 579.119L1035 573.072L1038.96 578.551L1038.97 578.712L1039.29 572.658L1035.91 566.409L1039.33 571.595L1039.66 559.043L1039.66 559V559.041L1039.61 568.94L1042.97 565.016L1039.59 569.792L1039.5 575.213L1042.64 570.011L1039.49 576.011L1039.44 579.024L1044 571.784L1039.42 580.076L1039.31 586.779Z" fill="#3F3D56"/>
<path id="Path_35" d="M831 401L816.573 377.296C820.154 372.837 819.808 366.465 815.765 362.405C811.722 358.345 805.236 357.855 800.608 361.262C795.98 364.668 794.645 370.913 797.488 375.856C800.331 380.799 806.471 382.907 811.836 380.782L831 401Z" fill="#3F3D56"/>
<circle id="Oval_4" cx="807.5" cy="369.5" r="4.5" fill="#23A0DB"/>
<path id="Path_36" d="M877 397L896.291 377.569C901.392 379.894 907.403 378.027 910.34 373.205C913.277 368.384 912.228 362.104 907.889 358.529C903.55 354.955 897.267 355.194 893.205 359.089C889.143 362.984 888.563 369.326 891.85 373.91L877 397Z" fill="#3F3D56"/>
<circle id="Oval_5" cx="900.5" cy="367.5" r="4.5" fill="#23A0DB"/>
<path id="Path_37" d="M889 441L912.598 454.977C911.591 460.442 914.879 465.79 920.281 467.476C925.683 469.162 931.524 466.663 933.931 461.635C936.338 456.607 934.564 450.611 929.786 447.621C925.008 444.632 918.707 445.578 915.062 449.831L889 441Z" fill="#3F3D56"/>
<circle id="Oval_6" cx="924.5" cy="457.5" r="4.5" fill="#23A0DB"/>
<path id="Path_38" d="M850.204 464L842.276 490.4C836.764 490.774 832.377 495.293 832.023 500.962C831.669 506.631 835.458 511.69 840.878 512.786C846.298 513.882 851.667 510.674 853.426 505.289C855.185 499.904 852.787 494.013 847.823 491.522L850.204 464Z" fill="#3F3D56"/>
<circle id="Oval_7" cx="842.5" cy="501.5" r="4.5" fill="#FFFC00"/>
<path id="Path_39" d="M819 432.125L791.785 430.643C790.074 425.383 784.672 422.189 779.159 423.179C773.646 424.169 769.733 429.036 770.014 434.553C770.296 440.07 774.684 444.525 780.27 444.965C785.856 445.405 790.906 441.693 792.073 436.29L819 432.125Z" fill="#3F3D56"/>
<circle id="Oval_8" cx="780.5" cy="434.5" r="4.5" fill="#23A0DB"/>
<circle id="Oval_9" cx="1064.5" cy="374.5" r="5.5" fill="#F2F2F2"/>
<circle id="Oval_10" cx="1062.5" cy="372.5" r="5.5" stroke="#3F3D56"/>
<rect id="Rectangle" x="1018" y="375" width="13" height="13" fill="#23A0DB"/>
<rect id="Rectangle_2" x="1021" y="373" width="13" height="13" stroke="#3F3D56"/>
<path id="Path_40" d="M990.251 569C990.251 569 989.11 576.125 987.208 577.25C985.306 578.375 997.098 581 997.098 581L999 569.75L990.251 569Z" fill="#FBBEBE"/>
<path id="Path_41" d="M1004.16 491L1008 495.754L1006.25 512.21L1004.86 544.757C1004.86 544.757 1007.65 572.915 1004.86 573.647C1002.06 574.378 989.492 574.013 989.841 572.184C990.19 570.356 990.54 568.893 991.238 566.333C991.937 563.773 990.54 554.631 990.54 554.631L992.286 544.391L986 500.142L1004.16 491Z" fill="#2F2E41"/>
<path id="Path_42" d="M991.921 577.317C991.921 577.317 987.759 576.604 987.381 577.317C987.003 578.029 979.815 585.507 978.68 585.507C977.545 585.507 969.222 592.63 977.923 592.986C986.624 593.342 1001 586.932 1001 586.932C1001 586.932 998.884 577.87 998.996 578.305C999.108 578.741 991.921 579.097 991.921 577.317Z" fill="#2F2E41"/>
<path id="Path_43" d="M987 560.922C987 560.922 997.431 572.396 997.804 573.506C998.176 574.617 1003.76 573.506 1003.76 573.506L1006 566.104L1004.14 563.513L993.706 555L987 560.922Z" fill="#FBBEBE"/>
<path id="Path_44" d="M1001.01 568.718L996 573.687C996 573.687 1002.4 584.011 1002.4 585.103C1002.4 586.196 1002.74 595.299 1006.2 593.843C1009.65 592.386 1010 577.821 1010 577.821C1010 577.821 1009.65 562.891 1007.58 561.799C1005.51 560.707 1000.96 561.052 1000.96 561.052C1000.96 561.052 1003.78 568.353 1001.01 568.718Z" fill="#2F2E41"/>
<path id="Path_45" d="M971.185 458.509C971.185 458.509 969.381 464.345 969.02 465.804C968.659 467.263 966.493 471.275 966.493 477.476C966.493 483.676 967.215 490.971 966.493 491.7C965.772 492.43 954.222 533.281 959.275 537.658C964.328 542.034 980.93 556.624 982.013 558.448C983.096 560.271 983.457 564.648 985.623 563.919C987.788 563.189 996.089 555.895 996.45 554.436C996.811 552.977 991.758 550.423 991.758 550.423C991.758 550.423 981.652 535.469 979.126 535.834C976.599 536.199 976.96 534.01 977.321 532.916C977.682 531.822 978.404 531.092 977.321 531.092C976.238 531.092 976.96 528.174 977.321 526.715C977.682 525.256 985.983 505.561 985.983 505.561L1008 495.713C1008 495.713 1006.92 469.087 998.977 461.792L997.172 457.415C997.172 457.415 976.96 455.956 971.185 458.509Z" fill="#2F2E41"/>
<path id="Path_46" d="M981.482 401C981.482 401 983.289 414.31 978.952 415.07C974.614 415.831 971 415.451 971 415.831C971 416.211 981.843 428 981.843 428L991.964 427.239L1001 416.972C1001 416.972 992.687 415.451 992.687 410.127C992.687 404.803 992.325 401 992.325 401H981.482Z" fill="#FBBEBE"/>
<path id="Path_47" opacity="0.1" d="M981.482 401C981.482 401 983.289 414.31 978.952 415.07C974.614 415.831 971 415.451 971 415.831C971 416.211 981.843 428 981.843 428L991.964 427.239L1001 416.972C1001 416.972 992.687 415.451 992.687 410.127C992.687 404.803 992.325 401 992.325 401H981.482Z" fill="black"/>
<circle id="Oval_11" cx="986" cy="396" r="11" fill="#FBBEBE"/>
<path id="Path_48" d="M975.199 414C975.199 414 961.176 415.794 960.097 420.458C959.018 425.122 967.288 454.183 968.367 456.695C969.446 459.206 969.086 461 969.086 461C972.378 458.544 976.574 457.628 980.593 458.489C987.425 459.924 997.134 459.206 997.134 459.206C997.134 459.206 1000.37 445.931 1001.09 444.496C1001.81 443.061 1004.69 435.168 1004.69 433.015C1004.69 430.863 1009 421.893 1009 421.893C1009 421.893 1006.84 415.435 998.932 415.794C998.932 415.794 995.481 414.253 994.51 415.382C993.538 416.511 988.144 421.534 981.312 419.382C974.48 417.229 975.199 414 975.199 414Z" fill="#3F3D56"/>
<path id="Path_49" d="M963.996 420H960.116L958 448.771C958 448.771 965.759 450.956 966.817 449.499C967.875 448.042 963.996 420 963.996 420Z" fill="#3F3D56"/>
<path id="Path_50" d="M959.966 445.058L959.039 448.193C959.039 448.193 958.421 458.381 962.129 457.989C965.837 457.597 968 451.719 968 451.719C968 451.719 965.837 444.274 963.365 445.058C960.893 445.842 959.966 445.058 959.966 445.058Z" fill="#3F3D56"/>
<path id="Path_51" d="M1003 420L1009.84 421.862C1009.84 421.862 1014.88 440.851 1015.24 441.223C1015.6 441.596 1015.96 443.83 1015.96 443.83C1015.96 443.83 1015.96 444.202 1016.68 445.319C1017.4 446.436 1018.48 445.691 1017.76 447.181C1017.04 448.67 1015.96 447.926 1016.68 449.415C1017.4 450.904 1017.04 455 1017.04 455C1017.04 455 1015.24 447.926 1008.76 449.787L1004.44 429.681L1003 420Z" fill="#3F3D56"/>
<path id="Path_52" d="M972.561 386.275C970.283 390.324 969.769 395.121 969.455 399.769C969.32 401.763 969.219 403.809 969.803 405.718C970.42 407.731 971.791 409.776 971.088 411.759C970.408 413.677 968.133 414.445 966.863 416.027C965.787 417.367 965.516 419.204 965.61 420.928C965.703 422.653 966.116 424.346 966.238 426.068C966.488 429.852 965.333 433.595 963 436.563C968.443 436.351 974.263 433.909 976.558 428.911C977.245 427.417 977.578 425.782 978.198 424.258C978.898 422.535 979.955 420.974 980.619 419.236C981.62 416.612 981.674 413.732 981.716 410.92C981.741 409.237 981.758 407.509 981.183 405.93C979.915 402.453 975.974 400.207 975.583 396.523C975.515 396.133 975.572 395.732 975.745 395.377C975.929 395.118 976.152 394.89 976.406 394.701C978.867 392.504 978.461 387.851 981.391 386.353C982.706 385.681 984.29 385.918 985.702 386.343C987.269 386.816 988.833 387.548 989.853 388.841C991.907 391.447 991.097 395.21 990.461 398.48C989.54 403.222 989.214 408.064 989.489 412.889C989.507 413.661 989.619 414.427 989.824 415.171C990.201 416.378 991.006 417.392 991.613 418.498C992.851 420.773 993.252 423.418 992.747 425.964C992.298 428.179 991.185 430.538 992.165 432.571C992.597 433.355 993.198 434.032 993.924 434.549C997.126 437.088 1001.19 438.662 1003.57 442C1003.98 439.273 1003.2 436.529 1002.62 433.834C1002.05 431.138 1001.69 428.204 1002.88 425.721C1003.4 424.631 1004.2 423.684 1004.62 422.553C1005.61 419.941 1004.43 417.077 1003.72 414.377C1003.21 412.257 1002.85 410.104 1002.62 407.934L1001.89 402.076C1001.28 397.234 1000.65 392.292 998.547 387.899C994.586 379.619 985.622 376.543 977.596 381.131C975.493 382.359 973.754 384.136 972.561 386.275Z" fill="#FF6584"/>
<path id="Path_53" d="M962.887 446.42C962.887 446.42 960.664 453 963.257 453C965.85 453 970.666 448.979 971.037 445.689C971.407 442.4 978.076 429.972 973.26 431.068C968.444 432.165 966.221 441.303 966.221 441.303L962.887 446.42Z" fill="#FBBEBE"/>
<path id="Path_54" d="M999.846 421L988 459.41L1004.15 463L1016 425.667L999.846 421Z" fill="#23A0DB"/>
<path id="Path_55" d="M1014.63 448.401L1016.92 452.438C1016.92 452.438 1017.93 460 1012.79 460C1007.65 460 1000.31 452.654 1000.31 452.654C1000.31 452.654 996.639 451.107 994.436 451.494C992.234 451.881 980.12 451.494 985.259 444.921C990.398 438.348 999.208 444.921 999.208 444.921L1008.39 449.561L1013.16 446.854L1014.63 448.401Z" fill="#FBBEBE"/>
<path id="Path_56" d="M1011.57 442.678L1008 448.103C1008 448.103 1016.2 449.12 1016.91 450.815C1017.63 452.51 1013.7 442 1013.7 442L1011.57 442.678Z" fill="#3F3D56"/>
<path id="Path_57" d="M813 511L818.716 507.304L830.563 493.117C831.267 492.274 831.103 491.061 830.197 490.406C829.292 489.752 827.987 489.904 827.284 490.747L815.437 504.933L813 511Z" fill="#2F2E41"/>
<path id="Path_58" d="M862.068 372.595C862.068 372.595 855.205 366.578 845.976 377.918C836.748 389.259 822.313 394.814 819 399.211C819 399.211 832.725 393.656 837.458 391.342C842.19 389.028 841.954 389.49 841.954 389.49C841.954 389.49 835.564 393.888 834.381 398.285C833.198 402.683 834.145 406.386 832.015 410.783C829.885 415.181 872.716 413.792 872.716 413.792C872.716 413.792 876.976 406.617 875.792 399.211C874.609 391.805 875.319 373.521 862.068 372.595Z" fill="#2F2E41"/>
<path id="Path_59" d="M848.698 390C848.698 390 850.401 401.796 843.102 404.444C835.803 407.093 838.479 410.704 838.479 410.704L849.428 416L861.107 412.389L865 406.611C865 406.611 858.674 405.167 860.377 400.833C862.08 396.5 862.567 395.056 862.567 395.056L848.698 390Z" fill="#FFB9B9"/>
<path id="Path_60" opacity="0.1" d="M848.698 390C848.698 390 850.401 401.796 843.102 404.444C835.803 407.093 838.479 410.704 838.479 410.704L849.428 416L861.107 412.389L865 406.611C865 406.611 858.674 405.167 860.377 400.833C862.08 396.5 862.567 395.056 862.567 395.056L848.698 390Z" fill="black"/>
<path id="Path_61" d="M878.959 423C878.959 423 877.43 444.978 877.867 445.934C878.304 446.889 877.867 480.096 877.867 480.096C877.867 480.096 880.926 498.013 876.992 498.968C873.059 499.924 873.933 478.901 873.933 478.901L870 451.19L870.437 423.717L878.959 423Z" fill="#FFB9B9"/>
<path id="Path_62" opacity="0.1" d="M878.959 423C878.959 423 877.43 444.978 877.867 445.934C878.304 446.889 877.867 480.096 877.867 480.096C877.867 480.096 880.926 498.013 876.992 498.968C873.059 499.924 873.933 478.901 873.933 478.901L870 451.19L870.437 423.717L878.959 423Z" fill="black"/>
<path id="Path_63" d="M832.533 490C832.533 490 824.77 519.822 825.005 534.376C825.24 548.929 828.299 569.208 828.299 569.208C828.299 569.208 828.769 578.036 828.063 578.99C827.358 579.944 831.592 584 831.592 584L836.062 581.376L837.709 579.467V577.797C837.709 577.797 835.121 569.685 837.238 563.244C839.355 556.802 840.532 540.579 838.415 535.569L853 491.67L832.533 490Z" fill="#FFB9B9"/>
<path id="Path_64" d="M832.975 579.72C832.975 579.72 830.048 576.026 828.096 577.257C826.145 578.489 822.974 586.861 822.974 586.861C822.974 586.861 811.997 597.449 819.803 597.941C827.608 598.434 831.023 595.725 831.999 593.755C832.975 591.785 842 586.614 842 586.614C842 586.614 841.024 577.257 839.561 577.011C838.097 576.765 835.902 580.705 835.902 580.705L832.975 579.72Z" fill="#2F2E41"/>
<path id="Path_65" d="M857.398 492.101V521.454C857.426 525.016 857.669 528.573 858.126 532.106C858.854 537.314 854 576.135 854 576.135L854.485 583L860.553 582.527L861.282 576.609L870.019 550.57C870.019 550.57 872.932 534.71 871.476 528.792C870.019 522.874 879 485 879 485L857.398 492.101Z" fill="#FFB9B9"/>
<path id="Path_66" d="M853.478 580.901L855.14 580.494C855.14 580.494 856.396 577.36 857.967 578.119C859.072 578.693 860.12 579.401 861.091 580.228L861.783 581.66C861.783 581.66 863.354 585.455 865.374 587.984C867.394 590.514 869.639 596.08 866.272 596.585C862.905 597.091 858.416 597.344 857.069 596.08C855.722 594.815 856.62 592.791 855.273 592.285C853.927 591.779 852.804 590.261 853.029 589.755C853.253 589.249 853.478 580.901 853.478 580.901Z" fill="#2F2E41"/>
<circle id="Oval_12" cx="857.5" cy="387.5" r="11.5" fill="#FFB9B9"/>
<path id="Path_67" d="M838 407.082L841.072 406C841.072 406 839.86 408.02 846.372 409.193C852.884 410.366 859.627 410.782 862.651 406.938C862.651 406.938 863.814 406.378 865.442 408.02C867.07 409.663 868 409.193 868 409.193L866.837 415.293L864.512 426.554L861.488 435L852.884 433.123L843.581 426.32L840.093 417.17V408.724L838 407.082Z" fill="#23A0DB"/>
<path id="Path_68" d="M867.817 408.588L870.248 406.901C870.248 406.901 878.514 408.347 879 412.202L872.679 424.251C873.968 427.604 873.881 431.324 872.436 434.613C870.005 440.156 870.248 441.361 870.248 441.361L868.546 448.59L837.67 451C837.67 451 836.454 448.108 835.968 447.626C835.482 447.144 835.482 445.457 835.968 445.457C836.454 445.457 835.968 444.735 835.482 444.012C834.995 443.289 834.752 443.048 835.482 442.084C836.211 441.12 834.266 432.445 834.266 432.445V423.046L826 412.202C826 412.202 828.917 407.865 830.376 407.383C831.835 406.901 838.774 405 838.774 405L840.344 407.292L842.532 424.733L845.693 435.336L859 433.095L864.17 424.492L867.573 414.371L867.817 408.588Z" fill="#23A0DB"/>
<path id="Path_69" d="M876.868 411L878.743 412.489C878.743 412.489 880.385 426.386 879.916 427.379C879.447 428.372 871.241 429.364 871.007 428.868C870.772 428.372 876.868 411 876.868 411Z" fill="#23A0DB"/>
<path id="Path_70" d="M824.041 427C824.041 427 825.57 448.978 825.133 449.934C824.696 450.889 825.133 484.096 825.133 484.096C825.133 484.096 822.074 502.013 826.008 502.968C829.941 503.924 829.067 482.901 829.067 482.901L833 455.19L832.563 427.717L824.041 427Z" fill="#FFB9B9"/>
<path id="Path_71" d="M837.454 405.952L839.843 421.658C839.843 421.658 837.692 444.98 838.17 449.739L838.648 451.167C838.648 451.167 837.692 450.691 837.454 451.643C837.215 452.595 837.454 455.688 837.454 455.688C837.454 455.688 836.02 457.116 835.542 464.969C835.064 472.823 829.33 491.623 831.481 492.337C833.631 493.05 846.532 496.62 853.461 495.906C860.39 495.192 885.237 486.863 884.998 484.721C884.759 482.58 872.813 452.357 872.813 452.357C872.813 452.357 870.663 448.787 870.663 448.311C870.663 447.835 873.53 445.932 872.813 444.028C872.097 442.124 868.274 422.134 868.274 422.134L870.902 407.856L867.318 406.904L864.69 420.706C864.69 420.706 854.417 425.704 843.665 421.182L841.276 405L837.454 405.952Z" fill="#2F2E41"/>
<path id="Path_72" d="M827.856 413L825.882 413.682C825.882 413.682 822.18 427.998 823.167 427.998C824.154 427.998 836 429.362 836 428.907C836 428.453 833.779 417.318 833.779 417.318L827.856 413Z" fill="#23A0DB"/>
<path id="Path_73" d="M849 377.819C849 377.819 866.3 390.106 870.976 384.564C875.652 379.023 862.794 374.205 862.794 374.205L852.039 373L849 377.819Z" fill="#2F2E41"/>
<path id="Path_74" d="M598 408.857L571 414V393L595.823 393.857L598 408.857Z" fill="#2F2E41"/>
<path id="Path_75" d="M596.933 443L596 452.464L601.132 479.956C601.132 479.956 601.132 498.434 605.798 495.73C610.464 493.026 606.265 479.956 606.265 479.956V451.112L605.331 443H596.933Z" fill="#A0616A"/>
<path id="Path_76" d="M557.734 444L557.28 450.715L544.231 482.672C544.231 482.672 533.849 492.068 539.887 496.239C545.926 500.41 549.559 486.083 549.559 486.083L563.638 458.774L565 444L557.734 444Z" fill="#A0616A"/>
<path id="Path_77" d="M551.548 504L552.406 521.867C552.406 521.867 548.973 539.733 552.836 554.92L554.982 571L560.991 570.107L563.137 549.56C563.137 549.56 564.425 531.693 563.995 529.46L567 508.02L551.548 504Z" fill="#A0616A"/>
<path id="Path_78" d="M580 510L587.2 534.489C587.2 534.489 588.1 545.175 593.5 555.416C598.9 565.657 599.8 571 599.8 571L607 570.109L604.3 550.073C604.3 550.073 601.15 527.365 598.45 524.693L595.75 510.445L580 510Z" fill="#A0616A"/>
<circle id="Oval_13" cx="581.5" cy="397.5" r="10.5" fill="#A0616A"/>
<path id="Path_79" d="M576.997 405.641C576.997 405.641 581.019 413.563 576.997 415.763C572.975 417.964 571.188 418.844 571.188 418.844C571.188 418.844 565.825 438.65 577.891 436.889C589.956 435.129 598 414.443 598 414.443C598 414.443 589.956 412.243 588.169 403L576.997 405.641Z" fill="#A0616A"/>
<path id="Path_80" d="M573.407 428.252C571.873 427.291 570.956 425.603 570.989 423.8C570.982 422.205 571.492 420.649 572.445 419.366L574.149 417.017C574.149 417.017 565.712 414.887 559.913 424.204C554.114 433.521 546.085 446.386 553.222 447.717C560.359 449.048 562.589 449.048 562.589 449.048C562.589 449.048 562.143 454.372 557.237 459.252C552.33 464.133 531.81 500.955 541.624 505.392C551.438 509.828 598.721 519.589 600.506 512.49C602.29 505.392 591.584 461.027 591.584 461.027L595.153 446.83C595.153 446.83 623.255 447.717 619.687 441.95C616.118 436.183 609.873 414 598.275 414H596.21C596.21 414 586.941 424.723 580.353 428.372C578.195 429.618 575.52 429.572 573.407 428.252Z" fill="#2F2E41"/>
<path id="Path_81" d="M598.736 570.885L597.434 579.297L597 589.923L600.039 590.366L600.907 584.61L602.643 593.908C602.643 593.908 605.681 598.778 610.89 597.892C616.099 597.007 610.022 586.381 610.022 586.381L607.418 570L598.736 570.885Z" fill="#2F2E41"/>
<path id="Path_82" d="M562.264 568.885L563.566 577.297L564 587.923L560.961 588.366L560.093 582.61L558.357 591.908C558.357 591.908 555.318 596.778 550.11 595.892C544.901 595.007 550.978 584.381 550.978 584.381L553.582 568L562.264 568.885Z" fill="#2F2E41"/>
<circle id="Oval_14" cx="577" cy="433" r="2" fill="#FFFC00"/>
<circle id="Oval_15" cx="575" cy="445" r="2" fill="#FFFC00"/>
<circle id="Oval_16" cx="573" cy="456" r="2" fill="#FFFC00"/>
<circle id="Oval_17" cx="573" cy="469" r="2" fill="#FFFC00"/>
<circle id="Oval_18" cx="569" cy="480" r="2" fill="#FFFC00"/>
<circle id="Oval_19" cx="569" cy="492" r="2" fill="#FFFC00"/>
<path id="Path_83" d="M575.437 382.753C572.47 382.244 569.219 383.921 568.294 386.439C567.997 387.247 567.914 388.118 567.483 388.879C567.021 389.694 566.202 390.306 565.604 391.05C564.573 392.312 564.249 394.005 564.739 395.556C565.028 396.434 565.578 397.252 565.701 398.159C565.737 398.35 565.72 398.546 565.652 398.728C565.532 398.939 565.363 399.118 565.16 399.252C564.195 400.008 563.266 400.798 562.372 401.62C561.46 402.458 560.523 403.543 560.866 404.66C561.005 405.012 561.184 405.348 561.398 405.661C562.252 407.138 562.248 408.957 561.388 410.431C560.995 411.102 560.44 411.695 560.088 412.382C561.591 412.003 562.924 411.133 563.872 409.91C563.058 411.883 560.205 412.63 559 414.444C559.826 414.448 560.641 414.247 561.369 413.858C560.759 414.257 560.19 414.713 559.668 415.221C560.856 414.95 561.955 414.382 562.862 413.571C562.051 414.163 561.478 415.023 561.246 415.997C564.583 416.055 567.854 415.261 571.068 414.475L576.463 413.154C576.82 413.107 577.152 412.947 577.412 412.699C577.568 412.462 577.629 412.175 577.58 411.895C577.467 410.534 576.723 409.277 575.905 408.114C575.287 407.234 574.622 406.388 573.915 405.578C573.179 404.735 572.385 403.915 571.859 402.958C570.708 400.866 570.975 398.416 571.269 396.109C571.355 395.43 571.469 394.698 572.012 394.207C572.227 394.013 572.495 393.871 572.719 393.685C573.488 393.049 573.61 392.04 573.848 391.138C574.205 389.813 574.874 388.593 575.798 387.577C576.138 387.2 576.59 386.816 577.138 386.842C578.172 386.89 578.945 387.592 579.488 388.363C579.982 389.15 580.403 389.98 580.746 390.843C581.71 392.931 583.294 395.038 585.768 395.667C586.721 395.909 587.769 395.92 588.625 396.358C589.436 396.801 590.025 397.561 590.249 398.455C590.44 399.304 590.491 400.179 590.401 401.044C590.237 404.031 589.923 407.007 589.46 409.963L602.296 410.125C602.067 408.419 601.445 406.789 600.477 405.364C601.979 405.522 603.491 405.562 605 405.484C604.458 404.465 602.902 404.339 601.74 403.859C601.584 403.807 601.444 403.716 601.334 403.595C601.23 403.426 601.189 403.227 601.216 403.031L601.275 401.053C601.328 400.592 601.258 400.126 601.072 399.701C600.842 399.278 600.393 398.972 600.138 398.56C599.514 397.551 600.206 396.252 599.753 395.176C599.374 394.276 598.314 393.772 597.39 393.256C596.116 392.546 594.927 391.634 594.305 390.43C594.014 389.866 593.857 389.258 593.625 388.674C592.856 386.741 591.262 385.11 589.353 383.927C587.372 382.765 585.216 381.931 582.967 381.458C581.396 381.091 579.74 380.833 578.149 381.129C576.559 381.425 575.043 382.386 574.623 383.759" fill="#2F2E41"/>
<circle id="Oval_20" cx="1094.5" cy="346.5" r="12.5" fill="#23A0DB"/>
<ellipse id="Oval_21" cx="1175.5" cy="418" rx="3.5" ry="3" fill="#23A0DB"/>
<path id="Path_84" d="M1157.33 496L1147 501.576L1147.67 503L1158 497.424L1157.33 496Z" fill="#23A0DB"/>
<path id="Path_85" d="M1154 486.473L1153.58 489.314C1153.58 489.314 1154.21 508.961 1149.54 502.806C1144.88 496.652 1148.06 488.367 1148.06 488.367L1149.33 486L1154 486.473Z" fill="#FBBEBE"/>
<path id="Path_86" d="M1124.46 396C1124.46 396 1123.5 406 1123.02 406.476C1122.54 406.952 1130.22 416 1130.22 416L1136.94 409.81C1136.94 409.81 1136.46 400.762 1137.9 398.857C1139.34 396.952 1124.46 396 1124.46 396Z" fill="#FBBEBE"/>
<path id="Path_87" opacity="0.1" d="M1124.46 396C1124.46 396 1123.5 406 1123.02 406.476C1122.54 406.952 1130.22 416 1130.22 416L1136.94 409.81C1136.94 409.81 1136.46 400.762 1137.9 398.857C1139.34 396.952 1124.46 396 1124.46 396Z" fill="black"/>
<path id="Path_88" d="M1107 578.227V585.591L1103.29 586L1098 584.773L1099.59 577L1107 578.227Z" fill="#3F3D56"/>
<path id="Path_89" d="M1103.14 581.278C1103.14 581.278 1101.77 577.577 1099.48 578.04C1097.2 578.503 1096.74 581.278 1096.74 581.278C1096.74 581.278 1094.91 588.218 1092.17 590.531C1089.42 592.844 1086.68 598.858 1092.17 599.784C1097.65 600.709 1102.23 598.396 1102.23 597.933C1102.23 597.47 1103.6 594.695 1105.88 594.232C1108.17 593.769 1110 593.307 1110 591.456C1110 589.606 1108.63 587.755 1108.63 587.755C1108.63 587.755 1108.17 578.98 1107.26 580.129C1106.62 581.037 1106.16 582.053 1105.88 583.129L1103.14 581.278Z" fill="#2F2E41"/>
<path id="Path_90" d="M1127.75 572.444L1126 579.111L1130.38 580L1132.56 577.778L1133 572L1127.75 572.444Z" fill="#3F3D56"/>
<path id="Path_91" d="M1127.33 578.576C1127.33 578.576 1129.25 577.203 1130.21 577.203H1131.65C1131.65 577.203 1131.65 574 1134.05 574C1136.46 574 1135.98 576.288 1135.98 576.288C1135.98 576.288 1141.26 584.068 1142.7 585.441C1144.15 586.814 1151.83 590.933 1145.59 592.763C1139.34 594.594 1135.01 594.594 1132.13 591.39C1132.13 591.39 1129.25 590.017 1127.33 590.017C1125.4 590.017 1123 589.102 1123 587.729C1123 586.356 1124.44 583.61 1124.44 583.61C1124.44 583.61 1125.4 575.373 1125.88 576.288C1126.36 577.203 1127.33 578.576 1127.33 578.576Z" fill="#2F2E41"/>
<path id="Path_92" d="M1106.63 464V479.536C1106.63 479.536 1101.35 509.667 1101.35 519.553C1101.35 529.44 1093.19 576.519 1097.03 577.461C1100.87 578.402 1109.99 579.815 1110.47 578.402C1110.95 576.99 1114.32 532.265 1114.8 531.794C1115.28 531.323 1125.36 494.131 1125.36 494.131L1127.28 494.601L1128.24 536.973C1128.24 536.973 1123.44 575.107 1125.84 575.107C1128.24 575.107 1138.33 574.636 1138.33 571.811C1138.33 568.987 1143.61 516.729 1143.61 516.729C1143.61 516.729 1149.85 475.299 1147.45 471.062C1145.05 466.825 1145.05 464.471 1145.05 464.471L1106.63 464Z" fill="#2F2E41"/>
<circle id="Oval_22" cx="1132.5" cy="394.5" r="9.5" fill="#FBBEBE"/>
<path id="Path_93" d="M1130.27 409.902C1130.27 409.902 1124.34 404.904 1123.86 403C1123.86 403 1120.78 406.094 1120.78 406.57C1120.78 407.046 1107.49 408.474 1104.17 412.282C1100.85 416.089 1098 424.181 1098 424.181L1106.07 439.412C1106.07 439.412 1106.54 447.98 1106.54 448.932C1106.54 449.884 1104.17 465.115 1105.12 465.591C1106.07 466.067 1115.56 470.826 1123.63 469.874C1131.69 468.923 1139.76 467.495 1142.14 467.495C1144.51 467.495 1146.41 468.447 1146.41 467.495C1146.41 466.543 1144.98 464.639 1144.98 463.687C1144.98 462.735 1144.51 460.355 1144.51 458.927C1144.51 457.499 1143.56 455.119 1143.56 453.215C1143.56 451.311 1154 425.609 1154 425.609C1154 425.609 1153.53 417.517 1145.93 413.709C1138.34 409.902 1137.39 408.474 1137.39 408.474C1137.39 408.474 1137.24 405.618 1136.84 405.618C1136.44 405.618 1135.02 409.902 1131.22 410.378L1130.27 409.902Z" fill="#D0CDE1"/>
<path id="Path_94" d="M1104 472.79L1107.64 478L1117 476.105L1110.24 469L1104 472.79Z" fill="#FBBEBE"/>
<path id="Path_95" d="M1150.36 423L1153.19 426.679C1153.19 426.679 1158.84 453.354 1157.89 463.011C1156.95 472.669 1156.01 480.028 1156.01 480.028C1156.01 480.028 1157.89 486.926 1156.48 486.926C1155.07 486.926 1146.59 487.386 1146.59 486.007C1146.59 484.627 1147.53 475.889 1147.53 475.889L1145.18 455.653L1140 448.755L1150.36 423Z" fill="#D0CDE1"/>
<path id="Path_96" d="M1126.61 390.166C1127.18 389.92 1127.84 390.119 1128.45 390.015C1129.17 389.892 1129.81 389.352 1130.54 389.42C1130.88 389.485 1131.22 389.595 1131.54 389.747C1131.86 389.9 1132.22 389.913 1132.55 389.784C1132.71 389.71 1132.83 389.568 1132.87 389.397C1132.91 389.226 1132.88 389.045 1132.78 388.903C1133.39 388.848 1133.97 388.595 1134.43 388.181C1134.52 388.084 1134.63 388.003 1134.75 387.941C1135.03 387.867 1135.32 387.914 1135.56 388.069L1136.63 388.567C1136.87 388.653 1137.08 388.806 1137.24 389.009C1137.37 389.21 1137.39 389.479 1137.57 389.633C1137.8 389.829 1138.14 389.733 1138.44 389.752C1139.01 389.807 1139.44 390.281 1139.45 390.853C1139.45 391.171 1139.33 391.56 1139.58 391.754C1139.72 391.867 1139.93 391.849 1140.1 391.918C1140.53 392.097 1140.53 392.712 1140.47 393.185C1140.41 393.657 1140.44 394.28 1140.89 394.426C1141.2 394.528 1141.52 394.31 1141.85 394.261C1142.35 394.188 1142.81 394.501 1143.25 394.741C1143.69 394.981 1144.27 395.143 1144.65 394.816C1145.01 394.511 1144.99 393.954 1144.89 393.493C1144.75 392.832 1144.52 392.195 1144.2 391.598C1144.09 391.422 1144.02 391.219 1144.01 391.008C1144.06 390.708 1144.24 390.445 1144.5 390.287C1145.04 389.855 1145.66 389.419 1145.83 388.745C1145.96 388.251 1145.82 387.729 1145.83 387.217C1145.84 386.595 1146.08 385.976 1145.97 385.364C1145.76 384.256 1144.54 383.722 1143.76 382.923C1142.68 381.825 1142.33 380.068 1141.05 379.21C1140.03 378.524 1138.7 378.606 1137.53 378.213C1136.26 377.782 1135.23 376.791 1133.97 376.311C1132.58 375.791 1131.03 375.928 1129.75 376.685C1129.38 376.967 1128.96 377.184 1128.51 377.327C1128.14 377.371 1127.76 377.367 1127.38 377.314C1126.64 377.275 1125.9 377.43 1125.23 377.764C1124.97 377.867 1124.76 378.057 1124.63 378.3C1124.4 378.807 1124.73 379.599 1124.23 379.842C1124 379.955 1123.73 379.846 1123.48 379.852C1122.98 379.863 1122.59 380.302 1122.36 380.745C1122.17 381.214 1121.91 381.646 1121.58 382.021C1120.97 382.56 1119.86 382.649 1119.7 383.452C1119.7 383.792 1119.72 384.132 1119.76 384.469C1119.71 385.181 1118.96 385.721 1119 386.433C1119.05 387.254 1120.08 387.655 1120.35 388.429C1120.56 389.018 1120.29 389.655 1120.1 390.251C1119.91 390.847 1119.85 391.611 1120.34 391.992C1120.53 392.142 1120.78 392.203 1120.97 392.348C1121.48 392.721 1121.48 393.476 1121.42 394.108C1121.35 394.375 1121.42 394.658 1121.6 394.862C1121.77 394.966 1121.98 394.991 1122.17 394.931C1122.78 394.78 1123.31 394.378 1123.62 393.821C1123.79 393.547 1123.82 393.306 1124.12 393.161C1124.32 393.062 1124.56 393.15 1124.77 393.023C1125.74 392.414 1125.41 390.679 1126.61 390.166Z" fill="#2F2E41"/>
<path id="Path_97" d="M1100.48 423L1099.1 424.445C1099.1 424.445 1090.8 450.458 1093.56 456.238C1096.33 462.019 1101.86 476.47 1103.7 475.988C1105.55 475.507 1112 471.171 1112 470.689C1112 470.208 1104.16 456.72 1104.16 456.72C1104.16 456.72 1103.24 453.83 1103.7 453.348C1104.16 452.866 1104.16 453.348 1103.7 452.384C1103.24 451.421 1103.24 452.384 1104.16 451.421C1105.09 450.458 1105.09 450.458 1105.09 449.976C1105.09 449.494 1107.85 437.451 1107.85 437.451L1100.48 423Z" fill="#D0CDE1"/>
<path id="Path_98" d="M1107 478.917L1117.56 476L1119 478.917L1107.48 481L1107 478.917Z" fill="#2F2E41"/>
<path id="Path_99" opacity="0.1" d="M1107 478.917L1117.56 476L1119 478.917L1107.48 481L1107 478.917Z" fill="black"/>
<path id="Path_100" opacity="0.1" d="M1122 408L1130.05 415L1131 413.5L1122 408Z" fill="black"/>
<path id="Path_101" opacity="0.1" d="M1137 409L1132 412.5L1132.42 414L1137 409Z" fill="black"/>
</g>
<g id="Group">
<path id="Vector" d="M259.838 345.639C244.385 345.551 228.389 342.527 213.13 335.918C205.793 332.737 198.922 328.722 192.278 324.27C188.825 321.956 185.792 319.186 182.672 316.487C181.856 315.785 181.681 315.023 182.26 314.05C182.637 313.419 182.935 313.252 183.671 313.638C187.343 315.566 191.007 317.521 194.75 319.291C207.906 325.532 221.658 329.827 236.041 332.193C252.791 334.946 269.532 335.217 286.308 332.623C297.08 330.958 307.589 328.249 317.774 324.34C319.299 323.753 320.798 323.069 322.306 322.429C323.209 322.044 324.085 321.982 324.97 322.517C326.662 323.525 326.863 324.682 325.452 326.058C322.919 328.53 319.808 330.169 316.722 331.817C306.091 337.522 294.766 341.195 282.942 343.474C275.676 344.876 268.366 345.648 259.838 345.639Z" fill="#23A0DB"/>
<path id="Vector_2" d="M176.133 282.575C176.133 278.149 176.168 273.723 176.116 269.305C176.098 268.148 176.58 267.736 177.641 267.745C178.842 267.754 180.043 267.745 181.243 267.736C182.383 267.728 183.356 267.745 183.584 269.305C183.768 270.559 184.749 269.971 185.363 269.621C187.957 268.122 190.701 267.088 193.69 266.842C196.564 266.597 199.29 267.018 201.324 269.332C202.192 270.322 202.954 270.322 203.98 269.621C206.723 267.745 209.826 266.93 213.095 266.79C218.494 266.562 222.088 269.621 222.272 275.011C222.509 282.102 222.368 289.21 222.412 296.31C222.421 297.265 221.991 297.528 221.115 297.511C219.152 297.467 217.18 297.414 215.216 297.493C214.007 297.546 213.761 297.002 213.752 295.951C213.717 290.376 213.639 284.81 213.577 279.236C213.568 278.85 213.577 278.473 213.568 278.088C213.463 273.916 212.525 273.109 208.362 273.574C203.646 274.1 203.638 274.152 203.655 278.815C203.682 284.442 203.603 290.069 203.655 295.696C203.664 297.029 203.261 297.572 201.893 297.511C200.149 297.423 198.396 297.397 196.652 297.493C195.285 297.572 194.846 297.073 194.855 295.723C194.882 290.043 194.829 284.363 194.803 278.675C194.803 278.456 194.803 278.237 194.803 278.018C194.741 273.872 193.847 273.083 189.763 273.6C184.653 274.24 184.749 274.24 184.819 279.411C184.89 284.977 184.741 290.551 184.749 296.126C184.749 297.23 184.32 297.555 183.294 297.511C181.497 297.441 179.683 297.362 177.886 297.441C176.519 297.502 176.081 297.02 176.107 295.679C176.168 291.314 176.133 286.94 176.133 282.567C176.116 282.575 176.125 282.575 176.133 282.575Z" fill="#23A0DB"/>
<path id="Vector_3" d="M271.557 282.636C271.557 278.272 271.592 273.898 271.531 269.533C271.513 268.244 271.82 267.587 273.24 267.666C274.599 267.736 275.966 267.675 277.333 267.64C278.236 267.613 278.771 267.981 278.911 268.911C279.148 270.392 279.919 270.33 280.997 269.656C283.916 267.824 287.054 266.632 290.559 266.728C293.11 266.798 295.433 267.447 297.133 269.507C297.896 270.436 298.614 270.12 299.421 269.629C302.322 267.885 305.407 266.719 308.843 266.728C314.488 266.746 317.608 269.542 317.74 275.16C317.906 282.093 317.766 289.026 317.783 295.968C317.783 297.116 317.415 297.677 316.179 297.624C314.488 297.554 312.787 297.528 311.104 297.624C309.474 297.712 309.115 296.976 309.124 295.486C309.15 289.482 309.097 283.469 309.018 277.465C308.975 274.213 308.081 273.433 304.82 273.574C304.767 273.574 304.715 273.574 304.654 273.582C299.307 273.889 299.035 274.187 299.026 279.472C299.018 284.933 298.974 290.393 298.991 295.854C298.991 297.046 298.676 297.677 297.317 297.607C295.573 297.511 293.82 297.537 292.076 297.589C290.7 297.633 290.34 297.011 290.34 295.714C290.367 289.981 290.332 284.249 290.27 278.508C290.218 273.793 289.315 273.048 284.643 273.67C280.217 274.257 280.094 274.397 280.094 278.824C280.094 284.451 280.033 290.078 280.094 295.696C280.112 297.204 279.586 297.738 278.113 297.651C276.483 297.546 274.835 297.563 273.196 297.607C271.96 297.642 271.496 297.239 271.522 295.907C271.618 291.489 271.566 287.063 271.557 282.636Z" fill="#293340"/>
<path id="Vector_4" d="M109.555 295.477C109.555 299.895 109.511 303.979 109.581 308.072C109.598 309.308 109.151 309.729 107.977 309.676C106.233 309.606 104.48 309.58 102.735 309.597C101.421 309.615 101 309.089 101 307.739C101.053 296.757 101.026 285.783 101.018 274.801C101.018 272.89 101.07 270.979 101.009 269.068C100.974 268.052 101.394 267.692 102.341 267.701C103.542 267.71 104.743 267.683 105.943 267.64C107.1 267.596 108.021 267.631 108.275 269.182C108.503 270.576 109.476 269.699 109.993 269.34C112.175 267.841 114.594 267.079 117.206 266.938C123.088 266.623 127.102 269.252 129.232 274.757C131.344 280.217 130.906 285.73 128.732 291.06C126.672 296.099 121.308 298.834 115.918 297.94C113.692 297.563 111.606 296.862 109.555 295.477ZM109.511 282.584C109.528 282.584 109.546 282.584 109.572 282.584C109.572 283.679 109.414 284.801 109.607 285.853C109.896 287.413 108.485 289.456 110.291 290.481C111.702 291.279 113.508 291.454 115.208 291.585C117.513 291.77 119.555 291.182 120.563 288.956C122.413 284.88 122.457 280.682 120.721 276.554C119.853 274.476 118.258 273.337 115.83 273.451C114.069 273.53 112.368 273.74 110.676 274.257C109.791 274.529 109.467 274.941 109.493 275.87C109.555 278.105 109.511 280.349 109.511 282.584Z" fill="#23A0DB"/>
<path id="Vector_5" d="M352.291 282.443C352.291 286.922 352.247 291.392 352.317 295.871C352.335 297.239 351.809 297.747 350.511 297.694C349.696 297.659 348.872 297.712 348.057 297.756C346.471 297.843 345.156 297.616 344.665 295.731C344.358 294.565 343.649 295.012 342.939 295.538C339.766 297.87 336.181 298.79 332.28 298.457C328.222 298.106 325.575 295.565 324.997 291.515C324.848 290.49 324.821 289.447 324.821 288.412C324.804 282.242 324.874 276.071 324.769 269.91C324.743 268.157 325.374 267.578 327.004 267.631C328.582 267.683 330.168 267.648 331.754 267.587C333.052 267.534 333.56 267.946 333.543 269.366C333.481 275.098 333.7 280.831 333.543 286.563C333.402 291.761 336.181 292.462 340.107 291.541C343.859 290.665 343.815 290.612 343.78 286.782C343.727 280.997 343.771 275.212 343.692 269.428C343.675 268.165 344.096 267.613 345.349 267.622C347.207 267.639 349.065 267.648 350.915 267.587C352.089 267.552 352.361 268.095 352.352 269.182C352.299 273.6 352.335 278.026 352.335 282.443C352.317 282.443 352.3 282.443 352.291 282.443Z" fill="#293340"/>
<path id="Vector_6" d="M240.993 285.362C240.003 285.292 238.425 285.204 236.848 285.073C235.726 284.976 235.568 285.406 235.892 286.414C237.075 290.095 239.188 291.76 243.088 291.997C246.024 292.172 248.856 291.55 251.66 290.84C252.958 290.507 253.256 290.928 253.361 292.129C253.729 296.125 253.317 296.695 249.399 297.607C245.463 298.527 241.563 298.895 237.593 297.712C233.052 296.353 229.993 293.54 228.626 288.982C227.364 284.792 227.259 280.524 228.652 276.396C230.738 270.243 235.761 266.973 242.816 266.763C245.919 266.675 248.803 267.403 251.283 269.278C254.15 271.452 255.193 274.467 254.684 277.964C254.176 281.427 251.95 283.443 248.715 284.433C246.393 285.16 244 285.362 240.993 285.362ZM240.415 279.928C241.668 279.858 242.773 279.884 243.842 279.717C245.586 279.446 246.918 277.815 246.84 276.203C246.752 274.458 245.428 273.135 243.588 272.916C238.846 272.337 237.242 274.853 235.805 278.49C235.507 279.235 235.866 279.49 236.523 279.551C237.873 279.682 239.223 279.814 240.415 279.928Z" fill="#23A0DB"/>
<path id="Vector_7" d="M368.848 298.641C365.569 298.492 362.993 298.194 360.486 297.282C358.856 296.686 358.146 295.784 358.146 294.039C358.146 290.56 358.084 290.516 361.441 291.34C363.948 291.953 366.464 292.409 369.049 292.26C369.487 292.234 369.926 292.225 370.355 292.155C371.766 291.909 373.274 290.577 373.283 289.438C373.3 288.009 372.196 287.334 371.1 286.861C369.049 285.958 366.928 285.248 364.868 284.372C361.169 282.811 358.444 280.419 358.312 276.045C358.181 271.829 360.714 268.691 365.28 267.359C369.654 266.079 373.922 266.684 378.147 268.113C378.875 268.358 379.146 268.805 379.243 269.55C379.848 274.196 379.76 274.292 375.202 273.573C372.713 273.179 370.224 272.793 367.761 273.705C367.095 273.95 366.376 274.134 366.341 275.054C366.306 275.957 366.367 276.764 367.252 277.342C368.926 278.42 370.811 278.999 372.617 279.761C373.817 280.27 375.009 280.813 376.193 281.365C379.699 283.004 381.373 285.783 381.101 289.639C380.82 293.627 378.489 296.108 374.948 297.58C372.792 298.457 370.522 298.755 368.848 298.641Z" fill="#293340"/>
<path id="Vector_8" d="M409.569 282.54C409.569 283.25 409.534 283.96 409.578 284.67C409.841 289.017 412.146 291.331 416.52 291.594C418.44 291.708 420.333 291.427 422.209 290.998C423.471 290.709 424.251 290.937 423.926 292.488C423.856 292.804 423.874 293.137 423.865 293.47C423.751 296.599 423.585 296.73 420.464 297.563C417.335 298.396 414.197 298.387 411.042 297.8C406.475 296.949 403.53 294.057 401.988 289.876C400.068 284.67 399.989 279.367 402.601 274.31C406.283 267.175 414.416 266.027 420.315 267.674C424.514 268.849 423.672 267.937 423.69 272.215C423.699 274.581 423.646 274.537 421.323 274.125C418.843 273.678 416.354 273.503 413.873 274.292C411.112 275.177 409.955 277.237 409.657 279.937C409.561 280.804 409.543 281.681 409.491 282.549C409.508 282.54 409.534 282.54 409.569 282.54Z" fill="#293340"/>
<path id="Vector_9" d="M136.384 282.444C136.384 278.079 136.41 273.705 136.366 269.34C136.358 268.315 136.708 267.833 137.751 267.815C138.952 267.797 140.153 267.666 141.354 267.675C143.597 267.675 143.676 267.789 144.036 270.024C144.123 270.576 143.887 271.382 144.605 271.575C145.245 271.75 145.701 271.111 146.034 270.637C148.173 267.596 151.372 267.535 154.606 267.464C155.544 267.447 155.851 267.841 155.833 268.735C155.789 270.48 155.754 272.233 155.825 273.977C155.86 275.011 155.421 275.309 154.483 275.292C151.81 275.256 149.146 275.292 146.49 275.782C145.315 276.001 145 276.405 145.009 277.562C145.07 283.566 144.991 289.578 145.07 295.582C145.087 297.055 144.562 297.511 143.185 297.441C141.389 297.344 139.583 297.3 137.778 297.327C136.682 297.344 136.375 296.897 136.384 295.872C136.401 291.401 136.384 286.923 136.384 282.444Z" fill="#23A0DB"/>
<path id="Vector_10" d="M323.533 316.688C319.939 317.004 316.355 317.337 312.761 317.635C312.086 317.687 311.218 318.003 310.859 317.161C310.447 316.197 311.236 315.663 311.902 315.189C315.426 312.682 319.449 311.543 323.673 311.035C327.924 310.526 332.167 310.465 336.4 311.271C339.661 311.894 340.59 312.796 340.309 316.127C339.661 323.858 337.32 330.975 332.114 336.944C331.237 337.943 330.194 338.723 329.037 339.363C327.968 339.968 327.644 339.503 327.793 338.469C328.012 337.005 328.573 335.629 329.073 334.244C330.527 330.186 332.131 326.18 332.727 321.868C333.148 318.835 332.412 317.757 329.406 317.196C328.652 317.056 327.898 316.925 327.135 316.89C325.935 316.837 324.734 316.872 323.533 316.872C323.542 316.828 323.542 316.758 323.533 316.688Z" fill="#23A0DB"/>
<path id="Vector_11" d="M168.621 282.619C168.621 287.036 168.586 291.463 168.648 295.88C168.665 296.993 168.332 297.467 167.184 297.44C165.326 297.397 163.468 297.432 161.618 297.458C160.637 297.475 160.119 297.134 160.111 296.047C160.049 287.045 159.909 278.035 160.119 269.033C160.137 268.113 160.461 267.64 161.478 267.675C163.389 267.745 165.3 267.745 167.21 267.736C168.227 267.727 168.63 268.095 168.613 269.191C168.551 273.67 168.586 278.14 168.586 282.619C168.595 282.619 168.604 282.619 168.621 282.619Z" fill="#23A0DB"/>
<path id="Vector_12" d="M394.932 282.54C394.932 286.966 394.888 291.393 394.958 295.81C394.976 297.107 394.45 297.572 393.249 297.563C391.391 297.546 389.533 297.563 387.675 297.554C386.789 297.554 386.281 297.248 386.255 296.213C386.018 287.203 386.202 278.193 386.255 269.174C386.263 268.087 386.789 267.754 387.78 267.762C389.743 267.78 391.715 267.789 393.678 267.719C394.739 267.684 394.941 268.157 394.932 269.095C394.897 273.574 394.914 278.052 394.914 282.531C394.923 282.54 394.932 282.54 394.932 282.54Z" fill="#293340"/>
<path id="Vector_13" d="M390.453 263.108C387.964 263.257 385.799 261.382 385.615 258.927C385.413 256.201 387.289 254.282 390.374 254.054C393.083 253.852 395.335 255.772 395.51 258.428C395.686 261.154 393.793 262.907 390.453 263.108Z" fill="#293340"/>
<path id="Vector_14" d="M164.344 263.126C161.548 263.143 159.488 261.276 159.453 258.708C159.41 255.789 161.189 254.071 164.283 254.001C167.035 253.94 169.305 256.105 169.279 258.761C169.253 261.302 167.21 263.108 164.344 263.126Z" fill="#23A0DB"/>
</g>
</g>
</svg>
