<svg width="1200" height="600" viewBox="0 0 1200 600" fill="none" xmlns="http://www.w3.org/2000/svg">
<g id="music_branding_hero" clip-path="url(#clip0)">
<rect width="1200" height="600" fill="#3D0ACF" fill-opacity="0.02"/>
<g id="undraw_media_player_ylg8">
<path id="Path" d="M849.353 600H845.879C844.289 600 843 598.783 843 597.281V588H849.353L851.907 596.843C852.124 597.594 851.957 598.398 851.457 599.018C850.956 599.637 850.178 600 849.353 600H849.353Z" fill="#605D82"/>
<rect id="Rectangle" x="668" y="377" width="389" height="147" rx="6.61221" fill="#F2F2F2"/>
<rect id="Rectangle_2" x="626" y="274" width="527" height="286" rx="6.8189" fill="white" fill-opacity="0.9" stroke="#3F3D56" stroke-width="0.5"/>
<path id="Path_2" d="M624 294.5H1151" stroke="#3F3D56" stroke-width="0.5"/>
<path id="Path_3" d="M624 329.5H1151" stroke="#3F3D56" stroke-width="0.5"/>
<circle id="Oval" cx="637" cy="286" r="6" fill="#3D0ACF" fill-opacity="0.2"/>
<circle id="Oval_2" cx="654" cy="286" r="6" fill="#3D0ACF" fill-opacity="0.5"/>
<circle id="Oval_3" cx="671" cy="286" r="6" fill="#3D0ACF"/>
<circle id="Oval_4" cx="639" cy="284" r="6" stroke="#3F3D56" stroke-width="0.5"/>
<circle id="Oval_5" cx="655" cy="284" r="6" stroke="#3F3D56" stroke-width="0.5"/>
<circle id="Oval_6" cx="673" cy="284" r="6" stroke="#3F3D56" stroke-width="0.5"/>
<circle id="Oval_7" cx="748" cy="314" r="11" fill="#F2F2F2"/>
<circle id="Oval_8" cx="750" cy="312" r="11" stroke="#3F3D56" stroke-width="0.5"/>
<rect id="Rectangle_3" x="901" y="309" width="54" height="15" rx="2.71162" fill="#3D0ACF"/>
<rect id="Rectangle_4" x="978" y="309" width="54" height="15" rx="2.71162" fill="#3D0ACF"/>
<rect id="Rectangle_5" x="905" y="304" width="54" height="15" rx="2.11122" stroke="#3F3D56" stroke-width="0.5"/>
<rect id="Rectangle_6" x="982" y="304" width="54" height="15" rx="2.11122" stroke="#3F3D56" stroke-width="0.5"/>
<rect id="Rectangle_7" x="687" y="365" width="389" height="147" rx="8.00197" fill="white" fill-opacity="0.9" stroke="#3F3D56" stroke-width="0.5"/>
<path id="Shape" d="M845.952 423.76L846.102 423.56L845.702 423.258V423.76H845.952ZM868.472 440.744L868.614 440.95L868.898 440.753L868.622 440.545L868.472 440.744ZM871.332 474.22C884.237 467.257 891.977 453.422 891.196 438.718L890.697 438.744C891.467 453.257 883.828 466.909 871.095 473.78L871.332 474.22ZM891.196 438.718C890.415 424.013 881.255 411.086 867.686 405.544L867.497 406.007C880.886 411.475 889.926 424.232 890.697 438.744L891.196 438.718ZM867.686 405.544C854.118 400.002 838.587 402.844 827.83 412.837L828.17 413.204C838.785 403.343 854.109 400.538 867.497 406.007L867.686 405.544ZM846.202 430.186V423.76H845.702V430.186H846.202ZM845.801 423.959L868.321 440.944L868.622 440.545L846.102 423.56L845.801 423.959ZM868.329 440.539L863.145 444.136L863.43 444.547L868.614 440.95L868.329 440.539Z" fill="#3F3D56"/>
<path id="Shape_2" fill-rule="evenodd" clip-rule="evenodd" d="M812 445C812 424.565 828.565 408 849 408C869.431 408.009 885.991 424.569 886 445C886 465.435 869.435 482 849 482C828.565 482 812 465.435 812 445ZM863.8 445L841.6 428.35V461.65L863.8 445Z" fill="#052B50"/>
<path id="Path_4" d="M834.774 510.399C834.774 510.399 828.175 533.426 827.888 543.5C827.601 553.575 826.454 569.694 827.315 573.723C828.175 577.753 830.757 585.813 830.757 585.813C830.757 585.813 836.208 579.192 838.216 582.934C838.216 582.934 837.929 575.162 836.495 572.86C836.495 572.86 837.069 560.771 837.069 556.453C837.069 552.135 844.241 532.274 844.815 531.987C845.388 531.699 847.11 537.456 845.675 550.12C844.241 562.785 843.093 584.955 843.093 587.258C843.093 589.561 846.536 594.166 848.831 592.727C851.126 591.288 852.561 578.904 852.561 578.904C852.561 578.904 854.569 552.999 855.716 550.12C856.864 547.242 862.889 514.141 858.298 511.55C853.708 508.959 834.774 510.399 834.774 510.399Z" fill="#46455B"/>
<path id="Path_5" d="M838.837 584.897C838.562 586.085 837.461 591.727 837.461 593.509C837.461 595.291 838.562 598.558 833.883 599.746C829.325 600.904 829.991 597.833 829.265 596.028C829.246 595.98 829.226 595.933 829.204 595.885C828.379 594.103 830.305 584.897 830.58 584.897C830.742 584.897 832.044 582.539 833.09 580.594C833.534 579.755 834.309 579.18 835.195 579.036C836.08 578.891 836.979 579.192 837.633 579.853C838.51 580.77 839.004 582.034 838.999 583.353C839.008 583.873 838.953 584.392 838.837 584.897Z" fill="#605D82"/>
<path id="Path_6" opacity="0.1" d="M838.832 585.414C838.55 586.561 837.419 592.011 837.419 593.731C837.419 595.452 838.55 598.607 833.744 599.754C829.062 600.873 829.746 597.907 829 596.164C829.811 594.024 831.782 589.427 833.178 585.414C834.411 581.869 837.441 583.025 838.999 583.923C839.008 584.425 838.952 584.926 838.832 585.414Z" fill="black"/>
<circle id="Oval_9" cx="847.5" cy="458.5" r="6.5" fill="#FBBEBE"/>
<path id="Path_7" d="M842.833 458.098L842 468.169L852 470C852 470 850.889 461.15 851.722 459.318C852.556 457.487 842.833 458.098 842.833 458.098Z" fill="#FBBEBE"/>
<path id="Path_8" d="M850.612 466.39C850.612 466.39 841.686 465.512 841.091 466.39C840.702 467.112 840.498 467.916 840.496 468.733C840.496 468.733 836.926 470.197 836.331 469.612C835.736 469.026 835.14 467.269 833.355 467.855C831.57 468.44 828 478.982 828 478.982C828 478.982 828.893 475.761 830.38 488.06C831.868 500.359 831.57 507.972 831.868 508.851C832.165 509.729 830.38 515 841.091 515C851.802 515 859.537 514.414 859.537 512.365C859.537 510.315 857.752 501.53 859.537 495.088C861.322 488.645 864 479.861 864 479.861L860.43 468.44C860.43 468.44 856.86 467.562 855.967 469.026C855.074 470.49 852.694 470.197 852.694 470.197C852.694 470.197 852.397 466.683 850.612 466.39Z" fill="#605D82"/>
<path id="Path_9" d="M835 470.112L827.539 466.877C827.539 466.877 813.514 456.288 814.11 446.876C814.11 446.876 809.336 442.465 809.037 447.171C808.739 451.876 810.231 462.465 813.812 465.994C817.393 469.524 829.628 480.7 831.419 480.994C833.209 481.288 835 470.112 835 470.112Z" fill="#605D82"/>
<path id="Path_10" d="M808.657 447C808.657 447 803.091 432.456 808.071 433.016C813.052 433.575 811.88 439.728 811.88 439.728V447L808.657 447Z" fill="#FBBEBE"/>
<path id="Path_11" d="M859 470.112L866.461 466.877C866.461 466.877 880.487 456.288 879.89 446.876C879.89 446.876 884.664 442.465 884.963 447.171C885.261 451.876 883.769 462.465 880.188 465.994C876.607 469.524 864.372 480.7 862.581 480.994C860.791 481.288 859 470.112 859 470.112Z" fill="#605D82"/>
<path id="Path_12" d="M884.343 447C884.343 447 889.909 432.456 884.929 433.016C879.948 433.575 881.12 439.728 881.12 439.728V447L884.343 447Z" fill="#FBBEBE"/>
<path id="Path_13" d="M852.588 450.505L853.437 449.935C853.437 449.935 848.058 446.801 845.794 448.51C843.529 450.22 842.963 451.645 842.397 452.215C841.831 452.785 840.416 455.919 841.265 457.059C842.114 458.199 841.831 458.433 842.397 459.456C842.963 460.479 841.408 464.595 845.724 465.814C850.04 467.033 853.437 461.904 854.003 460.764C854.569 459.624 856.55 451.93 852.588 450.505Z" fill="#46455B"/>
<path id="Path_14" d="M1077 533C1077 565.059 1097.13 591 1122 591L1077 533Z" fill="#46455B"/>
<path id="Path_15" d="M1122 592C1122 559.389 1144.36 533 1172 533L1122 592Z" fill="#052B50"/>
<path id="Path_16" d="M1092 537C1092 567.4 1105.42 592 1122 592L1092 537Z" fill="#052B50"/>
<path id="Path_17" d="M1122 592C1122 549.992 1148.39 516 1181 516L1122 592Z" fill="#46455B"/>
<path id="Path_18" d="M1112 592.432C1112 592.432 1118.45 592.236 1120.39 590.873C1122.34 589.51 1130.32 587.883 1130.8 590.069C1131.28 592.255 1140.49 600.94 1133.21 600.998C1125.93 601.056 1116.29 599.881 1114.35 598.717C1112.41 597.554 1112 592.432 1112 592.432Z" fill="#A8A8A8"/>
<path id="Path_19" opacity="0.2" d="M1133.34 600.199C1126.06 600.26 1116.42 599.027 1114.48 597.806C1113 596.876 1112.41 593.539 1112.22 592C1112.08 592.006 1112 592.009 1112 592.009C1112 592.009 1112.41 597.384 1114.35 598.605C1116.29 599.826 1125.93 601.059 1133.21 600.998C1135.31 600.98 1136.04 600.208 1136 599.063C1135.71 599.755 1134.9 600.186 1133.34 600.199Z" fill="black"/>
<path id="Path_20" d="M775 599.5H905" stroke="#3F3D56" stroke-width="0.5"/>
<path id="Path_21" d="M1104 599.5H1145" stroke="#3F3D56" stroke-width="0.5"/>
</g>
<g id="Frame" clip-path="url(#clip1)">
<g id="x36 FuVki.tif 1">
<g id="Group">
<path id="Vector" d="M324 322.491C323.268 323.501 323.441 324.739 323.177 325.864C321.438 333.242 318.501 339.998 313.075 345.481C312.469 346.094 311.793 346.662 311.071 347.129C310.548 347.464 309.9 347.695 309.279 347.199C308.647 346.694 308.797 346.01 308.993 345.433C309.423 344.163 310 342.941 310.468 341.682C312.132 337.2 313.837 332.728 314.728 328.008C314.923 326.978 315.046 325.921 315.055 324.875C315.076 322.58 314.185 321.482 311.953 320.972C308.832 320.261 305.667 320.289 302.487 320.44C298.489 320.63 294.518 321.07 290.547 321.543C289.967 321.613 289.408 321.45 289.08 320.902C288.762 320.372 289.001 319.897 289.287 319.433C289.64 318.865 290.194 318.527 290.726 318.176C294.388 315.75 298.473 314.389 302.755 313.628C307.997 312.696 313.266 312.612 318.517 313.617C319.506 313.807 320.459 314.167 321.438 314.412C322.759 314.742 323.402 315.754 324 316.832C324 318.72 324 320.605 324 322.491Z" fill="#3D0ACF"/>
<path id="Vector_2" d="M281.427 246C281.754 246.072 282.054 246.235 282.134 246.26C284.427 246.98 285.275 248.621 285.216 250.906C285.159 253.034 283.777 254.808 281.677 255.082C277.319 255.648 275.337 252.986 275.999 249.316C276.221 248.076 276.987 247.17 278.133 246.568C278.429 246.412 279.061 246.179 279.592 245.998C280.574 246 280.443 246 281.427 246Z" fill="#3D0ACF"/>
<path id="Vector_3" d="M231.673 354.973C210.108 354.814 191.357 350.791 173.508 342.689C160.829 336.932 149.354 329.341 139.007 320.053C138.639 319.722 138.271 319.365 138.127 318.894C137.939 318.271 137.898 317.603 138.425 317.101C138.948 316.603 139.582 316.369 140.296 316.693C140.978 317.003 141.664 317.318 142.314 317.689C157.976 326.611 174.67 332.866 192.246 336.823C198.742 338.286 205.309 339.354 211.933 340.12C220.289 341.084 228.661 341.485 237.06 341.297C244.161 341.138 251.219 340.47 258.255 339.445C273.485 337.224 288.194 333.192 302.385 327.256C303.067 326.971 303.763 326.69 304.556 326.718C305.906 326.765 307.004 327.354 307.42 328.368C307.861 329.441 307.572 330.74 306.47 331.601C304.926 332.805 303.315 333.93 301.669 334.992C289.435 342.9 276.04 348.007 261.896 351.314C256.32 352.618 250.685 353.587 245.002 354.203C239.927 354.746 234.83 355.104 231.673 354.973Z" fill="#3D0ACF"/>
<path id="Vector_4" d="M146.67 265.281C148.284 264.297 149.836 263.316 151.516 262.576C155.389 260.871 159.383 259.993 163.618 260.883C166.146 261.413 168.112 262.757 169.394 265.014C169.683 265.521 169.819 265.709 170.444 265.277C173.727 263.006 177.275 261.195 181.294 260.813C184.497 260.509 187.793 260.179 190.727 262.187C193.344 263.977 194.748 266.465 194.939 269.544C195.369 276.472 195.037 283.413 195.119 290.347C195.146 292.722 195.142 295.099 195.117 297.473C195.103 298.936 194.68 299.346 193.207 299.377C191.959 299.405 190.707 299.407 189.459 299.377C188.002 299.341 187.59 298.906 187.59 297.442C187.588 289.448 187.588 281.454 187.599 273.461C187.602 272.358 187.429 271.285 187.129 270.239C186.504 268.071 184.874 266.753 182.592 266.651C178.591 266.472 174.959 267.692 171.519 269.637C170.976 269.945 171.103 270.371 171.103 270.789C171.099 278.443 171.103 286.098 171.103 293.752C171.103 295.033 171.11 296.317 171.101 297.598C171.092 298.859 170.694 299.321 169.435 299.368C168.073 299.42 166.707 299.414 165.346 299.373C164.048 299.334 163.627 298.884 163.584 297.546C163.552 296.604 163.577 295.66 163.577 294.718C163.577 287.857 163.584 280.993 163.575 274.131C163.573 272.779 163.502 271.441 163.088 270.122C162.404 267.939 160.859 266.807 158.683 266.669C154.694 266.418 151.025 267.554 147.597 269.556C146.988 269.911 147.122 270.439 147.122 270.943C147.118 279.541 147.122 288.137 147.12 296.735C147.12 297.186 147.07 297.636 147.049 298.087C147.015 298.863 146.554 299.266 145.831 299.318C144.169 299.436 142.503 299.454 140.844 299.309C139.987 299.235 139.63 298.691 139.63 297.84C139.641 286.265 139.644 274.688 139.639 263.113C139.639 262.232 140.073 261.725 140.898 261.682C142.18 261.614 143.471 261.625 144.756 261.675C145.501 261.702 146.017 262.092 146.156 262.9C146.29 263.661 146.481 264.412 146.67 265.281Z" fill="#3D0ACF"/>
<path id="Vector_5" d="M236.317 280.46C236.317 286.077 236.319 291.693 236.317 297.312C236.317 298.897 235.892 299.341 234.328 299.377C233.496 299.395 232.662 299.4 231.83 299.375C230.366 299.329 229.961 298.983 229.673 297.588C229.252 295.556 229.25 295.549 227.515 296.635C223.228 299.32 218.634 300.749 213.495 300.378C208.73 300.033 204.918 296.472 204.407 291.752C204.236 290.172 204.202 288.599 204.202 287.019C204.202 279.29 204.205 271.561 204.207 263.834C204.207 262.046 204.612 261.636 206.396 261.627C207.494 261.62 208.592 261.616 209.69 261.629C211.256 261.65 211.715 262.098 211.722 263.669C211.736 266.798 211.722 269.926 211.729 273.055C211.74 278.031 211.658 283.009 211.804 287.981C211.924 292.085 213.779 294.376 218.246 294.39C220.146 294.396 221.978 293.984 223.769 293.382C223.876 293.346 223.979 293.303 224.085 293.264C228.791 291.544 228.791 291.544 228.791 286.625C228.791 279.084 228.791 271.545 228.793 264.004C228.793 261.996 229.163 261.629 231.173 261.627C232.232 261.625 233.294 261.611 234.353 261.632C235.853 261.659 236.308 262.118 236.31 263.613C236.315 269.229 236.312 274.846 236.312 280.465C236.312 280.46 236.315 280.46 236.317 280.46Z" fill="#3D0ACF"/>
<path id="Vector_6" d="M256.136 300.489C252.02 300.464 248.442 299.882 244.991 298.544C243.691 298.041 243.048 297.211 243.152 295.807C243.202 295.132 243.143 294.449 243.204 293.774C243.302 292.69 243.741 292.38 244.789 292.665C247.035 293.274 249.265 293.966 251.583 294.24C253.909 294.514 256.241 294.811 258.582 294.354C260.839 293.912 263.053 292.846 263.392 289.896C263.572 288.339 262.896 286.629 261.594 285.819C259.657 284.615 257.48 284.006 255.395 283.161C253.172 282.26 250.849 281.608 248.774 280.349C244.741 277.904 243.118 274.287 243.739 269.723C244.309 265.528 247.023 262.961 250.847 261.578C255.807 259.782 260.785 260.38 265.713 261.865C266.213 262.017 266.699 262.218 267.188 262.402C267.804 262.633 268.261 263.101 268.313 263.715C268.409 264.835 268.438 265.978 268.327 267.097C268.252 267.833 267.654 268.122 266.883 267.934C265.204 267.529 263.537 267.045 261.837 266.769C259.223 266.345 256.584 266.128 253.977 266.884C252.154 267.412 250.919 268.528 250.681 270.463C250.433 272.458 251.224 273.97 253.029 274.937C255.984 276.519 259.196 277.479 262.285 278.74C263.822 279.367 265.32 280.064 266.663 281.047C270.018 283.501 270.63 286.797 270.293 290.786C269.868 295.839 264.544 299.597 259.771 300.197C258.414 300.371 257.061 300.428 256.136 300.489Z" fill="#3D0ACF"/>
<path id="Vector_7" d="M299.653 280.503C299.698 283.682 299.896 286.736 301.48 289.52C302.81 291.856 304.883 293.147 307.438 293.654C310.932 294.347 314.376 293.871 317.781 292.961C319.527 292.495 319.959 292.846 319.972 294.659C319.997 298.175 320 298.331 316.563 299.257C310.862 300.792 305.217 300.713 299.889 297.847C295.527 295.499 293.343 291.533 292.436 286.885C291.499 282.083 291.463 277.234 292.97 272.505C295.095 265.84 299.689 262.044 306.652 261.088C310.368 260.579 314.01 260.844 317.581 262.023C319.297 262.592 319.64 263.044 319.654 264.887C319.659 265.34 319.663 265.793 319.654 266.243C319.615 268.02 319.147 268.392 317.406 267.912C314.312 267.058 311.198 266.771 308.009 267.298C302.474 268.215 300.735 271.697 299.973 275.871C299.694 277.431 299.689 279.014 299.653 280.503Z" fill="#3D0ACF"/>
<path id="Vector_8" d="M284.25 280.56C284.25 286.138 284.252 291.716 284.25 297.296C284.25 298.883 283.83 299.336 282.275 299.37C281.102 299.397 279.927 299.395 278.754 299.37C277.183 299.336 276.751 298.865 276.749 297.185C276.742 291.229 276.749 285.275 276.749 279.319C276.749 274.194 276.747 269.066 276.751 263.941C276.753 262.044 277.176 261.632 279.097 261.627C280.156 261.625 281.218 261.611 282.277 261.629C283.782 261.657 284.241 262.121 284.243 263.597C284.248 269.25 284.246 274.905 284.246 280.557C284.246 280.56 284.248 280.56 284.25 280.56Z" fill="#3D0ACF"/>
</g>
</g>
</g>
</g>
<defs>
<clipPath id="clip0">
<rect width="1200" height="600" fill="white"/>
</clipPath>
<clipPath id="clip1">
<rect width="186" height="109" fill="white" transform="translate(138 246)"/>
</clipPath>
</defs>
</svg>
