<?xml version="1.0" encoding="UTF-8"?>
<svg width="1024px" height="600px" viewBox="0 0 1024 600" version="1.1" xmlns="http://www.w3.org/2000/svg" xmlns:xlink="http://www.w3.org/1999/xlink">
    <!-- Generator: Sketch 58 (84663) - https://sketch.com -->
    <title>one card hero</title>
    <desc>Created with Sketch.</desc>
    <defs>
        <linearGradient x1="49.9831446%" y1="100.014271%" x2="49.9831446%" y2="-0.0285415279%" id="linearGradient-1">
            <stop stop-color="#808080" stop-opacity="0.25" offset="0%"></stop>
            <stop stop-color="#808080" stop-opacity="0.12" offset="54%"></stop>
            <stop stop-color="#808080" stop-opacity="0.1" offset="100%"></stop>
        </linearGradient>
        <linearGradient x1="50%" y1="100%" x2="50%" y2="0%" id="linearGradient-2">
            <stop stop-color="#808080" stop-opacity="0.25" offset="0%"></stop>
            <stop stop-color="#808080" stop-opacity="0.12" offset="54%"></stop>
            <stop stop-color="#808080" stop-opacity="0.1" offset="100%"></stop>
        </linearGradient>
        <linearGradient x1="49.9836601%" y1="100%" x2="49.9836601%" y2="0%" id="linearGradient-3">
            <stop stop-color="#000000" stop-opacity="0.12" offset="0%"></stop>
            <stop stop-color="#000000" stop-opacity="0.09" offset="55%"></stop>
            <stop stop-color="#000000" stop-opacity="0.02" offset="100%"></stop>
        </linearGradient>
        <linearGradient x1="49.9918314%" y1="100.084746%" x2="49.9918314%" y2="0.0847457627%" id="linearGradient-4">
            <stop stop-color="#000000" stop-opacity="0.12" offset="0%"></stop>
            <stop stop-color="#000000" stop-opacity="0.09" offset="55%"></stop>
            <stop stop-color="#000000" stop-opacity="0.02" offset="100%"></stop>
        </linearGradient>
        <linearGradient x1="50%" y1="100%" x2="50%" y2="0%" id="linearGradient-5">
            <stop stop-color="#000000" stop-opacity="0.12" offset="0%"></stop>
            <stop stop-color="#000000" stop-opacity="0.09" offset="55%"></stop>
            <stop stop-color="#000000" stop-opacity="0.02" offset="100%"></stop>
        </linearGradient>
        <linearGradient x1="49.9836601%" y1="100%" x2="49.9836601%" y2="-2.40861944e-13%" id="linearGradient-6">
            <stop stop-color="#000000" stop-opacity="0.12" offset="0%"></stop>
            <stop stop-color="#000000" stop-opacity="0.09" offset="55%"></stop>
            <stop stop-color="#000000" stop-opacity="0.02" offset="100%"></stop>
        </linearGradient>
        <linearGradient x1="50.0081713%" y1="100%" x2="50.0081713%" y2="0%" id="linearGradient-7">
            <stop stop-color="#000000" stop-opacity="0.12" offset="0%"></stop>
            <stop stop-color="#000000" stop-opacity="0.09" offset="55%"></stop>
            <stop stop-color="#000000" stop-opacity="0.02" offset="100%"></stop>
        </linearGradient>
        <linearGradient x1="50.05607%" y1="66.3464826%" x2="50.05607%" y2="32.3464826%" id="linearGradient-8">
            <stop stop-color="#808080" stop-opacity="0.25" offset="0%"></stop>
            <stop stop-color="#808080" stop-opacity="0.12" offset="54%"></stop>
            <stop stop-color="#808080" stop-opacity="0.1" offset="100%"></stop>
        </linearGradient>
        <linearGradient x1="50.007427%" y1="99.9819601%" x2="50.007427%" y2="-0.0133074449%" id="linearGradient-9">
            <stop stop-color="#808080" stop-opacity="0.25" offset="0%"></stop>
            <stop stop-color="#808080" stop-opacity="0.12" offset="54%"></stop>
            <stop stop-color="#808080" stop-opacity="0.1" offset="100%"></stop>
        </linearGradient>
        <linearGradient x1="53.579031%" y1="60.8080742%" x2="50.2928369%" y2="33.0015834%" id="linearGradient-10">
            <stop stop-color="#808080" stop-opacity="0.25" offset="0%"></stop>
            <stop stop-color="#808080" stop-opacity="0.12" offset="54%"></stop>
            <stop stop-color="#808080" stop-opacity="0.1" offset="100%"></stop>
        </linearGradient>
        <linearGradient x1="53.0791199%" y1="99.5099686%" x2="46.8132434%" y2="1.65899766%" id="linearGradient-11">
            <stop stop-color="#808080" stop-opacity="0.25" offset="0%"></stop>
            <stop stop-color="#808080" stop-opacity="0.12" offset="54%"></stop>
            <stop stop-color="#808080" stop-opacity="0.1" offset="100%"></stop>
        </linearGradient>
    </defs>
    <g id="one-card-hero" stroke="none" stroke-width="1" fill="none" fill-rule="evenodd">
        <rect fill="#BF2828" x="0" y="0" width="1024" height="600"></rect>
        <g id="undraw_credit_card_payment_yb88" transform="translate(295.000000, 268.000000)" fill-rule="nonzero">
            <path d="M211.61,330.32 C211.365,330.08 211.11,329.82 210.93,329.615 C210.582028,329.231725 210.339156,328.764928 210.225,328.26 L210.405,328.26 L210.49,327.875 C213.243475,315.084078 209.027262,301.790742 199.405,292.925 C199.425428,292.897249 199.44223,292.867005 199.455,292.835 C201.920865,285.416106 202.074309,277.423068 199.895,269.915 C202.107575,267.112475 204.090663,264.136171 205.825,261.015 C211.94,256.34 218.29,249.575 220.245,240.785 C220.467039,239.83207 220.633983,238.867138 220.745,237.895 C221.245,237.395 221.955,236.31 221.205,234.335 C221.143532,234.174659 221.069988,234.019213 220.985,233.87 C220.96,233.825 220.93,233.78 220.9,233.74 C220.846268,233.651932 220.787851,233.56681 220.725,233.485 L220.61,233.355 C220.551465,233.290279 220.489721,233.228535 220.425,233.17 L220.295,233.06 L220.095,232.92 L219.955,232.835 L219.74,232.73 L219.605,232.67 L219.365,232.59 L219.245,232.555 C219.131667,232.525 219.018333,232.501667 218.905,232.485 L218.905,232.485 C218.142601,232.396666 217.370121,232.473402 216.64,232.71 C216.64,232.71 214.84,235.83 215.545,237.02 C215,237.71 213.545,239.555 211.545,241.925 C211.564625,239.939113 211.365085,237.957122 210.95,236.015 C210.759701,235.055013 210.514295,234.106778 210.215,233.175 C210.48,232.515 210.665,231.235 209.165,229.745 C209.043602,229.623692 208.913233,229.511708 208.775,229.41 L208.645,229.325 C208.559553,229.267027 208.471096,229.213618 208.38,229.165 L208.225,229.095 C208.145,229.06 208.06,229.025 207.98,229 L207.82,228.955 L207.58,228.905 L207.42,228.905 L207.18,228.905 L207.03,228.905 L206.775,228.93 L206.65,228.93 C206.533333,228.95 206.42,228.976667 206.31,229.01 L206.31,229.01 C205.579166,229.2443 204.907297,229.633098 204.34,230.15 C204.34,230.15 203.99,233.735 205.12,234.53 C204.595,236.585 201.95,247.015 198.45,255.515 C197.277538,256.528937 196.04713,257.473864 194.765,258.345 L194.765,257.575 C194.772531,257.433433 194.772531,257.291567 194.765,257.15 L194.765,257.15 C194.750335,257.013969 194.72864,256.878788 194.7,256.745 L194.765,256.71 L195.035,256.56 L195.425,256.32 L195.675,256.16 C195.861667,256.03 196.041667,255.895 196.215,255.755 L196.42,255.58 C196.545,255.475 196.66,255.365 196.78,255.255 L196.95,255.015 C197.093333,254.868333 197.231667,254.715 197.365,254.555 L197.51,254.38 C197.636667,254.223333 197.756667,254.056667 197.87,253.88 L198.015,253.665 C198.118333,253.505 198.216667,253.338333 198.31,253.165 L198.4,253.005 C198.515,252.79 198.62,252.57 198.72,252.345 L198.8,252.145 C198.873333,251.965 198.94,251.78 199,251.59 C199,251.525 199.045,251.46 199.065,251.395 C199.14,251.155 199.205,250.895 199.255,250.655 C199.255,250.605 199.255,250.555 199.28,250.505 C199.32,250.291667 199.353333,250.076667 199.38,249.86 C199.38,249.785 199.38,249.715 199.38,249.64 C199.38,249.375 199.42,249.11 199.42,248.835 C199.420429,247.325039 199.031215,245.840516 198.29,244.525 L198.705,244.415 L199.01,244.32 C199.125,244.28 199.18,244.245 199.165,244.22 C198.95,243.93 198.73,243.655 198.505,243.385 L198.285,243.135 C198.13,242.955 197.97,242.78 197.785,242.635 L197.53,242.375 C197.37,242.22 197.21,242.065 197.03,241.92 L196.78,241.695 C196.58,241.52 196.38,241.36 196.175,241.195 L196.045,241.09 C195.8,240.91 195.545,240.74 195.31,240.59 L195.03,240.42 C194.87,240.32 194.705,240.225 194.53,240.135 L194.205,239.965 L193.75,239.745 L193.415,239.595 C193.255,239.53 193.09,239.465 192.915,239.41 L192.61,239.3 C192.365,239.22 192.11,239.15 191.875,239.085 L191.495,239 L191.09,238.915 L190.68,238.85 L190.305,238.805 L189.885,238.77 L189.52,238.77 L189.1,238.77 C188.866667,238.77 188.635,238.781667 188.405,238.805 L188.405,238.805 C182.965,239.25 178.205,244 178.205,251.545 L178.205,257.815 L186.705,257.815 L186.705,260.655 C183.584758,262.095585 181.586247,265.218258 181.585,268.655 L181.585,292.84 L174.45,325.99 L174.415,325.99 L174.415,326.08 L174.415,326.08 L173.015,332.32 L183.62,334.015 C183.870465,333.917729 184.012666,333.652429 183.955,333.39 C183.935466,333.218568 183.893438,333.050456 183.83,332.89 C183.660165,332.477938 183.457862,332.080019 183.225,331.7 C182.85,331.055 182.405,330.365 182.105,329.74 C181.949976,329.421848 181.83413,329.086061 181.76,328.74 C181.723967,328.561875 181.700576,328.381425 181.69,328.2 L189.495,302.55 L189.46,302.55 L189.645,301.945 C189.645,301.945 199.605,306.215 202.145,314.75 C204.22,321.67 202.93,326.155 202.37,327.605 L202.335,327.605 L202.335,327.69 C202.225,327.965 202.145,328.12 202.145,328.12 L202.335,328.12 L202.335,332.815 L213.1,332.815 C213.92,332.4 212.67,331.355 211.61,330.32 Z" id="Path" fill="url(#linearGradient-1)"></path>
            <path d="M193.81,279.69 C193.81,279.69 212.38,260.165 206.31,241.4 L201.44,242.4 C201.44,242.4 194.905,269.9 187.94,273.845 C180.975,277.79 193.81,279.69 193.81,279.69 Z" id="Path" fill="#94CE51"></path>
            <path d="M193.81,279.69 C193.81,279.69 212.38,260.165 206.31,241.4 L201.44,242.4 C201.44,242.4 194.905,269.9 187.94,273.845 C180.975,277.79 193.81,279.69 193.81,279.69 Z" id="Path" fill="#E3EC66" opacity="0.595410156"></path>
            <path d="M205.57,241.835 L206.38,241.67 C212.43,260.435 193.88,279.96 193.88,279.96 L193.31,279.865 C195.45,277.515 211.215,259.335 205.57,241.835 Z" id="Path" fill="#FFFFFF" opacity="0.2"></path>
            <path d="M206.09,241.89 C206.09,241.89 207.44,240.21 205.325,238.105 C203.21,236 200.62,238.495 200.62,238.495 C200.62,238.495 200.25,242.23 201.495,242.82 C202.74,243.41 206.09,241.89 206.09,241.89 Z" id="Path" fill="#985454"></path>
            <path d="M205.545,242.015 C205.545,242.015 206.895,240.335 204.78,238.23 C204.203657,237.609999 203.365376,237.303311 202.525,237.405 C203.51641,237.078752 204.607043,237.357751 205.32,238.12 C207.435,240.225 206.085,241.905 206.085,241.905 C205.087946,242.350862 204.045063,242.686194 202.975,242.905 C203.854917,242.68029 204.714563,242.382591 205.545,242.015 L205.545,242.015 Z" id="Path" fill="#FFFFFF" opacity="0.2"></path>
            <rect id="Rectangle" fill="url(#linearGradient-2)" x="12.505" y="0" width="401.21" height="243.9" rx="13.75"></rect>
            <rect id="Rectangle" fill="#FFFFFF" x="17.06" y="2.485" width="390.82" height="235.04" rx="13.75"></rect>
            <rect id="Rectangle" fill="#E0E0E0" x="47.58" y="39.38" width="11.39" height="32.34"></rect>
            <rect id="Rectangle" fill="#E0E0E0" x="62.155" y="39.38" width="11.39" height="32.34"></rect>
            <rect id="Rectangle" fill="#E0E0E0" x="76.73" y="39.38" width="11.39" height="32.34"></rect>
            <rect id="Rectangle" fill="#E0E0E0" x="102.24" y="39.38" width="11.39" height="32.34"></rect>
            <rect id="Rectangle" fill="#E0E0E0" x="116.815" y="39.38" width="11.39" height="32.34"></rect>
            <rect id="Rectangle" fill="#E0E0E0" x="131.39" y="39.38" width="11.39" height="32.34"></rect>
            <rect id="Rectangle" fill="#E0E0E0" x="156.9" y="39.38" width="11.39" height="32.34"></rect>
            <rect id="Rectangle" fill="#E0E0E0" x="171.475" y="39.38" width="11.39" height="32.34"></rect>
            <rect id="Rectangle" fill="#E0E0E0" x="186.05" y="39.38" width="11.39" height="32.34"></rect>
            <rect id="Rectangle" fill="#E0E0E0" x="211.56" y="39.38" width="11.39" height="32.34"></rect>
            <rect id="Rectangle" fill="#E0E0E0" x="226.135" y="39.38" width="11.39" height="32.34"></rect>
            <rect id="Rectangle" fill="#E0E0E0" x="240.71" y="39.38" width="11.39" height="32.34"></rect>
            <rect id="Rectangle" fill="#BDBDBD" x="47.58" y="202.45" width="99.3" height="14.575"></rect>
            <rect id="Rectangle" fill="#E0E0E0" x="47.58" y="177.855" width="172.18" height="14.575"></rect>
            <path d="M330.705,122.655 C330.677951,122.016667 330.90654,121.393895 331.340131,120.924641 C331.773722,120.455387 332.376522,120.178386 333.015,120.155 L336.45,120.155 L336.45,99.655 L305.85,99.655 L305.85,123.255 L330.71,123.255 L330.705,122.655 Z" id="Path" fill="url(#linearGradient-3)"></path>
            <path d="M333.015,144.805 C332.376522,144.781614 331.773722,144.504613 331.340131,144.035359 C330.90654,143.566105 330.677951,142.943333 330.705,142.305 L330.705,141.705 L305.845,141.705 L305.845,165.305 L336.45,165.305 L336.45,144.805 L333.015,144.805 Z" id="Path" fill="url(#linearGradient-4)"></path>
            <rect id="Rectangle" fill="url(#linearGradient-5)" x="305.845" y="126.335" width="24.86" height="12.315"></rect>
            <path d="M345.05,142.325 C345.077049,142.963333 344.84846,143.586105 344.414869,144.055359 C343.981278,144.524613 343.378478,144.801614 342.74,144.825 L339.315,144.825 L339.315,165.325 L369.915,165.325 L369.915,141.725 L345.05,141.725 L345.05,142.325 Z" id="Path" fill="url(#linearGradient-6)"></path>
            <path d="M339.31,99.655 L339.31,120.155 L342.735,120.155 C343.373478,120.178386 343.976278,120.455387 344.409869,120.924641 C344.84346,121.393895 345.072049,122.016667 345.045,122.655 L345.045,123.255 L369.905,123.255 L369.905,99.655 L339.31,99.655 Z" id="Path" fill="url(#linearGradient-7)"></path>
            <rect id="Rectangle" fill="url(#linearGradient-5)" x="345.05" y="126.335" width="24.86" height="12.315"></rect>
            <path d="M330.81,122.89 C330.812757,121.674165 331.799162,120.689997 333.015,120.69 L336.285,120.69 L336.285,102.47 L307.095,102.47 L307.095,123.425 L330.81,123.425 L330.81,122.89 Z" id="Path" fill="#BFBFBF"></path>
            <path d="M333.015,142.55 C331.799162,142.550003 330.812757,141.565835 330.81,140.35 L330.81,139.82 L307.095,139.82 L307.095,160.775 L336.28,160.775 L336.28,142.55 L333.015,142.55 Z" id="Path" fill="#BFBFBF"></path>
            <rect id="Rectangle" fill="#BFBFBF" x="307.095" y="126.155" width="23.715" height="10.93"></rect>
            <path d="M344.49,140.35 C344.487243,141.565835 343.500838,142.550003 342.285,142.55 L339.015,142.55 L339.015,160.77 L368.2,160.77 L368.2,139.82 L344.49,139.82 L344.49,140.35 Z" id="Path" fill="#BFBFBF"></path>
            <path d="M339.02,102.47 L339.02,120.69 L342.29,120.69 C343.505838,120.689997 344.492243,121.674165 344.495,122.89 L344.495,123.42 L368.21,123.42 L368.21,102.47 L339.02,102.47 Z" id="Path" fill="#BFBFBF"></path>
            <rect id="Rectangle" fill="#BFBFBF" x="344.49" y="126.155" width="23.715" height="10.93"></rect>
            <g id="Group" opacity="0.2" transform="translate(11.500000, 219.000000)" fill="url(#linearGradient-8)">
                <path d="M0.565,0.745 L0.61,0.595 C0.61,0.595 0.055,0.515 0.565,0.745 Z" id="Path"></path>
            </g>
            <g id="Group" opacity="0.2" transform="translate(0.000000, 216.000000)" fill="url(#linearGradient-9)">
                <path d="M63.66,12.925 C63.6074959,12.7537259 63.5423159,12.5865975 63.465,12.425 C63.465,12.375 63.41,12.33 63.385,12.28 C63.3349742,12.1838234 63.2798972,12.0903595 63.22,12 C63.185,11.95 63.145,11.905 63.11,11.855 C63.0535279,11.7820515 62.9934533,11.7119645 62.93,11.645 L62.8,11.52 C62.735,11.46 62.67,11.405 62.6,11.355 L62.46,11.255 L62.24,11.125 L62.1,11.05 L61.85,10.945 L61.725,10.895 C61.605,10.855 61.4866667,10.8216667 61.37,10.795 L61.37,10.795 C60.5729511,10.6439102 59.7527242,10.6660785 58.965,10.86 C58.965,10.86 56.67,14.245 57.555,15.46 L57.265,15.37 C57.265,15.37 40.22,34.37 30.605,37.92 C30.3583333,37.7533333 30.1033333,37.5966667 29.84,37.45 L29.84,33.895 C29.8478637,33.7467709 29.8478637,33.5982291 29.84,33.45 L29.84,33.45 C29.8240125,33.3072208 29.8006479,33.1653645 29.77,33.025 L29.84,32.985 L30.125,32.825 L30.54,32.575 L30.805,32.405 C31.0016667,32.2683333 31.1933333,32.125 31.38,31.975 L31.595,31.79 C31.725,31.68 31.85,31.565 31.975,31.445 L32.195,31.23 C32.3483333,31.0733333 32.495,30.9066667 32.635,30.73 L32.79,30.54 C32.9233333,30.3766667 33.05,30.21 33.17,30.04 L33.325,29.81 C33.435,29.6433333 33.54,29.4766667 33.64,29.31 L33.735,29.14 C33.855,28.915 33.97,28.68 34.07,28.44 L34.155,28.23 C34.2316667,28.0366667 34.3033333,27.8416667 34.37,27.645 C34.37,27.575 34.415,27.51 34.44,27.44 C34.52,27.185 34.585,26.94 34.64,26.66 C34.64,26.61 34.64,26.555 34.67,26.5 C34.7133333,26.2766667 34.7483333,26.05 34.775,25.82 C34.775,25.745 34.775,25.665 34.775,25.59 C34.8,25.31 34.82,25.025 34.82,24.74 C34.8228786,22.6085246 34.0919274,20.5410273 32.75,18.885 C33.48,17.745 33.955,17.075 33.955,17.075 C33.515,16.775 33.085,16.495 32.655,16.235 L32.24,15.99 C31.955,15.82 31.665,15.65 31.385,15.49 L30.885,15.235 C30.63,15.1 30.385,14.97 30.12,14.845 L29.62,14.62 C29.375,14.51 29.12,14.4 28.895,14.305 L28.395,14.115 C28.155,14.02 27.895,13.935 27.675,13.855 L27.225,13.705 C26.98,13.625 26.725,13.56 26.49,13.495 L26.09,13.385 C25.815,13.32 25.545,13.26 25.275,13.21 L24.985,13.15 C24.62,13.085 24.255,13.035 23.895,13 L23.895,13 C21.6635912,12.7628696 19.4087955,13.1073762 17.35,14 C17.46,11.38 17.9,9.225 18.82,7.89 L18.595,7.815 L18.515,7.89 C18.515,7.89 18.245,7.95 17.83,8.025 C17.6971731,8.23861962 17.5785823,8.46076857 17.475,8.69 C17.658914,7.76441759 18.0132653,6.88108235 18.52,6.085 L18.295,6.01 C18.62,5.68 19.795,4.235 18.215,1.875 C16.41,-0.83 13.1,1.275 13.1,1.275 C12.8433213,2.16619266 12.6758318,3.08068519 12.6,4.005 C12.345,3.905 12.17,3.825 12.05,3.765 C10.4650577,9.35541025 9.60138871,15.1255255 9.48,20.935 C3.52,29.4 1.05,41.895 0.57,44.59 L0.57,44.59 L0.535,44.805 L0.535,44.805 C0.5,45 0.485,45.105 0.485,45.105 L15.985,45.465 C15.985,45.52 15.985,45.57 15.985,45.625 L15.985,70.165 L4.675,94.015 C4.675,94.015 8.95,94.17 15.45,95.015 L13.665,107.775 L13.665,107.775 L13.07,111.355 L23.81,111.355 C25.005,108.97 19.035,107.775 19.035,107.775 L18.9,107.775 L21.23,95.87 C22.26,96.0433333 23.3183333,96.2333333 24.405,96.44 C25.9999639,96.7476343 27.6165752,96.9298584 29.24,96.985 L29.24,96.985 C30.5841789,97.0320802 31.9299797,96.9735672 33.265,96.81 C34.05,103.265 33.02,107.12 32.82,107.78 L32.755,107.78 L32.16,111.36 L42.9,111.36 C43.94,109.28 39.535,108.105 38.4,107.86 L38.45,107.51 C39.0036325,103.483241 39.1460328,99.4105933 38.875,95.355 C40.2565565,94.7930527 41.5446163,94.0242631 42.695,93.075 L42.695,93.075 L42.845,92.945 L42.845,92.945 L42.89,92.9 L34.89,70.465 C36.39,64.115 31.18,57.465 33.96,54.11 C36.74,50.755 35.035,46.52 34.73,45.795 C42.23,42.515 57.425,34.295 61.685,20.06 C61.9975114,19.0590007 62.251277,18.0405991 62.445,17.01 C62.445,17.01 64.595,16.04 63.66,12.925 Z" id="Path"></path>
            </g>
            <path d="M13.77,223.915 C13.77,223.915 5.625,249.6 19.27,263.82 L23.215,260.82 C23.215,260.82 15.145,232.785 19.66,226.2 C11.7,223.515 13.77,223.915 13.77,223.915 Z" id="Path" fill="#99D5E9"></path>
            <path d="M19.4,226.18 C19.4,226.18 21.055,224.8 19.4,222.315 C17.745,219.83 14.71,221.765 14.71,221.765 C14.71,221.765 13.605,225.35 14.71,226.18 C15.815,227.01 19.4,226.18 19.4,226.18 Z" id="Path" fill="#F6B9AD"></path>
            <rect id="Rectangle" fill="#F6B9AD" transform="translate(26.157500, 253.570000) rotate(-180.000000) translate(-26.157500, -253.570000) " x="22.295" y="247.845" width="7.725" height="11.45" rx="3.53"></rect>
            <path d="M22.675,262.455 C22.675,262.455 14.705,234.765 19.045,227.955 C19.43,227.885 19.675,227.83 19.675,227.83 L19.745,227.76 L19.95,227.83 C15.45,234.415 23.505,262.45 23.505,262.45 L19.56,265.45 L19.215,265.08 L22.675,262.455 Z" id="Path" fill="#FFFFFF" opacity="0.2"></path>
            <circle id="Oval" fill="#F6B9AD" cx="26.02" cy="243.29" r="8.555"></circle>
            <path d="M29.055,255.43 L29.055,251.705 C29.0538558,251.43257 29.0236854,251.161037 28.965,250.895 C32.392937,249.12784 34.214672,245.285563 33.413219,241.513126 C32.611766,237.740689 29.3853,234.970901 25.535,234.75 L26.035,234.75 C29.9712316,234.764736 33.3894064,237.46347 34.3170265,241.288866 C35.2446466,245.114262 33.4422786,249.078925 29.95,250.895 C30.0086854,251.161037 30.0388558,251.43257 30.04,251.705 L30.04,255.43 C30.0484247,256.541096 29.5745348,257.601228 28.7410055,258.335961 C27.9074762,259.070695 26.7962542,259.407796 25.695,259.26 C27.6148424,259.00257 29.0496879,257.367017 29.055,255.43 Z" id="Path" fill="#FFFFFF" opacity="0.2"></path>
            <path d="M17.33,285.92 C17.33,285.92 33.83,287.785 34.44,285.92 C36.41,279.885 31.13,273.385 33.78,270.205 C36.52,266.92 34.44,262.47 34.44,262.47 C34.44,260.201073 33.5386722,258.025075 31.9342985,256.420701 C30.3299248,254.816328 28.1539271,253.915 25.885,253.915 L25.885,253.915 C21.160204,253.915 17.33,257.745204 17.33,262.47 L17.33,285.92 Z" id="Path" fill="#99D5E9"></path>
            <path d="M33.8,270.205 C36.54,266.92 34.46,262.47 34.46,262.47 C34.46,260.201073 33.5586722,258.025075 31.9542985,256.420701 C30.3499248,254.816328 28.1739271,253.915 25.905,253.915 C25.72,253.915 25.54,253.915 25.355,253.945 C29.8524948,254.232435 33.3536276,257.96333 33.355,262.47 C33.355,262.47 35.435,266.92 32.695,270.205 C30.04,273.39 35.32,279.89 33.355,285.92 C33.165,286.495 31.465,286.715 29.205,286.745 C31.995,286.775 34.235,286.585 34.45,285.92 C36.45,279.885 31.15,273.385 33.8,270.205 Z" id="Path" fill="#FFFFFF" opacity="0.2"></path>
            <path d="M30.95,285.375 L30.95,285.375 C36.985,293.915 39.635,306.81 37.915,319.22 L37.865,319.59 L32.71,319.59 C32.71,319.59 34.305,314.9 32.71,306.62 C31.7294126,301.661601 28.9515999,297.240249 24.91,294.205 L19.95,319.59 L15.165,319.59 L19.95,285.375 L30.95,285.375 Z" id="Path" fill="#F6B9AD"></path>
            <path d="M59.95,236.165 C59.95,236.165 61.95,235.33 61.08,232.47 C60.21,229.61 56.755,230.57 56.755,230.57 C56.755,230.57 54.65,233.675 55.46,234.79 C56.27,235.905 59.95,236.165 59.95,236.165 Z" id="Path" fill="#F6B9AD"></path>
            <path d="M30.67,263.845 C30.67,263.845 56.3,255.54 59.95,236.165 L55.2,234.71 C55.2,234.71 36.335,255.77 28.355,255.92 C20.375,256.07 30.67,263.845 30.67,263.845 Z" id="Path" fill="#99D5E9"></path>
            <path d="M59.06,236.185 L59.85,236.43 C56.22,255.81 30.585,264.115 30.585,264.115 L30.13,263.76 C33.145,262.7 55.675,254.26 59.06,236.185 Z" id="Path" fill="#FFFFFF" opacity="0.2"></path>
            <g id="Group" opacity="0.2" transform="translate(18.500000, 285.000000)" fill="#FFFFFF">
                <path d="M5.315,9.2 L0.35,34.585 L1.45,34.585 L6.27,9.94 C5.96446169,9.6772489 5.64571385,9.43026105 5.315,9.2 L5.315,9.2 Z" id="Path"></path>
                <path d="M12.45,0.375 L11.355,0.375 C17.39,8.915 20.04,21.81 18.32,34.22 L18.27,34.59 L19.365,34.59 L19.415,34.22 C21.125,21.81 18.45,8.91 12.45,0.375 Z" id="Path"></path>
            </g>
            <path d="M59.405,236.015 C59.405,236.015 61.405,235.18 60.535,232.32 C60.3260992,231.499284 59.736832,230.828225 58.95,230.515 C59.976353,230.701073 60.8014993,231.465747 61.065,232.475 C61.92,235.335 59.935,236.17 59.935,236.17 C58.8461246,236.086105 57.7697095,235.88323 56.725,235.565 C57.6042839,235.789177 58.5007185,235.939698 59.405,236.015 L59.405,236.015 Z" id="Path" fill="#FFFFFF" opacity="0.2"></path>
            <path d="M17.33,284.985 L6.95,306.89 C13.0174856,307.19244 19.055929,307.924271 25.02,309.08 C36.52,311.27 41.995,305.795 41.995,305.795 L34.58,284.99 L17.33,284.985 Z" id="Path" fill="#263238"></path>
            <path d="M20.09,319.485 C20.09,319.485 25.59,320.58 24.47,322.77 L14.615,322.77 L15.165,319.485 L20.09,319.485 Z" id="Path" fill="#99D5E9"></path>
            <path d="M37.61,319.485 C37.61,319.485 43.11,320.58 41.99,322.77 L32.135,322.77 L32.685,319.485 L37.61,319.485 Z" id="Path" fill="#99D5E9"></path>
            <path d="M33.78,236.255 C33.78,236.255 20.635,254.87 26.66,262.515 L3.115,261.965 C3.115,261.965 9.685,219.83 33.78,236.255 Z" id="Path" fill="#FCCC63"></path>
            <path d="M33.78,236.255 C30.385,233.94 27.34,232.79 24.61,232.52 C26.9077091,233.242544 29.0787644,234.318794 31.045,235.71 C31.045,235.71 17.905,254.325 23.925,261.995 L3.2,261.495 C3.145,261.805 3.12,261.995 3.12,261.995 L26.665,262.545 C20.635,254.87 33.78,236.255 33.78,236.255 Z" id="Path" fill="#FFFFFF" opacity="0.2"></path>
            <path d="M34.575,284.985 L32.95,284.985 L40.365,305.79 C40.365,305.79 36.825,309.32 29.47,309.575 C37.94,309.845 42.005,305.79 42.005,305.79 L34.575,284.985 Z" id="Path" fill="#FFFFFF" opacity="0.2"></path>
            <path d="M20.09,319.485 L18.995,319.485 C18.995,319.485 24.495,320.58 23.375,322.77 L24.45,322.77 C25.565,320.58 20.09,319.485 20.09,319.485 Z" id="Path" fill="#FFFFFF" opacity="0.2"></path>
            <path d="M37.61,319.485 L36.515,319.485 C36.515,319.485 42.015,320.58 40.895,322.77 L41.99,322.77 C43.085,320.58 37.61,319.485 37.61,319.485 Z" id="Path" fill="#FFFFFF" opacity="0.2"></path>
            <g id="Group" opacity="0.2" transform="translate(412.500000, 226.000000)" fill="url(#linearGradient-10)">
                <path d="M0.315,0.655 L0.365,0.775 C0.765,0.515 0.315,0.655 0.315,0.655 Z" id="Path"></path>
            </g>
            <g id="Group" opacity="0.2" transform="translate(375.500000, 224.000000)" fill="url(#linearGradient-11)">
                <path d="M43.61,94.515 L52.295,92.015 L50.45,86.775 L50.45,86.775 L50.425,86.7 L50.395,86.7 L40.715,58.615 L38.215,37.59 C38.1837197,37.3228521 38.1386597,37.0574985 38.08,36.795 C45.985,23.255 38.08,4.41 37.375,2.77 C37.285,2.83 37.145,2.91 36.945,3.02 C36.7887627,2.26715703 36.557612,1.53182996 36.255,0.825 C36.255,0.825 33.33,-0.585 32.11,1.825 C31.045,3.92 32.145,4.995 32.45,5.235 L32.275,5.32 C32.7681268,5.92540141 33.1445107,6.61713408 33.385,7.36 C33.2759821,7.18569461 33.1557276,7.01867446 33.025,6.86 C32.675,6.86 32.445,6.815 32.445,6.815 L32.375,6.76 L32.2,6.845 C33.305,8.11 33.92,10.485 34.2,13.39 C33.8255584,12.9781744 33.4156481,12.6000531 32.975,12.26 C31.061966,10.8221055 28.6834958,10.1450877 26.3,10.36 L26.3,10.36 L25.865,10.41 L25.865,10.41 C25.6183333,10.4433333 25.375,10.4883333 25.135,10.545 L24.955,10.585 L24.65,10.665 L24.3,10.775 L24.05,10.86 L23.62,11.03 L23.46,11.1 C23.285,11.18 23.11,11.265 22.96,11.355 C22.3983147,11.7156005 21.7999682,12.0156117 21.175,12.25 C21.09,12.275 21,12.29 20.915,12.31 L20.915,12.31 C20.1935534,12.4473064 19.4467991,12.3269764 18.805,11.97 L18.59,11.84 C18.5070632,11.7858046 18.4269582,11.7273946 18.35,11.665 C18.3055798,11.8642206 18.3055798,12.0707794 18.35,12.27 C18.4467726,12.7444319 18.7271385,13.1613865 19.13,13.43 C19.242129,13.5072398 19.3629604,13.5710119 19.49,13.62 C19.6796085,13.6925512 19.8822267,13.724902 20.085,13.715 C20.1538731,13.7119329 20.2224084,13.7035749 20.29,13.69 L20.24,13.72 C20.12,13.795 20,13.865 19.875,13.925 L19.85,13.925 C19.715,13.99 19.58,14.05 19.445,14.105 L19.445,14.105 C18.7525698,14.3700926 18.0076971,14.469409 17.27,14.395 L17.27,14.395 L17.03,14.365 C16.91,14.365 16.79,14.33 16.675,14.3 C16.7211086,14.3775226 16.7711748,14.4526218 16.825,14.525 L16.88,14.59 L16.995,14.73 L17.06,14.8 L17.185,14.925 L17.255,14.99 L17.405,15.11 L17.465,15.155 L17.685,15.3 L17.76,15.34 L17.92,15.425 L18.025,15.47 L18.165,15.53 L18.28,15.57 L18.42,15.615 L18.535,15.65 L18.695,15.685 L18.89,15.72 L19.035,15.72 L19.175,15.72 L19.565,15.72 L19.71,15.72 L19.83,15.72 L19.97,15.72 L19.97,15.72 C20.2470454,15.663255 20.5135693,15.5637302 20.76,15.425 C20.605,15.52 20.445,15.605 20.26,15.69 L20.26,15.69 L20.02,15.81 L19.77,15.93 L19.525,16.04 L19.27,16.145 L19.025,16.24 L18.76,16.335 L18.515,16.415 L18.235,16.5 L18,16.565 L17.695,16.64 L17.475,16.69 L17.125,16.755 L16.94,16.785 L16.41,16.855 L16.41,16.855 C16.7215253,16.9055856 17.0193436,17.0196075 17.285,17.19 C17.4549797,17.2834471 17.6365467,17.3540565 17.825,17.4 C17.9082489,17.4053065 17.9917511,17.4053065 18.075,17.4 L18.385,17.4 L18.59,17.4 L18.855,17.365 L19.055,17.365 L19.295,17.365 C19.7979326,17.3560241 20.2971117,17.4531341 20.76,17.65 C21.0043794,17.7654653 21.2288477,17.9190489 21.425,18.105 C21.365,18.235 21.305,18.37 21.25,18.505 C21.195,18.64 21.16,18.74 21.12,18.855 C21.04,19.0916667 20.97,19.3316667 20.91,19.575 C20.7007338,20.4556023 20.6482651,21.3661895 20.755,22.265 C20.755,22.43 20.8,22.595 20.83,22.765 L20.855,22.9 C20.8816667,23.03 20.9116667,23.1583333 20.945,23.285 L20.945,23.385 C20.9883333,23.5416667 21.035,23.6966667 21.085,23.85 L21.12,23.94 C21.1633333,24.0666667 21.21,24.1916667 21.26,24.315 L21.305,24.425 C21.4332358,24.7223437 21.5801973,25.0112567 21.745,25.29 L21.795,25.375 C21.8716667,25.5016667 21.9516667,25.625 22.035,25.745 L22.035,25.78 C22.1316667,25.9166667 22.2316667,26.05 22.335,26.18 L22.335,26.21 C22.4316667,26.33 22.5316667,26.4466667 22.635,26.56 L22.67,26.6 C22.896406,26.8470785 23.1385797,27.0792313 23.395,27.295 L23.395,27.295 C24.0607424,27.8482518 24.8145217,28.2859846 25.625,28.59 C25.6187349,28.7099182 25.6187349,28.8300818 25.625,28.95 L25.625,28.95 C25.6184764,29.0732471 25.6184764,29.1967529 25.625,29.32 L25.965,32.19 C25.8116667,32.2966667 25.6616667,32.4083333 25.515,32.525 C18.34,30.235 5.595,9.49 5.595,9.49 L5.35,9.52 C6.25,8.66 4.88,5.56 4.88,5.56 C4.25168077,5.27765653 3.56873101,5.13765183 2.88,5.15 L2.745,5.15 L2.685,5.15 L2.58,5.15 L2.515,5.15 L2.415,5.15 L2.345,5.15 L2.25,5.15 L2.18,5.15 L2.08,5.18 L2.015,5.18 L1.91,5.225 L1.855,5.225 L1.7,5.305 L1.7,5.305 L1.555,5.395 L1.505,5.43 L1.405,5.505 L1.35,5.55 L1.265,5.63 L1.21,5.685 L1.13,5.77 L1.075,5.83 L0.995,5.93 L0.945,5.995 L0.865,6.12 L0.825,6.18 C0.785,6.245 0.75,6.31 0.71,6.38 C-0.51,8.78 1.12,9.845 1.12,9.845 C1.12616127,10.7125697 1.18292434,11.5790413 1.29,12.44 C3.075,28.475 21.685,38.86 22.635,39.38 C22.37,40.425 20.23,49.67 25.135,60.305 C25.1488089,60.3302479 25.1655954,60.353749 25.185,60.375 C17.7309889,69.0720918 15.4317926,81.0625241 19.14,91.9 L19.25,92.225 L19.41,92.225 C19.4038696,92.3004653 19.3938563,92.3755648 19.38,92.45 C19.3525837,92.5846025 19.3141202,92.7167164 19.265,92.845 C19.180369,93.0673419 19.0695908,93.2788276 18.935,93.475 L18.935,93.475 C18.79,93.69 18.615,93.91 18.435,94.135 L18.245,94.37 C17.475,95.3 16.7,96.205 17.385,96.455 L17.385,96.455 L17.885,96.395 L26.825,95.515 L26.325,91.435 L26.49,91.435 C26.49,91.435 26.41,91.315 26.28,91.085 L26.28,91.01 L26.25,91.01 C25.61,89.805 24.03,86.035 25.125,79.81 C26.475,72.125 34.695,67.39 34.695,67.39 L34.915,67.89 L34.885,67.89 L44.31,89.39 C44.31,89.475 44.31,89.565 44.31,89.66 C44.3039169,89.8751272 44.2788191,90.089295 44.235,90.3 C44.2025685,90.4693124 44.1591432,90.6363326 44.105,90.8 C43.79,91.715 43.185,92.8 42.96,93.615 C42.927576,93.724874 42.9025203,93.8367893 42.885,93.95 C42.8600626,94.0771219 42.8600626,94.2078781 42.885,94.335 C42.9238693,94.4984843 43.0515157,94.6261307 43.215,94.665 L43.215,94.665 L43.335,94.63 L43.595,94.555 L43.61,94.515 Z M33.49,31.365 C33.3066667,31.2883333 33.1216667,31.22 32.935,31.16 L32.62,28.475 C32.5948235,28.2698553 32.5513163,28.0673791 32.49,27.87 C33.0405657,27.5200043 33.5445776,27.1016744 33.99,26.625 C33.84,28.345 33.66,29.955 33.49,31.365 Z" id="Shape"></path>
            </g>
            <path d="M376.815,236.37 C376.815,236.37 375.01,235.195 376.36,232.535 C377.71,229.875 380.955,231.435 380.955,231.435 C380.955,231.435 382.455,234.87 381.455,235.82 C380.455,236.77 376.815,236.37 376.815,236.37 Z" id="Path" fill="#CA7070"></path>
            <path d="M404.595,326.08 L397.04,326.97 C397.16876,327.677551 396.986577,328.406283 396.54,328.97 C395.66,330.265 393.785,331.925 394.805,332.295 L405.17,331.07 L404.595,326.08 Z" id="4d99488d-df05-4ea4-b0bc-86897bea43e0" fill="#F9B4C6"></path>
            <path d="M397.105,328.93 C397.551577,328.366283 397.73376,327.637551 397.605,326.93 L397.055,326.995 C397.18376,327.702551 397.001577,328.431283 396.555,328.995 C395.675,330.29 393.8,331.95 394.82,332.32 L395.37,332.255 C394.355,331.885 396.23,330.225 397.105,328.93 Z" id="Path" fill="#FFFFFF" opacity="0.2"></path>
            <path d="M431.31,321.34 L424.365,323.34 C424.659557,324.157461 424.650685,325.053531 424.34,325.865 C423.76,327.56 422.265,329.83 423.34,330.145 L433.38,327.28 L431.31,321.34 Z" id="4d5dc8b9-511c-4b13-afe4-1a204679192b" fill="#F9B4C6"></path>
            <path d="M416.81,228.25 C416.81,228.25 427.91,252.8 416.02,268.525 L411.75,265.99 C411.75,265.99 416.475,237.2 411.215,231.195 C418.82,227.625 416.81,228.25 416.81,228.25 Z" id="Path" fill="#F9B4C6"></path>
            <path d="M411.49,231.16 C411.49,231.16 409.685,229.985 411.035,227.325 C412.385,224.665 415.63,226.225 415.63,226.225 C415.63,226.225 417.13,229.66 416.13,230.61 C415.13,231.56 411.49,231.16 411.49,231.16 Z" id="Path" fill="#CA7070"></path>
            <path d="M424.89,325.8 C425.200685,324.988531 425.209557,324.092461 424.915,323.275 L431.34,321.43 L431.31,321.345 L424.365,323.345 C424.659557,324.162461 424.650685,325.058531 424.34,325.87 C423.76,327.565 422.265,329.835 423.34,330.15 L423.76,330.03 C422.95,329.56 424.33,327.42 424.89,325.8 Z" id="Path" fill="#FFFFFF" opacity="0.2"></path>
            <rect id="Rectangle" fill="#CA7070" transform="translate(407.994173, 259.138105) rotate(-6.740000) translate(-407.994173, -259.138105) " x="404.131673" y="253.413105" width="7.725" height="11.45" rx="3.53"></rect>
            <path d="M412.49,267.57 C412.49,267.57 417.155,239.135 412.05,232.89 C411.66,232.89 411.41,232.84 411.41,232.84 L411.33,232.78 L411.135,232.87 C416.395,238.87 411.67,267.665 411.67,267.665 L415.94,270.2 C416.04,270.065 416.14,269.93 416.235,269.79 L412.49,267.57 Z" id="Path" fill="#FFFFFF" opacity="0.2"></path>
            <circle id="Oval" fill="#CA7070" transform="translate(406.924003, 248.914057) rotate(-6.740000) translate(-406.924003, -248.914057) " cx="406.924003" cy="248.914057" r="8.555"></circle>
            <path d="M405.33,261.34 L404.895,257.64 C404.866051,257.369105 404.866051,257.095895 404.895,256.825 C401.284364,255.473727 399.023585,251.874405 399.373988,248.035153 C399.724391,244.195902 402.5994,241.065316 406.395,240.39 L405.895,240.43 C401.980499,240.898381 398.89294,243.981198 398.418543,247.894975 C397.944145,251.808752 400.205763,255.539954 403.895,256.93 C403.866051,257.200895 403.866051,257.474105 403.895,257.745 L404.33,261.445 C404.451635,262.549781 405.046591,263.547451 405.960767,264.179604 C406.874943,264.811758 408.01841,265.016208 409.095,264.74 C407.169448,264.6998 405.565667,263.251499 405.33,261.34 Z" id="Path" fill="#FFFFFF" opacity="0.2"></path>
            <path d="M420.55,290.245 C420.55,290.245 404.385,294.03 403.55,292.245 C397.765,279.745 400.8,268.955 400.8,268.955 C400.533794,266.70048 401.174602,264.432596 402.581307,262.650769 C403.988013,260.868942 406.045255,259.719296 408.3,259.455 L408.3,259.455 C410.55452,259.188794 412.822404,259.829602 414.604231,261.236307 C416.386058,262.643013 417.535704,264.700255 417.8,266.955 L420.55,290.245 Z" id="Path" fill="#F9B4C6"></path>
            <path d="M420.55,290.245 L431.95,323.35 L424.55,324.225 L413.9,299.92 C413.9,299.92 404.795,305.165 403.3,313.675 C401.805,322.185 404.8,326.555 404.8,326.555 L396.89,327.515 L396.765,327.155 C392.645027,315.148701 395.234438,301.856775 403.56,292.275 L403.56,292.275" id="Path" fill="#263238"></path>
            <path d="M404.52,292.14 C398.735,279.64 401.77,268.85 401.77,268.85 C401.241966,264.371798 404.280514,260.252586 408.715,259.435 C408.53,259.435 408.35,259.435 408.165,259.48 L408.165,259.48 C405.910255,259.744296 403.853013,260.893942 402.446307,262.675769 C401.039602,264.457596 400.398794,266.72548 400.665,268.98 C400.665,268.98 397.63,279.76 403.415,292.27 C403.71,292.905 405.97,292.83 408.755,292.47 C406.505,292.705 404.775,292.69 404.52,292.14 Z" id="Path" fill="#FFFFFF" opacity="0.2"></path>
            <path d="M400.66,268.84 C400.66,268.84 376.925,256.085 376.82,236.37 L381.75,235.785 C381.75,235.785 396.545,259.875 404.37,261.455 C412.195,263.035 400.66,268.84 400.66,268.84 Z" id="Path" fill="#F9B4C6"></path>
            <g id="Group" opacity="0.2" transform="translate(394.500000, 292.000000)" fill="#FFFFFF">
                <path d="M19.625,8.515 L30.08,32.375 L31.175,32.245 L20.525,7.94 C20.525,7.94 20.185,8.125 19.625,8.515 Z" id="Path"></path>
                <path d="M10.175,0.26 L10.175,0.26 L9.08,0.39 L9.08,0.39 C0.75443788,9.97177476 -1.83497262,23.2637009 2.285,35.27 L2.41,35.63 L3.505,35.5 L3.38,35.14 C-0.739972617,23.1337009 1.84943788,9.84177476 10.175,0.26 L10.175,0.26 Z" id="Path"></path>
            </g>
            <path d="M377.67,236.545 L376.85,236.64 C376.955,256.355 400.69,269.11 400.69,269.11 L401.19,268.84 C398.45,267.27 377.77,254.935 377.67,236.545 Z" id="Path" fill="#FFFFFF" opacity="0.2"></path>
            <path d="M399.695,245.935 C400.375,246.935 400.695,248.11 401.09,249.235 C401.935,251.55 403.425,253.785 405.685,254.765 C406.934875,255.264301 408.283692,255.466281 409.625,255.355 C411.66,255.245 413.805,254.59 415.07,252.99 C415.846589,251.911882 416.302463,250.636128 416.385,249.31 C416.795323,245.312328 415.149868,241.379428 412.015,238.865 C408.885,236.465 404.34,235.985 400.88,237.865 C400.258892,238.267255 399.596852,238.602465 398.905,238.865 C397.820487,239.172697 396.654059,238.931947 395.78,238.22 C395.669403,238.820445 395.852525,239.43758 396.272727,239.880522 C396.692928,240.323463 397.299564,240.538827 397.905,240.46 C396.706882,241.221351 395.254551,241.473304 393.87,241.16 C394.83162,242.684309 396.801209,243.216925 398.4,242.385 C396.9361,243.25523 395.299473,243.794515 393.605,243.965 C393.96,243.93 394.725,244.495 395.17,244.57 C395.717808,244.592851 396.266565,244.567756 396.81,244.495 C397.961547,244.416801 399.065289,244.967716 399.695,245.935 L399.695,245.935 Z" id="Path" fill="#263238"></path>
            <g id="Group" opacity="0.2" transform="translate(393.500000, 236.500000)" fill="#FFFFFF">
                <path d="M4.4,3.96 C3.80650459,4.33750912 3.1435027,4.59250984 2.45,4.71 C3.33848225,4.6522245 4.19817357,4.37196512 4.95,3.895 C4.41364518,3.96109901 3.87408696,3.79989115 3.461904,3.45039039 C3.04972104,3.10088963 2.80247429,2.59494489 2.78,2.055 C2.60333034,1.95903901 2.43594615,1.8468916 2.28,1.72 C2.16979981,2.31947281 2.35232976,2.93554254 2.77130292,3.37823116 C3.19027609,3.82091979 3.79537325,4.03705984 4.4,3.96 L4.4,3.96 Z" id="Path"></path>
                <path d="M5.95,2.3 C6.64185232,2.03746543 7.30389234,1.70225529 7.925,1.3 C8.9194143,0.76451403 10.0013487,0.410641886 11.12,0.255 C9.81096626,0.364128908 8.53815016,0.74018821 7.38,1.36 C6.75889234,1.76225529 6.09685232,2.09746543 5.405,2.36 C5.31,2.39 5.21,2.405 5.115,2.425 C5.39754207,2.41931308 5.67817869,2.37730161 5.95,2.3 L5.95,2.3 Z" id="Path"></path>
                <path d="M2.215,8.015 C1.77,7.94 1.005,7.375 0.65,7.41 C2.34447312,7.23951462 3.98109966,6.70022996 5.445,5.83 C5.11226535,6.01601815 4.74765536,6.1381201 4.37,6.19 C3.04244475,6.88869438 1.59267277,7.32498407 0.1,7.475 C0.455,7.44 1.22,8.005 1.665,8.08 C2.04831775,8.12548881 2.43640887,8.11030263 2.815,8.035 C2.61495121,8.05347209 2.41337462,8.04675287 2.215,8.015 Z" id="Path"></path>
                <path d="M16.675,18.79 C15.3336921,18.9012814 13.9848755,18.6993012 12.735,18.2 C10.475,17.2 8.985,14.985 8.14,12.67 C7.73,11.545 7.43,10.355 6.745,9.37 C6.11439458,8.40108123 5.00828091,7.84993809 3.855,7.93 C3.58184768,7.93472417 3.30942696,7.95979357 3.04,8.005 C3.13,8.005 3.215,8.005 3.31,8.005 C4.46328091,7.92493809 5.56939458,8.47608123 6.2,9.445 C6.88,10.445 7.2,11.62 7.595,12.745 C8.44,15.06 9.93,17.295 12.19,18.275 C13.4398755,18.7743012 14.7886921,18.9762814 16.13,18.865 C16.445,18.865 16.765,18.815 17.085,18.77 L16.675,18.79 Z" id="Path"></path>
                <path d="M4.02,6.21 C2.83931812,6.26420997 1.71102694,5.71886923 1.02,4.76 C0.798053929,4.74110143 0.577582717,4.7076967 0.36,4.66 C1.13983773,5.88647474 2.59651132,6.50337202 4.02,6.21 L4.02,6.21 Z" id="Path"></path>
            </g>
            <path d="M377.365,236.305 C377.365,236.305 375.56,235.13 376.91,232.47 C377.26096,231.696278 377.962226,231.138242 378.795,230.97 C377.752469,230.97 376.804575,231.574672 376.365,232.52 C375.01,235.18 376.82,236.355 376.82,236.355 C377.905074,236.474119 378.999926,236.474119 380.085,236.355 C379.17852,236.413993 378.268699,236.397268 377.365,236.305 Z" id="Path" fill="#FFFFFF" opacity="0.2"></path>
            <path d="M202.195,326.205 L209.8,326.205 C209.744099,326.930388 210.006965,327.644143 210.52,328.16 C211.545,329.345 213.6,330.77 212.635,331.26 L202.195,331.26 L202.195,326.205 Z" id="f4b599d8-1b16-43a9-9308-cf9102d9bdf1" fill="#E3EC66"></path>
            <path d="M209.95,328.16 C209.436965,327.644143 209.174099,326.930388 209.23,326.205 L209.78,326.205 C209.724099,326.930388 209.986965,327.644143 210.5,328.16 C211.525,329.345 213.58,330.77 212.615,331.26 L212.065,331.26 C213.045,330.77 210.99,329.345 209.95,328.16 Z" id="Path" fill="#FFFFFF" opacity="0.2"></path>
            <path d="M175.105,324.635 L182.235,325.8 C182.040737,326.645378 182.156049,327.53239 182.56,328.3 C183.335,329.915 185.06,331.99 184.035,332.435 L173.73,330.77 L175.105,324.635 Z" id="0e0e20dd-ea7e-4aa3-ac26-380ed6cfbd4b" fill="#E3EC66"></path>
            <path d="M182.01,328.31 C181.606049,327.54239 181.490737,326.655378 181.685,325.81 L175.085,324.73 L175.085,324.645 L182.215,325.81 C182.020737,326.655378 182.136049,327.54239 182.54,328.31 C183.315,329.925 185.04,332 184.015,332.445 L183.585,332.375 C184.38,331.815 182.75,329.85 182.01,328.31 Z" id="Path" fill="#FFFFFF" opacity="0.2"></path>
            <rect id="Rectangle" fill="#985454" transform="translate(190.972500, 260.140000) rotate(-180.000000) translate(-190.972500, -260.140000) " x="187.11" y="254.415" width="7.725" height="11.45" rx="3.53"></rect>
            <circle id="Oval" fill="#985454" cx="190.835" cy="249.86" r="8.555"></circle>
            <path d="M193.87,262.015 L193.87,258.29 C193.868856,258.01757 193.838685,257.746037 193.78,257.48 C197.207937,255.71284 199.029672,251.870563 198.228219,248.098126 C197.426766,244.325689 194.2003,241.555901 190.35,241.335 L190.85,241.335 C194.797708,241.336459 198.231817,244.038972 199.161319,247.875693 C200.090822,251.712414 198.274331,255.686963 194.765,257.495 C194.823685,257.761037 194.853856,258.03257 194.855,258.305 L194.855,262.015 C194.863425,263.126096 194.389535,264.186228 193.556005,264.920961 C192.722476,265.655695 191.611254,265.992796 190.51,265.845 C192.429842,265.58757 193.864688,263.952017 193.87,262.015 Z" id="Path" fill="#FFFFFF" opacity="0.2"></path>
            <path d="M182.145,292.515 C182.145,292.515 198.645,294.38 199.255,292.515 C203.53,279.41 199.255,269.06 199.255,269.06 C199.255,266.791073 198.353672,264.615075 196.749299,263.010701 C195.144925,261.406328 192.968927,260.505 190.7,260.505 L190.7,260.505 C185.992722,260.505 182.169761,264.307787 182.145,269.015 L182.145,292.515 Z" id="Path" fill="#E3EC66"></path>
            <path d="M182.145,292.515 L174.695,326.73 L182.145,326.73 L189.87,301.345 C189.87,301.345 199.53,305.485 202.01,313.76 C204.49,322.035 202.01,326.73 202.01,326.73 L210.01,326.73 L210.09,326.36 C212.774158,313.952316 208.6432,301.054504 199.25,292.515 L199.25,292.515" id="Path" fill="#263238"></path>
            <path d="M198.285,292.515 C202.56,279.41 198.285,269.06 198.285,269.06 C198.283957,264.55143 194.784072,260.81749 190.285,260.525 C190.47,260.525 190.65,260.525 190.835,260.525 L190.835,260.525 C195.534528,260.525 199.354293,264.315608 199.39,269.015 C199.39,269.015 203.665,279.36 199.39,292.47 C199.17,293.135 196.915,293.325 194.11,293.295 C196.385,293.285 198.095,293.07 198.285,292.515 Z" id="Path" fill="#FFFFFF" opacity="0.2"></path>
            <g id="Group" opacity="0.2" transform="translate(181.000000, 292.500000)" fill="#FFFFFF">
                <path d="M8.725,9.425 L1.14,34.345 L0.035,34.345 L7.76,8.96 C7.76,8.96 8.13,9.115 8.725,9.425 Z" id="Path"></path>
                <path d="M17.145,0.13 L18.25,0.13 C27.6431997,8.66950352 31.7741582,21.5673163 29.09,33.975 L29.01,34.345 L27.905,34.345 L27.985,33.975 C30.6691582,21.5673163 26.5381997,8.66950352 17.145,0.13 L17.145,0.13 Z" id="Path"></path>
            </g>
            <path d="M192.845,268.895 C192.845,268.895 217.815,258.77 220.045,239.18 L215.205,238.07 C215.205,238.07 197.9,260.43 189.95,261.15 C182,261.87 192.845,268.895 192.845,268.895 Z" id="Path" fill="#E3EC66"></path>
            <path d="M219.175,239.265 L219.98,239.45 C217.75,259.04 192.78,269.165 192.78,269.165 L192.28,268.84 C195.23,267.575 217.095,257.515 219.175,239.265 Z" id="Path" fill="#FFFFFF" opacity="0.2"></path>
            <path d="M219.625,239.515002 C219.625,239.515002 221.545,238.54 220.49,235.75 C219.435,232.96 216.04,234.165 216.04,234.165 C216.04,234.165 214.16,237.415 215.04,238.47 C215.92,239.525 219.625,239.515002 219.625,239.515002 Z" id="Path" fill="#985454"></path>
            <path d="M219.085,239.405 C219.085,239.405 221.005,238.43 219.95,235.64 C219.680037,234.837871 219.042524,234.213368 218.235,233.96 C219.272446,234.072317 220.150365,234.776603 220.485,235.765 C221.545,238.555 219.62,239.53 219.62,239.53 C218.528072,239.525463 217.439922,239.401391 216.375,239.16 C217.269947,239.316893 218.176425,239.398844 219.085,239.405 Z" id="Path" fill="#FFFFFF" opacity="0.2"></path>
            <path d="M191.45,247.015 L190.95,258.515 L178.88,258.515 L178.88,252.445 C178.88,240.185 191.84,235.53 199.14,245.385 C199.32,245.625 191.45,247.015 191.45,247.015 Z" id="Path" fill="#263238"></path>
            <path d="M188.77,240.095 C191.845,240.35 195,242.02 197.495,245.39 C197.675,245.63 189.83,247.035 189.83,247.035 L189.28,258.535 L190.95,258.535 L191.5,247.035 C191.5,247.035 199.345,245.635 199.165,245.39 C196.195,241.415 192.335,239.8 188.77,240.095 Z" id="Path" fill="#FFFFFF" opacity="0.2"></path>
        </g>
        <g id="Group-2" transform="translate(330.000000, 97.000000)" fill="#FFB7B7">
            <path d="M25.6,-1.13686838e-13 C27.5733432,-1.13686838e-13 29.4399912,0.3733296 31.2,1.12 C32.9600088,1.8666704 34.4933268,2.8933268 35.8,4.2 C37.1066732,5.5066732 38.1333296,7.0399912 38.88,8.8 C39.6266704,10.5600088 40,12.4266568 40,14.4 L40,48.8 C40,50.8266768 39.6266704,52.706658 38.88,54.44 C38.1333296,56.173342 37.1066732,57.6933268 35.8,59 C34.4933268,60.3066732 32.9600088,61.3333296 31.2,62.08 C29.4399912,62.8266704 27.5733432,63.2 25.6,63.2 L14.4,63.2 C12.3733232,63.2 10.493342,62.8266704 8.76,62.08 C7.026658,61.3333296 5.5066732,60.3200064 4.2,59.04 C2.8933268,57.7599936 1.8666704,56.2400088 1.12,54.48 C0.3733296,52.7199912 -1.13686838e-13,50.8266768 -1.13686838e-13,48.8 L-1.13686838e-13,14.4 C-1.13686838e-13,12.4266568 0.3733296,10.5600088 1.12,8.8 C1.8666704,7.0399912 2.8933268,5.5066732 4.2,4.2 C5.5066732,2.8933268 7.026658,1.8666704 8.76,1.12 C10.493342,0.3733296 12.3733232,-1.13686838e-13 14.4,-1.13686838e-13 L25.6,-1.13686838e-13 Z M60.0266667,-1.13686838e-13 L78.2666667,36.96 L78.2666667,-1.13686838e-13 L89.4666667,-1.13686838e-13 L89.4666667,63.2 L78.9866667,63.2 L60.6666667,26.4 L60.6666667,63.2 L49.4666667,63.2 L49.4666667,-1.13686838e-13 L60.0266667,-1.13686838e-13 Z M138.933333,-1.13686838e-13 L138.933333,10.88 L110.133333,10.88 L110.133333,26.16 L130.933333,26.16 L130.933333,37.04 L110.133333,37.04 L110.133333,52.32 L138.933333,52.32 L138.933333,63.2 L98.9333334,63.2 L98.9333334,-1.13686838e-13 L138.933333,-1.13686838e-13 Z M201.066667,-1.13686838e-13 C203.04001,-1.13686838e-13 204.879992,0.3599964 206.586667,1.08 C208.293342,1.8000036 209.773327,2.759994 211.026667,3.96 C212.280006,5.160006 213.29333,6.559992 214.066667,8.16 C214.840004,9.760008 215.306666,11.4399912 215.466667,13.2 L204.266667,16 C204.266667,14.6133264 203.786672,13.4133384 202.826667,12.4 C201.866662,11.3866616 200.480009,10.88 198.666667,10.88 L192.266667,10.88 C188.533315,10.88 186.666667,12.746648 186.666667,16.48 L186.666667,46.72 C186.666667,50.453352 188.533315,52.32 192.266667,52.32 L198.666667,52.32 C200.426676,52.32 201.799995,51.8800044 202.786667,51 C203.773338,50.1199956 204.266667,48.9066744 204.266667,47.36 L215.466667,50.16 C215.306666,51.8666752 214.840004,53.5066588 214.066667,55.08 C213.29333,56.6533412 212.280006,58.039994 211.026667,59.24 C209.773327,60.440006 208.293342,61.3999964 206.586667,62.12 C204.879992,62.8400036 203.04001,63.2 201.066667,63.2 L189.866667,63.2 C187.83999,63.2 185.960009,62.8266704 184.226667,62.08 C182.493325,61.3333296 180.97334,60.3066732 179.666667,59 C178.359994,57.6933268 177.333337,56.173342 176.586667,54.44 C175.839996,52.706658 175.466667,50.8266768 175.466667,48.8 L175.466667,14.4 C175.466667,12.4266568 175.839996,10.5600088 176.586667,8.8 C177.333337,7.0399912 178.359994,5.5066732 179.666667,4.2 C180.97334,2.8933268 182.493325,1.8666704 184.226667,1.12 C185.960009,0.3733296 187.83999,-1.13686838e-13 189.866667,-1.13686838e-13 L201.066667,-1.13686838e-13 Z M247.973333,-1.13686838e-13 L262.533333,63.2 L250.933333,63.2 L248.853333,52.72 L236.213333,52.72 L234.133333,63.2 L222.533333,63.2 L237.093333,-1.13686838e-13 L247.973333,-1.13686838e-13 Z M297.6,-1.13686838e-13 C299.573343,-1.13686838e-13 301.439991,0.3733296 303.2,1.12 C304.960009,1.8666704 306.493327,2.8933268 307.8,4.2 C309.106673,5.5066732 310.13333,7.0399912 310.88,8.8 C311.62667,10.5600088 312,12.4266568 312,14.4 L312,22.56 C312,26.56002 311.133342,29.759988 309.4,32.16 C307.666658,34.560012 305.280015,36.1333296 302.24,36.88 L312,63.2 L300,63.2 L290.4,37.04 L283.2,37.04 L283.2,63.2 L272,63.2 L272,-1.13686838e-13 L297.6,-1.13686838e-13 Z M347.066667,-1.13686838e-13 C349.04001,-1.13686838e-13 350.906658,0.3733296 352.666667,1.12 C354.426676,1.8666704 355.959994,2.8933268 357.266667,4.2 C358.57334,5.5066732 359.599996,7.0399912 360.346667,8.8 C361.093337,10.5600088 361.466667,12.4266568 361.466667,14.4 L361.466667,48.8 C361.466667,50.8266768 361.093337,52.706658 360.346667,54.44 C359.599996,56.173342 358.57334,57.6933268 357.266667,59 C355.959994,60.3066732 354.426676,61.3333296 352.666667,62.08 C350.906658,62.8266704 349.04001,63.2 347.066667,63.2 L321.466667,63.2 L321.466667,52.32 L324.666667,52.32 L324.666667,10.88 L321.466667,10.88 L321.466667,-1.13686838e-13 L347.066667,-1.13686838e-13 Z M23.2,10.88 L16.8,10.88 C13.066648,10.88 11.2,12.746648 11.2,16.48 L11.2,46.72 C11.2,50.453352 13.066648,52.32 16.8,52.32 L23.2,52.32 C25.0133424,52.32 26.3999952,51.8266716 27.36,50.84 C28.3200048,49.8533284 28.8,48.4800088 28.8,46.72 L28.8,16.48 C28.8,12.746648 26.933352,10.88 23.2,10.88 Z M344.666667,10.88 L335.866667,10.88 L335.866,11.199 L335.566667,11.2 L335.566667,52.2 L335.866,52.199 L335.866667,52.32 L344.666667,52.32 C345.21304,52.32 345.719432,52.28002 346.185843,52.2000597 L346.566667,52.2 C348.775806,52.2 350.566667,50.409139 350.566667,48.2 L350.566667,48.2 L350.566667,15.2 C350.566667,13.1892763 349.083054,11.525069 347.150796,11.2423454 C346.443864,11.0005868 345.61556,10.88 344.666667,10.88 L344.666667,10.88 Z M242.533333,22.72 C242.266665,22.72 242.080001,22.8799984 241.973333,23.2 C241.866666,23.5200016 241.786667,23.7866656 241.733333,24 L238.293333,41.84 L246.773333,41.84 L243.333333,24 C243.28,23.7866656 243.200001,23.5200016 243.093333,23.2 C242.986666,22.8799984 242.800001,22.72 242.533333,22.72 Z M295.2,10.88 L283.2,10.88 L283.2,26.16 L295.2,26.16 C298.933352,26.16 300.8,24.293352 300.8,20.56 L300.8,16.48 C300.8,14.6666576 300.306672,13.2800048 299.32,12.32 C298.333328,11.3599952 296.960009,10.88 295.2,10.88 Z" id="Combined-Shape" fill-rule="nonzero"></path>
            <path d="M229.236667,98.35 C229.236667,98.8500025 229.141668,99.3199978 228.951667,99.76 C228.761666,100.200002 228.501668,100.584998 228.171667,100.915 C227.841665,101.245002 227.456669,101.504999 227.016667,101.695 C226.576664,101.885001 226.106669,101.98 225.606667,101.98 C225.106664,101.98 224.636669,101.885001 224.196667,101.695 C223.756664,101.504999 223.371668,101.245002 223.041667,100.915 C222.711665,100.584998 222.451668,100.200002 222.261667,99.76 C222.071666,99.3199978 221.976667,98.8500025 221.976667,98.35 C221.976667,97.8499975 222.071666,97.3800022 222.261667,96.94 C222.451668,96.4999978 222.711665,96.1150016 223.041667,95.785 C223.371668,95.4549983 223.756664,95.1950009 224.196667,95.005 C224.636669,94.814999 225.106664,94.72 225.606667,94.72 C226.106669,94.72 226.576664,94.814999 227.016667,95.005 C227.456669,95.1950009 227.841665,95.4549983 228.171667,95.785 C228.501668,96.1150016 228.761666,96.4999978 228.951667,96.94 C229.141668,97.3800022 229.236667,97.8499975 229.236667,98.35 Z M246.396667,98.35 C246.396667,98.8500025 246.301668,99.3199978 246.111667,99.76 C245.921666,100.200002 245.661668,100.584998 245.331667,100.915 C245.001665,101.245002 244.616669,101.504999 244.176667,101.695 C243.736664,101.885001 243.266669,101.98 242.766667,101.98 C242.266664,101.98 241.796669,101.885001 241.356667,101.695 C240.916664,101.504999 240.531668,101.245002 240.201667,100.915 C239.871665,100.584998 239.611668,100.200002 239.421667,99.76 C239.231666,99.3199978 239.136667,98.8500025 239.136667,98.35 C239.136667,97.8499975 239.231666,97.3800022 239.421667,96.94 C239.611668,96.4999978 239.871665,96.1150016 240.201667,95.785 C240.531668,95.4549983 240.916664,95.1950009 241.356667,95.005 C241.796669,94.814999 242.266664,94.72 242.766667,94.72 C243.266669,94.72 243.736664,94.814999 244.176667,95.005 C244.616669,95.1950009 245.001665,95.4549983 245.331667,95.785 C245.661668,96.1150016 245.921666,96.4999978 246.111667,96.94 C246.301668,97.3800022 246.396667,97.8499975 246.396667,98.35 Z M263.556667,98.35 C263.556667,98.8500025 263.461668,99.3199978 263.271667,99.76 C263.081666,100.200002 262.821668,100.584998 262.491667,100.915 C262.161665,101.245002 261.776669,101.504999 261.336667,101.695 C260.896664,101.885001 260.426669,101.98 259.926667,101.98 C259.426664,101.98 258.956669,101.885001 258.516667,101.695 C258.076664,101.504999 257.691668,101.245002 257.361667,100.915 C257.031665,100.584998 256.771668,100.200002 256.581667,99.76 C256.391666,99.3199978 256.296667,98.8500025 256.296667,98.35 C256.296667,97.8499975 256.391666,97.3800022 256.581667,96.94 C256.771668,96.4999978 257.031665,96.1150016 257.361667,95.785 C257.691668,95.4549983 258.076664,95.1950009 258.516667,95.005 C258.956669,94.814999 259.426664,94.72 259.926667,94.72 C260.426669,94.72 260.896664,94.814999 261.336667,95.005 C261.776669,95.1950009 262.161665,95.4549983 262.491667,95.785 C262.821668,96.1150016 263.081666,96.4999978 263.271667,96.94 C263.461668,97.3800022 263.556667,97.8499975 263.556667,98.35 Z M280.716667,98.35 C280.716667,98.8500025 280.621668,99.3199978 280.431667,99.76 C280.241666,100.200002 279.981668,100.584998 279.651667,100.915 C279.321665,101.245002 278.936669,101.504999 278.496667,101.695 C278.056664,101.885001 277.586669,101.98 277.086667,101.98 C276.586664,101.98 276.116669,101.885001 275.676667,101.695 C275.236664,101.504999 274.851668,101.245002 274.521667,100.915 C274.191665,100.584998 273.931668,100.200002 273.741667,99.76 C273.551666,99.3199978 273.456667,98.8500025 273.456667,98.35 C273.456667,97.8499975 273.551666,97.3800022 273.741667,96.94 C273.931668,96.4999978 274.191665,96.1150016 274.521667,95.785 C274.851668,95.4549983 275.236664,95.1950009 275.676667,95.005 C276.116669,94.814999 276.586664,94.72 277.086667,94.72 C277.586669,94.72 278.056664,94.814999 278.496667,95.005 C278.936669,95.1950009 279.321665,95.4549983 279.651667,95.785 C279.981668,96.1150016 280.241666,96.4999978 280.431667,96.94 C280.621668,97.3800022 280.716667,97.8499975 280.716667,98.35 Z M309.016667,104.8 C309.016667,105.560004 308.876668,106.264997 308.596667,106.915 C308.316665,107.565003 307.931669,108.134998 307.441667,108.625 C306.951664,109.115002 306.37667,109.5 305.716667,109.78 C305.056663,110.060001 304.35667,110.2 303.616667,110.2 L299.416667,110.2 C298.656663,110.2 297.95167,110.060001 297.301667,109.78 C296.651663,109.5 296.081669,109.120002 295.591667,108.64 C295.101664,108.159998 294.716668,107.590003 294.436667,106.93 C294.156665,106.269997 294.016667,105.560004 294.016667,104.8 L294.016667,91.9 C294.016667,91.1599963 294.156665,90.4600033 294.436667,89.8 C294.716668,89.1399967 295.101664,88.5650024 295.591667,88.075 C296.081669,87.5849975 296.651663,87.2000014 297.301667,86.92 C297.95167,86.6399986 298.656663,86.5 299.416667,86.5 L303.616667,86.5 C304.35667,86.5 305.056663,86.6399986 305.716667,86.92 C306.37667,87.2000014 306.951664,87.5849975 307.441667,88.075 C307.931669,88.5650024 308.316665,89.1399967 308.596667,89.8 C308.876668,90.4600033 309.016667,91.1599963 309.016667,91.9 L309.016667,104.8 Z M304.816667,104.02 L304.816667,92.68 C304.816667,91.279993 304.116674,90.58 302.716667,90.58 L300.316667,90.58 C298.91666,90.58 298.216667,91.279993 298.216667,92.68 L298.216667,104.02 C298.216667,105.420007 298.91666,106.12 300.316667,106.12 L302.716667,106.12 C303.39667,106.12 303.916665,105.935002 304.276667,105.565 C304.636668,105.194998 304.816667,104.680003 304.816667,104.02 Z M327.566667,104.8 C327.566667,105.560004 327.426668,106.264997 327.146667,106.915 C326.866665,107.565003 326.486669,108.134998 326.006667,108.625 C325.526664,109.115002 324.95667,109.5 324.296667,109.78 C323.636663,110.060001 322.92667,110.2 322.166667,110.2 L317.966667,110.2 C317.206663,110.2 316.51167,110.070001 315.881667,109.81 C315.251664,109.549999 314.696669,109.200002 314.216667,108.76 C313.736664,108.319998 313.356668,107.810003 313.076667,107.23 C312.796665,106.649997 312.626667,106.030003 312.566667,105.37 L316.766667,104.32 C316.766667,104.840003 316.941665,105.269998 317.291667,105.61 C317.641668,105.950002 318.166663,106.12 318.866667,106.12 L321.266667,106.12 C322.666674,106.12 323.366667,105.420007 323.366667,104.02 L323.366667,102.49 C323.366667,101.089993 322.666674,100.39 321.266667,100.39 L319.016667,100.39 L319.016667,96.31 L321.266667,96.31 C322.666674,96.31 323.366667,95.610007 323.366667,94.21 L323.366667,92.68 C323.366667,91.279993 322.666674,90.58 321.266667,90.58 L318.866667,90.58 C318.186663,90.58 317.666668,90.7699981 317.306667,91.15 C316.946665,91.5300019 316.766667,91.9499977 316.766667,92.41 L312.566667,91.33 C312.646667,90.6899968 312.831665,90.0750029 313.121667,89.485 C313.411668,88.894997 313.791664,88.3800022 314.261667,87.94 C314.731669,87.5 315.276664,87.1500013 315.896667,86.89 C316.51667,86.6299987 317.206663,86.5 317.966667,86.5 L322.166667,86.5 C322.90667,86.5 323.606663,86.6399986 324.266667,86.92 C324.92667,87.2000014 325.501664,87.5849975 325.991667,88.075 C326.481669,88.5650024 326.866665,89.1399967 327.146667,89.8 C327.426668,90.4600033 327.566667,91.1599963 327.566667,91.9 L327.566667,94.63 C327.566667,95.4900043 327.381669,96.2449967 327.011667,96.895 C326.641665,97.5450032 326.16667,98.0099986 325.586667,98.29 C326.22667,98.6700019 326.716665,99.1649969 327.056667,99.775 C327.396668,100.385003 327.566667,101.139995 327.566667,102.04 L327.566667,104.8 Z M346.116667,104.8 C346.116667,105.560004 345.976668,106.264997 345.696667,106.915 C345.416665,107.565003 345.031669,108.134998 344.541667,108.625 C344.051664,109.115002 343.47667,109.5 342.816667,109.78 C342.156663,110.060001 341.45667,110.2 340.716667,110.2 L336.516667,110.2 C335.756663,110.2 335.05167,110.060001 334.401667,109.78 C333.751663,109.5 333.181669,109.115002 332.691667,108.625 C332.201664,108.134998 331.816668,107.565003 331.536667,106.915 C331.256665,106.264997 331.116667,105.560004 331.116667,104.8 L331.116667,102.19 C331.116667,101.629997 331.166666,101.145002 331.266667,100.735 C331.366667,100.324998 331.506666,99.9700015 331.686667,99.67 C331.866668,99.3699985 332.076665,99.115001 332.316667,98.905 C332.556668,98.6949989 332.816665,98.5 333.096667,98.32 C332.876666,98.1999994 332.646668,98.040001 332.406667,97.84 C332.166665,97.639999 331.951668,97.3900015 331.761667,97.09 C331.571666,96.7899985 331.416667,96.4300021 331.296667,96.01 C331.176666,95.5899979 331.116667,95.0900029 331.116667,94.51 L331.116667,91.9 C331.116667,91.1599963 331.256665,90.4600033 331.536667,89.8 C331.816668,89.1399967 332.201664,88.5650024 332.691667,88.075 C333.181669,87.5849975 333.756663,87.2000014 334.416667,86.92 C335.07667,86.6399986 335.776663,86.5 336.516667,86.5 L340.716667,86.5 C341.45667,86.5 342.156663,86.6399986 342.816667,86.92 C343.47667,87.2000014 344.051664,87.5849975 344.541667,88.075 C345.031669,88.5650024 345.416665,89.1399967 345.696667,89.8 C345.976668,90.4600033 346.116667,91.1599963 346.116667,91.9 L346.116667,94.51 C346.116667,95.0700028 346.056667,95.5599979 345.936667,95.98 C345.816666,96.4000021 345.661668,96.7599985 345.471667,97.06 C345.281666,97.3600015 345.066668,97.6149989 344.826667,97.825 C344.586665,98.035001 344.356668,98.1999994 344.136667,98.32 C344.396668,98.5 344.646665,98.6949989 344.886667,98.905 C345.126668,99.115001 345.336666,99.3699985 345.516667,99.67 C345.696668,99.9700015 345.841666,100.324998 345.951667,100.735 C346.061667,101.145002 346.116667,101.629997 346.116667,102.19 L346.116667,104.8 Z M341.916667,94.21 L341.916667,92.68 C341.916667,91.279993 341.216674,90.58 339.816667,90.58 L337.416667,90.58 C336.01666,90.58 335.316667,91.279993 335.316667,92.68 L335.316667,94.21 C335.316667,95.610007 336.01666,96.31 337.416667,96.31 L339.816667,96.31 C340.47667,96.31 340.991665,96.1300018 341.361667,95.77 C341.731669,95.4099982 341.916667,94.8900034 341.916667,94.21 Z M341.916667,104.02 L341.916667,102.49 C341.916667,101.089993 341.216674,100.39 339.816667,100.39 L337.416667,100.39 C336.01666,100.39 335.316667,101.089993 335.316667,102.49 L335.316667,104.02 C335.316667,105.420007 336.01666,106.12 337.416667,106.12 L339.816667,106.12 C340.47667,106.12 340.991665,105.940002 341.361667,105.58 C341.731669,105.219998 341.916667,104.700003 341.916667,104.02 Z" id="0388" fill-rule="nonzero"></path>
            <path d="M359.166667,86.2 C359.90667,86.2 360.606663,86.3399986 361.266667,86.62 C361.92667,86.9000014 362.501664,87.2849975 362.991667,87.775 C363.481669,88.2650024 363.866665,88.8399967 364.146667,89.5 C364.426668,90.1600033 364.566667,90.8599963 364.566667,91.6 L364.566667,94.21 C364.566667,94.7700028 364.506667,95.2599979 364.386667,95.68 C364.266666,96.1000021 364.111668,96.4599985 363.921667,96.76 C363.731666,97.0600015 363.516668,97.3149989 363.276667,97.525 C363.036666,97.735001 362.806668,97.8999994 362.586667,98.02 C362.846668,98.2 363.096666,98.3949989 363.336667,98.605 C363.576668,98.815001 363.786666,99.0699985 363.966667,99.37 C364.146668,99.6700015 364.291666,100.024998 364.401667,100.435 C364.511667,100.845002 364.566667,101.329997 364.566667,101.89 L364.566667,104.5 C364.566667,105.260004 364.426668,105.964997 364.146667,106.615 C363.866665,107.265003 363.481669,107.834998 362.991667,108.325 C362.501664,108.815002 361.92667,109.2 361.266667,109.48 C360.606663,109.760001 359.90667,109.9 359.166667,109.9 L354.966667,109.9 C354.206663,109.9 353.50167,109.760001 352.851667,109.48 C352.201663,109.2 351.631669,108.815002 351.141667,108.325 C350.651664,107.834998 350.266668,107.265003 349.986667,106.615 C349.706665,105.964997 349.566667,105.260004 349.566667,104.5 L349.566667,101.89 C349.566667,101.329997 349.616666,100.845002 349.716667,100.435 C349.816667,100.024998 349.956666,99.6700015 350.136667,99.37 C350.316668,99.0699985 350.526666,98.815001 350.766667,98.605 C351.006668,98.3949989 351.266665,98.2 351.546667,98.02 C351.326666,97.8999994 351.096668,97.740001 350.856667,97.54 C350.616666,97.339999 350.401668,97.0900015 350.211667,96.79 C350.021666,96.4899985 349.866667,96.1300021 349.746667,95.71 C349.626666,95.2899979 349.566667,94.7900029 349.566667,94.21 L349.566667,91.6 C349.566667,90.8599963 349.706665,90.1600033 349.986667,89.5 C350.266668,88.8399967 350.651664,88.2650024 351.141667,87.775 C351.631669,87.2849975 352.206663,86.9000014 352.866667,86.62 C353.52667,86.3399986 354.226663,86.2 354.966667,86.2 L359.166667,86.2 Z M358.266667,100.09 L355.866667,100.09 C354.46666,100.09 353.766667,100.789993 353.766667,102.19 L353.766667,102.19 L353.766667,103.72 C353.766667,105.120007 354.46666,105.82 355.866667,105.82 L355.866667,105.82 L358.266667,105.82 C358.92667,105.82 359.441665,105.640002 359.811667,105.28 C360.181669,104.919998 360.366667,104.400003 360.366667,103.72 L360.366667,103.72 L360.366667,102.19 C360.366667,100.789993 359.666674,100.09 358.266667,100.09 L358.266667,100.09 Z M358.266667,90.28 L355.866667,90.28 C354.46666,90.28 353.766667,90.979993 353.766667,92.38 L353.766667,93.91 C353.766667,95.310007 354.46666,96.01 355.866667,96.01 L358.266667,96.01 C358.92667,96.01 359.441665,95.8300018 359.811667,95.47 C360.181669,95.1099982 360.366667,94.5900034 360.366667,93.91 L360.366667,92.38 C360.366667,90.979993 359.666674,90.28 358.266667,90.28 Z" id="Combined-Shape"></path>
        </g>
    </g>
</svg>