<?xml version="1.0" encoding="UTF-8"?>
<svg width="1200px" height="600px" viewBox="0 0 1200 600" version="1.1" xmlns="http://www.w3.org/2000/svg" xmlns:xlink="http://www.w3.org/1999/xlink">
    <title>pagebuilder_hero</title>
    <defs>
        <polygon id="path-1" points="0.0173793103 0.193164943 24.5723172 0.193164943 24.5723172 30.9391159 0.0173793103 30.9391159"></polygon>
    </defs>
    <g id="pagebuilder_hero" stroke="none" stroke-width="1" fill="none" fill-rule="evenodd">
        <rect fill="#006AFF" x="0" y="0" width="1200" height="600"></rect>
        <g id="Group-2" transform="translate(80.000000, 234.000000)">
            <rect id="Rectangle" stroke="#FFFFFF" x="3.5" y="3.5" width="455" height="98"></rect>
            <rect id="Rectangle" stroke="#FFFFFF" fill="#006AFF" x="0" y="0" width="6" height="6"></rect>
            <rect id="Rectangle-Copy-3" stroke="#FFFFFF" fill="#006AFF" x="228" y="0" width="6" height="6"></rect>
            <rect id="Rectangle-Copy-6" stroke="#FFFFFF" fill="#006AFF" x="456" y="0" width="6" height="6"></rect>
            <rect id="Rectangle-Copy" stroke="#FFFFFF" fill="#006AFF" x="0" y="50" width="6" height="6"></rect>
            <rect id="Rectangle-Copy-7" stroke="#FFFFFF" fill="#006AFF" x="456" y="50" width="6" height="6"></rect>
            <rect id="Rectangle-Copy-2" stroke="#FFFFFF" fill="#006AFF" x="0" y="99" width="6" height="6"></rect>
            <rect id="Rectangle-Copy-5" stroke="#FFFFFF" fill="#006AFF" x="228" y="99" width="6" height="6"></rect>
            <rect id="Rectangle-Copy-8" stroke="#FFFFFF" fill="#006AFF" x="456" y="99" width="6" height="6"></rect>
            <g id="hand_cursor_free_vector" transform="translate(325.298575, 100.789727) rotate(-26.000000) translate(-325.298575, -100.789727) translate(312.298575, 84.289727)">
                <g id="Group-4" transform="translate(0.000000, 0.868808)">
                    <mask id="mask-2" fill="white">
                        <use xlink:href="#path-1"></use>
                    </mask>
                    <g id="Clip-2"></g>
                    <polyline id="Fill-1" fill="#006AFF" mask="url(#mask-2)" points="6.51724138 1.30321176 6.85526897 14.624932 5.06896552 14.624932 3.86197241 13.5629592 0.724137931 13.2733566 0.820593103 15.7833424 1.68955862 17.0865542 3.47586207 18.6793685 3.81388966 20.8030245 5.26216552 22.2029635 5.50344828 23.5542493 6.37241379 24.6162221 6.95172414 26.5950768 7.67586207 27.5606119 8.01388966 30.6014393 21.5793103 30.9391159 21.7725103 27.8018508 23.0759586 26.3538378 23.5585241 23.2165727 24.5723172 21.9614349 24.3310345 13.0804812 21.5793103 10.7636603 19.7449241 9.7981252 18.8759586 9.31564725 15.4481793 8.63971475 14.5792138 7.67446924 11.5378345 7.24006532 10.9585241 1.68925204 9.65507586 0.241238977 8.35162759 0.193164943 6.51724138 1.30321176"></polyline>
                    <polygon id="Fill-3" fill="#FFFFFF" mask="url(#mask-2)" points="0.0173793103 16.7485879 1.35182069 16.7485879 1.35182069 12.4045487 0.0173793103 12.4045487"></polygon>
                </g>
                <polygon id="Fill-5" fill="#FFFFFF" points="5.74473103 21.0926271 7.43457931 21.0926271 7.43457931 1.73761568 5.74473103 1.73761568"></polygon>
                <polygon id="Fill-6" fill="#FFFFFF" points="15.0136966 14.7697333 16.7035448 14.7697333 16.7035448 8.92931737 15.0136966 8.92931737"></polygon>
                <polygon id="Fill-7" fill="#FFFFFF" points="19.3104414 16.1693827 21.0002897 16.1693827 21.0002897 10.4256941 19.3104414 10.4256941"></polygon>
                <polygon id="Fill-8" fill="#FFFFFF" points="23.7033517 23.6990506 25.3932 23.6990506 25.3932 13.5629592 23.7033517 13.5629592"></polygon>
                <polygon id="Fill-9" fill="#FFFFFF" points="20.8068 32.0010887 22.4966483 32.0010887 22.4966483 28.0433794 20.8068 28.0433794"></polygon>
                <polygon id="Fill-10" fill="#FFFFFF" points="22.3031586 28.0433794 23.9930069 28.0433794 23.9930069 23.6512662 22.3031586 23.6512662"></polygon>
                <polygon id="Fill-11" fill="#FFFFFF" points="10.3795034 14.938282 12.0693517 14.938282 12.0693517 1.71328906 10.3795034 1.71328906"></polygon>
                <polygon id="Fill-12" fill="#FFFFFF" points="0.0967448276 14.7697333 4.24837241 14.7697333 4.24837241 13.2733566 0.0967448276 13.2733566"></polygon>
                <polygon id="Fill-13" fill="#FFFFFF" points="7.28975172 32.4354927 22.4969379 32.4354927 22.4969379 30.9391159 7.28975172 30.9391159"></polygon>
                <polygon id="Fill-14" fill="#FFFFFF" points="1.35182069 19.0654088 2.94492414 19.0654088 2.94492414 17.5693217 1.35182069 17.5693217"></polygon>
                <polygon id="Fill-15" fill="#FFFFFF" points="2.89684138 22.2513272 4.34511724 22.2513272 4.34511724 18.9692608 2.89684138 18.9692608"></polygon>
                <polygon id="Fill-16" fill="#FFFFFF" points="4.29674483 25.1954273 5.93822069 25.1954273 5.93822069 22.2513272 4.29674483 22.2513272"></polygon>
                <polygon id="Fill-17" fill="#FFFFFF" points="5.93822069 28.0430898 7.38649655 28.0430898 7.38649655 25.1470637 5.93822069 25.1470637"></polygon>
                <polygon id="Fill-18" fill="#FFFFFF" points="7.28975172 31.1803549 8.93122759 31.1803549 8.93122759 28.0430898 7.28975172 28.0430898"></polygon>
                <polygon id="Fill-19" fill="#FFFFFF" points="4.29645517 16.2658204 6.61369655 16.2658204 6.61369655 14.7694437 4.29645517 14.7694437"></polygon>
                <polygon id="Fill-20" fill="#FFFFFF" points="19.9378345 12.1149461 22.2550759 12.1149461 22.2550759 10.4256941 19.9378345 10.4256941"></polygon>
                <polygon id="Fill-21" fill="#FFFFFF" points="22.2594207 13.6020555 23.7033517 13.6020555 23.7033517 12.1326119 22.2594207 12.1326119"></polygon>
                <polygon id="Fill-22" fill="#FFFFFF" points="7.48266207 1.73761568 10.3792138 1.73761568 10.3792138 0.241238977 7.48266207 0.241238977"></polygon>
                <polygon id="Fill-23" fill="#FFFFFF" points="16.2172138 10.4737681 19.3585241 10.4737681 19.3585241 8.94263909 16.2172138 8.94263909"></polygon>
                <polygon id="Fill-24" fill="#FFFFFF" points="12.0154759 8.911362 15.0084828 8.911362 15.0084828 7.45726728 12.0154759 7.45726728"></polygon>
            </g>
            <path d="M26,34.8316573 L35.1463539,34.8316573 L35.3870474,39.0600027 C35.8684369,38.5281327 36.4701647,37.9696775 37.1922489,37.3846205 C37.914333,36.7995635 38.7701237,36.2677015 39.7596464,35.7890185 C40.7491692,35.3103379 41.8723944,34.9114374 43.1293558,34.592317 C44.3863171,34.273195 45.7903486,34.1136364 47.3414924,34.1136364 C50.2298292,34.1136364 52.7303424,34.6720915 54.8431073,35.7890185 C56.9558721,36.9059399 58.7075685,38.3818626 60.0982492,40.2168142 C61.4889298,42.0517657 62.5319247,44.1393241 63.227265,46.4795522 C63.9226053,48.8197802 64.2702703,51.2397524 64.2702703,53.7395414 C64.2702703,56.6648265 63.842375,59.164578 62.9865715,61.238871 C62.130768,63.313164 61.0610297,65.1214949 59.7773245,66.6639179 C57.6378158,69.216894 55.2977633,70.9986318 52.7570967,72.0091848 C50.2164302,73.0197378 47.6089431,73.5250067 44.9345572,73.5250067 C43.7043397,73.5250067 42.6479731,73.4718205 41.7654258,73.3654465 C40.8828785,73.2590725 40.0805747,73.1128104 39.3584906,72.9266559 C38.6364064,72.7405014 37.9678199,72.5277566 37.3527112,72.2884151 L35.9010294,71.7274617 C35.7322097,71.6626404 35.5608825,71.5969879 35.3870474,71.5305042 L35.3870474,88.2045455 L26,88.2045455 L26,34.8316573 Z M35.5675676,63.625 C37.4202179,65.1628865 40.2256176,65.9318182 43.9838511,65.9318182 C45.6777028,65.9318182 47.1862668,65.6003821 48.5095884,64.9375 C49.8329101,64.2746179 50.9577166,63.3996266 51.8840417,62.3125 C52.8103669,61.2253734 53.5117168,59.9924311 53.9881126,58.6136364 C54.4645084,57.2348416 54.7027027,55.8030377 54.7027027,54.3181818 C54.7027027,52.7272648 54.5306735,51.2424311 54.1866098,49.8636364 C53.8425462,48.4848416 53.2867595,47.2784143 52.5192329,46.2443182 C51.7517064,45.2102221 50.75923,44.3882606 49.5417741,43.7784091 C48.3243182,43.1685576 46.8157542,42.8636364 45.0160368,42.8636364 C43.5868494,42.8636364 42.2900137,43.1685576 41.1254906,43.7784091 C39.9609676,44.3882606 38.9684913,45.1704498 38.1480318,46.125 C37.3275724,47.0795502 36.6923876,48.1268882 36.2424582,49.2670455 C35.7925289,50.4072027 35.5675676,51.5075705 35.5675676,52.5681818 L35.5675676,63.625 Z M93.5310811,68.3977273 C92.5211661,69.6174303 90.9797401,70.7045455 88.9067568,71.6590909 C86.8337734,72.6136411 84.5216344,73.0909091 81.9702703,73.0909091 C80.4288211,73.0909091 78.9006833,72.8522751 77.3858108,72.375 C75.8709384,71.8977273 74.4889702,71.1685655 73.2398649,70.1875 C71.9907595,69.2064345 70.9808597,67.9469774 70.2101351,66.4090909 C69.4394106,64.8712044 69.0540541,63.0681922 69.0540541,61 C69.0540541,58.8787773 69.4527027,56.9829629 70.25,55.3125 C71.0472973,53.6420371 72.1635063,52.2367481 73.5986486,51.0965909 C75.0337838,49.9564337 76.7612512,49.0946999 78.7810811,48.5113636 C80.800911,47.9280274 83.0333211,47.6363636 85.4783784,47.6363636 C86.2225262,47.6363636 87.0463919,47.6496211 87.95,47.6761364 C88.6277061,47.6960228 89.2904554,47.7233664 89.938259,47.7581675 L90.5810811,47.7954545 C91.5378426,47.8484851 92.5211661,47.9015149 93.5310811,47.9545455 L93.5310811,47.0795455 C93.5310811,45.2234756 92.7869444,43.7651568 91.2986486,42.7045455 C89.8103529,41.6439341 87.8702822,41.1136364 85.4783784,41.1136364 C82.8207074,41.1136364 80.6946026,41.4583299 79.1,42.1477273 C77.5053974,42.8371247 76.096853,43.5795415 74.8743243,44.375 L70.5689189,38.0113636 C71.3130668,37.481058 72.1635087,36.9375028 73.1202703,36.3806818 C74.0770318,35.8238609 75.1932369,35.320078 76.4689189,34.8693182 C77.744601,34.4185584 79.2195862,34.0473499 80.8939189,33.7556818 C82.5682516,33.4640137 84.5216105,33.3181818 86.7540541,33.3181818 C89.1459579,33.3181818 91.3119272,33.6496179 93.252027,34.3125 C95.1921268,34.9753821 96.8531462,35.9034031 98.2351351,37.0965909 C99.617124,38.2897787 100.680176,39.7215826 101.424324,41.3920455 C102.168472,43.0625084 102.540541,44.8787781 102.540541,46.8409091 L102.540541,71.8977273 L93.7702703,71.8977273 L93.5310811,68.3977273 Z M93.7702703,58.8303689 L93.7702703,55.1182477 L90.8934244,54.9568511 L90.8934244,54.9568511 C90.3180523,54.9165018 89.7195694,54.8837183 89.0979655,54.8585001 L88.4686542,54.8358037 C87.7254653,54.8122666 87.0766817,54.7990271 86.5222888,54.796085 L86.2904709,54.7954545 C83.1670226,54.7954545 80.9751619,55.4006856 79.7148231,56.611166 C78.4544843,57.8216464 77.8243243,59.2069531 77.8243243,60.7671278 C77.8243243,62.3811016 78.4133869,63.6453621 79.5915297,64.5599473 C80.7696725,65.4745325 82.5094619,65.9318182 84.8109501,65.9318182 C85.9616942,65.9318182 87.0713237,65.7435241 88.1398718,65.3669302 C89.2084199,64.9903363 90.153664,64.479249 90.9756199,63.8336627 C91.7975759,63.1880732 92.4688374,62.4348967 92.9894121,61.5741107 C93.5099868,60.7133246 93.7702703,59.7987532 93.7702703,58.8303689 Z M117.682271,78.197474 C119.199623,79.2035967 120.838879,79.9317008 122.600091,80.3818083 C124.361302,80.8319158 126.434082,81.0569662 128.818491,81.0569662 C131.311283,81.0569662 133.397609,80.3156238 135.077534,78.8329167 C136.757459,77.3502097 137.597409,75.2850415 137.597409,72.6373503 L137.597409,68.5864031 C136.296822,69.6454796 134.874326,70.5059663 133.329879,71.1678891 C131.785432,71.8298119 129.739748,72.1607683 127.192765,72.1607683 C124.429018,72.1607683 121.976907,71.7106676 119.836358,70.8104526 C117.695808,69.9102376 115.866885,68.6526031 114.349534,67.0375115 C112.832183,65.4224199 111.680638,63.5161108 110.894867,61.3185272 C110.109096,59.1209435 109.716216,56.6983424 109.716216,54.0506512 C109.716216,51.2970524 110.217477,48.702354 111.220012,46.2664781 C112.222548,43.8306022 113.658591,41.712481 115.528185,39.912051 C117.397779,38.111621 119.660224,36.6951275 122.315589,35.662528 C124.970954,34.6299284 127.951421,34.1136364 131.257079,34.1136364 C134.562738,34.1136364 137.610942,34.3784015 140.401785,34.9079397 C143.192628,35.437478 145.455073,35.9934848 147.189189,36.5759768 L147.189189,72.796211 C147.189189,75.3909484 146.728572,77.6944051 145.807323,79.7066504 C144.886073,81.7188957 143.612601,83.4133927 141.986868,84.7901921 C140.361134,86.1669915 138.437378,87.2128138 136.215542,87.9276904 C133.993706,88.6425671 131.582237,89 128.981063,89 C126.975992,89 125.201259,88.9073322 123.656812,88.7219938 C122.112365,88.5366554 120.730513,88.2851285 119.511212,87.9674056 C118.291912,87.6496827 117.181011,87.2525349 116.178475,86.7759505 C115.175939,86.2993661 114.241157,85.7433561 113.374099,85.1079134 L117.682271,78.197474 Z M137.621622,42.8810551 C136.854115,42.610096 136.059209,42.4068797 135.23688,42.2714001 C134.414552,42.1359206 133.126256,42.0681818 131.371955,42.0681818 C129.398366,42.0681818 127.671502,42.3933279 126.19131,43.0436297 C124.711119,43.6939283 123.450233,44.5609877 122.408617,45.6448242 C121.367001,46.7286606 120.5858,47.9886015 120.064992,49.4246848 C119.544184,50.8607681 119.283784,52.3645686 119.283784,53.9361314 C119.283784,56.8624897 120.023868,59.3281806 121.50406,61.333278 C122.984244,63.3383754 125.368969,64.3409091 128.658284,64.3409091 C131.618667,64.3409091 133.852626,63.7177125 135.360229,62.4713006 C136.867832,61.2248887 137.621622,59.2469169 137.621622,56.5373258 L137.621622,42.8810551 Z M192.155737,66.4224279 L190.837391,67.7323081 C190.11829,68.4467918 189.079604,69.2009577 187.721302,69.9948285 C186.363,70.7886993 184.631856,71.5031723 182.527819,72.1382689 C180.423783,72.7733655 177.906966,73.0909091 174.977295,73.0909091 C171.994357,73.0909091 169.277793,72.5881318 166.827523,71.5825621 C164.377252,70.5769925 162.286563,69.1877395 160.555394,67.4147614 C158.824224,65.6417833 157.492576,63.5115953 156.560407,61.0241336 C155.628239,58.5366718 155.162162,55.7846277 155.162162,52.7679187 C155.162162,50.0158333 155.628239,47.462254 156.560407,45.107104 C157.492576,42.751954 158.797591,40.7011519 160.475494,38.9546362 C162.153397,37.2081205 164.15087,35.8320984 166.467974,34.8265288 C168.785078,33.8209591 171.35516,33.3181818 174.178298,33.3181818 C177.58737,33.3181818 180.477048,33.9400379 182.847418,35.1837688 C185.217789,36.4274997 187.122054,38.0549104 188.560249,40.0660497 C189.998451,42.077189 191.037137,44.3529178 191.676338,46.8933043 C192.315536,49.4336908 192.635135,52.0269631 192.635135,54.6731991 L192.635135,56.0227726 L164.67023,56.0227726 C164.67023,57.3988153 164.976509,58.6425276 165.589077,59.7539467 C166.201644,60.8653657 167.000634,61.8179964 167.986069,62.6118672 C168.971504,63.405738 170.090089,64.0143631 171.341857,64.4377608 C172.593626,64.8611586 173.832059,65.0728543 175.057195,65.0728543 C176.868264,65.0728543 178.452926,64.9008515 179.811229,64.5568409 C181.169531,64.2128302 182.32807,63.8159008 183.286867,63.3660406 C184.245668,62.9161805 185.031341,62.4398652 185.643909,61.9370804 L186.030585,61.6156125 C186.456389,61.2565755 186.793577,60.9535688 187.042154,60.7065868 L192.155737,66.4224279 Z M183.067568,50.0227273 C183.067568,49.0868984 182.881533,48.1510742 182.509459,47.2152406 C182.137386,46.2794071 181.592571,45.43457 180.875,44.6807041 C180.157429,43.9268382 179.240546,43.3029585 178.124324,42.8090463 C177.008103,42.3151342 175.73244,42.0681818 174.297297,42.0681818 C172.755848,42.0681818 171.387168,42.3151342 170.191216,42.8090463 C168.995264,43.3029585 167.998653,43.9268382 167.201351,44.6807041 C166.40405,45.43457 165.792795,46.2794071 165.367568,47.2152406 C164.94234,48.1510742 164.72973,49.0868984 164.72973,50.0227273 L183.067568,50.0227273 Z M199.013514,19 L208.605294,19 L208.605294,37.2150938 C209.255587,36.5815222 210.501965,35.8687648 212.344463,35.0768002 C214.186961,34.2848357 216.408763,33.8888593 219.009937,33.8888593 C221.773684,33.8888593 224.225796,34.3904293 226.366345,35.3935845 C228.506894,36.3967396 230.335817,37.7430591 231.853169,39.4325835 C233.37052,41.1221079 234.522064,43.128388 235.307835,45.4514841 C236.093607,47.7745801 236.486486,50.2296335 236.486486,52.8167177 C236.486486,55.6149925 235.985226,58.2416355 234.98269,60.6967257 C233.980155,63.1518158 232.544111,65.2900881 230.674518,67.1116065 C228.804924,68.933125 226.542479,70.3850383 223.887114,71.4673899 C221.231749,72.5497414 218.251282,73.0909091 214.945623,73.0909091 C211.639965,73.0909091 208.59176,72.8269249 205.800918,72.2989485 C203.010075,71.7709721 200.747629,71.2166052 199.013514,70.6358312 L199.013514,19 Z M208.581081,65.1363636 C209.348588,65.4015165 210.143494,65.6003781 210.965822,65.7329545 C211.788151,65.865531 213.076447,65.9318182 214.830748,65.9318182 C216.804337,65.9318182 218.531201,65.6003821 220.011393,64.9375 C221.491584,64.2746179 222.752469,63.3863692 223.794086,62.2727273 C224.835702,61.1590909 225.616902,59.8731134 226.137711,58.4147727 C226.658519,56.9564321 226.918919,55.458341 226.918919,53.9204545 C226.918919,52.4886292 226.74075,51.1098551 226.384408,49.7840909 C226.028066,48.4583267 225.466149,47.2784143 224.698643,46.2443182 C223.931136,45.2102221 222.958061,44.3882606 221.77939,43.7784091 C220.600719,43.1685576 219.189076,42.8636364 217.544419,42.8636364 C214.584036,42.8636364 212.350076,43.5927957 210.842474,45.0511364 C209.334871,46.509477 208.581081,48.5113509 208.581081,51.0568182 L208.581081,65.1363636 Z M243.662162,34.9090909 L253.134857,34.9090909 L253.134857,57.0755362 C253.134857,59.4170738 253.790446,61.225234 255.101645,62.5000712 C256.412844,63.7749083 258.112025,64.4123173 260.199239,64.4123173 C261.483679,64.4123173 262.687823,64.1651587 263.811708,63.6708341 C264.935587,63.1765095 265.898907,62.4870671 266.701682,61.6024862 C267.504457,60.7179054 268.133288,59.6902459 268.588193,58.5194771 C269.043099,57.3487083 269.270549,56.0868986 269.270549,54.7340102 L269.270549,34.9090909 L278.743243,34.9090909 L278.743243,71.5149459 L269.671934,71.5149459 L269.431103,67.3782501 C268.94944,67.8985918 268.360745,68.4449424 267.665007,69.0173183 C266.969269,69.5896941 266.166506,70.1230364 265.256695,70.617361 C264.346884,71.1116856 263.303292,71.5149443 262.125889,71.8271494 C260.948486,72.1393544 259.610548,72.2954545 258.112035,72.2954545 C253.402424,72.2954545 249.81675,70.9295781 247.354908,68.1977842 C244.893065,65.4659903 243.662162,61.7846281 243.662162,57.153587 L243.662162,34.9090909 Z M287.513514,19 L297.878378,19 L297.878378,29.3409091 L287.513514,29.3409091 L287.513514,19 Z M288.310811,34.9090909 L297.878378,34.9090909 L297.878378,71.5 L288.310811,71.5 L288.310811,34.9090909 Z M307.445946,19 L317.013514,19 L317.013514,72.2954545 L307.445946,72.2954545 L307.445946,19 Z M352.19275,68.1807534 C351.707139,68.7087297 351.113618,69.2630966 350.412177,69.8438706 C349.710735,70.4246446 348.887903,70.9526131 347.943655,71.4277918 C346.999407,71.9029706 345.94726,72.2989469 344.787184,72.6157327 C343.627108,72.9325186 342.318669,73.0909091 340.861829,73.0909091 C338.811462,73.0909091 336.788104,72.6685343 334.791693,71.8237721 C332.795283,70.9790099 331.014728,69.7382841 329.449974,68.1015573 C327.88522,66.4648305 326.617244,64.4585504 325.646022,62.0826567 C324.674795,59.706763 324.189189,56.9877255 324.189189,53.9254625 C324.189189,51.0215925 324.620839,48.4741447 325.484152,46.2830427 C326.347464,44.0919408 327.426595,42.230852 328.721557,40.6997205 C329.800698,39.4325772 330.987735,38.3766403 332.282704,37.5318781 C333.577673,36.6871159 334.886111,35.9875577 336.208058,35.4331825 C337.530006,34.8788073 338.811466,34.4828309 340.052478,34.2452416 C341.29349,34.0076522 342.372614,33.8888593 343.289884,33.8888593 C344.530896,33.8888593 345.556064,33.9284569 346.365419,34.0076534 C347.174775,34.0868499 347.903184,34.1924435 348.550668,34.3244376 C349.198153,34.4564317 349.791671,34.6280215 350.331242,34.839212 L351.848775,35.4221826 C351.961185,35.4647139 352.075843,35.5079785 352.19275,35.5519766 L352.19275,19 L361.662162,19 L361.662162,71.8237721 L352.435555,71.8237721 L352.19275,68.1807534 Z M352.094595,44.8454389 C351.179045,44.1055623 350.115407,43.5902988 348.903649,43.2996329 C347.691892,43.0089671 346.143558,42.8636364 344.258602,42.8636364 C342.373646,42.8636364 340.811849,43.2203573 339.573163,43.9338097 C338.334478,44.6472622 337.257376,45.5853061 336.341826,46.7479694 C335.533988,47.804936 334.901191,49.0336413 334.443416,50.4341221 C333.985641,51.834603 333.756757,53.3011222 333.756757,54.8337238 C333.756757,58.0046238 334.564583,60.6470008 336.18026,62.7609341 C337.795936,64.8748674 340.138632,65.9318182 343.208418,65.9318182 C344.824094,65.9318182 346.197399,65.6279448 347.328372,65.020189 C348.459346,64.4124332 349.374882,63.632932 350.075009,62.681662 C350.775135,61.730392 351.286759,60.6866531 351.609894,59.5504139 C351.933028,58.4141748 352.094595,57.3175883 352.094595,56.2606217 L352.094595,44.8454389 Z M405.831412,66.4224279 L404.513067,67.7323081 C403.793966,68.4467918 402.75528,69.2009577 401.396977,69.9948285 C400.038675,70.7886993 398.307532,71.5031723 396.203495,72.1382689 C394.099458,72.7733655 391.582642,73.0909091 388.652971,73.0909091 C385.670033,73.0909091 382.953469,72.5881318 380.503198,71.5825621 C378.052928,70.5769925 375.962239,69.1877395 374.23107,67.4147614 C372.4999,65.6417833 371.168251,63.5115953 370.236083,61.0241336 C369.303915,58.5366718 368.837838,55.7846277 368.837838,52.7679187 C368.837838,50.0158333 369.303915,47.462254 370.236083,45.107104 C371.168251,42.751954 372.473267,40.7011519 374.15117,38.9546362 C375.829073,37.2081205 377.826546,35.8320984 380.14365,34.8265288 C382.460753,33.8209591 385.030835,33.3181818 387.853973,33.3181818 C391.263046,33.3181818 394.152724,33.9400379 396.523094,35.1837688 C398.893464,36.4274997 400.797729,38.0549104 402.235925,40.0660497 C403.674127,42.077189 404.712813,44.3529178 405.352014,46.8933043 C405.991212,49.4336908 406.310811,52.0269631 406.310811,54.6731991 L406.310811,56.0227726 L378.345906,56.0227726 C378.345906,57.3988153 378.652185,58.6425276 379.264752,59.7539467 C379.87732,60.8653657 380.676309,61.8179964 381.661744,62.6118672 C382.647179,63.405738 383.765764,64.0143631 385.017533,64.4377608 C386.269302,64.8611586 387.507735,65.0728543 388.73287,65.0728543 C390.54394,65.0728543 392.128602,64.9008515 393.486904,64.5568409 C394.845206,64.2128302 396.003746,63.8159008 396.962542,63.3660406 C397.921344,62.9161805 398.707017,62.4398652 399.319585,61.9370804 L399.706261,61.6156125 C400.132065,61.2565755 400.469253,60.9535688 400.71783,60.7065868 L405.831412,66.4224279 Z M396.743243,50.0227273 C396.743243,49.0868984 396.557209,48.1510742 396.185135,47.2152406 C395.813061,46.2794071 395.268247,45.43457 394.550676,44.6807041 C393.833105,43.9268382 392.916222,43.3029585 391.8,42.8090463 C390.683778,42.3151342 389.408115,42.0681818 387.972973,42.0681818 C386.431524,42.0681818 385.062844,42.3151342 383.866892,42.8090463 C382.67094,43.3029585 381.674328,43.9268382 380.877027,44.6807041 C380.079726,45.43457 379.468471,46.2794071 379.043243,47.2152406 C378.618016,48.1510742 378.405405,49.0868984 378.405405,50.0227273 L396.743243,50.0227273 Z M413.486486,34.8175637 L422.638953,34.8175637 L422.881939,39.4321986 C423.313916,38.9107683 423.867378,38.3372036 424.542342,37.7114873 C425.217306,37.0857709 426.013752,36.5122062 426.931703,35.990776 C427.849654,35.4693457 428.916081,35.0261366 430.131017,34.6611354 C431.345952,34.2961342 432.736357,34.1136364 434.302274,34.1136364 C435.220225,34.1136364 436.043669,34.1657786 436.77263,34.2700647 C437.501591,34.3743507 438.24404,34.5568486 439,34.8175637 L437.056113,43.4993343 C436.408148,43.2386192 435.746693,43.0561214 435.071729,42.9518353 C434.396765,42.8475492 433.600319,42.795407 432.682368,42.795407 C431.386437,42.795407 430.144522,43.003976 428.956585,43.4211202 C427.768648,43.8382644 426.742718,44.4379002 425.878764,45.2200456 C425.01481,46.0021911 424.326357,46.9407515 423.813385,48.035755 C423.300412,49.1307586 423.04393,50.3561014 423.04393,51.7118201 L423.04393,71.5 L413.486486,71.5 L413.486486,34.8175637 Z" id="pagebuilder" fill="#FFFFFF" fill-rule="nonzero"></path>
            <path d="M32.4658385,133 C34.7515528,133 36.5962733,132.12963 38,130.388889 L38,130.388889 L35.7826087,128.314815 C35.3478261,128.858025 34.9037267,129.256173 34.4503106,129.509259 C33.9968944,129.762346 33.4099379,129.888889 32.689441,129.888889 C32.1925466,129.888889 31.742236,129.802469 31.3385093,129.62963 C30.9347826,129.45679 30.5900621,129.216049 30.3043478,128.907407 C30.0186335,128.598765 29.7981366,128.234568 29.6428571,127.814815 C29.4875776,127.395062 29.4099379,126.938272 29.4099379,126.444444 C29.4099379,125.962963 29.484472,125.515432 29.6335404,125.101852 C29.7826087,124.688272 29.9968944,124.32716 30.2763975,124.018519 C30.5559006,123.709877 30.9006211,123.469136 31.310559,123.296296 C31.7204969,123.123457 32.1863354,123.037037 32.7080745,123.037037 C33.3291925,123.037037 33.8819876,123.179012 34.3664596,123.462963 C34.8509317,123.746914 35.2670807,124.123457 35.6149068,124.592593 L35.6149068,124.592593 L37.7950311,122.407407 C37.1614907,121.518519 36.3850932,120.895062 35.4658385,120.537037 C34.5465839,120.179012 33.5465839,120 32.4658385,120 C31.5093168,120 30.6335404,120.16358 29.8385093,120.490741 C29.0434783,120.817901 28.3602484,121.274691 27.7888199,121.861111 C27.2173913,122.447531 26.7763975,123.138889 26.4658385,123.935185 C26.1552795,124.731481 26,125.598765 26,126.537037 C26,127.487654 26.1583851,128.358025 26.4751553,129.148148 C26.7919255,129.938272 27.2329193,130.617284 27.7981366,131.185185 C28.363354,131.753086 29.0434783,132.197531 29.8385093,132.518519 C30.6335404,132.839506 31.5093168,133 32.4658385,133 Z M43.4138504,133 L43.6443213,125.855603 L45.9490305,130.021645 L47.6686981,130.021645 L49.7429363,125.855603 L50.0265928,133 L53.2,133 L52.6504155,120.8125 L49.6365651,120.8125 L46.8177285,126.129685 L43.9457064,120.8125 L40.9495845,120.8125 L40.4,133 L43.4138504,133 Z M60.9034358,133 C61.6055455,133 62.2669078,132.904184 62.8875226,132.712553 C63.5081374,132.520922 64.0472574,132.252021 64.5048825,131.905849 C64.9625075,131.559677 65.3261001,131.145506 65.59566,130.663338 C65.86522,130.18117 66,129.65573 66,129.087019 C66,128.431764 65.8871609,127.878507 65.6614828,127.427247 C65.4358047,126.975987 65.1474382,126.598906 64.7963834,126.296006 C64.4453285,125.993105 64.0503918,125.752021 63.6115732,125.572753 C63.1727547,125.393485 62.7402049,125.235854 62.3139241,125.099857 L62.3139241,125.099857 L61.7121157,124.914408 C61.4488246,124.827865 61.2012055,124.744413 60.9692586,124.664051 C60.7373116,124.58369 60.5398433,124.494056 60.3768535,124.39515 C60.2138638,124.296243 60.0853526,124.178792 59.9913201,124.042796 C59.8972875,123.9068 59.8502712,123.746077 59.8502712,123.560628 C59.8502712,123.387542 59.8910187,123.242273 59.9725136,123.124822 C60.0540084,123.00737 60.1605787,122.911555 60.2922242,122.837375 C60.4238698,122.763195 60.5711875,122.707561 60.7341772,122.670471 C60.897167,122.633381 61.0601567,122.614836 61.2231465,122.614836 C61.7246534,122.614836 62.2136227,122.716833 62.6900542,122.920827 C63.1664858,123.124822 63.6241109,123.387542 64.0629295,123.708987 L64.0629295,123.708987 L65.7555154,121.594864 C65.617601,121.446505 65.4169982,121.279601 65.1537071,121.094151 C64.8904159,120.908702 64.5707052,120.735616 64.194575,120.574893 C63.8184448,120.41417 63.3796263,120.278174 62.8781193,120.166904 C62.3766124,120.055635 61.818686,120 61.20434,120 C60.4144665,120 59.7186257,120.101997 59.1168174,120.305991 C58.515009,120.509986 58.0103677,120.794341 57.6028933,121.159058 C57.1954189,121.523776 56.8851115,121.950309 56.6719711,122.438659 C56.4588306,122.927009 56.3522604,123.45554 56.3522604,124.024251 C56.3522604,124.531146 56.4494274,124.973134 56.6437613,125.350214 C56.8380952,125.727294 57.0919831,126.054922 57.405425,126.333096 C57.7188668,126.61127 58.0730561,126.849263 58.4679928,127.047076 C58.8629295,127.244888 59.2547318,127.405611 59.6433996,127.529244 L59.6433996,127.529244 L60.3392405,127.751783 C60.9786618,127.961959 61.4644967,128.172135 61.796745,128.382311 C62.1289934,128.592487 62.2951175,128.858298 62.2951175,129.179743 C62.2951175,129.377556 62.2512357,129.538279 62.163472,129.661912 C62.0757083,129.785544 61.9628692,129.884451 61.8249548,129.958631 C61.6870404,130.03281 61.5303195,130.085354 61.354792,130.116262 C61.1792646,130.147171 61.010006,130.162625 60.8470163,130.162625 C60.1699819,130.162625 59.5493671,130.020447 58.9851718,129.736091 C58.4209765,129.451736 57.9633514,129.136472 57.6122966,128.7903 L57.6122966,128.7903 L55.6,131.182596 C56.1892706,131.738944 56.9070524,132.180932 57.7533454,132.508559 C58.5996383,132.836186 59.6496685,133 60.9034358,133 Z" id="CMS" fill="#FFFFFF" fill-rule="nonzero"></path>
        </g>
        <rect id="Rectangle" stroke="#FFFFFF" x="738" y="-63" width="537" height="297"></rect>
        <rect id="Rectangle-Copy-4" stroke="#FFFFFF" x="380" y="513" width="537" height="297"></rect>
    </g>
</svg>