<svg width="1200" height="600" viewBox="0 0 1200 600" fill="none" xmlns="http://www.w3.org/2000/svg">
<g id="pagebuilder_hero" clip-path="url(#clip0)">
<rect width="1200" height="600" fill="#DAE5F3"/>
<g id="Group 2">
<rect id="Rectangle" x="83.5" y="237.5" width="455" height="98" stroke="#006AFF"/>
<rect id="Rectangle_2" x="80" y="234" width="6" height="6" fill="white" stroke="#006AFF"/>
<rect id="Rectangle Copy 3" x="308" y="234" width="6" height="6" fill="white" stroke="#006AFF"/>
<rect id="Rectangle Copy 6" x="536" y="234" width="6" height="6" fill="white" stroke="#006AFF"/>
<rect id="Rectangle Copy" x="80" y="284" width="6" height="6" fill="white" stroke="#006AFF"/>
<rect id="Rectangle Copy 7" x="536" y="284" width="6" height="6" fill="white" stroke="#006AFF"/>
<rect id="Rectangle Copy 2" x="80" y="333" width="6" height="6" fill="white" stroke="#006AFF"/>
<rect id="Rectangle Copy 5" x="308" y="333" width="6" height="6" fill="white" stroke="#006AFF"/>
<rect id="Rectangle Copy 8" x="536" y="333" width="6" height="6" fill="white" stroke="#006AFF"/>
<g id="hand_cursor_free_vector">
<g id="Group 4">
<mask id="mask0" mask-type="alpha" maskUnits="userSpaceOnUse" x="386" y="315" width="37" height="40">
<path id="Clip 2" fill-rule="evenodd" clip-rule="evenodd" d="M386.862 326.605L408.932 315.841L422.41 343.475L400.34 354.239L386.862 326.605Z" fill="white"/>
</mask>
<g mask="url(#mask0)">
<path id="Fill 1" fill-rule="evenodd" clip-rule="evenodd" d="M393.191 324.753L399.335 336.578L397.729 337.361L396.179 336.936L393.231 338.051L394.418 340.265L395.771 341.055L398.074 341.704L399.309 343.464L401.225 344.088L402.034 345.197L403.28 345.77L404.669 347.295L405.743 347.845L407.38 350.43L419.72 344.787L418.518 341.882L419.055 340.01L418.114 336.978L418.475 335.406L414.365 327.529L410.876 326.653L408.804 326.59L407.811 326.537L404.434 327.432L403.23 326.945L400.306 327.888L397.352 323.153L395.546 322.423L394.353 322.951L393.191 324.753Z" fill="white"/>
<path id="Fill 3" fill-rule="evenodd" clip-rule="evenodd" d="M394.12 341.485L395.319 340.9L393.415 336.996L392.215 337.581L394.12 341.485Z" fill="#006AFF"/>
</g>
</g>
<path id="Fill 5" fill-rule="evenodd" clip-rule="evenodd" d="M400.791 342.098L402.31 341.357L393.825 323.961L392.306 324.702L400.791 342.098Z" fill="#006AFF"/>
<path id="Fill 6" fill-rule="evenodd" clip-rule="evenodd" d="M406.35 332.351L407.869 331.611L405.308 326.361L403.79 327.102L406.35 332.351Z" fill="#006AFF"/>
<path id="Fill 7" fill-rule="evenodd" clip-rule="evenodd" d="M410.825 331.726L412.344 330.985L409.826 325.823L408.307 326.563L410.825 331.726Z" fill="#006AFF"/>
<path id="Fill 8" fill-rule="evenodd" clip-rule="evenodd" d="M418.074 336.568L419.593 335.827L415.15 326.717L413.631 327.458L418.074 336.568Z" fill="#006AFF"/>
<path id="Fill 9" fill-rule="evenodd" clip-rule="evenodd" d="M419.11 345.299L420.629 344.559L418.894 341.001L417.375 341.742L419.11 345.299Z" fill="#006AFF"/>
<path id="Fill 10" fill-rule="evenodd" clip-rule="evenodd" d="M418.72 341.086L420.239 340.345L418.314 336.398L416.795 337.139L418.72 341.086Z" fill="#006AFF"/>
<path id="Fill 11" fill-rule="evenodd" clip-rule="evenodd" d="M402.259 334.534L403.777 333.794L397.98 321.907L396.461 322.648L402.259 334.534Z" fill="#006AFF"/>
<path id="Fill 12" fill-rule="evenodd" clip-rule="evenodd" d="M392.943 338.891L396.674 337.071L396.018 335.726L392.287 337.546L392.943 338.891Z" fill="#006AFF"/>
<path id="Fill 13" fill-rule="evenodd" clip-rule="evenodd" d="M407.152 351.615L420.82 344.949L420.164 343.604L406.496 350.271L407.152 351.615Z" fill="#006AFF"/>
<path id="Fill 14" fill-rule="evenodd" clip-rule="evenodd" d="M395.954 342.202L397.386 341.503L396.73 340.159L395.298 340.857L395.954 342.202Z" fill="#006AFF"/>
<path id="Fill 15" fill-rule="evenodd" clip-rule="evenodd" d="M398.739 344.388L400.041 343.753L398.602 340.803L397.3 341.438L398.739 344.388Z" fill="#006AFF"/>
<path id="Fill 16" fill-rule="evenodd" clip-rule="evenodd" d="M401.288 346.42L402.763 345.7L401.473 343.054L399.997 343.774L401.288 346.42Z" fill="#006AFF"/>
<path id="Fill 17" fill-rule="evenodd" clip-rule="evenodd" d="M404.012 348.26L405.313 347.625L404.044 345.022L402.742 345.657L404.012 348.26Z" fill="#006AFF"/>
<path id="Fill 18" fill-rule="evenodd" clip-rule="evenodd" d="M406.602 350.487L408.077 349.768L406.702 346.948L405.226 347.667L406.602 350.487Z" fill="#006AFF"/>
<path id="Fill 19" fill-rule="evenodd" clip-rule="evenodd" d="M397.373 338.394L399.456 337.378L398.8 336.034L396.717 337.049L397.373 338.394Z" fill="#006AFF"/>
<path id="Fill 20" fill-rule="evenodd" clip-rule="evenodd" d="M409.612 327.807L411.695 326.791L410.954 325.273L408.871 326.289L409.612 327.807Z" fill="#006AFF"/>
<path id="Fill 21" fill-rule="evenodd" clip-rule="evenodd" d="M412.35 328.126L413.648 327.493L413.004 326.172L411.706 326.805L412.35 328.126Z" fill="#006AFF"/>
<path id="Fill 22" fill-rule="evenodd" clip-rule="evenodd" d="M393.868 323.94L396.472 322.67L395.816 321.325L393.212 322.595L393.868 323.94Z" fill="#006AFF"/>
<path id="Fill 23" fill-rule="evenodd" clip-rule="evenodd" d="M405.548 327.963L408.372 326.586L407.701 325.209L404.877 326.586L405.548 327.963Z" fill="#006AFF"/>
<path id="Fill 24" fill-rule="evenodd" clip-rule="evenodd" d="M401.087 328.401L403.777 327.089L403.14 325.782L400.45 327.094L401.087 328.401Z" fill="#006AFF"/>
</g>
<path id="pagebuilder" fill-rule="evenodd" clip-rule="evenodd" d="M288.605 253H279.014V304.636C280.748 305.217 283.01 305.771 285.801 306.299C288.592 306.827 291.64 307.091 294.946 307.091C298.251 307.091 301.232 306.55 303.887 305.467C306.542 304.385 308.805 302.933 310.675 301.112C312.544 299.29 313.98 297.152 314.983 294.697C315.985 292.242 316.486 289.615 316.486 286.817C316.486 284.23 316.094 281.775 315.308 279.451C314.522 277.128 313.371 275.122 311.853 273.433C310.336 271.743 308.507 270.397 306.366 269.394C304.226 268.39 301.774 267.889 299.01 267.889C296.409 267.889 294.187 268.285 292.344 269.077C290.502 269.869 289.256 270.582 288.605 271.215V253ZM168.907 305.659C170.98 304.705 172.521 303.617 173.531 302.398L173.77 305.898H182.541V280.841C182.541 278.879 182.168 277.063 181.424 275.392C180.68 273.722 179.617 272.29 178.235 271.097C176.853 269.903 175.192 268.975 173.252 268.312C171.312 267.65 169.146 267.318 166.754 267.318C164.522 267.318 162.568 267.464 160.894 267.756C159.22 268.047 157.745 268.419 156.469 268.869C155.193 269.32 154.077 269.824 153.12 270.381C152.164 270.938 151.313 271.481 150.569 272.011L154.874 278.375C156.097 277.58 157.505 276.837 159.1 276.148C160.695 275.458 162.821 275.114 165.478 275.114C167.87 275.114 169.81 275.644 171.299 276.705C172.787 277.765 173.531 279.223 173.531 281.08V281.955C172.521 281.902 171.538 281.848 170.581 281.795L169.938 281.758C169.29 281.723 168.628 281.696 167.95 281.676C167.046 281.65 166.223 281.636 165.478 281.636C163.033 281.636 160.801 281.928 158.781 282.511C156.761 283.095 155.034 283.956 153.599 285.097C152.164 286.237 151.047 287.642 150.25 289.312C149.453 290.983 149.054 292.879 149.054 295C149.054 297.068 149.439 298.871 150.21 300.409C150.981 301.947 151.991 303.206 153.24 304.188C154.489 305.169 155.871 305.898 157.386 306.375C158.901 306.852 160.429 307.091 161.97 307.091C164.522 307.091 166.834 306.614 168.907 305.659ZM106 268.832H115.146L115.387 273.06C115.868 272.528 116.47 271.97 117.192 271.385C117.914 270.8 118.77 270.268 119.76 269.789C120.749 269.31 121.872 268.911 123.129 268.592C124.386 268.273 125.79 268.114 127.341 268.114C130.23 268.114 132.73 268.672 134.843 269.789C136.956 270.906 138.708 272.382 140.098 274.217C141.489 276.052 142.532 278.139 143.227 280.48C143.923 282.82 144.27 285.24 144.27 287.74C144.27 290.665 143.842 293.165 142.987 295.239C142.131 297.313 141.061 299.121 139.777 300.664C137.638 303.217 135.298 304.999 132.757 306.009C130.216 307.02 127.609 307.525 124.935 307.525C123.704 307.525 122.648 307.472 121.765 307.365C120.883 307.259 120.081 307.113 119.358 306.927C118.636 306.741 117.968 306.528 117.353 306.288L115.901 305.727C115.732 305.663 115.561 305.597 115.387 305.531V322.205H106V268.832ZM115.568 297.625C117.42 299.163 120.226 299.932 123.984 299.932C125.678 299.932 127.186 299.6 128.51 298.938C129.833 298.275 130.958 297.4 131.884 296.312C132.81 295.225 133.512 293.992 133.988 292.614C134.465 291.235 134.703 289.803 134.703 288.318C134.703 286.727 134.531 285.242 134.187 283.864C133.843 282.485 133.287 281.278 132.519 280.244C131.752 279.21 130.759 278.388 129.542 277.778C128.324 277.169 126.816 276.864 125.016 276.864C123.587 276.864 122.29 277.169 121.125 277.778C119.961 278.388 118.968 279.17 118.148 280.125C117.328 281.08 116.692 282.127 116.242 283.267C115.793 284.407 115.568 285.508 115.568 286.568V297.625ZM173.77 292.83V289.118L170.893 288.957C170.318 288.917 169.72 288.884 169.098 288.859L168.469 288.836C167.725 288.812 167.077 288.799 166.522 288.796L166.29 288.795C163.167 288.795 160.975 289.401 159.715 290.611C158.454 291.822 157.824 293.207 157.824 294.767C157.824 296.381 158.413 297.645 159.592 298.56C160.77 299.475 162.509 299.932 164.811 299.932C165.962 299.932 167.071 299.744 168.14 299.367C169.208 298.99 170.154 298.479 170.976 297.834C171.798 297.188 172.469 296.435 172.989 295.574C173.51 294.713 173.77 293.799 173.77 292.83ZM202.6 314.382C200.839 313.932 199.2 313.204 197.682 312.197L193.374 319.108C194.241 319.743 195.176 320.299 196.178 320.776C197.181 321.253 198.292 321.65 199.511 321.967C200.731 322.285 202.112 322.537 203.657 322.722C205.201 322.907 206.976 323 208.981 323C211.582 323 213.994 322.643 216.216 321.928C218.437 321.213 220.361 320.167 221.987 318.79C223.613 317.413 224.886 315.719 225.807 313.707C226.729 311.694 227.189 309.391 227.189 306.796V270.576C225.455 269.993 223.193 269.437 220.402 268.908C217.611 268.378 214.563 268.114 211.257 268.114C207.951 268.114 204.971 268.63 202.316 269.663C199.66 270.695 197.398 272.112 195.528 273.912C193.659 275.712 192.223 277.831 191.22 280.266C190.217 282.702 189.716 285.297 189.716 288.051C189.716 290.698 190.109 293.121 190.895 295.319C191.681 297.516 192.832 299.422 194.35 301.038C195.867 302.653 197.696 303.91 199.836 304.81C201.977 305.711 204.429 306.161 207.193 306.161C209.74 306.161 211.785 305.83 213.33 305.168C214.874 304.506 216.297 303.645 217.597 302.586V306.637C217.597 309.285 216.757 311.35 215.078 312.833C213.398 314.316 211.311 315.057 208.818 315.057C206.434 315.057 204.361 314.832 202.6 314.382ZM217.622 276.881C216.854 276.61 216.059 276.407 215.237 276.271C214.415 276.136 213.126 276.068 211.372 276.068C209.398 276.068 207.672 276.393 206.191 277.044C204.711 277.694 203.45 278.561 202.409 279.645C201.367 280.729 200.586 281.989 200.065 283.425C199.544 284.861 199.284 286.365 199.284 287.936C199.284 290.862 200.024 293.328 201.504 295.333C202.984 297.338 205.369 298.341 208.658 298.341C211.619 298.341 213.853 297.718 215.36 296.471C216.868 295.225 217.622 293.247 217.622 290.537V276.881ZM270.837 301.732L272.156 300.422L267.042 294.707C266.794 294.954 266.456 295.257 266.031 295.616L265.644 295.937C265.031 296.44 264.246 296.916 263.287 297.366C262.328 297.816 261.17 298.213 259.811 298.557C258.453 298.901 256.868 299.073 255.057 299.073C253.832 299.073 252.594 298.861 251.342 298.438C250.09 298.014 248.971 297.406 247.986 296.612C247.001 295.818 246.202 294.865 245.589 293.754C244.977 292.643 244.67 291.399 244.67 290.023H272.635V288.673C272.635 286.027 272.316 283.434 271.676 280.893C271.037 278.353 269.998 276.077 268.56 274.066C267.122 272.055 265.218 270.427 262.847 269.184C260.477 267.94 257.587 267.318 254.178 267.318C251.355 267.318 248.785 267.821 246.468 268.827C244.151 269.832 242.153 271.208 240.475 272.955C238.798 274.701 237.493 276.752 236.56 279.107C235.628 281.462 235.162 284.016 235.162 286.768C235.162 289.785 235.628 292.537 236.56 295.024C237.493 297.512 238.824 299.642 240.555 301.415C242.287 303.188 244.377 304.577 246.828 305.583C249.278 306.588 251.994 307.091 254.977 307.091C257.907 307.091 260.424 306.773 262.528 306.138C264.632 305.503 266.363 304.789 267.721 303.995C269.08 303.201 270.118 302.447 270.837 301.732ZM263.068 284.023C263.068 283.087 262.882 282.151 262.509 281.215C262.137 280.279 261.593 279.435 260.875 278.681C260.157 277.927 259.241 277.303 258.124 276.809C257.008 276.315 255.732 276.068 254.297 276.068C252.756 276.068 251.387 276.315 250.191 276.809C248.995 277.303 247.999 277.927 247.201 278.681C246.404 279.435 245.793 280.279 245.368 281.215C244.942 282.151 244.73 283.087 244.73 284.023H263.068ZM288.581 299.136C289.349 299.402 290.143 299.6 290.966 299.733C291.788 299.866 293.076 299.932 294.831 299.932C296.804 299.932 298.531 299.6 300.011 298.938C301.492 298.275 302.752 297.386 303.794 296.273C304.836 295.159 305.617 293.873 306.138 292.415C306.659 290.956 306.919 289.458 306.919 287.92C306.919 286.489 306.741 285.11 306.384 283.784C306.028 282.458 305.466 281.278 304.699 280.244C303.931 279.21 302.958 278.388 301.779 277.778C300.601 277.169 299.189 276.864 297.544 276.864C294.584 276.864 292.35 277.593 290.842 279.051C289.335 280.509 288.581 282.511 288.581 285.057V299.136ZM333.135 268.909H323.662V291.154C323.662 295.785 324.893 299.466 327.355 302.198C329.817 304.93 333.402 306.295 338.112 306.295C339.611 306.295 340.948 306.139 342.126 305.827C343.303 305.515 344.347 305.112 345.257 304.617C346.167 304.123 346.969 303.59 347.665 303.017C348.361 302.445 348.949 301.899 349.431 301.378L349.672 305.515H358.743V268.909H349.271V288.734C349.271 290.087 349.043 291.349 348.588 292.519C348.133 293.69 347.504 294.718 346.702 295.602C345.899 296.487 344.936 297.177 343.812 297.671C342.688 298.165 341.484 298.412 340.199 298.412C338.112 298.412 336.413 297.775 335.102 296.5C333.79 295.225 333.135 293.417 333.135 291.076V268.909ZM367.514 253H377.878V263.341H367.514V253ZM377.878 268.909H368.311V305.5H377.878V268.909ZM387.446 253H397.014V306.295H387.446V253ZM430.412 303.844C431.114 303.263 431.707 302.709 432.193 302.181L432.436 305.824H441.662V253H432.193V269.552C432.076 269.508 431.961 269.465 431.849 269.422L430.331 268.839C429.792 268.628 429.198 268.456 428.551 268.324C427.903 268.192 427.175 268.087 426.365 268.008C425.556 267.928 424.531 267.889 423.29 267.889C422.373 267.889 421.293 268.008 420.052 268.245C418.811 268.483 417.53 268.879 416.208 269.433C414.886 269.988 413.578 270.687 412.283 271.532C410.988 272.377 409.801 273.433 408.722 274.7C407.427 276.231 406.347 278.092 405.484 280.283C404.621 282.474 404.189 285.022 404.189 287.925C404.189 290.988 404.675 293.707 405.646 296.083C406.617 298.459 407.885 300.465 409.45 302.102C411.015 303.738 412.795 304.979 414.792 305.824C416.788 306.669 418.811 307.091 420.862 307.091C422.319 307.091 423.627 306.933 424.787 306.616C425.947 306.299 426.999 305.903 427.944 305.428C428.888 304.953 429.711 304.425 430.412 303.844ZM432.095 278.845C431.179 278.106 430.115 277.59 428.904 277.3C427.692 277.009 426.144 276.864 424.259 276.864C422.374 276.864 420.812 277.22 419.573 277.934C418.334 278.647 417.257 279.585 416.342 280.748C415.534 281.805 414.901 283.034 414.443 284.434C413.986 285.835 413.757 287.301 413.757 288.834C413.757 292.005 414.565 294.647 416.18 296.761C417.796 298.875 420.139 299.932 423.208 299.932C424.824 299.932 426.197 299.628 427.328 299.02C428.459 298.412 429.375 297.633 430.075 296.682C430.775 295.73 431.287 294.687 431.61 293.55C431.933 292.414 432.095 291.318 432.095 290.261V278.845ZM484.513 301.732L485.831 300.422L480.718 294.707C480.469 294.954 480.132 295.257 479.706 295.616L479.32 295.937C478.707 296.44 477.921 296.916 476.963 297.366C476.004 297.816 474.845 298.213 473.487 298.557C472.129 298.901 470.544 299.073 468.733 299.073C467.508 299.073 466.269 298.861 465.018 298.438C463.766 298.014 462.647 297.406 461.662 296.612C460.676 295.818 459.877 294.865 459.265 293.754C458.652 292.643 458.346 291.399 458.346 290.023H486.311V288.673C486.311 286.027 485.991 283.434 485.352 280.893C484.713 278.353 483.674 276.077 482.236 274.066C480.798 272.055 478.893 270.427 476.523 269.184C474.153 267.94 471.263 267.318 467.854 267.318C465.031 267.318 462.461 267.821 460.144 268.827C457.827 269.832 455.829 271.208 454.151 272.955C452.473 274.701 451.168 276.752 450.236 279.107C449.304 281.462 448.838 284.016 448.838 286.768C448.838 289.785 449.304 292.537 450.236 295.024C451.168 297.512 452.5 299.642 454.231 301.415C455.962 303.188 458.053 304.577 460.503 305.583C462.953 306.588 465.67 307.091 468.653 307.091C471.583 307.091 474.099 306.773 476.203 306.138C478.308 305.503 480.039 304.789 481.397 303.995C482.755 303.201 483.794 302.447 484.513 301.732ZM476.743 284.023C476.743 283.087 476.557 282.151 476.185 281.215C475.813 280.279 475.268 279.435 474.551 278.681C473.833 277.927 472.916 277.303 471.8 276.809C470.684 276.315 469.408 276.068 467.973 276.068C466.432 276.068 465.063 276.315 463.867 276.809C462.671 277.303 461.674 277.927 460.877 278.681C460.08 279.435 459.468 280.279 459.043 281.215C458.618 282.151 458.405 283.087 458.405 284.023H476.743ZM502.639 268.818H493.486V305.5H503.044V285.712C503.044 284.356 503.3 283.131 503.813 282.036C504.326 280.941 505.015 280.002 505.879 279.22C506.743 278.438 507.769 277.838 508.957 277.421C510.145 277.004 511.386 276.795 512.682 276.795C513.6 276.795 514.397 276.848 515.072 276.952C515.747 277.056 516.408 277.239 517.056 277.499L519 268.818C518.244 268.557 517.502 268.374 516.773 268.27C516.044 268.166 515.22 268.114 514.302 268.114C512.736 268.114 511.346 268.296 510.131 268.661C508.916 269.026 507.85 269.469 506.932 269.991C506.014 270.512 505.217 271.086 504.542 271.711C503.867 272.337 503.314 272.911 502.882 273.432L502.639 268.818Z" fill="#006AFF"/>
<path id="CMS" fill-rule="evenodd" clip-rule="evenodd" d="M112.466 367C114.752 367 116.596 366.13 118 364.389L115.783 362.315C115.348 362.858 114.904 363.256 114.45 363.509C113.997 363.762 113.41 363.889 112.689 363.889C112.193 363.889 111.742 363.802 111.339 363.63C110.935 363.457 110.59 363.216 110.304 362.907C110.019 362.599 109.798 362.235 109.643 361.815C109.488 361.395 109.41 360.938 109.41 360.444C109.41 359.963 109.484 359.515 109.634 359.102C109.783 358.688 109.997 358.327 110.276 358.019C110.556 357.71 110.901 357.469 111.311 357.296C111.72 357.123 112.186 357.037 112.708 357.037C113.329 357.037 113.882 357.179 114.366 357.463C114.851 357.747 115.267 358.123 115.615 358.593L117.795 356.407C117.161 355.519 116.385 354.895 115.466 354.537C114.547 354.179 113.547 354 112.466 354C111.509 354 110.634 354.164 109.839 354.491C109.043 354.818 108.36 355.275 107.789 355.861C107.217 356.448 106.776 357.139 106.466 357.935C106.155 358.731 106 359.599 106 360.537C106 361.488 106.158 362.358 106.475 363.148C106.792 363.938 107.233 364.617 107.798 365.185C108.363 365.753 109.043 366.198 109.839 366.519C110.634 366.84 111.509 367 112.466 367ZM123.414 367L123.644 359.856L125.949 364.022H127.669L129.743 359.856L130.027 367H133.2L132.65 354.812H129.637L126.818 360.13L123.946 354.812H120.95L120.4 367H123.414ZM142.888 366.713C142.267 366.904 141.606 367 140.903 367C139.65 367 138.6 366.836 137.753 366.509C136.907 366.181 136.189 365.739 135.6 365.183L137.612 362.79C137.963 363.136 138.421 363.452 138.985 363.736C139.549 364.02 140.17 364.163 140.847 364.163C141.01 364.163 141.179 364.147 141.355 364.116C141.53 364.085 141.687 364.033 141.825 363.959C141.963 363.884 142.076 363.786 142.163 363.662C142.251 363.538 142.295 363.378 142.295 363.18C142.295 362.858 142.129 362.592 141.797 362.382C141.464 362.172 140.979 361.962 140.339 361.752L139.643 361.529C139.255 361.406 138.863 361.245 138.468 361.047C138.073 360.849 137.719 360.611 137.405 360.333C137.092 360.055 136.838 359.727 136.644 359.35C136.449 358.973 136.352 358.531 136.352 358.024C136.352 357.456 136.459 356.927 136.672 356.439C136.885 355.95 137.195 355.524 137.603 355.159C138.01 354.794 138.515 354.51 139.117 354.306C139.719 354.102 140.414 354 141.204 354C141.819 354 142.377 354.056 142.878 354.167C143.38 354.278 143.818 354.414 144.195 354.575C144.571 354.736 144.89 354.909 145.154 355.094C145.417 355.28 145.618 355.447 145.756 355.595L144.063 357.709C143.624 357.388 143.166 357.125 142.69 356.921C142.214 356.717 141.725 356.615 141.223 356.615C141.06 356.615 140.897 356.633 140.734 356.67C140.571 356.708 140.424 356.763 140.292 356.837C140.161 356.912 140.054 357.007 139.973 357.125C139.891 357.242 139.85 357.388 139.85 357.561C139.85 357.746 139.897 357.907 139.991 358.043C140.085 358.179 140.214 358.296 140.377 358.395C140.54 358.494 140.737 358.584 140.969 358.664C141.201 358.744 141.449 358.828 141.712 358.914L142.314 359.1C142.74 359.236 143.173 359.393 143.612 359.573C144.05 359.752 144.445 359.993 144.796 360.296C145.147 360.599 145.436 360.976 145.661 361.427C145.887 361.879 146 362.432 146 363.087C146 363.656 145.865 364.181 145.596 364.663C145.326 365.146 144.963 365.56 144.505 365.906C144.047 366.252 143.508 366.521 142.888 366.713Z" fill="#006AFF"/>
</g>
<rect id="Rectangle_3" x="738" y="-63" width="537" height="297" stroke="#006AFF"/>
<rect id="Rectangle Copy 4" x="380" y="513" width="537" height="297" stroke="#006AFF"/>
</g>
<defs>
<clipPath id="clip0">
<rect width="1200" height="600" fill="white"/>
</clipPath>
</defs>
</svg>
