<svg width="1200" height="600" viewBox="0 0 1200 600" fill="none" xmlns="http://www.w3.org/2000/svg">
<g id="primefitness_hero">
<rect width="1200" height="600" fill="#F2FFEE"/>
<g id="undraw_ideation_2a64">
<path id="Shape" fill-rule="evenodd" clip-rule="evenodd" d="M900 395C897.239 395 895 397.239 895 400C895.003 402.76 897.24 404.997 900 405C902.761 405 905 402.761 905 400C905 397.239 902.761 395 900 395ZM900 404.167C897.699 404.167 895.833 402.301 895.833 400C895.836 397.7 897.7 395.836 900 395.833C902.301 395.833 904.167 397.699 904.167 400C904.167 402.301 902.301 404.167 900 404.167Z" fill="#074726"/>
<path id="Shape_2" fill-rule="evenodd" clip-rule="evenodd" d="M839 484.722L846.722 493L855 485.278L847.278 477L839 484.722ZM846.764 491.769L840.231 484.764L847.236 478.231L853.769 485.236L846.764 491.769Z" fill="#074726"/>
<path id="Shape_3" fill-rule="evenodd" clip-rule="evenodd" d="M776 364.756L782.756 372L790 365.244L783.244 358L776 364.756ZM782.794 370.923L777.077 364.794L783.206 359.077L788.923 365.206L782.794 370.923Z" fill="#074726"/>
<path id="Shape_4" fill-rule="evenodd" clip-rule="evenodd" d="M827 337C827 361.301 847.147 381 872 381C896.841 380.973 916.972 361.289 917 337C917 312.699 896.853 293 872 293C847.147 293 827 312.699 827 337ZM827.9 337C827.9 313.185 847.644 293.88 872 293.88C896.344 293.907 916.073 313.197 916.1 337C916.1 360.815 896.356 380.12 872 380.12C847.644 380.12 827.9 360.815 827.9 337Z" fill="#074726"/>
<path id="Rectangle" d="M833.682 395.978L845.266 371.946L846.074 372.333L834.49 396.365L833.682 395.978Z" fill="#074726"/>
<path id="Rectangle_2" d="M842.165 428.748L842.592 427.962L893.617 455.488L893.19 456.274L842.165 428.748Z" fill="#074726"/>
<path id="Shape_5" fill-rule="evenodd" clip-rule="evenodd" d="M777 460H843V395H777V460ZM842.096 459.11H777.904V395.89H842.096V459.11Z" fill="#074726"/>
<path id="Shape_6" fill-rule="evenodd" clip-rule="evenodd" d="M872 493H940L906 434L872 493ZM938.44 492.098H873.56L906 435.804L938.44 492.098Z" fill="#074726"/>
<circle id="Oval" cx="1025.5" cy="384.5" r="11.5" fill="#A0616A"/>
<path id="Path" d="M1030.19 391.048C1030.19 391.048 1031.55 404.108 1033.8 406.284C1036.06 408.461 1018 404.978 1018 404.978C1018 404.978 1020.71 394.096 1018.9 392.354C1017.1 390.613 1030.19 391.048 1030.19 391.048Z" fill="#A0616A"/>
<path id="Path_2" d="M1038.59 414C1038.59 414 1043.98 429.111 1045.33 438.444C1046.68 447.778 1046.68 451.778 1046.68 451.778C1046.68 451.778 1052.52 469.556 1050.72 478C1050.72 478 1057.46 498 1051.62 498C1045.78 498 1043.98 481.556 1043.98 481.556L1035 439.333L1038.59 414Z" fill="#A0616A"/>
<path id="Path_3" d="M1041.11 420.611C1041.11 420.611 1039.76 404.069 1033.91 402.728C1031.11 402.088 1026.58 401.142 1022.6 400.328C1015.66 398.91 1008.51 402.177 1005.36 408.472C1004.77 409.613 1004.38 410.846 1004.2 412.117C1003.3 419.27 998.801 419.27 1002.85 428.659C1006.9 438.047 1006 447.883 1006 447.883L1008.7 471.578C1008.7 471.578 997.451 502.874 998.351 523.886L988 575.3C988 575.3 990.25 580.665 996.551 577.983C996.551 577.983 1012.3 551.605 1010.95 532.381L1027.15 496.614C1027.15 496.614 1038.41 530.592 1041.56 533.722L1049.66 582.006C1049.66 582.006 1057.31 584.242 1060.91 582.006C1060.91 582.006 1062.26 535.51 1054.61 527.91C1054.61 527.91 1046.96 495.72 1048.76 487.226C1050.56 478.731 1051.01 465.766 1037.51 454.142C1037.51 454.142 1039.31 449.224 1033.46 446.542L1037.96 432.235L1041.11 420.611Z" fill="#2F2E41"/>
<path id="Path_4" d="M1013.61 401.071C1013.49 401.053 1013.37 401.039 1013.24 401.028C1009.23 400.67 1005.78 403.83 1005.61 407.799L1004.89 423.692L1002.18 441.121L996.297 478.662C996.297 478.662 984.99 492.069 992.679 492.963C1000.37 493.857 1001.73 478.215 1001.73 478.215L1011.68 448.719L1015.75 421.457C1015.75 421.457 1020.49 416.766 1018.52 405.92C1018.11 403.431 1016.13 401.48 1013.61 401.071Z" fill="#A0616A"/>
<path id="Path_5" d="M988.543 574L985.382 590.138C985.382 590.138 977.706 593.724 982.673 598.207C987.64 602.69 994.412 597.31 994.412 597.31L996.218 591.931L995.767 600H997.122L998.476 591.931C998.476 591.931 1001.19 587 999.379 582.966V577.586L988.543 574Z" fill="#2F2E41"/>
<path id="Path_6" d="M1049.19 575L1047.38 589.4C1047.38 589.4 1039.71 592.891 1044.67 597.255C1049.64 601.618 1056.41 596.382 1056.41 596.382L1058.22 591.145L1057.77 599H1059.12L1060.48 591.145C1060.48 591.145 1063.19 586.345 1061.38 582.418V577.182L1049.19 575Z" fill="#2F2E41"/>
<path id="Path_7" d="M1030.46 368.621H1030.46C1029.81 368.622 1029.17 368.683 1028.54 368.802C1027.41 368.276 1026.16 368.001 1024.89 368H1024.56C1018.18 368 1013 373.51 1013 380.307V380.307H1015.14L1015.49 377.799L1015.99 380.307H1017.77C1017.22 382.32 1016.94 384.392 1016.95 386.473V399H1020.18L1022.05 394.359L1021.59 399H1042.38L1044.08 394.781L1043.66 399H1046V389.164C1046 377.818 1039.04 368.621 1030.46 368.621Z" fill="#2F2E41"/>
</g>
<path id="Virtual PT" d="M119.2 306.512L102.848 347H96.044L79.692 306.512H85.74C86.3933 306.512 86.9253 306.671 87.336 306.988C87.7467 307.305 88.0547 307.716 88.26 308.22L97.808 332.916C98.1253 333.719 98.424 334.605 98.704 335.576C99.0027 336.528 99.2827 337.527 99.544 338.572C99.768 337.527 100.011 336.528 100.272 335.576C100.533 334.605 100.823 333.719 101.14 332.916L110.632 308.22C110.781 307.791 111.071 307.399 111.5 307.044C111.948 306.689 112.489 306.512 113.124 306.512H119.2ZM129.467 318.272V347H122.523V318.272H129.467ZM130.419 309.9C130.419 310.497 130.297 311.057 130.055 311.58C129.812 312.103 129.485 312.56 129.075 312.952C128.683 313.344 128.216 313.661 127.675 313.904C127.133 314.128 126.555 314.24 125.939 314.24C125.341 314.24 124.772 314.128 124.231 313.904C123.708 313.661 123.251 313.344 122.859 312.952C122.467 312.56 122.149 312.103 121.907 311.58C121.683 311.057 121.571 310.497 121.571 309.9C121.571 309.284 121.683 308.705 121.907 308.164C122.149 307.623 122.467 307.156 122.859 306.764C123.251 306.372 123.708 306.064 124.231 305.84C124.772 305.597 125.341 305.476 125.939 305.476C126.555 305.476 127.133 305.597 127.675 305.84C128.216 306.064 128.683 306.372 129.075 306.764C129.485 307.156 129.812 307.623 130.055 308.164C130.297 308.705 130.419 309.284 130.419 309.9ZM143.042 323.256C143.938 321.539 145.002 320.195 146.234 319.224C147.466 318.235 148.922 317.74 150.602 317.74C151.927 317.74 152.991 318.029 153.794 318.608L153.346 323.788C153.252 324.124 153.112 324.367 152.926 324.516C152.758 324.647 152.524 324.712 152.226 324.712C151.946 324.712 151.526 324.665 150.966 324.572C150.424 324.479 149.892 324.432 149.37 324.432C148.604 324.432 147.923 324.544 147.326 324.768C146.728 324.992 146.187 325.319 145.702 325.748C145.235 326.159 144.815 326.663 144.442 327.26C144.087 327.857 143.751 328.539 143.434 329.304V347H136.518V318.272H140.578C141.287 318.272 141.782 318.403 142.062 318.664C142.342 318.907 142.528 319.355 142.622 320.008L143.042 323.256ZM166.984 347.448C164.483 347.448 162.56 346.748 161.216 345.348C159.891 343.929 159.228 341.979 159.228 339.496V323.452H156.288C155.915 323.452 155.598 323.331 155.336 323.088C155.075 322.845 154.944 322.481 154.944 321.996V319.252L159.564 318.496L161.02 310.656C161.114 310.283 161.291 309.993 161.552 309.788C161.814 309.583 162.15 309.48 162.56 309.48H166.144V318.524H173.816V323.452H166.144V339.02C166.144 339.916 166.359 340.616 166.788 341.12C167.236 341.624 167.843 341.876 168.608 341.876C169.038 341.876 169.392 341.829 169.672 341.736C169.971 341.624 170.223 341.512 170.428 341.4C170.652 341.288 170.848 341.185 171.016 341.092C171.184 340.98 171.352 340.924 171.52 340.924C171.726 340.924 171.894 340.98 172.024 341.092C172.155 341.185 172.295 341.335 172.444 341.54L174.516 344.9C173.508 345.74 172.351 346.375 171.044 346.804C169.738 347.233 168.384 347.448 166.984 347.448ZM202.996 318.272V347H198.768C197.853 347 197.275 346.58 197.032 345.74L196.556 343.444C195.38 344.639 194.083 345.609 192.664 346.356C191.245 347.084 189.575 347.448 187.652 347.448C186.084 347.448 184.693 347.187 183.48 346.664C182.285 346.123 181.277 345.367 180.456 344.396C179.635 343.425 179.009 342.277 178.58 340.952C178.169 339.608 177.964 338.133 177.964 336.528V318.272H184.88V336.528C184.88 338.283 185.281 339.645 186.084 340.616C186.905 341.568 188.128 342.044 189.752 342.044C190.947 342.044 192.067 341.783 193.112 341.26C194.157 340.719 195.147 339.981 196.08 339.048V318.272H202.996ZM225.03 334.736C223.032 334.829 221.352 335.007 219.99 335.268C218.627 335.511 217.535 335.828 216.714 336.22C215.892 336.612 215.304 337.069 214.95 337.592C214.595 338.115 214.418 338.684 214.418 339.3C214.418 340.513 214.772 341.381 215.482 341.904C216.21 342.427 217.152 342.688 218.31 342.688C219.728 342.688 220.951 342.436 221.978 341.932C223.023 341.409 224.04 340.625 225.03 339.58V334.736ZM209.182 322.276C212.486 319.252 216.462 317.74 221.11 317.74C222.79 317.74 224.292 318.02 225.618 318.58C226.943 319.121 228.063 319.887 228.978 320.876C229.892 321.847 230.583 323.013 231.05 324.376C231.535 325.739 231.778 327.232 231.778 328.856V347H228.642C227.988 347 227.484 346.907 227.13 346.72C226.775 346.515 226.495 346.113 226.29 345.516L225.674 343.444C224.946 344.097 224.236 344.676 223.546 345.18C222.855 345.665 222.136 346.076 221.39 346.412C220.643 346.748 219.84 347 218.982 347.168C218.142 347.355 217.208 347.448 216.182 347.448C214.968 347.448 213.848 347.289 212.822 346.972C211.795 346.636 210.908 346.141 210.162 345.488C209.415 344.835 208.836 344.023 208.426 343.052C208.015 342.081 207.81 340.952 207.81 339.664C207.81 338.936 207.931 338.217 208.174 337.508C208.416 336.78 208.808 336.089 209.35 335.436C209.91 334.783 210.628 334.167 211.506 333.588C212.383 333.009 213.456 332.505 214.726 332.076C216.014 331.647 217.507 331.301 219.206 331.04C220.904 330.76 222.846 330.592 225.03 330.536V328.856C225.03 326.933 224.619 325.515 223.798 324.6C222.976 323.667 221.791 323.2 220.242 323.2C219.122 323.2 218.188 323.331 217.442 323.592C216.714 323.853 216.07 324.152 215.51 324.488C214.95 324.805 214.436 325.095 213.97 325.356C213.522 325.617 213.018 325.748 212.458 325.748C211.972 325.748 211.562 325.627 211.226 325.384C210.89 325.123 210.619 324.824 210.414 324.488L209.182 322.276ZM245.291 305.392V347H238.375V305.392H245.291ZM280.051 326.868C281.432 326.868 282.636 326.7 283.663 326.364C284.689 326.009 285.539 325.515 286.211 324.88C286.901 324.227 287.415 323.443 287.751 322.528C288.087 321.595 288.255 320.559 288.255 319.42C288.255 318.337 288.087 317.357 287.751 316.48C287.415 315.603 286.911 314.856 286.239 314.24C285.567 313.624 284.717 313.157 283.691 312.84C282.664 312.504 281.451 312.336 280.051 312.336H274.423V326.868H280.051ZM280.051 306.512C282.757 306.512 285.1 306.829 287.079 307.464C289.057 308.099 290.691 308.985 291.979 310.124C293.267 311.263 294.219 312.625 294.835 314.212C295.469 315.799 295.787 317.535 295.787 319.42C295.787 321.38 295.46 323.181 294.807 324.824C294.153 326.448 293.173 327.848 291.867 329.024C290.56 330.2 288.917 331.115 286.939 331.768C284.979 332.421 282.683 332.748 280.051 332.748H274.423V347H266.891V306.512H280.051ZM329.843 312.7H317.635V347H310.103V312.7H297.895V306.512H329.843V312.7Z" fill="#074726"/>
<g id="connect+ primefitness">
<path d="M90.4125 249.72C89.9865 250.187 89.5772 250.58 89.1846 250.897C88.8003 251.215 88.4077 251.47 88.0067 251.662C87.6058 251.854 87.1839 251.987 86.7412 252.063C86.3068 252.146 85.8265 252.188 85.3002 252.188C84.5568 252.188 83.8885 252.063 83.2954 251.812C82.7107 251.553 82.2137 251.19 81.8043 250.722C81.395 250.254 81.0818 249.69 80.8646 249.03C80.6474 248.37 80.5388 247.635 80.5388 246.825C80.5388 246.132 80.614 245.455 80.7643 244.795C80.9147 244.135 81.1319 243.513 81.4159 242.928C81.6999 242.343 82.0424 241.809 82.4434 241.324C82.8443 240.84 83.2954 240.422 83.7966 240.071C84.2978 239.72 84.8408 239.449 85.4255 239.257C86.0186 239.056 86.6451 238.956 87.3051 238.956C88.1571 238.956 88.8797 239.107 89.4728 239.407C90.0742 239.708 90.6047 240.159 91.0641 240.76L90.0742 241.938C90.0074 242.013 89.9239 242.084 89.8236 242.151C89.7234 242.21 89.6148 242.239 89.4978 242.239C89.3558 242.239 89.2263 242.197 89.1094 242.114C89.0008 242.022 88.8671 241.926 88.7084 241.826C88.5581 241.725 88.3659 241.633 88.132 241.55C87.9065 241.458 87.61 241.412 87.2424 241.412C86.7663 241.412 86.311 241.542 85.8766 241.8C85.4422 242.059 85.058 242.427 84.7239 242.903C84.3897 243.379 84.1224 243.951 83.9219 244.62C83.7298 245.288 83.6337 246.027 83.6337 246.838C83.6337 247.782 83.8426 248.512 84.2602 249.03C84.6779 249.54 85.2459 249.795 85.9643 249.795C86.2818 249.795 86.5616 249.761 86.8039 249.694C87.0461 249.628 87.2591 249.548 87.4429 249.456C87.635 249.356 87.8021 249.252 87.9441 249.143C88.0861 249.026 88.2198 248.922 88.3451 248.83C88.4704 248.73 88.5873 248.646 88.6959 248.579C88.8129 248.512 88.9382 248.479 89.0718 248.479C89.1804 248.479 89.2806 248.508 89.3725 248.567C89.4728 248.617 89.5605 248.684 89.6357 248.767L90.4125 249.72ZM96.8751 249.807C97.393 249.807 97.8608 249.661 98.2785 249.369C98.6962 249.068 99.0512 248.671 99.3436 248.178C99.6359 247.677 99.8615 247.097 100.02 246.437C100.179 245.777 100.258 245.083 100.258 244.357C100.258 243.312 100.083 242.548 99.732 242.064C99.3812 241.571 98.8465 241.324 98.1281 241.324C97.6102 241.324 97.1383 241.471 96.7122 241.763C96.2946 242.055 95.9396 242.452 95.6472 242.953C95.3548 243.446 95.1293 244.022 94.9706 244.682C94.8118 245.342 94.7325 246.04 94.7325 246.775C94.7325 247.819 94.9079 248.588 95.2588 249.08C95.6096 249.565 96.1484 249.807 96.8751 249.807ZM96.5869 252.188C95.8769 252.188 95.2212 252.071 94.6197 251.837C94.0183 251.595 93.4962 251.244 93.0534 250.785C92.6107 250.325 92.2641 249.761 92.0134 249.093C91.7628 248.425 91.6375 247.66 91.6375 246.8C91.6375 245.689 91.8171 244.653 92.1763 243.693C92.5355 242.732 93.02 241.901 93.6298 241.199C94.248 240.497 94.9664 239.946 95.785 239.545C96.6036 239.144 97.4766 238.944 98.4038 238.944C99.1139 238.944 99.7696 239.065 100.371 239.307C100.981 239.541 101.503 239.888 101.937 240.347C102.38 240.806 102.727 241.37 102.977 242.039C103.228 242.707 103.353 243.471 103.353 244.332C103.353 245.434 103.174 246.466 102.814 247.427C102.455 248.379 101.967 249.21 101.348 249.92C100.739 250.622 100.024 251.177 99.2057 251.587C98.3871 251.987 97.5142 252.188 96.5869 252.188ZM108.777 241.8C109.429 240.84 110.151 240.126 110.945 239.658C111.738 239.182 112.557 238.944 113.401 238.944C113.935 238.944 114.416 239.052 114.842 239.269C115.268 239.487 115.619 239.804 115.894 240.222C116.17 240.631 116.362 241.141 116.471 241.75C116.588 242.352 116.596 243.041 116.496 243.818L115.531 252H112.436L113.401 243.818C113.509 242.982 113.468 242.385 113.275 242.026C113.083 241.658 112.733 241.475 112.223 241.475C111.88 241.475 111.53 241.575 111.17 241.775C110.811 241.968 110.465 242.247 110.13 242.615C109.796 242.974 109.487 243.409 109.203 243.918C108.928 244.419 108.702 244.983 108.527 245.61L107.812 252H104.717L106.259 239.132H107.825C108.151 239.132 108.401 239.211 108.577 239.37C108.76 239.528 108.852 239.783 108.852 240.134L108.777 241.8ZM122.335 241.8C122.987 240.84 123.709 240.126 124.503 239.658C125.296 239.182 126.115 238.944 126.959 238.944C127.493 238.944 127.974 239.052 128.4 239.269C128.826 239.487 129.177 239.804 129.452 240.222C129.728 240.631 129.92 241.141 130.029 241.75C130.146 242.352 130.154 243.041 130.054 243.818L129.089 252H125.994L126.959 243.818C127.067 242.982 127.026 242.385 126.833 242.026C126.641 241.658 126.291 241.475 125.781 241.475C125.438 241.475 125.088 241.575 124.728 241.775C124.369 241.968 124.023 242.247 123.688 242.615C123.354 242.974 123.045 243.409 122.761 243.918C122.486 244.419 122.26 244.983 122.085 245.61L121.37 252H118.275L119.817 239.132H121.383C121.709 239.132 121.959 239.211 122.135 239.37C122.318 239.528 122.41 239.783 122.41 240.134L122.335 241.8ZM138.524 241.124C138.107 241.124 137.718 241.212 137.359 241.387C137 241.554 136.674 241.792 136.382 242.101C136.098 242.41 135.847 242.782 135.63 243.216C135.421 243.642 135.254 244.11 135.129 244.62C136.165 244.478 136.996 244.323 137.622 244.156C138.257 243.981 138.746 243.797 139.088 243.605C139.431 243.404 139.656 243.191 139.765 242.966C139.882 242.732 139.94 242.49 139.94 242.239C139.94 242.114 139.911 241.984 139.853 241.851C139.803 241.717 139.719 241.6 139.602 241.5C139.493 241.391 139.347 241.303 139.164 241.237C138.988 241.161 138.775 241.124 138.524 241.124ZM134.866 246.762C134.866 248.784 135.722 249.795 137.434 249.795C137.802 249.795 138.128 249.761 138.412 249.694C138.696 249.619 138.942 249.532 139.151 249.431C139.368 249.331 139.56 249.218 139.727 249.093C139.903 248.968 140.062 248.855 140.204 248.755C140.354 248.654 140.5 248.571 140.642 248.504C140.784 248.429 140.939 248.391 141.106 248.391C141.206 248.391 141.302 248.416 141.394 248.467C141.494 248.517 141.582 248.583 141.657 248.667L142.446 249.619C142.004 250.062 141.569 250.446 141.143 250.772C140.717 251.098 140.283 251.365 139.84 251.574C139.397 251.783 138.93 251.937 138.437 252.038C137.944 252.138 137.409 252.188 136.833 252.188C136.081 252.188 135.4 252.063 134.79 251.812C134.181 251.553 133.659 251.194 133.224 250.734C132.79 250.267 132.452 249.707 132.209 249.055C131.975 248.396 131.858 247.66 131.858 246.85C131.858 246.173 131.929 245.509 132.071 244.858C132.222 244.206 132.435 243.588 132.71 243.003C132.986 242.419 133.324 241.88 133.725 241.387C134.126 240.894 134.577 240.468 135.079 240.109C135.588 239.75 136.144 239.47 136.745 239.269C137.355 239.069 138.007 238.969 138.7 238.969C139.368 238.969 139.953 239.065 140.454 239.257C140.964 239.449 141.386 239.7 141.72 240.009C142.062 240.309 142.317 240.648 142.484 241.024C142.651 241.4 142.735 241.767 142.735 242.126C142.735 242.703 142.618 243.229 142.384 243.705C142.158 244.181 141.749 244.607 141.156 244.983C140.571 245.359 139.769 245.685 138.75 245.96C137.731 246.228 136.436 246.441 134.866 246.6V246.762ZM153.92 249.72C153.494 250.187 153.084 250.58 152.692 250.897C152.307 251.215 151.915 251.47 151.514 251.662C151.113 251.854 150.691 251.987 150.248 252.063C149.814 252.146 149.334 252.188 148.807 252.188C148.064 252.188 147.396 252.063 146.803 251.812C146.218 251.553 145.721 251.19 145.311 250.722C144.902 250.254 144.589 249.69 144.372 249.03C144.155 248.37 144.046 247.635 144.046 246.825C144.046 246.132 144.121 245.455 144.271 244.795C144.422 244.135 144.639 243.513 144.923 242.928C145.207 242.343 145.55 241.809 145.951 241.324C146.351 240.84 146.803 240.422 147.304 240.071C147.805 239.72 148.348 239.449 148.933 239.257C149.526 239.056 150.152 238.956 150.812 238.956C151.664 238.956 152.387 239.107 152.98 239.407C153.581 239.708 154.112 240.159 154.571 240.76L153.581 241.938C153.515 242.013 153.431 242.084 153.331 242.151C153.231 242.21 153.122 242.239 153.005 242.239C152.863 242.239 152.734 242.197 152.617 242.114C152.508 242.022 152.374 241.926 152.216 241.826C152.065 241.725 151.873 241.633 151.639 241.55C151.414 241.458 151.117 241.412 150.75 241.412C150.273 241.412 149.818 241.542 149.384 241.8C148.949 242.059 148.565 242.427 148.231 242.903C147.897 243.379 147.63 243.951 147.429 244.62C147.237 245.288 147.141 246.027 147.141 246.838C147.141 247.782 147.35 248.512 147.767 249.03C148.185 249.54 148.753 249.795 149.471 249.795C149.789 249.795 150.069 249.761 150.311 249.694C150.553 249.628 150.766 249.548 150.95 249.456C151.142 249.356 151.309 249.252 151.451 249.143C151.593 249.026 151.727 248.922 151.852 248.83C151.978 248.73 152.094 248.646 152.203 248.579C152.32 248.512 152.445 248.479 152.579 248.479C152.688 248.479 152.788 248.508 152.88 248.567C152.98 248.617 153.068 248.684 153.143 248.767L153.92 249.72ZM156.454 249.381C156.454 249.323 156.454 249.256 156.454 249.181C156.454 249.097 156.458 248.98 156.466 248.83C156.483 248.671 156.504 248.467 156.529 248.216C156.562 247.957 156.604 247.627 156.654 247.226L157.369 241.462H156.153C156.003 241.462 155.878 241.408 155.777 241.299C155.685 241.191 155.656 241.028 155.69 240.811L155.827 239.583L157.782 239.244L158.81 235.736C158.868 235.569 158.956 235.439 159.073 235.347C159.19 235.256 159.336 235.21 159.511 235.21H161.165L160.664 239.257H163.771L163.508 241.462H160.388L159.699 247.063C159.657 247.406 159.624 247.677 159.599 247.878C159.574 248.078 159.553 248.237 159.536 248.354C159.528 248.462 159.524 248.542 159.524 248.592C159.524 248.634 159.524 248.663 159.524 248.68C159.524 248.997 159.599 249.248 159.749 249.431C159.908 249.615 160.129 249.707 160.413 249.707C160.589 249.707 160.739 249.686 160.865 249.644C160.99 249.594 161.098 249.544 161.19 249.494C161.282 249.444 161.366 249.398 161.441 249.356C161.516 249.306 161.587 249.281 161.654 249.281C161.746 249.281 161.817 249.306 161.867 249.356C161.917 249.398 161.963 249.465 162.005 249.557L162.669 251.06C162.209 251.436 161.7 251.72 161.14 251.912C160.589 252.104 160.025 252.2 159.449 252.2C158.538 252.2 157.816 251.954 157.281 251.461C156.755 250.968 156.479 250.275 156.454 249.381ZM83.8843 278.993C84.1684 279.302 84.4941 279.519 84.8617 279.644C85.2292 279.77 85.5884 279.832 85.9393 279.832C86.4906 279.832 86.9918 279.661 87.4429 279.319C87.894 278.976 88.2824 278.529 88.6082 277.978C88.934 277.427 89.1846 276.808 89.36 276.123C89.5354 275.43 89.6231 274.737 89.6231 274.043C89.6231 273.141 89.4728 272.473 89.172 272.039C88.8797 271.596 88.4704 271.374 87.9441 271.374C87.6016 271.374 87.2549 271.491 86.9041 271.725C86.5533 271.959 86.2149 272.281 85.8892 272.69C85.5634 273.091 85.2585 273.567 84.9745 274.119C84.6988 274.67 84.4607 275.263 84.2602 275.898L83.8843 278.993ZM84.5735 271.976C85.1916 271.049 85.8892 270.314 86.666 269.771C87.4512 269.219 88.2824 268.944 89.1595 268.944C89.6941 268.944 90.1786 269.044 90.613 269.244C91.0474 269.436 91.4191 269.729 91.7282 270.121C92.0373 270.514 92.2753 271.011 92.4424 271.613C92.6095 272.214 92.693 272.92 92.693 273.73C92.693 274.457 92.6178 275.171 92.4675 275.873C92.3171 276.574 92.1041 277.239 91.8284 277.865C91.5528 278.492 91.2228 279.068 90.8386 279.594C90.4627 280.12 90.0408 280.576 89.573 280.96C89.1052 281.344 88.604 281.645 88.0694 281.862C87.5431 282.079 86.996 282.188 86.428 282.188C85.8432 282.188 85.3169 282.084 84.8492 281.875C84.3897 281.666 83.9846 281.382 83.6337 281.023L82.9947 286.198H79.9875L82.0675 269.132H83.6337C83.9595 269.132 84.2101 269.211 84.3855 269.37C84.5693 269.528 84.6612 269.783 84.6612 270.134L84.5735 271.976ZM98.0825 272.227C98.4083 271.592 98.755 271.049 99.1225 270.598C99.4984 270.138 99.8869 269.783 100.288 269.533C100.689 269.274 101.102 269.123 101.528 269.081C101.954 269.031 102.38 269.098 102.806 269.282L102.243 272.239C101.223 271.813 100.33 271.917 99.5611 272.552C98.8009 273.187 98.1911 274.436 97.7317 276.299L97.0425 282H94.0102L95.564 269.132H97.1428C97.4686 269.132 97.7192 269.211 97.8946 269.37C98.0784 269.528 98.1702 269.783 98.1702 270.134L98.0825 272.227ZM107.581 269.144L106.04 282H102.995L104.536 269.144H107.581ZM108.37 265.398C108.37 265.665 108.312 265.916 108.195 266.149C108.086 266.383 107.94 266.588 107.756 266.763C107.572 266.939 107.364 267.081 107.13 267.189C106.896 267.29 106.654 267.34 106.403 267.34C106.161 267.34 105.927 267.29 105.701 267.189C105.476 267.081 105.275 266.939 105.1 266.763C104.924 266.588 104.782 266.383 104.674 266.149C104.574 265.916 104.523 265.665 104.523 265.398C104.523 265.13 104.578 264.876 104.686 264.633C104.795 264.391 104.937 264.182 105.112 264.007C105.288 263.823 105.488 263.681 105.714 263.581C105.948 263.472 106.186 263.418 106.428 263.418C106.679 263.418 106.921 263.472 107.155 263.581C107.389 263.681 107.593 263.819 107.769 263.994C107.952 264.17 108.099 264.378 108.207 264.621C108.316 264.863 108.37 265.122 108.37 265.398ZM109.012 282L110.566 269.132H112.145C112.47 269.132 112.721 269.211 112.896 269.37C113.08 269.528 113.172 269.783 113.172 270.134L113.109 271.55C113.686 270.673 114.312 270.021 114.989 269.595C115.666 269.161 116.371 268.944 117.107 268.944C117.892 268.944 118.514 269.207 118.974 269.733C119.433 270.259 119.7 271.019 119.775 272.013C120.377 270.961 121.041 270.188 121.768 269.695C122.503 269.194 123.301 268.944 124.161 268.944C124.704 268.944 125.18 269.052 125.589 269.269C125.999 269.487 126.333 269.804 126.592 270.222C126.851 270.631 127.026 271.141 127.118 271.75C127.21 272.352 127.206 273.041 127.106 273.818L126.141 282H123.083L124.048 273.818C124.157 272.982 124.132 272.385 123.973 272.026C123.823 271.658 123.514 271.475 123.046 271.475C122.728 271.475 122.419 271.558 122.119 271.725C121.818 271.892 121.53 272.135 121.254 272.452C120.987 272.769 120.736 273.158 120.502 273.617C120.277 274.077 120.076 274.595 119.901 275.171L119.099 282H116.042L117.019 273.818C117.119 272.982 117.098 272.385 116.956 272.026C116.814 271.658 116.505 271.475 116.029 271.475C115.695 271.475 115.373 271.562 115.064 271.738C114.763 271.913 114.475 272.168 114.2 272.502C113.932 272.828 113.682 273.229 113.448 273.705C113.222 274.173 113.022 274.699 112.846 275.284L112.044 282H109.012ZM135.588 271.124C135.17 271.124 134.782 271.212 134.422 271.387C134.063 271.554 133.737 271.792 133.445 272.101C133.161 272.41 132.91 272.782 132.693 273.216C132.484 273.642 132.317 274.11 132.192 274.62C133.228 274.478 134.059 274.323 134.686 274.156C135.32 273.981 135.809 273.797 136.152 273.605C136.494 273.404 136.72 273.191 136.828 272.966C136.945 272.732 137.004 272.49 137.004 272.239C137.004 272.114 136.974 271.984 136.916 271.851C136.866 271.717 136.782 271.6 136.665 271.5C136.557 271.391 136.411 271.303 136.227 271.237C136.051 271.161 135.838 271.124 135.588 271.124ZM131.929 276.762C131.929 278.784 132.785 279.795 134.498 279.795C134.865 279.795 135.191 279.761 135.475 279.694C135.759 279.619 136.005 279.532 136.214 279.431C136.431 279.331 136.624 279.218 136.791 279.093C136.966 278.968 137.125 278.855 137.267 278.755C137.417 278.654 137.563 278.571 137.705 278.504C137.847 278.429 138.002 278.391 138.169 278.391C138.269 278.391 138.365 278.416 138.457 278.467C138.557 278.517 138.645 278.583 138.72 278.667L139.51 279.619C139.067 280.062 138.633 280.446 138.207 280.772C137.78 281.098 137.346 281.365 136.903 281.574C136.461 281.783 135.993 281.937 135.5 282.038C135.007 282.138 134.473 282.188 133.896 282.188C133.144 282.188 132.464 282.063 131.854 281.812C131.244 281.553 130.722 281.194 130.287 280.734C129.853 280.267 129.515 279.707 129.273 279.055C129.039 278.396 128.922 277.66 128.922 276.85C128.922 276.173 128.993 275.509 129.135 274.858C129.285 274.206 129.498 273.588 129.774 273.003C130.049 272.419 130.388 271.88 130.789 271.387C131.19 270.894 131.641 270.468 132.142 270.109C132.652 269.75 133.207 269.47 133.808 269.269C134.418 269.069 135.07 268.969 135.763 268.969C136.431 268.969 137.016 269.065 137.517 269.257C138.027 269.449 138.449 269.7 138.783 270.009C139.125 270.309 139.38 270.648 139.547 271.024C139.714 271.4 139.798 271.767 139.798 272.126C139.798 272.703 139.681 273.229 139.447 273.705C139.221 274.181 138.812 274.607 138.219 274.983C137.634 275.359 136.832 275.685 135.813 275.96C134.794 276.228 133.499 276.441 131.929 276.6V276.762ZM146.212 269.257H153.605L152.051 282H149.019L150.309 271.462H146.049L144.834 281.486L144.195 283.842C144.069 284.243 143.885 284.556 143.643 284.782C143.401 285.007 143.054 285.12 142.603 285.12H141.363L143.042 271.475L142.089 271.299C141.864 271.249 141.689 271.17 141.563 271.061C141.438 270.944 141.388 270.777 141.413 270.56L141.551 269.257H143.317L143.368 268.843C143.459 268.058 143.664 267.336 143.982 266.676C144.307 266.007 144.746 265.431 145.297 264.947C145.849 264.454 146.517 264.069 147.302 263.794C148.087 263.518 148.994 263.38 150.021 263.38C150.347 263.38 150.689 263.401 151.049 263.443C151.416 263.476 151.721 263.535 151.963 263.618L151.663 265.16C151.621 265.352 151.504 265.464 151.312 265.498C151.12 265.523 150.89 265.535 150.623 265.535C149.871 265.535 149.232 265.606 148.705 265.748C148.179 265.882 147.745 266.091 147.402 266.375C147.068 266.651 146.809 267.001 146.625 267.427C146.442 267.845 146.316 268.338 146.249 268.906L146.212 269.257ZM156.111 279.381C156.111 279.323 156.111 279.256 156.111 279.181C156.111 279.097 156.115 278.98 156.124 278.83C156.141 278.671 156.161 278.467 156.186 278.216C156.22 277.957 156.262 277.627 156.312 277.226L157.026 271.462H155.811C155.66 271.462 155.535 271.408 155.435 271.299C155.343 271.191 155.314 271.028 155.347 270.811L155.485 269.583L157.439 269.244L158.467 265.736C158.525 265.569 158.613 265.439 158.73 265.347C158.847 265.256 158.993 265.21 159.169 265.21H160.823L160.321 269.257H163.429L163.166 271.462H160.046L159.357 277.063C159.315 277.406 159.281 277.677 159.256 277.878C159.231 278.078 159.21 278.237 159.194 278.354C159.185 278.462 159.181 278.542 159.181 278.592C159.181 278.634 159.181 278.663 159.181 278.68C159.181 278.997 159.256 279.248 159.407 279.431C159.565 279.615 159.787 279.707 160.071 279.707C160.246 279.707 160.397 279.686 160.522 279.644C160.647 279.594 160.756 279.544 160.848 279.494C160.94 279.444 161.023 279.398 161.098 279.356C161.173 279.306 161.244 279.281 161.311 279.281C161.403 279.281 161.474 279.306 161.524 279.356C161.574 279.398 161.62 279.465 161.662 279.557L162.326 281.06C161.867 281.436 161.357 281.72 160.798 281.912C160.246 282.104 159.682 282.2 159.106 282.2C158.195 282.2 157.473 281.954 156.938 281.461C156.412 280.968 156.136 280.275 156.111 279.381ZM168.271 271.8C168.922 270.84 169.645 270.126 170.438 269.658C171.232 269.182 172.051 268.944 172.894 268.944C173.429 268.944 173.909 269.052 174.335 269.269C174.761 269.487 175.112 269.804 175.388 270.222C175.664 270.631 175.856 271.141 175.964 271.75C176.081 272.352 176.09 273.041 175.989 273.818L175.025 282H171.93L172.894 273.818C173.003 272.982 172.961 272.385 172.769 272.026C172.577 271.658 172.226 271.475 171.717 271.475C171.374 271.475 171.023 271.575 170.664 271.775C170.305 271.968 169.958 272.247 169.624 272.615C169.29 272.974 168.981 273.409 168.697 273.918C168.421 274.419 168.196 274.983 168.02 275.61L167.306 282H164.211L165.752 269.132H167.318C167.644 269.132 167.895 269.211 168.07 269.37C168.254 269.528 168.346 269.783 168.346 270.134L168.271 271.8ZM184.46 271.124C184.042 271.124 183.654 271.212 183.295 271.387C182.936 271.554 182.61 271.792 182.317 272.101C182.033 272.41 181.783 272.782 181.566 273.216C181.357 273.642 181.19 274.11 181.064 274.62C182.1 274.478 182.931 274.323 183.558 274.156C184.193 273.981 184.681 273.797 185.024 273.605C185.366 273.404 185.592 273.191 185.701 272.966C185.818 272.732 185.876 272.49 185.876 272.239C185.876 272.114 185.847 271.984 185.788 271.851C185.738 271.717 185.655 271.6 185.538 271.5C185.429 271.391 185.283 271.303 185.099 271.237C184.924 271.161 184.711 271.124 184.46 271.124ZM180.801 276.762C180.801 278.784 181.658 279.795 183.37 279.795C183.738 279.795 184.063 279.761 184.347 279.694C184.631 279.619 184.878 279.532 185.087 279.431C185.304 279.331 185.496 279.218 185.663 279.093C185.838 278.968 185.997 278.855 186.139 278.755C186.289 278.654 186.436 278.571 186.578 278.504C186.72 278.429 186.874 278.391 187.041 278.391C187.142 278.391 187.238 278.416 187.329 278.467C187.43 278.517 187.517 278.583 187.593 278.667L188.382 279.619C187.939 280.062 187.505 280.446 187.079 280.772C186.653 281.098 186.218 281.365 185.776 281.574C185.333 281.783 184.865 281.937 184.372 282.038C183.88 282.138 183.345 282.188 182.769 282.188C182.017 282.188 181.336 282.063 180.726 281.812C180.116 281.553 179.594 281.194 179.16 280.734C178.725 280.267 178.387 279.707 178.145 279.055C177.911 278.396 177.794 277.66 177.794 276.85C177.794 276.173 177.865 275.509 178.007 274.858C178.157 274.206 178.37 273.588 178.646 273.003C178.922 272.419 179.26 271.88 179.661 271.387C180.062 270.894 180.513 270.468 181.014 270.109C181.524 269.75 182.079 269.47 182.681 269.269C183.291 269.069 183.942 268.969 184.636 268.969C185.304 268.969 185.889 269.065 186.39 269.257C186.899 269.449 187.321 269.7 187.655 270.009C187.998 270.309 188.253 270.648 188.42 271.024C188.587 271.4 188.67 271.767 188.67 272.126C188.67 272.703 188.553 273.229 188.319 273.705C188.094 274.181 187.685 274.607 187.091 274.983C186.507 275.359 185.705 275.685 184.686 275.96C183.667 276.228 182.372 276.441 180.801 276.6V276.762ZM198.539 271.562C198.447 271.696 198.359 271.792 198.276 271.851C198.192 271.901 198.084 271.926 197.95 271.926C197.8 271.926 197.649 271.884 197.499 271.8C197.349 271.717 197.173 271.625 196.973 271.525C196.781 271.416 196.555 271.32 196.296 271.237C196.046 271.153 195.745 271.111 195.394 271.111C194.734 271.111 194.229 271.262 193.878 271.562C193.527 271.855 193.352 272.222 193.352 272.665C193.352 273.008 193.473 273.283 193.715 273.492C193.966 273.701 194.279 273.885 194.655 274.043C195.031 274.202 195.432 274.365 195.858 274.532C196.292 274.691 196.697 274.895 197.073 275.146C197.449 275.388 197.758 275.706 198 276.098C198.251 276.483 198.376 276.98 198.376 277.589C198.376 278.208 198.251 278.796 198 279.356C197.758 279.916 197.407 280.409 196.948 280.835C196.488 281.252 195.933 281.587 195.281 281.837C194.638 282.079 193.911 282.2 193.101 282.2C192.7 282.2 192.307 282.159 191.923 282.075C191.539 282 191.18 281.891 190.846 281.749C190.52 281.607 190.219 281.44 189.943 281.248C189.668 281.056 189.434 280.847 189.242 280.622L190.006 279.444C190.098 279.302 190.207 279.193 190.332 279.118C190.457 279.043 190.612 279.005 190.795 279.005C190.971 279.005 191.13 279.06 191.272 279.168C191.414 279.277 191.576 279.398 191.76 279.532C191.952 279.657 192.182 279.774 192.449 279.882C192.725 279.991 193.076 280.045 193.502 280.045C193.844 280.045 194.145 279.999 194.404 279.907C194.671 279.816 194.897 279.69 195.081 279.532C195.265 279.373 195.402 279.189 195.494 278.98C195.586 278.771 195.632 278.55 195.632 278.316C195.632 278.032 195.561 277.798 195.419 277.614C195.277 277.422 195.085 277.259 194.843 277.126C194.609 276.984 194.341 276.863 194.041 276.762C193.74 276.654 193.431 276.541 193.114 276.424C192.804 276.307 192.5 276.173 192.199 276.023C191.906 275.873 191.639 275.685 191.397 275.459C191.163 275.225 190.975 274.946 190.833 274.62C190.691 274.286 190.62 273.88 190.62 273.404C190.62 272.836 190.729 272.285 190.946 271.75C191.163 271.207 191.48 270.731 191.898 270.322C192.316 269.904 192.829 269.57 193.439 269.32C194.057 269.069 194.763 268.944 195.557 268.944C196.376 268.944 197.102 269.086 197.737 269.37C198.372 269.645 198.902 270 199.328 270.435L198.539 271.562ZM208.695 271.562C208.603 271.696 208.516 271.792 208.432 271.851C208.349 271.901 208.24 271.926 208.106 271.926C207.956 271.926 207.806 271.884 207.655 271.8C207.505 271.717 207.33 271.625 207.129 271.525C206.937 271.416 206.711 271.32 206.452 271.237C206.202 271.153 205.901 271.111 205.55 271.111C204.89 271.111 204.385 271.262 204.034 271.562C203.683 271.855 203.508 272.222 203.508 272.665C203.508 273.008 203.629 273.283 203.871 273.492C204.122 273.701 204.435 273.885 204.811 274.043C205.187 274.202 205.588 274.365 206.014 274.532C206.448 274.691 206.853 274.895 207.229 275.146C207.605 275.388 207.914 275.706 208.157 276.098C208.407 276.483 208.532 276.98 208.532 277.589C208.532 278.208 208.407 278.796 208.157 279.356C207.914 279.916 207.563 280.409 207.104 280.835C206.645 281.252 206.089 281.587 205.437 281.837C204.794 282.079 204.068 282.2 203.257 282.2C202.856 282.2 202.464 282.159 202.079 282.075C201.695 282 201.336 281.891 201.002 281.749C200.676 281.607 200.375 281.44 200.1 281.248C199.824 281.056 199.59 280.847 199.398 280.622L200.162 279.444C200.254 279.302 200.363 279.193 200.488 279.118C200.613 279.043 200.768 279.005 200.952 279.005C201.127 279.005 201.286 279.06 201.428 279.168C201.57 279.277 201.733 279.398 201.917 279.532C202.109 279.657 202.338 279.774 202.606 279.882C202.881 279.991 203.232 280.045 203.658 280.045C204.001 280.045 204.301 279.999 204.56 279.907C204.828 279.816 205.053 279.69 205.237 279.532C205.421 279.373 205.559 279.189 205.65 278.98C205.742 278.771 205.788 278.55 205.788 278.316C205.788 278.032 205.717 277.798 205.575 277.614C205.433 277.422 205.241 277.259 204.999 277.126C204.765 276.984 204.498 276.863 204.197 276.762C203.896 276.654 203.587 276.541 203.27 276.424C202.961 276.307 202.656 276.173 202.355 276.023C202.063 275.873 201.795 275.685 201.553 275.459C201.319 275.225 201.131 274.946 200.989 274.62C200.847 274.286 200.776 273.88 200.776 273.404C200.776 272.836 200.885 272.285 201.102 271.75C201.319 271.207 201.637 270.731 202.054 270.322C202.472 269.904 202.986 269.57 203.596 269.32C204.214 269.069 204.92 268.944 205.713 268.944C206.532 268.944 207.259 269.086 207.893 269.37C208.528 269.645 209.059 270 209.485 270.435L208.695 271.562Z" fill="#BACE3F"/>
<path d="M177.359 244.695H172.473L171.834 249.882H169.39L170.029 244.695H165.168L165.443 242.477H170.305L170.944 237.315H173.375L172.736 242.477H177.648L177.359 244.695Z" fill="#074726"/>
</g>
</g>
</svg>
