<?xml version="1.0" encoding="UTF-8"?>
<svg width="1200px" height="600px" viewBox="0 0 1200 600" version="1.1" xmlns="http://www.w3.org/2000/svg" xmlns:xlink="http://www.w3.org/1999/xlink">
    <title>primefitness_hero</title>
    <g id="primefitness_hero" stroke="none" stroke-width="1" fill="none" fill-rule="evenodd">
        <rect fill="#49640B" x="0" y="0" width="1200" height="600"></rect>
        <g id="undraw_ideation_2a64" transform="translate(776.000000, 293.000000)" fill-rule="nonzero">
            <path d="M119,107 C119,104.238576 121.238576,102 124,102 C126.761424,102 129,104.238576 129,107 C129,109.761424 126.761424,112 124,112 C121.239855,111.996916 119.003084,109.760145 119,107 Z M119.833333,107 C119.833333,109.301186 121.698814,111.166667 124,111.166667 C126.301186,111.166667 128.166667,109.301186 128.166667,107 C128.166667,104.698814 126.301186,102.833333 124,102.833333 C121.699903,102.835962 119.835962,104.699903 119.833333,107 Z" id="Shape" fill="#FFFFFF"></path>
            <path d="M70.7215563,200 L63,191.721554 L71.2784437,184 L79,192.278446 L70.7215563,200 Z M64.2307706,191.764394 L70.7643958,198.769229 L77.7692294,192.235606 L71.2356042,185.230771 L64.2307706,191.764394 Z" id="Shape" fill="#FFFFFF"></path>
            <path d="M6.75635384,79 L0,71.7563655 L7.24364616,65 L14,72.2436345 L6.75635384,79 Z M1.07691946,71.7938405 L6.79383823,77.9230708 L12.9230664,72.2061548 L7.20614768,66.0769057 L1.07691946,71.7938405 Z" id="Shape" fill="#FFFFFF"></path>
            <path d="M96,88 C71.1471863,88 51,68.300529 51,44 C51,19.699471 71.1471863,0 96,0 C120.852814,0 141,19.699471 141,44 C140.971898,68.2891382 120.841164,87.9725222 96,88 L96,88 Z M96,0.88 C71.6442425,0.88 51.9,20.1854816 51.9,44 C51.9,67.8145184 71.6442425,87.12 96,87.12 C120.355757,87.12 140.1,67.8145184 140.1,44 C140.072545,20.1966101 120.344376,0.906845079 96,0.88 Z" id="Shape" fill="#FFFFFF"></path>
            <polygon id="Rectangle" fill="#FFFFFF" transform="translate(63.877608, 91.155425) rotate(-64.335790) translate(-63.877608, -91.155425) " points="50.5382224 90.6906892 77.2158813 90.7238436 77.216993 91.6201615 50.5393342 91.5870072"></polygon>
            <polygon id="Rectangle" fill="#FFFFFF" transform="translate(91.890871, 149.117777) rotate(-61.578070) translate(-91.890871, -149.117777) " points="91.4049569 120.129278 92.299669 120.13047 92.3767849 178.106277 91.4820729 178.105085"></polygon>
            <path d="M67,167 L1,167 L1,102 L67,102 L67,167 Z M1.90410959,166.109589 L66.0958904,166.109589 L66.0958904,102.890411 L1.90410959,102.890411 L1.90410959,166.109589 Z" id="Shape" fill="#FFFFFF"></path>
            <path d="M164,200 L96,200 L129.999779,141 L164,200 Z M97.5596968,199.09776 L162.439862,199.09776 L129.999779,142.804258 L97.5596968,199.09776 Z" id="Shape" fill="#FFFFFF"></path>
            <circle id="Oval" fill="#A0616A" cx="249.5" cy="91.5" r="11.5"></circle>
            <path d="M254.192188,98.0483682 C254.192188,98.0483682 255.546875,111.10778 257.804688,113.284348 C260.0625,115.460917 242,111.978407 242,111.978407 C242,111.978407 244.709375,101.095564 242.903125,99.3543093 C241.096875,97.6130545 254.192188,98.0483682 254.192188,98.0483682 Z" id="Path" fill="#A0616A"></path>
            <path d="M262.593275,121 C262.593275,121 267.983187,136.111111 269.330665,145.444444 C270.678144,154.777778 270.678144,158.777778 270.678144,158.777778 C270.678144,158.777778 276.517215,176.555556 274.720578,185 C274.720578,185 281.457968,205 275.618897,205 C269.779825,205 267.983187,188.555556 267.983187,188.555556 L259,146.333333 L262.593275,121 Z" id="Path" fill="#A0616A"></path>
            <path d="M265.105913,127.611123 C265.105913,127.611123 263.755763,111.069216 257.905112,109.72798 C255.111993,109.08767 250.575145,108.141674 246.596068,107.327798 C239.664369,105.909991 232.51445,109.176969 229.363496,115.472072 C228.772737,116.613397 228.379997,117.845532 228.201804,119.11663 C227.301704,126.269888 222.801203,126.269888 226.851654,135.658538 C230.902105,145.047188 230.002005,154.882917 230.002005,154.882917 L232.702305,178.578082 C232.702305,178.578082 221.451052,209.873583 222.351153,230.886276 L212,282.300313 C212,282.300313 214.250251,287.665256 220.550952,284.982785 C220.550952,284.982785 236.302706,258.605148 234.952556,239.380769 L251.15436,203.614483 C251.15436,203.614483 262.405613,237.592455 265.555963,240.722005 L273.656865,289.006492 C273.656865,289.006492 281.307717,291.241885 284.908118,289.006492 C284.908118,289.006492 286.258269,242.510319 278.607417,234.909983 C278.607417,234.909983 270.956565,202.720325 272.756765,194.225832 C274.556966,185.731339 275.007016,172.76606 261.505512,161.142017 C261.505512,161.142017 263.305713,156.224153 257.455061,153.541681 L261.955563,139.235166 L265.105913,127.611123 Z" id="Path" fill="#2F2E41"></path>
            <path d="M237.611863,108.070883 C237.48974,108.053454 237.365073,108.03902 237.237862,108.027582 C233.23294,107.670343 229.784752,110.82992 229.606207,114.799221 L228.891342,130.691771 L226.177486,148.121332 L220.297466,185.661924 C220.297466,185.661924 208.989736,199.069279 216.678993,199.963102 C224.368249,200.856926 225.725177,185.215012 225.725177,185.215012 L235.67598,155.718833 L239.746763,128.457212 C239.746763,128.457212 244.494861,123.765773 242.518726,112.920265 C242.10568,110.430932 240.131169,108.479552 237.611863,108.070883 L237.611863,108.070883 Z" id="Path" fill="#A0616A"></path>
            <path d="M212.542573,281 L209.381903,297.137931 C209.381903,297.137931 201.705991,300.724138 206.672758,305.206897 C211.639524,309.689655 218.412388,304.310345 218.412388,304.310345 L220.218485,298.931034 L219.76696,307 L221.121533,307 L222.476106,298.931034 C222.476106,298.931034 225.185251,294 223.379154,289.965517 L223.379154,284.586207 L212.542573,281 Z" id="Path" fill="#2F2E41"></path>
            <path d="M273.188,282 L271.381903,296.4 C271.381903,296.4 263.705991,299.890909 268.672758,304.254545 C273.639524,308.618182 280.412388,303.381818 280.412388,303.381818 L282.218485,298.145455 L281.76696,306 L283.121533,306 L284.476106,298.145455 C284.476106,298.145455 287.185251,293.345455 285.379154,289.418182 L285.379154,284.181818 L273.188,282 Z" id="Path" fill="#2F2E41"></path>
            <path d="M254.455222,75.6207541 L254.455126,75.6207541 C253.813275,75.6219475 253.173066,75.6826498 252.543537,75.8020039 C251.406157,75.2755192 250.158557,75.0013346 248.894242,75 L248.562959,75 C242.176855,75 237,80.5101706 237,87.3072568 L237,87.3072786 L239.139767,87.3072786 L239.485373,84.7991384 L239.991985,87.3072786 L241.774615,87.3072786 C241.220094,89.3197939 240.941777,91.3924112 240.946635,93.4732224 L240.946635,106 L244.181849,106 L246.054909,101.358711 L245.586625,106 L266.381612,106 L268.084401,101.780656 L267.658688,106 L270,106 L270,96.1642276 C270,84.8184004 263.040323,75.6207541 254.455222,75.6207541 Z" id="Path" fill="#2F2E41"></path>
        </g>
        <g id="Group" transform="translate(80.000000, 241.000000)" fill-rule="nonzero">
            <path d="M3.85,42.7 L7.25622666,25.2346354 L9.55971807,25.2346354 L9.48620239,27.4086458 C10.8911758,25.7150263 12.3614748,24.8682292 13.8971434,24.8682292 C14.942705,24.8682292 15.7391169,25.242774 16.2864031,25.991875 C16.8336893,26.740976 17.1073282,27.8320414 17.1073282,29.2651042 C17.1073282,30.8121605 16.7969318,32.2492729 16.1761296,33.5764844 C15.5553274,34.9036959 14.6813163,35.9784768 13.5540702,36.8008594 C12.4268241,37.623242 11.17707,38.0344271 9.80477035,38.0344271 C9.10228364,38.0344271 8.38347082,37.887866 7.64831031,37.5947396 L6.64359597,42.7 L3.85,42.7 Z M12.7944081,27.0910937 C12.3043011,27.0910937 11.7447707,27.3068642 11.1158,27.7384115 C10.4868294,28.1699588 9.84561566,28.7765586 9.19213966,29.5582292 L8.01588872,35.6894271 C8.48965883,35.8034207 8.97975848,35.8604167 9.48620239,35.8604167 C10.368395,35.8604167 11.1688911,35.6039349 11.8877147,35.0909635 C12.6065383,34.5779922 13.1824054,33.8533293 13.6153333,32.9169531 C14.0482611,31.9805769 14.2647218,30.9098671 14.2647218,29.7047917 C14.2647218,27.9623177 13.7746222,27.0910937 12.7944081,27.0910937 Z M18.0875373,37.6680208 L20.5135549,25.2346354 L22.8170463,25.2346354 L22.7435306,27.4819271 C23.3806697,26.6839717 24.0177993,26.0936564 24.6549384,25.7109635 C25.2920775,25.3282707 25.9700487,25.1369271 26.6888723,25.1369271 C27.0972948,25.1369271 27.4485329,25.1776385 27.7425971,25.2590625 L27.2279873,27.8483333 C26.7052065,27.7669093 26.2886218,27.7261979 25.9782207,27.7261979 C25.3410816,27.7261979 24.7202887,27.8890435 24.1158234,28.2147396 C23.5113581,28.5404357 22.9559118,29.0045456 22.4494679,29.6070833 L20.8811333,37.6680208 L18.0875373,37.6680208 Z M31.4673917,23.1827604 C30.9772847,23.1827604 30.5974575,23.0646974 30.3278986,22.8285677 C30.0583398,22.5924381 29.9235624,22.2463912 29.9235624,21.7904167 C29.9235624,21.2530181 30.1155181,20.7970505 30.4994352,20.4225 C30.8833524,20.0479495 31.3530312,19.8606771 31.9084858,19.8606771 C32.3985928,19.8606771 32.77842,19.9787401 33.0479789,20.2148698 C33.3175378,20.4509994 33.4523152,20.7970463 33.4523152,21.2530208 C33.4523152,21.7904194 33.2603595,22.246387 32.8764423,22.6209375 C32.4925252,22.995488 32.0228463,23.1827604 31.4673917,23.1827604 Z M27.1544716,37.6680208 L29.5804892,25.2346354 L32.3740851,25.2346354 L29.9480676,37.6680208 L27.1544716,37.6680208 Z M48.8661034,37.6680208 L50.1403753,31.1459896 L50.2060656,30.8001207 C50.4073243,29.7223199 50.5079537,28.9989526 50.5079537,28.63 C50.5079537,28.1088863 50.4017654,27.722128 50.1893857,27.4697135 C49.977006,27.2172991 49.6421046,27.0910937 49.1846714,27.0910937 C48.0574253,27.0910937 46.8076712,27.8157566 45.4353715,29.2651042 C45.353687,29.8513571 45.2474988,30.4783126 45.1168036,31.1459896 L43.8425317,37.6680208 L41.0489358,37.6680208 L42.3232076,31.1459896 L42.3883918,30.7861772 C42.573652,29.7411834 42.6662808,29.0061792 42.6662808,28.5811458 C42.6662808,27.5877728 42.2496961,27.0910937 41.4165142,27.0910937 C40.2565943,27.0910937 38.9823352,27.9297486 37.5936987,29.6070833 L36.0253641,37.6680208 L33.2317681,37.6680208 L35.6577857,25.2346354 L37.9612771,25.2346354 L37.8877614,27.4575 C39.2763979,25.7313108 40.7875385,24.8682292 42.4212285,24.8682292 C43.2544104,24.8682292 43.94055,25.096213 44.4796677,25.5521875 C45.0187854,26.008162 45.3455185,26.6432598 45.4598768,27.4575 C46.897524,25.7313108 48.4903479,24.8682292 50.2383962,24.8682292 C51.2349471,24.8682292 51.9986857,25.1572801 52.529635,25.7353906 C53.0605842,26.3135012 53.3260549,27.1480848 53.3260549,28.2391667 L53.3244229,28.3544649 C53.3086472,28.9358189 53.1784978,29.8663192 52.9339712,31.1459896 L51.6596994,37.6680208 L48.8661034,37.6680208 Z M64.4759335,36.4955208 C63.7571099,36.9840649 62.9402772,37.3708232 62.0254108,37.6558073 C61.1105443,37.9407914 60.1956917,38.0832812 59.2808252,38.0832812 C57.8268411,38.0832812 56.7322852,37.696523 55.9971247,36.9229948 C55.2619642,36.1494666 54.8943895,35.0054763 54.8943895,33.4909896 C54.8943895,32.0090725 55.2170384,30.6126715 55.862346,29.3017448 C56.5076535,27.9908181 57.4102537,26.9160372 58.5701736,26.0773698 C59.7300936,25.2387024 61.0043527,24.819375 62.3929892,24.819375 C63.4548877,24.819375 64.2880571,25.0799279 64.8925224,25.6010417 C65.4969877,26.1221554 65.7992158,26.838676 65.7992158,27.750625 C65.7992158,29.0208397 65.2070121,30.1281897 64.0225868,31.0727083 C62.8381616,32.0172269 61.1759069,32.7011784 59.035773,33.1245833 L57.5654593,33.4177083 C57.5654593,34.3133725 57.7451625,34.9606838 58.1045743,35.3596615 C58.4639861,35.7586391 59.0521057,35.958125 59.8689507,35.958125 C61.0452075,35.958125 62.3358033,35.5835801 63.7407767,34.8344792 L64.4759335,36.4955208 Z M61.8293689,26.9201042 C61.2249036,26.9201042 60.636784,27.1114477 60.0649925,27.4941406 C59.493201,27.8768335 58.9908489,28.4223662 58.557921,29.1307552 C58.1249932,29.8391442 57.8268492,30.6411587 57.6634802,31.5368229 L59.1337939,31.1948437 C60.3917352,30.9017173 61.3882712,30.4742476 62.1234317,29.9124219 C62.8585922,29.3505961 63.2261669,28.7439963 63.2261669,28.0926042 C63.2261669,27.7180537 63.1077262,27.4290028 62.8708411,27.2254427 C62.6339561,27.0218827 62.2868021,26.9201042 61.8293689,26.9201042 Z M75.2582338,37.6680208 L77.2676624,27.3842187 L71.9255228,27.3842187 L69.9160941,37.6680208 L67.1224981,37.6680208 L69.1319268,27.3842187 L66.999972,27.3842187 L67.3430452,25.6254687 L69.5485157,25.3079167 L69.8670836,23.646875 C70.1448109,22.1975275 70.6839206,21.1023909 71.4844287,20.3614323 C72.2849368,19.6204737 73.3304827,19.25 74.6210978,19.25 C75.4542797,19.25 76.2221025,19.4047033 76.9245892,19.7141146 L76.5325056,21.6682812 C75.9607141,21.5380028 75.4379411,21.4728646 74.964171,21.4728646 C74.2780212,21.4728646 73.7634166,21.6194256 73.4203417,21.9125521 C73.0772668,22.2056785 72.8403853,22.6860731 72.7096901,23.35375 L72.3421117,25.2346354 L80.4778473,25.2346354 L78.0518297,37.6680208 L75.2582338,37.6680208 Z M81.5560773,21.2530208 C81.5560773,21.7904194 81.3641216,22.246387 80.9802044,22.6209375 C80.5962873,22.995488 80.1266085,23.1827604 79.5711538,23.1827604 C79.0810468,23.1827604 78.7012196,23.0646974 78.4316608,22.8285677 C78.1621019,22.5924381 78.0273245,22.2463912 78.0273245,21.7904167 C78.0273245,21.2530181 78.2192802,20.7970505 78.6031973,20.4225 C78.9871145,20.0479495 79.4567933,19.8606771 80.0122479,19.8606771 C80.502355,19.8606771 80.8821822,19.9787401 81.151741,20.2148698 C81.4212999,20.4509994 81.5560773,20.7970463 81.5560773,21.2530208 Z M89.373245,36.7397917 C88.9321509,37.0654877 88.3971232,37.3301118 87.7681525,37.5336719 C87.1391819,37.7372319 86.5224731,37.8390104 85.9180078,37.8390104 C83.7288632,37.8390104 82.6182104,36.9220813 82.5860176,35.0881958 L82.5852969,35.0054687 C82.5852969,34.5799626 82.7000444,33.7808158 82.9295429,32.6080057 L83.9575896,27.3842187 L81.8256348,27.3842187 L82.168708,25.6254687 L84.4476942,25.2834896 L85.5504294,21.8148438 L87.8294156,21.8148438 L87.1677745,25.2346354 L90.6965273,25.2346354 L90.2799384,27.3842187 L86.7511856,27.3842187 L85.7954817,32.2696354 L85.6925323,32.7922737 C85.5161122,33.7071513 85.4279033,34.2820311 85.4279033,34.5169271 C85.4279033,34.9077624 85.5340915,35.188671 85.7464712,35.3596615 C85.9588509,35.5306519 86.3019207,35.6161458 86.7756908,35.6161458 C87.4128299,35.6161458 88.0744645,35.4533002 88.7606143,35.1276042 L89.373245,36.7397917 Z M98.7832524,37.6680208 L100.057524,31.1459896 L100.127102,30.7701413 C100.309433,29.7580555 100.400597,29.0121118 100.400597,28.5322917 C100.400597,27.5714883 99.9104978,27.0910937 98.9302838,27.0910937 C98.3911661,27.0910937 97.7744574,27.3150064 97.0801391,27.7628385 C96.3858208,28.2106706 95.6955972,28.8254128 95.0094473,29.6070833 L93.4411128,37.6680208 L90.6475168,37.6680208 L93.0735344,25.2346354 L95.3770258,25.2346354 L95.3035101,27.4575 C96.0059968,26.626975 96.7615671,25.9878061 97.5702437,25.539974 C98.3789202,25.0921419 99.1835005,24.8682292 99.9840086,24.8682292 C101.02957,24.8682292 101.83415,25.153209 102.397774,25.7231771 C102.961397,26.2931452 103.243204,27.0992309 103.243204,28.1414583 C103.243204,28.8091353 103.112511,29.8106357 102.85112,31.1459896 L101.576848,37.6680208 L98.7832524,37.6680208 Z M114.393083,36.4955208 C113.674259,36.9840649 112.857426,37.3708232 111.94256,37.6558073 C111.027693,37.9407914 110.112841,38.0832812 109.197974,38.0832812 C107.74399,38.0832812 106.649434,37.696523 105.914274,36.9229948 C105.179113,36.1494666 104.811538,35.0054763 104.811538,33.4909896 C104.811538,32.0090725 105.134187,30.6126715 105.779495,29.3017448 C106.424803,27.9908181 107.327403,26.9160372 108.487323,26.0773698 C109.647243,25.2387024 110.921502,24.819375 112.310138,24.819375 C113.372037,24.819375 114.205206,25.0799279 114.809671,25.6010417 C115.414137,26.1221554 115.716365,26.838676 115.716365,27.750625 C115.716365,29.0208397 115.124161,30.1281897 113.939736,31.0727083 C112.755311,32.0172269 111.093056,32.7011784 108.952922,33.1245833 L107.482608,33.4177083 C107.482608,34.3133725 107.662311,34.9606838 108.021723,35.3596615 C108.381135,35.7586391 108.969255,35.958125 109.7861,35.958125 C110.962357,35.958125 112.252952,35.5835801 113.657926,34.8344792 L114.393083,36.4955208 Z M111.746518,26.9201042 C111.142053,26.9201042 110.553933,27.1114477 109.982142,27.4941406 C109.41035,27.8768335 108.907998,28.4223662 108.47507,29.1307552 C108.042142,29.8391442 107.743998,30.6411587 107.580629,31.5368229 L109.050943,31.1948437 C110.308884,30.9017173 111.30542,30.4742476 112.040581,29.9124219 C112.775741,29.3505961 113.143316,28.7439963 113.143316,28.0926042 C113.143316,27.7180537 113.024875,27.4290028 112.78799,27.2254427 C112.551105,27.0218827 112.203951,26.9201042 111.746518,26.9201042 Z M118.97556,31.8788021 C118.224063,31.471682 117.680869,31.0197855 117.345962,30.523099 C117.011056,30.0264124 116.843605,29.4442394 116.843605,28.7765625 C116.843605,27.6040566 117.292863,26.6595522 118.191393,25.9430208 C119.089922,25.2264895 120.27433,24.8682292 121.744651,24.8682292 C122.38179,24.8682292 123.01892,24.9374385 123.656059,25.0758594 C124.293198,25.2142802 124.840476,25.4056238 125.297909,25.6498958 L124.905825,27.6773437 C124.497403,27.4819261 124.007303,27.3231517 123.435512,27.2010156 C122.86372,27.0788796 122.308274,27.0178125 121.769156,27.0178125 C121.017659,27.0178125 120.44996,27.148089 120.066043,27.4086458 C119.682126,27.6692027 119.49017,28.0518898 119.49017,28.5567187 C119.49017,28.86613 119.584106,29.1226118 119.77198,29.3261719 C119.941067,29.5093759 120.272252,29.7420418 120.765544,30.0241754 L122.234755,30.8528646 C123.067937,31.3251239 123.647889,31.7892338 123.974627,32.2452083 C124.301365,32.7011828 124.464731,33.2711424 124.464731,33.9551042 C124.464731,35.209034 124.011389,36.2023922 123.104691,36.9352083 C122.197993,37.6680245 120.960491,38.0344271 119.392149,38.0344271 C118.656988,38.0344271 117.909587,37.9489331 117.149921,37.7779427 C116.390255,37.6069523 115.732704,37.3830396 115.17725,37.1061979 L115.569333,35.07875 C116.141125,35.3230221 116.786423,35.5184368 117.505246,35.665 C118.22407,35.8115632 118.8612,35.8848437 119.416654,35.8848437 C120.184489,35.8848437 120.768524,35.7504961 121.168778,35.4817969 C121.569032,35.2130976 121.769156,34.818197 121.769156,34.2970833 C121.769156,33.9713873 121.667052,33.6904786 121.462841,33.454349 C121.258629,33.2182193 120.895139,32.9535952 120.372358,32.6604687 L118.97556,31.8788021 Z M128.777651,31.8788021 C128.026154,31.471682 127.48296,31.0197855 127.148054,30.523099 C126.813147,30.0264124 126.645696,29.4442394 126.645696,28.7765625 C126.645696,27.6040566 127.094954,26.6595522 127.993484,25.9430208 C128.892013,25.2264895 130.076421,24.8682292 131.546742,24.8682292 C132.183881,24.8682292 132.821011,24.9374385 133.45815,25.0758594 C134.095289,25.2142802 134.642567,25.4056238 135.1,25.6498958 L134.707916,27.6773437 C134.299494,27.4819261 133.809394,27.3231517 133.237603,27.2010156 C132.665811,27.0788796 132.110365,27.0178125 131.571247,27.0178125 C130.81975,27.0178125 130.252051,27.148089 129.868134,27.4086458 C129.484217,27.6692027 129.292261,28.0518898 129.292261,28.5567187 C129.292261,28.86613 129.386197,29.1226118 129.574071,29.3261719 C129.743158,29.5093759 130.074343,29.7420418 130.567635,30.0241754 L132.036847,30.8528646 C132.870028,31.3251239 133.44998,31.7892338 133.776718,32.2452083 C134.103456,32.7011828 134.266822,33.2711424 134.266822,33.9551042 C134.266822,35.209034 133.81348,36.2023922 132.906782,36.9352083 C132.000084,37.6680245 130.762583,38.0344271 129.19424,38.0344271 C128.45908,38.0344271 127.711678,37.9489331 126.952012,37.7779427 C126.192346,37.6069523 125.534796,37.3830396 124.979341,37.1061979 L125.371425,35.07875 C125.943216,35.3230221 126.588514,35.5184368 127.307338,35.665 C128.026161,35.8115632 128.663291,35.8848437 129.218745,35.8848437 C129.98658,35.8848437 130.570615,35.7504961 130.970869,35.4817969 C131.371123,35.2130976 131.571247,34.818197 131.571247,34.2970833 C131.571247,33.9713873 131.469143,33.6904786 131.264932,33.454349 C131.060721,33.2182193 130.69723,32.9535952 130.174449,32.6604687 L128.777651,31.8788021 Z" id="primeftness" fill="#BACE3F"></path>
            <g id="connect-+">
                <path d="M9.212,14.6755 C8.57499682,15.1818359 7.84408746,15.5738319 7.01925,15.8515 C6.19441254,16.1291681 5.35733758,16.268 4.508,16.268 C3.07065948,16.268 1.96000392,15.8515042 1.176,15.0185 C0.39199608,14.1854958 0,13.0095076 0,11.4905 C0,10.0694929 0.3266634,8.71792308 0.98,7.43575 C1.6333366,6.15357692 2.53574424,5.10417075 3.68725,4.2875 C4.83875576,3.47082925 6.09232656,3.0625 7.448,3.0625 C7.97066928,3.0625 8.49333072,3.1196661 9.016,3.234 C9.53866928,3.34833391 10.0041646,3.51166561 10.4125,3.724 L10.0205,5.782 C9.18749584,5.48799853 8.40350368,5.341 7.6685,5.341 C6.78649559,5.341 5.98617026,5.58191426 5.2675,6.06375 C4.54882974,6.54558574 3.9730855,7.23566218 3.54025,8.134 C3.1074145,9.03233783 2.891,10.0613275 2.891,11.221 C2.891,12.1846715 3.06658158,12.8869978 3.41775,13.328 C3.76891842,13.7690022 4.33649608,13.9895 5.1205,13.9895 C5.59416904,13.9895 6.09233072,13.9078342 6.615,13.7445 C7.13766928,13.5811659 7.75016316,13.3116685 8.4525,12.936 L9.212,14.6755 Z M15.0185,16.268 C13.5158258,16.268 12.3439209,15.8065879 11.50275,14.88375 C10.6615791,13.9609121 10.241,12.6746749 10.241,11.025 C10.241,9.6039929 10.5390804,8.293256 11.13525,7.09275 C11.7314196,5.892244 12.5766612,4.92042038 13.671,4.17725 C14.7653388,3.43407962 15.9903266,3.0625 17.346,3.0625 C18.8486742,3.0625 20.0205791,3.52391205 20.86175,4.44675 C21.7029209,5.36958795 22.1235,6.65582509 22.1235,8.3055 C22.1235,9.72650711 21.8254196,11.037244 21.22925,12.23775 C20.6330804,13.438256 19.7878388,14.4100796 18.6935,15.15325 C17.5991612,15.8964204 16.3741734,16.268 15.0185,16.268 Z M15.3125,14.0385 C16.0148368,14.0385 16.6681636,13.801669 17.2725,13.328 C17.8768364,12.854331 18.3627482,12.184671 18.73025,11.319 C19.0977518,10.453329 19.2815,9.48150539 19.2815,8.4035 C19.2815,7.39082827 19.0936685,6.61908599 18.718,6.08825 C18.3423315,5.55741401 17.7870037,5.292 17.052,5.292 C16.3496632,5.292 15.6963364,5.52883097 15.092,6.0025 C14.4876636,6.47616904 14.0017518,7.14582901 13.63425,8.0115 C13.2667482,8.877171 13.083,9.84899461 13.083,10.927 C13.083,11.9396717 13.2708315,12.711414 13.6465,13.24225 C14.0221685,13.773086 14.5774963,14.0385 15.3125,14.0385 Z M30.8455,15.9005 L32.1195,9.359 C32.3481678,8.15032729 32.4625,7.2765027 32.4625,6.7375 C32.4625,5.77382852 31.9725049,5.292 30.9925,5.292 C30.4534973,5.292 29.8369201,5.51658109 29.14275,5.96575 C28.4485799,6.41491891 27.7585034,7.03149608 27.0725,7.8155 L25.5045,15.9005 L22.7115,15.9005 L25.137,3.43 L27.44,3.43 L27.3665,5.6595 C28.0688368,4.82649584 28.824246,4.18541891 29.63275,3.73625 C30.441254,3.28708109 31.2456627,3.0625 32.046,3.0625 C33.0913386,3.0625 33.8957472,3.34833048 34.45925,3.92 C35.0227528,4.49166953 35.3045,5.30016144 35.3045,6.3455 C35.3045,7.01517002 35.1738346,8.01965997 34.9125,9.359 L33.6385,15.9005 L30.8455,15.9005 Z M44.4675,15.9005 L45.7415,9.359 C45.9701678,8.15032729 46.0845,7.2765027 46.0845,6.7375 C46.0845,5.77382852 45.5945049,5.292 44.6145,5.292 C44.0754973,5.292 43.4589201,5.51658109 42.76475,5.96575 C42.0705799,6.41491891 41.3805034,7.03149608 40.6945,7.8155 L39.1265,15.9005 L36.3335,15.9005 L38.759,3.43 L41.062,3.43 L40.9885,5.6595 C41.6908368,4.82649584 42.446246,4.18541891 43.25475,3.73625 C44.063254,3.28708109 44.8676627,3.0625 45.668,3.0625 C46.7133386,3.0625 47.5177472,3.34833048 48.08125,3.92 C48.6447528,4.49166953 48.9265,5.30016144 48.9265,6.3455 C48.9265,7.01517002 48.7958346,8.01965997 48.5345,9.359 L47.2605,15.9005 L44.4675,15.9005 Z M59.682,14.7245 C58.9633297,15.2145025 58.1466712,15.6024152 57.232,15.88825 C56.3173288,16.1740848 55.4026712,16.317 54.488,16.317 C53.0343261,16.317 51.9400037,15.9290872 51.205,15.15325 C50.4699963,14.3774128 50.1025,13.2300076 50.1025,11.711 C50.1025,10.2246592 50.4250801,8.82408991 51.07025,7.50925 C51.7154199,6.19441009 52.6178275,5.11642087 53.7775,4.27525 C54.9371725,3.43407913 56.2111597,3.0135 57.5995,3.0135 C58.661172,3.0135 59.4941636,3.27483072 60.0985,3.7975 C60.7028364,4.32016928 61.005,5.03882876 61.005,5.9535 C61.005,7.22750637 60.4129226,8.33816193 59.22875,9.2855 C58.0445774,10.2328381 56.3826774,10.9188312 54.243,11.3435 L52.773,11.6375 C52.773,12.5358378 52.9526649,13.1850813 53.312,13.58525 C53.6713351,13.9854187 54.2593292,14.1855 55.076,14.1855 C56.2520059,14.1855 57.5423263,13.8098371 58.947,13.0585 L59.682,14.7245 Z M57.036,5.1205 C56.4316636,5.1205 55.8436695,5.31241475 55.272,5.69625 C54.7003305,6.08008525 54.1980855,6.62724645 53.76525,7.33775 C53.3324145,8.04825355 53.0343341,8.85266218 52.871,9.751 L54.341,9.408 C55.598673,9.11399853 56.5949963,8.68525282 57.33,8.12175 C58.0650037,7.55824718 58.4325,6.9498366 58.4325,6.2965 C58.4325,5.92083146 58.3140845,5.63091769 58.07725,5.42675 C57.8404155,5.22258231 57.4933356,5.1205 57.036,5.1205 Z M70.4865,14.6755 C69.8494968,15.1818359 69.1185875,15.5738319 68.29375,15.8515 C67.4689125,16.1291681 66.6318376,16.268 65.7825,16.268 C64.3451595,16.268 63.2345039,15.8515042 62.4505,15.0185 C61.6664961,14.1854958 61.2745,13.0095076 61.2745,11.4905 C61.2745,10.0694929 61.6011634,8.71792308 62.2545,7.43575 C62.9078366,6.15357692 63.8102442,5.10417075 64.96175,4.2875 C66.1132558,3.47082925 67.3668266,3.0625 68.7225,3.0625 C69.2451693,3.0625 69.7678307,3.1196661 70.2905,3.234 C70.8131693,3.34833391 71.2786646,3.51166561 71.687,3.724 L71.295,5.782 C70.4619958,5.48799853 69.6780037,5.341 68.943,5.341 C68.0609956,5.341 67.2606703,5.58191426 66.542,6.06375 C65.8233297,6.54558574 65.2475855,7.23566218 64.81475,8.134 C64.3819145,9.03233783 64.1655,10.0613275 64.1655,11.221 C64.1655,12.1846715 64.3410816,12.8869978 64.69225,13.328 C65.0434184,13.7690022 65.6109961,13.9895 66.395,13.9895 C66.868669,13.9895 67.3668307,13.9078342 67.8895,13.7445 C68.4121693,13.5811659 69.0246632,13.3116685 69.727,12.936 L70.4865,14.6755 Z M79.4045,14.9695 C78.9635,15.2961683 78.4285865,15.5615823 77.79975,15.76575 C77.1709135,15.9699177 76.5543364,16.072 75.95,16.072 C73.7286556,16.072 72.618,15.1246761 72.618,13.23 L72.6195296,13.139648 C72.6338063,12.694687 72.7480197,11.9232707 72.9621726,10.8253804 L73.99,5.586 L71.8585,5.586 L72.2015,3.822 L74.48,3.479 L75.5825,5.96855898e-14 L77.861,5.96855898e-14 L77.1995,3.43 L80.7275,3.43 L80.311,5.586 L76.783,5.586 L75.7245726,11.0101984 C75.5481901,11.9278069 75.46,12.5044029 75.46,12.74 C75.46,13.132002 75.5661656,13.4137491 75.7785,13.58525 C75.9908344,13.7567509 76.333831,13.8425 76.8075,13.8425 C77.4445032,13.8425 78.1059966,13.6791683 78.792,13.3525 L79.4045,14.9695 Z" id="connect" fill="#BACE3F"></path>
                <polygon id="+" fill="#FFFFFF" points="90.4139535 9.3503212 89.5348837 14 87.1174419 14 87.9965116 9.3503212 83.65 9.3503212 84.0895349 7.0996788 88.4360465 7.0996788 89.3151163 2.45 91.7325581 2.45 90.8534884 7.0996788 95.2 7.0996788 94.7604651 9.3503212"></polygon>
            </g>
        </g>
        <text id="Virtual-PT" font-family="Lato-Bold, Lato" font-size="56" font-weight="bold" fill="#FFFFFF">
            <tspan x="80" y="347">Virtual PT</tspan>
        </text>
    </g>
</svg>