<?xml version="1.0" encoding="UTF-8"?>
<svg width="1024px" height="600px" viewBox="0 0 1024 600" version="1.1" xmlns="http://www.w3.org/2000/svg" xmlns:xlink="http://www.w3.org/1999/xlink">
    <!-- Generator: Sketch 58 (84663) - https://sketch.com -->
    <title>Primefitness hero</title>
    <desc>Created with Sketch.</desc>
    <g id="Primefitness-hero" stroke="none" stroke-width="1" fill="none" fill-rule="evenodd">
        <rect fill="#49640B" x="0" y="0" width="1024" height="600"></rect>
        <g id="Group" transform="translate(323.000000, 186.000000)" fill-rule="nonzero">
            <path d="M3,114 L12.7320762,64.0989583 L19.3134802,64.0989583 L19.1034354,70.3104167 C23.1176452,65.4715036 27.3184993,63.0520833 31.706124,63.0520833 C34.6934429,63.0520833 36.9689055,64.1222115 38.5325803,66.2625 C40.096255,68.4027885 40.8780807,71.5201184 40.8780807,75.6145833 C40.8780807,80.0347443 39.9912337,84.1407797 38.2175131,87.9328125 C36.4437925,91.7248453 33.946618,94.795648 30.7259149,97.1453125 C27.5052117,99.494977 23.9344856,100.669792 20.0136296,100.669792 C18.0065247,100.669792 15.9527738,100.251046 13.8523152,99.4135417 L10.9817028,114 L3,114 Z M28.5554518,69.403125 C27.1551461,69.403125 25.5564877,70.0196119 23.7594287,71.2526042 C21.9623697,72.4855964 20.1303305,74.2187388 18.2632562,76.4520833 L14.9025392,93.9697917 C16.2561681,94.2954877 17.6564528,94.4583333 19.1034354,94.4583333 C21.6239857,94.4583333 23.9111174,93.7255282 25.9648992,92.2598958 C28.0186809,90.7942635 29.6640155,88.7237981 30.9009522,86.0484375 C32.1378889,83.3730769 32.756348,80.3139061 32.756348,76.8708333 C32.756348,71.8923362 31.3560633,69.403125 28.5554518,69.403125 Z M43.6786781,99.6229167 L50.6101568,64.0989583 L57.1915609,64.0989583 L56.9815161,70.5197917 C58.8019135,68.2399192 60.6222837,66.5533041 62.4426811,65.4598958 C64.2630786,64.3664876 66.2001391,63.8197917 68.2539208,63.8197917 C69.4208423,63.8197917 70.4243797,63.9361099 71.2645631,64.16875 L69.7942494,71.5666667 C68.30059,71.3340266 67.110348,71.2177083 66.2234877,71.2177083 C64.4030902,71.2177083 62.6293962,71.6829815 60.9023525,72.6135417 C59.1753088,73.5441019 57.5883194,74.8701303 56.1413368,76.5916667 L51.6603809,99.6229167 L43.6786781,99.6229167 Z M81.9068335,58.2364583 C80.5065277,58.2364583 79.4213071,57.8991353 78.6511389,57.2244792 C77.8809708,56.549823 77.4958925,55.5611176 77.4958925,54.2583333 C77.4958925,52.722909 78.0443373,51.4201442 79.1412435,50.35 C80.2381496,49.2798558 81.5800892,48.7447917 83.1671023,48.7447917 C84.567408,48.7447917 85.6526287,49.0821147 86.4227969,49.7567708 C87.192965,50.431427 87.5780433,51.4201324 87.5780433,52.7229167 C87.5780433,54.258341 87.0295985,55.5611058 85.9326923,56.63125 C84.8357862,57.7013942 83.4938466,58.2364583 81.9068335,58.2364583 Z M69.5842046,99.6229167 L76.5156833,64.0989583 L84.4973861,64.0989583 L77.5659074,99.6229167 L69.5842046,99.6229167 Z M131.617438,99.6229167 L135.258215,80.9885417 L135.445902,80.0003449 C136.020927,76.920914 136.308439,74.8541502 136.308439,73.8 C136.308439,72.3111037 136.005044,71.20608 135.398245,70.4848958 C134.791446,69.7637117 133.834585,69.403125 132.527633,69.403125 C129.306929,69.403125 125.736203,71.4735904 121.815347,75.6145833 C121.581963,77.2895917 121.278568,79.0808932 120.905153,80.9885417 L117.264376,99.6229167 L109.282674,99.6229167 L112.92345,80.9885417 L113.109691,79.9605063 C113.639006,76.9748098 113.903659,74.8747977 113.903659,73.6604167 C113.903659,70.822208 112.713417,69.403125 110.332898,69.403125 C107.018841,69.403125 103.3781,71.7992816 99.4105676,76.5916667 L94.9296117,99.6229167 L86.9479089,99.6229167 L93.8793876,64.0989583 L100.460792,64.0989583 L100.250747,70.45 C104.21828,65.5180309 108.535824,63.0520833 113.20351,63.0520833 C115.58403,63.0520833 117.544428,63.7034657 119.084765,65.00625 C120.625101,66.3090343 121.558624,68.1235995 121.885362,70.45 C125.992926,65.5180309 130.543851,63.0520833 135.538275,63.0520833 C138.385563,63.0520833 140.567674,63.8779431 142.084671,65.5296875 C143.601669,67.1814319 144.360157,69.5659566 144.360157,72.6833333 L144.355494,73.012757 C144.310421,74.6737684 143.938565,77.3323406 143.239918,80.9885417 L139.599141,99.6229167 L131.617438,99.6229167 Z M176.216953,96.2729167 C174.163171,97.668757 171.829363,98.7737807 169.215459,99.5880208 C166.601555,100.402261 163.98769,100.809375 161.373786,100.809375 C157.219546,100.809375 154.092244,99.7043513 151.991785,97.4942708 C149.891326,95.2841903 148.841113,92.0156466 148.841113,87.6885417 C148.841113,83.4544927 149.762967,79.4647757 151.606703,75.7192708 C153.450439,71.973766 156.029296,68.9029634 159.343353,66.5067708 C162.65741,64.1105783 166.29815,62.9125 170.265683,62.9125 C173.299679,62.9125 175.680163,63.656937 177.407207,65.1458333 C179.134251,66.6347297 179.99776,68.6819314 179.99776,71.2875 C179.99776,74.9166848 178.305749,78.0805421 174.921677,80.7791667 C171.537604,83.4777913 166.788305,85.4319384 160.673637,86.6416667 L156.472741,87.4791667 C156.472741,90.0382072 156.986179,91.8876679 158.013069,93.0276042 C159.03996,94.1675404 160.720302,94.7375 163.054145,94.7375 C166.414879,94.7375 170.102295,93.6673718 174.116505,91.5270833 L176.216953,96.2729167 Z M168.65534,68.9145833 C166.928296,68.9145833 165.247954,69.4612793 163.614264,70.5546875 C161.980574,71.6480957 160.545283,73.2067607 159.308346,75.2307292 C158.071409,77.2546976 157.219569,79.5461678 156.752801,82.1052083 L160.953697,81.128125 C164.547815,80.2906208 167.39506,79.0692789 169.495519,77.4640625 C171.595978,75.8588461 172.646191,74.1257037 172.646191,72.2645833 C172.646191,71.1944391 172.307789,70.3685793 171.630975,69.7869792 C170.95416,69.205379 169.962292,68.9145833 168.65534,68.9145833 Z M207.023525,99.6229167 L212.76475,70.240625 L197.501494,70.240625 L191.760269,99.6229167 L183.778566,99.6229167 L189.519791,70.240625 L183.428491,70.240625 L184.408701,65.215625 L190.710045,64.3083333 L191.620239,59.5625 C192.413746,55.4215071 193.954059,52.2925453 196.241225,50.1755208 C198.528391,48.0584964 201.515665,47 205.203137,47 C207.583656,47 209.777436,47.4420095 211.784541,48.3260417 L210.664302,53.909375 C209.030612,53.5371509 207.536975,53.3510417 206.183346,53.3510417 C204.222918,53.3510417 202.752619,53.7697875 201.772405,54.6072917 C200.792191,55.4447959 200.115386,56.8173516 199.741972,58.725 L198.691748,64.0989583 L221.936706,64.0989583 L215.005228,99.6229167 L207.023525,99.6229167 Z M225.017364,52.7229167 C225.017364,54.258341 224.468919,55.5611058 223.372013,56.63125 C222.275107,57.7013942 220.933167,58.2364583 219.346154,58.2364583 C217.945848,58.2364583 216.860627,57.8991353 216.090459,57.2244792 C215.320291,56.549823 214.935213,55.5611176 214.935213,54.2583333 C214.935213,52.722909 215.483658,51.4201442 216.580564,50.35 C217.67747,49.2798558 219.01941,48.7447917 220.606423,48.7447917 C222.006728,48.7447917 223.091949,49.0821147 223.862117,49.7567708 C224.632285,50.431427 225.017364,51.4201324 225.017364,52.7229167 Z M247.352128,96.9708333 C246.09186,97.9013935 244.563209,98.6574624 242.76615,99.2390625 C240.969091,99.8206626 239.207066,100.111458 237.480022,100.111458 C231.225323,100.111458 228.05203,97.4916607 227.96005,92.2519881 L227.957991,92.015625 C227.957991,90.7998931 228.285841,88.5166167 228.941551,85.1657306 L231.878827,70.240625 L225.787528,70.240625 L226.767737,65.215625 L233.279126,64.2385417 L236.429798,54.328125 L242.941187,54.328125 L241.050784,64.0989583 L251.132935,64.0989583 L249.942681,70.240625 L239.86053,70.240625 L237.129948,84.1989583 L236.835807,85.6922107 C236.331749,88.3061464 236.079724,89.9486604 236.079724,90.6197917 C236.079724,91.7364639 236.383119,92.5390601 236.989918,93.0276042 C237.596717,93.5161483 238.576916,93.7604167 239.930545,93.7604167 C241.750943,93.7604167 243.641327,93.2951435 245.601755,92.3645833 L247.352128,96.9708333 Z M274.237864,99.6229167 L277.878641,80.9885417 L278.077434,79.9146894 C278.59838,77.0230156 278.85885,74.8917479 278.85885,73.5208333 C278.85885,70.7756807 277.458565,69.403125 274.657954,69.403125 C273.117617,69.403125 271.355592,70.0428755 269.371826,71.3223958 C267.38806,72.6019161 265.415992,74.3583222 263.455564,76.5916667 L258.974608,99.6229167 L250.992905,99.6229167 L257.924384,64.0989583 L264.505788,64.0989583 L264.295743,70.45 C266.302848,68.0770715 268.46162,66.2508745 270.772125,64.9713542 C273.082629,63.6918339 275.38143,63.0520833 277.668596,63.0520833 C280.655915,63.0520833 282.954716,63.8663113 284.565067,65.4947917 C286.175419,67.123272 286.980583,69.426374 286.980583,72.4041667 C286.980583,74.3118151 286.607173,77.1732448 285.860344,80.9885417 L282.219567,99.6229167 L274.237864,99.6229167 Z M318.837379,96.2729167 C316.783597,97.668757 314.449789,98.7737807 311.835885,99.5880208 C309.221981,100.402261 306.608116,100.809375 303.994212,100.809375 C299.839972,100.809375 296.712669,99.7043513 294.612211,97.4942708 C292.511752,95.2841903 291.461538,92.0156466 291.461538,87.6885417 C291.461538,83.4544927 292.383393,79.4647757 294.227128,75.7192708 C296.070864,71.973766 298.649722,68.9029634 301.963779,66.5067708 C305.277836,64.1105783 308.918576,62.9125 312.886109,62.9125 C315.920105,62.9125 318.300589,63.656937 320.027633,65.1458333 C321.754676,66.6347297 322.618185,68.6819314 322.618185,71.2875 C322.618185,74.9166848 320.926175,78.0805421 317.542102,80.7791667 C314.15803,83.4777913 309.408731,85.4319384 303.294063,86.6416667 L299.093167,87.4791667 C299.093167,90.0382072 299.606604,91.8876679 300.633495,93.0276042 C301.660386,94.1675404 303.340728,94.7375 305.674571,94.7375 C309.035304,94.7375 312.722721,93.6673718 316.736931,91.5270833 L318.837379,96.2729167 Z M311.275765,68.9145833 C309.548722,68.9145833 307.86838,69.4612793 306.23469,70.5546875 C304.601,71.6480957 303.165708,73.2067607 301.928771,75.2307292 C300.691835,77.2546976 299.839995,79.5461678 299.373226,82.1052083 L303.574122,81.128125 C307.168241,80.2906208 310.015486,79.0692789 312.115945,77.4640625 C314.216403,75.8588461 315.266617,74.1257037 315.266617,72.2645833 C315.266617,71.1944391 314.928215,70.3685793 314.2514,69.7869792 C313.574586,69.205379 312.582718,68.9145833 311.275765,68.9145833 Z M331.930172,83.0822917 C329.783036,81.9190914 328.231054,80.6279585 327.274178,79.2088542 C326.317303,77.7897498 325.838872,76.1263984 325.838872,74.21875 C325.838872,70.8687332 327.122467,68.1701491 329.689694,66.1229167 C332.256921,64.0756842 335.640942,63.0520833 339.84186,63.0520833 C341.662257,63.0520833 343.482627,63.2498244 345.303025,63.6453125 C347.123422,64.0408006 348.687073,64.5874965 349.994025,65.2854167 L348.873786,71.078125 C347.706865,70.5197889 346.30658,70.0661476 344.67289,69.7171875 C343.0392,69.3682274 341.452211,69.19375 339.911875,69.19375 C337.764739,69.19375 336.142743,69.5659685 335.045836,70.3104167 C333.94893,71.0548648 333.400485,72.1482567 333.400485,73.590625 C333.400485,74.4746572 333.668873,75.2074624 334.205657,75.7890625 C334.688763,76.3125026 335.635006,76.9772624 337.044411,77.7833583 L341.242158,80.1510417 C343.622678,81.500354 345.279682,82.8263824 346.213219,84.1291667 C347.146756,85.431951 347.613518,87.0604069 347.613518,89.0145833 C347.613518,92.5972401 346.318254,95.4354062 343.727689,97.5291667 C341.137123,99.6229271 337.601404,100.669792 333.120426,100.669792 C331.019967,100.669792 328.884533,100.425523 326.714059,99.9369792 C324.543585,99.4484351 322.66487,98.8086845 321.077857,98.0177083 L322.198096,92.225 C323.831786,92.9229202 325.675494,93.4812479 327.729276,93.9 C329.783057,94.3187521 331.603427,94.528125 333.190441,94.528125 C335.384253,94.528125 337.052926,94.1442747 338.196509,93.3765625 C339.340092,92.6088503 339.911875,91.480563 339.911875,89.9916667 C339.911875,89.0611065 339.620149,88.2585103 339.036688,87.5838542 C338.453227,86.909198 337.414683,86.1531292 335.921023,85.315625 L331.930172,83.0822917 Z M359.936146,83.0822917 C357.789011,81.9190914 356.237029,80.6279585 355.280153,79.2088542 C354.323278,77.7897498 353.844847,76.1263984 353.844847,74.21875 C353.844847,70.8687332 355.128441,68.1701491 357.695668,66.1229167 C360.262896,64.0756842 363.646917,63.0520833 367.847834,63.0520833 C369.668232,63.0520833 371.488602,63.2498244 373.308999,63.6453125 C375.129397,64.0408006 376.693048,64.5874965 378,65.2854167 L376.879761,71.078125 C375.71284,70.5197889 374.312555,70.0661476 372.678865,69.7171875 C371.045175,69.3682274 369.458185,69.19375 367.917849,69.19375 C365.770714,69.19375 364.148717,69.5659685 363.051811,70.3104167 C361.954905,71.0548648 361.40646,72.1482567 361.40646,73.590625 C361.40646,74.4746572 361.674848,75.2074624 362.211632,75.7890625 C362.694737,76.3125026 363.64098,76.9772624 365.050385,77.7833583 L369.248133,80.1510417 C371.628653,81.500354 373.285656,82.8263824 374.219193,84.1291667 C375.152731,85.431951 375.619492,87.0604069 375.619492,89.0145833 C375.619492,92.5972401 374.324229,95.4354062 371.733663,97.5291667 C369.143098,99.6229271 365.607379,100.669792 361.1264,100.669792 C359.025942,100.669792 356.890507,100.425523 354.720034,99.9369792 C352.54956,99.4484351 350.670844,98.8086845 349.083831,98.0177083 L350.20407,92.225 C351.83776,92.9229202 353.681468,93.4812479 355.73525,93.9 C357.789032,94.3187521 359.609402,94.528125 361.196415,94.528125 C363.390228,94.528125 365.0589,94.1442747 366.202483,93.3765625 C367.346066,92.6088503 367.917849,91.480563 367.917849,89.9916667 C367.917849,89.0611065 367.626123,88.2585103 367.042662,87.5838542 C366.459202,86.909198 365.420657,86.1531292 363.926998,85.315625 L359.936146,83.0822917 Z" id="primeftness" fill="#BACE3F"></path>
            <g id="connect-+">
                <path d="M26.32,41.93 C24.5,43.3766739 22.4116784,44.4966627 20.055,45.29 C17.6983215,46.0833373 15.3066788,46.48 12.88,46.48 C8.7733128,46.48 5.6000112,45.2900119 3.36,42.91 C1.1199888,40.5299881 -1.70530257e-13,37.1700217 -1.70530257e-13,32.83 C-1.70530257e-13,28.7699797 0.933324,24.9083517 2.8,21.245 C4.666676,17.5816484 7.24498355,14.583345 10.535,12.25 C13.8250164,9.916655 17.4066473,8.75 21.28,8.75 C22.7733408,8.75 24.2666592,8.9133317 25.76,9.24 C27.2533408,9.5666683 28.5833275,10.0333303 29.75,10.64 L28.63,16.52 C26.2499881,15.6799958 24.0100105,15.26 21.91,15.26 C19.3899874,15.26 17.1033436,15.9483265 15.05,17.325 C12.9966564,18.7016736 11.3516728,20.6733205 10.115,23.24 C8.87832715,25.8066795 8.26,28.7466501 8.26,32.06 C8.26,34.8133471 8.76166165,36.8199937 9.765,38.08 C10.7683383,39.3400063 12.3899888,39.97 14.63,39.97 C15.9833401,39.97 17.4066592,39.736669 18.9,39.27 C20.3933408,38.803331 22.1433233,38.0333387 24.15,36.96 L26.32,41.93 Z M42.91,46.48 C38.6166452,46.48 35.2683453,45.1616799 32.865,42.525 C30.4616546,39.8883202 29.26,36.2133569 29.26,31.5 C29.26,27.4399797 30.1116581,23.6950172 31.815,20.265 C33.5183418,16.8349829 35.9333177,14.058344 39.06,11.935 C42.1866823,9.81165605 45.6866473,8.75 49.56,8.75 C53.8533548,8.75 57.2016546,10.0683202 59.605,12.705 C62.0083453,15.3416799 63.21,19.0166431 63.21,23.73 C63.21,27.7900203 62.3583418,31.5349829 60.655,34.965 C58.9516581,38.3950172 56.5366823,41.1716561 53.41,43.295 C50.2833177,45.418344 46.7833527,46.48 42.91,46.48 Z M43.75,40.11 C45.7566767,40.11 47.6233247,39.4333401 49.35,38.08 C51.0766753,36.7266599 52.4649947,34.8133457 53.515,32.34 C54.5650052,29.8666543 55.09,27.0900154 55.09,24.01 C55.09,21.1166522 54.5533387,18.9116743 53.48,17.395 C52.4066613,15.8783258 50.8200105,15.12 48.72,15.12 C46.7133233,15.12 44.8466753,15.7966599 43.12,17.15 C41.3933247,18.5033401 40.0050052,20.4166543 38.955,22.89 C37.9049947,25.3633457 37.38,28.1399846 37.38,31.22 C37.38,34.1133478 37.9166613,36.3183258 38.99,37.835 C40.0633387,39.3516743 41.6499895,40.11 43.75,40.11 Z M88.13,45.43 L91.77,26.74 C92.4233366,23.2866494 92.75,20.7900077 92.75,19.25 C92.75,16.4966529 91.350014,15.12 88.55,15.12 C87.0099923,15.12 85.2483432,15.7616603 83.265,17.045 C81.2816567,18.3283398 79.3100098,20.0899888 77.35,22.33 L72.87,45.43 L64.89,45.43 L71.82,9.8 L78.4,9.8 L78.19,16.17 C80.1966767,13.7899881 82.3549884,11.9583398 84.665,10.675 C86.9750115,9.39166025 89.2733219,8.75 91.56,8.75 C94.5466816,8.75 96.8449919,9.5666585 98.455,11.2 C100.065008,12.8333415 100.87,15.1433184 100.87,18.13 C100.87,20.0433429 100.49667,22.9133142 99.75,26.74 L96.11,45.43 L88.13,45.43 Z M127.05,45.43 L130.69,26.74 C131.343337,23.2866494 131.67,20.7900077 131.67,19.25 C131.67,16.4966529 130.270014,15.12 127.47,15.12 C125.929992,15.12 124.168343,15.7616603 122.185,17.045 C120.201657,18.3283398 118.23001,20.0899888 116.27,22.33 L111.79,45.43 L103.81,45.43 L110.74,9.8 L117.32,9.8 L117.11,16.17 C119.116677,13.7899881 121.274988,11.9583398 123.585,10.675 C125.895012,9.39166025 128.193322,8.75 130.48,8.75 C133.466682,8.75 135.764992,9.5666585 137.375,11.2 C138.985008,12.8333415 139.79,15.1433184 139.79,18.13 C139.79,20.0433429 139.41667,22.9133142 138.67,26.74 L135.03,45.43 L127.05,45.43 Z M170.52,42.07 C168.466656,43.470007 166.133346,44.5783293 163.52,45.395 C160.906654,46.2116708 158.293346,46.62 155.68,46.62 C151.526646,46.62 148.40001,45.5116778 146.3,43.295 C144.199989,41.0783223 143.15,37.8000217 143.15,33.46 C143.15,29.2133121 144.071657,25.2116855 145.915,21.455 C147.758343,17.6983146 150.33665,14.6183454 153.65,12.215 C156.96335,9.81165465 160.603313,8.61 164.57,8.61 C167.603348,8.61 169.983325,9.3566592 171.71,10.85 C173.436675,12.3433408 174.3,14.3966536 174.3,17.01 C174.3,20.6500182 172.60835,23.8233198 169.225,26.53 C165.84165,29.2366802 161.093364,31.1966606 154.98,32.41 L150.78,33.25 C150.78,35.8166795 151.293328,37.671661 152.32,38.815 C153.346672,39.9583391 155.026655,40.53 157.36,40.53 C160.720017,40.53 164.406647,39.4566774 168.42,37.31 L170.52,42.07 Z M162.96,14.63 C161.233325,14.63 159.553341,15.1783279 157.92,16.275 C156.286658,17.3716722 154.851673,18.9349899 153.615,20.965 C152.378327,22.9950102 151.526669,25.2933205 151.06,27.86 L155.26,26.88 C158.853351,26.0399958 161.699989,24.8150081 163.8,23.205 C165.90001,21.594992 166.95,19.856676 166.95,17.99 C166.95,16.9166613 166.61167,16.0883363 165.935,15.505 C165.25833,14.9216638 164.266673,14.63 162.96,14.63 Z M201.39,41.93 C199.57,43.3766739 197.481678,44.4966627 195.125,45.29 C192.768322,46.0833373 190.376679,46.48 187.95,46.48 C183.843313,46.48 180.670011,45.2900119 178.43,42.91 C176.189989,40.5299881 175.07,37.1700217 175.07,32.83 C175.07,28.7699797 176.003324,24.9083517 177.87,21.245 C179.736676,17.5816484 182.314984,14.583345 185.605,12.25 C188.895016,9.916655 192.476647,8.75 196.35,8.75 C197.843341,8.75 199.336659,8.9133317 200.83,9.24 C202.323341,9.5666683 203.653327,10.0333303 204.82,10.64 L203.7,16.52 C201.319988,15.6799958 199.08001,15.26 196.98,15.26 C194.459987,15.26 192.173344,15.9483265 190.12,17.325 C188.066656,18.7016736 186.421673,20.6733205 185.185,23.24 C183.948327,25.8066795 183.33,28.7466501 183.33,32.06 C183.33,34.8133471 183.831662,36.8199937 184.835,38.08 C185.838338,39.3400063 187.459989,39.97 189.7,39.97 C191.05334,39.97 192.476659,39.736669 193.97,39.27 C195.463341,38.803331 197.213323,38.0333387 199.22,36.96 L201.39,41.93 Z M226.87,42.77 C225.61,43.703338 224.081676,44.4616638 222.285,45.045 C220.488324,45.6283363 218.726675,45.92 217,45.92 C210.653302,45.92 207.48,43.2133604 207.48,37.8 L207.48437,37.5418514 C207.525161,36.2705343 207.851485,34.0664877 208.46335,30.9296582 L211.4,15.96 L205.31,15.96 L206.29,10.92 L212.8,9.94 L215.95,1.70530257e-13 L222.46,1.70530257e-13 L220.57,9.8 L230.65,9.8 L229.46,15.96 L219.38,15.96 L216.355922,31.4577098 C215.851972,34.0794484 215.6,35.7268653 215.6,36.4 C215.6,37.5200056 215.90333,38.3249976 216.51,38.815 C217.11667,39.3050025 218.09666,39.55 219.45,39.55 C221.270009,39.55 223.15999,39.083338 225.12,38.15 L226.87,42.77 Z" id="connect" fill="#BACE3F"></path>
                <polygon id="+" fill="#FFFFFF" points="247.325581 30.7152034 244.813953 44 237.906977 44 240.418605 30.7152034 228 30.7152034 229.255814 24.2847966 241.674419 24.2847966 244.186047 11 251.093023 11 248.581395 24.2847966 261 24.2847966 259.744186 30.7152034"></polygon>
            </g>
        </g>
        <g id="undraw_ideation_2a64" transform="translate(512.000000, 333.000000)" fill-rule="nonzero">
            <path d="M103,92.5 C103,90.0147186 105.014719,88 107.5,88 C109.985281,88 112,90.0147186 112,92.5 C112,94.9852814 109.985281,97 107.5,97 C105.015869,96.9972245 103.002775,94.9841308 103,92.5 Z M103.75,92.5 C103.75,94.5710678 105.428932,96.25 107.5,96.25 C109.571068,96.25 111.25,94.5710678 111.25,92.5 C111.25,90.4289322 109.571068,88.75 107.5,88.75 C105.429913,88.7523662 103.752366,90.4299131 103.75,92.5 Z" id="Shape" fill="#FFFFFF"></path>
            <path d="M61.7563617,174 L55,166.75636 L62.2436383,160 L69,167.24364 L61.7563617,174 Z M56.0769243,166.793844 L61.7938463,172.923075 L67.9230757,167.206156 L62.2061537,161.076925 L56.0769243,166.793844 Z" id="Shape" fill="#FFFFFF"></path>
            <path d="M5.79116043,69 L0,62.7911704 L6.20883957,57 L12,63.2088296 L5.79116043,69 Z M0.923073824,62.8232919 L5.82328991,68.0769178 L11.0769141,63.1767041 L6.17669801,57.923062 L0.923073824,62.8232919 Z" id="Shape" fill="#FFFFFF"></path>
            <path d="M84,77 C62.4608948,77 45,59.7629629 45,38.5 C45,17.2370371 62.4608948,0 84,0 C105.539105,0 123,17.2370371 123,38.5 C122.975645,59.7529959 105.529009,76.975957 84,77 L84,77 Z M84,0.77 C62.8916769,0.77 45.78,17.6622964 45.78,38.5 C45.78,59.3377036 62.8916769,76.23 84,76.23 C105.108323,76.23 122.22,59.3377036 122.22,38.5 C122.196205,17.6720338 105.098459,0.793489445 84,0.77 Z" id="Shape" fill="#FFFFFF"></path>
            <polygon id="Rectangle" fill="#FFFFFF" transform="translate(55.390373, 79.278497) rotate(-64.335790) translate(-55.390373, -79.278497) " points="43.7959258 78.8886881 66.9847548 78.8906475 66.9848205 79.6683059 43.7959915 79.6663465"></polygon>
            <polygon id="Rectangle" fill="#FFFFFF" transform="translate(79.681594, 129.688751) rotate(-61.578070) translate(-79.681594, -129.688751) " points="79.2905085 104.535491 80.0681227 104.535561 80.0726803 154.842011 79.2950661 154.841941"></polygon>
            <path d="M58,146 L1,146 L1,89 L58,89 L58,146 Z M1.78082192,145.219178 L57.2191781,145.219178 L57.2191781,89.7808219 L1.78082192,89.7808219 L1.78082192,145.219178 Z" id="Shape" fill="#FFFFFF"></path>
            <path d="M142,174 L83,174 L112.499809,123 L142,174 Z M84.3532663,173.220098 L140.646351,173.220098 L112.499809,124.559613 L84.3532663,173.220098 Z" id="Shape" fill="#FFFFFF"></path>
            <circle id="Oval" fill="#A0616A" cx="216" cy="80" r="10"></circle>
            <path d="M220.668164,85.0423222 C220.668164,85.0423222 221.853516,96.4693072 223.829102,98.3738047 C225.804688,100.278302 210,97.2311062 210,97.2311062 C210,97.2311062 212.370703,87.7086187 210.790234,86.1850207 C209.209766,84.6614227 220.668164,85.0423222 220.668164,85.0423222 Z" id="Path" fill="#A0616A"></path>
            <path d="M228.025916,105 C228.025916,105 232.564789,118.132275 233.699508,126.243386 C234.834226,134.354497 234.834226,137.830688 234.834226,137.830688 C234.834226,137.830688 239.751339,153.280423 238.238381,160.619048 C238.238381,160.619048 243.911973,178 238.99486,178 C234.077747,178 232.564789,163.708995 232.564789,163.708995 L225,127.015873 L228.025916,105 Z" id="Path" fill="#A0616A"></path>
            <path d="M229.831131,110.908025 C229.831131,110.908025 228.665932,96.5355481 223.61674,95.3702121 C221.20624,94.8138768 217.290879,93.9919459 213.85688,93.2848084 C207.874729,92.0529434 201.704251,94.8914649 198.984935,100.360981 C198.475102,101.352624 198.136162,102.423168 197.982379,103.527564 C197.20558,109.742689 193.321586,109.742689 196.817181,117.900041 C200.312775,126.057393 199.535977,134.60319 199.535977,134.60319 L201.866373,155.190792 C201.866373,155.190792 192.156388,182.381965 192.933186,200.638896 L184,245.310108 C184,245.310108 185.941997,249.971452 191.379589,247.64078 C191.379589,247.64078 204.973568,224.722506 203.80837,208.019357 L217.790749,176.943731 C217.790749,176.943731 227.500734,206.465576 230.21953,209.184693 L237.21072,251.136788 C237.21072,251.136788 243.81351,253.079015 246.920705,251.136788 C246.920705,251.136788 248.085903,210.738474 241.483113,204.134904 C241.483113,204.134904 234.880323,176.16684 236.433921,168.786379 C237.987518,161.405918 238.375918,150.141003 226.723935,140.041425 C226.723935,140.041425 228.277533,135.768526 223.228341,133.437854 L227.112335,121.007604 L229.831131,110.908025 Z" id="Path" fill="#2F2E41"></path>
            <path d="M206.355055,94.0616375 C206.249776,94.0464813 206.142304,94.0339302 206.03264,94.0239842 C202.580121,93.7133416 199.607545,96.4608 199.453627,99.912366 L198.837363,113.731975 L196.497833,128.888115 L191.42885,161.532108 C191.42885,161.532108 181.680807,173.190677 188.309476,173.967915 C194.938146,174.745153 196.107911,161.143489 196.107911,161.143489 L204.68619,135.494637 L208.195485,111.78888 C208.195485,111.78888 212.288673,107.709368 210.585109,98.2784914 C210.229034,96.1138541 208.52687,94.4170014 206.355055,94.0616375 L206.355055,94.0616375 Z" id="Path" fill="#A0616A"></path>
            <path d="M184.35164,244 L181.690024,258.275862 C181.690024,258.275862 175.226098,261.448276 179.408638,265.413793 C183.591178,269.37931 189.294642,264.62069 189.294642,264.62069 L190.815566,259.862069 L190.435335,267 L191.576028,267 L192.716721,259.862069 C192.716721,259.862069 194.998106,255.5 193.477182,251.931034 L193.477182,247.172414 L184.35164,244 Z" id="Path" fill="#2F2E41"></path>
            <path d="M237.210947,245 L235.690024,257.6 C235.690024,257.6 229.226098,260.654545 233.408638,264.472727 C237.591178,268.290909 243.294642,263.709091 243.294642,263.709091 L244.815566,259.127273 L244.435335,266 L245.576028,266 L246.716721,259.127273 C246.716721,259.127273 248.998106,254.927273 247.477182,251.490909 L247.477182,246.909091 L237.210947,245 Z" id="Path" fill="#2F2E41"></path>
            <path d="M220.810492,65.5406568 L220.81041,65.5406568 C220.265809,65.5416962 219.722602,65.5945659 219.188456,65.6985196 C218.223406,65.2399683 217.164836,65.0011624 216.092084,65 L215.810996,65 C210.392483,65 206,69.7991809 206,75.7192237 L206,75.7192427 L207.81556,75.7192427 L208.108801,73.5347334 L208.538654,75.7192427 L210.051189,75.7192427 C209.580686,77.4720785 209.344538,79.2772613 209.34866,81.0895808 L209.34866,92 L212.09369,92 L213.682953,87.9575873 L213.285621,92 L230.929853,92 L232.374643,88.3250873 L232.013432,92 L234,92 L234,83.4333595 C234,73.55151 228.094819,65.5406568 220.810492,65.5406568 Z" id="Path" fill="#2F2E41"></path>
            <rect id="Rectangle" fill="#3F3D56" x="275" y="136" width="1" height="130"></rect>
            <ellipse id="Oval" fill="#3F3D56" cx="276" cy="222.5" rx="14" ry="32.5"></ellipse>
            <ellipse id="Oval" fill="#3F3D56" cx="276" cy="148.5" rx="14" ry="32.5"></ellipse>
            <path d="M275.644156,122 L274.946736,121.792424 C274.990814,121.64626 279.270552,107.080666 272.243264,97.7039893 C268.2742,92.4082714 261.463411,89.7229921 252,89.7229921 L252,89 C261.707613,89 268.715504,91.7841233 272.82924,97.2750533 C280.074076,106.945635 275.689298,121.850673 275.644156,122 Z" id="Path" fill="#3F3D56"></path>
            <circle id="Oval" fill="#F2F2F2" cx="253" cy="90" r="9"></circle>
        </g>
    </g>
</svg>