<svg xmlns="http://www.w3.org/2000/svg" viewBox="0 0 1024 600">
  <defs/>
  <g fill="none" fill-rule="evenodd">
    <path fill="#49640B" d="M0 0h1024v600H0z"/>
    <g fill-rule="nonzero">
      <path fill="#BACE3F" d="M326 300l9.7320762-49.9010417h6.581404l-.2100448 6.2114584c4.0142098-4.8389131 8.2150639-7.2583334 12.6026886-7.2583334 2.9873189 0 5.2627815 1.0701282 6.8264563 3.2104167 1.5636747 2.1402885 2.3455004 5.2576184 2.3455004 9.3520833 0 4.420161-.886847 8.5261964-2.6605676 12.3182292-1.7737206 3.7920328-4.2708951 6.8628355-7.4915982 9.2125-3.2207032 2.3496645-6.7914293 3.5244795-10.7122853 3.5244795-2.0071049 0-4.0608558-.418746-6.1613144-1.2562503L333.9817028 300H326zm25.5554518-44.596875c-1.4003057 0-2.9989641.6164869-4.7960231 1.8494792-1.797059 1.2329922-3.6290982 2.9661346-5.4961725 5.1994791l-3.360717 17.5177084c1.3536289.325696 2.7539136.4885416 4.2008962.4885416 2.5205503 0 4.807682-.7328051 6.8614638-2.1984375 2.0537817-1.4656323 3.6991163-3.5360977 4.936053-6.2114583 1.2369367-2.6753606 1.8553958-5.7345314 1.8553958-9.1776042 0-4.9784971-1.4002847-7.4677083-4.2008962-7.4677083zm15.1232263 30.2197917l6.9314787-35.5239584h6.5814041l-.2100448 6.4208334c1.8203974-2.2798725 3.6407676-3.9664876 5.461165-5.0598959 1.8203975-1.0934082 3.757458-1.6401041 5.8112397-1.6401041 1.1669215 0 2.1704589.1163182 3.0106423.3489583l-1.4703137 7.3979167c-1.4936594-.2326401-2.6839014-.3489584-3.5707617-.3489584-1.8203975 0-3.5940915.4652732-5.3211352 1.3958334-1.7270437.9305602-3.3140331 2.2565886-4.7610157 3.978125l-4.4809559 23.03125h-7.9817028zm38.2281554-41.3864584c-1.4003058 0-2.4855264-.337323-3.2556946-1.0119791-.7701681-.6746562-1.1552464-1.6633616-1.1552464-2.9661459 0-1.5354243.5484448-2.8381891 1.645351-3.9083333 1.0969061-1.0701442 2.4388457-1.6052083 4.0258588-1.6052083 1.4003057 0 2.4855264.337323 3.2556946 1.0119791.7701681.6746562 1.1552464 1.6633616 1.1552464 2.9661459 0 1.5354243-.5484448 2.8381891-1.645351 3.9083333-1.0969061 1.0701442-2.4388457 1.6052083-4.0258588 1.6052083zm-12.3226289 41.3864584l6.9314787-35.5239584h7.9817028l-6.9314787 35.5239584h-7.9817028zm62.0332334 0l3.640777-18.634375.187687-.9881968c.575025-3.0794309.862537-5.1461947.862537-6.2003449 0-1.4888963-.303395-2.59392-.910194-3.3151042-.606799-.7211841-1.56366-1.0817708-2.870612-1.0817708-3.220704 0-6.79143 2.0704654-10.712286 6.2114583-.233384 1.6750084-.536779 3.4663099-.910194 5.3739584l-3.640777 18.634375h-7.981702l3.640776-18.634375.186241-1.0280354c.529315-2.9856965.793968-5.0857086.793968-6.3000896 0-2.8382087-1.190242-4.2572917-3.570761-4.2572917-3.314057 0-6.954798 2.3961566-10.9223304 7.1885417l-4.4809559 23.03125h-7.9817028l6.9314787-35.5239584h6.5814044L423.250747 256.45c3.967533-4.9319691 8.285077-7.3979167 12.952763-7.3979167 2.38052 0 4.340918.6513824 5.881255 1.9541667 1.540336 1.3027843 2.473859 3.1173495 2.800597 5.44375 4.107564-4.9319691 8.658489-7.3979167 13.652913-7.3979167 2.847288 0 5.029399.8258598 6.546396 2.4776042 1.516998 1.6517444 2.275486 4.0362691 2.275486 7.1536458l-.004663.3294237c-.045073 1.6610114-.416929 4.3195836-1.115576 7.9757847l-3.640777 18.634375h-7.981703zm44.599515-3.35c-2.053782 1.3958403-4.38759 2.500864-7.001494 3.3151041-2.613904.8142402-5.227769 1.2213542-7.841673 1.2213542-4.15424 0-7.281542-1.1050237-9.382001-3.3151042-2.100459-2.2100805-3.150672-5.4786242-3.150672-9.8057291 0-4.234049.921854-8.223766 2.76559-11.9692709 1.843736-3.7455048 4.422593-6.8163074 7.73665-9.2125 3.314057-2.3961925 6.954797-3.5942708 10.92233-3.5942708 3.033996 0 5.41448.744437 7.141524 2.2333333 1.727044 1.4888964 2.590553 3.5360981 2.590553 6.1416667 0 3.6291848-1.692011 6.7930421-5.076083 9.4916667-3.384073 2.6986246-8.133372 4.6527717-14.24804 5.8625l-4.200896.8375c0 2.5590405.513438 4.4085012 1.540328 5.5484375 1.026891 1.1399362 2.707233 1.7098958 5.041076 1.7098958 3.360734 0 7.04815-1.0701282 11.06236-3.2104167l2.100448 4.7458334zm-7.561613-27.3583334c-1.727044 0-3.407386.546696-5.041076 1.6401042-1.63369 1.0934082-3.068981 2.6520732-4.305918 4.6760417-1.236937 2.0239684-2.088777 4.3154386-2.555545 6.8744791l4.200896-.9770833c3.594118-.8375042 6.441363-2.0588461 8.541822-3.6640625 2.100459-1.6052164 3.150672-3.3383588 3.150672-5.1994792 0-1.0701442-.338402-1.896004-1.015216-2.4776041-.676815-.5816002-1.668683-.8723959-2.975635-.8723959zm38.368185 30.7083334l5.741225-29.3822917h-15.263256l-5.741225 29.3822917h-7.981703l5.741225-29.3822917h-6.0913l.98021-5.025 6.301344-.9072917.910194-4.7458333c.793507-4.1409929 2.33382-7.2699547 4.620986-9.3869792C521.528391 234.0584964 524.515665 233 528.203137 233c2.380519 0 4.574299.4420095 6.581404 1.3260417l-1.120239 5.5833333c-1.63369-.3722241-3.127327-.5583333-4.480956-.5583333-1.960428 0-3.430727.4187458-4.410941 1.25625-.980214.8375042-1.657019 2.2100599-2.030433 4.1177083l-1.050224 5.3739583h23.244958l-6.931478 35.5239584h-7.981703zm17.993839-46.9c0 1.5354243-.548445 2.8381891-1.645351 3.9083333-1.096906 1.0701442-2.438846 1.6052083-4.025859 1.6052083-1.400306 0-2.485527-.337323-3.255695-1.0119791-.770168-.6746562-1.155246-1.6633616-1.155246-2.9661459 0-1.5354243.548445-2.8381891 1.645351-3.9083333 1.096906-1.0701442 2.438846-1.6052083 4.025859-1.6052083 1.400305 0 2.485526.337323 3.255694 1.0119791.770168.6746562 1.155247 1.6633616 1.155247 2.9661459zm22.334764 44.2479166c-1.260268.9305602-2.788919 1.6866291-4.585978 2.2682292s-3.559084.8723955-5.286128.8723955c-6.254699 0-9.427992-2.6197973-9.519972-7.8594699l-.002059-.2363631c0-1.2157319.32785-3.4990083.98356-6.8498944l2.937276-14.9251056h-6.091299l.980209-5.025 6.511389-.9770833 3.150672-9.9104167h6.511389l-1.890403 9.7708333h10.082151l-1.190254 6.1416667H562.86053l-2.730582 13.9583333-.294141 1.4932524c-.504058 2.6139357-.756083 4.2564497-.756083 4.927581 0 1.1166722.303395 1.9192684.910194 2.4078125.606799.4885441 1.586998.7328125 2.940627.7328125 1.820398 0 3.710782-.4652732 5.67121-1.3958334l1.750373 4.60625zm26.885736 2.6520834l3.640777-18.634375.198793-1.0738523c.520946-2.8916738.781416-5.0229415.781416-6.3938561 0-2.7451526-1.400285-4.1177083-4.200896-4.1177083-1.540337 0-3.302362.6397505-5.286128 1.9192708-1.983766 1.2795203-3.955834 3.0359264-5.916262 5.2692709l-4.480956 23.03125h-7.981703l6.931479-35.5239584h6.581404L587.295743 256.45c2.007105-2.3729285 4.165877-4.1991255 6.476382-5.4786458 2.310504-1.2795203 4.609305-1.9192709 6.896471-1.9192709 2.987319 0 5.28612.814228 6.896471 2.4427084 1.610352 1.6284803 2.415516 3.9315823 2.415516 6.909375 0 1.9076484-.37341 4.7690781-1.120239 8.584375l-3.640777 18.634375h-7.981703zm44.599515-3.35c-2.053782 1.3958403-4.38759 2.500864-7.001494 3.3151041-2.613904.8142402-5.227769 1.2213542-7.841673 1.2213542-4.15424 0-7.281543-1.1050237-9.382001-3.3151042-2.100459-2.2100805-3.150673-5.4786242-3.150673-9.8057291 0-4.234049.921855-8.223766 2.76559-11.9692709 1.843736-3.7455048 4.422594-6.8163074 7.736651-9.2125 3.314057-2.3961925 6.954797-3.5942708 10.92233-3.5942708 3.033996 0 5.41448.744437 7.141524 2.2333333 1.727043 1.4888964 2.590552 3.5360981 2.590552 6.1416667 0 3.6291848-1.69201 6.7930421-5.076083 9.4916667-3.384072 2.6986246-8.133371 4.6527717-14.248039 5.8625l-4.200896.8375c0 2.5590405.513437 4.4085012 1.540328 5.5484375 1.026891 1.1399362 2.707233 1.7098958 5.041076 1.7098958 3.360733 0 7.04815-1.0701282 11.06236-3.2104167l2.100448 4.7458334zm-7.561614-27.3583334c-1.727043 0-3.407385.546696-5.041075 1.6401042-1.63369 1.0934082-3.068982 2.6520732-4.305919 4.6760417-1.236936 2.0239684-2.088776 4.3154386-2.555545 6.8744791l4.200896-.9770833c3.594119-.8375042 6.441364-2.0588461 8.541823-3.6640625 2.100458-1.6052164 3.150672-3.3383588 3.150672-5.1994792 0-1.0701442-.338402-1.896004-1.015217-2.4776041-.676814-.5816002-1.668682-.8723959-2.975635-.8723959zm20.654407 14.1677084c-2.147136-1.1632003-3.699118-2.4543332-4.655994-3.8734375-.956875-1.4191044-1.435306-3.0824558-1.435306-4.9901042 0-3.3500168 1.283595-6.0486009 3.850822-8.0958333 2.567227-2.0472325 5.951248-3.0708334 10.152166-3.0708334 1.820397 0 3.640767.1977411 5.461165.5932292 1.820397.3954881 3.384048.942184 4.691 1.6401042l-1.120239 5.7927083c-1.166921-.5583361-2.567206-1.0119774-4.200896-1.3609375s-3.220679-.5234375-4.761015-.5234375c-2.147136 0-3.769132.3722185-4.866039 1.1166667-1.096906.7444481-1.645351 1.83784-1.645351 3.2802083 0 .8840322.268388 1.6168374.805172 2.1984375.483106.5234401 1.429349 1.1881999 2.838754 1.9942958l4.197747 2.3676834c2.38052 1.3493123 4.037524 2.6753407 4.971061 3.978125.933537 1.3027843 1.400299 2.9312402 1.400299 4.8854166 0 3.5826568-1.295264 6.4208229-3.885829 8.5145834-2.590566 2.0937604-6.126285 3.1406253-10.607263 3.1406253-2.100459 0-4.235893-.244269-6.406367-.7328128-2.170474-.4885441-4.049189-1.1282947-5.636202-1.9192709l1.120239-5.7927083c1.63369.6979202 3.477398 1.2562479 5.53118 1.675 2.053781.4187521 3.874151.628125 5.461165.628125 2.193812 0 3.862485-.3838503 5.006068-1.1515625 1.143583-.7677122 1.715366-1.8959995 1.715366-3.3848958 0-.9305602-.291726-1.7331564-.875187-2.4078125-.583461-.6746562-1.622005-1.430725-3.115665-2.2682292l-3.990851-2.2333333zm28.005974 0c-2.147135-1.1632003-3.699117-2.4543332-4.655993-3.8734375-.956875-1.4191044-1.435306-3.0824558-1.435306-4.9901042 0-3.3500168 1.283594-6.0486009 3.850821-8.0958333 2.567228-2.0472325 5.951249-3.0708334 10.152166-3.0708334 1.820398 0 3.640768.1977411 5.461165.5932292 1.820398.3954881 3.384049.942184 4.691001 1.6401042l-1.120239 5.7927083c-1.166921-.5583361-2.567206-1.0119774-4.200896-1.3609375s-3.22068-.5234375-4.761016-.5234375c-2.147135 0-3.769132.3722185-4.866038 1.1166667-1.096906.7444481-1.645351 1.83784-1.645351 3.2802083 0 .8840322.268388 1.6168374.805172 2.1984375.483105.5234401 1.429348 1.1881999 2.838753 1.9942958l4.197748 2.3676834c2.38052 1.3493123 4.037523 2.6753407 4.97106 3.978125.933538 1.3027843 1.400299 2.9312402 1.400299 4.8854166 0 3.5826568-1.295263 6.4208229-3.885829 8.5145834-2.590565 2.0937604-6.126284 3.1406253-10.607263 3.1406253-2.100458 0-4.235893-.244269-6.406366-.7328128-2.170474-.4885441-4.04919-1.1282947-5.636203-1.9192709L673.20407 278.225c1.63369.6979202 3.477398 1.2562479 5.53118 1.675 2.053782.4187521 3.874152.628125 5.461165.628125 2.193813 0 3.862485-.3838503 5.006068-1.1515625 1.143583-.7677122 1.715366-1.8959995 1.715366-3.3848958 0-.9305602-.291726-1.7331564-.875187-2.4078125-.58346-.6746562-1.622005-1.430725-3.115664-2.2682292l-3.990852-2.2333333zM349.32 227.93c-1.82 1.4466739-3.9083216 2.5666627-6.265 3.36-2.3566785.7933373-4.7483212 1.19-7.175 1.19-4.1066872 0-7.2799888-1.1899881-9.52-3.57-2.2400112-2.3800119-3.36-5.7399783-3.36-10.08 0-4.0600203.933324-7.9216483 2.8-11.585 1.866676-3.6633516 4.44498355-6.661655 7.735-8.995 3.2900164-2.333345 6.8716473-3.5 10.745-3.5 1.4933408 0 2.9866592.1633317 4.48.49 1.4933408.3266683 2.8233275.7933303 3.99 1.4l-1.12 5.88c-2.3800119-.8400042-4.6199895-1.26-6.72-1.26-2.5200126 0-4.8066564.6883265-6.86 2.065-2.0533436 1.3766736-3.6983272 3.3483205-4.935 5.915-1.23667285 2.5666795-1.855 5.5066501-1.855 8.82 0 2.7533471.50166165 4.7599937 1.505 6.02 1.0033383 1.2600063 2.6249888 1.89 4.865 1.89 1.3533401 0 2.7766592-.233331 4.27-.7 1.4933408-.466669 3.2433233-1.2366613 5.25-2.31l2.17 4.97zm16.59 4.55c-4.2933548 0-7.6416547-1.3183201-10.045-3.955-2.4033454-2.6366798-3.605-6.3116431-3.605-11.025 0-4.0600203.8516581-7.8049828 2.555-11.235 1.7033418-3.4300171 4.1183177-6.206656 7.245-8.33 3.1266823-2.12334395 6.6266473-3.185 10.5-3.185 4.2933548 0 7.6416546 1.3183202 10.045 3.955 2.4033453 2.6366799 3.605 6.3116431 3.605 11.025 0 4.0600203-.8516582 7.8049829-2.555 11.235-1.7033419 3.4300172-4.1183177 6.2066561-7.245 8.33-3.1266823 2.123344-6.6266473 3.185-10.5 3.185zm.84-6.37c2.0066767 0 3.8733247-.6766599 5.6-2.03 1.7266753-1.3533401 3.1149947-3.2666543 4.165-5.74 1.0500052-2.4733457 1.575-5.2499846 1.575-8.33 0-2.8933478-.5366613-5.0983257-1.61-6.615-1.0733387-1.5166742-2.6599895-2.275-4.76-2.275-2.0066767 0-3.8733247.6766599-5.6 2.03-1.7266753 1.3533401-3.1149948 3.2666543-4.165 5.74-1.0500053 2.4733457-1.575 5.2499846-1.575 8.33 0 2.8933478.5366613 5.0983258 1.61 6.615 1.0733387 1.5166743 2.6599895 2.275 4.76 2.275zm44.38 5.32l3.64-18.69c.6533366-3.4533506.98-5.9499923.98-7.49 0-2.7533471-1.399986-4.13-4.2-4.13-1.5400077 0-3.3016568.6416603-5.285 1.925-1.9833433 1.2833398-3.9549902 3.0449888-5.915 5.285l-4.48 23.1h-7.98l6.93-35.63h6.58l-.21 6.37c2.0066767-2.3800119 4.1649884-4.2116602 6.475-5.495 2.3100115-1.28333975 4.6083219-1.925 6.895-1.925 2.9866816 0 5.2849919.8166585 6.895 2.45 1.610008 1.6333415 2.415 3.9433184 2.415 6.93 0 1.9133429-.37333 4.7833142-1.12 8.61l-3.64 18.69h-7.98zm38.92 0l3.64-18.69c.653337-3.4533506.98-5.9499923.98-7.49 0-2.7533471-1.399986-4.13-4.2-4.13-1.540008 0-3.301657.6416603-5.285 1.925-1.983343 1.2833398-3.95499 3.0449888-5.915 5.285l-4.48 23.1h-7.98l6.93-35.63h6.58l-.21 6.37c2.006677-2.3800119 4.164988-4.2116602 6.475-5.495 2.310012-1.28333975 4.608322-1.925 6.895-1.925 2.986682 0 5.284992.8166585 6.895 2.45 1.610008 1.6333415 2.415 3.9433184 2.415 6.93 0 1.9133429-.37333 4.7833142-1.12 8.61l-3.64 18.69h-7.98zm43.47-3.36c-2.053344 1.400007-4.386654 2.5083293-7 3.325-2.613346.8166708-5.226654 1.225-7.84 1.225-4.153354 0-7.27999-1.1083222-9.38-3.325-2.100011-2.2166777-3.15-5.4949783-3.15-9.835 0-4.2466879.921657-8.2483145 2.765-12.005 1.843343-3.7566854 4.42165-6.8366546 7.735-9.24 3.31335-2.40334535 6.953313-3.605 10.92-3.605 3.033348 0 5.413325.7466592 7.14 2.24 1.726675 1.4933408 2.59 3.5466536 2.59 6.16 0 3.6400182-1.69165 6.8133198-5.075 9.52-3.38335 2.7066802-8.131636 4.6666606-14.245 5.88l-4.2.84c0 2.5666795.513328 4.421661 1.54 5.565 1.026672 1.1433391 2.706655 1.715 5.04 1.715 3.360017 0 7.046647-1.0733226 11.06-3.22l2.1 4.76zm-7.56-27.44c-1.726675 0-3.406659.5483279-5.04 1.645-1.633342 1.0966722-3.068327 2.6599899-4.305 4.69-1.236673 2.0300102-2.088331 4.3283205-2.555 6.895l4.2-.98c3.593351-.8400042 6.439989-2.0649919 8.54-3.675 2.10001-1.610008 3.15-3.348324 3.15-5.215 0-1.0733387-.33833-1.9016637-1.015-2.485-.67667-.5833362-1.668327-.875-2.975-.875zm38.43 27.3c-1.82 1.4466739-3.908322 2.5666627-6.265 3.36-2.356678.7933373-4.748321 1.19-7.175 1.19-4.106687 0-7.279989-1.1899881-9.52-3.57-2.240011-2.3800119-3.36-5.7399783-3.36-10.08 0-4.0600203.933324-7.9216483 2.8-11.585 1.866676-3.6633516 4.444984-6.661655 7.735-8.995 3.290016-2.333345 6.871647-3.5 10.745-3.5 1.493341 0 2.986659.1633317 4.48.49 1.493341.3266683 2.823327.7933303 3.99 1.4l-1.12 5.88c-2.380012-.8400042-4.61999-1.26-6.72-1.26-2.520013 0-4.806656.6883265-6.86 2.065-2.053344 1.3766736-3.698327 3.3483205-4.935 5.915-1.236673 2.5666795-1.855 5.5066501-1.855 8.82 0 2.7533471.501662 4.7599937 1.505 6.02 1.003338 1.2600063 2.624989 1.89 4.865 1.89 1.35334 0 2.776659-.233331 4.27-.7 1.493341-.466669 3.243323-1.2366613 5.25-2.31l2.17 4.97zm25.48.84c-1.26.933338-2.788324 1.6916638-4.585 2.275-1.796676.5833363-3.558325.875-5.285.875-6.346698 0-9.52-2.7066396-9.52-8.12l.00437-.2581486c.040791-1.2713171.367115-3.4753637.97898-6.6121932L534.4 201.96h-6.09l.98-5.04 6.51-.98 3.15-9.94h6.51l-1.89 9.8h10.08l-1.19 6.16h-10.08l-3.024078 15.4977098C538.851972 220.0794484 538.6 221.7268653 538.6 222.4c0 1.1200056.30333 1.9249976.91 2.415.60667.4900025 1.58666.735 2.94.735 1.820009 0 3.70999-.466662 5.67-1.4l1.75 4.62z"/>
      <path fill="#FFF" d="M570.325581 216.7152034L567.813953 230h-6.906976l2.511628-13.2847966H551l1.255814-6.4304068h12.418605L567.186047 197h6.906976l-2.511628 13.2847966H584l-1.255814 6.4304068z"/>
    </g>
    <g fill-rule="nonzero" transform="translate(512 333)">
      <path fill="#FFF" d="M103 92.5c0-2.4852814 2.014719-4.5 4.5-4.5s4.5 2.0147186 4.5 4.5-2.014719 4.5-4.5 4.5c-2.484131-.0027755-4.497225-2.0158692-4.5-4.5zm.75 0c0 2.0710678 1.678932 3.75 3.75 3.75s3.75-1.6789322 3.75-3.75-1.678932-3.75-3.75-3.75c-2.070087.0023662-3.747634 1.6799131-3.75 3.75zM61.7563617 174L55 166.75636 62.2436383 160 69 167.24364 61.7563617 174zm-5.6794374-7.206156l5.716922 6.129231 6.1292294-5.716919-5.716922-6.129231-6.1292294 5.716919zM5.79116043 69L0 62.7911704 6.20883957 57 12 63.2088296 5.79116043 69zm-4.8680866-6.1767081l4.90021608 5.2536259 5.25362419-4.9002137-4.90021609-5.2536421-5.25362419 4.9002299zM84 77c-21.5391052 0-39-17.2370371-39-38.5S62.4608948 0 84 0c21.539105 0 39 17.2370371 39 38.5-.024355 21.2529959-17.470991 38.475957-39 38.5zM84 .77C62.8916769.77 45.78 17.6622964 45.78 38.5c0 20.8377036 17.1116769 37.73 38.22 37.73 21.108323 0 38.22-16.8922964 38.22-37.73C122.196205 17.6720338 105.098459.79348944 84 .77z"/>
      <path fill="#FFF" d="M50.01750931 89.56030096l10.04475842-20.90034982.70096909.33674163L50.7184784 89.8970426zM57.374004 118.06073031l.3701755-.6838523 44.24500488 23.93989297-.3701755.6838523z"/>
      <path fill="#FFF" d="M58 146H1V89h57v57zm-56.21917808-.780822H57.2191781V89.7808219H1.78082192v55.4383561zM142 174H83l29.499809-51L142 174zm-57.6467337-.779902h56.2930847l-28.146542-48.660485-28.1465427 48.660485z"/>
      <circle cx="216" cy="80" r="10" fill="#A0616A"/>
      <path fill="#A0616A" d="M220.668164 85.0423222s1.185352 11.426985 3.160938 13.3314825C225.804688 100.278302 210 97.2311062 210 97.2311062s2.370703-9.5224875.790234-11.0460855c-1.580468-1.523598 9.87793-1.1426985 9.87793-1.1426985zM228.025916 105s4.538873 13.132275 5.673592 21.243386c1.134718 8.111111 1.134718 11.587302 1.134718 11.587302s4.917113 15.449735 3.404155 22.78836c0 0 5.673592 17.380952.756479 17.380952-4.917113 0-6.430071-14.291005-6.430071-14.291005L225 127.015873 228.025916 105z"/>
      <path fill="#2F2E41" d="M229.831131 110.908025s-1.165199-14.3724769-6.214391-15.5378129c-2.4105-.5563353-6.325861-1.3782662-9.75986-2.0854037-5.982151-1.231865-12.152629 1.6066565-14.871945 7.0761726-.509833.991643-.848773 2.062187-1.002556 3.166583-.776799 6.215125-4.660793 6.215125-1.165198 14.372477 3.495594 8.157352 2.718796 16.703149 2.718796 16.703149l2.330396 20.587602s-9.709985 27.191173-8.933187 45.448104L184 245.310108s1.941997 4.661344 7.379589 2.330672c0 0 13.593979-22.918274 12.428781-39.621423l13.982379-31.075626s9.709985 29.521845 12.428781 32.240962l6.99119 41.952095s6.60279 1.942227 9.709985 0c0 0 1.165198-40.398314-5.437592-47.001884 0 0-6.60279-27.968064-5.049192-35.348525 1.553597-7.380461 1.941997-18.645376-9.709986-28.744954 0 0 1.553598-4.272899-3.495594-6.603571l3.883994-12.43025 2.718796-10.099579z"/>
      <path fill="#A0616A" d="M206.355055 94.0616375c-.105279-.0151562-.212751-.0277073-.322415-.0376533-3.452519-.3106426-6.425095 2.4368158-6.579013 5.8883818l-.616264 13.819609-2.33953 15.15614-5.068983 32.643993s-9.748043 11.658569-3.119374 12.435807c6.62867.777238 7.798435-12.824426 7.798435-12.824426l8.578279-25.648852 3.509295-23.705757s4.093188-4.079512 2.389624-13.5103886c-.356075-2.1646373-2.058239-3.86149-4.230054-4.2168539z"/>
      <path fill="#2F2E41" d="M184.35164 244l-2.661616 14.275862s-6.463926 3.172414-2.281386 7.137931c4.18254 3.965517 9.886004-.793103 9.886004-.793103l1.520924-4.758621L190.435335 267h1.140693l1.140693-7.137931s2.281385-4.362069.760461-7.931035v-4.75862L184.35164 244zM237.210947 245l-1.520923 12.6s-6.463926 3.054545-2.281386 6.872727c4.18254 3.818182 9.886004-.763636 9.886004-.763636l1.520924-4.581818L244.435335 266h1.140693l1.140693-6.872727s2.281385-4.2.760461-7.636364v-4.581818L237.210947 245zM220.810492 65.5406568h-.000082c-.544601.0010394-1.087808.0539091-1.621954.1578628-.96505-.4585513-2.02362-.6973572-3.096372-.6985196h-.281088C210.392483 65 206 69.7991809 206 75.7192237v.000019h1.81556l.293241-2.1845093.429853 2.1845093h1.512535c-.470503 1.7528358-.706651 3.5580186-.702529 5.3703381V92h2.74503l1.589263-4.0424127L213.285621 92h17.644232l1.44479-3.6749127L232.013432 92H234v-8.5666405c0-9.8818495-5.905181-17.8927027-13.189508-17.8927027z"/>
      <path fill="#3F3D56" d="M275 136h1v130h-1z"/>
      <ellipse cx="276" cy="222.5" fill="#3F3D56" rx="14" ry="32.5"/>
      <ellipse cx="276" cy="148.5" fill="#3F3D56" rx="14" ry="32.5"/>
      <path fill="#3F3D56" d="M275.644156 122l-.69742-.207576c.044078-.146164 4.323816-14.711758-2.703472-24.0884347C268.2742 92.4082714 261.463411 89.7229921 252 89.7229921V89c9.707613 0 16.715504 2.7841233 20.82924 8.2750533 7.244836 9.6705817 2.860058 24.5756197 2.814916 24.7249467z"/>
      <circle cx="253" cy="90" r="9" fill="#F2F2F2"/>
    </g>
  </g>
</svg>