<svg xmlns="http://www.w3.org/2000/svg" viewBox="0 0 1024 600">
  <defs/>
  <g fill="none" fill-rule="evenodd">
    <path fill="#49640B" d="M0 0h1024v600H0z"/>
    <g fill-rule="nonzero" transform="translate(437 293)">
      <path fill="#FFF" d="M119 107c0-2.761424 2.238576-5 5-5s5 2.238576 5 5-2.238576 5-5 5c-2.760145-.003084-4.996916-2.239855-5-5zm.833333 0c0 2.301186 1.865481 4.166667 4.166667 4.166667 2.301186 0 4.166667-1.865481 4.166667-4.166667 0-2.301186-1.865481-4.166667-4.166667-4.166667-2.300097.002629-4.164038 1.86657-4.166667 4.166667zM70.7215563 200L63 191.721554 71.2784437 184 79 192.278446 70.7215563 200zm-6.4907857-8.235606l6.5336252 7.004835 7.0048336-6.533623-6.5336252-7.004835-7.0048336 6.533623zM6.75635384 79L0 71.7563655 7.24364616 65 14 72.2436345 6.75635384 79zm-5.67943438-7.2061595l5.71691877 6.1292303 6.12922817-5.716916-5.71691872-6.1292491-6.12922822 5.7169348zM96 88c-24.8528137 0-45-19.699471-45-44S71.1471863 0 96 0c24.852814 0 45 19.699471 45 44-.028102 24.2891382-20.158836 43.9725222-45 44zM96 .88C71.6442425.88 51.9 20.1854816 51.9 44c0 23.8145184 19.7442425 43.12 44.1 43.12 24.355757 0 44.1-19.3054816 44.1-43.12C140.072545 20.1966101 120.344376.90684508 96 .88z"/>
      <path fill="#FFF" d="M57.68148304 102.97757468l11.58387471-24.0314883.80837558.38718979-11.58387458 24.03148825zM66.16518223 135.74773123l.42689626-.78630194 51.02448207 27.52639413-.42689622.78630185z"/>
      <path fill="#FFF" d="M67 167H1v-65h66v65zm-65.09589041-.890411H66.0958904v-63.219178H1.90410959v63.219178zM164 200H96l33.999779-59L164 200zm-66.4403032-.90224h64.8801652l-32.440083-56.293502-32.4400822 56.293502z"/>
      <circle cx="249.5" cy="91.5" r="11.5" fill="#A0616A"/>
      <path fill="#A0616A" d="M254.192188 98.0483682s1.354687 13.0594118 3.6125 15.2359798C260.0625 115.460917 242 111.978407 242 111.978407s2.709375-10.882843.903125-12.6240977c-1.80625-1.7412548 11.289063-1.3059411 11.289063-1.3059411zM262.593275 121s5.389912 15.111111 6.73739 24.444444c1.347479 9.333334 1.347479 13.333334 1.347479 13.333334S276.517215 176.555556 274.720578 185c0 0 6.73739 20 .898319 20-5.839072 0-7.63571-16.444444-7.63571-16.444444L259 146.333333 262.593275 121z"/>
      <path fill="#2F2E41" d="M265.105913 127.611123s-1.35015-16.541907-7.200801-17.883143c-2.793119-.64031-7.329967-1.586306-11.309044-2.400182-6.931699-1.417807-14.081618 1.849171-17.232572 8.144274-.590759 1.141325-.983499 2.37346-1.161692 3.644558-.9001 7.153258-5.400601 7.153258-1.35015 16.541908 4.050451 9.38865 3.150351 19.224379 3.150351 19.224379l2.7003 23.695165s-11.251253 31.295501-10.351152 52.308194L212 282.300313s2.250251 5.364943 8.550952 2.682472c0 0 15.751754-26.377637 14.401604-45.602016l16.201804-35.766286s11.251253 33.977972 14.401603 37.107522l8.100902 48.284487s7.650852 2.235393 11.251253 0c0 0 1.350151-46.496173-6.300701-54.096509 0 0-7.650852-32.189658-5.850652-40.684151 1.800201-8.494493 2.250251-21.459772-11.251253-33.083815 0 0 1.800201-4.917864-4.050451-7.600336l4.500502-14.306515 3.15035-11.624043z"/>
      <path fill="#A0616A" d="M237.611863 108.070883c-.122123-.017429-.24679-.031863-.374001-.043301-4.004922-.357239-7.45311 2.802338-7.631655 6.771639l-.714865 15.89255-2.713856 17.429561-5.88002 37.540592s-11.30773 13.407355-3.618473 14.301178c7.689256.893824 9.046184-14.74809 9.046184-14.74809l9.950803-29.496179 4.070783-27.261621s4.748098-4.691439 2.771963-15.536947c-.413046-2.489333-2.387557-4.440713-4.906863-4.849382z"/>
      <path fill="#2F2E41" d="M212.542573 281l-3.16067 16.137931s-7.675912 3.586207-2.709145 8.068966c4.966766 4.482758 11.73963-.896552 11.73963-.896552l1.806097-5.379311L219.76696 307h1.354573l1.354573-8.068966s2.709145-4.931034.903048-8.965517v-5.37931L212.542573 281zM273.188 282l-1.806097 14.4s-7.675912 3.490909-2.709145 7.854545c4.966766 4.363637 11.73963-.872727 11.73963-.872727l1.806097-5.236363L281.76696 306h1.354573l1.354573-7.854545s2.709145-4.8.903048-8.727273v-5.236364L273.188 282zM254.455222 75.6207541h-.000096c-.641851.0011934-1.28206.0618957-1.911589.1812498-1.13738-.5264847-2.38498-.8006693-3.649295-.8020039h-.331283C242.176855 75 237 80.5101706 237 87.3072568v.0000218h2.139767l.345606-2.5081402.506612 2.5081402h1.78263c-.554521 2.0125153-.832838 4.0851326-.82798 6.1659438V106h3.235214l1.87306-4.641289L245.586625 106h20.794987l1.702789-4.219344L267.658688 106H270v-9.8357724c0-11.3458272-6.959677-20.5434735-15.544778-20.5434735z"/>
    </g>
    <g fill-rule="nonzero">
      <path fill="#BACE3F" d="M326 300l9.7320762-49.9010417h6.581404l-.2100448 6.2114584c4.0142098-4.8389131 8.2150639-7.2583334 12.6026886-7.2583334 2.9873189 0 5.2627815 1.0701282 6.8264563 3.2104167 1.5636747 2.1402885 2.3455004 5.2576184 2.3455004 9.3520833 0 4.420161-.886847 8.5261964-2.6605676 12.3182292-1.7737206 3.7920328-4.2708951 6.8628355-7.4915982 9.2124995-3.2207032 2.349665-6.7914293 3.52448-10.7122853 3.52448-2.0071049 0-4.0608558-.418746-6.1613144-1.25625L333.9817028 300H326zm25.5554518-44.596875c-1.4003057 0-2.9989641.6164869-4.7960231 1.8494792-1.797059 1.2329922-3.6290982 2.9661346-5.4961725 5.1994791l-3.360717 17.5177087c1.3536289.325696 2.7539136.488541 4.2008962.488541 2.5205503 0 4.807682-.732805 6.8614638-2.198437 2.0537817-1.4656325 3.6991163-3.5360979 4.936053-6.2114585 1.2369367-2.6753606 1.8553958-5.7345314 1.8553958-9.1776042 0-4.9784971-1.4002847-7.4677083-4.2008962-7.4677083zm15.1232263 30.219792l6.9314787-35.5239587h6.5814041l-.2100448 6.4208334c1.8203974-2.2798725 3.6407676-3.9664876 5.461165-5.0598959 1.8203975-1.0934082 3.757458-1.6401041 5.8112397-1.6401041 1.1669215 0 2.1704589.1163182 3.0106423.3489583l-1.4703137 7.3979167c-1.4936594-.2326401-2.6839014-.3489584-3.5707617-.3489584-1.8203975 0-3.5940915.4652732-5.3211352 1.3958334-1.7270437.9305602-3.3140331 2.2565886-4.7610157 3.978125l-4.4809559 23.0312503h-7.9817028zm38.2281554-41.3864587c-1.4003058 0-2.4855264-.337323-3.2556946-1.0119791-.7701681-.6746562-1.1552464-1.6633616-1.1552464-2.9661459 0-1.5354243.5484448-2.8381891 1.645351-3.9083333 1.0969061-1.0701442 2.4388457-1.6052083 4.0258588-1.6052083 1.4003057 0 2.4855264.337323 3.2556946 1.0119791.7701681.6746562 1.1552464 1.6633616 1.1552464 2.9661459 0 1.5354243-.5484448 2.8381891-1.645351 3.9083333-1.0969061 1.0701442-2.4388457 1.6052083-4.0258588 1.6052083zm-12.3226289 41.3864587l6.9314787-35.5239587h7.9817028l-6.9314787 35.5239587h-7.9817028zm62.0332334 0l3.640777-18.6343753.187687-.9881968c.575025-3.0794309.862537-5.1461947.862537-6.2003449 0-1.4888963-.303395-2.59392-.910194-3.3151042-.606799-.7211841-1.56366-1.0817708-2.870612-1.0817708-3.220704 0-6.79143 2.0704654-10.712286 6.2114583-.233384 1.6750084-.536779 3.4663099-.910194 5.3739584l-3.640777 18.6343753h-7.981702l3.640776-18.6343753.186241-1.0280354c.529315-2.9856965.793968-5.0857086.793968-6.3000896 0-2.8382087-1.190242-4.2572917-3.570761-4.2572917-3.314057 0-6.954798 2.3961566-10.92233 7.1885417l-4.480956 23.0312503h-7.9817031l6.9314791-35.5239587h6.581404L423.250747 256.45c3.967533-4.9319691 8.285077-7.3979167 12.952763-7.3979167 2.38052 0 4.340918.6513824 5.881255 1.9541667 1.540336 1.3027843 2.473859 3.1173495 2.800597 5.44375 4.107564-4.9319691 8.658489-7.3979167 13.652913-7.3979167 2.847288 0 5.029399.8258598 6.546396 2.4776042 1.516998 1.6517444 2.275486 4.0362691 2.275486 7.1536458l-.004663.3294237c-.045073 1.6610114-.416929 4.3195836-1.115576 7.9757847l-3.640777 18.6343753h-7.981703zm44.599515-3.35c-2.053782 1.39584-4.38759 2.500864-7.001494 3.315104-2.613904.81424-5.227769 1.221354-7.841673 1.221354-4.15424 0-7.281542-1.105024-9.382001-3.315104-2.100459-2.210081-3.150672-5.478624-3.150672-9.8057293 0-4.234049.921854-8.223766 2.76559-11.9692709 1.843736-3.7455048 4.422593-6.8163074 7.73665-9.2125 3.314057-2.3961925 6.954797-3.5942708 10.92233-3.5942708 3.033996 0 5.41448.744437 7.141524 2.2333333 1.727044 1.4888964 2.590553 3.5360981 2.590553 6.1416667 0 3.6291848-1.692011 6.7930421-5.076083 9.4916667-3.384073 2.6986246-8.133372 4.6527717-14.24804 5.8625l-4.200896.8375c0 2.5590405.513438 4.4085012 1.540328 5.5484373 1.026891 1.139936 2.707233 1.709896 5.041076 1.709896 3.360734 0 7.04815-1.070128 11.06236-3.2104167l2.100448 4.7458337zm-7.561613-27.3583337c-1.727044 0-3.407386.546696-5.041076 1.6401042-1.63369 1.0934082-3.068981 2.6520732-4.305918 4.6760417-1.236937 2.0239684-2.088777 4.3154386-2.555545 6.8744791l4.200896-.9770833c3.594118-.8375042 6.441363-2.0588461 8.541822-3.6640625 2.100459-1.6052164 3.150672-3.3383588 3.150672-5.1994792 0-1.0701442-.338402-1.896004-1.015216-2.4776041-.676815-.5816002-1.668683-.8723959-2.975635-.8723959zm38.368185 30.7083337l5.741225-29.382292h-15.263256l-5.741225 29.382292h-7.981703l5.741225-29.382292h-6.0913l.98021-5.025 6.301344-.9072917.910194-4.7458333c.793507-4.1409929 2.33382-7.2699547 4.620986-9.3869792C521.528391 234.0584964 524.515665 233 528.203137 233c2.380519 0 4.574299.4420095 6.581404 1.3260417l-1.120239 5.5833333c-1.63369-.3722241-3.127327-.5583333-4.480956-.5583333-1.960428 0-3.430727.4187458-4.410941 1.25625-.980214.8375042-1.657019 2.2100599-2.030433 4.1177083l-1.050224 5.3739583h23.244958l-6.931478 35.5239587h-7.981703zm17.993839-46.9000003c0 1.5354243-.548445 2.8381891-1.645351 3.9083333-1.096906 1.0701442-2.438846 1.6052083-4.025859 1.6052083-1.400306 0-2.485527-.337323-3.255695-1.0119791-.770168-.6746562-1.155246-1.6633616-1.155246-2.9661459 0-1.5354243.548445-2.8381891 1.645351-3.9083333 1.096906-1.0701442 2.438846-1.6052083 4.025859-1.6052083 1.400305 0 2.485526.337323 3.255694 1.0119791.770168.6746562 1.155247 1.6633616 1.155247 2.9661459zm22.334764 44.2479163c-1.260268.930561-2.788919 1.686629-4.585978 2.268229-1.797059.581601-3.559084.872396-5.286128.872396-6.254699 0-9.427992-2.619797-9.519972-7.85947l-.002059-.236363c0-1.2157319.32785-3.4990083.98356-6.8498944l2.937276-14.9251056h-6.091299l.980209-5.025 6.511389-.9770833 3.150672-9.9104167h6.511389l-1.890403 9.7708333h10.082151l-1.190254 6.1416667H562.86053l-2.730582 13.9583333-.294141 1.4932524c-.504058 2.6139357-.756083 4.2564497-.756083 4.927581 0 1.1166722.303395 1.9192683.910194 2.4078123.606799.488544 1.586998.732813 2.940627.732813 1.820398 0 3.710782-.465273 5.67121-1.395834l1.750373 4.60625zm26.885736 2.652084l3.640777-18.6343753.198793-1.0738523c.520946-2.8916738.781416-5.0229415.781416-6.3938561 0-2.7451526-1.400285-4.1177083-4.200896-4.1177083-1.540337 0-3.302362.6397505-5.286128 1.9192708-1.983766 1.2795203-3.955834 3.0359264-5.916262 5.2692709l-4.480956 23.0312503h-7.981703l6.931479-35.5239587h6.581404L587.295743 256.45c2.007105-2.3729285 4.165877-4.1991255 6.476382-5.4786458 2.310504-1.2795203 4.609305-1.9192709 6.896471-1.9192709 2.987319 0 5.28612.814228 6.896471 2.4427084 1.610352 1.6284803 2.415516 3.9315823 2.415516 6.909375 0 1.9076484-.37341 4.7690781-1.120239 8.584375l-3.640777 18.6343753h-7.981703zm44.599515-3.35c-2.053782 1.39584-4.38759 2.500864-7.001494 3.315104-2.613904.81424-5.227769 1.221354-7.841673 1.221354-4.15424 0-7.281543-1.105024-9.382001-3.315104-2.100459-2.210081-3.150673-5.478624-3.150673-9.8057293 0-4.234049.921855-8.223766 2.76559-11.9692709 1.843736-3.7455048 4.422594-6.8163074 7.736651-9.2125 3.314057-2.3961925 6.954797-3.5942708 10.92233-3.5942708 3.033996 0 5.41448.744437 7.141524 2.2333333 1.727043 1.4888964 2.590552 3.5360981 2.590552 6.1416667 0 3.6291848-1.69201 6.7930421-5.076083 9.4916667-3.384072 2.6986246-8.133371 4.6527717-14.248039 5.8625l-4.200896.8375c0 2.5590405.513437 4.4085012 1.540328 5.5484373 1.026891 1.139936 2.707233 1.709896 5.041076 1.709896 3.360733 0 7.04815-1.070128 11.06236-3.2104167l2.100448 4.7458337zm-7.561614-27.3583337c-1.727043 0-3.407385.546696-5.041075 1.6401042-1.63369 1.0934082-3.068982 2.6520732-4.305919 4.6760417-1.236936 2.0239684-2.088776 4.3154386-2.555545 6.8744791l4.200896-.9770833c3.594119-.8375042 6.441364-2.0588461 8.541823-3.6640625 2.100458-1.6052164 3.150672-3.3383588 3.150672-5.1994792 0-1.0701442-.338402-1.896004-1.015217-2.4776041-.676814-.5816002-1.668682-.8723959-2.975635-.8723959zm20.654407 14.1677084c-2.147136-1.1632003-3.699118-2.4543332-4.655994-3.8734375-.956875-1.4191044-1.435306-3.0824558-1.435306-4.9901042 0-3.3500168 1.283595-6.0486009 3.850822-8.0958333 2.567227-2.0472325 5.951248-3.0708334 10.152166-3.0708334 1.820397 0 3.640767.1977411 5.461165.5932292 1.820397.3954881 3.384048.942184 4.691 1.6401042l-1.120239 5.7927083c-1.166921-.5583361-2.567206-1.0119774-4.200896-1.3609375s-3.220679-.5234375-4.761015-.5234375c-2.147136 0-3.769132.3722185-4.866039 1.1166667-1.096906.7444481-1.645351 1.83784-1.645351 3.2802083 0 .8840322.268388 1.6168374.805172 2.1984375.483106.5234401 1.429349 1.1881999 2.838754 1.9942958l4.197747 2.3676834c2.38052 1.3493123 4.037524 2.6753407 4.971061 3.978125.933537 1.3027843 1.400299 2.9312402 1.400299 4.8854166 0 3.5826567-1.295264 6.4208227-3.885829 8.5145837-2.590566 2.09376-6.126285 3.140625-10.607263 3.140625-2.100459 0-4.235893-.244269-6.406367-.732813-2.170474-.488544-4.049189-1.128294-5.636202-1.919271l1.120239-5.792708c1.63369.69792 3.477398 1.256248 5.53118 1.675 2.053781.418752 3.874151.628125 5.461165.628125 2.193812 0 3.862485-.38385 5.006068-1.151563 1.143583-.767712 1.715366-1.895999 1.715366-3.3848953 0-.9305602-.291726-1.7331564-.875187-2.4078125-.583461-.6746562-1.622005-1.430725-3.115665-2.2682292l-3.990851-2.2333333zm28.005974 0c-2.147135-1.1632003-3.699117-2.4543332-4.655993-3.8734375-.956875-1.4191044-1.435306-3.0824558-1.435306-4.9901042 0-3.3500168 1.283594-6.0486009 3.850821-8.0958333 2.567228-2.0472325 5.951249-3.0708334 10.152166-3.0708334 1.820398 0 3.640768.1977411 5.461165.5932292 1.820398.3954881 3.384049.942184 4.691001 1.6401042l-1.120239 5.7927083c-1.166921-.5583361-2.567206-1.0119774-4.200896-1.3609375s-3.22068-.5234375-4.761016-.5234375c-2.147135 0-3.769132.3722185-4.866038 1.1166667-1.096906.7444481-1.645351 1.83784-1.645351 3.2802083 0 .8840322.268388 1.6168374.805172 2.1984375.483105.5234401 1.429348 1.1881999 2.838753 1.9942958l4.197748 2.3676834c2.38052 1.3493123 4.037523 2.6753407 4.97106 3.978125.933538 1.3027843 1.400299 2.9312402 1.400299 4.8854166 0 3.5826567-1.295263 6.4208227-3.885829 8.5145837-2.590565 2.09376-6.126284 3.140625-10.607263 3.140625-2.100458 0-4.235893-.244269-6.406366-.732813-2.170474-.488544-4.04919-1.128294-5.636203-1.919271l1.120239-5.792708c1.63369.69792 3.477398 1.256248 5.53118 1.675s3.874152.628125 5.461165.628125c2.193813 0 3.862485-.38385 5.006068-1.151563 1.143583-.767712 1.715366-1.895999 1.715366-3.3848953 0-.9305602-.291726-1.7331564-.875187-2.4078125-.58346-.6746562-1.622005-1.430725-3.115664-2.2682292l-3.990852-2.2333333zM341.32 219.93c-1.82 1.4466739-3.9083215 2.5666627-6.265 3.36-2.3566784.7933373-4.7483212 1.19-7.175 1.19-4.1066872 0-7.2799888-1.1899881-9.52-3.57-2.2400112-2.3800119-3.36-5.7399783-3.36-10.08 0-4.0600203.933324-7.9216483 2.8-11.585 1.866676-3.6633516 4.44498355-6.661655 7.735-8.995 3.2900165-2.333345 6.8716473-3.5 10.745-3.5 1.4933408 0 2.9866592.1633317 4.48.49 1.4933408.3266683 2.8233275.7933303 3.99 1.4l-1.12 5.88c-2.3800119-.8400042-4.6199895-1.26-6.72-1.26-2.5200126 0-4.8066564.6883265-6.86 2.065-2.0533436 1.3766736-3.6983271 3.3483205-4.935 5.915-1.23667285 2.5666795-1.855 5.5066501-1.855 8.82 0 2.7533471.50166165 4.7599937 1.505 6.02 1.0033384 1.2600063 2.6249888 1.89 4.865 1.89 1.3533401 0 2.7766592-.233331 4.27-.7 1.4933408-.466669 3.2433233-1.2366613 5.25-2.31l2.17 4.97zm16.59 4.55c-4.2933548 0-7.6416546-1.3183201-10.045-3.955-2.4033453-2.6366798-3.605-6.3116431-3.605-11.025 0-4.0600203.8516581-7.8049828 2.555-11.235 1.7033418-3.4300171 4.1183177-6.206656 7.245-8.33 3.1266823-2.12334395 6.6266473-3.185 10.5-3.185 4.2933548 0 7.6416546 1.3183202 10.045 3.955 2.4033454 2.6366799 3.605 6.3116431 3.605 11.025 0 4.0600203-.8516581 7.8049829-2.555 11.235-1.7033418 3.4300172-4.1183177 6.2066561-7.245 8.33-3.1266823 2.123344-6.6266473 3.185-10.5 3.185zm.84-6.37c2.0066767 0 3.8733247-.6766599 5.6-2.03 1.7266753-1.3533401 3.1149948-3.2666543 4.165-5.74 1.0500053-2.4733457 1.575-5.2499846 1.575-8.33 0-2.8933478-.5366613-5.0983257-1.61-6.615-1.0733387-1.5166742-2.6599895-2.275-4.76-2.275-2.0066767 0-3.8733247.6766599-5.6 2.03-1.7266753 1.3533401-3.1149948 3.2666543-4.165 5.74-1.0500052 2.4733457-1.575 5.2499846-1.575 8.33 0 2.8933478.5366613 5.0983258 1.61 6.615 1.0733387 1.5166743 2.6599895 2.275 4.76 2.275zm44.38 5.32l3.64-18.69c.6533366-3.4533506.98-5.9499923.98-7.49 0-2.7533471-1.399986-4.13-4.2-4.13-1.5400077 0-3.3016567.6416603-5.285 1.925-1.9833432 1.2833398-3.9549902 3.0449888-5.915 5.285l-4.48 23.1h-7.98l6.93-35.63h6.58l-.21 6.37c2.0066767-2.3800119 4.1649884-4.2116602 6.475-5.495 2.3100116-1.28333975 4.6083219-1.925 6.895-1.925 2.9866816 0 5.284992.8166585 6.895 2.45 1.610008 1.6333415 2.415 3.9433184 2.415 6.93 0 1.9133429-.37333 4.7833142-1.12 8.61l-3.64 18.69h-7.98zm38.92 0l3.64-18.69c.653337-3.4533506.98-5.9499923.98-7.49 0-2.7533471-1.399986-4.13-4.2-4.13-1.540008 0-3.301657.6416603-5.285 1.925-1.983343 1.2833398-3.95499 3.0449888-5.915 5.285l-4.48 23.1h-7.98l6.93-35.63h6.58l-.21 6.37c2.006677-2.3800119 4.164988-4.2116602 6.475-5.495 2.310012-1.28333975 4.608322-1.925 6.895-1.925 2.986682 0 5.284992.8166585 6.895 2.45 1.610008 1.6333415 2.415 3.9433184 2.415 6.93 0 1.9133429-.37333 4.7833142-1.12 8.61l-3.64 18.69h-7.98zm43.47-3.36c-2.053344 1.400007-4.386654 2.5083293-7 3.325-2.613346.8166708-5.226654 1.225-7.84 1.225-4.153354 0-7.27999-1.1083222-9.38-3.325-2.100011-2.2166777-3.15-5.4949783-3.15-9.835 0-4.2466879.921657-8.2483145 2.765-12.005 1.843343-3.7566854 4.42165-6.8366546 7.735-9.24 3.31335-2.40334535 6.953313-3.605 10.92-3.605 3.033348 0 5.413325.7466592 7.14 2.24 1.726675 1.4933408 2.59 3.5466536 2.59 6.16 0 3.6400182-1.69165 6.8133198-5.075 9.52-3.38335 2.7066802-8.131636 4.6666606-14.245 5.88l-4.2.84c0 2.5666795.513328 4.421661 1.54 5.565 1.026672 1.1433391 2.706655 1.715 5.04 1.715 3.360017 0 7.046647-1.0733226 11.06-3.22l2.1 4.76zm-7.56-27.44c-1.726675 0-3.406658.5483279-5.04 1.645-1.633341 1.0966722-3.068327 2.6599899-4.305 4.69-1.236673 2.0300102-2.088331 4.3283205-2.555 6.895l4.2-.98c3.593351-.8400042 6.43999-2.0649919 8.54-3.675 2.100011-1.610008 3.15-3.348324 3.15-5.215 0-1.0733387-.33833-1.9016637-1.015-2.485-.67667-.5833362-1.668327-.875-2.975-.875zm38.43 27.3c-1.82 1.4466739-3.908322 2.5666627-6.265 3.36-2.356678.7933373-4.748321 1.19-7.175 1.19-4.106687 0-7.279989-1.1899881-9.52-3.57-2.240011-2.3800119-3.36-5.7399783-3.36-10.08 0-4.0600203.933324-7.9216483 2.8-11.585 1.866676-3.6633516 4.444984-6.661655 7.735-8.995 3.290016-2.333345 6.871647-3.5 10.745-3.5 1.493341 0 2.986659.1633317 4.48.49 1.493341.3266683 2.823328.7933303 3.99 1.4l-1.12 5.88c-2.380012-.8400042-4.619989-1.26-6.72-1.26-2.520013 0-4.806656.6883265-6.86 2.065-2.053344 1.3766736-3.698327 3.3483205-4.935 5.915-1.236673 2.5666795-1.855 5.5066501-1.855 8.82 0 2.7533471.501662 4.7599937 1.505 6.02 1.003338 1.2600063 2.624989 1.89 4.865 1.89 1.35334 0 2.776659-.233331 4.27-.7 1.493341-.466669 3.243323-1.2366613 5.25-2.31l2.17 4.97zm25.48.84c-1.26.933338-2.788324 1.6916638-4.585 2.275-1.796676.5833363-3.558325.875-5.285.875-6.346698 0-9.52-2.7066396-9.52-8.12l.00437-.2581486c.040791-1.2713171.367115-3.4753637.97898-6.6121932L526.4 193.96h-6.09l.98-5.04 6.51-.98 3.15-9.94h6.51l-1.89 9.8h10.08l-1.19 6.16h-10.08l-3.024078 15.4977098C530.851972 212.0794484 530.6 213.7268653 530.6 214.4c0 1.1200056.30333 1.9249976.91 2.415.60667.4900025 1.58666.735 2.94.735 1.820009 0 3.70999-.466662 5.67-1.4l1.75 4.62z"/>
      <path fill="#FFF" d="M573.325581 204.7152034L570.813953 218h-6.906976l2.511628-13.2847966H554l1.255814-6.4304068h12.418605L570.186047 185h6.906976l-2.511628 13.2847966H587l-1.255814 6.4304068z"/>
    </g>
  </g>
</svg>