<?xml version="1.0" encoding="UTF-8"?>
<svg width="1200px" height="600px" viewBox="0 0 1200 600" version="1.1" xmlns="http://www.w3.org/2000/svg" xmlns:xlink="http://www.w3.org/1999/xlink">
    <title>redesign_hero</title>
    <g id="redesign_hero" stroke="none" stroke-width="1" fill="none" fill-rule="evenodd">
        <rect id="Rectangle" stroke="#979797" fill="#000000" x="0" y="0" width="1200" height="600"></rect>
        <text id="Traditional-into-a-S" font-family="Lato-Bold, Lato" font-size="56" font-weight="bold" fill="#FFFFFF">
            <tspan x="80" y="302">Traditional into </tspan>
            <tspan x="80" y="369">a SaaS business</tspan>
        </text>
        <text id="REDESIGN" font-family="Lato-Bold, Lato" font-size="16" font-weight="bold" letter-spacing="0.2" fill="#BFBFBF">
            <tspan x="80" y="236">REDESIGN</tspan>
        </text>
        <g id="Group-2" transform="translate(729.000000, 79.000000)">
            <rect id="Rectangle" stroke="#FFFFFF" stroke-width="2" x="0" y="7" width="579" height="464" rx="4"></rect>
            <rect id="Rectangle" fill="#000000" x="17" y="0" width="65" height="12" rx="6"></rect>
            <circle id="Oval" stroke="#000000" stroke-width="6" fill="#FFFFFF" cx="29" cy="6" r="6"></circle>
            <circle id="Oval-Copy" stroke="#000000" stroke-width="6" fill="#FFFFFF" cx="50" cy="6" r="6"></circle>
            <circle id="Oval-Copy-4" stroke="#000000" stroke-width="6" fill="#FFFFFF" cx="70" cy="6" r="6"></circle>
            <rect id="Rectangle" stroke="#FFFFFF" x="297" y="69" width="333" height="379" rx="4"></rect>
            <rect id="Rectangle" stroke="#FFFFFF" fill="#FFFFFF" x="21" y="69" width="128" height="115" rx="4"></rect>
            <rect id="Rectangle-Copy" stroke="#FFFFFF" x="21" y="201" width="128" height="115" rx="4"></rect>
            <rect id="Rectangle-Copy-5" stroke="#FFFFFF" x="166" y="69" width="114" height="190" rx="4"></rect>
            <path d="M170,276 L276,276 C278.209139,276 280,277.790861 280,280 L280,471 L280,471 L166,471 L166,280 C166,277.790861 167.790861,276 170,276 Z" id="Rectangle-Copy-7" stroke="#FFFFFF"></path>
            <rect id="Rectangle-Copy-4" fill="#FFFFFF" x="21" y="333" width="128" height="115" rx="4"></rect>
            <polygon id="Path" stroke="#000000" fill="#FFFFFF" fill-rule="nonzero" points="170 187.456183 144 172 151.592977 201 156.169906 190.434574 163.803727 200.535343 166.067765 198.86953 158.433944 188.768761"></polygon>
            <polygon id="Path" stroke="#FFFFFF" fill="#000000" fill-rule="nonzero" points="35 402.456183 61 387 53.4070229 416 48.8300939 405.434574 41.1962729 415.535343 38.9322347 413.86953 46.5660558 403.768761"></polygon>
            <rect id="Rectangle" stroke="#FFFFFF" x="21" y="27" width="515" height="25" rx="4"></rect>
        </g>
    </g>
</svg>