<?xml version="1.0" encoding="UTF-8"?>
<svg width="1200px" height="600px" viewBox="0 0 1200 600" version="1.1" xmlns="http://www.w3.org/2000/svg" xmlns:xlink="http://www.w3.org/1999/xlink">
    <title>redesign_hero</title>
    <defs>
        <filter x="0.0%" y="0.0%" width="100.0%" height="100.0%" filterUnits="objectBoundingBox" id="filter-1">
            <feGaussianBlur stdDeviation="0" in="SourceGraphic"></feGaussianBlur>
        </filter>
    </defs>
    <g id="redesign_hero" stroke="none" stroke-width="1" fill="none" fill-rule="evenodd">
        <rect fill="#E2E6E7" x="0" y="0" width="1200" height="600"></rect>
        <path d="M448.2,299 C453.533333,299 458.466667,297.2 463,293.6 L457.2,284.8 C456.266667,285.466667 455.266667,286.05 454.2,286.55 C453.133333,287.05 451.866667,287.3 450.4,287.3 C448.466667,287.3 447.05,286.683333 446.15,285.45 C445.25,284.216667 444.8,282.466667 444.8,280.2 L444.8,261.7 L456.9,261.7 L456.9,250.4 L444.8,250.4 L444.8,235 L430.4,235 L430.4,250.4 L423,250.4 L423,261.7 L430.4,261.7 L430.4,279.4 C430.4,282.333333 430.7,285 431.3,287.4 C431.9,289.8 432.9,291.85 434.3,293.55 C435.7,295.25 437.533333,296.583333 439.8,297.55 C442.066667,298.516667 444.866667,299 448.2,299 Z M490.4125,298.9 C493.4125,298.9 496.079167,298.616667 498.4125,298.05 C500.745833,297.483333 502.7625,296.833333 504.4625,296.1 C506.1625,295.366667 507.545833,294.616667 508.6125,293.85 C509.679167,293.083333 510.479167,292.533333 511.0125,292.2 L505.1125,283.1 C504.045833,283.9 502.345833,284.85 500.0125,285.95 C497.679167,287.05 494.645833,287.6 490.9125,287.6 C487.1125,287.6 484.129167,286.65 481.9625,284.75 C479.795833,282.85 478.679167,280.633333 478.6125,278.1 L512.0125,278.1 L512.0125,275.7 C512.0125,271.766667 511.5125,268.15 510.5125,264.85 C509.5125,261.55 508.029167,258.716667 506.0625,256.35 C504.095833,253.983333 501.679167,252.133333 498.8125,250.8 C495.945833,249.466667 492.6125,248.8 488.8125,248.8 C485.0125,248.8 481.6125,249.483333 478.6125,250.85 C475.6125,252.216667 473.079167,254.033333 471.0125,256.3 C468.945833,258.566667 467.3625,261.216667 466.2625,264.25 C465.1625,267.283333 464.6125,270.433333 464.6125,273.7 C464.6125,277.433333 465.195833,280.85 466.3625,283.95 C467.529167,287.05 469.229167,289.7 471.4625,291.9 C473.695833,294.1 476.4125,295.816667 479.6125,297.05 C482.8125,298.283333 486.4125,298.9 490.4125,298.9 Z M478.6125,268.9 C478.6125,267.9 478.829167,266.883333 479.2625,265.85 C479.695833,264.816667 480.329167,263.866667 481.1625,263 C481.995833,262.133333 483.045833,261.416667 484.3125,260.85 C485.579167,260.283333 487.045833,260 488.7125,260 C490.379167,260 491.8125,260.283333 493.0125,260.85 C494.2125,261.416667 495.2125,262.133333 496.0125,263 C496.8125,263.866667 497.4125,264.816667 497.8125,265.85 C498.2125,266.883333 498.4125,267.9 498.4125,268.9 L478.6125,268.9 Z M539.225,298.9 C541.825,298.9 544.375,298.6 546.875,298 C549.375,297.4 551.608333,296.483333 553.575,295.25 C555.541667,294.016667 557.108333,292.466667 558.275,290.6 C559.441667,288.733333 560.025,286.5 560.025,283.9 C560.025,280.033333 558.941667,276.933333 556.775,274.6 C554.608333,272.266667 551.125,270.433333 546.325,269.1 C542.791667,268.166667 539.991667,267.333333 537.925,266.6 C535.858333,265.866667 534.825,264.733333 534.825,263.2 C534.825,262.133333 535.325,261.283333 536.325,260.65 C537.325,260.016667 538.925,259.7 541.125,259.7 C543.591667,259.7 545.808333,260.1 547.775,260.9 C549.741667,261.7 551.491667,262.6 553.025,263.6 L559.125,254.1 C556.591667,252.366667 553.825,251.05 550.825,250.15 C547.825,249.25 544.325,248.8 540.325,248.8 C537.525,248.8 534.908333,249.15 532.475,249.85 C530.041667,250.55 527.941667,251.55 526.175,252.85 C524.408333,254.15 523.025,255.683333 522.025,257.45 C521.025,259.216667 520.525,261.2 520.525,263.4 C520.525,265.533333 520.941667,267.4 521.775,269 C522.608333,270.6 523.708333,271.966667 525.075,273.1 C526.441667,274.233333 528.008333,275.183333 529.775,275.95 C531.541667,276.716667 533.325,277.333333 535.125,277.8 C537.325,278.4 539.141667,278.933333 540.575,279.4 C542.008333,279.866667 543.125,280.316667 543.925,280.75 C544.725,281.183333 545.275,281.65 545.575,282.15 C545.875,282.65 546.025,283.2 546.025,283.8 C546.025,285.333333 545.325,286.366667 543.925,286.9 C542.525,287.433333 540.758333,287.7 538.625,287.7 C536.291667,287.7 533.875,287.233333 531.375,286.3 C528.875,285.366667 526.858333,284.2 525.325,282.8 L518.225,292 C520.558333,294.333333 523.591667,296.066667 527.325,297.2 C531.058333,298.333333 535.025,298.9 539.225,298.9 Z M586.0375,297.3 L586.0375,281.4 L569.7375,281.4 L569.7375,297.3 L586.0375,297.3 Z M619.85,298.9 C624.183333,298.9 627.933333,298.133333 631.1,296.6 C634.266667,295.066667 636.816667,293.233333 638.75,291.1 L630.35,281.7 C629.35,282.833333 628.016667,283.883333 626.35,284.85 C624.683333,285.816667 622.616667,286.3 620.15,286.3 C618.416667,286.3 616.866667,285.933333 615.5,285.2 C614.133333,284.466667 612.966667,283.516667 612,282.35 C611.033333,281.183333 610.3,279.85 609.8,278.35 C609.3,276.85 609.05,275.333333 609.05,273.8 C609.05,272.133333 609.3,270.55 609.8,269.05 C610.3,267.55 611.033333,266.233333 612,265.1 C612.966667,263.966667 614.133333,263.05 615.5,262.35 C616.866667,261.65 618.416667,261.3 620.15,261.3 C622.683333,261.3 624.716667,261.766667 626.25,262.7 C627.783333,263.633333 629.083333,264.7 630.15,265.9 L638.85,256.5 C636.716667,254.166667 634.083333,252.3 630.95,250.9 C627.816667,249.5 624.116667,248.8 619.85,248.8 C616.183333,248.8 612.8,249.45 609.7,250.75 C606.6,252.05 603.933333,253.833333 601.7,256.1 C599.466667,258.366667 597.716667,261.016667 596.45,264.05 C595.183333,267.083333 594.55,270.333333 594.55,273.8 C594.55,277.466667 595.166667,280.833333 596.4,283.9 C597.633333,286.966667 599.35,289.616667 601.55,291.85 C603.75,294.083333 606.4,295.816667 609.5,297.05 C612.6,298.283333 616.05,298.9 619.85,298.9 Z M667.2625,298.9 C670.995833,298.9 674.395833,298.233333 677.4625,296.9 C680.529167,295.566667 683.1625,293.766667 685.3625,291.5 C687.5625,289.233333 689.279167,286.583333 690.5125,283.55 C691.745833,280.516667 692.3625,277.266667 692.3625,273.8 C692.3625,270.333333 691.745833,267.083333 690.5125,264.05 C689.279167,261.016667 687.5625,258.366667 685.3625,256.1 C683.1625,253.833333 680.529167,252.05 677.4625,250.75 C674.395833,249.45 670.995833,248.8 667.2625,248.8 C663.529167,248.8 660.1125,249.45 657.0125,250.75 C653.9125,252.05 651.2625,253.833333 649.0625,256.1 C646.8625,258.366667 645.145833,261.016667 643.9125,264.05 C642.679167,267.083333 642.0625,270.333333 642.0625,273.8 C642.0625,277.266667 642.679167,280.516667 643.9125,283.55 C645.145833,286.583333 646.8625,289.233333 649.0625,291.5 C651.2625,293.766667 653.9125,295.566667 657.0125,296.9 C660.1125,298.233333 663.529167,298.9 667.2625,298.9 Z M667.2625,286.4 C665.4625,286.4 663.845833,286.05 662.4125,285.35 C660.979167,284.65 659.795833,283.7 658.8625,282.5 C657.929167,281.3 657.2125,279.95 656.7125,278.45 C656.2125,276.95 655.9625,275.4 655.9625,273.8 C655.9625,272.2 656.2125,270.65 656.7125,269.15 C657.2125,267.65 657.929167,266.316667 658.8625,265.15 C659.795833,263.983333 660.979167,263.05 662.4125,262.35 C663.845833,261.65 665.4625,261.3 667.2625,261.3 C669.0625,261.3 670.6625,261.65 672.0625,262.35 C673.4625,263.05 674.645833,263.983333 675.6125,265.15 C676.579167,266.316667 677.295833,267.65 677.7625,269.15 C678.229167,270.65 678.4625,272.2 678.4625,273.8 C678.4625,275.4 678.229167,276.95 677.7625,278.45 C677.295833,279.95 676.579167,281.3 675.6125,282.5 C674.645833,283.7 673.4625,284.65 672.0625,285.35 C670.6625,286.05 669.0625,286.4 667.2625,286.4 Z M715.575,297.3 L715.575,272.1 C715.575,269.1 716.425,266.633333 718.125,264.7 C719.825,262.766667 722.041667,261.8 724.775,261.8 C727.241667,261.8 729.091667,262.566667 730.325,264.1 C731.558333,265.633333 732.175,267.8 732.175,270.6 L732.175,297.3 L746.075,297.3 L746.075,272.1 C746.075,269.1 746.908333,266.633333 748.575,264.7 C750.241667,262.766667 752.475,261.8 755.275,261.8 C757.741667,261.8 759.591667,262.566667 760.825,264.1 C762.058333,265.633333 762.675,267.8 762.675,270.6 L762.675,297.3 L777.075,297.3 L777.075,268.3 C777.075,262.433333 775.491667,257.8 772.325,254.4 C769.158333,251 764.575,249.3 758.575,249.3 C755.575,249.3 752.691667,249.866667 749.925,251 C747.158333,252.133333 744.808333,253.733333 742.875,255.8 C742.341667,255.066667 741.658333,254.316667 740.825,253.55 C739.991667,252.783333 739.025,252.083333 737.925,251.45 C736.825,250.816667 735.541667,250.3 734.075,249.9 C732.608333,249.5 730.941667,249.3 729.075,249.3 C726.008333,249.3 723.341667,249.9 721.075,251.1 C718.808333,252.3 716.941667,253.8 715.475,255.6 L714.975,250.4 L701.175,250.4 L701.175,297.3 L715.575,297.3 Z M532.70375,357.3 L532.70375,347.5 C532.70375,346.726667 532.84375,345.993333 533.12375,345.3 C533.40375,344.606667 533.78375,344 534.26375,343.48 C534.74375,342.96 535.310417,342.553333 535.96375,342.26 C536.617083,341.966667 537.330417,341.82 538.10375,341.82 C538.850417,341.82 539.46375,341.913333 539.94375,342.1 L540.74375,338.74 C540.450417,338.633333 540.137083,338.553333 539.80375,338.5 C539.470417,338.446667 539.10375,338.42 538.70375,338.42 C537.850417,338.42 537.097083,338.533333 536.44375,338.76 C535.790417,338.986667 535.217083,339.26 534.72375,339.58 C534.230417,339.9 533.810417,340.253333 533.46375,340.64 C533.117083,341.026667 532.837083,341.38 532.62375,341.7 L532.50375,338.7 L529.06375,338.7 C529.090417,339.233333 529.10375,339.62 529.10375,339.86 L529.10375,357.3 L532.70375,357.3 Z M551.58875,357.86 C552.762083,357.86 553.80875,357.733333 554.72875,357.48 C555.64875,357.226667 556.44875,356.926667 557.12875,356.58 C557.80875,356.233333 558.362083,355.873333 558.78875,355.5 C559.215417,355.126667 559.535417,354.82 559.74875,354.58 L557.70875,352.42 C557.255417,352.926667 556.522083,353.446667 555.50875,353.98 C554.495417,354.513333 553.202083,354.78 551.62875,354.78 C550.82875,354.78 550.06875,354.633333 549.34875,354.34 C548.62875,354.046667 547.98875,353.646667 547.42875,353.14 C546.86875,352.633333 546.422083,352.033333 546.08875,351.34 C545.755417,350.646667 545.575417,349.886667 545.54875,349.06 L560.22875,349.06 C560.22875,347.646667 560.055417,346.286667 559.70875,344.98 C559.362083,343.673333 558.822083,342.513333 558.08875,341.5 C557.355417,340.486667 556.415417,339.673333 555.26875,339.06 C554.122083,338.446667 552.74875,338.14 551.14875,338.14 C549.78875,338.14 548.542083,338.393333 547.40875,338.9 C546.275417,339.406667 545.295417,340.093333 544.46875,340.96 C543.642083,341.826667 543.002083,342.853333 542.54875,344.04 C542.095417,345.226667 541.86875,346.5 541.86875,347.86 C541.86875,349.353333 542.102083,350.713333 542.56875,351.94 C543.035417,353.166667 543.695417,354.22 544.54875,355.1 C545.402083,355.98 546.42875,356.66 547.62875,357.14 C548.82875,357.62 550.14875,357.86 551.58875,357.86 Z M545.54875,346.38 C545.575417,345.713333 545.722083,345.066667 545.98875,344.44 C546.255417,343.813333 546.62875,343.26 547.10875,342.78 C547.58875,342.3 548.16875,341.913333 548.84875,341.62 C549.52875,341.326667 550.295417,341.18 551.14875,341.18 C552.802083,341.18 554.082083,341.686667 554.98875,342.7 C555.895417,343.713333 556.402083,344.94 556.50875,346.38 L545.54875,346.38 Z M571.71375,357.86 C572.620417,357.86 573.41375,357.74 574.09375,357.5 C574.77375,357.26 575.367083,356.98 575.87375,356.66 C576.380417,356.34 576.787083,356.013333 577.09375,355.68 C577.400417,355.346667 577.620417,355.1 577.75375,354.94 L577.87375,357.3 L581.39375,357.3 C581.367083,356.926667 581.35375,356.546667 581.35375,356.16 L581.35375,330.62 L577.75375,330.62 L577.75375,339.46 C577.007083,339.086667 576.267083,338.793333 575.53375,338.58 C574.800417,338.366667 573.927083,338.26 572.91375,338.26 C571.927083,338.26 570.880417,338.446667 569.77375,338.82 C568.667083,339.193333 567.640417,339.786667 566.69375,340.6 C565.747083,341.413333 564.967083,342.453333 564.35375,343.72 C563.740417,344.986667 563.43375,346.5 563.43375,348.26 C563.43375,349.726667 563.640417,351.053333 564.05375,352.24 C564.467083,353.426667 565.047083,354.433333 565.79375,355.26 C566.540417,356.086667 567.420417,356.726667 568.43375,357.18 C569.447083,357.633333 570.540417,357.86 571.71375,357.86 Z M572.51375,354.74 C571.580417,354.74 570.77375,354.573333 570.09375,354.24 C569.41375,353.906667 568.85375,353.446667 568.41375,352.86 C567.97375,352.273333 567.647083,351.586667 567.43375,350.8 C567.220417,350.013333 567.11375,349.18 567.11375,348.3 C567.11375,347.233333 567.267083,346.273333 567.57375,345.42 C567.880417,344.566667 568.307083,343.846667 568.85375,343.26 C569.400417,342.673333 570.040417,342.22 570.77375,341.9 C571.507083,341.58 572.31375,341.42 573.19375,341.42 C574.260417,341.42 575.167083,341.553333 575.91375,341.82 C576.660417,342.086667 577.27375,342.42 577.75375,342.82 L577.75375,349.46 C577.75375,349.993333 577.65375,350.573333 577.45375,351.2 C577.25375,351.826667 576.947083,352.4 576.53375,352.92 C576.120417,353.44 575.580417,353.873333 574.91375,354.22 C574.247083,354.566667 573.447083,354.74 572.51375,354.74 Z M595.27875,357.86 C596.452083,357.86 597.49875,357.733333 598.41875,357.48 C599.33875,357.226667 600.13875,356.926667 600.81875,356.58 C601.49875,356.233333 602.052083,355.873333 602.47875,355.5 C602.905417,355.126667 603.225417,354.82 603.43875,354.58 L601.39875,352.42 C600.945417,352.926667 600.212083,353.446667 599.19875,353.98 C598.185417,354.513333 596.892083,354.78 595.31875,354.78 C594.51875,354.78 593.75875,354.633333 593.03875,354.34 C592.31875,354.046667 591.67875,353.646667 591.11875,353.14 C590.55875,352.633333 590.112083,352.033333 589.77875,351.34 C589.445417,350.646667 589.265417,349.886667 589.23875,349.06 L603.91875,349.06 C603.91875,347.646667 603.745417,346.286667 603.39875,344.98 C603.052083,343.673333 602.512083,342.513333 601.77875,341.5 C601.045417,340.486667 600.105417,339.673333 598.95875,339.06 C597.812083,338.446667 596.43875,338.14 594.83875,338.14 C593.47875,338.14 592.232083,338.393333 591.09875,338.9 C589.965417,339.406667 588.985417,340.093333 588.15875,340.96 C587.332083,341.826667 586.692083,342.853333 586.23875,344.04 C585.785417,345.226667 585.55875,346.5 585.55875,347.86 C585.55875,349.353333 585.792083,350.713333 586.25875,351.94 C586.725417,353.166667 587.385417,354.22 588.23875,355.1 C589.092083,355.98 590.11875,356.66 591.31875,357.14 C592.51875,357.62 593.83875,357.86 595.27875,357.86 Z M589.23875,346.38 C589.265417,345.713333 589.412083,345.066667 589.67875,344.44 C589.945417,343.813333 590.31875,343.26 590.79875,342.78 C591.27875,342.3 591.85875,341.913333 592.53875,341.62 C593.21875,341.326667 593.985417,341.18 594.83875,341.18 C596.492083,341.18 597.772083,341.686667 598.67875,342.7 C599.585417,343.713333 600.092083,344.94 600.19875,346.38 L589.23875,346.38 Z M614.96375,357.86 C615.977083,357.86 616.950417,357.74 617.88375,357.5 C618.817083,357.26 619.64375,356.9 620.36375,356.42 C621.08375,355.94 621.657083,355.346667 622.08375,354.64 C622.510417,353.933333 622.72375,353.113333 622.72375,352.18 C622.72375,351.273333 622.557083,350.5 622.22375,349.86 C621.890417,349.22 621.437083,348.68 620.86375,348.24 C620.290417,347.8 619.62375,347.44 618.86375,347.16 C618.10375,346.88 617.28375,346.633333 616.40375,346.42 C614.910417,346.073333 613.70375,345.706667 612.78375,345.32 C611.86375,344.933333 611.40375,344.34 611.40375,343.54 C611.40375,342.686667 611.750417,342.073333 612.44375,341.7 C613.137083,341.326667 614.057083,341.14 615.20375,341.14 C616.32375,341.14 617.30375,341.313333 618.14375,341.66 C618.98375,342.006667 619.68375,342.433333 620.24375,342.94 L622.20375,340.46 C621.350417,339.713333 620.357083,339.133333 619.22375,338.72 C618.090417,338.306667 616.737083,338.1 615.16375,338.1 C614.230417,338.1 613.330417,338.22 612.46375,338.46 C611.597083,338.7 610.817083,339.053333 610.12375,339.52 C609.430417,339.986667 608.877083,340.56 608.46375,341.24 C608.050417,341.92 607.84375,342.713333 607.84375,343.62 C607.84375,344.5 608.017083,345.253333 608.36375,345.88 C608.710417,346.506667 609.16375,347.04 609.72375,347.48 C610.28375,347.92 610.917083,348.273333 611.62375,348.54 C612.330417,348.806667 613.04375,349.02 613.76375,349.18 C614.777083,349.42 615.62375,349.64 616.30375,349.84 C616.98375,350.04 617.530417,350.26 617.94375,350.5 C618.357083,350.74 618.650417,351.013333 618.82375,351.32 C618.997083,351.626667 619.08375,351.993333 619.08375,352.42 C619.08375,353.246667 618.68375,353.853333 617.88375,354.24 C617.08375,354.626667 616.08375,354.82 614.88375,354.82 C613.657083,354.82 612.577083,354.62 611.64375,354.22 C610.710417,353.82 609.910417,353.286667 609.24375,352.62 L607.04375,355.02 C608.80375,356.913333 611.44375,357.86 614.96375,357.86 Z M631.00875,335.38 L631.00875,331.34 L626.96875,331.34 L626.96875,335.38 L631.00875,335.38 Z M630.80875,357.3 L630.80875,338.7 L627.20875,338.7 L627.20875,357.3 L630.80875,357.3 Z M644.09375,365.78 C646.920417,365.78 649.11375,365.04 650.67375,363.56 C652.23375,362.08 653.01375,359.993333 653.01375,357.3 L653.01375,339.54 C652.21375,339.22 651.160417,338.926667 649.85375,338.66 C648.547083,338.393333 647.13375,338.26 645.61375,338.26 C644.040417,338.26 642.61375,338.506667 641.33375,339 C640.05375,339.493333 638.95375,340.186667 638.03375,341.08 C637.11375,341.973333 636.400417,343.026667 635.89375,344.24 C635.387083,345.453333 635.13375,346.78 635.13375,348.22 C635.13375,349.553333 635.320417,350.786667 635.69375,351.92 C636.067083,353.053333 636.61375,354.026667 637.33375,354.84 C638.05375,355.653333 638.940417,356.293333 639.99375,356.76 C641.047083,357.226667 642.25375,357.46 643.61375,357.46 C644.440417,357.46 645.17375,357.36 645.81375,357.16 C646.45375,356.96 647.007083,356.733333 647.47375,356.48 C647.940417,356.226667 648.327083,355.96 648.63375,355.68 C648.940417,355.4 649.187083,355.18 649.37375,355.02 L649.37375,357.3 C649.37375,358.9 648.93375,360.193333 648.05375,361.18 C647.17375,362.166667 645.840417,362.66 644.05375,362.66 C642.77375,362.66 641.687083,362.506667 640.79375,362.2 C639.900417,361.893333 639.147083,361.526667 638.53375,361.1 L636.85375,363.74 C637.547083,364.273333 638.45375,364.746667 639.57375,365.16 C640.69375,365.573333 642.200417,365.78 644.09375,365.78 Z M644.17375,354.34 C643.21375,354.34 642.400417,354.18 641.73375,353.86 C641.067083,353.54 640.51375,353.1 640.07375,352.54 C639.63375,351.98 639.31375,351.326667 639.11375,350.58 C638.91375,349.833333 638.81375,349.033333 638.81375,348.18 C638.81375,347.193333 638.980417,346.286667 639.31375,345.46 C639.647083,344.633333 640.11375,343.92 640.71375,343.32 C641.31375,342.72 642.027083,342.253333 642.85375,341.92 C643.680417,341.586667 644.600417,341.42 645.61375,341.42 C646.760417,341.42 647.620417,341.493333 648.19375,341.64 C648.767083,341.786667 649.17375,341.9 649.41375,341.98 L649.41375,349.7 C649.41375,350.286667 649.307083,350.853333 649.09375,351.4 C648.880417,351.946667 648.560417,352.44 648.13375,352.88 C647.707083,353.32 647.160417,353.673333 646.49375,353.94 C645.827083,354.206667 645.05375,354.34 644.17375,354.34 Z M661.65875,357.3 L661.65875,348.66 C661.65875,347.753333 661.752083,346.866667 661.93875,346 C662.125417,345.133333 662.425417,344.36 662.83875,343.68 C663.252083,343 663.805417,342.446667 664.49875,342.02 C665.192083,341.593333 666.05875,341.38 667.09875,341.38 C668.45875,341.38 669.512083,341.786667 670.25875,342.6 C671.005417,343.413333 671.37875,344.686667 671.37875,346.42 L671.37875,357.3 L674.97875,357.3 L674.97875,346.14 C674.97875,343.713333 674.392083,341.793333 673.21875,340.38 C672.045417,338.966667 670.245417,338.26 667.81875,338.26 C666.965417,338.26 666.19875,338.366667 665.51875,338.58 C664.83875,338.793333 664.245417,339.06 663.73875,339.38 C663.232083,339.7 662.805417,340.053333 662.45875,340.44 C662.112083,340.826667 661.81875,341.18 661.57875,341.5 L661.45875,338.7 L658.01875,338.7 C658.045417,339.233333 658.05875,339.626667 658.05875,339.88 L658.05875,357.3 L661.65875,357.3 Z" id="tes.comredesign" fill="#FFFFFF" fill-rule="nonzero" filter="url(#filter-1)"></path>
    </g>
</svg>