<svg width="1024" height="600" viewBox="0 0 1024 600" fill="none" xmlns="http://www.w3.org/2000/svg">
<g id="social_hero">
<rect width="1024" height="600" fill="#FFF3F3"/>
<g id="Group 43">
<path id="Multi-platform conte" d="M128.412 261.512V302H121.776V275.848C121.776 274.803 121.832 273.673 121.944 272.46L109.708 295.448C109.129 296.549 108.243 297.1 107.048 297.1H105.984C104.789 297.1 103.903 296.549 103.324 295.448L90.948 272.376C91.004 272.992 91.0507 273.599 91.088 274.196C91.1253 274.793 91.144 275.344 91.144 275.848V302H84.508V261.512H90.192C90.528 261.512 90.8173 261.521 91.06 261.54C91.3027 261.559 91.5173 261.605 91.704 261.68C91.9093 261.755 92.0867 261.876 92.236 262.044C92.404 262.212 92.5627 262.436 92.712 262.716L104.836 285.2C105.153 285.797 105.443 286.413 105.704 287.048C105.984 287.683 106.255 288.336 106.516 289.008C106.777 288.317 107.048 287.655 107.328 287.02C107.608 286.367 107.907 285.741 108.224 285.144L120.18 262.716C120.329 262.436 120.488 262.212 120.656 262.044C120.824 261.876 121.001 261.755 121.188 261.68C121.393 261.605 121.617 261.559 121.86 261.54C122.103 261.521 122.392 261.512 122.728 261.512H128.412ZM160.559 273.272V302H156.331C155.416 302 154.837 301.58 154.595 300.74L154.119 298.444C152.943 299.639 151.645 300.609 150.227 301.356C148.808 302.084 147.137 302.448 145.215 302.448C143.647 302.448 142.256 302.187 141.043 301.664C139.848 301.123 138.84 300.367 138.019 299.396C137.197 298.425 136.572 297.277 136.143 295.952C135.732 294.608 135.527 293.133 135.527 291.528V273.272H142.443V291.528C142.443 293.283 142.844 294.645 143.647 295.616C144.468 296.568 145.691 297.044 147.315 297.044C148.509 297.044 149.629 296.783 150.675 296.26C151.72 295.719 152.709 294.981 153.643 294.048V273.272H160.559ZM174.416 260.392V302H167.5V260.392H174.416ZM210.287 302H203.371V278.452H190.043V294.02C190.043 294.916 190.257 295.616 190.687 296.12C191.135 296.624 191.741 296.876 192.507 296.876C192.936 296.876 193.291 296.829 193.571 296.736C193.869 296.624 194.121 296.512 194.327 296.4C194.551 296.288 194.747 296.185 194.915 296.092C195.083 295.98 195.251 295.924 195.419 295.924C195.624 295.924 195.792 295.98 195.923 296.092C196.053 296.185 196.193 296.335 196.343 296.54L198.415 299.9C197.407 300.74 196.249 301.375 194.943 301.804C193.636 302.233 192.283 302.448 190.883 302.448C188.381 302.448 186.459 301.748 185.115 300.348C183.789 298.929 183.127 296.979 183.127 294.496V278.452H180.187C179.813 278.452 179.496 278.331 179.235 278.088C178.973 277.845 178.843 277.481 178.843 276.996V274.252L183.463 273.468L184.919 265.656C185.012 265.283 185.189 264.993 185.451 264.788C185.712 264.583 186.048 264.48 186.459 264.48H190.043V273.524H210.287V302ZM211.491 264.788C211.491 265.385 211.369 265.955 211.127 266.496C210.884 267.019 210.557 267.476 210.147 267.868C209.755 268.26 209.279 268.577 208.719 268.82C208.177 269.044 207.599 269.156 206.983 269.156C206.385 269.156 205.825 269.044 205.303 268.82C204.78 268.577 204.323 268.26 203.931 267.868C203.539 267.476 203.221 267.019 202.979 266.496C202.755 265.955 202.643 265.385 202.643 264.788C202.643 264.172 202.755 263.603 202.979 263.08C203.221 262.539 203.539 262.072 203.931 261.68C204.323 261.269 204.78 260.952 205.303 260.728C205.825 260.485 206.385 260.364 206.983 260.364C207.599 260.364 208.177 260.485 208.719 260.728C209.279 260.952 209.755 261.269 210.147 261.68C210.557 262.072 210.884 262.539 211.127 263.08C211.369 263.603 211.491 264.172 211.491 264.788ZM217.122 282.204H231.626V287.972H217.122V282.204ZM245.152 294.552C245.936 295.504 246.786 296.176 247.7 296.568C248.634 296.96 249.642 297.156 250.724 297.156C251.77 297.156 252.712 296.96 253.552 296.568C254.392 296.176 255.102 295.579 255.68 294.776C256.278 293.973 256.735 292.965 257.052 291.752C257.37 290.52 257.528 289.073 257.528 287.412C257.528 285.732 257.388 284.313 257.108 283.156C256.847 281.98 256.464 281.028 255.96 280.3C255.456 279.572 254.84 279.04 254.112 278.704C253.403 278.368 252.591 278.2 251.676 278.2C250.239 278.2 249.016 278.508 248.008 279.124C247 279.721 246.048 280.571 245.152 281.672V294.552ZM244.788 277.192C245.964 275.867 247.299 274.793 248.792 273.972C250.286 273.151 252.04 272.74 254.056 272.74C255.624 272.74 257.052 273.067 258.34 273.72C259.647 274.373 260.767 275.325 261.7 276.576C262.652 277.808 263.38 279.339 263.884 281.168C264.407 282.979 264.668 285.06 264.668 287.412C264.668 289.559 264.379 291.547 263.8 293.376C263.222 295.205 262.391 296.792 261.308 298.136C260.244 299.48 258.947 300.535 257.416 301.3C255.904 302.047 254.206 302.42 252.32 302.42C250.715 302.42 249.343 302.177 248.204 301.692C247.066 301.188 246.048 300.497 245.152 299.62V311.38H238.236V273.272H242.464C243.36 273.272 243.948 273.692 244.228 274.532L244.788 277.192ZM277.064 260.392V302H270.148V260.392H277.064ZM299.131 289.736C297.134 289.829 295.454 290.007 294.091 290.268C292.728 290.511 291.636 290.828 290.815 291.22C289.994 291.612 289.406 292.069 289.051 292.592C288.696 293.115 288.519 293.684 288.519 294.3C288.519 295.513 288.874 296.381 289.583 296.904C290.311 297.427 291.254 297.688 292.411 297.688C293.83 297.688 295.052 297.436 296.079 296.932C297.124 296.409 298.142 295.625 299.131 294.58V289.736ZM283.283 277.276C286.587 274.252 290.563 272.74 295.211 272.74C296.891 272.74 298.394 273.02 299.719 273.58C301.044 274.121 302.164 274.887 303.079 275.876C303.994 276.847 304.684 278.013 305.151 279.376C305.636 280.739 305.879 282.232 305.879 283.856V302H302.743C302.09 302 301.586 301.907 301.231 301.72C300.876 301.515 300.596 301.113 300.391 300.516L299.775 298.444C299.047 299.097 298.338 299.676 297.647 300.18C296.956 300.665 296.238 301.076 295.491 301.412C294.744 301.748 293.942 302 293.083 302.168C292.243 302.355 291.31 302.448 290.283 302.448C289.07 302.448 287.95 302.289 286.923 301.972C285.896 301.636 285.01 301.141 284.263 300.488C283.516 299.835 282.938 299.023 282.527 298.052C282.116 297.081 281.911 295.952 281.911 294.664C281.911 293.936 282.032 293.217 282.275 292.508C282.518 291.78 282.91 291.089 283.451 290.436C284.011 289.783 284.73 289.167 285.607 288.588C286.484 288.009 287.558 287.505 288.827 287.076C290.115 286.647 291.608 286.301 293.307 286.04C295.006 285.76 296.947 285.592 299.131 285.536V283.856C299.131 281.933 298.72 280.515 297.899 279.6C297.078 278.667 295.892 278.2 294.343 278.2C293.223 278.2 292.29 278.331 291.543 278.592C290.815 278.853 290.171 279.152 289.611 279.488C289.051 279.805 288.538 280.095 288.071 280.356C287.623 280.617 287.119 280.748 286.559 280.748C286.074 280.748 285.663 280.627 285.327 280.384C284.991 280.123 284.72 279.824 284.515 279.488L283.283 277.276ZM333.262 302V278.452H320.746V294.02C320.746 294.916 320.96 295.616 321.39 296.12C321.838 296.624 322.444 296.876 323.21 296.876C323.639 296.876 323.994 296.829 324.274 296.736C324.572 296.624 324.824 296.512 325.03 296.4C325.254 296.288 325.45 296.185 325.618 296.092C325.786 295.98 325.954 295.924 326.122 295.924C326.327 295.924 326.495 295.98 326.626 296.092C326.756 296.185 326.896 296.335 327.046 296.54L329.118 299.9C328.11 300.74 326.952 301.375 325.646 301.804C324.339 302.233 322.986 302.448 321.586 302.448C319.084 302.448 317.162 301.748 315.818 300.348C314.492 298.929 313.83 296.979 313.83 294.496V278.452H310.89C310.516 278.452 310.199 278.331 309.938 278.088C309.676 277.845 309.546 277.481 309.546 276.996V274.252L314.166 273.496L315.622 265.656C315.715 265.283 315.892 264.993 316.154 264.788C316.415 264.583 316.751 264.48 317.162 264.48H320.746V273.524H333.262V271.396C333.262 269.753 333.504 268.279 333.99 266.972C334.494 265.665 335.203 264.555 336.118 263.64C337.051 262.725 338.18 262.025 339.506 261.54C340.831 261.055 342.324 260.812 343.986 260.812C345.311 260.812 346.543 260.989 347.682 261.344L347.542 264.816C347.523 265.077 347.448 265.292 347.318 265.46C347.187 265.609 347.01 265.731 346.786 265.824C346.58 265.899 346.338 265.955 346.058 265.992C345.778 266.011 345.479 266.02 345.162 266.02C344.34 266.02 343.603 266.113 342.95 266.3C342.315 266.468 341.774 266.776 341.326 267.224C340.878 267.653 340.532 268.232 340.29 268.96C340.066 269.669 339.954 270.556 339.954 271.62V273.524H347.43V278.452H340.178V302H333.262ZM363.331 272.824C365.459 272.824 367.391 273.169 369.127 273.86C370.882 274.551 372.375 275.531 373.607 276.8C374.858 278.069 375.819 279.619 376.491 281.448C377.163 283.277 377.499 285.321 377.499 287.58C377.499 289.857 377.163 291.911 376.491 293.74C375.819 295.569 374.858 297.128 373.607 298.416C372.375 299.704 370.882 300.693 369.127 301.384C367.391 302.075 365.459 302.42 363.331 302.42C361.184 302.42 359.234 302.075 357.479 301.384C355.724 300.693 354.222 299.704 352.971 298.416C351.739 297.128 350.778 295.569 350.087 293.74C349.415 291.911 349.079 289.857 349.079 287.58C349.079 285.321 349.415 283.277 350.087 281.448C350.778 279.619 351.739 278.069 352.971 276.8C354.222 275.531 355.724 274.551 357.479 273.86C359.234 273.169 361.184 272.824 363.331 272.824ZM363.331 297.1C365.72 297.1 367.484 296.297 368.623 294.692C369.78 293.087 370.359 290.735 370.359 287.636C370.359 284.537 369.78 282.176 368.623 280.552C367.484 278.928 365.72 278.116 363.331 278.116C360.904 278.116 359.103 278.937 357.927 280.58C356.77 282.204 356.191 284.556 356.191 287.636C356.191 290.716 356.77 293.068 357.927 294.692C359.103 296.297 360.904 297.1 363.331 297.1ZM389.299 278.256C390.195 276.539 391.259 275.195 392.491 274.224C393.723 273.235 395.179 272.74 396.859 272.74C398.185 272.74 399.249 273.029 400.051 273.608L399.603 278.788C399.51 279.124 399.37 279.367 399.183 279.516C399.015 279.647 398.782 279.712 398.483 279.712C398.203 279.712 397.783 279.665 397.223 279.572C396.682 279.479 396.15 279.432 395.627 279.432C394.862 279.432 394.181 279.544 393.583 279.768C392.986 279.992 392.445 280.319 391.959 280.748C391.493 281.159 391.073 281.663 390.699 282.26C390.345 282.857 390.009 283.539 389.691 284.304V302H382.775V273.272H386.835C387.545 273.272 388.039 273.403 388.319 273.664C388.599 273.907 388.786 274.355 388.879 275.008L389.299 278.256ZM403.666 302V273.272H407.894C408.79 273.272 409.378 273.692 409.658 274.532L410.106 276.66C410.61 276.1 411.133 275.587 411.674 275.12C412.234 274.653 412.822 274.252 413.438 273.916C414.073 273.58 414.745 273.319 415.454 273.132C416.182 272.927 416.975 272.824 417.834 272.824C419.645 272.824 421.129 273.319 422.286 274.308C423.462 275.279 424.339 276.576 424.918 278.2C425.366 277.248 425.926 276.436 426.598 275.764C427.27 275.073 428.007 274.513 428.81 274.084C429.613 273.655 430.462 273.337 431.358 273.132C432.273 272.927 433.187 272.824 434.102 272.824C435.689 272.824 437.098 273.067 438.33 273.552C439.562 274.037 440.598 274.747 441.438 275.68C442.278 276.613 442.913 277.752 443.342 279.096C443.79 280.44 444.014 281.98 444.014 283.716V302H437.098V283.716C437.098 281.887 436.697 280.515 435.894 279.6C435.091 278.667 433.915 278.2 432.366 278.2C431.657 278.2 430.994 278.321 430.378 278.564C429.781 278.807 429.249 279.161 428.782 279.628C428.334 280.076 427.979 280.645 427.718 281.336C427.457 282.027 427.326 282.82 427.326 283.716V302H420.382V283.716C420.382 281.793 419.99 280.393 419.206 279.516C418.441 278.639 417.311 278.2 415.818 278.2C414.81 278.2 413.867 278.452 412.99 278.956C412.131 279.441 411.329 280.113 410.582 280.972V302H403.666ZM103.996 346.348C103.791 346.609 103.585 346.815 103.38 346.964C103.193 347.113 102.913 347.188 102.54 347.188C102.185 347.188 101.84 347.085 101.504 346.88C101.168 346.656 100.767 346.413 100.3 346.152C99.8333 345.872 99.2733 345.629 98.62 345.424C97.9853 345.2 97.192 345.088 96.24 345.088C95.0267 345.088 93.9627 345.312 93.048 345.76C92.1333 346.189 91.368 346.815 90.752 347.636C90.1547 348.457 89.7067 349.456 89.408 350.632C89.1093 351.789 88.96 353.105 88.96 354.58C88.96 356.111 89.1187 357.473 89.436 358.668C89.772 359.863 90.248 360.871 90.864 361.692C91.48 362.495 92.2267 363.111 93.104 363.54C93.9813 363.951 94.9707 364.156 96.072 364.156C97.1733 364.156 98.06 364.025 98.732 363.764C99.4227 363.484 100.001 363.185 100.468 362.868C100.935 362.532 101.336 362.233 101.672 361.972C102.027 361.692 102.419 361.552 102.848 361.552C103.408 361.552 103.828 361.767 104.108 362.196L106.096 364.716C105.331 365.612 104.5 366.368 103.604 366.984C102.708 367.581 101.775 368.067 100.804 368.44C99.852 368.795 98.8627 369.047 97.836 369.196C96.828 369.345 95.82 369.42 94.812 369.42C93.0387 369.42 91.368 369.093 89.8 368.44C88.232 367.768 86.86 366.797 85.684 365.528C84.508 364.259 83.5747 362.709 82.884 360.88C82.212 359.032 81.876 356.932 81.876 354.58C81.876 352.471 82.1747 350.52 82.772 348.728C83.388 346.917 84.284 345.359 85.46 344.052C86.636 342.727 88.092 341.691 89.828 340.944C91.564 340.197 93.5613 339.824 95.82 339.824C97.9667 339.824 99.8427 340.169 101.448 340.86C103.072 341.551 104.528 342.54 105.816 343.828L103.996 346.348ZM122.651 339.824C124.779 339.824 126.711 340.169 128.447 340.86C130.202 341.551 131.695 342.531 132.927 343.8C134.178 345.069 135.139 346.619 135.811 348.448C136.483 350.277 136.819 352.321 136.819 354.58C136.819 356.857 136.483 358.911 135.811 360.74C135.139 362.569 134.178 364.128 132.927 365.416C131.695 366.704 130.202 367.693 128.447 368.384C126.711 369.075 124.779 369.42 122.651 369.42C120.505 369.42 118.554 369.075 116.799 368.384C115.045 367.693 113.542 366.704 112.291 365.416C111.059 364.128 110.098 362.569 109.407 360.74C108.735 358.911 108.399 356.857 108.399 354.58C108.399 352.321 108.735 350.277 109.407 348.448C110.098 346.619 111.059 345.069 112.291 343.8C113.542 342.531 115.045 341.551 116.799 340.86C118.554 340.169 120.505 339.824 122.651 339.824ZM122.651 364.1C125.041 364.1 126.805 363.297 127.943 361.692C129.101 360.087 129.679 357.735 129.679 354.636C129.679 351.537 129.101 349.176 127.943 347.552C126.805 345.928 125.041 345.116 122.651 345.116C120.225 345.116 118.423 345.937 117.247 347.58C116.09 349.204 115.511 351.556 115.511 354.636C115.511 357.716 116.09 360.068 117.247 361.692C118.423 363.297 120.225 364.1 122.651 364.1ZM148.564 343.8C149.142 343.221 149.749 342.689 150.384 342.204C151.037 341.7 151.718 341.28 152.428 340.944C153.156 340.589 153.93 340.319 154.752 340.132C155.573 339.927 156.469 339.824 157.44 339.824C159.008 339.824 160.398 340.095 161.612 340.636C162.825 341.159 163.833 341.905 164.636 342.876C165.457 343.828 166.073 344.976 166.484 346.32C166.913 347.645 167.128 349.111 167.128 350.716V369H160.212V350.716C160.212 348.961 159.81 347.608 159.008 346.656C158.205 345.685 156.982 345.2 155.34 345.2C154.145 345.2 153.025 345.471 151.98 346.012C150.934 346.553 149.945 347.291 149.012 348.224V369H142.096V340.272H146.324C147.22 340.272 147.808 340.692 148.088 341.532L148.564 343.8ZM182.898 369.448C180.397 369.448 178.474 368.748 177.13 367.348C175.805 365.929 175.142 363.979 175.142 361.496V345.452H172.202C171.829 345.452 171.512 345.331 171.25 345.088C170.989 344.845 170.858 344.481 170.858 343.996V341.252L175.478 340.496L176.934 332.656C177.028 332.283 177.205 331.993 177.466 331.788C177.728 331.583 178.064 331.48 178.474 331.48H182.058V340.524H189.73V345.452H182.058V361.02C182.058 361.916 182.273 362.616 182.702 363.12C183.15 363.624 183.757 363.876 184.522 363.876C184.952 363.876 185.306 363.829 185.586 363.736C185.885 363.624 186.137 363.512 186.342 363.4C186.566 363.288 186.762 363.185 186.93 363.092C187.098 362.98 187.266 362.924 187.434 362.924C187.64 362.924 187.808 362.98 187.938 363.092C188.069 363.185 188.209 363.335 188.358 363.54L190.43 366.9C189.422 367.74 188.265 368.375 186.958 368.804C185.652 369.233 184.298 369.448 182.898 369.448ZM212.447 351.332C212.447 350.436 212.317 349.596 212.055 348.812C211.813 348.009 211.439 347.309 210.935 346.712C210.431 346.115 209.787 345.648 209.003 345.312C208.238 344.957 207.342 344.78 206.315 344.78C204.318 344.78 202.741 345.349 201.583 346.488C200.445 347.627 199.717 349.241 199.399 351.332H212.447ZM199.259 355.504C199.371 356.979 199.633 358.257 200.043 359.34C200.454 360.404 200.995 361.291 201.667 362C202.339 362.691 203.133 363.213 204.047 363.568C204.981 363.904 206.007 364.072 207.127 364.072C208.247 364.072 209.209 363.941 210.011 363.68C210.833 363.419 211.542 363.129 212.139 362.812C212.755 362.495 213.287 362.205 213.735 361.944C214.202 361.683 214.65 361.552 215.079 361.552C215.658 361.552 216.087 361.767 216.367 362.196L218.355 364.716C217.59 365.612 216.731 366.368 215.779 366.984C214.827 367.581 213.829 368.067 212.783 368.44C211.757 368.795 210.702 369.047 209.619 369.196C208.555 369.345 207.519 369.42 206.511 369.42C204.514 369.42 202.657 369.093 200.939 368.44C199.222 367.768 197.729 366.788 196.459 365.5C195.19 364.193 194.191 362.588 193.463 360.684C192.735 358.761 192.371 356.54 192.371 354.02C192.371 352.06 192.689 350.221 193.323 348.504C193.958 346.768 194.863 345.265 196.039 343.996C197.234 342.708 198.681 341.691 200.379 340.944C202.097 340.197 204.029 339.824 206.175 339.824C207.986 339.824 209.657 340.113 211.187 340.692C212.718 341.271 214.034 342.12 215.135 343.24C216.237 344.341 217.095 345.704 217.711 347.328C218.346 348.933 218.663 350.772 218.663 352.844C218.663 353.889 218.551 354.599 218.327 354.972C218.103 355.327 217.674 355.504 217.039 355.504H199.259ZM230.322 343.8C230.9 343.221 231.507 342.689 232.142 342.204C232.795 341.7 233.476 341.28 234.186 340.944C234.914 340.589 235.688 340.319 236.51 340.132C237.331 339.927 238.227 339.824 239.198 339.824C240.766 339.824 242.156 340.095 243.37 340.636C244.583 341.159 245.591 341.905 246.394 342.876C247.215 343.828 247.831 344.976 248.242 346.32C248.671 347.645 248.886 349.111 248.886 350.716V369H241.97V350.716C241.97 348.961 241.568 347.608 240.766 346.656C239.963 345.685 238.74 345.2 237.098 345.2C235.903 345.2 234.783 345.471 233.738 346.012C232.692 346.553 231.703 347.291 230.77 348.224V369H223.854V340.272H228.082C228.978 340.272 229.566 340.692 229.846 341.532L230.322 343.8ZM264.656 369.448C262.155 369.448 260.232 368.748 258.888 367.348C257.563 365.929 256.9 363.979 256.9 361.496V345.452H253.96C253.587 345.452 253.269 345.331 253.008 345.088C252.747 344.845 252.616 344.481 252.616 343.996V341.252L257.236 340.496L258.692 332.656C258.785 332.283 258.963 331.993 259.224 331.788C259.485 331.583 259.821 331.48 260.232 331.48H263.816V340.524H271.488V345.452H263.816V361.02C263.816 361.916 264.031 362.616 264.46 363.12C264.908 363.624 265.515 363.876 266.28 363.876C266.709 363.876 267.064 363.829 267.344 363.736C267.643 363.624 267.895 363.512 268.1 363.4C268.324 363.288 268.52 363.185 268.688 363.092C268.856 362.98 269.024 362.924 269.192 362.924C269.397 362.924 269.565 362.98 269.696 363.092C269.827 363.185 269.967 363.335 270.116 363.54L272.188 366.9C271.18 367.74 270.023 368.375 268.716 368.804C267.409 369.233 266.056 369.448 264.656 369.448Z" fill="#FF3838"/>
<path id="SOCIAL" d="M87.448 226.536C87.384 226.648 87.3147 226.731 87.24 226.784C87.1707 226.832 87.0827 226.856 86.976 226.856C86.864 226.856 86.7413 226.816 86.608 226.736C86.48 226.651 86.3253 226.557 86.144 226.456C85.9627 226.355 85.7493 226.264 85.504 226.184C85.264 226.099 84.9787 226.056 84.648 226.056C84.3493 226.056 84.088 226.093 83.864 226.168C83.64 226.237 83.4507 226.336 83.296 226.464C83.1467 226.592 83.0347 226.747 82.96 226.928C82.8853 227.104 82.848 227.299 82.848 227.512C82.848 227.784 82.9227 228.011 83.072 228.192C83.2267 228.373 83.4293 228.528 83.68 228.656C83.9307 228.784 84.216 228.899 84.536 229C84.856 229.101 85.184 229.211 85.52 229.328C85.856 229.44 86.184 229.573 86.504 229.728C86.824 229.877 87.1093 230.069 87.36 230.304C87.6107 230.533 87.8107 230.816 87.96 231.152C88.1147 231.488 88.192 231.896 88.192 232.376C88.192 232.899 88.1013 233.389 87.92 233.848C87.744 234.301 87.4827 234.699 87.136 235.04C86.7947 235.376 86.376 235.643 85.88 235.84C85.384 236.032 84.816 236.128 84.176 236.128C83.808 236.128 83.4453 236.091 83.088 236.016C82.7307 235.947 82.3867 235.845 82.056 235.712C81.7307 235.579 81.424 235.419 81.136 235.232C80.848 235.045 80.592 234.837 80.368 234.608L81 233.576C81.0533 233.501 81.1227 233.44 81.208 233.392C81.2933 233.339 81.384 233.312 81.48 233.312C81.6133 233.312 81.7573 233.368 81.912 233.48C82.0667 233.587 82.2507 233.707 82.464 233.84C82.6773 233.973 82.9253 234.096 83.208 234.208C83.496 234.315 83.84 234.368 84.24 234.368C84.8533 234.368 85.328 234.224 85.664 233.936C86 233.643 86.168 233.224 86.168 232.68C86.168 232.376 86.0907 232.128 85.936 231.936C85.7867 231.744 85.5867 231.584 85.336 231.456C85.0853 231.323 84.8 231.211 84.48 231.12C84.16 231.029 83.8347 230.931 83.504 230.824C83.1733 230.717 82.848 230.589 82.528 230.44C82.208 230.291 81.9227 230.096 81.672 229.856C81.4213 229.616 81.2187 229.317 81.064 228.96C80.9147 228.597 80.84 228.152 80.84 227.624C80.84 227.203 80.9227 226.792 81.088 226.392C81.2587 225.992 81.504 225.637 81.824 225.328C82.144 225.019 82.5387 224.771 83.008 224.584C83.4773 224.397 84.016 224.304 84.624 224.304C85.3067 224.304 85.936 224.411 86.512 224.624C87.088 224.837 87.5787 225.136 87.984 225.52L87.448 226.536ZM101.101 230.216C101.101 231.064 100.96 231.851 100.677 232.576C100.4 233.296 100.005 233.92 99.4933 234.448C98.9813 234.976 98.3653 235.389 97.6453 235.688C96.9253 235.981 96.1253 236.128 95.2453 236.128C94.3706 236.128 93.5733 235.981 92.8533 235.688C92.1333 235.389 91.5146 234.976 90.9973 234.448C90.4853 233.92 90.0879 233.296 89.8053 232.576C89.5226 231.851 89.3813 231.064 89.3813 230.216C89.3813 229.368 89.5226 228.584 89.8053 227.864C90.0879 227.139 90.4853 226.512 90.9973 225.984C91.5146 225.456 92.1333 225.045 92.8533 224.752C93.5733 224.453 94.3706 224.304 95.2453 224.304C95.8319 224.304 96.3839 224.373 96.9013 224.512C97.4186 224.645 97.8933 224.837 98.3253 225.088C98.7573 225.333 99.1439 225.635 99.4853 225.992C99.8319 226.344 100.125 226.739 100.365 227.176C100.605 227.613 100.787 228.088 100.909 228.6C101.037 229.112 101.101 229.651 101.101 230.216ZM98.9013 230.216C98.9013 229.581 98.8159 229.013 98.6453 228.512C98.4746 228.005 98.2319 227.576 97.9173 227.224C97.6026 226.872 97.2186 226.603 96.7653 226.416C96.3173 226.229 95.8106 226.136 95.2453 226.136C94.6799 226.136 94.1706 226.229 93.7173 226.416C93.2693 226.603 92.8853 226.872 92.5653 227.224C92.2506 227.576 92.0079 228.005 91.8373 228.512C91.6666 229.013 91.5813 229.581 91.5813 230.216C91.5813 230.851 91.6666 231.421 91.8373 231.928C92.0079 232.429 92.2506 232.856 92.5653 233.208C92.8853 233.555 93.2693 233.821 93.7173 234.008C94.1706 234.195 94.6799 234.288 95.2453 234.288C95.8106 234.288 96.3173 234.195 96.7653 234.008C97.2186 233.821 97.6026 233.555 97.9173 233.208C98.2319 232.856 98.4746 232.429 98.6453 231.928C98.8159 231.421 98.9013 230.851 98.9013 230.216ZM110.935 233.272C111.052 233.272 111.156 233.317 111.247 233.408L112.095 234.328C111.626 234.909 111.047 235.355 110.359 235.664C109.676 235.973 108.855 236.128 107.895 236.128C107.036 236.128 106.263 235.981 105.575 235.688C104.892 235.395 104.308 234.987 103.823 234.464C103.338 233.941 102.964 233.317 102.703 232.592C102.447 231.867 102.319 231.075 102.319 230.216C102.319 229.347 102.458 228.552 102.735 227.832C103.012 227.107 103.402 226.483 103.903 225.96C104.41 225.437 105.012 225.032 105.711 224.744C106.41 224.451 107.183 224.304 108.031 224.304C108.874 224.304 109.62 224.443 110.271 224.72C110.927 224.997 111.484 225.36 111.943 225.808L111.223 226.808C111.18 226.872 111.124 226.928 111.055 226.976C110.991 227.024 110.9 227.048 110.783 227.048C110.703 227.048 110.62 227.027 110.535 226.984C110.45 226.936 110.356 226.88 110.255 226.816C110.154 226.747 110.036 226.672 109.903 226.592C109.77 226.512 109.615 226.44 109.439 226.376C109.263 226.307 109.058 226.251 108.823 226.208C108.594 226.16 108.327 226.136 108.023 226.136C107.506 226.136 107.031 226.229 106.599 226.416C106.172 226.597 105.804 226.864 105.495 227.216C105.186 227.563 104.946 227.989 104.775 228.496C104.604 228.997 104.519 229.571 104.519 230.216C104.519 230.867 104.61 231.445 104.791 231.952C104.978 232.459 105.228 232.885 105.543 233.232C105.858 233.579 106.228 233.845 106.655 234.032C107.082 234.213 107.54 234.304 108.031 234.304C108.324 234.304 108.588 234.288 108.823 234.256C109.063 234.224 109.282 234.173 109.479 234.104C109.682 234.035 109.871 233.947 110.047 233.84C110.228 233.728 110.407 233.592 110.583 233.432C110.636 233.384 110.692 233.347 110.751 233.32C110.81 233.288 110.871 233.272 110.935 233.272ZM115.729 236H113.569V224.432H115.729V236ZM124.431 231.632L123.023 227.784C122.954 227.613 122.882 227.411 122.807 227.176C122.733 226.941 122.658 226.688 122.583 226.416C122.514 226.688 122.442 226.944 122.367 227.184C122.293 227.419 122.221 227.624 122.151 227.8L120.751 231.632H124.431ZM128.231 236H126.567C126.381 236 126.229 235.955 126.111 235.864C125.994 235.768 125.906 235.651 125.847 235.512L124.983 233.152H120.191L119.327 235.512C119.285 235.635 119.202 235.747 119.079 235.848C118.957 235.949 118.805 236 118.623 236H116.943L121.495 224.432H123.687L128.231 236ZM136.205 234.224V236H129.429V224.432H131.581V234.224H136.205Z" fill="#FF3838" fill-opacity="0.5"/>
</g>
<rect id="Rectangle 3" x="587.5" y="139.5" width="211" height="211" rx="105.5" stroke="#FF0000"/>
<rect id="Rectangle 4" x="675.5" y="200.5" width="211" height="211" rx="105.5" stroke="#FF0000"/>
<rect id="Rectangle 5" x="569.5" y="250.5" width="211" height="211" rx="105.5" stroke="#FF0000"/>
</g>
</svg>
