<?xml version="1.0" encoding="UTF-8"?>
<svg width="1024px" height="600px" viewBox="0 0 1024 600" version="1.1" xmlns="http://www.w3.org/2000/svg" xmlns:xlink="http://www.w3.org/1999/xlink">
    <title>social_hero</title>
    <defs>
        <path d="M110,0.5 C139.213115,0.5 166.668033,10.7216566 187.405738,29.2771865 C208.413934,48.1089773 220,73.2026839 220,100 C220,126.797316 208.413934,151.891023 187.45082,170.722814 C166.713115,189.278343 139.213115,199.5 110.045082,199.5 C101.389344,199.5 92.8237705,198.57913 84.4836066,196.783434 C80.1106557,195.862564 77.2704918,191.442388 78.2172131,186.976168 C79.1188525,182.509949 83.4467213,179.609209 87.8196721,180.576122 C95.0327869,182.141601 102.516393,182.924341 110,182.924341 C161.709016,182.924341 203.770492,145.721194 203.770492,100 C203.770492,54.2788061 161.709016,17.0756594 110,17.0756594 C58.2909836,17.0756594 16.2295082,54.2788061 16.2295082,100 C16.2295082,118.969921 23.307377,136.880842 36.7418033,151.706849 C38.7704918,154.009024 39.4467213,157.278112 38.3647541,160.224896 C36.2008197,166.210551 33.2704918,171.505553 29.5737705,176.017816 C36.0204918,175.511337 43.4590164,173.761684 50.4918033,169.479639 C54.3237705,167.131421 59.3278689,168.420639 61.6270492,172.334336 C63.9262295,176.248033 62.6639344,181.358862 58.8319672,183.70708 C42.0163934,193.97478 23.8934426,193.330171 14.6065574,191.99491 C10.0983607,191.350301 6.49180328,188.035169 5.5,183.476863 C4.46311475,178.872513 6.31147541,174.222119 10.1885246,171.643683 C14.8770492,168.512726 18.5737705,164.23068 21.2786885,158.843591 C7.52868852,141.85354 0,121.133966 0,100 C0,73.2026839 11.5860656,48.1089773 32.5942623,29.2771865 C53.3319672,10.7216566 80.7868852,0.5 110,0.5 Z M109.954918,89.1337344 C115.830866,89.1337344 120.594262,93.9987272 120.594262,100 C120.594262,106.001273 115.830866,110.866266 109.954918,110.866266 C104.07897,110.866266 99.3155738,106.001273 99.3155738,100 C99.3155738,93.9987272 104.07897,89.1337344 109.954918,89.1337344 Z M143.135246,89.1337344 C149.011193,89.1337344 153.77459,93.9987272 153.77459,100 C153.77459,106.001273 149.011193,110.866266 143.135246,110.866266 C137.259298,110.866266 132.495902,106.001273 132.495902,100 C132.495902,93.9987272 137.259298,89.1337344 143.135246,89.1337344 Z M76.7745902,89.1337344 C82.6505377,89.1337344 87.4139344,93.9987272 87.4139344,100 C87.4139344,106.001273 82.6505377,110.866266 76.7745902,110.866266 C70.8986426,110.866266 66.1352459,106.001273 66.1352459,100 C66.1352459,93.9987272 70.8986426,89.1337344 76.7745902,89.1337344 Z" id="path-1"></path>
        <path d="M98,-6.5 C127.213115,-6.5 154.668033,3.72165664 175.405738,22.2771865 C196.413934,41.1089773 208,66.2026839 208,93 C208,119.797316 196.413934,144.891023 175.45082,163.722814 C154.713115,182.278343 127.213115,192.5 98.045082,192.5 C89.3893443,192.5 80.8237705,191.57913 72.4836066,189.783434 C68.1106557,188.862564 65.2704918,184.442388 66.2172131,179.976168 C67.1188525,175.509949 71.4467213,172.609209 75.8196721,173.576122 C83.0327869,175.141601 90.5163934,175.924341 98,175.924341 C149.709016,175.924341 191.770492,138.721194 191.770492,93 C191.770492,47.2788061 149.709016,10.0756594 98,10.0756594 C46.2909836,10.0756594 4.2295082,47.2788061 4.2295082,93 C4.2295082,111.969921 11.307377,129.880842 24.7418033,144.706849 C26.7704918,147.009024 27.4467213,150.278112 26.3647541,153.224896 C24.2008197,159.210551 21.2704918,164.505553 17.5737705,169.017816 C24.0204918,168.511337 31.4590164,166.761684 38.4918033,162.479639 C42.3237705,160.131421 47.3278689,161.420639 49.6270492,165.334336 C51.9262295,169.248033 50.6639344,174.358862 46.8319672,176.70708 C30.0163934,186.97478 11.8934426,186.330171 2.60655738,184.99491 C-1.90163934,184.350301 -5.50819672,181.035169 -6.5,176.476863 C-7.53688525,171.872513 -5.68852459,167.222119 -1.81147541,164.643683 C2.87704918,161.512726 6.57377049,157.23068 9.27868852,151.843591 C-4.47131148,134.85354 -12,114.133966 -12,93 C-12,66.2026839 -0.413934426,41.1089773 20.5942623,22.2771865 C41.3319672,3.72165664 68.7868852,-6.5 98,-6.5 Z M97.954918,82.1337344 C103.830866,82.1337344 108.594262,86.9987272 108.594262,93 C108.594262,99.0012728 103.830866,103.866266 97.954918,103.866266 C92.0789704,103.866266 87.3155738,99.0012728 87.3155738,93 C87.3155738,86.9987272 92.0789704,82.1337344 97.954918,82.1337344 Z M131.135246,82.1337344 C137.011193,82.1337344 141.77459,86.9987272 141.77459,93 C141.77459,99.0012728 137.011193,103.866266 131.135246,103.866266 C125.259298,103.866266 120.495902,99.0012728 120.495902,93 C120.495902,86.9987272 125.259298,82.1337344 131.135246,82.1337344 Z M64.7745902,82.1337344 C70.6505377,82.1337344 75.4139344,86.9987272 75.4139344,93 C75.4139344,99.0012728 70.6505377,103.866266 64.7745902,103.866266 C58.8986426,103.866266 54.1352459,99.0012728 54.1352459,93 C54.1352459,86.9987272 58.8986426,82.1337344 64.7745902,82.1337344 Z" id="path-3"></path>
        <path d="M108,-11.5 C137.213115,-11.5 164.668033,-1.27834336 185.405738,17.2771865 C206.413934,36.1089773 218,61.2026839 218,88 C218,114.797316 206.413934,139.891023 185.45082,158.722814 C164.713115,177.278343 137.213115,187.5 108.045082,187.5 C99.3893443,187.5 90.8237705,186.57913 82.4836066,184.783434 C78.1106557,183.862564 75.2704918,179.442388 76.2172131,174.976168 C77.1188525,170.509949 81.4467213,167.609209 85.8196721,168.576122 C93.0327869,170.141601 100.516393,170.924341 108,170.924341 C159.709016,170.924341 201.770492,133.721194 201.770492,88 C201.770492,42.2788061 159.709016,5.07565942 108,5.07565942 C56.2909836,5.07565942 14.2295082,42.2788061 14.2295082,88 C14.2295082,106.969921 21.307377,124.880842 34.7418033,139.706849 C36.7704918,142.009024 37.4467213,145.278112 36.3647541,148.224896 C34.2008197,154.210551 31.2704918,159.505553 27.5737705,164.017816 C34.0204918,163.511337 41.4590164,161.761684 48.4918033,157.479639 C52.3237705,155.131421 57.3278689,156.420639 59.6270492,160.334336 C61.9262295,164.248033 60.6639344,169.358862 56.8319672,171.70708 C40.0163934,181.97478 21.8934426,181.330171 12.6065574,179.99491 C8.09836066,179.350301 4.49180328,176.035169 3.5,171.476863 C2.46311475,166.872513 4.31147541,162.222119 8.18852459,159.643683 C12.8770492,156.512726 16.5737705,152.23068 19.2786885,146.843591 C5.52868852,129.85354 -2,109.133966 -2,88 C-2,61.2026839 9.58606557,36.1089773 30.5942623,17.2771865 C51.3319672,-1.27834336 78.7868852,-11.5 108,-11.5 Z M107.954918,77.1337344 C113.830866,77.1337344 118.594262,81.9987272 118.594262,88 C118.594262,94.0012728 113.830866,98.8662656 107.954918,98.8662656 C102.07897,98.8662656 97.3155738,94.0012728 97.3155738,88 C97.3155738,81.9987272 102.07897,77.1337344 107.954918,77.1337344 Z M141.135246,77.1337344 C147.011193,77.1337344 151.77459,81.9987272 151.77459,88 C151.77459,94.0012728 147.011193,98.8662656 141.135246,98.8662656 C135.259298,98.8662656 130.495902,94.0012728 130.495902,88 C130.495902,81.9987272 135.259298,77.1337344 141.135246,77.1337344 Z M74.7745902,77.1337344 C80.6505377,77.1337344 85.4139344,81.9987272 85.4139344,88 C85.4139344,94.0012728 80.6505377,98.8662656 74.7745902,98.8662656 C68.8986426,98.8662656 64.1352459,94.0012728 64.1352459,88 C64.1352459,81.9987272 68.8986426,77.1337344 74.7745902,77.1337344 Z" id="path-5"></path>
    </defs>
    <g id="social_hero" stroke="none" stroke-width="1" fill="none" fill-rule="evenodd">
        <g id="Group-2" transform="translate(677.000000, 200.000000)">
            <mask id="mask-2" fill="white">
                <use xlink:href="#path-1"></use>
            </mask>
            <use id="icon/speech-bubble-1" fill-opacity="0.5" fill="#FF0044" fill-rule="nonzero" xlink:href="#path-1"></use>
            <mask id="mask-4" fill="white">
                <use xlink:href="#path-3"></use>
            </mask>
            <use id="icon/speech-bubble-1" fill-opacity="0.5" fill="#00FBFF" fill-rule="nonzero" xlink:href="#path-3"></use>
            <mask id="mask-6" fill="white">
                <use xlink:href="#path-5"></use>
            </mask>
            <use id="icon/speech-bubble-1" fill-opacity="0.5" fill="#EEFF00" fill-rule="nonzero" xlink:href="#path-5"></use>
        </g>
        <g id="Group-43" transform="translate(80.000000, 220.000000)" font-family="Lato-Bold, Lato" font-weight="bold">
            <text id="Multi-platform-conte" font-size="56" fill="#222222">
                <tspan x="0" y="82">Multi-platform </tspan>
                <tspan x="0" y="149">content</tspan>
            </text>
            <text id="SOCIAL" font-size="16" fill="#666666">
                <tspan x="0" y="16">SOCIAL</tspan>
            </text>
        </g>
    </g>
</svg>