<?xml version="1.0" encoding="UTF-8"?>
<svg width="1024px" height="600px" viewBox="0 0 1024 600" version="1.1" xmlns="http://www.w3.org/2000/svg" xmlns:xlink="http://www.w3.org/1999/xlink">
    <!-- Generator: Sketch 58 (84663) - https://sketch.com -->
    <title>tes for schools hero</title>
    <desc>Created with Sketch.</desc>
    <g id="tes-for-schools-hero" stroke="none" stroke-width="1" fill="none" fill-rule="evenodd">
        <rect fill="#E3FBF8" x="0" y="0" width="1024" height="600"></rect>
        <g id="undraw_exams_g4ow" transform="translate(332.000000, 263.000000)" fill-rule="nonzero">
            <path d="M313,196.176863 C313,196.350074 313,196.523286 313,196.693658 C312.968316,199.680846 312.790219,202.660462 312.464502,205.632506 C312.466054,205.650456 312.466054,205.668506 312.464502,205.686457 C312.438788,205.933496 312.410216,206.177696 312.381645,206.424735 C312.333073,206.842147 312.281644,207.256718 312.2245,207.67413 C311.55839,212.754958 310.456271,217.769862 308.93019,222.664022 L308.93019,222.664022 C306.885704,229.277401 303.995392,235.602573 300.330125,241.484443 C299.202498,243.282814 298.001536,245.023447 296.727241,246.706343 L296.727241,246.706343 C296.047236,247.597956 295.352945,248.469693 294.635797,249.327232 C294.132936,249.92732 293.620551,250.517942 293.098642,251.0991 L292.772926,251.456881 C290.026842,254.453417 287.066751,257.249098 283.915716,259.822144 C278.77282,264.058726 273.235636,267.744439 267.609879,271.163236 C267.289877,271.359164 266.967017,271.552252 266.644158,271.731143 C266.621659,271.747407 266.597756,271.761661 266.572729,271.773736 C258.926957,276.3681 250.998326,280.513817 242.829693,283.83323 C233.886769,287.476351 224.652414,290.125634 215.178057,291.284164 C201.972243,292.897018 188.606428,291.585154 175.480615,289.330565 C164.564182,287.466454 153.779878,284.905575 143.194658,281.663828 L141.451788,281.121477 C140.548924,280.835631 139.647013,280.544105 138.746053,280.246901 C133.304108,278.457995 127.923115,276.470323 122.603075,274.283883 C109.241538,268.814598 96.4770977,262.003175 84.5085028,253.95567 C82.9846818,252.937224 81.4827657,251.896062 80.0027546,250.832184 C77.9341676,249.351841 75.8903427,247.827959 73.8712799,246.260537 L72.6255563,245.300775 C67.3416592,241.188801 62.3911393,236.670442 57.8197307,231.78744 C51.671113,225.137254 46.4167878,217.63521 42.9624761,209.07118 C42.4177101,207.725241 41.9186587,206.353747 41.465322,204.956697 L41.4224645,204.81756 C41.1938914,204.107677 40.9824612,203.397794 40.7881741,202.659515 C40.5024576,201.603209 40.2519795,200.533652 40.0367398,199.450844 C39.9910252,199.243558 39.9510249,199.036272 39.9138818,198.826146 C39.230987,195.1821 38.9293783,191.477602 39.013875,187.771846 C39.0853342,184.524933 39.4680198,181.292179 40.1567407,178.117436 L40.1567407,178.117436 C40.8616649,174.826391 41.9479664,171.627618 43.3939079,168.585125 L43.3939079,168.585125 C44.7006054,165.849289 46.3655195,163.297153 48.3453737,160.995055 L48.3453737,160.995055 C49.7366013,159.385551 51.3011993,157.932494 53.0111231,156.661929 C56.1111464,154.367586 59.5483151,152.76893 63.111199,151.505338 L63.111199,151.505338 C64.7854973,150.909036 66.4826529,150.386562 68.1883801,149.901002 C69.3969606,149.554579 70.6112554,149.225193 71.8198359,148.901486 L75.385577,147.944564 C77.6713085,147.325546 79.95704,146.68949 82.2084855,146.002324 C88.3456745,144.13959 94.3600054,141.885002 99.9229044,138.522995 C100.802911,137.992002 101.700061,137.409898 102.59721,136.785201 C103.740076,135.995811 104.865799,135.138272 105.980093,134.212585 L105.980093,134.212585 C107.105816,133.275539 108.208681,132.273184 109.260117,131.211199 C109.422976,131.046506 109.582977,130.881813 109.742978,130.714281 C110.600127,129.816988 111.431562,128.877103 112.202997,127.900304 C112.580142,127.423263 112.945859,126.937703 113.294433,126.443624 C113.777294,125.759297 114.234441,125.063611 114.657301,124.348049 L114.657301,124.348049 C116.777317,120.770238 118.085898,116.823288 117.931611,112.663373 C117.909054,111.977976 117.847047,111.294424 117.745896,110.61607 C117.374464,108.108763 117.017319,105.661086 116.754459,103.26736 C115.651594,93.3659099 116.117312,84.3873082 123.594511,75.9510572 C132.891724,65.4646637 147.483262,63.3264958 160.766219,64.1641579 C199.169365,66.5777605 234.129628,88.3683328 264.852716,114.310302 C267.509879,116.551639 270.13466,118.823265 272.727061,121.12518 C273.380399,121.704444 274.03469,122.287495 274.689933,122.874332 C279.547112,127.221656 284.330005,131.730833 288.784324,136.560878 C289.144327,136.952734 289.50433,137.344589 289.858618,137.739284 C290.075763,137.983484 290.295764,138.224844 290.510052,138.471883 C291.898633,140.033626 293.246263,141.63323 294.552939,143.270693 C298.053269,147.617785 301.144376,152.275258 303.787294,157.184403 C307.834077,164.888615 310.573766,173.203749 311.895927,181.794631 L311.895927,181.794631 C312.393043,184.914375 312.720188,188.058534 312.875934,191.21336 C312.924506,192.141887 312.955935,193.073254 312.973078,194.001781 C312.973078,194.299932 312.973078,194.595243 312.973078,194.893394 C313,195.325003 313,195.745254 313,196.176863 Z" id="Path" fill="#3B99D0" opacity="0.1"></path>
            <path d="M69,40.9861541 C69,41.0241391 69,41.062124 69,41.0994863 C68.9930618,41.7545714 68.9540626,42.407996 68.8827377,43.05976 C68.8830775,43.0636966 68.8830775,43.0676549 68.8827377,43.0715914 C68.8771068,43.1257667 68.8708503,43.1793193 68.8645937,43.2334946 C68.8539575,43.3250322 68.8426957,43.415947 68.8301826,43.5074846 C68.6843191,44.6217014 68.442979,45.7214611 68.1088007,46.7947416 L68.1088007,46.7947416 C67.661103,48.2450441 67.028188,49.6321432 66.2255749,50.922027 C65.9786492,51.3164065 65.7156649,51.6981243 65.4366221,52.0671805 L65.4366221,52.0671805 C65.2877159,52.2627097 65.1356814,52.45388 64.9786416,52.6419368 C64.8685261,52.773535 64.7563251,52.9030575 64.6420385,53.0305044 L64.5707137,53.1089651 C63.9693815,53.7661002 63.3211864,54.3791882 62.6311787,54.9434526 C61.5049972,55.8725277 60.292475,56.6807981 59.0605575,57.4305343 C58.990484,57.4735009 58.9197848,57.5158448 58.8490857,57.5550752 C58.844159,57.558642 58.8389248,57.5617677 58.8334442,57.5644158 C57.1591877,58.5719516 55.4229911,59.4811002 53.6342394,60.2090418 C51.6759347,61.0079716 49.6538132,61.5889549 47.5791365,61.8430183 C44.6873525,62.1967145 41.7605317,61.909025 38.8862661,61.4145977 C36.4958063,61.0058014 34.1342798,60.4442051 31.8163485,59.7332955 L31.4346981,59.614359 C31.2369907,59.5516734 31.0394918,59.4877424 30.8422015,59.422566 C29.6505345,59.0302622 28.4722149,58.594369 27.3072427,58.1148866 C24.3813588,56.9154821 21.5862258,55.4217488 18.9653656,53.6569451 C18.6316821,53.4336017 18.3027954,53.2052768 17.9787054,52.9719702 C17.5257301,52.6473335 17.0781772,52.3131488 16.6360467,51.9694159 L16.3632605,51.7589418 C15.2062027,50.8571933 14.1221473,49.8663251 13.1211089,48.7954911 C11.7746963,47.3371172 10.6241141,45.6919319 9.8676955,43.8138552 C9.74840367,43.5186933 9.63912235,43.217927 9.53985153,42.9115564 L9.53046669,42.8810439 C9.48041417,42.7253677 9.4341156,42.5696916 9.39157096,42.4077884 C9.32900532,42.1761424 9.27415611,41.9415903 9.22702332,41.7041324 C9.21701282,41.6586749 9.20825363,41.6132175 9.20012009,41.5671374 C9.05058109,40.7680045 8.98453539,39.9556146 9.00303832,39.1429488 C9.01868632,38.4309063 9.10248608,37.721969 9.25330089,37.0257535 L9.25330089,37.0257535 C9.40766385,36.3040331 9.64554008,35.6025478 9.96216962,34.9353345 L9.96216962,34.9353345 C10.2483078,34.3353705 10.6128875,33.7756915 11.0464322,33.2708454 L11.0464322,33.2708454 C11.3510806,32.9178841 11.6936933,32.5992312 12.0681291,32.3205984 C12.7469664,31.8174531 13.499631,31.4668705 14.2798246,31.189767 L14.2798246,31.189767 C14.6464593,31.0589991 15.0180992,30.9444214 15.3916161,30.837939 C15.6562687,30.761969 15.9221727,30.6897353 16.1868254,30.618747 L16.9676446,30.4088956 C17.4681697,30.273146 17.9686949,30.1336602 18.4617121,29.9829657 C19.8056221,29.5744716 21.1226289,29.0800442 22.340782,28.3427621 C22.5334842,28.2263163 22.7299403,28.0986619 22.9263964,27.9616669 C23.176659,27.7885551 23.4231676,27.6004983 23.6671736,27.3974967 L23.6671736,27.3974967 C23.9136822,27.1920042 24.1551856,26.9721895 24.3854272,26.739298 C24.4210896,26.7031811 24.4561263,26.6670643 24.4911631,26.6303247 C24.67886,26.4335501 24.8609261,26.2274349 25.0298533,26.0132246 C25.1124399,25.9086102 25.192524,25.8021277 25.268854,25.6937772 C25.37459,25.5437054 25.474695,25.3911428 25.5672922,25.2342212 L25.5672922,25.2342212 C26.0315292,24.4496136 26.3180799,23.5840543 26.2842944,22.6717923 C26.2793549,22.521486 26.2657768,22.3715843 26.2436268,22.2228223 C26.1622914,21.6729743 26.0840844,21.136203 26.026524,20.6112631 C25.7850206,18.4398925 25.8870026,16.4709009 27.5243455,14.6208459 C29.5602315,12.3211982 32.7554588,11.8523017 35.6641355,12.0359995 C44.0735835,12.5652984 51.7291155,17.3439326 58.4567991,23.0329609 C59.0386595,23.5244823 59.6134293,24.0226459 60.1811082,24.5274516 C60.3241749,24.6544834 60.4674503,24.7823454 60.6109341,24.9110376 C61.6745501,25.8643982 62.7218989,26.8532529 63.6972973,27.9124733 C63.77613,27.9984065 63.8549627,28.0843397 63.9325441,28.1708956 C63.980094,28.2244482 64.0282695,28.2773781 64.0751938,28.3315534 C64.3792628,28.6740409 64.6743641,29.0248311 64.9604976,29.383924 C65.7269933,30.3372336 66.403878,31.3586093 66.9826192,32.435176 C67.8687759,34.1246963 68.4687078,35.9481907 68.7582321,37.8321558 L68.7582321,37.8321558 C68.8670896,38.5163102 68.9387274,39.2058188 68.9728323,39.8976666 C68.9834684,40.101291 68.9903506,40.3055381 68.9941046,40.5091624 C68.9941046,40.5745464 68.9941046,40.6393077 68.9941046,40.7046917 C69,40.7993427 69,40.891503 69,40.9861541 Z" id="Path-Copy" fill="#3B99D0" opacity="0.1" transform="translate(39.000000, 37.000000) rotate(-30.000000) translate(-39.000000, -37.000000) "></path>
            <polygon id="Path" fill="#3F3D56" points="152.413793 191.134948 148 271.940415 152.413793 272 156 190"></polygon>
            <rect id="Rectangle" fill="#9BD03B" x="79" y="232" width="56" height="12"></rect>
            <path d="M139,244 L139,251 L81.0774371,251 C79.0270808,249.648395 77.0012685,248.257037 75,246.825926 L75,244 L139,244 Z" id="Path" fill="#3F3D56"></path>
            <path d="M150.608554,225.694136 C150.449704,226.427996 150.242631,227.153356 150.024211,227.875882 C149.380299,229.964126 148.605902,232.024035 148.455562,234.194448 C148.254162,237.061886 149.022885,240.396842 147.037253,242.479419 C146.526662,243.017772 145.860057,243.42012 145.403362,243.995308 C145.333024,244.085508 145.268593,244.180153 145.210472,244.278651 C144.801999,244.95301 144.753776,245.774706 144.748103,246.545401 C144.752879,248.189124 144.859931,249.83096 145.068641,251.461415 C145.740919,257.071621 147.068456,262.693161 145.323936,267.988856 C145.007839,268.907329 144.639423,269.806997 144.220492,270.683454 C143.369507,272.553523 142.441933,274.398091 142.163945,276.423999 C141.959708,277.92572 142.022114,279.472777 142.010767,281 C141.114396,280.714767 140.218971,280.423868 139.324491,280.127301 C133.92168,278.342236 128.579385,276.35883 123.297603,274.177083 C123.311786,274.10058 123.325969,274.021244 123.337316,273.944741 C123.742952,271.422982 123.186975,268.844554 122.51186,266.38513 C121.093552,261.174439 119.085227,256.014749 117.896684,250.767223 C117.418046,248.717656 117.104074,246.633172 116.957764,244.533661 C116.923724,244.06331 116.903868,243.590126 116.901031,243.116942 C116.886848,242.499253 116.901031,241.881563 116.926561,241.258207 C116.98613,240.014328 117.040026,238.538107 116.044373,237.78158 C115.496906,237.370731 114.773568,237.299895 114.13533,237.050553 C112.904238,236.571702 112.061762,235.460994 111.085966,234.571295 C110.141039,233.65565 108.805302,233.263538 107.514665,233.522923 C101.137949,234.982143 96.4518576,240.385509 90.5176543,243.116942 C90.2878883,243.224613 90.0581223,243.326617 89.8255197,243.422953 C89.0579021,243.703734 88.3273121,244.076707 87.6498343,244.533661 C87.1737756,244.863738 86.828517,245.349967 86.6740379,245.907878 C86.5236972,246.508567 86.6541816,247.13759 86.7279337,247.755279 C86.8473151,248.759604 86.8042155,249.77657 86.6002859,250.767223 C86.5233712,251.151084 86.4219922,251.529646 86.2967678,251.900598 C86.0698385,252.572123 85.7663204,253.22948 85.4769855,253.884004 C83.9641229,252.867745 82.4730078,251.828818 81.00364,250.767223 C78.9499292,249.290058 76.9208023,247.769446 74.9162594,246.205389 L73.6993506,245.227853 C68.4534523,241.124706 63.5385337,236.616046 59,231.743524 C59.6041995,230.043462 60.4778776,228.462404 60.8976969,226.71984 C61.1359728,225.719637 61.2239079,224.679765 61.5529555,223.707896 C61.9324131,222.70032 62.4601529,221.754892 63.1187683,220.902793 C65.5308738,217.542703 68.4762383,214.598726 71.8385297,212.18714 C75.3530985,209.671047 79.4122978,207.65364 82.575126,204.797535 C83.85866,203.675077 84.9651255,202.365428 85.8570922,200.912892 C85.9109879,200.825056 85.962047,200.731552 86.0074329,200.629549 C86.2543148,200.116698 86.4253501,199.570763 86.5151874,199.008822 C86.7421167,197.739442 86.7080773,196.345391 86.821542,195.127013 C90.6744874,195.793218 94.6024227,195.911505 98.4885488,195.478359 C103.012953,194.971174 107.438076,193.715961 111.962481,193.22861 C112.302875,193.188942 112.646106,193.157774 112.989336,193.12944 C114.438848,193.013269 115.891196,192.987768 117.34638,193.004769 C118.563289,193.004769 119.780198,193.058604 120.997107,193.098272 L134.39445,193.551622 C135.878001,193.602624 137.392754,193.659293 138.774187,194.200479 C140.413752,194.843669 141.727106,196.124383 142.779491,197.532601 C142.912812,197.713941 143.046133,197.895281 143.170944,198.082288 C144.036912,199.344115 144.731331,200.7152 145.236001,202.159605 C145.289897,202.306943 145.340956,202.442948 145.389178,202.604454 C145.516826,202.998302 145.627454,203.394983 145.726736,203.797332 C145.803325,204.111843 145.871403,204.426355 145.933809,204.7437 C146.245837,206.313424 146.430217,207.91715 146.923788,209.433039 C146.957828,209.543543 146.994704,209.654047 147.034416,209.761717 C147.62727,211.422112 148.611576,212.909666 149.354769,214.504891 C149.890612,215.659666 150.299582,216.86905 150.574515,218.111857 C151.130111,220.607597 151.14172,223.193519 150.608554,225.694136 Z" id="Path" fill="#35323E"></path>
            <path d="M109.83274,123.470382 C108.624012,122.513301 106.87107,123.214021 105.456114,123.832136 C104.269774,124.353211 103.048578,124.791973 101.801287,125.145273 C101.546031,125.242971 101.269259,125.271478 100.999288,125.227878 C100.426431,125.091153 100.185831,124.416069 99.7590525,124.005892 C99.017203,123.296626 97.8027465,123.464685 96.8460756,123.849227 C95.8894048,124.233768 94.944191,124.789216 93.9187773,124.703763 C92.8246208,124.618309 91.8736785,123.815045 90.7680648,123.789409 C88.8203517,123.743834 87.1848455,126.130839 85.3431108,125.498482 C84.2203114,125.11394 83.338112,123.661229 82.2324983,124.074254 C81.3732131,124.398978 81.2958774,125.581087 80.777442,126.353018 C80.1673495,127.25313 78.9786716,127.506642 77.9618508,127.905426 C74.7567169,129.164443 72.6342824,132.716465 73.0524679,136.11752 C73.2844749,137.994651 74.1981815,139.715118 74.8025454,141.506796 C76.5955873,146.716619 75.9797662,152.59298 78.2396863,157.617654 C78.5261147,157.349899 78.6865146,157.250203 78.9643502,156.985297 C78.2497961,158.459086 78.1119685,160.144489 78.5776718,161.713731 C78.8154074,162.502753 79.2020858,163.237655 79.4942427,164.009586 C79.7977356,164.875374 80.0427004,165.760368 80.2274995,166.658648 L82.7194266,177.591016 C83.6932832,181.863698 84.670004,186.13638 84.8389968,190.511606 C84.9442144,193.356515 84.7251329,196.204123 84.18594,199 C88.7000517,198.256553 92.8303494,196.265484 97.404611,196.29112 C99.0830815,196.29112 100.747231,196.575965 102.41138,196.803842 C107.263249,197.479032 112.157352,197.809341 117.056464,197.792255 C117.818421,197.835384 118.581461,197.728917 119.302063,197.478925 C119.932205,197.211171 120.447776,196.735479 121.043547,196.390816 C122.209311,195.707187 123.621403,195.536279 124.964752,195.536279 C131.091456,195.42519 136.994745,197.65553 143.081349,198.441703 C145.484483,193.425575 145.627698,187.415336 143.783099,182.171331 C143.23602,180.613227 142.499899,179.095 142.282214,177.457139 C142.194809,176.450305 142.171849,175.438963 142.213471,174.429232 C142.203926,171.844204 141.73559,169.281146 140.830022,166.85804 C140.474851,165.909505 140.048072,164.943879 140.085308,163.932677 C140.122544,162.921476 140.623793,161.978638 141.11645,161.084223 C142.116085,159.261212 143.121449,157.421111 144.533541,155.882945 C145.980005,154.293508 147.790232,153.082914 149.58041,151.895109 L154,148.94411 C153.395636,145.14712 152.616551,141.14789 150.99823,137.655685 C149.37991,134.16348 146.95959,130.953272 143.685713,128.91093 C142.58192,128.250584 141.426796,127.679072 140.231386,127.201857 C138.558645,126.501138 136.81716,125.883023 135.004068,125.77763 C132.941784,125.660844 130.911006,126.210595 128.8745,126.55241 C122.464232,127.626277 114.919708,127.495248 109.83274,123.470382 Z" id="Path" fill="#9BD03B"></path>
            <path d="M158,190.247694 L155.909188,192.829417 L151.96684,197.694865 L147.409213,203.317842 L146.135925,204.888599 L143.666261,204.888599 L82.5114428,204.958225 L44.2131275,205 L42.5040171,205 C42.2761358,204.303742 42.0653455,203.607485 41.8716463,202.883377 C41.5867946,201.847346 41.3370745,200.798317 41.1224862,199.736292 C41.07691,199.532985 41.0370307,199.329678 41,199.123586 L54.8950674,190.242124 L60.1192482,190.214273 L60.1192482,190.214273 L76.0994303,190.125152 L76.0994303,190.125152 L85.023835,190.075022 L86.6531869,190.075022 L87.6758046,190.075022 L87.6758046,190.075022 L93.6235088,190.044386 L93.6235088,190.044386 L138.954813,189.790949 L138.954813,189.790949 L141.273506,189.777023 L141.273506,189.777023 L142.279033,189.777023 L144.942397,189.763098 L154.852388,189.707398 L156.755198,189 L156.894775,189.144822 L158,190.247694 Z" id="Path" fill="#3F3D56"></path>
            <path d="M157,188.215395 L156.76371,188.499672 L155.209323,190.327575 L152.009448,194.099934 L145.29939,202 L85.8568731,200.484802 L41.0330022,199.347693 C40.9874524,199.140171 40.9475963,198.932648 40.9105871,198.722283 C40.2301542,195.074079 39.9296329,191.365353 40.013825,187.655368 L44.9844492,185.11393 L46.1231947,184.528318 L54.9854818,179.979882 L62.7631138,176 L83.0498654,178.632408 L87.5422165,179.215176 L89.5748772,179.476711 L92.5498499,179.863328 L92.800374,179.897442 L139.451931,185.938334 L144.607602,186.606385 L147.633818,186.998688 L156.960144,188.209709 L157,188.215395 Z" id="Path" fill="#504F60"></path>
            <path d="M147,202 L146.951342,203.120257 L146.665116,209.445573 L145.125224,244.221985 L144.798927,251.738821 L143.94025,271.076786 L143.45653,282 L141.710555,281.45555 C140.806082,281.168597 139.902564,280.875943 139,280.577588 L143.187478,204.753608 L143.276208,203.163014 L145.119499,202.592909 L147,202 Z" id="Path" fill="#3F3D56"></path>
            <path d="M44,202 L43.896789,204.844875 L43.7454128,209 C43.308104,207.686981 42.9074924,206.34903 42.543578,204.98615 L42.5091743,204.850416 C42.3256881,204.157895 42.1559633,203.465374 42,202.745152 L44,202 Z" id="Path" fill="#3F3D56"></path>
            <ellipse id="Oval" fill="#A1616A" cx="119" cy="141.5" rx="13" ry="17.5"></ellipse>
            <ellipse id="Oval" fill="#000000" opacity="0.1" cx="119" cy="141.5" rx="13" ry="17.5"></ellipse>
            <circle id="Oval" fill="#A1616A" cx="120" cy="131" r="18"></circle>
            <path d="M120.875034,103.40845 C119.7773,103.497795 118.687261,103.667428 117.613314,103.916043 C114.770195,104.621512 112.311965,106.187307 109.918352,107.724425 C108.845159,108.415554 107.741062,109.135361 107.075233,110.150547 C105.878426,111.971573 106.341978,114.288721 105.67053,116.310489 C105.322164,117.348617 104.68162,118.280639 104.139404,119.247073 C102.64761,121.89688 101.866595,124.807654 101.099627,127.689749 C100.942301,128.286243 100.89735,129.09495 101.535085,129.324371 C101.902312,129.402228 102.284313,129.358009 102.625135,129.19819 C104.639479,128.518531 107.198847,128.323524 108.693451,129.702915 C110.188055,131.082306 110.061631,133.528503 111.839985,134.578102 C113.876804,135.791163 117.057052,134.325739 118.90564,135.75675 C119.697893,136.37045 119.984452,137.354091 120.633425,138.093972 C122.144885,139.814626 125.05262,139.731461 127.471518,139.384463 C128.859365,139.18372 130.561865,139.048935 131.404686,140.044047 C131.809241,140.514359 131.924426,141.159604 132.393597,141.584033 C133.236419,142.352591 134.778782,141.962576 135.601938,141.173943 C136.425094,140.38531 136.818411,139.318504 137.503906,138.432367 C138.838374,136.711713 141.184227,135.773957 142.560836,134.073377 C143.712692,132.639498 144.061059,130.844282 144.375712,129.112157 L145.547234,122.691249 C146.022024,120.087325 146.454672,117.24251 145.019066,114.948305 C144.507754,114.122391 143.774499,113.411187 143.333423,112.556595 C143.038435,111.983044 142.87268,111.377947 142.529933,110.835941 C142.123493,110.271306 141.637886,109.770781 141.088708,109.350443 L138.315824,107.007485 C137.367754,106.160408 136.353986,105.393161 135.284475,104.71328 C131.326023,102.358851 125.398177,102.978287 120.875034,103.40845 Z" id="Path" fill="#464353"></path>
            <path d="M61.0075107,149.39178 C60.3243367,150.105583 59.6930492,150.876037 58.9608711,151.544519 C58.316787,152.107372 57.6432677,152.636834 56.9430573,153.130747 C55.8130817,153.961629 54.7080884,154.82178 53.6280776,155.711201 C52.5013239,156.586595 51.4817545,157.587514 50.5898267,158.693877 C49.050523,160.724815 48.3212275,163.251451 46.879932,165.350371 C45.6058267,167.211356 43.8099725,168.68145 42.5156891,170.528273 C41.9478846,171.304754 41.5261381,172.174855 41.2704098,173.097397 C41.0795259,173.990259 40.993447,174.901682 41.0138592,175.813813 C40.9879159,177.309399 40.9648551,178.821981 41.276175,180.28641 C41.5874948,181.750839 42.2706689,183.189774 43.4410009,184.150009 C44.5277377,185.042263 45.9315595,185.452982 47.3065555,185.792888 C48.0156729,185.965674 48.7824421,186.127129 49.4569684,185.852372 C49.9505488,185.607392 50.3789748,185.252365 50.7080129,184.815659 L54.2161262,180.850088 C56.5625553,178.18749 59.0012274,175.468241 62.2210816,173.910339 C63.2299884,173.425972 64.2936645,173.060573 65.305454,172.59037 C69.5947495,170.559431 72.6272353,166.401247 73.8033324,161.869166 C74.0915915,160.761639 74.2760774,159.631451 74.4634458,158.501263 L74.9707818,155.402453 C75.0097394,155.247098 75.0097394,155.084772 74.9707818,154.929417 C74.8913347,154.754727 74.7634725,154.605527 74.6018101,154.498869 C72.1582659,152.559746 69.8704043,150.438497 67.758539,148.153956 C67.2569681,147.610106 66.7871058,146.865145 66.207705,146.409105 C65.4812921,145.842594 65.5360613,145.885083 64.6626362,146.409105 C63.319035,147.245057 62.0905604,148.247524 61.0075107,149.39178 Z" id="Path" fill="#A1616A"></path>
            <path d="M84.2439648,170.315697 C84.1656941,170.138835 83.9952986,170.018395 83.800049,170.001925 C83.6047995,169.985455 83.4160743,170.075602 83.3083808,170.236776 C83.2006873,170.397951 83.1913327,170.604251 83.2840102,170.774231 L83,170.911232 L91.4691849,188 L93,187.264669 L84.5308151,170.164716 L84.2439648,170.315697 Z" id="Path" fill="#3F3D56"></path>
            <path d="M61.0075107,149.39178 C60.3243367,150.105583 59.6930492,150.876037 58.9608711,151.544519 C58.316787,152.107372 57.6432677,152.636834 56.9430573,153.130747 C55.8130817,153.961629 54.7080884,154.82178 53.6280776,155.711201 C52.5013239,156.586595 51.4817545,157.587514 50.5898267,158.693877 C49.050523,160.724815 48.3212275,163.251451 46.879932,165.350371 C45.6058267,167.211356 43.8099725,168.68145 42.5156891,170.528273 C41.9478846,171.304754 41.5261381,172.174855 41.2704098,173.097397 C41.0795259,173.990259 40.993447,174.901682 41.0138592,175.813813 C40.9879159,177.309399 40.9648551,178.821981 41.276175,180.28641 C41.5874948,181.750839 42.2706689,183.189774 43.4410009,184.150009 C44.5277377,185.042263 45.9315595,185.452982 47.3065555,185.792888 C48.0156729,185.965674 48.7824421,186.127129 49.4569684,185.852372 C49.9505488,185.607392 50.3789748,185.252365 50.7080129,184.815659 L54.2161262,180.850088 C56.5625553,178.18749 59.0012274,175.468241 62.2210816,173.910339 C63.2299884,173.425972 64.2936645,173.060573 65.305454,172.59037 C69.5947495,170.559431 72.6272353,166.401247 73.8033324,161.869166 C74.0915915,160.761639 74.2760774,159.631451 74.4634458,158.501263 L74.9707818,155.402453 C75.0097394,155.247098 75.0097394,155.084772 74.9707818,154.929417 C74.8913347,154.754727 74.7634725,154.605527 74.6018101,154.498869 C72.1582659,152.559746 69.8704043,150.438497 67.758539,148.153956 C67.2569681,147.610106 66.7871058,146.865145 66.207705,146.409105 C65.4812921,145.842594 65.5360613,145.885083 64.6626362,146.409105 C63.319035,147.245057 62.0905604,148.247524 61.0075107,149.39178 Z" id="Path" fill="#000000" opacity="0.04"></path>
            <path d="M158.987649,181.453087 C158.959389,183.306565 158.888739,185.21524 158.139849,186.906029 C157.817685,187.638124 157.317483,188.358598 156.568594,188.599724 C156.115383,188.707346 155.646361,188.725094 155.18668,188.652016 C149.642349,188.151087 144.055563,188.606697 138.657408,190 C140.098668,187.03676 139.27065,183.483778 139.669116,180.195163 C139.77933,179.297476 139.979976,178.414314 140.056278,177.513722 C140.338878,174.318071 139.007832,171.215385 138.397416,168.060406 C137.867528,165.329361 137.867528,162.517622 138.397416,159.786577 C138.501364,159.083584 138.736463,158.40786 139.089786,157.796558 C139.503717,157.201745 140.047719,156.71515 140.677998,156.375946 C142.967058,155.036678 145.665887,154.882706 148.237547,155.059919 C149.969885,155.17903 153.443038,155.010532 154.887124,156.105768 C156.466858,157.30559 156.96706,161.335015 157.393785,163.197207 C158.032722,166.053228 158.467206,168.953543 158.693745,171.874851 C158.970693,175.058881 159.030039,178.257437 158.987649,181.453087 Z" id="Path" fill="#A1616A"></path>
            <polygon id="Path" fill="#FFFFFF" points="57 188 67.1818182 195 113 193.25 82.7373737 188"></polygon>
            <path d="M70.1644737,133.799815 C68.4371301,135.270292 66.9728338,137.003254 65.3360954,138.569693 C63.0914256,140.720372 60.5398673,142.549295 58,144.369752 C59.8525795,144.869786 61.2959725,146.274351 61.7995713,148.067113 C61.9106357,148.482008 61.9661679,148.913837 62.091846,149.320264 C62.3841208,150.282707 63.0271251,151.112497 63.7168935,151.860436 C66.6805591,155.086454 70.8279373,157.474216 72.5757401,161.45664 C72.6327781,161.650424 72.7564843,161.819658 72.9264698,161.936451 C73.0686791,161.997251 73.2266421,162.014966 73.3794956,161.987254 C74.9607018,161.826376 76.1707192,160.595804 77.1790669,159.399101 C79.2834449,156.85893 81.1101619,154.053451 82.1477371,150.954441 C83.1853124,147.855432 83.351909,144.429023 82.2208058,141.358237 C81.6567156,139.828489 80.7857369,138.422928 79.9206038,137.031478 C79.162638,135.814077 78.4066208,134.598558 77.652552,133.38492 C77.2579811,132.744233 76.7552686,131.4431 75.9807406,131.12699 C74.3089292,130.432676 71.2371219,132.763989 70.1644737,133.799815 Z" id="Path" fill="#9BD03B"></path>
            <path d="M153.631457,151.59824 L156,157.129994 C150.769062,155.313661 144.978053,156.111519 140.441652,159.273549 C139.091778,160.233309 137.853233,161.439231 137.243702,162.971527 C136.629744,163.087513 136.003242,162.843422 135.632202,162.343673 C135.275943,161.847088 135.069348,161.259954 135.036588,160.650956 C134.816711,158.526762 135.626636,156.444057 136.428211,154.458157 C136.801166,153.528822 137.185254,152.580126 137.847667,151.825042 C138.510079,151.069957 139.389585,150.5721 140.269091,150.1019 C143.074964,148.559799 146.013654,147.269476 149.050234,146.246268 C150.330527,145.834152 151.672052,145.84245 152.390129,147.031777 C153.22232,148.450672 152.980178,150.088071 153.631457,151.59824 Z" id="Path" fill="#9BD03B"></path>
            <path d="M56.7436578,168.981317 C57.3511003,169.47385 57.8843949,170.056198 58.5089484,170.525553 C59.1694496,170.99148 59.8723019,171.39216 60.6079046,171.722119 L63.4198215,173.095417 C64.2911917,173.555534 65.2029957,173.931883 66.1433312,174.219551 C67.3468088,174.546941 68.6101751,174.57881 69.8193564,174.883022 C71.3450922,175.265459 72.7396432,176.062204 74.2425643,176.522867 C75.7454854,176.983531 77.5050723,177.058859 78.7598831,176.099868 C79.5441398,175.500137 80.1373231,174.509276 81.1098014,174.361516 C81.7372068,174.277496 82.3417975,174.584605 82.9007586,174.883022 L90.2185869,178.791417 C91.2053244,179.318717 92.2490988,179.903962 92.7652824,180.909309 C93.2814659,181.914656 92.9335411,183.441509 91.846989,183.702261 C91.4682982,183.746471 91.087435,183.76872 90.706252,183.768898 C90.3298087,183.815254 89.9191434,184.04124 89.8678102,184.426575 C89.865898,184.665869 89.9279972,184.901197 90.0474763,185.107429 C90.3754382,185.872304 90.4724009,186.787836 90.090254,187.529533 C89.708107,188.27123 88.7698508,188.731893 88.0198162,188.398709 C88.1481491,189.519946 86.9475234,190.305102 85.8780824,190.603519 C83.1802392,191.353908 80.319841,190.893244 77.5621092,190.418095 C76.478409,190.232671 75.3775977,190.041452 74.3908601,189.548919 C73.9174543,189.314241 73.4782705,189.012927 72.9991609,188.795633 C71.6844615,188.201696 70.1900959,188.279922 68.7527672,188.305997 C62.105122,188.424784 55.5145136,187.173171 48.9780902,185.927352 C47.7660571,185.695572 46.5198019,185.449305 45.484583,184.768451 C43.4882931,183.447303 42.746814,180.735474 43.074776,178.336548 C43.4027379,175.937622 44.6005118,173.764682 45.7783228,171.655482 L47.3040586,168.923372 C47.5035081,168.504837 47.7826683,168.130636 48.1253893,167.822415 C50.3697895,166.081166 54.8215158,167.411005 56.7436578,168.981317 Z" id="Path" fill="#A1616A"></path>
            <path d="M56.7436578,168.981317 C57.3511003,169.47385 57.8843949,170.056198 58.5089484,170.525553 C59.1694496,170.99148 59.8723019,171.39216 60.6079046,171.722119 L63.4198215,173.095417 C64.2911917,173.555534 65.2029957,173.931883 66.1433312,174.219551 C67.3468088,174.546941 68.6101751,174.57881 69.8193564,174.883022 C71.3450922,175.265459 72.7396432,176.062204 74.2425643,176.522867 C75.7454854,176.983531 77.5050723,177.058859 78.7598831,176.099868 C79.5441398,175.500137 80.1373231,174.509276 81.1098014,174.361516 C81.7372068,174.277496 82.3417975,174.584605 82.9007586,174.883022 L90.2185869,178.791417 C91.2053244,179.318717 92.2490988,179.903962 92.7652824,180.909309 C93.2814659,181.914656 92.9335411,183.441509 91.846989,183.702261 C91.4682982,183.746471 91.087435,183.76872 90.706252,183.768898 C90.3298087,183.815254 89.9191434,184.04124 89.8678102,184.426575 C89.865898,184.665869 89.9279972,184.901197 90.0474763,185.107429 C90.3754382,185.872304 90.4724009,186.787836 90.090254,187.529533 C89.708107,188.27123 88.7698508,188.731893 88.0198162,188.398709 C88.1481491,189.519946 86.9475234,190.305102 85.8780824,190.603519 C83.1802392,191.353908 80.319841,190.893244 77.5621092,190.418095 C76.478409,190.232671 75.3775977,190.041452 74.3908601,189.548919 C73.9174543,189.314241 73.4782705,189.012927 72.9991609,188.795633 C71.6844615,188.201696 70.1900959,188.279922 68.7527672,188.305997 C62.105122,188.424784 55.5145136,187.173171 48.9780902,185.927352 C47.7660571,185.695572 46.5198019,185.449305 45.484583,184.768451 C43.4882931,183.447303 42.746814,180.735474 43.074776,178.336548 C43.4027379,175.937622 44.6005118,173.764682 45.7783228,171.655482 L47.3040586,168.923372 C47.5035081,168.504837 47.7826683,168.130636 48.1253893,167.822415 C50.3697895,166.081166 54.8215158,167.411005 56.7436578,168.981317 Z" id="Path" fill="#000000" opacity="0.04"></path>
            <path d="M143.264481,173.96678 C141.788756,174.657506 140.09493,174.724894 138.554059,175.255573 C137.013187,175.786253 135.704579,176.740914 134.291169,177.518683 C130.608939,179.557166 126.360212,180.326511 122.187962,181.059354 C119.658553,181.508606 117.08949,181.957859 114.540254,181.851161 C111.090287,181.705154 107.77628,180.565176 104.433948,179.705981 C101.091616,178.846785 97.5255182,178.268373 94.2143436,179.234266 C90.7074893,180.292745 87.9195812,182.944796 86.7082592,186.374572 C86.0143005,188.3934 85.917996,190.569467 86.0511228,192.697801 C86.747914,193.206017 87.7222888,192.501253 88.1018417,191.7291 C88.4813946,190.956947 88.688166,190.010709 89.424612,189.561457 C90.7020626,189.991054 91.0136359,191.678559 92.0673202,192.512484 C92.7244567,193.03474 93.6025269,193.172324 94.4381099,193.290252 L98.7434866,193.896743 C99.780176,194.04275 100.983982,194.141024 101.73459,193.416605 C102.099981,193.065626 102.301087,192.574256 102.635321,192.198007 C103.320782,191.445509 104.465106,191.316349 105.4848,191.417431 C108.668513,191.731908 111.653952,193.778814 114.815005,193.29306 C115.902679,193.127398 116.913876,192.666915 117.950565,192.304705 C124.094224,190.153908 130.920513,191.462356 137.31343,190.22972 C139.7522,189.760813 142.10033,188.929695 144.420134,188.053653 C145.68059,187.57913 146.955208,187.082145 148.031552,186.279106 C150.104408,184.699157 151.212733,182.174107 150.966007,179.593667 C150.728883,177.659025 149.755174,175.887255 148.243989,174.640659 C147.745471,174.219485 147.091167,173.413638 146.493513,173.149702 C145.352022,172.652717 144.23319,173.51472 143.264481,173.96678 Z" id="Path" fill="#A1616A"></path>
            <g id="Group" opacity="0.1" transform="translate(101.000000, 107.000000)" fill="#000000">
                <path d="M34.5224503,31.0028571 C34.0468874,30.58 33.9301325,29.9371429 33.5200662,29.4685714 C32.6657616,28.4771429 30.9400662,28.6114286 29.5333113,28.8114286 C27.081457,29.1571429 24.1227152,29.2371429 22.602053,27.5257143 C21.9442384,26.7885714 21.6537748,25.8114286 20.8507285,25.1971429 C18.9769536,23.7685714 15.7533775,25.2314286 13.6888079,24.0228571 C11.8862252,22.9685714 12.0029801,20.5228571 10.499404,19.1657143 C8.99582781,17.8085714 6.39019868,17.9857143 4.3484106,18.6628571 C4.00294498,18.8220844 3.61573979,18.8661402 3.24350993,18.7885714 C2.59708609,18.56 2.64264901,17.7542857 2.80211921,17.16 C3.57953642,14.2885714 4.37119205,11.3885714 5.88331126,8.74857143 C6.43291391,7.78571429 7.08218543,6.85714286 7.43529801,5.82285714 C8.05324503,4.01142857 7.73715232,1.96285714 8.54874172,0.248571429 C7.67735099,0.82 6.84013245,1.44285714 6.30192053,2.24857143 C5.08880795,4.06285714 5.5586755,6.37142857 4.87807947,8.38571429 C4.52496689,9.42 3.87569536,10.3485714 3.32609272,11.3114286 C1.81397351,13.9514286 1.02231788,16.8514286 0.244900662,19.7228571 C0.0854304636,20.3171429 0.0398675497,21.1228571 0.686291391,21.3514286 C1.05852125,21.4289973 1.44572644,21.3849416 1.79119205,21.2257143 C3.83298013,20.5485714 6.42721854,20.3542857 7.94218543,21.7285714 C9.45715232,23.1028571 9.32900662,25.54 11.1315894,26.5857143 C13.1961589,27.7942857 16.4197351,26.3342857 18.2935099,27.76 C19.0965563,28.3714286 19.3870199,29.3514286 20.0448344,30.0885714 C21.5768874,31.8028571 24.5242384,31.72 26.9760927,31.3742857 C28.3828477,31.1742857 30.108543,31.04 30.9628477,32.0314286 C31.3729139,32.5 31.4896689,33.1428571 31.9652318,33.5657143 C32.8195364,34.3314286 34.3829139,33.9428571 35.2172848,33.1571429 C35.7522754,32.5981764 36.210091,31.9697117 36.5784768,31.2885714 C35.8380795,31.5142857 35.0492715,31.48 34.5224503,31.0028571 Z" id="Path"></path>
                <path d="M39.7109272,27.86 C39.5275132,28.0970238 39.3573403,28.3440697 39.2011921,28.6 C40.294702,27.8171429 41.4537086,27.0857143 42.2709934,26.0885714 C42.4831385,25.8305192 42.6736342,25.5552942 42.8405298,25.2657143 C41.7043046,26.0828571 40.5196689,26.8342857 39.7109272,27.86 Z" id="Path"></path>
            </g>
            <polygon id="Path" fill="#3F3D56" points="199 191 199.882353 272 204 271.43554 203.117647 191"></polygon>
            <polygon id="Path" fill="#3F3D56" points="222 206 222.882353 287 227 286.43554 226.117647 206"></polygon>
            <path d="M297,247.261986 L297,247.261986 L296.984576,245.69403 L296.984576,244.760656 L296.848329,230.395793 L296.634961,207.937891 L296.598972,206 L293,206 L293.017995,207.866749 L293.131105,219.895329 L293.179949,225.102877 L293.179949,225.102877 L293.22108,229.320136 L293.287918,236.610702 L293.329049,240.910486 L293.329049,240.910486 L293.329049,241.36579 L293.383033,247.01726 L293.429306,252 L293.722365,251.641448 C294.193659,251.059037 294.65467,250.467141 295.105398,249.865759 L297,247.261986 Z" id="Path" fill="#3F3D56"></path>
            <polygon id="Path" fill="#003643" points="218.286198 219 216 222.491971 218.286198 238.40146 237.718882 243.835036 269.154107 243.835036 288.015241 245 297 238.716788 295.445385 227.925547 288.586791 219"></polygon>
            <path d="M215.379518,222 L214.237546,231.487803 C214.237546,231.487803 208.242196,250.089265 256.490494,248.9497 C304.738791,247.810136 296.459498,244.014444 296.459498,244.014444 L296.174005,233.007222 C296.174005,233.007222 297.855558,238.216659 273.334574,237.511215 C248.81359,236.80577 225.942755,234.526641 225.942755,234.526641 C225.942755,234.526641 217.377968,236.043204 215.379518,222 Z" id="Path" fill="#3F3D56"></path>
            <path d="M255.645144,137.254651 C252.87124,138.495237 250.77067,140.900109 249.363576,143.559316 C247.956482,146.218523 247.165171,149.137715 246.38537,152.037127 C245.562407,155.09479 244.736567,158.160932 244.310698,161.294896 C243.551039,166.867644 244.120783,172.725811 246.727792,177.730545 C249.334801,182.73528 254.151725,186.773543 259.791612,187.737188 C261.969874,188.113037 264.208564,188.036737 266.409846,187.813488 C270.388646,187.3997 274.308041,186.551385 278.095347,185.284275 C282.0519,183.970214 286.169593,181.946843 287.930619,178.219432 C288.952129,176.057591 289.038454,173.593374 288.989536,171.213935 C288.853766,164.728675 287.856439,158.288576 286.022841,152.056908 C285.490504,150.248309 284.871843,148.425579 283.743866,146.902399 C282.615889,145.379219 281.073552,144.262974 279.499563,143.228681 C272.769107,138.777831 263.923692,133.558325 255.645144,137.254651 Z" id="Path" fill="#FBBEBE"></path>
            <path d="M255.645144,137.254651 C252.87124,138.495237 250.77067,140.900109 249.363576,143.559316 C247.956482,146.218523 247.165171,149.137715 246.38537,152.037127 C245.562407,155.09479 244.736567,158.160932 244.310698,161.294896 C243.551039,166.867644 244.120783,172.725811 246.727792,177.730545 C249.334801,182.73528 254.151725,186.773543 259.791612,187.737188 C261.969874,188.113037 264.208564,188.036737 266.409846,187.813488 C270.388646,187.3997 274.308041,186.551385 278.095347,185.284275 C282.0519,183.970214 286.169593,181.946843 287.930619,178.219432 C288.952129,176.057591 289.038454,173.593374 288.989536,171.213935 C288.853766,164.728675 287.856439,158.288576 286.022841,152.056908 C285.490504,150.248309 284.871843,148.425579 283.743866,146.902399 C282.615889,145.379219 281.073552,144.262974 279.499563,143.228681 C272.769107,138.777831 263.923692,133.558325 255.645144,137.254651 Z" id="Path" fill="#000000" opacity="0.05"></path>
            <path d="M252.870642,173.367955 C253.658906,174.45313 254.612115,175.407855 255.695567,176.197372 C258.384896,178.059129 261.836955,178.310947 265.102568,178.412806 C267.724099,178.49203 270.729819,178.34207 272.373926,176.293572 C273.114056,175.371182 273.447397,174.194145 273.746839,173.048231 C275.594748,166.011721 276.907392,158.84502 277.673486,151.609736 L285.153888,151.635201 C288.391252,165.519152 288.125709,179.952009 287.843216,194.209442 L287.433602,215 L282.61428,214.487875 C271.170508,213.274055 259.709786,212.060236 248.203865,211.850859 C241.46227,211.726693 234.718758,211.949568 228,212.518601 L238.494597,181.264858 C239.856211,177.201815 241.23195,173.085013 241.551166,168.815423 C242.011629,162.621828 240.277125,156.083045 242.681137,150.353475 C242.873231,149.89228 243.116175,149.414109 243.554038,149.173608 C243.991902,148.933108 244.545587,148.992526 245.048424,149.057602 C245.997599,149.184926 248.898797,149.057602 249.588079,149.665927 C250.605052,150.548705 249.93272,150.681688 249.573954,152.104884 C248.932696,154.65136 248.325337,157.008265 248.333812,159.662258 C248.342287,164.480755 249.833847,169.568048 252.870642,173.367955 Z" id="Path" fill="#003643"></path>
            <path d="M297.49375,246.382155 L297.49375,246.382155 C298.748199,244.701283 299.930455,242.960785 301.04052,241.160662 C300.477987,239.945437 299.859201,238.758605 299.366985,237.517826 C298.613191,235.615488 298.180041,233.599577 297.752516,231.597863 C297.606257,230.916428 297.460936,230.234993 297.316553,229.553559 C295.741461,222.140118 294.261999,214.621622 293.955419,207.105966 C293.927292,206.481317 293.909479,205.856669 293.901978,205.23202 C293.901978,205.141162 293.901978,205.053144 293.901978,204.948089 C293.901978,204.263815 293.901978,203.579541 293.901978,202.898107 C293.93573,201.19452 294.042612,199.476737 294.236685,197.767471 C294.27325,197.432433 294.31544,197.097394 294.360443,196.762355 C294.360443,196.688533 294.377319,196.617551 294.388569,196.543728 L313.514685,195.839579 L313.514685,195.839579 L315.123529,195.779954 C316.228906,195.740203 317.398974,195.677739 318.310277,195.044572 C319.843179,193.98267 320.02319,191.804918 319.997876,189.933812 C319.904789,185.204545 319.373695,180.494434 318.411533,175.865026 C317.685866,172.384031 316.650806,168.826374 314.327545,166.151743 C312.420559,163.954116 309.658523,162.355584 308.665652,159.621328 C308.297193,158.604854 308.204375,157.489005 307.726222,156.517961 C307.24807,155.546916 306.457711,154.834249 305.712355,154.084671 C303.089153,151.460718 300.912912,148.417733 299.271354,145.078376 C298.132225,142.761499 296.897466,140.206119 295.409566,138.604747 C295.336437,138.522407 295.263308,138.445746 295.187366,138.371924 C293.921667,137.10843 292.473145,136.554765 290.75742,137.415076 C290.448912,137.571353 290.155177,137.755726 289.879869,137.965902 L289.879869,137.965902 C289.268414,138.437525 288.709202,138.974429 288.211959,139.567274 C286.478827,141.578887 284.958321,143.767539 283.675132,146.097689 C282.772877,147.738237 281.998009,149.446946 281.357497,151.208449 C280.851959,152.600115 280.433916,154.022597 280.105861,155.467416 C279.863972,156.537836 279.672711,157.619613 279.520827,158.70423 C278.958294,162.781481 278.958294,166.938232 279.037049,171.06659 C279.121429,174.85991 279.287376,178.661747 279.627708,182.44087 C279.712088,183.355129 279.805844,184.26844 279.908975,185.180806 C280.115237,186.984715 280.370251,188.782945 280.674019,190.575497 C280.794964,191.259771 280.918721,191.944045 281.056541,192.625479 C281.090293,192.807195 281.126858,192.988911 281.163423,193.167788 L281.180299,193.244449 C281.551839,194.828375 281.840071,196.431041 282.043787,198.045724 C282.066288,198.248261 282.083164,198.449853 282.094415,198.650497 C282.141767,199.578578 282.134253,200.508684 282.071913,201.435861 C282.007222,202.531835 281.905966,203.62497 281.855338,204.720944 C281.855338,204.914017 281.855338,205.104251 281.835649,205.288806 C281.821586,205.842472 281.835649,206.396138 281.835649,206.949803 C281.892684,208.274397 282.048762,209.59275 282.302552,210.893606 C282.776952,213.313267 283.596466,215.650685 284.735506,217.832883 C284.842387,218.037313 284.952081,218.238904 285.061775,218.437656 C286.487796,221.010072 288.287901,223.369539 289.60704,226.001581 C290.744915,228.370117 291.594884,230.868866 292.138438,233.443415 C292.325949,234.293315 292.504084,235.145109 292.672844,235.998795 C292.934422,237.361664 293.167873,238.735891 293.40695,240.110117 C293.429451,240.246404 293.454765,240.394048 293.480079,240.518978 C293.79791,242.341816 294.132617,244.156135 294.562954,245.936383 C294.813282,246.972732 295.094548,247.994884 295.42363,249 L297.49375,246.382155 Z" id="Path" fill="#464353"></path>
            <path d="M292.984975,224.78362 C292.984975,225.037913 292.967828,225.292206 292.956397,225.549325 C292.905387,226.7891 292.789968,228.025465 292.610597,229.253527 C292.373783,230.929782 291.959012,232.576706 291.373151,234.167035 C290.984787,235.212785 290.490738,236.217144 289.898503,237.164867 C289.373228,238.006403 288.758128,238.789778 288.063766,239.501538 C286.349059,241.264637 283.879882,241.826907 281.490723,242.570008 C280.391466,242.884649 279.329071,243.313697 278.321373,243.84995 C278.141329,243.948841 277.964143,244.05621 277.792672,244.169229 L274.803366,246.127285 C273.871709,246.734763 272.920047,247.364845 272.279889,248.266173 C272.175008,248.419518 272.079574,248.578976 271.994105,248.743678 C271.589576,249.573368 271.293782,250.4507 271.113889,251.354421 C269.559221,257.756955 268.001696,264.16514 266.93572,270.663741 C266.864274,271.093214 266.795685,271.525512 266.721381,271.95781 L266.695661,272.093433 C266.682758,272.061284 266.667475,272.030119 266.649935,272.000193 C259.002342,276.571817 251.071823,280.697016 242.901245,284 L241.126523,269.307511 C240.941558,268.113134 240.880273,266.903221 240.943621,265.69655 C241.112234,263.795003 241.895283,261.992347 242.106764,260.096451 C242.307075,258.240388 241.95235,256.366999 241.086513,254.708264 C240.749288,254.064055 240.326327,253.431147 240.249165,252.71065 C240.172003,251.990153 240.592106,251.331817 241.323714,251.258354 C241.895283,250.631098 241.941009,249.774978 241.772396,248.927335 C241.68282,248.48483 241.548789,248.052271 241.372298,247.636091 C240.886464,246.455041 240.272028,245.169448 240.689273,243.962969 C240.799635,243.74428 240.848963,243.500432 240.832165,243.256599 C240.835168,243.241676 240.835168,243.226314 240.832165,243.211391 C240.734998,242.894938 240.354905,242.756489 240.157714,242.488069 C239.786194,241.987959 240.157714,241.307019 240.386341,240.730621 C240.608685,240.11126 240.737716,239.462944 240.769293,238.80647 C240.800729,238.441984 240.823592,238.074671 240.863601,237.71301 C240.919268,237.223583 241.00806,236.738397 241.129381,236.260714 C241.823605,233.554061 243.493234,231.19101 245.82482,229.615189 C246.936522,228.874913 248.173968,228.335247 249.308533,227.637354 C250.470758,226.862736 251.580099,226.013253 252.629349,225.094423 C255.146157,223.022405 257.76299,221.069058 260.479848,219.23438 C263.401203,217.261862 266.427224,215.445308 269.544932,213.792509 C270.211762,213.436498 270.878593,213.089906 271.545423,212.752733 C272.271316,212.376002 273.001972,212.01905 273.73739,211.681876 C276.092254,210.571463 278.764339,210.986808 281.367836,211.727084 C282.459533,212.035061 283.53694,212.402373 284.577196,212.73578 C285.593082,213.062301 286.570397,213.496165 287.492197,214.029849 C289.798478,215.369126 291.704661,217.346961 292.496284,219.844684 C292.497548,219.86067 292.497548,219.87673 292.496284,219.892717 C292.999264,221.458032 293.030701,223.136366 292.984975,224.78362 Z" id="Path" fill="#F86D70"></path>
            <path d="M292.984975,224.78362 C292.984975,225.037913 292.967828,225.292206 292.956397,225.549325 C292.905387,226.7891 292.789968,228.025465 292.610597,229.253527 C292.373783,230.929782 291.959012,232.576706 291.373151,234.167035 C290.984787,235.212785 290.490738,236.217144 289.898503,237.164867 C289.373228,238.006403 288.758128,238.789778 288.063766,239.501538 C286.349059,241.264637 283.879882,241.826907 281.490723,242.570008 C280.391466,242.884649 279.329071,243.313697 278.321373,243.84995 C278.141329,243.948841 277.964143,244.05621 277.792672,244.169229 L274.803366,246.127285 C273.871709,246.734763 272.920047,247.364845 272.279889,248.266173 C272.175008,248.419518 272.079574,248.578976 271.994105,248.743678 C271.589576,249.573368 271.293782,250.4507 271.113889,251.354421 C269.559221,257.756955 268.001696,264.16514 266.93572,270.663741 C266.864274,271.093214 266.795685,271.525512 266.721381,271.95781 L266.695661,272.093433 C266.682758,272.061284 266.667475,272.030119 266.649935,272.000193 C259.002342,276.571817 251.071823,280.697016 242.901245,284 L241.126523,269.307511 C240.941558,268.113134 240.880273,266.903221 240.943621,265.69655 C241.112234,263.795003 241.895283,261.992347 242.106764,260.096451 C242.307075,258.240388 241.95235,256.366999 241.086513,254.708264 C240.749288,254.064055 240.326327,253.431147 240.249165,252.71065 C240.172003,251.990153 240.592106,251.331817 241.323714,251.258354 C241.895283,250.631098 241.941009,249.774978 241.772396,248.927335 C241.68282,248.48483 241.548789,248.052271 241.372298,247.636091 C240.886464,246.455041 240.272028,245.169448 240.689273,243.962969 C240.799635,243.74428 240.848963,243.500432 240.832165,243.256599 C240.835168,243.241676 240.835168,243.226314 240.832165,243.211391 C240.734998,242.894938 240.354905,242.756489 240.157714,242.488069 C239.786194,241.987959 240.157714,241.307019 240.386341,240.730621 C240.608685,240.11126 240.737716,239.462944 240.769293,238.80647 C240.800729,238.441984 240.823592,238.074671 240.863601,237.71301 C240.919268,237.223583 241.00806,236.738397 241.129381,236.260714 C241.823605,233.554061 243.493234,231.19101 245.82482,229.615189 C246.936522,228.874913 248.173968,228.335247 249.308533,227.637354 C250.470758,226.862736 251.580099,226.013253 252.629349,225.094423 C255.146157,223.022405 257.76299,221.069058 260.479848,219.23438 C263.401203,217.261862 266.427224,215.445308 269.544932,213.792509 C270.211762,213.436498 270.878593,213.089906 271.545423,212.752733 C272.271316,212.376002 273.001972,212.01905 273.73739,211.681876 C276.092254,210.571463 278.764339,210.986808 281.367836,211.727084 C282.459533,212.035061 283.53694,212.402373 284.577196,212.73578 C285.593082,213.062301 286.570397,213.496165 287.492197,214.029849 C289.798478,215.369126 291.704661,217.346961 292.496284,219.844684 C292.497548,219.86067 292.497548,219.87673 292.496284,219.892717 C292.999264,221.458032 293.030701,223.136366 292.984975,224.78362 Z" id="Path" fill="#000000" opacity="0.1"></path>
            <path d="M266.243965,177.315697 C266.165694,177.138835 265.995299,177.018395 265.800049,177.001925 C265.604799,176.985455 265.416074,177.075602 265.308381,177.236776 C265.200687,177.397951 265.191333,177.604251 265.28401,177.774231 L265,177.911232 L273.469185,195 L275,194.264669 L266.530815,177.164716 L266.243965,177.315697 Z" id="Path" fill="#3F3D56"></path>
            <circle id="Oval" fill="#FBBEBE" cx="277" cy="141" r="18"></circle>
            <path d="M300.977152,130.081617 C300.891635,128.642231 300.675615,127.21338 300.331701,125.81233 C299.257854,121.237488 297.295798,116.733377 293.917177,113.448657 C293.708964,112.645561 293.460181,111.853326 293.171767,111.074945 C293.16638,111.055664 293.159701,111.036761 293.151775,111.018361 C292.143934,108.276255 290.686913,105.717381 288.839249,103.44455 C287.768258,102.126136 286.380253,100.824696 284.672379,100.773771 C284.192574,100.756795 283.684211,100.838843 283.24439,100.620993 C282.92094,100.413823 282.648624,100.137291 282.447572,99.8118372 C280.723862,97.6540443 277.935039,96.6202141 275.204814,97.1269115 L275.027744,97.1636913 C274.927785,97.1834958 274.827825,97.2061295 274.742146,97.2315924 C274.656467,97.2570554 274.502244,97.2994936 274.382293,97.3362734 C274.513668,97.5512938 274.642187,97.7691434 274.76785,97.9898223 C275.106759,98.5877299 275.420917,99.1988405 275.710322,99.8231541 C275.950224,100.34373 276.172039,100.872793 276.375765,101.410344 C273.451244,101.741362 271.069359,103.798202 268.893105,105.75602 L263.769482,110.361983 C263.76021,110.369744 263.751612,110.378261 263.743778,110.387446 L263.595267,110.528907 C263.55814,110.565686 263.521012,110.602466 263.48674,110.642075 C263.472918,110.653871 263.460465,110.667156 263.449612,110.681684 C263.406773,110.726952 263.366789,110.775048 263.326805,110.823145 C263.255513,110.91225 263.191525,111.006859 263.135455,111.106067 C263.107458,111.148535 263.082639,111.192978 263.0612,111.23904 C263.053363,111.252614 263.046676,111.266809 263.041208,111.281478 C263.022582,111.320064 263.006368,111.359748 262.992656,111.400305 C262.991418,111.405897 262.991418,111.411688 262.992656,111.41728 C262.98467,111.440471 262.977996,111.464084 262.972664,111.488011 C262.914365,111.687107 262.931635,111.900456 263.021216,112.087805 L266.399837,112.124584 L266.796818,112.124584 C266.813953,112.5716 266.828233,113.021446 266.845369,113.468462 C266.309286,113.865978 265.79451,114.290938 265.303142,114.741609 C264.767367,115.232898 264.264594,115.758367 263.798042,116.314653 C260.750714,119.961512 259.159935,124.672156 259,129.413922 C259,129.561041 259,129.696844 259,129.849621 C259,130.282491 259,130.715361 259,131.145402 C259,131.428324 259.025704,131.711245 259.048552,131.994167 C259.049996,132.362696 259.148435,132.72448 259.334149,133.043806 C259.358501,133.079471 259.385216,133.113497 259.414117,133.145658 C259.585481,133.329901 259.791043,133.479746 260.019584,133.587015 L260.265198,133.705842 L260.265198,133.705842 C260.388005,133.765256 260.5051,133.82184 260.619339,133.886912 C261.696042,134.489535 262.332925,135.652343 263.312525,136.399256 C263.369645,136.441694 263.426765,136.484132 263.483884,136.520912 L263.612403,136.605788 L263.69237,136.656714 L263.800898,136.718957 C263.872055,136.761489 263.945464,136.800211 264.020808,136.834955 L264.020808,136.834955 L264.157895,136.902856 L264.180743,136.902856 L264.180743,136.902856 C264.294982,136.953782 264.409221,137.001879 264.526316,137.044317 L264.689106,137.100901 L264.737658,137.117877 C264.783354,137.132023 264.831905,137.148998 264.880457,137.160315 C264.97756,137.188607 265.072759,137.21407 265.166055,137.236704 L265.451652,137.298946 C265.563035,137.318751 265.677275,137.338555 265.791514,137.352701 L265.960016,137.375335 L266.131375,137.39231 C266.403645,137.41683 266.677819,137.430976 266.953896,137.434749 L266.953896,137.434749 C267.820282,137.429454 268.685463,137.369922 269.544268,137.256508 L276.832721,136.407743 C278.486332,136.218186 280.174215,136.028628 281.804978,136.362476 C283.187271,136.645398 284.461036,137.296117 285.803346,137.757279 C286.106079,137.86196 286.408813,137.958154 286.714402,138.040201 C286.825785,138.071322 286.940024,138.105273 287.054264,138.133565 L287.211342,138.173174 L287.576907,138.26088 C287.708282,138.292001 287.839657,138.323122 287.971032,138.348585 C288.156671,138.388194 288.339453,138.422145 288.525092,138.456096 C288.650755,138.481559 288.779274,138.501363 288.907793,138.523997 L288.933497,138.523997 L289.299062,138.580581 L289.387597,138.580581 L289.387597,138.580581 L289.658915,138.617361 C289.79029,138.637165 289.921665,138.654141 290.055896,138.668287 C290.347205,138.704124 290.638515,138.735245 290.929825,138.761651 C291.401061,138.806918 291.875153,138.840869 292.357813,138.869161 L292.831905,138.897453 L293.305998,138.920087 L294.733986,138.98233 L294.796818,138.98233 L294.996736,138.98233 C295.590393,139.023325 296.186878,138.992925 296.773154,138.891795 C296.875969,138.87199 296.975928,138.849357 297.075887,138.821064 C297.175847,138.792772 297.25867,138.76448 297.361485,138.73053 C298.432477,138.323122 299.215014,137.386652 299.75765,136.38511 C299.871889,136.172918 299.97756,135.960727 300.074663,135.742878 C300.171767,135.525028 300.260302,135.304349 300.340269,135.08367 C300.440228,134.800749 300.525908,134.531973 300.600163,134.249052 C300.623011,134.172663 300.643003,134.096274 300.660139,134.017056 C300.677275,133.937838 300.717258,133.782231 300.740106,133.663404 C300.811506,133.338044 300.865769,133.009855 300.905753,132.678837 C300.905753,132.574156 300.931457,132.466646 300.94288,132.361965 C300.968584,132.079043 300.988576,131.815926 301,131.538663 C301,131.329301 301,131.11711 301,130.904919 C300.997144,130.675752 300.977152,130.373026 300.977152,130.081617 Z M293.654427,113.191199 C293.423093,112.976178 293.186047,112.769646 292.946144,112.57443 C293.213079,112.741312 293.451249,112.949549 293.651571,113.191199 L293.654427,113.191199 Z" id="Shape" fill="#464353"></path>
            <path d="M242.242893,139.599985 C240.119706,139.335335 238.013436,138.396255 235.918445,138.857258 C234.607314,139.141828 233.479459,139.964234 232.430553,140.809407 C228.52715,143.9669 225.208039,147.796467 222.626673,152.121056 C222.188961,152.767638 221.881431,153.49474 221.721569,154.261021 C221.586227,155.148879 221.825896,156.050965 222.110679,156.901829 C224.039311,162.652985 228.164442,167.456523 230.04232,173.224753 C232.016067,179.291781 231.330895,185.922258 229.875962,192.137262 C228.072414,199.809813 225.141369,207.166783 221.180199,213.963766 C220.642377,214.974478 219.968685,215.905296 219.178256,216.729784 C218.151908,217.725779 216.773105,218.437203 216.164063,219.740533 C215.882099,220.309672 215.80033,220.958492 215.600136,221.567471 C215.036208,223.27489 213.671503,224.737579 213.53898,226.538905 C213.440293,227.913378 214.08599,229.213862 214.47792,230.522883 C215.138864,232.771807 215.068706,235.175261 214.277726,237.381015 C212.848169,241.336535 209.10933,244.933498 210.19489,249 C212.616959,248.297113 215.301254,247.383644 216.443207,245.115622 C216.846416,244.313135 217.04661,243.356981 217.726143,242.770767 C219.082388,241.606877 221.391672,242.659785 222.832507,241.589802 C223.920887,240.775933 223.960362,239.108354 223.475384,237.82779 C222.990406,236.547225 222.155793,235.420329 221.783601,234.102771 C221.135085,231.726613 222.172711,229.213862 221.980976,226.758024 C221.890748,225.619745 221.543932,224.529843 221.518555,223.397255 C221.470621,221.19753 222.677426,219.128708 224.2818,217.634716 C225.886174,216.140725 227.86838,215.150422 229.819569,214.174348 L237.195741,210.47494 C239.871577,209.137462 242.804001,207.506877 243.680908,204.627031 C244.013625,203.548511 244.016445,202.398849 244.033363,201.271953 C244.284311,184.052634 248.558881,167.18049 252.808075,150.501854 C253.467871,147.91796 254.138945,145.322684 255.120178,142.841235 C256.101412,140.359786 258.021586,138.367798 259,136.062782 C253.324069,135.391198 248.138755,140.345558 242.242893,139.599985 Z" id="Path" fill="#464353"></path>
            <path d="M282.621975,247.944572 C283.282398,251.908974 283.685513,255.958328 284,259.98786 C278.853848,264.212781 273.313158,267.888348 267.683839,271.297734 C267.363634,271.493123 267.04057,271.68568 266.717506,271.864078 L266.691776,272 C266.678868,271.96778 266.663578,271.936546 266.646032,271.906553 C266.209263,270.971871 265.445526,270.225474 264.496084,269.80542 C262.386162,265.41626 260.278146,261.0271 258.172035,256.63794 C257.028446,254.267794 255.884857,251.874993 255.313062,249.317954 C255.313062,249.264151 255.287331,249.207517 255.278754,249.153714 C254.84419,247.171513 254.744126,245.112855 254.45537,243.105169 C254.309067,241.955295 254.047612,240.822693 253.67487,239.7241 C253.331793,238.747158 252.860063,237.798533 252.442653,236.844244 C251.928038,235.66625 251.496333,234.474098 251.47632,233.202657 C251.47632,232.797722 251.502051,232.353143 251.301922,232.013337 C251.087971,231.72079 250.823788,231.467753 250.521423,231.265764 C249.754234,230.591944 249.391271,229.574422 249.560808,228.572801 C247.845424,228.660585 246.879091,230.487042 246.190078,232.03599 C245.563673,233.550941 244.741014,234.978772 243.742797,236.283565 C243.015177,237.215644 242.090004,237.978305 241.03249,238.517789 C240.938144,238.563096 240.843798,238.608403 240.746593,238.648047 C238.35935,239.690119 235.571851,239.321996 232.98448,238.851931 C230.723033,238.441332 228.384392,237.931623 226.566085,236.538419 L226.371675,236.385506 C225.833416,235.942437 225.353197,235.434452 224.942189,234.87337 C223.418356,232.811881 222.743638,230.096265 222.369113,227.510908 C222.334805,227.26738 222.300497,227.023853 222.269049,226.780325 C222.009117,224.953538 221.937273,223.105317 222.054626,221.264142 C222.088933,220.811068 222.137536,220.357993 222.197574,219.90775 C222.2376,219.624579 222.280484,219.318753 222.329087,219.024255 C222.3277,219.015815 222.3277,219.007209 222.329087,218.998769 C222.40342,218.531536 222.483472,218.061471 222.563523,217.582911 C222.84942,215.977328 223.135317,214.329269 223.993009,212.947392 C224.557422,212.087558 225.269594,211.332339 226.097214,210.716 C226.405983,210.475304 226.723329,210.245935 227.043534,210.025061 C227.563867,209.668265 228.098495,209.328459 228.6417,209.008475 C230.008344,208.198256 231.443177,207.506628 232.93016,206.941322 C233.284673,206.8054 233.644903,206.677972 234.005134,206.556209 C235.405416,206.062881 236.912423,205.944681 238.373645,206.213571 C239.668454,206.399174 240.976896,206.474962 242.284721,206.440108 C245.638296,206.374979 249.006167,205.740674 252.354025,205.330076 C257.002715,204.763732 261.997341,204.695771 266.051366,207.029105 C266.245776,207.139542 266.434468,207.255643 266.62316,207.377406 C268.624442,208.674332 270.236903,210.492294 271.537735,212.522634 C271.823633,212.950224 272.072363,213.38914 272.318235,213.833719 C272.884982,214.85422 273.397438,215.903388 273.853504,216.976924 C274.123399,217.504071 274.269049,218.08499 274.279491,218.675954 C274.272873,218.788327 274.25758,218.900034 274.233747,219.010096 C274.156555,219.4122 274.00217,219.802977 273.94785,220.210744 C273.767735,221.754029 275.091439,223.04246 275.586042,224.512121 C275.906247,225.469241 275.871939,226.494322 276.052054,227.502413 C276.312221,228.918271 277.012669,230.192543 277.641643,231.466815 C278.635567,233.517995 279.485739,235.634515 280.18613,237.801364 C280.683591,239.310669 281.109578,240.842627 281.484103,242.388744 C281.606086,242.885239 281.721398,243.382677 281.830039,243.881059 C282.141667,245.251609 282.396116,246.593843 282.621975,247.944572 Z" id="Path" fill="#F86D70"></path>
            <polygon id="Path" fill="#3F3D56" points="313 205.080645 313 207 312.633704 206.994516 312.224815 206.989032 307.658889 206.934194 296.408765 206.791613 293.251235 206.753226 292.433457 206.742258 287.694321 206.684677 281.015802 206.599677 266.846667 206.421452 242.259383 206.114355 233.385926 206.004677 229.825185 205.960806 226.548395 205.919677 224.50679 205.892258 222.573086 205.867581 208.23642 205.689355 204.261111 205.64 203.395062 205.629032 202.83284 204.227903 198.74679 194.052581 198 192.193548 198.567901 190 201.123457 191.645161 202.696543 191.834355 228.595679 194.94371 233.456914 195.527742 243.764321 196.767097 253.861605 197.979032 257.819877 198.453387 281.242963 201.266613 287.788025 202.053548 293.205802 202.703387 312.469012 205.017581"></polygon>
            <polygon id="Path" fill="#504F60" points="198 190 203.136476 203.672727 313 206 313 191.163636"></polygon>
            <polygon id="Path" fill="#3F3D56" points="204 205 204.882353 286 209 285.43554 208.117647 205"></polygon>
            <path d="M313,208.249039 L312.59345,208.249039 C311.935243,213.248882 310.846201,218.183851 309.338227,223 L308.053642,208.19036 L308,207.558854 L312.74873,207.016766 L312.906832,207 L313,208.249039 Z" id="Path" fill="#3F3D56"></path>
            <polygon id="Path" fill="#FFFFFF" points="297 198.045455 255.796875 199 243 194.227273 277.3125 192"></polygon>
            <path d="M245.2523,180.801191 C244.825143,180.977182 244.446617,181.266836 244.15224,181.642973 C243.922047,182.050459 243.781868,182.509183 243.742468,182.983919 L243.065931,187.316884 C242.962743,187.713227 242.981064,188.134714 243.118184,188.519009 C243.294194,188.882305 243.805721,189.071337 244.061485,188.770067 C244.028484,189.617757 244.097237,190.521566 244.556512,191.212714 C245.015787,191.903862 245.97834,192.267157 246.627375,191.785717 C246.833357,192.146211 247.176374,192.391347 247.565543,192.456174 C247.954713,192.521 248.350754,192.398976 248.648735,192.12243 C248.258214,192.264204 248.230712,192.90514 248.508477,193.230039 C248.819493,193.524893 249.215968,193.695007 249.630539,193.711479 C254.463343,194.443088 259.390384,193.777308 263.903816,191.782763 C264.330089,191.593731 263.208028,185.949357 263.095272,185.370446 C262.820257,184.008826 262.682749,182.345936 261.612941,181.430313 C259.055302,179.238724 254.512054,178.807495 251.396135,179.067414 C249.26723,179.240365 247.185386,179.827857 245.2523,180.801191 L245.2523,180.801191 Z" id="Path" fill="#FBBEBE"></path>
            <path d="M286.929728,182.044814 C276.596965,182.238928 266.049948,182.40491 256.188544,179.358161 C257.130534,182.952971 257.065376,186.732015 256,190.293259 L304.31288,194.231808 C306.36115,194.397789 314.854184,195.343041 316.851033,194.867602 C318.847881,194.392163 300.096359,188.309919 300.85339,186.427856 C302.935941,181.243038 309.912055,178.204729 304.887082,178.010615 C298.545159,177.763049 293.320215,181.926658 286.929728,182.044814 Z" id="Path" fill="#000000" opacity="0.1"></path>
            <path d="M287.739681,183.043534 C277.470407,183.237586 266.988196,183.403515 257.187385,180.357732 C258.123588,183.951403 258.058829,187.729251 257,191.289368 L305.016024,195.226669 C307.051708,195.392598 315.492557,196.351612 317.477136,195.862262 C319.461715,195.372912 318.996091,192.962721 319.748471,191.081253 C321.818225,185.898077 310.580795,179.204665 305.586697,179.010612 C299.283742,178.763124 294.090902,182.925414 287.739681,183.043534 Z" id="Path" fill="#464353"></path>
            <path d="M270.745853,183.801188 C271.1732,183.976834 271.551815,184.266544 271.845956,184.64297 C272.075804,185.050853 272.216831,185.509256 272.258494,185.983913 L272.935057,190.316872 C273.03689,190.713379 273.018589,191.134401 272.882802,191.518995 C272.706786,191.88229 272.192488,192.071322 271.939464,191.770053 C271.969717,192.617741 271.903711,193.521549 271.444418,194.212696 C270.985125,194.903843 270.022535,195.267138 269.370725,194.785698 C269.164735,195.146192 268.821705,195.391327 268.43252,195.456154 C268.043335,195.52098 267.647279,195.398956 267.349286,195.12241 C267.739822,195.264184 267.770075,195.905119 267.492299,196.230018 C267.180188,196.524872 266.782843,196.694936 266.367444,196.711457 C261.535355,197.443106 256.608997,196.777317 252.096362,194.782744 C251.670073,194.593713 252.789427,188.949346 252.904938,188.370437 C253.179964,187.008819 253.317476,185.345931 254.387326,184.430309 C256.942315,182.238724 261.488489,181.807495 264.60453,182.067414 C266.732581,182.240719 268.813545,182.828202 270.745853,183.801188 Z" id="Path" fill="#FBBEBE"></path>
            <path d="M202.472712,174.789202 C201.51896,176.012023 200.562336,177.260557 199.947569,178.686229 C198.772616,181.406148 198.944981,184.486057 199.140327,187.440254 C199.19491,188.297372 199.263855,189.171632 199.714876,189.883039 C200.104799,190.420472 200.619168,190.856573 201.214449,191.15443 C203.702246,192.560102 206.61521,192.98009 209.459227,193.294366 C213.814309,193.774352 218.184712,194.066724 222.570436,194.171483 C233.435157,194.434332 244.466498,193.551501 255.049691,196 C253.739719,194.020059 253.742592,191.400137 254.475142,189.143061 C255.207692,186.885985 256.61821,184.920329 258,182.986101 C253.156552,181.460432 247.962629,183.843218 242.889361,183.606083 C237.681075,183.363233 232.860608,180.369036 227.646576,180.371893 C226.526206,180.371893 225.385726,180.511889 224.296955,180.243325 C223.208185,179.974762 222.153888,179.157643 222.053342,178.046248 C223.44375,178.357667 224.76234,177.174845 225.336889,175.877741 C225.911438,174.580637 226.014857,173.114966 226.57217,171.80929 C227.959705,168.560816 231.708638,167.055146 234.041307,164.38094 C234.409018,163.958095 234.75662,163.45811 234.745129,162.898127 C234.690323,162.423765 234.48968,161.977777 234.17058,161.621022 C232.231477,159.04967 229.309896,157.621141 226.882426,155.6212 C226.037839,154.924078 224.334301,152.295585 223.386295,152.052735 C221.628175,151.604177 220.137221,154.129816 218.993868,155.361208 C213.221566,161.599118 207.714514,168.075116 202.472712,174.789202 Z" id="Path" fill="#464353"></path>
            <path d="M260,174 C260.740689,174.482929 261.399019,175.056493 261.954997,175.703276 C262.515083,176.36003 262.736596,177.193023 262.565751,178 C262.379372,176.46984 263.374301,175.01766 265,174.447013 L260,174 Z" id="Path" fill="#000000" opacity="0.07"></path>
            <g id="Group" opacity="0.1" transform="translate(259.000000, 96.000000)" fill="#000000">
                <path d="M17.3959459,2.8896 C17.0621221,1.99362225 16.6774295,1.11783526 16.2437838,0.2666 C15.9634634,0.321029434 15.6867243,0.392831782 15.4151351,0.4816 C15.9020063,1.2985193 16.3407415,2.14374331 16.7290541,3.01286667 C16.9475676,2.95553333 17.1689189,2.9154 17.3959459,2.8896 Z" id="Path"></path>
                <path d="M33.8610811,14.1928667 C33.9377027,14.2559333 34.0114865,14.3276 34.0852703,14.3935333 C34.0799044,14.3749353 34.0732669,14.356736 34.0654054,14.3390667 C34.0010811,14.2912889 33.932973,14.2425556 33.8610811,14.1928667 Z" id="Path"></path>
                <path d="M7.48054054,15.4542 C7.62810811,15.3366667 7.76432432,15.2134 7.92324324,15.0987333 L7.87783784,13.7370667 L4.84702703,13.7055333 C4.35608108,14.1613333 3.83391892,14.8149333 4.12337838,15.4255333 L7.48054054,15.4542 Z" id="Path"></path>
                <path d="M40.6151351,38.3760667 C40.0759459,39.3908667 39.2983784,40.3426 38.2341892,40.7525333 C37.4140541,41.0678667 36.5116216,41.0392 35.6347297,40.9990667 C32.6436486,40.8758 29.6014865,40.7410667 26.775,39.7406 C25.4525676,39.2704667 24.1868919,38.614 22.802027,38.3244667 C21.1816216,37.9862 19.5044595,38.1782667 17.8613514,38.3732 L10.6191892,39.2332 C8.4822973,39.4854667 6.10135135,39.6746667 4.39581081,38.3502667 C3.41959459,37.5934667 2.78959459,36.4152667 1.71972973,35.8075333 C1.26851351,35.5495333 0.732162162,35.3832667 0.439864865,34.9475333 C0.255329594,34.6239807 0.157516359,34.2574071 0.156081081,33.884 C0.133378378,33.583 0.119189189,33.282 0.107837838,32.981 C0.0770747004,33.8555723 0.0931793214,34.7311856 0.156081081,35.604 C0.157516359,35.9774071 0.255329594,36.3439807 0.439864865,36.6675333 C0.723648649,37.1004 1.26851351,37.2666667 1.71972973,37.5275333 C2.78959459,38.1352667 3.42243243,39.3134667 4.39581081,40.0702667 C6.09851351,41.3946667 8.4822973,41.2169333 10.6191892,40.9532 L17.8613514,40.0932 C19.5044595,39.8982667 21.1816216,39.7062 22.802027,40.0444667 C24.1755405,40.3311333 25.4412162,40.9904667 26.775,41.4606 C29.6128378,42.4610667 32.6436486,42.6072667 35.6347297,42.7190667 C36.5116216,42.7563333 37.4140541,42.7878667 38.2341892,42.4725333 C39.2983784,42.0626 40.0759459,41.1108667 40.6151351,40.0960667 C41.6594595,38.1324 41.9517568,35.905 41.8410811,33.6604 C41.7802857,35.3041705 41.3617157,36.9142225 40.6151351,38.3760667 Z" id="Path"></path>
            </g>
            <path d="M276,101 L280,104 C280,104 276.571429,102.846154 276,101 Z" id="Path" fill="#000000" opacity="0.1"></path>
        </g>
        <g id="Group-2" transform="translate(394.000000, 63.000000)">
            <path d="M80.2570177,17.4158138 C82.8991577,17.4158138 85.4601409,18.0296647 87.9400443,19.2573849 C90.4199476,20.485105 92.3088176,22.074233 93.6067109,24.0248165 C94.8582509,25.8836077 95.6925984,28.052165 96.1097784,30.5305534 C96.4806051,32.2287084 96.6660156,34.9365366 96.6660156,38.6541192 L69.3756271,38.6541192 C69.4915104,42.3946498 70.3837987,45.3950611 72.0525187,47.6554431 C73.7212387,49.9158251 76.3053983,51.0459992 79.8050749,51.0459992 C83.0729849,51.0459992 85.6803208,49.9789313 87.6271608,47.8447635 C88.7396408,46.6055693 89.5276357,45.1713383 89.991169,43.5420274 L96.1445432,43.5420274 C95.9823066,44.8959618 95.4434571,46.4047728 94.5279788,48.0685058 C93.6778918,49.6134006 92.7328942,50.8961024 91.6929614,51.9166438 L91.4512917,52.1474996 C89.550805,53.9833428 87.1984087,55.2225184 84.394032,55.8650636 C82.8875487,56.2322322 81.1840892,56.4158138 79.2836025,56.4158138 C74.6482692,56.4158138 70.7198831,54.7463689 67.4983265,51.407429 C64.2767698,48.0684891 62.6660156,43.3928959 62.6660156,37.3805093 C62.6660156,31.4599148 64.288358,26.6523724 67.5330913,22.9577379 C70.7778246,19.2631034 75.019091,17.4158138 80.2570177,17.4158138 Z M89.6660156,34.4158138 C89.4195158,31.7091757 88.8480929,29.546211 87.9517299,27.9268548 C86.2934583,24.9194791 83.525979,23.4158138 79.6492089,23.4158138 C76.8704835,23.4158138 74.5399746,24.4510295 72.6576123,26.521492 C70.7752499,28.5919545 69.778061,31.2233688 69.6660156,34.4158138 L89.6660156,34.4158138 Z M108.537056,43.5184454 C108.718053,45.5710872 109.227097,47.1447557 110.064206,48.239498 C111.602675,50.2237185 114.272331,51.2158138 118.073255,51.2158138 C120.33571,51.2158138 122.326641,50.7197661 124.046106,49.7276559 C125.765572,48.7355457 126.625292,47.2017891 126.625292,45.1263401 C126.625292,43.552648 125.935253,42.3552916 124.555156,41.5342349 C123.706735,41.0517763 122.063468,40.4955232 119.625306,39.8654599 L114.47597,38.5579191 C111.376407,37.7824766 109.091362,36.9158138 107.620767,35.9579191 C104.996319,34.2929985 103.684115,31.9895127 103.684115,29.0473928 C103.684115,25.5807088 104.922791,22.7754736 107.400179,20.6316033 C109.877566,18.4877329 113.208981,17.4158138 117.394522,17.4158138 C122.869663,17.4158138 126.817587,19.0350959 129.238414,22.2737085 C130.754258,24.3263504 131.489545,26.538609 131.444296,28.9105506 L125.675065,28.9105506 C125.561943,27.5193156 125.075522,26.2535388 124.215789,25.1131822 C122.813067,23.4938759 120.380965,22.6842349 116.919409,22.6842349 C114.611705,22.6842349 112.863985,23.1289673 111.676197,24.0184454 C110.488408,24.9079235 109.894522,26.0824732 109.894522,27.5421296 C109.894522,29.1386288 110.675058,30.4158138 112.236151,31.3737085 C113.141133,31.9438868 114.475962,32.4456362 116.240676,32.8789717 L120.279138,33.871077 C124.6683,34.9430121 127.609447,35.9807211 129.102667,36.9842349 C131.478245,38.5579269 132.666016,41.0324636 132.666016,44.4079191 C132.666016,47.6693389 131.438652,50.4859774 128.983889,52.8579191 C126.529126,55.2298608 122.790475,56.4158138 117.767826,56.4158138 C112.360559,56.4158138 108.531411,55.1785455 106.280269,52.7039717 C104.029127,50.2293979 102.824387,47.1675864 102.666016,43.5184454 L108.537056,43.5184454 Z M160.662071,12.350042 C160.751486,9.74421241 161.187379,7.83640151 161.969763,6.62655206 C163.378054,4.48604919 166.094003,3.4158138 170.117692,3.4158138 C170.497707,3.4158138 170.888893,3.4274468 171.291262,3.45071313 L171.800927,3.48421647 C172.069171,3.50376004 172.357533,3.52749152 172.666016,3.55541112 L172.666016,9.27890105 L171.85709,9.22218958 C171.676025,9.2105565 171.522679,9.20171538 171.397051,9.19566616 L171.308027,9.19165273 C171.028605,9.18001956 170.765951,9.17420307 170.520059,9.17420307 C168.687045,9.17420307 167.591724,9.66860528 167.234063,10.6574245 C166.876402,11.6462438 166.697574,14.1647869 166.697574,18.2131292 L172.666016,18.2131292 L172.666016,23.1688339 L166.630513,23.1688339 L166.630513,55.4158138 L160.662071,55.4158138 L160.662071,23.1688339 L155.666016,23.1688339 L155.666016,18.2131292 L160.662071,18.2131292 L160.662071,12.350042 Z M193.683616,51.4158138 C197.88417,51.4158138 200.764674,49.8358135 202.325216,46.6757656 C203.885757,43.5157176 204.666016,40.0000712 204.666016,36.1287209 C204.666016,32.6305128 204.102821,29.7853463 202.976416,27.5931359 C201.19294,24.1415706 198.118837,22.4158138 193.754016,22.4158138 C189.881996,22.4158138 187.066024,23.8850392 185.306016,26.8235339 C183.546007,29.7620287 182.666016,33.3068264 182.666016,37.4580333 C182.666016,41.4459906 183.546007,44.7692384 185.306016,47.4278765 C187.066024,50.0865147 189.85853,51.4158138 193.683616,51.4158138 Z M193.870424,17.4158138 C198.571851,17.4158138 202.546427,18.9881031 205.794272,22.1327288 C209.042117,25.2773545 210.666016,29.9030751 210.666016,36.0100294 C210.666016,41.9118994 209.235168,46.7882748 206.37343,50.639302 C203.511693,54.4903291 199.071523,56.4158138 193.052789,56.4158138 C188.033392,56.4158138 184.04746,54.7125004 181.094873,51.3058226 C178.142287,47.8991447 176.666016,43.3246944 176.666016,37.5823344 C176.666016,31.4298058 178.221778,26.5306436 181.33335,22.8847007 C184.444922,19.2387579 188.623905,17.4158138 193.870424,17.4158138 Z M217.666016,18.2486905 L223.573885,18.2486905 L223.573885,24.6687818 C224.057573,23.4194605 225.243741,21.898319 227.132426,20.1053115 C229.021111,18.3123041 231.197673,17.4158138 233.662177,17.4158138 L233.78063,17.4186467 C233.849728,17.4214796 233.933632,17.4264372 234.032344,17.4335195 L234.438837,17.4671745 C234.722599,17.4930862 235.131656,17.5338044 235.666016,17.5893298 L235.666016,24.1829371 C235.297492,24.1135304 234.957764,24.0672599 234.646822,24.0441243 C234.33588,24.0209887 233.996152,24.0094211 233.627628,24.0094211 C230.495175,24.0094211 228.088289,25.0215875 226.406899,27.0459508 C224.725508,29.070314 223.884826,31.4011887 223.884826,34.0386449 L223.884826,55.4158138 L217.666016,55.4158138 L217.666016,18.2486905 Z M6.53705635,128.518445 C6.71805273,130.571087 7.22709741,132.144756 8.06420567,133.239498 C9.6026749,135.223718 12.2723315,136.215814 16.0732554,136.215814 C18.3357102,136.215814 20.3266405,135.719766 22.0461061,134.727656 C23.7655717,133.735546 24.6252916,132.201789 24.6252916,130.12634 C24.6252916,128.552648 23.9352533,127.355292 22.5551559,126.534235 C21.7067354,126.051776 20.0634677,125.495523 17.6253064,124.86546 L12.4759704,123.557919 C9.37640737,122.782477 7.09136234,121.915814 5.62076676,120.957919 C2.99631924,119.292998 1.68411517,116.989513 1.68411517,114.047393 C1.68411517,110.580709 2.92279057,107.775474 5.40017852,105.631603 C7.87756647,103.487733 11.2089811,102.415814 15.3945224,102.415814 C20.8696629,102.415814 24.8175872,104.035096 27.2384138,107.273709 C28.7542585,109.32635 29.4895453,111.538609 29.4442962,113.910551 L23.6750654,113.910551 C23.5619427,112.519316 23.0755222,111.253539 22.2157894,110.113182 C20.8130674,108.493876 18.3809651,107.684235 14.9194093,107.684235 C12.6117054,107.684235 10.8639854,108.128967 9.67619662,109.018445 C8.48840788,109.907924 7.89452241,111.082473 7.89452241,112.54213 C7.89452241,114.138629 8.67505759,115.415814 10.2361514,116.373709 C11.1411333,116.943887 12.4759616,117.445636 14.2406763,117.878972 L18.2791378,118.871077 C22.6683,119.943012 25.6094471,120.980721 27.1026672,121.984235 C29.4782447,123.557927 30.6660156,126.032464 30.6660156,129.407919 C30.6660156,132.669339 29.4386523,135.485977 26.9838889,137.857919 C24.5291255,140.229861 20.7904751,141.415814 15.7678256,141.415814 C10.3605587,141.415814 6.5314115,140.178545 4.28026902,137.703972 C2.02912654,135.229398 0.824387458,132.167586 0.666015625,128.518445 L6.53705635,128.518445 Z M51.6256667,102.415814 C55.8365201,102.415814 59.2621493,103.425512 61.9026568,105.44494 C64.5431644,107.464368 66.1309348,110.940944 66.6660156,115.874772 L60.5591454,115.874772 C60.1869153,113.602916 59.337778,111.715468 58.0117081,110.212372 C56.6856382,108.709275 54.556979,107.957738 51.6256667,107.957738 C47.6241926,107.957738 44.7627163,109.885344 43.0411519,113.740615 C41.9244615,116.241952 41.3661247,119.328417 41.3661247,123.000103 C41.3661247,126.694738 42.1571019,129.804151 43.73908,132.328435 C45.3210581,134.85272 47.8103098,136.114843 51.2069098,136.114843 C53.8125208,136.114843 55.8772039,135.328884 57.4010211,133.756944 C58.9248382,132.185003 59.9775358,130.033656 60.5591454,127.302839 L66.6660156,127.302839 C65.9680841,132.190772 64.2232815,135.764876 61.4315554,138.025258 C58.6398294,140.28564 55.0688,141.415814 50.7183602,141.415814 C45.8328396,141.415814 41.9361138,139.654578 39.0280658,136.132054 C36.1200178,132.60953 34.6660156,128.209309 34.6660156,122.93126 C34.6660156,116.459912 36.259602,111.422893 39.4468226,107.82005 C42.6340432,104.217208 46.6936173,102.415814 51.6256667,102.415814 Z M72.6660156,89.4158138 L78.8515826,89.4158138 L78.8515826,108.376465 C80.3177984,106.50807 81.6350819,105.193294 82.8034727,104.432096 C84.7966098,103.1173 87.2822665,102.459911 90.2605173,102.459911 C95.5984593,102.459911 99.2181252,104.339811 101.119624,108.099667 C102.150557,110.152595 102.666016,113.001277 102.666016,116.6458 L102.666016,140.415814 L96.3086273,140.415814 L96.3086273,117.060997 C96.3086273,114.339138 95.9649881,112.343907 95.2776995,111.075244 C94.155128,109.045383 92.0474744,108.030468 88.9546754,108.030468 C86.3887978,108.030468 84.063506,108.918519 81.9787304,110.694647 C79.8939548,112.470775 78.8515826,115.826915 78.8515826,120.763168 L78.8515826,140.415814 L72.6660156,140.415814 L72.6660156,89.4158138 Z M126.683616,136.415814 C130.88417,136.415814 133.764674,134.835814 135.325216,131.675766 C136.885757,128.515718 137.666016,125.000071 137.666016,121.128721 C137.666016,117.630513 137.102821,114.785346 135.976416,112.593136 C134.19294,109.141571 131.118837,107.415814 126.754016,107.415814 C122.881996,107.415814 120.066024,108.885039 118.306016,111.823534 C116.546007,114.762029 115.666016,118.306826 115.666016,122.458033 C115.666016,126.445991 116.546007,129.769238 118.306016,132.427877 C120.066024,135.086515 122.85853,136.415814 126.683616,136.415814 Z M126.870424,102.415814 C131.571851,102.415814 135.546427,103.988103 138.794272,107.132729 C142.042117,110.277355 143.666016,114.903075 143.666016,121.010029 C143.666016,126.911899 142.235168,131.788275 139.37343,135.639302 C136.511693,139.490329 132.071523,141.415814 126.052789,141.415814 C121.033392,141.415814 117.04746,139.7125 114.094873,136.305823 C111.142287,132.899145 109.666016,128.324694 109.666016,122.582334 C109.666016,116.429806 111.221778,111.530644 114.33335,107.884701 C117.444922,104.238758 121.623905,102.415814 126.870424,102.415814 Z M165.683616,136.415814 C169.88417,136.415814 172.764674,134.835814 174.325216,131.675766 C175.885757,128.515718 176.666016,125.000071 176.666016,121.128721 C176.666016,117.630513 176.102821,114.785346 174.976416,112.593136 C173.19294,109.141571 170.118837,107.415814 165.754016,107.415814 C161.881996,107.415814 159.066024,108.885039 157.306016,111.823534 C155.546007,114.762029 154.666016,118.306826 154.666016,122.458033 C154.666016,126.445991 155.546007,129.769238 157.306016,132.427877 C159.066024,135.086515 161.85853,136.415814 165.683616,136.415814 Z M165.870424,102.415814 C170.571851,102.415814 174.546427,103.988103 177.794272,107.132729 C181.042117,110.277355 182.666016,114.903075 182.666016,121.010029 C182.666016,126.911899 181.235168,131.788275 178.37343,135.639302 C175.511693,139.490329 171.071523,141.415814 165.052789,141.415814 C160.033392,141.415814 156.04746,139.7125 153.094873,136.305823 C150.142287,132.899145 148.666016,128.324694 148.666016,122.582334 C148.666016,116.429806 150.221778,111.530644 153.33335,107.884701 C156.444922,104.238758 160.623905,102.415814 165.870424,102.415814 Z M190.666016,89.4158138 L196.666016,89.4158138 L196.666016,140.415814 L190.666016,140.415814 L190.666016,89.4158138 Z M209.537056,128.518445 C209.718053,130.571087 210.227097,132.144756 211.064206,133.239498 C212.602675,135.223718 215.272331,136.215814 219.073255,136.215814 C221.33571,136.215814 223.326641,135.719766 225.046106,134.727656 C226.765572,133.735546 227.625292,132.201789 227.625292,130.12634 C227.625292,128.552648 226.935253,127.355292 225.555156,126.534235 C224.706735,126.051776 223.063468,125.495523 220.625306,124.86546 L215.47597,123.557919 C212.376407,122.782477 210.091362,121.915814 208.620767,120.957919 C205.996319,119.292998 204.684115,116.989513 204.684115,114.047393 C204.684115,110.580709 205.922791,107.775474 208.400179,105.631603 C210.877566,103.487733 214.208981,102.415814 218.394522,102.415814 C223.869663,102.415814 227.817587,104.035096 230.238414,107.273709 C231.754258,109.32635 232.489545,111.538609 232.444296,113.910551 L226.675065,113.910551 C226.561943,112.519316 226.075522,111.253539 225.215789,110.113182 C223.813067,108.493876 221.380965,107.684235 217.919409,107.684235 C215.611705,107.684235 213.863985,108.128967 212.676197,109.018445 C211.488408,109.907924 210.894522,111.082473 210.894522,112.54213 C210.894522,114.138629 211.675058,115.415814 213.236151,116.373709 C214.141133,116.943887 215.475962,117.445636 217.240676,117.878972 L221.279138,118.871077 C225.6683,119.943012 228.609447,120.980721 230.102667,121.984235 C232.478245,123.557927 233.666016,126.032464 233.666016,129.407919 C233.666016,132.669339 232.438652,135.485977 229.983889,137.857919 C227.529126,140.229861 223.790475,141.415814 218.767826,141.415814 C213.360559,141.415814 209.531411,140.178545 207.280269,137.703972 C205.029127,135.229398 203.824387,132.167586 203.666016,128.518445 L209.537056,128.518445 Z" id="tesforschools" fill="#3B99D0" fill-rule="nonzero"></path>
            <path d="M130,162.086975 C130.237461,162.432376 130.819841,163.341492 131.050827,163.692015 C134.177986,168.437502 136.431483,172.787876 140.356845,176.902003 C142.861007,179.526586 146.440637,180.936088 149.726097,182.512052 C165.440552,190.049931 169.327669,167.051874 172,156" id="Path-3" stroke="#3B99D0" stroke-width="4" stroke-linecap="round" stroke-linejoin="round"></path>
            <path d="M130,165.773417 C158.896058,165.773417 144.906199,167.754655 172,160" id="Path-4" stroke="#3B99D0" stroke-width="4" stroke-linecap="round" stroke-linejoin="round"></path>
            <path d="M124.395858,130.356681 C125.115201,133.258582 128.861876,134.825561 127.817468,129.361774 C126.872391,124.417637 122.565569,124.833126 124.395858,130.356681" id="Path-5" stroke="#3B99D0" stroke-width="3" stroke-linecap="round" stroke-linejoin="round"></path>
            <path d="M163,110.098105 C163,127.810797 176.142418,110.551 163,110.098105" id="Path-6" stroke="#3B99D0" stroke-width="3" stroke-linecap="round" stroke-linejoin="round"></path>
            <path d="M14,5.4767519 C16.6666667,5.32558397 19.3333333,5.17441603 22,5.0232481" id="Path-11" stroke="#3B99D0" stroke-width="4" stroke-linecap="round" stroke-linejoin="round"></path>
            <path d="M18.9508819,0 C18.9508819,7.90578959 19.4894294,3.88038568 17,12" id="Path-12" stroke="#3B99D0" stroke-width="4" stroke-linecap="round" stroke-linejoin="round"></path>
            <polygon id="Path" fill="#3B99D0" points="67.27 11.705 51.03 11.705 51.03 56.155 44.275 56.155 44.275 11.705 28 11.705 28 6 67.27 6"></polygon>
        </g>
    </g>
</svg>