<svg width="1200" height="600" viewBox="0 0 1200 600" fill="none" xmlns="http://www.w3.org/2000/svg">
<g id="tes_for_schools_hero">
<rect width="1200" height="600" fill="#FFFEE5"/>
<g id="undraw_exams_g4ow">
<path id="Path" opacity="0.1" d="M1089 469.264C1089 469.472 1089 469.679 1089 469.883C1088.96 473.46 1088.75 477.028 1088.36 480.586C1088.36 480.608 1088.36 480.629 1088.36 480.651C1088.33 480.947 1088.29 481.239 1088.26 481.535C1088.2 482.035 1088.14 482.531 1088.07 483.031C1087.27 489.114 1085.95 495.119 1084.11 500.979C1081.66 508.898 1078.19 516.471 1073.79 523.514C1072.43 525.668 1070.99 527.752 1069.46 529.767C1068.64 530.834 1067.81 531.878 1066.95 532.905C1066.35 533.623 1065.73 534.331 1065.1 535.027L1064.71 535.455C1061.42 539.043 1057.86 542.39 1054.08 545.471C1047.9 550.544 1041.25 554.957 1034.5 559.051C1034.11 559.285 1033.73 559.517 1033.34 559.731C1033.31 559.75 1033.28 559.767 1033.25 559.782C1024.07 565.283 1014.55 570.247 1004.74 574.221C994.006 578.584 982.918 581.756 971.542 583.143C955.686 585.074 939.637 583.503 923.876 580.804C910.769 578.572 897.82 575.505 885.11 571.624L883.017 570.974C881.933 570.632 880.85 570.283 879.768 569.927C873.234 567.785 866.773 565.405 860.385 562.787C844.341 556.239 829.014 548.083 814.643 538.447C812.814 537.227 811.01 535.981 809.233 534.707C806.749 532.934 804.295 531.11 801.871 529.233L800.375 528.084C794.031 523.16 788.086 517.75 782.597 511.903C775.215 503.941 768.906 494.958 764.758 484.704C764.104 483.092 763.505 481.45 762.96 479.777L762.909 479.611C762.634 478.761 762.38 477.911 762.147 477.027C761.804 475.762 761.503 474.481 761.245 473.185C761.19 472.936 761.142 472.688 761.097 472.437C760.277 468.073 759.915 463.638 760.017 459.201C760.102 455.313 760.562 451.442 761.389 447.641C762.235 443.7 763.54 439.87 765.276 436.227C766.845 432.951 768.844 429.895 771.221 427.139C772.892 425.212 774.77 423.472 776.824 421.95C780.546 419.203 784.673 417.289 788.951 415.776C790.961 415.062 792.999 414.437 795.047 413.855C796.499 413.44 797.957 413.046 799.408 412.658L803.689 411.513C806.434 410.771 809.178 410.01 811.882 409.187C819.251 406.957 826.472 404.257 833.152 400.231C834.209 399.596 835.286 398.899 836.363 398.151C837.735 397.206 839.087 396.179 840.425 395.07C841.777 393.948 843.101 392.748 844.363 391.477C844.559 391.279 844.751 391.082 844.943 390.882C845.972 389.807 846.971 388.682 847.897 387.512C848.35 386.941 848.789 386.36 849.208 385.768C849.787 384.949 850.336 384.116 850.844 383.259C853.39 378.975 854.961 374.249 854.776 369.268C854.748 368.447 854.674 367.629 854.553 366.817C854.107 363.814 853.678 360.884 853.362 358.017C852.038 346.162 852.597 335.411 861.575 325.31C872.739 312.754 890.259 310.194 906.208 311.197C952.32 314.087 994.298 340.178 1031.19 371.24C1034.38 373.924 1037.53 376.644 1040.64 379.4C1041.43 380.093 1042.21 380.792 1043 381.494C1048.83 386.7 1054.58 392.099 1059.92 397.882C1060.36 398.351 1060.79 398.82 1061.21 399.293C1061.47 399.585 1061.74 399.874 1062 400.17C1063.66 402.04 1065.28 403.956 1066.85 405.916C1071.05 411.121 1074.76 416.698 1077.94 422.576C1082.8 431.801 1086.09 441.757 1087.67 452.044C1088.27 455.779 1088.66 459.544 1088.85 463.321C1088.91 464.433 1088.95 465.548 1088.97 466.66C1088.97 467.017 1088.97 467.371 1088.97 467.728C1089 468.244 1089 468.748 1089 469.264Z" fill="#3B99D0"/>
<path id="Path Copy" opacity="0.1" d="M793.368 264.508C793.391 264.547 793.414 264.587 793.436 264.626C793.822 265.31 794.174 266.011 794.491 266.731C794.494 266.734 794.496 266.739 794.498 266.743C794.525 266.802 794.55 266.862 794.576 266.922C794.62 267.023 794.663 267.124 794.705 267.227C795.222 268.471 795.631 269.757 795.928 271.071C796.332 272.845 796.507 274.664 796.447 276.484C796.427 277.042 796.383 277.596 796.314 278.146C796.277 278.438 796.233 278.728 796.183 279.017C796.147 279.22 796.109 279.421 796.066 279.622L796.039 279.746C795.809 280.789 795.503 281.814 795.124 282.813C794.511 284.452 793.736 286.018 792.906 287.535C792.859 287.621 792.811 287.708 792.761 287.791C792.758 287.797 792.754 287.804 792.75 287.81C791.615 289.859 790.356 291.843 788.934 293.671C787.378 295.674 785.625 297.489 783.621 298.996C780.828 301.096 777.614 302.552 774.331 303.761C771.601 304.769 768.81 305.602 765.974 306.253L765.506 306.358C765.263 306.412 765.02 306.464 764.776 306.514C763.302 306.821 761.816 307.075 760.317 307.275C756.557 307.784 752.756 307.908 748.974 307.647C748.493 307.615 748.014 307.575 747.537 307.527C746.872 307.462 746.206 307.383 745.54 307.291L745.131 307.236C743.387 306.994 741.666 306.615 739.983 306.103C737.709 305.396 735.526 304.378 733.613 302.882C733.312 302.647 733.018 302.4 732.731 302.142L732.703 302.116C732.558 301.984 732.416 301.85 732.275 301.708C732.071 301.505 731.873 301.294 731.681 301.076C731.644 301.035 731.607 300.993 731.571 300.95C730.936 300.21 730.38 299.406 729.912 298.552C729.501 297.803 729.163 297.017 728.902 296.204C728.629 295.362 728.455 294.491 728.384 293.609C728.322 292.815 728.365 292.015 728.512 291.231C728.617 290.682 728.782 290.146 729.004 289.633C729.407 288.704 729.979 287.889 730.624 287.133C730.926 286.778 731.244 286.436 731.568 286.102C731.798 285.864 732.031 285.63 732.263 285.398L732.949 284.712C733.387 284.271 733.824 283.826 734.246 283.374C735.397 282.145 736.469 280.842 737.293 279.347C737.423 279.111 737.551 278.86 737.673 278.6C737.829 278.271 737.972 277.928 738.104 277.571C738.237 277.21 738.356 276.837 738.456 276.457C738.471 276.398 738.486 276.34 738.5 276.281C738.577 275.964 738.643 275.641 738.69 275.317C738.713 275.159 738.732 275.001 738.746 274.842C738.766 274.623 738.779 274.405 738.781 274.186C738.793 273.094 738.571 272.024 737.988 271.097C737.893 270.944 737.789 270.796 737.677 270.655C737.262 270.133 736.859 269.623 736.484 269.112C734.93 267.003 733.855 264.898 734.447 261.996C735.183 258.389 738.222 255.987 741.355 254.435C750.412 249.944 761.235 250.317 771.64 252.19C772.539 252.352 773.436 252.524 774.328 252.708C774.553 252.754 774.779 252.801 775.005 252.849C776.683 253.201 778.364 253.6 780.014 254.115C780.147 254.157 780.281 254.199 780.413 254.242C780.495 254.269 780.577 254.295 780.658 254.323C781.179 254.497 781.696 254.684 782.209 254.885C783.578 255.415 784.894 256.07 786.141 256.841C788.076 258.063 789.794 259.597 791.225 261.379C791.749 262.024 792.237 262.696 792.687 263.394C792.82 263.599 792.95 263.807 793.076 264.016C793.115 264.084 793.154 264.151 793.194 264.219C793.257 264.314 793.312 264.409 793.368 264.508Z" fill="#3B99D0"/>
<path id="Path_2" d="M895.966 463.356L891 559.929L895.966 560L900 462L895.966 463.356Z" fill="#3F3D56"/>
<rect id="Rectangle" x="808" y="511" width="67" height="15" fill="#9BD03B"/>
<path id="Path_3" d="M880 526V534H810.312C807.845 532.455 805.408 530.865 803 529.23V526H880Z" fill="#3F3D56"/>
<path id="Path_4" d="M893.532 505.01C893.342 505.886 893.094 506.751 892.833 507.613C892.063 510.105 891.137 512.563 890.958 515.152C890.717 518.574 891.636 522.553 889.262 525.038C888.651 525.68 887.854 526.16 887.308 526.847C887.224 526.954 887.147 527.067 887.078 527.185C886.589 527.989 886.532 528.97 886.525 529.889C886.531 531.851 886.659 533.81 886.908 535.755C887.712 542.449 889.299 549.157 887.213 555.475C886.835 556.571 886.395 557.645 885.894 558.69C884.877 560.922 883.768 563.123 883.435 565.54C883.191 567.332 883.266 569.178 883.252 571C882.18 570.66 881.11 570.313 880.04 569.959C873.58 567.829 867.193 565.462 860.878 562.859C860.895 562.768 860.911 562.673 860.925 562.582C861.41 559.573 860.745 556.496 859.938 553.562C858.242 547.345 855.841 541.188 854.42 534.927C853.848 532.481 853.472 529.994 853.297 527.489C853.257 526.928 853.233 526.363 853.229 525.799C853.213 525.062 853.229 524.325 853.26 523.581C853.331 522.097 853.396 520.335 852.205 519.433C851.551 518.942 850.686 518.858 849.923 518.56C848.451 517.989 847.443 516.664 846.277 515.602C845.147 514.51 843.55 514.042 842.007 514.351C834.382 516.092 828.779 522.54 821.684 525.799C821.409 525.927 821.135 526.049 820.857 526.164C819.939 526.499 819.065 526.944 818.255 527.489C817.686 527.883 817.273 528.463 817.089 529.129C816.909 529.845 817.065 530.596 817.153 531.333C817.296 532.531 817.244 533.745 817 534.927C816.908 535.385 816.787 535.837 816.637 536.279C816.366 537.08 816.003 537.865 815.657 538.646C813.848 537.433 812.066 536.193 810.309 534.927C807.853 533.164 805.427 531.35 803.03 529.484L801.575 528.317C795.303 523.422 789.427 518.042 784 512.228C784.722 510.2 785.767 508.313 786.269 506.234C786.554 505.04 786.659 503.8 787.052 502.64C787.506 501.438 788.137 500.31 788.925 499.293C791.809 495.284 795.33 491.771 799.35 488.894C803.553 485.892 808.406 483.484 812.188 480.077C813.722 478.737 815.045 477.175 816.112 475.442C816.176 475.337 816.237 475.225 816.291 475.103C816.587 474.492 816.791 473.84 816.899 473.17C817.17 471.655 817.129 469.992 817.265 468.538C821.872 469.333 826.568 469.474 831.215 468.957C836.624 468.352 841.915 466.854 847.325 466.273C847.732 466.225 848.142 466.188 848.552 466.154C850.286 466.016 852.022 465.985 853.762 466.006C855.217 466.006 856.672 466.07 858.127 466.117L874.146 466.658C875.919 466.719 877.73 466.787 879.382 467.432C881.343 468.2 882.913 469.728 884.171 471.408C884.331 471.625 884.49 471.841 884.639 472.064C885.675 473.57 886.505 475.206 887.108 476.929C887.173 477.105 887.234 477.267 887.291 477.46C887.444 477.93 887.576 478.403 887.695 478.883C887.787 479.258 887.868 479.634 887.943 480.012C888.316 481.885 888.536 483.799 889.126 485.608C889.167 485.739 889.211 485.871 889.259 486C889.967 487.981 891.144 489.756 892.033 491.659C892.674 493.037 893.163 494.48 893.491 495.963C894.156 498.941 894.169 502.026 893.532 505.01Z" fill="#35323E"/>
<path id="Path_5" d="M844.108 381.563C842.661 380.417 840.562 381.256 838.867 381.996C837.447 382.62 835.984 383.146 834.49 383.569C834.185 383.686 833.853 383.72 833.53 383.668C832.844 383.504 832.556 382.696 832.045 382.204C831.156 381.355 829.702 381.556 828.556 382.017C827.411 382.477 826.279 383.142 825.051 383.04C823.741 382.938 822.602 381.976 821.278 381.945C818.945 381.891 816.987 384.749 814.781 383.992C813.437 383.531 812.38 381.792 811.056 382.286C810.027 382.675 809.935 384.091 809.314 385.015C808.583 386.093 807.16 386.396 805.942 386.874C802.104 388.381 799.562 392.634 800.063 396.707C800.341 398.954 801.435 401.014 802.159 403.159C804.306 409.398 803.568 416.434 806.275 422.45C806.618 422.129 806.81 422.01 807.142 421.693C806.287 423.458 806.122 425.476 806.679 427.355C806.964 428.299 807.427 429.179 807.777 430.104C808.14 431.14 808.434 432.2 808.655 433.275L811.639 446.366C812.806 451.482 813.975 456.598 814.178 461.836C814.304 465.243 814.041 468.652 813.396 472C818.801 471.11 823.747 468.726 829.225 468.756C831.235 468.756 833.228 469.098 835.221 469.37C841.031 470.179 846.892 470.574 852.759 470.554C853.671 470.606 854.585 470.478 855.448 470.179C856.203 469.858 856.82 469.289 857.534 468.876C858.93 468.057 860.621 467.853 862.229 467.853C869.566 467.72 876.636 470.39 883.925 471.332C886.802 465.325 886.974 458.129 884.765 451.85C884.11 449.984 883.228 448.166 882.968 446.205C882.863 445 882.835 443.789 882.885 442.58C882.874 439.485 882.313 436.416 881.229 433.514C880.803 432.378 880.292 431.222 880.337 430.011C880.381 428.801 880.982 427.672 881.572 426.601C882.769 424.418 883.973 422.215 885.664 420.373C887.396 418.47 889.564 417.02 891.707 415.598L897 412.065C896.276 407.518 895.343 402.73 893.405 398.548C891.467 394.367 888.569 390.523 884.648 388.078C883.326 387.287 881.943 386.603 880.512 386.031C878.508 385.192 876.423 384.452 874.252 384.326C871.782 384.186 869.35 384.844 866.911 385.254C859.235 386.539 850.2 386.382 844.108 381.563Z" fill="#9BD03B"/>
<path id="Path_6" d="M902 461.482L899.48 464.547L894.729 470.325L889.237 477.002L887.702 478.868H884.726L811.027 478.95L764.872 479H762.813C762.538 478.173 762.284 477.346 762.05 476.487C761.707 475.256 761.406 474.011 761.148 472.749C761.093 472.508 761.045 472.266 761 472.022L777.745 461.475L784.041 461.442L803.299 461.336L814.054 461.277H816.018H817.25L824.418 461.24L879.048 460.939L881.842 460.923H883.054L886.264 460.906L898.207 460.84L900.5 460L900.668 460.172L902 461.482Z" fill="#3F3D56"/>
<path id="Path_7" d="M902 459.565L901.715 459.903L899.842 462.083L895.986 466.581L887.899 476L816.263 474.193L762.245 472.838C762.19 472.59 762.142 472.343 762.097 472.092C761.277 467.742 760.915 463.32 761.017 458.897L767.007 455.867L768.379 455.168L779.059 449.745L788.432 445L812.881 448.139L818.294 448.833L820.744 449.145L824.329 449.606L824.631 449.647L880.852 456.85L887.066 457.646L890.713 458.114L901.952 459.558L902 459.565Z" fill="#504F60"/>
<path id="Path_8" d="M889 476L888.945 477.344L888.623 484.935L886.891 526.666L886.524 535.687L885.558 558.892L885.014 572L883.049 571.347C882.032 571.002 881.015 570.651 880 570.293L884.711 479.304L884.811 477.396L886.884 476.711L889 476Z" fill="#3F3D56"/>
<path id="Path_9" d="M766 476L765.845 479.251L765.618 484C764.962 482.499 764.361 480.97 763.815 479.413L763.764 479.258C763.489 478.466 763.234 477.675 763 476.852L766 476Z" fill="#3F3D56"/>
<ellipse id="Oval" cx="855.5" cy="404" rx="15.5" ry="21" fill="#A1616A"/>
<ellipse id="Oval_2" opacity="0.1" cx="855.5" cy="404" rx="15.5" ry="21" fill="black"/>
<circle id="Oval_3" cx="856.5" cy="391.5" r="21.5" fill="#A1616A"/>
<path id="Path_10" d="M857.85 358.492C856.533 358.6 855.225 358.804 853.936 359.104C850.524 359.954 847.574 361.841 844.702 363.694C843.414 364.526 842.089 365.394 841.29 366.617C839.854 368.812 840.41 371.604 839.605 374.041C839.187 375.292 838.418 376.415 837.767 377.58C835.977 380.773 835.04 384.281 834.12 387.754C833.931 388.473 833.877 389.448 834.642 389.724C835.083 389.818 835.541 389.765 835.95 389.572C838.367 388.753 841.439 388.518 843.232 390.18C845.026 391.843 844.874 394.791 847.008 396.056C849.452 397.518 853.268 395.752 855.487 397.476C856.437 398.216 856.781 399.401 857.56 400.293C859.374 402.366 862.863 402.266 865.766 401.848C867.431 401.606 869.474 401.444 870.486 402.643C870.971 403.21 871.109 403.987 871.672 404.499C872.684 405.425 874.535 404.955 875.522 404.004C876.51 403.054 876.982 401.768 877.805 400.701C879.406 398.627 882.221 397.497 883.873 395.447C885.255 393.719 885.673 391.556 886.051 389.468L887.457 381.73C888.026 378.592 888.546 375.164 886.823 372.399C886.209 371.404 885.329 370.547 884.8 369.517C884.446 368.826 884.247 368.097 883.836 367.443C883.348 366.763 882.765 366.16 882.106 365.653L878.779 362.83C877.641 361.809 876.425 360.884 875.141 360.065C870.391 357.227 863.278 357.974 857.85 358.492Z" fill="#464353"/>
<path id="Path_11" d="M786.538 413.07C785.735 413.927 784.992 414.851 784.13 415.653C783.373 416.329 782.58 416.964 781.757 417.557C780.427 418.554 779.127 419.586 777.857 420.653C776.531 421.704 775.331 422.905 774.282 424.233C772.471 426.67 771.613 429.702 769.918 432.22C768.419 434.454 766.306 436.218 764.783 438.434C764.115 439.366 763.619 440.41 763.318 441.517C763.094 442.588 762.992 443.682 763.016 444.777C762.986 446.571 762.959 448.386 763.325 450.144C763.691 451.901 764.495 453.628 765.872 454.78C767.15 455.851 768.802 456.344 770.419 456.751C771.254 456.959 772.156 457.153 772.949 456.823C773.53 456.529 774.034 456.103 774.421 455.579L778.548 450.82C781.309 447.625 784.178 444.362 787.966 442.492C789.153 441.911 790.404 441.473 791.595 440.908C796.641 438.471 800.209 433.481 801.592 428.043C801.931 426.714 802.148 425.358 802.369 424.002L802.966 420.283C803.011 420.097 803.011 419.902 802.966 419.715C802.872 419.506 802.722 419.327 802.532 419.199C799.657 416.872 796.965 414.326 794.481 411.585C793.891 410.932 793.338 410.038 792.656 409.491C791.802 408.811 791.866 408.862 790.838 409.491C789.258 410.494 787.812 411.697 786.538 413.07Z" fill="#A1616A"/>
<path id="Path_12" d="M813.493 437.386C813.399 437.17 813.194 437.022 812.96 437.002C812.726 436.982 812.499 437.092 812.37 437.289C812.241 437.486 812.23 437.739 812.341 437.946L812 438.114L822.163 459L824 458.101L813.837 437.201L813.493 437.386Z" fill="#3F3D56"/>
<path id="Path_13" opacity="0.04" d="M786.538 413.07C785.735 413.927 784.992 414.851 784.13 415.653C783.373 416.329 782.58 416.964 781.757 417.557C780.427 418.554 779.127 419.586 777.857 420.653C776.531 421.704 775.331 422.905 774.282 424.233C772.471 426.67 771.613 429.702 769.918 432.22C768.419 434.454 766.306 436.218 764.783 438.434C764.115 439.366 763.619 440.41 763.318 441.517C763.094 442.588 762.992 443.682 763.016 444.777C762.986 446.571 762.959 448.386 763.325 450.144C763.691 451.901 764.495 453.628 765.872 454.78C767.15 455.851 768.802 456.344 770.419 456.751C771.254 456.959 772.156 457.153 772.949 456.823C773.53 456.529 774.034 456.103 774.421 455.579L778.548 450.82C781.309 447.625 784.178 444.362 787.966 442.492C789.153 441.911 790.404 441.473 791.595 440.908C796.641 438.471 800.209 433.481 801.592 428.043C801.931 426.714 802.148 425.358 802.369 424.002L802.966 420.283C803.011 420.097 803.011 419.902 802.966 419.715C802.872 419.506 802.722 419.327 802.532 419.199C799.657 416.872 796.965 414.326 794.481 411.585C793.891 410.932 793.338 410.038 792.656 409.491C791.802 408.811 791.866 408.862 790.838 409.491C789.258 410.494 787.812 411.697 786.538 413.07Z" fill="black"/>
<path id="Path_14" d="M902.985 451.744C902.952 453.968 902.868 456.258 901.976 458.287C901.592 459.166 900.997 460.03 900.105 460.32C899.566 460.449 899.008 460.47 898.46 460.382C891.86 459.781 885.209 460.328 878.783 462C880.498 458.444 879.513 454.181 879.987 450.234C880.118 449.157 880.357 448.097 880.448 447.016C880.784 443.182 879.2 439.458 878.473 435.672C877.842 432.395 877.842 429.021 878.473 425.744C878.597 424.9 878.877 424.089 879.297 423.356C879.79 422.642 880.438 422.058 881.188 421.651C883.913 420.044 887.126 419.859 890.188 420.072C892.25 420.215 896.385 420.013 898.104 421.327C899.984 422.767 900.58 427.602 901.088 429.837C901.848 433.264 902.366 436.744 902.635 440.25C902.965 444.071 903.036 447.909 902.985 451.744Z" fill="#A1616A"/>
<path id="Path_15" d="M782 460L794.182 468L849 466L812.793 460H782Z" fill="white"/>
<path id="Path_16" d="M797.597 393.432C795.525 395.235 793.767 397.359 791.803 399.279C789.11 401.915 786.048 404.157 783 406.389C785.223 407.002 786.955 408.723 787.559 410.921C787.693 411.43 787.759 411.959 787.91 412.457C788.261 413.637 789.033 414.654 789.86 415.571C793.417 419.525 798.394 422.452 800.491 427.334C800.559 427.571 800.708 427.779 800.912 427.922C801.082 427.997 801.272 428.018 801.455 427.984C803.353 427.787 804.805 426.279 806.015 424.812C808.54 421.698 810.732 418.259 811.977 414.46C813.222 410.661 813.422 406.461 812.065 402.697C811.388 400.822 810.343 399.099 809.305 397.393C808.395 395.901 807.488 394.411 806.583 392.923C806.11 392.138 805.506 390.543 804.577 390.156C802.571 389.305 798.885 392.162 797.597 393.432Z" fill="#9BD03B"/>
<path id="Path_17" d="M898.18 415.586L901 422.094C894.773 419.957 887.879 420.896 882.478 424.616C880.871 425.745 879.397 427.164 878.671 428.967C877.94 429.103 877.194 428.816 876.753 428.228C876.329 427.644 876.083 426.953 876.044 426.236C875.782 423.737 876.746 421.287 877.7 418.951C878.144 417.857 878.601 416.741 879.39 415.853C880.179 414.965 881.226 414.379 882.273 413.826C885.613 412.012 889.111 410.494 892.726 409.29C894.251 408.805 895.848 408.815 896.703 410.214C897.693 411.883 897.405 413.809 898.18 415.586Z" fill="#9BD03B"/>
<path id="Path_18" d="M780.492 437.312C781.221 437.886 781.861 438.566 782.611 439.113C783.403 439.657 784.247 440.124 785.129 440.509L788.504 442.111C789.549 442.648 790.644 443.087 791.772 443.423C793.216 443.805 794.732 443.842 796.183 444.197C798.014 444.643 799.688 445.573 801.491 446.11C803.295 446.647 805.406 446.735 806.912 445.617C807.853 444.917 808.565 443.761 809.732 443.588C810.485 443.49 811.21 443.849 811.881 444.197L820.662 448.757C821.846 449.372 823.099 450.055 823.718 451.228C824.338 452.4 823.92 454.182 822.616 454.486C822.162 454.538 821.705 454.564 821.248 454.564C820.796 454.618 820.303 454.881 820.241 455.331C820.239 455.61 820.314 455.885 820.457 456.125C820.851 457.018 820.967 458.086 820.508 458.951C820.05 459.816 818.924 460.354 818.024 459.965C818.178 461.273 816.737 462.189 815.454 462.537C812.216 463.413 808.784 462.875 805.475 462.321C804.174 462.105 802.853 461.882 801.669 461.307C801.101 461.033 800.574 460.682 799.999 460.428C798.421 459.735 796.628 459.827 794.903 459.857C786.926 459.996 779.017 458.535 771.174 457.082C769.719 456.812 768.224 456.524 766.981 455.73C764.586 454.189 763.696 451.025 764.09 448.226C764.483 445.427 765.921 442.892 767.334 440.431L769.165 437.244C769.404 436.756 769.739 436.319 770.15 435.959C772.844 433.928 778.186 435.48 780.492 437.312Z" fill="#A1616A"/>
<path id="Path_19" opacity="0.04" d="M780.492 437.312C781.221 437.886 781.861 438.566 782.611 439.113C783.403 439.657 784.247 440.124 785.129 440.509L788.504 442.111C789.549 442.648 790.644 443.087 791.772 443.423C793.216 443.805 794.732 443.842 796.183 444.197C798.014 444.643 799.688 445.573 801.491 446.11C803.295 446.647 805.406 446.735 806.912 445.617C807.853 444.917 808.565 443.761 809.732 443.588C810.485 443.49 811.21 443.849 811.881 444.197L820.662 448.757C821.846 449.372 823.099 450.055 823.718 451.228C824.338 452.4 823.92 454.182 822.616 454.486C822.162 454.538 821.705 454.564 821.248 454.564C820.796 454.618 820.303 454.881 820.241 455.331C820.239 455.61 820.314 455.885 820.457 456.125C820.851 457.018 820.967 458.086 820.508 458.951C820.05 459.816 818.924 460.354 818.024 459.965C818.178 461.273 816.737 462.189 815.454 462.537C812.216 463.413 808.784 462.875 805.475 462.321C804.174 462.105 802.853 461.882 801.669 461.307C801.101 461.033 800.574 460.682 799.999 460.428C798.421 459.735 796.628 459.827 794.903 459.857C786.926 459.996 779.017 458.535 771.174 457.082C769.719 456.812 768.224 456.524 766.981 455.73C764.586 454.189 763.696 451.025 764.09 448.226C764.483 445.427 765.921 442.892 767.334 440.431L769.165 437.244C769.404 436.756 769.739 436.319 770.15 435.959C772.844 433.928 778.186 435.48 780.492 437.312Z" fill="black"/>
<path id="Path_20" d="M884.717 443.151C882.947 443.973 880.914 444.053 879.065 444.685C877.216 445.317 875.645 446.453 873.949 447.379C869.531 449.806 864.432 450.722 859.426 451.594C856.39 452.129 853.307 452.664 850.248 452.537C846.108 452.363 842.132 451.006 838.121 449.983C834.11 448.96 829.831 448.272 825.857 449.422C821.649 450.682 818.303 453.839 816.85 457.922C816.017 460.325 815.902 462.916 816.061 465.45C816.897 466.055 818.067 465.216 818.522 464.297C818.978 463.377 819.226 462.251 820.11 461.716C821.642 462.227 822.016 464.236 823.281 465.229C824.069 465.851 825.123 466.015 826.126 466.155L831.292 466.877C832.536 467.051 833.981 467.168 834.882 466.305C835.32 465.888 835.561 465.303 835.962 464.855C836.785 463.959 838.158 463.805 839.382 463.926C843.202 464.3 846.785 466.737 850.578 466.158C851.883 465.961 853.097 465.413 854.341 464.982C861.713 462.421 869.905 463.979 877.576 462.512C880.503 461.953 883.32 460.964 886.104 459.921C887.617 459.356 889.146 458.764 890.438 457.808C892.925 455.928 894.255 452.922 893.959 449.85C893.675 447.546 892.506 445.437 890.693 443.953C890.095 443.452 889.309 442.492 888.592 442.178C887.222 441.587 885.88 442.613 884.717 443.151Z" fill="#A1616A"/>
<g id="Group" opacity="0.1">
<path id="Path_21" d="M874.945 398.474C874.381 397.977 874.243 397.22 873.756 396.669C872.743 395.503 870.696 395.661 869.028 395.896C866.12 396.303 862.611 396.397 860.807 394.383C860.027 393.516 859.682 392.366 858.73 391.644C856.508 389.963 852.684 391.684 850.236 390.262C848.098 389.022 848.236 386.145 846.453 384.548C844.669 382.951 841.579 383.16 839.157 383.956C838.748 384.144 838.288 384.196 837.847 384.104C837.08 383.835 837.134 382.887 837.323 382.188C838.246 378.81 839.184 375.398 840.978 372.292C841.63 371.16 842.4 370.067 842.819 368.85C843.552 366.719 843.177 364.309 844.139 362.292C843.106 362.965 842.113 363.698 841.474 364.645C840.036 366.78 840.593 369.496 839.786 371.866C839.367 373.082 838.597 374.175 837.945 375.308C836.151 378.413 835.213 381.825 834.29 385.203C834.101 385.903 834.047 386.85 834.814 387.119C835.255 387.211 835.715 387.159 836.124 386.971C838.546 386.175 841.623 385.946 843.42 387.563C845.217 389.18 845.065 392.047 847.203 393.277C849.651 394.699 853.475 392.982 855.697 394.659C856.649 395.378 856.994 396.531 857.774 397.398C859.591 399.415 863.087 399.318 865.995 398.911C867.663 398.676 869.71 398.518 870.723 399.684C871.21 400.235 871.348 400.992 871.912 401.489C872.926 402.39 874.78 401.933 875.769 401.008C876.404 400.351 876.947 399.611 877.384 398.81C876.506 399.076 875.57 399.035 874.945 398.474Z" fill="black"/>
<path id="Path_22" d="M881.099 394.777C880.881 395.056 880.68 395.346 880.494 395.647C881.791 394.726 883.166 393.866 884.135 392.693C884.387 392.389 884.613 392.065 884.811 391.725C883.463 392.686 882.058 393.57 881.099 394.777Z" fill="black"/>
</g>
<path id="Path_23" d="M952 463L953.059 560L958 559.324L956.941 463H952Z" fill="#3F3D56"/>
<path id="Path_24" d="M980 481L981.059 578L986 577.324L984.941 481H980Z" fill="#3F3D56"/>
<path id="Path_25" d="M1070 530.335L1069.98 528.46V527.344L1069.81 510.169L1069.54 483.317L1069.5 481H1065L1065.02 483.232L1065.16 497.614L1065.22 503.84L1065.28 508.883L1065.36 517.6L1065.41 522.741V523.285L1065.48 530.042L1065.54 536L1065.9 535.571C1066.49 534.875 1067.07 534.167 1067.63 533.448L1070 530.335Z" fill="#3F3D56"/>
<path id="Path_26" d="M974.738 497L972 501.164L974.738 520.133L998.009 526.611H1035.65L1058.24 528L1069 520.508L1067.14 507.642L1058.92 497H974.738Z" fill="#003643"/>
<path id="Path_27" d="M971.645 501L970.283 512.245C970.283 512.245 963.132 534.291 1020.68 532.94C1078.23 531.59 1068.36 527.091 1068.36 527.091L1068.01 514.046C1068.01 514.046 1070.02 520.22 1040.77 519.384C1011.52 518.548 984.245 515.846 984.245 515.846C984.245 515.846 974.029 517.644 971.645 501Z" fill="#3F3D56"/>
<path id="Path_28" d="M1019.97 398.496C1016.65 399.975 1014.12 402.842 1012.44 406.013C1010.75 409.184 1009.8 412.664 1008.86 416.121C1007.87 419.767 1006.88 423.423 1006.37 427.159C1005.46 433.804 1006.14 440.788 1009.27 446.756C1012.4 452.723 1018.18 457.538 1024.95 458.687C1027.56 459.135 1030.25 459.044 1032.89 458.778C1037.67 458.284 1042.37 457.273 1046.91 455.762C1051.66 454.195 1056.6 451.783 1058.72 447.339C1059.94 444.761 1060.05 441.823 1059.99 438.986C1059.82 431.253 1058.63 423.575 1056.43 416.145C1055.79 413.988 1055.05 411.815 1053.69 409.999C1052.34 408.183 1050.49 406.852 1048.6 405.619C1040.52 400.312 1029.91 394.089 1019.97 398.496Z" fill="#FBBEBE"/>
<path id="Path_29" opacity="0.05" d="M1019.97 398.496C1016.65 399.975 1014.12 402.842 1012.44 406.013C1010.75 409.184 1009.8 412.664 1008.86 416.121C1007.87 419.767 1006.88 423.423 1006.37 427.159C1005.46 433.804 1006.14 440.788 1009.27 446.756C1012.4 452.723 1018.18 457.538 1024.95 458.687C1027.56 459.135 1030.25 459.044 1032.89 458.778C1037.67 458.284 1042.37 457.273 1046.91 455.762C1051.66 454.195 1056.6 451.783 1058.72 447.339C1059.94 444.761 1060.05 441.823 1059.99 438.986C1059.82 431.253 1058.63 423.575 1056.43 416.145C1055.79 413.988 1055.05 411.815 1053.69 409.999C1052.34 408.183 1050.49 406.852 1048.6 405.619C1040.52 400.312 1029.91 394.089 1019.97 398.496Z" fill="black"/>
<path id="Path_30" d="M1016.84 442.168C1017.79 443.467 1018.93 444.609 1020.23 445.554C1023.46 447.783 1027.6 448.084 1031.52 448.206C1034.67 448.301 1038.28 448.122 1040.25 445.67C1041.14 444.566 1041.54 443.157 1041.9 441.785C1044.11 433.363 1045.69 424.784 1046.61 416.124L1055.58 416.154C1059.47 432.773 1059.15 450.049 1058.81 467.114L1058.32 492L1052.54 491.387C1038.8 489.934 1025.05 488.481 1011.24 488.231C1003.15 488.082 995.063 488.349 987 489.03L999.594 451.62C1001.23 446.757 1002.88 441.829 1003.26 436.718C1003.81 429.305 1001.73 421.478 1004.62 414.62C1004.85 414.068 1005.14 413.496 1005.66 413.208C1006.19 412.92 1006.85 412.991 1007.46 413.069C1008.6 413.221 1012.08 413.069 1012.91 413.797C1014.13 414.854 1013.32 415.013 1012.89 416.716C1012.12 419.765 1011.39 422.586 1011.4 425.762C1011.41 431.53 1013.2 437.619 1016.84 442.168Z" fill="#003643"/>
<path id="Path_31" d="M1069.55 529.845C1071.08 527.819 1072.52 525.721 1073.88 523.551C1073.19 522.086 1072.44 520.655 1071.84 519.16C1070.92 516.867 1070.39 514.437 1069.87 512.024C1069.69 511.203 1069.51 510.381 1069.34 509.56C1067.42 500.624 1065.61 491.562 1065.24 482.503C1065.2 481.75 1065.18 480.997 1065.17 480.244C1065.17 480.134 1065.17 480.028 1065.17 479.902C1065.17 479.077 1065.17 478.252 1065.17 477.431C1065.21 475.377 1065.34 473.307 1065.58 471.247C1065.63 470.843 1065.68 470.439 1065.73 470.035C1065.73 469.946 1065.75 469.86 1065.77 469.771L1089.09 468.923L1091.05 468.851C1092.4 468.803 1093.83 468.728 1094.94 467.964C1096.81 466.684 1097.03 464.06 1097 461.804C1096.88 456.104 1096.24 450.426 1095.06 444.846C1094.18 440.65 1092.92 436.362 1090.08 433.138C1087.76 430.489 1084.39 428.563 1083.18 425.267C1082.73 424.042 1082.62 422.697 1082.03 421.526C1081.45 420.356 1080.49 419.497 1079.58 418.593C1076.38 415.43 1073.72 411.762 1071.72 407.737C1070.33 404.945 1068.83 401.865 1067.01 399.934C1066.92 399.835 1066.83 399.743 1066.74 399.654C1065.2 398.131 1063.43 397.463 1061.34 398.5C1060.96 398.689 1060.6 398.911 1060.27 399.164C1059.52 399.733 1058.84 400.38 1058.23 401.094C1056.12 403.519 1054.27 406.157 1052.7 408.966C1051.6 410.943 1050.66 413.003 1049.87 415.126C1049.26 416.804 1048.75 418.518 1048.35 420.26C1048.05 421.55 1047.82 422.854 1047.64 424.161C1046.95 429.076 1046.95 434.086 1047.05 439.062C1047.15 443.635 1047.35 448.217 1047.77 452.772C1047.87 453.874 1047.98 454.975 1048.11 456.075C1048.36 458.249 1048.67 460.417 1049.04 462.578C1049.19 463.402 1049.34 464.227 1049.51 465.049C1049.55 465.268 1049.59 465.487 1049.64 465.702L1049.66 465.795C1050.11 467.704 1050.46 469.636 1050.71 471.582C1050.74 471.826 1050.76 472.069 1050.77 472.311C1050.83 473.43 1050.82 474.551 1050.75 475.668C1050.67 476.989 1050.54 478.307 1050.48 479.628C1050.48 479.861 1050.48 480.09 1050.46 480.312C1050.44 480.98 1050.46 481.647 1050.46 482.314C1050.53 483.911 1050.72 485.5 1051.03 487.068C1051.61 489.985 1052.61 492.802 1053.99 495.432C1054.12 495.679 1054.26 495.922 1054.39 496.161C1056.13 499.262 1058.33 502.106 1059.94 505.279C1061.32 508.134 1062.36 511.146 1063.02 514.249C1063.25 515.273 1063.47 516.3 1063.67 517.329C1063.99 518.972 1064.28 520.628 1064.57 522.285C1064.6 522.449 1064.63 522.627 1064.66 522.777C1065.05 524.975 1065.45 527.161 1065.98 529.307C1066.28 530.556 1066.63 531.788 1067.03 533L1069.55 529.845Z" fill="#464353"/>
<path id="Path_32" d="M1064.98 503.616C1064.98 503.922 1064.96 504.229 1064.95 504.539C1064.89 506.033 1064.75 507.524 1064.54 509.004C1064.26 511.025 1063.76 513.01 1063.07 514.927C1062.6 516.188 1062.02 517.399 1061.31 518.541C1060.69 519.556 1059.96 520.5 1059.13 521.358C1057.09 523.483 1054.16 524.161 1051.32 525.057C1050.01 525.436 1048.75 525.953 1047.55 526.6C1047.34 526.719 1047.13 526.849 1046.92 526.985L1043.37 529.345C1042.26 530.078 1041.13 530.837 1040.37 531.924C1040.25 532.108 1040.13 532.301 1040.03 532.499C1039.55 533.499 1039.2 534.557 1038.98 535.646C1037.14 543.365 1035.29 551.089 1034.02 558.923C1033.93 559.441 1033.85 559.962 1033.76 560.483L1033.73 560.647C1033.72 560.608 1033.7 560.571 1033.68 560.534C1024.59 566.045 1015.16 571.018 1005.45 575L1003.34 557.289C1003.12 555.849 1003.05 554.39 1003.12 552.936C1003.32 550.643 1004.25 548.47 1004.5 546.185C1004.74 543.947 1004.32 541.689 1003.29 539.689C1002.89 538.913 1002.39 538.15 1002.3 537.281C1002.2 536.413 1002.7 535.619 1003.57 535.531C1004.25 534.774 1004.31 533.742 1004.11 532.721C1004 532.187 1003.84 531.666 1003.63 531.164C1003.05 529.74 1002.32 528.191 1002.82 526.736C1002.95 526.473 1003.01 526.179 1002.99 525.885C1002.99 525.867 1002.99 525.848 1002.99 525.83C1002.87 525.449 1002.42 525.282 1002.19 524.958C1001.75 524.355 1002.19 523.534 1002.46 522.84C1002.72 522.093 1002.88 521.311 1002.91 520.52C1002.95 520.081 1002.98 519.638 1003.03 519.202C1003.09 518.612 1003.2 518.027 1003.34 517.451C1004.17 514.188 1006.15 511.34 1008.92 509.44C1010.25 508.548 1011.72 507.897 1013.06 507.056C1014.45 506.122 1015.77 505.098 1017.01 503.991C1020 501.493 1023.11 499.138 1026.34 496.926C1029.82 494.549 1033.41 492.359 1037.12 490.366C1037.91 489.937 1038.7 489.519 1039.5 489.113C1040.36 488.659 1041.23 488.228 1042.1 487.822C1044.9 486.483 1048.08 486.984 1051.17 487.876C1052.47 488.248 1053.75 488.691 1054.99 489.092C1056.2 489.486 1057.36 490.009 1058.45 490.652C1061.19 492.267 1063.46 494.651 1064.4 497.662C1064.4 497.681 1064.4 497.701 1064.4 497.72C1065 499.607 1065.04 501.63 1064.98 503.616Z" fill="#F86D70"/>
<path id="Path_33" opacity="0.1" d="M1064.98 503.616C1064.98 503.922 1064.96 504.229 1064.95 504.539C1064.89 506.033 1064.75 507.524 1064.54 509.004C1064.26 511.025 1063.76 513.01 1063.07 514.927C1062.6 516.188 1062.02 517.399 1061.31 518.541C1060.69 519.556 1059.96 520.5 1059.13 521.358C1057.09 523.483 1054.16 524.161 1051.32 525.057C1050.01 525.436 1048.75 525.953 1047.55 526.6C1047.34 526.719 1047.13 526.849 1046.92 526.985L1043.37 529.345C1042.26 530.078 1041.13 530.837 1040.37 531.924C1040.25 532.108 1040.13 532.301 1040.03 532.499C1039.55 533.499 1039.2 534.557 1038.98 535.646C1037.14 543.365 1035.29 551.089 1034.02 558.923C1033.93 559.441 1033.85 559.962 1033.76 560.483L1033.73 560.647C1033.72 560.608 1033.7 560.571 1033.68 560.534C1024.59 566.045 1015.16 571.018 1005.45 575L1003.34 557.289C1003.12 555.849 1003.05 554.39 1003.12 552.936C1003.32 550.643 1004.25 548.47 1004.5 546.185C1004.74 543.947 1004.32 541.689 1003.29 539.689C1002.89 538.913 1002.39 538.15 1002.3 537.281C1002.2 536.413 1002.7 535.619 1003.57 535.531C1004.25 534.774 1004.31 533.742 1004.11 532.721C1004 532.187 1003.84 531.666 1003.63 531.164C1003.05 529.74 1002.32 528.191 1002.82 526.736C1002.95 526.473 1003.01 526.179 1002.99 525.885C1002.99 525.867 1002.99 525.848 1002.99 525.83C1002.87 525.449 1002.42 525.282 1002.19 524.958C1001.75 524.355 1002.19 523.534 1002.46 522.84C1002.72 522.093 1002.88 521.311 1002.91 520.52C1002.95 520.081 1002.98 519.638 1003.03 519.202C1003.09 518.612 1003.2 518.027 1003.34 517.451C1004.17 514.188 1006.15 511.34 1008.92 509.44C1010.25 508.548 1011.72 507.897 1013.06 507.056C1014.45 506.122 1015.77 505.098 1017.01 503.991C1020 501.493 1023.11 499.138 1026.34 496.926C1029.82 494.549 1033.41 492.359 1037.12 490.366C1037.91 489.937 1038.7 489.519 1039.5 489.113C1040.36 488.659 1041.23 488.228 1042.1 487.822C1044.9 486.483 1048.08 486.984 1051.17 487.876C1052.47 488.248 1053.75 488.691 1054.99 489.092C1056.2 489.486 1057.36 490.009 1058.45 490.652C1061.19 492.267 1063.46 494.651 1064.4 497.662C1064.4 497.681 1064.4 497.701 1064.4 497.72C1065 499.607 1065.04 501.63 1064.98 503.616Z" fill="black"/>
<path id="Path_34" d="M1032.49 446.386C1032.4 446.17 1032.19 446.022 1031.96 446.002C1031.73 445.982 1031.5 446.092 1031.37 446.289C1031.24 446.486 1031.23 446.739 1031.34 446.946L1031 447.114L1041.16 468L1043 467.101L1032.84 446.201L1032.49 446.386Z" fill="#3F3D56"/>
<circle id="Oval_4" cx="1045.5" cy="403.5" r="21.5" fill="#FBBEBE"/>
<path id="Shape" fill-rule="evenodd" clip-rule="evenodd" d="M1073.19 385.3C1073.61 386.968 1073.87 388.669 1073.97 390.383C1073.97 390.583 1073.98 390.788 1073.99 390.978C1073.99 391.117 1074 391.248 1074 391.363V392.117C1073.99 392.448 1073.96 392.761 1073.93 393.098C1073.93 393.142 1073.92 393.186 1073.91 393.231C1073.9 393.312 1073.89 393.394 1073.89 393.475C1073.84 393.869 1073.77 394.26 1073.68 394.647C1073.67 394.738 1073.64 394.846 1073.62 394.938C1073.61 394.989 1073.59 395.034 1073.59 395.068C1073.57 395.162 1073.54 395.253 1073.51 395.344C1073.42 395.681 1073.32 396.001 1073.2 396.338C1073.1 396.6 1072.99 396.863 1072.88 397.122C1072.76 397.382 1072.63 397.634 1072.49 397.887C1071.83 399.079 1070.88 400.194 1069.58 400.679C1069.56 400.685 1069.55 400.691 1069.53 400.696C1069.43 400.729 1069.34 400.758 1069.24 400.787C1069.11 400.821 1068.99 400.848 1068.87 400.871C1068.16 400.992 1067.43 401.028 1066.71 400.979H1066.47H1066.39L1064.66 400.905L1064.08 400.878L1063.51 400.844C1062.92 400.811 1062.34 400.77 1061.77 400.716C1061.42 400.685 1061.06 400.648 1060.71 400.605C1060.55 400.588 1060.39 400.568 1060.23 400.544L1059.9 400.501H1059.79L1059.35 400.433H1059.32C1059.27 400.425 1059.22 400.417 1059.17 400.409C1059.06 400.391 1058.96 400.373 1058.85 400.352C1058.63 400.312 1058.4 400.272 1058.18 400.225C1058.02 400.194 1057.86 400.157 1057.7 400.12L1057.7 400.12L1057.26 400.016L1057.07 399.969C1056.96 399.944 1056.86 399.915 1056.76 399.887C1056.72 399.877 1056.69 399.867 1056.65 399.857C1056.28 399.76 1055.91 399.645 1055.55 399.521C1054.98 399.331 1054.43 399.114 1053.88 398.898C1052.83 398.489 1051.79 398.081 1050.69 397.86C1048.71 397.463 1046.66 397.688 1044.65 397.914L1035.8 398.924C1034.76 399.059 1033.71 399.13 1032.66 399.137C1032.32 399.132 1031.99 399.115 1031.66 399.086L1031.45 399.066L1031.25 399.039C1031.11 399.022 1030.97 398.999 1030.83 398.975L1030.49 398.901C1030.37 398.874 1030.26 398.844 1030.14 398.81C1030.1 398.8 1030.05 398.786 1030.01 398.773C1030 398.768 1029.98 398.764 1029.97 398.759L1029.91 398.739L1029.71 398.672C1029.57 398.621 1029.43 398.564 1029.29 398.503H1029.26L1029.1 398.423C1029.01 398.381 1028.92 398.335 1028.83 398.284L1028.7 398.21L1028.6 398.15L1028.44 398.049C1028.38 398.005 1028.31 397.954 1028.24 397.904C1027.72 397.52 1027.29 397.044 1026.85 396.569C1026.28 395.944 1025.71 395.321 1024.97 394.913C1024.83 394.836 1024.69 394.769 1024.54 394.699L1024.54 394.697L1024.24 394.556C1023.96 394.428 1023.71 394.25 1023.5 394.031C1023.47 393.992 1023.44 393.952 1023.41 393.909C1023.18 393.529 1023.06 393.098 1023.06 392.66C1023.06 392.626 1023.05 392.592 1023.05 392.559C1023.03 392.256 1023 391.952 1023 391.649V390.107V389.588C1023.19 383.943 1025.13 378.335 1028.83 373.994C1029.39 373.331 1030 372.706 1030.65 372.121C1031.25 371.584 1031.88 371.079 1032.53 370.605C1032.52 370.339 1032.51 370.072 1032.5 369.805C1032.49 369.538 1032.48 369.272 1032.47 369.005H1031.99L1027.88 368.962C1027.77 368.739 1027.75 368.485 1027.82 368.248C1027.83 368.219 1027.84 368.191 1027.85 368.163C1027.85 368.157 1027.85 368.15 1027.85 368.143C1027.86 368.095 1027.88 368.048 1027.91 368.002C1027.91 367.984 1027.92 367.967 1027.93 367.951C1027.96 367.896 1027.99 367.843 1028.02 367.793C1028.09 367.675 1028.17 367.562 1028.25 367.456C1028.3 367.399 1028.35 367.342 1028.4 367.288C1028.42 367.27 1028.43 367.255 1028.45 367.241C1028.49 367.193 1028.53 367.15 1028.58 367.106L1028.76 366.937C1028.77 366.927 1028.78 366.916 1028.79 366.907L1035.01 361.424C1037.66 359.093 1040.55 356.644 1044.1 356.25C1043.85 355.61 1043.58 354.981 1043.29 354.361C1042.94 353.618 1042.56 352.89 1042.15 352.178C1041.99 351.916 1041.84 351.656 1041.68 351.4C1041.77 351.373 1041.87 351.344 1041.96 351.318C1042.02 351.302 1042.08 351.287 1042.12 351.276C1042.22 351.245 1042.34 351.218 1042.46 351.195L1042.68 351.151C1045.99 350.548 1049.38 351.779 1051.47 354.347C1051.72 354.735 1052.05 355.064 1052.44 355.311C1052.84 355.506 1053.29 355.499 1053.74 355.492C1053.88 355.49 1054.03 355.488 1054.17 355.493C1056.25 355.553 1057.93 357.103 1059.23 358.672C1061.48 361.378 1063.25 364.424 1064.47 367.689C1064.48 367.71 1064.49 367.733 1064.49 367.756C1064.84 368.683 1065.15 369.626 1065.4 370.582C1069.5 374.492 1071.88 379.854 1073.19 385.3ZM1065.07 370.261C1065.07 370.266 1065.08 370.271 1065.08 370.275H1065.08C1065.07 370.271 1065.07 370.266 1065.07 370.261ZM1064.22 369.541C1064.54 369.736 1064.82 369.98 1065.07 370.261C1064.79 370.01 1064.51 369.769 1064.22 369.541Z" fill="#464353"/>
<path id="Path_35" d="M1003.82 401.333C1001.27 401.014 998.73 399.884 996.208 400.439C994.629 400.781 993.271 401.771 992.008 402.788C987.308 406.588 983.312 411.198 980.204 416.402C979.677 417.181 979.306 418.056 979.114 418.978C978.951 420.046 979.239 421.132 979.582 422.156C981.904 429.078 986.871 434.859 989.133 441.801C991.509 449.103 990.684 457.083 988.932 464.563C986.761 473.798 983.231 482.652 978.462 490.832C977.814 492.049 977.003 493.169 976.051 494.162C974.816 495.36 973.155 496.216 972.422 497.785C972.083 498.47 971.984 499.251 971.743 499.984C971.064 502.039 969.421 503.799 969.261 505.967C969.142 507.621 969.92 509.187 970.392 510.762C971.188 513.469 971.103 516.361 970.151 519.016C968.429 523.777 963.928 528.106 965.235 533C968.151 532.154 971.383 531.055 972.758 528.325C973.244 527.359 973.485 526.208 974.303 525.503C975.936 524.102 978.717 525.369 980.451 524.082C981.762 523.102 981.809 521.095 981.225 519.554C980.642 518.013 979.637 516.656 979.188 515.071C978.408 512.211 979.657 509.187 979.426 506.231C979.317 504.861 978.9 503.549 978.869 502.186C978.812 499.539 980.265 497.049 982.196 495.251C984.128 493.453 986.515 492.261 988.864 491.086L997.746 486.634C1000.97 485.024 1004.5 483.061 1005.55 479.595C1005.96 478.297 1005.96 476.914 1005.98 475.557C1006.28 454.833 1011.43 434.527 1016.54 414.454C1017.34 411.344 1018.15 408.22 1019.33 405.234C1020.51 402.247 1022.82 399.85 1024 397.076C1017.17 396.267 1010.92 402.23 1003.82 401.333Z" fill="#464353"/>
<path id="Path_36" d="M1052.36 530.918C1053.14 535.711 1053.62 540.606 1054 545.478C1047.86 550.586 1041.24 555.029 1034.53 559.151C1034.14 559.387 1033.76 559.62 1033.37 559.836L1033.34 560C1033.33 559.961 1033.31 559.923 1033.29 559.887C1032.77 558.757 1031.85 557.855 1030.72 557.347C1028.2 552.041 1025.69 546.734 1023.17 541.428C1021.81 538.563 1020.44 535.67 1019.76 532.578C1019.76 532.513 1019.73 532.445 1019.72 532.38C1019.2 529.983 1019.08 527.495 1018.74 525.067C1018.56 523.677 1018.25 522.308 1017.81 520.98C1017.4 519.799 1016.83 518.652 1016.33 517.498C1015.72 516.074 1015.21 514.633 1015.18 513.096C1015.18 512.606 1015.21 512.069 1014.97 511.658C1014.72 511.304 1014.4 510.998 1014.04 510.754C1013.13 509.94 1012.69 508.709 1012.9 507.498C1010.85 507.605 1009.69 509.813 1008.87 511.685C1008.12 513.517 1007.14 515.243 1005.95 516.82C1005.08 517.947 1003.98 518.869 1002.72 519.522C1002.6 519.576 1002.49 519.631 1002.37 519.679C999.526 520.939 996.199 520.494 993.111 519.925C990.411 519.429 987.62 518.813 985.45 517.129L985.218 516.944C984.575 516.408 984.002 515.794 983.512 515.116C981.693 512.623 980.888 509.34 980.441 506.215C980.4 505.92 980.359 505.626 980.321 505.331C980.011 503.123 979.925 500.889 980.065 498.663C980.106 498.115 980.164 497.567 980.236 497.023C980.284 496.68 980.335 496.311 980.393 495.955C980.391 495.944 980.391 495.934 980.393 495.924C980.482 495.359 980.577 494.791 980.673 494.212C981.014 492.271 981.355 490.279 982.379 488.608C983.052 487.569 983.902 486.656 984.89 485.91C985.259 485.619 985.638 485.342 986.02 485.075C986.641 484.644 987.279 484.233 987.927 483.846C989.558 482.867 991.271 482.03 993.046 481.347C993.469 481.183 993.899 481.029 994.329 480.881C996 480.285 997.799 480.142 999.543 480.467C1001.09 480.692 1002.65 480.783 1004.21 480.741C1008.21 480.662 1012.23 479.895 1016.23 479.399C1021.78 478.714 1027.74 478.632 1032.58 481.453C1032.81 481.587 1033.03 481.727 1033.26 481.874C1035.65 483.442 1037.57 485.64 1039.13 488.095C1039.47 488.611 1039.76 489.142 1040.06 489.68C1040.73 490.913 1041.35 492.182 1041.89 493.48C1042.21 494.117 1042.39 494.819 1042.4 495.534C1042.39 495.669 1042.37 495.805 1042.34 495.938C1042.25 496.424 1042.07 496.896 1042 497.389C1041.79 499.255 1043.37 500.813 1043.96 502.589C1044.34 503.746 1044.3 504.986 1044.51 506.204C1044.82 507.916 1045.66 509.457 1046.41 510.997C1047.6 513.477 1048.61 516.036 1049.45 518.655C1050.04 520.48 1050.55 522.332 1051 524.201C1051.14 524.802 1051.28 525.403 1051.41 526.005C1051.78 527.662 1052.09 529.285 1052.36 530.918Z" fill="#F86D70"/>
<path id="Path_37" d="M1089 479.742V482L1088.56 481.994L1088.07 481.987L1082.59 481.923L1069.09 481.755L1065.3 481.71L1064.32 481.697L1058.63 481.629L1050.62 481.529L1033.62 481.319L1004.11 480.958L993.463 480.829L989.19 480.777L985.258 480.729L982.808 480.697L980.488 480.668L963.284 480.458L958.513 480.4L957.474 480.387L956.799 478.739L951.896 466.768L951 464.581L951.681 462L954.748 463.935L956.636 464.158L987.715 467.816L993.548 468.503L1005.92 469.961L1018.03 471.387L1022.78 471.945L1050.89 475.255L1058.75 476.181L1065.25 476.945L1088.36 479.668L1089 479.742Z" fill="#3F3D56"/>
<path id="Path_38" d="M951 462L957.164 478.236L1089 481V463.382L951 462Z" fill="#504F60"/>
<path id="Path_39" d="M958 480L959.059 577L964 576.324L962.941 480H958Z" fill="#3F3D56"/>
<path id="Path_40" d="M1089 483.483H1088.51C1087.72 489.421 1086.42 495.281 1084.61 501L1083.06 483.414L1083 482.664L1088.7 482.02L1088.89 482L1089 483.483Z" fill="#3F3D56"/>
<path id="Path_41" d="M1069 470.909L1019.4 472L1004 466.545L1045.3 464L1069 470.909Z" fill="white"/>
<path id="Path_42" d="M1007.68 451.161C1007.17 451.373 1006.72 451.72 1006.37 452.172C1006.1 452.661 1005.93 453.211 1005.88 453.781L1005.08 458.98C1004.96 459.456 1004.98 459.962 1005.14 460.423C1005.35 460.859 1005.96 461.086 1006.26 460.724C1006.22 461.741 1006.31 462.826 1006.85 463.655C1007.4 464.485 1008.55 464.921 1009.32 464.343C1009.56 464.775 1009.97 465.07 1010.44 465.147C1010.9 465.225 1011.37 465.079 1011.72 464.747C1011.26 464.917 1011.23 465.686 1011.56 466.076C1011.93 466.43 1012.4 466.634 1012.89 466.654C1018.65 467.532 1024.51 466.733 1029.89 464.339C1030.39 464.112 1029.06 457.339 1028.92 456.645C1028.6 455.011 1028.43 453.015 1027.16 451.916C1024.11 449.286 1018.7 448.769 1015 449.081C1012.46 449.288 1009.98 449.993 1007.68 451.161Z" fill="#FBBEBE"/>
<path id="Path_43" opacity="0.1" d="M1057.01 452.759C1044.65 452.987 1032.03 453.182 1020.23 449.598C1021.35 453.827 1021.27 458.273 1020 462.463L1077.82 467.096C1080.27 467.292 1090.43 468.404 1092.82 467.844C1095.21 467.285 1072.77 460.129 1073.68 457.915C1076.17 451.815 1084.52 448.241 1078.5 448.012C1070.91 447.721 1064.66 452.62 1057.01 452.759Z" fill="black"/>
<path id="Path_44" d="M1058.59 452.757C1046.37 452.985 1033.89 453.181 1022.22 449.597C1023.34 453.825 1023.26 458.27 1022 462.458L1079.16 467.09C1081.59 467.285 1091.63 468.414 1094 467.838C1096.36 467.262 1095.8 464.427 1096.7 462.213C1099.16 456.115 1085.79 448.241 1079.84 448.012C1072.34 447.721 1066.16 452.618 1058.59 452.757Z" fill="#464353"/>
<path id="Path_45" d="M1037.32 454.161C1037.83 454.372 1038.28 454.72 1038.63 455.172C1038.9 455.661 1039.07 456.211 1039.12 456.781L1039.92 461.98C1040.04 462.456 1040.02 462.961 1039.86 463.423C1039.65 463.859 1039.04 464.086 1038.74 463.724C1038.77 464.741 1038.69 465.826 1038.15 466.655C1037.6 467.485 1036.46 467.921 1035.68 467.343C1035.43 467.775 1035.03 468.07 1034.56 468.147C1034.1 468.225 1033.63 468.079 1033.27 467.747C1033.74 467.917 1033.77 468.686 1033.44 469.076C1033.07 469.43 1032.6 469.634 1032.1 469.654C1026.35 470.532 1020.49 469.733 1015.11 467.339C1014.61 467.112 1015.94 460.339 1016.08 459.645C1016.4 458.011 1016.57 456.015 1017.84 454.916C1020.88 452.286 1026.3 451.769 1030.01 452.081C1032.54 452.289 1035.02 452.994 1037.32 454.161Z" fill="#FBBEBE"/>
<path id="Path_46" d="M956.179 443.451C955.031 444.924 953.88 446.427 953.14 448.145C951.726 451.421 951.934 455.131 952.169 458.689C952.235 459.722 952.318 460.775 952.86 461.632C953.33 462.279 953.948 462.805 954.665 463.163C957.659 464.856 961.164 465.362 964.587 465.741C969.827 466.319 975.087 466.671 980.364 466.797C993.439 467.114 1006.71 466.051 1019.45 469C1017.87 466.615 1017.88 463.459 1018.76 460.741C1019.64 458.022 1021.34 455.654 1023 453.324C1017.17 451.486 1010.92 454.357 1004.82 454.071C998.548 453.778 992.748 450.172 986.473 450.175C985.125 450.175 983.752 450.344 982.442 450.02C981.132 449.697 979.863 448.713 979.742 447.374C981.415 447.749 983.002 446.324 983.694 444.762C984.385 443.199 984.509 441.434 985.18 439.861C986.85 435.948 991.361 434.135 994.168 430.913C994.611 430.404 995.029 429.802 995.015 429.127C994.949 428.556 994.708 428.019 994.324 427.589C991.99 424.492 988.475 422.771 985.553 420.362C984.537 419.522 982.487 416.356 981.346 416.064C979.231 415.523 977.436 418.565 976.06 420.049C969.114 427.563 962.487 435.363 956.179 443.451Z" fill="#464353"/>
<path id="Path_47" opacity="0.07" d="M1025 443C1025.89 443.604 1026.68 444.321 1027.35 445.129C1028.02 445.95 1028.28 446.991 1028.08 448C1027.86 446.087 1029.05 444.272 1031 443.559L1025 443Z" fill="black"/>
<g id="Group_2" opacity="0.1">
<path id="Path_48" d="M1044.12 353.427C1043.72 352.365 1043.25 351.326 1042.72 350.316C1042.38 350.381 1042.05 350.466 1041.72 350.571C1042.31 351.54 1042.84 352.543 1043.31 353.574C1043.58 353.506 1043.85 353.458 1044.12 353.427Z" fill="black"/>
<path id="Path_49" d="M1064.12 366.833C1064.21 366.908 1064.3 366.993 1064.39 367.071C1064.38 367.049 1064.37 367.028 1064.37 367.007C1064.29 366.95 1064.2 366.892 1064.12 366.833Z" fill="black"/>
<path id="Path_50" d="M1032.08 368.329C1032.26 368.19 1032.43 368.044 1032.62 367.908L1032.57 366.293L1028.89 366.255C1028.29 366.796 1027.66 367.571 1028.01 368.295L1032.08 368.329Z" fill="black"/>
<path id="Path_51" d="M1072.32 395.516C1071.66 396.72 1070.72 397.848 1069.43 398.335C1068.43 398.709 1067.34 398.675 1066.27 398.627C1062.64 398.481 1058.94 398.321 1055.51 397.134C1053.91 396.577 1052.37 395.798 1050.69 395.455C1048.72 395.054 1046.68 395.281 1044.69 395.513L1035.89 396.533C1033.3 396.832 1030.41 397.056 1028.34 395.485C1027.15 394.588 1026.39 393.19 1025.09 392.47C1024.54 392.164 1023.89 391.966 1023.53 391.45C1023.31 391.066 1023.19 390.631 1023.19 390.188C1023.16 389.831 1023.14 389.474 1023.13 389.117C1023.09 390.154 1023.11 391.193 1023.19 392.228C1023.19 392.671 1023.31 393.106 1023.53 393.49C1023.88 394.003 1024.54 394.2 1025.09 394.51C1026.39 395.23 1027.16 396.628 1028.34 397.525C1030.41 399.096 1033.3 398.885 1035.89 398.573L1044.69 397.553C1046.68 397.321 1048.72 397.094 1050.69 397.495C1052.36 397.835 1053.89 398.617 1055.51 399.174C1058.96 400.361 1062.64 400.534 1066.27 400.667C1067.34 400.711 1068.43 400.749 1069.43 400.375C1070.72 399.888 1071.66 398.76 1072.32 397.556C1073.59 395.227 1073.94 392.585 1073.81 389.923C1073.73 391.873 1073.22 393.782 1072.32 395.516Z" fill="black"/>
</g>
<path id="Path_52" opacity="0.1" d="M1044 355L1049 359C1049 359 1044.71 357.462 1044 355Z" fill="black"/>
</g>
<g id="undraw_secure_data_0rwp">
<g id="Group_3" opacity="0.5">
<rect id="Rectangle_2" x="687.943" y="528.051" width="2.09714" height="11.88" fill="#47E6B1"/>
</g>
<path id="Path_53" opacity="0.5" d="M954.29 133.592C953.126 133.085 952.528 131.786 952.899 130.572C952.929 130.482 952.948 130.389 952.955 130.294C952.974 129.756 952.646 129.267 952.141 129.079C951.637 128.891 951.069 129.047 950.731 129.466C950.675 129.542 950.628 129.624 950.592 129.71C950.085 130.874 948.786 131.472 947.572 131.101C947.482 131.071 947.389 131.052 947.294 131.045C946.756 131.026 946.267 131.354 946.079 131.859C945.891 132.363 946.047 132.931 946.466 133.269C946.542 133.325 946.624 133.372 946.71 133.408C947.874 133.915 948.472 135.214 948.101 136.428C948.071 136.518 948.052 136.611 948.045 136.706C948.026 137.244 948.354 137.733 948.859 137.921C949.363 138.109 949.931 137.953 950.269 137.534C950.325 137.458 950.372 137.376 950.408 137.29C950.915 136.126 952.214 135.528 953.428 135.899C953.518 135.929 953.611 135.948 953.706 135.955C954.244 135.974 954.733 135.646 954.921 135.141C955.109 134.637 954.953 134.069 954.534 133.731C954.458 133.675 954.376 133.628 954.29 133.592Z" fill="#4D8AF0"/>
<path id="Path_54" opacity="0.5" d="M697.29 198.592C696.126 198.085 695.528 196.786 695.899 195.572C695.929 195.482 695.948 195.389 695.955 195.294C695.974 194.756 695.646 194.267 695.141 194.079C694.637 193.891 694.069 194.047 693.731 194.466C693.675 194.542 693.628 194.624 693.592 194.71C693.085 195.874 691.786 196.472 690.572 196.101C690.482 196.071 690.389 196.052 690.294 196.045C689.756 196.026 689.267 196.354 689.079 196.859C688.891 197.363 689.047 197.931 689.466 198.269C689.542 198.325 689.624 198.372 689.71 198.408C690.874 198.915 691.472 200.214 691.101 201.428C691.071 201.518 691.052 201.611 691.045 201.706C691.026 202.244 691.354 202.733 691.859 202.921C692.363 203.109 692.931 202.953 693.269 202.534C693.325 202.458 693.372 202.376 693.408 202.29C693.915 201.126 695.214 200.528 696.428 200.899C696.518 200.929 696.611 200.948 696.706 200.955C697.244 200.974 697.733 200.646 697.921 200.141C698.109 199.637 697.953 199.069 697.534 198.731C697.458 198.675 697.376 198.628 697.29 198.592Z" fill="#FDD835"/>
<path id="Path_55" opacity="0.5" d="M677.29 386.592C676.126 386.085 675.528 384.786 675.899 383.572C675.929 383.482 675.948 383.389 675.955 383.294C675.974 382.756 675.646 382.267 675.141 382.079C674.637 381.891 674.069 382.047 673.731 382.466C673.675 382.542 673.628 382.624 673.592 382.71C673.085 383.874 671.786 384.472 670.572 384.101C670.482 384.071 670.389 384.052 670.294 384.045C669.756 384.026 669.267 384.354 669.079 384.859C668.891 385.363 669.047 385.931 669.466 386.269C669.542 386.325 669.624 386.372 669.71 386.408C670.874 386.915 671.472 388.214 671.101 389.428C671.071 389.518 671.052 389.611 671.045 389.706C671.026 390.244 671.354 390.733 671.859 390.921C672.363 391.109 672.931 390.953 673.269 390.534C673.325 390.458 673.372 390.376 673.408 390.29C673.915 389.126 675.214 388.528 676.428 388.899C676.518 388.929 676.611 388.948 676.706 388.955C677.244 388.974 677.733 388.646 677.921 388.141C678.109 387.637 677.953 387.069 677.534 386.731C677.458 386.675 677.376 386.628 677.29 386.592Z" fill="#FDD835"/>
<circle id="Oval_5" opacity="0.5" cx="816.5" cy="146.5" r="4.5" fill="#F55F44"/>
<circle id="Oval_6" opacity="0.5" cx="612.5" cy="324.5" r="4.5" fill="#F55F44"/>
<circle id="Oval_7" opacity="0.5" cx="1142.5" cy="203.5" r="4.5" fill="#F55F44"/>
<circle id="Oval_8" opacity="0.5" cx="1117.5" cy="338.5" r="4.5" fill="#4D8AF0"/>
<circle id="Oval_9" opacity="0.5" cx="631.5" cy="218.5" r="4.5" fill="#47E6B1"/>
<circle id="Oval_10" opacity="0.5" cx="1136.5" cy="529.5" r="4.5" fill="#47E6B1"/>
<circle id="Oval_11" opacity="0.5" cx="1173.5" cy="394.5" r="4.5" fill="#47E6B1"/>
</g>
<path id="failedproject" fill-rule="evenodd" clip-rule="evenodd" d="M82.2578 358.594C82.7839 358.594 83.2956 358.49 83.793 358.281C84.2904 358.073 84.7526 357.781 85.1797 357.406C85.5859 357.052 85.9388 356.632 86.2383 356.145C86.5378 355.658 86.7526 355.161 86.8828 354.656C87.1484 353.625 87.3763 352.637 87.5664 351.691C87.7565 350.746 87.9818 349.63 88.2422 348.344H90.1797L90.3672 347.539H88.3906L88.5859 346.641C88.7682 345.818 88.9453 345.172 89.1172 344.703C89.2891 344.234 89.4818 343.878 89.6953 343.633C89.763 343.779 89.849 343.974 89.9531 344.219C90.0573 344.464 90.1849 344.693 90.3359 344.906C90.4766 345.109 90.6484 345.285 90.8516 345.434C91.0547 345.582 91.2969 345.656 91.5781 345.656C91.8229 345.656 92.0091 345.62 92.1367 345.547C92.2643 345.474 92.3854 345.372 92.5 345.242C92.5938 345.128 92.6628 345 92.707 344.859C92.7513 344.719 92.7734 344.591 92.7734 344.477C92.7734 344.305 92.7461 344.132 92.6914 343.957C92.6367 343.783 92.5312 343.625 92.375 343.484C92.2031 343.333 91.9674 343.215 91.668 343.129C91.3685 343.043 90.9922 343 90.5391 343C90.0182 343 89.4987 343.115 88.9805 343.344C88.4622 343.573 88.0052 343.87 87.6094 344.234C87.1979 344.604 86.8477 345.025 86.5586 345.496C86.2695 345.967 86.0703 346.448 85.9609 346.938L85.8281 347.539H84.3281L84.1406 348.344H85.6562L84.2578 354.953C84.0911 355.755 83.9115 356.397 83.7188 356.879C83.526 357.361 83.3203 357.721 83.1016 357.961C83.0391 357.82 82.9518 357.625 82.8398 357.375C82.7279 357.125 82.599 356.898 82.4531 356.695C82.3073 356.487 82.1315 356.309 81.9258 356.16C81.7201 356.012 81.4766 355.938 81.1953 355.938C80.8307 355.938 80.5404 356.053 80.3242 356.285C80.1081 356.517 80 356.784 80 357.086C80 357.258 80.0286 357.432 80.0859 357.609C80.1432 357.786 80.2526 357.948 80.4141 358.094C80.5807 358.24 80.8112 358.359 81.1055 358.453C81.3997 358.547 81.7839 358.594 82.2578 358.594ZM92.7344 355.367C93.026 355.367 93.293 355.329 93.5352 355.254C93.7773 355.178 94.0078 355.083 94.2266 354.969C94.4766 354.839 94.6836 354.708 94.8477 354.578C95.0117 354.448 95.1849 354.305 95.3672 354.148H95.4297C95.5547 354.482 95.7773 354.754 96.0977 354.965C96.418 355.176 96.8464 355.281 97.3828 355.281C97.7891 355.281 98.1471 355.228 98.457 355.121C98.7669 355.014 99.1797 354.859 99.6953 354.656L99.8672 353.953C99.7839 353.99 99.6393 354.036 99.4336 354.094C99.2279 354.151 99.0521 354.18 98.9062 354.18C98.5729 354.18 98.3385 354.124 98.2031 354.012C98.0677 353.9 98 353.695 98 353.398C98 353.273 98.0234 353.09 98.0703 352.848C98.1172 352.605 98.1615 352.404 98.2031 352.242L99.3516 347.438L99.2422 347.312L96.8438 347.805C96.6198 347.617 96.332 347.469 95.9805 347.359C95.6289 347.25 95.2188 347.195 94.75 347.195C94.1094 347.195 93.5 347.332 92.9219 347.605C92.3438 347.879 91.8385 348.25 91.4062 348.719C90.9792 349.193 90.638 349.742 90.3828 350.367C90.1276 350.992 90 351.661 90 352.375C90 353.302 90.2292 354.033 90.6875 354.566C91.1458 355.1 91.8281 355.367 92.7344 355.367ZM93.4258 354.047C93.5846 354.135 93.7839 354.18 94.0234 354.18C94.2682 354.18 94.5039 354.108 94.7305 353.965C94.957 353.822 95.1667 353.646 95.3594 353.438L96.3594 349.195C96.3594 349.081 96.3438 348.945 96.3125 348.789C96.2812 348.633 96.2266 348.5 96.1484 348.391C96.0547 348.255 95.9323 348.152 95.7812 348.082C95.6302 348.012 95.4427 347.977 95.2188 347.977C94.875 347.977 94.5586 348.1 94.2695 348.348C93.9805 348.595 93.724 348.924 93.5 349.336C93.2812 349.742 93.1094 350.215 92.9844 350.754C92.8594 351.293 92.7969 351.844 92.7969 352.406C92.7969 352.661 92.8164 352.898 92.8555 353.117C92.8945 353.336 92.9583 353.521 93.0469 353.672C93.1406 353.833 93.2669 353.958 93.4258 354.047ZM104.258 345.898C104.68 345.898 105.04 345.759 105.34 345.48C105.639 345.202 105.789 344.865 105.789 344.469C105.789 344.073 105.639 343.734 105.34 343.453C105.04 343.172 104.68 343.031 104.258 343.031C103.836 343.031 103.474 343.172 103.172 343.453C102.87 343.734 102.719 344.073 102.719 344.469C102.719 344.865 102.87 345.202 103.172 345.48C103.474 345.759 103.836 345.898 104.258 345.898ZM104.219 355.176C103.911 355.283 103.555 355.336 103.148 355.336C102.523 355.336 102.038 355.184 101.691 354.879C101.345 354.574 101.172 354.188 101.172 353.719C101.172 353.536 101.185 353.35 101.211 353.16C101.237 352.97 101.279 352.755 101.336 352.516L101.977 350.234C102.034 350.016 102.082 349.809 102.121 349.613C102.16 349.418 102.18 349.24 102.18 349.078C102.18 348.786 102.12 348.583 102 348.469C101.88 348.354 101.651 348.297 101.312 348.297C101.146 348.297 100.975 348.323 100.801 348.375C100.626 348.427 100.477 348.477 100.352 348.523L100.523 347.82C100.945 347.648 101.349 347.501 101.734 347.379C102.12 347.257 102.484 347.195 102.828 347.195C103.448 347.195 103.926 347.345 104.262 347.645C104.598 347.944 104.766 348.333 104.766 348.812C104.766 348.911 104.754 349.086 104.73 349.336C104.707 349.586 104.664 349.815 104.602 350.023L103.961 352.297C103.909 352.479 103.862 352.688 103.82 352.922C103.779 353.156 103.758 353.333 103.758 353.453C103.758 353.755 103.826 353.961 103.961 354.07C104.096 354.18 104.331 354.234 104.664 354.234C104.82 354.234 104.997 354.207 105.195 354.152C105.393 354.098 105.536 354.049 105.625 354.008L105.453 354.711C104.938 354.914 104.526 355.069 104.219 355.176ZM108.859 355.336C109.276 355.336 109.648 355.283 109.977 355.176C110.305 355.069 110.727 354.914 111.242 354.711L111.414 354.008C111.32 354.049 111.161 354.098 110.938 354.152C110.714 354.207 110.536 354.234 110.406 354.234C110.057 354.234 109.807 354.18 109.656 354.07C109.505 353.961 109.43 353.755 109.43 353.453C109.43 353.333 109.454 353.148 109.504 352.898C109.553 352.648 109.596 352.448 109.633 352.297L111.734 343.156L111.648 343.031L107.531 343.234L107.391 343.812C107.604 343.833 107.792 343.857 107.953 343.883C108.115 343.909 108.258 343.956 108.383 344.023C108.508 344.091 108.602 344.18 108.664 344.289C108.727 344.398 108.758 344.547 108.758 344.734C108.758 344.786 108.753 344.852 108.742 344.93C108.732 345.008 108.716 345.091 108.695 345.18L107.008 352.516C106.966 352.708 106.928 352.909 106.895 353.117C106.861 353.326 106.844 353.526 106.844 353.719C106.844 354.188 107.023 354.574 107.383 354.879C107.742 355.184 108.234 355.336 108.859 355.336ZM118.152 354.785C117.421 355.184 116.651 355.383 115.844 355.383C115.219 355.383 114.671 355.298 114.199 355.129C113.728 354.96 113.339 354.724 113.031 354.422C112.729 354.12 112.503 353.768 112.352 353.367C112.201 352.966 112.125 352.523 112.125 352.039C112.125 351.424 112.24 350.828 112.469 350.25C112.698 349.672 113.039 349.151 113.492 348.688C113.919 348.245 114.461 347.885 115.117 347.609C115.773 347.333 116.497 347.195 117.289 347.195C118.221 347.195 118.931 347.344 119.418 347.641C119.905 347.938 120.148 348.383 120.148 348.977C120.148 349.544 119.938 350.033 119.516 350.441C119.094 350.85 118.521 351.154 117.797 351.352C117.224 351.523 116.736 351.646 116.332 351.719C115.928 351.792 115.435 351.859 114.852 351.922C114.862 352.151 114.893 352.409 114.945 352.695C114.997 352.982 115.076 353.227 115.18 353.43C115.305 353.664 115.482 353.85 115.711 353.988C115.94 354.126 116.232 354.195 116.586 354.195C117.201 354.195 117.723 354.077 118.152 353.84C118.582 353.603 118.992 353.227 119.383 352.711L119.953 353.188C119.484 353.854 118.884 354.387 118.152 354.785ZM114.875 351.281C114.974 350.281 115.202 349.454 115.559 348.801C115.915 348.147 116.294 347.82 116.695 347.82C116.982 347.82 117.206 347.939 117.367 348.176C117.529 348.413 117.609 348.753 117.609 349.195C117.609 349.643 117.523 350.003 117.352 350.273C117.18 350.544 116.898 350.766 116.508 350.938C116.331 351.016 116.091 351.083 115.789 351.141C115.487 351.198 115.182 351.245 114.875 351.281ZM124.535 355.262C124.303 355.332 124.036 355.367 123.734 355.367C122.828 355.367 122.146 355.1 121.688 354.566C121.229 354.033 121 353.302 121 352.375C121 351.661 121.125 350.992 121.375 350.367C121.625 349.742 121.964 349.193 122.391 348.719C122.812 348.25 123.312 347.879 123.891 347.605C124.469 347.332 125.076 347.195 125.711 347.195C126.19 347.195 126.591 347.246 126.914 347.348C127.237 347.449 127.505 347.583 127.719 347.75L128.297 345.211C128.312 345.138 128.327 345.059 128.34 344.973C128.353 344.887 128.359 344.818 128.359 344.766C128.359 344.594 128.315 344.448 128.227 344.328C128.138 344.208 128.016 344.115 127.859 344.047C127.714 343.979 127.547 343.93 127.359 343.898C127.172 343.867 126.966 343.839 126.742 343.812L126.883 343.234L131.266 343.031L131.352 343.156L129.25 352.242C129.214 352.393 129.171 352.592 129.121 352.84C129.072 353.087 129.047 353.273 129.047 353.398C129.047 353.695 129.113 353.9 129.246 354.012C129.379 354.124 129.612 354.18 129.945 354.18C130.091 354.18 130.267 354.151 130.473 354.094C130.678 354.036 130.823 353.99 130.906 353.953L130.734 354.656C130.219 354.859 129.807 355.014 129.5 355.121C129.193 355.228 128.836 355.281 128.43 355.281C127.893 355.281 127.465 355.176 127.145 354.965C126.824 354.754 126.602 354.482 126.477 354.148H126.414C126.232 354.305 126.057 354.448 125.891 354.578C125.724 354.708 125.51 354.839 125.25 354.969C125.005 355.094 124.767 355.191 124.535 355.262ZM125.023 354.18C124.784 354.18 124.585 354.135 124.426 354.047C124.267 353.958 124.141 353.833 124.047 353.672C123.958 353.521 123.895 353.336 123.855 353.117C123.816 352.898 123.797 352.661 123.797 352.406C123.797 351.828 123.859 351.267 123.984 350.723C124.109 350.178 124.276 349.708 124.484 349.312C124.708 348.885 124.965 348.548 125.254 348.301C125.543 348.053 125.854 347.93 126.188 347.93C126.438 347.93 126.635 347.967 126.781 348.043C126.927 348.118 127.049 348.221 127.148 348.352C127.247 348.477 127.314 348.608 127.348 348.746C127.382 348.884 127.398 349.018 127.398 349.148L126.406 353.438C126.214 353.646 125.996 353.822 125.754 353.965C125.512 354.108 125.268 354.18 125.023 354.18ZM139.5 358.047L139.375 358.594H133.734L133.859 358.047C133.995 358.036 134.164 358.017 134.367 357.988C134.57 357.96 134.724 357.93 134.828 357.898C135.005 357.841 135.141 357.751 135.234 357.629C135.328 357.507 135.396 357.341 135.438 357.133L136.984 350.32C137.016 350.169 137.056 349.977 137.105 349.742C137.155 349.508 137.18 349.315 137.18 349.164C137.18 348.888 137.122 348.689 137.008 348.566C136.893 348.444 136.667 348.383 136.328 348.383C136.172 348.383 136.003 348.409 135.82 348.461C135.638 348.513 135.487 348.562 135.367 348.609L135.539 347.906C135.961 347.734 136.365 347.587 136.75 347.465C137.135 347.342 137.5 347.281 137.844 347.281C138.13 347.281 138.383 347.309 138.602 347.363C138.82 347.418 139.013 347.505 139.18 347.625C139.32 347.724 139.436 347.844 139.527 347.984C139.618 348.125 139.695 348.268 139.758 348.414H139.82C140.299 347.997 140.766 347.69 141.219 347.492C141.672 347.294 142.107 347.195 142.523 347.195C143.43 347.195 144.111 347.462 144.566 347.996C145.022 348.53 145.25 349.26 145.25 350.188C145.25 350.885 145.126 351.551 144.879 352.184C144.632 352.816 144.294 353.365 143.867 353.828C143.424 354.307 142.927 354.677 142.375 354.938C141.823 355.198 141.214 355.328 140.547 355.328C140.047 355.328 139.645 355.28 139.34 355.184C139.035 355.087 138.771 354.951 138.547 354.773L138.07 356.852C138.055 356.914 138.039 356.988 138.023 357.074C138.008 357.16 138 357.221 138 357.258C138 357.378 138.026 357.487 138.078 357.586C138.13 357.685 138.208 357.758 138.312 357.805C138.427 357.857 138.612 357.908 138.867 357.957C139.122 358.007 139.333 358.036 139.5 358.047ZM140.07 354.664C139.68 354.664 139.38 354.546 139.172 354.309C138.964 354.072 138.859 353.773 138.859 353.414L139.828 349.125C139.953 348.974 140.148 348.812 140.414 348.641C140.68 348.469 140.951 348.383 141.227 348.383C141.466 348.383 141.665 348.427 141.824 348.516C141.983 348.604 142.109 348.729 142.203 348.891C142.297 349.047 142.362 349.233 142.398 349.449C142.435 349.665 142.453 349.901 142.453 350.156C142.453 350.776 142.396 351.336 142.281 351.836C142.167 352.336 141.997 352.812 141.773 353.266C141.56 353.698 141.303 354.039 141.004 354.289C140.704 354.539 140.393 354.664 140.07 354.664ZM150.344 349.594L149.109 355.125H146.523L147.602 350.32C147.633 350.174 147.673 349.984 147.723 349.75C147.772 349.516 147.797 349.32 147.797 349.164C147.797 348.862 147.738 348.656 147.621 348.547C147.504 348.438 147.279 348.383 146.945 348.383C146.779 348.383 146.608 348.409 146.434 348.461C146.259 348.513 146.109 348.562 145.984 348.609L146.156 347.906C146.578 347.734 146.982 347.587 147.367 347.465C147.753 347.342 148.117 347.281 148.461 347.281C149.076 347.281 149.535 347.402 149.84 347.645C150.145 347.887 150.346 348.227 150.445 348.664H150.5C151.016 348.117 151.453 347.736 151.812 347.52C152.172 347.303 152.557 347.195 152.969 347.195C153.411 347.195 153.76 347.335 154.016 347.613C154.271 347.892 154.398 348.294 154.398 348.82C154.398 349.055 154.365 349.281 154.297 349.5C154.229 349.719 154.128 349.906 153.992 350.062C153.841 350.24 153.682 350.371 153.516 350.457C153.349 350.543 153.115 350.586 152.812 350.586C152.422 350.586 152.115 350.49 151.891 350.297C151.667 350.104 151.555 349.888 151.555 349.648C151.555 349.424 151.587 349.232 151.652 349.07C151.717 348.909 151.82 348.664 151.961 348.336C151.612 348.482 151.312 348.66 151.062 348.871C150.812 349.082 150.573 349.323 150.344 349.594ZM158.531 355.375C159.359 355.375 160.105 355.246 160.77 354.988C161.434 354.73 162.013 354.365 162.508 353.891C162.966 353.448 163.32 352.927 163.57 352.328C163.82 351.729 163.945 351.102 163.945 350.445C163.945 349.419 163.605 348.618 162.926 348.043C162.246 347.467 161.318 347.18 160.141 347.18C159.365 347.18 158.643 347.306 157.977 347.559C157.31 347.811 156.747 348.154 156.289 348.586C155.826 349.029 155.465 349.547 155.207 350.141C154.949 350.734 154.82 351.378 154.82 352.07C154.82 353.091 155.161 353.897 155.844 354.488C156.526 355.079 157.422 355.375 158.531 355.375ZM157.883 354.34C158.091 354.624 158.393 354.766 158.789 354.766C159.216 354.766 159.586 354.591 159.898 354.242C160.211 353.893 160.458 353.464 160.641 352.953C160.823 352.453 160.961 351.9 161.055 351.293C161.148 350.686 161.195 350.109 161.195 349.562C161.195 348.953 161.092 348.505 160.887 348.219C160.681 347.932 160.383 347.789 159.992 347.789C159.591 347.789 159.224 347.949 158.891 348.27C158.557 348.59 158.286 349.06 158.078 349.68C157.896 350.195 157.766 350.754 157.688 351.355C157.609 351.957 157.57 352.495 157.57 352.969C157.57 353.599 157.674 354.056 157.883 354.34ZM168.734 345.898C169.156 345.898 169.517 345.759 169.816 345.48C170.116 345.202 170.266 344.865 170.266 344.469C170.266 344.073 170.116 343.734 169.816 343.453C169.517 343.172 169.156 343.031 168.734 343.031C168.312 343.031 167.951 343.172 167.648 343.453C167.346 343.734 167.195 344.073 167.195 344.469C167.195 344.865 167.346 345.202 167.648 345.48C167.951 345.759 168.312 345.898 168.734 345.898ZM165.238 358.289C164.793 358.492 164.294 358.594 163.742 358.594C163.273 358.594 162.895 358.547 162.605 358.453C162.316 358.359 162.091 358.24 161.93 358.094C161.768 357.948 161.659 357.786 161.602 357.609C161.544 357.432 161.516 357.258 161.516 357.086C161.516 356.779 161.625 356.51 161.844 356.281C162.062 356.052 162.352 355.938 162.711 355.938C162.992 355.938 163.236 356.012 163.441 356.16C163.647 356.309 163.823 356.487 163.969 356.695C164.115 356.898 164.243 357.125 164.355 357.375C164.467 357.625 164.555 357.82 164.617 357.961C164.789 357.659 164.957 357.272 165.121 356.801C165.285 356.329 165.453 355.714 165.625 354.953C165.839 354.01 166.027 353.133 166.191 352.32C166.355 351.508 166.508 350.727 166.648 349.977C166.669 349.857 166.694 349.711 166.723 349.539C166.751 349.367 166.766 349.214 166.766 349.078C166.766 348.818 166.701 348.622 166.57 348.492C166.44 348.362 166.208 348.297 165.875 348.297C165.703 348.297 165.526 348.324 165.344 348.379C165.161 348.434 165.005 348.482 164.875 348.523L165.047 347.82C165.469 347.648 165.884 347.501 166.293 347.379C166.702 347.257 167.078 347.195 167.422 347.195C168.042 347.195 168.521 347.345 168.859 347.645C169.198 347.944 169.367 348.333 169.367 348.812C169.367 348.911 169.362 349.047 169.352 349.219C169.341 349.391 169.315 349.581 169.273 349.789L168.789 352.32C168.695 352.81 168.51 353.589 168.234 354.656C168.094 355.188 167.883 355.685 167.602 356.148C167.32 356.612 166.971 357.031 166.555 357.406C166.122 357.792 165.684 358.086 165.238 358.289ZM174.57 355.383C175.378 355.383 176.147 355.184 176.879 354.785C177.611 354.387 178.211 353.854 178.68 353.188L178.109 352.711C177.719 353.227 177.309 353.603 176.879 353.84C176.449 354.077 175.927 354.195 175.312 354.195C174.958 354.195 174.667 354.126 174.438 353.988C174.208 353.85 174.031 353.664 173.906 353.43C173.802 353.227 173.724 352.982 173.672 352.695C173.62 352.409 173.589 352.151 173.578 351.922C174.161 351.859 174.655 351.792 175.059 351.719C175.462 351.646 175.951 351.523 176.523 351.352C177.247 351.154 177.82 350.85 178.242 350.441C178.664 350.033 178.875 349.544 178.875 348.977C178.875 348.383 178.632 347.938 178.145 347.641C177.658 347.344 176.948 347.195 176.016 347.195C175.224 347.195 174.5 347.333 173.844 347.609C173.188 347.885 172.646 348.245 172.219 348.688C171.766 349.151 171.424 349.672 171.195 350.25C170.966 350.828 170.852 351.424 170.852 352.039C170.852 352.523 170.927 352.966 171.078 353.367C171.229 353.768 171.456 354.12 171.758 354.422C172.065 354.724 172.454 354.96 172.926 355.129C173.397 355.298 173.945 355.383 174.57 355.383ZM174.285 348.801C173.928 349.454 173.701 350.281 173.602 351.281C173.909 351.245 174.214 351.198 174.516 351.141C174.818 351.083 175.057 351.016 175.234 350.938C175.625 350.766 175.906 350.544 176.078 350.273C176.25 350.003 176.336 349.643 176.336 349.195C176.336 348.753 176.255 348.413 176.094 348.176C175.932 347.939 175.708 347.82 175.422 347.82C175.021 347.82 174.642 348.147 174.285 348.801ZM183.57 355.383C184.352 355.383 185.094 355.182 185.797 354.781C186.5 354.38 187.065 353.849 187.492 353.188L186.93 352.711C186.529 353.247 186.137 353.626 185.754 353.848C185.371 354.069 184.893 354.18 184.32 354.18C183.758 354.18 183.324 353.966 183.02 353.539C182.715 353.112 182.562 352.484 182.562 351.656C182.562 350.568 182.763 349.655 183.164 348.918C183.565 348.181 184.07 347.812 184.68 347.812C184.909 347.812 185.095 347.854 185.238 347.938C185.382 348.021 185.477 348.091 185.523 348.148C185.357 348.43 185.219 348.698 185.109 348.953C185 349.208 184.945 349.466 184.945 349.727C184.945 349.945 185.059 350.155 185.285 350.355C185.512 350.556 185.828 350.656 186.234 350.656C186.542 350.656 186.772 350.612 186.926 350.523C187.079 350.435 187.221 350.307 187.352 350.141C187.456 350.005 187.534 349.839 187.586 349.641C187.638 349.443 187.664 349.263 187.664 349.102C187.664 348.508 187.421 348.042 186.934 347.703C186.447 347.365 185.742 347.195 184.82 347.195C184.023 347.195 183.302 347.333 182.656 347.609C182.01 347.885 181.482 348.242 181.07 348.68C180.628 349.143 180.299 349.658 180.086 350.223C179.872 350.788 179.766 351.385 179.766 352.016C179.766 353.062 180.1 353.885 180.77 354.484C181.439 355.083 182.372 355.383 183.57 355.383ZM192.238 355.156C191.777 355.271 191.357 355.328 190.977 355.328C190.352 355.328 189.852 355.176 189.477 354.871C189.102 354.566 188.914 354.18 188.914 353.711C188.914 353.518 188.927 353.336 188.953 353.164C188.979 352.992 189.021 352.771 189.078 352.5L190.047 348.344H188.617L188.805 347.539H190.266L190.828 345.172H193.359L192.812 347.539H194.93L194.742 348.344H192.633L191.68 352.5C191.643 352.646 191.608 352.823 191.574 353.031C191.54 353.24 191.523 353.375 191.523 353.438C191.523 353.734 191.605 353.94 191.77 354.055C191.934 354.169 192.185 354.227 192.523 354.227C192.685 354.227 192.908 354.195 193.191 354.133C193.475 354.07 193.674 354.018 193.789 353.977L193.617 354.68C193.159 354.883 192.699 355.042 192.238 355.156Z" fill="#BFBFBF"/>
<g id="Group 2">
<path id="Path Copy 3" opacity="0.5" d="M189.908 140.79C190.415 139.626 191.714 139.028 192.928 139.399C193.018 139.429 193.111 139.448 193.206 139.455C193.744 139.474 194.233 139.146 194.421 138.641C194.609 138.137 194.453 137.569 194.034 137.231C193.958 137.175 193.876 137.128 193.79 137.092C192.626 136.585 192.028 135.286 192.399 134.072C192.429 133.982 192.448 133.889 192.455 133.794C192.474 133.256 192.146 132.767 191.641 132.579C191.137 132.391 190.569 132.547 190.231 132.966C190.175 133.042 190.128 133.124 190.092 133.21C189.585 134.374 188.286 134.972 187.072 134.601C186.982 134.571 186.889 134.552 186.794 134.545C186.256 134.526 185.767 134.854 185.579 135.359C185.391 135.863 185.547 136.431 185.966 136.769C186.042 136.825 186.124 136.872 186.21 136.908C187.374 137.415 187.972 138.714 187.601 139.928C187.571 140.018 187.552 140.111 187.545 140.206C187.526 140.744 187.854 141.233 188.359 141.421C188.863 141.609 189.431 141.453 189.769 141.034C189.825 140.958 189.872 140.876 189.908 140.79Z" fill="#FDD835"/>
<path id="Path Copy 5" opacity="0.5" d="M69.4082 75.2896C69.9152 74.1262 71.2142 73.5281 72.4277 73.8994C72.5178 73.9289 72.6112 73.9475 72.7057 73.955C73.2437 73.9736 73.7333 73.6458 73.9212 73.1414C74.1091 72.6369 73.9533 72.0687 73.5343 71.7308C73.4584 71.675 73.3763 71.6283 73.2896 71.5918C72.1262 71.0848 71.5281 69.7858 71.8994 68.5723C71.9289 68.4822 71.9475 68.3888 71.955 68.2943C71.9736 67.7563 71.6458 67.2667 71.1414 67.0788C70.6369 66.8909 70.0687 67.0467 69.7308 67.4657C69.675 67.5416 69.6283 67.6237 69.5918 67.7104C69.0848 68.8738 67.7858 69.4719 66.5723 69.1006C66.4822 69.0711 66.3888 69.0525 66.2943 69.045C65.7563 69.0264 65.2667 69.3542 65.0788 69.8586C64.8909 70.3631 65.0467 70.9313 65.4657 71.2692C65.5416 71.325 65.6237 71.3717 65.7104 71.4082C66.8738 71.9152 67.4719 73.2142 67.1006 74.4277C67.0711 74.5178 67.0525 74.6112 67.045 74.7057C67.0264 75.2437 67.3542 75.7333 67.8586 75.9212C68.3631 76.1091 68.9313 75.9533 69.2692 75.5343C69.325 75.4584 69.3717 75.3763 69.4082 75.2896Z" fill="#FDD835"/>
<circle id="Oval Copy" opacity="0.5" cx="252" cy="76" r="4.5" transform="rotate(90 252 76)" fill="#F55F44"/>
<circle id="Oval Copy 3" opacity="0.5" cx="247.5" cy="456.5" r="4.5" transform="rotate(90 247.5 456.5)" fill="#F55F44"/>
<circle id="Oval Copy 2" opacity="0.5" cx="358" cy="95" r="4.5" transform="rotate(90 358 95)" fill="#47E6B1"/>
<path id="Path Copy 2" opacity="0.5" d="M572.408 68.2896C572.915 67.1262 574.214 66.5281 575.428 66.8994C575.518 66.9289 575.611 66.9475 575.706 66.955C576.244 66.9736 576.733 66.6458 576.921 66.1414C577.109 65.6369 576.953 65.0687 576.534 64.7308C576.458 64.675 576.376 64.6283 576.29 64.5918C575.126 64.0848 574.528 62.7858 574.899 61.5723C574.929 61.4822 574.948 61.3888 574.955 61.2943C574.974 60.7563 574.646 60.2667 574.141 60.0788C573.637 59.8909 573.069 60.0467 572.731 60.4657C572.675 60.5416 572.628 60.6237 572.592 60.7104C572.085 61.8738 570.786 62.4719 569.572 62.1006C569.482 62.0711 569.389 62.0525 569.294 62.045C568.756 62.0264 568.267 62.3542 568.079 62.8586C567.891 63.3631 568.047 63.9313 568.466 64.2692C568.542 64.325 568.624 64.3717 568.71 64.4082C569.874 64.9152 570.472 66.2142 570.101 67.4277C570.071 67.5178 570.052 67.6112 570.045 67.7057C570.026 68.2437 570.354 68.7333 570.859 68.9212C571.363 69.1091 571.931 68.9533 572.269 68.5343C572.325 68.4584 572.372 68.3763 572.408 68.2896Z" fill="#FDD835"/>
<path id="Path Copy 4" opacity="0.5" d="M442.408 484.29C442.915 483.126 444.214 482.528 445.428 482.899C445.518 482.929 445.611 482.948 445.706 482.955C446.244 482.974 446.733 482.646 446.921 482.141C447.109 481.637 446.953 481.069 446.534 480.731C446.458 480.675 446.376 480.628 446.29 480.592C445.126 480.085 444.528 478.786 444.899 477.572C444.929 477.482 444.948 477.389 444.955 477.294C444.974 476.756 444.646 476.267 444.141 476.079C443.637 475.891 443.069 476.047 442.731 476.466C442.675 476.542 442.628 476.624 442.592 476.71C442.085 477.874 440.786 478.472 439.572 478.101C439.482 478.071 439.389 478.052 439.294 478.045C438.756 478.026 438.267 478.354 438.079 478.859C437.891 479.363 438.047 479.931 438.466 480.269C438.542 480.325 438.624 480.372 438.71 480.408C439.874 480.915 440.472 482.214 440.101 483.428C440.071 483.518 440.052 483.611 440.045 483.706C440.026 484.244 440.354 484.733 440.859 484.921C441.363 485.109 441.931 484.953 442.269 484.534C442.325 484.458 442.372 484.376 442.408 484.29Z" fill="#FDD835"/>
</g>
<path id="School solutions" d="M112.788 288.7H100.58V323H93.048V288.7H80.84V282.512H112.788V288.7ZM128.776 305.332C128.776 304.436 128.645 303.596 128.384 302.812C128.141 302.009 127.768 301.309 127.264 300.712C126.76 300.115 126.116 299.648 125.332 299.312C124.566 298.957 123.67 298.78 122.644 298.78C120.646 298.78 119.069 299.349 117.912 300.488C116.773 301.627 116.045 303.241 115.728 305.332H128.776ZM115.588 309.504C115.7 310.979 115.961 312.257 116.372 313.34C116.782 314.404 117.324 315.291 117.996 316C118.668 316.691 119.461 317.213 120.376 317.568C121.309 317.904 122.336 318.072 123.456 318.072C124.576 318.072 125.537 317.941 126.34 317.68C127.161 317.419 127.87 317.129 128.468 316.812C129.084 316.495 129.616 316.205 130.064 315.944C130.53 315.683 130.978 315.552 131.408 315.552C131.986 315.552 132.416 315.767 132.696 316.196L134.684 318.716C133.918 319.612 133.06 320.368 132.108 320.984C131.156 321.581 130.157 322.067 129.112 322.44C128.085 322.795 127.03 323.047 125.948 323.196C124.884 323.345 123.848 323.42 122.84 323.42C120.842 323.42 118.985 323.093 117.268 322.44C115.55 321.768 114.057 320.788 112.788 319.5C111.518 318.193 110.52 316.588 109.792 314.684C109.064 312.761 108.7 310.54 108.7 308.02C108.7 306.06 109.017 304.221 109.652 302.504C110.286 300.768 111.192 299.265 112.368 297.996C113.562 296.708 115.009 295.691 116.708 294.944C118.425 294.197 120.357 293.824 122.504 293.824C124.314 293.824 125.985 294.113 127.516 294.692C129.046 295.271 130.362 296.12 131.464 297.24C132.565 298.341 133.424 299.704 134.04 301.328C134.674 302.933 134.992 304.772 134.992 306.844C134.992 307.889 134.88 308.599 134.656 308.972C134.432 309.327 134.002 309.504 133.368 309.504H115.588ZM157.71 299.872C157.523 300.171 157.327 300.385 157.122 300.516C156.916 300.628 156.655 300.684 156.338 300.684C156.002 300.684 155.638 300.591 155.246 300.404C154.872 300.217 154.434 300.012 153.93 299.788C153.426 299.545 152.847 299.331 152.194 299.144C151.559 298.957 150.803 298.864 149.926 298.864C148.563 298.864 147.49 299.153 146.706 299.732C145.94 300.311 145.558 301.067 145.558 302C145.558 302.616 145.754 303.139 146.146 303.568C146.556 303.979 147.088 304.343 147.742 304.66C148.414 304.977 149.17 305.267 150.01 305.528C150.85 305.771 151.699 306.041 152.558 306.34C153.435 306.639 154.294 306.984 155.134 307.376C155.974 307.749 156.72 308.235 157.374 308.832C158.046 309.411 158.578 310.111 158.97 310.932C159.38 311.753 159.586 312.743 159.586 313.9C159.586 315.281 159.334 316.56 158.83 317.736C158.344 318.893 157.616 319.901 156.646 320.76C155.675 321.6 154.471 322.263 153.034 322.748C151.615 323.215 149.972 323.448 148.106 323.448C147.116 323.448 146.146 323.355 145.194 323.168C144.26 323 143.355 322.757 142.478 322.44C141.619 322.123 140.816 321.749 140.07 321.32C139.342 320.891 138.698 320.424 138.138 319.92L139.734 317.288C139.939 316.971 140.182 316.728 140.462 316.56C140.742 316.392 141.096 316.308 141.526 316.308C141.955 316.308 142.356 316.429 142.73 316.672C143.122 316.915 143.57 317.176 144.074 317.456C144.578 317.736 145.166 317.997 145.838 318.24C146.528 318.483 147.396 318.604 148.442 318.604C149.263 318.604 149.963 318.511 150.542 318.324C151.139 318.119 151.624 317.857 151.998 317.54C152.39 317.223 152.67 316.859 152.838 316.448C153.024 316.019 153.118 315.58 153.118 315.132C153.118 314.46 152.912 313.909 152.502 313.48C152.11 313.051 151.578 312.677 150.906 312.36C150.252 312.043 149.496 311.763 148.638 311.52C147.798 311.259 146.93 310.979 146.034 310.68C145.156 310.381 144.288 310.036 143.43 309.644C142.59 309.233 141.834 308.72 141.162 308.104C140.508 307.488 139.976 306.732 139.566 305.836C139.174 304.94 138.978 303.857 138.978 302.588C138.978 301.412 139.211 300.292 139.678 299.228C140.144 298.164 140.826 297.24 141.722 296.456C142.636 295.653 143.766 295.019 145.11 294.552C146.472 294.067 148.04 293.824 149.814 293.824C151.792 293.824 153.594 294.151 155.218 294.804C156.842 295.457 158.195 296.316 159.278 297.38L157.71 299.872ZM180.424 323V299.48L177.932 299.088C177.391 298.976 176.952 298.789 176.616 298.528C176.299 298.248 176.14 297.856 176.14 297.352V294.524H180.424V292.396C180.424 290.753 180.667 289.279 181.152 287.972C181.656 286.665 182.366 285.555 183.28 284.64C184.214 283.725 185.343 283.025 186.668 282.54C187.994 282.055 189.487 281.812 191.148 281.812C192.474 281.812 193.706 281.989 194.844 282.344L194.704 285.816C194.686 286.077 194.611 286.292 194.48 286.46C194.35 286.609 194.172 286.731 193.948 286.824C193.743 286.899 193.5 286.955 193.22 286.992C192.94 287.011 192.642 287.02 192.324 287.02C191.503 287.02 190.766 287.113 190.112 287.3C189.478 287.468 188.936 287.776 188.488 288.224C188.04 288.653 187.695 289.232 187.452 289.96C187.228 290.669 187.116 291.556 187.116 292.62V294.524H194.592V299.452H187.34V323H180.424ZM210.425 293.824C212.553 293.824 214.485 294.169 216.221 294.86C217.976 295.551 219.469 296.531 220.701 297.8C221.952 299.069 222.913 300.619 223.585 302.448C224.257 304.277 224.593 306.321 224.593 308.58C224.593 310.857 224.257 312.911 223.585 314.74C222.913 316.569 221.952 318.128 220.701 319.416C219.469 320.704 217.976 321.693 216.221 322.384C214.485 323.075 212.553 323.42 210.425 323.42C208.278 323.42 206.328 323.075 204.573 322.384C202.818 321.693 201.316 320.704 200.065 319.416C198.833 318.128 197.872 316.569 197.181 314.74C196.509 312.911 196.173 310.857 196.173 308.58C196.173 306.321 196.509 304.277 197.181 302.448C197.872 300.619 198.833 299.069 200.065 297.8C201.316 296.531 202.818 295.551 204.573 294.86C206.328 294.169 208.278 293.824 210.425 293.824ZM210.425 318.1C212.814 318.1 214.578 317.297 215.717 315.692C216.874 314.087 217.453 311.735 217.453 308.636C217.453 305.537 216.874 303.176 215.717 301.552C214.578 299.928 212.814 299.116 210.425 299.116C207.998 299.116 206.197 299.937 205.021 301.58C203.864 303.204 203.285 305.556 203.285 308.636C203.285 311.716 203.864 314.068 205.021 315.692C206.197 317.297 207.998 318.1 210.425 318.1ZM236.393 299.256C237.289 297.539 238.353 296.195 239.585 295.224C240.817 294.235 242.273 293.74 243.953 293.74C245.278 293.74 246.342 294.029 247.145 294.608L246.697 299.788C246.604 300.124 246.464 300.367 246.277 300.516C246.109 300.647 245.876 300.712 245.577 300.712C245.297 300.712 244.877 300.665 244.317 300.572C243.776 300.479 243.244 300.432 242.721 300.432C241.956 300.432 241.274 300.544 240.677 300.768C240.08 300.992 239.538 301.319 239.053 301.748C238.586 302.159 238.166 302.663 237.793 303.26C237.438 303.857 237.102 304.539 236.785 305.304V323H229.869V294.272H233.929C234.638 294.272 235.133 294.403 235.413 294.664C235.693 294.907 235.88 295.355 235.973 296.008L236.393 299.256ZM280.702 299.872C280.515 300.171 280.319 300.385 280.114 300.516C279.908 300.628 279.647 300.684 279.33 300.684C278.994 300.684 278.63 300.591 278.238 300.404C277.864 300.217 277.426 300.012 276.922 299.788C276.418 299.545 275.839 299.331 275.186 299.144C274.551 298.957 273.795 298.864 272.918 298.864C271.555 298.864 270.482 299.153 269.698 299.732C268.932 300.311 268.55 301.067 268.55 302C268.55 302.616 268.746 303.139 269.138 303.568C269.548 303.979 270.08 304.343 270.734 304.66C271.406 304.977 272.162 305.267 273.002 305.528C273.842 305.771 274.691 306.041 275.55 306.34C276.427 306.639 277.286 306.984 278.126 307.376C278.966 307.749 279.712 308.235 280.366 308.832C281.038 309.411 281.57 310.111 281.962 310.932C282.372 311.753 282.578 312.743 282.578 313.9C282.578 315.281 282.326 316.56 281.822 317.736C281.336 318.893 280.608 319.901 279.638 320.76C278.667 321.6 277.463 322.263 276.026 322.748C274.607 323.215 272.964 323.448 271.098 323.448C270.108 323.448 269.138 323.355 268.186 323.168C267.252 323 266.347 322.757 265.47 322.44C264.611 322.123 263.808 321.749 263.062 321.32C262.334 320.891 261.69 320.424 261.13 319.92L262.726 317.288C262.931 316.971 263.174 316.728 263.454 316.56C263.734 316.392 264.088 316.308 264.518 316.308C264.947 316.308 265.348 316.429 265.722 316.672C266.114 316.915 266.562 317.176 267.066 317.456C267.57 317.736 268.158 317.997 268.83 318.24C269.52 318.483 270.388 318.604 271.434 318.604C272.255 318.604 272.955 318.511 273.534 318.324C274.131 318.119 274.616 317.857 274.99 317.54C275.382 317.223 275.662 316.859 275.83 316.448C276.016 316.019 276.11 315.58 276.11 315.132C276.11 314.46 275.904 313.909 275.494 313.48C275.102 313.051 274.57 312.677 273.898 312.36C273.244 312.043 272.488 311.763 271.63 311.52C270.79 311.259 269.922 310.979 269.026 310.68C268.148 310.381 267.28 310.036 266.422 309.644C265.582 309.233 264.826 308.72 264.154 308.104C263.5 307.488 262.968 306.732 262.558 305.836C262.166 304.94 261.97 303.857 261.97 302.588C261.97 301.412 262.203 300.292 262.67 299.228C263.136 298.164 263.818 297.24 264.714 296.456C265.628 295.653 266.758 295.019 268.102 294.552C269.464 294.067 271.032 293.824 272.806 293.824C274.784 293.824 276.586 294.151 278.21 294.804C279.834 295.457 281.187 296.316 282.27 297.38L280.702 299.872ZM308.363 300.348C308.158 300.609 307.953 300.815 307.747 300.964C307.561 301.113 307.281 301.188 306.907 301.188C306.553 301.188 306.207 301.085 305.871 300.88C305.535 300.656 305.134 300.413 304.667 300.152C304.201 299.872 303.641 299.629 302.987 299.424C302.353 299.2 301.559 299.088 300.607 299.088C299.394 299.088 298.33 299.312 297.415 299.76C296.501 300.189 295.735 300.815 295.119 301.636C294.522 302.457 294.074 303.456 293.775 304.632C293.477 305.789 293.327 307.105 293.327 308.58C293.327 310.111 293.486 311.473 293.803 312.668C294.139 313.863 294.615 314.871 295.231 315.692C295.847 316.495 296.594 317.111 297.471 317.54C298.349 317.951 299.338 318.156 300.439 318.156C301.541 318.156 302.427 318.025 303.099 317.764C303.79 317.484 304.369 317.185 304.835 316.868C305.302 316.532 305.703 316.233 306.039 315.972C306.394 315.692 306.786 315.552 307.215 315.552C307.775 315.552 308.195 315.767 308.475 316.196L310.463 318.716C309.698 319.612 308.867 320.368 307.971 320.984C307.075 321.581 306.142 322.067 305.171 322.44C304.219 322.795 303.23 323.047 302.203 323.196C301.195 323.345 300.187 323.42 299.179 323.42C297.406 323.42 295.735 323.093 294.167 322.44C292.599 321.768 291.227 320.797 290.051 319.528C288.875 318.259 287.942 316.709 287.251 314.88C286.579 313.032 286.243 310.932 286.243 308.58C286.243 306.471 286.542 304.52 287.139 302.728C287.755 300.917 288.651 299.359 289.827 298.052C291.003 296.727 292.459 295.691 294.195 294.944C295.931 294.197 297.929 293.824 300.187 293.824C302.334 293.824 304.21 294.169 305.815 294.86C307.439 295.551 308.895 296.54 310.183 297.828L308.363 300.348ZM321.715 297.352C322.835 296.307 324.067 295.457 325.411 294.804C326.755 294.151 328.332 293.824 330.143 293.824C331.711 293.824 333.101 294.095 334.315 294.636C335.528 295.159 336.536 295.905 337.339 296.876C338.16 297.828 338.776 298.976 339.187 300.32C339.616 301.645 339.831 303.111 339.831 304.716V323H332.915V304.716C332.915 302.961 332.513 301.608 331.711 300.656C330.908 299.685 329.685 299.2 328.043 299.2C326.848 299.2 325.728 299.471 324.683 300.012C323.637 300.553 322.648 301.291 321.715 302.224V323H314.799V281.392H321.715V297.352ZM359.12 293.824C361.248 293.824 363.18 294.169 364.916 294.86C366.671 295.551 368.164 296.531 369.396 297.8C370.647 299.069 371.608 300.619 372.28 302.448C372.952 304.277 373.288 306.321 373.288 308.58C373.288 310.857 372.952 312.911 372.28 314.74C371.608 316.569 370.647 318.128 369.396 319.416C368.164 320.704 366.671 321.693 364.916 322.384C363.18 323.075 361.248 323.42 359.12 323.42C356.974 323.42 355.023 323.075 353.268 322.384C351.514 321.693 350.011 320.704 348.76 319.416C347.528 318.128 346.567 316.569 345.876 314.74C345.204 312.911 344.868 310.857 344.868 308.58C344.868 306.321 345.204 304.277 345.876 302.448C346.567 300.619 347.528 299.069 348.76 297.8C350.011 296.531 351.514 295.551 353.268 294.86C355.023 294.169 356.974 293.824 359.12 293.824ZM359.12 318.1C361.51 318.1 363.274 317.297 364.412 315.692C365.57 314.087 366.148 311.735 366.148 308.636C366.148 305.537 365.57 303.176 364.412 301.552C363.274 299.928 361.51 299.116 359.12 299.116C356.694 299.116 354.892 299.937 353.716 301.58C352.559 303.204 351.98 305.556 351.98 308.636C351.98 311.716 352.559 314.068 353.716 315.692C354.892 317.297 356.694 318.1 359.12 318.1ZM391.276 293.824C393.404 293.824 395.336 294.169 397.072 294.86C398.827 295.551 400.32 296.531 401.552 297.8C402.803 299.069 403.764 300.619 404.436 302.448C405.108 304.277 405.444 306.321 405.444 308.58C405.444 310.857 405.108 312.911 404.436 314.74C403.764 316.569 402.803 318.128 401.552 319.416C400.32 320.704 398.827 321.693 397.072 322.384C395.336 323.075 393.404 323.42 391.276 323.42C389.13 323.42 387.179 323.075 385.424 322.384C383.67 321.693 382.167 320.704 380.916 319.416C379.684 318.128 378.723 316.569 378.032 314.74C377.36 312.911 377.024 310.857 377.024 308.58C377.024 306.321 377.36 304.277 378.032 302.448C378.723 300.619 379.684 299.069 380.916 297.8C382.167 296.531 383.67 295.551 385.424 294.86C387.179 294.169 389.13 293.824 391.276 293.824ZM391.276 318.1C393.666 318.1 395.43 317.297 396.568 315.692C397.726 314.087 398.304 311.735 398.304 308.636C398.304 305.537 397.726 303.176 396.568 301.552C395.43 299.928 393.666 299.116 391.276 299.116C388.85 299.116 387.048 299.937 385.872 301.58C384.715 303.204 384.136 305.556 384.136 308.636C384.136 311.716 384.715 314.068 385.872 315.692C387.048 317.297 388.85 318.1 391.276 318.1ZM417.721 281.392V323H410.805V281.392H417.721ZM442.139 299.872C441.953 300.171 441.757 300.385 441.551 300.516C441.346 300.628 441.085 300.684 440.767 300.684C440.431 300.684 440.067 300.591 439.675 300.404C439.302 300.217 438.863 300.012 438.359 299.788C437.855 299.545 437.277 299.331 436.623 299.144C435.989 298.957 435.233 298.864 434.355 298.864C432.993 298.864 431.919 299.153 431.135 299.732C430.37 300.311 429.987 301.067 429.987 302C429.987 302.616 430.183 303.139 430.575 303.568C430.986 303.979 431.518 304.343 432.171 304.66C432.843 304.977 433.599 305.267 434.439 305.528C435.279 305.771 436.129 306.041 436.987 306.34C437.865 306.639 438.723 306.984 439.563 307.376C440.403 307.749 441.15 308.235 441.803 308.832C442.475 309.411 443.007 310.111 443.399 310.932C443.81 311.753 444.015 312.743 444.015 313.9C444.015 315.281 443.763 316.56 443.259 317.736C442.774 318.893 442.046 319.901 441.075 320.76C440.105 321.6 438.901 322.263 437.463 322.748C436.045 323.215 434.402 323.448 432.535 323.448C431.546 323.448 430.575 323.355 429.623 323.168C428.69 323 427.785 322.757 426.907 322.44C426.049 322.123 425.246 321.749 424.499 321.32C423.771 320.891 423.127 320.424 422.567 319.92L424.163 317.288C424.369 316.971 424.611 316.728 424.891 316.56C425.171 316.392 425.526 316.308 425.955 316.308C426.385 316.308 426.786 316.429 427.159 316.672C427.551 316.915 427.999 317.176 428.503 317.456C429.007 317.736 429.595 317.997 430.267 318.24C430.958 318.483 431.826 318.604 432.871 318.604C433.693 318.604 434.393 318.511 434.971 318.324C435.569 318.119 436.054 317.857 436.427 317.54C436.819 317.223 437.099 316.859 437.267 316.448C437.454 316.019 437.547 315.58 437.547 315.132C437.547 314.46 437.342 313.909 436.931 313.48C436.539 313.051 436.007 312.677 435.335 312.36C434.682 312.043 433.926 311.763 433.067 311.52C432.227 311.259 431.359 310.979 430.463 310.68C429.586 310.381 428.718 310.036 427.859 309.644C427.019 309.233 426.263 308.72 425.591 308.104C424.938 307.488 424.406 306.732 423.995 305.836C423.603 304.94 423.407 303.857 423.407 302.588C423.407 301.412 423.641 300.292 424.107 299.228C424.574 298.164 425.255 297.24 426.151 296.456C427.066 295.653 428.195 295.019 429.539 294.552C430.902 294.067 432.47 293.824 434.243 293.824C436.222 293.824 438.023 294.151 439.647 294.804C441.271 295.457 442.625 296.316 443.707 297.38L442.139 299.872Z" fill="#222222"/>
</g>
</svg>
