<svg width="1200" height="600" viewBox="0 0 1200 600" fill="none" xmlns="http://www.w3.org/2000/svg">
<g id="travel_store_hero" clip-path="url(#clip0)">
<rect width="1200" height="600" fill="#E2E6E7"/>
<g id="undraw_travelers_qlt1">
<ellipse id="Oval" cx="958.5" cy="317" rx="17.5" ry="14" fill="#3F3D56"/>
<circle id="Oval_2" cx="993.5" cy="363.5" r="25.5" fill="#3F3D56"/>
<circle id="Oval_3" cx="1074.5" cy="589.5" r="6.5" fill="#3F3D56"/>
<circle id="Oval_4" cx="1041.5" cy="589.5" r="6.5" fill="#3F3D56"/>
<rect id="Rectangle" x="1048" y="436" width="3" height="78" fill="#3F3D56"/>
<rect id="Rectangle_2" x="1064" y="436" width="3" height="78" fill="#3F3D56"/>
<path id="Path" d="M1048.72 438L1048 435.814C1048 435.814 1055.89 426.338 1067 433.976L1066.28 437.26H1063.41C1063.41 437.26 1058.76 433.287 1050.87 437.825L1048.72 438Z" fill="#3F3D56"/>
<rect id="Rectangle_3" x="976" y="425" width="25" height="32" fill="#FBBEBE"/>
<rect id="Rectangle_4" x="1011" y="415" width="8" height="16" fill="#FBBEBE"/>
<path id="Path_2" d="M979.411 582.719L976.207 592.409C976.207 592.409 974.781 599.586 979.411 599.943C984.041 600.3 991.525 598.867 991.525 598.867C991.525 598.867 992.593 595.638 991.525 592.767C990.458 589.895 987.254 582 987.254 582L979.411 582.719Z" fill="#3C354C"/>
<path id="Path_3" d="M1003.56 583C1003.56 583 998.597 595.341 1002.49 597.455C1006.39 599.57 1011.71 597.806 1015.96 599.57C1020.21 601.333 1031.9 597.104 1031.9 597.104C1031.9 597.104 1033.32 593.226 1025.52 592.169C1025.52 592.169 1017.04 585.821 1017.04 584.413C1017.04 583.004 1012.08 583 1012.08 583H1003.56Z" fill="#3C354C"/>
<path id="Path_4" d="M1002.81 441.691C1002.81 441.691 973.798 447.708 970.263 445.937C966.728 444.167 963.188 470.021 963.188 470.021C963.188 470.021 961.77 485.595 966.723 506.477C971.676 527.358 966.723 537.625 966.723 537.625C966.723 537.625 967.432 557.445 972.742 566.65C978.051 575.856 978.047 584.347 978.047 584.347C978.047 584.347 988.3 585.409 988.661 582.929C988.661 582.929 984.413 573.019 985.122 563.818C985.83 554.617 983 536.916 983 536.916C983 536.916 987.6 514.616 986.891 506.142C986.183 497.668 989.37 479.596 991.136 482.781C992.901 485.965 997.506 501.539 997.506 504.728C997.506 507.917 999.289 529.147 1000.34 530.565C1001.38 531.983 1001.04 536.229 1000.69 538.352C1000.34 540.475 1000.34 556.401 1002.1 564.897C1003.87 573.394 1002.46 582.947 1002.81 584.365C1003.16 585.783 1013.43 584.718 1013.78 582.238C1013.78 582.238 1015.2 567.02 1015.9 564.897C1016.61 562.775 1016.95 535.836 1016.95 535.836C1016.95 535.836 1017.65 514.955 1018.36 512.832C1019.07 510.709 1020.14 465.048 1015.53 459.759C1010.92 454.469 1012.7 441 1012.7 441L1002.81 441.691Z" fill="#3F3D56"/>
<path id="Path_5" d="M978.249 381.037C976.934 383.51 975.611 386.006 974.788 388.689C973.966 391.372 973.68 394.278 974.453 396.974C975.006 398.658 975.776 400.264 976.742 401.751C977.51 403.172 978.485 404.472 979.634 405.608C982.317 408.054 986.215 408.546 989.836 408.929C990.457 409.033 991.092 409.022 991.709 408.898C992.204 408.755 992.662 408.505 993.05 408.166C994.637 406.827 995.357 404.782 995.938 402.809C997.321 398.116 998.311 393.317 998.898 388.461C999.034 387.693 999.034 386.907 998.898 386.139C998.585 384.8 997.512 383.76 996.734 382.608C995.802 381.232 995.27 379.625 995.196 377.965C995.165 377.157 995.196 376.265 994.687 375.649C994.347 375.313 993.936 375.06 993.484 374.907C991.369 374.015 989.259 373.122 987.14 372.265C985.862 371.738 983.564 370.336 982.223 371.372C981.074 372.265 981.628 374.336 981.136 375.577C980.381 377.461 979.196 379.251 978.249 381.037Z" fill="#FBBEBE"/>
<path id="Path_6" opacity="0.1" d="M978.249 381.037C976.934 383.51 975.611 386.006 974.788 388.689C973.966 391.372 973.68 394.278 974.453 396.974C975.006 398.658 975.776 400.264 976.742 401.751C977.51 403.172 978.485 404.472 979.634 405.608C982.317 408.054 986.215 408.546 989.836 408.929C990.457 409.033 991.092 409.022 991.709 408.898C992.204 408.755 992.662 408.505 993.05 408.166C994.637 406.827 995.357 404.782 995.938 402.809C997.321 398.116 998.311 393.317 998.898 388.461C999.034 387.693 999.034 386.907 998.898 386.139C998.585 384.8 997.512 383.76 996.734 382.608C995.802 381.232 995.27 379.625 995.196 377.965C995.165 377.157 995.196 376.265 994.687 375.649C994.347 375.313 993.936 375.06 993.484 374.907C991.369 374.015 989.259 373.122 987.14 372.265C985.862 371.738 983.564 370.336 982.223 371.372C981.074 372.265 981.628 374.336 981.136 375.577C980.381 377.461 979.196 379.251 978.249 381.037Z" fill="black"/>
<circle id="Oval_5" cx="992.5" cy="369.5" r="12.5" fill="#FBBEBE"/>
<path id="Path_7" d="M997.241 400.75C994.866 401.584 992.413 402.304 989.889 402.393C987.998 402.411 986.111 402.214 984.267 401.805C980.456 401.064 976.713 400.02 973.076 398.683C972.3 400.18 972.092 401.889 972.024 403.568C971.83 408.642 972.864 413.677 973.261 418.743C973.763 425.183 973.261 431.764 974.955 438C975.053 436.94 975.474 435.934 976.165 435.111C976.741 434.505 977.429 434.01 978.193 433.654C981.611 431.926 985.546 431.447 989.293 432.302C991.465 432.806 993.773 433.747 995.832 432.903C997.06 432.395 997.95 431.326 998.632 430.205C999.79 428.18 1000.62 425.991 1001.08 423.716C1002.43 417.869 1002.61 411.822 1002.78 405.824C1002.82 404.221 1003.53 399.456 1002.17 398.281C1001.22 397.464 1000.94 398.63 1000.25 399.239C999.356 399.929 998.334 400.442 997.241 400.75Z" fill="#F2F2F2"/>
<path id="Path_8" d="M979.097 379.403C978.274 378.758 977.056 378.958 976.149 379.505C975.241 380.052 974.508 380.807 973.587 381.305C971.035 382.688 967.606 381.674 965.182 383.284C962.905 384.8 962.514 387.92 962.336 390.65C961.891 397.585 961.509 404.569 959.841 411.317C959.397 413.095 958.863 414.918 959.032 416.749C959.165 417.796 959.413 418.824 959.77 419.817L961.958 426.649C962.972 429.823 963.999 433.046 964.106 436.376C964.213 439.706 963.43 442.871 962.652 446.049C961.114 452.311 960.113 458.693 959.659 465.125C959.521 467.254 959.463 469.477 960.326 471.429C961.216 473.469 963.021 474.985 964.924 476.136C966.828 477.288 968.896 478.177 970.759 479.399C974.499 481.858 977.501 485.73 981.876 486.739C983.882 487.183 985.981 487.006 988 486.614C988 486.614 986.857 434.727 983.677 427.316C980.498 419.905 977.678 387.805 977.678 386.747C977.678 385.689 979.097 379.403 979.097 379.403Z" fill="#FD8D5F"/>
<path id="Path_9" d="M997.114 381C997.114 381 1013.72 381 1016.18 389.791C1018.64 398.581 1009.16 412.999 1009.16 412.999C1009.16 412.999 1013.02 441.479 1014.77 444.293C1016.52 447.106 1015.83 452.711 1015.83 452.711C1017.1 456.569 1017.34 460.694 1016.53 464.674C1015.13 471.001 1009.86 482.255 1009.86 482.255C1009.86 482.255 1002.84 482.255 1001.08 486.473C999.329 490.691 998.98 468.188 998.98 468.188C998.98 468.188 992.665 427.048 993.014 424.589C993.363 422.13 995.119 401.731 995.822 396.104C996.525 390.477 998.055 383.109 997.114 381Z" fill="#FD8D5F"/>
<path id="Path_10" d="M1009.02 386C1009.02 386 1017.37 388.479 1017.37 391.315C1017.37 394.151 1019.93 409.389 1019.93 414.351C1019.93 419.313 1018.84 420.023 1019.93 421.797C1021.02 423.57 1008.31 422.86 1008.31 422.86L1006 402.659L1009.02 386Z" fill="#FD8D5F"/>
<path id="Path_11" d="M961.408 411.627C961.408 411.627 977.274 412.718 980.094 410.53C982.915 408.343 994.898 413.443 995.955 416.355C997.012 419.267 979.033 419.629 976.216 419.629C973.4 419.629 960 424 960 424L961.408 411.627Z" fill="#A0616A"/>
<path id="Path_12" d="M928.641 576.565C928.641 576.565 921.276 595.536 925.102 597.795C928.929 600.053 969.279 598.445 969.279 598.445C969.279 598.445 975.999 594.199 968.319 591.254C968.319 591.254 961.913 590.929 957.755 588.314C953.596 585.698 948.787 580.798 948.787 580.798C948.787 580.798 948.469 573.607 945.908 575.242C944.358 576.284 943.312 577.946 943.028 579.817L928.641 576.565Z" fill="#3F3D56"/>
<path id="Path_13" opacity="0.1" d="M928.641 576.565C928.641 576.565 921.276 595.536 925.102 597.795C928.929 600.053 969.279 598.445 969.279 598.445C969.279 598.445 975.999 594.199 968.319 591.254C968.319 591.254 961.913 590.929 957.755 588.314C953.596 585.698 948.787 580.798 948.787 580.798C948.787 580.798 948.469 573.607 945.908 575.242C944.358 576.284 943.312 577.946 943.028 579.817L928.641 576.565Z" fill="black"/>
<path id="Path_14" d="M917.112 581.688C917.112 581.688 908.985 602.189 913.225 604.676C917.464 607.162 961.994 605.384 961.994 605.384C961.994 605.384 969.417 600.789 960.934 597.603C960.934 597.603 953.867 597.251 949.272 594.421C944.676 591.591 939.377 586.274 939.377 586.274C939.377 586.274 939.025 578.492 936.198 580.262C934.487 581.389 933.332 583.187 933.018 585.213L917.112 581.688Z" fill="#3F3D56"/>
<path id="Path_15" d="M959 451.798L954.052 496.208C954.052 496.208 952.27 517.356 946.983 521.935C946.983 521.935 946.983 528.632 945.202 530.745L942.725 558.591C942.725 558.591 946.262 568.805 945.91 570.581C945.558 572.358 947.322 577.98 946.97 578.686C946.618 579.392 930 578.686 930 578.686L933.536 521.943L944.493 443L959 451.798Z" fill="#3C354C"/>
<path id="Path_16" opacity="0.1" d="M959 451.798L954.052 496.208C954.052 496.208 952.27 517.356 946.983 521.935C946.983 521.935 946.983 528.632 945.202 530.745L942.725 558.591C942.725 558.591 946.262 568.805 945.91 570.581C945.558 572.358 947.322 577.98 946.97 578.686C946.618 579.392 930 578.686 930 578.686L933.536 521.943L944.493 443L959 451.798Z" fill="black"/>
<path id="Path_17" d="M950 451.19C950 451.19 946.062 487.531 944.271 495.294C943.145 500.406 942.428 505.597 942.124 510.819C942.124 510.819 941.768 522.112 938.543 525.286C936.64 527.144 935.605 529.695 935.683 532.333C935.683 532.333 932.457 567.968 934.248 572.205C936.039 576.442 937.83 579.967 936.053 582.786C934.275 585.605 914.572 585.609 914.572 583.493C914.572 581.377 914.572 579.612 913.499 578.554C912.425 577.496 913.499 570.791 913.499 570.791C913.499 570.791 909.204 539.389 913.142 530.217C917.08 521.045 918.871 495.983 918.871 495.983C918.871 495.983 916.007 467.404 912.425 462.816C908.843 458.228 913.142 442 913.142 442L950 451.19Z" fill="#3C354C"/>
<path id="Path_18" d="M940 338.07C940.418 338.997 941.421 339.513 942.333 340.003C947.621 342.835 952.047 346.942 956.405 351C955.317 347.414 955.55 343.572 957.063 340.135C957.581 338.966 958.266 337.704 957.894 336.482C957.617 335.6 956.832 334.929 956.078 334.356C954.299 333.019 952.439 331.786 950.508 330.664C949.147 329.878 946.387 327.792 944.839 328.017C944.757 330.05 944.716 331.868 943.799 333.752C943.572 334.219 940.159 338.423 940 338.07Z" fill="#A0616A"/>
<circle id="Oval_6" cx="958.5" cy="327.5" r="14.5" fill="#A0616A"/>
<path id="Path_19" d="M958.457 361.803C958.457 361.803 960.924 349.432 953.869 345.192C946.815 340.953 938.703 336.005 938.703 336.005C938.703 336.005 936.231 335.649 935.173 340.953C935.173 340.953 915.068 344.84 912.947 363.923C910.827 383.005 914.361 410.927 914.361 410.927C914.361 410.927 911.187 435.313 907.306 448.388C907.306 448.388 904.128 451.216 918.242 446.976C932.355 442.737 957.043 459 957.043 459C957.043 459 959.515 456.524 959.515 454.756C959.515 452.988 962.337 442.732 962.337 442.732C962.337 442.732 964.804 399.264 965.862 394.316C966.92 389.369 961.631 362.511 958.457 361.803Z" fill="#3F3D56"/>
<path id="Path_20" d="M937.076 387C937.076 387 956.345 375.579 952.49 360.947C948.636 346.315 940.229 341.679 940.229 341.679C940.229 341.679 926.564 337.038 915 352.021L915.702 358.802C915.702 358.802 928.317 332.753 941.982 349.166C955.647 365.578 937.076 387 937.076 387Z" fill="white"/>
<path id="Path_21" d="M916 352.17V410.052L912.385 429.797L910.696 439H898.331L881 432.644V389.943C881 389.943 895.5 361.347 900.1 356.053C904.7 350.76 916 352.17 916 352.17Z" fill="white"/>
<path id="Path_22" opacity="0.1" d="M912 430L910.336 439H898.111L881 432.788L912 430Z" fill="black"/>
<path id="Path_23" d="M912 417.893L942 381L915.486 419.3L912.695 420L912 417.893Z" fill="white"/>
<path id="Path_24" d="M954.812 329.055C955.634 328.504 956.665 328.402 957.651 328.305C958.637 328.209 959.667 328.076 960.453 327.477C961.817 326.437 961.919 324.427 962.918 323.039C964.362 321.025 967.245 320.782 969.736 320.879C971.26 320.941 972.899 321.034 974.178 320.218C975.457 319.403 976.088 317.794 976.532 316.309C977.06 314.546 977.398 312.395 976.088 311.091C975.199 310.183 973.76 310.002 972.757 309.205C971.753 308.407 971.286 307.036 970.722 305.842C970.078 304.383 969.06 303.117 967.769 302.171C965.877 300.849 963.46 300.575 961.155 300.597C958.85 300.619 956.536 300.924 954.248 300.641C952.374 300.412 950.504 299.795 948.639 300.069C946.258 300.417 944.29 302.202 943.113 304.286C941.936 306.371 941.439 308.751 940.95 311.087L939.618 317.446C939.209 319.421 938.796 321.443 939.111 323.431C939.769 327.556 943.446 330.835 943.7 335C944.191 332.663 945.833 330.727 948.07 329.848C948.346 329.714 948.658 329.676 948.958 329.738C949.323 329.857 949.536 330.218 949.767 330.522C950.371 331.32 952.267 332.528 953.32 331.963C954.324 331.457 953.604 329.87 954.812 329.055Z" fill="#3F3D56"/>
<path id="Path_25" d="M1047.58 509.083C1047.58 509.083 1038.04 509.433 1036.63 520.334C1035.22 531.234 1036.63 581.873 1036.63 581.873C1036.63 581.873 1047.58 589.96 1061.01 588.905C1074.45 587.851 1096 583.982 1096 583.982V524.605C1096 515.743 1088.57 508.516 1079.67 509.025C1079.46 509.025 1079.23 509.052 1079.04 509.074L1047.58 509.083Z" fill="#3C354C"/>
<circle id="Oval_7" cx="1061.5" cy="590.5" r="6.5" fill="#3F3D56"/>
<circle id="Oval_8" cx="1095.5" cy="588.5" r="6.5" fill="#3F3D56"/>
<path id="Path_26" d="M918.263 395.668C918.263 395.668 915.785 411.331 926.039 409.909C926.039 409.909 931.347 409.195 932.055 409.909C932.764 410.622 958.931 405.992 962.469 402.075C962.469 402.075 966.712 400.653 968.833 402.788C970.954 404.924 992.175 407.06 985.816 400.648C979.457 394.237 969.55 392.815 969.55 392.815L956.11 393.524C956.11 393.524 949.038 395.664 944.796 393.524C940.553 391.383 928.517 392.124 928.517 392.124L918.263 395.668Z" fill="#A0616A"/>
<path id="Path_27" d="M932.961 346C932.961 346 917 347.779 917 370.707V400C917 400 925.868 396.117 927.642 396.468C929.417 396.82 936.51 391.878 936.51 391.878C936.51 391.878 944.667 372.824 943.956 367.532C943.245 362.239 943.603 346.703 932.961 346Z" fill="#3F3D56"/>
<path id="Path_28" d="M1006.12 403L990 413.972L1000.03 415L1014 403.687L1006.12 403Z" fill="#3F3D56"/>
<path id="Path_29" d="M1017.64 419.959C1017.64 419.959 1021.48 431.967 1016.25 435.49C1011.02 439.013 1002.3 423.134 1002.3 423.134C1002.3 423.134 992.879 411.842 999.159 409.369C1005.44 406.896 1008 417.664 1008 417.664L1016.24 424.9L1017.64 419.959Z" fill="#FBBEBE"/>
<ellipse id="Oval_9" cx="994" cy="360" rx="14" ry="9" fill="#3F3D56"/>
<ellipse id="Oval_10" cx="996.5" cy="338" rx="10.5" ry="10" fill="#3F3D56"/>
<ellipse id="Oval_11" cx="958.5" cy="319" rx="13.5" ry="7" fill="#3F3D56"/>
<ellipse id="Oval_12" cx="945" cy="320" rx="5" ry="12" fill="#3F3D56"/>
<path id="Path_30" d="M874.558 599C875.861 596.547 874.385 593.543 872.7 591.353C871.015 589.163 868.957 586.902 869.001 584.102C869.066 580.096 873.212 577.733 876.525 575.61C878.984 574.034 881.252 572.165 883.282 570.042C884.133 569.226 884.836 568.261 885.357 567.193C886.043 565.626 886.026 563.846 885.982 562.128C885.838 556.412 885.561 550.703 885.153 545" stroke="#3F3D56" stroke-width="2"/>
<path id="Path_31" d="M891.994 544.729C891.901 542.682 890.77 540.823 888.994 539.801L887.648 542.466L887.691 539.244C885.188 538.508 882.497 539.475 881.033 541.634C879.57 543.793 879.669 546.65 881.279 548.703C882.889 550.755 885.641 551.532 888.086 550.625C890.532 549.718 892.112 547.335 891.994 544.729Z" fill="#57B894"/>
<path id="Path_32" d="M880.331 586.751C879.031 589.271 876.144 590.536 873.41 589.785C870.675 589.033 868.841 586.47 869.011 583.639C869.181 580.809 871.31 578.484 874.115 578.066C876.92 577.648 879.634 579.25 880.623 581.908L876.865 584.964L881 584.004C881.001 584.96 880.772 585.902 880.331 586.751Z" fill="#57B894"/>
<path id="Path_33" d="M877.291 574.993C875.697 575.071 874.138 574.511 872.959 573.439C871.78 572.366 871.077 570.869 871.008 569.278C870.96 568.339 871.138 567.403 871.526 566.546C872.254 564.923 873.666 563.706 875.381 563.221L875.351 565.696L876.709 563.007C878.302 562.929 879.861 563.489 881.041 564.561C882.22 565.634 882.922 567.131 882.992 568.722C883.028 569.414 882.941 570.107 882.735 570.77C881.994 573.182 879.817 574.871 877.291 574.993Z" fill="#57B894"/>
<path id="Path_34" d="M892.231 564.996C889.696 565.089 887.375 563.583 886.431 561.232C885.488 558.881 886.125 556.191 888.023 554.511C889.921 552.83 892.672 552.521 894.897 553.737L893.833 556.652L896.022 554.552C897.832 556.187 898.472 558.753 897.64 561.045C896.809 563.336 894.671 564.898 892.231 564.996Z" fill="#57B894"/>
<path id="Path_35" opacity="0.1" d="M890.309 546.226C888.906 546.387 887.533 546.84 886.121 546.929C884.709 547.019 883.158 546.669 882.267 545.536C881.785 544.926 881.542 544.155 881.138 543.492C880.753 542.873 880.226 542.361 879.604 542C878.592 544.165 878.867 546.736 880.314 548.621C881.761 550.505 884.124 551.371 886.399 550.851C888.674 550.331 890.461 548.515 891 546.177C890.77 546.185 890.539 546.203 890.309 546.226Z" fill="black"/>
<path id="Path_36" opacity="0.1" d="M892.367 564.994C890.236 565.09 888.211 564.026 887.027 562.187C885.842 560.349 885.671 558.003 886.574 556C887.06 556.337 887.477 556.769 887.802 557.273C888.236 557.952 888.496 558.734 889.008 559.359C889.954 560.515 891.577 560.893 893.044 560.821C894.511 560.749 895.934 560.322 897.384 560.182C897.588 560.182 897.796 560.146 898 560.142C897.38 562.882 895.08 564.863 892.367 564.994Z" fill="black"/>
<path id="Path_37" opacity="0.1" d="M877.424 574.992C875.796 575.075 874.205 574.48 873 573.338C871.796 572.196 871.079 570.602 871.008 568.908C870.959 567.909 871.141 566.912 871.537 566C872.047 566.345 872.492 566.784 872.849 567.297C873.326 567.998 873.623 568.803 874.161 569.45C875.198 570.651 876.938 571.074 878.508 571.033C880.078 570.992 881.491 570.61 883 570.492C882.243 573.068 880.01 574.87 877.424 574.992Z" fill="black"/>
<path id="Path_38" opacity="0.1" d="M881 587.221C880.084 589.304 878.147 590.732 875.917 590.966C873.688 591.2 871.505 590.205 870.191 588.356C868.877 586.506 868.632 584.084 869.548 582C870.064 582.346 870.529 582.767 870.926 583.249C871.522 583.993 871.916 584.832 872.605 585.529C873.89 586.815 875.963 587.353 877.812 587.394C878.877 587.399 879.942 587.341 881 587.221Z" fill="black"/>
<path id="Path_39" d="M865 596.575C865 596.575 869.837 596.429 871.296 595.406C872.754 594.382 878.718 593.161 879.097 594.804C879.477 596.446 886.362 602.974 880.905 602.999C875.448 603.025 868.218 602.161 866.764 601.279C865.31 600.398 865 596.575 865 596.575Z" fill="#656380"/>
<path id="Path_40" opacity="0.2" d="M881.019 602.369C875.551 602.416 868.317 601.459 866.862 600.503C865.752 599.784 865.31 597.194 865.162 596H865C865 596 865.306 600.167 866.748 601.133C868.191 602.098 875.438 603.036 880.905 602.999C882.483 602.999 883.025 602.388 882.999 601.496C882.794 602.024 882.195 602.36 881.019 602.369Z" fill="black"/>
</g>
<g id="Group">
<g id="travelstore" filter="url(#filter0_i)">
<path fill-rule="evenodd" clip-rule="evenodd" d="M314.348 333.687V274.334H321.753V333.687H314.348ZM141.065 334.626C137.306 334.626 134.374 333.549 132.269 331.394C130.164 329.239 129.112 326.244 129.112 322.41V298.429H124V292.866H129.112V285.461L136.517 284.746V292.866H147.192V298.429H136.517V321.057C136.517 326.394 138.822 329.063 143.433 329.063C144.411 329.063 145.601 328.9 147.004 328.575V333.687C144.724 334.313 142.744 334.626 141.065 334.626ZM157.604 333.687V292.866H165.009V300.534C167.941 294.82 172.201 291.963 177.789 291.963C178.541 291.963 179.33 292.026 180.157 292.151V299.068C178.879 298.642 177.751 298.429 176.774 298.429C172.088 298.429 168.166 301.21 165.009 306.773V333.687H157.604ZM197.335 334.626C201.445 334.626 205.717 332.584 210.153 328.499C211.105 332.584 213.31 334.626 216.768 334.626C218.798 334.626 220.652 334.225 222.331 333.424L221.805 329.326C221.179 329.427 220.703 329.477 220.377 329.477C217.771 329.477 216.468 327.359 216.468 323.124V304.631C216.468 300.296 215.384 297.101 213.216 295.046C211.049 292.991 207.684 291.963 203.124 291.963C198.763 291.963 194.09 292.978 189.103 295.008V301.135C193.639 298.729 197.861 297.527 201.77 297.527C206.632 297.527 209.063 299.895 209.063 304.631V309.555H207.296C200.305 309.555 194.936 310.751 191.189 313.145C187.443 315.538 185.57 318.964 185.57 323.425C185.57 326.658 186.685 329.333 188.915 331.45C191.146 333.568 193.952 334.626 197.335 334.626ZM209.063 324.477V313.915L206.582 313.84C202.522 313.84 199.24 314.61 196.734 316.152C194.228 317.693 192.975 319.716 192.975 322.222C192.975 324.001 193.601 325.505 194.854 326.733C196.107 327.961 197.636 328.575 199.44 328.575C202.522 328.575 205.73 327.209 209.063 324.477ZM224.887 292.866L240.073 333.687H247.478L263.603 292.866H256.687L244.17 324.628L232.292 292.866H224.887ZM301.38 332.371C296.418 333.875 292.171 334.626 288.637 334.626C282.623 334.626 277.718 332.628 273.922 328.631C270.125 324.634 268.227 319.453 268.227 313.088C268.227 306.899 269.9 301.824 273.245 297.865C276.59 293.906 280.869 291.926 286.081 291.926C291.018 291.926 294.833 293.68 297.527 297.188C300.221 300.697 301.568 305.683 301.568 312.148L301.53 314.441H275.782C276.86 324.139 281.608 328.988 290.028 328.988C293.11 328.988 296.894 328.161 301.38 326.507V332.371ZM294.125 308.878H276.12C276.772 301.285 279.942 297.489 285.63 297.489C291.294 297.489 294.125 301.285 294.125 308.878ZM353.098 332.258C357.935 333.837 362.044 334.626 365.427 334.626C369.838 334.626 373.459 333.474 376.29 331.168C379.122 328.863 380.538 325.918 380.538 322.335C380.538 319.503 379.698 317.141 378.02 315.249C376.341 313.358 373.484 311.56 369.449 309.856L365.878 308.352C362.27 306.823 360.466 304.944 360.466 302.714C360.466 299.256 362.846 297.527 367.608 297.527C369.865 297.527 372.856 298.056 376.583 299.115L377.456 299.368V293.204L375.915 292.903C372.557 292.277 369.738 291.963 367.457 291.963C363.072 291.963 359.62 292.985 357.102 295.027C354.583 297.069 353.324 299.87 353.324 303.428C353.324 308.415 356.519 312.236 362.909 314.892L367.509 316.853C371.258 318.488 373.133 320.541 373.133 323.012C373.133 324.741 372.431 326.181 371.028 327.334C369.625 328.487 367.858 329.063 365.728 329.063C362.145 329.063 357.935 327.86 353.098 325.455V332.258ZM406.098 334.626C402.339 334.626 399.407 333.549 397.302 331.394C395.197 329.239 394.145 326.244 394.145 322.41V298.429H389.033V292.866H394.145V285.461L401.55 284.746V292.866H412.225V298.429H401.55V321.057C401.55 326.394 403.855 329.063 408.466 329.063C409.443 329.063 410.634 328.9 412.037 328.575V333.687C409.757 334.313 407.777 334.626 406.098 334.626ZM424.629 328.819C428.112 332.691 432.773 334.626 438.612 334.626C444.752 334.626 449.575 332.722 453.084 328.913C456.592 325.104 458.346 319.867 458.346 313.201C458.346 306.686 456.598 301.517 453.102 297.696C449.607 293.874 444.864 291.963 438.875 291.963C432.886 291.963 428.144 293.874 424.648 297.696C421.152 301.517 419.404 306.711 419.404 313.276C419.404 319.766 421.146 324.947 424.629 328.819ZM438.725 329.063C446.568 329.063 450.49 323.776 450.49 313.201C450.49 302.751 446.618 297.527 438.875 297.527C431.157 297.527 427.298 302.776 427.298 313.276C427.298 323.801 431.107 329.063 438.725 329.063ZM477.328 292.866H469.923V333.687H477.328V306.773C480.486 301.21 484.407 298.429 489.093 298.429C490.071 298.429 491.198 298.642 492.476 299.068V292.151C491.649 292.026 490.86 291.963 490.108 291.963C484.52 291.963 480.26 294.82 477.328 300.534V292.866ZM531.343 332.371C526.381 333.875 522.134 334.626 518.6 334.626C512.586 334.626 507.681 332.628 503.884 328.631C500.088 324.634 498.19 319.453 498.19 313.088C498.19 306.899 499.862 301.824 503.208 297.865C506.553 293.906 510.832 291.926 516.044 291.926C520.981 291.926 524.796 293.68 527.49 297.188C530.184 300.697 531.531 305.683 531.531 312.148L531.493 314.441H505.745C506.823 324.139 511.571 328.988 519.991 328.988C523.073 328.988 526.857 328.161 531.343 326.507V332.371ZM515.593 297.489C509.905 297.489 506.735 301.285 506.083 308.878H524.088C524.088 301.285 521.257 297.489 515.593 297.489Z" fill="#295D96"/>
</g>
<path id="Fill 1" fill-rule="evenodd" clip-rule="evenodd" d="M273.341 269.632C271.247 269.205 269.366 268.302 267.657 267.038C264.823 264.942 262.917 262.19 261.922 258.809C261.892 258.706 261.882 258.598 261.862 258.493C262.479 256.49 263.577 254.824 265.284 253.578C266.632 252.594 268.126 252.017 269.79 251.829C271.499 251.636 273.1 251.92 274.62 252.719C275.429 253.144 276.104 253.737 276.752 254.367C276.753 254.387 276.756 254.406 276.762 254.425C276.737 254.434 276.714 254.448 276.693 254.465C276.151 254.576 275.646 254.77 275.168 255.058C274.266 255.604 273.451 256.249 272.782 257.064C270.97 259.273 270.252 261.784 270.726 264.617C271.054 266.573 271.98 268.216 273.341 269.632" fill="#35B34A"/>
<g id="Object">
<mask id="mask0" mask-type="alpha" maskUnits="userSpaceOnUse" x="276" y="251" width="17" height="15">
<path id="Clip 13" fill-rule="evenodd" clip-rule="evenodd" d="M276.469 251.575H292.362V265.809H276.469V251.575Z" fill="white"/>
</mask>
<g mask="url(#mask0)">
<path id="Fill 12" fill-rule="evenodd" clip-rule="evenodd" d="M287.668 265.612C286.956 265.716 286.248 265.832 285.523 265.806C283.336 265.727 281.405 264.998 279.731 263.58C278.012 262.124 277.008 260.262 276.596 258.072C276.369 256.87 276.476 255.663 276.692 254.466C276.714 254.448 276.737 254.434 276.762 254.425C277.548 255.196 278.408 255.875 279.398 256.358C280.93 257.105 282.567 257.455 284.263 257.29C286.135 257.108 287.834 256.447 289.319 255.243C290.552 254.243 291.42 252.993 292.081 251.575C292.995 256.72 291.67 261.225 288.209 265.117C288.047 265.299 287.849 265.448 287.668 265.612" fill="#A960A6"/>
</g>
</g>
<path id="Fill 3" fill-rule="evenodd" clip-rule="evenodd" d="M276.762 254.425C276.756 254.406 276.753 254.387 276.752 254.367L276.777 254.354C276.968 254.376 277.141 254.299 277.313 254.24C279.136 253.622 280.647 252.549 281.792 251.01C283.472 248.754 284.018 246.235 283.429 243.471C283.143 242.125 282.526 240.946 281.742 239.837C283.161 240.225 284.44 240.908 285.637 241.74C288.975 244.061 291.084 247.22 292.007 251.176C292.037 251.308 292.056 251.442 292.081 251.575C291.42 252.994 290.551 254.243 289.319 255.243C287.834 256.447 286.135 257.108 284.263 257.29C282.567 257.455 280.93 257.105 279.398 256.358C278.408 255.875 277.548 255.196 276.762 254.425" fill="#EE4345"/>
<path id="Path 2" d="M299.873 247.541C299.873 247.541 408.946 233.874 459.48 287.19" stroke="#295D96" stroke-width="2" stroke-linecap="round" stroke-linejoin="round" stroke-dasharray="8 8"/>
<path id="Fill 5" fill-rule="evenodd" clip-rule="evenodd" d="M276.752 254.366C276.104 253.736 275.429 253.144 274.62 252.719C273.101 251.92 271.499 251.636 269.79 251.829C268.126 252.016 266.632 252.593 265.284 253.578C263.577 254.824 262.479 256.49 261.862 258.493C261.364 256.857 261.235 255.176 261.356 253.486C261.587 250.26 262.704 247.361 264.734 244.829C265.271 244.159 265.832 243.507 266.518 242.979C267.234 242.856 267.962 242.832 268.674 242.913C270.215 243.088 271.653 243.589 272.953 244.456C274.31 245.361 275.357 246.554 276.07 248.009C277.06 250.029 277.318 252.152 276.777 254.353L276.752 254.366Z" fill="#FFCF02"/>
<path id="Fill 7" fill-rule="evenodd" clip-rule="evenodd" d="M276.777 254.354C277.318 252.152 277.06 250.029 276.07 248.009C275.357 246.554 274.31 245.361 272.953 244.456C271.653 243.589 270.215 243.089 268.674 242.914C267.962 242.833 267.234 242.857 266.519 242.98C268.613 241.047 271.083 239.854 273.863 239.299C276.359 238.801 278.836 238.929 281.28 239.654C281.439 239.701 281.611 239.718 281.742 239.837C282.526 240.946 283.143 242.125 283.429 243.471C284.018 246.235 283.472 248.754 281.792 251.01C280.647 252.549 279.136 253.622 277.313 254.24C277.141 254.299 276.968 254.376 276.777 254.354" fill="#F89E1C"/>
<g id="Object_2">
<mask id="mask1" mask-type="alpha" maskUnits="userSpaceOnUse" x="270" y="254" width="18" height="17">
<path id="Clip 10" fill-rule="evenodd" clip-rule="evenodd" d="M270.584 254.465H287.668V270.056H270.584V254.465Z" fill="white"/>
</mask>
<g mask="url(#mask1)">
<path id="Fill 9" fill-rule="evenodd" clip-rule="evenodd" d="M273.341 269.632C271.98 268.216 271.054 266.573 270.727 264.617C270.252 261.783 270.97 259.273 272.782 257.064C273.451 256.248 274.266 255.604 275.168 255.058C275.646 254.769 276.151 254.576 276.692 254.465C276.476 255.663 276.369 256.869 276.596 258.072C277.008 260.261 278.012 262.123 279.731 263.579C281.405 264.998 283.336 265.727 285.523 265.805C286.248 265.831 286.956 265.716 287.668 265.612C286.636 266.733 285.395 267.576 284.06 268.281C281.53 269.617 278.821 270.18 275.971 270.033C275.086 269.987 274.198 269.896 273.341 269.632" fill="#2594D1"/>
</g>
</g>
</g>
</g>
<defs>
<filter id="filter0_i" x="124" y="274.334" width="407.531" height="64.2919" filterUnits="userSpaceOnUse" color-interpolation-filters="sRGB">
<feFlood flood-opacity="0" result="BackgroundImageFix"/>
<feBlend mode="normal" in="SourceGraphic" in2="BackgroundImageFix" result="shape"/>
<feColorMatrix in="SourceAlpha" type="matrix" values="0 0 0 0 0 0 0 0 0 0 0 0 0 0 0 0 0 0 127 0" result="hardAlpha"/>
<feOffset dy="4"/>
<feGaussianBlur stdDeviation="2"/>
<feComposite in2="hardAlpha" operator="arithmetic" k2="-1" k3="1"/>
<feColorMatrix type="matrix" values="0 0 0 0 0 0 0 0 0 0 0 0 0 0 0 0 0 0 0.25 0"/>
<feBlend mode="normal" in2="shape" result="effect1_innerShadow"/>
</filter>
<clipPath id="clip0">
<rect width="1200" height="600" fill="white"/>
</clipPath>
</defs>
</svg>
