<?xml version="1.0" encoding="UTF-8"?>
<svg width="1200px" height="600px" viewBox="0 0 1200 600" version="1.1" xmlns="http://www.w3.org/2000/svg" xmlns:xlink="http://www.w3.org/1999/xlink">
    <title>travel_store_hero</title>
    <defs>
        <polygon id="path-1" points="190.415472 20.0900862 212.607457 20.0900862 212.607457 40.3425582 190.415472 40.3425582"></polygon>
        <polygon id="path-3" points="198.060817 16.3353462 218.705137 16.3353462 218.705137 34.8258256 198.060817 34.8258256"></polygon>
    </defs>
    <g id="travel_store_hero" stroke="none" stroke-width="1" fill="none" fill-rule="evenodd">
        <rect fill="#E2E6E7" x="0" y="0" width="1200" height="600"></rect>
        <g id="undraw_travelers_qlt1" transform="translate(865.000000, 300.000000)">
            <ellipse id="Oval" fill="#3F3D56" fill-rule="nonzero" cx="93.5" cy="17" rx="17.5" ry="14"></ellipse>
            <circle id="Oval" fill="#3F3D56" fill-rule="nonzero" cx="128.5" cy="63.5" r="25.5"></circle>
            <circle id="Oval" fill="#3F3D56" fill-rule="nonzero" cx="209.5" cy="289.5" r="6.5"></circle>
            <circle id="Oval" fill="#3F3D56" fill-rule="nonzero" cx="176.5" cy="289.5" r="6.5"></circle>
            <rect id="Rectangle" fill="#3F3D56" fill-rule="nonzero" x="183" y="136" width="3" height="78"></rect>
            <rect id="Rectangle" fill="#3F3D56" fill-rule="nonzero" x="199" y="136" width="3" height="78"></rect>
            <path d="M183.71826,138 L183,135.813611 C183,135.813611 190.887304,126.337729 202,133.97631 L201.28174,137.260486 L198.413219,137.260486 C198.413219,137.260486 193.755825,133.287322 185.868521,137.825456 L183.71826,138 Z" id="Path" fill="#3F3D56" fill-rule="nonzero"></path>
            <rect id="Rectangle" fill="#FBBEBE" fill-rule="nonzero" x="111" y="125" width="25" height="32"></rect>
            <rect id="Rectangle" fill="#FBBEBE" fill-rule="nonzero" x="146" y="115" width="8" height="16"></rect>
            <path d="M114.411017,282.718979 L111.207437,292.409369 C111.207437,292.409369 109.780633,299.585593 114.411017,299.942822 C119.041402,300.30005 126.525396,298.866614 126.525396,298.866614 C126.525396,298.866614 127.593256,295.637991 126.525396,292.766597 C125.457536,289.895203 122.253955,282 122.253955,282 L114.411017,282.718979 Z" id="Path" fill="#3C354C" fill-rule="nonzero"></path>
            <path d="M138.55631,283 C138.55631,283 133.596709,295.340747 137.493857,297.455288 C141.391005,299.569829 146.707733,297.806231 150.957543,299.569829 C155.207354,301.333428 166.898798,297.104345 166.898798,297.104345 C166.898798,297.104345 168.318377,293.226206 160.524082,292.168935 C160.524082,292.168935 152.042316,285.820869 152.042316,284.412656 C152.042316,283.004442 147.082716,283 147.082716,283 L138.55631,283 Z" id="Path" fill="#3C354C" fill-rule="nonzero"></path>
            <path d="M137.806787,141.691293 C137.806787,141.691293 108.798104,147.707769 105.262852,145.937168 C101.7276,144.166567 98.1878896,170.020915 98.1878896,170.020915 C98.1878896,170.020915 96.7702223,185.595071 101.723142,206.476571 C106.676061,227.358072 101.723142,237.624884 101.723142,237.624884 C101.723142,237.624884 102.431975,257.444915 107.741541,266.650258 C113.051106,275.855601 113.046648,284.347352 113.046648,284.347352 C113.046648,284.347352 123.300216,285.408821 123.66132,282.929087 C123.66132,282.929087 119.412776,273.019071 120.12161,263.818188 C120.830444,254.617305 117.999567,236.915751 117.999567,236.915751 C117.999567,236.915751 122.600299,214.615986 121.891465,206.142075 C121.182632,197.668164 124.370154,179.596434 126.135551,182.780841 C127.900948,185.965247 132.506138,201.539403 132.506138,204.72827 C132.506138,207.917136 134.289367,229.146513 135.337014,230.564778 C136.384661,231.983043 136.04139,236.228918 135.689202,238.351856 C135.337014,240.474794 135.337014,256.401286 137.102411,264.897497 C138.867808,273.393707 137.459057,282.946927 137.811245,284.365192 C138.163433,285.783457 148.425917,284.717528 148.778105,282.237794 C148.778105,282.237794 150.195772,267.020434 150.904606,264.897497 C151.61344,262.774559 151.947795,235.836442 151.947795,235.836442 C151.947795,235.836442 152.652171,214.954942 153.361004,212.832004 C154.069838,210.709067 155.144234,165.048067 150.530128,159.758563 C145.916022,154.469058 147.699251,141 147.699251,141 L137.806787,141.691293 Z" id="Path" fill="#3F3D56" fill-rule="nonzero"></path>
            <path d="M113.248516,81.0368599 C111.934191,83.5100494 110.610924,86.0055601 109.788353,88.6885689 C108.965782,91.3715778 108.67967,94.2777986 109.453066,96.9742002 C110.00639,98.658419 110.775749,100.264011 111.741959,101.750938 C112.510455,103.171971 113.485131,104.471727 114.63437,105.608042 C117.316667,108.054446 121.214939,108.545513 124.836041,108.929437 C125.457112,109.033064 126.09192,109.022474 126.709178,108.898188 C127.204275,108.754562 127.661989,108.504695 128.050327,108.166052 C129.637353,106.82678 130.357103,104.782158 130.938267,102.808963 C132.320615,98.1162836 133.310503,93.3171163 133.897735,88.4608927 C134.034088,87.6930809 134.034088,86.9072992 133.897735,86.1394874 C133.5848,84.8002151 132.511881,83.7600469 131.734015,82.6082728 C130.802322,81.2319669 130.270075,79.6250995 130.196165,77.9654622 C130.164871,77.1574345 130.196165,76.2645864 129.686528,75.6485211 C129.347499,75.3131691 128.936158,75.0596856 128.483965,74.9074571 C126.369421,74.0146089 124.259347,73.1217607 122.140332,72.2646265 C120.86177,71.737846 118.563936,70.3360744 117.222787,71.3717783 C116.07387,72.2646265 116.628211,74.3360343 116.136456,75.5770932 C115.380943,77.4610029 114.196261,79.2511636 113.248516,81.0368599 Z" id="Path" fill="#FBBEBE" fill-rule="nonzero"></path>
            <path d="M113.248516,81.0368599 C111.934191,83.5100494 110.610924,86.0055601 109.788353,88.6885689 C108.965782,91.3715778 108.67967,94.2777986 109.453066,96.9742002 C110.00639,98.658419 110.775749,100.264011 111.741959,101.750938 C112.510455,103.171971 113.485131,104.471727 114.63437,105.608042 C117.316667,108.054446 121.214939,108.545513 124.836041,108.929437 C125.457112,109.033064 126.09192,109.022474 126.709178,108.898188 C127.204275,108.754562 127.661989,108.504695 128.050327,108.166052 C129.637353,106.82678 130.357103,104.782158 130.938267,102.808963 C132.320615,98.1162836 133.310503,93.3171163 133.897735,88.4608927 C134.034088,87.6930809 134.034088,86.9072992 133.897735,86.1394874 C133.5848,84.8002151 132.511881,83.7600469 131.734015,82.6082728 C130.802322,81.2319669 130.270075,79.6250995 130.196165,77.9654622 C130.164871,77.1574345 130.196165,76.2645864 129.686528,75.6485211 C129.347499,75.3131691 128.936158,75.0596856 128.483965,74.9074571 C126.369421,74.0146089 124.259347,73.1217607 122.140332,72.2646265 C120.86177,71.737846 118.563936,70.3360744 117.222787,71.3717783 C116.07387,72.2646265 116.628211,74.3360343 116.136456,75.5770932 C115.380943,77.4610029 114.196261,79.2511636 113.248516,81.0368599 Z" id="Path" fill="#000000" fill-rule="nonzero" opacity="0.1"></path>
            <circle id="Oval" fill="#FBBEBE" fill-rule="nonzero" cx="127.5" cy="69.5" r="12.5"></circle>
            <path d="M132.241029,100.749727 C129.865646,101.584479 127.413493,102.304398 124.889084,102.392732 C122.997999,102.411245 121.111154,102.214109 119.266743,101.805313 C115.455913,101.064007 111.713319,100.019675 108.076253,98.6827212 C107.299512,100.179975 107.091778,101.88923 107.024039,103.567568 C106.829854,108.642333 107.864004,113.677347 108.261406,118.743278 C108.762675,125.182797 108.261406,131.763649 109.954882,138 C110.052664,136.940168 110.474383,135.933666 111.165153,135.111492 C111.740876,134.504797 112.428887,134.010246 113.192809,133.653988 C116.610568,131.926071 120.546365,131.446867 124.29298,132.302484 C126.465146,132.805985 128.772789,133.746738 130.832056,132.903152 C132.060391,132.395234 132.950031,131.326398 133.631937,130.204561 C134.789647,128.180323 135.615563,125.991018 136.079575,123.716459 C137.434356,117.868776 137.614993,111.822342 137.777567,105.824492 C137.822726,104.221237 138.527212,99.4556401 137.167915,98.2808034 C136.215053,97.4637177 135.935065,98.6297211 135.248642,99.2392228 C134.355707,99.9286536 133.334209,100.441677 132.241029,100.749727 L132.241029,100.749727 Z" id="Path" fill="#F2F2F2" fill-rule="nonzero"></path>
            <path d="M114.097038,79.4027163 C113.274337,78.7581215 112.055849,78.9581682 111.148655,79.5049624 C110.24146,80.0517566 109.507699,80.8074884 108.587163,81.3053823 C106.034565,82.687927 102.605902,81.6743573 100.182269,83.2836215 C97.9053874,84.7995307 97.5140484,87.9202586 97.3361671,90.6497841 C96.8914637,97.584735 96.5090188,104.568586 94.841381,111.316827 C94.3966776,113.095019 93.8630336,114.917667 94.0320208,116.749205 C94.1650971,117.795583 94.4126482,118.824201 94.7702285,119.816587 L96.9581692,126.649292 C97.9720929,129.823366 98.9993578,133.04634 99.1060866,136.376005 C99.2128154,139.705671 98.4301374,142.870854 97.6519065,146.049373 C96.1138458,152.311323 95.1126027,158.692948 94.6590526,165.124933 C94.5211946,167.254319 94.4633831,169.47706 95.3261077,171.428626 C96.2155145,173.469102 98.0210103,174.985011 99.9243408,176.136391 C101.827671,177.28777 103.895542,178.176867 105.758849,179.399374 C109.498805,181.857725 112.500553,185.729739 116.876434,186.738864 C118.882047,187.183412 120.981047,187.005593 123,186.61439 C123,186.61439 121.857112,134.726732 118.677483,127.316114 C115.497854,119.905497 112.678434,87.8046761 112.678434,86.7466515 C112.678434,85.6886269 114.097038,79.4027163 114.097038,79.4027163 Z" id="Path" fill="#FD8D5F" fill-rule="nonzero"></path>
            <path d="M132.113522,81 C132.113522,81 148.719545,81 151.178386,89.7905517 C153.637227,98.5811034 144.160075,112.998671 144.160075,112.998671 C144.160075,112.998671 148.020809,141.47935 149.77207,144.292858 C151.523331,147.106366 150.829018,152.711229 150.829018,152.711229 C152.100538,156.569345 152.341441,160.693808 151.527753,164.674178 C150.12586,171.001248 144.85881,182.255281 144.85881,182.255281 C144.85881,182.255281 137.840499,182.255281 136.084816,186.473328 C134.329132,190.691375 133.979765,168.18774 133.979765,168.18774 C133.979765,168.18774 127.664611,127.04849 128.013979,124.589439 C128.363347,122.130389 130.11903,101.731346 130.822188,96.10433 C131.525346,90.4773135 133.055488,83.1090235 132.113522,81 Z" id="Path" fill="#FD8D5F" fill-rule="nonzero"></path>
            <path d="M144.016542,86 C144.016542,86 152.374974,88.4787399 152.374974,91.3147756 C152.374974,94.1508113 154.933771,109.389479 154.933771,114.351425 C154.933771,119.313371 153.844336,120.023496 154.933771,121.796577 C156.023205,123.569658 143.311614,122.859532 143.311614,122.859532 L141,102.658919 L144.016542,86 Z" id="Path" fill="#FD8D5F" fill-rule="nonzero"></path>
            <path d="M96.4080053,111.626535 C96.4080053,111.626535 112.273604,112.718042 115.094056,110.530443 C117.914508,108.342844 129.898099,113.442656 130.955213,116.354868 C132.012328,119.267081 114.0325,119.629388 111.21649,119.629388 C108.400479,119.629388 95,124 95,124 L96.4080053,111.626535 Z" id="Path" fill="#A0616A" fill-rule="nonzero"></path>
            <path d="M63.6412917,276.56531 C63.6412917,276.56531 56.2755866,295.536195 60.1022142,297.794633 C63.9288417,300.053072 104.278749,298.445064 104.278749,298.445064 C104.278749,298.445064 110.998573,294.199199 103.318774,291.254195 C103.318774,291.254195 96.9130441,290.92898 92.754628,288.313708 C88.596212,285.698436 83.7874904,280.797624 83.7874904,280.797624 C83.7874904,280.797624 83.4689734,273.606755 80.9075661,275.241864 C79.3582556,276.283819 78.3122693,277.945672 78.0276418,279.817461 L63.6412917,276.56531 Z" id="Path" fill="#3F3D56" fill-rule="nonzero"></path>
            <path d="M63.6412917,276.56531 C63.6412917,276.56531 56.2755866,295.536195 60.1022142,297.794633 C63.9288417,300.053072 104.278749,298.445064 104.278749,298.445064 C104.278749,298.445064 110.998573,294.199199 103.318774,291.254195 C103.318774,291.254195 96.9130441,290.92898 92.754628,288.313708 C88.596212,285.698436 83.7874904,280.797624 83.7874904,280.797624 C83.7874904,280.797624 83.4689734,273.606755 80.9075661,275.241864 C79.3582556,276.283819 78.3122693,277.945672 78.0276418,279.817461 L63.6412917,276.56531 Z" id="Path" fill="#000000" fill-rule="nonzero" opacity="0.1"></path>
            <path d="M52.1121812,281.687851 C52.1121812,281.687851 43.9854904,302.188695 48.2247285,304.675536 C52.4639667,307.162378 96.9937793,305.384152 96.9937793,305.384152 C96.9937793,305.384152 104.416899,300.789289 95.9339698,297.602745 C95.9339698,297.602745 88.8670885,297.250666 84.2716118,294.420658 C79.6761352,291.59065 74.3770875,286.273801 74.3770875,286.273801 C74.3770875,286.273801 74.025302,278.492394 71.1976589,280.261706 C69.4865261,281.388514 68.3315337,283.187211 68.0182302,285.213105 L52.1121812,281.687851 Z" id="Path" fill="#3F3D56" fill-rule="nonzero"></path>
            <path d="M94,151.79764 L89.051605,196.207737 C89.051605,196.207737 87.2700046,217.355825 81.9831055,221.934506 C81.9831055,221.934506 81.9831055,228.631549 80.2015051,230.745469 L77.7250806,258.5906 C77.7250806,258.5906 81.2615574,268.804922 80.9096913,270.581326 C80.5578252,272.35773 82.3216096,277.980048 81.9697435,278.686169 C81.6178774,279.392289 65,278.686169 65,278.686169 L68.5364767,221.943388 L79.493319,143 L94,151.79764 Z" id="Path" fill="#3C354C" fill-rule="nonzero"></path>
            <path d="M94,151.79764 L89.051605,196.207737 C89.051605,196.207737 87.2700046,217.355825 81.9831055,221.934506 C81.9831055,221.934506 81.9831055,228.631549 80.2015051,230.745469 L77.7250806,258.5906 C77.7250806,258.5906 81.2615574,268.804922 80.9096913,270.581326 C80.5578252,272.35773 82.3216096,277.980048 81.9697435,278.686169 C81.6178774,279.392289 65,278.686169 65,278.686169 L68.5364767,221.943388 L79.493319,143 L94,151.79764 Z" id="Path" fill="#000000" fill-rule="nonzero" opacity="0.1"></path>
            <path d="M85,151.189831 C85,151.189831 81.0620686,187.531236 79.2712796,195.293909 C78.1454231,200.405837 77.4275136,205.596826 77.1241372,210.819256 C77.1241372,210.819256 76.7677837,222.112034 73.5425592,225.28646 C71.6402289,227.14366 70.604664,229.695365 70.6827098,232.333331 C70.6827098,232.333331 67.4574853,267.967825 69.2482743,272.20484 C71.0390633,276.441855 72.8298523,279.967513 71.0525957,282.786262 C69.2753391,285.60501 49.5721496,285.609456 49.5721496,283.493172 C49.5721496,281.376888 49.5721496,279.611835 48.4985784,278.553693 C47.4250072,277.495551 48.4985784,270.79102 48.4985784,270.79102 C48.4985784,270.79102 44.2042935,239.389095 48.1422249,230.217047 C52.0801564,221.044999 53.8709453,195.983035 53.8709453,195.983035 C53.8709453,195.983035 51.0065851,167.404304 47.4250072,162.816058 C43.8434292,158.227811 48.1422249,142 48.1422249,142 L85,151.189831 Z" id="Path" fill="#3C354C" fill-rule="nonzero"></path>
            <path d="M75,38.0703321 C75.4176123,38.9967157 76.4207896,39.5128437 77.3331816,40.0025036 C82.621424,42.8345905 87.0472063,46.9415577 91.4048996,51 C90.317217,47.4141258 90.5499715,43.5719202 92.0630929,40.1348441 C92.580569,38.9658363 93.2659978,37.7041901 92.8937782,36.482246 C92.6168831,35.5999759 91.8315904,34.9294507 91.0780726,34.3559752 C89.2987228,33.0186619 87.4388598,31.7857048 85.5083959,30.6636749 C84.1466167,29.8784546 81.3867443,27.7918858 79.8388553,28.0168647 C79.7571485,30.0504972 79.7162952,31.8679736 78.7993639,33.7516202 C78.5724007,34.2192233 75.1588742,38.4232402 75,38.0703321 Z" id="Path" fill="#A0616A" fill-rule="nonzero"></path>
            <circle id="Oval" fill="#A0616A" fill-rule="nonzero" cx="93.5" cy="27.5" r="14.5"></circle>
            <path d="M93.4567843,61.8028191 C93.4567843,61.8028191 95.9238407,49.4316211 88.869393,45.1921033 C81.8149453,40.9525854 73.7025527,36.0049969 73.7025527,36.0049969 C73.7025527,36.0049969 71.2310511,35.6487349 70.1731062,40.9525854 C70.1731062,40.9525854 50.067708,44.8402945 47.9473731,63.9225781 C45.8270381,83.0048616 49.3609297,110.926896 49.3609297,110.926896 C49.3609297,110.926896 46.187095,135.31303 42.306482,148.387846 C42.306482,148.387846 39.1282021,151.215675 53.2415427,146.976157 C67.3548833,142.73664 92.0432277,159 92.0432277,159 C92.0432277,159 94.5147292,156.523979 94.5147292,154.756029 C94.5147292,152.988079 97.3373973,142.732186 97.3373973,142.732186 C97.3373973,142.732186 99.8044537,99.2637687 100.862399,94.3161802 C101.920344,89.3685916 96.630619,62.5108899 93.4567843,61.8028191 Z" id="Path" fill="#3F3D56" fill-rule="nonzero"></path>
            <path d="M72.0764369,87 C72.0764369,87 91.344751,75.5786817 87.4902051,60.9468038 C83.6356592,46.3149259 75.2289521,41.6789499 75.2289521,41.6789499 C75.2289521,41.6789499 61.5636376,37.0384772 50,52.0210885 L50.7020307,58.8019342 C50.7020307,58.8019342 63.3165067,32.7532346 76.9818212,49.1657589 C90.6471356,65.5782833 72.0764369,87 72.0764369,87 Z" id="Path" fill="#FFFFFF" fill-rule="nonzero"></path>
            <path d="M51,52.1703547 L51,110.052337 L47.3849975,129.797063 L45.695619,139 L33.3306164,139 L16,132.643791 L16,89.9428739 C16,89.9428739 30.5001274,61.3466038 35.1002292,56.0534693 C39.7003311,50.7603348 51,52.1703547 51,52.1703547 Z" id="Path" fill="#FFFFFF" fill-rule="nonzero"></path>
            <polygon id="Path" fill="#000000" fill-rule="nonzero" opacity="0.1" points="47 130 45.3364566 139 33.1107325 139 16 132.788304"></polygon>
            <polygon id="Path" fill="#FFFFFF" fill-rule="nonzero" points="47 117.89261 77 81 50.4857143 119.300488 47.6945055 120"></polygon>
            <path d="M89.8124799,29.0546838 C90.6341772,28.5037835 91.6646299,28.4024178 92.6506666,28.3054594 C93.6367034,28.2085009 94.6671561,28.0762848 95.4533205,27.4769053 C96.8168938,26.4368055 96.9190508,24.4271211 97.9184123,23.0388523 C99.3619345,21.0247608 102.244537,20.7823646 104.736279,20.8793231 C106.25975,20.9410239 107.898703,21.0335752 109.177885,20.2182427 C110.457068,19.4029102 111.087776,17.7942813 111.531937,16.3090541 C112.060488,14.5461731 112.39805,12.3954582 111.087776,11.0909263 C110.199455,10.1830426 108.760374,10.0023472 107.756571,9.20464359 C106.752768,8.40693993 106.286399,7.03629995 105.722315,5.84194806 C105.07832,4.38293364 104.059869,3.11707131 102.768647,2.17074835 C100.876522,0.848587595 98.4602883,0.575341038 96.1550944,0.597377051 C93.8499005,0.619413064 91.5358233,0.923510038 89.2483959,0.641449076 C87.3740378,0.412274545 85.5041214,-0.204733809 83.6386465,0.0685127474 C81.2579453,0.416681747 79.2903135,2.20159877 78.1132877,4.28620557 C76.9362619,6.37081237 76.4388019,8.75070173 75.9502252,11.0865191 L74.6177432,17.4461123 C74.2091153,19.4205391 73.7960459,21.443445 74.1114,23.4310934 C74.7687578,27.5562349 78.4464082,30.8351936 78.6995798,35 C79.190759,32.6627414 80.832937,30.7269322 83.0701208,29.8479802 C83.3456911,29.714423 83.6582187,29.6756596 83.9584422,29.7378002 C84.3226539,29.8567946 84.5358511,30.2181853 84.7668146,30.5222822 C85.3708731,31.3199859 87.2674392,32.5275594 88.3201,31.9634375 C89.3239032,31.4566092 88.6043629,29.8700163 89.8124799,29.0546838 Z" id="Path" fill="#3F3D56" fill-rule="nonzero"></path>
            <path d="M182.582767,209.082999 C182.582767,209.082999 173.039157,209.433058 171.627433,220.333605 C170.215709,231.234153 171.627433,281.872958 171.627433,281.872958 C171.627433,281.872958 182.582767,289.959747 196.014185,288.905141 C209.445603,287.850535 231,283.98217 231,283.98217 L231,224.605202 C231,215.742968 223.571749,208.515816 214.67388,209.025395 C214.464571,209.025395 214.228541,209.051981 214.037046,209.074137 L182.582767,209.082999 Z" id="Path" fill="#3C354C" fill-rule="nonzero"></path>
            <circle id="Oval" fill="#3F3D56" fill-rule="nonzero" cx="196.5" cy="290.5" r="6.5"></circle>
            <circle id="Oval" fill="#3F3D56" fill-rule="nonzero" cx="230.5" cy="288.5" r="6.5"></circle>
            <path d="M53.2630169,95.6682063 C53.2630169,95.6682063 50.7853285,111.330941 61.0392153,109.908687 C61.0392153,109.908687 66.3466378,109.195317 67.0551854,109.908687 C67.763733,110.622057 93.9309748,105.991882 97.4692565,102.075077 C97.4692565,102.075077 101.71163,100.652823 103.832816,102.788447 C105.954003,104.92407 127.17478,107.059694 120.815677,100.648337 C114.456574,94.2369796 104.550276,92.8147261 104.550276,92.8147261 L91.1101533,93.5236096 C91.1101533,93.5236096 84.0380462,95.6637197 79.7956732,93.5236096 C75.5533002,91.3834995 63.5169037,92.1237891 63.5169037,92.1237891 L53.2630169,95.6682063 Z" id="Path" fill="#A0616A" fill-rule="nonzero"></path>
            <path d="M67.9609199,46 C67.9609199,46 52,47.7790956 52,70.7071905 L52,100 C52,100 60.8676743,96.1171238 62.6421031,96.4684952 C64.4165319,96.8198666 71.5097775,91.8784285 71.5097775,91.8784285 C71.5097775,91.8784285 79.6667864,72.8243143 78.956121,67.5315048 C78.2454555,62.2386953 78.603023,46.7027428 67.9609199,46 Z" id="Path" fill="#3F3D56" fill-rule="nonzero"></path>
            <polygon id="Path" fill="#3F3D56" fill-rule="nonzero" points="141.118864 103 125 113.971922 135.029716 115 149 103.686825"></polygon>
            <path d="M152.643189,119.958795 C152.643189,119.958795 156.479758,131.967442 151.25007,135.489978 C146.020383,139.012515 137.296913,123.134415 137.296913,123.134415 C137.296913,123.134415 127.87908,111.84184 134.1591,109.368948 C140.43912,106.896056 143.001227,117.66381 143.001227,117.66381 L151.236886,124.900131 L152.643189,119.958795 Z" id="Path" fill="#FBBEBE" fill-rule="nonzero"></path>
            <ellipse id="Oval" fill="#3F3D56" fill-rule="nonzero" cx="129" cy="60" rx="14" ry="9"></ellipse>
            <ellipse id="Oval" fill="#3F3D56" fill-rule="nonzero" cx="131.5" cy="38" rx="10.5" ry="10"></ellipse>
            <ellipse id="Oval" fill="#3F3D56" fill-rule="nonzero" cx="93.5" cy="19" rx="13.5" ry="7"></ellipse>
            <ellipse id="Oval" fill="#3F3D56" fill-rule="nonzero" cx="80" cy="20" rx="5" ry="12"></ellipse>
            <path d="M9.55846746,299 C10.8610749,296.547478 9.38478646,293.543027 7.7000808,291.353116 C6.01537514,289.163205 3.95725534,286.902077 4.00067559,284.102374 C4.06580596,280.096439 8.21243974,277.732938 11.5254047,275.609792 C13.9843288,274.034094 16.2522374,272.164952 18.2815955,270.041543 C19.133214,269.226103 19.8360586,268.261429 20.3570834,267.192878 C21.0431233,265.626113 21.0257552,263.845697 20.982335,262.127596 C20.8376008,256.412463 20.5611585,250.703264 20.1530082,245" id="Path" stroke="#3F3D56" stroke-width="2"></path>
            <path d="M26.9938278,244.728988 C26.90122,242.681717 25.7699609,240.823337 23.9938417,239.800748 L22.6481336,242.466283 L22.6909905,239.243642 C20.1881342,238.50849 17.4970229,239.474641 16.0334065,241.633819 C14.5697901,243.792997 14.6690726,246.650402 16.2790232,248.7028 C17.8889739,250.755198 20.6406542,251.532259 23.0864502,250.625184 C25.5322462,249.718109 27.1116762,247.334764 26.9938278,244.728988 Z" id="Path" fill="#57B894" fill-rule="nonzero"></path>
            <path d="M15.3314705,286.750681 C14.0312442,289.270722 11.1441272,290.536288 8.4097607,289.78481 C5.67539416,289.033331 3.84060009,286.470054 4.01093917,283.639489 C4.18127825,280.808924 6.31022675,278.484167 9.11498032,278.066008 C11.9197339,277.647848 14.6342461,279.250496 15.6228794,281.90827 L11.864562,284.963703 L16,284.003791 C16.0009896,284.959821 15.7716803,285.902024 15.3314705,286.750681 L15.3314705,286.750681 Z" id="Path" fill="#57B894" fill-rule="nonzero"></path>
            <path d="M12.2912183,274.992858 C10.6974804,275.070591 9.1384149,274.511262 7.95908352,273.438663 C6.77975215,272.366064 6.07741279,270.868652 6.00751141,269.277843 C5.96008452,268.339193 6.13776673,267.402796 6.52579943,266.546433 C7.25440737,264.923277 8.66602632,263.705537 10.3808343,263.220867 L10.3508507,265.695807 L11.7086797,263.007142 L11.7086797,263.007142 C13.3024175,262.929409 14.861483,263.488738 16.0408144,264.561337 C17.2201458,265.633936 17.9224851,267.131348 17.9923865,268.722157 C18.0275768,269.414408 17.9405863,270.107444 17.7353842,270.769646 C16.9942678,273.181934 14.8166272,274.871199 12.2912183,274.992858 L12.2912183,274.992858 Z" id="Path" fill="#57B894" fill-rule="nonzero"></path>
            <path d="M27.2312369,264.995923 C24.695881,265.088951 22.3750667,263.582643 21.431445,261.231609 C20.4878233,258.880576 21.1246498,256.191228 23.0228953,254.51084 C24.9211409,252.830451 27.6719248,252.520977 29.8971956,253.737453 L28.8325293,256.651713 L31.0219639,254.551732 C32.8324193,256.187027 33.4720028,258.753185 32.6402724,261.044764 C31.8085421,263.336343 29.6707979,264.897909 27.2312369,264.995923 L27.2312369,264.995923 Z" id="Path" fill="#57B894" fill-rule="nonzero"></path>
            <path d="M25.3092164,246.22582 C23.9059265,246.387145 22.5330485,246.839751 21.1210695,246.929376 C19.7090905,247.019001 18.1580858,246.669463 17.2674529,245.535707 C16.7852078,244.926257 16.5419129,244.155482 16.1378697,243.492257 C15.752514,242.873088 15.2259553,242.360733 14.6042433,242 C13.5916575,244.164944 13.8673257,246.736328 15.3140304,248.620768 C16.7607351,250.505208 19.1241177,251.371384 21.3992393,250.850987 C23.6743609,250.33059 25.4612113,248.515116 26,246.176526 C25.7697388,246.185488 25.5394776,246.203413 25.3092164,246.22582 Z" id="Path" fill="#000000" fill-rule="nonzero" opacity="0.1"></path>
            <path d="M27.3672666,264.993976 C25.2360434,265.090296 23.2110373,264.026147 22.0267002,262.187488 C20.8423631,260.348828 20.6706994,258.002691 21.5739698,256 C22.0596936,256.336925 22.4769329,256.769302 22.802062,257.272648 C23.2360168,257.951693 23.4963897,258.734169 24.0084563,259.35925 C24.9544778,260.514976 26.5774688,260.892723 28.0442361,260.820771 C29.5110033,260.748819 30.9343751,260.321606 32.3837842,260.182199 C32.5877429,260.182199 32.7960412,260.146223 33,260.141726 C32.380174,262.882085 30.0804206,264.86318 27.3672666,264.993976 Z" id="Path" fill="#000000" fill-rule="nonzero" opacity="0.1"></path>
            <path d="M12.4236976,274.992396 C10.7963991,275.075154 9.20450305,274.47967 8.00033754,273.337739 C6.79617203,272.195808 6.07904294,270.601604 6.00766958,268.907966 C5.95924398,267.908642 6.1406678,266.911718 6.53687162,266 C7.04709823,266.344773 7.49188491,266.784444 7.84894278,267.29698 C8.32566197,267.997805 8.62306476,268.803298 9.16101394,269.449512 C10.1975502,270.650926 11.9382312,271.074151 13.5083431,271.033193 C15.0784549,270.992236 16.4911182,270.609968 18,270.491647 C17.2426321,273.067712 15.0100033,274.869713 12.4236976,274.992396 L12.4236976,274.992396 Z" id="Path" fill="#000000" fill-rule="nonzero" opacity="0.1"></path>
            <path d="M16,287.220888 C15.0842735,289.304423 13.146692,290.73214 10.9171237,290.966233 C8.68755529,291.200326 6.50472453,290.20523 5.19088262,288.355789 C3.8770407,286.506347 3.63179146,284.083534 4.54751792,282 C5.06419902,282.346183 5.52870979,282.767041 5.92647198,283.249365 C6.52192941,283.992601 6.91591628,284.831591 7.60539331,285.529229 C8.89032778,286.815073 10.963236,287.35312 12.812288,287.394158 C13.8772384,287.398556 14.941559,287.340704 16,287.220888 Z" id="Path" fill="#000000" fill-rule="nonzero" opacity="0.1"></path>
            <path d="M0,296.575225 C0,296.575225 4.83740744,296.429025 6.2956151,295.405623 C7.75382276,294.382221 13.7176301,293.161019 14.0974627,294.803622 C14.4772952,296.446225 21.3623056,302.973636 15.9049416,302.999436 C10.4475776,303.025236 3.21766181,302.160935 1.76382004,301.279433 C0.309978275,300.397932 0,296.575225 0,296.575225 Z" id="Path" fill="#656380" fill-rule="nonzero"></path>
            <path d="M16.0191097,302.369019 C10.5511953,302.415678 3.31746364,301.459159 1.86197564,300.50264 C0.751783593,299.784084 0.310329274,297.194483 0.161720889,296 L0,296 C0,296 0.305958439,300.166691 1.74833394,301.132543 C3.19070943,302.098394 10.4375536,303.036249 15.905468,302.998922 C17.4833394,302.998922 18.0253229,302.387683 17.9990979,301.496486 C17.7936686,302.023739 17.1948643,302.359687 16.0191097,302.369019 Z" id="Path" fill="#000000" fill-rule="nonzero" opacity="0.2"></path>
        </g>
        <g id="Group" transform="translate(80.000000, 198.000000)">
            <path d="M22.1679687,124.220701 C17.2851318,124.220701 13.4765762,122.820976 10.7421875,120.021483 C8.00779883,117.221989 6.640625,113.332054 6.640625,108.351561 L6.640625,77.1992169 L-5.68434189e-14,77.1992169 L-5.68434189e-14,69.9726544 L6.640625,69.9726544 L6.640625,60.3535138 L16.2597656,59.4257794 L16.2597656,69.9726544 L30.1269531,69.9726544 L30.1269531,77.1992169 L16.2597656,77.1992169 L16.2597656,106.593748 C16.2597656,113.527377 19.2545273,116.994139 25.2441406,116.994139 C26.5136782,116.994139 28.0598867,116.782552 29.8828125,116.359373 L29.8828125,122.999998 C26.9205581,123.813804 24.3489692,124.220701 22.1679687,124.220701 Z M43.6523437,122.999998 L43.6523437,69.9726544 L53.2714844,69.9726544 L53.2714844,79.9335919 C57.0800972,72.5116798 62.613896,68.8007794 69.8730469,68.8007794 C70.8496143,68.8007794 71.8749946,68.8821588 72.9492187,69.0449201 L72.9492187,78.0292951 C71.2890542,77.4759069 69.8242251,77.1992169 68.5546875,77.1992169 C62.4674175,77.1992169 57.3730674,80.8124621 53.2714844,88.0390607 L53.2714844,122.999998 L43.6523437,122.999998 Z M111.914062,116.261717 C106.152315,121.567733 100.60224,124.220701 95.2636719,124.220701 C90.8691187,124.220701 87.2233218,122.84539 84.3261719,120.094725 C81.429022,117.34406 79.9804687,113.86916 79.9804687,109.66992 C79.9804687,103.87562 82.4137126,99.4241674 87.2802734,96.3154279 C92.1468342,93.2066884 99.1210483,91.6523419 108.203125,91.6523419 L110.498047,91.6523419 L110.498047,85.2558576 C110.498047,79.1034831 107.340526,76.0273419 101.025391,76.0273419 C95.9472402,76.0273419 90.462269,77.5898263 84.5703125,80.7148419 L84.5703125,72.7558576 C91.0482095,70.1191256 97.1191123,68.8007794 102.783203,68.8007794 C108.707712,68.8007794 113.077785,70.1354015 115.893555,72.8046857 C118.709324,75.4739699 120.117187,79.624319 120.117187,85.2558576 L120.117187,109.279295 C120.117187,114.780625 121.809879,117.531248 125.195312,117.531248 C125.618492,117.531248 126.236975,117.466145 127.050781,117.335936 L127.734375,122.658201 C125.553375,123.699873 123.144544,124.220701 120.507812,124.220701 C116.015603,124.220701 113.151048,121.567733 111.914062,116.261717 Z M110.498047,111.037108 L110.498047,97.3164044 L107.275391,97.2187482 C102.001927,97.2187482 97.7376465,98.2197147 94.4824219,100.221678 C91.2271973,102.223641 89.5996094,104.852195 89.5996094,108.10742 C89.5996094,110.41863 90.4134033,112.371735 92.0410156,113.966795 C93.6686279,115.561855 95.6542852,116.359373 97.9980469,116.359373 C102.001973,116.359373 106.168598,114.585302 110.498047,111.037108 Z M150.78125,122.999998 L131.054687,69.9726544 L140.673828,69.9726544 L156.103516,111.23242 L172.363281,69.9726544 L181.347656,69.9726544 L160.400391,122.999998 L150.78125,122.999998 Z M230.419922,121.291014 C223.974577,123.244149 218.457054,124.220701 213.867187,124.220701 C206.054648,124.220701 199.682642,121.624699 194.750977,116.432615 C189.819311,111.240532 187.353516,104.510456 187.353516,96.2421857 C187.353516,88.2017809 189.526345,81.61005 193.87207,76.4667951 C198.217795,71.3235402 203.776008,68.7519513 210.546875,68.7519513 C216.959667,68.7519513 221.915673,71.0305744 225.415039,75.5878888 C228.914406,80.1452033 230.664062,86.6230031 230.664062,95.0214826 L230.615234,97.9999982 L197.167969,97.9999982 C198.567715,110.597717 204.736273,116.896483 215.673828,116.896483 C219.677754,116.896483 224.59307,115.822275 230.419922,113.673826 L230.419922,121.291014 Z M197.607422,90.7734357 L220.996094,90.7734357 C220.996094,80.9101051 217.317745,75.9785138 209.960937,75.9785138 C202.571578,75.9785138 198.45378,80.9101051 197.607422,90.7734357 Z M247.265625,122.999998 L247.265625,45.9003888 L256.884766,45.9003888 L256.884766,122.999998 L247.265625,122.999998 Z M313.61899,124.220701 C309.224437,124.220701 303.885949,123.195321 297.603365,121.144529 L297.603365,112.306639 C303.885949,115.431654 309.354644,116.994139 314.009615,116.994139 C316.776556,116.994139 319.071455,116.245448 320.894381,114.748045 C322.717307,113.250642 323.628756,111.378916 323.628756,109.132811 C323.628756,105.923314 321.193676,103.256717 316.323445,101.132943 L310.347506,98.5859357 C302.046683,95.1353976 297.896334,90.1712545 297.896334,83.6933576 C297.896334,79.0709386 299.53206,75.4332797 302.803561,72.7802716 C306.075061,70.1272636 310.559066,68.8007794 316.255709,68.8007794 C319.217964,68.8007794 322.880036,69.2076764 327.242037,70.0214826 L329.24399,70.4121076 L329.24399,78.4199201 L328.109977,78.0903288 C323.269333,76.7149978 319.383049,76.0273419 316.451022,76.0273419 C310.266095,76.0273419 307.173678,78.2734132 307.173678,82.7656232 C307.173678,85.6627731 309.517404,88.1041549 314.204928,90.0898419 L318.8436,92.0429669 C324.084511,94.2565197 327.795412,96.5921083 329.976412,99.0498029 C332.157413,101.507497 333.247897,104.575501 333.247897,108.253904 C333.247897,112.908876 331.408722,116.733707 327.730319,119.728514 C324.051915,122.72332 319.348186,124.220701 313.61899,124.220701 Z M366.451022,124.220701 C361.568185,124.220701 357.759629,122.820976 355.02524,120.021483 C352.290852,117.221989 350.923678,113.332054 350.923678,108.351561 L350.923678,77.1992169 L344.283053,77.1992169 L344.283053,69.9726544 L350.923678,69.9726544 L350.923678,60.3535138 L360.542819,59.4257794 L360.542819,69.9726544 L374.410006,69.9726544 L374.410006,77.1992169 L360.542819,77.1992169 L360.542819,106.593748 C360.542819,113.527377 363.53758,116.994139 369.527194,116.994139 C370.796731,116.994139 372.34294,116.782552 374.165865,116.359373 L374.165865,122.999998 C371.203611,123.813804 368.632022,124.220701 366.451022,124.220701 Z M408.68735,124.220701 C401.102676,124.220701 395.048049,121.706078 390.523287,116.676756 C385.998525,111.647434 383.736178,104.917358 383.736178,96.4863263 C383.736178,87.9576378 386.006663,81.211286 390.547701,76.2470685 C395.08874,71.282851 401.24916,68.8007794 409.029147,68.8007794 C416.809133,68.8007794 422.969554,71.282851 427.510592,76.2470685 C432.05163,81.211286 434.322115,87.9250861 434.322115,96.3886701 C434.322115,105.047568 432.043492,111.850885 427.486178,116.798826 C422.928863,121.746768 416.66265,124.220701 408.68735,124.220701 Z M408.833834,116.994139 C419.022687,116.994139 424.117037,110.125718 424.117037,96.3886701 C424.117037,82.8143834 419.087791,76.0273419 409.029147,76.0273419 C399.003055,76.0273419 393.990084,82.8469352 393.990084,96.4863263 C393.990084,110.15827 398.937951,116.994139 408.833834,116.994139 Z M509.273287,68.7519513 C515.68608,68.7519513 520.642085,71.0305744 524.141451,75.5878888 C527.640818,80.1452033 529.390475,86.6230031 529.390475,95.0214826 L529.341647,97.9999982 L495.894381,97.9999982 C497.294128,110.597717 503.462686,116.896483 514.40024,116.896483 C518.404167,116.896483 523.319482,115.822275 529.146334,113.673826 L529.146334,121.291014 C522.700989,123.244149 517.183466,124.220701 512.5936,124.220701 C504.781061,124.220701 498.409054,121.624699 493.477389,116.432615 C488.545724,111.240532 486.079928,104.510456 486.079928,96.2421857 C486.079928,88.2017809 488.252758,81.61005 492.598483,76.4667951 C496.944207,71.3235402 502.50242,68.7519513 509.273287,68.7519513 Z M475.581881,68.8007794 C476.558448,68.8007794 477.583829,68.8821588 478.658053,69.0449201 L478.658053,78.0292951 C476.997888,77.4759069 475.533059,77.1992169 474.263522,77.1992169 C468.176252,77.1992169 463.081902,80.8124621 458.980319,88.0390607 L458.980319,122.999998 L449.361178,122.999998 L449.361178,69.9726544 L458.980319,69.9726544 L458.980319,79.9335919 C462.788931,72.5116798 468.32273,68.8007794 475.581881,68.8007794 Z M508.68735,75.9785138 C501.29799,75.9785138 497.180193,80.9101051 496.333834,90.7734357 L496.333834,90.7734357 L519.722506,90.7734357 C519.722506,80.9101051 516.044157,75.9785138 508.68735,75.9785138 Z" id="travelstore" fill="#295D96" fill-rule="nonzero"></path>
            <path d="M193.997137,39.7921662 C191.276977,39.2365662 188.833177,38.0645262 186.613537,36.4225662 C182.931937,33.6992862 180.456337,30.1246062 179.163577,25.7317662 C179.124577,25.5989262 179.111257,25.4585262 179.085937,25.3217262 C179.887297,22.7201262 181.312897,20.5561662 183.530257,18.9371262 C185.282017,17.6582862 187.223017,16.9090062 189.384457,16.6648062 C191.604217,16.4142462 193.684537,16.7830062 195.657937,17.8210062 C196.708897,18.3738462 197.585977,19.1431662 198.428377,19.9615662 C198.428737,19.9874862 198.432937,20.0128062 198.440977,20.0374062 C198.407977,20.0496462 198.377977,20.0670462 198.351097,20.0897262 C197.647177,20.2342062 196.990777,20.4851262 196.370497,20.8602462 C195.198937,21.5688462 194.139697,22.4063262 193.270657,23.4656862 C190.916857,26.3352462 189.983737,29.5964862 190.600657,33.2774862 C191.026537,35.8176462 192.228817,37.9523262 193.997137,39.7921662" id="Fill-1" fill="#35B34A"></path>
            <path d="M198.441121,20.0374542 C198.432961,20.0127342 198.428641,19.9874142 198.428401,19.9614942 L198.460561,19.9448142 C198.708841,19.9732542 198.933241,19.8732942 199.156921,19.7974542 C201.524761,18.9941742 203.487001,17.6001342 204.975361,15.6010542 C207.157201,12.6708942 207.866161,9.39873419 207.101881,5.80737419 C206.730001,4.05969419 205.928041,2.52741419 204.910201,1.08765419 C206.753041,1.59177419 208.415041,2.47821419 209.970121,3.55929419 C214.306321,6.57357419 217.045921,10.6780542 218.244001,15.8165742 C218.283841,15.9875742 218.308561,16.1622942 218.340241,16.3353342 C217.481761,18.1776942 216.353641,19.8011742 214.752001,21.1001742 C212.823481,22.6642542 210.616681,23.5228542 208.185361,23.7592542 C205.981081,23.9734542 203.855281,23.5187742 201.864601,22.5479742 C200.579161,21.9210942 199.461481,21.0392142 198.441121,20.0374542" id="Fill-3" fill="#EE4345"></path>
            <path d="M198.428341,19.9615182 C197.585941,19.1431182 196.708861,18.3737982 195.657901,17.8210782 C193.684501,16.7830782 191.604181,16.4141982 189.384421,16.6648782 C187.222981,16.9089582 185.281981,17.6582382 183.530341,18.9371982 C181.312981,20.5561182 179.887381,22.7201982 179.085901,25.3216782 C178.437901,23.1970782 178.270741,21.0128382 178.428061,18.8176782 C178.728421,14.6270382 180.178981,10.8609582 182.815621,7.57295819 C183.513661,6.70235819 184.242061,5.85527819 185.134261,5.16959819 C186.063541,5.00987819 187.008901,4.97879819 187.934101,5.08391819 C189.935581,5.31131819 191.804341,5.96135819 193.492381,7.08731819 C195.255781,8.26367819 196.615141,9.81275819 197.541661,11.7028782 C198.828061,14.3266782 199.162981,17.0849982 198.460621,19.9447182 L198.428341,19.9615182 Z" id="Fill-5" fill="#FFCF02"></path>
            <path d="M198.460573,19.9447662 C199.163053,17.0850462 198.828133,14.3267262 197.541733,11.7029262 C196.615093,9.81268619 195.255733,8.26360619 193.492333,7.08736619 C191.804293,5.96128619 189.935533,5.31124619 187.934173,5.08396619 C187.008853,4.97884619 186.063493,5.00992619 185.134333,5.16964619 C187.854613,2.65852619 191.064253,1.10968619 194.674333,0.388846193 C197.917813,-0.258793807 201.135493,-0.0922338068 204.309133,0.849646193 C204.515893,0.910966193 204.740053,0.932806193 204.910213,1.08772619 C205.928053,2.52736619 206.730013,4.05976619 207.101893,5.80732619 C207.866173,9.39880619 207.157213,12.6708462 204.975373,15.6011262 C203.487013,17.6002062 201.524773,18.9941262 199.156933,19.7974062 C198.933133,19.8732462 198.708853,19.9732062 198.460573,19.9447662" id="Fill-7" fill="#F89E1C"></path>
            <mask id="mask-2" fill="white">
                <use xlink:href="#path-1"></use>
            </mask>
            <g id="Clip-10"></g>
            <path d="M193.997137,39.7921662 C192.228817,37.9523262 191.026537,35.8176462 190.600657,33.2774862 C189.983737,29.5964862 190.916857,26.3352462 193.270657,23.4656862 C194.139697,22.4063262 195.198937,21.5688462 196.370497,20.8602462 C196.990777,20.4851262 197.647177,20.2342062 198.350497,20.0900862 C198.069577,21.6457662 197.930377,23.2130862 198.224617,24.7751262 C198.760057,27.6192462 200.065057,30.0379662 202.297657,31.9294062 C204.472417,33.7718862 206.980297,34.7189262 209.821657,34.8209262 C210.762937,34.8547662 211.683577,34.7047662 212.607457,34.5696462 C211.267657,36.0254862 209.655457,37.1206062 207.921457,38.0364462 C204.634657,39.7723662 201.116017,40.5041262 197.413177,40.3129662 C196.263337,40.2536862 195.109897,40.1346462 193.997137,39.7921662" id="Fill-9" fill="#2594D1" mask="url(#mask-2)"></path>
            <mask id="mask-4" fill="white">
                <use xlink:href="#path-3"></use>
            </mask>
            <g id="Clip-13"></g>
            <path d="M212.607445,34.5695862 C211.683565,34.7048262 210.762925,34.8548262 209.821645,34.8209862 C206.980285,34.7188662 204.472405,33.7719462 202.297645,31.9293462 C200.065045,30.0379062 198.760045,27.6193062 198.224605,24.7751862 C197.930365,23.2131462 198.069565,21.6457062 198.350485,20.0900262 C198.377965,20.0671062 198.407965,20.0495862 198.440965,20.0374662 C199.461445,21.0392262 200.579245,21.9211062 201.864685,22.5479862 C203.855245,23.5187862 205.981045,23.9734662 208.185325,23.7592662 C210.616645,23.5228662 212.823445,22.6642662 214.751965,21.1001862 C216.353725,19.8011862 217.481725,18.1777062 218.340205,16.3353462 C219.528325,23.0181462 217.806445,28.8703062 213.310765,33.9268662 C213.100885,34.1629062 212.843005,34.3563462 212.607445,34.5695862" id="Fill-12" fill="#A960A6" mask="url(#mask-4)"></path>
            <path d="M226.920892,22.1032215 C319.625542,0.458216071 390.152432,10.3083822 438.501563,51.65372" id="Path-2" stroke="#295D96" stroke-width="2" stroke-linecap="round" stroke-linejoin="round" stroke-dasharray="8,8" transform="translate(332.711228, 31.300160) rotate(6.000000) translate(-332.711228, -31.300160) "></path>
        </g>
    </g>
</svg>